<svg width="16" height="16" viewBox="0 0 16 16" fill="none" xmlns="http://www.w3.org/2000/svg">
<path d="M14.8538 0.353784C14.6272 0.127256 14.3199 0 13.9995 0C13.6791 0 13.3718 0.127256 13.1452 0.353784L7.60378 5.8952L2.06237 0.353784C1.83577 0.127256 1.52848 0 1.20808 0C0.887669 0 0.58038 0.127256 0.353784 0.353784C0.127256 0.58038 0 0.887669 0 1.20808C0 1.52848 0.127256 1.83577 0.353784 2.06237L5.8952 7.60378L0.353784 13.1452C0.127256 13.3718 0 13.6791 0 13.9995C0 14.3199 0.127256 14.6272 0.353784 14.8538C0.58038 15.0803 0.887669 15.2076 1.20808 15.2076C1.52848 15.2076 1.83577 15.0803 2.06237 14.8538L7.60378 9.31237L13.1452 14.8538C13.3718 15.0803 13.6791 15.2076 13.9995 15.2076C14.3199 15.2076 14.6272 15.0803 14.8538 14.8538C15.0803 14.6272 15.2076 14.3199 15.2076 13.9995C15.2076 13.6791 15.0803 13.3718 14.8538 13.1452L9.31237 7.60378L14.8538 2.06237C15.0803 1.83577 15.2076 1.52848 15.2076 1.20808C15.2076 0.887669 15.0803 0.58038 14.8538 0.353784Z" fill="white"/>
</svg>
