<svg width="960" height="33" viewBox="0 0 960 33" fill="none" xmlns="http://www.w3.org/2000/svg">
<mask id="path-1-outside-1_1684_1492" maskUnits="userSpaceOnUse" x="0" y="0" width="960" height="33" fill="black">
<rect fill="white" width="960" height="33"/>
<path d="M0 1H960V26C960 29.866 956.866 33 953 33H7.00001C3.13401 33 0 29.866 0 26V1Z"/>
</mask>
<path d="M0 1H960V26C960 29.866 956.866 33 953 33H7.00001C3.13401 33 0 29.866 0 26V1Z" fill="white" fill-opacity="0.0605"/>
<path d="M0 0H960V2H0V0ZM960 33H0H960ZM0 33V1V33ZM960 1V33V1Z" fill="white" fill-opacity="0.0837" mask="url(#path-1-outside-1_1684_1492)"/>
<path d="M580 9V25" stroke="white" stroke-opacity="0.0837"/>
<path d="M595.117 22H594.156V14.8047C594.004 14.9336 593.744 15.0859 593.377 15.2617C593.01 15.4375 592.684 15.5625 592.398 15.6367L592.129 14.793C592.574 14.6758 593.047 14.4863 593.547 14.2246C594.051 13.959 594.447 13.6875 594.736 13.4102H595.117V22ZM599.699 22.1465C598.855 22.1465 598.201 21.7852 597.736 21.0625C597.275 20.3359 597.045 19.3047 597.045 17.9688C597.045 16.5039 597.287 15.3867 597.771 14.6172C598.256 13.8438 598.957 13.457 599.875 13.457C600.758 13.457 601.418 13.8164 601.855 14.5352C602.297 15.25 602.518 16.3262 602.518 17.7637C602.518 19.1777 602.27 20.2617 601.773 21.0156C601.277 21.7695 600.586 22.1465 599.699 22.1465ZM599.828 14.2715C599.23 14.2715 598.781 14.5762 598.48 15.1855C598.18 15.791 598.029 16.7031 598.029 17.9219C598.029 19.0547 598.176 19.9062 598.469 20.4766C598.762 21.043 599.203 21.3262 599.793 21.3262C600.375 21.3262 600.811 21.0371 601.1 20.459C601.389 19.8809 601.533 19.0137 601.533 17.8574C601.533 16.6621 601.391 15.7656 601.105 15.168C600.82 14.5703 600.395 14.2715 599.828 14.2715ZM606.168 22.1465C605.324 22.1465 604.67 21.7852 604.205 21.0625C603.744 20.3359 603.514 19.3047 603.514 17.9688C603.514 16.5039 603.756 15.3867 604.24 14.6172C604.725 13.8438 605.426 13.457 606.344 13.457C607.227 13.457 607.887 13.8164 608.324 14.5352C608.766 15.25 608.986 16.3262 608.986 17.7637C608.986 19.1777 608.738 20.2617 608.242 21.0156C607.746 21.7695 607.055 22.1465 606.168 22.1465ZM606.297 14.2715C605.699 14.2715 605.25 14.5762 604.949 15.1855C604.648 15.791 604.498 16.7031 604.498 17.9219C604.498 19.0547 604.645 19.9062 604.938 20.4766C605.23 21.043 605.672 21.3262 606.262 21.3262C606.844 21.3262 607.279 21.0371 607.568 20.459C607.857 19.8809 608.002 19.0137 608.002 17.8574C608.002 16.6621 607.859 15.7656 607.574 15.168C607.289 14.5703 606.863 14.2715 606.297 14.2715ZM611.846 17.8105C611.268 17.8105 610.807 17.6211 610.463 17.2422C610.119 16.8594 609.947 16.3496 609.947 15.7129C609.947 15.0176 610.129 14.4707 610.492 14.0723C610.855 13.6699 611.346 13.4688 611.963 13.4688C612.561 13.4688 613.023 13.6543 613.352 14.0254C613.684 14.3965 613.85 14.918 613.85 15.5898C613.85 16.2617 613.664 16.8008 613.293 17.207C612.926 17.6094 612.443 17.8105 611.846 17.8105ZM611.928 14.1133C611.557 14.1133 611.264 14.252 611.049 14.5293C610.834 14.8027 610.727 15.1797 610.727 15.6602C610.727 16.1328 610.832 16.502 611.043 16.7676C611.254 17.0293 611.541 17.1602 611.904 17.1602C612.271 17.1602 612.559 17.0234 612.766 16.75C612.973 16.4766 613.076 16.0977 613.076 15.6133C613.076 15.1406 612.973 14.7734 612.766 14.5117C612.562 14.2461 612.283 14.1133 611.928 14.1133ZM617.465 13.5918L612.092 22.0586H611.254L616.627 13.5918H617.465ZM616.85 22.1289C616.271 22.1289 615.811 21.9375 615.467 21.5547C615.123 21.1719 614.951 20.6641 614.951 20.0312C614.951 19.3359 615.135 18.7871 615.502 18.3848C615.869 17.9785 616.357 17.7754 616.967 17.7754C617.561 17.7754 618.023 17.9629 618.355 18.3379C618.688 18.7129 618.854 19.2383 618.854 19.9141C618.854 20.582 618.668 21.1191 618.297 21.5254C617.93 21.9277 617.447 22.1289 616.85 22.1289ZM616.932 18.4375C616.557 18.4375 616.262 18.5742 616.047 18.8477C615.836 19.1211 615.73 19.5 615.73 19.9844C615.73 20.4492 615.836 20.8145 616.047 21.0801C616.258 21.3418 616.545 21.4727 616.908 21.4727C617.275 21.4727 617.562 21.3359 617.77 21.0625C617.977 20.7852 618.08 20.4062 618.08 19.9258C618.08 19.4492 617.977 19.082 617.77 18.8242C617.566 18.5664 617.287 18.4375 616.932 18.4375Z" fill="white" fill-opacity="0.786"/>
<path d="M648 9V25" stroke="white" stroke-opacity="0.0837"/>
<path d="M671.027 13.5977L668.654 22H667.506L665.777 15.8652C665.742 15.7324 665.713 15.5977 665.689 15.4609C665.666 15.3203 665.65 15.1738 665.643 15.0215H665.619C665.607 15.166 665.588 15.3086 665.561 15.4492C665.537 15.5859 665.506 15.7207 665.467 15.8535L663.727 22H662.59L660.129 13.5977H661.207L663 20.0371C663.039 20.1699 663.07 20.3047 663.094 20.4414C663.117 20.5781 663.133 20.7207 663.141 20.8691H663.17C663.182 20.7598 663.201 20.6367 663.229 20.5C663.26 20.3633 663.301 20.209 663.352 20.0371L665.203 13.5977H666.146L667.928 20.0781C667.959 20.1914 667.986 20.3125 668.01 20.4414C668.033 20.5664 668.053 20.7051 668.068 20.8574H668.092C668.1 20.752 668.117 20.6348 668.145 20.5059C668.172 20.373 668.207 20.2246 668.25 20.0605L669.967 13.5977H671.027ZM672.656 14.5703C672.457 14.5703 672.291 14.5059 672.158 14.377C672.029 14.2441 671.965 14.082 671.965 13.8906C671.965 13.6992 672.029 13.5371 672.158 13.4043C672.291 13.2715 672.457 13.2051 672.656 13.2051C672.852 13.2051 673.016 13.2715 673.148 13.4043C673.281 13.5371 673.348 13.6992 673.348 13.8906C673.348 14.082 673.281 14.2441 673.148 14.377C673.016 14.5059 672.852 14.5703 672.656 14.5703ZM673.125 22H672.164V16H673.125V22ZM680.045 22H679.084V18.5723C679.084 17.9355 678.969 17.459 678.738 17.1426C678.508 16.8262 678.16 16.668 677.695 16.668C677.211 16.668 676.811 16.8496 676.494 17.2129C676.182 17.5723 676.025 18.0273 676.025 18.5781V22H675.064V16H676.025V16.9902H676.049C676.275 16.6113 676.553 16.3281 676.881 16.1406C677.209 15.9531 677.588 15.8594 678.018 15.8594C678.674 15.8594 679.176 16.0723 679.523 16.498C679.871 16.9199 680.045 17.5312 680.045 18.332V22ZM685.992 20.9863C685.77 21.373 685.486 21.6621 685.143 21.8535C684.803 22.0449 684.4 22.1406 683.936 22.1406C683.178 22.1406 682.572 21.873 682.119 21.3379C681.666 20.7988 681.439 20.0664 681.439 19.1406C681.439 18.1484 681.689 17.3535 682.189 16.7559C682.693 16.1582 683.361 15.8594 684.193 15.8594C684.607 15.8594 684.963 15.9414 685.26 16.1055C685.561 16.2656 685.805 16.5059 685.992 16.8262H686.016V13.1172H686.977V22H686.016V20.9863H685.992ZM682.424 19.0938C682.424 19.7852 682.584 20.332 682.904 20.7344C683.229 21.1328 683.662 21.332 684.205 21.332C684.748 21.332 685.186 21.1387 685.518 20.752C685.85 20.3652 686.016 19.877 686.016 19.2871V18.4023C686.016 17.918 685.854 17.5078 685.529 17.1719C685.209 16.8359 684.805 16.668 684.316 16.668C683.73 16.668 683.268 16.8828 682.928 17.3125C682.592 17.7422 682.424 18.3359 682.424 19.0938ZM691.43 22.1406C690.539 22.1406 689.828 21.8613 689.297 21.3027C688.77 20.7402 688.506 19.9961 688.506 19.0703C688.506 18.0703 688.781 17.2871 689.332 16.7207C689.883 16.1504 690.629 15.8633 691.57 15.8594C692.465 15.8555 693.162 16.1328 693.662 16.6914C694.166 17.2461 694.418 18.0078 694.418 18.9766C694.418 19.9336 694.146 20.7012 693.604 21.2793C693.064 21.8535 692.34 22.1406 691.43 22.1406ZM691.5 21.332C692.121 21.332 692.598 21.1309 692.93 20.7285C693.266 20.3223 693.434 19.75 693.434 19.0117C693.434 18.2617 693.266 17.6836 692.93 17.2773C692.594 16.8711 692.117 16.668 691.5 16.668C690.883 16.668 690.393 16.8809 690.029 17.3066C689.67 17.7285 689.49 18.3047 689.49 19.0352C689.49 19.7461 689.672 20.3066 690.035 20.7168C690.402 21.127 690.891 21.332 691.5 21.332ZM703.512 16L701.713 22H700.717L699.475 17.6934C699.443 17.584 699.422 17.4922 699.41 17.418C699.402 17.3438 699.395 17.2559 699.387 17.1543H699.363C699.355 17.2559 699.342 17.3438 699.322 17.418C699.303 17.4883 699.275 17.5801 699.24 17.6934L697.898 22H696.938L695.121 16H696.129L697.371 20.5059C697.391 20.5723 697.406 20.6504 697.418 20.7402C697.43 20.8262 697.441 20.9258 697.453 21.0391H697.494C697.506 20.9531 697.52 20.8652 697.535 20.7754C697.551 20.6855 697.574 20.5918 697.605 20.4941L698.988 16H699.867L701.109 20.5176C701.129 20.5918 701.145 20.6719 701.156 20.7578C701.172 20.8438 701.186 20.9414 701.197 21.0508H701.244C701.248 20.9727 701.258 20.8906 701.273 20.8047C701.293 20.7148 701.316 20.6191 701.344 20.5176L702.562 16H703.512ZM704.068 21.5078L704.549 20.793C704.803 20.9688 705.055 21.1035 705.305 21.1973C705.555 21.2871 705.826 21.332 706.119 21.332C706.521 21.332 706.828 21.2559 707.039 21.1035C707.254 20.9473 707.361 20.7168 707.361 20.4121C707.361 20.1699 707.266 19.9648 707.074 19.7969C706.887 19.625 706.592 19.4883 706.189 19.3867C705.439 19.1953 704.926 18.9551 704.648 18.666C704.371 18.373 704.232 18.0137 704.232 17.5879C704.232 17.0918 704.418 16.6797 704.789 16.3516C705.164 16.0234 705.68 15.8594 706.336 15.8594C706.664 15.8594 706.975 15.9043 707.268 15.9941C707.561 16.0801 707.854 16.2285 708.146 16.4395L707.701 17.1426C707.436 16.9668 707.195 16.8438 706.98 16.7734C706.766 16.7031 706.543 16.668 706.312 16.668C705.934 16.668 705.641 16.7402 705.434 16.8848C705.23 17.0254 705.129 17.2305 705.129 17.5C705.129 17.7695 705.232 17.9727 705.439 18.1094C705.646 18.2461 705.984 18.375 706.453 18.4961C707.062 18.6562 707.518 18.8848 707.818 19.1816C708.123 19.4746 708.275 19.8613 708.275 20.3418C708.275 20.8965 708.078 21.3359 707.684 21.6602C707.293 21.9805 706.76 22.1406 706.084 22.1406C705.705 22.1406 705.346 22.0859 705.006 21.9766C704.666 21.8672 704.354 21.7109 704.068 21.5078ZM715.506 23.9102H714.65C714.045 23.2188 713.59 22.4473 713.285 21.5957C712.984 20.7402 712.834 19.8066 712.834 18.7949C712.834 17.7754 712.984 16.834 713.285 15.9707C713.59 15.1035 714.045 14.3125 714.65 13.5977H715.518C714.904 14.3398 714.443 15.1426 714.135 16.0059C713.83 16.8691 713.678 17.7949 713.678 18.7832C713.678 19.7598 713.83 20.6758 714.135 21.5312C714.439 22.3867 714.896 23.1797 715.506 23.9102ZM722.707 21.4961C722.309 21.7109 721.91 21.873 721.512 21.9824C721.117 22.0879 720.682 22.1406 720.205 22.1406C718.939 22.1406 717.953 21.7559 717.246 20.9863C716.539 20.2168 716.186 19.207 716.186 17.957C716.186 16.5859 716.578 15.4941 717.363 14.6816C718.148 13.8652 719.172 13.457 720.434 13.457C720.852 13.457 721.238 13.502 721.594 13.5918C721.953 13.6816 722.316 13.8223 722.684 14.0137L722.291 14.7988C721.986 14.6426 721.686 14.5293 721.389 14.459C721.096 14.3848 720.773 14.3477 720.422 14.3477C719.445 14.3477 718.666 14.666 718.084 15.3027C717.506 15.9395 717.217 16.8047 717.217 17.8984C717.217 18.9258 717.494 19.7422 718.049 20.3477C718.607 20.9531 719.346 21.2559 720.264 21.2559C720.619 21.2559 720.961 21.2129 721.289 21.127C721.621 21.041 721.955 20.9062 722.291 20.7227L722.707 21.4961ZM730.178 22H729.006L727.564 19.6152C727.295 19.166 727.064 18.8789 726.873 18.7539C726.682 18.6289 726.449 18.5664 726.176 18.5664H725.209V22H724.225V13.5977H726.732C727.463 13.5977 728.07 13.791 728.555 14.1777C729.043 14.5645 729.287 15.1348 729.287 15.8887C729.287 16.4785 729.133 16.9766 728.824 17.3828C728.52 17.7852 728.098 18.0762 727.559 18.2559V18.2793C727.734 18.3848 727.887 18.5 728.016 18.625C728.148 18.75 728.289 18.9336 728.438 19.1758L730.178 22ZM725.209 14.4883V17.6758H726.545C727.033 17.6758 727.439 17.5176 727.764 17.2012C728.092 16.8848 728.256 16.4746 728.256 15.9707C728.256 15.5215 728.111 15.1621 727.822 14.8926C727.533 14.623 727.113 14.4883 726.562 14.4883H725.209ZM735.756 22H731.396V13.5977H732.381V21.1094H735.756V22ZM741.311 14.4883H738.029V17.3945H741.064V18.2793H738.029V22H737.045V13.5977H741.311V14.4883ZM742.805 23.9102H741.949C742.559 23.1797 743.016 22.3867 743.32 21.5312C743.625 20.6758 743.777 19.7598 743.777 18.7832C743.777 17.7949 743.623 16.8691 743.314 16.0059C743.01 15.1426 742.551 14.3398 741.938 13.5977H742.805C743.414 14.3125 743.871 15.1035 744.176 15.9707C744.48 16.834 744.633 17.7754 744.633 18.7949C744.633 19.8066 744.48 20.7402 744.176 21.5957C743.871 22.4473 743.414 23.2188 742.805 23.9102Z" fill="white" fill-opacity="0.786"/>
<path d="M816 9V25" stroke="white" stroke-opacity="0.0837"/>
<path d="M835.242 18.6016C835.242 19.7734 834.977 20.6562 834.445 21.25C833.914 21.8438 833.115 22.1406 832.049 22.1406C831.033 22.1406 830.27 21.8555 829.758 21.2852C829.246 20.7148 828.99 19.8652 828.99 18.7363V13.5977H829.975V18.6719C829.975 19.5312 830.158 20.1777 830.525 20.6113C830.893 21.041 831.436 21.2559 832.154 21.2559C832.854 21.2559 833.379 21.0488 833.73 20.6348C834.082 20.2168 834.258 19.5918 834.258 18.7598V13.5977H835.242V18.6016ZM842.291 14.4883H839.865V22H838.881V14.4883H836.461V13.5977H842.291V14.4883ZM847.881 14.4883H844.6V17.3945H847.635V18.2793H844.6V22H843.615V13.5977H847.881V14.4883ZM849.217 19.0352V18.2793H852.416V19.0352H849.217ZM853.682 19.6562C853.682 19.2148 853.816 18.7832 854.086 18.3613C854.355 17.9355 854.738 17.6289 855.234 17.4414C854.871 17.2383 854.582 16.9785 854.367 16.6621C854.152 16.3418 854.045 15.9883 854.045 15.6016C854.045 14.9844 854.27 14.4727 854.719 14.0664C855.172 13.6602 855.734 13.457 856.406 13.457C857.086 13.457 857.648 13.6621 858.094 14.0723C858.543 14.4824 858.768 14.9922 858.768 15.6016C858.768 15.9883 858.66 16.3418 858.445 16.6621C858.23 16.9785 857.945 17.2383 857.59 17.4414C858.078 17.6289 858.457 17.9355 858.727 18.3613C858.996 18.7832 859.131 19.2148 859.131 19.6562C859.131 20.3828 858.879 20.9785 858.375 21.4434C857.875 21.9043 857.219 22.1348 856.406 22.1348C855.605 22.1348 854.951 21.9043 854.443 21.4434C853.936 20.9824 853.682 20.3867 853.682 19.6562ZM854.725 19.5742C854.725 20.1016 854.879 20.5195 855.188 20.8281C855.5 21.1328 855.908 21.2852 856.412 21.2852C856.9 21.2852 857.305 21.1309 857.625 20.8223C857.945 20.5098 858.105 20.0938 858.105 19.5742C858.105 19.1055 857.951 18.7051 857.643 18.373C857.338 18.0371 856.928 17.8691 856.412 17.8691C855.928 17.8691 855.525 18.0293 855.205 18.3496C854.885 18.666 854.725 19.0742 854.725 19.5742ZM855.023 15.6777C855.023 16.0762 855.158 16.4102 855.428 16.6797C855.701 16.9492 856.029 17.084 856.412 17.084C856.791 17.084 857.117 16.9492 857.391 16.6797C857.668 16.4062 857.807 16.0723 857.807 15.6777C857.807 15.2715 857.672 14.9355 857.402 14.6699C857.133 14.4004 856.803 14.2656 856.412 14.2656C855.998 14.2656 855.662 14.4043 855.404 14.6816C855.15 14.9551 855.023 15.2871 855.023 15.6777Z" fill="white" fill-opacity="0.786"/>
<path d="M29.4551 22H25.0957V13.5977H26.0801V21.1094H29.4551V22ZM35.7598 22H34.7988V18.5723C34.7988 17.9355 34.6836 17.459 34.4531 17.1426C34.2227 16.8262 33.875 16.668 33.4102 16.668C32.9258 16.668 32.5254 16.8496 32.209 17.2129C31.8965 17.5723 31.7402 18.0273 31.7402 18.5781V22H30.7793V16H31.7402V16.9902H31.7637C31.9902 16.6113 32.2676 16.3281 32.5957 16.1406C32.9238 15.9531 33.3027 15.8594 33.7324 15.8594C34.3887 15.8594 34.8906 16.0723 35.2383 16.498C35.5859 16.9199 35.7598 17.5312 35.7598 18.332V22ZM40.8867 22V21.584C40.8867 21.2246 40.9258 20.9082 41.0039 20.6348C41.082 20.3613 41.2109 20.1016 41.3906 19.8555C41.5703 19.6094 41.8047 19.3633 42.0938 19.1172C42.3867 18.8711 42.7441 18.5938 43.166 18.2852C43.4707 18.0664 43.7246 17.8574 43.9277 17.6582C44.1348 17.459 44.3008 17.2598 44.4258 17.0605C44.5352 16.8926 44.6191 16.7031 44.6777 16.4922C44.7402 16.2773 44.7715 16.0566 44.7715 15.8301C44.7715 15.3652 44.6387 14.9902 44.373 14.7051C44.1074 14.416 43.7441 14.2715 43.2832 14.2715C42.9043 14.2715 42.5508 14.3457 42.2227 14.4941C41.8945 14.6387 41.5898 14.8613 41.3086 15.1621L40.7109 14.6113C41.0742 14.2207 41.4688 13.9316 41.8945 13.7441C42.3203 13.5527 42.8008 13.457 43.3359 13.457C44.1172 13.457 44.7148 13.6855 45.1289 14.1426C45.543 14.5996 45.75 15.1367 45.75 15.7539C45.75 16.0586 45.707 16.3555 45.6211 16.6445C45.5391 16.9297 45.4219 17.1836 45.2695 17.4062C45.1133 17.6484 44.9219 17.8809 44.6953 18.1035C44.4727 18.3262 44.2031 18.5527 43.8867 18.7832C43.4961 19.0566 43.1719 19.291 42.9141 19.4863C42.6562 19.6816 42.4551 19.8633 42.3105 20.0312C42.1582 20.2031 42.0508 20.375 41.9883 20.5469C41.9258 20.7188 41.8945 20.916 41.8945 21.1387H46.0723V22H40.8867ZM48.6328 20.6641L47.7012 23.5469H47.0156L47.7012 20.6641H48.6328ZM59.9297 21.4961C59.5312 21.7109 59.1328 21.873 58.7344 21.9824C58.3398 22.0879 57.9043 22.1406 57.4277 22.1406C56.1621 22.1406 55.1758 21.7559 54.4688 20.9863C53.7617 20.2168 53.4082 19.207 53.4082 17.957C53.4082 16.5859 53.8008 15.4941 54.5859 14.6816C55.3711 13.8652 56.3945 13.457 57.6562 13.457C58.0742 13.457 58.4609 13.502 58.8164 13.5918C59.1758 13.6816 59.5391 13.8223 59.9062 14.0137L59.5137 14.7988C59.209 14.6426 58.9082 14.5293 58.6113 14.459C58.3184 14.3848 57.9961 14.3477 57.6445 14.3477C56.668 14.3477 55.8887 14.666 55.3066 15.3027C54.7285 15.9395 54.4395 16.8047 54.4395 17.8984C54.4395 18.9258 54.7168 19.7422 55.2715 20.3477C55.8301 20.9531 56.5684 21.2559 57.4863 21.2559C57.8418 21.2559 58.1836 21.2129 58.5117 21.127C58.8438 21.041 59.1777 20.9062 59.5137 20.7227L59.9297 21.4961ZM63.9375 22.1406C63.0469 22.1406 62.3359 21.8613 61.8047 21.3027C61.2773 20.7402 61.0137 19.9961 61.0137 19.0703C61.0137 18.0703 61.2891 17.2871 61.8398 16.7207C62.3906 16.1504 63.1367 15.8633 64.0781 15.8594C64.9727 15.8555 65.6699 16.1328 66.1699 16.6914C66.6738 17.2461 66.9258 18.0078 66.9258 18.9766C66.9258 19.9336 66.6543 20.7012 66.1113 21.2793C65.5723 21.8535 64.8477 22.1406 63.9375 22.1406ZM64.0078 21.332C64.6289 21.332 65.1055 21.1309 65.4375 20.7285C65.7734 20.3223 65.9414 19.75 65.9414 19.0117C65.9414 18.2617 65.7734 17.6836 65.4375 17.2773C65.1016 16.8711 64.625 16.668 64.0078 16.668C63.3906 16.668 62.9004 16.8809 62.5371 17.3066C62.1777 17.7285 61.998 18.3047 61.998 19.0352C61.998 19.7461 62.1797 20.3066 62.543 20.7168C62.9102 21.127 63.3984 21.332 64.0078 21.332ZM68.7363 22V13.1172H69.6973V22H68.7363ZM80.0391 14.1543C79.3594 15.3457 78.7383 16.5781 78.1758 17.8516C77.6172 19.125 77.2246 20.5078 76.998 22H75.9668C76.1816 20.5938 76.584 19.2324 77.1738 17.916C77.7637 16.5996 78.3418 15.4492 78.9082 14.4648H74.6953V13.5977H80.0391V14.1543ZM86.6895 17.2949C86.6895 18.8848 86.4219 20.0918 85.8867 20.916C85.3516 21.7363 84.5195 22.1465 83.3906 22.1465C82.9766 22.1465 82.5996 22.0801 82.2598 21.9473C81.9238 21.8105 81.6055 21.5977 81.3047 21.3086L81.8848 20.6934C82.1035 20.9004 82.334 21.0547 82.5762 21.1562C82.8184 21.2539 83.1074 21.3027 83.4434 21.3027C84.1738 21.3027 84.7344 21.0234 85.125 20.4648C85.5195 19.9023 85.7168 19.0156 85.7168 17.8047H85.6934C85.5137 18.1641 85.2676 18.4336 84.9551 18.6133C84.6426 18.793 84.2637 18.8828 83.8184 18.8828C83.0957 18.8828 82.5039 18.6387 82.043 18.1504C81.5859 17.6621 81.3574 17.0352 81.3574 16.2695C81.3574 15.4336 81.6133 14.7559 82.125 14.2363C82.6367 13.7168 83.2812 13.457 84.0586 13.457C84.9062 13.457 85.5566 13.791 86.0098 14.459C86.4629 15.127 86.6895 16.0723 86.6895 17.2949ZM85.6523 16.4336C85.6523 15.7891 85.4941 15.2676 85.1777 14.8691C84.8652 14.4707 84.4648 14.2715 83.9766 14.2715C83.5156 14.2715 83.127 14.4473 82.8105 14.7988C82.498 15.1504 82.3418 15.5977 82.3418 16.1406C82.3418 16.7344 82.498 17.1973 82.8105 17.5293C83.123 17.8613 83.5312 18.0273 84.0352 18.0273C84.4805 18.0273 84.8613 17.873 85.1777 17.5645C85.4941 17.2559 85.6523 16.8789 85.6523 16.4336Z" fill="white" fill-opacity="0.786"/>
<path d="M96 9V25" stroke="white" stroke-opacity="0.0837"/>
<path d="M107.117 22H106.156V14.8047C106.004 14.9336 105.744 15.0859 105.377 15.2617C105.01 15.4375 104.684 15.5625 104.398 15.6367L104.129 14.793C104.574 14.6758 105.047 14.4863 105.547 14.2246C106.051 13.959 106.447 13.6875 106.736 13.4102H107.117V22ZM110.586 20.6641L109.654 23.5469H108.969L109.654 20.6641H110.586ZM116.779 13.5273V19.1758H117.682V20.0723H116.779V22.082H115.824V20.0723H111.834V19.2227C112.205 18.8008 112.58 18.3516 112.959 17.875C113.338 17.3945 113.701 16.9082 114.049 16.416C114.393 15.9238 114.711 15.4316 115.004 14.9395C115.297 14.4473 115.545 13.9766 115.748 13.5273H116.779ZM112.93 19.1758H115.824V14.9922C115.527 15.5117 115.246 15.9766 114.98 16.3867C114.719 16.7969 114.469 17.168 114.23 17.5C113.988 17.8359 113.758 18.1387 113.539 18.4082C113.324 18.6777 113.121 18.9336 112.93 19.1758ZM123.412 13.5273V19.1758H124.314V20.0723H123.412V22.082H122.457V20.0723H118.467V19.2227C118.838 18.8008 119.213 18.3516 119.592 17.875C119.971 17.3945 120.334 16.9082 120.682 16.416C121.025 15.9238 121.344 15.4316 121.637 14.9395C121.93 14.4473 122.178 13.9766 122.381 13.5273H123.412ZM119.562 19.1758H122.457V14.9922C122.16 15.5117 121.879 15.9766 121.613 16.3867C121.352 16.7969 121.102 17.168 120.863 17.5C120.621 17.8359 120.391 18.1387 120.172 18.4082C119.957 18.6777 119.754 18.9336 119.562 19.1758ZM130.713 17.2949C130.713 18.8848 130.445 20.0918 129.91 20.916C129.375 21.7363 128.543 22.1465 127.414 22.1465C127 22.1465 126.623 22.0801 126.283 21.9473C125.947 21.8105 125.629 21.5977 125.328 21.3086L125.908 20.6934C126.127 20.9004 126.357 21.0547 126.6 21.1562C126.842 21.2539 127.131 21.3027 127.467 21.3027C128.197 21.3027 128.758 21.0234 129.148 20.4648C129.543 19.9023 129.74 19.0156 129.74 17.8047H129.717C129.537 18.1641 129.291 18.4336 128.979 18.6133C128.666 18.793 128.287 18.8828 127.842 18.8828C127.119 18.8828 126.527 18.6387 126.066 18.1504C125.609 17.6621 125.381 17.0352 125.381 16.2695C125.381 15.4336 125.637 14.7559 126.148 14.2363C126.66 13.7168 127.305 13.457 128.082 13.457C128.93 13.457 129.58 13.791 130.033 14.459C130.486 15.127 130.713 16.0723 130.713 17.2949ZM129.676 16.4336C129.676 15.7891 129.518 15.2676 129.201 14.8691C128.889 14.4707 128.488 14.2715 128 14.2715C127.539 14.2715 127.15 14.4473 126.834 14.7988C126.521 15.1504 126.365 15.5977 126.365 16.1406C126.365 16.7344 126.521 17.1973 126.834 17.5293C127.146 17.8613 127.555 18.0273 128.059 18.0273C128.504 18.0273 128.885 17.873 129.201 17.5645C129.518 17.2559 129.676 16.8789 129.676 16.4336ZM139.941 21.6133C139.664 21.793 139.383 21.9258 139.098 22.0117C138.816 22.0977 138.508 22.1406 138.172 22.1406C137.32 22.1406 136.623 21.8789 136.08 21.3555C135.541 20.8281 135.271 20.084 135.271 19.123C135.271 18.1465 135.545 17.3594 136.092 16.7617C136.639 16.1602 137.387 15.8594 138.336 15.8594C138.652 15.8594 138.953 15.9004 139.238 15.9824C139.527 16.0605 139.812 16.1895 140.094 16.3691L139.672 17.0605C139.449 16.9277 139.229 16.8301 139.01 16.7676C138.795 16.7051 138.559 16.6738 138.301 16.6738C137.645 16.6738 137.139 16.8945 136.783 17.3359C136.432 17.7773 136.256 18.3379 136.256 19.0176C136.256 19.7637 136.441 20.3359 136.812 20.7344C137.184 21.1289 137.664 21.3262 138.254 21.3262C138.449 21.3262 138.652 21.2949 138.863 21.2324C139.074 21.166 139.285 21.0645 139.496 20.9277L139.941 21.6133ZM146.486 22H145.525V18.5371C145.525 17.9121 145.41 17.4453 145.18 17.1367C144.949 16.8242 144.602 16.668 144.137 16.668C143.664 16.668 143.268 16.8496 142.947 17.2129C142.627 17.5723 142.467 18.0352 142.467 18.6016V22H141.506V13.1172H142.467V16.9902H142.49C142.721 16.6113 143 16.3281 143.328 16.1406C143.656 15.9531 144.033 15.8594 144.459 15.8594C145.135 15.8594 145.641 16.0625 145.977 16.4688C146.316 16.875 146.486 17.4863 146.486 18.3027V22ZM152.809 22H151.848V21.0684H151.824C151.617 21.4277 151.361 21.6973 151.057 21.877C150.756 22.0527 150.406 22.1406 150.008 22.1406C149.441 22.1406 148.984 21.9766 148.637 21.6484C148.289 21.3203 148.115 20.8867 148.115 20.3477C148.115 19.832 148.291 19.4082 148.643 19.0762C148.994 18.7402 149.492 18.5254 150.137 18.4316L151.848 18.209V18.0566C151.848 17.5566 151.73 17.2012 151.496 16.9902C151.266 16.7754 150.955 16.668 150.564 16.668C150.248 16.668 149.945 16.7285 149.656 16.8496C149.371 16.9707 149.105 17.1543 148.859 17.4004L148.279 16.832C148.607 16.5 148.961 16.2559 149.34 16.0996C149.723 15.9395 150.15 15.8594 150.623 15.8594C151.346 15.8594 151.891 16.0469 152.258 16.4219C152.625 16.793 152.809 17.3496 152.809 18.0918V22ZM151.848 19.5625V18.9766L150.389 19.1758C149.951 19.2344 149.623 19.3457 149.404 19.5098C149.186 19.6699 149.076 19.9199 149.076 20.2598C149.076 20.6152 149.18 20.8887 149.387 21.0801C149.598 21.2676 149.854 21.3613 150.154 21.3613C150.674 21.3613 151.086 21.1914 151.391 20.8516C151.695 20.5117 151.848 20.082 151.848 19.5625ZM157.895 16.8262C157.816 16.8027 157.746 16.7852 157.684 16.7734C157.625 16.7617 157.549 16.7559 157.455 16.7559C156.971 16.7559 156.588 16.9648 156.307 17.3828C156.025 17.7969 155.885 18.3164 155.885 18.9414V22H154.924V16H155.885V17.1836H155.908C156.045 16.7656 156.254 16.4473 156.535 16.2285C156.816 16.0059 157.141 15.8945 157.508 15.8945C157.633 15.8945 157.738 15.9004 157.824 15.9121C157.91 15.9238 157.99 15.9434 158.064 15.9707L157.895 16.8262ZM163.59 22H162.629V21.0684H162.605C162.398 21.4277 162.143 21.6973 161.838 21.877C161.537 22.0527 161.188 22.1406 160.789 22.1406C160.223 22.1406 159.766 21.9766 159.418 21.6484C159.07 21.3203 158.896 20.8867 158.896 20.3477C158.896 19.832 159.072 19.4082 159.424 19.0762C159.775 18.7402 160.273 18.5254 160.918 18.4316L162.629 18.209V18.0566C162.629 17.5566 162.512 17.2012 162.277 16.9902C162.047 16.7754 161.736 16.668 161.346 16.668C161.029 16.668 160.727 16.7285 160.438 16.8496C160.152 16.9707 159.887 17.1543 159.641 17.4004L159.061 16.832C159.389 16.5 159.742 16.2559 160.121 16.0996C160.504 15.9395 160.932 15.8594 161.404 15.8594C162.127 15.8594 162.672 16.0469 163.039 16.4219C163.406 16.793 163.59 17.3496 163.59 18.0918V22ZM162.629 19.5625V18.9766L161.17 19.1758C160.732 19.2344 160.404 19.3457 160.186 19.5098C159.967 19.6699 159.857 19.9199 159.857 20.2598C159.857 20.6152 159.961 20.8887 160.168 21.0801C160.379 21.2676 160.635 21.3613 160.936 21.3613C161.455 21.3613 161.867 21.1914 162.172 20.8516C162.477 20.5117 162.629 20.082 162.629 19.5625ZM169.965 21.6133C169.688 21.793 169.406 21.9258 169.121 22.0117C168.84 22.0977 168.531 22.1406 168.195 22.1406C167.344 22.1406 166.646 21.8789 166.104 21.3555C165.564 20.8281 165.295 20.084 165.295 19.123C165.295 18.1465 165.568 17.3594 166.115 16.7617C166.662 16.1602 167.41 15.8594 168.359 15.8594C168.676 15.8594 168.977 15.9004 169.262 15.9824C169.551 16.0605 169.836 16.1895 170.117 16.3691L169.695 17.0605C169.473 16.9277 169.252 16.8301 169.033 16.7676C168.818 16.7051 168.582 16.6738 168.324 16.6738C167.668 16.6738 167.162 16.8945 166.807 17.3359C166.455 17.7773 166.279 18.3379 166.279 19.0176C166.279 19.7637 166.465 20.3359 166.836 20.7344C167.207 21.1289 167.688 21.3262 168.277 21.3262C168.473 21.3262 168.676 21.2949 168.887 21.2324C169.098 21.166 169.309 21.0645 169.52 20.9277L169.965 21.6133ZM174.406 21.9121C174.242 21.9863 174.078 22.041 173.914 22.0762C173.754 22.1113 173.572 22.1289 173.369 22.1289C172.893 22.1289 172.518 21.9902 172.244 21.7129C171.975 21.4316 171.84 21.0195 171.84 20.4766V16.8203H170.809V16H171.84V14.5352L172.801 14.2363V16H174.318V16.8203H172.801V20.3711C172.801 20.7109 172.861 20.957 172.982 21.1094C173.107 21.2578 173.293 21.332 173.539 21.332C173.656 21.332 173.77 21.3184 173.879 21.291C173.988 21.2598 174.08 21.2246 174.154 21.1855L174.406 21.9121ZM180.682 19.2168H176.434C176.449 19.8965 176.629 20.418 176.973 20.7812C177.316 21.1445 177.793 21.3262 178.402 21.3262C178.676 21.3262 178.947 21.2832 179.217 21.1973C179.49 21.1113 179.758 20.9766 180.02 20.793L180.488 21.4609C180.152 21.6914 179.812 21.8633 179.469 21.9766C179.125 22.0859 178.744 22.1406 178.326 22.1406C177.424 22.1406 176.719 21.8711 176.211 21.332C175.703 20.793 175.447 20.0391 175.443 19.0703C175.439 18.1094 175.695 17.334 176.211 16.7441C176.727 16.1543 177.393 15.8594 178.209 15.8594C178.994 15.8594 179.602 16.1152 180.031 16.627C180.465 17.1348 180.682 17.8379 180.682 18.7363V19.2168ZM179.697 18.4258C179.693 17.875 179.559 17.4453 179.293 17.1367C179.027 16.8242 178.66 16.668 178.191 16.668C177.734 16.668 177.346 16.8281 177.025 17.1484C176.709 17.4648 176.516 17.8906 176.445 18.4258H179.697ZM185.352 16.8262C185.273 16.8027 185.203 16.7852 185.141 16.7734C185.082 16.7617 185.006 16.7559 184.912 16.7559C184.428 16.7559 184.045 16.9648 183.764 17.3828C183.482 17.7969 183.342 18.3164 183.342 18.9414V22H182.381V16H183.342V17.1836H183.365C183.502 16.7656 183.711 16.4473 183.992 16.2285C184.273 16.0059 184.598 15.8945 184.965 15.8945C185.09 15.8945 185.195 15.9004 185.281 15.9121C185.367 15.9238 185.447 15.9434 185.521 15.9707L185.352 16.8262ZM186.248 21.5078L186.729 20.793C186.982 20.9688 187.234 21.1035 187.484 21.1973C187.734 21.2871 188.006 21.332 188.299 21.332C188.701 21.332 189.008 21.2559 189.219 21.1035C189.434 20.9473 189.541 20.7168 189.541 20.4121C189.541 20.1699 189.445 19.9648 189.254 19.7969C189.066 19.625 188.771 19.4883 188.369 19.3867C187.619 19.1953 187.105 18.9551 186.828 18.666C186.551 18.373 186.412 18.0137 186.412 17.5879C186.412 17.0918 186.598 16.6797 186.969 16.3516C187.344 16.0234 187.859 15.8594 188.516 15.8594C188.844 15.8594 189.154 15.9043 189.447 15.9941C189.74 16.0801 190.033 16.2285 190.326 16.4395L189.881 17.1426C189.615 16.9668 189.375 16.8438 189.16 16.7734C188.945 16.7031 188.723 16.668 188.492 16.668C188.113 16.668 187.82 16.7402 187.613 16.8848C187.41 17.0254 187.309 17.2305 187.309 17.5C187.309 17.7695 187.412 17.9727 187.619 18.1094C187.826 18.2461 188.164 18.375 188.633 18.4961C189.242 18.6562 189.697 18.8848 189.998 19.1816C190.303 19.4746 190.455 19.8613 190.455 20.3418C190.455 20.8965 190.258 21.3359 189.863 21.6602C189.473 21.9805 188.939 22.1406 188.264 22.1406C187.885 22.1406 187.525 22.0859 187.186 21.9766C186.846 21.8672 186.533 21.7109 186.248 21.5078Z" fill="white" fill-opacity="0.786"/>
</svg>
