<svg width="16" height="16" viewBox="0 0 16 16" fill="none" xmlns="http://www.w3.org/2000/svg">
<path d="M12.0413 0H3.16875C2.32835 0 1.52236 0.333849 0.928105 0.928105C0.333849 1.52236 0 2.32835 0 3.16875L0 12.0413C0 12.4574 0.0819621 12.8694 0.241207 13.2539C0.400451 13.6383 0.63386 13.9876 0.928105 14.2819C1.52236 14.8762 2.32835 15.21 3.16875 15.21H12.0413C12.4574 15.21 12.8694 15.128 13.2539 14.9688C13.6383 14.8095 13.9876 14.5761 14.2819 14.2819C14.5761 13.9876 14.8095 13.6383 14.9688 13.2539C15.128 12.8694 15.21 12.4574 15.21 12.0413V3.16875C15.21 2.75262 15.128 2.34057 14.9688 1.95612C14.8095 1.57167 14.5761 1.22235 14.2819 0.928105C13.9876 0.63386 13.6383 0.400451 13.2539 0.241207C12.8694 0.0819621 12.4574 0 12.0413 0ZM13.9425 12.0413C13.9425 12.5455 13.7422 13.0291 13.3856 13.3856C13.0291 13.7422 12.5455 13.9425 12.0413 13.9425H3.16875C2.66451 13.9425 2.18092 13.7422 1.82436 13.3856C1.46781 13.0291 1.2675 12.5455 1.2675 12.0413V3.16875C1.2675 2.66451 1.46781 2.18092 1.82436 1.82436C2.18092 1.46781 2.66451 1.2675 3.16875 1.2675H12.0413C12.5455 1.2675 13.0291 1.46781 13.3856 1.82436C13.7422 2.18092 13.9425 2.66451 13.9425 3.16875V12.0413Z" fill="white"/>
</svg>
