<svg width="960" height="33" viewBox="0 0 960 33" fill="none" xmlns="http://www.w3.org/2000/svg">
<g clip-path="url(#clip0_1684_1560)">
<mask id="path-1-outside-1_1684_1560" maskUnits="userSpaceOnUse" x="0" y="0" width="960" height="33" fill="black">
<rect fill="white" width="960" height="33"/>
<path d="M0 0H960V32H0V0Z"/>
</mask>
<path d="M0 0H960V32H0V0Z" fill="white" fill-opacity="0.0605"/>
<g clip-path="url(#clip1_1684_1560)">
<path d="M22.3096 12.2363H18.4814V15.627H22.0225V16.6592H18.4814V21H17.333V11.1973H22.3096V12.2363ZM24.5791 12.3389C24.3512 12.3389 24.1598 12.2614 24.0049 12.1064C23.8499 11.9515 23.7725 11.7646 23.7725 11.5459C23.7725 11.3226 23.8499 11.1335 24.0049 10.9785C24.1598 10.8236 24.3512 10.7461 24.5791 10.7461C24.807 10.7461 24.9984 10.8236 25.1533 10.9785C25.3083 11.1335 25.3857 11.3226 25.3857 11.5459C25.3857 11.7646 25.3083 11.9515 25.1533 12.1064C24.9984 12.2614 24.807 12.3389 24.5791 12.3389ZM25.126 21H24.0049V14H25.126V21ZM27.3818 21V10.6367H28.5029V21H27.3818ZM36.3984 17.7461H31.4355C31.4492 18.5436 31.6566 19.1543 32.0576 19.5781C32.4587 20.002 33.0101 20.2139 33.7119 20.2139C34.04 20.2139 34.3613 20.1592 34.6758 20.0498C34.9948 19.9404 35.3047 19.7718 35.6055 19.5439L36.1797 20.2959C35.8014 20.583 35.4072 20.7995 34.9971 20.9453C34.5869 21.0911 34.1289 21.1641 33.623 21.1641C32.584 21.1641 31.766 20.8519 31.1689 20.2275C30.5765 19.5986 30.2803 18.7168 30.2803 17.582C30.2757 16.4655 30.5719 15.5632 31.1689 14.875C31.7705 14.1823 32.5475 13.8359 33.5 13.8359C34.4206 13.8359 35.1338 14.1322 35.6396 14.7246C36.1455 15.3171 36.3984 16.1374 36.3984 17.1855V17.7461ZM35.25 16.8232C35.2454 16.1852 35.0859 15.6862 34.7715 15.3262C34.4616 14.9661 34.0309 14.7861 33.4795 14.7861C32.9417 14.7861 32.4883 14.973 32.1191 15.3467C31.75 15.7158 31.5267 16.208 31.4492 16.8232H35.25Z" fill="white"/>
<path d="M75.7363 21H70.541V11.1973H75.5176V12.2363H71.6895V15.4971H75.2305V16.5293H71.6895V19.9609H75.7363V21ZM82.2988 19.8311C82.0391 20.2731 81.7087 20.6058 81.3076 20.8291C80.9111 21.0524 80.4417 21.1641 79.8994 21.1641C79.0062 21.1641 78.2952 20.8519 77.7666 20.2275C77.2425 19.5986 76.9805 18.7441 76.9805 17.6641C76.9805 16.502 77.2721 15.5745 77.8555 14.8818C78.4434 14.1846 79.2227 13.8359 80.1934 13.8359C80.6764 13.8359 81.0934 13.9294 81.4443 14.1162C81.7952 14.3031 82.0801 14.5811 82.2988 14.9502H82.3262V10.6367H83.4473V21H82.3262V19.8311H82.2988ZM78.1289 17.6094C78.1289 18.416 78.3158 19.0518 78.6895 19.5166C79.0632 19.9814 79.5667 20.2139 80.2002 20.2139C80.8382 20.2139 81.3509 19.9906 81.7383 19.5439C82.1302 19.0928 82.3262 18.5231 82.3262 17.835V16.8027C82.3262 16.2376 82.137 15.7614 81.7588 15.374C81.3805 14.9821 80.9043 14.7861 80.3301 14.7861C79.6465 14.7861 79.1087 15.0345 78.7168 15.5312C78.3249 16.028 78.1289 16.7207 78.1289 17.6094ZM86.2773 12.3389C86.0495 12.3389 85.8581 12.2614 85.7031 12.1064C85.5482 11.9515 85.4707 11.7646 85.4707 11.5459C85.4707 11.3226 85.5482 11.1335 85.7031 10.9785C85.8581 10.8236 86.0495 10.7461 86.2773 10.7461C86.5052 10.7461 86.6966 10.8236 86.8516 10.9785C87.0065 11.1335 87.084 11.3226 87.084 11.5459C87.084 11.7646 87.0065 11.9515 86.8516 12.1064C86.6966 12.2614 86.5052 12.3389 86.2773 12.3389ZM86.8242 21H85.7031V14H86.8242V21ZM92.457 20.8701C92.2611 20.9658 92.0674 21.0365 91.876 21.082C91.6846 21.1276 91.4658 21.1504 91.2197 21.1504C90.6637 21.1504 90.2285 20.9886 89.9141 20.665C89.5996 20.3415 89.4424 19.8652 89.4424 19.2363V14.957H88.2393V14H89.4424V12.2979L90.5635 11.9561V14H92.3408V14.957H90.5635V19.1133C90.5635 19.5052 90.6341 19.7878 90.7754 19.9609C90.9167 20.1341 91.1286 20.2207 91.4111 20.2207C91.5479 20.2207 91.68 20.2048 91.8076 20.1729C91.9352 20.1364 92.0469 20.0885 92.1426 20.0293L92.457 20.8701Z" fill="white"/>
<path d="M133.82 11.1973L130.19 21H128.933L125.378 11.1973H126.649L129.37 18.9629C129.416 19.0814 129.452 19.2113 129.479 19.3525C129.511 19.4938 129.541 19.6442 129.568 19.8037H129.596C129.618 19.667 129.648 19.528 129.685 19.3867C129.721 19.2454 129.767 19.0996 129.821 18.9492L132.59 11.1973H133.82ZM135.652 12.3389C135.424 12.3389 135.233 12.2614 135.078 12.1064C134.923 11.9515 134.846 11.7646 134.846 11.5459C134.846 11.3226 134.923 11.1335 135.078 10.9785C135.233 10.8236 135.424 10.7461 135.652 10.7461C135.88 10.7461 136.072 10.8236 136.227 10.9785C136.382 11.1335 136.459 11.3226 136.459 11.5459C136.459 11.7646 136.382 11.9515 136.227 12.1064C136.072 12.2614 135.88 12.3389 135.652 12.3389ZM136.199 21H135.078V14H136.199V21ZM144.095 17.7461H139.132C139.146 18.5436 139.353 19.1543 139.754 19.5781C140.155 20.002 140.706 20.2139 141.408 20.2139C141.736 20.2139 142.058 20.1592 142.372 20.0498C142.691 19.9404 143.001 19.7718 143.302 19.5439L143.876 20.2959C143.498 20.583 143.104 20.7995 142.693 20.9453C142.283 21.0911 141.825 21.1641 141.319 21.1641C140.28 21.1641 139.462 20.8519 138.865 20.2275C138.273 19.5986 137.977 18.7168 137.977 17.582C137.972 16.4655 138.268 15.5632 138.865 14.875C139.467 14.1823 140.244 13.8359 141.196 13.8359C142.117 13.8359 142.83 14.1322 143.336 14.7246C143.842 15.3171 144.095 16.1374 144.095 17.1855V17.7461ZM142.946 16.8232C142.942 16.1852 142.782 15.6862 142.468 15.3262C142.158 14.9661 141.727 14.7861 141.176 14.7861C140.638 14.7861 140.185 14.973 139.815 15.3467C139.446 15.7158 139.223 16.208 139.146 16.8232H142.946ZM154.588 14L152.489 21H151.327L149.885 15.9756C149.848 15.848 149.823 15.7432 149.81 15.6611C149.8 15.5791 149.789 15.4788 149.775 15.3604H149.748C149.739 15.4788 149.723 15.5791 149.7 15.6611C149.677 15.7432 149.646 15.848 149.604 15.9756L148.039 21H146.918L144.799 14H145.975L147.424 19.25C147.447 19.3275 147.465 19.4163 147.479 19.5166C147.497 19.6169 147.51 19.7308 147.52 19.8584H147.574C147.583 19.7581 147.597 19.6579 147.615 19.5576C147.633 19.4528 147.661 19.3457 147.697 19.2363L149.311 14H150.336L151.785 19.2637C151.808 19.3503 151.826 19.4437 151.84 19.5439C151.858 19.6396 151.876 19.749 151.895 19.8721H151.942C151.951 19.7809 151.965 19.6875 151.983 19.5918C152.002 19.4915 152.027 19.3822 152.059 19.2637L153.48 14H154.588Z" fill="white"/>
</g>
<path d="M932.695 20.7891C932.513 20.7891 932.333 20.8229 932.156 20.8906C932.026 20.9427 931.893 20.9974 931.758 21.0547L931.5 21.1641C931.37 21.2214 931.237 21.276 931.102 21.3281C930.924 21.3958 930.745 21.4297 930.562 21.4297C930.406 21.4297 930.263 21.3984 930.133 21.3359C930.003 21.2682 929.885 21.1745 929.781 21.0547C929.714 20.9766 929.633 20.8724 929.539 20.7422C929.451 20.612 929.357 20.4688 929.258 20.3125C929.159 20.1562 929.06 19.9922 928.961 19.8203C928.862 19.6432 928.773 19.474 928.695 19.3125C928.622 19.1458 928.562 18.9896 928.516 18.8438C928.469 18.6979 928.445 18.5755 928.445 18.4766C928.445 18.2891 928.492 18.1224 928.586 17.9766C928.68 17.8255 928.794 17.6901 928.93 17.5703C929.07 17.4453 929.221 17.3281 929.383 17.2188C929.549 17.1094 929.701 16.9948 929.836 16.875C929.977 16.75 930.094 16.6198 930.188 16.4844C930.281 16.3438 930.328 16.1823 930.328 16C930.328 15.8229 930.281 15.6641 930.188 15.5234C930.094 15.3828 929.977 15.2526 929.836 15.1328C929.695 15.0078 929.544 14.888 929.383 14.7734C929.221 14.6589 929.07 14.5391 928.93 14.4141C928.789 14.2839 928.672 14.1458 928.578 14C928.484 13.8542 928.438 13.6875 928.438 13.5C928.438 13.4062 928.461 13.2865 928.508 13.1406C928.56 12.9948 928.625 12.8385 928.703 12.6719C928.781 12.5052 928.87 12.3359 928.969 12.1641C929.073 11.987 929.174 11.8203 929.273 11.6641C929.378 11.5026 929.477 11.3568 929.57 11.2266C929.664 11.0964 929.745 10.9948 929.812 10.9219C929.917 10.8073 930.034 10.7188 930.164 10.6562C930.299 10.5938 930.443 10.5625 930.594 10.5625C930.776 10.5625 930.953 10.5964 931.125 10.6641C931.297 10.7318 931.469 10.8073 931.641 10.8906C931.812 10.9688 931.984 11.0417 932.156 11.1094C932.333 11.1771 932.513 11.2109 932.695 11.2109C932.93 11.2109 933.13 11.1406 933.297 11C933.469 10.8542 933.576 10.6667 933.617 10.4375L933.898 8.90625C933.94 8.6875 934.034 8.50781 934.18 8.36719C934.331 8.22656 934.516 8.13542 934.734 8.09375C934.943 8.05729 935.154 8.03385 935.367 8.02344C935.581 8.00781 935.792 8 936 8C936.219 8 936.438 8.00781 936.656 8.02344C936.875 8.03906 937.091 8.06771 937.305 8.10938C937.523 8.15104 937.703 8.24219 937.844 8.38281C937.984 8.52344 938.076 8.70312 938.117 8.92188C938.143 9.04688 938.167 9.17448 938.188 9.30469L938.312 10.0547C938.339 10.1797 938.362 10.3073 938.383 10.4375C938.424 10.6615 938.531 10.8464 938.703 10.9922C938.875 11.138 939.076 11.2109 939.305 11.2109C939.487 11.2109 939.667 11.1771 939.844 11.1094C939.979 11.0573 940.112 11.0026 940.242 10.9453L940.5 10.8359C940.635 10.7786 940.768 10.724 940.898 10.6719C941.076 10.6042 941.255 10.5703 941.438 10.5703C941.599 10.5703 941.742 10.6042 941.867 10.6719C941.997 10.7344 942.115 10.8255 942.219 10.9453C942.286 11.0234 942.365 11.1276 942.453 11.2578C942.547 11.388 942.643 11.5312 942.742 11.6875C942.841 11.8438 942.94 12.0104 943.039 12.1875C943.138 12.3594 943.224 12.5286 943.297 12.6953C943.375 12.8568 943.438 13.0104 943.484 13.1562C943.531 13.3021 943.555 13.4245 943.555 13.5234C943.555 13.7161 943.508 13.8854 943.414 14.0312C943.32 14.1771 943.203 14.3125 943.062 14.4375C942.927 14.5573 942.776 14.6719 942.609 14.7812C942.448 14.8906 942.297 15.0078 942.156 15.1328C942.021 15.2526 941.906 15.3828 941.812 15.5234C941.719 15.6589 941.672 15.8177 941.672 16C941.672 16.1771 941.719 16.3359 941.812 16.4766C941.906 16.6172 942.023 16.75 942.164 16.875C942.305 16.9948 942.456 17.112 942.617 17.2266C942.779 17.3411 942.93 17.4635 943.07 17.5938C943.211 17.7188 943.328 17.8542 943.422 18C943.516 18.1458 943.562 18.3125 943.562 18.5C943.562 18.6042 943.536 18.7292 943.484 18.875C943.438 19.0156 943.375 19.1693 943.297 19.3359C943.219 19.5026 943.128 19.6719 943.023 19.8438C942.924 20.0156 942.823 20.1797 942.719 20.3359C942.62 20.4922 942.521 20.6354 942.422 20.7656C942.328 20.8958 942.247 21 942.18 21.0781C942.076 21.1927 941.958 21.2812 941.828 21.3438C941.703 21.4062 941.565 21.4375 941.414 21.4375C941.242 21.4375 941.065 21.4036 940.883 21.3359C940.706 21.2682 940.529 21.1953 940.352 21.1172C940.174 21.0339 939.997 20.9583 939.82 20.8906C939.643 20.8229 939.471 20.7891 939.305 20.7891C939.076 20.7891 938.898 20.8359 938.773 20.9297C938.648 21.0234 938.552 21.1458 938.484 21.2969C938.417 21.4427 938.367 21.6068 938.336 21.7891C938.31 21.9661 938.281 22.138 938.25 22.3047L938.102 23.0938C938.06 23.3177 937.966 23.5 937.82 23.6406C937.674 23.776 937.49 23.8646 937.266 23.9062C937.057 23.9427 936.846 23.9688 936.633 23.9844C936.424 23.9948 936.214 24 936 24C935.781 24 935.562 23.9922 935.344 23.9766C935.125 23.9609 934.909 23.9323 934.695 23.8906C934.477 23.849 934.297 23.7578 934.156 23.6172C934.016 23.4714 933.924 23.2891 933.883 23.0703C933.846 22.8828 933.812 22.6953 933.781 22.5078L933.719 22.125C933.688 21.9375 933.654 21.75 933.617 21.5625C933.576 21.3385 933.469 21.1536 933.297 21.0078C933.125 20.862 932.924 20.7891 932.695 20.7891ZM937.117 22.9219C937.138 22.8073 937.161 22.6667 937.188 22.5C937.214 22.3281 937.242 22.1536 937.273 21.9766C937.305 21.7995 937.339 21.6302 937.375 21.4688C937.411 21.3073 937.448 21.1771 937.484 21.0781C937.63 20.6875 937.865 20.375 938.188 20.1406C938.51 19.9062 938.883 19.7891 939.305 19.7891C939.445 19.7891 939.607 19.8151 939.789 19.8672C939.977 19.9141 940.167 19.9714 940.359 20.0391C940.557 20.1068 940.747 20.1771 940.93 20.25C941.112 20.3229 941.273 20.3854 941.414 20.4375C941.659 20.1458 941.875 19.8385 942.062 19.5156C942.25 19.1875 942.414 18.849 942.555 18.5V18.4922L941.359 17.4766C941.141 17.2943 940.971 17.0755 940.852 16.8203C940.732 16.5599 940.672 16.2865 940.672 16C940.672 15.7135 940.732 15.4401 940.852 15.1797C940.977 14.9193 941.148 14.6979 941.367 14.5156L942.547 13.5312V13.5234C942.547 13.5182 942.536 13.4896 942.516 13.4375C942.495 13.3802 942.482 13.349 942.477 13.3438C942.352 13.0208 942.201 12.7135 942.023 12.4219C941.852 12.125 941.656 11.8411 941.438 11.5703H941.43L939.961 12.1016C939.753 12.1745 939.539 12.2109 939.32 12.2109C938.966 12.2109 938.641 12.125 938.344 11.9531C938.094 11.8125 937.885 11.625 937.719 11.3906C937.557 11.1562 937.451 10.8984 937.398 10.6172L937.133 9.09375C936.758 9.03125 936.38 9 936 9C935.812 9 935.625 9.00781 935.438 9.02344C935.25 9.03385 935.065 9.05208 934.883 9.07812C934.836 9.33854 934.792 9.59635 934.75 9.85156C934.708 10.1068 934.659 10.362 934.602 10.6172C934.555 10.8464 934.474 11.0599 934.359 11.2578C934.245 11.4505 934.104 11.6172 933.938 11.7578C933.771 11.8984 933.583 12.0104 933.375 12.0938C933.167 12.1719 932.943 12.2109 932.703 12.2109C932.469 12.2109 932.247 12.1719 932.039 12.0938H932.031L930.594 11.5625H930.586C930.346 11.8594 930.13 12.1693 929.938 12.4922C929.745 12.8099 929.581 13.1458 929.445 13.5V13.5078L930.641 14.5234C930.859 14.7057 931.029 14.9271 931.148 15.1875C931.268 15.4427 931.328 15.7135 931.328 16C931.328 16.2865 931.266 16.5599 931.141 16.8203C931.021 17.0807 930.852 17.3021 930.633 17.4844L929.453 18.4688V18.4766C929.453 18.4818 929.464 18.513 929.484 18.5703C929.505 18.6224 929.518 18.651 929.523 18.6562C929.648 18.9792 929.797 19.2891 929.969 19.5859C930.146 19.8776 930.344 20.1589 930.562 20.4297H930.57L932.039 19.8984C932.247 19.8255 932.461 19.7891 932.68 19.7891C933.034 19.7891 933.359 19.875 933.656 20.0469C933.906 20.1875 934.112 20.375 934.273 20.6094C934.44 20.8438 934.549 21.1016 934.602 21.3828L934.867 22.9062C935.242 22.9688 935.62 23 936 23C936.188 23 936.375 22.9948 936.562 22.9844C936.75 22.9688 936.935 22.9479 937.117 22.9219ZM933 16C933 15.5833 933.078 15.1927 933.234 14.8281C933.391 14.4635 933.604 14.1458 933.875 13.875C934.146 13.6042 934.464 13.3906 934.828 13.2344C935.193 13.0781 935.583 13 936 13C936.417 13 936.807 13.0781 937.172 13.2344C937.536 13.3906 937.854 13.6042 938.125 13.875C938.396 14.1458 938.609 14.4635 938.766 14.8281C938.922 15.1927 939 15.5833 939 16C939 16.4167 938.922 16.8073 938.766 17.1719C938.609 17.5365 938.396 17.8542 938.125 18.125C937.854 18.3958 937.536 18.6094 937.172 18.7656C936.807 18.9219 936.417 19 936 19C935.583 19 935.193 18.9219 934.828 18.7656C934.464 18.6094 934.146 18.3958 933.875 18.125C933.604 17.8542 933.391 17.5365 933.234 17.1719C933.078 16.8073 933 16.4167 933 16ZM938 16C938 15.724 937.948 15.4661 937.844 15.2266C937.74 14.9818 937.596 14.7682 937.414 14.5859C937.232 14.4036 937.018 14.2604 936.773 14.1562C936.534 14.0521 936.276 14 936 14C935.724 14 935.464 14.0521 935.219 14.1562C934.979 14.2604 934.768 14.4036 934.586 14.5859C934.404 14.7682 934.26 14.9818 934.156 15.2266C934.052 15.4661 934 15.724 934 16C934 16.276 934.052 16.5365 934.156 16.7812C934.26 17.0208 934.404 17.2318 934.586 17.4141C934.768 17.5964 934.979 17.7396 935.219 17.8438C935.464 17.9479 935.724 18 936 18C936.276 18 936.534 17.9479 936.773 17.8438C937.018 17.7396 937.232 17.5964 937.414 17.4141C937.596 17.2318 937.74 17.0208 937.844 16.7812C937.948 16.5365 938 16.276 938 16Z" fill="white"/>
</g>
<path d="M960 32V31H0V32V33H960V32Z" fill="white" fill-opacity="0.0837" mask="url(#path-1-outside-1_1684_1560)"/>
<defs>
<clipPath id="clip0_1684_1560">
<path d="M0 0H960V32H0V0Z" fill="white"/>
</clipPath>
<clipPath id="clip1_1684_1560">
<rect width="171" height="40" fill="white" transform="translate(0 -4)"/>
</clipPath>
</defs>
</svg>
