<svg width="97" height="35" viewBox="0 0 97 35" fill="none" xmlns="http://www.w3.org/2000/svg">
<rect x="1.29811" y="1.29811" width="94.4038" height="32.4038" rx="4.91326" fill="white" fill-opacity="0.0605"/>
<rect x="1.29811" y="1.29811" width="94.4038" height="32.4038" rx="4.91326" stroke="url(#paint0_linear_1666_1163)" stroke-width="1.40379"/>
<path d="M27.7886 23.1857C27.1964 23.5202 26.5685 23.7724 25.905 23.9424C25.2415 24.1124 24.5424 24.1974 23.8076 24.1974C22.0638 24.1974 20.6792 23.6792 19.6538 22.6428C18.6283 21.6064 18.1156 20.1451 18.1156 18.2587C18.1156 16.3559 18.6832 14.8397 19.8183 13.7101C20.9589 12.575 22.4284 12.0075 24.2271 12.0075C24.896 12.0075 25.5102 12.076 26.0695 12.2131C26.6343 12.3447 27.2046 12.5558 27.7804 12.8465L27.1799 14.0556C26.6974 13.8033 26.2231 13.6224 25.757 13.5127C25.2909 13.403 24.7781 13.3482 24.2188 13.3482C22.8973 13.3482 21.8115 13.7677 20.9616 14.6067C20.1171 15.4457 19.6949 16.6301 19.6949 18.16C19.6949 19.7119 20.0678 20.8853 20.8135 21.6805C21.5648 22.4701 22.6176 22.8649 23.9721 22.8649C24.4162 22.8649 24.8302 22.821 25.2141 22.7333C25.6034 22.6456 25.9599 22.514 26.2834 22.3385V19.1306H23.7171V17.7981H27.7886V23.1857ZM34.1221 24.2056C32.8335 24.2056 31.8053 23.8026 31.0376 22.9965C30.2754 22.1849 29.8943 21.1102 29.8943 19.7722C29.8943 18.33 30.2891 17.2031 31.0788 16.3916C31.8684 15.58 32.9459 15.1715 34.3113 15.166C35.6054 15.1605 36.6171 15.5581 37.3465 16.3587C38.0812 17.1538 38.4486 18.2478 38.4486 19.6406C38.4486 21.0279 38.0566 22.1356 37.2724 22.9636C36.4883 23.7916 35.4382 24.2056 34.1221 24.2056ZM34.2208 22.9883C35.0982 22.9883 35.7699 22.7031 36.236 22.1329C36.7076 21.5571 36.9434 20.7428 36.9434 19.6899C36.9434 18.6261 36.7076 17.8091 36.236 17.2388C35.7644 16.6685 35.0927 16.3833 34.2208 16.3833C33.3489 16.3833 32.658 16.6822 32.148 17.2799C31.6436 17.8721 31.3913 18.6892 31.3913 19.7311C31.3913 20.7455 31.6463 21.5434 32.1563 22.1246C32.6662 22.7004 33.3544 22.9883 34.2208 22.9883ZM45.5389 24V12.2049H48.9853C50.0327 12.2049 50.8579 12.4489 51.4611 12.9369C52.0698 13.4195 52.3741 14.0803 52.3741 14.9192C52.3741 15.5827 52.1932 16.1613 51.8313 16.6548C51.4693 17.1428 50.9703 17.491 50.3342 17.6994V17.7323C51.1294 17.8255 51.7627 18.1271 52.2343 18.6371C52.7114 19.1416 52.9499 19.7969 52.9499 20.6029C52.9499 21.6174 52.5852 22.4372 51.8559 23.0623C51.1266 23.6874 50.1999 24 49.0758 24H45.5389ZM47.0359 13.5209V17.2388H48.4342C49.169 17.2388 49.7475 17.0633 50.1697 16.7124C50.592 16.3559 50.8031 15.8569 50.8031 15.2153C50.8031 14.6451 50.6167 14.2201 50.2438 13.9404C49.8709 13.6608 49.3143 13.5209 48.574 13.5209H47.0359ZM47.0359 18.5548V22.6839H48.8701C49.6653 22.6839 50.2794 22.4975 50.7126 22.1246C51.1513 21.7463 51.3706 21.2308 51.3706 20.5783C51.3706 19.9093 51.1403 19.4048 50.6797 19.0648C50.2191 18.7248 49.5309 18.5548 48.6152 18.5548H47.0359ZM61.496 24H60.0401V22.6428H60.0072C59.7111 23.1583 59.3437 23.5476 58.905 23.8108C58.4664 24.074 57.9564 24.2056 57.3751 24.2056C56.5636 24.2056 55.9083 23.9698 55.4093 23.4983C54.9103 23.0267 54.6608 22.4043 54.6608 21.6311C54.6608 20.8799 54.913 20.263 55.4175 19.7804C55.922 19.2979 56.6486 18.988 57.5972 18.8509L60.0484 18.5219V18.3245C60.0484 17.6281 59.8811 17.1264 59.5466 16.8193C59.2176 16.5122 58.7734 16.3587 58.2141 16.3587C57.7699 16.3587 57.3367 16.4437 56.9145 16.6137C56.4923 16.7836 56.092 17.0386 55.7136 17.3786L54.9158 16.4903C55.4038 16.0406 55.9247 15.7089 56.4786 15.495C57.0379 15.2757 57.6493 15.166 58.3128 15.166C59.3657 15.166 60.158 15.4374 60.6899 15.9803C61.2273 16.5232 61.496 17.3375 61.496 18.4232V24ZM60.0484 20.4796V19.6488L57.992 19.9285C57.3614 20.0162 56.8898 20.1752 56.5773 20.4055C56.2647 20.6358 56.1084 20.9978 56.1084 21.4913C56.1084 21.9793 56.2537 22.3577 56.5444 22.6264C56.8405 22.8951 57.2079 23.0294 57.6466 23.0294C58.3704 23.0294 58.9517 22.7909 59.3903 22.3138C59.829 21.8313 60.0484 21.2198 60.0484 20.4796ZM70.3958 23.4571C69.9846 23.7203 69.5733 23.9095 69.162 24.0247C68.7508 24.1453 68.3093 24.2056 67.8378 24.2056C66.604 24.2056 65.5977 23.8273 64.8191 23.0705C64.0404 22.3083 63.6511 21.2445 63.6511 19.8791C63.6511 18.4644 64.0459 17.3265 64.8355 16.4656C65.6306 15.5992 66.7164 15.166 68.0927 15.166C68.5369 15.166 68.9591 15.2208 69.3594 15.3305C69.7597 15.4347 70.1628 15.6047 70.5686 15.8405L69.9517 16.9098C69.6391 16.7233 69.332 16.5917 69.0304 16.5149C68.7288 16.4327 68.4053 16.3916 68.0598 16.3916C67.1221 16.3916 66.4011 16.7041 65.8966 17.3293C65.3976 17.9489 65.1481 18.7468 65.1481 19.7228C65.1481 20.7757 65.4085 21.5818 65.9295 22.1411C66.4559 22.7004 67.1331 22.9801 67.9611 22.9801C68.2408 22.9801 68.5287 22.9389 68.8248 22.8567C69.1264 22.7689 69.4362 22.6236 69.7543 22.4207L70.3958 23.4571ZM79.6329 24H77.6259L73.8916 19.838H73.8587V24H72.3946V11.5304H73.8587V19.328H73.8916L77.4367 15.3716H79.3285L75.4051 19.5254L79.6329 24Z" fill="white"/>
<defs>
<linearGradient id="paint0_linear_1666_1163" x1="48.5" y1="2" x2="48.5" y2="33" gradientUnits="userSpaceOnUse">
<stop stop-color="white" stop-opacity="0.093"/>
<stop offset="0.5" stop-color="white" stop-opacity="0.0698"/>
</linearGradient>
</defs>
</svg>
