<svg width="1536" height="44" viewBox="0 0 1536 44" fill="none" xmlns="http://www.w3.org/2000/svg">
<rect width="1536" height="44" fill="white"/>
<path d="M35.0005 22.9988H23.8305L28.7105 18.1188C29.1005 17.7288 29.1005 17.0887 28.7105 16.6987C28.3205 16.3088 27.6905 16.3088 27.3005 16.6987L20.7105 23.2888C20.3205 23.6788 20.3205 24.3087 20.7105 24.6987L27.3005 31.2888C27.6905 31.6788 28.3205 31.6788 28.7105 31.2888C29.1005 30.8988 29.1005 30.2687 28.7105 29.8787L23.8305 24.9987H35.0005C35.5505 24.9987 36.0005 24.5488 36.0005 23.9988C36.0005 23.4488 35.5505 22.9988 35.0005 22.9988Z" fill="#535353"/>
<path d="M72.7617 24.9987H83.9317L79.0517 29.8787C78.6617 30.2687 78.6617 30.9087 79.0517 31.2987C79.4417 31.6887 80.0717 31.6887 80.4617 31.2987L87.0517 24.7087C87.4417 24.3187 87.4417 23.6888 87.0517 23.2988L80.4717 16.6987C80.0817 16.3088 79.4517 16.3088 79.0617 16.6987C78.6717 17.0887 78.6717 17.7188 79.0617 18.1088L83.9317 22.9988H72.7617C72.2117 22.9988 71.7617 23.4488 71.7617 23.9988C71.7617 24.5488 72.2117 24.9987 72.7617 24.9987V24.9987Z" fill="#535353"/>
<path d="M138.335 17.6466C136.502 15.8131 133.903 14.7558 131.046 15.0483C126.918 15.4645 123.522 18.8163 123.06 22.9443C122.442 28.3996 126.66 33 131.98 33C135.568 33 138.65 30.8966 140.09 27.8709C140.45 27.1173 139.91 26.2512 139.077 26.2512C138.661 26.2512 138.268 26.4762 138.088 26.8474C136.817 29.5806 133.768 31.3128 130.439 30.5704C127.942 30.0193 125.929 27.9834 125.4 25.4864C124.455 21.1222 127.773 17.2529 131.98 17.2529C133.847 17.2529 135.512 18.029 136.727 19.255L135.028 20.9535C134.32 21.6621 134.814 22.8768 135.816 22.8768H139.854C140.472 22.8768 140.978 22.3707 140.978 21.7521V17.714C140.978 16.713 139.764 16.2068 139.055 16.9154L138.335 17.6466V17.6466Z" fill="#535353"/>
<rect x="160" y="8" width="1284" height="32" rx="16" fill="#F1F3F4"/>
<path d="M180.211 20.5137C181.586 20.6532 182.659 21.8153 182.659 23.2275V24.1367L182.658 24.1396C183.169 24.1847 183.569 24.6134 183.569 25.1357V29.499C183.569 30.0513 183.122 30.499 182.569 30.499H177.297C176.745 30.499 176.297 30.0513 176.297 29.499V25.1357C176.297 24.6143 176.696 24.1858 177.205 24.1396V23.2275C177.205 21.7214 178.427 20.5002 179.933 20.5L180.211 20.5137ZM179.933 21.5C179.038 21.5002 178.302 22.1798 178.214 23.0508L178.205 23.2275V24.1357H181.659V23.2275C181.659 22.2737 180.886 21.5001 179.933 21.5Z" fill="#202124"/>
<path d="M197.547 17.5V29.5H196.102V17.5H197.547ZM197.203 24.9531L196.602 24.9297C196.607 24.3516 196.693 23.8177 196.859 23.3281C197.026 22.8333 197.26 22.4036 197.562 22.0391C197.865 21.6745 198.224 21.3932 198.641 21.1953C199.062 20.9922 199.529 20.8906 200.039 20.8906C200.456 20.8906 200.831 20.9479 201.164 21.0625C201.497 21.1719 201.781 21.349 202.016 21.5938C202.255 21.8385 202.438 22.1562 202.562 22.5469C202.688 22.9323 202.75 23.4036 202.75 23.9609V29.5H201.297V23.9453C201.297 23.5026 201.232 23.1484 201.102 22.8828C200.971 22.612 200.781 22.4167 200.531 22.2969C200.281 22.1719 199.974 22.1094 199.609 22.1094C199.25 22.1094 198.922 22.1849 198.625 22.3359C198.333 22.487 198.081 22.6953 197.867 22.9609C197.659 23.2266 197.495 23.5312 197.375 23.875C197.26 24.2135 197.203 24.5729 197.203 24.9531ZM208.453 21.0469V22.1562H203.883V21.0469H208.453ZM205.43 18.9922H206.875V27.4062C206.875 27.6927 206.919 27.9089 207.008 28.0547C207.096 28.2005 207.211 28.2969 207.352 28.3438C207.492 28.3906 207.643 28.4141 207.805 28.4141C207.924 28.4141 208.049 28.4036 208.18 28.3828C208.315 28.3568 208.417 28.3359 208.484 28.3203L208.492 29.5C208.378 29.5365 208.227 29.5703 208.039 29.6016C207.857 29.638 207.635 29.6562 207.375 29.6562C207.021 29.6562 206.695 29.5859 206.398 29.4453C206.102 29.3047 205.865 29.0703 205.688 28.7422C205.516 28.4089 205.43 27.9609 205.43 27.3984V18.9922ZM213.688 21.0469V22.1562H209.117V21.0469H213.688ZM210.664 18.9922H212.109V27.4062C212.109 27.6927 212.154 27.9089 212.242 28.0547C212.331 28.2005 212.445 28.2969 212.586 28.3438C212.727 28.3906 212.878 28.4141 213.039 28.4141C213.159 28.4141 213.284 28.4036 213.414 28.3828C213.549 28.3568 213.651 28.3359 213.719 28.3203L213.727 29.5C213.612 29.5365 213.461 29.5703 213.273 29.6016C213.091 29.638 212.87 29.6562 212.609 29.6562C212.255 29.6562 211.93 29.5859 211.633 29.4453C211.336 29.3047 211.099 29.0703 210.922 28.7422C210.75 28.4089 210.664 27.9609 210.664 27.3984V18.9922ZM216.828 22.6719V32.75H215.375V21.0469H216.703L216.828 22.6719ZM222.523 25.2031V25.3672C222.523 25.9818 222.451 26.5521 222.305 27.0781C222.159 27.599 221.945 28.0521 221.664 28.4375C221.388 28.8229 221.047 29.1224 220.641 29.3359C220.234 29.5495 219.768 29.6562 219.242 29.6562C218.706 29.6562 218.232 29.5677 217.82 29.3906C217.409 29.2135 217.06 28.9557 216.773 28.6172C216.487 28.2786 216.258 27.8724 216.086 27.3984C215.919 26.9245 215.805 26.3906 215.742 25.7969V24.9219C215.805 24.2969 215.922 23.737 216.094 23.2422C216.266 22.7474 216.492 22.3255 216.773 21.9766C217.06 21.6224 217.406 21.3542 217.812 21.1719C218.219 20.9844 218.688 20.8906 219.219 20.8906C219.75 20.8906 220.221 20.9948 220.633 21.2031C221.044 21.4062 221.391 21.6979 221.672 22.0781C221.953 22.4583 222.164 22.9141 222.305 23.4453C222.451 23.9714 222.523 24.5573 222.523 25.2031ZM221.07 25.3672V25.2031C221.07 24.7812 221.026 24.3854 220.938 24.0156C220.849 23.6406 220.711 23.3125 220.523 23.0312C220.341 22.7448 220.107 22.5208 219.82 22.3594C219.534 22.1927 219.193 22.1094 218.797 22.1094C218.432 22.1094 218.115 22.1719 217.844 22.2969C217.578 22.4219 217.352 22.5911 217.164 22.8047C216.977 23.013 216.823 23.2526 216.703 23.5234C216.589 23.7891 216.503 24.0651 216.445 24.3516V26.375C216.549 26.7396 216.695 27.0833 216.883 27.4062C217.07 27.724 217.32 27.9818 217.633 28.1797C217.945 28.3724 218.339 28.4688 218.812 28.4688C219.203 28.4688 219.539 28.388 219.82 28.2266C220.107 28.0599 220.341 27.8333 220.523 27.5469C220.711 27.2604 220.849 26.9323 220.938 26.5625C221.026 26.1875 221.07 25.7891 221.07 25.3672ZM229.289 27.2578C229.289 27.0495 229.242 26.8568 229.148 26.6797C229.06 26.4974 228.875 26.3333 228.594 26.1875C228.318 26.0365 227.901 25.9062 227.344 25.7969C226.875 25.6979 226.451 25.5807 226.07 25.4453C225.695 25.3099 225.375 25.1458 225.109 24.9531C224.849 24.7604 224.648 24.5339 224.508 24.2734C224.367 24.013 224.297 23.7083 224.297 23.3594C224.297 23.026 224.37 22.7109 224.516 22.4141C224.667 22.1172 224.878 21.8542 225.148 21.625C225.424 21.3958 225.755 21.2161 226.141 21.0859C226.526 20.9557 226.956 20.8906 227.43 20.8906C228.107 20.8906 228.685 21.0104 229.164 21.25C229.643 21.4896 230.01 21.8099 230.266 22.2109C230.521 22.6068 230.648 23.0469 230.648 23.5312H229.203C229.203 23.2969 229.133 23.0703 228.992 22.8516C228.857 22.6276 228.656 22.4427 228.391 22.2969C228.13 22.151 227.81 22.0781 227.43 22.0781C227.029 22.0781 226.703 22.1406 226.453 22.2656C226.208 22.3854 226.029 22.5391 225.914 22.7266C225.805 22.9141 225.75 23.112 225.75 23.3203C225.75 23.4766 225.776 23.6172 225.828 23.7422C225.885 23.862 225.984 23.974 226.125 24.0781C226.266 24.1771 226.464 24.2708 226.719 24.3594C226.974 24.4479 227.299 24.5365 227.695 24.625C228.388 24.7812 228.958 24.9688 229.406 25.1875C229.854 25.4062 230.188 25.6745 230.406 25.9922C230.625 26.3099 230.734 26.6953 230.734 27.1484C230.734 27.5182 230.656 27.8568 230.5 28.1641C230.349 28.4714 230.128 28.737 229.836 28.9609C229.549 29.1797 229.206 29.3516 228.805 29.4766C228.409 29.5964 227.964 29.6562 227.469 29.6562C226.724 29.6562 226.094 29.5234 225.578 29.2578C225.062 28.9922 224.672 28.6484 224.406 28.2266C224.141 27.8047 224.008 27.3594 224.008 26.8906H225.461C225.482 27.2865 225.596 27.6016 225.805 27.8359C226.013 28.0651 226.268 28.2292 226.57 28.3281C226.872 28.4219 227.172 28.4688 227.469 28.4688C227.865 28.4688 228.195 28.4167 228.461 28.3125C228.732 28.2083 228.938 28.0651 229.078 27.8828C229.219 27.7005 229.289 27.4922 229.289 27.2578ZM237.664 18.125L232.922 30.4766H231.68L236.43 18.125H237.664ZM242.523 18.125L237.781 30.4766H236.539L241.289 18.125H242.523ZM244.039 28.7344C244.039 28.4896 244.115 28.2839 244.266 28.1172C244.422 27.9453 244.646 27.8594 244.938 27.8594C245.229 27.8594 245.451 27.9453 245.602 28.1172C245.758 28.2839 245.836 28.4896 245.836 28.7344C245.836 28.974 245.758 29.1771 245.602 29.3438C245.451 29.5104 245.229 29.5938 244.938 29.5938C244.646 29.5938 244.422 29.5104 244.266 29.3438C244.115 29.1771 244.039 28.974 244.039 28.7344ZM244.047 21.8359C244.047 21.5911 244.122 21.3854 244.273 21.2188C244.43 21.0469 244.654 20.9609 244.945 20.9609C245.237 20.9609 245.458 21.0469 245.609 21.2188C245.766 21.3854 245.844 21.5911 245.844 21.8359C245.844 22.0755 245.766 22.2786 245.609 22.4453C245.458 22.612 245.237 22.6953 244.945 22.6953C244.654 22.6953 244.43 22.612 244.273 22.4453C244.122 22.2786 244.047 22.0755 244.047 21.8359ZM251.516 21.0469V22.1562H246.945V21.0469H251.516ZM248.492 18.9922H249.938V27.4062C249.938 27.6927 249.982 27.9089 250.07 28.0547C250.159 28.2005 250.273 28.2969 250.414 28.3438C250.555 28.3906 250.706 28.4141 250.867 28.4141C250.987 28.4141 251.112 28.4036 251.242 28.3828C251.378 28.3568 251.479 28.3359 251.547 28.3203L251.555 29.5C251.44 29.5365 251.289 29.5703 251.102 29.6016C250.919 29.638 250.698 29.6562 250.438 29.6562C250.083 29.6562 249.758 29.5859 249.461 29.4453C249.164 29.3047 248.927 29.0703 248.75 28.7422C248.578 28.4089 248.492 27.9609 248.492 27.3984V18.9922ZM254.656 17.5V29.5H253.211V17.5H254.656ZM254.312 24.9531L253.711 24.9297C253.716 24.3516 253.802 23.8177 253.969 23.3281C254.135 22.8333 254.37 22.4036 254.672 22.0391C254.974 21.6745 255.333 21.3932 255.75 21.1953C256.172 20.9922 256.638 20.8906 257.148 20.8906C257.565 20.8906 257.94 20.9479 258.273 21.0625C258.607 21.1719 258.891 21.349 259.125 21.5938C259.365 21.8385 259.547 22.1562 259.672 22.5469C259.797 22.9323 259.859 23.4036 259.859 23.9609V29.5H258.406V23.9453C258.406 23.5026 258.341 23.1484 258.211 22.8828C258.081 22.612 257.891 22.4167 257.641 22.2969C257.391 22.1719 257.083 22.1094 256.719 22.1094C256.359 22.1094 256.031 22.1849 255.734 22.3359C255.443 22.487 255.19 22.6953 254.977 22.9609C254.768 23.2266 254.604 23.5312 254.484 23.875C254.37 24.2135 254.312 24.5729 254.312 24.9531ZM265.531 29.6562C264.943 29.6562 264.409 29.5573 263.93 29.3594C263.456 29.1562 263.047 28.8724 262.703 28.5078C262.365 28.1432 262.104 27.7109 261.922 27.2109C261.74 26.7109 261.648 26.1641 261.648 25.5703V25.2422C261.648 24.5547 261.75 23.9427 261.953 23.4062C262.156 22.8646 262.432 22.4062 262.781 22.0312C263.13 21.6562 263.526 21.3724 263.969 21.1797C264.411 20.987 264.87 20.8906 265.344 20.8906C265.948 20.8906 266.469 20.9948 266.906 21.2031C267.349 21.4115 267.711 21.7031 267.992 22.0781C268.273 22.4479 268.482 22.8854 268.617 23.3906C268.753 23.8906 268.82 24.4375 268.82 25.0312V25.6797H262.508V24.5H267.375V24.3906C267.354 24.0156 267.276 23.651 267.141 23.2969C267.01 22.9427 266.802 22.651 266.516 22.4219C266.229 22.1927 265.839 22.0781 265.344 22.0781C265.016 22.0781 264.714 22.1484 264.438 22.2891C264.161 22.4245 263.924 22.6276 263.727 22.8984C263.529 23.1693 263.375 23.5 263.266 23.8906C263.156 24.2812 263.102 24.7318 263.102 25.2422V25.5703C263.102 25.9714 263.156 26.349 263.266 26.7031C263.38 27.0521 263.544 27.3594 263.758 27.625C263.977 27.8906 264.24 28.099 264.547 28.25C264.859 28.401 265.214 28.4766 265.609 28.4766C266.12 28.4766 266.552 28.3724 266.906 28.1641C267.26 27.9557 267.57 27.6771 267.836 27.3281L268.711 28.0234C268.529 28.2995 268.297 28.5625 268.016 28.8125C267.734 29.0625 267.388 29.2656 266.977 29.4219C266.57 29.5781 266.089 29.6562 265.531 29.6562ZM273.891 28.4688C274.234 28.4688 274.552 28.3984 274.844 28.2578C275.135 28.1172 275.375 27.9245 275.562 27.6797C275.75 27.4297 275.857 27.1458 275.883 26.8281H277.258C277.232 27.3281 277.062 27.7943 276.75 28.2266C276.443 28.6536 276.039 29 275.539 29.2656C275.039 29.526 274.49 29.6562 273.891 29.6562C273.255 29.6562 272.701 29.5443 272.227 29.3203C271.758 29.0964 271.367 28.7891 271.055 28.3984C270.747 28.0078 270.516 27.5599 270.359 27.0547C270.208 26.5443 270.133 26.0052 270.133 25.4375V25.1094C270.133 24.5417 270.208 24.0052 270.359 23.5C270.516 22.9896 270.747 22.5391 271.055 22.1484C271.367 21.7578 271.758 21.4505 272.227 21.2266C272.701 21.0026 273.255 20.8906 273.891 20.8906C274.552 20.8906 275.13 21.026 275.625 21.2969C276.12 21.5625 276.508 21.9271 276.789 22.3906C277.076 22.849 277.232 23.3698 277.258 23.9531H275.883C275.857 23.6042 275.758 23.2891 275.586 23.0078C275.419 22.7266 275.19 22.5026 274.898 22.3359C274.612 22.1641 274.276 22.0781 273.891 22.0781C273.448 22.0781 273.076 22.1667 272.773 22.3438C272.477 22.5156 272.24 22.75 272.062 23.0469C271.891 23.3385 271.766 23.6641 271.688 24.0234C271.615 24.3776 271.578 24.7396 271.578 25.1094V25.4375C271.578 25.8073 271.615 26.1719 271.688 26.5312C271.76 26.8906 271.883 27.2161 272.055 27.5078C272.232 27.7995 272.469 28.0339 272.766 28.2109C273.068 28.3828 273.443 28.4688 273.891 28.4688ZM278.5 25.3672V25.1875C278.5 24.5781 278.589 24.013 278.766 23.4922C278.943 22.9661 279.198 22.5104 279.531 22.125C279.865 21.7344 280.268 21.4323 280.742 21.2188C281.216 21 281.747 20.8906 282.336 20.8906C282.93 20.8906 283.464 21 283.938 21.2188C284.417 21.4323 284.823 21.7344 285.156 22.125C285.495 22.5104 285.753 22.9661 285.93 23.4922C286.107 24.013 286.195 24.5781 286.195 25.1875V25.3672C286.195 25.9766 286.107 26.5417 285.93 27.0625C285.753 27.5833 285.495 28.0391 285.156 28.4297C284.823 28.8151 284.419 29.1172 283.945 29.3359C283.477 29.5495 282.945 29.6562 282.352 29.6562C281.758 29.6562 281.224 29.5495 280.75 29.3359C280.276 29.1172 279.87 28.8151 279.531 28.4297C279.198 28.0391 278.943 27.5833 278.766 27.0625C278.589 26.5417 278.5 25.9766 278.5 25.3672ZM279.945 25.1875V25.3672C279.945 25.7891 279.995 26.1875 280.094 26.5625C280.193 26.9323 280.341 27.2604 280.539 27.5469C280.742 27.8333 280.995 28.0599 281.297 28.2266C281.599 28.388 281.951 28.4688 282.352 28.4688C282.747 28.4688 283.094 28.388 283.391 28.2266C283.693 28.0599 283.943 27.8333 284.141 27.5469C284.339 27.2604 284.487 26.9323 284.586 26.5625C284.69 26.1875 284.742 25.7891 284.742 25.3672V25.1875C284.742 24.7708 284.69 24.3776 284.586 24.0078C284.487 23.6328 284.336 23.3021 284.133 23.0156C283.935 22.724 283.685 22.4948 283.383 22.3281C283.086 22.1615 282.737 22.0781 282.336 22.0781C281.94 22.0781 281.591 22.1615 281.289 22.3281C280.992 22.4948 280.742 22.724 280.539 23.0156C280.341 23.3021 280.193 23.6328 280.094 24.0078C279.995 24.3776 279.945 24.7708 279.945 25.1875ZM287.625 25.3672V25.1875C287.625 24.5781 287.714 24.013 287.891 23.4922C288.068 22.9661 288.323 22.5104 288.656 22.125C288.99 21.7344 289.393 21.4323 289.867 21.2188C290.341 21 290.872 20.8906 291.461 20.8906C292.055 20.8906 292.589 21 293.062 21.2188C293.542 21.4323 293.948 21.7344 294.281 22.125C294.62 22.5104 294.878 22.9661 295.055 23.4922C295.232 24.013 295.32 24.5781 295.32 25.1875V25.3672C295.32 25.9766 295.232 26.5417 295.055 27.0625C294.878 27.5833 294.62 28.0391 294.281 28.4297C293.948 28.8151 293.544 29.1172 293.07 29.3359C292.602 29.5495 292.07 29.6562 291.477 29.6562C290.883 29.6562 290.349 29.5495 289.875 29.3359C289.401 29.1172 288.995 28.8151 288.656 28.4297C288.323 28.0391 288.068 27.5833 287.891 27.0625C287.714 26.5417 287.625 25.9766 287.625 25.3672ZM289.07 25.1875V25.3672C289.07 25.7891 289.12 26.1875 289.219 26.5625C289.318 26.9323 289.466 27.2604 289.664 27.5469C289.867 27.8333 290.12 28.0599 290.422 28.2266C290.724 28.388 291.076 28.4688 291.477 28.4688C291.872 28.4688 292.219 28.388 292.516 28.2266C292.818 28.0599 293.068 27.8333 293.266 27.5469C293.464 27.2604 293.612 26.9323 293.711 26.5625C293.815 26.1875 293.867 25.7891 293.867 25.3672V25.1875C293.867 24.7708 293.815 24.3776 293.711 24.0078C293.612 23.6328 293.461 23.3021 293.258 23.0156C293.06 22.724 292.81 22.4948 292.508 22.3281C292.211 22.1615 291.862 22.0781 291.461 22.0781C291.065 22.0781 290.716 22.1615 290.414 22.3281C290.117 22.4948 289.867 22.724 289.664 23.0156C289.466 23.3021 289.318 23.6328 289.219 24.0078C289.12 24.3776 289.07 24.7708 289.07 25.1875ZM298.578 22.375V29.5H297.133V21.0469H298.539L298.578 22.375ZM301.219 21L301.211 22.3438C301.091 22.3177 300.977 22.3021 300.867 22.2969C300.763 22.2865 300.643 22.2812 300.508 22.2812C300.174 22.2812 299.88 22.3333 299.625 22.4375C299.37 22.5417 299.154 22.6875 298.977 22.875C298.799 23.0625 298.659 23.2865 298.555 23.5469C298.456 23.8021 298.391 24.0833 298.359 24.3906L297.953 24.625C297.953 24.1146 298.003 23.6354 298.102 23.1875C298.206 22.7396 298.365 22.3438 298.578 22C298.792 21.651 299.062 21.3802 299.391 21.1875C299.724 20.9896 300.12 20.8906 300.578 20.8906C300.682 20.8906 300.802 20.9036 300.938 20.9297C301.073 20.9505 301.167 20.974 301.219 21ZM307.727 27.8594V17.5H309.18V29.5H307.852L307.727 27.8594ZM302.039 25.3672V25.2031C302.039 24.5573 302.117 23.9714 302.273 23.4453C302.435 22.9141 302.661 22.4583 302.953 22.0781C303.25 21.6979 303.602 21.4062 304.008 21.2031C304.419 20.9948 304.878 20.8906 305.383 20.8906C305.914 20.8906 306.378 20.9844 306.773 21.1719C307.174 21.3542 307.513 21.6224 307.789 21.9766C308.07 22.3255 308.292 22.7474 308.453 23.2422C308.615 23.737 308.727 24.2969 308.789 24.9219V25.6406C308.732 26.2604 308.62 26.8177 308.453 27.3125C308.292 27.8073 308.07 28.2292 307.789 28.5781C307.513 28.9271 307.174 29.1953 306.773 29.3828C306.372 29.5651 305.904 29.6562 305.367 29.6562C304.872 29.6562 304.419 29.5495 304.008 29.3359C303.602 29.1224 303.25 28.8229 302.953 28.4375C302.661 28.0521 302.435 27.599 302.273 27.0781C302.117 26.5521 302.039 25.9818 302.039 25.3672ZM303.492 25.2031V25.3672C303.492 25.7891 303.534 26.1849 303.617 26.5547C303.706 26.9245 303.841 27.25 304.023 27.5312C304.206 27.8125 304.438 28.0339 304.719 28.1953C305 28.3516 305.336 28.4297 305.727 28.4297C306.206 28.4297 306.599 28.3281 306.906 28.125C307.219 27.9219 307.469 27.6536 307.656 27.3203C307.844 26.987 307.99 26.625 308.094 26.2344V24.3516C308.031 24.0651 307.94 23.7891 307.82 23.5234C307.706 23.2526 307.555 23.013 307.367 22.8047C307.185 22.5911 306.958 22.4219 306.688 22.2969C306.422 22.1719 306.107 22.1094 305.742 22.1094C305.346 22.1094 305.005 22.1927 304.719 22.3594C304.438 22.5208 304.206 22.7448 304.023 23.0312C303.841 23.3125 303.706 23.6406 303.617 24.0156C303.534 24.3854 303.492 24.7812 303.492 25.2031ZM313 21.0469V29.5H311.547V21.0469H313ZM311.438 18.8047C311.438 18.5703 311.508 18.3724 311.648 18.2109C311.794 18.0495 312.008 17.9688 312.289 17.9688C312.565 17.9688 312.776 18.0495 312.922 18.2109C313.073 18.3724 313.148 18.5703 313.148 18.8047C313.148 19.0286 313.073 19.2214 312.922 19.3828C312.776 19.5391 312.565 19.6172 312.289 19.6172C312.008 19.6172 311.794 19.5391 311.648 19.3828C311.508 19.2214 311.438 19.0286 311.438 18.8047ZM316.766 22.8516V29.5H315.32V21.0469H316.688L316.766 22.8516ZM316.422 24.9531L315.82 24.9297C315.826 24.3516 315.911 23.8177 316.078 23.3281C316.245 22.8333 316.479 22.4036 316.781 22.0391C317.083 21.6745 317.443 21.3932 317.859 21.1953C318.281 20.9922 318.747 20.8906 319.258 20.8906C319.674 20.8906 320.049 20.9479 320.383 21.0625C320.716 21.1719 321 21.349 321.234 21.5938C321.474 21.8385 321.656 22.1562 321.781 22.5469C321.906 22.9323 321.969 23.4036 321.969 23.9609V29.5H320.516V23.9453C320.516 23.5026 320.451 23.1484 320.32 22.8828C320.19 22.612 320 22.4167 319.75 22.2969C319.5 22.1719 319.193 22.1094 318.828 22.1094C318.469 22.1094 318.141 22.1849 317.844 22.3359C317.552 22.487 317.299 22.6953 317.086 22.9609C316.878 23.2266 316.714 23.5312 316.594 23.875C316.479 24.2135 316.422 24.5729 316.422 24.9531ZM329.148 28.0547V23.7031C329.148 23.3698 329.081 23.0807 328.945 22.8359C328.815 22.5859 328.617 22.3932 328.352 22.2578C328.086 22.1224 327.758 22.0547 327.367 22.0547C327.003 22.0547 326.682 22.1172 326.406 22.2422C326.135 22.3672 325.922 22.5312 325.766 22.7344C325.615 22.9375 325.539 23.1562 325.539 23.3906H324.094C324.094 23.0885 324.172 22.7891 324.328 22.4922C324.484 22.1953 324.708 21.9271 325 21.6875C325.297 21.4427 325.651 21.25 326.062 21.1094C326.479 20.9635 326.943 20.8906 327.453 20.8906C328.068 20.8906 328.609 20.9948 329.078 21.2031C329.552 21.4115 329.922 21.7266 330.188 22.1484C330.458 22.5651 330.594 23.0885 330.594 23.7188V27.6562C330.594 27.9375 330.617 28.237 330.664 28.5547C330.716 28.8724 330.792 29.1458 330.891 29.375V29.5H329.383C329.31 29.3333 329.253 29.112 329.211 28.8359C329.169 28.5547 329.148 28.2943 329.148 28.0547ZM329.398 24.375L329.414 25.3906H327.953C327.542 25.3906 327.174 25.4245 326.852 25.4922C326.529 25.5547 326.258 25.651 326.039 25.7812C325.82 25.9115 325.654 26.0755 325.539 26.2734C325.424 26.4661 325.367 26.6927 325.367 26.9531C325.367 27.2188 325.427 27.4609 325.547 27.6797C325.667 27.8984 325.846 28.0729 326.086 28.2031C326.331 28.3281 326.63 28.3906 326.984 28.3906C327.427 28.3906 327.818 28.2969 328.156 28.1094C328.495 27.9219 328.763 27.6927 328.961 27.4219C329.164 27.151 329.273 26.888 329.289 26.6328L329.906 27.3281C329.87 27.5469 329.771 27.7891 329.609 28.0547C329.448 28.3203 329.232 28.5755 328.961 28.8203C328.695 29.0599 328.378 29.2604 328.008 29.4219C327.643 29.5781 327.232 29.6562 326.773 29.6562C326.201 29.6562 325.698 29.5443 325.266 29.3203C324.839 29.0964 324.505 28.7969 324.266 28.4219C324.031 28.0417 323.914 27.6172 323.914 27.1484C323.914 26.6953 324.003 26.2969 324.18 25.9531C324.357 25.6042 324.612 25.3151 324.945 25.0859C325.279 24.8516 325.68 24.6745 326.148 24.5547C326.617 24.4349 327.141 24.375 327.719 24.375H329.398ZM336.406 21.0469V22.1562H331.836V21.0469H336.406ZM333.383 18.9922H334.828V27.4062C334.828 27.6927 334.872 27.9089 334.961 28.0547C335.049 28.2005 335.164 28.2969 335.305 28.3438C335.445 28.3906 335.596 28.4141 335.758 28.4141C335.878 28.4141 336.003 28.4036 336.133 28.3828C336.268 28.3568 336.37 28.3359 336.438 28.3203L336.445 29.5C336.331 29.5365 336.18 29.5703 335.992 29.6016C335.81 29.638 335.589 29.6562 335.328 29.6562C334.974 29.6562 334.648 29.5859 334.352 29.4453C334.055 29.3047 333.818 29.0703 333.641 28.7422C333.469 28.4089 333.383 27.9609 333.383 27.3984V18.9922ZM341.609 29.6562C341.021 29.6562 340.487 29.5573 340.008 29.3594C339.534 29.1562 339.125 28.8724 338.781 28.5078C338.443 28.1432 338.182 27.7109 338 27.2109C337.818 26.7109 337.727 26.1641 337.727 25.5703V25.2422C337.727 24.5547 337.828 23.9427 338.031 23.4062C338.234 22.8646 338.51 22.4062 338.859 22.0312C339.208 21.6562 339.604 21.3724 340.047 21.1797C340.49 20.987 340.948 20.8906 341.422 20.8906C342.026 20.8906 342.547 20.9948 342.984 21.2031C343.427 21.4115 343.789 21.7031 344.07 22.0781C344.352 22.4479 344.56 22.8854 344.695 23.3906C344.831 23.8906 344.898 24.4375 344.898 25.0312V25.6797H338.586V24.5H343.453V24.3906C343.432 24.0156 343.354 23.651 343.219 23.2969C343.089 22.9427 342.88 22.651 342.594 22.4219C342.307 22.1927 341.917 22.0781 341.422 22.0781C341.094 22.0781 340.792 22.1484 340.516 22.2891C340.24 22.4245 340.003 22.6276 339.805 22.8984C339.607 23.1693 339.453 23.5 339.344 23.8906C339.234 24.2812 339.18 24.7318 339.18 25.2422V25.5703C339.18 25.9714 339.234 26.349 339.344 26.7031C339.458 27.0521 339.622 27.3594 339.836 27.625C340.055 27.8906 340.318 28.099 340.625 28.25C340.938 28.401 341.292 28.4766 341.688 28.4766C342.198 28.4766 342.63 28.3724 342.984 28.1641C343.339 27.9557 343.648 27.6771 343.914 27.3281L344.789 28.0234C344.607 28.2995 344.375 28.5625 344.094 28.8125C343.812 29.0625 343.466 29.2656 343.055 29.4219C342.648 29.5781 342.167 29.6562 341.609 29.6562ZM351.914 27.8594V17.5H353.367V29.5H352.039L351.914 27.8594ZM346.227 25.3672V25.2031C346.227 24.5573 346.305 23.9714 346.461 23.4453C346.622 22.9141 346.849 22.4583 347.141 22.0781C347.438 21.6979 347.789 21.4062 348.195 21.2031C348.607 20.9948 349.065 20.8906 349.57 20.8906C350.102 20.8906 350.565 20.9844 350.961 21.1719C351.362 21.3542 351.701 21.6224 351.977 21.9766C352.258 22.3255 352.479 22.7474 352.641 23.2422C352.802 23.737 352.914 24.2969 352.977 24.9219V25.6406C352.919 26.2604 352.807 26.8177 352.641 27.3125C352.479 27.8073 352.258 28.2292 351.977 28.5781C351.701 28.9271 351.362 29.1953 350.961 29.3828C350.56 29.5651 350.091 29.6562 349.555 29.6562C349.06 29.6562 348.607 29.5495 348.195 29.3359C347.789 29.1224 347.438 28.8229 347.141 28.4375C346.849 28.0521 346.622 27.599 346.461 27.0781C346.305 26.5521 346.227 25.9818 346.227 25.3672ZM347.68 25.2031V25.3672C347.68 25.7891 347.721 26.1849 347.805 26.5547C347.893 26.9245 348.029 27.25 348.211 27.5312C348.393 27.8125 348.625 28.0339 348.906 28.1953C349.188 28.3516 349.523 28.4297 349.914 28.4297C350.393 28.4297 350.786 28.3281 351.094 28.125C351.406 27.9219 351.656 27.6536 351.844 27.3203C352.031 26.987 352.177 26.625 352.281 26.2344V24.3516C352.219 24.0651 352.128 23.7891 352.008 23.5234C351.893 23.2526 351.742 23.013 351.555 22.8047C351.372 22.5911 351.146 22.4219 350.875 22.2969C350.609 22.1719 350.294 22.1094 349.93 22.1094C349.534 22.1094 349.193 22.1927 348.906 22.3594C348.625 22.5208 348.393 22.7448 348.211 23.0312C348.029 23.3125 347.893 23.6406 347.805 24.0156C347.721 24.3854 347.68 24.7812 347.68 25.2031ZM357.188 17.5V29.5H355.734V17.5H357.188ZM361.078 21.0469V29.5H359.625V21.0469H361.078ZM359.516 18.8047C359.516 18.5703 359.586 18.3724 359.727 18.2109C359.872 18.0495 360.086 17.9688 360.367 17.9688C360.643 17.9688 360.854 18.0495 361 18.2109C361.151 18.3724 361.227 18.5703 361.227 18.8047C361.227 19.0286 361.151 19.2214 361 19.3828C360.854 19.5391 360.643 19.6172 360.367 19.6172C360.086 19.6172 359.872 19.5391 359.727 19.3828C359.586 19.2214 359.516 19.0286 359.516 18.8047ZM365.969 28.1953L368.281 21.0469H369.758L366.719 29.5H365.75L365.969 28.1953ZM364.039 21.0469L366.422 28.2344L366.586 29.5H365.617L362.555 21.0469H364.039ZM372.719 21.0469V29.5H371.266V21.0469H372.719ZM371.156 18.8047C371.156 18.5703 371.227 18.3724 371.367 18.2109C371.513 18.0495 371.727 17.9688 372.008 17.9688C372.284 17.9688 372.495 18.0495 372.641 18.2109C372.792 18.3724 372.867 18.5703 372.867 18.8047C372.867 19.0286 372.792 19.2214 372.641 19.3828C372.495 19.5391 372.284 19.6172 372.008 19.6172C371.727 19.6172 371.513 19.5391 371.367 19.3828C371.227 19.2214 371.156 19.0286 371.156 18.8047ZM376.484 22.8516V29.5H375.039V21.0469H376.406L376.484 22.8516ZM376.141 24.9531L375.539 24.9297C375.544 24.3516 375.63 23.8177 375.797 23.3281C375.964 22.8333 376.198 22.4036 376.5 22.0391C376.802 21.6745 377.161 21.3932 377.578 21.1953C378 20.9922 378.466 20.8906 378.977 20.8906C379.393 20.8906 379.768 20.9479 380.102 21.0625C380.435 21.1719 380.719 21.349 380.953 21.5938C381.193 21.8385 381.375 22.1562 381.5 22.5469C381.625 22.9323 381.688 23.4036 381.688 23.9609V29.5H380.234V23.9453C380.234 23.5026 380.169 23.1484 380.039 22.8828C379.909 22.612 379.719 22.4167 379.469 22.2969C379.219 22.1719 378.911 22.1094 378.547 22.1094C378.188 22.1094 377.859 22.1849 377.562 22.3359C377.271 22.487 377.018 22.6953 376.805 22.9609C376.596 23.2266 376.432 23.5312 376.312 23.875C376.198 24.2135 376.141 24.5729 376.141 24.9531ZM389.359 21.0469H390.672V29.3203C390.672 30.0651 390.521 30.7005 390.219 31.2266C389.917 31.7526 389.495 32.151 388.953 32.4219C388.417 32.6979 387.797 32.8359 387.094 32.8359C386.802 32.8359 386.458 32.7891 386.062 32.6953C385.672 32.6068 385.286 32.4531 384.906 32.2344C384.531 32.0208 384.216 31.7318 383.961 31.3672L384.719 30.5078C385.073 30.9349 385.443 31.2318 385.828 31.3984C386.219 31.5651 386.604 31.6484 386.984 31.6484C387.443 31.6484 387.839 31.5625 388.172 31.3906C388.505 31.2188 388.763 30.9635 388.945 30.625C389.133 30.2917 389.227 29.8802 389.227 29.3906V22.9062L389.359 21.0469ZM383.539 25.3672V25.2031C383.539 24.5573 383.615 23.9714 383.766 23.4453C383.922 22.9141 384.143 22.4583 384.43 22.0781C384.721 21.6979 385.073 21.4062 385.484 21.2031C385.896 20.9948 386.359 20.8906 386.875 20.8906C387.406 20.8906 387.87 20.9844 388.266 21.1719C388.667 21.3542 389.005 21.6224 389.281 21.9766C389.562 22.3255 389.784 22.7474 389.945 23.2422C390.107 23.737 390.219 24.2969 390.281 24.9219V25.6406C390.224 26.2604 390.112 26.8177 389.945 27.3125C389.784 27.8073 389.562 28.2292 389.281 28.5781C389.005 28.9271 388.667 29.1953 388.266 29.3828C387.865 29.5651 387.396 29.6562 386.859 29.6562C386.354 29.6562 385.896 29.5495 385.484 29.3359C385.078 29.1224 384.729 28.8229 384.438 28.4375C384.146 28.0521 383.922 27.599 383.766 27.0781C383.615 26.5521 383.539 25.9818 383.539 25.3672ZM384.984 25.2031V25.3672C384.984 25.7891 385.026 26.1849 385.109 26.5547C385.198 26.9245 385.331 27.25 385.508 27.5312C385.69 27.8125 385.922 28.0339 386.203 28.1953C386.484 28.3516 386.82 28.4297 387.211 28.4297C387.69 28.4297 388.086 28.3281 388.398 28.125C388.711 27.9219 388.958 27.6536 389.141 27.3203C389.328 26.987 389.474 26.625 389.578 26.2344V24.3516C389.521 24.0651 389.432 23.7891 389.312 23.5234C389.198 23.2526 389.047 23.013 388.859 22.8047C388.677 22.5911 388.451 22.4219 388.18 22.2969C387.909 22.1719 387.591 22.1094 387.227 22.1094C386.831 22.1094 386.49 22.1927 386.203 22.3594C385.922 22.5208 385.69 22.7448 385.508 23.0312C385.331 23.3125 385.198 23.6406 385.109 24.0156C385.026 24.3854 384.984 24.7812 384.984 25.2031ZM397.898 18.125L393.156 30.4766H391.914L396.664 18.125H397.898ZM400.922 22.375V29.5H399.477V21.0469H400.883L400.922 22.375ZM403.562 21L403.555 22.3438C403.435 22.3177 403.32 22.3021 403.211 22.2969C403.107 22.2865 402.987 22.2812 402.852 22.2812C402.518 22.2812 402.224 22.3333 401.969 22.4375C401.714 22.5417 401.497 22.6875 401.32 22.875C401.143 23.0625 401.003 23.2865 400.898 23.5469C400.799 23.8021 400.734 24.0833 400.703 24.3906L400.297 24.625C400.297 24.1146 400.346 23.6354 400.445 23.1875C400.549 22.7396 400.708 22.3438 400.922 22C401.135 21.651 401.406 21.3802 401.734 21.1875C402.068 20.9896 402.464 20.8906 402.922 20.8906C403.026 20.8906 403.146 20.9036 403.281 20.9297C403.417 20.9505 403.51 20.974 403.562 21ZM408.25 29.6562C407.661 29.6562 407.128 29.5573 406.648 29.3594C406.174 29.1562 405.766 28.8724 405.422 28.5078C405.083 28.1432 404.823 27.7109 404.641 27.2109C404.458 26.7109 404.367 26.1641 404.367 25.5703V25.2422C404.367 24.5547 404.469 23.9427 404.672 23.4062C404.875 22.8646 405.151 22.4062 405.5 22.0312C405.849 21.6562 406.245 21.3724 406.688 21.1797C407.13 20.987 407.589 20.8906 408.062 20.8906C408.667 20.8906 409.188 20.9948 409.625 21.2031C410.068 21.4115 410.43 21.7031 410.711 22.0781C410.992 22.4479 411.201 22.8854 411.336 23.3906C411.471 23.8906 411.539 24.4375 411.539 25.0312V25.6797H405.227V24.5H410.094V24.3906C410.073 24.0156 409.995 23.651 409.859 23.2969C409.729 22.9427 409.521 22.651 409.234 22.4219C408.948 22.1927 408.557 22.0781 408.062 22.0781C407.734 22.0781 407.432 22.1484 407.156 22.2891C406.88 22.4245 406.643 22.6276 406.445 22.8984C406.247 23.1693 406.094 23.5 405.984 23.8906C405.875 24.2812 405.82 24.7318 405.82 25.2422V25.5703C405.82 25.9714 405.875 26.349 405.984 26.7031C406.099 27.0521 406.263 27.3594 406.477 27.625C406.695 27.8906 406.958 28.099 407.266 28.25C407.578 28.401 407.932 28.4766 408.328 28.4766C408.839 28.4766 409.271 28.3724 409.625 28.1641C409.979 27.9557 410.289 27.6771 410.555 27.3281L411.43 28.0234C411.247 28.2995 411.016 28.5625 410.734 28.8125C410.453 29.0625 410.107 29.2656 409.695 29.4219C409.289 29.5781 408.807 29.6562 408.25 29.6562ZM418.148 27.2578C418.148 27.0495 418.102 26.8568 418.008 26.6797C417.919 26.4974 417.734 26.3333 417.453 26.1875C417.177 26.0365 416.76 25.9062 416.203 25.7969C415.734 25.6979 415.31 25.5807 414.93 25.4453C414.555 25.3099 414.234 25.1458 413.969 24.9531C413.708 24.7604 413.508 24.5339 413.367 24.2734C413.227 24.013 413.156 23.7083 413.156 23.3594C413.156 23.026 413.229 22.7109 413.375 22.4141C413.526 22.1172 413.737 21.8542 414.008 21.625C414.284 21.3958 414.615 21.2161 415 21.0859C415.385 20.9557 415.815 20.8906 416.289 20.8906C416.966 20.8906 417.544 21.0104 418.023 21.25C418.503 21.4896 418.87 21.8099 419.125 22.2109C419.38 22.6068 419.508 23.0469 419.508 23.5312H418.062C418.062 23.2969 417.992 23.0703 417.852 22.8516C417.716 22.6276 417.516 22.4427 417.25 22.2969C416.99 22.151 416.669 22.0781 416.289 22.0781C415.888 22.0781 415.562 22.1406 415.312 22.2656C415.068 22.3854 414.888 22.5391 414.773 22.7266C414.664 22.9141 414.609 23.112 414.609 23.3203C414.609 23.4766 414.635 23.6172 414.688 23.7422C414.745 23.862 414.844 23.974 414.984 24.0781C415.125 24.1771 415.323 24.2708 415.578 24.3594C415.833 24.4479 416.159 24.5365 416.555 24.625C417.247 24.7812 417.818 24.9688 418.266 25.1875C418.714 25.4062 419.047 25.6745 419.266 25.9922C419.484 26.3099 419.594 26.6953 419.594 27.1484C419.594 27.5182 419.516 27.8568 419.359 28.1641C419.208 28.4714 418.987 28.737 418.695 28.9609C418.409 29.1797 418.065 29.3516 417.664 29.4766C417.268 29.5964 416.823 29.6562 416.328 29.6562C415.583 29.6562 414.953 29.5234 414.438 29.2578C413.922 28.9922 413.531 28.6484 413.266 28.2266C413 27.8047 412.867 27.3594 412.867 26.8906H414.32C414.341 27.2865 414.456 27.6016 414.664 27.8359C414.872 28.0651 415.128 28.2292 415.43 28.3281C415.732 28.4219 416.031 28.4688 416.328 28.4688C416.724 28.4688 417.055 28.4167 417.32 28.3125C417.591 28.2083 417.797 28.0651 417.938 27.8828C418.078 27.7005 418.148 27.4922 418.148 27.2578ZM421.109 25.3672V25.1875C421.109 24.5781 421.198 24.013 421.375 23.4922C421.552 22.9661 421.807 22.5104 422.141 22.125C422.474 21.7344 422.878 21.4323 423.352 21.2188C423.826 21 424.357 20.8906 424.945 20.8906C425.539 20.8906 426.073 21 426.547 21.2188C427.026 21.4323 427.432 21.7344 427.766 22.125C428.104 22.5104 428.362 22.9661 428.539 23.4922C428.716 24.013 428.805 24.5781 428.805 25.1875V25.3672C428.805 25.9766 428.716 26.5417 428.539 27.0625C428.362 27.5833 428.104 28.0391 427.766 28.4297C427.432 28.8151 427.029 29.1172 426.555 29.3359C426.086 29.5495 425.555 29.6562 424.961 29.6562C424.367 29.6562 423.833 29.5495 423.359 29.3359C422.885 29.1172 422.479 28.8151 422.141 28.4297C421.807 28.0391 421.552 27.5833 421.375 27.0625C421.198 26.5417 421.109 25.9766 421.109 25.3672ZM422.555 25.1875V25.3672C422.555 25.7891 422.604 26.1875 422.703 26.5625C422.802 26.9323 422.951 27.2604 423.148 27.5469C423.352 27.8333 423.604 28.0599 423.906 28.2266C424.208 28.388 424.56 28.4688 424.961 28.4688C425.357 28.4688 425.703 28.388 426 28.2266C426.302 28.0599 426.552 27.8333 426.75 27.5469C426.948 27.2604 427.096 26.9323 427.195 26.5625C427.299 26.1875 427.352 25.7891 427.352 25.3672V25.1875C427.352 24.7708 427.299 24.3776 427.195 24.0078C427.096 23.6328 426.945 23.3021 426.742 23.0156C426.544 22.724 426.294 22.4948 425.992 22.3281C425.695 22.1615 425.346 22.0781 424.945 22.0781C424.549 22.0781 424.201 22.1615 423.898 22.3281C423.602 22.4948 423.352 22.724 423.148 23.0156C422.951 23.3021 422.802 23.6328 422.703 24.0078C422.604 24.3776 422.555 24.7708 422.555 25.1875ZM435.789 27.5469V21.0469H437.242V29.5H435.859L435.789 27.5469ZM436.062 25.7656L436.664 25.75C436.664 26.3125 436.604 26.8333 436.484 27.3125C436.37 27.7865 436.182 28.1979 435.922 28.5469C435.661 28.8958 435.32 29.1693 434.898 29.3672C434.477 29.5599 433.964 29.6562 433.359 29.6562C432.948 29.6562 432.57 29.5964 432.227 29.4766C431.888 29.3568 431.596 29.1719 431.352 28.9219C431.107 28.6719 430.917 28.3464 430.781 27.9453C430.651 27.5443 430.586 27.0625 430.586 26.5V21.0469H432.031V26.5156C432.031 26.8958 432.073 27.2109 432.156 27.4609C432.245 27.7057 432.362 27.901 432.508 28.0469C432.659 28.1875 432.826 28.2865 433.008 28.3438C433.195 28.401 433.388 28.4297 433.586 28.4297C434.201 28.4297 434.688 28.3125 435.047 28.0781C435.406 27.8385 435.664 27.5182 435.82 27.1172C435.982 26.7109 436.062 26.2604 436.062 25.7656ZM440.891 22.375V29.5H439.445V21.0469H440.852L440.891 22.375ZM443.531 21L443.523 22.3438C443.404 22.3177 443.289 22.3021 443.18 22.2969C443.076 22.2865 442.956 22.2812 442.82 22.2812C442.487 22.2812 442.193 22.3333 441.938 22.4375C441.682 22.5417 441.466 22.6875 441.289 22.875C441.112 23.0625 440.971 23.2865 440.867 23.5469C440.768 23.8021 440.703 24.0833 440.672 24.3906L440.266 24.625C440.266 24.1146 440.315 23.6354 440.414 23.1875C440.518 22.7396 440.677 22.3438 440.891 22C441.104 21.651 441.375 21.3802 441.703 21.1875C442.036 20.9896 442.432 20.8906 442.891 20.8906C442.995 20.8906 443.115 20.9036 443.25 20.9297C443.385 20.9505 443.479 20.974 443.531 21ZM448.094 28.4688C448.438 28.4688 448.755 28.3984 449.047 28.2578C449.339 28.1172 449.578 27.9245 449.766 27.6797C449.953 27.4297 450.06 27.1458 450.086 26.8281H451.461C451.435 27.3281 451.266 27.7943 450.953 28.2266C450.646 28.6536 450.242 29 449.742 29.2656C449.242 29.526 448.693 29.6562 448.094 29.6562C447.458 29.6562 446.904 29.5443 446.43 29.3203C445.961 29.0964 445.57 28.7891 445.258 28.3984C444.951 28.0078 444.719 27.5599 444.562 27.0547C444.411 26.5443 444.336 26.0052 444.336 25.4375V25.1094C444.336 24.5417 444.411 24.0052 444.562 23.5C444.719 22.9896 444.951 22.5391 445.258 22.1484C445.57 21.7578 445.961 21.4505 446.43 21.2266C446.904 21.0026 447.458 20.8906 448.094 20.8906C448.755 20.8906 449.333 21.026 449.828 21.2969C450.323 21.5625 450.711 21.9271 450.992 22.3906C451.279 22.849 451.435 23.3698 451.461 23.9531H450.086C450.06 23.6042 449.961 23.2891 449.789 23.0078C449.622 22.7266 449.393 22.5026 449.102 22.3359C448.815 22.1641 448.479 22.0781 448.094 22.0781C447.651 22.0781 447.279 22.1667 446.977 22.3438C446.68 22.5156 446.443 22.75 446.266 23.0469C446.094 23.3385 445.969 23.6641 445.891 24.0234C445.818 24.3776 445.781 24.7396 445.781 25.1094V25.4375C445.781 25.8073 445.818 26.1719 445.891 26.5312C445.964 26.8906 446.086 27.2161 446.258 27.5078C446.435 27.7995 446.672 28.0339 446.969 28.2109C447.271 28.3828 447.646 28.4688 448.094 28.4688ZM456.594 29.6562C456.005 29.6562 455.471 29.5573 454.992 29.3594C454.518 29.1562 454.109 28.8724 453.766 28.5078C453.427 28.1432 453.167 27.7109 452.984 27.2109C452.802 26.7109 452.711 26.1641 452.711 25.5703V25.2422C452.711 24.5547 452.812 23.9427 453.016 23.4062C453.219 22.8646 453.495 22.4062 453.844 22.0312C454.193 21.6562 454.589 21.3724 455.031 21.1797C455.474 20.987 455.932 20.8906 456.406 20.8906C457.01 20.8906 457.531 20.9948 457.969 21.2031C458.411 21.4115 458.773 21.7031 459.055 22.0781C459.336 22.4479 459.544 22.8854 459.68 23.3906C459.815 23.8906 459.883 24.4375 459.883 25.0312V25.6797H453.57V24.5H458.438V24.3906C458.417 24.0156 458.339 23.651 458.203 23.2969C458.073 22.9427 457.865 22.651 457.578 22.4219C457.292 22.1927 456.901 22.0781 456.406 22.0781C456.078 22.0781 455.776 22.1484 455.5 22.2891C455.224 22.4245 454.987 22.6276 454.789 22.8984C454.591 23.1693 454.438 23.5 454.328 23.8906C454.219 24.2812 454.164 24.7318 454.164 25.2422V25.5703C454.164 25.9714 454.219 26.349 454.328 26.7031C454.443 27.0521 454.607 27.3594 454.82 27.625C455.039 27.8906 455.302 28.099 455.609 28.25C455.922 28.401 456.276 28.4766 456.672 28.4766C457.182 28.4766 457.615 28.3724 457.969 28.1641C458.323 27.9557 458.633 27.6771 458.898 27.3281L459.773 28.0234C459.591 28.2995 459.359 28.5625 459.078 28.8125C458.797 29.0625 458.451 29.2656 458.039 29.4219C457.633 29.5781 457.151 29.6562 456.594 29.6562ZM466.492 27.2578C466.492 27.0495 466.445 26.8568 466.352 26.6797C466.263 26.4974 466.078 26.3333 465.797 26.1875C465.521 26.0365 465.104 25.9062 464.547 25.7969C464.078 25.6979 463.654 25.5807 463.273 25.4453C462.898 25.3099 462.578 25.1458 462.312 24.9531C462.052 24.7604 461.852 24.5339 461.711 24.2734C461.57 24.013 461.5 23.7083 461.5 23.3594C461.5 23.026 461.573 22.7109 461.719 22.4141C461.87 22.1172 462.081 21.8542 462.352 21.625C462.628 21.3958 462.958 21.2161 463.344 21.0859C463.729 20.9557 464.159 20.8906 464.633 20.8906C465.31 20.8906 465.888 21.0104 466.367 21.25C466.846 21.4896 467.214 21.8099 467.469 22.2109C467.724 22.6068 467.852 23.0469 467.852 23.5312H466.406C466.406 23.2969 466.336 23.0703 466.195 22.8516C466.06 22.6276 465.859 22.4427 465.594 22.2969C465.333 22.151 465.013 22.0781 464.633 22.0781C464.232 22.0781 463.906 22.1406 463.656 22.2656C463.411 22.3854 463.232 22.5391 463.117 22.7266C463.008 22.9141 462.953 23.112 462.953 23.3203C462.953 23.4766 462.979 23.6172 463.031 23.7422C463.089 23.862 463.188 23.974 463.328 24.0781C463.469 24.1771 463.667 24.2708 463.922 24.3594C464.177 24.4479 464.503 24.5365 464.898 24.625C465.591 24.7812 466.161 24.9688 466.609 25.1875C467.057 25.4062 467.391 25.6745 467.609 25.9922C467.828 26.3099 467.938 26.6953 467.938 27.1484C467.938 27.5182 467.859 27.8568 467.703 28.1641C467.552 28.4714 467.331 28.737 467.039 28.9609C466.753 29.1797 466.409 29.3516 466.008 29.4766C465.612 29.5964 465.167 29.6562 464.672 29.6562C463.927 29.6562 463.297 29.5234 462.781 29.2578C462.266 28.9922 461.875 28.6484 461.609 28.2266C461.344 27.8047 461.211 27.3594 461.211 26.8906H462.664C462.685 27.2865 462.799 27.6016 463.008 27.8359C463.216 28.0651 463.471 28.2292 463.773 28.3281C464.076 28.4219 464.375 28.4688 464.672 28.4688C465.068 28.4688 465.398 28.4167 465.664 28.3125C465.935 28.2083 466.141 28.0651 466.281 27.8828C466.422 27.7005 466.492 27.4922 466.492 27.2578Z" fill="#202124"/>
<path d="M1428.89 21.4657L1424.46 21.0807L1422.73 17.0021C1422.41 16.2597 1421.35 16.2597 1421.04 17.0021L1419.31 21.0899L1414.88 21.4657C1414.07 21.5298 1413.74 22.538 1414.36 23.0696L1417.72 25.9843L1416.71 30.3103C1416.53 31.0986 1417.38 31.7218 1418.08 31.3002L1421.88 29.0088L1425.69 31.3094C1426.38 31.731 1427.23 31.1077 1427.05 30.3195L1426.04 25.9843L1429.41 23.0696C1430.02 22.538 1429.7 21.5298 1428.89 21.4657V21.4657ZM1421.88 27.2949L1418.44 29.3755L1419.35 25.4527L1416.31 22.813L1420.32 22.4647L1421.88 18.771L1423.45 22.4739L1427.46 22.8222L1424.42 25.4618L1425.34 29.3846L1421.88 27.2949Z" fill="#535353"/>
<path d="M1478.92 22.8584H1477.86V18.1448H1473.14V17.0763C1473.14 16.0472 1472.4 15.1123 1471.38 15.0102C1470.2 14.8924 1469.21 15.8115 1469.21 16.9663V18.1448H1464.51V22.7012H1465.6C1466.63 22.7012 1467.56 23.3926 1467.76 24.3982C1468.02 25.7494 1466.99 26.9435 1465.68 26.9435H1464.5V31.5H1469.06V30.4002C1469.06 29.371 1469.75 28.4361 1470.75 28.2397C1472.1 27.9805 1473.3 29.0096 1473.3 30.3216V31.5H1477.86V26.7864H1479.03C1480.19 26.7864 1481.11 25.7965 1480.99 24.6181C1480.89 23.5968 1479.94 22.8584 1478.92 22.8584V22.8584Z" fill="#535353"/>
<path d="M1508.38 20C1509.48 20 1510.38 19.1 1510.38 18C1510.38 16.9 1509.48 16 1508.38 16C1507.27 16 1506.38 16.9 1506.38 18C1506.38 19.1 1507.27 20 1508.38 20ZM1508.38 22C1507.27 22 1506.38 22.9 1506.38 24C1506.38 25.1 1507.27 26 1508.38 26C1509.48 26 1510.38 25.1 1510.38 24C1510.38 22.9 1509.48 22 1508.38 22ZM1508.38 28C1507.27 28 1506.38 28.9 1506.38 30C1506.38 31.1 1507.27 32 1508.38 32C1509.48 32 1510.38 31.1 1510.38 30C1510.38 28.9 1509.48 28 1508.38 28Z" fill="#535353"/>
</svg>
