<svg width="1536" height="52" viewBox="0 0 1536 52" fill="none" xmlns="http://www.w3.org/2000/svg">
<g clip-path="url(#clip0_1678_1176)">
<g filter="url(#filter0_d_1678_1176)">
<path d="M1536 0H0V51.2H1536V0Z" fill="white"/>
<path d="M21.6016 30.4008H36.0016V28.8008H21.6016V30.4008ZM21.6016 26.4008H36.0016V24.8008H21.6016V26.4008ZM21.6016 20.8008V22.4008H36.0016V20.8008H21.6016Z" fill="#5F6368"/>
<mask id="mask0_1678_1176" style="mask-type:luminance" maskUnits="userSpaceOnUse" x="51" y="8" width="132" height="38">
<path d="M183 8H51V46H183V8Z" fill="white"/>
</mask>
<g mask="url(#mask0_1678_1176)">
<mask id="mask1_1678_1176" style="mask-type:luminance" maskUnits="userSpaceOnUse" x="55" y="13" width="29" height="29">
<path d="M83.6016 13H55V41.6016H83.6016V13Z" fill="white"/>
</mask>
<g mask="url(#mask1_1678_1176)">
<path d="M61.9945 31.5713C60.7376 30.4103 59.7789 28.9636 59.1996 27.3537C58.6202 25.7437 58.4372 24.0179 58.666 22.3222C58.8923 20.6029 59.5321 18.964 60.5306 17.5462C61.5291 16.1283 62.8565 14.9737 64.399 14.1813C65.9416 13.3888 67.6533 12.9823 69.3874 12.9965C71.1215 13.0106 72.8264 13.445 74.3558 14.2625C75.8852 15.08 77.1936 16.2561 78.1688 17.6901C79.1441 19.1241 79.757 20.7731 79.9552 22.496C80.1534 24.2188 79.9309 25.964 79.3067 27.5819C78.6826 29.1999 77.6754 30.6424 76.3716 31.7858C75.532 32.5076 74.8801 33.4224 74.4719 34.4517H70.4939V25.8903C71.1886 25.6447 71.7904 25.1905 72.2171 24.5898C72.6437 23.989 72.8744 23.2712 72.8774 22.5344C72.8774 22.2183 72.7519 21.9152 72.5284 21.6917C72.3049 21.4682 72.0017 21.3426 71.6857 21.3426C71.3696 21.3426 71.0665 21.4682 70.843 21.6917C70.6195 21.9152 70.4939 22.2183 70.4939 22.5344C70.4939 22.8504 70.3684 23.1536 70.1449 23.3771C69.9214 23.6005 69.6183 23.7261 69.3022 23.7261C68.9861 23.7261 68.683 23.6005 68.4595 23.3771C68.236 23.1536 68.1105 22.8504 68.1105 22.5344C68.1105 22.2183 67.9849 21.9152 67.7614 21.6917C67.5379 21.4682 67.2348 21.3426 66.9188 21.3426C66.6027 21.3426 66.2996 21.4682 66.0761 21.6917C65.8526 21.9152 65.727 22.2183 65.727 22.5344C65.7301 23.2712 65.9607 23.989 66.3873 24.5898C66.814 25.1905 67.4158 25.6447 68.1105 25.8903V34.4517H64.0145C63.5589 33.3559 62.8695 32.3729 61.9945 31.5713ZM64.5353 36.8352V37.2046C64.5365 38.3705 65.0003 39.4883 65.8247 40.3127C66.6491 41.1371 67.7669 41.6008 68.9328 41.6021H69.6717C70.8376 41.6008 71.9553 41.1371 72.7798 40.3127C73.6042 39.4883 74.0679 38.3705 74.0691 37.2046V36.8352H64.5353Z" fill="#35B2C2"/>
</g>
<mask id="mask2_1678_1176" style="mask-type:luminance" maskUnits="userSpaceOnUse" x="86" y="7" width="90" height="38">
<path d="M176 7H86V45H176V7Z" fill="white"/>
</mask>
<g mask="url(#mask2_1678_1176)">
<path d="M91.3281 32.0008V19.8945H96.6959C97.7749 19.8945 98.5952 20.0046 99.1568 20.2248C99.7183 20.4395 100.167 20.8221 100.503 21.3727C100.839 21.9232 101.007 22.5316 101.007 23.1977C101.007 24.0565 100.729 24.7805 100.173 25.3696C99.6165 25.9587 98.7576 26.333 97.596 26.4927C98.0199 26.6964 98.342 26.8973 98.5622 27.0955C99.0302 27.5249 99.4733 28.0617 99.8918 28.7058L101.998 32.0008H99.9826L98.3805 29.4821C97.9126 28.7554 97.5272 28.1993 97.2244 27.814C96.9216 27.4286 96.6491 27.1588 96.4069 27.0047C96.1701 26.8505 95.9279 26.7432 95.6801 26.6826C95.4985 26.6441 95.2012 26.6248 94.7883 26.6248H92.9302V32.0008H91.3281ZM92.9302 25.2375H96.3738C97.106 25.2375 97.6786 25.1631 98.0915 25.0145C98.5044 24.8603 98.8182 24.6181 99.0329 24.2878C99.2476 23.9519 99.355 23.5886 99.355 23.1977C99.355 22.6252 99.1458 22.1544 98.7274 21.7856C98.3145 21.4167 97.6593 21.2323 96.7619 21.2323H92.9302V25.2375ZM109.339 29.1765L110.875 29.3665C110.633 30.2639 110.184 30.9603 109.529 31.4558C108.874 31.9513 108.037 32.199 107.019 32.199C105.736 32.199 104.718 31.8054 103.963 31.0181C103.215 30.2253 102.84 29.116 102.84 27.6901C102.84 26.2147 103.22 25.0695 103.98 24.2547C104.74 23.4399 105.725 23.0326 106.936 23.0326C108.109 23.0326 109.067 23.4317 109.81 24.23C110.553 25.0282 110.925 26.1513 110.925 27.5993C110.925 27.6873 110.922 27.8195 110.917 27.9956H104.376C104.431 28.9591 104.704 29.6968 105.194 30.2088C105.684 30.7208 106.295 30.9768 107.027 30.9768C107.572 30.9768 108.037 30.8337 108.423 30.5474C108.808 30.2611 109.114 29.8042 109.339 29.1765ZM104.459 26.7735H109.356C109.29 26.0357 109.103 25.4824 108.794 25.1136C108.321 24.541 107.707 24.2547 106.953 24.2547C106.27 24.2547 105.695 24.4832 105.227 24.9402C104.764 25.3971 104.508 26.0082 104.459 26.7735ZM112.155 29.383L113.625 29.1518C113.708 29.7408 113.936 30.1923 114.311 30.5061C114.691 30.8199 115.219 30.9768 115.896 30.9768C116.579 30.9768 117.085 30.8392 117.416 30.5639C117.746 30.2831 117.911 29.9556 117.911 29.5812C117.911 29.2454 117.765 28.9811 117.474 28.7884C117.27 28.6563 116.763 28.4884 115.954 28.2847C114.864 28.0094 114.107 27.7727 113.683 27.5745C113.265 27.3708 112.945 27.0928 112.725 26.7404C112.51 26.3826 112.403 25.9889 112.403 25.5595C112.403 25.1686 112.491 24.808 112.667 24.4777C112.849 24.1419 113.094 23.8639 113.402 23.6436C113.634 23.473 113.947 23.3298 114.344 23.2142C114.746 23.0931 115.175 23.0326 115.632 23.0326C116.32 23.0326 116.923 23.1316 117.441 23.3298C117.964 23.528 118.349 23.7978 118.597 24.1391C118.844 24.475 119.015 24.9264 119.109 25.4935L117.655 25.6916C117.589 25.2402 117.396 24.8879 117.077 24.6346C116.763 24.3814 116.317 24.2547 115.739 24.2547C115.057 24.2547 114.569 24.3676 114.278 24.5933C113.986 24.819 113.84 25.0833 113.84 25.3861C113.84 25.5788 113.901 25.7522 114.022 25.9064C114.143 26.066 114.333 26.1981 114.591 26.3027C114.74 26.3578 115.178 26.4844 115.905 26.6826C116.956 26.9634 117.688 27.1946 118.101 27.3763C118.52 27.5525 118.847 27.8112 119.084 28.1525C119.321 28.4939 119.439 28.9178 119.439 29.4243C119.439 29.9198 119.293 30.3877 119.001 30.8282C118.715 31.2631 118.299 31.6017 117.754 31.8439C117.209 32.0806 116.593 32.199 115.905 32.199C114.765 32.199 113.895 31.9623 113.295 31.4888C112.7 31.0153 112.321 30.3134 112.155 29.383ZM120.653 27.6158C120.653 25.9917 121.104 24.7888 122.007 24.007C122.761 23.3574 123.681 23.0326 124.765 23.0326C125.971 23.0326 126.957 23.4289 127.722 24.2217C128.487 25.009 128.87 26.099 128.87 27.4919C128.87 28.6205 128.699 29.5096 128.358 30.1593C128.022 30.8034 127.529 31.3044 126.879 31.6622C126.235 32.0201 125.531 32.199 124.765 32.199C123.538 32.199 122.544 31.8054 121.784 31.0181C121.03 30.2308 120.653 29.0967 120.653 27.6158ZM122.181 27.6158C122.181 28.7389 122.426 29.5812 122.916 30.1427C123.406 30.6988 124.022 30.9768 124.765 30.9768C125.503 30.9768 126.117 30.696 126.607 30.1345C127.097 29.5729 127.342 28.7168 127.342 27.5662C127.342 26.4817 127.094 25.6614 126.599 25.1053C126.109 24.5438 125.498 24.263 124.765 24.263C124.022 24.263 123.406 24.541 122.916 25.0971C122.426 25.6531 122.181 26.4927 122.181 27.6158ZM136.368 32.0008V30.7125C135.685 31.7035 134.758 32.199 133.585 32.199C133.068 32.199 132.583 32.0999 132.132 31.9017C131.686 31.7035 131.353 31.4558 131.132 31.1585C130.918 30.8557 130.766 30.4868 130.678 30.0519C130.618 29.7601 130.587 29.2977 130.587 28.6645V23.2307H132.074V28.0947C132.074 28.871 132.104 29.394 132.165 29.6638C132.258 30.0547 132.456 30.363 132.759 30.5887C133.062 30.8089 133.436 30.919 133.882 30.919C134.328 30.919 134.747 30.8061 135.138 30.5804C135.528 30.3492 135.804 30.0381 135.963 29.6473C136.129 29.2509 136.211 28.6783 136.211 27.9296V23.2307H137.698V32.0008H136.368ZM140.018 32.0008V23.2307H141.356V24.5603C141.697 23.9382 142.011 23.528 142.297 23.3298C142.589 23.1316 142.908 23.0326 143.255 23.0326C143.756 23.0326 144.265 23.1922 144.783 23.5115L144.271 24.8906C143.908 24.6759 143.544 24.5685 143.181 24.5685C142.856 24.5685 142.564 24.6676 142.306 24.8658C142.047 25.0585 141.862 25.3283 141.752 25.6751C141.587 26.2036 141.504 26.7817 141.504 27.4093V32.0008H140.018ZM151.389 28.7884L152.851 28.9784C152.691 29.9858 152.281 30.7759 151.621 31.3484C150.965 31.9155 150.159 32.199 149.201 32.199C148.001 32.199 147.035 31.8081 146.302 31.0263C145.576 30.2391 145.212 29.1132 145.212 27.6488C145.212 26.7019 145.369 25.8733 145.683 25.1631C145.997 24.4529 146.473 23.9217 147.112 23.5693C147.756 23.2115 148.455 23.0326 149.209 23.0326C150.162 23.0326 150.941 23.2748 151.546 23.7593C152.152 24.2382 152.54 24.9209 152.711 25.8073L151.266 26.0302C151.128 25.4412 150.883 24.998 150.531 24.7007C150.184 24.4034 149.763 24.2547 149.267 24.2547C148.518 24.2547 147.91 24.5245 147.442 25.064C146.974 25.5981 146.74 26.4459 146.74 27.6075C146.74 28.7857 146.966 29.6417 147.417 30.1758C147.869 30.7098 148.458 30.9768 149.184 30.9768C149.768 30.9768 150.255 30.7979 150.646 30.44C151.037 30.0822 151.285 29.5316 151.389 28.7884ZM160.126 29.1765L161.662 29.3665C161.42 30.2639 160.971 30.9603 160.316 31.4558C159.661 31.9513 158.824 32.199 157.806 32.199C156.523 32.199 155.505 31.8054 154.75 31.0181C154.002 30.2253 153.627 29.116 153.627 27.6901C153.627 26.2147 154.007 25.0695 154.767 24.2547C155.527 23.4399 156.512 23.0326 157.723 23.0326C158.896 23.0326 159.854 23.4317 160.597 24.23C161.34 25.0282 161.712 26.1513 161.712 27.5993C161.712 27.6873 161.709 27.8195 161.704 27.9956H155.163C155.218 28.9591 155.491 29.6968 155.981 30.2088C156.471 30.7208 157.082 30.9768 157.814 30.9768C158.359 30.9768 158.824 30.8337 159.21 30.5474C159.595 30.2611 159.901 29.8042 160.126 29.1765ZM155.246 26.7735H160.143C160.077 26.0357 159.89 25.4824 159.581 25.1136C159.108 24.541 158.494 24.2547 157.74 24.2547C157.057 24.2547 156.482 24.4832 156.014 24.9402C155.551 25.3971 155.295 26.0082 155.246 26.7735ZM162.942 29.383L164.412 29.1518C164.495 29.7408 164.723 30.1923 165.098 30.5061C165.478 30.8199 166.006 30.9768 166.683 30.9768C167.366 30.9768 167.872 30.8392 168.203 30.5639C168.533 30.2831 168.698 29.9556 168.698 29.5812C168.698 29.2454 168.552 28.9811 168.261 28.7884C168.057 28.6563 167.55 28.4884 166.741 28.2847C165.651 28.0094 164.894 27.7727 164.47 27.5745C164.052 27.3708 163.732 27.0928 163.512 26.7404C163.298 26.3826 163.19 25.9889 163.19 25.5595C163.19 25.1686 163.278 24.808 163.454 24.4777C163.636 24.1419 163.881 23.8639 164.189 23.6436C164.421 23.473 164.734 23.3298 165.131 23.2142C165.533 23.0931 165.962 23.0326 166.419 23.0326C167.107 23.0326 167.71 23.1316 168.228 23.3298C168.751 23.528 169.136 23.7978 169.384 24.1391C169.631 24.475 169.802 24.9264 169.896 25.4935L168.442 25.6916C168.376 25.2402 168.184 24.8879 167.864 24.6346C167.55 24.3814 167.104 24.2547 166.526 24.2547C165.844 24.2547 165.357 24.3676 165.065 24.5933C164.773 24.819 164.627 25.0833 164.627 25.3861C164.627 25.5788 164.688 25.7522 164.809 25.9064C164.93 26.066 165.12 26.1981 165.379 26.3027C165.527 26.3578 165.965 26.4844 166.692 26.6826C167.743 26.9634 168.475 27.1946 168.888 27.3763C169.307 27.5525 169.634 27.8112 169.871 28.1525C170.108 28.4939 170.226 28.9178 170.226 29.4243C170.226 29.9198 170.08 30.3877 169.788 30.8282C169.502 31.2631 169.086 31.6017 168.541 31.8439C167.996 32.0806 167.38 32.199 166.692 32.199C165.552 32.199 164.682 31.9623 164.082 31.4888C163.487 31.0153 163.108 30.3134 162.942 29.383Z" fill="#5F6368"/>
</g>
</g>
<path d="M771.2 6.39844H206.4C202.865 6.39844 200 9.26382 200 12.7984V38.3984C200 41.9331 202.865 44.7984 206.4 44.7984H771.2C774.735 44.7984 777.6 41.9331 777.6 38.3984V12.7984C777.6 9.26382 774.735 6.39844 771.2 6.39844Z" fill="#F1F3F4"/>
<mask id="mask3_1678_1176" style="mask-type:luminance" maskUnits="userSpaceOnUse" x="245" y="7" width="493" height="37">
<path d="M737.602 7.19922H245.602V43.9992H737.602V7.19922Z" fill="white"/>
</mask>
<g mask="url(#mask3_1678_1176)">
<path d="M251.509 27.2961C251.509 27.0836 251.475 26.8961 251.409 26.7336C251.346 26.5669 251.234 26.4169 251.071 26.2836C250.913 26.1502 250.692 26.0231 250.409 25.9023C250.13 25.7815 249.775 25.6586 249.346 25.5336C248.896 25.4002 248.49 25.2523 248.128 25.0898C247.765 24.9231 247.455 24.7336 247.196 24.5211C246.938 24.3086 246.74 24.0648 246.603 23.7898C246.465 23.5148 246.396 23.2002 246.396 22.8461C246.396 22.4919 246.469 22.1648 246.615 21.8648C246.761 21.5648 246.969 21.3044 247.24 21.0836C247.515 20.8586 247.842 20.6836 248.221 20.5586C248.6 20.4336 249.023 20.3711 249.49 20.3711C250.173 20.3711 250.753 20.5023 251.228 20.7648C251.707 21.0231 252.071 21.3627 252.321 21.7836C252.571 22.2002 252.696 22.6461 252.696 23.1211H251.496C251.496 22.7794 251.423 22.4773 251.278 22.2148C251.132 21.9481 250.911 21.7398 250.615 21.5898C250.319 21.4356 249.944 21.3586 249.49 21.3586C249.061 21.3586 248.707 21.4231 248.428 21.5523C248.148 21.6815 247.94 21.8565 247.803 22.0773C247.669 22.2981 247.603 22.5502 247.603 22.8336C247.603 23.0252 247.642 23.2002 247.721 23.3586C247.805 23.5127 247.932 23.6565 248.103 23.7898C248.278 23.9231 248.498 24.0461 248.765 24.1586C249.036 24.2711 249.359 24.3794 249.734 24.4836C250.25 24.6294 250.696 24.7919 251.071 24.9711C251.446 25.1502 251.755 25.3523 251.996 25.5773C252.242 25.7981 252.423 26.0502 252.54 26.3336C252.661 26.6127 252.721 26.9294 252.721 27.2836C252.721 27.6544 252.646 27.9898 252.496 28.2898C252.346 28.5898 252.132 28.8461 251.853 29.0586C251.573 29.2711 251.238 29.4356 250.846 29.5523C250.459 29.6648 250.025 29.7211 249.546 29.7211C249.125 29.7211 248.711 29.6627 248.303 29.5461C247.898 29.4294 247.53 29.2544 247.196 29.0211C246.867 28.7877 246.603 28.5002 246.403 28.1586C246.207 27.8127 246.109 27.4127 246.109 26.9586H247.309C247.309 27.2711 247.369 27.5398 247.49 27.7648C247.611 27.9856 247.775 28.169 247.984 28.3148C248.196 28.4606 248.436 28.569 248.703 28.6398C248.973 28.7065 249.255 28.7398 249.546 28.7398C249.967 28.7398 250.323 28.6815 250.615 28.5648C250.907 28.4481 251.128 28.2815 251.278 28.0648C251.432 27.8481 251.509 27.5919 251.509 27.2961ZM256.89 29.7211C256.419 29.7211 255.992 29.6419 255.609 29.4836C255.23 29.3211 254.903 29.094 254.628 28.8023C254.357 28.5106 254.148 28.1648 254.003 27.7648C253.857 27.3648 253.784 26.9273 253.784 26.4523V26.1898C253.784 25.6398 253.865 25.1502 254.028 24.7211C254.19 24.2877 254.411 23.9211 254.69 23.6211C254.969 23.3211 255.286 23.094 255.64 22.9398C255.994 22.7856 256.361 22.7086 256.74 22.7086C257.223 22.7086 257.64 22.7919 257.99 22.9586C258.344 23.1252 258.634 23.3586 258.859 23.6586C259.084 23.9544 259.25 24.3044 259.359 24.7086C259.467 25.1086 259.521 25.5461 259.521 26.0211V26.5398H254.471V25.5961H258.365V25.5086C258.348 25.2086 258.286 24.9169 258.178 24.6336C258.073 24.3502 257.907 24.1169 257.678 23.9336C257.448 23.7502 257.136 23.6586 256.74 23.6586C256.478 23.6586 256.236 23.7148 256.015 23.8273C255.794 23.9356 255.605 24.0981 255.446 24.3148C255.288 24.5315 255.165 24.7961 255.078 25.1086C254.99 25.4211 254.946 25.7815 254.946 26.1898V26.4523C254.946 26.7731 254.99 27.0752 255.078 27.3586C255.169 27.6377 255.3 27.8836 255.471 28.0961C255.646 28.3086 255.857 28.4752 256.103 28.5961C256.353 28.7169 256.636 28.7773 256.953 28.7773C257.361 28.7773 257.707 28.694 257.99 28.5273C258.273 28.3606 258.521 28.1377 258.734 27.8586L259.434 28.4148C259.288 28.6356 259.103 28.8461 258.878 29.0461C258.653 29.2461 258.375 29.4086 258.046 29.5336C257.721 29.6586 257.336 29.7211 256.89 29.7211ZM264.859 28.4398V24.9586C264.859 24.6919 264.805 24.4606 264.696 24.2648C264.592 24.0648 264.434 23.9106 264.221 23.8023C264.009 23.694 263.746 23.6398 263.434 23.6398C263.142 23.6398 262.886 23.6898 262.665 23.7898C262.448 23.8898 262.278 24.0211 262.153 24.1836C262.032 24.3461 261.971 24.5211 261.971 24.7086H260.815C260.815 24.4669 260.878 24.2273 261.003 23.9898C261.128 23.7523 261.307 23.5377 261.54 23.3461C261.778 23.1502 262.061 22.9961 262.39 22.8836C262.723 22.7669 263.094 22.7086 263.503 22.7086C263.994 22.7086 264.428 22.7919 264.803 22.9586C265.182 23.1252 265.478 23.3773 265.69 23.7148C265.907 24.0481 266.015 24.4669 266.015 24.9711V28.1211C266.015 28.3461 266.034 28.5856 266.071 28.8398C266.113 29.094 266.173 29.3127 266.253 29.4961V29.5961H265.046C264.988 29.4627 264.942 29.2856 264.909 29.0648C264.875 28.8398 264.859 28.6315 264.859 28.4398ZM265.059 25.4961L265.071 26.3086H263.903C263.573 26.3086 263.28 26.3356 263.021 26.3898C262.763 26.4398 262.546 26.5169 262.371 26.6211C262.196 26.7252 262.063 26.8565 261.971 27.0148C261.88 27.169 261.834 27.3502 261.834 27.5586C261.834 27.7711 261.882 27.9648 261.978 28.1398C262.073 28.3148 262.217 28.4544 262.409 28.5586C262.605 28.6586 262.844 28.7086 263.128 28.7086C263.482 28.7086 263.794 28.6336 264.065 28.4836C264.336 28.3336 264.55 28.1502 264.709 27.9336C264.871 27.7169 264.959 27.5065 264.971 27.3023L265.465 27.8586C265.436 28.0336 265.357 28.2273 265.228 28.4398C265.098 28.6523 264.925 28.8565 264.709 29.0523C264.496 29.244 264.242 29.4044 263.946 29.5336C263.655 29.6586 263.325 29.7211 262.959 29.7211C262.5 29.7211 262.098 29.6315 261.753 29.4523C261.411 29.2731 261.144 29.0336 260.953 28.7336C260.765 28.4294 260.671 28.0898 260.671 27.7148C260.671 27.3523 260.742 27.0336 260.884 26.7586C261.025 26.4794 261.23 26.2481 261.496 26.0648C261.763 25.8773 262.084 25.7356 262.459 25.6398C262.834 25.544 263.253 25.4961 263.715 25.4961H265.059ZM268.99 23.8961V29.5961H267.834V22.8336H268.959L268.99 23.8961ZM271.103 22.7961L271.096 23.8711C271 23.8502 270.909 23.8377 270.821 23.8336C270.738 23.8252 270.642 23.8211 270.534 23.8211C270.267 23.8211 270.032 23.8627 269.828 23.9461C269.623 24.0294 269.45 24.1461 269.309 24.2961C269.167 24.4461 269.055 24.6252 268.971 24.8336C268.892 25.0377 268.84 25.2627 268.815 25.5086L268.49 25.6961C268.49 25.2877 268.53 24.9044 268.609 24.5461C268.692 24.1877 268.819 23.8711 268.99 23.5961C269.161 23.3169 269.378 23.1002 269.64 22.9461C269.907 22.7877 270.223 22.7086 270.59 22.7086C270.673 22.7086 270.769 22.719 270.878 22.7398C270.986 22.7565 271.061 22.7752 271.103 22.7961ZM274.753 28.7711C275.028 28.7711 275.282 28.7148 275.515 28.6023C275.748 28.4898 275.94 28.3356 276.09 28.1398C276.24 27.9398 276.325 27.7127 276.346 27.4586H277.446C277.425 27.8586 277.29 28.2315 277.04 28.5773C276.794 28.919 276.471 29.1961 276.071 29.4086C275.671 29.6169 275.232 29.7211 274.753 29.7211C274.244 29.7211 273.8 29.6315 273.421 29.4523C273.046 29.2731 272.734 29.0273 272.484 28.7148C272.238 28.4023 272.053 28.044 271.928 27.6398C271.807 27.2315 271.746 26.8002 271.746 26.3461V26.0836C271.746 25.6294 271.807 25.2002 271.928 24.7961C272.053 24.3877 272.238 24.0273 272.484 23.7148C272.734 23.4023 273.046 23.1565 273.421 22.9773C273.8 22.7981 274.244 22.7086 274.753 22.7086C275.282 22.7086 275.744 22.8169 276.14 23.0336C276.536 23.2461 276.846 23.5377 277.071 23.9086C277.3 24.2752 277.425 24.6919 277.446 25.1586H276.346C276.325 24.8794 276.246 24.6273 276.109 24.4023C275.975 24.1773 275.792 23.9981 275.559 23.8648C275.33 23.7273 275.061 23.6586 274.753 23.6586C274.398 23.6586 274.1 23.7294 273.859 23.8711C273.621 24.0086 273.432 24.1961 273.29 24.4336C273.153 24.6669 273.053 24.9273 272.99 25.2148C272.932 25.4981 272.903 25.7877 272.903 26.0836V26.3461C272.903 26.6419 272.932 26.9336 272.99 27.2211C273.048 27.5086 273.146 27.769 273.284 28.0023C273.425 28.2356 273.615 28.4231 273.853 28.5648C274.094 28.7023 274.394 28.7711 274.753 28.7711ZM279.903 19.9961V29.5961H278.746V19.9961H279.903ZM279.628 25.9586L279.146 25.9398C279.15 25.4773 279.219 25.0502 279.353 24.6586C279.486 24.2627 279.673 23.919 279.915 23.6273C280.157 23.3356 280.444 23.1106 280.778 22.9523C281.115 22.7898 281.488 22.7086 281.896 22.7086C282.23 22.7086 282.53 22.7544 282.796 22.8461C283.063 22.9336 283.29 23.0752 283.478 23.2711C283.669 23.4669 283.815 23.7211 283.915 24.0336C284.015 24.3419 284.065 24.719 284.065 25.1648V29.5961H282.903V25.1523C282.903 24.7981 282.85 24.5148 282.746 24.3023C282.642 24.0856 282.49 23.9294 282.29 23.8336C282.09 23.7336 281.844 23.6836 281.553 23.6836C281.265 23.6836 281.003 23.744 280.765 23.8648C280.532 23.9856 280.33 24.1523 280.159 24.3648C279.992 24.5773 279.861 24.8211 279.765 25.0961C279.673 25.3669 279.628 25.6544 279.628 25.9586Z" fill="black" fill-opacity="0.54"/>
</g>
<mask id="mask4_1678_1176" style="mask-type:luminance" maskUnits="userSpaceOnUse" x="207" y="9" width="33" height="33">
<path d="M239.199 25.5977C239.199 16.7611 232.036 9.59766 223.199 9.59766C214.363 9.59766 207.199 16.7611 207.199 25.5977C207.199 34.4342 214.363 41.5977 223.199 41.5977C232.036 41.5977 239.199 34.4342 239.199 25.5977Z" fill="white"/>
</mask>
<g mask="url(#mask4_1678_1176)">
<path d="M234.519 34.931L226.879 27.291C227.906 25.8643 228.533 24.1443 228.533 22.2643C228.533 17.4777 224.653 13.5977 219.866 13.5977C215.079 13.5977 211.199 17.4777 211.199 22.2643C211.199 27.051 215.079 30.931 219.866 30.931C221.746 30.931 223.466 30.3043 224.893 29.2777L232.533 36.9177L234.519 34.931ZM213.866 22.2643C213.866 18.9443 216.546 16.2643 219.866 16.2643C223.186 16.2643 225.866 18.9443 225.866 22.2643C225.866 25.5843 223.186 28.2643 219.866 28.2643C216.546 28.2643 213.866 25.5843 213.866 22.2643Z" fill="#5F6368"/>
</g>
<mask id="mask5_1678_1176" style="mask-type:luminance" maskUnits="userSpaceOnUse" x="1315" y="6" width="39" height="39">
<path d="M1353.6 6.39844H1315.2V44.7984H1353.6V6.39844Z" fill="white"/>
</mask>
<g mask="url(#mask5_1678_1176)">
<g opacity="0.54">
<path d="M1335.2 23.1992V24.7992H1340.8V19.1992H1339.2V21.3912C1338.02 20.0552 1336.32 19.1992 1334.4 19.1992C1332.63 19.1992 1331.03 19.9192 1329.87 21.0712C1328.71 22.2232 1328 23.8312 1328 25.5992C1328 29.1352 1330.86 31.9992 1334.4 31.9992C1336.17 31.9992 1337.77 31.2792 1338.93 30.1272L1337.79 28.9912C1337.35 29.4378 1336.82 29.7921 1336.24 30.0337C1335.65 30.2753 1335.03 30.3995 1334.4 30.3992C1331.75 30.3992 1329.6 28.2472 1329.6 25.5992C1329.6 24.2792 1330.14 23.0792 1331.01 22.2072C1331.45 21.7607 1331.98 21.4064 1332.56 21.1648C1333.15 20.9231 1333.77 20.7989 1334.4 20.7992C1335.24 20.8009 1336.07 21.0234 1336.8 21.4446C1337.53 21.8658 1338.13 22.4708 1338.55 23.1992H1335.2Z" fill="black"/>
</g>
</g>
<g opacity="0.54">
<mask id="mask6_1678_1176" style="mask-type:luminance" maskUnits="userSpaceOnUse" x="1363" y="16" width="20" height="20">
<path d="M1382.4 16H1363.2V35.2H1382.4V16Z" fill="white"/>
</mask>
<g mask="url(#mask6_1678_1176)">
<path d="M1379.2 23.1984H1366.4V19.9984H1379.2V23.1984ZM1379.2 31.1984H1366.4V27.9984H1379.2V31.1984ZM1365.6 18.3984C1365.16 18.3984 1364.8 18.7584 1364.8 19.1984V23.9984C1364.8 24.4384 1365.16 24.7984 1365.6 24.7984H1380C1380.44 24.7984 1380.8 24.4384 1380.8 23.9984V19.1984C1380.8 18.7584 1380.44 18.3984 1380 18.3984H1365.6ZM1365.6 26.3984C1365.16 26.3984 1364.8 26.7584 1364.8 27.1984V31.9984C1364.8 32.4384 1365.16 32.7984 1365.6 32.7984H1380C1380.44 32.7984 1380.8 32.4384 1380.8 31.9984V27.1984C1380.8 26.7584 1380.44 26.3984 1380 26.3984H1365.6Z" fill="black"/>
</g>
</g>
<g opacity="0.54">
<path d="M1412.68 33.8022H1409.72C1409.13 33.8022 1408.63 33.3702 1408.56 32.7862L1408.34 31.2742C1408.13 31.1622 1407.92 31.0422 1407.71 30.9062L1406.27 31.4822C1405.71 31.6902 1405.1 31.4582 1404.82 30.9622L1403.36 28.4262C1403.08 27.8982 1403.2 27.2742 1403.65 26.9222L1404.87 25.9702C1404.86 25.8502 1404.86 25.7302 1404.86 25.6022C1404.86 25.4822 1404.86 25.3542 1404.87 25.2342L1403.66 24.2822C1403.18 23.9222 1403.06 23.2742 1403.36 22.7782L1404.84 20.2262C1405.11 19.7302 1405.73 19.5062 1406.27 19.7222L1407.72 20.3062C1407.93 20.1702 1408.14 20.0502 1408.34 19.9382L1408.56 18.4102C1408.63 17.8502 1409.13 17.4102 1409.71 17.4102H1412.67C1413.26 17.4102 1413.76 17.8422 1413.83 18.4262L1414.05 19.9382C1414.26 20.0502 1414.47 20.1702 1414.68 20.3062L1416.12 19.7302C1416.69 19.5222 1417.3 19.7542 1417.58 20.2502L1419.05 22.7942C1419.34 23.3222 1419.21 23.9462 1418.76 24.2982L1417.54 25.2502C1417.55 25.3702 1417.56 25.4902 1417.56 25.6182C1417.56 25.7462 1417.55 25.8662 1417.54 25.9862L1418.76 26.9382C1419.21 27.2982 1419.34 27.9222 1419.06 28.4262L1417.57 31.0022C1417.3 31.4982 1416.68 31.7222 1416.13 31.5062L1414.69 30.9302C1414.48 31.0662 1414.27 31.1862 1414.06 31.2982L1413.85 32.8262C1413.77 33.3702 1413.27 33.8022 1412.68 33.8022ZM1410.1 32.2022H1412.3L1412.6 30.1622L1413.02 29.9862C1413.38 29.8422 1413.73 29.6342 1414.1 29.3622L1414.46 29.0902L1416.36 29.8582L1417.46 27.9382L1415.84 26.6742L1415.9 26.2262C1415.92 26.0182 1415.94 25.8182 1415.94 25.6022C1415.94 25.3862 1415.92 25.1782 1415.9 24.9782L1415.84 24.5302L1417.46 23.2662L1416.35 21.3462L1414.44 22.1142L1414.08 21.8342C1413.74 21.5782 1413.38 21.3702 1413.02 21.2182L1412.6 21.0422L1412.3 19.0022H1410.1L1409.8 21.0422L1409.38 21.2102C1409.02 21.3622 1408.67 21.5622 1408.3 21.8422L1407.94 22.1062L1406.04 21.3462L1404.93 23.2582L1406.55 24.5222L1406.5 24.9702C1406.47 25.1797 1406.45 25.3908 1406.45 25.6022C1406.45 25.8102 1406.46 26.0262 1406.5 26.2262L1406.55 26.6742L1404.93 27.9382L1406.03 29.8582L1407.94 29.0902L1408.3 29.3702C1408.65 29.6342 1408.99 29.8342 1409.37 29.9862L1409.79 30.1622L1410.1 32.2022Z" fill="black"/>
<path d="M1411.2 28.4008C1412.74 28.4008 1414 27.1472 1414 25.6008C1414 24.0544 1412.74 22.8008 1411.2 22.8008C1409.65 22.8008 1408.4 24.0544 1408.4 25.6008C1408.4 27.1472 1409.65 28.4008 1411.2 28.4008Z" fill="black"/>
</g>
<path d="M1465.6 22.3992C1466.48 22.3992 1467.2 21.6792 1467.2 20.7992C1467.2 19.9192 1466.48 19.1992 1465.6 19.1992C1464.72 19.1992 1464 19.9192 1464 20.7992C1464 21.6792 1464.72 22.3992 1465.6 22.3992ZM1470.4 31.9992C1471.28 31.9992 1472 31.2792 1472 30.3992C1472 29.5192 1471.28 28.7992 1470.4 28.7992C1469.52 28.7992 1468.8 29.5192 1468.8 30.3992C1468.8 31.2792 1469.52 31.9992 1470.4 31.9992ZM1465.6 31.9992C1466.48 31.9992 1467.2 31.2792 1467.2 30.3992C1467.2 29.5192 1466.48 28.7992 1465.6 28.7992C1464.72 28.7992 1464 29.5192 1464 30.3992C1464 31.2792 1464.72 31.9992 1465.6 31.9992ZM1465.6 27.1992C1466.48 27.1992 1467.2 26.4792 1467.2 25.5992C1467.2 24.7192 1466.48 23.9992 1465.6 23.9992C1464.72 23.9992 1464 24.7192 1464 25.5992C1464 26.4792 1464.72 27.1992 1465.6 27.1992ZM1470.4 27.1992C1471.28 27.1992 1472 26.4792 1472 25.5992C1472 24.7192 1471.28 23.9992 1470.4 23.9992C1469.52 23.9992 1468.8 24.7192 1468.8 25.5992C1468.8 26.4792 1469.52 27.1992 1470.4 27.1992ZM1473.6 20.7992C1473.6 21.6792 1474.32 22.3992 1475.2 22.3992C1476.08 22.3992 1476.8 21.6792 1476.8 20.7992C1476.8 19.9192 1476.08 19.1992 1475.2 19.1992C1474.32 19.1992 1473.6 19.9192 1473.6 20.7992ZM1470.4 22.3992C1471.28 22.3992 1472 21.6792 1472 20.7992C1472 19.9192 1471.28 19.1992 1470.4 19.1992C1469.52 19.1992 1468.8 19.9192 1468.8 20.7992C1468.8 21.6792 1469.52 22.3992 1470.4 22.3992ZM1475.2 27.1992C1476.08 27.1992 1476.8 26.4792 1476.8 25.5992C1476.8 24.7192 1476.08 23.9992 1475.2 23.9992C1474.32 23.9992 1473.6 24.7192 1473.6 25.5992C1473.6 26.4792 1474.32 27.1992 1475.2 27.1992ZM1475.2 31.9992C1476.08 31.9992 1476.8 31.2792 1476.8 30.3992C1476.8 29.5192 1476.08 28.7992 1475.2 28.7992C1474.32 28.7992 1473.6 29.5192 1473.6 30.3992C1473.6 31.2792 1474.32 31.9992 1475.2 31.9992Z" fill="#5F6368"/>
</g>
<path d="M1521.6 25.6008C1521.6 18.5315 1515.87 12.8008 1508.8 12.8008C1501.73 12.8008 1496 18.5315 1496 25.6008C1496 32.67 1501.73 38.4008 1508.8 38.4008C1515.87 38.4008 1521.6 32.67 1521.6 25.6008Z" fill="#5C3C6E"/>
<path d="M1513.22 29.7734V31H1507.53V29.7734H1513.22ZM1507.83 19.625V31H1506.32V19.625H1507.83Z" fill="white"/>
</g>
<defs>
<filter id="filter0_d_1678_1176" x="0" y="-0.8" width="1536" height="51.9992" filterUnits="userSpaceOnUse" color-interpolation-filters="sRGB">
<feFlood flood-opacity="0" result="BackgroundImageFix"/>
<feColorMatrix in="SourceAlpha" type="matrix" values="0 0 0 0 0 0 0 0 0 0 0 0 0 0 0 0 0 0 127 0" result="hardAlpha"/>
<feOffset dy="-0.8"/>
<feComposite in2="hardAlpha" operator="out"/>
<feColorMatrix type="matrix" values="0 0 0 0 0.854902 0 0 0 0 0.862745 0 0 0 0 0.878431 0 0 0 1 0"/>
<feBlend mode="normal" in2="BackgroundImageFix" result="effect1_dropShadow_1678_1176"/>
<feBlend mode="normal" in="SourceGraphic" in2="effect1_dropShadow_1678_1176" result="shape"/>
</filter>
<clipPath id="clip0_1678_1176">
<rect width="1536" height="52" fill="white"/>
</clipPath>
</defs>
</svg>
