<svg width="1536" height="52" viewBox="0 0 1536 52" fill="none" xmlns="http://www.w3.org/2000/svg">
<g clip-path="url(#clip0_1678_1176)">
<g filter="url(#filter0_d_1678_1176)">
<path d="M1536 0H0V51.2H1536V0Z" fill="white"/>
<path d="M21.6016 30.4008H36.0016V28.8008H21.6016V30.4008ZM21.6016 26.4008H36.0016V24.8008H21.6016V26.4008ZM21.6016 20.8008V22.4008H36.0016V20.8008H21.6016Z" fill="#5F6368"/>
<mask id="mask0_1678_1176" style="mask-type:luminance" maskUnits="userSpaceOnUse" x="51" y="8" width="132" height="38">
<path d="M183 8H51V46H183V8Z" fill="white"/>
</mask>
<g mask="url(#mask0_1678_1176)">
<mask id="mask1_1678_1176" style="mask-type:luminance" maskUnits="userSpaceOnUse" x="55" y="13" width="29" height="29">
<path d="M83.6016 13H55V41.6016H83.6016V13Z" fill="white"/>
</mask>
<g mask="url(#mask1_1678_1176)">
<path d="M61.9945 31.5713C60.7376 30.4103 59.7789 28.9636 59.1996 27.3537C58.6202 25.7437 58.4372 24.0179 58.666 22.3222C58.8923 20.6029 59.5321 18.964 60.5306 17.5462C61.5291 16.1283 62.8565 14.9737 64.399 14.1813C65.9416 13.3888 67.6533 12.9823 69.3874 12.9965C71.1215 13.0106 72.8264 13.445 74.3558 14.2625C75.8852 15.08 77.1936 16.2561 78.1688 17.6901C79.1441 19.1241 79.757 20.7731 79.9552 22.496C80.1534 24.2188 79.9309 25.964 79.3067 27.5819C78.6826 29.1999 77.6754 30.6424 76.3716 31.7858C75.532 32.5076 74.8801 33.4224 74.4719 34.4517H70.4939V25.8903C71.1886 25.6447 71.7904 25.1905 72.2171 24.5898C72.6437 23.989 72.8744 23.2712 72.8774 22.5344C72.8774 22.2183 72.7519 21.9152 72.5284 21.6917C72.3049 21.4682 72.0017 21.3426 71.6857 21.3426C71.3696 21.3426 71.0665 21.4682 70.843 21.6917C70.6195 21.9152 70.4939 22.2183 70.4939 22.5344C70.4939 22.8504 70.3684 23.1536 70.1449 23.3771C69.9214 23.6005 69.6183 23.7261 69.3022 23.7261C68.9861 23.7261 68.683 23.6005 68.4595 23.3771C68.236 23.1536 68.1105 22.8504 68.1105 22.5344C68.1105 22.2183 67.9849 21.9152 67.7614 21.6917C67.5379 21.4682 67.2348 21.3426 66.9188 21.3426C66.6027 21.3426 66.2996 21.4682 66.0761 21.6917C65.8526 21.9152 65.727 22.2183 65.727 22.5344C65.7301 23.2712 65.9607 23.989 66.3873 24.5898C66.814 25.1905 67.4158 25.6447 68.1105 25.8903V34.4517H64.0145C63.5589 33.3559 62.8695 32.3729 61.9945 31.5713ZM64.5353 36.8352V37.2046C64.5365 38.3705 65.0003 39.4883 65.8247 40.3127C66.6491 41.1371 67.7669 41.6008 68.9328 41.6021H69.6717C70.8376 41.6008 71.9553 41.1371 72.7798 40.3127C73.6042 39.4883 74.0679 38.3705 74.0691 37.2046V36.8352H64.5353Z" fill="#35B2C2"/>
</g>
<mask id="mask2_1678_1176" style="mask-type:luminance" maskUnits="userSpaceOnUse" x="86" y="7" width="90" height="38">
<path d="M176 7H86V45H176V7Z" fill="white"/>
</mask>
<g mask="url(#mask2_1678_1176)">
<path d="M91.3281 32.0008V19.8945H96.6959C97.7749 19.8945 98.5952 20.0046 99.1568 20.2248C99.7183 20.4395 100.167 20.8221 100.503 21.3727C100.839 21.9232 101.007 22.5316 101.007 23.1977C101.007 24.0565 100.729 24.7805 100.173 25.3696C99.6165 25.9587 98.7576 26.333 97.596 26.4927C98.0199 26.6964 98.342 26.8973 98.5622 27.0955C99.0302 27.5249 99.4733 28.0617 99.8918 28.7058L101.998 32.0008H99.9826L98.3805 29.4821C97.9126 28.7554 97.5272 28.1993 97.2244 27.814C96.9216 27.4286 96.6491 27.1588 96.4069 27.0047C96.1701 26.8505 95.9279 26.7432 95.6801 26.6826C95.4985 26.6441 95.2012 26.6248 94.7883 26.6248H92.9302V32.0008H91.3281ZM92.9302 25.2375H96.3738C97.106 25.2375 97.6786 25.1631 98.0915 25.0145C98.5044 24.8603 98.8182 24.6181 99.0329 24.2878C99.2476 23.9519 99.355 23.5886 99.355 23.1977C99.355 22.6252 99.1458 22.1544 98.7274 21.7856C98.3145 21.4167 97.6593 21.2323 96.7619 21.2323H92.9302V25.2375ZM109.339 29.1765L110.875 29.3665C110.633 30.2639 110.184 30.9603 109.529 31.4558C108.874 31.9513 108.037 32.199 107.019 32.199C105.736 32.199 104.718 31.8054 103.963 31.0181C103.215 30.2253 102.84 29.116 102.84 27.6901C102.84 26.2147 103.22 25.0695 103.98 24.2547C104.74 23.4399 105.725 23.0326 106.936 23.0326C108.109 23.0326 109.067 23.4317 109.81 24.23C110.553 25.0282 110.925 26.1513 110.925 27.5993C110.925 27.6873 110.922 27.8195 110.917 27.9956H104.376C104.431 28.9591 104.704 29.6968 105.194 30.2088C105.684 30.7208 106.295 30.9768 107.027 30.9768C107.572 30.9768 108.037 30.8337 108.423 30.5474C108.808 30.2611 109.114 29.8042 109.339 29.1765ZM104.459 26.7735H109.356C109.29 26.0357 109.103 25.4824 108.794 25.1136C108.321 24.541 107.707 24.2547 106.953 24.2547C106.27 24.2547 105.695 24.4832 105.227 24.9402C104.764 25.3971 104.508 26.0082 104.459 26.7735ZM112.155 29.383L113.625 29.1518C113.708 29.7408 113.936 30.1923 114.311 30.5061C114.691 30.8199 115.219 30.9768 115.896 30.9768C116.579 30.9768 117.085 30.8392 117.416 30.5639C117.746 30.2831 117.911 29.9556 117.911 29.5812C117.911 29.2454 117.765 28.9811 117.474 28.7884C117.27 28.6563 116.763 28.4884 115.954 28.2847C114.864 28.0094 114.107 27.7727 113.683 27.5745C113.265 27.3708 112.945 27.0928 112.725 26.7404C112.51 26.3826 112.403 25.9889 112.403 25.5595C112.403 25.1686 112.491 24.808 112.667 24.4777C112.849 24.1419 113.094 23.8639 113.402 23.6436C113.634 23.473 113.947 23.3298 114.344 23.2142C114.746 23.0931 115.175 23.0326 115.632 23.0326C116.32 23.0326 116.923 23.1316 117.441 23.3298C117.964 23.528 118.349 23.7978 118.597 24.1391C118.844 24.475 119.015 24.9264 119.109 25.4935L117.655 25.6916C117.589 25.2402 117.396 24.8879 117.077 24.6346C116.763 24.3814 116.317 24.2547 115.739 24.2547C115.057 24.2547 114.569 24.3676 114.278 24.5933C113.986 24.819 113.84 25.0833 113.84 25.3861C113.84 25.5788 113.901 25.7522 114.022 25.9064C114.143 26.066 114.333 26.1981 114.591 26.3027C114.74 26.3578 115.178 26.4844 115.905 26.6826C116.956 26.9634 117.688 27.1946 118.101 27.3763C118.52 27.5525 118.847 27.8112 119.084 28.1525C119.321 28.4939 119.439 28.9178 119.439 29.4243C119.439 29.9198 119.293 30.3877 119.001 30.8282C118.715 31.2631 118.299 31.6017 117.754 31.8439C117.209 32.0806 116.593 32.199 115.905 32.199C114.765 32.199 113.895 31.9623 113.295 31.4888C112.7 31.0153 112.321 30.3134 112.155 29.383ZM120.653 27.6158C120.653 25.9917 121.104 24.7888 122.007 24.007C122.761 23.3574 123.681 23.0326 124.765 23.0326C125.971 23.0326 126.957 23.4289 127.722 24.2217C128.487 25.009 128.87 26.099 128.87 27.4919C128.87 28.6205 128.699 29.5096 128.358 30.1593C128.022 30.8034 127.529 31.3044 126.879 31.6622C126.235 32.0201 125.531 32.199 124.765 32.199C123.538 32.199 122.544 31.8054 121.784 31.0181C121.03 30.2308 120.653 29.0967 120.653 27.6158ZM122.181 27.6158C122.181 28.7389 122.426 29.5812 122.916 30.1427C123.406 30.6988 124.022 30.9768 124.765 30.9768C125.503 30.9768 126.117 30.696 126.607 30.1345C127.097 29.5729 127.342 28.7168 127.342 27.5662C127.342 26.4817 127.094 25.6614 126.599 25.1053C126.109 24.5438 125.498 24.263 124.765 24.263C124.022 24.263 123.406 24.541 122.916 25.0971C122.426 25.6531 122.181 26.4927 122.181 27.6158ZM136.368 32.0008V30.7125C135.685 31.7035 134.758 32.199 133.585 32.199C133.068 32.199 132.583 32.0999 132.132 31.9017C131.686 31.7035 131.353 31.4558 131.132 31.1585C130.918 30.8557 130.766 30.4868 130.678 30.0519C130.618 29.7601 130.587 29.2977 130.587 28.6645V23.2307H132.074V28.0947C132.074 28.871 132.104 29.394 132.165 29.6638C132.258 30.0547 132.456 30.363 132.759 30.5887C133.062 30.8089 133.436 30.919 133.882 30.919C134.328 30.919 134.747 30.8061 135.138 30.5804C135.528 30.3492 135.804 30.0381 135.963 29.6473C136.129 29.2509 136.211 28.6783 136.211 27.9296V23.2307H137.698V32.0008H136.368ZM140.018 32.0008V23.2307H141.356V24.5603C141.697 23.9382 142.011 23.528 142.297 23.3298C142.589 23.1316 142.908 23.0326 143.255 23.0326C143.756 23.0326 144.265 23.1922 144.783 23.5115L144.271 24.8906C143.908 24.6759 143.544 24.5685 143.181 24.5685C142.856 24.5685 142.564 24.6676 142.306 24.8658C142.047 25.0585 141.862 25.3283 141.752 25.6751C141.587 26.2036 141.504 26.7817 141.504 27.4093V32.0008H140.018ZM151.389 28.7884L152.851 28.9784C152.691 29.9858 152.281 30.7759 151.621 31.3484C150.965 31.9155 150.159 32.199 149.201 32.199C148.001 32.199 147.035 31.8081 146.302 31.0263C145.576 30.2391 145.212 29.1132 145.212 27.6488C145.212 26.7019 145.369 25.8733 145.683 25.1631C145.997 24.4529 146.473 23.9217 147.112 23.5693C147.756 23.2115 148.455 23.0326 149.209 23.0326C150.162 23.0326 150.941 23.2748 151.546 23.7593C152.152 24.2382 152.54 24.9209 152.711 25.8073L151.266 26.0302C151.128 25.4412 150.883 24.998 150.531 24.7007C150.184 24.4034 149.763 24.2547 149.267 24.2547C148.518 24.2547 147.91 24.5245 147.442 25.064C146.974 25.5981 146.74 26.4459 146.74 27.6075C146.74 28.7857 146.966 29.6417 147.417 30.1758C147.869 30.7098 148.458 30.9768 149.184 30.9768C149.768 30.9768 150.255 30.7979 150.646 30.44C151.037 30.0822 151.285 29.5316 151.389 28.7884ZM160.126 29.1765L161.662 29.3665C161.42 30.2639 160.971 30.9603 160.316 31.4558C159.661 31.9513 158.824 32.199 157.806 32.199C156.523 32.199 155.505 31.8054 154.75 31.0181C154.002 30.2253 153.627 29.116 153.627 27.6901C153.627 26.2147 154.007 25.0695 154.767 24.2547C155.527 23.4399 156.512 23.0326 157.723 23.0326C158.896 23.0326 159.854 23.4317 160.597 24.23C161.34 25.0282 161.712 26.1513 161.712 27.5993C161.712 27.6873 161.709 27.8195 161.704 27.9956H155.163C155.218 28.9591 155.491 29.6968 155.981 30.2088C156.471 30.7208 157.082 30.9768 157.814 30.9768C158.359 30.9768 158.824 30.8337 159.21 30.5474C159.595 30.2611 159.901 29.8042 160.126 29.1765ZM155.246 26.7735H160.143C160.077 26.0357 159.89 25.4824 159.581 25.1136C159.108 24.541 158.494 24.2547 157.74 24.2547C157.057 24.2547 156.482 24.4832 156.014 24.9402C155.551 25.3971 155.295 26.0082 155.246 26.7735ZM162.942 29.383L164.412 29.1518C164.495 29.7408 164.723 30.1923 165.098 30.5061C165.478 30.8199 166.006 30.9768 166.683 30.9768C167.366 30.9768 167.872 30.8392 168.203 30.5639C168.533 30.2831 168.698 29.9556 168.698 29.5812C168.698 29.2454 168.552 28.9811 168.261 28.7884C168.057 28.6563 167.55 28.4884 166.741 28.2847C165.651 28.0094 164.894 27.7727 164.47 27.5745C164.052 27.3708 163.732 27.0928 163.512 26.7404C163.298 26.3826 163.19 25.9889 163.19 25.5595C163.19 25.1686 163.278 24.808 163.454 24.4777C163.636 24.1419 163.881 23.8639 164.189 23.6436C164.421 23.473 164.734 23.3298 165.131 23.2142C165.533 23.0931 165.962 23.0326 166.419 23.0326C167.107 23.0326 167.71 23.1316 168.228 23.3298C168.751 23.528 169.136 23.7978 169.384 24.1391C169.631 24.475 169.802 24.9264 169.896 25.4935L168.442 25.6916C168.376 25.2402 168.184 24.8879 167.864 24.6346C167.55 24.3814 167.104 24.2547 166.526 24.2547C165.844 24.2547 165.357 24.3676 165.065 24.5933C164.773 24.819 164.627 25.0833 164.627 25.3861C164.627 25.5788 164.688 25.7522 164.809 25.9064C164.93 26.066 165.12 26.1981 165.379 26.3027C165.527 26.3578 165.965 26.4844 166.692 26.6826C167.743 26.9634 168.475 27.1946 168.888 27.3763C169.307 27.5525 169.634 27.8112 169.871 28.1525C170.108 28.4939 170.226 28.9178 170.226 29.4243C170.226 29.9198 170.08 30.3877 169.788 30.8282C169.502 31.2631 169.086 31.6017 168.541 31.8439C167.996 32.0806 167.38 32.199 166.692 32.199C165.552 32.199 164.682 31.9623 164.082 31.4888C163.487 31.0153 163.108 30.3134 162.942 29.383Z" fill="#5F6368"/>
</g>
</g>
<mask id="mask3_1678_1176" style="mask-type:luminance" maskUnits="userSpaceOnUse" x="1315" y="6" width="39" height="39">
<path d="M1353.6 6.39844H1315.2V44.7984H1353.6V6.39844Z" fill="white"/>
</mask>
<g mask="url(#mask3_1678_1176)">
<g opacity="0.54">
<path d="M1335.2 23.1992V24.7992H1340.8V19.1992H1339.2V21.3912C1338.02 20.0552 1336.32 19.1992 1334.4 19.1992C1332.63 19.1992 1331.03 19.9192 1329.87 21.0712C1328.71 22.2232 1328 23.8312 1328 25.5992C1328 29.1352 1330.86 31.9992 1334.4 31.9992C1336.17 31.9992 1337.77 31.2792 1338.93 30.1272L1337.79 28.9912C1337.35 29.4378 1336.82 29.7921 1336.24 30.0337C1335.65 30.2753 1335.03 30.3995 1334.4 30.3992C1331.75 30.3992 1329.6 28.2472 1329.6 25.5992C1329.6 24.2792 1330.14 23.0792 1331.01 22.2072C1331.45 21.7607 1331.98 21.4064 1332.56 21.1648C1333.15 20.9231 1333.77 20.7989 1334.4 20.7992C1335.24 20.8009 1336.07 21.0234 1336.8 21.4446C1337.53 21.8658 1338.13 22.4708 1338.55 23.1992H1335.2Z" fill="black"/>
</g>
</g>
<g opacity="0.54">
<mask id="mask4_1678_1176" style="mask-type:luminance" maskUnits="userSpaceOnUse" x="1363" y="16" width="20" height="20">
<path d="M1382.4 16H1363.2V35.2H1382.4V16Z" fill="white"/>
</mask>
<g mask="url(#mask4_1678_1176)">
<path d="M1379.2 23.1984H1366.4V19.9984H1379.2V23.1984ZM1379.2 31.1984H1366.4V27.9984H1379.2V31.1984ZM1365.6 18.3984C1365.16 18.3984 1364.8 18.7584 1364.8 19.1984V23.9984C1364.8 24.4384 1365.16 24.7984 1365.6 24.7984H1380C1380.44 24.7984 1380.8 24.4384 1380.8 23.9984V19.1984C1380.8 18.7584 1380.44 18.3984 1380 18.3984H1365.6ZM1365.6 26.3984C1365.16 26.3984 1364.8 26.7584 1364.8 27.1984V31.9984C1364.8 32.4384 1365.16 32.7984 1365.6 32.7984H1380C1380.44 32.7984 1380.8 32.4384 1380.8 31.9984V27.1984C1380.8 26.7584 1380.44 26.3984 1380 26.3984H1365.6Z" fill="black"/>
</g>
</g>
<g opacity="0.54">
<path d="M1412.68 33.8022H1409.72C1409.13 33.8022 1408.63 33.3702 1408.56 32.7862L1408.34 31.2742C1408.13 31.1622 1407.92 31.0422 1407.71 30.9062L1406.27 31.4822C1405.71 31.6902 1405.1 31.4582 1404.82 30.9622L1403.36 28.4262C1403.08 27.8982 1403.2 27.2742 1403.65 26.9222L1404.87 25.9702C1404.86 25.8502 1404.86 25.7302 1404.86 25.6022C1404.86 25.4822 1404.86 25.3542 1404.87 25.2342L1403.66 24.2822C1403.18 23.9222 1403.06 23.2742 1403.36 22.7782L1404.84 20.2262C1405.11 19.7302 1405.73 19.5062 1406.27 19.7222L1407.72 20.3062C1407.93 20.1702 1408.14 20.0502 1408.34 19.9382L1408.56 18.4102C1408.63 17.8502 1409.13 17.4102 1409.71 17.4102H1412.67C1413.26 17.4102 1413.76 17.8422 1413.83 18.4262L1414.05 19.9382C1414.26 20.0502 1414.47 20.1702 1414.68 20.3062L1416.12 19.7302C1416.69 19.5222 1417.3 19.7542 1417.58 20.2502L1419.05 22.7942C1419.34 23.3222 1419.21 23.9462 1418.76 24.2982L1417.54 25.2502C1417.55 25.3702 1417.56 25.4902 1417.56 25.6182C1417.56 25.7462 1417.55 25.8662 1417.54 25.9862L1418.76 26.9382C1419.21 27.2982 1419.34 27.9222 1419.06 28.4262L1417.57 31.0022C1417.3 31.4982 1416.68 31.7222 1416.13 31.5062L1414.69 30.9302C1414.48 31.0662 1414.27 31.1862 1414.06 31.2982L1413.85 32.8262C1413.77 33.3702 1413.27 33.8022 1412.68 33.8022ZM1410.1 32.2022H1412.3L1412.6 30.1622L1413.02 29.9862C1413.38 29.8422 1413.73 29.6342 1414.1 29.3622L1414.46 29.0902L1416.36 29.8582L1417.46 27.9382L1415.84 26.6742L1415.9 26.2262C1415.92 26.0182 1415.94 25.8182 1415.94 25.6022C1415.94 25.3862 1415.92 25.1782 1415.9 24.9782L1415.84 24.5302L1417.46 23.2662L1416.35 21.3462L1414.44 22.1142L1414.08 21.8342C1413.74 21.5782 1413.38 21.3702 1413.02 21.2182L1412.6 21.0422L1412.3 19.0022H1410.1L1409.8 21.0422L1409.38 21.2102C1409.02 21.3622 1408.67 21.5622 1408.3 21.8422L1407.94 22.1062L1406.04 21.3462L1404.93 23.2582L1406.55 24.5222L1406.5 24.9702C1406.47 25.1797 1406.45 25.3908 1406.45 25.6022C1406.45 25.8102 1406.46 26.0262 1406.5 26.2262L1406.55 26.6742L1404.93 27.9382L1406.03 29.8582L1407.94 29.0902L1408.3 29.3702C1408.65 29.6342 1408.99 29.8342 1409.37 29.9862L1409.79 30.1622L1410.1 32.2022Z" fill="black"/>
<path d="M1411.2 28.4008C1412.74 28.4008 1414 27.1472 1414 25.6008C1414 24.0544 1412.74 22.8008 1411.2 22.8008C1409.65 22.8008 1408.4 24.0544 1408.4 25.6008C1408.4 27.1472 1409.65 28.4008 1411.2 28.4008Z" fill="black"/>
</g>
<path d="M1465.6 22.3992C1466.48 22.3992 1467.2 21.6792 1467.2 20.7992C1467.2 19.9192 1466.48 19.1992 1465.6 19.1992C1464.72 19.1992 1464 19.9192 1464 20.7992C1464 21.6792 1464.72 22.3992 1465.6 22.3992ZM1470.4 31.9992C1471.28 31.9992 1472 31.2792 1472 30.3992C1472 29.5192 1471.28 28.7992 1470.4 28.7992C1469.52 28.7992 1468.8 29.5192 1468.8 30.3992C1468.8 31.2792 1469.52 31.9992 1470.4 31.9992ZM1465.6 31.9992C1466.48 31.9992 1467.2 31.2792 1467.2 30.3992C1467.2 29.5192 1466.48 28.7992 1465.6 28.7992C1464.72 28.7992 1464 29.5192 1464 30.3992C1464 31.2792 1464.72 31.9992 1465.6 31.9992ZM1465.6 27.1992C1466.48 27.1992 1467.2 26.4792 1467.2 25.5992C1467.2 24.7192 1466.48 23.9992 1465.6 23.9992C1464.72 23.9992 1464 24.7192 1464 25.5992C1464 26.4792 1464.72 27.1992 1465.6 27.1992ZM1470.4 27.1992C1471.28 27.1992 1472 26.4792 1472 25.5992C1472 24.7192 1471.28 23.9992 1470.4 23.9992C1469.52 23.9992 1468.8 24.7192 1468.8 25.5992C1468.8 26.4792 1469.52 27.1992 1470.4 27.1992ZM1473.6 20.7992C1473.6 21.6792 1474.32 22.3992 1475.2 22.3992C1476.08 22.3992 1476.8 21.6792 1476.8 20.7992C1476.8 19.9192 1476.08 19.1992 1475.2 19.1992C1474.32 19.1992 1473.6 19.9192 1473.6 20.7992ZM1470.4 22.3992C1471.28 22.3992 1472 21.6792 1472 20.7992C1472 19.9192 1471.28 19.1992 1470.4 19.1992C1469.52 19.1992 1468.8 19.9192 1468.8 20.7992C1468.8 21.6792 1469.52 22.3992 1470.4 22.3992ZM1475.2 27.1992C1476.08 27.1992 1476.8 26.4792 1476.8 25.5992C1476.8 24.7192 1476.08 23.9992 1475.2 23.9992C1474.32 23.9992 1473.6 24.7192 1473.6 25.5992C1473.6 26.4792 1474.32 27.1992 1475.2 27.1992ZM1475.2 31.9992C1476.08 31.9992 1476.8 31.2792 1476.8 30.3992C1476.8 29.5192 1476.08 28.7992 1475.2 28.7992C1474.32 28.7992 1473.6 29.5192 1473.6 30.3992C1473.6 31.2792 1474.32 31.9992 1475.2 31.9992Z" fill="#5F6368"/>
</g>
<path d="M1521.6 25.6008C1521.6 18.5315 1515.87 12.8008 1508.8 12.8008C1501.73 12.8008 1496 18.5315 1496 25.6008C1496 32.67 1501.73 38.4008 1508.8 38.4008C1515.87 38.4008 1521.6 32.67 1521.6 25.6008Z" fill="#5C3C6E"/>
<path d="M1513.22 29.7734V31H1507.53V29.7734H1513.22ZM1507.83 19.625V31H1506.32V19.625H1507.83Z" fill="white"/>
</g>
<defs>
<filter id="filter0_d_1678_1176" x="0" y="-0.8" width="1536" height="51.9992" filterUnits="userSpaceOnUse" color-interpolation-filters="sRGB">
<feFlood flood-opacity="0" result="BackgroundImageFix"/>
<feColorMatrix in="SourceAlpha" type="matrix" values="0 0 0 0 0 0 0 0 0 0 0 0 0 0 0 0 0 0 127 0" result="hardAlpha"/>
<feOffset dy="-0.8"/>
<feComposite in2="hardAlpha" operator="out"/>
<feColorMatrix type="matrix" values="0 0 0 0 0.854902 0 0 0 0 0.862745 0 0 0 0 0.878431 0 0 0 1 0"/>
<feBlend mode="normal" in2="BackgroundImageFix" result="effect1_dropShadow_1678_1176"/>
<feBlend mode="normal" in="SourceGraphic" in2="effect1_dropShadow_1678_1176" result="shape"/>
</filter>
<clipPath id="clip0_1678_1176">
<rect width="1536" height="52" fill="white"/>
</clipPath>
</defs>
</svg>
