<svg width="19" height="19" viewBox="0 0 19 19" fill="none" xmlns="http://www.w3.org/2000/svg">
<g clip-path="url(#clip0_2309_3015)">
<path d="M9.875 18.5C11.655 18.5 13.3951 17.9722 14.8751 16.9832C16.3552 15.9943 17.5087 14.5887 18.1899 12.9442C18.8711 11.2996 19.0493 9.49002 18.7021 7.74419C18.3548 5.99836 17.4976 4.39472 16.239 3.13604C14.9803 1.87737 13.3766 1.0202 11.6308 0.672937C9.88498 0.32567 8.07538 0.5039 6.43085 1.18509C4.78631 1.86628 3.38071 3.01983 2.39177 4.49987C1.40284 5.97991 0.875 7.71997 0.875 9.5C0.877581 11.8862 1.82662 14.1738 3.51389 15.8611C5.20116 17.5484 7.48884 18.4974 9.875 18.5ZM9.875 4.25C10.0975 4.25 10.315 4.31598 10.5 4.4396C10.685 4.56322 10.8292 4.73892 10.9144 4.94449C10.9995 5.15005 11.0218 5.37625 10.9784 5.59448C10.935 5.81271 10.8278 6.01317 10.6705 6.1705C10.5132 6.32783 10.3127 6.43498 10.0945 6.47839C9.87625 6.5218 9.65005 6.49952 9.44448 6.41437C9.23891 6.32922 9.06321 6.18503 8.9396 6.00002C8.81598 5.81502 8.75 5.59751 8.75 5.375C8.75 5.07664 8.86853 4.79049 9.07951 4.57951C9.29048 4.36853 9.57663 4.25 9.875 4.25ZM9.125 8H9.875C10.2728 8 10.6544 8.15804 10.9357 8.43934C11.217 8.72065 11.375 9.10218 11.375 9.5V14C11.375 14.1989 11.296 14.3897 11.1553 14.5303C11.0147 14.671 10.8239 14.75 10.625 14.75C10.4261 14.75 10.2353 14.671 10.0947 14.5303C9.95402 14.3897 9.875 14.1989 9.875 14V9.5H9.125C8.92609 9.5 8.73532 9.42099 8.59467 9.28033C8.45402 9.13968 8.375 8.94892 8.375 8.75C8.375 8.55109 8.45402 8.36033 8.59467 8.21967C8.73532 8.07902 8.92609 8 9.125 8Z" fill="white"/>
</g>
<defs>
<clipPath id="clip0_2309_3015">
<rect width="18" height="18" fill="white" transform="translate(0.875 0.5)"/>
</clipPath>
</defs>
</svg>
