<svg width="24" height="25" viewBox="0 0 24 25" fill="none" xmlns="http://www.w3.org/2000/svg">
<g clip-path="url(#clip0_2159_2790)">
<path d="M15.5528 23.4064C14.3462 23.8343 13.049 24.0675 11.6978 24.0675C10.3466 24.0675 9.04943 23.8343 7.84281 23.4064V21.1762C7.84281 19.0502 9.57178 17.3212 11.6978 17.3212C13.8238 17.3212 15.5528 19.0502 15.5528 21.1762V23.4064ZM11.6978 7.68375C10.6348 7.68375 9.77031 8.54823 9.77031 9.61125C9.77031 10.6743 10.6348 11.5387 11.6978 11.5387C12.7608 11.5387 13.6253 10.6743 13.6253 9.61125C13.6253 8.54823 12.7608 7.68375 11.6978 7.68375ZM23.2628 12.5025C23.2628 16.7748 20.9344 20.5122 17.4803 22.5149V21.1762C17.4803 17.9872 14.8869 15.3937 11.6978 15.3937C8.50876 15.3937 5.91531 17.9872 5.91531 21.1762V22.5149C2.46123 20.5122 0.132812 16.7748 0.132812 12.5025C0.132812 6.12537 5.32068 0.9375 11.6978 0.9375C18.0749 0.9375 23.2628 6.12537 23.2628 12.5025ZM15.5528 9.61125C15.5528 7.48522 13.8238 5.75625 11.6978 5.75625C9.57178 5.75625 7.84281 7.48522 7.84281 9.61125C7.84281 11.7373 9.57178 13.4662 11.6978 13.4662C13.8238 13.4662 15.5528 11.7373 15.5528 9.61125Z" fill="#7D7D7D"/>
</g>
<defs>
<clipPath id="clip0_2159_2790">
<rect width="23.13" height="23.13" fill="white" transform="translate(0.132812 0.9375)"/>
</clipPath>
</defs>
</svg>
