<svg width="70" height="70" viewBox="0 0 70 70" fill="none" xmlns="http://www.w3.org/2000/svg">
<g clip-path="url(#clip0_2339_2813)">
<path d="M61.8003 7.77778C55.3797 1.3125 45.7567 0 35 0C24.2414 0 14.6183 1.3125 8.19972 7.77778C3.08194 12.9306 0 21.3558 0 35C0 48.6442 3.08389 57.0694 8.19972 62.2222C14.6203 68.6875 24.2433 70 35 70C45.7567 70 55.3797 68.6875 61.7983 62.2222C66.9181 57.0694 70 48.6442 70 35C70 21.3558 66.9181 12.9306 61.8003 7.77778Z" fill="#2F4C6C"/>
<path d="M50.9406 26.1562L40.0673 37.0295C38.8549 38.2388 37.2124 38.918 35.5 38.918C33.7876 38.918 32.1451 38.2388 30.9327 37.0295L20.0594 26.1562C20.0413 26.3603 20 26.545 20 26.7478V42.2478C20.0021 43.9601 20.6831 45.6016 21.8939 46.8123C23.1046 48.023 24.7461 48.7041 26.4583 48.7062H44.5417C46.2539 48.7041 47.8954 48.023 49.1061 46.8123C50.3169 45.6016 50.9979 43.9601 51 42.2478V26.7478C51 26.545 50.9587 26.3603 50.9406 26.1562Z" fill="white"/>
<path d="M38.2409 35.2105L50.0389 23.4111C49.4674 22.4634 48.6613 21.679 47.6984 21.1335C46.7355 20.588 45.6483 20.2999 44.5416 20.2969H26.4583C25.3516 20.2999 24.2644 20.588 23.3015 21.1335C22.3386 21.679 21.5325 22.4634 20.9609 23.4111L32.759 35.2105C33.487 35.9355 34.4725 36.3426 35.4999 36.3426C36.5273 36.3426 37.5129 35.9355 38.2409 35.2105Z" fill="white"/>
</g>
<defs>
<clipPath id="clip0_2339_2813">
<rect width="70" height="70" fill="white"/>
</clipPath>
</defs>
</svg>
