<svg width="24" height="24" viewBox="0 0 24 24" fill="none" xmlns="http://www.w3.org/2000/svg">
<g clip-path="url(#clip0_2159_2798)">
<path d="M18.9582 2.65329C17.7371 1.63716 16.3188 0.884964 14.7926 0.444084C13.2665 0.00320462 11.6656 -0.116797 10.0907 0.0916417C7.17737 0.470124 4.51725 1.94317 2.6505 4.21168C0.783747 6.48019 -0.149697 9.37411 0.0397 12.3058C0.229097 15.2376 1.52714 17.9873 3.67025 19.9968C5.81337 22.0063 8.64091 23.1248 11.5788 23.1253H18.3077C19.5852 23.1237 20.81 22.6156 21.7133 21.7122C22.6167 20.8088 23.1249 19.5841 23.1264 18.3065V10.8943V10.8336C23.0244 9.2583 22.6021 7.72035 21.8855 6.31382C21.1688 4.90728 20.1727 3.66172 18.9582 2.65329ZM7.70641 6.74152H11.5614C11.817 6.74152 12.0621 6.84305 12.2429 7.02379C12.4236 7.20453 12.5252 7.44966 12.5252 7.70527C12.5252 7.96087 12.4236 8.206 12.2429 8.38674C12.0621 8.56748 11.817 8.66902 11.5614 8.66902H7.70641C7.4508 8.66902 7.20567 8.56748 7.02493 8.38674C6.84419 8.206 6.74266 7.96087 6.74266 7.70527C6.74266 7.44966 6.84419 7.20453 7.02493 7.02379C7.20567 6.84305 7.4508 6.74152 7.70641 6.74152ZM15.4164 16.379H7.70641C7.4508 16.379 7.20567 16.2775 7.02493 16.0967C6.84419 15.916 6.74266 15.6709 6.74266 15.4153C6.74266 15.1597 6.84419 14.9145 7.02493 14.7338C7.20567 14.5531 7.4508 14.4515 7.70641 14.4515H15.4164C15.672 14.4515 15.9171 14.5531 16.0979 14.7338C16.2786 14.9145 16.3802 15.1597 16.3802 15.4153C16.3802 15.6709 16.2786 15.916 16.0979 16.0967C15.9171 16.2775 15.672 16.379 15.4164 16.379ZM15.4164 12.524H7.70641C7.4508 12.524 7.20567 12.4225 7.02493 12.2417C6.84419 12.061 6.74266 11.8159 6.74266 11.5603C6.74266 11.3047 6.84419 11.0595 7.02493 10.8788C7.20567 10.6981 7.4508 10.5965 7.70641 10.5965H15.4164C15.672 10.5965 15.9171 10.6981 16.0979 10.8788C16.2786 11.0595 16.3802 11.3047 16.3802 11.5603C16.3802 11.8159 16.2786 12.061 16.0979 12.2417C15.9171 12.4225 15.672 12.524 15.4164 12.524Z" fill="#7D7D7D"/>
</g>
<defs>
<clipPath id="clip0_2159_2798">
<rect width="23.13" height="23.13" fill="white"/>
</clipPath>
</defs>
</svg>
