<svg width="397" height="57" viewBox="0 0 397 57" fill="none" xmlns="http://www.w3.org/2000/svg">
<path d="M0 10.5625H397" stroke="white" stroke-width="0.614191"/>
<path d="M27.2986 35.2906V42.4375H25.812V35.2906H27.2986ZM30.9323 42.5422C30.3809 42.5422 29.9063 42.4305 29.5085 42.2072C29.113 41.9815 28.8082 41.6628 28.5942 41.251C28.3801 40.8369 28.2731 40.3472 28.2731 39.7818C28.2731 39.2304 28.3801 38.7465 28.5942 38.3301C28.8082 37.9137 29.1095 37.5891 29.498 37.3565C29.8889 37.1238 30.3472 37.0075 30.873 37.0075C31.2266 37.0075 31.5558 37.0645 31.8606 37.1785C32.1677 37.2902 32.4352 37.4588 32.6632 37.6845C32.8935 37.9102 33.0727 38.194 33.2006 38.536C33.3286 38.8757 33.3925 39.2735 33.3925 39.7295V40.1378H28.8664V39.2165H31.9932C31.9932 39.0025 31.9466 38.8128 31.8536 38.6477C31.7605 38.4825 31.6314 38.3534 31.4662 38.2603C31.3034 38.1649 31.1138 38.1172 30.8974 38.1172C30.6717 38.1172 30.4717 38.1696 30.2972 38.2743C30.125 38.3766 29.9901 38.5151 29.8924 38.6895C29.7946 38.8617 29.7446 39.0536 29.7423 39.2653V40.1413C29.7423 40.4065 29.7912 40.6356 29.8889 40.8287C29.9889 41.0218 30.1297 41.1707 30.3111 41.2754C30.4926 41.3801 30.7078 41.4325 30.9567 41.4325C31.1219 41.4325 31.2731 41.4092 31.4104 41.3627C31.5476 41.3161 31.6651 41.2463 31.7628 41.1533C31.8606 41.0602 31.935 40.9462 31.9862 40.8113L33.3611 40.902C33.2913 41.2324 33.1483 41.5209 32.9319 41.7675C32.7179 42.0118 32.441 42.2025 32.1014 42.3398C31.764 42.4747 31.3743 42.5422 30.9323 42.5422ZM37.2138 37.0773V38.194H33.9858V37.0773H37.2138ZM34.7186 35.7931H36.2053V40.7904C36.2053 40.9276 36.2262 41.0346 36.2681 41.1114C36.31 41.1859 36.3681 41.2382 36.4426 41.2684C36.5193 41.2987 36.6077 41.3138 36.7078 41.3138C36.7776 41.3138 36.8474 41.308 36.9172 41.2964C36.987 41.2824 37.0405 41.2719 37.0777 41.265L37.3115 42.3712C37.2371 42.3945 37.1324 42.4212 36.9974 42.4515C36.8625 42.484 36.6985 42.5038 36.5054 42.5108C36.1471 42.5247 35.833 42.4771 35.5632 42.3677C35.2956 42.2584 35.0874 42.0885 34.9385 41.8582C34.7896 41.6279 34.7163 41.3371 34.7186 40.9858V35.7931ZM42.5749 38.6058L41.2139 38.6895C41.1906 38.5732 41.1406 38.4685 41.0638 38.3755C40.987 38.2801 40.8858 38.2045 40.7602 38.1486C40.6369 38.0905 40.4892 38.0614 40.317 38.0614C40.0867 38.0614 39.8924 38.1102 39.7342 38.208C39.576 38.3033 39.4969 38.4313 39.4969 38.5918C39.4969 38.7198 39.5481 38.828 39.6505 38.9164C39.7529 39.0048 39.9285 39.0757 40.1774 39.1292L41.1476 39.3247C41.6687 39.4317 42.0572 39.6038 42.3131 39.8411C42.5691 40.0784 42.697 40.3902 42.697 40.7764C42.697 41.1277 42.5935 41.436 42.3864 41.7012C42.1817 41.9664 41.9002 42.1734 41.5419 42.3223C41.186 42.4689 40.7753 42.5422 40.31 42.5422C39.6005 42.5422 39.0351 42.3945 38.614 42.099C38.1953 41.8012 37.9498 41.3964 37.8777 40.8846L39.3399 40.8078C39.3841 41.0242 39.4911 41.1893 39.661 41.3033C39.8308 41.415 40.0483 41.4708 40.3135 41.4708C40.5741 41.4708 40.7835 41.4208 40.9417 41.3208C41.1022 41.2184 41.1836 41.087 41.186 40.9265C41.1836 40.7915 41.1266 40.681 41.015 40.5949C40.9033 40.5065 40.7311 40.4391 40.4985 40.3925L39.5702 40.2076C39.0468 40.1029 38.6571 39.9214 38.4012 39.6632C38.1476 39.4049 38.0208 39.0757 38.0208 38.6756C38.0208 38.3313 38.1138 38.0346 38.3 37.7857C38.4884 37.5368 38.7525 37.3448 39.0921 37.2099C39.4341 37.075 39.8343 37.0075 40.2926 37.0075C40.9696 37.0075 41.5024 37.1506 41.8909 37.4367C42.2817 37.7229 42.5097 38.1126 42.5749 38.6058ZM46.4842 37.0773V38.194H43.2562V37.0773H46.4842ZM43.9891 35.7931H45.4757V40.7904C45.4757 40.9276 45.4966 41.0346 45.5385 41.1114C45.5804 41.1859 45.6386 41.2382 45.713 41.2684C45.7898 41.2987 45.8782 41.3138 45.9782 41.3138C46.048 41.3138 46.1178 41.308 46.1876 41.2964C46.2574 41.2824 46.3109 41.2719 46.3481 41.265L46.5819 42.3712C46.5075 42.3945 46.4028 42.4212 46.2679 42.4515C46.1329 42.484 45.9689 42.5038 45.7758 42.5108C45.4175 42.5247 45.1035 42.4771 44.8336 42.3677C44.566 42.2584 44.3578 42.0885 44.2089 41.8582C44.06 41.6279 43.9868 41.3371 43.9891 40.9858V35.7931ZM48.9811 42.5387C48.6391 42.5387 48.3344 42.4794 48.0668 42.3607C47.7993 42.2397 47.5876 42.0618 47.4317 41.8268C47.2781 41.5895 47.2014 41.294 47.2014 40.9404C47.2014 40.6426 47.256 40.3925 47.3654 40.1901C47.4747 39.9877 47.6236 39.8249 47.8121 39.7016C48.0005 39.5783 48.2145 39.4852 48.4542 39.4224C48.6961 39.3596 48.9497 39.3154 49.2149 39.2898C49.5267 39.2572 49.7779 39.227 49.9687 39.199C50.1595 39.1688 50.2979 39.1246 50.384 39.0664C50.4701 39.0083 50.5131 38.9222 50.5131 38.8082V38.7873C50.5131 38.5662 50.4433 38.3952 50.3037 38.2743C50.1665 38.1533 49.971 38.0928 49.7175 38.0928C49.4499 38.0928 49.237 38.1521 49.0788 38.2708C48.9206 38.3871 48.8159 38.5337 48.7648 38.7105L47.3898 38.5988C47.4596 38.2731 47.5969 37.9916 47.8016 37.7543C48.0063 37.5147 48.2704 37.3309 48.5938 37.2029C48.9195 37.0726 49.2964 37.0075 49.7244 37.0075C50.0222 37.0075 50.3072 37.0424 50.5794 37.1122C50.8539 37.182 51.0971 37.2902 51.3088 37.4367C51.5228 37.5833 51.6915 37.7717 51.8148 38.0021C51.9381 38.2301 51.9997 38.5034 51.9997 38.8221V42.4375H50.5899V41.6942H50.548C50.4619 41.8617 50.3468 42.0094 50.2025 42.1374C50.0583 42.263 49.885 42.3619 49.6826 42.434C49.4802 42.5038 49.2463 42.5387 48.9811 42.5387ZM49.4069 41.5127C49.6256 41.5127 49.8187 41.4697 49.9862 41.3836C50.1537 41.2952 50.2851 41.1765 50.3805 41.0277C50.4759 40.8788 50.5236 40.7101 50.5236 40.5216V39.9528C50.4771 39.9831 50.4131 40.011 50.3316 40.0366C50.2525 40.0598 50.163 40.0819 50.0629 40.1029C49.9629 40.1215 49.8629 40.1389 49.7628 40.1552C49.6628 40.1692 49.5721 40.182 49.4906 40.1936C49.3161 40.2192 49.1638 40.2599 49.0335 40.3158C48.9032 40.3716 48.802 40.4472 48.7299 40.5426C48.6577 40.6356 48.6217 40.752 48.6217 40.8916C48.6217 41.094 48.695 41.2487 48.8415 41.3557C48.9904 41.4604 49.1789 41.5127 49.4069 41.5127ZM54.6397 35.2906V42.4375H53.1531V35.2906H54.6397ZM57.1776 40.895L57.1811 39.1118H57.3975L59.1144 37.0773H60.8209L58.5142 39.7714H58.1617L57.1776 40.895ZM55.8306 42.4375V35.2906H57.3172V42.4375H55.8306ZM59.1807 42.4375L57.6034 40.1029L58.5944 39.0525L60.9221 42.4375H59.1807ZM66.2299 44.4964C65.4878 44.4964 64.8271 44.3952 64.2478 44.1928C63.6685 43.9928 63.1788 43.6985 62.7786 43.3099C62.3784 42.9237 62.0737 42.4515 61.8643 41.8931C61.6549 41.3347 61.5502 40.6996 61.5502 39.9877C61.5502 39.2851 61.6549 38.6477 61.8643 38.0753C62.076 37.503 62.3843 37.0121 62.7891 36.6027C63.1939 36.1909 63.6883 35.8745 64.2722 35.6535C64.8585 35.4325 65.5262 35.322 66.2753 35.322C66.9686 35.322 67.5874 35.4232 68.1318 35.6256C68.6786 35.828 69.1415 36.1165 69.5207 36.491C69.9023 36.8633 70.1919 37.3064 70.3897 37.8206C70.5898 38.3324 70.6886 38.8989 70.6863 39.5201C70.6886 39.9482 70.6514 40.3413 70.5746 40.6996C70.4979 41.0579 70.3769 41.3708 70.2117 41.6384C70.0489 41.9036 69.8348 42.1141 69.5696 42.27C69.3044 42.4235 68.9833 42.5108 68.6064 42.5317C68.3366 42.5527 68.1179 42.5329 67.9504 42.4724C67.7829 42.4119 67.6549 42.3223 67.5665 42.2037C67.4804 42.0827 67.4246 41.942 67.399 41.7814H67.3571C67.3013 41.921 67.1919 42.0478 67.0291 42.1618C66.8662 42.2735 66.6673 42.3607 66.4323 42.4235C66.1997 42.484 65.9519 42.5061 65.689 42.4898C65.4145 42.4736 65.1539 42.4096 64.9073 42.2979C64.6631 42.1862 64.4455 42.0245 64.2548 41.8128C64.0663 41.6011 63.9174 41.3394 63.8081 41.0277C63.7011 40.7159 63.6464 40.3553 63.6441 39.9458C63.6464 39.541 63.7034 39.1886 63.8151 38.8885C63.929 38.5883 64.0791 38.3359 64.2652 38.1312C64.4537 37.9265 64.6631 37.7659 64.8934 37.6496C65.1237 37.5333 65.3552 37.4588 65.5878 37.4263C65.8507 37.3867 66.0997 37.3867 66.3346 37.4263C66.5696 37.4658 66.7674 37.5298 66.9279 37.6182C67.0907 37.7066 67.1919 37.802 67.2315 37.9044H67.2803V37.5135H68.3726V40.9195C68.375 41.08 68.411 41.2045 68.4808 41.2929C68.5506 41.3813 68.6448 41.4255 68.7635 41.4255C68.924 41.4255 69.0578 41.3545 69.1648 41.2126C69.2741 41.0707 69.3556 40.8532 69.4091 40.56C69.4649 40.2669 69.4928 39.8935 69.4928 39.4398C69.4928 39.0025 69.4347 38.6186 69.3183 38.2882C69.2043 37.9555 69.0438 37.6729 68.8368 37.4402C68.632 37.2052 68.3936 37.0145 68.1214 36.8679C67.8492 36.7213 67.5537 36.6143 67.235 36.5469C66.9186 36.4794 66.5929 36.4457 66.2579 36.4457C65.6786 36.4457 65.1726 36.5341 64.7398 36.7109C64.3071 36.8854 63.9465 37.1308 63.658 37.4472C63.3695 37.7636 63.1532 38.1347 63.0089 38.5604C62.867 38.9838 62.7949 39.4456 62.7926 39.9458C62.7949 40.4972 62.8717 40.9858 63.0229 41.4115C63.1764 41.8349 63.4021 42.1909 63.6999 42.4794C63.9977 42.7679 64.3653 42.9865 64.8026 43.1354C65.24 43.2843 65.7425 43.3588 66.3102 43.3588C66.5777 43.3588 66.8395 43.339 67.0954 43.2995C67.3513 43.2622 67.5828 43.2157 67.7898 43.1599C67.9969 43.1064 68.1632 43.054 68.2889 43.0028L68.6344 44.0149C68.4878 44.0986 68.2889 44.1765 68.0376 44.2487C67.7887 44.3231 67.5072 44.3824 67.1931 44.4266C66.8814 44.4732 66.5603 44.4964 66.2299 44.4964ZM66.0694 41.3417C66.3532 41.3417 66.5789 41.2871 66.7464 41.1777C66.9162 41.0684 67.0372 40.9067 67.1093 40.6926C67.1838 40.4763 67.2187 40.2099 67.214 39.8935C67.2117 39.6143 67.1757 39.3782 67.1059 39.1851C67.0384 38.9897 66.9209 38.8419 66.7534 38.7419C66.5882 38.6395 66.3579 38.5883 66.0624 38.5883C65.8042 38.5883 65.5843 38.643 65.4029 38.7524C65.2237 38.8617 65.0865 39.0152 64.9911 39.213C64.898 39.4084 64.8503 39.6387 64.848 39.904C64.8503 40.1506 64.8899 40.3844 64.9667 40.6054C65.0434 40.8241 65.1702 41.0021 65.347 41.1393C65.5239 41.2743 65.7646 41.3417 66.0694 41.3417ZM74.5259 37.0773V38.194H71.2979V37.0773H74.5259ZM72.0307 35.7931H73.5173V40.7904C73.5173 40.9276 73.5383 41.0346 73.5802 41.1114C73.622 41.1859 73.6802 41.2382 73.7546 41.2684C73.8314 41.2987 73.9198 41.3138 74.0199 41.3138C74.0897 41.3138 74.1595 41.308 74.2292 41.2964C74.299 41.2824 74.3526 41.2719 74.3898 41.265L74.6236 42.3712C74.5491 42.3945 74.4444 42.4212 74.3095 42.4515C74.1746 42.484 74.0106 42.5038 73.8175 42.5108C73.4592 42.5247 73.1451 42.4771 72.8752 42.3677C72.6077 42.2584 72.3995 42.0885 72.2506 41.8582C72.1017 41.6279 72.0284 41.3371 72.0307 40.9858V35.7931ZM77.0961 39.3386V42.4375H75.6094V35.2906H77.0542V38.023H77.117C77.238 37.7066 77.4334 37.4588 77.7033 37.2797C77.9731 37.0982 78.3116 37.0075 78.7188 37.0075C79.091 37.0075 79.4156 37.0889 79.6924 37.2518C79.9716 37.4123 80.1879 37.6438 80.3415 37.9462C80.4974 38.2463 80.5741 38.6058 80.5718 39.0246V42.4375H79.0852V39.2898C79.0875 38.9594 79.0038 38.7023 78.8339 38.5185C78.6664 38.3348 78.4315 38.2429 78.129 38.2429C77.9266 38.2429 77.7475 38.2859 77.5916 38.372C77.438 38.4581 77.3171 38.5837 77.2287 38.7489C77.1426 38.9117 77.0984 39.1083 77.0961 39.3386ZM84.1845 42.5422C83.6332 42.5422 83.1586 42.4305 82.7607 42.2072C82.3652 41.9815 82.0605 41.6628 81.8464 41.251C81.6324 40.8369 81.5254 40.3472 81.5254 39.7818C81.5254 39.2304 81.6324 38.7465 81.8464 38.3301C82.0605 37.9137 82.3618 37.5891 82.7503 37.3565C83.1411 37.1238 83.5994 37.0075 84.1252 37.0075C84.4788 37.0075 84.808 37.0645 85.1128 37.1785C85.4199 37.2902 85.6875 37.4588 85.9154 37.6845C86.1458 37.9102 86.3249 38.194 86.4529 38.536C86.5808 38.8757 86.6448 39.2735 86.6448 39.7295V40.1378H82.1186V39.2165H85.2454C85.2454 39.0025 85.1989 38.8128 85.1058 38.6477C85.0128 38.4825 84.8837 38.3534 84.7185 38.2603C84.5556 38.1649 84.366 38.1172 84.1497 38.1172C83.924 38.1172 83.7239 38.1696 83.5494 38.2743C83.3773 38.3766 83.2423 38.5151 83.1446 38.6895C83.0469 38.8617 82.9969 39.0536 82.9946 39.2653V40.1413C82.9946 40.4065 83.0434 40.6356 83.1411 40.8287C83.2412 41.0218 83.3819 41.1707 83.5634 41.2754C83.7448 41.3801 83.96 41.4325 84.209 41.4325C84.3742 41.4325 84.5254 41.4092 84.6626 41.3627C84.7999 41.3161 84.9174 41.2463 85.0151 41.1533C85.1128 41.0602 85.1873 40.9462 85.2384 40.8113L86.6134 40.902C86.5436 41.2324 86.4005 41.5209 86.1842 41.7675C85.9701 42.0118 85.6933 42.2025 85.3536 42.3398C85.0163 42.4747 84.6266 42.5422 84.1845 42.5422ZM90.0368 42.5422C89.4878 42.5422 89.0155 42.4259 88.62 42.1932C88.2268 41.9582 87.9244 41.6325 87.7127 41.2161C87.5033 40.7997 87.3986 40.3204 87.3986 39.7783C87.3986 39.2293 87.5044 38.7477 87.7161 38.3336C87.9302 37.9171 88.2338 37.5926 88.627 37.36C89.0201 37.125 89.4878 37.0075 90.0298 37.0075C90.4975 37.0075 90.9069 37.0924 91.2582 37.2622C91.6095 37.4321 91.8875 37.6705 92.0923 37.9776C92.297 38.2847 92.4098 38.6453 92.4308 39.0595H91.0279C90.9883 38.7919 90.8836 38.5767 90.7138 38.4139C90.5463 38.2487 90.3265 38.1661 90.0543 38.1661C89.8239 38.1661 89.6227 38.2289 89.4505 38.3545C89.2807 38.4778 89.1481 38.6581 89.0527 38.8954C88.9573 39.1327 88.9096 39.4201 88.9096 39.7574C88.9096 40.0994 88.9562 40.3902 89.0492 40.6298C89.1446 40.8695 89.2784 41.0521 89.4505 41.1777C89.6227 41.3033 89.8239 41.3662 90.0543 41.3662C90.2241 41.3662 90.3765 41.3313 90.5114 41.2615C90.6487 41.1917 90.7615 41.0905 90.8499 40.9579C90.9406 40.8229 91 40.6612 91.0279 40.4728H92.4308C92.4075 40.8822 92.2958 41.2429 92.0957 41.5546C91.898 41.864 91.6246 42.106 91.2757 42.2805C90.9267 42.4549 90.5137 42.5422 90.0368 42.5422ZM95.8044 42.5422C95.2624 42.5422 94.7936 42.427 94.3981 42.1967C94.0049 41.9641 93.7013 41.6407 93.4873 41.2266C93.2732 40.8101 93.1662 40.3274 93.1662 39.7783C93.1662 39.2246 93.2732 38.7407 93.4873 38.3266C93.7013 37.9102 94.0049 37.5868 94.3981 37.3565C94.7936 37.1238 95.2624 37.0075 95.8044 37.0075C96.3465 37.0075 96.8141 37.1238 97.2073 37.3565C97.6028 37.5868 97.9076 37.9102 98.1216 38.3266C98.3357 38.7407 98.4427 39.2246 98.4427 39.7783C98.4427 40.3274 98.3357 40.8101 98.1216 41.2266C97.9076 41.6407 97.6028 41.9641 97.2073 42.1967C96.8141 42.427 96.3465 42.5422 95.8044 42.5422ZM95.8114 41.3906C96.058 41.3906 96.2639 41.3208 96.4291 41.1812C96.5943 41.0393 96.7187 40.8462 96.8025 40.6019C96.8886 40.3576 96.9316 40.0796 96.9316 39.7679C96.9316 39.4561 96.8886 39.1781 96.8025 38.9338C96.7187 38.6895 96.5943 38.4964 96.4291 38.3545C96.2639 38.2126 96.058 38.1417 95.8114 38.1417C95.5625 38.1417 95.3531 38.2126 95.1833 38.3545C95.0158 38.4964 94.889 38.6895 94.8029 38.9338C94.7191 39.1781 94.6773 39.4561 94.6773 39.7679C94.6773 40.0796 94.7191 40.3576 94.8029 40.6019C94.889 40.8462 95.0158 41.0393 95.1833 41.1812C95.3531 41.3208 95.5625 41.3906 95.8114 41.3906ZM101.831 42.5422C101.289 42.5422 100.82 42.427 100.425 42.1967C100.032 41.9641 99.7281 41.6407 99.514 41.2266C99.3 40.8101 99.193 40.3274 99.193 39.7783C99.193 39.2246 99.3 38.7407 99.514 38.3266C99.7281 37.9102 100.032 37.5868 100.425 37.3565C100.82 37.1238 101.289 37.0075 101.831 37.0075C102.373 37.0075 102.841 37.1238 103.234 37.3565C103.63 37.5868 103.934 37.9102 104.148 38.3266C104.362 38.7407 104.469 39.2246 104.469 39.7783C104.469 40.3274 104.362 40.8101 104.148 41.2266C103.934 41.6407 103.63 41.9641 103.234 42.1967C102.841 42.427 102.373 42.5422 101.831 42.5422ZM101.838 41.3906C102.085 41.3906 102.291 41.3208 102.456 41.1812C102.621 41.0393 102.745 40.8462 102.829 40.6019C102.915 40.3576 102.958 40.0796 102.958 39.7679C102.958 39.4561 102.915 39.1781 102.829 38.9338C102.745 38.6895 102.621 38.4964 102.456 38.3545C102.291 38.2126 102.085 38.1417 101.838 38.1417C101.589 38.1417 101.38 38.2126 101.21 38.3545C101.043 38.4964 100.916 38.6895 100.83 38.9338C100.746 39.1781 100.704 39.4561 100.704 39.7679C100.704 40.0796 100.746 40.3576 100.83 40.6019C100.916 40.8462 101.043 41.0393 101.21 41.1812C101.38 41.3208 101.589 41.3906 101.838 41.3906ZM105.436 42.4375V37.0773H106.877V38.0125H106.933C107.031 37.6798 107.195 37.4286 107.425 37.2588C107.656 37.0866 107.921 37.0005 108.221 37.0005C108.295 37.0005 108.376 37.0052 108.462 37.0145C108.548 37.0238 108.623 37.0366 108.688 37.0529V38.372C108.619 38.351 108.522 38.3324 108.399 38.3161C108.276 38.2999 108.163 38.2917 108.06 38.2917C107.842 38.2917 107.646 38.3394 107.474 38.4348C107.304 38.5279 107.169 38.6581 107.069 38.8256C106.972 38.9931 106.923 39.1862 106.923 39.4049V42.4375H105.436ZM111.183 42.5247C110.776 42.5247 110.407 42.4201 110.077 42.2107C109.748 41.999 109.488 41.6884 109.295 41.2789C109.104 40.8671 109.009 40.3623 109.009 39.7644C109.009 39.1502 109.108 38.6395 109.305 38.2324C109.503 37.8229 109.766 37.517 110.094 37.3146C110.424 37.1099 110.786 37.0075 111.179 37.0075C111.479 37.0075 111.729 37.0587 111.93 37.161C112.132 37.2611 112.295 37.3867 112.418 37.5379C112.544 37.6868 112.639 37.8334 112.704 37.9776H112.75V35.2906H114.233V42.4375H112.767V41.579H112.704C112.634 41.7279 112.536 41.8757 112.408 42.0222C112.282 42.1665 112.118 42.2863 111.916 42.3817C111.716 42.4771 111.471 42.5247 111.183 42.5247ZM111.654 41.3417C111.894 41.3417 112.096 41.2766 112.261 41.1463C112.429 41.0137 112.557 40.8287 112.645 40.5914C112.736 40.3541 112.781 40.0761 112.781 39.7574C112.781 39.4387 112.737 39.1618 112.648 38.9268C112.56 38.6919 112.432 38.5104 112.265 38.3824C112.097 38.2545 111.894 38.1905 111.654 38.1905C111.41 38.1905 111.204 38.2568 111.036 38.3894C110.869 38.522 110.742 38.7058 110.656 38.9408C110.57 39.1758 110.527 39.448 110.527 39.7574C110.527 40.0691 110.57 40.3448 110.656 40.5845C110.744 40.8218 110.871 41.0079 111.036 41.1428C111.204 41.2754 111.41 41.3417 111.654 41.3417ZM115.455 42.4375V37.0773H116.942V42.4375H115.455ZM116.202 36.3863C115.981 36.3863 115.791 36.313 115.633 36.1665C115.477 36.0176 115.399 35.8396 115.399 35.6325C115.399 35.4278 115.477 35.2522 115.633 35.1056C115.791 34.9567 115.981 34.8823 116.202 34.8823C116.423 34.8823 116.611 34.9567 116.767 35.1056C116.925 35.2522 117.004 35.4278 117.004 35.6325C117.004 35.8396 116.925 36.0176 116.767 36.1665C116.611 36.313 116.423 36.3863 116.202 36.3863ZM119.619 39.3386V42.4375H118.133V37.0773H119.549V38.023H119.612C119.731 37.7113 119.93 37.4646 120.209 37.2832C120.488 37.0994 120.827 37.0075 121.224 37.0075C121.597 37.0075 121.921 37.0889 122.198 37.2518C122.475 37.4146 122.69 37.6473 122.844 37.9497C122.997 38.2498 123.074 38.6081 123.074 39.0246V42.4375H121.587V39.2898C121.59 38.9617 121.506 38.7058 121.336 38.522C121.166 38.3359 120.932 38.2429 120.635 38.2429C120.435 38.2429 120.258 38.2859 120.104 38.372C119.953 38.4581 119.834 38.5837 119.748 38.7489C119.665 38.9117 119.621 39.1083 119.619 39.3386ZM125.774 42.5387C125.432 42.5387 125.127 42.4794 124.86 42.3607C124.592 42.2397 124.381 42.0618 124.225 41.8268C124.071 41.5895 123.994 41.294 123.994 40.9404C123.994 40.6426 124.049 40.3925 124.158 40.1901C124.268 39.9877 124.417 39.8249 124.605 39.7016C124.794 39.5783 125.008 39.4852 125.247 39.4224C125.489 39.3596 125.743 39.3154 126.008 39.2898C126.32 39.2572 126.571 39.227 126.762 39.199C126.953 39.1688 127.091 39.1246 127.177 39.0664C127.263 39.0083 127.306 38.9222 127.306 38.8082V38.7873C127.306 38.5662 127.236 38.3952 127.097 38.2743C126.959 38.1533 126.764 38.0928 126.51 38.0928C126.243 38.0928 126.03 38.1521 125.872 38.2708C125.714 38.3871 125.609 38.5337 125.558 38.7105L124.183 38.5988C124.253 38.2731 124.39 37.9916 124.595 37.7543C124.799 37.5147 125.063 37.3309 125.387 37.2029C125.713 37.0726 126.089 37.0075 126.517 37.0075C126.815 37.0075 127.1 37.0424 127.372 37.1122C127.647 37.182 127.89 37.2902 128.102 37.4367C128.316 37.5833 128.485 37.7717 128.608 38.0021C128.731 38.2301 128.793 38.5034 128.793 38.8221V42.4375H127.383V41.6942H127.341C127.255 41.8617 127.14 42.0094 126.996 42.1374C126.851 42.263 126.678 42.3619 126.476 42.434C126.273 42.5038 126.039 42.5387 125.774 42.5387ZM126.2 41.5127C126.419 41.5127 126.612 41.4697 126.779 41.3836C126.947 41.2952 127.078 41.1765 127.174 41.0277C127.269 40.8788 127.317 40.7101 127.317 40.5216V39.9528C127.27 39.9831 127.206 40.011 127.125 40.0366C127.046 40.0598 126.956 40.0819 126.856 40.1029C126.756 40.1215 126.656 40.1389 126.556 40.1552C126.456 40.1692 126.365 40.182 126.284 40.1936C126.109 40.2192 125.957 40.2599 125.827 40.3158C125.696 40.3716 125.595 40.4472 125.523 40.5426C125.451 40.6356 125.415 40.752 125.415 40.8916C125.415 41.094 125.488 41.2487 125.635 41.3557C125.783 41.4604 125.972 41.5127 126.2 41.5127ZM132.797 37.0773V38.194H129.569V37.0773H132.797ZM130.302 35.7931H131.789V40.7904C131.789 40.9276 131.81 41.0346 131.851 41.1114C131.893 41.1859 131.952 41.2382 132.026 41.2684C132.103 41.2987 132.191 41.3138 132.291 41.3138C132.361 41.3138 132.431 41.308 132.501 41.2964C132.57 41.2824 132.624 41.2719 132.661 41.265L132.895 42.3712C132.82 42.3945 132.716 42.4212 132.581 42.4515C132.446 42.484 132.282 42.5038 132.089 42.5108C131.731 42.5247 131.416 42.4771 131.147 42.3677C130.879 42.2584 130.671 42.0885 130.522 41.8582C130.373 41.6279 130.3 41.3371 130.302 40.9858V35.7931ZM136.151 42.5422C135.599 42.5422 135.125 42.4305 134.727 42.2072C134.332 41.9815 134.027 41.6628 133.813 41.251C133.599 40.8369 133.492 40.3472 133.492 39.7818C133.492 39.2304 133.599 38.7465 133.813 38.3301C134.027 37.9137 134.328 37.5891 134.717 37.3565C135.107 37.1238 135.566 37.0075 136.092 37.0075C136.445 37.0075 136.774 37.0645 137.079 37.1785C137.386 37.2902 137.654 37.4588 137.882 37.6845C138.112 37.9102 138.291 38.194 138.419 38.536C138.547 38.8757 138.611 39.2735 138.611 39.7295V40.1378H134.085V39.2165H137.212C137.212 39.0025 137.165 38.8128 137.072 38.6477C136.979 38.4825 136.85 38.3534 136.685 38.2603C136.522 38.1649 136.332 38.1172 136.116 38.1172C135.89 38.1172 135.69 38.1696 135.516 38.2743C135.344 38.3766 135.209 38.5151 135.111 38.6895C135.013 38.8617 134.963 39.0536 134.961 39.2653V40.1413C134.961 40.4065 135.01 40.6356 135.107 40.8287C135.207 41.0218 135.348 41.1707 135.53 41.2754C135.711 41.3801 135.926 41.4325 136.175 41.4325C136.34 41.4325 136.492 41.4092 136.629 41.3627C136.766 41.3161 136.884 41.2463 136.981 41.1533C137.079 41.0602 137.154 40.9462 137.205 40.8113L138.58 40.902C138.51 41.2324 138.367 41.5209 138.15 41.7675C137.936 42.0118 137.66 42.2025 137.32 42.3398C136.983 42.4747 136.593 42.5422 136.151 42.5422ZM141.556 42.5247C141.149 42.5247 140.781 42.4201 140.45 42.2107C140.122 41.999 139.862 41.6884 139.668 41.2789C139.478 40.8671 139.382 40.3623 139.382 39.7644C139.382 39.1502 139.481 38.6395 139.679 38.2324C139.877 37.8229 140.14 37.517 140.468 37.3146C140.798 37.1099 141.16 37.0075 141.553 37.0075C141.853 37.0075 142.103 37.0587 142.303 37.161C142.506 37.2611 142.668 37.3867 142.792 37.5379C142.917 37.6868 143.013 37.8334 143.078 37.9776H143.123V35.2906H144.606V42.4375H143.141V41.579H143.078C143.008 41.7279 142.909 41.8757 142.781 42.0222C142.656 42.1665 142.492 42.2863 142.289 42.3817C142.089 42.4771 141.845 42.5247 141.556 42.5247ZM142.028 41.3417C142.267 41.3417 142.47 41.2766 142.635 41.1463C142.802 41.0137 142.93 40.8287 143.019 40.5914C143.109 40.3541 143.155 40.0761 143.155 39.7574C143.155 39.4387 143.11 39.1618 143.022 38.9268C142.934 38.6919 142.806 38.5104 142.638 38.3824C142.471 38.2545 142.267 38.1905 142.028 38.1905C141.783 38.1905 141.577 38.2568 141.41 38.3894C141.242 38.522 141.116 38.7058 141.029 38.9408C140.943 39.1758 140.9 39.448 140.9 39.7574C140.9 40.0691 140.943 40.3448 141.029 40.5845C141.118 40.8218 141.245 41.0079 141.41 41.1428C141.577 41.2754 141.783 41.3417 142.028 41.3417ZM147.315 35.2906V42.4375H145.829V35.2906H147.315ZM148.506 42.4375V37.0773H149.993V42.4375H148.506ZM149.253 36.3863C149.032 36.3863 148.842 36.313 148.684 36.1665C148.528 36.0176 148.45 35.8396 148.45 35.6325C148.45 35.4278 148.528 35.2522 148.684 35.1056C148.842 34.9567 149.032 34.8823 149.253 34.8823C149.474 34.8823 149.662 34.9567 149.818 35.1056C149.977 35.2522 150.056 35.4278 150.056 35.6325C150.056 35.8396 149.977 36.0176 149.818 36.1665C149.662 36.313 149.474 36.3863 149.253 36.3863ZM156.181 37.0773L154.307 42.4375H152.632L150.758 37.0773H152.328L153.442 40.9125H153.497L154.607 37.0773H156.181ZM156.942 42.4375V37.0773H158.428V42.4375H156.942ZM157.689 36.3863C157.468 36.3863 157.278 36.313 157.12 36.1665C156.964 36.0176 156.886 35.8396 156.886 35.6325C156.886 35.4278 156.964 35.2522 157.12 35.1056C157.278 34.9567 157.468 34.8823 157.689 34.8823C157.91 34.8823 158.098 34.9567 158.254 35.1056C158.412 35.2522 158.491 35.4278 158.491 35.6325C158.491 35.8396 158.412 36.0176 158.254 36.1665C158.098 36.313 157.91 36.3863 157.689 36.3863ZM161.106 39.3386V42.4375H159.619V37.0773H161.036V38.023H161.099C161.217 37.7113 161.416 37.4646 161.696 37.2832C161.975 37.0994 162.313 37.0075 162.711 37.0075C163.083 37.0075 163.408 37.0889 163.685 37.2518C163.962 37.4146 164.177 37.6473 164.33 37.9497C164.484 38.2498 164.561 38.6081 164.561 39.0246V42.4375H163.074V39.2898C163.076 38.9617 162.993 38.7058 162.823 38.522C162.653 38.3359 162.419 38.2429 162.121 38.2429C161.921 38.2429 161.744 38.2859 161.591 38.372C161.44 38.4581 161.321 38.5837 161.235 38.7489C161.151 38.9117 161.108 39.1083 161.106 39.3386ZM168.147 44.5592C167.666 44.5592 167.253 44.4929 166.908 44.3603C166.566 44.2301 166.294 44.0521 166.092 43.8264C165.889 43.6007 165.758 43.3472 165.697 43.0656L167.072 42.8807C167.114 42.9877 167.181 43.0878 167.271 43.1808C167.362 43.2739 167.482 43.3483 167.631 43.4042C167.782 43.4623 167.966 43.4914 168.182 43.4914C168.505 43.4914 168.772 43.4123 168.981 43.2541C169.193 43.0982 169.299 42.8365 169.299 42.4689V41.4883H169.236C169.171 41.6372 169.073 41.7779 168.943 41.9106C168.813 42.0432 168.645 42.1513 168.44 42.2351C168.236 42.3188 167.991 42.3607 167.708 42.3607C167.305 42.3607 166.939 42.2677 166.608 42.0815C166.28 41.8931 166.018 41.6058 165.823 41.2196C165.63 40.8311 165.533 40.3402 165.533 39.7469C165.533 39.1397 165.632 38.6325 165.83 38.2254C166.028 37.8183 166.291 37.5135 166.619 37.3111C166.949 37.1087 167.311 37.0075 167.704 37.0075C168.004 37.0075 168.255 37.0587 168.458 37.161C168.66 37.2611 168.823 37.3867 168.946 37.5379C169.072 37.6868 169.169 37.8334 169.236 37.9776H169.292V37.0773H170.768V42.4898C170.768 42.9458 170.656 43.3274 170.433 43.6345C170.21 43.9416 169.9 44.1719 169.505 44.3254C169.112 44.4813 168.659 44.5592 168.147 44.5592ZM168.179 41.244C168.418 41.244 168.621 41.1847 168.786 41.066C168.953 40.9451 169.081 40.7729 169.17 40.5496C169.26 40.3239 169.306 40.054 169.306 39.7399C169.306 39.4259 169.262 39.1537 169.173 38.9234C169.085 38.6907 168.957 38.5104 168.789 38.3824C168.622 38.2545 168.418 38.1905 168.179 38.1905C167.934 38.1905 167.728 38.2568 167.561 38.3894C167.393 38.5197 167.267 38.7012 167.181 38.9338C167.094 39.1665 167.051 39.4352 167.051 39.7399C167.051 40.0494 167.094 40.3169 167.181 40.5426C167.269 40.7659 167.396 40.9392 167.561 41.0626C167.728 41.1835 167.934 41.244 168.179 41.244ZM172.82 42.5282C172.59 42.5282 172.392 42.4468 172.227 42.284C172.064 42.1188 171.982 41.921 171.982 41.6907C171.982 41.4627 172.064 41.2673 172.227 41.1044C172.392 40.9416 172.59 40.8601 172.82 40.8601C173.043 40.8601 173.239 40.9416 173.406 41.1044C173.574 41.2673 173.657 41.4627 173.657 41.6907C173.657 41.8442 173.618 41.985 173.539 42.113C173.462 42.2386 173.361 42.3398 173.235 42.4166C173.11 42.491 172.971 42.5282 172.82 42.5282ZM177.3 42.5422C176.751 42.5422 176.279 42.4259 175.883 42.1932C175.49 41.9582 175.187 41.6325 174.976 41.2161C174.766 40.7997 174.662 40.3204 174.662 39.7783C174.662 39.2293 174.767 38.7477 174.979 38.3336C175.193 37.9171 175.497 37.5926 175.89 37.36C176.283 37.125 176.751 37.0075 177.293 37.0075C177.761 37.0075 178.17 37.0924 178.521 37.2622C178.873 37.4321 179.151 37.6705 179.355 37.9776C179.56 38.2847 179.673 38.6453 179.694 39.0595H178.291C178.251 38.7919 178.147 38.5767 177.977 38.4139C177.809 38.2487 177.59 38.1661 177.317 38.1661C177.087 38.1661 176.886 38.2289 176.714 38.3545C176.544 38.4778 176.411 38.6581 176.316 38.8954C176.22 39.1327 176.173 39.4201 176.173 39.7574C176.173 40.0994 176.219 40.3902 176.312 40.6298C176.408 40.8695 176.541 41.0521 176.714 41.1777C176.886 41.3033 177.087 41.3662 177.317 41.3662C177.487 41.3662 177.64 41.3313 177.774 41.2615C177.912 41.1917 178.025 41.0905 178.113 40.9579C178.204 40.8229 178.263 40.6612 178.291 40.4728H179.694C179.671 40.8822 179.559 41.2429 179.359 41.5546C179.161 41.864 178.888 42.106 178.539 42.2805C178.19 42.4549 177.777 42.5422 177.3 42.5422ZM183.068 42.5422C182.525 42.5422 182.057 42.427 181.661 42.1967C181.268 41.9641 180.964 41.6407 180.75 41.2266C180.536 40.8101 180.429 40.3274 180.429 39.7783C180.429 39.2246 180.536 38.7407 180.75 38.3266C180.964 37.9102 181.268 37.5868 181.661 37.3565C182.057 37.1238 182.525 37.0075 183.068 37.0075C183.61 37.0075 184.077 37.1238 184.47 37.3565C184.866 37.5868 185.171 37.9102 185.385 38.3266C185.599 38.7407 185.706 39.2246 185.706 39.7783C185.706 40.3274 185.599 40.8101 185.385 41.2266C185.171 41.6407 184.866 41.9641 184.47 42.1967C184.077 42.427 183.61 42.5422 183.068 42.5422ZM183.074 41.3906C183.321 41.3906 183.527 41.3208 183.692 41.1812C183.857 41.0393 183.982 40.8462 184.066 40.6019C184.152 40.3576 184.195 40.0796 184.195 39.7679C184.195 39.4561 184.152 39.1781 184.066 38.9338C183.982 38.6895 183.857 38.4964 183.692 38.3545C183.527 38.2126 183.321 38.1417 183.074 38.1417C182.826 38.1417 182.616 38.2126 182.446 38.3545C182.279 38.4964 182.152 38.6895 182.066 38.9338C181.982 39.1781 181.94 39.4561 181.94 39.7679C181.94 40.0796 181.982 40.3576 182.066 40.6019C182.152 40.8462 182.279 41.0393 182.446 41.1812C182.616 41.3208 182.826 41.3906 183.074 41.3906ZM186.672 42.4375V37.0773H188.089V38.023H188.152C188.264 37.7089 188.45 37.4612 188.71 37.2797C188.971 37.0982 189.283 37.0075 189.646 37.0075C190.013 37.0075 190.326 37.0994 190.584 37.2832C190.843 37.4646 191.015 37.7113 191.101 38.023H191.157C191.266 37.7159 191.464 37.4705 191.75 37.2867C192.038 37.1006 192.379 37.0075 192.772 37.0075C193.273 37.0075 193.679 37.1669 193.99 37.4856C194.304 37.802 194.461 38.251 194.461 38.8326V42.4375H192.978V39.1258C192.978 38.828 192.899 38.6046 192.741 38.4557C192.583 38.3068 192.385 38.2324 192.148 38.2324C191.878 38.2324 191.667 38.3185 191.516 38.4906C191.365 38.6605 191.289 38.885 191.289 39.1641V42.4375H189.848V39.0943C189.848 38.8315 189.772 38.6221 189.621 38.4662C189.472 38.3103 189.276 38.2324 189.031 38.2324C188.866 38.2324 188.717 38.2743 188.585 38.358C188.454 38.4394 188.351 38.5546 188.274 38.7035C188.197 38.8501 188.159 39.0222 188.159 39.22V42.4375H186.672Z" fill="white"/>
<path d="M221.432 42.4375L219.973 37.0773H221.477L222.308 40.6787H222.357L223.222 37.0773H224.698L225.578 40.6577H225.623L226.44 37.0773H227.94L226.485 42.4375H224.911L223.99 39.0664H223.924L223.002 42.4375H221.432ZM229.791 42.4375L228.332 37.0773H229.836L230.667 40.6787H230.715L231.581 37.0773H233.057L233.936 40.6577H233.982L234.798 37.0773H236.299L234.844 42.4375H233.27L232.349 39.0664H232.282L231.361 42.4375H229.791ZM238.149 42.4375L236.691 37.0773H238.195L239.025 40.6787H239.074L239.94 37.0773H241.416L242.295 40.6577H242.341L243.157 37.0773H244.658L243.203 42.4375H241.629L240.707 39.0664H240.641L239.72 42.4375H238.149ZM245.59 42.5282C245.36 42.5282 245.162 42.4468 244.997 42.284C244.834 42.1188 244.753 41.921 244.753 41.6907C244.753 41.4627 244.834 41.2673 244.997 41.1044C245.162 40.9416 245.36 40.8601 245.59 40.8601C245.814 40.8601 246.009 40.9416 246.177 41.1044C246.344 41.2673 246.428 41.4627 246.428 41.6907C246.428 41.8442 246.388 41.985 246.309 42.113C246.232 42.2386 246.131 42.3398 246.006 42.4166C245.88 42.491 245.742 42.5282 245.59 42.5282ZM250.5 37.0773V38.194H247.272V37.0773H250.5ZM248.004 35.7931H249.491V40.7904C249.491 40.9276 249.512 41.0346 249.554 41.1114C249.596 41.1859 249.654 41.2382 249.728 41.2684C249.805 41.2987 249.893 41.3138 249.993 41.3138C250.063 41.3138 250.133 41.308 250.203 41.2964C250.273 41.2824 250.326 41.2719 250.363 41.265L250.597 42.3712C250.523 42.3945 250.418 42.4212 250.283 42.4515C250.148 42.484 249.984 42.5038 249.791 42.5108C249.433 42.5247 249.119 42.4771 248.849 42.3677C248.581 42.2584 248.373 42.0885 248.224 41.8582C248.075 41.6279 248.002 41.3371 248.004 40.9858V35.7931ZM253.07 39.3386V42.4375H251.583V35.2906H253.028V38.023H253.091C253.212 37.7066 253.407 37.4588 253.677 37.2797C253.947 37.0982 254.285 37.0075 254.692 37.0075C255.065 37.0075 255.389 37.0889 255.666 37.2518C255.945 37.4123 256.162 37.6438 256.315 37.9462C256.471 38.2463 256.548 38.6058 256.545 39.0246V42.4375H255.059V39.2898C255.061 38.9594 254.977 38.7023 254.808 38.5185C254.64 38.3348 254.405 38.2429 254.103 38.2429C253.9 38.2429 253.721 38.2859 253.565 38.372C253.412 38.4581 253.291 38.5837 253.202 38.7489C253.116 38.9117 253.072 39.1083 253.07 39.3386ZM260.158 42.5422C259.607 42.5422 259.132 42.4305 258.734 42.2072C258.339 41.9815 258.034 41.6628 257.82 41.251C257.606 40.8369 257.499 40.3472 257.499 39.7818C257.499 39.2304 257.606 38.7465 257.82 38.3301C258.034 37.9137 258.335 37.5891 258.724 37.3565C259.115 37.1238 259.573 37.0075 260.099 37.0075C260.452 37.0075 260.782 37.0645 261.086 37.1785C261.394 37.2902 261.661 37.4588 261.889 37.6845C262.119 37.9102 262.299 38.194 262.426 38.536C262.554 38.8757 262.618 39.2735 262.618 39.7295V40.1378H258.092V39.2165H261.219C261.219 39.0025 261.173 38.8128 261.079 38.6477C260.986 38.4825 260.857 38.3534 260.692 38.2603C260.529 38.1649 260.34 38.1172 260.123 38.1172C259.898 38.1172 259.698 38.1696 259.523 38.2743C259.351 38.3766 259.216 38.5151 259.118 38.6895C259.021 38.8617 258.971 39.0536 258.968 39.2653V40.1413C258.968 40.4065 259.017 40.6356 259.115 40.8287C259.215 41.0218 259.356 41.1707 259.537 41.2754C259.718 41.3801 259.934 41.4325 260.183 41.4325C260.348 41.4325 260.499 41.4092 260.636 41.3627C260.774 41.3161 260.891 41.2463 260.989 41.1533C261.086 41.0602 261.161 40.9462 261.212 40.8113L262.587 40.902C262.517 41.2324 262.374 41.5209 262.158 41.7675C261.944 42.0118 261.667 42.2025 261.327 42.3398C260.99 42.4747 260.6 42.5422 260.158 42.5422ZM266.01 42.5422C265.461 42.5422 264.989 42.4259 264.594 42.1932C264.2 41.9582 263.898 41.6325 263.686 41.2161C263.477 40.7997 263.372 40.3204 263.372 39.7783C263.372 39.2293 263.478 38.7477 263.69 38.3336C263.904 37.9171 264.207 37.5926 264.601 37.36C264.994 37.125 265.461 37.0075 266.003 37.0075C266.471 37.0075 266.881 37.0924 267.232 37.2622C267.583 37.4321 267.861 37.6705 268.066 37.9776C268.271 38.2847 268.383 38.6453 268.404 39.0595H267.002C266.962 38.7919 266.857 38.5767 266.687 38.4139C266.52 38.2487 266.3 38.1661 266.028 38.1661C265.798 38.1661 265.596 38.2289 265.424 38.3545C265.254 38.4778 265.122 38.6581 265.026 38.8954C264.931 39.1327 264.883 39.4201 264.883 39.7574C264.883 40.0994 264.93 40.3902 265.023 40.6298C265.118 40.8695 265.252 41.0521 265.424 41.1777C265.596 41.3033 265.798 41.3662 266.028 41.3662C266.198 41.3662 266.35 41.3313 266.485 41.2615C266.622 41.1917 266.735 41.0905 266.824 40.9579C266.914 40.8229 266.974 40.6612 267.002 40.4728H268.404C268.381 40.8822 268.269 41.2429 268.069 41.5546C267.872 41.864 267.598 42.106 267.249 42.2805C266.9 42.4549 266.487 42.5422 266.01 42.5422ZM271.778 42.5422C271.236 42.5422 270.767 42.427 270.372 42.1967C269.979 41.9641 269.675 41.6407 269.461 41.2266C269.247 40.8101 269.14 40.3274 269.14 39.7783C269.14 39.2246 269.247 38.7407 269.461 38.3266C269.675 37.9102 269.979 37.5868 270.372 37.3565C270.767 37.1238 271.236 37.0075 271.778 37.0075C272.32 37.0075 272.788 37.1238 273.181 37.3565C273.576 37.5868 273.881 37.9102 274.095 38.3266C274.309 38.7407 274.416 39.2246 274.416 39.7783C274.416 40.3274 274.309 40.8101 274.095 41.2266C273.881 41.6407 273.576 41.9641 273.181 42.1967C272.788 42.427 272.32 42.5422 271.778 42.5422ZM271.785 41.3906C272.032 41.3906 272.238 41.3208 272.403 41.1812C272.568 41.0393 272.692 40.8462 272.776 40.6019C272.862 40.3576 272.905 40.0796 272.905 39.7679C272.905 39.4561 272.862 39.1781 272.776 38.9338C272.692 38.6895 272.568 38.4964 272.403 38.3545C272.238 38.2126 272.032 38.1417 271.785 38.1417C271.536 38.1417 271.327 38.2126 271.157 38.3545C270.989 38.4964 270.863 38.6895 270.777 38.9338C270.693 39.1781 270.651 39.4561 270.651 39.7679C270.651 40.0796 270.693 40.3576 270.777 40.6019C270.863 40.8462 270.989 41.0393 271.157 41.1812C271.327 41.3208 271.536 41.3906 271.785 41.3906ZM277.805 42.5422C277.263 42.5422 276.794 42.427 276.398 42.1967C276.005 41.9641 275.702 41.6407 275.488 41.2266C275.274 40.8101 275.167 40.3274 275.167 39.7783C275.167 39.2246 275.274 38.7407 275.488 38.3266C275.702 37.9102 276.005 37.5868 276.398 37.3565C276.794 37.1238 277.263 37.0075 277.805 37.0075C278.347 37.0075 278.815 37.1238 279.208 37.3565C279.603 37.5868 279.908 37.9102 280.122 38.3266C280.336 38.7407 280.443 39.2246 280.443 39.7783C280.443 40.3274 280.336 40.8101 280.122 41.2266C279.908 41.6407 279.603 41.9641 279.208 42.1967C278.815 42.427 278.347 42.5422 277.805 42.5422ZM277.812 41.3906C278.058 41.3906 278.264 41.3208 278.429 41.1812C278.595 41.0393 278.719 40.8462 278.803 40.6019C278.889 40.3576 278.932 40.0796 278.932 39.7679C278.932 39.4561 278.889 39.1781 278.803 38.9338C278.719 38.6895 278.595 38.4964 278.429 38.3545C278.264 38.2126 278.058 38.1417 277.812 38.1417C277.563 38.1417 277.353 38.2126 277.184 38.3545C277.016 38.4964 276.889 38.6895 276.803 38.9338C276.72 39.1781 276.678 39.4561 276.678 39.7679C276.678 40.0796 276.72 40.3576 276.803 40.6019C276.889 40.8462 277.016 41.0393 277.184 41.1812C277.353 41.3208 277.563 41.3906 277.812 41.3906ZM281.41 42.4375V37.0773H282.851V38.0125H282.907C283.005 37.6798 283.169 37.4286 283.399 37.2588C283.629 37.0866 283.894 37.0005 284.195 37.0005C284.269 37.0005 284.349 37.0052 284.435 37.0145C284.521 37.0238 284.597 37.0366 284.662 37.0529V38.372C284.592 38.351 284.496 38.3324 284.372 38.3161C284.249 38.2999 284.136 38.2917 284.034 38.2917C283.815 38.2917 283.62 38.3394 283.448 38.4348C283.278 38.5279 283.143 38.6581 283.043 38.8256C282.945 38.9931 282.896 39.1862 282.896 39.4049V42.4375H281.41ZM287.156 42.5247C286.749 42.5247 286.381 42.4201 286.05 42.2107C285.722 41.999 285.462 41.6884 285.268 41.2789C285.078 40.8671 284.982 40.3623 284.982 39.7644C284.982 39.1502 285.081 38.6395 285.279 38.2324C285.477 37.8229 285.74 37.517 286.068 37.3146C286.398 37.1099 286.76 37.0075 287.153 37.0075C287.453 37.0075 287.703 37.0587 287.903 37.161C288.106 37.2611 288.268 37.3867 288.392 37.5379C288.517 37.6868 288.613 37.8334 288.678 37.9776H288.723V35.2906H290.206V42.4375H288.741V41.579H288.678C288.608 41.7279 288.509 41.8757 288.381 42.0222C288.256 42.1665 288.092 42.2863 287.889 42.3817C287.689 42.4771 287.445 42.5247 287.156 42.5247ZM287.628 41.3417C287.867 41.3417 288.07 41.2766 288.235 41.1463C288.402 41.0137 288.53 40.8287 288.619 40.5914C288.709 40.3541 288.755 40.0761 288.755 39.7574C288.755 39.4387 288.71 39.1618 288.622 38.9268C288.534 38.6919 288.406 38.5104 288.238 38.3824C288.071 38.2545 287.867 38.1905 287.628 38.1905C287.383 38.1905 287.177 38.2568 287.01 38.3894C286.842 38.522 286.716 38.7058 286.629 38.9408C286.543 39.1758 286.5 39.448 286.5 39.7574C286.5 40.0691 286.543 40.3448 286.629 40.5845C286.718 40.8218 286.845 41.0079 287.01 41.1428C287.177 41.2754 287.383 41.3417 287.628 41.3417ZM291.429 42.4375V37.0773H292.915V42.4375H291.429ZM292.175 36.3863C291.954 36.3863 291.765 36.313 291.607 36.1665C291.451 36.0176 291.373 35.8396 291.373 35.6325C291.373 35.4278 291.451 35.2522 291.607 35.1056C291.765 34.9567 291.954 34.8823 292.175 34.8823C292.397 34.8823 292.585 34.9567 292.741 35.1056C292.899 35.2522 292.978 35.4278 292.978 35.6325C292.978 35.8396 292.899 36.0176 292.741 36.1665C292.585 36.313 292.397 36.3863 292.175 36.3863ZM295.593 39.3386V42.4375H294.106V37.0773H295.523V38.023H295.586C295.704 37.7113 295.903 37.4646 296.183 37.2832C296.462 37.0994 296.8 37.0075 297.198 37.0075C297.57 37.0075 297.895 37.0889 298.172 37.2518C298.449 37.4146 298.664 37.6473 298.817 37.9497C298.971 38.2498 299.048 38.6081 299.048 39.0246V42.4375H297.561V39.2898C297.563 38.9617 297.48 38.7058 297.31 38.522C297.14 38.3359 296.906 38.2429 296.608 38.2429C296.408 38.2429 296.231 38.2859 296.078 38.372C295.927 38.4581 295.808 38.5837 295.722 38.7489C295.638 38.9117 295.595 39.1083 295.593 39.3386ZM301.748 42.5387C301.406 42.5387 301.101 42.4794 300.833 42.3607C300.566 42.2397 300.354 42.0618 300.198 41.8268C300.045 41.5895 299.968 41.294 299.968 40.9404C299.968 40.6426 300.023 40.3925 300.132 40.1901C300.241 39.9877 300.39 39.8249 300.579 39.7016C300.767 39.5783 300.981 39.4852 301.221 39.4224C301.463 39.3596 301.716 39.3154 301.982 39.2898C302.293 39.2572 302.545 39.227 302.735 39.199C302.926 39.1688 303.065 39.1246 303.151 39.0664C303.237 39.0083 303.28 38.9222 303.28 38.8082V38.7873C303.28 38.5662 303.21 38.3952 303.07 38.2743C302.933 38.1533 302.738 38.0928 302.484 38.0928C302.217 38.0928 302.004 38.1521 301.845 38.2708C301.687 38.3871 301.583 38.5337 301.531 38.7105L300.156 38.5988C300.226 38.2731 300.364 37.9916 300.568 37.7543C300.773 37.5147 301.037 37.3309 301.36 37.2029C301.686 37.0726 302.063 37.0075 302.491 37.0075C302.789 37.0075 303.074 37.0424 303.346 37.1122C303.621 37.182 303.864 37.2902 304.075 37.4367C304.289 37.5833 304.458 37.7717 304.581 38.0021C304.705 38.2301 304.766 38.5034 304.766 38.8221V42.4375H303.357V41.6942H303.315C303.229 41.8617 303.113 42.0094 302.969 42.1374C302.825 42.263 302.652 42.3619 302.449 42.434C302.247 42.5038 302.013 42.5387 301.748 42.5387ZM302.174 41.5127C302.392 41.5127 302.585 41.4697 302.753 41.3836C302.92 41.2952 303.052 41.1765 303.147 41.0277C303.243 40.8788 303.29 40.7101 303.29 40.5216V39.9528C303.244 39.9831 303.18 40.011 303.098 40.0366C303.019 40.0598 302.93 40.0819 302.83 40.1029C302.73 40.1215 302.63 40.1389 302.529 40.1552C302.429 40.1692 302.339 40.182 302.257 40.1936C302.083 40.2192 301.93 40.2599 301.8 40.3158C301.67 40.3716 301.569 40.4472 301.497 40.5426C301.424 40.6356 301.388 40.752 301.388 40.8916C301.388 41.094 301.462 41.2487 301.608 41.3557C301.757 41.4604 301.946 41.5127 302.174 41.5127ZM308.771 37.0773V38.194H305.543V37.0773H308.771ZM306.276 35.7931H307.762V40.7904C307.762 40.9276 307.783 41.0346 307.825 41.1114C307.867 41.1859 307.925 41.2382 308 41.2684C308.076 41.2987 308.165 41.3138 308.265 41.3138C308.335 41.3138 308.404 41.308 308.474 41.2964C308.544 41.2824 308.598 41.2719 308.635 41.265L308.869 42.3712C308.794 42.3945 308.689 42.4212 308.554 42.4515C308.42 42.484 308.256 42.5038 308.062 42.5108C307.704 42.5247 307.39 42.4771 307.12 42.3677C306.853 42.2584 306.644 42.0885 306.496 41.8582C306.347 41.6279 306.273 41.3371 306.276 40.9858V35.7931ZM312.124 42.5422C311.573 42.5422 311.098 42.4305 310.701 42.2072C310.305 41.9815 310 41.6628 309.786 41.251C309.572 40.8369 309.465 40.3472 309.465 39.7818C309.465 39.2304 309.572 38.7465 309.786 38.3301C310 37.9137 310.302 37.5891 310.69 37.3565C311.081 37.1238 311.539 37.0075 312.065 37.0075C312.419 37.0075 312.748 37.0645 313.053 37.1785C313.36 37.2902 313.627 37.4588 313.855 37.6845C314.086 37.9102 314.265 38.194 314.393 38.536C314.521 38.8757 314.585 39.2735 314.585 39.7295V40.1378H310.059V39.2165H313.185C313.185 39.0025 313.139 38.8128 313.046 38.6477C312.953 38.4825 312.824 38.3534 312.658 38.2603C312.496 38.1649 312.306 38.1172 312.09 38.1172C311.864 38.1172 311.664 38.1696 311.489 38.2743C311.317 38.3766 311.182 38.5151 311.085 38.6895C310.987 38.8617 310.937 39.0536 310.934 39.2653V40.1413C310.934 40.4065 310.983 40.6356 311.081 40.8287C311.181 41.0218 311.322 41.1707 311.503 41.2754C311.685 41.3801 311.9 41.4325 312.149 41.4325C312.314 41.4325 312.465 41.4092 312.603 41.3627C312.74 41.3161 312.857 41.2463 312.955 41.1533C313.053 41.0602 313.127 40.9462 313.178 40.8113L314.553 40.902C314.484 41.2324 314.34 41.5209 314.124 41.7675C313.91 42.0118 313.633 42.2025 313.294 42.3398C312.956 42.4747 312.567 42.5422 312.124 42.5422ZM317.53 42.5247C317.123 42.5247 316.754 42.4201 316.424 42.2107C316.096 41.999 315.835 41.6884 315.642 41.2789C315.451 40.8671 315.356 40.3623 315.356 39.7644C315.356 39.1502 315.455 38.6395 315.653 38.2324C315.85 37.8229 316.113 37.517 316.441 37.3146C316.772 37.1099 317.133 37.0075 317.527 37.0075C317.827 37.0075 318.077 37.0587 318.277 37.161C318.479 37.2611 318.642 37.3867 318.765 37.5379C318.891 37.6868 318.986 37.8334 319.052 37.9776H319.097V35.2906H320.58V42.4375H319.114V41.579H319.052C318.982 41.7279 318.883 41.8757 318.755 42.0222C318.629 42.1665 318.465 42.2863 318.263 42.3817C318.063 42.4771 317.819 42.5247 317.53 42.5247ZM318.001 41.3417C318.241 41.3417 318.443 41.2766 318.608 41.1463C318.776 41.0137 318.904 40.8287 318.992 40.5914C319.083 40.3541 319.128 40.0761 319.128 39.7574C319.128 39.4387 319.084 39.1618 318.996 38.9268C318.907 38.6919 318.779 38.5104 318.612 38.3824C318.444 38.2545 318.241 38.1905 318.001 38.1905C317.757 38.1905 317.551 38.2568 317.383 38.3894C317.216 38.522 317.089 38.7058 317.003 38.9408C316.917 39.1758 316.874 39.448 316.874 39.7574C316.874 40.0691 316.917 40.3448 317.003 40.5845C317.092 40.8218 317.218 41.0079 317.383 41.1428C317.551 41.2754 317.757 41.3417 318.001 41.3417ZM323.289 35.2906V42.4375H321.802V35.2906H323.289ZM324.48 42.4375V37.0773H325.966V42.4375H324.48ZM325.227 36.3863C325.006 36.3863 324.816 36.313 324.658 36.1665C324.502 36.0176 324.424 35.8396 324.424 35.6325C324.424 35.4278 324.502 35.2522 324.658 35.1056C324.816 34.9567 325.006 34.8823 325.227 34.8823C325.448 34.8823 325.636 34.9567 325.792 35.1056C325.95 35.2522 326.029 35.4278 326.029 35.6325C326.029 35.8396 325.95 36.0176 325.792 36.1665C325.636 36.313 325.448 36.3863 325.227 36.3863ZM332.155 37.0773L330.281 42.4375H328.606L326.732 37.0773H328.302L329.415 40.9125H329.471L330.581 37.0773H332.155ZM332.915 42.4375V37.0773H334.402V42.4375H332.915ZM333.662 36.3863C333.441 36.3863 333.252 36.313 333.093 36.1665C332.937 36.0176 332.86 35.8396 332.86 35.6325C332.86 35.4278 332.937 35.2522 333.093 35.1056C333.252 34.9567 333.441 34.8823 333.662 34.8823C333.883 34.8823 334.072 34.9567 334.227 35.1056C334.386 35.2522 334.465 35.4278 334.465 35.6325C334.465 35.8396 334.386 36.0176 334.227 36.1665C334.072 36.313 333.883 36.3863 333.662 36.3863ZM337.079 39.3386V42.4375H335.593V37.0773H337.01V38.023H337.072C337.191 37.7113 337.39 37.4646 337.669 37.2832C337.948 37.0994 338.287 37.0075 338.685 37.0075C339.057 37.0075 339.382 37.0889 339.658 37.2518C339.935 37.4146 340.15 37.6473 340.304 37.9497C340.458 38.2498 340.534 38.6081 340.534 39.0246V42.4375H339.048V39.2898C339.05 38.9617 338.966 38.7058 338.796 38.522C338.627 38.3359 338.393 38.2429 338.095 38.2429C337.895 38.2429 337.718 38.2859 337.565 38.372C337.413 38.4581 337.295 38.5837 337.209 38.7489C337.125 38.9117 337.082 39.1083 337.079 39.3386ZM344.121 44.5592C343.639 44.5592 343.226 44.4929 342.882 44.3603C342.54 44.2301 342.268 44.0521 342.065 43.8264C341.863 43.6007 341.732 43.3472 341.671 43.0656L343.046 42.8807C343.088 42.9877 343.154 43.0878 343.245 43.1808C343.336 43.2739 343.455 43.3483 343.604 43.4042C343.756 43.4623 343.939 43.4914 344.156 43.4914C344.479 43.4914 344.745 43.4123 344.955 43.2541C345.167 43.0982 345.272 42.8365 345.272 42.4689V41.4883H345.21C345.144 41.6372 345.047 41.7779 344.916 41.9106C344.786 42.0432 344.619 42.1513 344.414 42.2351C344.209 42.3188 343.965 42.3607 343.681 42.3607C343.279 42.3607 342.912 42.2677 342.582 42.0815C342.254 41.8931 341.992 41.6058 341.797 41.2196C341.604 40.8311 341.507 40.3402 341.507 39.7469C341.507 39.1397 341.606 38.6325 341.804 38.2254C342.001 37.8183 342.264 37.5135 342.592 37.3111C342.923 37.1087 343.284 37.0075 343.678 37.0075C343.978 37.0075 344.229 37.0587 344.431 37.161C344.634 37.2611 344.797 37.3867 344.92 37.5379C345.046 37.6868 345.142 37.8334 345.21 37.9776H345.265V37.0773H346.742V42.4898C346.742 42.9458 346.63 43.3274 346.407 43.6345C346.183 43.9416 345.874 44.1719 345.478 44.3254C345.085 44.4813 344.633 44.5592 344.121 44.5592ZM344.152 41.244C344.392 41.244 344.594 41.1847 344.759 41.066C344.927 40.9451 345.055 40.7729 345.143 40.5496C345.234 40.3239 345.279 40.054 345.279 39.7399C345.279 39.4259 345.235 39.1537 345.147 38.9234C345.058 38.6907 344.93 38.5104 344.763 38.3824C344.595 38.2545 344.392 38.1905 344.152 38.1905C343.908 38.1905 343.702 38.2568 343.535 38.3894C343.367 38.5197 343.24 38.7012 343.154 38.9338C343.068 39.1665 343.025 39.4352 343.025 39.7399C343.025 40.0494 343.068 40.3169 343.154 40.5426C343.243 40.7659 343.369 40.9392 343.535 41.0626C343.702 41.1835 343.908 41.244 344.152 41.244ZM348.794 42.5282C348.563 42.5282 348.366 42.4468 348.2 42.284C348.037 42.1188 347.956 41.921 347.956 41.6907C347.956 41.4627 348.037 41.2673 348.2 41.1044C348.366 40.9416 348.563 40.8601 348.794 40.8601C349.017 40.8601 349.212 40.9416 349.38 41.1044C349.547 41.2673 349.631 41.4627 349.631 41.6907C349.631 41.8442 349.592 41.985 349.512 42.113C349.436 42.2386 349.334 42.3398 349.209 42.4166C349.083 42.491 348.945 42.5282 348.794 42.5282ZM353.274 42.5422C352.724 42.5422 352.252 42.4259 351.857 42.1932C351.464 41.9582 351.161 41.6325 350.949 41.2161C350.74 40.7997 350.635 40.3204 350.635 39.7783C350.635 39.2293 350.741 38.7477 350.953 38.3336C351.167 37.9171 351.47 37.5926 351.864 37.36C352.257 37.125 352.724 37.0075 353.267 37.0075C353.734 37.0075 354.144 37.0924 354.495 37.2622C354.846 37.4321 355.124 37.6705 355.329 37.9776C355.534 38.2847 355.647 38.6453 355.667 39.0595H354.265C354.225 38.7919 354.12 38.5767 353.951 38.4139C353.783 38.2487 353.563 38.1661 353.291 38.1661C353.061 38.1661 352.859 38.2289 352.687 38.3545C352.517 38.4778 352.385 38.6581 352.289 38.8954C352.194 39.1327 352.146 39.4201 352.146 39.7574C352.146 40.0994 352.193 40.3902 352.286 40.6298C352.381 40.8695 352.515 41.0521 352.687 41.1777C352.859 41.3033 353.061 41.3662 353.291 41.3662C353.461 41.3662 353.613 41.3313 353.748 41.2615C353.885 41.1917 353.998 41.0905 354.087 40.9579C354.177 40.8229 354.237 40.6612 354.265 40.4728H355.667C355.644 40.8822 355.533 41.2429 355.332 41.5546C355.135 41.864 354.861 42.106 354.512 42.2805C354.163 42.4549 353.75 42.5422 353.274 42.5422ZM359.041 42.5422C358.499 42.5422 358.03 42.427 357.635 42.1967C357.242 41.9641 356.938 41.6407 356.724 41.2266C356.51 40.8101 356.403 40.3274 356.403 39.7783C356.403 39.2246 356.51 38.7407 356.724 38.3266C356.938 37.9102 357.242 37.5868 357.635 37.3565C358.03 37.1238 358.499 37.0075 359.041 37.0075C359.583 37.0075 360.051 37.1238 360.444 37.3565C360.84 37.5868 361.144 37.9102 361.358 38.3266C361.572 38.7407 361.679 39.2246 361.679 39.7783C361.679 40.3274 361.572 40.8101 361.358 41.2266C361.144 41.6407 360.84 41.9641 360.444 42.1967C360.051 42.427 359.583 42.5422 359.041 42.5422ZM359.048 41.3906C359.295 41.3906 359.501 41.3208 359.666 41.1812C359.831 41.0393 359.955 40.8462 360.039 40.6019C360.125 40.3576 360.168 40.0796 360.168 39.7679C360.168 39.4561 360.125 39.1781 360.039 38.9338C359.955 38.6895 359.831 38.4964 359.666 38.3545C359.501 38.2126 359.295 38.1417 359.048 38.1417C358.799 38.1417 358.59 38.2126 358.42 38.3545C358.252 38.4964 358.126 38.6895 358.04 38.9338C357.956 39.1781 357.914 39.4561 357.914 39.7679C357.914 40.0796 357.956 40.3576 358.04 40.6019C358.126 40.8462 358.252 41.0393 358.42 41.1812C358.59 41.3208 358.799 41.3906 359.048 41.3906ZM362.646 42.4375V37.0773H364.063V38.023H364.126C364.237 37.7089 364.423 37.4612 364.684 37.2797C364.945 37.0982 365.256 37.0075 365.619 37.0075C365.987 37.0075 366.3 37.0994 366.558 37.2832C366.816 37.4646 366.988 37.7113 367.074 38.023H367.13C367.24 37.7159 367.437 37.4705 367.724 37.2867C368.012 37.1006 368.353 37.0075 368.746 37.0075C369.246 37.0075 369.652 37.1669 369.964 37.4856C370.278 37.802 370.435 38.251 370.435 38.8326V42.4375H368.952V39.1258C368.952 38.828 368.873 38.6046 368.715 38.4557C368.556 38.3068 368.359 38.2324 368.121 38.2324C367.852 38.2324 367.641 38.3185 367.49 38.4906C367.339 38.6605 367.263 38.885 367.263 39.1641V42.4375H365.822V39.0943C365.822 38.8315 365.746 38.6221 365.595 38.4662C365.446 38.3103 365.249 38.2324 365.005 38.2324C364.84 38.2324 364.691 38.2743 364.558 38.358C364.428 38.4394 364.325 38.5546 364.248 38.7035C364.171 38.8501 364.133 39.0222 364.133 39.22V42.4375H362.646Z" fill="white"/>
</svg>
