<svg width="21" height="31" viewBox="0 0 21 31" fill="none" xmlns="http://www.w3.org/2000/svg">
<path d="M10.2262 28.2734C10.1987 28.2854 10.1747 28.3039 10.1562 28.3275L10.1779 28.3137C10.1927 28.3001 10.2135 28.2842 10.2262 28.2734Z" fill="white"/>
<path d="M11.2296 14.0835C10.1376 14.5523 8.89838 15.0838 7.29231 15.0838C6.62046 15.0824 5.95184 14.99 5.30469 14.809L6.41548 26.2451C6.45479 26.723 6.67195 27.1688 7.0238 27.4936C7.37565 27.8185 7.83648 27.9987 8.31476 27.9987C8.31476 27.9987 9.88973 28.0807 10.4153 28.0807C10.9809 28.0807 12.6769 27.9987 12.6769 27.9987C13.1551 27.9987 13.6159 27.8183 13.9676 27.4934C14.3194 27.1685 14.5365 26.723 14.5758 26.2451L15.7655 13.6077C15.2339 13.4257 14.6973 13.3047 14.0924 13.3047C13.0462 13.3043 12.2033 13.6656 11.2296 14.0835Z" fill="white"/>
<path d="M20.9063 8.14796L20.7391 7.30189C20.589 6.54277 20.2483 5.82548 19.4712 5.55112C19.2222 5.46333 18.9396 5.42563 18.7486 5.24393C18.5576 5.06226 18.5011 4.78011 18.457 4.51844C18.3752 4.03819 18.2983 3.55754 18.2144 3.07812C18.1421 2.66594 18.0848 2.20293 17.8963 1.82481C17.6509 1.31708 17.1417 1.02016 16.6354 0.823713C16.3759 0.726595 16.1112 0.644438 15.8424 0.577646C14.5774 0.24299 13.2474 0.119956 11.946 0.0498263C10.384 -0.036605 8.81785 -0.0105645 7.25954 0.127748C6.09969 0.233558 4.87807 0.361515 3.77588 0.763837C3.37304 0.911068 2.95792 1.08783 2.65161 1.39993C2.27575 1.78338 2.15306 2.37641 2.42747 2.8546C2.62256 3.19417 2.95302 3.4341 3.30352 3.59281C3.76005 3.79732 4.23683 3.95294 4.72595 4.05707C6.08783 4.35892 7.4984 4.47742 8.88973 4.52788C10.4319 4.59028 11.9764 4.53971 13.5112 4.37653C13.8907 4.3347 14.2696 4.28453 14.6477 4.22604C15.0931 4.15754 15.379 3.57353 15.2477 3.16669C15.0907 2.68031 14.6686 2.49166 14.1913 2.56507C14.121 2.57613 14.0511 2.58638 13.9807 2.59663L13.93 2.60402C13.7683 2.62454 13.6066 2.64366 13.4449 2.66144C13.1109 2.69752 12.7761 2.72706 12.4405 2.75003C11.6888 2.80252 10.935 2.82671 10.1817 2.82795C9.44146 2.82795 8.70079 2.80702 7.96217 2.75823C7.62518 2.73609 7.28899 2.70792 6.95364 2.67374C6.80109 2.65774 6.64894 2.64094 6.49682 2.62206L6.35202 2.60361L6.32055 2.59911L6.17045 2.57737C5.86371 2.53101 5.55698 2.47772 5.25352 2.41332C5.2229 2.4065 5.1955 2.38943 5.17587 2.36489C5.15623 2.34036 5.14554 2.30985 5.14554 2.27839C5.14554 2.24694 5.15623 2.21642 5.17587 2.19189C5.1955 2.16736 5.2229 2.15028 5.25352 2.14346H5.25925C5.52223 2.08728 5.78723 2.03929 6.05306 1.99746C6.14169 1.98352 6.23056 1.96985 6.31972 1.95645H6.32217C6.48862 1.94538 6.65591 1.91544 6.82153 1.89575C8.26264 1.74544 9.7123 1.69419 11.1604 1.74237C11.8634 1.76288 12.566 1.8043 13.2658 1.87566C13.4163 1.89124 13.566 1.90765 13.7157 1.9261C13.7729 1.93308 13.8306 1.94128 13.8883 1.94825L14.0044 1.96506C14.3431 2.01565 14.6799 2.07703 15.015 2.14921C15.5115 2.25748 16.1491 2.29275 16.3699 2.8382C16.4403 3.01126 16.4722 3.20361 16.511 3.38528L16.5605 3.61701C16.5618 3.62115 16.5628 3.62542 16.5634 3.62971C16.6804 4.17653 16.7975 4.72335 16.9147 5.27018C16.9233 5.31058 16.9235 5.35231 16.9153 5.39278C16.9071 5.43328 16.8907 5.47161 16.867 5.50545C16.8434 5.53927 16.813 5.56785 16.7779 5.5894C16.7428 5.61094 16.7036 5.62498 16.6628 5.63068H16.6595L16.5879 5.64052L16.5172 5.64994C16.2931 5.67921 16.0687 5.70655 15.844 5.73198C15.4015 5.78256 14.9583 5.82629 14.5144 5.86321C13.6324 5.93675 12.7486 5.98501 11.863 6.00799C11.4118 6.02 10.9607 6.02563 10.5097 6.02479C8.7147 6.02339 6.92124 5.91875 5.13819 5.71146C4.94514 5.6885 4.75211 5.66388 4.55906 5.63888C4.70876 5.65816 4.45027 5.6241 4.39793 5.61674C4.27524 5.5995 4.15254 5.5816 4.02985 5.56301C3.61801 5.50107 3.20863 5.42479 2.7976 5.35794C2.3007 5.27592 1.82546 5.31694 1.376 5.56301C1.00705 5.76547 0.708444 6.07592 0.520006 6.45296C0.32615 6.85487 0.268484 7.29246 0.181781 7.72432C0.0950777 8.15616 -0.0398854 8.62083 0.0112367 9.06416C0.121252 10.021 0.788295 10.7985 1.74776 10.9724C2.65037 11.1365 3.55789 11.2693 4.46786 11.3825C8.04247 11.8216 11.6537 11.8741 15.2395 11.5392C15.5315 11.5119 15.8231 11.4821 16.1143 11.4498C16.2053 11.4398 16.2973 11.4503 16.3837 11.4805C16.4701 11.5108 16.5486 11.5601 16.6136 11.6247C16.6785 11.6894 16.7282 11.7678 16.759 11.8541C16.7898 11.9405 16.8009 12.0328 16.7916 12.124L16.7008 13.0091C16.5179 14.7974 16.3349 16.5857 16.152 18.3738C15.9611 20.2516 15.769 22.1292 15.5757 24.0066C15.5212 24.5355 15.4667 25.0641 15.4121 25.5926C15.3598 26.1131 15.3524 26.6499 15.2539 27.1643C15.0984 27.973 14.5525 28.4697 13.7558 28.6513C13.0259 28.8179 12.2802 28.9054 11.5317 28.9121C10.7019 28.9166 9.87253 28.8797 9.04271 28.8842C8.15684 28.8892 7.07184 28.8072 6.38803 28.146C5.78723 27.5654 5.7042 26.6561 5.62241 25.8698C5.51336 24.8289 5.40526 23.7882 5.29809 22.7477L4.6969 16.9613L4.30797 13.2174C4.30141 13.1555 4.29487 13.0944 4.28874 13.032C4.24211 12.5854 3.92679 12.1482 3.42987 12.1708C3.00455 12.1896 2.52114 12.5522 2.57103 13.032L2.85935 15.8077L3.45564 21.5493C3.62552 23.1802 3.79497 24.8113 3.96401 26.4428C3.99674 26.7552 4.0274 27.0687 4.06175 27.3811C4.24867 29.0889 5.5492 30.0092 7.15976 30.2683C8.10041 30.4201 9.06396 30.4513 10.0185 30.4668C11.2422 30.4866 12.4781 30.5338 13.6817 30.3114C15.4653 29.9832 16.8035 28.7891 16.9944 26.9366C17.049 26.4018 17.1035 25.8669 17.1581 25.3318C17.3394 23.5623 17.5204 21.7926 17.7012 20.0228L18.2926 14.2402L18.5637 11.5901C18.5772 11.4586 18.6326 11.3351 18.7215 11.2377C18.8105 11.1403 18.9284 11.0741 19.0578 11.0491C19.5677 10.9495 20.0553 10.7792 20.418 10.39C20.9955 9.77039 21.1104 8.96245 20.9063 8.14796ZM1.72158 8.71967C1.72935 8.71597 1.71504 8.78281 1.7089 8.81398C1.70768 8.76682 1.71013 8.72498 1.72158 8.71967ZM1.77107 9.10353C1.77516 9.10065 1.78743 9.11707 1.80011 9.13676C1.78088 9.11869 1.76862 9.10518 1.77066 9.10353H1.77107ZM1.81974 9.16791C1.84673 9.21672 1.83733 9.19785 1.81974 9.16791ZM1.91748 9.24747H1.91994C1.91994 9.25036 1.92444 9.25322 1.92607 9.2561C1.92336 9.25293 1.92035 9.25005 1.91708 9.24747H1.91748ZM19.034 9.12854C18.8508 9.30325 18.5747 9.38445 18.302 9.42507C15.2428 9.88029 12.1391 10.1108 9.04637 10.0091C6.83299 9.9332 4.64292 9.6867 2.45162 9.37625C2.2369 9.34591 2.00419 9.30653 1.85655 9.14782C1.57844 8.84843 1.71504 8.24557 1.78743 7.88385C1.85368 7.55247 1.98047 7.11078 2.3735 7.06362C2.98697 6.99144 3.69939 7.25103 4.30633 7.34332C5.03703 7.45513 5.77047 7.54468 6.50662 7.61194C9.64839 7.89903 12.8429 7.85432 15.9708 7.43437C16.5409 7.35752 17.109 7.26826 17.675 7.16656C18.1793 7.07591 18.7383 6.90573 19.043 7.42943C19.252 7.78624 19.2798 8.26361 19.2475 8.66676C19.2376 8.8424 19.161 9.0076 19.0336 9.12854H19.034Z" fill="white"/>
</svg>
