<svg width="86" height="85" viewBox="0 0 86 85" fill="none" xmlns="http://www.w3.org/2000/svg">
<path d="M67.2479 64.2196C67.1547 64.8217 66.651 65.2435 66.1228 65.1618C65.5947 65.08 65.2421 64.5256 65.3353 63.9235C65.4285 63.3214 65.9322 62.8996 66.4603 62.9814C66.9885 63.0631 67.3411 63.6175 67.2479 64.2196Z" fill="white"/>
<path d="M69.2479 60.7196C69.1547 61.3217 68.651 61.7435 68.1228 61.6618C67.5947 61.58 67.2421 61.0256 67.3353 60.4235C67.4284 59.8214 67.9322 59.3996 68.4603 59.4814C68.9885 59.5631 69.3411 60.1175 69.2479 60.7196Z" fill="white"/>
<path d="M70.9146 57.2196C70.8214 57.8217 70.3177 58.2435 69.7895 58.1618C69.2613 58.08 68.9087 57.5256 69.0019 56.9235C69.0951 56.3214 69.5988 55.8996 70.127 55.9814C70.6552 56.0631 71.0078 56.6175 70.9146 57.2196Z" fill="white"/>
<path d="M72.0812 53.3863C71.9881 53.9884 71.4843 54.4102 70.9562 54.3284C70.428 54.2467 70.0754 53.6923 70.1686 53.0902C70.2618 52.4881 70.7655 52.0663 71.2937 52.148C71.8218 52.2298 72.1744 52.7841 72.0812 53.3863Z" fill="white"/>
<path d="M72.9146 49.5529C72.8214 50.155 72.3177 50.5769 71.7895 50.4951C71.2613 50.4133 70.9087 49.859 71.0019 49.2569C71.0951 48.6548 71.5988 48.2329 72.127 48.3147C72.6552 48.3964 73.0078 48.9508 72.9146 49.5529Z" fill="white"/>
<path d="M73.2479 45.7196C73.1547 46.3217 72.651 46.7435 72.1228 46.6618C71.5947 46.58 71.2421 46.0256 71.3353 45.4235C71.4285 44.8214 71.9322 44.3996 72.4603 44.4814C72.9885 44.5631 73.3411 45.1175 73.2479 45.7196Z" fill="white"/>
<path d="M73.4146 41.7196C73.3214 42.3217 72.8177 42.7435 72.2895 42.6618C71.7613 42.58 71.4087 42.0256 71.5019 41.4235C71.5951 40.8214 72.0988 40.3996 72.627 40.4814C73.1552 40.5631 73.5078 41.1175 73.4146 41.7196Z" fill="white"/>
<path d="M73.0812 37.8863C72.9881 38.4884 72.4843 38.9102 71.9562 38.8284C71.428 38.7467 71.0754 38.1923 71.1686 37.5902C71.2618 36.9881 71.7655 36.5663 72.2937 36.648C72.8218 36.7298 73.1744 37.2842 73.0812 37.8863Z" fill="white"/>
<path d="M72.2479 34.2196C72.1547 34.8217 71.651 35.2435 71.1228 35.1618C70.5947 35.08 70.2421 34.5256 70.3353 33.9235C70.4285 33.3214 70.9322 32.8996 71.4603 32.9814C71.9885 33.0631 72.3411 33.6175 72.2479 34.2196Z" fill="white"/>
<path d="M71.0812 30.5529C70.988 31.155 70.4843 31.5768 69.9562 31.4951C69.428 31.4133 69.0754 30.859 69.1686 30.2569C69.2618 29.6548 69.7655 29.2329 70.2937 29.3147C70.8218 29.3964 71.1744 29.9508 71.0812 30.5529Z" fill="white"/>
<path d="M69.5812 27.2196C69.488 27.8217 68.9843 28.2435 68.4562 28.1618C67.928 28.08 67.5754 27.5256 67.6686 26.9235C67.7618 26.3214 68.2655 25.8996 68.7937 25.9814C69.3218 26.0631 69.6744 26.6175 69.5812 27.2196Z" fill="white"/>
<path d="M67.7479 24.0529C67.6547 24.655 67.151 25.0768 66.6228 24.9951C66.0947 24.9133 65.7421 24.359 65.8353 23.7569C65.9285 23.1548 66.4322 22.7329 66.9603 22.8147C67.4885 22.8964 67.8411 23.4508 67.7479 24.0529Z" fill="white"/>
<path d="M65.5812 21.2196C65.488 21.8217 64.9843 22.2435 64.4562 22.1618C63.928 22.08 63.5754 21.5256 63.6686 20.9235C63.7618 20.3214 64.2655 19.8996 64.7937 19.9814C65.3218 20.0631 65.6744 20.6175 65.5812 21.2196Z" fill="white"/>
<path d="M63.0812 18.7196C62.988 19.3217 62.4843 19.7435 61.9562 19.6618C61.428 19.58 61.0754 19.0256 61.1686 18.4235C61.2618 17.8214 61.7655 17.3996 62.2937 17.4814C62.8218 17.5631 63.1744 18.1175 63.0812 18.7196Z" fill="white"/>
<path d="M60.2479 16.5529C60.1547 17.155 59.651 17.5768 59.1228 17.4951C58.5947 17.4133 58.2421 16.859 58.3353 16.2569C58.4284 15.6548 58.9322 15.2329 59.4603 15.3147C59.9885 15.3964 60.3411 15.9508 60.2479 16.5529Z" fill="white"/>
<path d="M57.2479 14.7196C57.1547 15.3217 56.651 15.7435 56.1228 15.6618C55.5947 15.58 55.2421 15.0256 55.3353 14.4235C55.4284 13.8214 55.9322 13.3996 56.4603 13.4814C56.9885 13.5631 57.3411 14.1175 57.2479 14.7196Z" fill="white"/>
<path d="M54.0812 13.3863C53.988 13.9884 53.4843 14.4102 52.9562 14.3284C52.428 14.2467 52.0754 13.6923 52.1686 13.0902C52.2618 12.4881 52.7655 12.0663 53.2937 12.148C53.8218 12.2298 54.1744 12.7842 54.0812 13.3863Z" fill="white"/>
<path d="M50.7479 12.5529C50.6547 13.155 50.151 13.5768 49.6228 13.4951C49.0947 13.4133 48.742 12.859 48.8352 12.2569C48.9284 11.6548 49.4322 11.2329 49.9603 11.3147C50.4885 11.3964 50.8411 11.9508 50.7479 12.5529Z" fill="white"/>
<path d="M47.2479 12.0529C47.1547 12.655 46.651 13.0768 46.1228 12.9951C45.5947 12.9133 45.2421 12.359 45.3352 11.7569C45.4284 11.1548 45.9322 10.7329 46.4603 10.8147C46.9885 10.8964 47.3411 11.4508 47.2479 12.0529Z" fill="white"/>
<path d="M43.7479 12.0529C43.6547 12.655 43.151 13.0768 42.6228 12.9951C42.0947 12.9133 41.7421 12.359 41.8352 11.7569C41.9284 11.1548 42.4322 10.7329 42.9603 10.8147C43.4885 10.8964 43.8411 11.4508 43.7479 12.0529Z" fill="white"/>
<path d="M40.4146 12.3863C40.3214 12.9884 39.8177 13.4102 39.2895 13.3284C38.7613 13.2467 38.4087 12.6923 38.5019 12.0902C38.5951 11.4881 39.0988 11.0663 39.627 11.148C40.1552 11.2298 40.5078 11.7842 40.4146 12.3863Z" fill="white"/>
<path d="M36.9146 13.2196C36.8214 13.8217 36.3177 14.2435 35.7895 14.1618C35.2613 14.08 34.9087 13.5256 35.0019 12.9235C35.0951 12.3214 35.5988 11.8996 36.127 11.9814C36.6552 12.0631 37.0078 12.6175 36.9146 13.2196Z" fill="white"/>
<path d="M33.5812 14.5529C33.488 15.155 32.9843 15.5768 32.4562 15.4951C31.928 15.4133 31.5754 14.859 31.6686 14.2569C31.7618 13.6548 32.2655 13.2329 32.7937 13.3147C33.3218 13.3964 33.6744 13.9508 33.5812 14.5529Z" fill="white"/>
<path d="M30.4146 16.2196C30.3214 16.8217 29.8177 17.2435 29.2895 17.1618C28.7613 17.08 28.4087 16.5256 28.5019 15.9235C28.5951 15.3214 29.0988 14.8996 29.627 14.9814C30.1552 15.0631 30.5078 15.6175 30.4146 16.2196Z" fill="white"/>
<path d="M27.2479 18.3863C27.1547 18.9884 26.651 19.4102 26.1228 19.3284C25.5947 19.2467 25.2421 18.6923 25.3353 18.0902C25.4285 17.4881 25.9322 17.0663 26.4603 17.148C26.9885 17.2298 27.3411 17.7842 27.2479 18.3863Z" fill="white"/>
<path d="M24.5812 20.8863C24.488 21.4884 23.9843 21.9102 23.4562 21.8284C22.928 21.7467 22.5754 21.1923 22.6686 20.5902C22.7618 19.9881 23.2655 19.5663 23.7937 19.648C24.3218 19.7298 24.6744 20.2842 24.5812 20.8863Z" fill="white"/>
<path d="M21.9146 23.7196C21.8214 24.3217 21.3177 24.7435 20.7895 24.6618C20.2613 24.58 19.9087 24.0256 20.0019 23.4235C20.0951 22.8214 20.5988 22.3996 21.127 22.4814C21.6552 22.5631 22.0078 23.1175 21.9146 23.7196Z" fill="white"/>
<path d="M19.5812 26.8863C19.488 27.4884 18.9843 27.9102 18.4562 27.8284C17.928 27.7467 17.5754 27.1923 17.6686 26.5902C17.7618 25.9881 18.2655 25.5663 18.7937 25.648C19.3218 25.7298 19.6744 26.2841 19.5812 26.8863Z" fill="white"/>
<path d="M17.7479 30.3863C17.6547 30.9884 17.151 31.4102 16.6228 31.3284C16.0947 31.2467 15.7421 30.6923 15.8353 30.0902C15.9284 29.4881 16.4322 29.0663 16.9603 29.148C17.4885 29.2298 17.8411 29.7842 17.7479 30.3863Z" fill="white"/>
<path d="M16.2479 33.8863C16.1547 34.4884 15.651 34.9102 15.1228 34.8284C14.5947 34.7467 14.2421 34.1923 14.3353 33.5902C14.4284 32.9881 14.9322 32.5663 15.4603 32.648C15.9885 32.7298 16.3411 33.2842 16.2479 33.8863Z" fill="white"/>
<path d="M14.9146 37.5529C14.8214 38.155 14.3177 38.5769 13.7895 38.4951C13.2613 38.4133 12.9087 37.859 13.0019 37.2569C13.0951 36.6548 13.5988 36.2329 14.127 36.3147C14.6552 36.3964 15.0078 36.9508 14.9146 37.5529Z" fill="white"/>
<path d="M14.0812 41.3863C13.988 41.9884 13.4843 42.4102 12.9562 42.3284C12.428 42.2467 12.0754 41.6923 12.1686 41.0902C12.2618 40.4881 12.7655 40.0663 13.2937 40.148C13.8218 40.2298 14.1744 40.7842 14.0812 41.3863Z" fill="white"/>
<path d="M13.5812 45.3863C13.488 45.9884 12.9843 46.4102 12.4562 46.3284C11.928 46.2467 11.5754 45.6923 11.6686 45.0902C11.7618 44.4881 12.2655 44.0663 12.7937 44.148C13.3218 44.2298 13.6744 44.7841 13.5812 45.3863Z" fill="white"/>
<path d="M13.5812 49.3863C13.488 49.9884 12.9843 50.4102 12.4562 50.3284C11.928 50.2467 11.5754 49.6923 11.6686 49.0902C11.7618 48.4881 12.2655 48.0663 12.7937 48.148C13.3218 48.2298 13.6744 48.7842 13.5812 49.3863Z" fill="white"/>
<path d="M13.9146 53.2196C13.8214 53.8217 13.3177 54.2435 12.7895 54.1618C12.2613 54.08 11.9087 53.5256 12.0019 52.9235C12.0951 52.3214 12.5988 51.8996 13.127 51.9814C13.6552 52.0631 14.0078 52.6175 13.9146 53.2196Z" fill="white"/>
<path d="M14.7479 57.0529C14.6547 57.655 14.151 58.0769 13.6228 57.9951C13.0947 57.9133 12.7421 57.359 12.8353 56.7569C12.9284 56.1548 13.4322 55.7329 13.9603 55.8147C14.4885 55.8964 14.8411 56.4508 14.7479 57.0529Z" fill="white"/>
<path d="M15.9146 60.3863C15.8214 60.9884 15.3177 61.4102 14.7895 61.3284C14.2613 61.2467 13.9087 60.6923 14.0019 60.0902C14.0951 59.4881 14.5988 59.0663 15.127 59.148C15.6552 59.2298 16.0078 59.7842 15.9146 60.3863Z" fill="white"/>
<path d="M17.4146 63.8863C17.3214 64.4884 16.8177 64.9102 16.2895 64.8284C15.7613 64.7467 15.4087 64.1923 15.5019 63.5902C15.5951 62.9881 16.0988 62.5663 16.627 62.648C17.1552 62.7298 17.5078 63.2842 17.4146 63.8863Z" fill="white"/>
<path d="M19.2479 67.0529C19.1547 67.655 18.651 68.0769 18.1228 67.9951C17.5947 67.9133 17.2421 67.359 17.3352 66.7569C17.4284 66.1548 17.9322 65.7329 18.4603 65.8147C18.9885 65.8964 19.3411 66.4508 19.2479 67.0529Z" fill="white"/>
<path d="M21.4146 69.8863C21.3214 70.4884 20.8177 70.9102 20.2895 70.8284C19.7613 70.7467 19.4087 70.1923 19.5019 69.5902C19.5951 68.9881 20.0988 68.5663 20.627 68.648C21.1552 68.7298 21.5078 69.2842 21.4146 69.8863Z" fill="white"/>
<path d="M24.0812 72.3863C23.988 72.9884 23.4843 73.4102 22.9562 73.3284C22.428 73.2467 22.0754 72.6923 22.1686 72.0902C22.2618 71.4881 22.7655 71.0663 23.2937 71.148C23.8218 71.2298 24.1744 71.7841 24.0812 72.3863Z" fill="white"/>
<path d="M26.7479 74.5529C26.6547 75.155 26.151 75.5769 25.6228 75.4951C25.0947 75.4133 24.7421 74.859 24.8353 74.2569C24.9284 73.6548 25.4322 73.2329 25.9603 73.3147C26.4885 73.3964 26.8411 73.9508 26.7479 74.5529Z" fill="white"/>
<path d="M29.7479 76.3863C29.6547 76.9884 29.151 77.4102 28.6228 77.3284C28.0947 77.2467 27.7421 76.6923 27.8353 76.0902C27.9285 75.4881 28.4322 75.0663 28.9603 75.148C29.4885 75.2298 29.8411 75.7842 29.7479 76.3863Z" fill="white"/>
<path d="M32.9146 77.7196C32.8214 78.3217 32.3177 78.7435 31.7895 78.6618C31.2613 78.58 30.9087 78.0256 31.0019 77.4235C31.0951 76.8214 31.5988 76.3996 32.127 76.4814C32.6552 76.5631 33.0078 77.1175 32.9146 77.7196Z" fill="white"/>
<path d="M36.2479 78.5529C36.1547 79.155 35.651 79.5769 35.1228 79.4951C34.5947 79.4133 34.2421 78.859 34.3353 78.2569C34.4284 77.6548 34.9322 77.2329 35.4603 77.3147C35.9885 77.3964 36.3411 77.9508 36.2479 78.5529Z" fill="white"/>
<path d="M39.7479 79.0529C39.6547 79.655 39.151 80.0769 38.6228 79.9951C38.0947 79.9133 37.7421 79.359 37.8353 78.7569C37.9284 78.1548 38.4322 77.7329 38.9603 77.8147C39.4885 77.8964 39.8411 78.4508 39.7479 79.0529Z" fill="white"/>
<path d="M43.0812 79.0529C42.988 79.655 42.4843 80.0769 41.9562 79.9951C41.428 79.9133 41.0754 79.359 41.1686 78.7569C41.2618 78.1548 41.7655 77.7329 42.2937 77.8147C42.8218 77.8964 43.1744 78.4508 43.0812 79.0529Z" fill="white"/>
<path d="M46.5812 78.7196C46.488 79.3217 45.9843 79.7435 45.4562 79.6618C44.928 79.58 44.5754 79.0256 44.6686 78.4235C44.7618 77.8214 45.2655 77.3996 45.7937 77.4814C46.3218 77.5631 46.6744 78.1175 46.5812 78.7196Z" fill="white"/>
<path d="M50.0812 77.8863C49.988 78.4884 49.4843 78.9102 48.9562 78.8284C48.428 78.7467 48.0754 78.1923 48.1686 77.5902C48.2618 76.9881 48.7655 76.5663 49.2937 76.648C49.8218 76.7298 50.1744 77.2841 50.0812 77.8863Z" fill="white"/>
<path d="M53.4146 76.5529C53.3214 77.155 52.8177 77.5769 52.2895 77.4951C51.7613 77.4133 51.4087 76.859 51.5019 76.2569C51.5951 75.6548 52.0988 75.2329 52.627 75.3147C53.1552 75.3964 53.5078 75.9508 53.4146 76.5529Z" fill="white"/>
<path d="M56.5812 74.7196C56.488 75.3217 55.9843 75.7435 55.4562 75.6618C54.928 75.58 54.5754 75.0256 54.6686 74.4235C54.7618 73.8214 55.2655 73.3996 55.7937 73.4814C56.3218 73.5631 56.6744 74.1175 56.5812 74.7196Z" fill="white"/>
<path d="M59.5812 72.5529C59.488 73.155 58.9843 73.5769 58.4562 73.4951C57.928 73.4133 57.5754 72.859 57.6686 72.2569C57.7618 71.6548 58.2655 71.2329 58.7937 71.3147C59.3218 71.3964 59.6744 71.9508 59.5812 72.5529Z" fill="white"/>
<path d="M62.4146 70.0529C62.3214 70.655 61.8177 71.0769 61.2895 70.9951C60.7613 70.9133 60.4087 70.359 60.5019 69.7569C60.5951 69.1548 61.0988 68.7329 61.627 68.8147C62.1552 68.8964 62.5078 69.4508 62.4146 70.0529Z" fill="white"/>
<path d="M65.0812 67.3863C64.988 67.9884 64.4843 68.4102 63.9562 68.3284C63.428 68.2467 63.0754 67.6923 63.1686 67.0902C63.2618 66.4881 63.7655 66.0663 64.2937 66.148C64.8218 66.2298 65.1744 66.7841 65.0812 67.3863Z" fill="white"/>
<path d="M32.6667 82.0833C32.6667 82.8657 32.0324 83.5 31.25 83.5C30.4676 83.5 29.8333 82.8657 29.8333 82.0833C29.8333 81.3009 30.4676 80.6667 31.25 80.6667C32.0324 80.6667 32.6667 81.3009 32.6667 82.0833Z" fill="white"/>
<path d="M37.3333 83.0833C37.3333 83.8657 36.6991 84.5 35.9167 84.5C35.1343 84.5 34.5 83.8657 34.5 83.0833C34.5 82.3009 35.1343 81.6667 35.9167 81.6667C36.6991 81.6667 37.3333 82.3009 37.3333 83.0833Z" fill="white"/>
<path d="M42 83.5833C42 84.3657 41.3657 85 40.5833 85C39.8009 85 39.1667 84.3657 39.1667 83.5833C39.1667 82.8009 39.8009 82.1667 40.5833 82.1667C41.3657 82.1667 42 82.8009 42 83.5833Z" fill="white"/>
<path d="M47 83.5833C47 84.3657 46.3657 85 45.5833 85C44.8009 85 44.1667 84.3657 44.1667 83.5833C44.1667 82.8009 44.8009 82.1667 45.5833 82.1667C46.3657 82.1667 47 82.8009 47 83.5833Z" fill="white"/>
<path d="M51.6667 83.0833C51.6667 83.8657 51.0324 84.5 50.25 84.5C49.4676 84.5 48.8333 83.8657 48.8333 83.0833C48.8333 82.3009 49.4676 81.6667 50.25 81.6667C51.0324 81.6667 51.6667 82.3009 51.6667 83.0833Z" fill="white"/>
<path d="M56.3333 82.0833C56.3333 82.8657 55.6991 83.5 54.9167 83.5C54.1343 83.5 53.5 82.8657 53.5 82.0833C53.5 81.3009 54.1343 80.6667 54.9167 80.6667C55.6991 80.6667 56.3333 81.3009 56.3333 82.0833Z" fill="white"/>
<path d="M60.8333 80.25C60.8333 81.0324 60.1991 81.6667 59.4167 81.6667C58.6343 81.6667 58 81.0324 58 80.25C58 79.4676 58.6343 78.8333 59.4167 78.8333C60.1991 78.8333 60.8333 79.4676 60.8333 80.25Z" fill="white"/>
<path d="M65.1667 78.25C65.1667 79.0324 64.5324 79.6667 63.75 79.6667C62.9676 79.6667 62.3333 79.0324 62.3333 78.25C62.3333 77.4676 62.9676 76.8333 63.75 76.8333C64.5324 76.8333 65.1667 77.4676 65.1667 78.25Z" fill="white"/>
<path d="M69.1667 75.4167C69.1667 76.1991 68.5324 76.8333 67.75 76.8333C66.9676 76.8333 66.3333 76.1991 66.3333 75.4167C66.3333 74.6343 66.9676 74 67.75 74C68.5324 74 69.1667 74.6343 69.1667 75.4167Z" fill="white"/>
<path d="M72.8333 72.5833C72.8333 73.3657 72.1991 74 71.4167 74C70.6343 74 70 73.3657 70 72.5833C70 71.8009 70.6343 71.1667 71.4167 71.1667C72.1991 71.1667 72.8333 71.8009 72.8333 72.5833Z" fill="white"/>
<path d="M76.1667 68.9167C76.1667 69.6991 75.5324 70.3333 74.75 70.3333C73.9676 70.3333 73.3333 69.6991 73.3333 68.9167C73.3333 68.1343 73.9676 67.5 74.75 67.5C75.5324 67.5 76.1667 68.1343 76.1667 68.9167Z" fill="white"/>
<path d="M79 65.0833C79 65.8657 78.3657 66.5 77.5833 66.5C76.8009 66.5 76.1667 65.8657 76.1667 65.0833C76.1667 64.3009 76.8009 63.6667 77.5833 63.6667C78.3657 63.6667 79 64.3009 79 65.0833Z" fill="white"/>
<path d="M81.3333 60.9167C81.3333 61.6991 80.6991 62.3333 79.9167 62.3333C79.1343 62.3333 78.5 61.6991 78.5 60.9167C78.5 60.1343 79.1343 59.5 79.9167 59.5C80.6991 59.5 81.3333 60.1343 81.3333 60.9167Z" fill="white"/>
<path d="M83.3333 56.5833C83.3333 57.3657 82.6991 58 81.9167 58C81.1343 58 80.5 57.3657 80.5 56.5833C80.5 55.8009 81.1343 55.1667 81.9167 55.1667C82.6991 55.1667 83.3333 55.8009 83.3333 56.5833Z" fill="white"/>
<path d="M84.6667 52.0833C84.6667 52.8657 84.0324 53.5 83.25 53.5C82.4676 53.5 81.8333 52.8657 81.8333 52.0833C81.8333 51.3009 82.4676 50.6667 83.25 50.6667C84.0324 50.6667 84.6667 51.3009 84.6667 52.0833Z" fill="white"/>
<path d="M85.5 47.25C85.5 48.0324 84.8657 48.6667 84.0833 48.6667C83.3009 48.6667 82.6667 48.0324 82.6667 47.25C82.6667 46.4676 83.3009 45.8333 84.0833 45.8333C84.8657 45.8333 85.5 46.4676 85.5 47.25Z" fill="white"/>
<path d="M85.5 42.4167C85.5 43.1991 84.8657 43.8333 84.0833 43.8333C83.3009 43.8333 82.6667 43.1991 82.6667 42.4167C82.6667 41.6343 83.3009 41 84.0833 41C84.8657 41 85.5 41.6343 85.5 42.4167Z" fill="white"/>
<path d="M85.5 37.5833C85.5 38.3657 84.8657 39 84.0833 39C83.3009 39 82.6667 38.3657 82.6667 37.5833C82.6667 36.8009 83.3009 36.1667 84.0833 36.1667C84.8657 36.1667 85.5 36.8009 85.5 37.5833Z" fill="white"/>
<path d="M84.6667 33.0833C84.6667 33.8657 84.0324 34.5 83.25 34.5C82.4676 34.5 81.8333 33.8657 81.8333 33.0833C81.8333 32.3009 82.4676 31.6667 83.25 31.6667C84.0324 31.6667 84.6667 32.3009 84.6667 33.0833Z" fill="white"/>
<path d="M83.3333 28.25C83.3333 29.0324 82.6991 29.6667 81.9167 29.6667C81.1343 29.6667 80.5 29.0324 80.5 28.25C80.5 27.4676 81.1343 26.8333 81.9167 26.8333C82.6991 26.8333 83.3333 27.4676 83.3333 28.25Z" fill="white"/>
<path d="M81.3333 24.0833C81.3333 24.8657 80.6991 25.5 79.9167 25.5C79.1343 25.5 78.5 24.8657 78.5 24.0833C78.5 23.3009 79.1343 22.6667 79.9167 22.6667C80.6991 22.6667 81.3333 23.3009 81.3333 24.0833Z" fill="white"/>
<path d="M79 19.9167C79 20.6991 78.3657 21.3333 77.5833 21.3333C76.8009 21.3333 76.1667 20.6991 76.1667 19.9167C76.1667 19.1343 76.8009 18.5 77.5833 18.5C78.3657 18.5 79 19.1343 79 19.9167Z" fill="white"/>
<path d="M76.1667 16.25C76.1667 17.0324 75.5324 17.6667 74.75 17.6667C73.9676 17.6667 73.3333 17.0324 73.3333 16.25C73.3333 15.4676 73.9676 14.8333 74.75 14.8333C75.5324 14.8333 76.1667 15.4676 76.1667 16.25Z" fill="white"/>
<path d="M72.6667 12.4167C72.6667 13.1991 72.0324 13.8333 71.25 13.8333C70.4676 13.8333 69.8333 13.1991 69.8333 12.4167C69.8333 11.6343 70.4676 11 71.25 11C72.0324 11 72.6667 11.6343 72.6667 12.4167Z" fill="white"/>
<path d="M69.1667 9.58333C69.1667 10.3657 68.5324 11 67.75 11C66.9676 11 66.3333 10.3657 66.3333 9.58333C66.3333 8.80093 66.9676 8.16667 67.75 8.16667C68.5324 8.16667 69.1667 8.80093 69.1667 9.58333Z" fill="white"/>
<path d="M65.1667 6.75C65.1667 7.5324 64.5324 8.16667 63.75 8.16667C62.9676 8.16667 62.3333 7.5324 62.3333 6.75C62.3333 5.9676 62.9676 5.33333 63.75 5.33333C64.5324 5.33333 65.1667 5.9676 65.1667 6.75Z" fill="white"/>
<path d="M61 4.75C61 5.5324 60.3657 6.16667 59.5833 6.16667C58.8009 6.16667 58.1667 5.5324 58.1667 4.75C58.1667 3.9676 58.8009 3.33333 59.5833 3.33333C60.3657 3.33333 61 3.9676 61 4.75Z" fill="white"/>
<path d="M56.3333 2.91667C56.3333 3.69907 55.6991 4.33333 54.9167 4.33333C54.1343 4.33333 53.5 3.69907 53.5 2.91667C53.5 2.13426 54.1343 1.5 54.9167 1.5C55.6991 1.5 56.3333 2.13426 56.3333 2.91667Z" fill="white"/>
<path d="M51.8333 1.91667C51.8333 2.69907 51.1991 3.33333 50.4167 3.33333C49.6343 3.33333 49 2.69907 49 1.91667C49 1.13426 49.6343 0.5 50.4167 0.5C51.1991 0.5 51.8333 1.13426 51.8333 1.91667Z" fill="white"/>
<path d="M46.8333 1.41667C46.8333 2.19907 46.1991 2.83333 45.4167 2.83333C44.6343 2.83333 44 2.19907 44 1.41667C44 0.634263 44.6343 0 45.4167 0C46.1991 0 46.8333 0.634263 46.8333 1.41667Z" fill="white"/>
<path d="M42.3333 1.41667C42.3333 2.19907 41.6991 2.83333 40.9167 2.83333C40.1343 2.83333 39.5 2.19907 39.5 1.41667C39.5 0.634263 40.1343 0 40.9167 0C41.6991 0 42.3333 0.634263 42.3333 1.41667Z" fill="white"/>
<path d="M37.3333 1.91667C37.3333 2.69907 36.6991 3.33333 35.9167 3.33333C35.1343 3.33333 34.5 2.69907 34.5 1.91667C34.5 1.13426 35.1343 0.5 35.9167 0.5C36.6991 0.5 37.3333 1.13426 37.3333 1.91667Z" fill="white"/>
<path d="M32.6667 2.91667C32.6667 3.69907 32.0324 4.33333 31.25 4.33333C30.4676 4.33333 29.8333 3.69907 29.8333 2.91667C29.8333 2.13426 30.4676 1.5 31.25 1.5C32.0324 1.5 32.6667 2.13426 32.6667 2.91667Z" fill="white"/>
<path d="M28.3333 4.75C28.3333 5.5324 27.6991 6.16667 26.9167 6.16667C26.1343 6.16667 25.5 5.5324 25.5 4.75C25.5 3.9676 26.1343 3.33333 26.9167 3.33333C27.6991 3.33333 28.3333 3.9676 28.3333 4.75Z" fill="white"/>
<path d="M23.8333 6.91667C23.8333 7.69907 23.1991 8.33333 22.4167 8.33333C21.6343 8.33333 21 7.69907 21 6.91667C21 6.13426 21.6343 5.5 22.4167 5.5C23.1991 5.5 23.8333 6.13426 23.8333 6.91667Z" fill="white"/>
<path d="M19.8333 9.41667C19.8333 10.1991 19.1991 10.8333 18.4167 10.8333C17.6343 10.8333 17 10.1991 17 9.41667C17 8.63426 17.6343 8 18.4167 8C19.1991 8 19.8333 8.63426 19.8333 9.41667Z" fill="white"/>
<path d="M16.1667 12.5833C16.1667 13.3657 15.5324 14 14.75 14C13.9676 14 13.3333 13.3657 13.3333 12.5833C13.3333 11.8009 13.9676 11.1667 14.75 11.1667C15.5324 11.1667 16.1667 11.8009 16.1667 12.5833Z" fill="white"/>
<path d="M13 16.0833C13 16.8657 12.3657 17.5 11.5833 17.5C10.8009 17.5 10.1667 16.8657 10.1667 16.0833C10.1667 15.3009 10.8009 14.6667 11.5833 14.6667C12.3657 14.6667 13 15.3009 13 16.0833Z" fill="white"/>
<path d="M10.1667 19.9167C10.1667 20.6991 9.5324 21.3333 8.75 21.3333C7.9676 21.3333 7.33333 20.6991 7.33333 19.9167C7.33333 19.1343 7.9676 18.5 8.75 18.5C9.5324 18.5 10.1667 19.1343 10.1667 19.9167Z" fill="white"/>
<path d="M7.66667 24.0833C7.66667 24.8657 7.0324 25.5 6.25 25.5C5.4676 25.5 4.83333 24.8657 4.83333 24.0833C4.83333 23.3009 5.4676 22.6667 6.25 22.6667C7.0324 22.6667 7.66667 23.3009 7.66667 24.0833Z" fill="white"/>
<path d="M5.66667 28.4167C5.66667 29.1991 5.0324 29.8333 4.25 29.8333C3.4676 29.8333 2.83333 29.1991 2.83333 28.4167C2.83333 27.6343 3.4676 27 4.25 27C5.0324 27 5.66667 27.6343 5.66667 28.4167Z" fill="white"/>
<path d="M4.33333 32.9167C4.33333 33.6991 3.69907 34.3333 2.91667 34.3333C2.13426 34.3333 1.5 33.6991 1.5 32.9167C1.5 32.1343 2.13426 31.5 2.91667 31.5C3.69907 31.5 4.33333 32.1343 4.33333 32.9167Z" fill="white"/>
<path d="M3.66667 37.9167C3.66667 38.6991 3.0324 39.3333 2.25 39.3333C1.4676 39.3333 0.833333 38.6991 0.833333 37.9167C0.833333 37.1343 1.4676 36.5 2.25 36.5C3.0324 36.5 3.66667 37.1343 3.66667 37.9167Z" fill="white"/>
<path d="M3.33333 42.75C3.33333 43.5324 2.69907 44.1667 1.91667 44.1667C1.13426 44.1667 0.5 43.5324 0.5 42.75C0.5 41.9676 1.13426 41.3333 1.91667 41.3333C2.69907 41.3333 3.33333 41.9676 3.33333 42.75Z" fill="white"/>
<path d="M3.66667 47.25C3.66667 48.0324 3.0324 48.6667 2.25 48.6667C1.4676 48.6667 0.833333 48.0324 0.833333 47.25C0.833333 46.4676 1.4676 45.8333 2.25 45.8333C3.0324 45.8333 3.66667 46.4676 3.66667 47.25Z" fill="white"/>
<path d="M4.33333 52.0833C4.33333 52.8657 3.69907 53.5 2.91667 53.5C2.13426 53.5 1.5 52.8657 1.5 52.0833C1.5 51.3009 2.13426 50.6667 2.91667 50.6667C3.69907 50.6667 4.33333 51.3009 4.33333 52.0833Z" fill="white"/>
<path d="M5.83333 56.5833C5.83333 57.3657 5.19907 58 4.41667 58C3.63426 58 3 57.3657 3 56.5833C3 55.8009 3.63426 55.1667 4.41667 55.1667C5.19907 55.1667 5.83333 55.8009 5.83333 56.5833Z" fill="white"/>
<path d="M7.66667 60.9167C7.66667 61.6991 7.0324 62.3333 6.25 62.3333C5.4676 62.3333 4.83333 61.6991 4.83333 60.9167C4.83333 60.1343 5.4676 59.5 6.25 59.5C7.0324 59.5 7.66667 60.1343 7.66667 60.9167Z" fill="white"/>
<path d="M10.1667 65.0833C10.1667 65.8657 9.5324 66.5 8.75 66.5C7.9676 66.5 7.33333 65.8657 7.33333 65.0833C7.33333 64.3009 7.9676 63.6667 8.75 63.6667C9.5324 63.6667 10.1667 64.3009 10.1667 65.0833Z" fill="white"/>
<path d="M13 68.9167C13 69.6991 12.3657 70.3333 11.5833 70.3333C10.8009 70.3333 10.1667 69.6991 10.1667 68.9167C10.1667 68.1343 10.8009 67.5 11.5833 67.5C12.3657 67.5 13 68.1343 13 68.9167Z" fill="white"/>
<path d="M16.3333 72.5833C16.3333 73.3657 15.6991 74 14.9167 74C14.1343 74 13.5 73.3657 13.5 72.5833C13.5 71.8009 14.1343 71.1667 14.9167 71.1667C15.6991 71.1667 16.3333 71.8009 16.3333 72.5833Z" fill="white"/>
<path d="M19.8333 75.4167C19.8333 76.1991 19.1991 76.8333 18.4167 76.8333C17.6343 76.8333 17 76.1991 17 75.4167C17 74.6343 17.6343 74 18.4167 74C19.1991 74 19.8333 74.6343 19.8333 75.4167Z" fill="white"/>
<path d="M23.8333 78.25C23.8333 79.0324 23.1991 79.6667 22.4167 79.6667C21.6343 79.6667 21 79.0324 21 78.25C21 77.4676 21.6343 76.8333 22.4167 76.8333C23.1991 76.8333 23.8333 77.4676 23.8333 78.25Z" fill="white"/>
<path d="M28.3333 80.25C28.3333 81.0324 27.6991 81.6667 26.9167 81.6667C26.1343 81.6667 25.5 81.0324 25.5 80.25C25.5 79.4676 26.1343 78.8333 26.9167 78.8333C27.6991 78.8333 28.3333 79.4676 28.3333 80.25Z" fill="white"/>
<path d="M24.3333 38.25C24.3333 38.6642 23.9975 39 23.5833 39C23.1691 39 22.8333 38.6642 22.8333 38.25C22.8333 37.8358 23.1691 37.5 23.5833 37.5C23.9975 37.5 24.3333 37.8358 24.3333 38.25Z" fill="white"/>
<path d="M25.3333 35.9167C25.3333 36.3309 24.9975 36.6667 24.5833 36.6667C24.1691 36.6667 23.8333 36.3309 23.8333 35.9167C23.8333 35.5025 24.1691 35.1667 24.5833 35.1667C24.9975 35.1667 25.3333 35.5025 25.3333 35.9167Z" fill="white"/>
<path d="M26.8333 33.75C26.8333 34.1642 26.4975 34.5 26.0833 34.5C25.6691 34.5 25.3333 34.1642 25.3333 33.75C25.3333 33.3358 25.6691 33 26.0833 33C26.4975 33 26.8333 33.3358 26.8333 33.75Z" fill="white"/>
<path d="M28.3333 31.75C28.3333 32.1642 27.9975 32.5 27.5833 32.5C27.1691 32.5 26.8333 32.1642 26.8333 31.75C26.8333 31.3358 27.1691 31 27.5833 31C27.9975 31 28.3333 31.3358 28.3333 31.75Z" fill="white"/>
<path d="M30.1667 30.0833C30.1667 30.4975 29.8309 30.8333 29.4167 30.8333C29.0025 30.8333 28.6667 30.4975 28.6667 30.0833C28.6667 29.6691 29.0025 29.3333 29.4167 29.3333C29.8309 29.3333 30.1667 29.6691 30.1667 30.0833Z" fill="white"/>
<path d="M32.1667 28.5833C32.1667 28.9975 31.8309 29.3333 31.4167 29.3333C31.0025 29.3333 30.6667 28.9975 30.6667 28.5833C30.6667 28.1691 31.0025 27.8333 31.4167 27.8333C31.8309 27.8333 32.1667 28.1691 32.1667 28.5833Z" fill="white"/>
<path d="M34.5 27.25C34.5 27.6642 34.1642 28 33.75 28C33.3358 28 33 27.6642 33 27.25C33 26.8358 33.3358 26.5 33.75 26.5C34.1642 26.5 34.5 26.8358 34.5 27.25Z" fill="white"/>
<path d="M36.8333 26.4167C36.8333 26.8309 36.4975 27.1667 36.0833 27.1667C35.6691 27.1667 35.3333 26.8309 35.3333 26.4167C35.3333 26.0025 35.6691 25.6667 36.0833 25.6667C36.4975 25.6667 36.8333 26.0025 36.8333 26.4167Z" fill="white"/>
<path d="M39.1667 25.75C39.1667 26.1642 38.8309 26.5 38.4167 26.5C38.0025 26.5 37.6667 26.1642 37.6667 25.75C37.6667 25.3358 38.0025 25 38.4167 25C38.8309 25 39.1667 25.3358 39.1667 25.75Z" fill="white"/>
<path d="M41.8333 25.4167C41.8333 25.8309 41.4975 26.1667 41.0833 26.1667C40.6691 26.1667 40.3333 25.8309 40.3333 25.4167C40.3333 25.0025 40.6691 24.6667 41.0833 24.6667C41.4975 24.6667 41.8333 25.0025 41.8333 25.4167Z" fill="white"/>
<path d="M44.3333 25.25C44.3333 25.6642 43.9975 26 43.5833 26C43.1691 26 42.8333 25.6642 42.8333 25.25C42.8333 24.8358 43.1691 24.5 43.5833 24.5C43.9975 24.5 44.3333 24.8358 44.3333 25.25Z" fill="white"/>
<path d="M46.8333 25.5833C46.8333 25.9975 46.4975 26.3333 46.0833 26.3333C45.6691 26.3333 45.3333 25.9975 45.3333 25.5833C45.3333 25.1691 45.6691 24.8333 46.0833 24.8333C46.4975 24.8333 46.8333 25.1691 46.8333 25.5833Z" fill="white"/>
<path d="M49.3333 26.0833C49.3333 26.4975 48.9976 26.8333 48.5833 26.8333C48.1691 26.8333 47.8333 26.4975 47.8333 26.0833C47.8333 25.6691 48.1691 25.3333 48.5833 25.3333C48.9976 25.3333 49.3333 25.6691 49.3333 26.0833Z" fill="white"/>
<path d="M51.8333 26.9167C51.8333 27.3309 51.4976 27.6667 51.0833 27.6667C50.6691 27.6667 50.3333 27.3309 50.3333 26.9167C50.3333 26.5025 50.6691 26.1667 51.0833 26.1667C51.4976 26.1667 51.8333 26.5025 51.8333 26.9167Z" fill="white"/>
<path d="M54.1667 28.25C54.1667 28.6642 53.8309 29 53.4167 29C53.0025 29 52.6667 28.6642 52.6667 28.25C52.6667 27.8358 53.0025 27.5 53.4167 27.5C53.8309 27.5 54.1667 27.8358 54.1667 28.25Z" fill="white"/>
<path d="M56.3333 29.5833C56.3333 29.9975 55.9975 30.3333 55.5833 30.3333C55.1691 30.3333 54.8333 29.9975 54.8333 29.5833C54.8333 29.1691 55.1691 28.8333 55.5833 28.8333C55.9975 28.8333 56.3333 29.1691 56.3333 29.5833Z" fill="white"/>
<path d="M58.5 31.25C58.5 31.6642 58.1642 32 57.75 32C57.3358 32 57 31.6642 57 31.25C57 30.8358 57.3358 30.5 57.75 30.5C58.1642 30.5 58.5 30.8358 58.5 31.25Z" fill="white"/>
<path d="M60.3333 33.0833C60.3333 33.4975 59.9975 33.8333 59.5833 33.8333C59.1691 33.8333 58.8333 33.4975 58.8333 33.0833C58.8333 32.6691 59.1691 32.3333 59.5833 32.3333C59.9975 32.3333 60.3333 32.6691 60.3333 33.0833Z" fill="white"/>
<path d="M62 35.25C62 35.6642 61.6642 36 61.25 36C60.8358 36 60.5 35.6642 60.5 35.25C60.5 34.8358 60.8358 34.5 61.25 34.5C61.6642 34.5 62 34.8358 62 35.25Z" fill="white"/>
<path d="M63.5 37.5833C63.5 37.9975 63.1642 38.3333 62.75 38.3333C62.3358 38.3333 62 37.9975 62 37.5833C62 37.1691 62.3358 36.8333 62.75 36.8333C63.1642 36.8333 63.5 37.1691 63.5 37.5833Z" fill="white"/>
<path d="M64.6667 39.9167C64.6667 40.3309 64.3309 40.6667 63.9167 40.6667C63.5025 40.6667 63.1667 40.3309 63.1667 39.9167C63.1667 39.5025 63.5025 39.1667 63.9167 39.1667C64.3309 39.1667 64.6667 39.5025 64.6667 39.9167Z" fill="white"/>
<path d="M65.5 42.4167C65.5 42.8309 65.1642 43.1667 64.75 43.1667C64.3358 43.1667 64 42.8309 64 42.4167C64 42.0025 64.3358 41.6667 64.75 41.6667C65.1642 41.6667 65.5 42.0025 65.5 42.4167Z" fill="white"/>
<path d="M66.1667 45.0833C66.1667 45.4976 65.8309 45.8333 65.4167 45.8333C65.0025 45.8333 64.6667 45.4976 64.6667 45.0833C64.6667 44.6691 65.0025 44.3333 65.4167 44.3333C65.8309 44.3333 66.1667 44.6691 66.1667 45.0833Z" fill="white"/>
<path d="M66.5 47.75C66.5 48.1642 66.1642 48.5 65.75 48.5C65.3358 48.5 65 48.1642 65 47.75C65 47.3358 65.3358 47 65.75 47C66.1642 47 66.5 47.3358 66.5 47.75Z" fill="white"/>
<path d="M66.5 50.4167C66.5 50.8309 66.1642 51.1667 65.75 51.1667C65.3358 51.1667 65 50.8309 65 50.4167C65 50.0025 65.3358 49.6667 65.75 49.6667C66.1642 49.6667 66.5 50.0025 66.5 50.4167Z" fill="white"/>
<path d="M66.3333 53.0833C66.3333 53.4976 65.9975 53.8333 65.5833 53.8333C65.1691 53.8333 64.8333 53.4976 64.8333 53.0833C64.8333 52.6691 65.1691 52.3333 65.5833 52.3333C65.9975 52.3333 66.3333 52.6691 66.3333 53.0833Z" fill="white"/>
<path d="M65.6667 55.5833C65.6667 55.9976 65.3309 56.3333 64.9167 56.3333C64.5025 56.3333 64.1667 55.9976 64.1667 55.5833C64.1667 55.1691 64.5025 54.8333 64.9167 54.8333C65.3309 54.8333 65.6667 55.1691 65.6667 55.5833Z" fill="white"/>
<path d="M64.8333 58.0833C64.8333 58.4976 64.4976 58.8333 64.0833 58.8333C63.6691 58.8333 63.3333 58.4976 63.3333 58.0833C63.3333 57.6691 63.6691 57.3333 64.0833 57.3333C64.4976 57.3333 64.8333 57.6691 64.8333 58.0833Z" fill="white"/>
<path d="M63.6667 60.4167C63.6667 60.8309 63.3309 61.1667 62.9167 61.1667C62.5025 61.1667 62.1667 60.8309 62.1667 60.4167C62.1667 60.0025 62.5025 59.6667 62.9167 59.6667C63.3309 59.6667 63.6667 60.0025 63.6667 60.4167Z" fill="white"/>
<path d="M62.3333 62.5833C62.3333 62.9976 61.9975 63.3333 61.5833 63.3333C61.1691 63.3333 60.8333 62.9976 60.8333 62.5833C60.8333 62.1691 61.1691 61.8333 61.5833 61.8333C61.9975 61.8333 62.3333 62.1691 62.3333 62.5833Z" fill="white"/>
<path d="M60.8333 64.5833C60.8333 64.9975 60.4975 65.3333 60.0833 65.3333C59.6691 65.3333 59.3333 64.9975 59.3333 64.5833C59.3333 64.1691 59.6691 63.8333 60.0833 63.8333C60.4975 63.8333 60.8333 64.1691 60.8333 64.5833Z" fill="white"/>
<path d="M59 66.25C59 66.6642 58.6642 67 58.25 67C57.8358 67 57.5 66.6642 57.5 66.25C57.5 65.8358 57.8358 65.5 58.25 65.5C58.6642 65.5 59 65.8358 59 66.25Z" fill="white"/>
<path d="M57 67.75C57 68.1642 56.6642 68.5 56.25 68.5C55.8358 68.5 55.5 68.1642 55.5 67.75C55.5 67.3358 55.8358 67 56.25 67C56.6642 67 57 67.3358 57 67.75Z" fill="white"/>
<path d="M54.6667 69.0833C54.6667 69.4976 54.3309 69.8333 53.9167 69.8333C53.5025 69.8333 53.1667 69.4976 53.1667 69.0833C53.1667 68.6691 53.5025 68.3333 53.9167 68.3333C54.3309 68.3333 54.6667 68.6691 54.6667 69.0833Z" fill="white"/>
<path d="M52.3333 69.9167C52.3333 70.3309 51.9975 70.6667 51.5833 70.6667C51.1691 70.6667 50.8333 70.3309 50.8333 69.9167C50.8333 69.5025 51.1691 69.1667 51.5833 69.1667C51.9975 69.1667 52.3333 69.5025 52.3333 69.9167Z" fill="white"/>
<path d="M50 70.5833C50 70.9975 49.6642 71.3333 49.25 71.3333C48.8358 71.3333 48.5 70.9975 48.5 70.5833C48.5 70.1691 48.8358 69.8333 49.25 69.8333C49.6642 69.8333 50 70.1691 50 70.5833Z" fill="white"/>
<path d="M44.8333 71.0833C44.8333 71.4975 44.4975 71.8333 44.0833 71.8333C43.6691 71.8333 43.3333 71.4975 43.3333 71.0833C43.3333 70.6691 43.6691 70.3333 44.0833 70.3333C44.4975 70.3333 44.8333 70.6691 44.8333 71.0833Z" fill="white"/>
<path d="M42.3333 70.75C42.3333 71.1642 41.9975 71.5 41.5833 71.5C41.1691 71.5 40.8333 71.1642 40.8333 70.75C40.8333 70.3358 41.1691 70 41.5833 70C41.9975 70 42.3333 70.3358 42.3333 70.75Z" fill="white"/>
<path d="M39.8333 70.25C39.8333 70.6642 39.4975 71 39.0833 71C38.6691 71 38.3333 70.6642 38.3333 70.25C38.3333 69.8358 38.6691 69.5 39.0833 69.5C39.4975 69.5 39.8333 69.8358 39.8333 70.25Z" fill="white"/>
<path d="M37.3333 69.25C37.3333 69.6642 36.9975 70 36.5833 70C36.1691 70 35.8333 69.6642 35.8333 69.25C35.8333 68.8358 36.1691 68.5 36.5833 68.5C36.9975 68.5 37.3333 68.8358 37.3333 69.25Z" fill="white"/>
<path d="M35 68.0833C35 68.4976 34.6642 68.8333 34.25 68.8333C33.8358 68.8333 33.5 68.4976 33.5 68.0833C33.5 67.6691 33.8358 67.3333 34.25 67.3333C34.6642 67.3333 35 67.6691 35 68.0833Z" fill="white"/>
<path d="M32.6667 66.75C32.6667 67.1642 32.3309 67.5 31.9167 67.5C31.5025 67.5 31.1667 67.1642 31.1667 66.75C31.1667 66.3358 31.5025 66 31.9167 66C32.3309 66 32.6667 66.3358 32.6667 66.75Z" fill="white"/>
<path d="M30.6667 65.0833C30.6667 65.4975 30.3309 65.8333 29.9167 65.8333C29.5025 65.8333 29.1667 65.4975 29.1667 65.0833C29.1667 64.6691 29.5025 64.3333 29.9167 64.3333C30.3309 64.3333 30.6667 64.6691 30.6667 65.0833Z" fill="white"/>
<path d="M28.8333 63.0833C28.8333 63.4976 28.4975 63.8333 28.0833 63.8333C27.6691 63.8333 27.3333 63.4976 27.3333 63.0833C27.3333 62.6691 27.6691 62.3333 28.0833 62.3333C28.4975 62.3333 28.8333 62.6691 28.8333 63.0833Z" fill="white"/>
<path d="M27.1667 61.0833C27.1667 61.4975 26.8309 61.8333 26.4167 61.8333C26.0025 61.8333 25.6667 61.4975 25.6667 61.0833C25.6667 60.6691 26.0025 60.3333 26.4167 60.3333C26.8309 60.3333 27.1667 60.6691 27.1667 61.0833Z" fill="white"/>
<path d="M25.6667 58.75C25.6667 59.1642 25.3309 59.5 24.9167 59.5C24.5025 59.5 24.1667 59.1642 24.1667 58.75C24.1667 58.3358 24.5025 58 24.9167 58C25.3309 58 25.6667 58.3358 25.6667 58.75Z" fill="white"/>
<path d="M24.5 56.25C24.5 56.6642 24.1642 57 23.75 57C23.3358 57 23 56.6642 23 56.25C23 55.8358 23.3358 55.5 23.75 55.5C24.1642 55.5 24.5 55.8358 24.5 56.25Z" fill="white"/>
<path d="M23.6667 53.75C23.6667 54.1642 23.3309 54.5 22.9167 54.5C22.5025 54.5 22.1667 54.1642 22.1667 53.75C22.1667 53.3358 22.5025 53 22.9167 53C23.3309 53 23.6667 53.3358 23.6667 53.75Z" fill="white"/>
<path d="M23 51.0833C23 51.4975 22.6642 51.8333 22.25 51.8333C21.8358 51.8333 21.5 51.4975 21.5 51.0833C21.5 50.6691 21.8358 50.3333 22.25 50.3333C22.6642 50.3333 23 50.6691 23 51.0833Z" fill="white"/>
<path d="M22.6667 48.5833C22.6667 48.9975 22.3309 49.3333 21.9167 49.3333C21.5025 49.3333 21.1667 48.9975 21.1667 48.5833C21.1667 48.1691 21.5025 47.8333 21.9167 47.8333C22.3309 47.8333 22.6667 48.1691 22.6667 48.5833Z" fill="white"/>
<path d="M22.6667 45.9167C22.6667 46.3309 22.3309 46.6667 21.9167 46.6667C21.5025 46.6667 21.1667 46.3309 21.1667 45.9167C21.1667 45.5025 21.5025 45.1667 21.9167 45.1667C22.3309 45.1667 22.6667 45.5025 22.6667 45.9167Z" fill="white"/>
<path d="M22.8333 43.25C22.8333 43.6642 22.4975 44 22.0833 44C21.6691 44 21.3333 43.6642 21.3333 43.25C21.3333 42.8358 21.6691 42.5 22.0833 42.5C22.4975 42.5 22.8333 42.8358 22.8333 43.25Z" fill="white"/>
<path d="M23.5 40.5833C23.5 40.9975 23.1642 41.3333 22.75 41.3333C22.3358 41.3333 22 40.9975 22 40.5833C22 40.1691 22.3358 39.8333 22.75 39.8333C23.1642 39.8333 23.5 40.1691 23.5 40.5833Z" fill="white"/>
<path d="M47.5 70.9167C47.5 71.3309 47.1642 71.6667 46.75 71.6667C46.3358 71.6667 46 71.3309 46 70.9167C46 70.5025 46.3358 70.1667 46.75 70.1667C47.1642 70.1667 47.5 70.5025 47.5 70.9167Z" fill="white"/>
</svg>
