<svg width="70" height="70" viewBox="0 0 70 70" fill="none" xmlns="http://www.w3.org/2000/svg">
<path d="M1.96139e-09 35C0.000152588 13.125 6.25015 1.70805e-05 35 0C63.7498 -1.70804e-05 70 11.5625 70 35C70 60 59.3752 70 35 70C13.4375 70 -0.000187461 61.875 1.96139e-09 35Z" fill="#2481C2"/>
<g clip-path="url(#clip0_2339_2825)">
<path fill-rule="evenodd" clip-rule="evenodd" d="M46.9866 22.621C43.8048 19.4364 39.5746 17.6811 35.0682 17.6797C25.782 17.6797 18.224 25.2362 18.2198 34.5267C18.2184 37.496 18.9947 40.3945 20.4695 42.9502L18.0781 51.6797L27.0088 49.3365C29.4695 50.6795 32.2405 51.3864 35.0597 51.3879H35.0668C44.3516 51.3879 51.911 43.8299 51.9152 34.5394C51.918 30.0387 50.167 25.8043 46.9866 22.621ZM35.0682 48.5418H35.0625C32.5494 48.5418 30.0858 47.866 27.9353 46.5896L27.4239 46.2864L22.1241 47.6762L23.5394 42.5082L23.2065 41.9784C21.804 39.7485 21.0645 37.1716 21.0659 34.5267C21.0687 26.8059 27.3516 20.5244 35.0753 20.5244C38.8153 20.5244 42.3315 21.9835 44.975 24.6299C47.6185 27.2776 49.0734 30.7952 49.072 34.5366C49.0677 42.2603 42.7862 48.5418 35.0682 48.5418ZM42.7494 38.0542C42.3286 37.8431 40.2589 36.8245 39.8721 36.6843C39.4868 36.544 39.2063 36.4732 38.9244 36.8939C38.6425 37.3147 37.8378 38.2639 37.5913 38.5458C37.3462 38.8263 37.0997 38.8617 36.679 38.6506C36.2582 38.4395 34.901 37.9961 33.2931 36.561C32.0422 35.4447 31.1965 34.0663 30.9514 33.6441C30.7063 33.2219 30.9259 32.9953 31.1355 32.7856C31.3254 32.5972 31.5563 32.294 31.7674 32.0475C31.9799 31.8039 32.0493 31.6282 32.191 31.3463C32.3312 31.0658 32.2618 30.8193 32.1555 30.6082C32.0493 30.3985 31.2078 28.3259 30.8579 27.483C30.5165 26.6614 30.1694 26.7733 29.9101 26.7605C29.665 26.7478 29.3845 26.7464 29.1026 26.7464C28.8221 26.7464 28.366 26.8512 27.9806 27.2734C27.5953 27.6955 26.5073 28.7141 26.5073 30.7853C26.5073 32.8579 28.016 34.8596 28.2257 35.1401C28.4354 35.4206 31.1936 39.6734 35.4167 41.4967C36.4211 41.9302 37.206 42.1894 37.8165 42.3835C38.8252 42.7037 39.7432 42.6584 40.4685 42.5507C41.2775 42.4303 42.959 41.5321 43.3104 40.5489C43.6617 39.5658 43.6617 38.7214 43.5555 38.5472C43.4506 38.3701 43.1701 38.2653 42.7494 38.0542Z" fill="white"/>
</g>
<defs>
<clipPath id="clip0_2339_2825">
<rect width="34" height="34" fill="white" transform="translate(18 17.6797)"/>
</clipPath>
</defs>
</svg>
