<svg width="70" height="70" viewBox="0 0 70 70" fill="none" xmlns="http://www.w3.org/2000/svg">
<path d="M1.96139e-09 35C0.000152588 13.125 6.25015 1.70805e-05 35 0C63.7498 -1.70804e-05 70 11.5625 70 35C70 60 59.3752 70 35 70C13.4375 70 -0.000187461 61.875 1.96139e-09 35Z" fill="#2481C2"/>
<path d="M34.5508 55.7734C34.5063 55.7927 34.4674 55.8228 34.4375 55.861L34.4726 55.8387C34.4965 55.8167 34.5302 55.7908 34.5508 55.7734Z" fill="white"/>
<path d="M36.1864 32.8C34.4185 33.5589 32.4121 34.4195 29.8118 34.4195C28.7241 34.4173 27.6415 34.2676 26.5938 33.9746L28.3922 52.4903C28.4558 53.264 28.8074 53.9856 29.3771 54.5116C29.9467 55.0376 30.6928 55.3294 31.4672 55.3294C31.4672 55.3294 34.0172 55.4621 34.868 55.4621C35.7838 55.4621 38.5297 55.3294 38.5297 55.3294C39.304 55.3294 40.0499 55.0372 40.6195 54.5112C41.189 53.9853 41.5405 53.264 41.6041 52.4903L43.5303 32.0297C42.6695 31.7349 41.8008 31.5391 40.8215 31.5391C39.1277 31.5384 37.763 32.1234 36.1864 32.8Z" fill="white"/>
<path d="M51.8484 23.1919L51.5775 21.8221C51.3345 20.5931 50.783 19.4317 49.5249 18.9875C49.1216 18.8454 48.664 18.7843 48.3548 18.4902C48.0456 18.196 47.9542 17.7392 47.8827 17.3156C47.7503 16.538 47.6258 15.7598 47.49 14.9836C47.3729 14.3163 47.2802 13.5667 46.9749 12.9544C46.5776 12.1324 45.7532 11.6517 44.9335 11.3336C44.5134 11.1764 44.0848 11.0434 43.6496 10.9352C41.6015 10.3934 39.4482 10.1942 37.3412 10.0807C34.8122 9.94073 32.2765 9.9829 29.7535 10.2068C27.8757 10.3781 25.8978 10.5853 24.1133 11.2367C23.4611 11.4751 22.789 11.7612 22.2931 12.2665C21.6845 12.8874 21.4859 13.8475 21.9302 14.6217C22.2461 15.1715 22.7811 15.56 23.3486 15.8169C24.0877 16.148 24.8596 16.4 25.6515 16.5686C27.8565 17.0573 30.1403 17.2492 32.3929 17.3309C34.8897 17.4319 37.3904 17.35 39.8753 17.0858C40.4898 17.0181 41.1031 16.9369 41.7154 16.8422C42.4365 16.7312 42.8993 15.7857 42.6868 15.127C42.4325 14.3396 41.7491 14.0341 40.9765 14.153C40.8625 14.1709 40.7493 14.1875 40.6354 14.2041L40.5533 14.216C40.2915 14.2493 40.0298 14.2802 39.768 14.309C39.2272 14.3674 38.6852 14.4152 38.1418 14.4524C36.9247 14.5374 35.7044 14.5766 34.4847 14.5786C33.2862 14.5786 32.087 14.5447 30.8911 14.4657C30.3455 14.4299 29.8012 14.3842 29.2583 14.3289C29.0113 14.303 28.765 14.2758 28.5187 14.2452L28.2842 14.2154L28.2333 14.2081L27.9903 14.1729C27.4936 14.0978 26.997 14.0115 26.5057 13.9073C26.4561 13.8962 26.4118 13.8686 26.38 13.8289C26.3482 13.7892 26.3309 13.7397 26.3309 13.6888C26.3309 13.6379 26.3482 13.5885 26.38 13.5488C26.4118 13.5091 26.4561 13.4814 26.5057 13.4704H26.515C26.9407 13.3794 27.3698 13.3017 27.8002 13.234C27.9437 13.2114 28.0876 13.1893 28.2319 13.1676H28.2359C28.5054 13.1497 28.7762 13.1012 29.0444 13.0693C31.3776 12.826 33.7247 12.743 36.0692 12.821C37.2074 12.8542 38.345 12.9212 39.478 13.0368C39.7216 13.062 39.964 13.0886 40.2063 13.1185C40.299 13.1297 40.3924 13.143 40.4858 13.1543L40.6738 13.1815C41.2221 13.2634 41.7675 13.3628 42.31 13.4797C43.1139 13.655 44.1462 13.7121 44.5037 14.5952C44.6176 14.8754 44.6693 15.1868 44.7322 15.4809L44.8123 15.8561C44.8144 15.8628 44.8159 15.8697 44.8169 15.8767C45.0063 16.762 45.1959 17.6473 45.3857 18.5327C45.3996 18.5981 45.4 18.6656 45.3867 18.7312C45.3734 18.7967 45.3468 18.8588 45.3085 18.9136C45.2703 18.9683 45.2211 19.0146 45.1642 19.0495C45.1073 19.0844 45.0439 19.1071 44.9778 19.1163H44.9725L44.8566 19.1323L44.7421 19.1475C44.3792 19.1949 44.016 19.2392 43.6522 19.2803C42.9357 19.3622 42.2182 19.433 41.4995 19.4928C40.0715 19.6119 38.6406 19.69 37.2068 19.7272C36.4762 19.7467 35.7458 19.7558 35.0157 19.7544C32.1095 19.7521 29.2058 19.5827 26.319 19.2471C26.0064 19.21 25.6939 19.1701 25.3813 19.1296C25.6237 19.1608 25.2052 19.1057 25.1205 19.0938C24.9218 19.0659 24.7232 19.0369 24.5245 19.0068C23.8577 18.9065 23.1949 18.783 22.5294 18.6748C21.7249 18.542 20.9555 18.6084 20.2278 19.0068C19.6305 19.3346 19.147 19.8372 18.8419 20.4477C18.5281 21.0984 18.4347 21.8068 18.2943 22.506C18.1539 23.2052 17.9354 23.9575 18.0182 24.6753C18.1963 26.2244 19.2763 27.4833 20.8297 27.7649C22.2911 28.0305 23.7604 28.2456 25.2337 28.4289C31.0211 29.1397 36.868 29.2247 42.6736 28.6825C43.1463 28.6383 43.6184 28.59 44.0899 28.5378C44.2372 28.5216 44.3862 28.5385 44.526 28.5876C44.6659 28.6366 44.793 28.7163 44.8981 28.821C45.0033 28.9256 45.0837 29.0526 45.1336 29.1924C45.1835 29.3323 45.2015 29.4816 45.1864 29.6294L45.0394 31.0623C44.7432 33.9577 44.447 36.853 44.1508 39.748C43.8418 42.7882 43.5308 45.8282 43.2178 48.8678C43.1295 49.7241 43.0413 50.58 42.953 51.4356C42.8682 52.2784 42.8563 53.1474 42.6967 53.9802C42.4451 55.2896 41.5611 56.0938 40.2712 56.3878C39.0895 56.6576 37.8823 56.7992 36.6704 56.81C35.3269 56.8173 33.9841 56.7575 32.6406 56.7649C31.2063 56.773 29.4496 56.6402 28.3425 55.5697C27.3698 54.6297 27.2354 53.1575 27.103 51.8844C26.9264 50.1992 26.7514 48.5143 26.5779 46.8295L25.6045 37.4612L24.9748 31.3996C24.9642 31.2993 24.9536 31.2004 24.9437 31.0994C24.8682 30.3764 24.3577 29.6686 23.5531 29.7051C22.8645 29.7356 22.0819 30.3226 22.1626 31.0994L22.6294 35.5934L23.5948 44.8893C23.8699 47.5298 24.1442 50.1706 24.4179 52.8121C24.4709 53.318 24.5206 53.8255 24.5762 54.3314C24.8788 57.0964 26.9844 58.5863 29.592 59.0058C31.115 59.2516 32.675 59.3022 34.2205 59.3272C36.2016 59.3593 38.2027 59.4357 40.1514 59.0756C43.0391 58.5442 45.2056 56.6109 45.5148 53.6117C45.6031 52.7457 45.6914 51.8798 45.7797 51.0134C46.0733 48.1485 46.3664 45.2833 46.659 42.4179L47.6165 33.0556L48.0555 28.7649C48.0774 28.5521 48.167 28.352 48.3111 28.1943C48.4551 28.0366 48.646 27.9296 48.8554 27.889C49.6811 27.7277 50.4704 27.4521 51.0578 26.822C51.9927 25.8187 52.1788 24.5106 51.8484 23.1919ZM20.7873 24.1176C20.7999 24.1116 20.7767 24.2198 20.7668 24.2703C20.7648 24.1939 20.7688 24.1262 20.7873 24.1176ZM20.8674 24.7391C20.8741 24.7344 20.8939 24.761 20.9145 24.7928C20.8833 24.7636 20.8635 24.7417 20.8668 24.7391H20.8674ZM20.9462 24.8433C20.9899 24.9223 20.9747 24.8918 20.9462 24.8433ZM21.1045 24.9721H21.1085C21.1085 24.9768 21.1158 24.9814 21.1184 24.9861C21.114 24.9809 21.1091 24.9763 21.1038 24.9721H21.1045ZM48.817 24.7795C48.5204 25.0624 48.0734 25.1939 47.6317 25.2596C42.6788 25.9967 37.6538 26.3698 32.6465 26.2052C29.0629 26.0823 25.5171 25.6832 21.9693 25.1806C21.6216 25.1315 21.2449 25.0677 21.0058 24.8108C20.5556 24.326 20.7767 23.35 20.8939 22.7643C21.0012 22.2278 21.2065 21.5127 21.8428 21.4363C22.836 21.3195 23.9895 21.7398 24.9722 21.8892C26.1552 22.0702 27.3427 22.2152 28.5345 22.3241C33.6212 22.7889 38.7933 22.7165 43.8575 22.0366C44.7805 21.9122 45.7002 21.7677 46.6167 21.603C47.4331 21.4562 48.3383 21.1807 48.8316 22.0286C49.1699 22.6063 49.215 23.3792 49.1627 24.0319C49.1465 24.3163 49.0226 24.5837 48.8164 24.7795H48.817Z" fill="white"/>
</svg>
