<svg width="24" height="24" viewBox="0 0 24 24" fill="none" xmlns="http://www.w3.org/2000/svg">
<g clip-path="url(#clip0_2159_2807)">
<path d="M12.5528 2.89125V0.96375C12.5528 0.708148 12.6544 0.463014 12.8351 0.282276C13.0159 0.101538 13.261 0 13.5166 0C13.7722 0 14.0173 0.101538 14.1981 0.282276C14.3788 0.463014 14.4803 0.708148 14.4803 0.96375V2.89125C14.4803 3.14685 14.3788 3.39199 14.1981 3.57272C14.0173 3.75346 13.7722 3.855 13.5166 3.855C13.261 3.855 13.0159 3.75346 12.8351 3.57272C12.6544 3.39199 12.5528 3.14685 12.5528 2.89125ZM9.66159 3.855C9.9172 3.855 10.1623 3.75346 10.3431 3.57272C10.5238 3.39199 10.6253 3.14685 10.6253 2.89125V0.96375C10.6253 0.708148 10.5238 0.463014 10.3431 0.282276C10.1623 0.101538 9.9172 0 9.66159 0C9.40599 0 9.16086 0.101538 8.98012 0.282276C8.79938 0.463014 8.69784 0.708148 8.69784 0.96375V2.89125C8.69784 3.14685 8.79938 3.39199 8.98012 3.57272C9.16086 3.75346 9.40599 3.855 9.66159 3.855ZM5.80659 3.855C6.0622 3.855 6.30733 3.75346 6.48807 3.57272C6.66881 3.39199 6.77034 3.14685 6.77034 2.89125V0.96375C6.77034 0.708148 6.66881 0.463014 6.48807 0.282276C6.30733 0.101538 6.0622 0 5.80659 0C5.55099 0 5.30586 0.101538 5.12512 0.282276C4.94438 0.463014 4.84284 0.708148 4.84284 0.96375V2.89125C4.84284 3.14685 4.94438 3.39199 5.12512 3.57272C5.30586 3.75346 5.55099 3.855 5.80659 3.855ZM23.13 12.6666C23.0984 13.6663 22.6778 14.6142 21.9578 15.3084C21.2378 16.0027 20.2752 16.3885 19.275 16.3837H16.8897C16.276 17.2833 15.4499 18.0178 14.4847 18.5221C13.5195 19.0264 12.4448 19.285 11.3559 19.275H7.91817C6.81081 19.2861 5.71834 19.0195 4.74054 18.4996C3.76275 17.9797 2.9308 17.2231 2.32071 16.2989C0.95604 14.1218 -2.36408 6.14005 2.89125 5.7825H16.3837C16.8434 5.79498 17.2939 5.91337 17.7003 6.12845C18.1066 6.34353 18.4579 6.6495 18.7267 7.02254C18.9954 7.39558 19.1745 7.82562 19.2499 8.27918C19.3252 8.73274 19.2949 9.19757 19.1613 9.6375C21.5427 9.6375 23.13 10.7988 23.13 12.6666ZM21.2025 12.6666C21.2873 11.7732 19.9978 11.4869 18.8336 11.565C18.6182 12.5554 18.3104 13.5234 17.9142 14.4562H19.275C19.7643 14.4612 20.2368 14.2784 20.5954 13.9455C20.9539 13.6126 21.1712 13.1548 21.2025 12.6666ZM18.3112 21.2025H0.96375C0.708148 21.2025 0.463014 21.304 0.282276 21.4848C0.101538 21.6655 0 21.9106 0 22.1662C0 22.4219 0.101538 22.667 0.282276 22.8477C0.463014 23.0285 0.708148 23.13 0.96375 23.13H18.3112C18.5669 23.13 18.812 23.0285 18.9927 22.8477C19.1735 22.667 19.275 22.4219 19.275 22.1662C19.275 21.9106 19.1735 21.6655 18.9927 21.4848C18.812 21.304 18.5669 21.2025 18.3112 21.2025Z" fill="#7D7D7D"/>
</g>
<defs>
<clipPath id="clip0_2159_2807">
<rect width="23.13" height="23.13" fill="white"/>
</clipPath>
</defs>
</svg>
