<svg width="24" height="24" viewBox="0 0 24 24" fill="none" xmlns="http://www.w3.org/2000/svg">
<g clip-path="url(#clip0_2343_2922)">
<path d="M20 14H19.885C19.914 13.772 19.96 13.562 19.983 13.328C20.068 12.473 19.789 11.619 19.215 10.985C18.65 10.361 17.844 10.003 17.003 10.003L2.99696 10C2.15596 10 1.34896 10.358 0.78396 10.982C0.20996 11.616 -0.0700401 12.47 0.0149599 13.325C0.31996 16.385 1.12496 18.937 2.40796 20.91C3.66496 22.845 5.83696 24 8.21596 24H11.784C14.124 24 16.259 22.878 17.525 21H20C22.168 21 24 19.233 24 17.143C24 15.205 22.467 14 20 14ZM20 19H18.588C18.983 18.087 19.299 17.083 19.541 16H20C21.327 16 22 16.385 22 17.143C22 18.132 21.065 19 20 19ZM12.25 0C11.007 0 9.99996 1.007 9.99996 2.25C9.99996 1.007 8.99296 0 7.74996 0C6.50696 0 5.49996 1.007 5.49996 2.25C5.49996 4.045 7.60296 6.557 8.93396 7.624C9.55896 8.125 10.441 8.125 11.066 7.624C12.397 6.557 14.5 4.045 14.5 2.25C14.5 1.007 13.493 0 12.25 0Z" fill="white"/>
</g>
<defs>
<clipPath id="clip0_2343_2922">
<rect width="24" height="24" fill="white"/>
</clipPath>
</defs>
</svg>
