<svg width="212" height="73" viewBox="0 0 212 73" fill="none" xmlns="http://www.w3.org/2000/svg">
<path d="M57.1177 54.9541C57.0379 55.4694 56.6069 55.8303 56.1549 55.7604C55.703 55.6904 55.4012 55.216 55.481 54.7008C55.5607 54.1856 55.9918 53.8246 56.4437 53.8946C56.8957 53.9645 57.1974 54.4389 57.1177 54.9541Z" fill="#35B2C2"/>
<path d="M58.8291 51.9591C58.7494 52.4743 58.3183 52.8353 57.8664 52.7654C57.4144 52.6954 57.1127 52.221 57.1924 51.7058C57.2722 51.1905 57.7032 50.8296 58.1552 50.8995C58.6071 50.9695 58.9089 51.4439 58.8291 51.9591Z" fill="#35B2C2"/>
<path d="M60.2553 48.9641C60.1756 49.4793 59.7445 49.8403 59.2926 49.7703C58.8406 49.7004 58.5389 49.226 58.6186 48.7107C58.6984 48.1955 59.1294 47.8345 59.5814 47.9045C60.0333 47.9745 60.3351 48.4488 60.2553 48.9641Z" fill="#35B2C2"/>
<path d="M61.2537 45.6838C61.1739 46.199 60.7429 46.56 60.2909 46.4901C59.839 46.4201 59.5372 45.9457 59.617 45.4305C59.6967 44.9152 60.1278 44.5543 60.5797 44.6242C61.0317 44.6942 61.3334 45.1686 61.2537 45.6838Z" fill="#35B2C2"/>
<path d="M61.9668 42.4035C61.887 42.9188 61.456 43.2797 61.004 43.2098C60.5521 43.1398 60.2503 42.6654 60.3301 42.1502C60.4098 41.635 60.8409 41.274 61.2928 41.344C61.7448 41.4139 62.0465 41.8883 61.9668 42.4035Z" fill="#35B2C2"/>
<path d="M62.252 39.1233C62.1723 39.6385 61.7412 39.9995 61.2893 39.9295C60.8373 39.8596 60.5356 39.3852 60.6153 38.8699C60.6951 38.3547 61.1261 37.9937 61.5781 38.0637C62.03 38.1337 62.3318 38.608 62.252 39.1233Z" fill="#35B2C2"/>
<path d="M62.3946 35.7004C62.3149 36.2156 61.8838 36.5766 61.4319 36.5066C60.9799 36.4367 60.6782 35.9623 60.7579 35.447C60.8377 34.9318 61.2687 34.5708 61.7207 34.6408C62.1727 34.7108 62.4744 35.1852 62.3946 35.7004Z" fill="#35B2C2"/>
<path d="M62.1094 32.4201C62.0296 32.9353 61.5986 33.2963 61.1466 33.2264C60.6947 33.1564 60.3929 32.682 60.4727 32.1668C60.5524 31.6515 60.9835 31.2906 61.4354 31.3605C61.8874 31.4305 62.1892 31.9049 62.1094 32.4201Z" fill="#35B2C2"/>
<path d="M61.3963 29.2825C61.3165 29.7977 60.8855 30.1587 60.4335 30.0887C59.9816 30.0187 59.6798 29.5444 59.7596 29.0291C59.8393 28.5139 60.2704 28.1529 60.7223 28.2229C61.1743 28.2928 61.476 28.7672 61.3963 29.2825Z" fill="#35B2C2"/>
<path d="M60.398 26.1448C60.3182 26.66 59.8872 27.021 59.4352 26.9511C58.9832 26.8811 58.6815 26.4067 58.7612 25.8915C58.841 25.3762 59.272 25.0153 59.724 25.0852C60.176 25.1552 60.4777 25.6296 60.398 26.1448Z" fill="#35B2C2"/>
<path d="M59.1144 23.2924C59.0346 23.8076 58.6036 24.1686 58.1516 24.0987C57.6997 24.0287 57.3979 23.5543 57.4777 23.0391C57.5574 22.5238 57.9885 22.1629 58.4404 22.2328C58.8924 22.3028 59.1941 22.7772 59.1144 23.2924Z" fill="#35B2C2"/>
<path d="M57.5455 20.5826C57.4658 21.0979 57.0348 21.4588 56.5828 21.3889C56.1308 21.3189 55.8291 20.8445 55.9088 20.3293C55.9886 19.8141 56.4196 19.4531 56.8716 19.523C57.3236 19.593 57.6253 20.0674 57.5455 20.5826Z" fill="#35B2C2"/>
<path d="M55.6915 18.1581C55.6117 18.6733 55.1807 19.0343 54.7287 18.9643C54.2768 18.8944 53.975 18.42 54.0548 17.9047C54.1345 17.3895 54.5656 17.0285 55.0175 17.0985C55.4695 17.1685 55.7712 17.6428 55.6915 18.1581Z" fill="#35B2C2"/>
<path d="M53.5522 16.0188C53.4724 16.534 53.0414 16.895 52.5894 16.825C52.1375 16.7551 51.8357 16.2807 51.9155 15.7654C51.9952 15.2502 52.4263 14.8892 52.8782 14.9592C53.3302 15.0291 53.6319 15.5035 53.5522 16.0188Z" fill="#35B2C2"/>
<path d="M51.1276 14.1647C51.0479 14.6799 50.6168 15.0409 50.1649 14.9709C49.7129 14.901 49.4112 14.4266 49.4909 13.9114C49.5707 13.3961 50.0017 13.0352 50.4537 13.1051C50.9056 13.1751 51.2074 13.6495 51.1276 14.1647Z" fill="#35B2C2"/>
<path d="M48.5605 12.5959C48.4807 13.1111 48.0497 13.4721 47.5977 13.4021C47.1457 13.3322 46.844 12.8578 46.9238 12.3425C47.0035 11.8273 47.4345 11.4663 47.8865 11.5363C48.3385 11.6063 48.6402 12.0806 48.5605 12.5959Z" fill="#35B2C2"/>
<path d="M45.8507 11.4549C45.7709 11.9701 45.3399 12.3311 44.8879 12.2612C44.436 12.1912 44.1342 11.7168 44.214 11.2016C44.2937 10.6863 44.7248 10.3254 45.1767 10.3953C45.6287 10.4653 45.9304 10.9397 45.8507 11.4549Z" fill="#35B2C2"/>
<path d="M42.9983 10.7418C42.9185 11.257 42.4875 11.618 42.0355 11.5481C41.5835 11.4781 41.2818 11.0037 41.3616 10.4885C41.4413 9.97324 41.8723 9.61228 42.3243 9.68223C42.7763 9.75219 43.078 10.2266 42.9983 10.7418Z" fill="#35B2C2"/>
<path d="M40.0032 10.314C39.9235 10.8292 39.4924 11.1902 39.0405 11.1202C38.5885 11.0502 38.2868 10.5758 38.3665 10.0606C38.4463 9.54538 38.8773 9.18441 39.3293 9.25437C39.7812 9.32433 40.083 9.79872 40.0032 10.314Z" fill="#35B2C2"/>
<path d="M37.0082 10.314C36.9285 10.8292 36.4974 11.1902 36.0455 11.1202C35.5935 11.0502 35.2917 10.5758 35.3715 10.0606C35.4512 9.54538 35.8823 9.18441 36.3343 9.25437C36.7862 9.32433 37.088 9.79872 37.0082 10.314Z" fill="#35B2C2"/>
<path d="M34.1558 10.5992C34.076 11.1144 33.645 11.4754 33.193 11.4054C32.7411 11.3355 32.4393 10.8611 32.5191 10.3459C32.5988 9.83062 33.0299 9.46965 33.4818 9.53961C33.9338 9.60957 34.2355 10.084 34.1558 10.5992Z" fill="#35B2C2"/>
<path d="M31.1608 11.3123C31.081 11.8275 30.65 12.1885 30.198 12.1185C29.7461 12.0486 29.4443 11.5742 29.5241 11.059C29.6038 10.5437 30.0349 10.1828 30.4868 10.2527C30.9388 10.3227 31.2405 10.7971 31.1608 11.3123Z" fill="#35B2C2"/>
<path d="M28.3084 12.4533C28.2286 12.9685 27.7976 13.3295 27.3456 13.2595C26.8936 13.1895 26.5919 12.7152 26.6717 12.1999C26.7514 11.6847 27.1824 11.3237 27.6344 11.3937C28.0864 11.4636 28.3881 11.938 28.3084 12.4533Z" fill="#35B2C2"/>
<path d="M25.5986 13.8795C25.5188 14.3947 25.0878 14.7557 24.6358 14.6857C24.1839 14.6157 23.8821 14.1414 23.9619 13.6261C24.0416 13.1109 24.4727 12.7499 24.9246 12.8199C25.3766 12.8898 25.6783 13.3642 25.5986 13.8795Z" fill="#35B2C2"/>
<path d="M22.8888 15.7335C22.809 16.2488 22.378 16.6097 21.926 16.5398C21.4741 16.4698 21.1723 15.9954 21.2521 15.4802C21.3318 14.965 21.7629 14.604 22.2148 14.6739C22.6668 14.7439 22.9685 15.2183 22.8888 15.7335Z" fill="#35B2C2"/>
<path d="M20.6069 17.8728C20.5271 18.3881 20.0961 18.749 19.6441 18.6791C19.1921 18.6091 18.8904 18.1347 18.9702 17.6195C19.0499 17.1043 19.4809 16.7433 19.9329 16.8133C20.3849 16.8832 20.6866 17.3576 20.6069 17.8728Z" fill="#35B2C2"/>
<path d="M18.3249 20.2974C18.2452 20.8126 17.8141 21.1736 17.3622 21.1036C16.9102 21.0337 16.6085 20.5593 16.6882 20.044C16.768 19.5288 17.199 19.1678 17.651 19.2378C18.1029 19.3078 18.4047 19.7821 18.3249 20.2974Z" fill="#35B2C2"/>
<path d="M16.3282 23.0072C16.2485 23.5224 15.8175 23.8834 15.3655 23.8134C14.9135 23.7435 14.6118 23.2691 14.6915 22.7538C14.7713 22.2386 15.2023 21.8776 15.6543 21.9476C16.1063 22.0175 16.408 22.4919 16.3282 23.0072Z" fill="#35B2C2"/>
<path d="M14.7594 26.0022C14.6797 26.5174 14.2486 26.8784 13.7967 26.8084C13.3447 26.7385 13.043 26.2641 13.1227 25.7489C13.2025 25.2336 13.6335 24.8727 14.0855 24.9426C14.5374 25.0126 14.8392 25.487 14.7594 26.0022Z" fill="#35B2C2"/>
<path d="M13.4758 28.9972C13.3961 29.5125 12.965 29.8734 12.5131 29.8035C12.0611 29.7335 11.7594 29.2591 11.8391 28.7439C11.9189 28.2287 12.3499 27.8677 12.8019 27.9376C13.2539 28.0076 13.5556 28.482 13.4758 28.9972Z" fill="#35B2C2"/>
<path d="M12.3349 32.1349C12.2551 32.6501 11.8241 33.0111 11.3721 32.9411C10.9202 32.8712 10.6184 32.3968 10.6982 31.8815C10.7779 31.3663 11.209 31.0053 11.6609 31.0753C12.1129 31.1453 12.4146 31.6196 12.3349 32.1349Z" fill="#35B2C2"/>
<path d="M11.6218 35.4151C11.542 35.9304 11.111 36.2913 10.659 36.2214C10.2071 36.1514 9.90532 35.677 9.98507 35.1618C10.0648 34.6466 10.4959 34.2856 10.9478 34.3556C11.3998 34.4255 11.7015 34.8999 11.6218 35.4151Z" fill="#35B2C2"/>
<path d="M11.1939 38.838C11.1142 39.3533 10.6831 39.7142 10.2312 39.6443C9.77919 39.5743 9.47746 39.0999 9.55721 38.5847C9.63696 38.0695 10.068 37.7085 10.52 37.7785C10.9719 37.8484 11.2737 38.3228 11.1939 38.838Z" fill="#35B2C2"/>
<path d="M11.1939 42.2609C11.1142 42.7762 10.6831 43.1371 10.2312 43.0672C9.77919 42.9972 9.47746 42.5228 9.55721 42.0076C9.63696 41.4924 10.068 41.1314 10.52 41.2013C10.9719 41.2713 11.2737 41.7457 11.1939 42.2609Z" fill="#35B2C2"/>
<path d="M11.4792 45.5412C11.3994 46.0564 10.9684 46.4174 10.5164 46.3474C10.0644 46.2775 9.7627 45.8031 9.84245 45.2879C9.9222 44.7726 10.3532 44.4117 10.8052 44.4816C11.2572 44.5516 11.5589 45.026 11.4792 45.5412Z" fill="#35B2C2"/>
<path d="M12.1923 48.8215C12.1125 49.3367 11.6815 49.6977 11.2295 49.6277C10.7775 49.5577 10.4758 49.0834 10.5556 48.5681C10.6353 48.0529 11.0663 47.6919 11.5183 47.7619C11.9703 47.8318 12.272 48.3062 12.1923 48.8215Z" fill="#35B2C2"/>
<path d="M13.1906 51.6739C13.1108 52.1891 12.6798 52.5501 12.2278 52.4801C11.7759 52.4102 11.4741 51.9358 11.5539 51.4205C11.6336 50.9053 12.0647 50.5443 12.5166 50.6143C12.9686 50.6842 13.2703 51.1586 13.1906 51.6739Z" fill="#35B2C2"/>
<path d="M14.4742 54.6689C14.3944 55.1841 13.9634 55.5451 13.5114 55.4751C13.0595 55.4052 12.7577 54.9308 12.8375 54.4156C12.9172 53.9003 13.3483 53.5394 13.8002 53.6093C14.2522 53.6793 14.5539 54.1537 14.4742 54.6689Z" fill="#35B2C2"/>
<path d="M16.043 57.3787C15.9633 57.8939 15.5322 58.2549 15.0803 58.1849C14.6283 58.115 14.3265 57.6406 14.4063 57.1253C14.4861 56.6101 14.9171 56.2491 15.3691 56.3191C15.821 56.3891 16.1228 56.8635 16.043 57.3787Z" fill="#35B2C2"/>
<path d="M17.8971 59.8032C17.8173 60.3185 17.3863 60.6794 16.9343 60.6095C16.4824 60.5395 16.1806 60.0651 16.2604 59.5499C16.3401 59.0347 16.7712 58.6737 17.2231 58.7436C17.6751 58.8136 17.9768 59.288 17.8971 59.8032Z" fill="#35B2C2"/>
<path d="M20.179 61.9425C20.0992 62.4578 19.6682 62.8187 19.2162 62.7488C18.7643 62.6788 18.4625 62.2044 18.5423 61.6892C18.622 61.174 19.0531 60.813 19.505 60.883C19.957 60.9529 20.2588 61.4273 20.179 61.9425Z" fill="#35B2C2"/>
<path d="M22.4609 63.7966C22.3812 64.3118 21.9501 64.6728 21.4982 64.6028C21.0462 64.5329 20.7445 64.0585 20.8242 63.5433C20.904 63.028 21.335 62.6671 21.787 62.737C22.2389 62.807 22.5407 63.2814 22.4609 63.7966Z" fill="#35B2C2"/>
<path d="M25.0281 65.3654C24.9483 65.8807 24.5173 66.2416 24.0653 66.1717C23.6134 66.1017 23.3116 65.6273 23.3914 65.1121C23.4711 64.5969 23.9022 64.2359 24.3541 64.3058C24.8061 64.3758 25.1078 64.8502 25.0281 65.3654Z" fill="#35B2C2"/>
<path d="M27.7379 66.5064C27.6581 67.0216 27.2271 67.3826 26.7751 67.3126C26.3232 67.2427 26.0214 66.7683 26.1012 66.2531C26.1809 65.7378 26.612 65.3769 27.0639 65.4468C27.5159 65.5168 27.8176 65.9912 27.7379 66.5064Z" fill="#35B2C2"/>
<path d="M30.5903 67.2195C30.5105 67.7347 30.0795 68.0957 29.6275 68.0257C29.1756 67.9558 28.8738 67.4814 28.9536 66.9662C29.0333 66.4509 29.4644 66.09 29.9163 66.1599C30.3683 66.2299 30.67 66.7043 30.5903 67.2195Z" fill="#35B2C2"/>
<path d="M33.5853 67.6474C33.5056 68.1626 33.0745 68.5236 32.6226 68.4536C32.1706 68.3836 31.8689 67.9093 31.9486 67.394C32.0284 66.8788 32.4594 66.5178 32.9114 66.5878C33.3633 66.6577 33.6651 67.1321 33.5853 67.6474Z" fill="#35B2C2"/>
<path d="M36.4377 67.6474C36.358 68.1626 35.9269 68.5236 35.475 68.4536C35.023 68.3836 34.7213 67.9093 34.801 67.394C34.8808 66.8788 35.3118 66.5178 35.7638 66.5878C36.2157 66.6577 36.5175 67.1321 36.4377 67.6474Z" fill="#35B2C2"/>
<path d="M39.4328 67.3621C39.353 67.8773 38.922 68.2383 38.47 68.1684C38.018 68.0984 37.7163 67.624 37.796 67.1088C37.8758 66.5935 38.3068 66.2326 38.7588 66.3025C39.2108 66.3725 39.5125 66.8469 39.4328 67.3621Z" fill="#35B2C2"/>
<path d="M42.4278 66.649C42.348 67.1642 41.917 67.5252 41.465 67.4553C41.0131 67.3853 40.7113 66.9109 40.7911 66.3957C40.8708 65.8804 41.3019 65.5195 41.7538 65.5894C42.2058 65.6594 42.5075 66.1338 42.4278 66.649Z" fill="#35B2C2"/>
<path d="M45.2802 65.508C45.2004 66.0233 44.7694 66.3843 44.3174 66.3143C43.8655 66.2443 43.5637 65.7699 43.6435 65.2547C43.7232 64.7395 44.1543 64.3785 44.6062 64.4485C45.0582 64.5184 45.3599 64.9928 45.2802 65.508Z" fill="#35B2C2"/>
<path d="M47.99 63.9392C47.9102 64.4545 47.4792 64.8154 47.0272 64.7455C46.5753 64.6755 46.2735 64.2011 46.3533 63.6859C46.433 63.1707 46.8641 62.8097 47.316 62.8796C47.768 62.9496 48.0697 63.424 47.99 63.9392Z" fill="#35B2C2"/>
<path d="M50.5571 62.0852C50.4774 62.6004 50.0464 62.9614 49.5944 62.8914C49.1424 62.8214 48.8407 62.3471 48.9204 61.8318C49.0002 61.3166 49.4312 60.9556 49.8832 61.0256C50.3352 61.0955 50.6369 61.5699 50.5571 62.0852Z" fill="#35B2C2"/>
<path d="M52.9817 59.9459C52.9019 60.4611 52.4709 60.8221 52.0189 60.7521C51.567 60.6821 51.2652 60.2077 51.345 59.6925C51.4247 59.1773 51.8558 58.8163 52.3077 58.8863C52.7597 58.9562 53.0614 59.4306 52.9817 59.9459Z" fill="#35B2C2"/>
<path d="M55.2636 57.6639C55.1839 58.1792 54.7528 58.5401 54.3009 58.4702C53.8489 58.4002 53.5472 57.9258 53.6269 57.4106C53.7067 56.8954 54.1377 56.5344 54.5897 56.6043C55.0416 56.6743 55.3434 57.1487 55.2636 57.6639Z" fill="#35B2C2"/>
<path d="M27.5257 70.2405C27.5257 70.9101 26.983 71.4528 26.3135 71.4528C25.6439 71.4528 25.1012 70.9101 25.1012 70.2405C25.1012 69.571 25.6439 69.0283 26.3135 69.0283C26.983 69.0283 27.5257 69.571 27.5257 70.2405Z" fill="#35B2C2"/>
<path d="M31.5191 71.0963C31.5191 71.7658 30.9764 72.3085 30.3068 72.3085C29.6373 72.3085 29.0946 71.7658 29.0946 71.0963C29.0946 70.4268 29.6373 69.884 30.3068 69.884C30.9764 69.884 31.5191 70.4268 31.5191 71.0963Z" fill="#35B2C2"/>
<path d="M35.5125 71.5241C35.5125 72.1937 34.9697 72.7364 34.3002 72.7364C33.6307 72.7364 33.0879 72.1937 33.0879 71.5241C33.0879 70.8546 33.6307 70.3119 34.3002 70.3119C34.9697 70.3119 35.5125 70.8546 35.5125 71.5241Z" fill="#35B2C2"/>
<path d="M39.7911 71.5241C39.7911 72.1937 39.2483 72.7364 38.5788 72.7364C37.9093 72.7364 37.3665 72.1937 37.3665 71.5241C37.3665 70.8546 37.9093 70.3119 38.5788 70.3119C39.2483 70.3119 39.7911 70.8546 39.7911 71.5241Z" fill="#35B2C2"/>
<path d="M43.7845 71.0963C43.7845 71.7658 43.2417 72.3085 42.5722 72.3085C41.9027 72.3085 41.3599 71.7658 41.3599 71.0963C41.3599 70.4268 41.9027 69.884 42.5722 69.884C43.2417 69.884 43.7845 70.4268 43.7845 71.0963Z" fill="#35B2C2"/>
<path d="M47.7778 70.2405C47.7778 70.9101 47.2351 71.4528 46.5656 71.4528C45.896 71.4528 45.3533 70.9101 45.3533 70.2405C45.3533 69.571 45.896 69.0283 46.5656 69.0283C47.2351 69.0283 47.7778 69.571 47.7778 70.2405Z" fill="#35B2C2"/>
<path d="M51.6286 68.6717C51.6286 69.3412 51.0858 69.884 50.4163 69.884C49.7468 69.884 49.204 69.3412 49.204 68.6717C49.204 68.0022 49.7468 67.4595 50.4163 67.4595C51.0858 67.4595 51.6286 68.0022 51.6286 68.6717Z" fill="#35B2C2"/>
<path d="M55.3367 66.9603C55.3367 67.6298 54.794 68.1726 54.1244 68.1726C53.4549 68.1726 52.9122 67.6298 52.9122 66.9603C52.9122 66.2908 53.4549 65.748 54.1244 65.748C54.794 65.748 55.3367 66.2908 55.3367 66.9603Z" fill="#35B2C2"/>
<path d="M58.7596 64.5357C58.7596 65.2053 58.2169 65.748 57.5473 65.748C56.8778 65.748 56.3351 65.2053 56.3351 64.5357C56.3351 63.8662 56.8778 63.3235 57.5473 63.3235C58.2169 63.3235 58.7596 63.8662 58.7596 64.5357Z" fill="#35B2C2"/>
<path d="M61.8973 62.1112C61.8973 62.7807 61.3545 63.3235 60.685 63.3235C60.0155 63.3235 59.4727 62.7807 59.4727 62.1112C59.4727 61.4417 60.0155 60.8989 60.685 60.8989C61.3545 60.8989 61.8973 61.4417 61.8973 62.1112Z" fill="#35B2C2"/>
<path d="M64.7497 58.9735C64.7497 59.6431 64.2069 60.1858 63.5374 60.1858C62.8679 60.1858 62.3251 59.6431 62.3251 58.9735C62.3251 58.304 62.8679 57.7613 63.5374 57.7613C64.2069 57.7613 64.7497 58.304 64.7497 58.9735Z" fill="#35B2C2"/>
<path d="M67.1742 55.6933C67.1742 56.3628 66.6315 56.9055 65.9619 56.9055C65.2924 56.9055 64.7497 56.3628 64.7497 55.6933C64.7497 55.0237 65.2924 54.481 65.9619 54.481C66.6315 54.481 67.1742 55.0237 67.1742 55.6933Z" fill="#35B2C2"/>
<path d="M69.1709 52.1278C69.1709 52.7973 68.6281 53.34 67.9586 53.34C67.2891 53.34 66.7464 52.7973 66.7464 52.1278C66.7464 51.4582 67.2891 50.9155 67.9586 50.9155C68.6281 50.9155 69.1709 51.4582 69.1709 52.1278Z" fill="#35B2C2"/>
<path d="M70.8823 48.4196C70.8823 49.0891 70.3396 49.6319 69.6701 49.6319C69.0005 49.6319 68.4578 49.0891 68.4578 48.4196C68.4578 47.7501 69.0005 47.2074 69.6701 47.2074C70.3396 47.2074 70.8823 47.7501 70.8823 48.4196Z" fill="#35B2C2"/>
<path d="M72.0233 44.5689C72.0233 45.2384 71.4806 45.7811 70.811 45.7811C70.1415 45.7811 69.5988 45.2384 69.5988 44.5689C69.5988 43.8994 70.1415 43.3566 70.811 43.3566C71.4806 43.3566 72.0233 43.8994 72.0233 44.5689Z" fill="#35B2C2"/>
<path d="M72.7364 40.4329C72.7364 41.1024 72.1937 41.6452 71.5241 41.6452C70.8546 41.6452 70.3119 41.1024 70.3119 40.4329C70.3119 39.7634 70.8546 39.2206 71.5241 39.2206C72.1937 39.2206 72.7364 39.7634 72.7364 40.4329Z" fill="#35B2C2"/>
<path d="M72.7364 36.2969C72.7364 36.9664 72.1937 37.5092 71.5241 37.5092C70.8546 37.5092 70.3119 36.9664 70.3119 36.2969C70.3119 35.6274 70.8546 35.0846 71.5241 35.0846C72.1937 35.0846 72.7364 35.6274 72.7364 36.2969Z" fill="#35B2C2"/>
<path d="M72.7364 32.1609C72.7364 32.8304 72.1937 33.3732 71.5241 33.3732C70.8546 33.3732 70.3119 32.8304 70.3119 32.1609C70.3119 31.4914 70.8546 30.9486 71.5241 30.9486C72.1937 30.9486 72.7364 31.4914 72.7364 32.1609Z" fill="#35B2C2"/>
<path d="M72.0233 28.3102C72.0233 28.9797 71.4806 29.5224 70.811 29.5224C70.1415 29.5224 69.5988 28.9797 69.5988 28.3102C69.5988 27.6406 70.1415 27.0979 70.811 27.0979C71.4806 27.0979 72.0233 27.6406 72.0233 28.3102Z" fill="#35B2C2"/>
<path d="M70.8823 24.1742C70.8823 24.8437 70.3396 25.3864 69.6701 25.3864C69.0005 25.3864 68.4578 24.8437 68.4578 24.1742C68.4578 23.5046 69.0005 22.9619 69.6701 22.9619C70.3396 22.9619 70.8823 23.5046 70.8823 24.1742Z" fill="#35B2C2"/>
<path d="M69.1709 20.6086C69.1709 21.2782 68.6281 21.8209 67.9586 21.8209C67.2891 21.8209 66.7464 21.2782 66.7464 20.6086C66.7464 19.9391 67.2891 19.3964 67.9586 19.3964C68.6281 19.3964 69.1709 19.9391 69.1709 20.6086Z" fill="#35B2C2"/>
<path d="M67.1742 17.0431C67.1742 17.7127 66.6315 18.2554 65.9619 18.2554C65.2924 18.2554 64.7497 17.7127 64.7497 17.0431C64.7497 16.3736 65.2924 15.8309 65.9619 15.8309C66.6315 15.8309 67.1742 16.3736 67.1742 17.0431Z" fill="#35B2C2"/>
<path d="M64.7497 13.9055C64.7497 14.575 64.2069 15.1178 63.5374 15.1178C62.8679 15.1178 62.3251 14.575 62.3251 13.9055C62.3251 13.236 62.8679 12.6932 63.5374 12.6932C64.2069 12.6932 64.7497 13.236 64.7497 13.9055Z" fill="#35B2C2"/>
<path d="M61.7546 10.6252C61.7546 11.2947 61.2119 11.8375 60.5424 11.8375C59.8728 11.8375 59.3301 11.2947 59.3301 10.6252C59.3301 9.9557 59.8728 9.41295 60.5424 9.41295C61.2119 9.41295 61.7546 9.9557 61.7546 10.6252Z" fill="#35B2C2"/>
<path d="M58.7596 8.20067C58.7596 8.87019 58.2169 9.41295 57.5473 9.41295C56.8778 9.41295 56.3351 8.87019 56.3351 8.20067C56.3351 7.53115 56.8778 6.9884 57.5473 6.9884C58.2169 6.9884 58.7596 7.53115 58.7596 8.20067Z" fill="#35B2C2"/>
<path d="M55.3367 5.77613C55.3367 6.44565 54.794 6.9884 54.1244 6.9884C53.4549 6.9884 52.9122 6.44565 52.9122 5.77613C52.9122 5.10661 53.4549 4.56385 54.1244 4.56385C54.794 4.56385 55.3367 5.10661 55.3367 5.77613Z" fill="#35B2C2"/>
<path d="M51.7712 4.06468C51.7712 4.7342 51.2285 5.27695 50.5589 5.27695C49.8894 5.27695 49.3467 4.7342 49.3467 4.06468C49.3467 3.39516 49.8894 2.85241 50.5589 2.85241C51.2285 2.85241 51.7712 3.39516 51.7712 4.06468Z" fill="#35B2C2"/>
<path d="M47.7778 2.49586C47.7778 3.16538 47.2351 3.70813 46.5656 3.70813C45.896 3.70813 45.3533 3.16538 45.3533 2.49586C45.3533 1.82634 45.896 1.28358 46.5656 1.28358C47.2351 1.28358 47.7778 1.82634 47.7778 2.49586Z" fill="#35B2C2"/>
<path d="M43.9271 1.64013C43.9271 2.30965 43.3843 2.85241 42.7148 2.85241C42.0453 2.85241 41.5025 2.30965 41.5025 1.64013C41.5025 0.970614 42.0453 0.427861 42.7148 0.427861C43.3843 0.427861 43.9271 0.970614 43.9271 1.64013Z" fill="#35B2C2"/>
<path d="M39.6485 1.21227C39.6485 1.88179 39.1057 2.42455 38.4362 2.42455C37.7667 2.42455 37.2239 1.88179 37.2239 1.21227C37.2239 0.542753 37.7667 0 38.4362 0C39.1057 0 39.6485 0.542753 39.6485 1.21227Z" fill="#35B2C2"/>
<path d="M35.7977 1.21227C35.7977 1.88179 35.255 2.42455 34.5854 2.42455C33.9159 2.42455 33.3732 1.88179 33.3732 1.21227C33.3732 0.542753 33.9159 0 34.5854 0C35.255 0 35.7977 0.542753 35.7977 1.21227Z" fill="#35B2C2"/>
<path d="M31.5191 1.64013C31.5191 2.30965 30.9764 2.85241 30.3068 2.85241C29.6373 2.85241 29.0946 2.30965 29.0946 1.64013C29.0946 0.970614 29.6373 0.427861 30.3068 0.427861C30.9764 0.427861 31.5191 0.970614 31.5191 1.64013Z" fill="#35B2C2"/>
<path d="M27.5257 2.49586C27.5257 3.16538 26.983 3.70813 26.3135 3.70813C25.6439 3.70813 25.1012 3.16538 25.1012 2.49586C25.1012 1.82634 25.6439 1.28358 26.3135 1.28358C26.983 1.28358 27.5257 1.82634 27.5257 2.49586Z" fill="#35B2C2"/>
<path d="M23.8176 4.06468C23.8176 4.7342 23.2749 5.27695 22.6053 5.27695C21.9358 5.27695 21.3931 4.7342 21.3931 4.06468C21.3931 3.39516 21.9358 2.85241 22.6053 2.85241C23.2749 2.85241 23.8176 3.39516 23.8176 4.06468Z" fill="#35B2C2"/>
<path d="M19.9669 5.91875C19.9669 6.58827 19.4241 7.13102 18.7546 7.13102C18.0851 7.13102 17.5423 6.58827 17.5423 5.91875C17.5423 5.24923 18.0851 4.70647 18.7546 4.70647C19.4241 4.70647 19.9669 5.24923 19.9669 5.91875Z" fill="#35B2C2"/>
<path d="M16.544 8.05805C16.544 8.72757 16.0012 9.27033 15.3317 9.27033C14.6622 9.27033 14.1194 8.72757 14.1194 8.05805C14.1194 7.38853 14.6622 6.84578 15.3317 6.84578C16.0012 6.84578 16.544 7.38853 16.544 8.05805Z" fill="#35B2C2"/>
<path d="M13.4063 10.7678C13.4063 11.4374 12.8636 11.9801 12.194 11.9801C11.5245 11.9801 10.9818 11.4374 10.9818 10.7678C10.9818 10.0983 11.5245 9.55557 12.194 9.55557C12.8636 9.55557 13.4063 10.0983 13.4063 10.7678Z" fill="#35B2C2"/>
<path d="M10.6965 13.7629C10.6965 14.4324 10.1538 14.9751 9.48426 14.9751C8.81474 14.9751 8.27198 14.4324 8.27198 13.7629C8.27198 13.0933 8.81474 12.5506 9.48426 12.5506C10.1538 12.5506 10.6965 13.0933 10.6965 13.7629Z" fill="#35B2C2"/>
<path d="M8.27198 17.0431C8.27198 17.7127 7.72923 18.2554 7.05971 18.2554C6.39019 18.2554 5.84744 17.7127 5.84744 17.0431C5.84744 16.3736 6.39019 15.8309 7.05971 15.8309C7.72923 15.8309 8.27198 16.3736 8.27198 17.0431Z" fill="#35B2C2"/>
<path d="M6.13268 20.6086C6.13268 21.2782 5.58992 21.8209 4.9204 21.8209C4.25088 21.8209 3.70813 21.2782 3.70813 20.6086C3.70813 19.9391 4.25088 19.3964 4.9204 19.3964C5.58992 19.3964 6.13268 19.9391 6.13268 20.6086Z" fill="#35B2C2"/>
<path d="M4.42123 24.3168C4.42123 24.9863 3.87848 25.5291 3.20896 25.5291C2.53944 25.5291 1.99669 24.9863 1.99669 24.3168C1.99669 23.6473 2.53944 23.1045 3.20896 23.1045C3.87848 23.1045 4.42123 23.6473 4.42123 24.3168Z" fill="#35B2C2"/>
<path d="M3.28027 28.1675C3.28027 28.837 2.73752 29.3798 2.068 29.3798C1.39848 29.3798 0.855722 28.837 0.855722 28.1675C0.855722 27.498 1.39848 26.9553 2.068 26.9553C2.73752 26.9553 3.28027 27.498 3.28027 28.1675Z" fill="#35B2C2"/>
<path d="M2.70979 32.4461C2.70979 33.1157 2.16703 33.6584 1.49751 33.6584C0.827994 33.6584 0.285241 33.1157 0.285241 32.4461C0.285241 31.7766 0.827994 31.2339 1.49751 31.2339C2.16703 31.2339 2.70979 31.7766 2.70979 32.4461Z" fill="#35B2C2"/>
<path d="M2.42455 36.5821C2.42455 37.2517 1.88179 37.7944 1.21227 37.7944C0.542753 37.7944 0 37.2517 0 36.5821C0 35.9126 0.542753 35.3699 1.21227 35.3699C1.88179 35.3699 2.42455 35.9126 2.42455 36.5821Z" fill="#35B2C2"/>
<path d="M2.70979 40.4329C2.70979 41.1024 2.16703 41.6452 1.49751 41.6452C0.827994 41.6452 0.285241 41.1024 0.285241 40.4329C0.285241 39.7634 0.827994 39.2206 1.49751 39.2206C2.16703 39.2206 2.70979 39.7634 2.70979 40.4329Z" fill="#35B2C2"/>
<path d="M3.28027 44.5689C3.28027 45.2384 2.73752 45.7811 2.068 45.7811C1.39848 45.7811 0.855722 45.2384 0.855722 44.5689C0.855722 43.8994 1.39848 43.3566 2.068 43.3566C2.73752 43.3566 3.28027 43.8994 3.28027 44.5689Z" fill="#35B2C2"/>
<path d="M4.56385 48.4196C4.56385 49.0891 4.0211 49.6319 3.35158 49.6319C2.68206 49.6319 2.13931 49.0891 2.13931 48.4196C2.13931 47.7501 2.68206 47.2074 3.35158 47.2074C4.0211 47.2074 4.56385 47.7501 4.56385 48.4196Z" fill="#35B2C2"/>
<path d="M6.13268 52.1278C6.13268 52.7973 5.58992 53.34 4.9204 53.34C4.25088 53.34 3.70813 52.7973 3.70813 52.1278C3.70813 51.4582 4.25088 50.9155 4.9204 50.9155C5.58992 50.9155 6.13268 51.4582 6.13268 52.1278Z" fill="#35B2C2"/>
<path d="M8.27198 55.6933C8.27198 56.3628 7.72923 56.9055 7.05971 56.9055C6.39019 56.9055 5.84744 56.3628 5.84744 55.6933C5.84744 55.0237 6.39019 54.481 7.05971 54.481C7.72923 54.481 8.27198 55.0237 8.27198 55.6933Z" fill="#35B2C2"/>
<path d="M10.6965 58.9735C10.6965 59.6431 10.1538 60.1858 9.48426 60.1858C8.81474 60.1858 8.27198 59.6431 8.27198 58.9735C8.27198 58.304 8.81474 57.7613 9.48426 57.7613C10.1538 57.7613 10.6965 58.304 10.6965 58.9735Z" fill="#35B2C2"/>
<path d="M13.5489 62.1112C13.5489 62.7807 13.0062 63.3235 12.3367 63.3235C11.6671 63.3235 11.1244 62.7807 11.1244 62.1112C11.1244 61.4417 11.6671 60.8989 12.3367 60.8989C13.0062 60.8989 13.5489 61.4417 13.5489 62.1112Z" fill="#35B2C2"/>
<path d="M16.544 64.5357C16.544 65.2053 16.0012 65.748 15.3317 65.748C14.6622 65.748 14.1194 65.2053 14.1194 64.5357C14.1194 63.8662 14.6622 63.3235 15.3317 63.3235C16.0012 63.3235 16.544 63.8662 16.544 64.5357Z" fill="#35B2C2"/>
<path d="M19.9669 66.9603C19.9669 67.6298 19.4241 68.1726 18.7546 68.1726C18.0851 68.1726 17.5423 67.6298 17.5423 66.9603C17.5423 66.2908 18.0851 65.748 18.7546 65.748C19.4241 65.748 19.9669 66.2908 19.9669 66.9603Z" fill="#35B2C2"/>
<path d="M23.8176 68.6717C23.8176 69.3412 23.2749 69.884 22.6053 69.884C21.9358 69.884 21.3931 69.3412 21.3931 68.6717C21.3931 68.0022 21.9358 67.4595 22.6053 67.4595C23.2749 67.4595 23.8176 68.0022 23.8176 68.6717Z" fill="#35B2C2"/>
<path d="M20.3947 32.7314C20.3947 33.0858 20.1074 33.3732 19.7529 33.3732C19.3985 33.3732 19.1111 33.0858 19.1111 32.7314C19.1111 32.3769 19.3985 32.0896 19.7529 32.0896C20.1074 32.0896 20.3947 32.3769 20.3947 32.7314Z" fill="#35B2C2"/>
<path d="M21.2504 30.7347C21.2504 31.0891 20.9631 31.3765 20.6086 31.3765C20.2542 31.3765 19.9669 31.0891 19.9669 30.7347C19.9669 30.3802 20.2542 30.0929 20.6086 30.0929C20.9631 30.0929 21.2504 30.3802 21.2504 30.7347Z" fill="#35B2C2"/>
<path d="M22.534 28.8806C22.534 29.2351 22.2467 29.5224 21.8922 29.5224C21.5378 29.5224 21.2504 29.2351 21.2504 28.8806C21.2504 28.5262 21.5378 28.2388 21.8922 28.2388C22.2467 28.2388 22.534 28.5262 22.534 28.8806Z" fill="#35B2C2"/>
<path d="M23.8176 27.1692C23.8176 27.5236 23.5303 27.811 23.1758 27.811C22.8214 27.811 22.534 27.5236 22.534 27.1692C22.534 26.8147 22.8214 26.5274 23.1758 26.5274C23.5303 26.5274 23.8176 26.8147 23.8176 27.1692Z" fill="#35B2C2"/>
<path d="M25.3864 25.743C25.3864 26.0974 25.0991 26.3848 24.7446 26.3848C24.3902 26.3848 24.1028 26.0974 24.1028 25.743C24.1028 25.3885 24.3902 25.1012 24.7446 25.1012C25.0991 25.1012 25.3864 25.3885 25.3864 25.743Z" fill="#35B2C2"/>
<path d="M27.0979 24.4594C27.0979 24.8139 26.8105 25.1012 26.4561 25.1012C26.1016 25.1012 25.8143 24.8139 25.8143 24.4594C25.8143 24.1049 26.1016 23.8176 26.4561 23.8176C26.8105 23.8176 27.0979 24.1049 27.0979 24.4594Z" fill="#35B2C2"/>
<path d="M29.0946 23.3184C29.0946 23.6729 28.8072 23.9602 28.4528 23.9602C28.0983 23.9602 27.811 23.6729 27.811 23.3184C27.811 22.964 28.0983 22.6766 28.4528 22.6766C28.8072 22.6766 29.0946 22.964 29.0946 23.3184Z" fill="#35B2C2"/>
<path d="M31.0912 22.6053C31.0912 22.9598 30.8039 23.2471 30.4495 23.2471C30.095 23.2471 29.8077 22.9598 29.8077 22.6053C29.8077 22.2509 30.095 21.9635 30.4495 21.9635C30.8039 21.9635 31.0912 22.2509 31.0912 22.6053Z" fill="#35B2C2"/>
<path d="M33.0879 22.0349C33.0879 22.3893 32.8006 22.6766 32.4461 22.6766C32.0917 22.6766 31.8044 22.3893 31.8044 22.0349C31.8044 21.6804 32.0917 21.3931 32.4461 21.3931C32.8006 21.3931 33.0879 21.6804 33.0879 22.0349Z" fill="#35B2C2"/>
<path d="M35.3699 21.7496C35.3699 22.1041 35.0825 22.3914 34.7281 22.3914C34.3736 22.3914 34.0863 22.1041 34.0863 21.7496C34.0863 21.3952 34.3736 21.1078 34.7281 21.1078C35.0825 21.1078 35.3699 21.3952 35.3699 21.7496Z" fill="#35B2C2"/>
<path d="M37.5092 21.607C37.5092 21.9614 37.2218 22.2488 36.8674 22.2488C36.5129 22.2488 36.2256 21.9614 36.2256 21.607C36.2256 21.2525 36.5129 20.9652 36.8674 20.9652C37.2218 20.9652 37.5092 21.2525 37.5092 21.607Z" fill="#35B2C2"/>
<path d="M39.6485 21.8922C39.6485 22.2467 39.3611 22.534 39.0067 22.534C38.6522 22.534 38.3649 22.2467 38.3649 21.8922C38.3649 21.5378 38.6522 21.2504 39.0067 21.2504C39.3611 21.2504 39.6485 21.5378 39.6485 21.8922Z" fill="#35B2C2"/>
<path d="M41.7878 22.3201C41.7878 22.6745 41.5004 22.9619 41.146 22.9619C40.7915 22.9619 40.5042 22.6745 40.5042 22.3201C40.5042 21.9656 40.7915 21.6783 41.146 21.6783C41.5004 21.6783 41.7878 21.9656 41.7878 22.3201Z" fill="#35B2C2"/>
<path d="M43.9271 23.0332C43.9271 23.3876 43.6397 23.675 43.2853 23.675C42.9308 23.675 42.6435 23.3876 42.6435 23.0332C42.6435 22.6787 42.9308 22.3914 43.2853 22.3914C43.6397 22.3914 43.9271 22.6787 43.9271 23.0332Z" fill="#35B2C2"/>
<path d="M45.9238 24.1742C45.9238 24.5286 45.6364 24.816 45.282 24.816C44.9275 24.816 44.6402 24.5286 44.6402 24.1742C44.6402 23.8197 44.9275 23.5324 45.282 23.5324C45.6364 23.5324 45.9238 23.8197 45.9238 24.1742Z" fill="#35B2C2"/>
<path d="M47.7778 25.3151C47.7778 25.6696 47.4905 25.9569 47.136 25.9569C46.7816 25.9569 46.4943 25.6696 46.4943 25.3151C46.4943 24.9607 46.7816 24.6733 47.136 24.6733C47.4905 24.6733 47.7778 24.9607 47.7778 25.3151Z" fill="#35B2C2"/>
<path d="M49.6319 26.7413C49.6319 27.0958 49.3446 27.3831 48.9901 27.3831C48.6357 27.3831 48.3483 27.0958 48.3483 26.7413C48.3483 26.3869 48.6357 26.0995 48.9901 26.0995C49.3446 26.0995 49.6319 26.3869 49.6319 26.7413Z" fill="#35B2C2"/>
<path d="M51.2007 28.3102C51.2007 28.6646 50.9134 28.9519 50.5589 28.9519C50.2045 28.9519 49.9171 28.6646 49.9171 28.3102C49.9171 27.9557 50.2045 27.6684 50.5589 27.6684C50.9134 27.6684 51.2007 27.9557 51.2007 28.3102Z" fill="#35B2C2"/>
<path d="M52.6269 30.1642C52.6269 30.5187 52.3396 30.806 51.9851 30.806C51.6307 30.806 51.3433 30.5187 51.3433 30.1642C51.3433 29.8098 51.6307 29.5224 51.9851 29.5224C52.3396 29.5224 52.6269 29.8098 52.6269 30.1642Z" fill="#35B2C2"/>
<path d="M53.9105 32.1609C53.9105 32.5154 53.6232 32.8027 53.2687 32.8027C52.9143 32.8027 52.6269 32.5154 52.6269 32.1609C52.6269 31.8065 52.9143 31.5191 53.2687 31.5191C53.6232 31.5191 53.9105 31.8065 53.9105 32.1609Z" fill="#35B2C2"/>
<path d="M54.9089 34.1576C54.9089 34.512 54.6215 34.7994 54.2671 34.7994C53.9126 34.7994 53.6253 34.512 53.6253 34.1576C53.6253 33.8031 53.9126 33.5158 54.2671 33.5158C54.6215 33.5158 54.9089 33.8031 54.9089 34.1576Z" fill="#35B2C2"/>
<path d="M55.622 36.2969C55.622 36.6513 55.3346 36.9387 54.9802 36.9387C54.6257 36.9387 54.3384 36.6513 54.3384 36.2969C54.3384 35.9424 54.6257 35.6551 54.9802 35.6551C55.3346 35.6551 55.622 35.9424 55.622 36.2969Z" fill="#35B2C2"/>
<path d="M56.1924 38.5788C56.1924 38.9333 55.9051 39.2206 55.5506 39.2206C55.1962 39.2206 54.9089 38.9333 54.9089 38.5788C54.9089 38.2244 55.1962 37.937 55.5506 37.937C55.9051 37.937 56.1924 38.2244 56.1924 38.5788Z" fill="#35B2C2"/>
<path d="M56.4777 40.8607C56.4777 41.2152 56.1903 41.5025 55.8359 41.5025C55.4814 41.5025 55.1941 41.2152 55.1941 40.8607C55.1941 40.5063 55.4814 40.219 55.8359 40.219C56.1903 40.219 56.4777 40.5063 56.4777 40.8607Z" fill="#35B2C2"/>
<path d="M56.4777 43.1427C56.4777 43.4971 56.1903 43.7845 55.8359 43.7845C55.4814 43.7845 55.1941 43.4971 55.1941 43.1427C55.1941 42.7882 55.4814 42.5009 55.8359 42.5009C56.1903 42.5009 56.4777 42.7882 56.4777 43.1427Z" fill="#35B2C2"/>
<path d="M56.3351 45.4246C56.3351 45.7791 56.0477 46.0664 55.6933 46.0664C55.3388 46.0664 55.0515 45.7791 55.0515 45.4246C55.0515 45.0701 55.3388 44.7828 55.6933 44.7828C56.0477 44.7828 56.3351 45.0701 56.3351 45.4246Z" fill="#35B2C2"/>
<path d="M55.7646 47.5639C55.7646 47.9184 55.4772 48.2057 55.1228 48.2057C54.7683 48.2057 54.481 47.9184 54.481 47.5639C54.481 47.2095 54.7683 46.9221 55.1228 46.9221C55.4772 46.9221 55.7646 47.2095 55.7646 47.5639Z" fill="#35B2C2"/>
<path d="M55.0515 49.7032C55.0515 50.0577 54.7641 50.345 54.4097 50.345C54.0552 50.345 53.7679 50.0577 53.7679 49.7032C53.7679 49.3488 54.0552 49.0614 54.4097 49.0614C54.7641 49.0614 55.0515 49.3488 55.0515 49.7032Z" fill="#35B2C2"/>
<path d="M54.0531 51.6999C54.0531 52.0543 53.7658 52.3417 53.4113 52.3417C53.0569 52.3417 52.7695 52.0543 52.7695 51.6999C52.7695 51.3454 53.0569 51.0581 53.4113 51.0581C53.7658 51.0581 54.0531 51.3454 54.0531 51.6999Z" fill="#35B2C2"/>
<path d="M52.9122 53.554C52.9122 53.9084 52.6248 54.1958 52.2704 54.1958C51.9159 54.1958 51.6286 53.9084 51.6286 53.554C51.6286 53.1995 51.9159 52.9122 52.2704 52.9122C52.6248 52.9122 52.9122 53.1995 52.9122 53.554Z" fill="#35B2C2"/>
<path d="M51.6286 55.2654C51.6286 55.6199 51.3412 55.9072 50.9868 55.9072C50.6323 55.9072 50.345 55.6199 50.345 55.2654C50.345 54.911 50.6323 54.6236 50.9868 54.6236C51.3412 54.6236 51.6286 54.911 51.6286 55.2654Z" fill="#35B2C2"/>
<path d="M50.0598 56.6916C50.0598 57.0461 49.7724 57.3334 49.418 57.3334C49.0635 57.3334 48.7762 57.0461 48.7762 56.6916C48.7762 56.3372 49.0635 56.0498 49.418 56.0498C49.7724 56.0498 50.0598 56.3372 50.0598 56.6916Z" fill="#35B2C2"/>
<path d="M48.3483 57.9752C48.3483 58.3296 48.061 58.617 47.7065 58.617C47.3521 58.617 47.0647 58.3296 47.0647 57.9752C47.0647 57.6207 47.3521 57.3334 47.7065 57.3334C48.061 57.3334 48.3483 57.6207 48.3483 57.9752Z" fill="#35B2C2"/>
<path d="M46.3516 59.1162C46.3516 59.4706 46.0643 59.7579 45.7098 59.7579C45.3554 59.7579 45.068 59.4706 45.068 59.1162C45.068 58.7617 45.3554 58.4744 45.7098 58.4744C46.0643 58.4744 46.3516 58.7617 46.3516 59.1162Z" fill="#35B2C2"/>
<path d="M44.3549 59.8293C44.3549 60.1837 44.0676 60.4711 43.7132 60.4711C43.3587 60.4711 43.0714 60.1837 43.0714 59.8293C43.0714 59.4748 43.3587 59.1875 43.7132 59.1875C44.0676 59.1875 44.3549 59.4748 44.3549 59.8293Z" fill="#35B2C2"/>
<path d="M42.3583 60.3997C42.3583 60.7542 42.0709 61.0415 41.7165 61.0415C41.362 61.0415 41.0747 60.7542 41.0747 60.3997C41.0747 60.0453 41.362 59.7579 41.7165 59.7579C42.0709 59.7579 42.3583 60.0453 42.3583 60.3997Z" fill="#35B2C2"/>
<path d="M37.937 60.8276C37.937 61.1821 37.6497 61.4694 37.2952 61.4694C36.9408 61.4694 36.6534 61.1821 36.6534 60.8276C36.6534 60.4731 36.9408 60.1858 37.2952 60.1858C37.6497 60.1858 37.937 60.4731 37.937 60.8276Z" fill="#35B2C2"/>
<path d="M35.7977 60.5424C35.7977 60.8968 35.5104 61.1842 35.1559 61.1842C34.8015 61.1842 34.5141 60.8968 34.5141 60.5424C34.5141 60.1879 34.8015 59.9006 35.1559 59.9006C35.5104 59.9006 35.7977 60.1879 35.7977 60.5424Z" fill="#35B2C2"/>
<path d="M33.6584 60.1145C33.6584 60.469 33.3711 60.7563 33.0166 60.7563C32.6622 60.7563 32.3748 60.469 32.3748 60.1145C32.3748 59.76 32.6622 59.4727 33.0166 59.4727C33.3711 59.4727 33.6584 59.76 33.6584 60.1145Z" fill="#35B2C2"/>
<path d="M31.5191 59.2588C31.5191 59.6132 31.2318 59.9006 30.8773 59.9006C30.5229 59.9006 30.2355 59.6132 30.2355 59.2588C30.2355 58.9043 30.5229 58.617 30.8773 58.617C31.2318 58.617 31.5191 58.9043 31.5191 59.2588Z" fill="#35B2C2"/>
<path d="M29.5224 58.2604C29.5224 58.6149 29.2351 58.9022 28.8806 58.9022C28.5262 58.9022 28.2388 58.6149 28.2388 58.2604C28.2388 57.906 28.5262 57.6186 28.8806 57.6186C29.2351 57.6186 29.5224 57.906 29.5224 58.2604Z" fill="#35B2C2"/>
<path d="M27.5257 57.1195C27.5257 57.4739 27.2384 57.7613 26.8839 57.7613C26.5295 57.7613 26.2422 57.4739 26.2422 57.1195C26.2422 56.765 26.5295 56.4777 26.8839 56.4777C27.2384 56.4777 27.5257 56.765 27.5257 57.1195Z" fill="#35B2C2"/>
<path d="M25.8143 55.6933C25.8143 56.0477 25.527 56.3351 25.1725 56.3351C24.818 56.3351 24.5307 56.0477 24.5307 55.6933C24.5307 55.3388 24.818 55.0515 25.1725 55.0515C25.527 55.0515 25.8143 55.3388 25.8143 55.6933Z" fill="#35B2C2"/>
<path d="M24.2455 53.9818C24.2455 54.3363 23.9581 54.6236 23.6037 54.6236C23.2492 54.6236 22.9619 54.3363 22.9619 53.9818C22.9619 53.6274 23.2492 53.34 23.6037 53.34C23.9581 53.34 24.2455 53.6274 24.2455 53.9818Z" fill="#35B2C2"/>
<path d="M22.8193 52.2704C22.8193 52.6248 22.5319 52.9122 22.1775 52.9122C21.823 52.9122 21.5357 52.6248 21.5357 52.2704C21.5357 51.9159 21.823 51.6286 22.1775 51.6286C22.5319 51.6286 22.8193 51.9159 22.8193 52.2704Z" fill="#35B2C2"/>
<path d="M21.5357 50.2737C21.5357 50.6281 21.2483 50.9155 20.8939 50.9155C20.5394 50.9155 20.2521 50.6281 20.2521 50.2737C20.2521 49.9192 20.5394 49.6319 20.8939 49.6319C21.2483 49.6319 21.5357 49.9192 21.5357 50.2737Z" fill="#35B2C2"/>
<path d="M20.5373 48.1344C20.5373 48.4888 20.25 48.7762 19.8955 48.7762C19.5411 48.7762 19.2538 48.4888 19.2538 48.1344C19.2538 47.7799 19.5411 47.4926 19.8955 47.4926C20.25 47.4926 20.5373 47.7799 20.5373 48.1344Z" fill="#35B2C2"/>
<path d="M19.8242 45.9951C19.8242 46.3495 19.5369 46.6369 19.1824 46.6369C18.828 46.6369 18.5407 46.3495 18.5407 45.9951C18.5407 45.6406 18.828 45.3533 19.1824 45.3533C19.5369 45.3533 19.8242 45.6406 19.8242 45.9951Z" fill="#35B2C2"/>
<path d="M19.2538 43.7132C19.2538 44.0676 18.9664 44.3549 18.612 44.3549C18.2575 44.3549 17.9702 44.0676 17.9702 43.7132C17.9702 43.3587 18.2575 43.0714 18.612 43.0714C18.9664 43.0714 19.2538 43.3587 19.2538 43.7132Z" fill="#35B2C2"/>
<path d="M18.9685 41.5738C18.9685 41.9283 18.6812 42.2156 18.3267 42.2156C17.9723 42.2156 17.6849 41.9283 17.6849 41.5738C17.6849 41.2194 17.9723 40.9321 18.3267 40.9321C18.6812 40.9321 18.9685 41.2194 18.9685 41.5738Z" fill="#35B2C2"/>
<path d="M18.9685 39.2919C18.9685 39.6464 18.6812 39.9337 18.3267 39.9337C17.9723 39.9337 17.6849 39.6464 17.6849 39.2919C17.6849 38.9375 17.9723 38.6501 18.3267 38.6501C18.6812 38.6501 18.9685 38.9375 18.9685 39.2919Z" fill="#35B2C2"/>
<path d="M19.1111 37.01C19.1111 37.3644 18.8238 37.6518 18.4693 37.6518C18.1149 37.6518 17.8276 37.3644 17.8276 37.01C17.8276 36.6555 18.1149 36.3682 18.4693 36.3682C18.8238 36.3682 19.1111 36.6555 19.1111 37.01Z" fill="#35B2C2"/>
<path d="M19.6816 34.7281C19.6816 35.0825 19.3943 35.3699 19.0398 35.3699C18.6854 35.3699 18.398 35.0825 18.398 34.7281C18.398 34.3736 18.6854 34.0863 19.0398 34.0863C19.3943 34.0863 19.6816 34.3736 19.6816 34.7281Z" fill="#35B2C2"/>
<path d="M40.219 60.685C40.219 61.0394 39.9316 61.3268 39.5772 61.3268C39.2227 61.3268 38.9354 61.0394 38.9354 60.685C38.9354 60.3305 39.2227 60.0432 39.5772 60.0432C39.9316 60.0432 40.219 60.3305 40.219 60.685Z" fill="#35B2C2"/>
<path d="M88.7029 6.20923H86.9288V66.5272H88.7029V6.20923Z" fill="white"/>
<path d="M113.062 7.62277C112.621 8.25388 112.04 8.77769 111.321 9.19422C110.601 9.61074 109.875 9.81901 109.143 9.81901C108.903 10.1219 108.727 10.4122 108.613 10.6899C108.512 10.9676 108.462 11.2895 108.462 11.6555V17.7709C108.462 18.6797 108.26 19.4433 107.856 20.0618C107.465 20.6803 106.852 21.2483 106.019 21.7658L105.622 21.3114C105.95 20.8948 106.114 20.2827 106.114 19.4749V12.7536C106.114 12.2235 106.278 11.7123 106.606 11.2201C106.947 10.7152 107.364 10.2482 107.856 9.81901L105.338 9.80008C104.909 9.80008 104.517 9.89474 104.164 10.0841C103.81 10.2734 103.476 10.5637 103.16 10.955L102.744 10.5574C103.337 9.77483 103.943 9.15635 104.561 8.70196C105.193 8.24756 105.906 8.02037 106.701 8.02037H109.503C110.109 8.02037 110.721 7.96988 111.34 7.8689C111.958 7.75531 112.425 7.55966 112.741 7.28198L113.062 7.62277ZM115.853 16.6728H115.929C116.207 15.4484 116.661 14.3188 117.292 13.2838C117.923 12.2487 118.699 11.7312 119.621 11.7312C120.05 11.7312 120.366 11.8638 120.567 12.1288C120.782 12.3939 120.915 12.7095 120.965 13.0755C121.016 13.4289 121.041 13.8644 121.041 14.3819V19.6263C121.041 19.7778 121.085 19.9229 121.173 20.0618C121.274 20.188 121.413 20.2511 121.59 20.2511C121.893 20.2511 122.208 20.0302 122.536 19.5885L122.858 19.9482C122.644 20.3773 122.335 20.7434 121.931 21.0463C121.527 21.3492 121.085 21.5007 120.605 21.5007C119.406 21.5007 118.807 20.838 118.807 19.5127V14.5523C118.807 14.3882 118.775 14.243 118.712 14.1168C118.662 13.978 118.567 13.9085 118.428 13.9085C117.898 13.9085 117.437 14.3503 117.046 15.2339C116.667 16.1174 116.371 17.1398 116.156 18.301C115.954 19.4622 115.853 20.4026 115.853 21.122L113.581 21.6143V4.66922L115.853 3.87403V16.6728ZM129.447 11.7312C130.179 11.7312 130.791 11.9206 131.284 12.2992C131.776 12.6653 132.022 13.2017 132.022 13.9085C132.022 14.4765 131.713 15.1139 131.094 15.8208C130.489 16.515 129.763 17.165 128.917 17.7709C128.084 18.3641 127.371 18.7933 126.778 19.0583C127.308 19.904 128.084 20.3268 129.106 20.3268C129.674 20.3268 130.242 20.1691 130.81 19.8535C131.391 19.5253 131.883 19.0962 132.287 18.5661L132.666 19.0205C132.009 19.8409 131.315 20.4783 130.583 20.9327C129.864 21.3745 129.005 21.5954 128.008 21.5954C127.2 21.5954 126.475 21.4123 125.831 21.0463C125.2 20.6803 124.701 20.1817 124.335 19.5506C123.982 18.9069 123.805 18.1874 123.805 17.3922C123.805 16.433 124.064 15.5179 124.581 14.6469C125.112 13.7634 125.812 13.0566 126.683 12.5264C127.554 11.9963 128.475 11.7312 129.447 11.7312ZM128.368 12.9619C127.888 12.9619 127.459 13.1386 127.081 13.492C126.702 13.8328 126.405 14.2746 126.191 14.8173C125.976 15.3601 125.869 15.9218 125.869 16.5024C125.869 17.2597 126.033 17.9097 126.361 18.4525C126.828 18.1874 127.32 17.8214 127.838 17.3544C128.368 16.8747 128.81 16.3635 129.163 15.8208C129.517 15.278 129.693 14.7858 129.693 14.344C129.693 13.9022 129.573 13.5614 129.334 13.3216C129.106 13.0818 128.785 12.9619 128.368 12.9619ZM111.358 28.547C112.204 28.547 112.886 28.7742 113.403 29.2286C113.921 29.683 114.179 30.2826 114.179 31.0273C114.179 31.6331 114.009 32.2453 113.668 32.8638C113.327 33.4696 112.867 34.0061 112.286 34.4731C111.718 34.9401 111.087 35.2683 110.393 35.4576L110.109 34.9653C110.652 34.7129 111.087 34.3279 111.415 33.8104C111.756 33.2803 111.926 32.7123 111.926 32.1065C111.926 31.387 111.731 30.8127 111.34 30.3835C110.948 29.9418 110.437 29.7209 109.806 29.7209C109.137 29.7209 108.506 29.9923 107.913 30.535C107.332 31.0651 106.865 31.7846 106.512 32.6934C106.171 33.5895 106 34.5551 106 35.5901C106 36.6504 106.164 37.5907 106.493 38.4112C106.821 39.219 107.275 39.8501 107.856 40.3045C108.449 40.7589 109.124 40.9861 109.882 40.9861C110.424 40.9861 110.967 40.8535 111.51 40.5885C112.065 40.3108 112.602 39.9132 113.119 39.3957L113.63 39.869C113.037 40.6389 112.299 41.2827 111.415 41.8002C110.544 42.3051 109.629 42.5575 108.67 42.5575C107.635 42.5575 106.726 42.3177 105.944 41.838C105.174 41.3584 104.58 40.6957 104.164 39.8501C103.747 38.9918 103.539 38.0136 103.539 36.9154C103.539 35.3756 103.886 33.9682 104.58 32.6934C105.287 31.4059 106.234 30.3962 107.42 29.6641C108.619 28.9194 109.932 28.547 111.358 28.547ZM119.761 33.1288C118.928 33.7221 118.272 34.3974 117.792 35.1547C117.325 35.8994 117.092 36.7766 117.092 37.7864C117.092 38.3417 117.199 38.9034 117.414 39.4714C117.628 40.0394 117.944 40.5127 118.36 40.8914C118.777 41.2574 119.275 41.4404 119.856 41.4404C120.588 41.4404 121.175 41.1754 121.617 40.6453C122.071 40.1151 122.298 39.4588 122.298 38.6762C122.298 38.083 122.141 37.4834 121.825 36.8776C121.522 36.2591 121.112 35.7416 120.594 35.3251C120.077 34.8959 119.522 34.6561 118.928 34.6056C119.193 34.3153 119.477 34.0502 119.78 33.8104C120.096 33.5706 120.487 33.2803 120.954 32.9395C121.863 33.2424 122.582 33.8041 123.112 34.6245C123.655 35.445 123.927 36.3475 123.927 37.332C123.927 38.2029 123.731 39.0486 123.34 39.869C122.961 40.6894 122.406 41.3584 121.674 41.8759C120.954 42.3808 120.115 42.6332 119.155 42.6332C118.36 42.6332 117.628 42.4502 116.959 42.0842C116.303 41.7055 115.779 41.1943 115.388 40.5506C114.997 39.8942 114.801 39.1748 114.801 38.3922C114.801 37.0417 115.224 35.8552 116.069 34.8328C116.928 33.8104 118.038 33.0973 119.402 32.6934L119.761 33.1288ZM130.319 33.1288C129.486 33.7221 128.829 34.3974 128.35 35.1547C127.883 35.8994 127.649 36.7766 127.649 37.7864C127.649 38.3417 127.756 38.9034 127.971 39.4714C128.186 40.0394 128.501 40.5127 128.918 40.8914C129.334 41.2574 129.833 41.4404 130.413 41.4404C131.145 41.4404 131.732 41.1754 132.174 40.6453C132.629 40.1151 132.856 39.4588 132.856 38.6762C132.856 38.083 132.698 37.4834 132.382 36.8776C132.079 36.2591 131.669 35.7416 131.152 35.3251C130.634 34.8959 130.079 34.6561 129.486 34.6056C129.751 34.3153 130.035 34.0502 130.338 33.8104C130.653 33.5706 131.044 33.2803 131.511 32.9395C132.42 33.2424 133.14 33.8041 133.67 34.6245C134.213 35.445 134.484 36.3475 134.484 37.332C134.484 38.2029 134.288 39.0486 133.897 39.869C133.518 40.6894 132.963 41.3584 132.231 41.8759C131.511 42.3808 130.672 42.6332 129.713 42.6332C128.918 42.6332 128.186 42.4502 127.517 42.0842C126.86 41.7055 126.336 41.1943 125.945 40.5506C125.554 39.8942 125.358 39.1748 125.358 38.3922C125.358 37.0417 125.781 35.8552 126.627 34.8328C127.485 33.8104 128.596 33.0973 129.959 32.6934L130.319 33.1288ZM138.926 37.6917C139.317 36.7955 139.778 36.0508 140.308 35.4576L140.251 35.3819C139.822 35.6343 139.305 35.7605 138.699 35.7605C138.308 35.7605 137.948 35.6974 137.62 35.5712L136.389 38.2029L135.613 37.8621L136.881 35.2493C136.843 35.2115 136.723 35.1042 136.522 34.9275C136.32 34.7508 136.193 34.5741 136.143 34.3974L137.96 32.3526C138.099 32.8701 138.364 33.3245 138.756 33.7158C139.16 34.0944 139.608 34.2838 140.1 34.2838C140.87 34.2838 141.678 34.0061 142.523 33.4507L142.864 33.8104C142.132 34.492 141.507 35.2998 140.99 36.2339C140.472 37.1679 140.213 38.1082 140.213 39.0549C140.213 39.6355 140.359 40.1214 140.649 40.5127C140.952 40.904 141.387 41.0997 141.955 41.0997C142.334 41.0997 142.738 40.9608 143.167 40.6831L143.451 41.0239C143.085 41.4909 142.643 41.8633 142.126 42.141C141.621 42.4187 141.091 42.5575 140.535 42.5575C139.841 42.5575 139.305 42.3303 138.926 41.8759C138.547 41.4089 138.358 40.822 138.358 40.1151C138.358 39.3831 138.547 38.5752 138.926 37.6917ZM153.034 40.5506C153.034 40.7273 153.072 40.8851 153.148 41.0239C153.236 41.1501 153.362 41.2132 153.526 41.2132C153.69 41.2132 153.854 41.1438 154.018 41.005C154.195 40.8661 154.328 40.7147 154.416 40.5506L154.833 40.9103C154.605 41.3521 154.29 41.7308 153.886 42.0463C153.495 42.3492 153.072 42.5007 152.617 42.5007C151.961 42.5007 151.488 42.324 151.197 41.9706C150.907 41.6045 150.768 41.0492 150.781 40.3045H150.686C150.396 40.9608 150.017 41.5099 149.55 41.9516C149.083 42.3808 148.522 42.5954 147.865 42.5954C147.171 42.5954 146.578 42.4187 146.086 42.0652C145.593 41.7118 145.221 41.2385 144.968 40.6453C144.716 40.0394 144.59 39.3704 144.59 38.6384C144.59 37.7043 144.779 36.7892 145.158 35.8931C145.549 34.9843 146.111 34.2396 146.843 33.659C147.575 33.0784 148.427 32.788 149.399 32.788C149.891 32.788 150.339 32.908 150.743 33.1478V25.6692L153.034 24.874V40.5506ZM149.361 33.9998C148.755 33.9998 148.25 34.208 147.846 34.6245C147.455 35.0285 147.165 35.5333 146.975 36.1392C146.786 36.7324 146.691 37.3194 146.691 37.9C146.691 38.6825 146.843 39.4272 147.146 40.1341C147.461 40.8409 147.954 41.1943 148.623 41.1943C149.43 41.1943 149.986 40.7841 150.289 39.9637C150.592 39.1306 150.743 38.2281 150.743 37.2562V34.6245C150.327 34.208 149.866 33.9998 149.361 33.9998ZM158.292 30.9137L157.099 31.2923L156.323 27.3353L158.954 26.4455L158.292 30.9137ZM158.898 40.6263C158.898 40.8157 158.942 40.9671 159.03 41.0807C159.118 41.1943 159.238 41.2511 159.39 41.2511C159.705 41.2511 160.027 41.0302 160.355 40.5885L160.696 40.9482C160.419 41.4531 160.059 41.838 159.617 42.1031C159.188 42.3682 158.759 42.5007 158.33 42.5007C157.181 42.5007 156.607 41.838 156.607 40.5127V33.6968L158.898 32.9016V40.6263ZM169.245 32.7312C169.687 32.7312 170.009 32.8638 170.21 33.1288C170.412 33.3813 170.539 33.6842 170.589 34.0376C170.64 34.3784 170.665 34.8202 170.665 35.3629V40.6263C170.665 40.7778 170.709 40.9229 170.797 41.0618C170.898 41.188 171.018 41.2511 171.157 41.2511C171.346 41.2511 171.511 41.1943 171.649 41.0807C171.801 40.9545 171.959 40.7904 172.123 40.5885L172.445 40.9482C172.217 41.39 171.902 41.7623 171.498 42.0652C171.107 42.3555 170.684 42.5007 170.229 42.5007C169.624 42.5007 169.169 42.3303 168.866 41.9895C168.563 41.6361 168.412 41.1438 168.412 40.5127V35.5523C168.412 35.3756 168.393 35.2241 168.355 35.0979C168.317 34.9717 168.229 34.9085 168.09 34.9085C167.661 34.9085 167.225 35.3692 166.784 36.2907C166.342 37.1994 165.969 38.2471 165.667 39.4335C165.364 40.62 165.212 41.5162 165.212 42.122L162.997 42.6143V34.6624C162.997 34.4731 162.953 34.3153 162.864 34.1891C162.776 34.0629 162.65 33.9998 162.486 33.9998C162.309 33.9998 162.132 34.0755 161.956 34.227C161.792 34.3658 161.653 34.5299 161.539 34.7192L161.198 34.3406C161.388 33.8988 161.684 33.5201 162.088 33.2046C162.492 32.889 162.928 32.7312 163.395 32.7312C164.026 32.7312 164.486 32.908 164.777 33.2614C165.067 33.6022 165.212 34.0818 165.212 34.7003V38.3544H165.288C165.629 36.9533 166.134 35.6659 166.803 34.492C167.484 33.3182 168.298 32.7312 169.245 32.7312ZM178.695 32.9016C179.364 32.9016 179.983 33.0342 180.551 33.2992C181.131 33.5643 181.56 33.9745 181.838 34.5299L180.002 35.2872C179.825 34.959 179.579 34.6877 179.263 34.4731C178.948 34.2585 178.613 34.1512 178.26 34.1512C177.414 34.1512 176.745 34.5046 176.253 35.2115C175.761 35.9183 175.514 36.8018 175.514 37.8621C175.514 38.834 175.66 39.6355 175.95 40.2666C176.24 40.8851 176.701 41.1943 177.332 41.1943C178.216 41.1943 178.821 40.7841 179.15 39.9637C179.478 39.1306 179.642 38.2281 179.642 37.2562V36.4232L181.857 35.628V40.5506C181.857 40.7273 181.895 40.8851 181.971 41.0239C182.059 41.1501 182.185 41.2132 182.349 41.2132C182.665 41.2132 182.987 40.9924 183.315 40.5506L183.675 40.9103C183.485 41.3521 183.182 41.7308 182.766 42.0463C182.362 42.3492 181.926 42.5007 181.459 42.5007C180.854 42.5007 180.412 42.2987 180.134 41.8948C179.856 41.4783 179.718 40.9482 179.718 40.3045H179.642C179.339 40.9861 178.935 41.5414 178.43 41.9706C177.925 42.3871 177.338 42.5954 176.669 42.5954C175.66 42.5954 174.877 42.2293 174.322 41.4972C173.779 40.7525 173.508 39.787 173.508 38.6005C173.508 37.5907 173.722 36.6504 174.151 35.7795C174.593 34.9085 175.205 34.2143 175.988 33.6968C176.783 33.1667 177.685 32.9016 178.695 32.9016ZM187.744 34.1512V40.6263C187.744 40.803 187.794 40.9545 187.895 41.0807C187.996 41.1943 188.128 41.2511 188.293 41.2511C188.596 41.2511 188.936 41.0302 189.315 40.5885L189.656 40.9482C189.429 41.4026 189.145 41.7434 188.804 41.9706C188.463 42.1978 188.135 42.3492 187.819 42.425C187.504 42.5007 187.346 42.5259 187.346 42.5007C186.084 42.5007 185.453 41.838 185.453 40.5127V34.1512H184.108L184.695 32.9016H185.453V28.6038L187.744 27.8276V32.9016H190.224L189.656 34.1512H187.744ZM196.582 32.7312C197.314 32.7312 197.926 32.9206 198.418 33.2992C198.911 33.6653 199.157 34.2017 199.157 34.9085C199.157 35.4765 198.848 36.1139 198.229 36.8208C197.623 37.515 196.897 38.165 196.052 38.7709C195.219 39.3641 194.506 39.7933 193.912 40.0583C194.442 40.904 195.219 41.3268 196.241 41.3268C196.809 41.3268 197.377 41.1691 197.945 40.8535C198.526 40.5253 199.018 40.0962 199.422 39.5661L199.8 40.0205C199.144 40.8409 198.45 41.4783 197.718 41.9327C196.998 42.3745 196.14 42.5954 195.143 42.5954C194.335 42.5954 193.609 42.4123 192.966 42.0463C192.335 41.6803 191.836 41.1817 191.47 40.5506C191.117 39.9069 190.94 39.1874 190.94 38.3922C190.94 37.433 191.199 36.5179 191.716 35.6469C192.246 34.7634 192.947 34.0566 193.818 33.5264C194.689 32.9963 195.61 32.7312 196.582 32.7312ZM195.503 33.9619C195.023 33.9619 194.594 34.1386 194.215 34.492C193.837 34.8328 193.54 35.2746 193.325 35.8173C193.111 36.3601 193.004 36.9218 193.004 37.5024C193.004 38.2597 193.168 38.9097 193.496 39.4525C193.963 39.1874 194.455 38.8214 194.973 38.3544C195.503 37.8747 195.944 37.3635 196.298 36.8208C196.651 36.278 196.828 35.7858 196.828 35.344C196.828 34.9022 196.708 34.5614 196.468 34.3216C196.241 34.0818 195.919 33.9619 195.503 33.9619ZM209.556 40.5506C209.556 40.7273 209.594 40.8851 209.669 41.0239C209.758 41.1501 209.884 41.2132 210.048 41.2132C210.212 41.2132 210.376 41.1438 210.54 41.005C210.717 40.8661 210.849 40.7147 210.938 40.5506L211.354 40.9103C211.127 41.3521 210.812 41.7308 210.408 42.0463C210.016 42.3492 209.594 42.5007 209.139 42.5007C208.483 42.5007 208.01 42.324 207.719 41.9706C207.429 41.6045 207.29 41.0492 207.303 40.3045H207.208C206.918 40.9608 206.539 41.5099 206.072 41.9516C205.605 42.3808 205.043 42.5954 204.387 42.5954C203.693 42.5954 203.1 42.4187 202.607 42.0652C202.115 41.7118 201.743 41.2385 201.49 40.6453C201.238 40.0394 201.112 39.3704 201.112 38.6384C201.112 37.7043 201.301 36.7892 201.68 35.8931C202.071 34.9843 202.633 34.2396 203.365 33.659C204.097 33.0784 204.949 32.788 205.921 32.788C206.413 32.788 206.861 32.908 207.265 33.1478V25.6692L209.556 24.874V40.5506ZM205.883 33.9998C205.277 33.9998 204.772 34.208 204.368 34.6245C203.977 35.0285 203.686 35.5333 203.497 36.1392C203.308 36.7324 203.213 37.3194 203.213 37.9C203.213 38.6825 203.365 39.4272 203.668 40.1341C203.983 40.8409 204.475 41.1943 205.144 41.1943C205.952 41.1943 206.507 40.7841 206.81 39.9637C207.113 39.1306 207.265 38.2281 207.265 37.2562V34.6245C206.848 34.208 206.388 33.9998 205.883 33.9998ZM110.469 48.547C111.188 48.547 111.781 48.7111 112.248 49.0393C112.728 49.3675 112.968 49.8471 112.968 50.4782C112.968 51.0336 112.772 51.5574 112.381 52.0497C112.002 52.5293 111.485 52.9458 110.828 53.2992C110.185 53.6527 109.471 53.9114 108.689 54.0755L108.481 53.5643C109.162 53.2487 109.686 52.8701 110.052 52.4283C110.418 51.9865 110.601 51.4943 110.601 50.9515C110.601 50.5603 110.488 50.251 110.26 50.0238C110.046 49.784 109.737 49.6641 109.333 49.6641C108.765 49.6641 108.285 49.8282 107.894 50.1564C107.502 50.4719 107.212 50.8821 107.023 51.387C106.833 51.8793 106.739 52.3905 106.739 52.9206V58.6384C106.739 59.0044 106.682 59.3199 106.568 59.585C106.467 59.8374 106.297 60.0962 106.057 60.3613L106.171 60.437C106.739 60.0836 107.338 59.9069 107.969 59.9069C108.386 59.9069 108.885 59.9574 109.465 60.0583C109.554 60.071 109.73 60.0962 109.995 60.1341C110.273 60.1719 110.557 60.1909 110.847 60.1909C111.289 60.1909 111.68 60.0773 112.021 59.8501C112.375 59.6229 112.703 59.3136 113.006 58.9224L113.46 59.2442L111.926 62.5575C111.283 62.507 110.462 62.3808 109.465 62.1788C108.859 62.0652 108.329 61.9769 107.875 61.9138C107.42 61.8507 106.928 61.8191 106.398 61.8191C105.552 61.8191 104.782 62.0589 104.088 62.5386L103.52 62.0084C103.81 61.7686 104.019 61.4909 104.145 61.1754C104.284 60.8472 104.353 60.4244 104.353 59.9069V54.776C104.353 53.6148 104.606 52.5608 105.111 51.6142C105.628 50.6675 106.348 49.9228 107.269 49.3801C108.203 48.8247 109.27 48.547 110.469 48.547ZM116.728 50.9137L115.535 51.2923L114.759 47.3353L117.39 46.4455L116.728 50.9137ZM117.334 60.6263C117.334 60.8157 117.378 60.9671 117.466 61.0807C117.554 61.1943 117.674 61.2511 117.826 61.2511C118.141 61.2511 118.463 61.0302 118.791 60.5885L119.132 60.9482C118.855 61.4531 118.495 61.838 118.053 62.1031C117.624 62.3682 117.195 62.5007 116.766 62.5007C115.617 62.5007 115.043 61.838 115.043 60.5127V53.6968L117.334 52.9016V60.6263ZM127.245 52.2011C127.776 52.4031 128.186 52.6997 128.476 53.091C128.766 53.4823 128.912 53.924 128.912 54.4163C128.912 54.6813 128.874 54.9717 128.798 55.2872C128.722 55.5901 128.628 55.8552 128.514 56.0824L125.314 62.4439C125.276 62.5196 125.201 62.5827 125.087 62.6332C124.974 62.6837 124.854 62.709 124.727 62.709C124.576 62.709 124.437 62.6837 124.311 62.6332C124.197 62.5827 124.122 62.507 124.084 62.406L120.922 55.4387C120.644 54.9212 120.348 54.6624 120.032 54.6624C119.855 54.6624 119.66 54.7886 119.445 55.0411L119.142 54.776C119.294 54.2838 119.597 53.8546 120.051 53.4886C120.505 53.1099 121.004 52.9206 121.547 52.9206C121.887 52.9206 122.171 53.1036 122.399 53.4696C122.638 53.8231 122.866 54.2522 123.08 54.7571L125.542 60.3045L126.905 57.5024C127.145 56.9975 127.264 56.5747 127.264 56.2339C127.264 55.7542 127.138 55.3377 126.886 54.9843C126.633 54.6309 126.28 54.3469 125.826 54.1323L127.245 52.2011ZM132.425 50.9137L131.232 51.2923L130.456 47.3353L133.088 46.4455L132.425 50.9137ZM133.031 60.6263C133.031 60.8157 133.075 60.9671 133.164 61.0807C133.252 61.1943 133.372 61.2511 133.523 61.2511C133.839 61.2511 134.161 61.0302 134.489 60.5885L134.83 60.9482C134.552 61.4531 134.192 61.838 133.75 62.1031C133.321 62.3682 132.892 62.5007 132.463 62.5007C131.314 62.5007 130.74 61.838 130.74 60.5127V53.6968L133.031 52.9016V60.6263ZM143.378 52.7312C143.82 52.7312 144.142 52.8638 144.344 53.1288C144.546 53.3813 144.672 53.6842 144.723 54.0376C144.773 54.3784 144.798 54.8202 144.798 55.3629V60.6263C144.798 60.7778 144.843 60.9229 144.931 61.0618C145.032 61.188 145.152 61.2511 145.291 61.2511C145.48 61.2511 145.644 61.1943 145.783 61.0807C145.934 60.9545 146.092 60.7904 146.256 60.5885L146.578 60.9482C146.351 61.39 146.035 61.7623 145.631 62.0652C145.24 62.3555 144.817 62.5007 144.363 62.5007C143.757 62.5007 143.303 62.3303 143 61.9895C142.697 61.6361 142.545 61.1438 142.545 60.5127V55.5523C142.545 55.3756 142.526 55.2241 142.489 55.0979C142.451 54.9717 142.362 54.9085 142.223 54.9085C141.794 54.9085 141.359 55.3692 140.917 56.2907C140.475 57.1994 140.103 58.2471 139.8 59.4335C139.497 60.62 139.346 61.5162 139.346 62.122L137.13 62.6143V54.6624C137.13 54.4731 137.086 54.3153 136.998 54.1891C136.91 54.0629 136.783 53.9998 136.619 53.9998C136.443 53.9998 136.266 54.0755 136.089 54.227C135.925 54.3658 135.786 54.5299 135.673 54.7192L135.332 54.3406C135.521 53.8988 135.818 53.5201 136.222 53.2046C136.626 52.889 137.061 52.7312 137.528 52.7312C138.159 52.7312 138.62 52.908 138.91 53.2614C139.2 53.6022 139.346 54.0818 139.346 54.7003V58.3544H139.421C139.762 56.9533 140.267 55.6659 140.936 54.492C141.618 53.3182 142.432 52.7312 143.378 52.7312ZM152.791 52.7312C153.447 52.7312 154.066 52.889 154.646 53.2046C155.239 53.5201 155.681 53.9619 155.972 54.5299L154.135 55.2872C153.946 54.8581 153.693 54.5299 153.378 54.3027C153.075 54.0629 152.74 53.943 152.374 53.943C151.831 53.943 151.352 54.1512 150.935 54.5677C150.519 54.9717 150.197 55.4765 149.97 56.0824C149.755 56.6883 149.648 57.2815 149.648 57.8621C149.648 58.7583 149.806 59.5408 150.121 60.2098C150.437 60.8661 150.942 61.1943 151.636 61.1943C152.431 61.1943 152.98 60.7778 153.283 59.9447C153.599 59.1117 153.756 58.2155 153.756 57.2562V56.4232L155.99 55.628V61.4404C155.99 62.4123 155.738 63.4032 155.233 64.4129C154.728 65.4353 154.047 66.2747 153.188 66.931C152.33 67.6 151.402 67.9345 150.405 67.9345C149.698 67.9345 149.118 67.701 148.663 67.234L150.273 65.7004C150.677 66.2305 151.15 66.4956 151.693 66.4956C152.538 66.4956 153.094 66.1737 153.359 65.53C153.636 64.8989 153.775 64.0595 153.775 63.0119L153.756 61.6866C153.756 61.1186 153.807 60.6579 153.908 60.3045H153.756C153.39 60.9861 152.98 61.5414 152.526 61.9706C152.071 62.3871 151.522 62.5954 150.879 62.5954C149.844 62.5954 149.042 62.2356 148.474 61.5162C147.906 60.7967 147.622 59.8879 147.622 58.7898C147.622 57.7548 147.837 56.7703 148.266 55.8363C148.708 54.9022 149.32 54.1512 150.102 53.5832C150.897 53.0152 151.794 52.7312 152.791 52.7312Z" fill="white"/>
</svg>
