<svg width="310" height="310" viewBox="0 0 310 310" fill="none" xmlns="http://www.w3.org/2000/svg">
<g clip-path="url(#clip0_1584_1012)">
<g clip-path="url(#clip1_1584_1012)">
<g filter="url(#filter0_dddddd_1584_1012)">
<circle cx="155" cy="155" r="128.359" fill="black"/>
</g>
<path d="M208.06 202.528C207.856 203.845 206.754 204.768 205.598 204.589C204.442 204.41 203.671 203.197 203.875 201.88C204.079 200.562 205.181 199.639 206.337 199.818C207.492 199.997 208.264 201.21 208.06 202.528Z" fill="white"/>
<path d="M212.437 194.869C212.233 196.186 211.13 197.109 209.975 196.93C208.819 196.752 208.047 195.538 208.251 194.221C208.455 192.903 209.557 191.98 210.713 192.159C211.869 192.338 212.641 193.551 212.437 194.869Z" fill="white"/>
<path d="M216.084 187.21C215.88 188.527 214.777 189.451 213.622 189.272C212.466 189.093 211.694 187.88 211.898 186.562C212.102 185.245 213.204 184.321 214.36 184.5C215.516 184.679 216.288 185.892 216.084 187.21Z" fill="white"/>
<path d="M218.637 178.822C218.433 180.139 217.33 181.062 216.175 180.883C215.019 180.704 214.247 179.491 214.451 178.174C214.655 176.856 215.757 175.933 216.913 176.112C218.069 176.291 218.841 177.504 218.637 178.822Z" fill="white"/>
<path d="M220.46 170.433C220.256 171.751 219.154 172.674 217.998 172.495C216.842 172.316 216.071 171.103 216.275 169.786C216.479 168.468 217.581 167.545 218.737 167.724C219.892 167.903 220.664 169.116 220.46 170.433Z" fill="white"/>
<path d="M221.19 162.045C220.986 163.363 219.883 164.286 218.728 164.107C217.572 163.928 216.8 162.715 217.004 161.397C217.208 160.08 218.31 159.157 219.466 159.336C220.622 159.515 221.393 160.728 221.19 162.045Z" fill="white"/>
<path d="M221.554 153.292C221.35 154.61 220.248 155.533 219.092 155.354C217.937 155.175 217.165 153.962 217.369 152.644C217.573 151.327 218.675 150.404 219.831 150.583C220.987 150.762 221.758 151.975 221.554 153.292Z" fill="white"/>
<path d="M220.825 144.904C220.621 146.222 219.519 147.145 218.363 146.966C217.207 146.787 216.436 145.574 216.639 144.256C216.843 142.939 217.946 142.016 219.101 142.194C220.257 142.373 221.029 143.586 220.825 144.904Z" fill="white"/>
<path d="M219.001 136.881C218.797 138.198 217.695 139.121 216.539 138.942C215.384 138.763 214.612 137.55 214.816 136.233C215.02 134.915 216.122 133.992 217.278 134.171C218.434 134.35 219.205 135.563 219.001 136.881Z" fill="white"/>
<path d="M216.448 128.857C216.244 130.175 215.142 131.098 213.986 130.919C212.831 130.74 212.059 129.527 212.263 128.209C212.467 126.892 213.569 125.969 214.725 126.147C215.881 126.326 216.652 127.539 216.448 128.857Z" fill="white"/>
<path d="M213.166 121.563C212.962 122.88 211.86 123.803 210.704 123.625C209.548 123.446 208.777 122.233 208.981 120.915C209.185 119.597 210.287 118.674 211.443 118.853C212.598 119.032 213.37 120.245 213.166 121.563Z" fill="white"/>
<path d="M209.154 114.633C208.95 115.951 207.848 116.874 206.692 116.695C205.537 116.516 204.765 115.303 204.969 113.986C205.173 112.668 206.275 111.745 207.431 111.924C208.587 112.103 209.358 113.316 209.154 114.633Z" fill="white"/>
<path d="M204.413 108.433C204.209 109.751 203.107 110.674 201.951 110.495C200.795 110.316 200.024 109.103 200.228 107.786C200.432 106.468 201.534 105.545 202.69 105.724C203.845 105.903 204.617 107.116 204.413 108.433Z" fill="white"/>
<path d="M198.942 102.963C198.739 104.28 197.636 105.203 196.481 105.025C195.325 104.846 194.553 103.633 194.757 102.315C194.961 100.997 196.063 100.074 197.219 100.253C198.375 100.432 199.146 101.645 198.942 102.963Z" fill="white"/>
<path d="M192.742 98.2217C192.539 99.5392 191.436 100.462 190.281 100.283C189.125 100.104 188.353 98.8914 188.557 97.5738C188.761 96.2563 189.863 95.3333 191.019 95.5121C192.175 95.691 192.946 96.9041 192.742 98.2217Z" fill="white"/>
<path d="M186.178 94.2099C185.974 95.5275 184.872 96.4505 183.716 96.2716C182.56 96.0927 181.788 94.8796 181.992 93.5621C182.196 92.2445 183.299 91.3215 184.454 91.5004C185.61 91.6793 186.382 92.8924 186.178 94.2099Z" fill="white"/>
<path d="M179.248 91.2923C179.044 92.6098 177.942 93.5329 176.786 93.354C175.631 93.1751 174.859 91.962 175.063 90.6444C175.267 89.3269 176.369 88.4038 177.525 88.5827C178.681 88.7616 179.452 89.9747 179.248 91.2923Z" fill="white"/>
<path d="M171.954 89.4687C171.75 90.7863 170.648 91.7093 169.492 91.5304C168.337 91.3515 167.565 90.1384 167.769 88.8209C167.973 87.5034 169.075 86.5803 170.231 86.7592C171.387 86.9381 172.158 88.1512 171.954 89.4687Z" fill="white"/>
<path d="M164.295 88.3746C164.091 89.6922 162.989 90.6152 161.833 90.4363C160.678 90.2574 159.906 89.0443 160.11 87.7268C160.314 86.4092 161.416 85.4862 162.572 85.6651C163.728 85.844 164.499 87.0571 164.295 88.3746Z" fill="white"/>
<path d="M156.637 88.3746C156.433 89.6922 155.33 90.6152 154.175 90.4363C153.019 90.2574 152.247 89.0443 152.451 87.7268C152.655 86.4092 153.757 85.4862 154.913 85.6651C156.069 85.844 156.841 87.0571 156.637 88.3746Z" fill="white"/>
<path d="M149.342 89.104C149.139 90.4216 148.036 91.3446 146.881 91.1657C145.725 90.9868 144.953 89.7737 145.157 88.4562C145.361 87.1387 146.463 86.2156 147.619 86.3945C148.775 86.5734 149.546 87.7865 149.342 89.104Z" fill="white"/>
<path d="M141.684 90.9276C141.48 92.2451 140.377 93.1682 139.222 92.9893C138.066 92.8104 137.294 91.5973 137.498 90.2797C137.702 88.9622 138.804 88.0391 139.96 88.218C141.116 88.3969 141.888 89.61 141.684 90.9276Z" fill="white"/>
<path d="M134.39 93.8452C134.186 95.1628 133.083 96.0858 131.928 95.9069C130.772 95.728 130 94.5149 130.204 93.1974C130.408 91.8798 131.51 90.9568 132.666 91.1357C133.822 91.3146 134.593 92.5277 134.39 93.8452Z" fill="white"/>
<path d="M127.46 97.4923C127.256 98.8098 126.154 99.7329 124.998 99.554C123.842 99.3751 123.071 98.162 123.275 96.8444C123.479 95.5269 124.581 94.6038 125.737 94.7827C126.892 94.9616 127.664 96.1747 127.46 97.4923Z" fill="white"/>
<path d="M120.531 102.233C120.327 103.551 119.225 104.474 118.069 104.295C116.913 104.116 116.141 102.903 116.345 101.586C116.549 100.268 117.652 99.345 118.807 99.5239C119.963 99.7028 120.735 100.916 120.531 102.233Z" fill="white"/>
<path d="M114.695 107.704C114.491 109.022 113.389 109.945 112.233 109.766C111.078 109.587 110.306 108.374 110.51 107.056C110.714 105.739 111.816 104.816 112.972 104.994C114.128 105.173 114.899 106.386 114.695 107.704Z" fill="white"/>
<path d="M108.86 113.904C108.656 115.222 107.554 116.145 106.398 115.966C105.242 115.787 104.471 114.574 104.675 113.256C104.879 111.939 105.981 111.016 107.137 111.194C108.292 111.373 109.064 112.586 108.86 113.904Z" fill="white"/>
<path d="M103.754 120.833C103.55 122.151 102.448 123.074 101.292 122.895C100.137 122.716 99.365 121.503 99.5689 120.186C99.7728 118.868 100.875 117.945 102.031 118.124C103.187 118.303 103.958 119.516 103.754 120.833Z" fill="white"/>
<path d="M99.7425 128.492C99.5385 129.81 98.4363 130.733 97.2805 130.554C96.1248 130.375 95.3532 129.162 95.5571 127.844C95.7611 126.527 96.8633 125.604 98.0191 125.783C99.1748 125.962 99.9464 127.175 99.7425 128.492Z" fill="white"/>
<path d="M96.4601 136.151C96.2562 137.469 95.1539 138.392 93.9982 138.213C92.8424 138.034 92.0708 136.821 92.2748 135.503C92.4787 134.186 93.581 133.263 94.7367 133.442C95.8925 133.62 96.6641 134.834 96.4601 136.151Z" fill="white"/>
<path d="M93.5425 144.175C93.3385 145.492 92.2363 146.415 91.0805 146.236C89.9248 146.057 89.1532 144.844 89.3571 143.527C89.5611 142.209 90.6633 141.286 91.8191 141.465C92.9748 141.644 93.7464 142.857 93.5425 144.175Z" fill="white"/>
<path d="M91.719 152.563C91.515 153.88 90.4128 154.803 89.257 154.625C88.1013 154.446 87.3297 153.233 87.5336 151.915C87.7375 150.597 88.8398 149.674 89.9955 149.853C91.1513 150.032 91.9229 151.245 91.719 152.563Z" fill="white"/>
<path d="M90.6248 161.316C90.4209 162.633 89.3187 163.556 88.1629 163.378C87.0071 163.199 86.2355 161.986 86.4395 160.668C86.6434 159.35 87.7457 158.427 88.9014 158.606C90.0572 158.785 90.8288 159.998 90.6248 161.316Z" fill="white"/>
<path d="M90.6248 170.069C90.4209 171.386 89.3187 172.309 88.1629 172.13C87.0071 171.952 86.2355 170.738 86.4395 169.421C86.6434 168.103 87.7457 167.18 88.9014 167.359C90.0572 167.538 90.8288 168.751 90.6248 170.069Z" fill="white"/>
<path d="M91.3542 178.457C91.1503 179.775 90.0481 180.698 88.8923 180.519C87.7366 180.34 86.965 179.127 87.1689 177.809C87.3728 176.492 88.4751 175.569 89.6308 175.747C90.7866 175.926 91.5582 177.139 91.3542 178.457Z" fill="white"/>
<path d="M93.1778 186.845C92.9738 188.163 91.8716 189.086 90.7158 188.907C89.5601 188.728 88.7885 187.515 88.9924 186.197C89.1964 184.88 90.2986 183.957 91.4544 184.136C92.6101 184.315 93.3817 185.528 93.1778 186.845Z" fill="white"/>
<path d="M95.7307 194.139C95.5268 195.457 94.4245 196.38 93.2688 196.201C92.113 196.022 91.3414 194.809 91.5454 193.492C91.7493 192.174 92.8516 191.251 94.0073 191.43C95.1631 191.609 95.9347 192.822 95.7307 194.139Z" fill="white"/>
<path d="M99.0131 201.798C98.8091 203.116 97.7069 204.039 96.5511 203.86C95.3954 203.681 94.6238 202.468 94.8277 201.15C95.0317 199.833 96.1339 198.91 97.2897 199.089C98.4454 199.268 99.217 200.481 99.0131 201.798Z" fill="white"/>
<path d="M103.025 208.728C102.821 210.045 101.719 210.968 100.563 210.789C99.4071 210.61 98.6355 209.397 98.8395 208.08C99.0434 206.762 100.146 205.839 101.301 206.018C102.457 206.197 103.229 207.41 103.025 208.728Z" fill="white"/>
<path d="M107.766 214.928C107.562 216.245 106.46 217.168 105.304 216.989C104.148 216.81 103.377 215.597 103.581 214.28C103.785 212.962 104.887 212.039 106.043 212.218C107.198 212.397 107.97 213.61 107.766 214.928Z" fill="white"/>
<path d="M113.601 220.398C113.397 221.716 112.295 222.639 111.139 222.46C109.984 222.281 109.212 221.068 109.416 219.75C109.62 218.433 110.722 217.51 111.878 217.689C113.034 217.868 113.805 219.081 113.601 220.398Z" fill="white"/>
<path d="M119.437 225.139C119.233 226.457 118.13 227.38 116.975 227.201C115.819 227.022 115.047 225.809 115.251 224.492C115.455 223.174 116.557 222.251 117.713 222.43C118.869 222.609 119.641 223.822 119.437 225.139Z" fill="white"/>
<path d="M126.001 229.151C125.797 230.469 124.695 231.392 123.539 231.213C122.384 231.034 121.612 229.821 121.816 228.503C122.02 227.186 123.122 226.263 124.278 226.442C125.434 226.62 126.205 227.834 126.001 229.151Z" fill="white"/>
<path d="M132.931 232.069C132.727 233.386 131.625 234.309 130.469 234.13C129.313 233.952 128.541 232.738 128.745 231.421C128.949 230.103 130.052 229.18 131.207 229.359C132.363 229.538 133.135 230.751 132.931 232.069Z" fill="white"/>
<path d="M140.225 233.892C140.021 235.21 138.919 236.133 137.763 235.954C136.607 235.775 135.836 234.562 136.039 233.244C136.243 231.927 137.346 231.004 138.501 231.183C139.657 231.362 140.429 232.575 140.225 233.892Z" fill="white"/>
<path d="M147.884 234.986C147.68 236.304 146.577 237.227 145.422 237.048C144.266 236.869 143.494 235.656 143.698 234.339C143.902 233.021 145.004 232.098 146.16 232.277C147.316 232.456 148.088 233.669 147.884 234.986Z" fill="white"/>
<path d="M155.178 234.986C154.974 236.304 153.872 237.227 152.716 237.048C151.56 236.869 150.788 235.656 150.992 234.339C151.196 233.021 152.299 232.098 153.454 232.277C154.61 232.456 155.382 233.669 155.178 234.986Z" fill="white"/>
<path d="M162.837 234.257C162.633 235.575 161.53 236.498 160.375 236.319C159.219 236.14 158.447 234.927 158.651 233.609C158.855 232.292 159.957 231.369 161.113 231.547C162.269 231.726 163.041 232.939 162.837 234.257Z" fill="white"/>
<path d="M170.495 232.433C170.291 233.751 169.189 234.674 168.033 234.495C166.878 234.316 166.106 233.103 166.31 231.786C166.514 230.468 167.616 229.545 168.772 229.724C169.928 229.903 170.699 231.116 170.495 232.433Z" fill="white"/>
<path d="M177.79 229.516C177.586 230.833 176.483 231.756 175.328 231.578C174.172 231.399 173.4 230.186 173.604 228.868C173.808 227.55 174.91 226.627 176.066 226.806C177.222 226.985 177.993 228.198 177.79 229.516Z" fill="white"/>
<path d="M184.719 225.504C184.515 226.822 183.413 227.745 182.257 227.566C181.101 227.387 180.33 226.174 180.534 224.856C180.738 223.539 181.84 222.616 182.996 222.794C184.151 222.973 184.923 224.186 184.719 225.504Z" fill="white"/>
<path d="M191.284 220.763C191.08 222.08 189.977 223.003 188.822 222.825C187.666 222.646 186.894 221.433 187.098 220.115C187.302 218.797 188.404 217.874 189.56 218.053C190.716 218.232 191.488 219.445 191.284 220.763Z" fill="white"/>
<path d="M197.484 215.292C197.28 216.61 196.177 217.533 195.022 217.354C193.866 217.175 193.094 215.962 193.298 214.644C193.502 213.327 194.605 212.404 195.76 212.583C196.916 212.762 197.688 213.975 197.484 215.292Z" fill="white"/>
<path d="M203.319 209.457C203.115 210.775 202.013 211.698 200.857 211.519C199.701 211.34 198.93 210.127 199.134 208.809C199.338 207.492 200.44 206.569 201.596 206.747C202.751 206.926 203.523 208.139 203.319 209.457Z" fill="white"/>
<path d="M132.388 241.618C132.388 243.33 131 244.718 129.288 244.718C127.576 244.718 126.188 243.33 126.188 241.618C126.188 239.906 127.576 238.518 129.288 238.518C131 238.518 132.388 239.906 132.388 241.618Z" fill="white"/>
<path d="M142.6 243.806C142.6 245.518 141.212 246.906 139.5 246.906C137.788 246.906 136.4 245.518 136.4 243.806C136.4 242.094 137.788 240.706 139.5 240.706C141.212 240.706 142.6 242.094 142.6 243.806Z" fill="white"/>
<path d="M152.812 244.9C152.812 246.612 151.424 248 149.712 248C148 248 146.612 246.612 146.612 244.9C146.612 243.188 148 241.8 149.712 241.8C151.424 241.8 152.812 243.188 152.812 244.9Z" fill="white"/>
<path d="M163.753 244.9C163.753 246.612 162.365 248 160.653 248C158.941 248 157.553 246.612 157.553 244.9C157.553 243.188 158.941 241.8 160.653 241.8C162.365 241.8 163.753 243.188 163.753 244.9Z" fill="white"/>
<path d="M173.965 243.806C173.965 245.518 172.577 246.906 170.865 246.906C169.153 246.906 167.765 245.518 167.765 243.806C167.765 242.094 169.153 240.706 170.865 240.706C172.577 240.706 173.965 242.094 173.965 243.806Z" fill="white"/>
<path d="M184.176 241.618C184.176 243.33 182.789 244.718 181.076 244.718C179.364 244.718 177.976 243.33 177.976 241.618C177.976 239.906 179.364 238.518 181.076 238.518C182.789 238.518 184.176 239.906 184.176 241.618Z" fill="white"/>
<path d="M194.024 237.606C194.024 239.318 192.636 240.706 190.924 240.706C189.211 240.706 187.824 239.318 187.824 237.606C187.824 235.894 189.211 234.506 190.924 234.506C192.636 234.506 194.024 235.894 194.024 237.606Z" fill="white"/>
<path d="M203.506 233.229C203.506 234.941 202.118 236.329 200.406 236.329C198.694 236.329 197.306 234.941 197.306 233.229C197.306 231.517 198.694 230.129 200.406 230.129C202.118 230.129 203.506 231.517 203.506 233.229Z" fill="white"/>
<path d="M212.259 227.029C212.259 228.742 210.871 230.129 209.159 230.129C207.447 230.129 206.059 228.742 206.059 227.029C206.059 225.317 207.447 223.929 209.159 223.929C210.871 223.929 212.259 225.317 212.259 227.029Z" fill="white"/>
<path d="M220.282 220.829C220.282 222.542 218.894 223.929 217.182 223.929C215.47 223.929 214.082 222.542 214.082 220.829C214.082 219.117 215.47 217.729 217.182 217.729C218.894 217.729 220.282 219.117 220.282 220.829Z" fill="white"/>
<path d="M227.576 212.806C227.576 214.518 226.189 215.906 224.476 215.906C222.764 215.906 221.376 214.518 221.376 212.806C221.376 211.094 222.764 209.706 224.476 209.706C226.189 209.706 227.576 211.094 227.576 212.806Z" fill="white"/>
<path d="M233.776 204.418C233.776 206.13 232.389 207.518 230.676 207.518C228.964 207.518 227.576 206.13 227.576 204.418C227.576 202.706 228.964 201.318 230.676 201.318C232.389 201.318 233.776 202.706 233.776 204.418Z" fill="white"/>
<path d="M238.882 195.3C238.882 197.012 237.494 198.4 235.782 198.4C234.07 198.4 232.682 197.012 232.682 195.3C232.682 193.588 234.07 192.2 235.782 192.2C237.494 192.2 238.882 193.588 238.882 195.3Z" fill="white"/>
<path d="M243.259 185.818C243.259 187.53 241.871 188.918 240.159 188.918C238.447 188.918 237.059 187.53 237.059 185.818C237.059 184.106 238.447 182.718 240.159 182.718C241.871 182.718 243.259 184.106 243.259 185.818Z" fill="white"/>
<path d="M246.176 175.971C246.176 177.683 244.789 179.071 243.076 179.071C241.364 179.071 239.976 177.683 239.976 175.971C239.976 174.259 241.364 172.871 243.076 172.871C244.789 172.871 246.176 174.259 246.176 175.971Z" fill="white"/>
<path d="M248 165.394C248 167.106 246.612 168.494 244.9 168.494C243.188 168.494 241.8 167.106 241.8 165.394C241.8 163.682 243.188 162.294 244.9 162.294C246.612 162.294 248 163.682 248 165.394Z" fill="white"/>
<path d="M248 154.818C248 156.53 246.612 157.918 244.9 157.918C243.188 157.918 241.8 156.53 241.8 154.818C241.8 153.106 243.188 151.718 244.9 151.718C246.612 151.718 248 153.106 248 154.818Z" fill="white"/>
<path d="M248 144.241C248 145.953 246.612 147.341 244.9 147.341C243.188 147.341 241.8 145.953 241.8 144.241C241.8 142.529 243.188 141.141 244.9 141.141C246.612 141.141 248 142.529 248 144.241Z" fill="white"/>
<path d="M246.176 134.394C246.176 136.106 244.789 137.494 243.076 137.494C241.364 137.494 239.976 136.106 239.976 134.394C239.976 132.682 241.364 131.294 243.076 131.294C244.789 131.294 246.176 132.682 246.176 134.394Z" fill="white"/>
<path d="M243.259 123.818C243.259 125.53 241.871 126.918 240.159 126.918C238.447 126.918 237.059 125.53 237.059 123.818C237.059 122.106 238.447 120.718 240.159 120.718C241.871 120.718 243.259 122.106 243.259 123.818Z" fill="white"/>
<path d="M238.882 114.7C238.882 116.412 237.494 117.8 235.782 117.8C234.07 117.8 232.682 116.412 232.682 114.7C232.682 112.988 234.07 111.6 235.782 111.6C237.494 111.6 238.882 112.988 238.882 114.7Z" fill="white"/>
<path d="M233.776 105.582C233.776 107.294 232.389 108.682 230.676 108.682C228.964 108.682 227.576 107.294 227.576 105.582C227.576 103.87 228.964 102.482 230.676 102.482C232.389 102.482 233.776 103.87 233.776 105.582Z" fill="white"/>
<path d="M227.576 97.5588C227.576 99.2709 226.189 100.659 224.476 100.659C222.764 100.659 221.376 99.2709 221.376 97.5588C221.376 95.8467 222.764 94.4588 224.476 94.4588C226.189 94.4588 227.576 95.8467 227.576 97.5588Z" fill="white"/>
<path d="M219.918 89.1706C219.918 90.8827 218.53 92.2706 216.818 92.2706C215.106 92.2706 213.718 90.8827 213.718 89.1706C213.718 87.4585 215.106 86.0706 216.818 86.0706C218.53 86.0706 219.918 87.4585 219.918 89.1706Z" fill="white"/>
<path d="M212.259 82.9706C212.259 84.6827 210.871 86.0706 209.159 86.0706C207.447 86.0706 206.059 84.6827 206.059 82.9706C206.059 81.2585 207.447 79.8706 209.159 79.8706C210.871 79.8706 212.259 81.2585 212.259 82.9706Z" fill="white"/>
<path d="M203.506 76.7706C203.506 78.4827 202.118 79.8706 200.406 79.8706C198.694 79.8706 197.306 78.4827 197.306 76.7706C197.306 75.0585 198.694 73.6706 200.406 73.6706C202.118 73.6706 203.506 75.0585 203.506 76.7706Z" fill="white"/>
<path d="M194.388 72.3941C194.388 74.1062 193 75.4941 191.288 75.4941C189.576 75.4941 188.188 74.1062 188.188 72.3941C188.188 70.682 189.576 69.2941 191.288 69.2941C193 69.2941 194.388 70.682 194.388 72.3941Z" fill="white"/>
<path d="M184.176 68.3824C184.176 70.0944 182.789 71.4824 181.076 71.4824C179.364 71.4824 177.976 70.0944 177.976 68.3824C177.976 66.6703 179.364 65.2824 181.076 65.2824C182.789 65.2824 184.176 66.6703 184.176 68.3824Z" fill="white"/>
<path d="M174.329 66.1941C174.329 67.9062 172.941 69.2941 171.229 69.2941C169.517 69.2941 168.129 67.9062 168.129 66.1941C168.129 64.482 169.517 63.0941 171.229 63.0941C172.941 63.0941 174.329 64.482 174.329 66.1941Z" fill="white"/>
<path d="M163.388 65.1C163.388 66.8121 162 68.2 160.288 68.2C158.576 68.2 157.188 66.8121 157.188 65.1C157.188 63.3879 158.576 62 160.288 62C162 62 163.388 63.3879 163.388 65.1Z" fill="white"/>
<path d="M153.541 65.1C153.541 66.8121 152.153 68.2 150.441 68.2C148.729 68.2 147.341 66.8121 147.341 65.1C147.341 63.3879 148.729 62 150.441 62C152.153 62 153.541 63.3879 153.541 65.1Z" fill="white"/>
<path d="M142.6 66.1941C142.6 67.9062 141.212 69.2941 139.5 69.2941C137.788 69.2941 136.4 67.9062 136.4 66.1941C136.4 64.482 137.788 63.0941 139.5 63.0941C141.212 63.0941 142.6 64.482 142.6 66.1941Z" fill="white"/>
<path d="M132.388 68.3824C132.388 70.0944 131 71.4824 129.288 71.4824C127.576 71.4824 126.188 70.0944 126.188 68.3824C126.188 66.6703 127.576 65.2824 129.288 65.2824C131 65.2824 132.388 66.6703 132.388 68.3824Z" fill="white"/>
<path d="M122.906 72.3941C122.906 74.1062 121.518 75.4941 119.806 75.4941C118.094 75.4941 116.706 74.1062 116.706 72.3941C116.706 70.682 118.094 69.2941 119.806 69.2941C121.518 69.2941 122.906 70.682 122.906 72.3941Z" fill="white"/>
<path d="M113.059 77.1353C113.059 78.8474 111.671 80.2353 109.959 80.2353C108.247 80.2353 106.859 78.8474 106.859 77.1353C106.859 75.4232 108.247 74.0353 109.959 74.0353C111.671 74.0353 113.059 75.4232 113.059 77.1353Z" fill="white"/>
<path d="M104.306 82.6059C104.306 84.318 102.918 85.7059 101.206 85.7059C99.4938 85.7059 98.1059 84.318 98.1059 82.6059C98.1059 80.8938 99.4938 79.5059 101.206 79.5059C102.918 79.5059 104.306 80.8938 104.306 82.6059Z" fill="white"/>
<path d="M96.2824 89.5353C96.2824 91.2474 94.8944 92.6353 93.1824 92.6353C91.4703 92.6353 90.0824 91.2474 90.0824 89.5353C90.0824 87.8232 91.4703 86.4353 93.1824 86.4353C94.8944 86.4353 96.2824 87.8232 96.2824 89.5353Z" fill="white"/>
<path d="M89.3529 97.1941C89.3529 98.9062 87.965 100.294 86.2529 100.294C84.5409 100.294 83.1529 98.9062 83.1529 97.1941C83.1529 95.482 84.5409 94.0941 86.2529 94.0941C87.965 94.0941 89.3529 95.482 89.3529 97.1941Z" fill="white"/>
<path d="M83.1529 105.582C83.1529 107.294 81.765 108.682 80.0529 108.682C78.3409 108.682 76.9529 107.294 76.9529 105.582C76.9529 103.87 78.3409 102.482 80.0529 102.482C81.765 102.482 83.1529 103.87 83.1529 105.582Z" fill="white"/>
<path d="M77.6824 114.7C77.6824 116.412 76.2944 117.8 74.5824 117.8C72.8703 117.8 71.4824 116.412 71.4824 114.7C71.4824 112.988 72.8703 111.6 74.5824 111.6C76.2944 111.6 77.6824 112.988 77.6824 114.7Z" fill="white"/>
<path d="M73.3059 124.182C73.3059 125.894 71.918 127.282 70.2059 127.282C68.4938 127.282 67.1059 125.894 67.1059 124.182C67.1059 122.47 68.4938 121.082 70.2059 121.082C71.918 121.082 73.3059 122.47 73.3059 124.182Z" fill="white"/>
<path d="M70.3882 134.029C70.3882 135.741 69.0003 137.129 67.2882 137.129C65.5762 137.129 64.1882 135.741 64.1882 134.029C64.1882 132.317 65.5762 130.929 67.2882 130.929C69.0003 130.929 70.3882 132.317 70.3882 134.029Z" fill="white"/>
<path d="M68.9294 144.971C68.9294 146.683 67.5415 148.071 65.8294 148.071C64.1173 148.071 62.7294 146.683 62.7294 144.971C62.7294 143.259 64.1173 141.871 65.8294 141.871C67.5415 141.871 68.9294 143.259 68.9294 144.971Z" fill="white"/>
<path d="M68.2 155.547C68.2 157.259 66.8121 158.647 65.1 158.647C63.3879 158.647 62 157.259 62 155.547C62 153.835 63.3879 152.447 65.1 152.447C66.8121 152.447 68.2 153.835 68.2 155.547Z" fill="white"/>
<path d="M68.9294 165.394C68.9294 167.106 67.5415 168.494 65.8294 168.494C64.1173 168.494 62.7294 167.106 62.7294 165.394C62.7294 163.682 64.1173 162.294 65.8294 162.294C67.5415 162.294 68.9294 163.682 68.9294 165.394Z" fill="white"/>
<path d="M70.3882 175.971C70.3882 177.683 69.0003 179.071 67.2882 179.071C65.5762 179.071 64.1882 177.683 64.1882 175.971C64.1882 174.259 65.5762 172.871 67.2882 172.871C69.0003 172.871 70.3882 174.259 70.3882 175.971Z" fill="white"/>
<path d="M73.6706 185.818C73.6706 187.53 72.2827 188.918 70.5706 188.918C68.8585 188.918 67.4706 187.53 67.4706 185.818C67.4706 184.106 68.8585 182.718 70.5706 182.718C72.2827 182.718 73.6706 184.106 73.6706 185.818Z" fill="white"/>
<path d="M77.6824 195.3C77.6824 197.012 76.2944 198.4 74.5824 198.4C72.8703 198.4 71.4824 197.012 71.4824 195.3C71.4824 193.588 72.8703 192.2 74.5824 192.2C76.2944 192.2 77.6824 193.588 77.6824 195.3Z" fill="white"/>
<path d="M83.1529 204.418C83.1529 206.13 81.765 207.518 80.0529 207.518C78.3409 207.518 76.9529 206.13 76.9529 204.418C76.9529 202.706 78.3409 201.318 80.0529 201.318C81.765 201.318 83.1529 202.706 83.1529 204.418Z" fill="white"/>
<path d="M89.3529 212.806C89.3529 214.518 87.965 215.906 86.2529 215.906C84.5409 215.906 83.1529 214.518 83.1529 212.806C83.1529 211.094 84.5409 209.706 86.2529 209.706C87.965 209.706 89.3529 211.094 89.3529 212.806Z" fill="white"/>
<path d="M96.6471 220.829C96.6471 222.542 95.2591 223.929 93.5471 223.929C91.835 223.929 90.4471 222.542 90.4471 220.829C90.4471 219.117 91.835 217.729 93.5471 217.729C95.2591 217.729 96.6471 219.117 96.6471 220.829Z" fill="white"/>
<path d="M104.306 227.029C104.306 228.742 102.918 230.129 101.206 230.129C99.4938 230.129 98.1059 228.742 98.1059 227.029C98.1059 225.317 99.4938 223.929 101.206 223.929C102.918 223.929 104.306 225.317 104.306 227.029Z" fill="white"/>
<path d="M113.059 233.229C113.059 234.941 111.671 236.329 109.959 236.329C108.247 236.329 106.859 234.941 106.859 233.229C106.859 231.517 108.247 230.129 109.959 230.129C111.671 230.129 113.059 231.517 113.059 233.229Z" fill="white"/>
<path d="M122.906 237.606C122.906 239.318 121.518 240.706 119.806 240.706C118.094 240.706 116.706 239.318 116.706 237.606C116.706 235.894 118.094 234.506 119.806 234.506C121.518 234.506 122.906 235.894 122.906 237.606Z" fill="white"/>
<path d="M114.153 145.7C114.153 146.606 113.418 147.341 112.512 147.341C111.605 147.341 110.871 146.606 110.871 145.7C110.871 144.794 111.605 144.059 112.512 144.059C113.418 144.059 114.153 144.794 114.153 145.7Z" fill="white"/>
<path d="M116.341 140.594C116.341 141.501 115.606 142.235 114.7 142.235C113.794 142.235 113.059 141.501 113.059 140.594C113.059 139.688 113.794 138.953 114.7 138.953C115.606 138.953 116.341 139.688 116.341 140.594Z" fill="white"/>
<path d="M119.624 135.853C119.624 136.759 118.889 137.494 117.982 137.494C117.076 137.494 116.341 136.759 116.341 135.853C116.341 134.947 117.076 134.212 117.982 134.212C118.889 134.212 119.624 134.947 119.624 135.853Z" fill="white"/>
<path d="M122.906 131.476C122.906 132.383 122.171 133.118 121.265 133.118C120.358 133.118 119.624 132.383 119.624 131.476C119.624 130.57 120.358 129.835 121.265 129.835C122.171 129.835 122.906 130.57 122.906 131.476Z" fill="white"/>
<path d="M126.918 127.829C126.918 128.736 126.183 129.471 125.276 129.471C124.37 129.471 123.635 128.736 123.635 127.829C123.635 126.923 124.37 126.188 125.276 126.188C126.183 126.188 126.918 126.923 126.918 127.829Z" fill="white"/>
<path d="M131.294 124.547C131.294 125.453 130.559 126.188 129.653 126.188C128.747 126.188 128.012 125.453 128.012 124.547C128.012 123.641 128.747 122.906 129.653 122.906C130.559 122.906 131.294 123.641 131.294 124.547Z" fill="white"/>
<path d="M136.4 121.629C136.4 122.536 135.665 123.271 134.759 123.271C133.852 123.271 133.118 122.536 133.118 121.629C133.118 120.723 133.852 119.988 134.759 119.988C135.665 119.988 136.4 120.723 136.4 121.629Z" fill="white"/>
<path d="M141.506 119.806C141.506 120.712 140.771 121.447 139.865 121.447C138.958 121.447 138.224 120.712 138.224 119.806C138.224 118.899 138.958 118.165 139.865 118.165C140.771 118.165 141.506 118.899 141.506 119.806Z" fill="white"/>
<path d="M146.612 118.347C146.612 119.253 145.877 119.988 144.971 119.988C144.064 119.988 143.329 119.253 143.329 118.347C143.329 117.441 144.064 116.706 144.971 116.706C145.877 116.706 146.612 117.441 146.612 118.347Z" fill="white"/>
<path d="M152.447 117.618C152.447 118.524 151.712 119.259 150.806 119.259C149.899 119.259 149.165 118.524 149.165 117.618C149.165 116.711 149.899 115.976 150.806 115.976C151.712 115.976 152.447 116.711 152.447 117.618Z" fill="white"/>
<path d="M157.918 117.253C157.918 118.159 157.183 118.894 156.276 118.894C155.37 118.894 154.635 118.159 154.635 117.253C154.635 116.347 155.37 115.612 156.276 115.612C157.183 115.612 157.918 116.347 157.918 117.253Z" fill="white"/>
<path d="M163.388 117.982C163.388 118.889 162.653 119.624 161.747 119.624C160.841 119.624 160.106 118.889 160.106 117.982C160.106 117.076 160.841 116.341 161.747 116.341C162.653 116.341 163.388 117.076 163.388 117.982Z" fill="white"/>
<path d="M168.859 119.076C168.859 119.983 168.124 120.718 167.218 120.718C166.311 120.718 165.576 119.983 165.576 119.076C165.576 118.17 166.311 117.435 167.218 117.435C168.124 117.435 168.859 118.17 168.859 119.076Z" fill="white"/>
<path d="M174.329 120.9C174.329 121.806 173.595 122.541 172.688 122.541C171.782 122.541 171.047 121.806 171.047 120.9C171.047 119.994 171.782 119.259 172.688 119.259C173.595 119.259 174.329 119.994 174.329 120.9Z" fill="white"/>
<path d="M179.435 123.818C179.435 124.724 178.701 125.459 177.794 125.459C176.888 125.459 176.153 124.724 176.153 123.818C176.153 122.911 176.888 122.176 177.794 122.176C178.701 122.176 179.435 122.911 179.435 123.818Z" fill="white"/>
<path d="M184.176 126.735C184.176 127.642 183.442 128.376 182.535 128.376C181.629 128.376 180.894 127.642 180.894 126.735C180.894 125.829 181.629 125.094 182.535 125.094C183.442 125.094 184.176 125.829 184.176 126.735Z" fill="white"/>
<path d="M188.918 130.382C188.918 131.289 188.183 132.024 187.276 132.024C186.37 132.024 185.635 131.289 185.635 130.382C185.635 129.476 186.37 128.741 187.276 128.741C188.183 128.741 188.918 129.476 188.918 130.382Z" fill="white"/>
<path d="M192.929 134.394C192.929 135.301 192.195 136.035 191.288 136.035C190.382 136.035 189.647 135.301 189.647 134.394C189.647 133.488 190.382 132.753 191.288 132.753C192.195 132.753 192.929 133.488 192.929 134.394Z" fill="white"/>
<path d="M196.576 139.135C196.576 140.042 195.842 140.776 194.935 140.776C194.029 140.776 193.294 140.042 193.294 139.135C193.294 138.229 194.029 137.494 194.935 137.494C195.842 137.494 196.576 138.229 196.576 139.135Z" fill="white"/>
<path d="M199.859 144.241C199.859 145.148 199.124 145.882 198.218 145.882C197.311 145.882 196.576 145.148 196.576 144.241C196.576 143.335 197.311 142.6 198.218 142.6C199.124 142.6 199.859 143.335 199.859 144.241Z" fill="white"/>
<path d="M202.412 149.347C202.412 150.253 201.677 150.988 200.771 150.988C199.864 150.988 199.129 150.253 199.129 149.347C199.129 148.441 199.864 147.706 200.771 147.706C201.677 147.706 202.412 148.441 202.412 149.347Z" fill="white"/>
<path d="M204.235 154.818C204.235 155.724 203.501 156.459 202.594 156.459C201.688 156.459 200.953 155.724 200.953 154.818C200.953 153.911 201.688 153.176 202.594 153.176C203.501 153.176 204.235 153.911 204.235 154.818Z" fill="white"/>
<path d="M205.694 160.653C205.694 161.559 204.959 162.294 204.053 162.294C203.147 162.294 202.412 161.559 202.412 160.653C202.412 159.747 203.147 159.012 204.053 159.012C204.959 159.012 205.694 159.747 205.694 160.653Z" fill="white"/>
<path d="M206.424 166.488C206.424 167.395 205.689 168.129 204.782 168.129C203.876 168.129 203.141 167.395 203.141 166.488C203.141 165.582 203.876 164.847 204.782 164.847C205.689 164.847 206.424 165.582 206.424 166.488Z" fill="white"/>
<path d="M206.424 172.324C206.424 173.23 205.689 173.965 204.782 173.965C203.876 173.965 203.141 173.23 203.141 172.324C203.141 171.417 203.876 170.682 204.782 170.682C205.689 170.682 206.424 171.417 206.424 172.324Z" fill="white"/>
<path d="M206.059 178.159C206.059 179.065 205.324 179.8 204.418 179.8C203.511 179.8 202.776 179.065 202.776 178.159C202.776 177.252 203.511 176.518 204.418 176.518C205.324 176.518 206.059 177.252 206.059 178.159Z" fill="white"/>
<path d="M204.6 183.629C204.6 184.536 203.865 185.271 202.959 185.271C202.052 185.271 201.318 184.536 201.318 183.629C201.318 182.723 202.052 181.988 202.959 181.988C203.865 181.988 204.6 182.723 204.6 183.629Z" fill="white"/>
<path d="M202.776 189.1C202.776 190.006 202.042 190.741 201.135 190.741C200.229 190.741 199.494 190.006 199.494 189.1C199.494 188.194 200.229 187.459 201.135 187.459C202.042 187.459 202.776 188.194 202.776 189.1Z" fill="white"/>
<path d="M200.224 194.206C200.224 195.112 199.489 195.847 198.582 195.847C197.676 195.847 196.941 195.112 196.941 194.206C196.941 193.299 197.676 192.565 198.582 192.565C199.489 192.565 200.224 193.299 200.224 194.206Z" fill="white"/>
<path d="M197.306 198.947C197.306 199.853 196.571 200.588 195.665 200.588C194.758 200.588 194.024 199.853 194.024 198.947C194.024 198.041 194.758 197.306 195.665 197.306C196.571 197.306 197.306 198.041 197.306 198.947Z" fill="white"/>
<path d="M194.024 203.324C194.024 204.23 193.289 204.965 192.382 204.965C191.476 204.965 190.741 204.23 190.741 203.324C190.741 202.417 191.476 201.682 192.382 201.682C193.289 201.682 194.024 202.417 194.024 203.324Z" fill="white"/>
<path d="M190.012 206.971C190.012 207.877 189.277 208.612 188.371 208.612C187.464 208.612 186.729 207.877 186.729 206.971C186.729 206.064 187.464 205.329 188.371 205.329C189.277 205.329 190.012 206.064 190.012 206.971Z" fill="white"/>
<path d="M185.635 210.253C185.635 211.159 184.901 211.894 183.994 211.894C183.088 211.894 182.353 211.159 182.353 210.253C182.353 209.347 183.088 208.612 183.994 208.612C184.901 208.612 185.635 209.347 185.635 210.253Z" fill="white"/>
<path d="M180.529 213.171C180.529 214.077 179.795 214.812 178.888 214.812C177.982 214.812 177.247 214.077 177.247 213.171C177.247 212.264 177.982 211.529 178.888 211.529C179.795 211.529 180.529 212.264 180.529 213.171Z" fill="white"/>
<path d="M175.424 214.994C175.424 215.901 174.689 216.635 173.782 216.635C172.876 216.635 172.141 215.901 172.141 214.994C172.141 214.088 172.876 213.353 173.782 213.353C174.689 213.353 175.424 214.088 175.424 214.994Z" fill="white"/>
<path d="M170.318 216.453C170.318 217.359 169.583 218.094 168.676 218.094C167.77 218.094 167.035 217.359 167.035 216.453C167.035 215.547 167.77 214.812 168.676 214.812C169.583 214.812 170.318 215.547 170.318 216.453Z" fill="white"/>
<path d="M159.012 217.547C159.012 218.453 158.277 219.188 157.371 219.188C156.464 219.188 155.729 218.453 155.729 217.547C155.729 216.641 156.464 215.906 157.371 215.906C158.277 215.906 159.012 216.641 159.012 217.547Z" fill="white"/>
<path d="M153.541 216.818C153.541 217.724 152.806 218.459 151.9 218.459C150.994 218.459 150.259 217.724 150.259 216.818C150.259 215.911 150.994 215.176 151.9 215.176C152.806 215.176 153.541 215.911 153.541 216.818Z" fill="white"/>
<path d="M148.071 215.724C148.071 216.63 147.336 217.365 146.429 217.365C145.523 217.365 144.788 216.63 144.788 215.724C144.788 214.817 145.523 214.082 146.429 214.082C147.336 214.082 148.071 214.817 148.071 215.724Z" fill="white"/>
<path d="M142.6 213.535C142.6 214.442 141.865 215.176 140.959 215.176C140.052 215.176 139.318 214.442 139.318 213.535C139.318 212.629 140.052 211.894 140.959 211.894C141.865 211.894 142.6 212.629 142.6 213.535Z" fill="white"/>
<path d="M137.494 210.982C137.494 211.889 136.759 212.624 135.853 212.624C134.947 212.624 134.212 211.889 134.212 210.982C134.212 210.076 134.947 209.341 135.853 209.341C136.759 209.341 137.494 210.076 137.494 210.982Z" fill="white"/>
<path d="M132.388 208.065C132.388 208.971 131.653 209.706 130.747 209.706C129.841 209.706 129.106 208.971 129.106 208.065C129.106 207.158 129.841 206.424 130.747 206.424C131.653 206.424 132.388 207.158 132.388 208.065Z" fill="white"/>
<path d="M128.012 204.418C128.012 205.324 127.277 206.059 126.371 206.059C125.464 206.059 124.729 205.324 124.729 204.418C124.729 203.511 125.464 202.776 126.371 202.776C127.277 202.776 128.012 203.511 128.012 204.418Z" fill="white"/>
<path d="M124 200.041C124 200.948 123.265 201.682 122.359 201.682C121.452 201.682 120.718 200.948 120.718 200.041C120.718 199.135 121.452 198.4 122.359 198.4C123.265 198.4 124 199.135 124 200.041Z" fill="white"/>
<path d="M120.353 195.665C120.353 196.571 119.618 197.306 118.712 197.306C117.805 197.306 117.071 196.571 117.071 195.665C117.071 194.758 117.805 194.024 118.712 194.024C119.618 194.024 120.353 194.758 120.353 195.665Z" fill="white"/>
<path d="M117.071 190.559C117.071 191.465 116.336 192.2 115.429 192.2C114.523 192.2 113.788 191.465 113.788 190.559C113.788 189.652 114.523 188.918 115.429 188.918C116.336 188.918 117.071 189.652 117.071 190.559Z" fill="white"/>
<path d="M114.518 185.088C114.518 185.995 113.783 186.729 112.876 186.729C111.97 186.729 111.235 185.995 111.235 185.088C111.235 184.182 111.97 183.447 112.876 183.447C113.783 183.447 114.518 184.182 114.518 185.088Z" fill="white"/>
<path d="M112.694 179.618C112.694 180.524 111.959 181.259 111.053 181.259C110.147 181.259 109.412 180.524 109.412 179.618C109.412 178.711 110.147 177.976 111.053 177.976C111.959 177.976 112.694 178.711 112.694 179.618Z" fill="white"/>
<path d="M111.235 173.782C111.235 174.689 110.501 175.424 109.594 175.424C108.688 175.424 107.953 174.689 107.953 173.782C107.953 172.876 108.688 172.141 109.594 172.141C110.501 172.141 111.235 172.876 111.235 173.782Z" fill="white"/>
<path d="M110.506 168.312C110.506 169.218 109.771 169.953 108.865 169.953C107.958 169.953 107.224 169.218 107.224 168.312C107.224 167.405 107.958 166.671 108.865 166.671C109.771 166.671 110.506 167.405 110.506 168.312Z" fill="white"/>
<path d="M110.506 162.476C110.506 163.383 109.771 164.118 108.865 164.118C107.958 164.118 107.224 163.383 107.224 162.476C107.224 161.57 107.958 160.835 108.865 160.835C109.771 160.835 110.506 161.57 110.506 162.476Z" fill="white"/>
<path d="M110.871 156.641C110.871 157.548 110.136 158.282 109.229 158.282C108.323 158.282 107.588 157.548 107.588 156.641C107.588 155.735 108.323 155 109.229 155C110.136 155 110.871 155.735 110.871 156.641Z" fill="white"/>
<path d="M112.329 150.806C112.329 151.712 111.595 152.447 110.688 152.447C109.782 152.447 109.047 151.712 109.047 150.806C109.047 149.899 109.782 149.165 110.688 149.165C111.595 149.165 112.329 149.899 112.329 150.806Z" fill="white"/>
<path d="M164.847 217.182C164.847 218.089 164.112 218.824 163.206 218.824C162.299 218.824 161.565 218.089 161.565 217.182C161.565 216.276 162.299 215.541 163.206 215.541C164.112 215.541 164.847 216.276 164.847 217.182Z" fill="white"/>
</g>
</g>
<defs>
<filter id="filter0_dddddd_1584_1012" x="-21.7969" y="-24.2188" width="353.594" height="353.594" filterUnits="userSpaceOnUse" color-interpolation-filters="sRGB">
<feFlood flood-opacity="0" result="BackgroundImageFix"/>
<feColorMatrix in="SourceAlpha" type="matrix" values="0 0 0 0 0 0 0 0 0 0 0 0 0 0 0 0 0 0 127 0" result="hardAlpha"/>
<feOffset dy="-0.0670195"/>
<feGaussianBlur stdDeviation="0.670195"/>
<feColorMatrix type="matrix" values="0 0 0 0 0 0 0 0 0 0 0 0 0 0 0 0 0 0 0.07 0"/>
<feBlend mode="normal" in2="BackgroundImageFix" result="effect1_dropShadow_1584_1012"/>
<feColorMatrix in="SourceAlpha" type="matrix" values="0 0 0 0 0 0 0 0 0 0 0 0 0 0 0 0 0 0 127 0" result="hardAlpha"/>
<feOffset dy="-0.161057"/>
<feGaussianBlur stdDeviation="1.61057"/>
<feColorMatrix type="matrix" values="0 0 0 0 0 0 0 0 0 0 0 0 0 0 0 0 0 0 0.0503198 0"/>
<feBlend mode="normal" in2="effect1_dropShadow_1584_1012" result="effect2_dropShadow_1584_1012"/>
<feColorMatrix in="SourceAlpha" type="matrix" values="0 0 0 0 0 0 0 0 0 0 0 0 0 0 0 0 0 0 127 0" result="hardAlpha"/>
<feOffset dy="-0.303256"/>
<feGaussianBlur stdDeviation="3.03256"/>
<feColorMatrix type="matrix" values="0 0 0 0 0 0 0 0 0 0 0 0 0 0 0 0 0 0 0.0417275 0"/>
<feBlend mode="normal" in2="effect2_dropShadow_1584_1012" result="effect3_dropShadow_1584_1012"/>
<feColorMatrix in="SourceAlpha" type="matrix" values="0 0 0 0 0 0 0 0 0 0 0 0 0 0 0 0 0 0 127 0" result="hardAlpha"/>
<feOffset dy="-0.540957"/>
<feGaussianBlur stdDeviation="5.40957"/>
<feColorMatrix type="matrix" values="0 0 0 0 0 0 0 0 0 0 0 0 0 0 0 0 0 0 0.035 0"/>
<feBlend mode="normal" in2="effect3_dropShadow_1584_1012" result="effect4_dropShadow_1584_1012"/>
<feColorMatrix in="SourceAlpha" type="matrix" values="0 0 0 0 0 0 0 0 0 0 0 0 0 0 0 0 0 0 127 0" result="hardAlpha"/>
<feOffset dy="-1.0118"/>
<feGaussianBlur stdDeviation="10.118"/>
<feColorMatrix type="matrix" values="0 0 0 0 0 0 0 0 0 0 0 0 0 0 0 0 0 0 0.0282725 0"/>
<feBlend mode="normal" in2="effect4_dropShadow_1584_1012" result="effect5_dropShadow_1584_1012"/>
<feColorMatrix in="SourceAlpha" type="matrix" values="0 0 0 0 0 0 0 0 0 0 0 0 0 0 0 0 0 0 127 0" result="hardAlpha"/>
<feOffset dy="-2.42188"/>
<feGaussianBlur stdDeviation="24.2188"/>
<feColorMatrix type="matrix" values="0 0 0 0 0 0 0 0 0 0 0 0 0 0 0 0 0 0 0.0196802 0"/>
<feBlend mode="normal" in2="effect5_dropShadow_1584_1012" result="effect6_dropShadow_1584_1012"/>
<feBlend mode="normal" in="SourceGraphic" in2="effect6_dropShadow_1584_1012" result="shape"/>
</filter>
<clipPath id="clip0_1584_1012">
<rect width="310" height="310" rx="16" fill="white"/>
</clipPath>
<clipPath id="clip1_1584_1012">
<rect width="310" height="310" fill="white"/>
</clipPath>
</defs>
</svg>
