<svg width="220" height="312" viewBox="0 0 220 312" fill="none" xmlns="http://www.w3.org/2000/svg">
<g clip-path="url(#clip0_1968_2512)">
<rect width="220" height="311.328" rx="16" fill="#5C3262"/>
<g opacity="0.2">
<line x1="153.595" y1="-331.32" x2="153.595" y2="699.528" stroke="#A8B7D4" stroke-width="0.369748"/>
<line x1="64.9036" y1="-331.32" x2="64.9036" y2="699.528" stroke="#A8B7D4" stroke-width="0.369748"/>
<line x1="175.771" y1="-331.32" x2="175.771" y2="699.528" stroke="#A8B7D4" stroke-width="0.369748"/>
<line x1="87.0716" y1="-331.32" x2="87.0716" y2="699.528" stroke="#A8B7D4" stroke-width="0.369748"/>
<line x1="20.556" y1="-331.32" x2="20.5559" y2="699.528" stroke="#A8B7D4" stroke-width="0.369748"/>
<line x1="197.935" y1="-331.32" x2="197.935" y2="699.528" stroke="#A8B7D4" stroke-width="0.369748"/>
<line x1="109.255" y1="-331.32" x2="109.255" y2="699.528" stroke="#A8B7D4" stroke-width="0.369748"/>
<line x1="42.7396" y1="-331.32" x2="42.7395" y2="699.528" stroke="#A8B7D4" stroke-width="0.369748"/>
<line x1="220.103" y1="-331.32" x2="220.103" y2="699.528" stroke="#A8B7D4" stroke-width="0.369748"/>
<line x1="131.423" y1="-331.32" x2="131.423" y2="699.528" stroke="#A8B7D4" stroke-width="0.369748"/>
<line x1="-510.73" y1="1.11981" x2="762.85" y2="1.11986" stroke="#A8B7D4" stroke-width="0.369748"/>
<line x1="-510.73" y1="178.518" x2="762.85" y2="178.518" stroke="#A8B7D4" stroke-width="0.369748"/>
<line x1="-510.73" y1="267.221" x2="762.85" y2="267.221" stroke="#A8B7D4" stroke-width="0.369748"/>
<line x1="-510.73" y1="89.8308" x2="762.85" y2="89.8308" stroke="#A8B7D4" stroke-width="0.369748"/>
<line x1="-510.73" y1="156.354" x2="762.85" y2="156.354" stroke="#A8B7D4" stroke-width="0.369748"/>
<line x1="-510.73" y1="245.05" x2="762.85" y2="245.05" stroke="#A8B7D4" stroke-width="0.369748"/>
<line x1="-510.73" y1="67.6589" x2="762.85" y2="67.6589" stroke="#A8B7D4" stroke-width="0.369748"/>
<line x1="-510.73" y1="134.182" x2="762.85" y2="134.182" stroke="#A8B7D4" stroke-width="0.369748"/>
<line x1="-510.73" y1="222.862" x2="762.85" y2="222.862" stroke="#A8B7D4" stroke-width="0.369748"/>
<line x1="-510.73" y1="45.4714" x2="762.85" y2="45.4714" stroke="#A8B7D4" stroke-width="0.369748"/>
<line x1="-510.73" y1="289.385" x2="762.85" y2="289.385" stroke="#A8B7D4" stroke-width="0.369748"/>
<line x1="-510.73" y1="111.995" x2="762.85" y2="111.995" stroke="#A8B7D4" stroke-width="0.369748"/>
<line x1="-510.73" y1="200.698" x2="762.85" y2="200.698" stroke="#A8B7D4" stroke-width="0.369748"/>
<line x1="-510.73" y1="23.2995" x2="762.85" y2="23.2995" stroke="#A8B7D4" stroke-width="0.369748"/>
</g>
<path d="M0 0H220V173.983H0V0Z" fill="url(#paint0_linear_1968_2512)"/>
<path fill-rule="evenodd" clip-rule="evenodd" d="M216.352 163.688C230.575 163.688 242.106 152.157 242.106 137.934C242.106 123.71 230.575 112.18 216.352 112.18C202.128 112.18 190.598 123.71 190.598 137.934C190.598 152.157 202.128 163.688 216.352 163.688Z" fill="#D0B3D6"/>
<path fill-rule="evenodd" clip-rule="evenodd" d="M216.352 225.478C230.575 225.478 242.106 213.949 242.106 199.727C242.106 185.505 230.575 173.977 216.352 173.977C202.128 173.977 190.598 185.505 190.598 199.727C190.598 213.949 202.128 225.478 216.352 225.478Z" fill="#5D3D6E"/>
<path fill-rule="evenodd" clip-rule="evenodd" d="M216.352 289.571C230.575 289.571 242.106 278.04 242.106 263.817C242.106 249.593 230.575 238.062 216.352 238.062C202.128 238.062 190.598 249.593 190.598 263.817C190.598 278.04 202.128 289.571 216.352 289.571Z" fill="#2481C2"/>
<path fill-rule="evenodd" clip-rule="evenodd" d="M152.286 225.478C166.508 225.478 178.037 213.949 178.037 199.727C178.037 185.505 166.508 173.977 152.286 173.977C138.064 173.977 126.535 185.505 126.535 199.727C126.535 213.949 138.064 225.478 152.286 225.478Z" fill="#2F4C6C"/>
<path fill-rule="evenodd" clip-rule="evenodd" d="M152.247 289.571C166.468 289.571 177.997 278.04 177.997 263.817C177.997 249.593 166.468 238.062 152.247 238.062C138.025 238.062 126.496 249.593 126.496 263.817C126.496 278.04 138.025 289.571 152.247 289.571Z" fill="#35B2C2"/>
<path fill-rule="evenodd" clip-rule="evenodd" d="M90.469 289.571C104.693 289.571 116.223 278.04 116.223 263.817C116.223 249.593 104.693 238.062 90.469 238.062C76.2454 238.062 64.7148 249.593 64.7148 263.817C64.7148 278.04 76.2454 289.571 90.469 289.571Z" fill="white"/>
<path d="M29.4026 61.9843C30.6678 61.9843 31.744 62.2897 32.6312 62.9005C33.5183 63.4968 33.9619 64.384 33.9619 65.562C33.9619 66.9145 33.4165 68.0853 32.3258 69.0742C31.2496 70.0632 29.9334 70.8121 28.3772 71.3212C26.8356 71.8447 25.3886 72.1283 24.036 72.172L23.8397 71.3866C25.7013 71.0085 27.3447 70.3613 28.7699 69.4451C30.2097 68.5288 30.9296 67.2926 30.9296 65.7365C30.9296 65.1693 30.7624 64.6675 30.4279 64.2312C30.1079 63.7804 29.6862 63.4386 29.1626 63.2059C28.6536 62.9587 28.1227 62.8351 27.5701 62.8351C26.6102 62.8351 25.6285 63.0314 24.625 63.4241L24.5814 63.315V69.9032L21.8545 70.7976V62.7696C21.8545 61.3007 22.1745 59.9555 22.8144 58.7338C23.4543 57.5122 24.3487 56.5523 25.4976 55.8542C26.6611 55.1416 27.97 54.7853 29.4244 54.7853C30.1661 54.7853 30.7915 54.9671 31.3005 55.3307C31.8095 55.6943 32.064 56.2178 32.064 56.9014C32.064 57.8176 31.5913 58.7556 30.646 59.7155C29.7007 60.6608 28.6463 61.4607 27.4828 62.1152L27.5265 62.2243C28.2682 62.0643 28.8935 61.9843 29.4026 61.9843ZM24.5814 62.7696C25.8031 62.1879 26.8575 61.468 27.7446 60.6099C28.6463 59.7519 29.0971 58.7993 29.0971 57.7522C29.0971 57.214 28.959 56.785 28.6827 56.4651C28.4063 56.1306 28.0282 55.9633 27.5483 55.9633C26.8211 55.9633 26.2321 56.276 25.7812 56.9014C25.3449 57.5122 25.0323 58.2466 24.8432 59.1047C24.6687 59.9628 24.5814 60.7845 24.5814 61.5698V62.7696ZM41.0827 59.8464C40.1228 60.5299 39.3666 61.308 38.8139 62.1806C38.2758 63.0387 38.0067 64.0495 38.0067 65.2129C38.0067 65.8528 38.1304 66.5 38.3776 67.1545C38.6248 67.8089 38.9884 68.3543 39.4684 68.7906C39.9483 69.2124 40.5228 69.4232 41.1918 69.4232C42.0353 69.4232 42.7115 69.1178 43.2206 68.507C43.7441 67.8962 44.0059 67.1399 44.0059 66.2382C44.0059 65.5547 43.8241 64.8639 43.4605 64.1658C43.1115 63.4532 42.6388 62.8569 42.0425 62.377C41.4463 61.8825 40.8064 61.6062 40.1228 61.548C40.4282 61.2135 40.7555 60.9081 41.1045 60.6317C41.4681 60.3554 41.9189 60.0209 42.457 59.6283C43.5042 59.9773 44.3331 60.6245 44.944 61.5698C45.5693 62.5151 45.882 63.555 45.882 64.6894C45.882 65.6929 45.6566 66.6673 45.2057 67.6126C44.7694 68.5579 44.1295 69.3287 43.286 69.925C42.457 70.5067 41.4899 70.7976 40.3846 70.7976C39.4684 70.7976 38.6248 70.5867 37.854 70.165C37.0978 69.7287 36.4942 69.1396 36.0434 68.3979C35.5925 67.6417 35.3671 66.8127 35.3671 65.911C35.3671 64.3549 35.8543 62.9878 36.8287 61.8098C37.8177 60.6317 39.0975 59.81 40.6682 59.3447L41.0827 59.8464ZM53.2472 59.8464C52.2873 60.5299 51.531 61.308 50.9784 62.1806C50.4403 63.0387 50.1712 64.0495 50.1712 65.2129C50.1712 65.8528 50.2949 66.5 50.5421 67.1545C50.7893 67.8089 51.1529 68.3543 51.6329 68.7906C52.1128 69.2124 52.6872 69.4232 53.3562 69.4232C54.1998 69.4232 54.876 69.1178 55.3851 68.507C55.9086 67.8962 56.1704 67.1399 56.1704 66.2382C56.1704 65.5547 55.9886 64.8639 55.625 64.1658C55.276 63.4532 54.8033 62.8569 54.207 62.377C53.6108 61.8825 52.9708 61.6062 52.2873 61.548C52.5927 61.2135 52.9199 60.9081 53.269 60.6317C53.6326 60.3554 54.0834 60.0209 54.6215 59.6283C55.6687 59.9773 56.4976 60.6245 57.1084 61.5698C57.7338 62.5151 58.0465 63.555 58.0465 64.6894C58.0465 65.6929 57.8211 66.6673 57.3702 67.6126C56.9339 68.5579 56.294 69.3287 55.4505 69.925C54.6215 70.5067 53.6544 70.7976 52.5491 70.7976C51.6329 70.7976 50.7893 70.5867 50.0185 70.165C49.2623 69.7287 48.6587 69.1396 48.2079 68.3979C47.757 67.6417 47.5316 66.8127 47.5316 65.911C47.5316 64.3549 48.0188 62.9878 48.9932 61.8098C49.9822 60.6317 51.262 59.81 52.8327 59.3447L53.2472 59.8464ZM63.2083 65.6274H63.361C63.841 63.9695 64.4591 62.5151 65.2153 61.2644C65.9861 60.0137 66.9387 59.3883 68.0731 59.3883C68.6112 59.3883 69.0402 59.5701 69.3602 59.9337C69.6802 60.2973 69.8401 60.7481 69.8401 61.2862C69.8401 62.1879 69.462 63.046 68.7057 63.8604C67.964 64.6748 67.106 65.3729 66.1316 65.9546C66.2625 66.1437 66.3933 66.311 66.5242 66.4564C67.1205 67.2708 67.6513 67.9253 68.1167 68.4198C68.5967 68.8997 69.0475 69.1396 69.4693 69.1396C70.0074 69.1396 70.4655 68.9142 70.8436 68.4634L71.2363 68.8997C70.9163 69.4232 70.4655 69.8595 69.8838 70.2086C69.302 70.5576 68.6912 70.7322 68.0513 70.7322C67.4259 70.7322 66.8587 70.514 66.3497 70.0777C65.8552 69.6414 65.2953 69.0306 64.6699 68.2452C64.19 67.6635 63.8846 67.3145 63.7537 67.1981L63.5574 67.3072C63.4701 67.6126 63.3901 68.0634 63.3174 68.6597C63.2592 69.256 63.2229 69.7723 63.2083 70.2086L60.6123 70.7758V51.2512L63.2083 50.335V65.6274ZM66.5242 61.6571C66.0298 61.6571 65.5135 62.2243 64.9754 63.3586C64.4373 64.4785 63.9937 65.5547 63.6446 66.5873C64.619 66.0201 65.448 65.3729 66.1316 64.6457C66.8296 63.9186 67.1787 63.2132 67.1787 62.5297C67.1787 62.297 67.1205 62.0934 67.0042 61.9188C66.8878 61.7443 66.7278 61.6571 66.5242 61.6571ZM87.5397 54.6544C87.0307 55.3816 86.3617 55.9851 85.5327 56.4651C84.7037 56.945 83.8675 57.185 83.024 57.185C82.7476 57.534 82.544 57.8685 82.4131 58.1885C82.2968 58.5084 82.2386 58.8793 82.2386 59.301V66.3473C82.2386 67.3944 82.0059 68.2743 81.5405 68.9869C81.0897 69.6996 80.3843 70.354 79.4245 70.9503L78.9664 70.4267C79.3445 69.9468 79.5335 69.2415 79.5335 68.3107V60.5663C79.5335 59.9555 79.7226 59.3665 80.1007 58.7993C80.4934 58.2175 80.9733 57.6794 81.5405 57.185L78.6391 57.1631C78.1446 57.1631 77.6938 57.2722 77.2866 57.4904C76.8794 57.7085 76.494 58.043 76.1304 58.4939L75.6505 58.0357C76.334 57.1341 77.0321 56.4214 77.7447 55.8979C78.4719 55.3743 79.2936 55.1125 80.2098 55.1125H83.4385C84.1365 55.1125 84.8419 55.0543 85.5545 54.938C86.2671 54.8071 86.8053 54.5817 87.1688 54.2617L87.5397 54.6544ZM89.0787 57.294L87.7043 57.7303L86.8099 53.171L89.8422 52.1457L89.0787 57.294ZM89.7768 68.4852C89.7768 68.7033 89.8277 68.8779 89.9295 69.0088C90.0313 69.1396 90.1694 69.2051 90.344 69.2051C90.7075 69.2051 91.0784 68.9506 91.4565 68.4416L91.8492 68.8561C91.5293 69.4378 91.1148 69.8814 90.6057 70.1868C90.1113 70.4922 89.6168 70.6449 89.1223 70.6449C87.7989 70.6449 87.1371 69.8814 87.1371 68.3543V60.5009L89.7768 59.5846V68.4852ZM96.7036 61.0244V68.4852C96.7036 68.6888 96.7618 68.8633 96.8781 69.0088C96.9945 69.1396 97.1472 69.2051 97.3362 69.2051C97.6853 69.2051 98.0779 68.9506 98.5142 68.4416L98.9069 68.8561C98.6451 69.3796 98.3179 69.7723 97.9252 70.0341C97.5326 70.2959 97.1544 70.4704 96.7908 70.5576C96.4273 70.6449 96.2455 70.674 96.2455 70.6449C94.7911 70.6449 94.064 69.8814 94.064 68.3543V61.0244H92.5151L93.1913 59.5846H94.064V54.6326L96.7036 53.7382V59.5846H99.5614L98.9069 61.0244H96.7036ZM104.093 68.4852C104.093 68.6743 104.137 68.8415 104.224 68.9869C104.326 69.1324 104.478 69.2051 104.682 69.2051C104.886 69.2051 105.089 69.1251 105.293 68.9651C105.511 68.8052 105.685 68.6306 105.816 68.4416L106.209 68.8561C105.962 69.3505 105.598 69.7723 105.118 70.1213C104.653 70.4704 104.151 70.6449 103.613 70.6449C102.202 70.6449 101.497 69.8814 101.497 68.3543V51.2512L104.093 50.3132V68.4852ZM113.832 59.3883C114.676 59.3883 115.381 59.6064 115.948 60.0427C116.516 60.4645 116.799 61.0826 116.799 61.897C116.799 62.5515 116.443 63.2859 115.73 64.1004C115.032 64.9002 114.196 65.6492 113.222 66.3473C112.262 67.0309 111.44 67.5253 110.756 67.8307C111.367 68.8052 112.262 69.2924 113.44 69.2924C114.094 69.2924 114.749 69.1106 115.403 68.747C116.072 68.3688 116.639 67.8744 117.105 67.2635L117.541 67.7871C116.785 68.7324 115.985 69.4669 115.141 69.9904C114.312 70.4995 113.323 70.754 112.174 70.754C111.244 70.754 110.407 70.5431 109.666 70.1213C108.939 69.6996 108.364 69.1251 107.942 68.3979C107.535 67.6562 107.331 66.8272 107.331 65.911C107.331 64.8057 107.63 63.7513 108.226 62.7478C108.837 61.7298 109.644 60.9153 110.647 60.3045C111.651 59.6937 112.713 59.3883 113.832 59.3883ZM112.589 60.8063C112.036 60.8063 111.542 61.0099 111.105 61.4171C110.669 61.8098 110.327 62.3188 110.08 62.9442C109.833 63.5695 109.709 64.2167 109.709 64.8857C109.709 65.7583 109.898 66.5073 110.277 67.1327C110.815 66.8272 111.382 66.4055 111.978 65.8674C112.589 65.3147 113.098 64.7257 113.505 64.1004C113.912 63.475 114.116 62.9078 114.116 62.3988C114.116 61.8898 113.978 61.4971 113.701 61.2208C113.44 60.9444 113.069 60.8063 112.589 60.8063ZM130.676 59.8246C129.774 60.6245 128.727 61.308 127.534 61.8752L127.578 62.0061C128.029 61.8752 128.538 61.8098 129.105 61.8098C129.934 61.8098 130.698 61.9843 131.396 62.3333C132.094 62.6678 132.646 63.1405 133.054 63.7513C133.461 64.3621 133.664 65.0675 133.664 65.8674C133.664 67.249 133.126 68.4052 132.05 69.336C130.988 70.2668 129.687 70.943 128.145 71.3648C126.604 71.8011 125.12 72.0192 123.695 72.0192L123.542 71.343C124.575 71.2121 125.636 70.9212 126.727 70.4704C127.818 70.005 128.734 69.3869 129.476 68.6161C130.218 67.8307 130.588 66.9363 130.588 65.9328C130.588 65.002 130.268 64.2603 129.629 63.7077C129.003 63.155 128.211 62.8787 127.251 62.8787C126.814 62.8787 126.371 62.9369 125.92 63.0532C125.484 63.1696 124.975 63.3514 124.393 63.5986L124.109 62.8569C125.375 62.2752 126.473 61.5843 127.403 60.7845C128.349 59.97 128.821 59.0465 128.821 58.0139C128.821 57.4904 128.676 57.105 128.385 56.8577C128.109 56.596 127.731 56.4651 127.251 56.4651C126.698 56.4651 126.087 56.6541 125.418 57.0323C124.749 57.3958 124.197 57.8249 123.76 58.3193L123.193 57.7522C123.964 56.7632 124.88 56.0069 125.942 55.4834C127.003 54.9453 128.036 54.6762 129.04 54.6762C129.927 54.6762 130.647 54.8944 131.199 55.3307C131.766 55.767 132.05 56.3923 132.05 57.2068C132.05 58.1376 131.592 59.0102 130.676 59.8246Z" fill="white"/>
<path d="M26.776 83.4275C26.7182 83.2507 26.6421 83.0923 26.5475 82.9522C26.4547 82.8104 26.3436 82.6896 26.214 82.5898C26.0862 82.49 25.9409 82.4139 25.7781 82.3613C25.6153 82.3088 25.4367 82.2826 25.2424 82.2826C24.9238 82.2826 24.634 82.3648 24.3732 82.5294C24.1123 82.694 23.9048 82.9364 23.7508 83.2568C23.5967 83.5772 23.5197 83.9702 23.5197 84.4359C23.5197 84.9016 23.5976 85.2946 23.7534 85.615C23.9092 85.9354 24.1202 86.1779 24.3863 86.3424C24.6524 86.507 24.9518 86.5893 25.2844 86.5893C25.5925 86.5893 25.8639 86.5236 26.0985 86.3923C26.3348 86.2593 26.5186 86.072 26.6499 85.8304C26.783 85.587 26.8495 85.3008 26.8495 84.9716L27.0491 85.0137H25.4315V84.4359H27.4798V85.0137C27.4798 85.4566 27.3852 85.8417 27.1962 86.1691C27.0088 86.4965 26.7497 86.7504 26.4189 86.9307C26.0897 87.1092 25.7116 87.1985 25.2844 87.1985C24.8082 87.1985 24.3898 87.0865 24.0291 86.8624C23.6703 86.6383 23.3901 86.3197 23.1888 85.9065C22.9892 85.4933 22.8894 85.0032 22.8894 84.4359C22.8894 84.0105 22.9463 83.628 23.0601 83.2883C23.1757 82.947 23.3385 82.6563 23.5486 82.4165C23.7587 82.1766 24.0073 81.9928 24.2944 81.865C24.5815 81.7372 24.8975 81.6733 25.2424 81.6733C25.526 81.6733 25.7904 81.7162 26.0355 81.802C26.2823 81.886 26.502 82.006 26.6946 82.1618C26.8889 82.3158 27.0509 82.5005 27.1804 82.7159C27.31 82.9294 27.3992 83.1667 27.4483 83.4275H26.776ZM31.0532 85.4758V83.0914H31.6729V87.125H31.0532V86.4422H31.0112C30.9166 86.6471 30.7696 86.8213 30.57 86.9648C30.3704 87.1066 30.1183 87.1775 29.8137 87.1775C29.5616 87.1775 29.3375 87.1224 29.1414 87.0121C28.9453 86.9 28.7913 86.732 28.6792 86.5079C28.5672 86.282 28.5112 85.9975 28.5112 85.6544V83.0914H29.1309V85.6124C29.1309 85.9065 29.2132 86.1411 29.3778 86.3162C29.5441 86.4912 29.7559 86.5788 30.0133 86.5788C30.1673 86.5788 30.324 86.5394 30.4833 86.4606C30.6444 86.3818 30.7792 86.261 30.8877 86.0982C30.998 85.9354 31.0532 85.7279 31.0532 85.4758ZM32.808 87.125V83.0914H33.4278V87.125H32.808ZM33.1232 82.4191C33.0024 82.4191 32.8982 82.378 32.8107 82.2957C32.7249 82.2134 32.682 82.1145 32.682 81.9989C32.682 81.8834 32.7249 81.7845 32.8107 81.7022C32.8982 81.6199 33.0024 81.5788 33.1232 81.5788C33.244 81.5788 33.3472 81.6199 33.433 81.7022C33.5206 81.7845 33.5643 81.8834 33.5643 81.9989C33.5643 82.1145 33.5206 82.2134 33.433 82.2957C33.3472 82.378 33.244 82.4191 33.1232 82.4191ZM36.086 87.209C35.7499 87.209 35.4531 87.1241 35.1958 86.9543C34.9384 86.7827 34.7371 86.5411 34.5918 86.2295C34.4465 85.9161 34.3738 85.5459 34.3738 85.1187C34.3738 84.695 34.4465 84.3274 34.5918 84.0158C34.7371 83.7041 34.9393 83.4634 35.1984 83.2936C35.4575 83.1238 35.7569 83.0389 36.0965 83.0389C36.3591 83.0389 36.5666 83.0826 36.7189 83.1702C36.8729 83.256 36.9902 83.354 37.0708 83.4643C37.1531 83.5728 37.217 83.6621 37.2625 83.7321H37.315V81.7468H37.9347V87.125H37.336V86.5053H37.2625C37.217 86.5788 37.1522 86.6716 37.0681 86.7836C36.9841 86.8939 36.8642 86.9928 36.7084 87.0804C36.5526 87.1661 36.3451 87.209 36.086 87.209ZM36.17 86.6523C36.4186 86.6523 36.6287 86.5875 36.8003 86.458C36.9719 86.3267 37.1023 86.1455 37.1916 85.9144C37.2809 85.6815 37.3255 85.4128 37.3255 85.1082C37.3255 84.8071 37.2817 84.5436 37.1942 84.3178C37.1067 84.0902 36.9771 83.9133 36.8055 83.7873C36.634 83.6595 36.4221 83.5956 36.17 83.5956C35.9074 83.5956 35.6886 83.663 35.5135 83.7978C35.3402 83.9308 35.2098 84.112 35.1222 84.3414C35.0365 84.569 34.9936 84.8246 34.9936 85.1082C34.9936 85.3953 35.0373 85.6562 35.1249 85.8908C35.2142 86.1236 35.3455 86.3092 35.5188 86.4475C35.6938 86.584 35.9109 86.6523 36.17 86.6523ZM40.847 87.209C40.4584 87.209 40.1231 87.1232 39.8413 86.9517C39.5611 86.7784 39.3449 86.5368 39.1926 86.2269C39.0421 85.9153 38.9668 85.5529 38.9668 85.1397C38.9668 84.7265 39.0421 84.3624 39.1926 84.0473C39.3449 83.7304 39.5568 83.4835 39.8281 83.3067C40.1012 83.1282 40.4199 83.0389 40.784 83.0389C40.9941 83.0389 41.2015 83.0739 41.4064 83.1439C41.6112 83.2139 41.7977 83.3277 41.9657 83.4853C42.1338 83.6411 42.2677 83.8477 42.3675 84.105C42.4673 84.3624 42.5172 84.6793 42.5172 85.0557V85.3183H39.408V84.7826H41.8869C41.8869 84.555 41.8414 84.3519 41.7504 84.1733C41.6611 83.9947 41.5333 83.8538 41.367 83.7505C41.2024 83.6472 41.0081 83.5956 40.784 83.5956C40.5372 83.5956 40.3236 83.6569 40.1432 83.7794C39.9647 83.9002 39.8272 84.0578 39.731 84.2521C39.6347 84.4464 39.5865 84.6548 39.5865 84.8771V85.2342C39.5865 85.5389 39.639 85.7971 39.7441 86.0089C39.8509 86.219 39.9988 86.3792 40.1879 86.4895C40.377 86.598 40.5967 86.6523 40.847 86.6523C41.0098 86.6523 41.1569 86.6296 41.2882 86.584C41.4213 86.5368 41.5359 86.4667 41.6322 86.3739C41.7285 86.2794 41.8029 86.1621 41.8554 86.0221L42.4542 86.1901C42.3911 86.3932 42.2852 86.5718 42.1364 86.7258C41.9876 86.8782 41.8038 86.9972 41.585 87.083C41.3661 87.167 41.1201 87.209 40.847 87.209ZM47.2835 87.125H45.6238V81.7468H47.357C47.8787 81.7468 48.3251 81.8545 48.6963 82.0699C49.0674 82.2834 49.3519 82.5907 49.5498 82.9916C49.7476 83.3908 49.8465 83.8687 49.8465 84.4254C49.8465 84.9856 49.7467 85.468 49.5471 85.8724C49.3476 86.275 49.0569 86.5849 48.6753 86.802C48.2936 87.0173 47.8297 87.125 47.2835 87.125ZM46.2751 86.5473H47.2415C47.6861 86.5473 48.0547 86.4615 48.347 86.2899C48.6394 86.1183 48.8574 85.8741 49.0009 85.5572C49.1445 85.2404 49.2163 84.8631 49.2163 84.4254C49.2163 83.9912 49.1454 83.6175 49.0035 83.3041C48.8617 82.989 48.6499 82.7474 48.368 82.5793C48.0862 82.4095 47.7352 82.3246 47.315 82.3246H46.2751V86.5473ZM52.5461 87.209C52.1574 87.209 51.8222 87.1232 51.5403 86.9517C51.2602 86.7784 51.044 86.5368 50.8917 86.2269C50.7411 85.9153 50.6658 85.5529 50.6658 85.1397C50.6658 84.7265 50.7411 84.3624 50.8917 84.0473C51.044 83.7304 51.2558 83.4835 51.5272 83.3067C51.8003 83.1282 52.1189 83.0389 52.4831 83.0389C52.6931 83.0389 52.9006 83.0739 53.1054 83.1439C53.3103 83.2139 53.4967 83.3277 53.6648 83.4853C53.8328 83.6411 53.9668 83.8477 54.0666 84.105C54.1664 84.3624 54.2163 84.6793 54.2163 85.0557V85.3183H51.107V84.7826H53.586C53.586 84.555 53.5405 84.3519 53.4494 84.1733C53.3602 83.9947 53.2324 83.8538 53.066 83.7505C52.9015 83.6472 52.7071 83.5956 52.4831 83.5956C52.2362 83.5956 52.0226 83.6569 51.8423 83.7794C51.6637 83.9002 51.5263 84.0578 51.43 84.2521C51.3337 84.4464 51.2856 84.6548 51.2856 84.8771V85.2342C51.2856 85.5389 51.3381 85.7971 51.4431 86.0089C51.5499 86.219 51.6979 86.3792 51.8869 86.4895C52.076 86.598 52.2957 86.6523 52.5461 86.6523C52.7089 86.6523 52.856 86.6296 52.9873 86.584C53.1203 86.5368 53.235 86.4667 53.3313 86.3739C53.4276 86.2794 53.502 86.1621 53.5545 86.0221L54.1532 86.1901C54.0902 86.3932 53.9843 86.5718 53.8355 86.7258C53.6867 86.8782 53.5028 86.9972 53.284 87.083C53.0652 87.167 52.8192 87.209 52.5461 87.209ZM58.0161 83.9947L57.4594 84.1523C57.4244 84.0595 57.3728 83.9694 57.3045 83.8818C57.238 83.7925 57.1469 83.719 57.0314 83.6612C56.9158 83.6035 56.7679 83.5746 56.5876 83.5746C56.3407 83.5746 56.135 83.6315 55.9705 83.7453C55.8076 83.8573 55.7262 84 55.7262 84.1733C55.7262 84.3274 55.7823 84.4491 55.8943 84.5383C56.0063 84.6276 56.1814 84.702 56.4195 84.7616L57.0182 84.9086C57.3789 84.9961 57.6476 85.1301 57.8244 85.3104C58.0013 85.489 58.0897 85.7192 58.0897 86.0011C58.0897 86.2321 58.0232 86.4387 57.8901 86.6208C57.7588 86.8029 57.575 86.9464 57.3386 87.0515C57.1023 87.1565 56.8274 87.209 56.514 87.209C56.1026 87.209 55.7621 87.1197 55.4925 86.9412C55.2229 86.7626 55.0522 86.5018 54.9804 86.1586L55.5687 86.0116C55.6247 86.2286 55.7306 86.3915 55.8864 86.5C56.044 86.6085 56.2497 86.6628 56.5035 86.6628C56.7924 86.6628 57.0217 86.6015 57.1916 86.479C57.3631 86.3547 57.4489 86.2059 57.4489 86.0326C57.4489 85.8925 57.3999 85.7752 57.3019 85.6807C57.2038 85.5844 57.0533 85.5126 56.8502 85.4653L56.1779 85.3078C55.8085 85.2202 55.5372 85.0846 55.3638 84.9007C55.1923 84.7152 55.1065 84.4832 55.1065 84.2048C55.1065 83.9772 55.1704 83.7759 55.2982 83.6008C55.4277 83.4258 55.6037 83.2883 55.826 83.1886C56.0501 83.0888 56.304 83.0389 56.5876 83.0389C56.9867 83.0389 57.3001 83.1264 57.5277 83.3015C57.757 83.4765 57.9199 83.7076 58.0161 83.9947ZM60.6612 87.209C60.2831 87.209 59.9575 87.1197 59.6843 86.9412C59.4112 86.7626 59.2012 86.5166 59.0541 86.2033C58.907 85.8899 58.8335 85.5319 58.8335 85.1292C58.8335 84.7195 58.9088 84.358 59.0593 84.0446C59.2117 83.7295 59.4235 83.4835 59.6949 83.3067C59.968 83.1282 60.2866 83.0389 60.6507 83.0389C60.9343 83.0389 61.19 83.0914 61.4175 83.1964C61.6451 83.3015 61.8316 83.4485 61.9769 83.6376C62.1222 83.8267 62.2124 84.0473 62.2474 84.2994H61.6276C61.5804 84.1155 61.4753 83.9527 61.3125 83.8109C61.1514 83.6674 60.9343 83.5956 60.6612 83.5956C60.4196 83.5956 60.2078 83.6586 60.0257 83.7847C59.8454 83.909 59.7045 84.0849 59.6029 84.3125C59.5032 84.5383 59.4533 84.8036 59.4533 85.1082C59.4533 85.4198 59.5023 85.6912 59.6003 85.9223C59.7001 86.1534 59.8402 86.3328 60.0205 86.4606C60.2026 86.5884 60.4161 86.6523 60.6612 86.6523C60.8223 86.6523 60.9685 86.6243 61.0998 86.5683C61.2311 86.5123 61.3423 86.4317 61.4333 86.3267C61.5243 86.2216 61.5891 86.0956 61.6276 85.9485H62.2474C62.2124 86.1866 62.1257 86.4011 61.9874 86.5919C61.8508 86.781 61.6696 86.9315 61.4438 87.0436C61.2197 87.1539 60.9589 87.209 60.6612 87.209ZM63.1534 87.125V83.0914H63.7521V83.7006H63.7941C63.8676 83.5011 64.0007 83.3391 64.1933 83.2148C64.3859 83.0905 64.6029 83.0284 64.8445 83.0284C64.8901 83.0284 64.947 83.0292 65.0152 83.031C65.0835 83.0327 65.1352 83.0354 65.1702 83.0389V83.6691C65.1492 83.6639 65.101 83.656 65.0257 83.6455C64.9522 83.6332 64.8743 83.6271 64.792 83.6271C64.5959 83.6271 64.4209 83.6682 64.2668 83.7505C64.1145 83.8311 63.9937 83.9431 63.9044 84.0867C63.8169 84.2285 63.7731 84.3904 63.7731 84.5725V87.125H63.1534ZM65.9048 87.125V83.0914H66.5246V87.125H65.9048ZM66.2199 82.4191C66.0991 82.4191 65.995 82.378 65.9074 82.2957C65.8216 82.2134 65.7788 82.1145 65.7788 81.9989C65.7788 81.8834 65.8216 81.7845 65.9074 81.7022C65.995 81.6199 66.0991 81.5788 66.2199 81.5788C66.3407 81.5788 66.444 81.6199 66.5298 81.7022C66.6173 81.7845 66.6611 81.8834 66.6611 81.9989C66.6611 82.1145 66.6173 82.2134 66.5298 82.2957C66.444 82.378 66.3407 82.4191 66.2199 82.4191ZM67.6597 88.6376V83.0914H68.2584V83.7321H68.3319C68.3774 83.6621 68.4405 83.5728 68.521 83.4643C68.6033 83.354 68.7206 83.256 68.8729 83.1702C69.027 83.0826 69.2353 83.0389 69.4979 83.0389C69.8375 83.0389 70.1369 83.1238 70.396 83.2936C70.6551 83.4634 70.8573 83.7041 71.0026 84.0158C71.1479 84.3274 71.2206 84.695 71.2206 85.1187C71.2206 85.5459 71.1479 85.9161 71.0026 86.2295C70.8573 86.5411 70.656 86.7827 70.3986 86.9543C70.1413 87.1241 69.8445 87.209 69.5084 87.209C69.2493 87.209 69.0418 87.1661 68.886 87.0804C68.7302 86.9928 68.6103 86.8939 68.5263 86.7836C68.4422 86.6716 68.3774 86.5788 68.3319 86.5053H68.2794V88.6376H67.6597ZM68.2689 85.1082C68.2689 85.4128 68.3135 85.6815 68.4028 85.9144C68.4921 86.1455 68.6225 86.3267 68.7941 86.458C68.9657 86.5875 69.1758 86.6523 69.4244 86.6523C69.6835 86.6523 69.8997 86.584 70.073 86.4475C70.2481 86.3092 70.3794 86.1236 70.4669 85.8908C70.5562 85.6562 70.6008 85.3953 70.6008 85.1082C70.6008 84.8246 70.5571 84.569 70.4695 84.3414C70.3838 84.112 70.2533 83.9308 70.0783 83.7978C69.9049 83.663 69.687 83.5956 69.4244 83.5956C69.1723 83.5956 68.9604 83.6595 68.7889 83.7873C68.6173 83.9133 68.4877 84.0902 68.4002 84.3178C68.3127 84.5436 68.2689 84.8071 68.2689 85.1082ZM73.9202 83.0914V83.6166H71.8298V83.0914H73.9202ZM72.4391 82.125H73.0588V85.9695C73.0588 86.1446 73.0842 86.2759 73.135 86.3634C73.1875 86.4492 73.254 86.507 73.3346 86.5368C73.4168 86.5648 73.5035 86.5788 73.5945 86.5788C73.6628 86.5788 73.7188 86.5753 73.7626 86.5683C73.8064 86.5595 73.8414 86.5525 73.8676 86.5473L73.9937 87.104C73.9517 87.1197 73.893 87.1355 73.8178 87.1513C73.7425 87.1688 73.6471 87.1775 73.5315 87.1775C73.3564 87.1775 73.1849 87.1399 73.0168 87.0646C72.8505 86.9893 72.7122 86.8746 72.6019 86.7206C72.4933 86.5665 72.4391 86.3722 72.4391 86.1376V82.125ZM74.8524 87.125V83.0914H75.4722V87.125H74.8524ZM75.1675 82.4191C75.0467 82.4191 74.9426 82.378 74.855 82.2957C74.7693 82.2134 74.7264 82.1145 74.7264 81.9989C74.7264 81.8834 74.7693 81.7845 74.855 81.7022C74.9426 81.6199 75.0467 81.5788 75.1675 81.5788C75.2883 81.5788 75.3916 81.6199 75.4774 81.7022C75.5649 81.7845 75.6087 81.8834 75.6087 81.9989C75.6087 82.1145 75.5649 82.2134 75.4774 82.2957C75.3916 82.378 75.2883 82.4191 75.1675 82.4191ZM78.2459 87.209C77.8818 87.209 77.5623 87.1224 77.2874 86.9491C77.0143 86.7757 76.8007 86.5333 76.6467 86.2216C76.4944 85.91 76.4182 85.5459 76.4182 85.1292C76.4182 84.709 76.4944 84.3423 76.6467 84.0289C76.8007 83.7155 77.0143 83.4722 77.2874 83.2988C77.5623 83.1255 77.8818 83.0389 78.2459 83.0389C78.6101 83.0389 78.9287 83.1255 79.2018 83.2988C79.4767 83.4722 79.6903 83.7155 79.8426 84.0289C79.9966 84.3423 80.0737 84.709 80.0737 85.1292C80.0737 85.5459 79.9966 85.91 79.8426 86.2216C79.6903 86.5333 79.4767 86.7757 79.2018 86.9491C78.9287 87.1224 78.6101 87.209 78.2459 87.209ZM78.2459 86.6523C78.5225 86.6523 78.7501 86.5814 78.9287 86.4396C79.1073 86.2978 79.2395 86.1113 79.3252 85.8803C79.411 85.6492 79.4539 85.3988 79.4539 85.1292C79.4539 84.8596 79.411 84.6084 79.3252 84.3755C79.2395 84.1427 79.1073 83.9545 78.9287 83.8109C78.7501 83.6674 78.5225 83.5956 78.2459 83.5956C77.9693 83.5956 77.7417 83.6674 77.5632 83.8109C77.3846 83.9545 77.2524 84.1427 77.1666 84.3755C77.0808 84.6084 77.0379 84.8596 77.0379 85.1292C77.0379 85.3988 77.0808 85.6492 77.1666 85.8803C77.2524 86.1113 77.3846 86.2978 77.5632 86.4396C77.7417 86.5814 77.9693 86.6523 78.2459 86.6523ZM81.6394 84.6985V87.125H81.0197V83.0914H81.6184V83.7216H81.671C81.7655 83.5168 81.909 83.3522 82.1016 83.2279C82.2942 83.1019 82.5428 83.0389 82.8474 83.0389C83.1205 83.0389 83.3595 83.0949 83.5643 83.2069C83.7692 83.3172 83.9285 83.4853 84.0423 83.7111C84.1561 83.9352 84.213 84.2188 84.213 84.562V87.125H83.5932V84.604C83.5932 84.2871 83.5109 84.0403 83.3464 83.8634C83.1818 83.6849 82.956 83.5956 82.6689 83.5956C82.471 83.5956 82.2942 83.6385 82.1384 83.7243C81.9843 83.81 81.8627 83.9352 81.7734 84.0998C81.6841 84.2644 81.6394 84.4639 81.6394 84.6985Z" fill="white"/>
<path d="M38.6576 39.8151C38.632 39.9804 38.4937 40.0962 38.3488 40.0738C38.2038 40.0513 38.107 39.8992 38.1326 39.7339C38.1582 39.5686 38.2964 39.4528 38.4414 39.4753C38.5864 39.4977 38.6832 39.6499 38.6576 39.8151Z" fill="white"/>
<path d="M39.2066 38.8544C39.181 39.0197 39.0427 39.1355 38.8977 39.1131C38.7528 39.0906 38.656 38.9384 38.6816 38.7732C38.7071 38.6079 38.8454 38.4921 38.9904 38.5146C39.1354 38.537 39.2321 38.6892 39.2066 38.8544Z" fill="white"/>
<path d="M39.6641 37.8937C39.6385 38.059 39.5002 38.1748 39.3552 38.1523C39.2103 38.1299 39.1135 37.9777 39.139 37.8125C39.1646 37.6472 39.3029 37.5314 39.4479 37.5538C39.5928 37.5763 39.6896 37.7284 39.6641 37.8937Z" fill="white"/>
<path d="M39.9843 36.8415C39.9587 37.0068 39.8204 37.1226 39.6755 37.1001C39.5305 37.0777 39.4337 36.9255 39.4593 36.7602C39.4849 36.595 39.6231 36.4792 39.7681 36.5016C39.9131 36.5241 40.0099 36.6762 39.9843 36.8415Z" fill="white"/>
<path d="M40.213 35.7893C40.1875 35.9546 40.0492 36.0704 39.9042 36.0479C39.7592 36.0255 39.6624 35.8733 39.688 35.708C39.7136 35.5428 39.8519 35.427 39.9969 35.4494C40.1418 35.4719 40.2386 35.624 40.213 35.7893Z" fill="white"/>
<path d="M40.3045 34.7371C40.2789 34.9024 40.1407 35.0181 39.9957 34.9957C39.8507 34.9733 39.7539 34.8211 39.7795 34.6558C39.8051 34.4905 39.9434 34.3748 40.0883 34.3972C40.2333 34.4196 40.3301 34.5718 40.3045 34.7371Z" fill="white"/>
<path d="M40.3503 33.6391C40.3247 33.8044 40.1864 33.9202 40.0415 33.8977C39.8965 33.8753 39.7997 33.7231 39.8253 33.5579C39.8509 33.3926 39.9891 33.2768 40.1341 33.2992C40.2791 33.3217 40.3759 33.4738 40.3503 33.6391Z" fill="white"/>
<path d="M40.2588 32.5869C40.2332 32.7522 40.0949 32.868 39.95 32.8455C39.805 32.8231 39.7082 32.6709 39.7338 32.5056C39.7594 32.3404 39.8976 32.2246 40.0426 32.247C40.1876 32.2695 40.2844 32.4216 40.2588 32.5869Z" fill="white"/>
<path d="M40.03 31.5804C40.0045 31.7457 39.8662 31.8615 39.7212 31.8391C39.5762 31.8166 39.4795 31.6644 39.505 31.4992C39.5306 31.3339 39.6689 31.2181 39.8139 31.2406C39.9588 31.263 40.0556 31.4152 40.03 31.5804Z" fill="white"/>
<path d="M39.7098 30.574C39.6842 30.7392 39.546 30.855 39.401 30.8326C39.256 30.8102 39.1592 30.658 39.1848 30.4927C39.2104 30.3274 39.3486 30.2117 39.4936 30.2341C39.6386 30.2565 39.7354 30.4087 39.7098 30.574Z" fill="white"/>
<path d="M39.2981 29.659C39.2725 29.8243 39.1342 29.9401 38.9892 29.9176C38.8443 29.8952 38.7475 29.743 38.7731 29.5777C38.7986 29.4125 38.9369 29.2967 39.0819 29.3191C39.2269 29.3416 39.3236 29.4937 39.2981 29.659Z" fill="white"/>
<path d="M38.7948 28.7898C38.7693 28.9551 38.631 29.0709 38.486 29.0484C38.341 29.026 38.2442 28.8738 38.2698 28.7085C38.2954 28.5433 38.4337 28.4275 38.5786 28.4499C38.7236 28.4724 38.8204 28.6245 38.7948 28.7898Z" fill="white"/>
<path d="M38.2001 28.0121C38.1745 28.1773 38.0363 28.2931 37.8913 28.2707C37.7463 28.2482 37.6495 28.0961 37.6751 27.9308C37.7007 27.7655 37.8389 27.6497 37.9839 27.6722C38.1289 27.6946 38.2257 27.8468 38.2001 28.0121Z" fill="white"/>
<path d="M37.5139 27.3258C37.4883 27.4911 37.35 27.6069 37.2051 27.5845C37.0601 27.562 36.9633 27.4099 36.9889 27.2446C37.0145 27.0793 37.1527 26.9635 37.2977 26.986C37.4427 27.0084 37.5395 27.1606 37.5139 27.3258Z" fill="white"/>
<path d="M36.7362 26.7311C36.7106 26.8964 36.5723 27.0122 36.4273 26.9897C36.2824 26.9673 36.1856 26.8151 36.2112 26.6499C36.2367 26.4846 36.375 26.3688 36.52 26.3912C36.6649 26.4137 36.7617 26.5658 36.7362 26.7311Z" fill="white"/>
<path d="M35.9127 26.2279C35.8871 26.3932 35.7488 26.5089 35.6039 26.4865C35.4589 26.4641 35.3621 26.3119 35.3877 26.1466C35.4133 25.9813 35.5515 25.8656 35.6965 25.888C35.8415 25.9104 35.9383 26.0626 35.9127 26.2279Z" fill="white"/>
<path d="M35.0435 25.8619C35.0179 26.0272 34.8796 26.143 34.7346 26.1205C34.5897 26.0981 34.4929 25.9459 34.5185 25.7806C34.544 25.6154 34.6823 25.4996 34.8273 25.522C34.9723 25.5445 35.069 25.6966 35.0435 25.8619Z" fill="white"/>
<path d="M34.1285 25.6332C34.1029 25.7984 33.9647 25.9142 33.8197 25.8918C33.6747 25.8693 33.5779 25.7172 33.6035 25.5519C33.6291 25.3866 33.7673 25.2708 33.9123 25.2933C34.0573 25.3157 34.1541 25.4679 34.1285 25.6332Z" fill="white"/>
<path d="M33.1678 25.4959C33.1422 25.6612 33.0039 25.777 32.859 25.7545C32.714 25.7321 32.6172 25.5799 32.6428 25.4146C32.6684 25.2494 32.8066 25.1336 32.9516 25.156C33.0966 25.1785 33.1934 25.3306 33.1678 25.4959Z" fill="white"/>
<path d="M32.2071 25.4959C32.1815 25.6612 32.0432 25.777 31.8982 25.7545C31.7533 25.7321 31.6565 25.5799 31.6821 25.4146C31.7076 25.2494 31.8459 25.1336 31.9909 25.156C32.1359 25.1785 32.2326 25.3306 32.2071 25.4959Z" fill="white"/>
<path d="M31.2921 25.5874C31.2665 25.7527 31.1283 25.8685 30.9833 25.846C30.8383 25.8236 30.7415 25.6714 30.7671 25.5061C30.7927 25.3409 30.9309 25.2251 31.0759 25.2475C31.2209 25.27 31.3177 25.4221 31.2921 25.5874Z" fill="white"/>
<path d="M30.3314 25.8161C30.3058 25.9814 30.1675 26.0972 30.0226 26.0748C29.8776 26.0523 29.7808 25.9002 29.8064 25.7349C29.832 25.5696 29.9702 25.4538 30.1152 25.4763C30.2602 25.4987 30.357 25.6509 30.3314 25.8161Z" fill="white"/>
<path d="M29.4164 26.1821C29.3908 26.3474 29.2526 26.4632 29.1076 26.4408C28.9626 26.4183 28.8658 26.2661 28.8914 26.1009C28.917 25.9356 29.0553 25.8198 29.2002 25.8423C29.3452 25.8647 29.442 26.0169 29.4164 26.1821Z" fill="white"/>
<path d="M28.5472 26.6396C28.5216 26.8049 28.3834 26.9207 28.2384 26.8982C28.0934 26.8758 27.9966 26.7236 28.0222 26.5584C28.0478 26.3931 28.186 26.2773 28.331 26.2997C28.476 26.3222 28.5728 26.4743 28.5472 26.6396Z" fill="white"/>
<path d="M27.678 27.2343C27.6524 27.3996 27.5141 27.5154 27.3692 27.493C27.2242 27.4705 27.1274 27.3184 27.153 27.1531C27.1786 26.9878 27.3168 26.872 27.4618 26.8945C27.6068 26.9169 27.7036 27.0691 27.678 27.2343Z" fill="white"/>
<path d="M26.946 27.9206C26.9204 28.0858 26.7822 28.2016 26.6372 28.1792C26.4922 28.1568 26.3954 28.0046 26.421 27.8393C26.4466 27.674 26.5848 27.5583 26.7298 27.5807C26.8748 27.6031 26.9716 27.7553 26.946 27.9206Z" fill="white"/>
<path d="M26.214 28.6983C26.1884 28.8636 26.0502 28.9794 25.9052 28.9569C25.7602 28.9345 25.6634 28.7823 25.689 28.617C25.7146 28.4518 25.8529 28.336 25.9978 28.3584C26.1428 28.3809 26.2396 28.533 26.214 28.6983Z" fill="white"/>
<path d="M25.5736 29.5675C25.548 29.7328 25.4097 29.8486 25.2647 29.8261C25.1198 29.8037 25.023 29.6515 25.0485 29.4863C25.0741 29.321 25.2124 29.2052 25.3574 29.2276C25.5023 29.2501 25.5991 29.4022 25.5736 29.5675Z" fill="white"/>
<path d="M25.0703 30.5282C25.0447 30.6935 24.9065 30.8093 24.7615 30.7868C24.6165 30.7644 24.5197 30.6122 24.5453 30.447C24.5709 30.2817 24.7092 30.1659 24.8541 30.1883C24.9991 30.2108 25.0959 30.363 25.0703 30.5282Z" fill="white"/>
<path d="M24.6586 31.4889C24.633 31.6542 24.4947 31.77 24.3498 31.7476C24.2048 31.7251 24.108 31.573 24.1336 31.4077C24.1592 31.2424 24.2974 31.1266 24.4424 31.1491C24.5874 31.1715 24.6842 31.3237 24.6586 31.4889Z" fill="white"/>
<path d="M24.2926 32.4954C24.267 32.6607 24.1288 32.7765 23.9838 32.754C23.8388 32.7316 23.742 32.5794 23.7676 32.4141C23.7932 32.2489 23.9314 32.1331 24.0764 32.1555C24.2214 32.178 24.3182 32.3301 24.2926 32.4954Z" fill="white"/>
<path d="M24.0639 33.5476C24.0383 33.7129 23.9 33.8287 23.755 33.8062C23.6101 33.7838 23.5133 33.6316 23.5388 33.4664C23.5644 33.3011 23.7027 33.1853 23.8477 33.2077C23.9926 33.2302 24.0894 33.3824 24.0639 33.5476Z" fill="white"/>
<path d="M23.9266 34.6456C23.901 34.8109 23.7628 34.9266 23.6178 34.9042C23.4728 34.8818 23.376 34.7296 23.4016 34.5643C23.4272 34.399 23.5655 34.2833 23.7104 34.3057C23.8554 34.3281 23.9522 34.4803 23.9266 34.6456Z" fill="white"/>
<path d="M23.9266 35.7435C23.901 35.9088 23.7628 36.0246 23.6178 36.0022C23.4728 35.9797 23.376 35.8276 23.4016 35.6623C23.4272 35.497 23.5655 35.3812 23.7104 35.4037C23.8554 35.4261 23.9522 35.5783 23.9266 35.7435Z" fill="white"/>
<path d="M24.0181 36.7958C23.9925 36.961 23.8543 37.0768 23.7093 37.0544C23.5643 37.0319 23.4675 36.8798 23.4931 36.7145C23.5187 36.5492 23.6569 36.4334 23.8019 36.4559C23.9469 36.4783 24.0437 36.6305 24.0181 36.7958Z" fill="white"/>
<path d="M24.2469 37.848C24.2213 38.0132 24.083 38.129 23.938 38.1066C23.7931 38.0841 23.6963 37.932 23.7218 37.7667C23.7474 37.6014 23.8857 37.4856 24.0307 37.5081C24.1756 37.5305 24.2724 37.6827 24.2469 37.848Z" fill="white"/>
<path d="M24.5671 38.7629C24.5415 38.9282 24.4032 39.044 24.2583 39.0216C24.1133 38.9991 24.0165 38.8469 24.0421 38.6817C24.0677 38.5164 24.2059 38.4006 24.3509 38.4231C24.4959 38.4455 24.5927 38.5977 24.5671 38.7629Z" fill="white"/>
<path d="M24.9788 39.7237C24.9532 39.8889 24.815 40.0047 24.67 39.9823C24.525 39.9598 24.4282 39.8077 24.4538 39.6424C24.4794 39.4771 24.6177 39.3613 24.7626 39.3838C24.9076 39.4062 25.0044 39.5584 24.9788 39.7237Z" fill="white"/>
<path d="M25.4821 40.5929C25.4565 40.7581 25.3182 40.8739 25.1732 40.8515C25.0283 40.8291 24.9315 40.6769 24.957 40.5116C24.9826 40.3463 25.1209 40.2305 25.2659 40.253C25.4108 40.2754 25.5076 40.4276 25.4821 40.5929Z" fill="white"/>
<path d="M26.0768 41.3706C26.0512 41.5359 25.9129 41.6517 25.768 41.6292C25.623 41.6068 25.5262 41.4546 25.5518 41.2893C25.5774 41.1241 25.7156 41.0083 25.8606 41.0307C26.0056 41.0532 26.1024 41.2053 26.0768 41.3706Z" fill="white"/>
<path d="M26.8088 42.0568C26.7832 42.2221 26.6449 42.3379 26.4999 42.3154C26.355 42.293 26.2582 42.1408 26.2838 41.9756C26.3093 41.8103 26.4476 41.6945 26.5926 41.7169C26.7376 41.7394 26.8343 41.8915 26.8088 42.0568Z" fill="white"/>
<path d="M27.5407 42.6515C27.5152 42.8168 27.3769 42.9326 27.2319 42.9102C27.0869 42.8877 26.9901 42.7356 27.0157 42.5703C27.0413 42.405 27.1796 42.2892 27.3245 42.3117C27.4695 42.3341 27.5663 42.4863 27.5407 42.6515Z" fill="white"/>
<path d="M28.3642 43.1548C28.3386 43.3201 28.2004 43.4358 28.0554 43.4134C27.9104 43.391 27.8136 43.2388 27.8392 43.0735C27.8648 42.9082 28.003 42.7925 28.148 42.8149C28.293 42.8373 28.3898 42.9895 28.3642 43.1548Z" fill="white"/>
<path d="M29.2334 43.5208C29.2078 43.686 29.0696 43.8018 28.9246 43.7794C28.7796 43.7569 28.6828 43.6048 28.7084 43.4395C28.734 43.2742 28.8723 43.1584 29.0172 43.1809C29.1622 43.2033 29.259 43.3555 29.2334 43.5208Z" fill="white"/>
<path d="M30.1484 43.7495C30.1228 43.9148 29.9845 44.0306 29.8396 44.0081C29.6946 43.9857 29.5978 43.8335 29.6234 43.6682C29.649 43.503 29.7872 43.3872 29.9322 43.4096C30.0772 43.4321 30.174 43.5842 30.1484 43.7495Z" fill="white"/>
<path d="M31.1091 43.8868C31.0835 44.052 30.9453 44.1678 30.8003 44.1454C30.6553 44.1229 30.5585 43.9708 30.5841 43.8055C30.6097 43.6402 30.7479 43.5244 30.8929 43.5469C31.0379 43.5693 31.1347 43.7215 31.1091 43.8868Z" fill="white"/>
<path d="M32.0241 43.8868C31.9985 44.052 31.8602 44.1678 31.7153 44.1454C31.5703 44.1229 31.4735 43.9708 31.4991 43.8055C31.5246 43.6402 31.6629 43.5244 31.8079 43.5469C31.9529 43.5693 32.0497 43.7215 32.0241 43.8868Z" fill="white"/>
<path d="M32.9848 43.7953C32.9592 43.9605 32.8209 44.0763 32.676 44.0539C32.531 44.0314 32.4342 43.8793 32.4598 43.714C32.4854 43.5487 32.6236 43.4329 32.7686 43.4554C32.9136 43.4778 33.0104 43.63 32.9848 43.7953Z" fill="white"/>
<path d="M33.9455 43.5665C33.9199 43.7318 33.7817 43.8476 33.6367 43.8251C33.4917 43.8027 33.3949 43.6505 33.4205 43.4853C33.4461 43.32 33.5843 43.2042 33.7293 43.2266C33.8743 43.2491 33.9711 43.4012 33.9455 43.5665Z" fill="white"/>
<path d="M34.8605 43.2005C34.8349 43.3658 34.6966 43.4816 34.5517 43.4592C34.4067 43.4367 34.3099 43.2845 34.3355 43.1193C34.361 42.954 34.4993 42.8382 34.6443 42.8606C34.7893 42.8831 34.8861 43.0353 34.8605 43.2005Z" fill="white"/>
<path d="M35.7297 42.6973C35.7041 42.8626 35.5658 42.9784 35.4209 42.9559C35.2759 42.9335 35.1791 42.7813 35.2047 42.616C35.2303 42.4508 35.3685 42.335 35.5135 42.3574C35.6585 42.3799 35.7553 42.532 35.7297 42.6973Z" fill="white"/>
<path d="M36.5532 42.1026C36.5276 42.2678 36.3893 42.3836 36.2443 42.3612C36.0994 42.3387 36.0026 42.1866 36.0282 42.0213C36.0537 41.856 36.192 41.7402 36.337 41.7627C36.482 41.7851 36.5787 41.9373 36.5532 42.1026Z" fill="white"/>
<path d="M37.3309 41.4163C37.3053 41.5816 37.167 41.6974 37.0221 41.675C36.8771 41.6525 36.7803 41.5004 36.8059 41.3351C36.8315 41.1698 36.9697 41.054 37.1147 41.0765C37.2597 41.0989 37.3565 41.2511 37.3309 41.4163Z" fill="white"/>
<path d="M38.0629 40.6844C38.0373 40.8496 37.899 40.9654 37.754 40.943C37.6091 40.9205 37.5123 40.7684 37.5379 40.6031C37.5634 40.4378 37.7017 40.322 37.8467 40.3445C37.9917 40.3669 38.0884 40.5191 38.0629 40.6844Z" fill="white"/>
<path d="M29.1654 44.7186C29.1654 44.9333 28.9913 45.1074 28.7765 45.1074C28.5618 45.1074 28.3877 44.9333 28.3877 44.7186C28.3877 44.5038 28.5618 44.3297 28.7765 44.3297C28.9913 44.3297 29.1654 44.5038 29.1654 44.7186Z" fill="white"/>
<path d="M30.4463 44.9931C30.4463 45.2078 30.2722 45.3819 30.0575 45.3819C29.8427 45.3819 29.6686 45.2078 29.6686 44.9931C29.6686 44.7783 29.8427 44.6042 30.0575 44.6042C30.2722 44.6042 30.4463 44.7783 30.4463 44.9931Z" fill="white"/>
<path d="M31.7273 45.1303C31.7273 45.3451 31.5532 45.5192 31.3384 45.5192C31.1237 45.5192 30.9496 45.3451 30.9496 45.1303C30.9496 44.9155 31.1237 44.7414 31.3384 44.7414C31.5532 44.7414 31.7273 44.9155 31.7273 45.1303Z" fill="white"/>
<path d="M33.0997 45.1303C33.0997 45.3451 32.9256 45.5192 32.7109 45.5192C32.4961 45.5192 32.322 45.3451 32.322 45.1303C32.322 44.9155 32.4961 44.7414 32.7109 44.7414C32.9256 44.7414 33.0997 44.9155 33.0997 45.1303Z" fill="white"/>
<path d="M34.3807 44.9931C34.3807 45.2078 34.2066 45.3819 33.9918 45.3819C33.7771 45.3819 33.603 45.2078 33.603 44.9931C33.603 44.7783 33.7771 44.6042 33.9918 44.6042C34.2066 44.6042 34.3807 44.7783 34.3807 44.9931Z" fill="white"/>
<path d="M35.6616 44.7186C35.6616 44.9333 35.4875 45.1074 35.2728 45.1074C35.058 45.1074 34.8839 44.9333 34.8839 44.7186C34.8839 44.5038 35.058 44.3297 35.2728 44.3297C35.4875 44.3297 35.6616 44.5038 35.6616 44.7186Z" fill="white"/>
<path d="M36.8968 44.2153C36.8968 44.4301 36.7228 44.6042 36.508 44.6042C36.2932 44.6042 36.1191 44.4301 36.1191 44.2153C36.1191 44.0006 36.2932 43.8265 36.508 43.8265C36.7228 43.8265 36.8968 44.0006 36.8968 44.2153Z" fill="white"/>
<path d="M38.0863 43.6664C38.0863 43.8811 37.9122 44.0552 37.6974 44.0552C37.4827 44.0552 37.3086 43.8811 37.3086 43.6664C37.3086 43.4516 37.4827 43.2775 37.6974 43.2775C37.9122 43.2775 38.0863 43.4516 38.0863 43.6664Z" fill="white"/>
<path d="M39.1843 42.8886C39.1843 43.1034 39.0102 43.2775 38.7954 43.2775C38.5806 43.2775 38.4065 43.1034 38.4065 42.8886C38.4065 42.6739 38.5806 42.4998 38.7954 42.4998C39.0102 42.4998 39.1843 42.6739 39.1843 42.8886Z" fill="white"/>
<path d="M40.1907 42.1109C40.1907 42.3257 40.0166 42.4998 39.8019 42.4998C39.5871 42.4998 39.413 42.3257 39.413 42.1109C39.413 41.8962 39.5871 41.7221 39.8019 41.7221C40.0166 41.7221 40.1907 41.8962 40.1907 42.1109Z" fill="white"/>
<path d="M41.1057 41.1045C41.1057 41.3192 40.9316 41.4933 40.7168 41.4933C40.5021 41.4933 40.328 41.3192 40.328 41.1045C40.328 40.8897 40.5021 40.7156 40.7168 40.7156C40.9316 40.7156 41.1057 40.8897 41.1057 41.1045Z" fill="white"/>
<path d="M41.8834 40.0522C41.8834 40.267 41.7093 40.4411 41.4946 40.4411C41.2798 40.4411 41.1057 40.267 41.1057 40.0522C41.1057 39.8375 41.2798 39.6634 41.4946 39.6634C41.7093 39.6634 41.8834 39.8375 41.8834 40.0522Z" fill="white"/>
<path d="M42.5239 38.9085C42.5239 39.1233 42.3498 39.2974 42.135 39.2974C41.9203 39.2974 41.7462 39.1233 41.7462 38.9085C41.7462 38.6938 41.9203 38.5197 42.135 38.5197C42.3498 38.5197 42.5239 38.6938 42.5239 38.9085Z" fill="white"/>
<path d="M43.0729 37.7191C43.0729 37.9338 42.8988 38.1079 42.684 38.1079C42.4693 38.1079 42.2952 37.9338 42.2952 37.7191C42.2952 37.5043 42.4693 37.3302 42.684 37.3302C42.8988 37.3302 43.0729 37.5043 43.0729 37.7191Z" fill="white"/>
<path d="M43.4389 36.4839C43.4389 36.6986 43.2648 36.8727 43.05 36.8727C42.8352 36.8727 42.6611 36.6986 42.6611 36.4839C42.6611 36.2691 42.8352 36.095 43.05 36.095C43.2648 36.095 43.4389 36.2691 43.4389 36.4839Z" fill="white"/>
<path d="M43.6676 35.1572C43.6676 35.3719 43.4935 35.546 43.2787 35.546C43.064 35.546 42.8899 35.3719 42.8899 35.1572C42.8899 34.9424 43.064 34.7683 43.2787 34.7683C43.4935 34.7683 43.6676 34.9424 43.6676 35.1572Z" fill="white"/>
<path d="M43.6676 33.8305C43.6676 34.0452 43.4935 34.2193 43.2787 34.2193C43.064 34.2193 42.8899 34.0452 42.8899 33.8305C42.8899 33.6157 43.064 33.4416 43.2787 33.4416C43.4935 33.4416 43.6676 33.6157 43.6676 33.8305Z" fill="white"/>
<path d="M43.6676 32.5038C43.6676 32.7185 43.4935 32.8926 43.2787 32.8926C43.064 32.8926 42.8899 32.7185 42.8899 32.5038C42.8899 32.289 43.064 32.1149 43.2787 32.1149C43.4935 32.1149 43.6676 32.289 43.6676 32.5038Z" fill="white"/>
<path d="M43.4389 31.2686C43.4389 31.4833 43.2648 31.6574 43.05 31.6574C42.8352 31.6574 42.6611 31.4833 42.6611 31.2686C42.6611 31.0538 42.8352 30.8797 43.05 30.8797C43.2648 30.8797 43.4389 31.0538 43.4389 31.2686Z" fill="white"/>
<path d="M43.0729 29.9418C43.0729 30.1566 42.8988 30.3307 42.684 30.3307C42.4693 30.3307 42.2952 30.1566 42.2952 29.9418C42.2952 29.7271 42.4693 29.553 42.684 29.553C42.8988 29.553 43.0729 29.7271 43.0729 29.9418Z" fill="white"/>
<path d="M42.5239 28.7981C42.5239 29.0129 42.3498 29.187 42.135 29.187C41.9203 29.187 41.7462 29.0129 41.7462 28.7981C41.7462 28.5834 41.9203 28.4093 42.135 28.4093C42.3498 28.4093 42.5239 28.5834 42.5239 28.7981Z" fill="white"/>
<path d="M41.8834 27.6544C41.8834 27.8692 41.7093 28.0433 41.4946 28.0433C41.2798 28.0433 41.1057 27.8692 41.1057 27.6544C41.1057 27.4397 41.2798 27.2656 41.4946 27.2656C41.7093 27.2656 41.8834 27.4397 41.8834 27.6544Z" fill="white"/>
<path d="M41.1057 26.648C41.1057 26.8627 40.9316 27.0368 40.7168 27.0368C40.5021 27.0368 40.328 26.8627 40.328 26.648C40.328 26.4332 40.5021 26.2591 40.7168 26.2591C40.9316 26.2591 41.1057 26.4332 41.1057 26.648Z" fill="white"/>
<path d="M40.145 25.5958C40.145 25.8105 39.9709 25.9846 39.7561 25.9846C39.5414 25.9846 39.3673 25.8105 39.3673 25.5958C39.3673 25.381 39.5414 25.2069 39.7561 25.2069C39.9709 25.2069 40.145 25.381 40.145 25.5958Z" fill="white"/>
<path d="M39.1843 24.818C39.1843 25.0328 39.0102 25.2069 38.7954 25.2069C38.5806 25.2069 38.4065 25.0328 38.4065 24.818C38.4065 24.6033 38.5806 24.4292 38.7954 24.4292C39.0102 24.4292 39.1843 24.6033 39.1843 24.818Z" fill="white"/>
<path d="M38.0863 24.0403C38.0863 24.2551 37.9122 24.4292 37.6974 24.4292C37.4827 24.4292 37.3086 24.2551 37.3086 24.0403C37.3086 23.8255 37.4827 23.6514 37.6974 23.6514C37.9122 23.6514 38.0863 23.8255 38.0863 24.0403Z" fill="white"/>
<path d="M36.9426 23.4913C36.9426 23.7061 36.7685 23.8802 36.5537 23.8802C36.339 23.8802 36.1649 23.7061 36.1649 23.4913C36.1649 23.2766 36.339 23.1025 36.5537 23.1025C36.7685 23.1025 36.9426 23.2766 36.9426 23.4913Z" fill="white"/>
<path d="M35.6616 22.9881C35.6616 23.2029 35.4875 23.377 35.2728 23.377C35.058 23.377 34.8839 23.2029 34.8839 22.9881C34.8839 22.7733 35.058 22.5992 35.2728 22.5992C35.4875 22.5992 35.6616 22.7733 35.6616 22.9881Z" fill="white"/>
<path d="M34.4264 22.7136C34.4264 22.9284 34.2523 23.1025 34.0376 23.1025C33.8228 23.1025 33.6487 22.9284 33.6487 22.7136C33.6487 22.4988 33.8228 22.3247 34.0376 22.3247C34.2523 22.3247 34.4264 22.4988 34.4264 22.7136Z" fill="white"/>
<path d="M33.054 22.5764C33.054 22.7911 32.8799 22.9652 32.6651 22.9652C32.4504 22.9652 32.2763 22.7911 32.2763 22.5764C32.2763 22.3616 32.4504 22.1875 32.6651 22.1875C32.8799 22.1875 33.054 22.3616 33.054 22.5764Z" fill="white"/>
<path d="M31.8188 22.5764C31.8188 22.7911 31.6447 22.9652 31.4299 22.9652C31.2152 22.9652 31.0411 22.7911 31.0411 22.5764C31.0411 22.3616 31.2152 22.1875 31.4299 22.1875C31.6447 22.1875 31.8188 22.3616 31.8188 22.5764Z" fill="white"/>
<path d="M30.4463 22.7136C30.4463 22.9284 30.2722 23.1025 30.0575 23.1025C29.8427 23.1025 29.6686 22.9284 29.6686 22.7136C29.6686 22.4988 29.8427 22.3247 30.0575 22.3247C30.2722 22.3247 30.4463 22.4988 30.4463 22.7136Z" fill="white"/>
<path d="M29.1654 22.9881C29.1654 23.2029 28.9913 23.377 28.7765 23.377C28.5618 23.377 28.3877 23.2029 28.3877 22.9881C28.3877 22.7733 28.5618 22.5992 28.7765 22.5992C28.9913 22.5992 29.1654 22.7733 29.1654 22.9881Z" fill="white"/>
<path d="M27.9759 23.4913C27.9759 23.7061 27.8018 23.8802 27.5871 23.8802C27.3723 23.8802 27.1982 23.7061 27.1982 23.4913C27.1982 23.2766 27.3723 23.1025 27.5871 23.1025C27.8018 23.1025 27.9759 23.2766 27.9759 23.4913Z" fill="white"/>
<path d="M26.7407 24.0861C26.7407 24.3008 26.5666 24.4749 26.3518 24.4749C26.1371 24.4749 25.963 24.3008 25.963 24.0861C25.963 23.8713 26.1371 23.6972 26.3518 23.6972C26.5666 23.6972 26.7407 23.8713 26.7407 24.0861Z" fill="white"/>
<path d="M25.6427 24.7723C25.6427 24.987 25.4686 25.1611 25.2539 25.1611C25.0391 25.1611 24.865 24.987 24.865 24.7723C24.865 24.5575 25.0391 24.3834 25.2539 24.3834C25.4686 24.3834 25.6427 24.5575 25.6427 24.7723Z" fill="white"/>
<path d="M24.6363 25.6415C24.6363 25.8563 24.4622 26.0304 24.2474 26.0304C24.0327 26.0304 23.8586 25.8563 23.8586 25.6415C23.8586 25.4267 24.0327 25.2526 24.2474 25.2526C24.4622 25.2526 24.6363 25.4267 24.6363 25.6415Z" fill="white"/>
<path d="M23.7671 26.6022C23.7671 26.817 23.593 26.9911 23.3782 26.9911C23.1634 26.9911 22.9893 26.817 22.9893 26.6022C22.9893 26.3875 23.1634 26.2134 23.3782 26.2134C23.593 26.2134 23.7671 26.3875 23.7671 26.6022Z" fill="white"/>
<path d="M22.9893 27.6544C22.9893 27.8692 22.8152 28.0433 22.6005 28.0433C22.3857 28.0433 22.2116 27.8692 22.2116 27.6544C22.2116 27.4397 22.3857 27.2656 22.6005 27.2656C22.8152 27.2656 22.9893 27.4397 22.9893 27.6544Z" fill="white"/>
<path d="M22.3031 28.7981C22.3031 29.0129 22.129 29.187 21.9143 29.187C21.6995 29.187 21.5254 29.0129 21.5254 28.7981C21.5254 28.5834 21.6995 28.4093 21.9143 28.4093C22.129 28.4093 22.3031 28.5834 22.3031 28.7981Z" fill="white"/>
<path d="M21.7541 29.9876C21.7541 30.2024 21.58 30.3765 21.3653 30.3765C21.1505 30.3765 20.9764 30.2024 20.9764 29.9876C20.9764 29.7728 21.1505 29.5987 21.3653 29.5987C21.58 29.5987 21.7541 29.7728 21.7541 29.9876Z" fill="white"/>
<path d="M21.3882 31.2228C21.3882 31.4376 21.2141 31.6117 20.9993 31.6117C20.7845 31.6117 20.6104 31.4376 20.6104 31.2228C20.6104 31.008 20.7845 30.8339 20.9993 30.8339C21.2141 30.8339 21.3882 31.008 21.3882 31.2228Z" fill="white"/>
<path d="M21.2052 32.5953C21.2052 32.81 21.0311 32.9841 20.8163 32.9841C20.6015 32.9841 20.4274 32.81 20.4274 32.5953C20.4274 32.3805 20.6015 32.2064 20.8163 32.2064C21.0311 32.2064 21.2052 32.3805 21.2052 32.5953Z" fill="white"/>
<path d="M21.1137 33.922C21.1137 34.1367 20.9396 34.3108 20.7248 34.3108C20.51 34.3108 20.3359 34.1367 20.3359 33.922C20.3359 33.7072 20.51 33.5331 20.7248 33.5331C20.9396 33.5331 21.1137 33.7072 21.1137 33.922Z" fill="white"/>
<path d="M21.2052 35.1572C21.2052 35.3719 21.0311 35.546 20.8163 35.546C20.6015 35.546 20.4274 35.3719 20.4274 35.1572C20.4274 34.9424 20.6015 34.7683 20.8163 34.7683C21.0311 34.7683 21.2052 34.9424 21.2052 35.1572Z" fill="white"/>
<path d="M21.3882 36.4839C21.3882 36.6986 21.2141 36.8727 20.9993 36.8727C20.7845 36.8727 20.6104 36.6986 20.6104 36.4839C20.6104 36.2691 20.7845 36.095 20.9993 36.095C21.2141 36.095 21.3882 36.2691 21.3882 36.4839Z" fill="white"/>
<path d="M21.7999 37.7191C21.7999 37.9338 21.6258 38.1079 21.411 38.1079C21.1963 38.1079 21.0222 37.9338 21.0222 37.7191C21.0222 37.5043 21.1963 37.3302 21.411 37.3302C21.6258 37.3302 21.7999 37.5043 21.7999 37.7191Z" fill="white"/>
<path d="M22.3031 38.9085C22.3031 39.1233 22.129 39.2974 21.9143 39.2974C21.6995 39.2974 21.5254 39.1233 21.5254 38.9085C21.5254 38.6938 21.6995 38.5197 21.9143 38.5197C22.129 38.5197 22.3031 38.6938 22.3031 38.9085Z" fill="white"/>
<path d="M22.9893 40.0522C22.9893 40.267 22.8152 40.4411 22.6005 40.4411C22.3857 40.4411 22.2116 40.267 22.2116 40.0522C22.2116 39.8375 22.3857 39.6634 22.6005 39.6634C22.8152 39.6634 22.9893 39.8375 22.9893 40.0522Z" fill="white"/>
<path d="M23.7671 41.1045C23.7671 41.3192 23.593 41.4933 23.3782 41.4933C23.1634 41.4933 22.9893 41.3192 22.9893 41.1045C22.9893 40.8897 23.1634 40.7156 23.3782 40.7156C23.593 40.7156 23.7671 40.8897 23.7671 41.1045Z" fill="white"/>
<path d="M24.682 42.1109C24.682 42.3257 24.5079 42.4998 24.2932 42.4998C24.0784 42.4998 23.9043 42.3257 23.9043 42.1109C23.9043 41.8962 24.0784 41.7221 24.2932 41.7221C24.5079 41.7221 24.682 41.8962 24.682 42.1109Z" fill="white"/>
<path d="M25.6427 42.8886C25.6427 43.1034 25.4686 43.2775 25.2539 43.2775C25.0391 43.2775 24.865 43.1034 24.865 42.8886C24.865 42.6739 25.0391 42.4998 25.2539 42.4998C25.4686 42.4998 25.6427 42.6739 25.6427 42.8886Z" fill="white"/>
<path d="M26.7407 43.6664C26.7407 43.8811 26.5666 44.0552 26.3518 44.0552C26.1371 44.0552 25.963 43.8811 25.963 43.6664C25.963 43.4516 26.1371 43.2775 26.3518 43.2775C26.5666 43.2775 26.7407 43.4516 26.7407 43.6664Z" fill="white"/>
<path d="M27.9759 44.2153C27.9759 44.4301 27.8018 44.6042 27.5871 44.6042C27.3723 44.6042 27.1982 44.4301 27.1982 44.2153C27.1982 44.0006 27.3723 43.8265 27.5871 43.8265C27.8018 43.8265 27.9759 44.0006 27.9759 44.2153Z" fill="white"/>
<path d="M26.878 32.6868C26.878 32.8005 26.7858 32.8926 26.6721 32.8926C26.5584 32.8926 26.4662 32.8005 26.4662 32.6868C26.4662 32.5731 26.5584 32.4809 26.6721 32.4809C26.7858 32.4809 26.878 32.5731 26.878 32.6868Z" fill="white"/>
<path d="M27.1524 32.0463C27.1524 32.16 27.0603 32.2521 26.9466 32.2521C26.8329 32.2521 26.7407 32.16 26.7407 32.0463C26.7407 31.9326 26.8329 31.8404 26.9466 31.8404C27.0603 31.8404 27.1524 31.9326 27.1524 32.0463Z" fill="white"/>
<path d="M27.5642 31.4515C27.5642 31.5652 27.472 31.6574 27.3583 31.6574C27.2446 31.6574 27.1524 31.5652 27.1524 31.4515C27.1524 31.3378 27.2446 31.2457 27.3583 31.2457C27.472 31.2457 27.5642 31.3378 27.5642 31.4515Z" fill="white"/>
<path d="M27.9759 30.9026C27.9759 31.0163 27.8837 31.1084 27.77 31.1084C27.6564 31.1084 27.5642 31.0163 27.5642 30.9026C27.5642 30.7889 27.6564 30.6967 27.77 30.6967C27.8837 30.6967 27.9759 30.7889 27.9759 30.9026Z" fill="white"/>
<path d="M28.4791 30.4451C28.4791 30.5588 28.387 30.6509 28.2733 30.6509C28.1596 30.6509 28.0674 30.5588 28.0674 30.4451C28.0674 30.3314 28.1596 30.2392 28.2733 30.2392C28.387 30.2392 28.4791 30.3314 28.4791 30.4451Z" fill="white"/>
<path d="M29.0281 30.0333C29.0281 30.147 28.936 30.2392 28.8223 30.2392C28.7086 30.2392 28.6164 30.147 28.6164 30.0333C28.6164 29.9196 28.7086 29.8275 28.8223 29.8275C28.936 29.8275 29.0281 29.9196 29.0281 30.0333Z" fill="white"/>
<path d="M29.6686 29.6674C29.6686 29.7811 29.5764 29.8732 29.4627 29.8732C29.349 29.8732 29.2569 29.7811 29.2569 29.6674C29.2569 29.5537 29.349 29.4615 29.4627 29.4615C29.5764 29.4615 29.6686 29.5537 29.6686 29.6674Z" fill="white"/>
<path d="M30.3091 29.4386C30.3091 29.5523 30.2169 29.6445 30.1032 29.6445C29.9895 29.6445 29.8973 29.5523 29.8973 29.4386C29.8973 29.3249 29.9895 29.2327 30.1032 29.2327C30.2169 29.2327 30.3091 29.3249 30.3091 29.4386Z" fill="white"/>
<path d="M30.9496 29.2556C30.9496 29.3693 30.8574 29.4615 30.7437 29.4615C30.63 29.4615 30.5378 29.3693 30.5378 29.2556C30.5378 29.1419 30.63 29.0498 30.7437 29.0498C30.8574 29.0498 30.9496 29.1419 30.9496 29.2556Z" fill="white"/>
<path d="M31.6815 29.1641C31.6815 29.2778 31.5894 29.37 31.4757 29.37C31.362 29.37 31.2698 29.2778 31.2698 29.1641C31.2698 29.0504 31.362 28.9583 31.4757 28.9583C31.5894 28.9583 31.6815 29.0504 31.6815 29.1641Z" fill="white"/>
<path d="M32.3678 29.1184C32.3678 29.2321 32.2756 29.3242 32.1619 29.3242C32.0482 29.3242 31.956 29.2321 31.956 29.1184C31.956 29.0047 32.0482 28.9125 32.1619 28.9125C32.2756 28.9125 32.3678 29.0047 32.3678 29.1184Z" fill="white"/>
<path d="M33.054 29.2099C33.054 29.3236 32.9618 29.4157 32.8481 29.4157C32.7344 29.4157 32.6423 29.3236 32.6423 29.2099C32.6423 29.0962 32.7344 29.004 32.8481 29.004C32.9618 29.004 33.054 29.0962 33.054 29.2099Z" fill="white"/>
<path d="M33.7402 29.3471C33.7402 29.4608 33.648 29.553 33.5343 29.553C33.4206 29.553 33.3285 29.4608 33.3285 29.3471C33.3285 29.2334 33.4206 29.1413 33.5343 29.1413C33.648 29.1413 33.7402 29.2334 33.7402 29.3471Z" fill="white"/>
<path d="M34.4264 29.5759C34.4264 29.6896 34.3343 29.7817 34.2206 29.7817C34.1069 29.7817 34.0147 29.6896 34.0147 29.5759C34.0147 29.4622 34.1069 29.37 34.2206 29.37C34.3343 29.37 34.4264 29.4622 34.4264 29.5759Z" fill="white"/>
<path d="M35.0669 29.9418C35.0669 30.0555 34.9747 30.1477 34.861 30.1477C34.7473 30.1477 34.6552 30.0555 34.6552 29.9418C34.6552 29.8282 34.7473 29.736 34.861 29.736C34.9747 29.736 35.0669 29.8282 35.0669 29.9418Z" fill="white"/>
<path d="M35.6616 30.3078C35.6616 30.4215 35.5695 30.5137 35.4558 30.5137C35.3421 30.5137 35.2499 30.4215 35.2499 30.3078C35.2499 30.1941 35.3421 30.102 35.4558 30.102C35.5695 30.102 35.6616 30.1941 35.6616 30.3078Z" fill="white"/>
<path d="M36.2564 30.7653C36.2564 30.879 36.1642 30.9712 36.0505 30.9712C35.9368 30.9712 35.8446 30.879 35.8446 30.7653C35.8446 30.6516 35.9368 30.5595 36.0505 30.5595C36.1642 30.5595 36.2564 30.6516 36.2564 30.7653Z" fill="white"/>
<path d="M36.7596 31.2686C36.7596 31.3822 36.6674 31.4744 36.5537 31.4744C36.44 31.4744 36.3479 31.3822 36.3479 31.2686C36.3479 31.1549 36.44 31.0627 36.5537 31.0627C36.6674 31.0627 36.7596 31.1549 36.7596 31.2686Z" fill="white"/>
<path d="M37.2171 31.8633C37.2171 31.977 37.1249 32.0691 37.0112 32.0691C36.8975 32.0691 36.8054 31.977 36.8054 31.8633C36.8054 31.7496 36.8975 31.6574 37.0112 31.6574C37.1249 31.6574 37.2171 31.7496 37.2171 31.8633Z" fill="white"/>
<path d="M37.6288 32.5038C37.6288 32.6175 37.5367 32.7096 37.423 32.7096C37.3093 32.7096 37.2171 32.6175 37.2171 32.5038C37.2171 32.3901 37.3093 32.2979 37.423 32.2979C37.5367 32.2979 37.6288 32.3901 37.6288 32.5038Z" fill="white"/>
<path d="M37.9491 33.1442C37.9491 33.2579 37.8569 33.3501 37.7432 33.3501C37.6295 33.3501 37.5373 33.2579 37.5373 33.1442C37.5373 33.0305 37.6295 32.9384 37.7432 32.9384C37.8569 32.9384 37.9491 33.0305 37.9491 33.1442Z" fill="white"/>
<path d="M38.1778 33.8305C38.1778 33.9442 38.0856 34.0363 37.9719 34.0363C37.8582 34.0363 37.7661 33.9442 37.7661 33.8305C37.7661 33.7168 37.8582 33.6246 37.9719 33.6246C38.0856 33.6246 38.1778 33.7168 38.1778 33.8305Z" fill="white"/>
<path d="M38.3608 34.5624C38.3608 34.6761 38.2686 34.7683 38.1549 34.7683C38.0412 34.7683 37.9491 34.6761 37.9491 34.5624C37.9491 34.4487 38.0412 34.3566 38.1549 34.3566C38.2686 34.3566 38.3608 34.4487 38.3608 34.5624Z" fill="white"/>
<path d="M38.4523 35.2944C38.4523 35.4081 38.3601 35.5003 38.2464 35.5003C38.1327 35.5003 38.0406 35.4081 38.0406 35.2944C38.0406 35.1807 38.1327 35.0885 38.2464 35.0885C38.3601 35.0885 38.4523 35.1807 38.4523 35.2944Z" fill="white"/>
<path d="M38.4523 36.0264C38.4523 36.1401 38.3601 36.2323 38.2464 36.2323C38.1327 36.2323 38.0406 36.1401 38.0406 36.0264C38.0406 35.9127 38.1327 35.8205 38.2464 35.8205C38.3601 35.8205 38.4523 35.9127 38.4523 36.0264Z" fill="white"/>
<path d="M38.4065 36.7584C38.4065 36.8721 38.3144 36.9642 38.2007 36.9642C38.087 36.9642 37.9948 36.8721 37.9948 36.7584C37.9948 36.6447 38.087 36.5525 38.2007 36.5525C38.3144 36.5525 38.4065 36.6447 38.4065 36.7584Z" fill="white"/>
<path d="M38.2236 37.4446C38.2236 37.5583 38.1314 37.6505 38.0177 37.6505C37.904 37.6505 37.8118 37.5583 37.8118 37.4446C37.8118 37.3309 37.904 37.2387 38.0177 37.2387C38.1314 37.2387 38.2236 37.3309 38.2236 37.4446Z" fill="white"/>
<path d="M37.9948 38.1308C37.9948 38.2445 37.9026 38.3367 37.7889 38.3367C37.6752 38.3367 37.5831 38.2445 37.5831 38.1308C37.5831 38.0171 37.6752 37.9249 37.7889 37.9249C37.9026 37.9249 37.9948 38.0171 37.9948 38.1308Z" fill="white"/>
<path d="M37.6746 38.7713C37.6746 38.885 37.5824 38.9772 37.4687 38.9772C37.355 38.9772 37.2628 38.885 37.2628 38.7713C37.2628 38.6576 37.355 38.5654 37.4687 38.5654C37.5824 38.5654 37.6746 38.6576 37.6746 38.7713Z" fill="white"/>
<path d="M37.3086 39.366C37.3086 39.4797 37.2164 39.5719 37.1027 39.5719C36.989 39.5719 36.8968 39.4797 36.8968 39.366C36.8968 39.2523 36.989 39.1601 37.1027 39.1601C37.2164 39.1601 37.3086 39.2523 37.3086 39.366Z" fill="white"/>
<path d="M36.8968 39.915C36.8968 40.0287 36.8047 40.1209 36.691 40.1209C36.5773 40.1209 36.4851 40.0287 36.4851 39.915C36.4851 39.8013 36.5773 39.7091 36.691 39.7091C36.8047 39.7091 36.8968 39.8013 36.8968 39.915Z" fill="white"/>
<path d="M36.3936 40.3725C36.3936 40.4862 36.3014 40.5783 36.1877 40.5783C36.0741 40.5783 35.9819 40.4862 35.9819 40.3725C35.9819 40.2588 36.0741 40.1666 36.1877 40.1666C36.3014 40.1666 36.3936 40.2588 36.3936 40.3725Z" fill="white"/>
<path d="M35.8446 40.7842C35.8446 40.8979 35.7525 40.9901 35.6388 40.9901C35.5251 40.9901 35.4329 40.8979 35.4329 40.7842C35.4329 40.6705 35.5251 40.5783 35.6388 40.5783C35.7525 40.5783 35.8446 40.6705 35.8446 40.7842Z" fill="white"/>
<path d="M35.2042 41.1502C35.2042 41.2639 35.112 41.3561 34.9983 41.3561C34.8846 41.3561 34.7924 41.2639 34.7924 41.1502C34.7924 41.0365 34.8846 40.9443 34.9983 40.9443C35.112 40.9443 35.2042 41.0365 35.2042 41.1502Z" fill="white"/>
<path d="M34.5637 41.3789C34.5637 41.4926 34.4715 41.5848 34.3578 41.5848C34.2441 41.5848 34.1519 41.4926 34.1519 41.3789C34.1519 41.2652 34.2441 41.1731 34.3578 41.1731C34.4715 41.1731 34.5637 41.2652 34.5637 41.3789Z" fill="white"/>
<path d="M33.9232 41.5619C33.9232 41.6756 33.831 41.7678 33.7173 41.7678C33.6036 41.7678 33.5115 41.6756 33.5115 41.5619C33.5115 41.4482 33.6036 41.3561 33.7173 41.3561C33.831 41.3561 33.9232 41.4482 33.9232 41.5619Z" fill="white"/>
<path d="M32.505 41.6992C32.505 41.8129 32.4128 41.905 32.2991 41.905C32.1854 41.905 32.0933 41.8129 32.0933 41.6992C32.0933 41.5855 32.1854 41.4933 32.2991 41.4933C32.4128 41.4933 32.505 41.5855 32.505 41.6992Z" fill="white"/>
<path d="M31.8188 41.6077C31.8188 41.7214 31.7266 41.8136 31.6129 41.8136C31.4992 41.8136 31.407 41.7214 31.407 41.6077C31.407 41.494 31.4992 41.4018 31.6129 41.4018C31.7266 41.4018 31.8188 41.494 31.8188 41.6077Z" fill="white"/>
<path d="M31.1326 41.4704C31.1326 41.5841 31.0404 41.6763 30.9267 41.6763C30.813 41.6763 30.7208 41.5841 30.7208 41.4704C30.7208 41.3567 30.813 41.2646 30.9267 41.2646C31.0404 41.2646 31.1326 41.3567 31.1326 41.4704Z" fill="white"/>
<path d="M30.4463 41.1959C30.4463 41.3096 30.3542 41.4018 30.2405 41.4018C30.1268 41.4018 30.0346 41.3096 30.0346 41.1959C30.0346 41.0823 30.1268 40.9901 30.2405 40.9901C30.3542 40.9901 30.4463 41.0823 30.4463 41.1959Z" fill="white"/>
<path d="M29.8059 40.8757C29.8059 40.9894 29.7137 41.0816 29.6 41.0816C29.4863 41.0816 29.3941 40.9894 29.3941 40.8757C29.3941 40.762 29.4863 40.6698 29.6 40.6698C29.7137 40.6698 29.8059 40.762 29.8059 40.8757Z" fill="white"/>
<path d="M29.1654 40.5097C29.1654 40.6234 29.0732 40.7156 28.9595 40.7156C28.8458 40.7156 28.7536 40.6234 28.7536 40.5097C28.7536 40.396 28.8458 40.3039 28.9595 40.3039C29.0732 40.3039 29.1654 40.396 29.1654 40.5097Z" fill="white"/>
<path d="M28.6164 40.0522C28.6164 40.1659 28.5242 40.2581 28.4105 40.2581C28.2968 40.2581 28.2047 40.1659 28.2047 40.0522C28.2047 39.9385 28.2968 39.8464 28.4105 39.8464C28.5242 39.8464 28.6164 39.9385 28.6164 40.0522Z" fill="white"/>
<path d="M28.1132 39.5033C28.1132 39.617 28.021 39.7091 27.9073 39.7091C27.7936 39.7091 27.7014 39.617 27.7014 39.5033C27.7014 39.3896 27.7936 39.2974 27.9073 39.2974C28.021 39.2974 28.1132 39.3896 28.1132 39.5033Z" fill="white"/>
<path d="M27.6557 38.9543C27.6557 39.068 27.5635 39.1601 27.4498 39.1601C27.3361 39.1601 27.2439 39.068 27.2439 38.9543C27.2439 38.8406 27.3361 38.7484 27.4498 38.7484C27.5635 38.7484 27.6557 38.8406 27.6557 38.9543Z" fill="white"/>
<path d="M27.2439 38.3138C27.2439 38.4275 27.1518 38.5197 27.0381 38.5197C26.9244 38.5197 26.8322 38.4275 26.8322 38.3138C26.8322 38.2001 26.9244 38.1079 27.0381 38.1079C27.1518 38.1079 27.2439 38.2001 27.2439 38.3138Z" fill="white"/>
<path d="M26.9237 37.6276C26.9237 37.7413 26.8315 37.8334 26.7178 37.8334C26.6041 37.8334 26.512 37.7413 26.512 37.6276C26.512 37.5139 26.6041 37.4217 26.7178 37.4217C26.8315 37.4217 26.9237 37.5139 26.9237 37.6276Z" fill="white"/>
<path d="M26.695 36.9414C26.695 37.055 26.6028 37.1472 26.4891 37.1472C26.3754 37.1472 26.2832 37.055 26.2832 36.9414C26.2832 36.8277 26.3754 36.7355 26.4891 36.7355C26.6028 36.7355 26.695 36.8277 26.695 36.9414Z" fill="white"/>
<path d="M26.512 36.2094C26.512 36.3231 26.4198 36.4152 26.3061 36.4152C26.1924 36.4152 26.1002 36.3231 26.1002 36.2094C26.1002 36.0957 26.1924 36.0035 26.3061 36.0035C26.4198 36.0035 26.512 36.0957 26.512 36.2094Z" fill="white"/>
<path d="M26.4205 35.5232C26.4205 35.6368 26.3283 35.729 26.2146 35.729C26.1009 35.729 26.0087 35.6368 26.0087 35.5232C26.0087 35.4095 26.1009 35.3173 26.2146 35.3173C26.3283 35.3173 26.4205 35.4095 26.4205 35.5232Z" fill="white"/>
<path d="M26.4205 34.7912C26.4205 34.9049 26.3283 34.997 26.2146 34.997C26.1009 34.997 26.0087 34.9049 26.0087 34.7912C26.0087 34.6775 26.1009 34.5853 26.2146 34.5853C26.3283 34.5853 26.4205 34.6775 26.4205 34.7912Z" fill="white"/>
<path d="M26.4662 34.0592C26.4662 34.1729 26.374 34.2651 26.2604 34.2651C26.1467 34.2651 26.0545 34.1729 26.0545 34.0592C26.0545 33.9455 26.1467 33.8533 26.2604 33.8533C26.374 33.8533 26.4662 33.9455 26.4662 34.0592Z" fill="white"/>
<path d="M26.6492 33.3272C26.6492 33.4409 26.557 33.5331 26.4433 33.5331C26.3296 33.5331 26.2375 33.4409 26.2375 33.3272C26.2375 33.2135 26.3296 33.1214 26.4433 33.1214C26.557 33.1214 26.6492 33.2135 26.6492 33.3272Z" fill="white"/>
<path d="M33.237 41.6534C33.237 41.7671 33.1448 41.8593 33.0311 41.8593C32.9174 41.8593 32.8252 41.7671 32.8252 41.6534C32.8252 41.5397 32.9174 41.4476 33.0311 41.4476C33.1448 41.4476 33.237 41.5397 33.237 41.6534Z" fill="white"/>
</g>
<defs>
<linearGradient id="paint0_linear_1968_2512" x1="230.378" y1="2.29257e-08" x2="230.68" y2="173.983" gradientUnits="userSpaceOnUse">
<stop stop-color="#5C3262"/>
<stop offset="1" stop-color="#5C3262" stop-opacity="0"/>
</linearGradient>
<clipPath id="clip0_1968_2512">
<rect width="220" height="311.328" rx="16" fill="white"/>
</clipPath>
</defs>
</svg>
