<svg width="221" height="312" viewBox="0 0 221 312" fill="none" xmlns="http://www.w3.org/2000/svg">
<g clip-path="url(#clip0_1968_2718)">
<rect width="220" height="311.328" transform="translate(0.5 0.335938)" fill="#5C3262"/>
<g opacity="0.2">
<line x1="202.798" y1="-56.9141" x2="202.798" y2="371.861" stroke="white" stroke-width="0.369748"/>
<line x1="46.0169" y1="-56.9141" x2="46.0169" y2="371.861" stroke="white" stroke-width="0.369748"/>
<line x1="55.2396" y1="-56.9141" x2="55.2395" y2="371.861" stroke="white" stroke-width="0.369748"/>
<line x1="129.017" y1="-56.9141" x2="129.017" y2="371.861" stroke="white" stroke-width="0.369748"/>
<line x1="92.1263" y1="-56.9141" x2="92.1263" y2="371.861" stroke="white" stroke-width="0.369748"/>
<line x1="165.908" y1="-56.9141" x2="165.908" y2="371.861" stroke="white" stroke-width="0.369748"/>
<line x1="9.13019" y1="-56.9141" x2="9.13017" y2="371.861" stroke="white" stroke-width="0.369748"/>
<line x1="212.025" y1="-56.9141" x2="212.025" y2="371.861" stroke="white" stroke-width="0.369748"/>
<line x1="64.4622" y1="-56.9141" x2="64.4622" y2="371.861" stroke="white" stroke-width="0.369748"/>
<line x1="138.24" y1="-56.9141" x2="138.24" y2="371.861" stroke="white" stroke-width="0.369748"/>
<line x1="101.349" y1="-56.9141" x2="101.349" y2="371.861" stroke="white" stroke-width="0.369748"/>
<line x1="175.126" y1="-56.9141" x2="175.126" y2="371.861" stroke="white" stroke-width="0.369748"/>
<line x1="18.3489" y1="-56.9141" x2="18.3489" y2="371.861" stroke="white" stroke-width="0.369748"/>
<line x1="73.681" y1="-56.9141" x2="73.681" y2="371.861" stroke="white" stroke-width="0.369748"/>
<line x1="147.462" y1="-56.9141" x2="147.462" y2="371.861" stroke="white" stroke-width="0.369748"/>
<line x1="110.575" y1="-56.9141" x2="110.575" y2="371.861" stroke="white" stroke-width="0.369748"/>
<line x1="184.357" y1="-56.9141" x2="184.357" y2="371.861" stroke="white" stroke-width="0.369748"/>
<line x1="27.5716" y1="-56.9141" x2="27.5716" y2="371.861" stroke="white" stroke-width="0.369748"/>
<line x1="82.9075" y1="-56.9141" x2="82.9075" y2="371.861" stroke="white" stroke-width="0.369748"/>
<line x1="156.681" y1="-56.9141" x2="156.681" y2="371.861" stroke="white" stroke-width="0.369748"/>
<line x1="119.794" y1="-56.9141" x2="119.794" y2="371.861" stroke="white" stroke-width="0.369748"/>
<line x1="193.575" y1="-56.9141" x2="193.575" y2="371.861" stroke="white" stroke-width="0.369748"/>
<line x1="36.7982" y1="-56.9141" x2="36.7981" y2="371.861" stroke="white" stroke-width="0.369748"/>
<line x1="-147.414" y1="81.2526" x2="382.325" y2="81.2526" stroke="white" stroke-width="0.369748"/>
<line x1="-147.414" y1="238.057" x2="382.325" y2="238.057" stroke="white" stroke-width="0.369748"/>
<line x1="-147.414" y1="228.831" x2="382.325" y2="228.831" stroke="white" stroke-width="0.369748"/>
<line x1="-147.414" y1="7.47138" x2="382.325" y2="7.4714" stroke="white" stroke-width="0.369748"/>
<line x1="-147.414" y1="155.05" x2="382.325" y2="155.05" stroke="white" stroke-width="0.369748"/>
<line x1="-147.414" y1="44.362" x2="382.325" y2="44.362" stroke="white" stroke-width="0.369748"/>
<line x1="-147.414" y1="191.94" x2="382.325" y2="191.94" stroke="white" stroke-width="0.369748"/>
<line x1="-147.414" y1="118.159" x2="382.325" y2="118.159" stroke="white" stroke-width="0.369748"/>
<line x1="-147.414" y1="274.956" x2="382.325" y2="274.956" stroke="white" stroke-width="0.369748"/>
<line x1="-147.414" y1="72.0417" x2="382.325" y2="72.0417" stroke="white" stroke-width="0.369748"/>
<line x1="-147.414" y1="219.612" x2="382.325" y2="219.612" stroke="white" stroke-width="0.369748"/>
<line x1="-147.414" y1="145.823" x2="382.325" y2="145.823" stroke="white" stroke-width="0.369748"/>
<line x1="-147.414" y1="302.62" x2="382.325" y2="302.62" stroke="white" stroke-width="0.369748"/>
<line x1="-147.414" y1="35.1433" x2="382.325" y2="35.1433" stroke="white" stroke-width="0.369748"/>
<line x1="-147.414" y1="182.714" x2="382.325" y2="182.714" stroke="white" stroke-width="0.369748"/>
<line x1="-147.414" y1="108.932" x2="382.325" y2="108.932" stroke="white" stroke-width="0.369748"/>
<line x1="-147.414" y1="265.729" x2="382.325" y2="265.729" stroke="white" stroke-width="0.369748"/>
<line x1="-147.414" y1="62.8151" x2="382.325" y2="62.8151" stroke="white" stroke-width="0.369748"/>
<line x1="-147.414" y1="210.385" x2="382.325" y2="210.385" stroke="white" stroke-width="0.369748"/>
<line x1="-147.414" y1="136.604" x2="382.325" y2="136.604" stroke="white" stroke-width="0.369748"/>
<line x1="-147.414" y1="293.401" x2="382.325" y2="293.401" stroke="white" stroke-width="0.369748"/>
<line x1="-147.414" y1="25.9089" x2="382.325" y2="25.9089" stroke="white" stroke-width="0.369748"/>
<line x1="-147.414" y1="173.487" x2="382.325" y2="173.487" stroke="white" stroke-width="0.369748"/>
<line x1="-147.414" y1="99.7058" x2="382.325" y2="99.7058" stroke="white" stroke-width="0.369748"/>
<line x1="-147.414" y1="256.503" x2="382.325" y2="256.503" stroke="white" stroke-width="0.369748"/>
<line x1="-147.414" y1="53.5886" x2="382.325" y2="53.5886" stroke="white" stroke-width="0.369748"/>
<line x1="-147.414" y1="201.159" x2="382.325" y2="201.159" stroke="white" stroke-width="0.369748"/>
<line x1="-147.414" y1="127.378" x2="382.325" y2="127.378" stroke="white" stroke-width="0.369748"/>
<line x1="-147.414" y1="284.182" x2="382.325" y2="284.182" stroke="white" stroke-width="0.369748"/>
<line x1="-147.414" y1="16.6901" x2="382.325" y2="16.6901" stroke="white" stroke-width="0.369748"/>
<line x1="-147.414" y1="164.276" x2="382.325" y2="164.276" stroke="white" stroke-width="0.369748"/>
<line x1="-147.414" y1="90.4792" x2="382.325" y2="90.4792" stroke="white" stroke-width="0.369748"/>
<line x1="-147.414" y1="247.284" x2="382.325" y2="247.284" stroke="white" stroke-width="0.369748"/>
</g>
<path d="M0.5 0.242188H220.5V311.57H0.5V0.242188Z" fill="url(#paint0_linear_1968_2718)"/>
<circle opacity="0.3" cx="52.9774" cy="244.973" r="7.23909" fill="white"/>
<circle opacity="0.25" cx="52.9774" cy="225.223" r="7.23909" fill="white"/>
<circle opacity="0.2" cx="52.9774" cy="205.466" r="7.23909" fill="white"/>
<circle opacity="0.15" cx="52.9774" cy="185.716" r="7.23909" fill="white"/>
<circle opacity="0.1" cx="52.9774" cy="165.966" r="7.23909" fill="white"/>
<circle opacity="0.05" cx="52.9774" cy="146.216" r="7.23909" fill="white"/>
<circle opacity="0.03" cx="52.9774" cy="126.458" r="7.23909" fill="white"/>
<circle opacity="0.3" cx="72.1532" cy="244.973" r="7.23909" fill="white"/>
<circle opacity="0.25" cx="72.1532" cy="225.223" r="7.23909" fill="white"/>
<circle opacity="0.2" cx="72.1532" cy="205.466" r="7.23909" fill="white"/>
<circle opacity="0.15" cx="72.1532" cy="185.716" r="7.23909" fill="white"/>
<circle opacity="0.1" cx="72.1532" cy="165.966" r="7.23909" fill="white"/>
<circle opacity="0.05" cx="72.1532" cy="146.216" r="7.23909" fill="white"/>
<circle opacity="0.03" cx="72.1532" cy="126.458" r="7.23909" fill="white"/>
<circle opacity="0.3" cx="91.325" cy="244.973" r="7.23909" fill="white"/>
<circle opacity="0.25" cx="91.325" cy="225.223" r="7.23909" fill="white"/>
<circle opacity="0.7" cx="91.325" cy="205.466" r="7.23909" fill="white"/>
<circle opacity="0.15" cx="91.325" cy="185.716" r="7.23909" fill="white"/>
<circle opacity="0.1" cx="91.325" cy="165.966" r="7.23909" fill="white"/>
<circle opacity="0.05" cx="91.325" cy="146.216" r="7.23909" fill="white"/>
<circle opacity="0.03" cx="91.325" cy="126.458" r="7.23909" fill="white"/>
<circle opacity="0.3" cx="110.501" cy="244.973" r="7.23909" fill="white"/>
<circle opacity="0.25" cx="110.501" cy="225.223" r="7.23909" fill="white"/>
<circle opacity="0.7" cx="110.501" cy="205.466" r="7.23909" fill="white"/>
<circle opacity="0.5" cx="110.501" cy="185.716" r="7.23909" fill="white"/>
<circle opacity="0.1" cx="110.501" cy="165.966" r="7.23909" fill="white"/>
<circle opacity="0.05" cx="110.501" cy="146.216" r="7.23909" fill="white"/>
<circle opacity="0.03" cx="110.501" cy="126.458" r="7.23909" fill="white"/>
<circle opacity="0.3" cx="129.677" cy="244.973" r="7.23909" fill="white"/>
<circle opacity="0.25" cx="129.677" cy="225.223" r="7.23909" fill="white"/>
<circle opacity="0.7" cx="129.677" cy="205.466" r="7.23909" fill="white"/>
<circle opacity="0.5" cx="129.677" cy="185.716" r="7.23909" fill="white"/>
<circle opacity="0.3" cx="129.677" cy="165.966" r="7.23909" fill="white"/>
<circle opacity="0.05" cx="129.677" cy="146.216" r="7.23909" fill="white"/>
<circle opacity="0.03" cx="129.677" cy="126.458" r="7.23909" fill="white"/>
<circle opacity="0.3" cx="168.024" cy="244.973" r="7.23909" fill="white"/>
<circle opacity="0.25" cx="168.024" cy="225.223" r="7.23909" fill="white"/>
<circle opacity="0.2" cx="168.024" cy="205.466" r="7.23909" fill="white"/>
<circle opacity="0.15" cx="168.024" cy="185.716" r="7.23909" fill="white"/>
<circle opacity="0.1" cx="168.024" cy="165.966" r="7.23909" fill="white"/>
<circle opacity="0.05" cx="168.024" cy="146.216" r="7.23909" fill="white"/>
<circle opacity="0.03" cx="168.024" cy="126.458" r="7.23909" fill="white"/>
<circle opacity="0.3" cx="148.848" cy="244.973" r="7.23909" fill="white"/>
<circle opacity="0.25" cx="148.848" cy="225.223" r="7.23909" fill="white"/>
<circle opacity="0.2" cx="148.848" cy="205.466" r="7.23909" fill="white"/>
<circle opacity="0.15" cx="148.848" cy="185.716" r="7.23909" fill="white"/>
<circle opacity="0.1" cx="148.848" cy="165.966" r="7.23909" fill="white"/>
<circle opacity="0.05" cx="148.848" cy="146.216" r="7.23909" fill="white"/>
<circle opacity="0.03" cx="148.848" cy="126.458" r="7.23909" fill="white"/>
<path d="M65.8334 285.132H64.4938L64.4866 284.471H65.6565C65.8539 284.471 66.0212 284.442 66.1584 284.384C66.298 284.324 66.404 284.239 66.4762 284.128C66.5484 284.015 66.5845 283.879 66.5845 283.72C66.5845 283.544 66.5508 283.401 66.4834 283.29C66.416 283.18 66.3125 283.099 66.1729 283.048C66.0356 282.998 65.8599 282.973 65.6457 282.973H64.7683V287.508H63.8619V282.25H65.6457C65.9345 282.25 66.1921 282.278 66.4184 282.334C66.6471 282.389 66.8409 282.476 66.9997 282.593C67.161 282.709 67.2826 282.856 67.3644 283.034C67.4487 283.212 67.4908 283.424 67.4908 283.67C67.4908 283.886 67.4391 284.085 67.3355 284.265C67.232 284.443 67.0792 284.589 66.877 284.702C66.6748 284.815 66.4232 284.883 66.1223 284.904L65.8334 285.132ZM65.7937 287.508H64.2086L64.6166 286.789H65.7937C65.9983 286.789 66.1692 286.756 66.3065 286.688C66.4437 286.618 66.546 286.523 66.6134 286.403C66.6832 286.28 66.7181 286.137 66.7181 285.973C66.7181 285.802 66.688 285.654 66.6278 285.529C66.5676 285.402 66.4726 285.304 66.3426 285.237C66.2126 285.167 66.0429 285.132 65.8334 285.132H64.8152L64.8224 284.471H66.1476L66.3534 284.72C66.6423 284.73 66.8794 284.794 67.0647 284.912C67.2525 285.03 67.3921 285.182 67.4836 285.37C67.5751 285.558 67.6208 285.76 67.6208 285.977C67.6208 286.311 67.5474 286.592 67.4005 286.818C67.2561 287.044 67.0479 287.217 66.7759 287.334C66.5039 287.45 66.1765 287.508 65.7937 287.508ZM69.2777 282.25L70.4982 284.76L71.7186 282.25H72.7225L70.9532 285.572V287.508H70.0396V285.572L68.2703 282.25H69.2777ZM79.1308 285.796H80.0335C80.0046 286.141 79.9083 286.447 79.7446 286.717C79.5809 286.984 79.351 287.195 79.055 287.349C78.7589 287.503 78.399 287.58 77.9753 287.58C77.6504 287.58 77.3579 287.522 77.0979 287.407C76.8379 287.289 76.6153 287.123 76.4299 286.908C76.2445 286.692 76.1025 286.431 76.0038 286.125C75.9075 285.819 75.8594 285.477 75.8594 285.099V284.662C75.8594 284.285 75.9087 283.943 76.0074 283.637C76.1085 283.331 76.253 283.07 76.4407 282.853C76.6285 282.634 76.8536 282.467 77.116 282.352C77.3807 282.236 77.678 282.178 78.0078 282.178C78.4267 282.178 78.7805 282.255 79.0694 282.409C79.3583 282.563 79.5821 282.776 79.741 283.048C79.9023 283.32 80.001 283.632 80.0371 283.984H79.1344C79.1103 283.757 79.0574 283.564 78.9755 283.402C78.8961 283.241 78.7781 283.118 78.6217 283.034C78.4652 282.947 78.2606 282.904 78.0078 282.904C77.8008 282.904 77.6203 282.943 77.4662 283.02C77.3121 283.097 77.1834 283.21 77.0798 283.359C76.9763 283.508 76.8981 283.692 76.8451 283.911C76.7946 284.128 76.7693 284.376 76.7693 284.655V285.099C76.7693 285.364 76.7922 285.605 76.8379 285.822C76.8861 286.036 76.9583 286.22 77.0546 286.374C77.1533 286.528 77.2784 286.647 77.4301 286.731C77.5817 286.816 77.7635 286.858 77.9753 286.858C78.2329 286.858 78.4411 286.817 78.6 286.735C78.7613 286.653 78.8828 286.534 78.9647 286.378C79.0489 286.219 79.1043 286.025 79.1308 285.796ZM85.4926 284.735V285.024C85.4926 285.421 85.4409 285.777 85.3374 286.092C85.2338 286.408 85.0858 286.676 84.8932 286.898C84.7031 287.119 84.4744 287.289 84.2072 287.407C83.94 287.522 83.6439 287.58 83.3189 287.58C82.9963 287.58 82.7015 287.522 82.4343 287.407C82.1695 287.289 81.9396 287.119 81.7446 286.898C81.5496 286.676 81.398 286.408 81.2896 286.092C81.1837 285.777 81.1308 285.421 81.1308 285.024V284.735C81.1308 284.338 81.1837 283.982 81.2896 283.67C81.3955 283.354 81.5448 283.086 81.7374 282.864C81.9324 282.64 82.1622 282.471 82.427 282.355C82.6942 282.237 82.9891 282.178 83.3117 282.178C83.6367 282.178 83.9327 282.237 84.1999 282.355C84.4671 282.471 84.697 282.64 84.8896 282.864C85.0822 283.086 85.2302 283.354 85.3337 283.67C85.4397 283.982 85.4926 284.338 85.4926 284.735ZM84.5863 285.024V284.727C84.5863 284.434 84.5574 284.175 84.4996 283.951C84.4443 283.725 84.3612 283.536 84.2505 283.384C84.1422 283.23 84.0086 283.115 83.8497 283.038C83.6908 282.958 83.5115 282.918 83.3117 282.918C83.1119 282.918 82.9338 282.958 82.7773 283.038C82.6208 283.115 82.4872 283.23 82.3765 283.384C82.2682 283.536 82.1851 283.725 82.1273 283.951C82.0696 284.175 82.0407 284.434 82.0407 284.727V285.024C82.0407 285.317 82.0696 285.577 82.1273 285.804C82.1851 286.03 82.2694 286.221 82.3801 286.378C82.4932 286.532 82.628 286.648 82.7845 286.728C82.941 286.805 83.1191 286.843 83.3189 286.843C83.5211 286.843 83.7005 286.805 83.8569 286.728C84.0134 286.648 84.1458 286.532 84.2541 286.378C84.3624 286.221 84.4443 286.03 84.4996 285.804C84.5574 285.577 84.5863 285.317 84.5863 285.024ZM91.0348 284.735V285.024C91.0348 285.421 90.983 285.777 90.8795 286.092C90.776 286.408 90.628 286.676 90.4354 286.898C90.2452 287.119 90.0165 287.289 89.7493 287.407C89.4821 287.522 89.1861 287.58 88.8611 287.58C88.5385 287.58 88.2436 287.522 87.9764 287.407C87.7116 287.289 87.4817 287.119 87.2868 286.898C87.0918 286.676 86.9401 286.408 86.8318 286.092C86.7259 285.777 86.6729 285.421 86.6729 285.024V284.735C86.6729 284.338 86.7259 283.982 86.8318 283.67C86.9377 283.354 87.087 283.086 87.2795 282.864C87.4745 282.64 87.7044 282.471 87.9692 282.355C88.2364 282.237 88.5313 282.178 88.8539 282.178C89.1788 282.178 89.4749 282.237 89.7421 282.355C90.0093 282.471 90.2392 282.64 90.4318 282.864C90.6244 283.086 90.7724 283.354 90.8759 283.67C90.9818 283.982 91.0348 284.338 91.0348 284.735ZM90.1285 285.024V284.727C90.1285 284.434 90.0996 284.175 90.0418 283.951C89.9865 283.725 89.9034 283.536 89.7927 283.384C89.6843 283.23 89.5507 283.115 89.3919 283.038C89.233 282.958 89.0537 282.918 88.8539 282.918C88.6541 282.918 88.4759 282.958 88.3195 283.038C88.163 283.115 88.0294 283.23 87.9187 283.384C87.8103 283.536 87.7273 283.725 87.6695 283.951C87.6117 284.175 87.5829 284.434 87.5829 284.727V285.024C87.5829 285.317 87.6117 285.577 87.6695 285.804C87.7273 286.03 87.8115 286.221 87.9223 286.378C88.0354 286.532 88.1702 286.648 88.3267 286.728C88.4832 286.805 88.6613 286.843 88.8611 286.843C89.0633 286.843 89.2426 286.805 89.3991 286.728C89.5556 286.648 89.688 286.532 89.7963 286.378C89.9046 286.221 89.9865 286.03 90.0418 285.804C90.0996 285.577 90.1285 285.317 90.1285 285.024ZM92.3848 282.25H94.2444C94.644 282.25 94.9846 282.311 95.2662 282.431C95.5479 282.551 95.7633 282.729 95.9126 282.965C96.0642 283.199 96.1401 283.488 96.1401 283.832C96.1401 284.094 96.0919 284.325 95.9956 284.525C95.8993 284.725 95.7633 284.894 95.5876 285.031C95.4119 285.166 95.2025 285.27 94.9593 285.345L94.6849 285.479H93.0131L93.0059 284.76H94.2588C94.4755 284.76 94.656 284.721 94.8004 284.644C94.9449 284.567 95.0532 284.463 95.1254 284.33C95.2 284.195 95.2374 284.044 95.2374 283.875C95.2374 283.692 95.2012 283.534 95.129 283.399C95.0592 283.261 94.9509 283.157 94.8041 283.085C94.6572 283.01 94.4707 282.973 94.2444 282.973H93.2911V287.508H92.3848V282.25ZM95.3854 287.508L94.1505 285.146L95.1001 285.143L96.3531 287.461V287.508H95.3854ZM99.0138 287.508H97.8909L97.8981 286.789H99.0138C99.3388 286.789 99.6108 286.718 99.8299 286.576C100.051 286.434 100.217 286.231 100.328 285.966C100.441 285.701 100.498 285.386 100.498 285.02V284.735C100.498 284.451 100.465 284.199 100.4 283.98C100.338 283.761 100.244 283.577 100.119 283.428C99.996 283.278 99.8443 283.165 99.6638 283.088C99.4857 283.011 99.2798 282.973 99.0463 282.973H97.8692V282.25H99.0463C99.3954 282.25 99.7143 282.309 100.003 282.427C100.292 282.543 100.541 282.71 100.751 282.929C100.962 283.148 101.125 283.411 101.238 283.716C101.351 284.022 101.408 284.364 101.408 284.742V285.02C101.408 285.398 101.351 285.74 101.238 286.045C101.125 286.351 100.962 286.614 100.751 286.833C100.539 287.049 100.286 287.217 99.9924 287.334C99.7011 287.45 99.3749 287.508 99.0138 287.508ZM98.3928 282.25V287.508H97.4865V282.25H98.3928ZM103.729 282.25V287.508H102.823V282.25H103.729ZM109.47 282.25V287.508H108.564L106.206 283.742V287.508H105.299V282.25H106.206L108.571 286.024V282.25H109.47ZM113.106 282.951L111.535 287.508H110.585L112.564 282.25H113.171L113.106 282.951ZM114.42 287.508L112.846 282.951L112.777 282.25H113.387L115.373 287.508H114.42ZM114.344 285.558V286.277H111.484V285.558H114.344ZM118.113 282.25V287.508H117.214V282.25H118.113ZM119.763 282.25V282.973H115.579V282.25H119.763ZM124.342 286.789V287.508H121.55V286.789H124.342ZM121.807 282.25V287.508H120.9V282.25H121.807ZM123.977 284.446V285.154H121.55V284.446H123.977ZM124.324 282.25V282.973H121.55V282.25H124.324ZM127.053 287.508H125.93L125.937 286.789H127.053C127.378 286.789 127.65 286.718 127.869 286.576C128.09 286.434 128.256 286.231 128.367 285.966C128.48 285.701 128.537 285.386 128.537 285.02V284.735C128.537 284.451 128.504 284.199 128.439 283.98C128.377 283.761 128.283 283.577 128.158 283.428C128.035 283.278 127.883 283.165 127.703 283.088C127.525 283.011 127.319 282.973 127.085 282.973H125.908V282.25H127.085C127.434 282.25 127.753 282.309 128.042 282.427C128.331 282.543 128.58 282.71 128.79 282.929C129.002 283.148 129.164 283.411 129.277 283.716C129.39 284.022 129.447 284.364 129.447 284.742V285.02C129.447 285.398 129.39 285.74 129.277 286.045C129.164 286.351 129.002 286.614 128.79 286.833C128.578 287.049 128.325 287.217 128.031 287.334C127.74 287.45 127.414 287.508 127.053 287.508ZM126.432 282.25V287.508H125.525V282.25H126.432ZM136.379 286.789V287.508H133.739V286.789H136.379ZM133.992 282.25V287.508H133.086V282.25H133.992ZM138.491 282.25V287.508H137.584V282.25H138.491ZM141.863 286.547L143.246 282.25H144.246L142.361 287.508H141.686L141.863 286.547ZM140.584 282.25L141.957 286.547L142.144 287.508H141.466L139.588 282.25H140.584ZM146.246 282.25V287.508H145.339V282.25H146.246ZM151.987 282.25V287.508H151.08L148.722 283.742V287.508H147.816V282.25H148.722L151.087 286.024V282.25H151.987ZM157.547 284.821V286.829C157.472 286.928 157.355 287.036 157.197 287.154C157.04 287.269 156.832 287.369 156.572 287.454C156.312 287.538 155.988 287.58 155.601 287.58C155.271 287.58 154.969 287.525 154.694 287.414C154.42 287.301 154.183 287.136 153.983 286.919C153.786 286.703 153.633 286.439 153.524 286.128C153.416 285.816 153.362 285.459 153.362 285.06V284.695C153.362 284.298 153.411 283.944 153.51 283.633C153.611 283.32 153.755 283.056 153.943 282.839C154.131 282.622 154.357 282.459 154.622 282.348C154.889 282.235 155.191 282.178 155.528 282.178C155.959 282.178 156.316 282.25 156.597 282.395C156.881 282.537 157.1 282.734 157.254 282.987C157.408 283.24 157.506 283.529 157.547 283.854H156.659C156.63 283.671 156.573 283.507 156.489 283.363C156.407 283.218 156.289 283.105 156.135 283.023C155.983 282.939 155.786 282.897 155.543 282.897C155.333 282.897 155.149 282.937 154.99 283.016C154.831 283.095 154.699 283.212 154.593 283.366C154.49 283.52 154.411 283.708 154.358 283.929C154.305 284.151 154.279 284.404 154.279 284.688V285.06C154.279 285.349 154.309 285.605 154.369 285.829C154.432 286.053 154.521 286.242 154.636 286.396C154.754 286.55 154.898 286.666 155.066 286.746C155.235 286.823 155.425 286.861 155.637 286.861C155.844 286.861 156.013 286.845 156.146 286.811C156.278 286.775 156.383 286.733 156.46 286.685C156.539 286.634 156.601 286.586 156.644 286.54V285.497H155.55V284.821H157.547Z" fill="white"/>
<path d="M62.5318 64.1952C63.797 64.1952 64.8733 64.5006 65.7604 65.1115C66.6476 65.7077 67.0911 66.5949 67.0911 67.7729C67.0911 69.1254 66.5458 70.2962 65.455 71.2851C64.3788 72.2741 63.0626 73.0231 61.5065 73.5321C59.9649 74.0557 58.5178 74.3393 57.1653 74.3829L56.9689 73.5975C58.8305 73.2194 60.4739 72.5722 61.8991 71.656C63.3389 70.7398 64.0588 69.5036 64.0588 67.9474C64.0588 67.3802 63.8916 66.8785 63.5571 66.4422C63.2371 65.9913 62.8154 65.6496 62.2918 65.4169C61.7828 65.1696 61.252 65.046 60.6993 65.046C59.7394 65.046 58.7578 65.2424 57.7543 65.635L57.7106 65.5259V72.1141L54.9837 73.0085V64.9806C54.9837 63.5117 55.3037 62.1664 55.9436 60.9448C56.5835 59.7231 57.4779 58.7633 58.6269 58.0652C59.7903 57.3525 61.0992 56.9962 62.5536 56.9962C63.2953 56.9962 63.9207 57.178 64.4297 57.5416C64.9387 57.9052 65.1932 58.4288 65.1932 59.1123C65.1932 60.0285 64.7206 60.9666 63.7752 61.9265C62.8299 62.8718 61.7755 63.6717 60.612 64.3261L60.6557 64.4352C61.3974 64.2752 62.0228 64.1952 62.5318 64.1952ZM57.7106 64.9806C58.9323 64.3988 59.9867 63.6789 60.8738 62.8209C61.7755 61.9628 62.2264 61.0102 62.2264 59.9631C62.2264 59.425 62.0882 58.996 61.8119 58.676C61.5355 58.3415 61.1574 58.1743 60.6775 58.1743C59.9503 58.1743 59.3613 58.4869 58.9105 59.1123C58.4742 59.7231 58.1615 60.4576 57.9724 61.3156C57.7979 62.1737 57.7106 62.9954 57.7106 63.7807V64.9806ZM74.2119 62.0573C73.252 62.7409 72.4958 63.519 71.9431 64.3916C71.405 65.2496 71.136 66.2604 71.136 67.4239C71.136 68.0638 71.2596 68.711 71.5068 69.3654C71.7541 70.0199 72.1176 70.5652 72.5976 71.0015C73.0775 71.4233 73.652 71.6342 74.321 71.6342C75.1645 71.6342 75.8408 71.3288 76.3498 70.7179C76.8733 70.1071 77.1351 69.3509 77.1351 68.4492C77.1351 67.7656 76.9533 67.0748 76.5897 66.3767C76.2407 65.6641 75.768 65.0678 75.1718 64.5879C74.5755 64.0934 73.9356 63.8171 73.252 63.7589C73.5574 63.4244 73.8847 63.119 74.2337 62.8427C74.5973 62.5664 75.0481 62.2319 75.5862 61.8392C76.6334 62.1882 77.4624 62.8354 78.0732 63.7807C78.6985 64.7261 79.0112 65.7659 79.0112 66.9003C79.0112 67.9038 78.7858 68.8782 78.335 69.8235C77.8987 70.7689 77.2587 71.5397 76.4152 72.1359C75.5862 72.7177 74.6191 73.0085 73.5138 73.0085C72.5976 73.0085 71.7541 72.7977 70.9833 72.3759C70.227 71.9396 69.6234 71.3506 69.1726 70.6089C68.7218 69.8526 68.4963 69.0236 68.4963 68.1219C68.4963 66.5658 68.9835 65.1987 69.9579 64.0207C70.9469 62.8427 72.2267 62.021 73.7974 61.5556L74.2119 62.0573ZM86.3764 62.0573C85.4165 62.7409 84.6603 63.519 84.1076 64.3916C83.5695 65.2496 83.3005 66.2604 83.3005 67.4239C83.3005 68.0638 83.4241 68.711 83.6713 69.3654C83.9185 70.0199 84.2821 70.5652 84.7621 71.0015C85.242 71.4233 85.8165 71.6342 86.4855 71.6342C87.329 71.6342 88.0052 71.3288 88.5143 70.7179C89.0378 70.1071 89.2996 69.3509 89.2996 68.4492C89.2996 67.7656 89.1178 67.0748 88.7542 66.3767C88.4052 65.6641 87.9325 65.0678 87.3363 64.5879C86.74 64.0934 86.1001 63.8171 85.4165 63.7589C85.7219 63.4244 86.0492 63.119 86.3982 62.8427C86.7618 62.5664 87.2126 62.2319 87.7507 61.8392C88.7979 62.1882 89.6268 62.8354 90.2377 63.7807C90.863 64.7261 91.1757 65.7659 91.1757 66.9003C91.1757 67.9038 90.9503 68.8782 90.4994 69.8235C90.0631 70.7689 89.4232 71.5397 88.5797 72.1359C87.7507 72.7177 86.7836 73.0085 85.6783 73.0085C84.7621 73.0085 83.9185 72.7977 83.1477 72.3759C82.3915 71.9396 81.7879 71.3506 81.3371 70.6089C80.8862 69.8526 80.6608 69.0236 80.6608 68.1219C80.6608 66.5658 81.148 65.1987 82.1224 64.0207C83.1114 62.8427 84.3912 62.021 85.9619 61.5556L86.3764 62.0573ZM96.3375 67.8384H96.4903C96.9702 66.1804 97.5883 64.7261 98.3445 63.4753C99.1153 62.2246 100.068 61.5992 101.202 61.5992C101.74 61.5992 102.169 61.781 102.489 62.1446C102.809 62.5082 102.969 62.959 102.969 63.4971C102.969 64.3988 102.591 65.2569 101.835 66.0713C101.093 66.8858 100.235 67.5838 99.2608 68.1656C99.3917 68.3546 99.5226 68.5219 99.6534 68.6673C100.25 69.4818 100.781 70.1362 101.246 70.6307C101.726 71.1106 102.177 71.3506 102.598 71.3506C103.137 71.3506 103.595 71.1252 103.973 70.6743L104.366 71.1106C104.046 71.6342 103.595 72.0705 103.013 72.4195C102.431 72.7686 101.82 72.9431 101.181 72.9431C100.555 72.9431 99.9879 72.7249 99.4789 72.2886C98.9845 71.8523 98.4245 71.2415 97.7992 70.4562C97.3192 69.8744 97.0138 69.5254 96.8829 69.409L96.6866 69.5181C96.5993 69.8235 96.5193 70.2744 96.4466 70.8707C96.3885 71.4669 96.3521 71.9832 96.3375 72.4195L93.7415 72.9867V53.4622L96.3375 52.5459V67.8384ZM99.6534 63.868C99.159 63.868 98.6427 64.4352 98.1046 65.5696C97.5665 66.6894 97.1229 67.7656 96.7739 68.7982C97.7483 68.231 98.5772 67.5838 99.2608 66.8567C99.9589 66.1295 100.308 65.4241 100.308 64.7406C100.308 64.5079 100.25 64.3043 100.133 64.1298C100.017 63.9553 99.8571 63.868 99.6534 63.868ZM120.669 56.8653C120.16 57.5925 119.491 58.1961 118.662 58.676C117.833 59.1559 116.997 59.3959 116.153 59.3959C115.877 59.7449 115.673 60.0794 115.542 60.3994C115.426 60.7193 115.368 61.0902 115.368 61.512V68.5583C115.368 69.6054 115.135 70.4853 114.67 71.1979C114.219 71.9105 113.514 72.565 112.554 73.1612L112.096 72.6377C112.474 72.1577 112.663 71.4524 112.663 70.5216V62.7772C112.663 62.1664 112.852 61.5774 113.23 61.0102C113.623 60.4285 114.103 59.8904 114.67 59.3959L111.768 59.3741C111.274 59.3741 110.823 59.4832 110.416 59.7013C110.009 59.9195 109.623 60.254 109.26 60.7048L108.78 60.2467C109.463 59.345 110.161 58.6324 110.874 58.1088C111.601 57.5852 112.423 57.3235 113.339 57.3235H116.568C117.266 57.3235 117.971 57.2653 118.684 57.1489C119.396 57.018 119.934 56.7926 120.298 56.4727L120.669 56.8653ZM122.208 59.505L120.834 59.9413L119.939 55.3819L122.971 54.3566L122.208 59.505ZM122.906 70.6961C122.906 70.9143 122.957 71.0888 123.059 71.2197C123.16 71.3506 123.299 71.416 123.473 71.416C123.837 71.416 124.208 71.1615 124.586 70.6525L124.978 71.067C124.658 71.6487 124.244 72.0923 123.735 72.3977C123.24 72.7031 122.746 72.8558 122.252 72.8558C120.928 72.8558 120.266 72.0923 120.266 70.5652V62.7118L122.906 61.7956V70.6961ZM129.833 63.2354V70.6961C129.833 70.8997 129.891 71.0743 130.007 71.2197C130.124 71.3506 130.276 71.416 130.465 71.416C130.814 71.416 131.207 71.1615 131.643 70.6525L132.036 71.067C131.774 71.5906 131.447 71.9832 131.054 72.245C130.662 72.5068 130.284 72.6813 129.92 72.7686C129.556 72.8558 129.375 72.8849 129.375 72.8558C127.92 72.8558 127.193 72.0923 127.193 70.5652V63.2354H125.644L126.321 61.7956H127.193V56.8435L129.833 55.9491V61.7956H132.691L132.036 63.2354H129.833ZM137.222 70.6961C137.222 70.8852 137.266 71.0524 137.353 71.1979C137.455 71.3433 137.608 71.416 137.811 71.416C138.015 71.416 138.218 71.336 138.422 71.1761C138.64 71.0161 138.815 70.8416 138.946 70.6525L139.338 71.067C139.091 71.5615 138.727 71.9832 138.247 72.3323C137.782 72.6813 137.28 72.8558 136.742 72.8558C135.332 72.8558 134.626 72.0923 134.626 70.5652V53.4622L137.222 52.5241V70.6961ZM146.962 61.5992C147.805 61.5992 148.51 61.8174 149.078 62.2537C149.645 62.6754 149.928 63.2935 149.928 64.108C149.928 64.7624 149.572 65.4969 148.86 66.3113C148.161 67.1112 147.325 67.8602 146.351 68.5583C145.391 69.2418 144.569 69.7363 143.886 70.0417C144.496 71.0161 145.391 71.5033 146.569 71.5033C147.223 71.5033 147.878 71.3215 148.532 70.9579C149.201 70.5798 149.768 70.0853 150.234 69.4745L150.67 69.998C149.914 70.9434 149.114 71.6778 148.271 72.2014C147.442 72.7104 146.453 72.9649 145.304 72.9649C144.373 72.9649 143.537 72.754 142.795 72.3323C142.068 71.9105 141.493 71.336 141.072 70.6089C140.664 69.8672 140.461 69.0382 140.461 68.1219C140.461 67.0166 140.759 65.9623 141.355 64.9588C141.966 63.9407 142.773 63.1263 143.777 62.5155C144.78 61.9046 145.842 61.5992 146.962 61.5992ZM145.718 63.0172C145.165 63.0172 144.671 63.2208 144.235 63.628C143.798 64.0207 143.457 64.5297 143.209 65.1551C142.962 65.7805 142.839 66.4276 142.839 67.0966C142.839 67.9692 143.028 68.7182 143.406 69.3436C143.944 69.0382 144.511 68.6164 145.107 68.0783C145.718 67.5257 146.227 66.9367 146.634 66.3113C147.042 65.6859 147.245 65.1187 147.245 64.6097C147.245 64.1007 147.107 63.708 146.831 63.4317C146.569 63.1554 146.198 63.0172 145.718 63.0172ZM163.805 62.0355C162.903 62.8354 161.856 63.519 160.664 64.0861L160.707 64.217C161.158 64.0861 161.667 64.0207 162.234 64.0207C163.063 64.0207 163.827 64.1952 164.525 64.5443C165.223 64.8788 165.776 65.3514 166.183 65.9623C166.59 66.5731 166.794 67.2784 166.794 68.0783C166.794 69.4599 166.255 70.6161 165.179 71.5469C164.118 72.4777 162.816 73.154 161.274 73.5757C159.733 74.012 158.249 74.2302 156.824 74.2302L156.671 73.5539C157.704 73.423 158.766 73.1322 159.856 72.6813C160.947 72.2159 161.863 71.5978 162.605 70.827C163.347 70.0417 163.718 69.1473 163.718 68.1438C163.718 67.213 163.398 66.4713 162.758 65.9186C162.132 65.366 161.34 65.0896 160.38 65.0896C159.944 65.0896 159.5 65.1478 159.049 65.2642C158.613 65.3805 158.104 65.5623 157.522 65.8095L157.239 65.0678C158.504 64.4861 159.602 63.7953 160.533 62.9954C161.478 62.181 161.951 61.2575 161.951 60.2249C161.951 59.7013 161.805 59.3159 161.514 59.0687C161.238 58.8069 160.86 58.676 160.38 58.676C159.827 58.676 159.216 58.8651 158.547 59.2432C157.878 59.6068 157.326 60.0358 156.89 60.5303L156.322 59.9631C157.093 58.9741 158.009 58.2179 159.071 57.6943C160.133 57.1562 161.165 56.8872 162.169 56.8872C163.056 56.8872 163.776 57.1053 164.328 57.5416C164.896 57.9779 165.179 58.6033 165.179 59.4177C165.179 60.3485 164.721 61.2211 163.805 62.0355Z" fill="white"/>
<path d="M117.173 34.6042C117.148 34.7695 117.009 34.8853 116.864 34.8628C116.719 34.8404 116.623 34.6882 116.648 34.5229C116.674 34.3577 116.812 34.2419 116.957 34.2643C117.102 34.2868 117.199 34.4389 117.173 34.6042Z" fill="white"/>
<path d="M117.722 33.6435C117.697 33.8088 117.558 33.9246 117.413 33.9021C117.268 33.8797 117.172 33.7275 117.197 33.5622C117.223 33.397 117.361 33.2812 117.506 33.3036C117.651 33.3261 117.748 33.4782 117.722 33.6435Z" fill="white"/>
<path d="M118.18 32.6828C118.154 32.8481 118.016 32.9638 117.871 32.9414C117.726 32.919 117.629 32.7668 117.655 32.6015C117.68 32.4362 117.819 32.3205 117.963 32.3429C118.108 32.3653 118.205 32.5175 118.18 32.6828Z" fill="white"/>
<path d="M118.5 31.6306C118.474 31.7958 118.336 31.9116 118.191 31.8892C118.046 31.8667 117.949 31.7146 117.975 31.5493C118 31.384 118.139 31.2682 118.284 31.2907C118.429 31.3131 118.525 31.4653 118.5 31.6306Z" fill="white"/>
<path d="M118.729 30.5784C118.703 30.7436 118.565 30.8594 118.42 30.837C118.275 30.8145 118.178 30.6624 118.204 30.4971C118.229 30.3318 118.367 30.216 118.512 30.2385C118.657 30.2609 118.754 30.4131 118.729 30.5784Z" fill="white"/>
<path d="M118.82 29.5261C118.795 29.6914 118.656 29.8072 118.511 29.7848C118.366 29.7623 118.27 29.6102 118.295 29.4449C118.321 29.2796 118.459 29.1638 118.604 29.1863C118.749 29.2087 118.846 29.3609 118.82 29.5261Z" fill="white"/>
<path d="M118.866 28.4282C118.84 28.5935 118.702 28.7092 118.557 28.6868C118.412 28.6644 118.315 28.5122 118.341 28.3469C118.366 28.1816 118.505 28.0659 118.65 28.0883C118.795 28.1107 118.891 28.2629 118.866 28.4282Z" fill="white"/>
<path d="M118.774 27.376C118.749 27.5412 118.611 27.657 118.466 27.6346C118.321 27.6121 118.224 27.46 118.249 27.2947C118.275 27.1294 118.413 27.0136 118.558 27.0361C118.703 27.0585 118.8 27.2107 118.774 27.376Z" fill="white"/>
<path d="M118.546 26.3695C118.52 26.5348 118.382 26.6506 118.237 26.6281C118.092 26.6057 117.995 26.4535 118.021 26.2882C118.046 26.123 118.185 26.0072 118.329 26.0296C118.474 26.0521 118.571 26.2042 118.546 26.3695Z" fill="white"/>
<path d="M118.225 25.363C118.2 25.5283 118.062 25.6441 117.917 25.6217C117.772 25.5992 117.675 25.447 117.7 25.2818C117.726 25.1165 117.864 25.0007 118.009 25.0232C118.154 25.0456 118.251 25.1978 118.225 25.363Z" fill="white"/>
<path d="M117.814 24.4481C117.788 24.6133 117.65 24.7291 117.505 24.7067C117.36 24.6843 117.263 24.5321 117.289 24.3668C117.314 24.2015 117.453 24.0858 117.598 24.1082C117.742 24.1306 117.839 24.2828 117.814 24.4481Z" fill="white"/>
<path d="M117.31 23.5789C117.285 23.7441 117.147 23.8599 117.002 23.8375C116.857 23.815 116.76 23.6629 116.785 23.4976C116.811 23.3323 116.949 23.2165 117.094 23.239C117.239 23.2614 117.336 23.4136 117.31 23.5789Z" fill="white"/>
<path d="M116.716 22.8011C116.69 22.9664 116.552 23.0822 116.407 23.0597C116.262 23.0373 116.165 22.8851 116.191 22.7199C116.216 22.5546 116.355 22.4388 116.5 22.4613C116.645 22.4837 116.741 22.6359 116.716 22.8011Z" fill="white"/>
<path d="M116.03 22.1149C116.004 22.2802 115.866 22.396 115.721 22.3735C115.576 22.3511 115.479 22.1989 115.504 22.0336C115.53 21.8684 115.668 21.7526 115.813 21.775C115.958 21.7975 116.055 21.9496 116.03 22.1149Z" fill="white"/>
<path d="M115.252 21.5202C115.226 21.6854 115.088 21.8012 114.943 21.7788C114.798 21.7564 114.701 21.6042 114.727 21.4389C114.752 21.2736 114.891 21.1579 115.036 21.1803C115.181 21.2027 115.277 21.3549 115.252 21.5202Z" fill="white"/>
<path d="M114.428 21.0169C114.403 21.1822 114.264 21.298 114.119 21.2756C113.975 21.2531 113.878 21.101 113.903 20.9357C113.929 20.7704 114.067 20.6546 114.212 20.6771C114.357 20.6995 114.454 20.8517 114.428 21.0169Z" fill="white"/>
<path d="M113.559 20.651C113.534 20.8162 113.395 20.932 113.25 20.9096C113.105 20.8871 113.009 20.735 113.034 20.5697C113.06 20.4044 113.198 20.2886 113.343 20.3111C113.488 20.3335 113.585 20.4857 113.559 20.651Z" fill="white"/>
<path d="M112.644 20.4222C112.619 20.5875 112.48 20.7033 112.335 20.6808C112.19 20.6584 112.094 20.5062 112.119 20.341C112.145 20.1757 112.283 20.0599 112.428 20.0823C112.573 20.1048 112.67 20.2569 112.644 20.4222Z" fill="white"/>
<path d="M111.683 20.285C111.658 20.4502 111.52 20.566 111.375 20.5436C111.23 20.5211 111.133 20.369 111.158 20.2037C111.184 20.0384 111.322 19.9226 111.467 19.9451C111.612 19.9675 111.709 20.1197 111.683 20.285Z" fill="white"/>
<path d="M110.723 20.285C110.697 20.4502 110.559 20.566 110.414 20.5436C110.269 20.5211 110.172 20.369 110.198 20.2037C110.223 20.0384 110.362 19.9226 110.507 19.9451C110.651 19.9675 110.748 20.1197 110.723 20.285Z" fill="white"/>
<path d="M109.808 20.3765C109.782 20.5417 109.644 20.6575 109.499 20.6351C109.354 20.6126 109.257 20.4605 109.283 20.2952C109.308 20.1299 109.447 20.0141 109.592 20.0366C109.737 20.059 109.833 20.2112 109.808 20.3765Z" fill="white"/>
<path d="M108.847 20.6052C108.821 20.7705 108.683 20.8863 108.538 20.8638C108.393 20.8414 108.296 20.6892 108.322 20.5239C108.348 20.3587 108.486 20.2429 108.631 20.2653C108.776 20.2878 108.873 20.4399 108.847 20.6052Z" fill="white"/>
<path d="M107.932 20.9712C107.906 21.1365 107.768 21.2523 107.623 21.2298C107.478 21.2074 107.381 21.0552 107.407 20.8899C107.433 20.7247 107.571 20.6089 107.716 20.6313C107.861 20.6538 107.958 20.8059 107.932 20.9712Z" fill="white"/>
<path d="M107.063 21.4287C107.037 21.594 106.899 21.7097 106.754 21.6873C106.609 21.6649 106.512 21.5127 106.538 21.3474C106.563 21.1821 106.702 21.0664 106.847 21.0888C106.992 21.1112 107.088 21.2634 107.063 21.4287Z" fill="white"/>
<path d="M106.194 22.0234C106.168 22.1887 106.03 22.3045 105.885 22.282C105.74 22.2596 105.643 22.1074 105.669 21.9421C105.694 21.7769 105.832 21.6611 105.977 21.6835C106.122 21.706 106.219 21.8581 106.194 22.0234Z" fill="white"/>
<path d="M105.462 22.7096C105.436 22.8749 105.298 22.9907 105.153 22.9683C105.008 22.9458 104.911 22.7936 104.937 22.6284C104.962 22.4631 105.1 22.3473 105.245 22.3698C105.39 22.3922 105.487 22.5444 105.462 22.7096Z" fill="white"/>
<path d="M104.73 23.4874C104.704 23.6526 104.566 23.7684 104.421 23.746C104.276 23.7235 104.179 23.5714 104.205 23.4061C104.23 23.2408 104.368 23.125 104.513 23.1475C104.658 23.1699 104.755 23.3221 104.73 23.4874Z" fill="white"/>
<path d="M104.089 24.3566C104.064 24.5218 103.925 24.6376 103.78 24.6152C103.635 24.5928 103.539 24.4406 103.564 24.2753C103.59 24.11 103.728 23.9943 103.873 24.0167C104.018 24.0391 104.115 24.1913 104.089 24.3566Z" fill="white"/>
<path d="M103.586 25.3173C103.56 25.4826 103.422 25.5984 103.277 25.5759C103.132 25.5535 103.035 25.4013 103.061 25.236C103.087 25.0708 103.225 24.955 103.37 24.9774C103.515 24.9999 103.612 25.152 103.586 25.3173Z" fill="white"/>
<path d="M103.174 26.278C103.149 26.4433 103.01 26.5591 102.865 26.5366C102.72 26.5142 102.624 26.362 102.649 26.1967C102.675 26.0315 102.813 25.9157 102.958 25.9381C103.103 25.9606 103.2 26.1127 103.174 26.278Z" fill="white"/>
<path d="M102.808 27.2845C102.783 27.4497 102.644 27.5655 102.499 27.5431C102.354 27.5207 102.258 27.3685 102.283 27.2032C102.309 27.0379 102.447 26.9222 102.592 26.9446C102.737 26.967 102.834 27.1192 102.808 27.2845Z" fill="white"/>
<path d="M102.579 28.3367C102.554 28.502 102.416 28.6177 102.271 28.5953C102.126 28.5729 102.029 28.4207 102.054 28.2554C102.08 28.0901 102.218 27.9744 102.363 27.9968C102.508 28.0192 102.605 28.1714 102.579 28.3367Z" fill="white"/>
<path d="M102.442 29.4346C102.417 29.5999 102.278 29.7157 102.133 29.6933C101.988 29.6708 101.892 29.5187 101.917 29.3534C101.943 29.1881 102.081 29.0723 102.226 29.0948C102.371 29.1172 102.468 29.2694 102.442 29.4346Z" fill="white"/>
<path d="M102.442 30.5326C102.417 30.6979 102.278 30.8137 102.133 30.7912C101.988 30.7688 101.892 30.6166 101.917 30.4513C101.943 30.2861 102.081 30.1703 102.226 30.1927C102.371 30.2152 102.468 30.3673 102.442 30.5326Z" fill="white"/>
<path d="M102.534 31.5848C102.508 31.7501 102.37 31.8659 102.225 31.8434C102.08 31.821 101.983 31.6688 102.009 31.5036C102.034 31.3383 102.173 31.2225 102.318 31.2449C102.463 31.2674 102.559 31.4195 102.534 31.5848Z" fill="white"/>
<path d="M102.762 32.637C102.737 32.8023 102.599 32.9181 102.454 32.8957C102.309 32.8732 102.212 32.721 102.237 32.5558C102.263 32.3905 102.401 32.2747 102.546 32.2972C102.691 32.3196 102.788 32.4718 102.762 32.637Z" fill="white"/>
<path d="M103.083 33.552C103.057 33.7173 102.919 33.8331 102.774 33.8106C102.629 33.7882 102.532 33.636 102.558 33.4707C102.583 33.3055 102.722 33.1897 102.867 33.2121C103.012 33.2346 103.108 33.3867 103.083 33.552Z" fill="white"/>
<path d="M103.494 34.5127C103.469 34.678 103.331 34.7938 103.186 34.7713C103.041 34.7489 102.944 34.5967 102.969 34.4315C102.995 34.2662 103.133 34.1504 103.278 34.1728C103.423 34.1953 103.52 34.3474 103.494 34.5127Z" fill="white"/>
<path d="M103.998 35.3819C103.972 35.5472 103.834 35.663 103.689 35.6406C103.544 35.6181 103.447 35.4659 103.473 35.3007C103.498 35.1354 103.637 35.0196 103.781 35.0421C103.926 35.0645 104.023 35.2167 103.998 35.3819Z" fill="white"/>
<path d="M104.592 36.1597C104.567 36.3249 104.429 36.4407 104.284 36.4183C104.139 36.3958 104.042 36.2437 104.067 36.0784C104.093 35.9131 104.231 35.7973 104.376 35.8198C104.521 35.8422 104.618 35.9944 104.592 36.1597Z" fill="white"/>
<path d="M105.324 36.8459C105.299 37.0112 105.161 37.1269 105.016 37.1045C104.871 37.0821 104.774 36.9299 104.799 36.7646C104.825 36.5993 104.963 36.4836 105.108 36.506C105.253 36.5284 105.35 36.6806 105.324 36.8459Z" fill="white"/>
<path d="M106.056 37.4406C106.031 37.6059 105.893 37.7217 105.748 37.6992C105.603 37.6768 105.506 37.5246 105.531 37.3593C105.557 37.1941 105.695 37.0783 105.84 37.1007C105.985 37.1232 106.082 37.2753 106.056 37.4406Z" fill="white"/>
<path d="M106.88 37.9438C106.854 38.1091 106.716 38.2249 106.571 38.2025C106.426 38.18 106.329 38.0279 106.355 37.8626C106.38 37.6973 106.519 37.5815 106.664 37.604C106.809 37.6264 106.905 37.7786 106.88 37.9438Z" fill="white"/>
<path d="M107.749 38.3098C107.723 38.4751 107.585 38.5909 107.44 38.5684C107.295 38.546 107.198 38.3938 107.224 38.2286C107.25 38.0633 107.388 37.9475 107.533 37.9699C107.678 37.9924 107.775 38.1446 107.749 38.3098Z" fill="white"/>
<path d="M108.664 38.5386C108.638 38.7038 108.5 38.8196 108.355 38.7972C108.21 38.7748 108.113 38.6226 108.139 38.4573C108.165 38.292 108.303 38.1762 108.448 38.1987C108.593 38.2211 108.69 38.3733 108.664 38.5386Z" fill="white"/>
<path d="M109.625 38.6758C109.599 38.8411 109.461 38.9569 109.316 38.9344C109.171 38.912 109.074 38.7598 109.1 38.5946C109.125 38.4293 109.264 38.3135 109.409 38.3359C109.554 38.3584 109.65 38.5105 109.625 38.6758Z" fill="white"/>
<path d="M110.54 38.6758C110.514 38.8411 110.376 38.9569 110.231 38.9344C110.086 38.912 109.989 38.7598 110.015 38.5946C110.04 38.4293 110.179 38.3135 110.324 38.3359C110.468 38.3584 110.565 38.5105 110.54 38.6758Z" fill="white"/>
<path d="M111.5 38.5843C111.475 38.7496 111.337 38.8654 111.192 38.8429C111.047 38.8205 110.95 38.6683 110.975 38.5031C111.001 38.3378 111.139 38.222 111.284 38.2444C111.429 38.2669 111.526 38.4191 111.5 38.5843Z" fill="white"/>
<path d="M112.461 38.3556C112.436 38.5208 112.297 38.6366 112.152 38.6142C112.007 38.5918 111.911 38.4396 111.936 38.2743C111.962 38.109 112.1 37.9933 112.245 38.0157C112.39 38.0381 112.487 38.1903 112.461 38.3556Z" fill="white"/>
<path d="M113.376 37.9896C113.351 38.1549 113.212 38.2707 113.067 38.2482C112.922 38.2258 112.826 38.0736 112.851 37.9083C112.877 37.7431 113.015 37.6273 113.16 37.6497C113.305 37.6721 113.402 37.8243 113.376 37.9896Z" fill="white"/>
<path d="M114.245 37.4864C114.22 37.6516 114.081 37.7674 113.936 37.745C113.792 37.7225 113.695 37.5704 113.72 37.4051C113.746 37.2398 113.884 37.124 114.029 37.1465C114.174 37.1689 114.271 37.3211 114.245 37.4864Z" fill="white"/>
<path d="M115.069 36.8916C115.043 37.0569 114.905 37.1727 114.76 37.1503C114.615 37.1278 114.518 36.9756 114.544 36.8104C114.569 36.6451 114.708 36.5293 114.853 36.5517C114.998 36.5742 115.094 36.7264 115.069 36.8916Z" fill="white"/>
<path d="M115.847 36.2054C115.821 36.3707 115.683 36.4865 115.538 36.464C115.393 36.4416 115.296 36.2894 115.322 36.1241C115.347 35.9589 115.485 35.8431 115.63 35.8655C115.775 35.888 115.872 36.0401 115.847 36.2054Z" fill="white"/>
<path d="M116.578 35.4734C116.553 35.6387 116.415 35.7545 116.27 35.7321C116.125 35.7096 116.028 35.5574 116.053 35.3922C116.079 35.2269 116.217 35.1111 116.362 35.1335C116.507 35.156 116.604 35.3082 116.578 35.4734Z" fill="white"/>
<path d="M107.681 39.5076C107.681 39.7224 107.507 39.8965 107.292 39.8965C107.077 39.8965 106.903 39.7224 106.903 39.5076C106.903 39.2929 107.077 39.1188 107.292 39.1188C107.507 39.1188 107.681 39.2929 107.681 39.5076Z" fill="white"/>
<path d="M108.962 39.7821C108.962 39.9969 108.788 40.171 108.573 40.171C108.358 40.171 108.184 39.9969 108.184 39.7821C108.184 39.5674 108.358 39.3933 108.573 39.3933C108.788 39.3933 108.962 39.5674 108.962 39.7821Z" fill="white"/>
<path d="M110.243 39.9194C110.243 40.1341 110.069 40.3082 109.854 40.3082C109.639 40.3082 109.465 40.1341 109.465 39.9194C109.465 39.7046 109.639 39.5305 109.854 39.5305C110.069 39.5305 110.243 39.7046 110.243 39.9194Z" fill="white"/>
<path d="M111.615 39.9194C111.615 40.1341 111.441 40.3082 111.226 40.3082C111.012 40.3082 110.838 40.1341 110.838 39.9194C110.838 39.7046 111.012 39.5305 111.226 39.5305C111.441 39.5305 111.615 39.7046 111.615 39.9194Z" fill="white"/>
<path d="M112.896 39.7821C112.896 39.9969 112.722 40.171 112.507 40.171C112.293 40.171 112.119 39.9969 112.119 39.7821C112.119 39.5674 112.293 39.3933 112.507 39.3933C112.722 39.3933 112.896 39.5674 112.896 39.7821Z" fill="white"/>
<path d="M114.177 39.5076C114.177 39.7224 114.003 39.8965 113.788 39.8965C113.574 39.8965 113.4 39.7224 113.4 39.5076C113.4 39.2929 113.574 39.1188 113.788 39.1188C114.003 39.1188 114.177 39.2929 114.177 39.5076Z" fill="white"/>
<path d="M115.412 39.0044C115.412 39.2192 115.238 39.3933 115.024 39.3933C114.809 39.3933 114.635 39.2192 114.635 39.0044C114.635 38.7896 114.809 38.6155 115.024 38.6155C115.238 38.6155 115.412 38.7896 115.412 39.0044Z" fill="white"/>
<path d="M116.602 38.4554C116.602 38.6702 116.428 38.8443 116.213 38.8443C115.998 38.8443 115.824 38.6702 115.824 38.4554C115.824 38.2407 115.998 38.0666 116.213 38.0666C116.428 38.0666 116.602 38.2407 116.602 38.4554Z" fill="white"/>
<path d="M117.7 37.6777C117.7 37.8925 117.526 38.0666 117.311 38.0666C117.096 38.0666 116.922 37.8925 116.922 37.6777C116.922 37.4629 117.096 37.2888 117.311 37.2888C117.526 37.2888 117.7 37.4629 117.7 37.6777Z" fill="white"/>
<path d="M118.706 36.9C118.706 37.1147 118.532 37.2888 118.317 37.2888C118.103 37.2888 117.929 37.1147 117.929 36.9C117.929 36.6852 118.103 36.5111 118.317 36.5111C118.532 36.5111 118.706 36.6852 118.706 36.9Z" fill="white"/>
<path d="M119.621 35.8935C119.621 36.1083 119.447 36.2824 119.232 36.2824C119.018 36.2824 118.844 36.1083 118.844 35.8935C118.844 35.6788 119.018 35.5047 119.232 35.5047C119.447 35.5047 119.621 35.6788 119.621 35.8935Z" fill="white"/>
<path d="M120.399 34.8413C120.399 35.0561 120.225 35.2302 120.01 35.2302C119.795 35.2302 119.621 35.0561 119.621 34.8413C119.621 34.6265 119.795 34.4524 120.01 34.4524C120.225 34.4524 120.399 34.6265 120.399 34.8413Z" fill="white"/>
<path d="M121.04 33.6976C121.04 33.9124 120.865 34.0865 120.651 34.0865C120.436 34.0865 120.262 33.9124 120.262 33.6976C120.262 33.4828 120.436 33.3087 120.651 33.3087C120.865 33.3087 121.04 33.4828 121.04 33.6976Z" fill="white"/>
<path d="M121.589 32.5081C121.589 32.7229 121.414 32.897 121.2 32.897C120.985 32.897 120.811 32.7229 120.811 32.5081C120.811 32.2934 120.985 32.1193 121.2 32.1193C121.414 32.1193 121.589 32.2934 121.589 32.5081Z" fill="white"/>
<path d="M121.954 31.2729C121.954 31.4877 121.78 31.6618 121.566 31.6618C121.351 31.6618 121.177 31.4877 121.177 31.2729C121.177 31.0582 121.351 30.8841 121.566 30.8841C121.78 30.8841 121.954 31.0582 121.954 31.2729Z" fill="white"/>
<path d="M122.183 29.9462C122.183 30.161 122.009 30.3351 121.794 30.3351C121.58 30.3351 121.406 30.161 121.406 29.9462C121.406 29.7315 121.58 29.5574 121.794 29.5574C122.009 29.5574 122.183 29.7315 122.183 29.9462Z" fill="white"/>
<path d="M122.183 28.6195C122.183 28.8343 122.009 29.0084 121.794 29.0084C121.58 29.0084 121.406 28.8343 121.406 28.6195C121.406 28.4048 121.58 28.2307 121.794 28.2307C122.009 28.2307 122.183 28.4048 122.183 28.6195Z" fill="white"/>
<path d="M122.183 27.2928C122.183 27.5076 122.009 27.6817 121.794 27.6817C121.58 27.6817 121.406 27.5076 121.406 27.2928C121.406 27.0781 121.58 26.904 121.794 26.904C122.009 26.904 122.183 27.0781 122.183 27.2928Z" fill="white"/>
<path d="M121.954 26.0576C121.954 26.2724 121.78 26.4465 121.566 26.4465C121.351 26.4465 121.177 26.2724 121.177 26.0576C121.177 25.8429 121.351 25.6688 121.566 25.6688C121.78 25.6688 121.954 25.8429 121.954 26.0576Z" fill="white"/>
<path d="M121.589 24.7309C121.589 24.9457 121.414 25.1198 121.2 25.1198C120.985 25.1198 120.811 24.9457 120.811 24.7309C120.811 24.5162 120.985 24.3421 121.2 24.3421C121.414 24.3421 121.589 24.5162 121.589 24.7309Z" fill="white"/>
<path d="M121.04 23.5872C121.04 23.802 120.865 23.9761 120.651 23.9761C120.436 23.9761 120.262 23.802 120.262 23.5872C120.262 23.3724 120.436 23.1983 120.651 23.1983C120.865 23.1983 121.04 23.3724 121.04 23.5872Z" fill="white"/>
<path d="M120.399 22.4435C120.399 22.6583 120.225 22.8324 120.01 22.8324C119.795 22.8324 119.621 22.6583 119.621 22.4435C119.621 22.2287 119.795 22.0546 120.01 22.0546C120.225 22.0546 120.399 22.2287 120.399 22.4435Z" fill="white"/>
<path d="M119.621 21.437C119.621 21.6518 119.447 21.8259 119.232 21.8259C119.018 21.8259 118.844 21.6518 118.844 21.437C118.844 21.2223 119.018 21.0482 119.232 21.0482C119.447 21.0482 119.621 21.2223 119.621 21.437Z" fill="white"/>
<path d="M118.661 20.3848C118.661 20.5996 118.487 20.7737 118.272 20.7737C118.057 20.7737 117.883 20.5996 117.883 20.3848C117.883 20.1701 118.057 19.996 118.272 19.996C118.487 19.996 118.661 20.1701 118.661 20.3848Z" fill="white"/>
<path d="M117.7 19.6071C117.7 19.8219 117.526 19.996 117.311 19.996C117.096 19.996 116.922 19.8219 116.922 19.6071C116.922 19.3923 117.096 19.2182 117.311 19.2182C117.526 19.2182 117.7 19.3923 117.7 19.6071Z" fill="white"/>
<path d="M116.602 18.8294C116.602 19.0441 116.428 19.2182 116.213 19.2182C115.998 19.2182 115.824 19.0441 115.824 18.8294C115.824 18.6146 115.998 18.4405 116.213 18.4405C116.428 18.4405 116.602 18.6146 116.602 18.8294Z" fill="white"/>
<path d="M115.458 18.2804C115.458 18.4952 115.284 18.6693 115.069 18.6693C114.855 18.6693 114.681 18.4952 114.681 18.2804C114.681 18.0656 114.855 17.8915 115.069 17.8915C115.284 17.8915 115.458 18.0656 115.458 18.2804Z" fill="white"/>
<path d="M114.177 17.7772C114.177 17.9919 114.003 18.166 113.788 18.166C113.574 18.166 113.4 17.9919 113.4 17.7772C113.4 17.5624 113.574 17.3883 113.788 17.3883C114.003 17.3883 114.177 17.5624 114.177 17.7772Z" fill="white"/>
<path d="M112.942 17.5027C112.942 17.7174 112.768 17.8915 112.553 17.8915C112.338 17.8915 112.164 17.7174 112.164 17.5027C112.164 17.2879 112.338 17.1138 112.553 17.1138C112.768 17.1138 112.942 17.2879 112.942 17.5027Z" fill="white"/>
<path d="M111.57 17.3654C111.57 17.5802 111.396 17.7543 111.181 17.7543C110.966 17.7543 110.792 17.5802 110.792 17.3654C110.792 17.1507 110.966 16.9766 111.181 16.9766C111.396 16.9766 111.57 17.1507 111.57 17.3654Z" fill="white"/>
<path d="M110.334 17.3654C110.334 17.5802 110.16 17.7543 109.946 17.7543C109.731 17.7543 109.557 17.5802 109.557 17.3654C109.557 17.1507 109.731 16.9766 109.946 16.9766C110.16 16.9766 110.334 17.1507 110.334 17.3654Z" fill="white"/>
<path d="M108.962 17.5027C108.962 17.7174 108.788 17.8915 108.573 17.8915C108.358 17.8915 108.184 17.7174 108.184 17.5027C108.184 17.2879 108.358 17.1138 108.573 17.1138C108.788 17.1138 108.962 17.2879 108.962 17.5027Z" fill="white"/>
<path d="M107.681 17.7772C107.681 17.9919 107.507 18.166 107.292 18.166C107.077 18.166 106.903 17.9919 106.903 17.7772C106.903 17.5624 107.077 17.3883 107.292 17.3883C107.507 17.3883 107.681 17.5624 107.681 17.7772Z" fill="white"/>
<path d="M106.492 18.2804C106.492 18.4952 106.317 18.6693 106.103 18.6693C105.888 18.6693 105.714 18.4952 105.714 18.2804C105.714 18.0656 105.888 17.8915 106.103 17.8915C106.317 17.8915 106.492 18.0656 106.492 18.2804Z" fill="white"/>
<path d="M105.256 18.8751C105.256 19.0899 105.082 19.264 104.867 19.264C104.653 19.264 104.479 19.0899 104.479 18.8751C104.479 18.6604 104.653 18.4863 104.867 18.4863C105.082 18.4863 105.256 18.6604 105.256 18.8751Z" fill="white"/>
<path d="M104.158 19.5613C104.158 19.7761 103.984 19.9502 103.77 19.9502C103.555 19.9502 103.381 19.7761 103.381 19.5613C103.381 19.3466 103.555 19.1725 103.77 19.1725C103.984 19.1725 104.158 19.3466 104.158 19.5613Z" fill="white"/>
<path d="M103.152 20.4306C103.152 20.6453 102.978 20.8194 102.763 20.8194C102.548 20.8194 102.374 20.6453 102.374 20.4306C102.374 20.2158 102.548 20.0417 102.763 20.0417C102.978 20.0417 103.152 20.2158 103.152 20.4306Z" fill="white"/>
<path d="M102.283 21.3913C102.283 21.606 102.109 21.7801 101.894 21.7801C101.679 21.7801 101.505 21.606 101.505 21.3913C101.505 21.1765 101.679 21.0024 101.894 21.0024C102.109 21.0024 102.283 21.1765 102.283 21.3913Z" fill="white"/>
<path d="M101.505 22.4435C101.505 22.6583 101.331 22.8324 101.116 22.8324C100.901 22.8324 100.727 22.6583 100.727 22.4435C100.727 22.2287 100.901 22.0546 101.116 22.0546C101.331 22.0546 101.505 22.2287 101.505 22.4435Z" fill="white"/>
<path d="M100.819 23.5872C100.819 23.802 100.645 23.9761 100.43 23.9761C100.215 23.9761 100.041 23.802 100.041 23.5872C100.041 23.3724 100.215 23.1983 100.43 23.1983C100.645 23.1983 100.819 23.3724 100.819 23.5872Z" fill="white"/>
<path d="M100.27 24.7767C100.27 24.9914 100.096 25.1655 99.8809 25.1655C99.6661 25.1655 99.492 24.9914 99.492 24.7767C99.492 24.5619 99.6661 24.3878 99.8809 24.3878C100.096 24.3878 100.27 24.5619 100.27 24.7767Z" fill="white"/>
<path d="M99.9038 26.0119C99.9038 26.2266 99.7297 26.4007 99.5149 26.4007C99.3002 26.4007 99.1261 26.2266 99.1261 26.0119C99.1261 25.7971 99.3002 25.623 99.5149 25.623C99.7297 25.623 99.9038 25.7971 99.9038 26.0119Z" fill="white"/>
<path d="M99.7208 27.3843C99.7208 27.5991 99.5467 27.7732 99.3319 27.7732C99.1172 27.7732 98.9431 27.5991 98.9431 27.3843C98.9431 27.1696 99.1172 26.9955 99.3319 26.9955C99.5467 26.9955 99.7208 27.1696 99.7208 27.3843Z" fill="white"/>
<path d="M99.6293 28.711C99.6293 28.9258 99.4552 29.0999 99.2404 29.0999C99.0257 29.0999 98.8516 28.9258 98.8516 28.711C98.8516 28.4963 99.0257 28.3222 99.2404 28.3222C99.4552 28.3222 99.6293 28.4963 99.6293 28.711Z" fill="white"/>
<path d="M99.7208 29.9462C99.7208 30.161 99.5467 30.3351 99.3319 30.3351C99.1172 30.3351 98.9431 30.161 98.9431 29.9462C98.9431 29.7315 99.1172 29.5574 99.3319 29.5574C99.5467 29.5574 99.7208 29.7315 99.7208 29.9462Z" fill="white"/>
<path d="M99.9038 31.2729C99.9038 31.4877 99.7297 31.6618 99.5149 31.6618C99.3002 31.6618 99.1261 31.4877 99.1261 31.2729C99.1261 31.0582 99.3002 30.8841 99.5149 30.8841C99.7297 30.8841 99.9038 31.0582 99.9038 31.2729Z" fill="white"/>
<path d="M100.316 32.5081C100.316 32.7229 100.141 32.897 99.9266 32.897C99.7119 32.897 99.5378 32.7229 99.5378 32.5081C99.5378 32.2934 99.7119 32.1193 99.9266 32.1193C100.141 32.1193 100.316 32.2934 100.316 32.5081Z" fill="white"/>
<path d="M100.819 33.6976C100.819 33.9124 100.645 34.0865 100.43 34.0865C100.215 34.0865 100.041 33.9124 100.041 33.6976C100.041 33.4828 100.215 33.3087 100.43 33.3087C100.645 33.3087 100.819 33.4828 100.819 33.6976Z" fill="white"/>
<path d="M101.505 34.8413C101.505 35.0561 101.331 35.2302 101.116 35.2302C100.901 35.2302 100.727 35.0561 100.727 34.8413C100.727 34.6265 100.901 34.4524 101.116 34.4524C101.331 34.4524 101.505 34.6265 101.505 34.8413Z" fill="white"/>
<path d="M102.283 35.8935C102.283 36.1083 102.109 36.2824 101.894 36.2824C101.679 36.2824 101.505 36.1083 101.505 35.8935C101.505 35.6788 101.679 35.5047 101.894 35.5047C102.109 35.5047 102.283 35.6788 102.283 35.8935Z" fill="white"/>
<path d="M103.198 36.9C103.198 37.1147 103.024 37.2888 102.809 37.2888C102.594 37.2888 102.42 37.1147 102.42 36.9C102.42 36.6852 102.594 36.5111 102.809 36.5111C103.024 36.5111 103.198 36.6852 103.198 36.9Z" fill="white"/>
<path d="M104.158 37.6777C104.158 37.8925 103.984 38.0666 103.77 38.0666C103.555 38.0666 103.381 37.8925 103.381 37.6777C103.381 37.4629 103.555 37.2888 103.77 37.2888C103.984 37.2888 104.158 37.4629 104.158 37.6777Z" fill="white"/>
<path d="M105.256 38.4554C105.256 38.6702 105.082 38.8443 104.867 38.8443C104.653 38.8443 104.479 38.6702 104.479 38.4554C104.479 38.2407 104.653 38.0666 104.867 38.0666C105.082 38.0666 105.256 38.2407 105.256 38.4554Z" fill="white"/>
<path d="M106.492 39.0044C106.492 39.2192 106.317 39.3933 106.103 39.3933C105.888 39.3933 105.714 39.2192 105.714 39.0044C105.714 38.7896 105.888 38.6155 106.103 38.6155C106.317 38.6155 106.492 38.7896 106.492 39.0044Z" fill="white"/>
<path d="M105.394 27.4758C105.394 27.5895 105.301 27.6817 105.188 27.6817C105.074 27.6817 104.982 27.5895 104.982 27.4758C104.982 27.3621 105.074 27.2699 105.188 27.2699C105.301 27.2699 105.394 27.3621 105.394 27.4758Z" fill="white"/>
<path d="M105.668 26.8353C105.668 26.949 105.576 27.0412 105.462 27.0412C105.349 27.0412 105.256 26.949 105.256 26.8353C105.256 26.7216 105.349 26.6295 105.462 26.6295C105.576 26.6295 105.668 26.7216 105.668 26.8353Z" fill="white"/>
<path d="M106.08 26.2406C106.08 26.3543 105.988 26.4465 105.874 26.4465C105.76 26.4465 105.668 26.3543 105.668 26.2406C105.668 26.1269 105.76 26.0347 105.874 26.0347C105.988 26.0347 106.08 26.1269 106.08 26.2406Z" fill="white"/>
<path d="M106.492 25.6916C106.492 25.8053 106.399 25.8975 106.286 25.8975C106.172 25.8975 106.08 25.8053 106.08 25.6916C106.08 25.5779 106.172 25.4858 106.286 25.4858C106.399 25.4858 106.492 25.5779 106.492 25.6916Z" fill="white"/>
<path d="M106.995 25.2341C106.995 25.3478 106.903 25.44 106.789 25.44C106.675 25.44 106.583 25.3478 106.583 25.2341C106.583 25.1204 106.675 25.0283 106.789 25.0283C106.903 25.0283 106.995 25.1204 106.995 25.2341Z" fill="white"/>
<path d="M107.544 24.8224C107.544 24.9361 107.452 25.0283 107.338 25.0283C107.224 25.0283 107.132 24.9361 107.132 24.8224C107.132 24.7087 107.224 24.6165 107.338 24.6165C107.452 24.6165 107.544 24.7087 107.544 24.8224Z" fill="white"/>
<path d="M108.184 24.4564C108.184 24.5701 108.092 24.6623 107.978 24.6623C107.865 24.6623 107.772 24.5701 107.772 24.4564C107.772 24.3427 107.865 24.2506 107.978 24.2506C108.092 24.2506 108.184 24.3427 108.184 24.4564Z" fill="white"/>
<path d="M108.825 24.2277C108.825 24.3414 108.733 24.4335 108.619 24.4335C108.505 24.4335 108.413 24.3414 108.413 24.2277C108.413 24.114 108.505 24.0218 108.619 24.0218C108.733 24.0218 108.825 24.114 108.825 24.2277Z" fill="white"/>
<path d="M109.465 24.0447C109.465 24.1584 109.373 24.2506 109.259 24.2506C109.146 24.2506 109.053 24.1584 109.053 24.0447C109.053 23.931 109.146 23.8388 109.259 23.8388C109.373 23.8388 109.465 23.931 109.465 24.0447Z" fill="white"/>
<path d="M110.197 23.9532C110.197 24.0669 110.105 24.1591 109.991 24.1591C109.878 24.1591 109.785 24.0669 109.785 23.9532C109.785 23.8395 109.878 23.7473 109.991 23.7473C110.105 23.7473 110.197 23.8395 110.197 23.9532Z" fill="white"/>
<path d="M110.883 23.9074C110.883 24.0211 110.791 24.1133 110.678 24.1133C110.564 24.1133 110.472 24.0211 110.472 23.9074C110.472 23.7937 110.564 23.7016 110.678 23.7016C110.791 23.7016 110.883 23.7937 110.883 23.9074Z" fill="white"/>
<path d="M111.57 23.9989C111.57 24.1126 111.477 24.2048 111.364 24.2048C111.25 24.2048 111.158 24.1126 111.158 23.9989C111.158 23.8852 111.25 23.7931 111.364 23.7931C111.477 23.7931 111.57 23.8852 111.57 23.9989Z" fill="white"/>
<path d="M112.256 24.1362C112.256 24.2499 112.164 24.3421 112.05 24.3421C111.936 24.3421 111.844 24.2499 111.844 24.1362C111.844 24.0225 111.936 23.9303 112.05 23.9303C112.164 23.9303 112.256 24.0225 112.256 24.1362Z" fill="white"/>
<path d="M112.942 24.3649C112.942 24.4786 112.85 24.5708 112.736 24.5708C112.622 24.5708 112.53 24.4786 112.53 24.3649C112.53 24.2512 112.622 24.1591 112.736 24.1591C112.85 24.1591 112.942 24.2512 112.942 24.3649Z" fill="white"/>
<path d="M113.583 24.7309C113.583 24.8446 113.49 24.9368 113.377 24.9368C113.263 24.9368 113.171 24.8446 113.171 24.7309C113.171 24.6172 113.263 24.525 113.377 24.525C113.49 24.525 113.583 24.6172 113.583 24.7309Z" fill="white"/>
<path d="M114.177 25.0969C114.177 25.2106 114.085 25.3028 113.971 25.3028C113.858 25.3028 113.766 25.2106 113.766 25.0969C113.766 24.9832 113.858 24.891 113.971 24.891C114.085 24.891 114.177 24.9832 114.177 25.0969Z" fill="white"/>
<path d="M114.772 25.5544C114.772 25.6681 114.68 25.7603 114.566 25.7603C114.452 25.7603 114.36 25.6681 114.36 25.5544C114.36 25.4407 114.452 25.3485 114.566 25.3485C114.68 25.3485 114.772 25.4407 114.772 25.5544Z" fill="white"/>
<path d="M115.275 26.0576C115.275 26.1713 115.183 26.2635 115.069 26.2635C114.956 26.2635 114.863 26.1713 114.863 26.0576C114.863 25.9439 114.956 25.8517 115.069 25.8517C115.183 25.8517 115.275 25.9439 115.275 26.0576Z" fill="white"/>
<path d="M115.733 26.6523C115.733 26.766 115.641 26.8582 115.527 26.8582C115.413 26.8582 115.321 26.766 115.321 26.6523C115.321 26.5386 115.413 26.4465 115.527 26.4465C115.641 26.4465 115.733 26.5386 115.733 26.6523Z" fill="white"/>
<path d="M116.144 27.2928C116.144 27.4065 116.052 27.4987 115.939 27.4987C115.825 27.4987 115.733 27.4065 115.733 27.2928C115.733 27.1791 115.825 27.087 115.939 27.087C116.052 27.087 116.144 27.1791 116.144 27.2928Z" fill="white"/>
<path d="M116.465 27.9333C116.465 28.047 116.373 28.1392 116.259 28.1392C116.145 28.1392 116.053 28.047 116.053 27.9333C116.053 27.8196 116.145 27.7274 116.259 27.7274C116.373 27.7274 116.465 27.8196 116.465 27.9333Z" fill="white"/>
<path d="M116.693 28.6195C116.693 28.7332 116.601 28.8254 116.488 28.8254C116.374 28.8254 116.282 28.7332 116.282 28.6195C116.282 28.5058 116.374 28.4137 116.488 28.4137C116.601 28.4137 116.693 28.5058 116.693 28.6195Z" fill="white"/>
<path d="M116.876 29.3515C116.876 29.4652 116.784 29.5574 116.671 29.5574C116.557 29.5574 116.465 29.4652 116.465 29.3515C116.465 29.2378 116.557 29.1456 116.671 29.1456C116.784 29.1456 116.876 29.2378 116.876 29.3515Z" fill="white"/>
<path d="M116.968 30.0835C116.968 30.1972 116.876 30.2893 116.762 30.2893C116.648 30.2893 116.556 30.1972 116.556 30.0835C116.556 29.9698 116.648 29.8776 116.762 29.8776C116.876 29.8776 116.968 29.9698 116.968 30.0835Z" fill="white"/>
<path d="M116.968 30.8154C116.968 30.9291 116.876 31.0213 116.762 31.0213C116.648 31.0213 116.556 30.9291 116.556 30.8154C116.556 30.7017 116.648 30.6096 116.762 30.6096C116.876 30.6096 116.968 30.7017 116.968 30.8154Z" fill="white"/>
<path d="M116.922 31.5474C116.922 31.6611 116.83 31.7533 116.716 31.7533C116.603 31.7533 116.51 31.6611 116.51 31.5474C116.51 31.4337 116.603 31.3416 116.716 31.3416C116.83 31.3416 116.922 31.4337 116.922 31.5474Z" fill="white"/>
<path d="M116.739 32.2336C116.739 32.3473 116.647 32.4395 116.533 32.4395C116.42 32.4395 116.327 32.3473 116.327 32.2336C116.327 32.1199 116.42 32.0278 116.533 32.0278C116.647 32.0278 116.739 32.1199 116.739 32.2336Z" fill="white"/>
<path d="M116.51 32.9199C116.51 33.0336 116.418 33.1257 116.305 33.1257C116.191 33.1257 116.099 33.0336 116.099 32.9199C116.099 32.8062 116.191 32.714 116.305 32.714C116.418 32.714 116.51 32.8062 116.51 32.9199Z" fill="white"/>
<path d="M116.19 33.5603C116.19 33.674 116.098 33.7662 115.984 33.7662C115.871 33.7662 115.778 33.674 115.778 33.5603C115.778 33.4467 115.871 33.3545 115.984 33.3545C116.098 33.3545 116.19 33.4467 116.19 33.5603Z" fill="white"/>
<path d="M115.824 34.1551C115.824 34.2688 115.732 34.3609 115.618 34.3609C115.505 34.3609 115.412 34.2688 115.412 34.1551C115.412 34.0414 115.505 33.9492 115.618 33.9492C115.732 33.9492 115.824 34.0414 115.824 34.1551Z" fill="white"/>
<path d="M115.412 34.7041C115.412 34.8178 115.32 34.9099 115.207 34.9099C115.093 34.9099 115.001 34.8178 115.001 34.7041C115.001 34.5904 115.093 34.4982 115.207 34.4982C115.32 34.4982 115.412 34.5904 115.412 34.7041Z" fill="white"/>
<path d="M114.909 35.1615C114.909 35.2752 114.817 35.3674 114.703 35.3674C114.59 35.3674 114.498 35.2752 114.498 35.1615C114.498 35.0478 114.59 34.9557 114.703 34.9557C114.817 34.9557 114.909 35.0478 114.909 35.1615Z" fill="white"/>
<path d="M114.36 35.5733C114.36 35.687 114.268 35.7791 114.154 35.7791C114.041 35.7791 113.949 35.687 113.949 35.5733C113.949 35.4596 114.041 35.3674 114.154 35.3674C114.268 35.3674 114.36 35.4596 114.36 35.5733Z" fill="white"/>
<path d="M113.72 35.9393C113.72 36.053 113.628 36.1451 113.514 36.1451C113.4 36.1451 113.308 36.053 113.308 35.9393C113.308 35.8256 113.4 35.7334 113.514 35.7334C113.628 35.7334 113.72 35.8256 113.72 35.9393Z" fill="white"/>
<path d="M113.079 36.168C113.079 36.2817 112.987 36.3739 112.873 36.3739C112.76 36.3739 112.668 36.2817 112.668 36.168C112.668 36.0543 112.76 35.9621 112.873 35.9621C112.987 35.9621 113.079 36.0543 113.079 36.168Z" fill="white"/>
<path d="M112.439 36.351C112.439 36.4647 112.347 36.5569 112.233 36.5569C112.119 36.5569 112.027 36.4647 112.027 36.351C112.027 36.2373 112.119 36.1451 112.233 36.1451C112.347 36.1451 112.439 36.2373 112.439 36.351Z" fill="white"/>
<path d="M111.021 36.4882C111.021 36.6019 110.928 36.6941 110.815 36.6941C110.701 36.6941 110.609 36.6019 110.609 36.4882C110.609 36.3745 110.701 36.2824 110.815 36.2824C110.928 36.2824 111.021 36.3745 111.021 36.4882Z" fill="white"/>
<path d="M110.334 36.3967C110.334 36.5104 110.242 36.6026 110.129 36.6026C110.015 36.6026 109.923 36.5104 109.923 36.3967C109.923 36.2831 110.015 36.1909 110.129 36.1909C110.242 36.1909 110.334 36.2831 110.334 36.3967Z" fill="white"/>
<path d="M109.648 36.2595C109.648 36.3732 109.556 36.4654 109.442 36.4654C109.329 36.4654 109.236 36.3732 109.236 36.2595C109.236 36.1458 109.329 36.0536 109.442 36.0536C109.556 36.0536 109.648 36.1458 109.648 36.2595Z" fill="white"/>
<path d="M108.962 35.985C108.962 36.0987 108.87 36.1909 108.756 36.1909C108.642 36.1909 108.55 36.0987 108.55 35.985C108.55 35.8713 108.642 35.7791 108.756 35.7791C108.87 35.7791 108.962 35.8713 108.962 35.985Z" fill="white"/>
<path d="M108.321 35.6648C108.321 35.7785 108.229 35.8706 108.116 35.8706C108.002 35.8706 107.91 35.7785 107.91 35.6648C107.91 35.5511 108.002 35.4589 108.116 35.4589C108.229 35.4589 108.321 35.5511 108.321 35.6648Z" fill="white"/>
<path d="M107.681 35.2988C107.681 35.4125 107.589 35.5047 107.475 35.5047C107.361 35.5047 107.269 35.4125 107.269 35.2988C107.269 35.1851 107.361 35.0929 107.475 35.0929C107.589 35.0929 107.681 35.1851 107.681 35.2988Z" fill="white"/>
<path d="M107.132 34.8413C107.132 34.955 107.04 35.0472 106.926 35.0472C106.812 35.0472 106.72 34.955 106.72 34.8413C106.72 34.7276 106.812 34.6354 106.926 34.6354C107.04 34.6354 107.132 34.7276 107.132 34.8413Z" fill="white"/>
<path d="M106.629 34.2923C106.629 34.406 106.537 34.4982 106.423 34.4982C106.309 34.4982 106.217 34.406 106.217 34.2923C106.217 34.1786 106.309 34.0865 106.423 34.0865C106.537 34.0865 106.629 34.1786 106.629 34.2923Z" fill="white"/>
<path d="M106.171 33.7433C106.171 33.857 106.079 33.9492 105.965 33.9492C105.852 33.9492 105.76 33.857 105.76 33.7433C105.76 33.6296 105.852 33.5375 105.965 33.5375C106.079 33.5375 106.171 33.6296 106.171 33.7433Z" fill="white"/>
<path d="M105.76 33.1029C105.76 33.2166 105.667 33.3087 105.554 33.3087C105.44 33.3087 105.348 33.2166 105.348 33.1029C105.348 32.9892 105.44 32.897 105.554 32.897C105.667 32.897 105.76 32.9892 105.76 33.1029Z" fill="white"/>
<path d="M105.439 32.4166C105.439 32.5303 105.347 32.6225 105.233 32.6225C105.12 32.6225 105.028 32.5303 105.028 32.4166C105.028 32.3029 105.12 32.2108 105.233 32.2108C105.347 32.2108 105.439 32.3029 105.439 32.4166Z" fill="white"/>
<path d="M105.211 31.7304C105.211 31.8441 105.118 31.9363 105.005 31.9363C104.891 31.9363 104.799 31.8441 104.799 31.7304C104.799 31.6167 104.891 31.5245 105.005 31.5245C105.118 31.5245 105.211 31.6167 105.211 31.7304Z" fill="white"/>
<path d="M105.028 30.9984C105.028 31.1121 104.935 31.2043 104.822 31.2043C104.708 31.2043 104.616 31.1121 104.616 30.9984C104.616 30.8847 104.708 30.7926 104.822 30.7926C104.935 30.7926 105.028 30.8847 105.028 30.9984Z" fill="white"/>
<path d="M104.936 30.3122C104.936 30.4259 104.844 30.5181 104.73 30.5181C104.617 30.5181 104.524 30.4259 104.524 30.3122C104.524 30.1985 104.617 30.1063 104.73 30.1063C104.844 30.1063 104.936 30.1985 104.936 30.3122Z" fill="white"/>
<path d="M104.936 29.5802C104.936 29.6939 104.844 29.7861 104.73 29.7861C104.617 29.7861 104.524 29.6939 104.524 29.5802C104.524 29.4665 104.617 29.3744 104.73 29.3744C104.844 29.3744 104.936 29.4665 104.936 29.5802Z" fill="white"/>
<path d="M104.982 28.8483C104.982 28.962 104.89 29.0541 104.776 29.0541C104.662 29.0541 104.57 28.962 104.57 28.8483C104.57 28.7346 104.662 28.6424 104.776 28.6424C104.89 28.6424 104.982 28.7346 104.982 28.8483Z" fill="white"/>
<path d="M105.165 28.1163C105.165 28.23 105.073 28.3222 104.959 28.3222C104.845 28.3222 104.753 28.23 104.753 28.1163C104.753 28.0026 104.845 27.9104 104.959 27.9104C105.073 27.9104 105.165 28.0026 105.165 28.1163Z" fill="white"/>
<path d="M111.753 36.4425C111.753 36.5562 111.66 36.6484 111.547 36.6484C111.433 36.6484 111.341 36.5562 111.341 36.4425C111.341 36.3288 111.433 36.2366 111.547 36.2366C111.66 36.2366 111.753 36.3288 111.753 36.4425Z" fill="white"/>
<path d="M83.4791 84.5056C83.4213 84.3288 83.3452 84.1704 83.2507 84.0303C83.1579 83.8885 83.0467 83.7677 82.9171 83.6679C82.7893 83.5681 82.644 83.492 82.4812 83.4395C82.3184 83.3869 82.1398 83.3607 81.9455 83.3607C81.6269 83.3607 81.3371 83.443 81.0763 83.6075C80.8154 83.7721 80.608 84.0146 80.4539 84.335C80.2998 84.6553 80.2228 85.0484 80.2228 85.514C80.2228 85.9797 80.3007 86.3728 80.4565 86.6931C80.6123 87.0135 80.8233 87.256 81.0894 87.4206C81.3555 87.5851 81.6549 87.6674 81.9875 87.6674C82.2956 87.6674 82.567 87.6018 82.8016 87.4705C83.0379 87.3374 83.2218 87.1501 83.3531 86.9085C83.4861 86.6651 83.5527 86.3789 83.5527 86.0498L83.7522 86.0918H82.1346V85.514H84.1829V86.0918C84.1829 86.5347 84.0884 86.9199 83.8993 87.2472C83.712 87.5746 83.4529 87.8285 83.122 88.0088C82.7928 88.1874 82.4147 88.2767 81.9875 88.2767C81.5113 88.2767 81.0929 88.1646 80.7323 87.9405C80.3734 87.7164 80.0933 87.3978 79.8919 86.9846C79.6924 86.5715 79.5926 86.0813 79.5926 85.514C79.5926 85.0886 79.6495 84.7061 79.7633 84.3665C79.8788 84.0251 80.0416 83.7345 80.2517 83.4946C80.4618 83.2548 80.7104 83.0709 80.9975 82.9431C81.2846 82.8153 81.6006 82.7514 81.9455 82.7514C82.2291 82.7514 82.4935 82.7943 82.7386 82.8801C82.9854 82.9642 83.2051 83.0841 83.3977 83.2399C83.592 83.394 83.754 83.5786 83.8835 83.794C84.0131 84.0076 84.1024 84.2448 84.1514 84.5056H83.4791ZM87.7563 86.554V84.1695H88.376V88.2031H87.7563V87.5204H87.7143C87.6197 87.7252 87.4727 87.8994 87.2731 88.0429C87.0735 88.1847 86.8214 88.2556 86.5168 88.2556C86.2647 88.2556 86.0406 88.2005 85.8445 88.0902C85.6485 87.9782 85.4944 87.8101 85.3824 87.586C85.2703 87.3602 85.2143 87.0757 85.2143 86.7325V84.1695H85.834V86.6905C85.834 86.9846 85.9163 87.2192 86.0809 87.3943C86.2472 87.5694 86.459 87.6569 86.7164 87.6569C86.8704 87.6569 87.0271 87.6175 87.1864 87.5387C87.3475 87.46 87.4823 87.3392 87.5909 87.1763C87.7012 87.0135 87.7563 86.8061 87.7563 86.554ZM89.5112 88.2031V84.1695H90.1309V88.2031H89.5112ZM89.8263 83.4972C89.7055 83.4972 89.6013 83.4561 89.5138 83.3738C89.428 83.2915 89.3851 83.1926 89.3851 83.0771C89.3851 82.9615 89.428 82.8626 89.5138 82.7803C89.6013 82.698 89.7055 82.6569 89.8263 82.6569C89.9471 82.6569 90.0504 82.698 90.1362 82.7803C90.2237 82.8626 90.2675 82.9615 90.2675 83.0771C90.2675 83.1926 90.2237 83.2915 90.1362 83.3738C90.0504 83.4561 89.9471 83.4972 89.8263 83.4972ZM92.7891 88.2872C92.453 88.2872 92.1562 88.2022 91.8989 88.0324C91.6415 87.8609 91.4402 87.6193 91.2949 87.3076C91.1496 86.9943 91.0769 86.624 91.0769 86.1968C91.0769 85.7732 91.1496 85.4055 91.2949 85.0939C91.4402 84.7823 91.6424 84.5415 91.9015 84.3717C92.1606 84.2019 92.46 84.117 92.7996 84.117C93.0622 84.117 93.2697 84.1608 93.422 84.2483C93.5761 84.3341 93.6934 84.4321 93.7739 84.5424C93.8562 84.651 93.9201 84.7402 93.9656 84.8103H94.0181V82.825H94.6379V88.2031H94.0391V87.5834H93.9656C93.9201 87.6569 93.8553 87.7497 93.7713 87.8617C93.6872 87.972 93.5673 88.0709 93.4115 88.1585C93.2557 88.2443 93.0482 88.2872 92.7891 88.2872ZM92.8732 87.7304C93.1218 87.7304 93.3318 87.6657 93.5034 87.5361C93.675 87.4048 93.8054 87.2236 93.8947 86.9925C93.984 86.7597 94.0286 86.4909 94.0286 86.1863C94.0286 85.8852 93.9849 85.6217 93.8973 85.3959C93.8098 85.1683 93.6802 84.9915 93.5087 84.8654C93.3371 84.7376 93.1253 84.6737 92.8732 84.6737C92.6106 84.6737 92.3917 84.7411 92.2166 84.8759C92.0433 85.009 91.9129 85.1902 91.8254 85.4195C91.7396 85.6471 91.6967 85.9027 91.6967 86.1863C91.6967 86.4734 91.7405 86.7343 91.828 86.9689C91.9173 87.2017 92.0486 87.3873 92.2219 87.5256C92.397 87.6622 92.6141 87.7304 92.8732 87.7304ZM97.5502 88.2872C97.1615 88.2872 96.8262 88.2014 96.5444 88.0298C96.2643 87.8565 96.0481 87.6149 95.8957 87.305C95.7452 86.9934 95.6699 86.631 95.6699 86.2178C95.6699 85.8047 95.7452 85.4405 95.8957 85.1254C96.0481 84.8085 96.2599 84.5617 96.5312 84.3848C96.8044 84.2063 97.123 84.117 97.4871 84.117C97.6972 84.117 97.9047 84.152 98.1095 84.222C98.3143 84.2921 98.5008 84.4059 98.6689 84.5634C98.8369 84.7192 98.9708 84.9258 99.0706 85.1832C99.1704 85.4405 99.2203 85.7574 99.2203 86.1338V86.3964H96.1111V85.8607H98.5901C98.5901 85.6331 98.5446 85.43 98.4535 85.2514C98.3642 85.0729 98.2364 84.9319 98.0701 84.8287C97.9055 84.7254 97.7112 84.6737 97.4871 84.6737C97.2403 84.6737 97.0267 84.735 96.8464 84.8575C96.6678 84.9783 96.5304 85.1359 96.4341 85.3302C96.3378 85.5246 96.2897 85.7329 96.2897 85.9552V86.3124C96.2897 86.617 96.3422 86.8752 96.4472 87.0871C96.554 87.2971 96.7019 87.4573 96.891 87.5676C97.0801 87.6762 97.2998 87.7304 97.5502 87.7304C97.713 87.7304 97.86 87.7077 97.9913 87.6622C98.1244 87.6149 98.2391 87.5449 98.3353 87.4521C98.4316 87.3575 98.506 87.2402 98.5586 87.1002L99.1573 87.2683C99.0943 87.4713 98.9884 87.6499 98.8395 87.804C98.6907 87.9563 98.5069 88.0753 98.2881 88.1611C98.0692 88.2451 97.8233 88.2872 97.5502 88.2872ZM103.987 88.2031H102.327V82.825H104.06C104.582 82.825 105.028 82.9326 105.399 83.148C105.771 83.3616 106.055 83.6688 106.253 84.0697C106.451 84.4689 106.55 84.9468 106.55 85.5035C106.55 86.0638 106.45 86.5461 106.25 86.9505C106.051 87.3532 105.76 87.663 105.378 87.8801C104.997 88.0955 104.533 88.2031 103.987 88.2031ZM102.978 87.6254H103.945C104.389 87.6254 104.758 87.5396 105.05 87.368C105.343 87.1965 105.56 86.9522 105.704 86.6354C105.848 86.3185 105.919 85.9412 105.919 85.5035C105.919 85.0694 105.848 84.6956 105.707 84.3822C105.565 84.0671 105.353 83.8255 105.071 83.6574C104.789 83.4876 104.438 83.4027 104.018 83.4027H102.978V87.6254ZM109.249 88.2872C108.861 88.2872 108.525 88.2014 108.243 88.0298C107.963 87.8565 107.747 87.6149 107.595 87.305C107.444 86.9934 107.369 86.631 107.369 86.2178C107.369 85.8047 107.444 85.4405 107.595 85.1254C107.747 84.8085 107.959 84.5617 108.23 84.3848C108.503 84.2063 108.822 84.117 109.186 84.117C109.396 84.117 109.604 84.152 109.809 84.222C110.013 84.2921 110.2 84.4059 110.368 84.5634C110.536 84.7192 110.67 84.9258 110.77 85.1832C110.869 85.4405 110.919 85.7574 110.919 86.1338V86.3964H107.81V85.8607H110.289C110.289 85.6331 110.244 85.43 110.153 85.2514C110.063 85.0729 109.935 84.9319 109.769 84.8287C109.605 84.7254 109.41 84.6737 109.186 84.6737C108.939 84.6737 108.726 84.735 108.545 84.8575C108.367 84.9783 108.229 85.1359 108.133 85.3302C108.037 85.5246 107.989 85.7329 107.989 85.9552V86.3124C107.989 86.617 108.041 86.8752 108.146 87.0871C108.253 87.2971 108.401 87.4573 108.59 87.5676C108.779 87.6762 108.999 87.7304 109.249 87.7304C109.412 87.7304 109.559 87.7077 109.69 87.6622C109.823 87.6149 109.938 87.5449 110.034 87.4521C110.131 87.3575 110.205 87.2402 110.258 87.1002L110.856 87.2683C110.793 87.4713 110.687 87.6499 110.539 87.804C110.39 87.9563 110.206 88.0753 109.987 88.1611C109.768 88.2451 109.522 88.2872 109.249 88.2872ZM114.719 85.0729L114.163 85.2304C114.128 85.1376 114.076 85.0475 114.008 84.96C113.941 84.8707 113.85 84.7971 113.735 84.7394C113.619 84.6816 113.471 84.6527 113.291 84.6527C113.044 84.6527 112.838 84.7096 112.674 84.8234C112.511 84.9354 112.429 85.0781 112.429 85.2514C112.429 85.4055 112.485 85.5272 112.597 85.6165C112.709 85.7058 112.885 85.7802 113.123 85.8397L113.721 85.9867C114.082 86.0743 114.351 86.2082 114.528 86.3885C114.704 86.5671 114.793 86.7973 114.793 87.0792C114.793 87.3103 114.726 87.5169 114.593 87.6989C114.462 87.881 114.278 88.0246 114.042 88.1296C113.805 88.2346 113.531 88.2872 113.217 88.2872C112.806 88.2872 112.465 88.1979 112.196 88.0193C111.926 87.8407 111.755 87.5799 111.684 87.2367L112.272 87.0897C112.328 87.3068 112.434 87.4696 112.59 87.5781C112.747 87.6867 112.953 87.7409 113.207 87.7409C113.496 87.7409 113.725 87.6797 113.895 87.5571C114.066 87.4328 114.152 87.284 114.152 87.1107C114.152 86.9706 114.103 86.8533 114.005 86.7588C113.907 86.6625 113.756 86.5907 113.553 86.5435L112.881 86.3859C112.512 86.2984 112.24 86.1627 112.067 85.9789C111.895 85.7933 111.81 85.5613 111.81 85.283C111.81 85.0554 111.874 84.854 112.001 84.679C112.131 84.5039 112.307 84.3665 112.529 84.2667C112.753 84.1669 113.007 84.117 113.291 84.117C113.69 84.117 114.003 84.2045 114.231 84.3796C114.46 84.5547 114.623 84.7858 114.719 85.0729ZM117.364 88.2872C116.986 88.2872 116.661 88.1979 116.387 88.0193C116.114 87.8407 115.904 87.5948 115.757 87.2814C115.61 86.968 115.537 86.61 115.537 86.2073C115.537 85.7977 115.612 85.4361 115.762 85.1228C115.915 84.8076 116.127 84.5617 116.398 84.3848C116.671 84.2063 116.99 84.117 117.354 84.117C117.637 84.117 117.893 84.1695 118.121 84.2746C118.348 84.3796 118.535 84.5267 118.68 84.7157C118.825 84.9048 118.915 85.1254 118.95 85.3775H118.331C118.283 85.1937 118.178 85.0309 118.016 84.889C117.855 84.7455 117.637 84.6737 117.364 84.6737C117.123 84.6737 116.911 84.7367 116.729 84.8628C116.549 84.9871 116.408 85.163 116.306 85.3906C116.206 85.6165 116.156 85.8817 116.156 86.1863C116.156 86.4979 116.205 86.7693 116.303 87.0004C116.403 87.2315 116.543 87.4109 116.724 87.5387C116.906 87.6665 117.119 87.7304 117.364 87.7304C117.525 87.7304 117.672 87.7024 117.803 87.6464C117.934 87.5904 118.045 87.5098 118.136 87.4048C118.227 87.2998 118.292 87.1737 118.331 87.0267H118.95C118.915 87.2647 118.829 87.4792 118.691 87.67C118.554 87.8591 118.373 88.0097 118.147 88.1217C117.923 88.232 117.662 88.2872 117.364 88.2872ZM119.856 88.2031V84.1695H120.455V84.7788H120.497C120.571 84.5792 120.704 84.4172 120.896 84.2929C121.089 84.1686 121.306 84.1065 121.548 84.1065C121.593 84.1065 121.65 84.1074 121.718 84.1091C121.787 84.1109 121.838 84.1135 121.873 84.117V84.7472C121.852 84.742 121.804 84.7341 121.729 84.7236C121.655 84.7114 121.577 84.7052 121.495 84.7052C121.299 84.7052 121.124 84.7464 120.97 84.8287C120.818 84.9092 120.697 85.0212 120.608 85.1648C120.52 85.3066 120.476 85.4685 120.476 85.6506V88.2031H119.856ZM122.608 88.2031V84.1695H123.228V88.2031H122.608ZM122.923 83.4972C122.802 83.4972 122.698 83.4561 122.611 83.3738C122.525 83.2915 122.482 83.1926 122.482 83.0771C122.482 82.9615 122.525 82.8626 122.611 82.7803C122.698 82.698 122.802 82.6569 122.923 82.6569C123.044 82.6569 123.147 82.698 123.233 82.7803C123.32 82.8626 123.364 82.9615 123.364 83.0771C123.364 83.1926 123.32 83.2915 123.233 83.3738C123.147 83.4561 123.044 83.4972 122.923 83.4972ZM124.363 89.7157V84.1695H124.962V84.8103H125.035C125.081 84.7402 125.144 84.651 125.224 84.5424C125.306 84.4321 125.424 84.3341 125.576 84.2483C125.73 84.1608 125.938 84.117 126.201 84.117C126.541 84.117 126.84 84.2019 127.099 84.3717C127.358 84.5415 127.56 84.7823 127.706 85.0939C127.851 85.4055 127.924 85.7732 127.924 86.1968C127.924 86.624 127.851 86.9943 127.706 87.3076C127.56 87.6193 127.359 87.8609 127.102 88.0324C126.844 88.2022 126.548 88.2872 126.212 88.2872C125.952 88.2872 125.745 88.2443 125.589 88.1585C125.433 88.0709 125.313 87.972 125.229 87.8617C125.145 87.7497 125.081 87.6569 125.035 87.5834H124.983V89.7157H124.363ZM124.972 86.1863C124.972 86.4909 125.017 86.7597 125.106 86.9925C125.195 87.2236 125.326 87.4048 125.497 87.5361C125.669 87.6657 125.879 87.7304 126.127 87.7304C126.387 87.7304 126.603 87.6622 126.776 87.5256C126.951 87.3873 127.082 87.2017 127.17 86.9689C127.259 86.7343 127.304 86.4734 127.304 86.1863C127.304 85.9027 127.26 85.6471 127.173 85.4195C127.087 85.1902 126.956 85.009 126.781 84.8759C126.608 84.7411 126.39 84.6737 126.127 84.6737C125.875 84.6737 125.664 84.7376 125.492 84.8654C125.32 84.9915 125.191 85.1683 125.103 85.3959C125.016 85.6217 124.972 85.8852 124.972 86.1863ZM130.623 84.1695V84.6947H128.533V84.1695H130.623ZM129.142 83.2031H129.762V87.0477C129.762 87.2227 129.787 87.354 129.838 87.4416C129.891 87.5274 129.957 87.5851 130.038 87.6149C130.12 87.6429 130.207 87.6569 130.298 87.6569C130.366 87.6569 130.422 87.6534 130.466 87.6464C130.509 87.6376 130.545 87.6306 130.571 87.6254L130.697 88.1821C130.655 88.1979 130.596 88.2136 130.521 88.2294C130.446 88.2469 130.35 88.2556 130.235 88.2556C130.06 88.2556 129.888 88.218 129.72 88.1427C129.554 88.0674 129.415 87.9528 129.305 87.7987C129.196 87.6447 129.142 87.4503 129.142 87.2157V83.2031ZM131.556 88.2031V84.1695H132.175V88.2031H131.556ZM131.871 83.4972C131.75 83.4972 131.646 83.4561 131.558 83.3738C131.472 83.2915 131.429 83.1926 131.429 83.0771C131.429 82.9615 131.472 82.8626 131.558 82.7803C131.646 82.698 131.75 82.6569 131.871 82.6569C131.991 82.6569 132.095 82.698 132.181 82.7803C132.268 82.8626 132.312 82.9615 132.312 83.0771C132.312 83.1926 132.268 83.2915 132.181 83.3738C132.095 83.4561 131.991 83.4972 131.871 83.4972ZM134.949 88.2872C134.585 88.2872 134.265 88.2005 133.991 88.0272C133.717 87.8539 133.504 87.6114 133.35 87.2998C133.197 86.9881 133.121 86.624 133.121 86.2073C133.121 85.7872 133.197 85.4204 133.35 85.107C133.504 84.7936 133.717 84.5503 133.991 84.377C134.265 84.2037 134.585 84.117 134.949 84.117C135.313 84.117 135.632 84.2037 135.905 84.377C136.18 84.5503 136.393 84.7936 136.546 85.107C136.7 85.4204 136.777 85.7872 136.777 86.2073C136.777 86.624 136.7 86.9881 136.546 87.2998C136.393 87.6114 136.18 87.8539 135.905 88.0272C135.632 88.2005 135.313 88.2872 134.949 88.2872ZM134.949 87.7304C135.226 87.7304 135.453 87.6595 135.632 87.5177C135.81 87.3759 135.943 87.1895 136.028 86.9584C136.114 86.7273 136.157 86.4769 136.157 86.2073C136.157 85.9377 136.114 85.6865 136.028 85.4537C135.943 85.2208 135.81 85.0326 135.632 84.889C135.453 84.7455 135.226 84.6737 134.949 84.6737C134.672 84.6737 134.445 84.7455 134.266 84.889C134.088 85.0326 133.956 85.2208 133.87 85.4537C133.784 85.6865 133.741 85.9377 133.741 86.2073C133.741 86.4769 133.784 86.7273 133.87 86.9584C133.956 87.1895 134.088 87.3759 134.266 87.5177C134.445 87.6595 134.672 87.7304 134.949 87.7304ZM138.343 85.7767V88.2031H137.723V84.1695H138.322V84.7998H138.374C138.469 84.5949 138.612 84.4304 138.805 84.3061C138.997 84.18 139.246 84.117 139.551 84.117C139.824 84.117 140.063 84.173 140.267 84.2851C140.472 84.3954 140.632 84.5634 140.745 84.7893C140.859 85.0133 140.916 85.297 140.916 85.6401V88.2031H140.296V85.6821C140.296 85.3652 140.214 85.1184 140.049 84.9416C139.885 84.763 139.659 84.6737 139.372 84.6737C139.174 84.6737 138.997 84.7166 138.842 84.8024C138.687 84.8882 138.566 85.0133 138.476 85.1779C138.387 85.3425 138.343 85.5421 138.343 85.7767Z" fill="white"/>
</g>
<defs>
<linearGradient id="paint0_linear_1968_2718" x1="230.878" y1="0.242188" x2="231.844" y2="311.567" gradientUnits="userSpaceOnUse">
<stop offset="0.12077" stop-color="#5C3262"/>
<stop offset="1" stop-color="#5C3262" stop-opacity="0"/>
</linearGradient>
<clipPath id="clip0_1968_2718">
<rect width="220" height="311.328" fill="white" transform="translate(0.5 0.335938)"/>
</clipPath>
</defs>
</svg>
