<svg width="223" height="314" viewBox="0 0 223 314" fill="none" xmlns="http://www.w3.org/2000/svg">
<g clip-path="url(#clip0_1968_2512)" filter="url(#filter0_dd_1968_2512)">
<rect width="220" height="311.328" transform="translate(1.5 1.33594)" fill="white"/>
<g opacity="0.2">
<line x1="155.095" y1="-329.984" x2="155.095" y2="700.864" stroke="#A8B7D4" stroke-width="0.369748"/>
<line x1="66.4036" y1="-329.984" x2="66.4036" y2="700.864" stroke="#A8B7D4" stroke-width="0.369748"/>
<line x1="177.271" y1="-329.984" x2="177.271" y2="700.864" stroke="#A8B7D4" stroke-width="0.369748"/>
<line x1="88.5716" y1="-329.984" x2="88.5716" y2="700.864" stroke="#A8B7D4" stroke-width="0.369748"/>
<line x1="22.056" y1="-329.984" x2="22.0559" y2="700.864" stroke="#A8B7D4" stroke-width="0.369748"/>
<line x1="199.435" y1="-329.984" x2="199.435" y2="700.864" stroke="#A8B7D4" stroke-width="0.369748"/>
<line x1="110.755" y1="-329.984" x2="110.755" y2="700.864" stroke="#A8B7D4" stroke-width="0.369748"/>
<line x1="44.2396" y1="-329.984" x2="44.2395" y2="700.864" stroke="#A8B7D4" stroke-width="0.369748"/>
<line x1="221.603" y1="-329.984" x2="221.603" y2="700.864" stroke="#A8B7D4" stroke-width="0.369748"/>
<line x1="132.923" y1="-329.984" x2="132.923" y2="700.864" stroke="#A8B7D4" stroke-width="0.369748"/>
<line x1="-509.23" y1="2.45575" x2="764.35" y2="2.4558" stroke="#A8B7D4" stroke-width="0.369748"/>
<line x1="-509.23" y1="179.854" x2="764.35" y2="179.854" stroke="#A8B7D4" stroke-width="0.369748"/>
<line x1="-509.23" y1="268.557" x2="764.35" y2="268.557" stroke="#A8B7D4" stroke-width="0.369748"/>
<line x1="-509.23" y1="91.1667" x2="764.35" y2="91.1667" stroke="#A8B7D4" stroke-width="0.369748"/>
<line x1="-509.23" y1="157.69" x2="764.35" y2="157.69" stroke="#A8B7D4" stroke-width="0.369748"/>
<line x1="-509.23" y1="246.385" x2="764.35" y2="246.385" stroke="#A8B7D4" stroke-width="0.369748"/>
<line x1="-509.23" y1="68.9948" x2="764.35" y2="68.9949" stroke="#A8B7D4" stroke-width="0.369748"/>
<line x1="-509.23" y1="135.518" x2="764.35" y2="135.518" stroke="#A8B7D4" stroke-width="0.369748"/>
<line x1="-509.23" y1="224.198" x2="764.35" y2="224.198" stroke="#A8B7D4" stroke-width="0.369748"/>
<line x1="-509.23" y1="46.8073" x2="764.35" y2="46.8074" stroke="#A8B7D4" stroke-width="0.369748"/>
<line x1="-509.23" y1="290.721" x2="764.35" y2="290.721" stroke="#A8B7D4" stroke-width="0.369748"/>
<line x1="-509.23" y1="113.331" x2="764.35" y2="113.331" stroke="#A8B7D4" stroke-width="0.369748"/>
<line x1="-509.23" y1="202.034" x2="764.35" y2="202.034" stroke="#A8B7D4" stroke-width="0.369748"/>
<line x1="-509.23" y1="24.6354" x2="764.35" y2="24.6355" stroke="#A8B7D4" stroke-width="0.369748"/>
</g>
<path d="M1.5 1.33594H221.5V175.319H1.5V1.33594Z" fill="url(#paint0_linear_1968_2512)"/>
<path fill-rule="evenodd" clip-rule="evenodd" d="M217.852 165.024C232.075 165.024 243.606 153.493 243.606 139.27C243.606 125.046 232.075 113.516 217.852 113.516C203.628 113.516 192.098 125.046 192.098 139.27C192.098 153.493 203.628 165.024 217.852 165.024Z" fill="#D0B3D6"/>
<path fill-rule="evenodd" clip-rule="evenodd" d="M217.852 226.814C232.075 226.814 243.606 215.285 243.606 201.063C243.606 186.841 232.075 175.312 217.852 175.312C203.628 175.312 192.098 186.841 192.098 201.063C192.098 215.285 203.628 226.814 217.852 226.814Z" fill="#5D3D6E"/>
<path fill-rule="evenodd" clip-rule="evenodd" d="M217.852 290.906C232.075 290.906 243.606 279.376 243.606 265.152C243.606 250.929 232.075 239.398 217.852 239.398C203.628 239.398 192.098 250.929 192.098 265.152C192.098 279.376 203.628 290.906 217.852 290.906Z" fill="#2481C2"/>
<path fill-rule="evenodd" clip-rule="evenodd" d="M153.786 226.814C168.008 226.814 179.537 215.285 179.537 201.063C179.537 186.841 168.008 175.312 153.786 175.312C139.564 175.312 128.035 186.841 128.035 201.063C128.035 215.285 139.564 226.814 153.786 226.814Z" fill="#2F4C6C"/>
<path fill-rule="evenodd" clip-rule="evenodd" d="M153.747 290.906C167.968 290.906 179.497 279.376 179.497 265.152C179.497 250.929 167.968 239.398 153.747 239.398C139.525 239.398 127.996 250.929 127.996 265.152C127.996 279.376 139.525 290.906 153.747 290.906Z" fill="#35B2C2"/>
<path fill-rule="evenodd" clip-rule="evenodd" d="M91.969 290.906C106.193 290.906 117.723 279.376 117.723 265.152C117.723 250.929 106.193 239.398 91.969 239.398C77.7454 239.398 66.2148 250.929 66.2148 265.152C66.2148 279.376 77.7454 290.906 91.969 290.906Z" fill="#5C3262"/>
<path d="M30.9026 63.3202C32.1678 63.3202 33.244 63.6256 34.1312 64.2365C35.0183 64.8327 35.4619 65.7199 35.4619 66.8979C35.4619 68.2504 34.9165 69.4212 33.8258 70.4101C32.7496 71.3991 31.4334 72.1481 29.8772 72.6571C28.3356 73.1807 26.8886 73.4643 25.536 73.5079L25.3397 72.7225C27.2013 72.3444 28.8447 71.6972 30.2699 70.781C31.7097 69.8648 32.4296 68.6286 32.4296 67.0724C32.4296 66.5052 32.2624 66.0035 31.9279 65.5672C31.6079 65.1163 31.1862 64.7746 30.6626 64.5419C30.1536 64.2946 29.6227 64.171 29.0701 64.171C28.1102 64.171 27.1285 64.3674 26.125 64.76L26.0814 64.6509V71.2391L23.3545 72.1335V64.1056C23.3545 62.6367 23.6745 61.2914 24.3144 60.0698C24.9543 58.8481 25.8487 57.8883 26.9976 57.1902C28.1611 56.4775 29.47 56.1212 30.9244 56.1212C31.6661 56.1212 32.2915 56.303 32.8005 56.6666C33.3095 57.0302 33.564 57.5538 33.564 58.2373C33.564 59.1535 33.0913 60.0916 32.146 61.0515C31.2007 61.9968 30.1463 62.7967 28.9828 63.4511L29.0265 63.5602C29.7682 63.4002 30.3935 63.3202 30.9026 63.3202ZM26.0814 64.1056C27.3031 63.5238 28.3575 62.8039 29.2446 61.9459C30.1463 61.0878 30.5971 60.1352 30.5971 59.0881C30.5971 58.55 30.459 58.121 30.1827 57.801C29.9063 57.4665 29.5282 57.2993 29.0483 57.2993C28.3211 57.2993 27.7321 57.6119 27.2812 58.2373C26.8449 58.8481 26.5323 59.5826 26.3432 60.4406C26.1687 61.2987 26.0814 62.1204 26.0814 62.9057V64.1056ZM42.5827 61.1823C41.6228 61.8659 40.8666 62.644 40.3139 63.5166C39.7758 64.3746 39.5067 65.3854 39.5067 66.5489C39.5067 67.1888 39.6304 67.836 39.8776 68.4904C40.1248 69.1449 40.4884 69.6902 40.9684 70.1265C41.4483 70.5483 42.0228 70.7592 42.6918 70.7592C43.5353 70.7592 44.2115 70.4538 44.7206 69.8429C45.2441 69.2321 45.5059 68.4759 45.5059 67.5742C45.5059 66.8906 45.3241 66.1998 44.9605 65.5017C44.6115 64.7891 44.1388 64.1928 43.5425 63.7129C42.9463 63.2184 42.3064 62.9421 41.6228 62.8839C41.9282 62.5494 42.2555 62.244 42.6045 61.9677C42.9681 61.6914 43.4189 61.3569 43.957 60.9642C45.0042 61.3132 45.8331 61.9604 46.444 62.9057C47.0693 63.8511 47.382 64.8909 47.382 66.0253C47.382 67.0288 47.1566 68.0032 46.7057 68.9485C46.2694 69.8939 45.6295 70.6647 44.786 71.2609C43.957 71.8427 42.9899 72.1335 41.8846 72.1335C40.9684 72.1335 40.1248 71.9227 39.354 71.5009C38.5978 71.0646 37.9942 70.4756 37.5434 69.7339C37.0925 68.9776 36.8671 68.1486 36.8671 67.2469C36.8671 65.6908 37.3543 64.3237 38.3287 63.1457C39.3177 61.9677 40.5975 61.146 42.1682 60.6806L42.5827 61.1823ZM54.7472 61.1823C53.7873 61.8659 53.031 62.644 52.4784 63.5166C51.9403 64.3746 51.6712 65.3854 51.6712 66.5489C51.6712 67.1888 51.7949 67.836 52.0421 68.4904C52.2893 69.1449 52.6529 69.6902 53.1329 70.1265C53.6128 70.5483 54.1872 70.7592 54.8562 70.7592C55.6998 70.7592 56.376 70.4538 56.8851 69.8429C57.4086 69.2321 57.6704 68.4759 57.6704 67.5742C57.6704 66.8906 57.4886 66.1998 57.125 65.5017C56.776 64.7891 56.3033 64.1928 55.707 63.7129C55.1108 63.2184 54.4708 62.9421 53.7873 62.8839C54.0927 62.5494 54.4199 62.244 54.769 61.9677C55.1326 61.6914 55.5834 61.3569 56.1215 60.9642C57.1687 61.3132 57.9976 61.9604 58.6084 62.9057C59.2338 63.8511 59.5465 64.8909 59.5465 66.0253C59.5465 67.0288 59.3211 68.0032 58.8702 68.9485C58.4339 69.8939 57.794 70.6647 56.9505 71.2609C56.1215 71.8427 55.1544 72.1335 54.0491 72.1335C53.1329 72.1335 52.2893 71.9227 51.5185 71.5009C50.7623 71.0646 50.1587 70.4756 49.7079 69.7339C49.257 68.9776 49.0316 68.1486 49.0316 67.2469C49.0316 65.6908 49.5188 64.3237 50.4932 63.1457C51.4822 61.9677 52.762 61.146 54.3327 60.6806L54.7472 61.1823ZM64.7083 66.9634H64.861C65.341 65.3054 65.9591 63.8511 66.7153 62.6003C67.4861 61.3496 68.4387 60.7242 69.5731 60.7242C70.1112 60.7242 70.5402 60.906 70.8602 61.2696C71.1802 61.6332 71.3401 62.084 71.3401 62.6221C71.3401 63.5238 70.962 64.3819 70.2057 65.1963C69.464 66.0108 68.606 66.7088 67.6316 67.2906C67.7625 67.4796 67.8933 67.6469 68.0242 67.7923C68.6205 68.6068 69.1513 69.2612 69.6167 69.7557C70.0967 70.2356 70.5475 70.4756 70.9693 70.4756C71.5074 70.4756 71.9655 70.2502 72.3436 69.7993L72.7363 70.2356C72.4163 70.7592 71.9655 71.1955 71.3838 71.5445C70.802 71.8936 70.1912 72.0681 69.5513 72.0681C68.9259 72.0681 68.3587 71.8499 67.8497 71.4136C67.3552 70.9773 66.7953 70.3665 66.1699 69.5812C65.69 68.9994 65.3846 68.6504 65.2537 68.534L65.0574 68.6431C64.9701 68.9485 64.8901 69.3994 64.8174 69.9957C64.7592 70.5919 64.7229 71.1082 64.7083 71.5445L62.1123 72.1117V52.5872L64.7083 51.6709V66.9634ZM68.0242 62.993C67.5298 62.993 67.0135 63.5602 66.4754 64.6946C65.9373 65.8144 65.4937 66.8906 65.1446 67.9232C66.119 67.356 66.948 66.7088 67.6316 65.9817C68.3296 65.2545 68.6787 64.5491 68.6787 63.8656C68.6787 63.6329 68.6205 63.4293 68.5042 63.2548C68.3878 63.0803 68.2278 62.993 68.0242 62.993ZM89.0397 55.9903C88.5307 56.7175 87.8617 57.3211 87.0327 57.801C86.2037 58.2809 85.3675 58.5209 84.524 58.5209C84.2476 58.8699 84.044 59.2044 83.9131 59.5244C83.7968 59.8443 83.7386 60.2152 83.7386 60.637V67.6833C83.7386 68.7304 83.5059 69.6103 83.0405 70.3229C82.5897 71.0355 81.8843 71.69 80.9245 72.2862L80.4664 71.7627C80.8445 71.2827 81.0335 70.5774 81.0335 69.6466V61.9022C81.0335 61.2914 81.2226 60.7024 81.6007 60.1352C81.9934 59.5535 82.4733 59.0154 83.0405 58.5209L80.1391 58.4991C79.6446 58.4991 79.1938 58.6082 78.7866 58.8263C78.3794 59.0445 77.994 59.379 77.6304 59.8298L77.1505 59.3717C77.834 58.47 78.5321 57.7574 79.2447 57.2338C79.9719 56.7102 80.7936 56.4485 81.7098 56.4485H84.9385C85.6365 56.4485 86.3419 56.3903 87.0545 56.2739C87.7671 56.143 88.3053 55.9176 88.6688 55.5977L89.0397 55.9903ZM90.5787 58.63L89.2043 59.0663L88.3099 54.5069L91.3422 53.4816L90.5787 58.63ZM91.2768 69.8211C91.2768 70.0393 91.3277 70.2138 91.4295 70.3447C91.5313 70.4756 91.6694 70.541 91.844 70.541C92.2075 70.541 92.5784 70.2865 92.9565 69.7775L93.3492 70.192C93.0293 70.7737 92.6148 71.2173 92.1057 71.5227C91.6113 71.8281 91.1168 71.9808 90.6223 71.9808C89.2989 71.9808 88.6371 71.2173 88.6371 69.6902V61.8368L91.2768 60.9206V69.8211ZM98.2036 62.3604V69.8211C98.2036 70.0247 98.2618 70.1993 98.3781 70.3447C98.4945 70.4756 98.6472 70.541 98.8362 70.541C99.1853 70.541 99.5779 70.2865 100.014 69.7775L100.407 70.192C100.145 70.7156 99.8179 71.1082 99.4252 71.37C99.0326 71.6318 98.6544 71.8063 98.2908 71.8936C97.9273 71.9808 97.7455 72.0099 97.7455 71.9808C96.2911 71.9808 95.564 71.2173 95.564 69.6902V62.3604H94.0151L94.6913 60.9206H95.564V55.9685L98.2036 55.0741V60.9206H101.061L100.407 62.3604H98.2036ZM105.593 69.8211C105.593 70.0102 105.637 70.1774 105.724 70.3229C105.826 70.4683 105.978 70.541 106.182 70.541C106.386 70.541 106.589 70.461 106.793 70.3011C107.011 70.1411 107.185 69.9666 107.316 69.7775L107.709 70.192C107.462 70.6865 107.098 71.1082 106.618 71.4573C106.153 71.8063 105.651 71.9808 105.113 71.9808C103.702 71.9808 102.997 71.2173 102.997 69.6902V52.5872L105.593 51.6491V69.8211ZM115.332 60.7242C116.176 60.7242 116.881 60.9424 117.448 61.3787C118.016 61.8004 118.299 62.4185 118.299 63.233C118.299 63.8874 117.943 64.6219 117.23 65.4363C116.532 66.2362 115.696 66.9852 114.722 67.6833C113.762 68.3668 112.94 68.8613 112.256 69.1667C112.867 70.1411 113.762 70.6283 114.94 70.6283C115.594 70.6283 116.249 70.4465 116.903 70.0829C117.572 69.7048 118.139 69.2103 118.605 68.5995L119.041 69.123C118.285 70.0684 117.485 70.8028 116.641 71.3264C115.812 71.8354 114.823 72.0899 113.674 72.0899C112.744 72.0899 111.907 71.879 111.166 71.4573C110.439 71.0355 109.864 70.461 109.442 69.7339C109.035 68.9922 108.831 68.1632 108.831 67.2469C108.831 66.1416 109.13 65.0873 109.726 64.0838C110.337 63.0657 111.144 62.2513 112.147 61.6405C113.151 61.0296 114.213 60.7242 115.332 60.7242ZM114.089 62.1422C113.536 62.1422 113.042 62.3458 112.605 62.753C112.169 63.1457 111.827 63.6547 111.58 64.2801C111.333 64.9055 111.209 65.5526 111.209 66.2216C111.209 67.0942 111.398 67.8432 111.777 68.4686C112.315 68.1632 112.882 67.7414 113.478 67.2033C114.089 66.6507 114.598 66.0617 115.005 65.4363C115.412 64.8109 115.616 64.2437 115.616 63.7347C115.616 63.2257 115.478 62.833 115.201 62.5567C114.94 62.2804 114.569 62.1422 114.089 62.1422ZM132.176 61.1605C131.274 61.9604 130.227 62.644 129.034 63.2111L129.078 63.342C129.529 63.2111 130.038 63.1457 130.605 63.1457C131.434 63.1457 132.198 63.3202 132.896 63.6693C133.594 64.0038 134.146 64.4764 134.554 65.0873C134.961 65.6981 135.164 66.4034 135.164 67.2033C135.164 68.5849 134.626 69.7411 133.55 70.6719C132.488 71.6027 131.187 72.279 129.645 72.7007C128.104 73.137 126.62 73.3552 125.195 73.3552L125.042 72.6789C126.075 72.548 127.136 72.2572 128.227 71.8063C129.318 71.3409 130.234 70.7228 130.976 69.952C131.718 69.1667 132.088 68.2723 132.088 67.2688C132.088 66.338 131.768 65.5963 131.129 65.0436C130.503 64.491 129.711 64.2146 128.751 64.2146C128.314 64.2146 127.871 64.2728 127.42 64.3892C126.984 64.5055 126.475 64.6873 125.893 64.9345L125.609 64.1928C126.875 63.6111 127.973 62.9203 128.903 62.1204C129.849 61.306 130.321 60.3825 130.321 59.3499C130.321 58.8263 130.176 58.4409 129.885 58.1937C129.609 57.9319 129.231 57.801 128.751 57.801C128.198 57.801 127.587 57.9901 126.918 58.3682C126.249 58.7318 125.697 59.1608 125.26 59.6553L124.693 59.0881C125.464 58.0991 126.38 57.3429 127.442 56.8193C128.503 56.2812 129.536 56.0122 130.54 56.0122C131.427 56.0122 132.147 56.2303 132.699 56.6666C133.266 57.1029 133.55 57.7283 133.55 58.5427C133.55 59.4735 133.092 60.3461 132.176 61.1605Z" fill="#19213D"/>
<path d="M28.276 84.7635C28.2182 84.5866 28.1421 84.4282 28.0475 84.2881C27.9547 84.1463 27.8436 84.0255 27.714 83.9257C27.5862 83.826 27.4409 83.7498 27.2781 83.6973C27.1153 83.6448 26.9367 83.6185 26.7424 83.6185C26.4238 83.6185 26.134 83.7008 25.8732 83.8653C25.6123 84.0299 25.4048 84.2724 25.2508 84.5928C25.0967 84.9131 25.0197 85.3062 25.0197 85.7719C25.0197 86.2375 25.0976 86.6306 25.2534 86.951C25.4092 87.2713 25.6202 87.5138 25.8863 87.6784C26.1524 87.8429 26.4518 87.9252 26.7844 87.9252C27.0925 87.9252 27.3639 87.8596 27.5985 87.7283C27.8348 87.5952 28.0186 87.4079 28.1499 87.1663C28.283 86.9229 28.3495 86.6367 28.3495 86.3076L28.5491 86.3496H26.9315V85.7719H28.9798V86.3496C28.9798 86.7925 28.8852 87.1777 28.6962 87.5051C28.5088 87.8324 28.2497 88.0863 27.9189 88.2666C27.5897 88.4452 27.2116 88.5345 26.7844 88.5345C26.3082 88.5345 25.8898 88.4224 25.5291 88.1983C25.1703 87.9742 24.8901 87.6556 24.6888 87.2425C24.4892 86.8293 24.3894 86.3391 24.3894 85.7719C24.3894 85.3464 24.4463 84.9639 24.5601 84.6243C24.6757 84.2829 24.8385 83.9923 25.0486 83.7524C25.2587 83.5126 25.5073 83.3288 25.7944 83.201C26.0815 83.0732 26.3975 83.0093 26.7424 83.0093C27.026 83.0093 27.2904 83.0521 27.5355 83.1379C27.7823 83.222 28.002 83.3419 28.1946 83.4977C28.3889 83.6518 28.5509 83.8365 28.6804 84.0518C28.81 84.2654 28.8992 84.5026 28.9483 84.7635H28.276ZM32.5532 86.8118V84.4273H33.1729V88.4609H32.5532V87.7782H32.5112C32.4166 87.983 32.2696 88.1572 32.07 88.3007C31.8704 88.4426 31.6183 88.5135 31.3137 88.5135C31.0616 88.5135 30.8375 88.4583 30.6414 88.348C30.4453 88.236 30.2913 88.0679 30.1792 87.8438C30.0672 87.618 30.0112 87.3335 30.0112 86.9903V84.4273H30.6309V86.9483C30.6309 87.2425 30.7132 87.477 30.8778 87.6521C31.0441 87.8272 31.2559 87.9147 31.5133 87.9147C31.6673 87.9147 31.824 87.8753 31.9833 87.7965C32.1444 87.7178 32.2792 87.597 32.3877 87.4342C32.498 87.2713 32.5532 87.0639 32.5532 86.8118ZM34.308 88.4609V84.4273H34.9278V88.4609H34.308ZM34.6232 83.7551C34.5024 83.7551 34.3982 83.7139 34.3107 83.6316C34.2249 83.5493 34.182 83.4504 34.182 83.3349C34.182 83.2193 34.2249 83.1204 34.3107 83.0381C34.3982 82.9559 34.5024 82.9147 34.6232 82.9147C34.744 82.9147 34.8472 82.9559 34.933 83.0381C35.0206 83.1204 35.0643 83.2193 35.0643 83.3349C35.0643 83.4504 35.0206 83.5493 34.933 83.6316C34.8472 83.7139 34.744 83.7551 34.6232 83.7551ZM37.586 88.545C37.2499 88.545 36.9531 88.4601 36.6958 88.2902C36.4384 88.1187 36.2371 87.8771 36.0918 87.5655C35.9465 87.2521 35.8738 86.8818 35.8738 86.4546C35.8738 86.031 35.9465 85.6633 36.0918 85.3517C36.2371 85.0401 36.4393 84.7993 36.6984 84.6295C36.9575 84.4597 37.2569 84.3748 37.5965 84.3748C37.8591 84.3748 38.0666 84.4186 38.2189 84.5061C38.3729 84.5919 38.4902 84.6899 38.5708 84.8002C38.6531 84.9088 38.717 84.9981 38.7625 85.0681H38.815V83.0828H39.4347V88.4609H38.836V87.8412H38.7625C38.717 87.9147 38.6522 88.0075 38.5681 88.1196C38.4841 88.2298 38.3642 88.3288 38.2084 88.4163C38.0526 88.5021 37.8451 88.545 37.586 88.545ZM37.67 87.9882C37.9186 87.9882 38.1287 87.9235 38.3003 87.7939C38.4719 87.6626 38.6023 87.4814 38.6916 87.2503C38.7809 87.0175 38.8255 86.7488 38.8255 86.4441C38.8255 86.143 38.7817 85.8795 38.6942 85.6537C38.6067 85.4261 38.4771 85.2493 38.3055 85.1232C38.134 84.9954 37.9221 84.9315 37.67 84.9315C37.4074 84.9315 37.1886 84.9989 37.0135 85.1337C36.8402 85.2668 36.7098 85.448 36.6222 85.6773C36.5365 85.9049 36.4936 86.1605 36.4936 86.4441C36.4936 86.7312 36.5373 86.9921 36.6249 87.2267C36.7142 87.4595 36.8455 87.6451 37.0188 87.7834C37.1938 87.92 37.4109 87.9882 37.67 87.9882ZM42.347 88.545C41.9584 88.545 41.6231 88.4592 41.3413 88.2876C41.0611 88.1143 40.8449 87.8727 40.6926 87.5628C40.5421 87.2512 40.4668 86.8888 40.4668 86.4756C40.4668 86.0625 40.5421 85.6983 40.6926 85.3832C40.8449 85.0663 41.0568 84.8195 41.3281 84.6427C41.6012 84.4641 41.9199 84.3748 42.284 84.3748C42.4941 84.3748 42.7015 84.4098 42.9064 84.4798C43.1112 84.5499 43.2977 84.6637 43.4657 84.8212C43.6338 84.977 43.7677 85.1836 43.8675 85.441C43.9673 85.6983 44.0172 86.0152 44.0172 86.3916V86.6542H40.908V86.1185H43.3869C43.3869 85.8909 43.3414 85.6878 43.2504 85.5093C43.1611 85.3307 43.0333 85.1898 42.867 85.0865C42.7024 84.9832 42.5081 84.9315 42.284 84.9315C42.0372 84.9315 41.8236 84.9928 41.6432 85.1153C41.4647 85.2361 41.3272 85.3937 41.231 85.588C41.1347 85.7824 41.0865 85.9907 41.0865 86.213V86.5702C41.0865 86.8748 41.139 87.133 41.2441 87.3449C41.3509 87.555 41.4988 87.7151 41.6879 87.8254C41.877 87.934 42.0967 87.9882 42.347 87.9882C42.5098 87.9882 42.6569 87.9655 42.7882 87.92C42.9213 87.8727 43.0359 87.8027 43.1322 87.7099C43.2285 87.6153 43.3029 87.4981 43.3554 87.358L43.9542 87.5261C43.8911 87.7291 43.7852 87.9077 43.6364 88.0618C43.4876 88.2141 43.3038 88.3331 43.085 88.4189C42.8661 88.503 42.6201 88.545 42.347 88.545ZM48.7835 88.4609H47.1238V83.0828H48.857C49.3787 83.0828 49.8251 83.1905 50.1963 83.4058C50.5674 83.6194 50.8519 83.9266 51.0498 84.3275C51.2476 84.7267 51.3465 85.2046 51.3465 85.7614C51.3465 86.3216 51.2467 86.8039 51.0471 87.2083C50.8476 87.611 50.5569 87.9208 50.1753 88.1379C49.7936 88.3533 49.3297 88.4609 48.7835 88.4609ZM47.7751 87.8832H48.7415C49.1861 87.8832 49.5547 87.7974 49.847 87.6259C50.1394 87.4543 50.3574 87.2101 50.5009 86.8932C50.6445 86.5763 50.7163 86.199 50.7163 85.7614C50.7163 85.3272 50.6454 84.9534 50.5035 84.64C50.3617 84.3249 50.1499 84.0833 49.868 83.9152C49.5862 83.7454 49.2352 83.6605 48.815 83.6605H47.7751V87.8832ZM54.0461 88.545C53.6574 88.545 53.3222 88.4592 53.0403 88.2876C52.7602 88.1143 52.544 87.8727 52.3917 87.5628C52.2411 87.2512 52.1658 86.8888 52.1658 86.4756C52.1658 86.0625 52.2411 85.6983 52.3917 85.3832C52.544 85.0663 52.7558 84.8195 53.0272 84.6427C53.3003 84.4641 53.6189 84.3748 53.9831 84.3748C54.1931 84.3748 54.4006 84.4098 54.6054 84.4798C54.8103 84.5499 54.9967 84.6637 55.1648 84.8212C55.3328 84.977 55.4668 85.1836 55.5666 85.441C55.6664 85.6983 55.7163 86.0152 55.7163 86.3916V86.6542H52.607V86.1185H55.086C55.086 85.8909 55.0405 85.6878 54.9494 85.5093C54.8602 85.3307 54.7324 85.1898 54.566 85.0865C54.4015 84.9832 54.2071 84.9315 53.9831 84.9315C53.7362 84.9315 53.5226 84.9928 53.3423 85.1153C53.1637 85.2361 53.0263 85.3937 52.93 85.588C52.8337 85.7824 52.7856 85.9907 52.7856 86.213V86.5702C52.7856 86.8748 52.8381 87.133 52.9431 87.3449C53.0499 87.555 53.1979 87.7151 53.3869 87.8254C53.576 87.934 53.7957 87.9882 54.0461 87.9882C54.2089 87.9882 54.356 87.9655 54.4873 87.92C54.6203 87.8727 54.735 87.8027 54.8313 87.7099C54.9276 87.6153 55.002 87.4981 55.0545 87.358L55.6532 87.5261C55.5902 87.7291 55.4843 87.9077 55.3355 88.0618C55.1867 88.2141 55.0028 88.3331 54.784 88.4189C54.5652 88.503 54.3192 88.545 54.0461 88.545ZM59.5161 85.3307L58.9594 85.4882C58.9244 85.3955 58.8728 85.3053 58.8045 85.2178C58.738 85.1285 58.6469 85.0549 58.5314 84.9972C58.4158 84.9394 58.2679 84.9105 58.0876 84.9105C57.8407 84.9105 57.635 84.9674 57.4705 85.0812C57.3076 85.1933 57.2262 85.3359 57.2262 85.5093C57.2262 85.6633 57.2823 85.785 57.3943 85.8743C57.5063 85.9636 57.6814 86.038 57.9195 86.0975L58.5182 86.2446C58.8789 86.3321 59.1476 86.466 59.3244 86.6463C59.5013 86.8249 59.5897 87.0551 59.5897 87.337C59.5897 87.5681 59.5232 87.7747 59.3901 87.9567C59.2588 88.1388 59.075 88.2824 58.8386 88.3874C58.6023 88.4925 58.3274 88.545 58.014 88.545C57.6026 88.545 57.2621 88.4557 56.9925 88.2771C56.7229 88.0985 56.5522 87.8377 56.4804 87.4946L57.0687 87.3475C57.1247 87.5646 57.2306 87.7274 57.3864 87.8359C57.544 87.9445 57.7497 87.9988 58.0035 87.9988C58.2924 87.9988 58.5217 87.9375 58.6916 87.8149C58.8631 87.6906 58.9489 87.5418 58.9489 87.3685C58.9489 87.2284 58.8999 87.1111 58.8019 87.0166C58.7038 86.9203 58.5533 86.8485 58.3502 86.8013L57.6779 86.6437C57.3085 86.5562 57.0372 86.4205 56.8638 86.2367C56.6923 86.0511 56.6065 85.8191 56.6065 85.5408C56.6065 85.3132 56.6704 85.1118 56.7982 84.9368C56.9277 84.7617 57.1037 84.6243 57.326 84.5245C57.5501 84.4247 57.804 84.3748 58.0876 84.3748C58.4867 84.3748 58.8001 84.4623 59.0277 84.6374C59.257 84.8125 59.4199 85.0436 59.5161 85.3307ZM62.1612 88.545C61.7831 88.545 61.4575 88.4557 61.1843 88.2771C60.9112 88.0985 60.7012 87.8526 60.5541 87.5392C60.407 87.2258 60.3335 86.8678 60.3335 86.4651C60.3335 86.0555 60.4088 85.694 60.5593 85.3806C60.7117 85.0655 60.9235 84.8195 61.1949 84.6427C61.468 84.4641 61.7866 84.3748 62.1507 84.3748C62.4343 84.3748 62.69 84.4273 62.9175 84.5324C63.1451 84.6374 63.3316 84.7845 63.4769 84.9735C63.6222 85.1626 63.7124 85.3832 63.7474 85.6353H63.1276C63.0804 85.4515 62.9753 85.2887 62.8125 85.1469C62.6514 85.0033 62.4343 84.9315 62.1612 84.9315C61.9196 84.9315 61.7078 84.9946 61.5257 85.1206C61.3454 85.2449 61.2045 85.4208 61.1029 85.6484C61.0032 85.8743 60.9533 86.1395 60.9533 86.4441C60.9533 86.7558 61.0023 87.0271 61.1003 87.2582C61.2001 87.4893 61.3402 87.6687 61.5205 87.7965C61.7026 87.9243 61.9161 87.9882 62.1612 87.9882C62.3223 87.9882 62.4685 87.9602 62.5998 87.9042C62.7311 87.8482 62.8423 87.7677 62.9333 87.6626C63.0243 87.5576 63.0891 87.4315 63.1276 87.2845H63.7474C63.7124 87.5226 63.6257 87.737 63.4874 87.9278C63.3508 88.1169 63.1696 88.2675 62.9438 88.3795C62.7197 88.4898 62.4589 88.545 62.1612 88.545ZM64.6534 88.4609V84.4273H65.2521V85.0366H65.2941C65.3676 84.837 65.5007 84.675 65.6933 84.5507C65.8859 84.4264 66.1029 84.3643 66.3445 84.3643C66.3901 84.3643 66.447 84.3652 66.5152 84.3669C66.5835 84.3687 66.6352 84.3713 66.6702 84.3748V85.0051C66.6492 84.9998 66.601 84.9919 66.5257 84.9814C66.4522 84.9692 66.3743 84.963 66.292 84.963C66.0959 84.963 65.9209 85.0042 65.7668 85.0865C65.6145 85.167 65.4937 85.279 65.4044 85.4226C65.3169 85.5644 65.2731 85.7263 65.2731 85.9084V88.4609H64.6534ZM67.4048 88.4609V84.4273H68.0246V88.4609H67.4048ZM67.7199 83.7551C67.5991 83.7551 67.495 83.7139 67.4074 83.6316C67.3216 83.5493 67.2788 83.4504 67.2788 83.3349C67.2788 83.2193 67.3216 83.1204 67.4074 83.0381C67.495 82.9559 67.5991 82.9147 67.7199 82.9147C67.8407 82.9147 67.944 82.9559 68.0298 83.0381C68.1173 83.1204 68.1611 83.2193 68.1611 83.3349C68.1611 83.4504 68.1173 83.5493 68.0298 83.6316C67.944 83.7139 67.8407 83.7551 67.7199 83.7551ZM69.1597 89.9735V84.4273H69.7584V85.0681H69.8319C69.8774 84.9981 69.9405 84.9088 70.021 84.8002C70.1033 84.6899 70.2206 84.5919 70.3729 84.5061C70.527 84.4186 70.7353 84.3748 70.9979 84.3748C71.3375 84.3748 71.6369 84.4597 71.896 84.6295C72.1551 84.7993 72.3573 85.0401 72.5026 85.3517C72.6479 85.6633 72.7206 86.031 72.7206 86.4546C72.7206 86.8818 72.6479 87.2521 72.5026 87.5655C72.3573 87.8771 72.156 88.1187 71.8986 88.2902C71.6413 88.4601 71.3445 88.545 71.0084 88.545C70.7493 88.545 70.5418 88.5021 70.386 88.4163C70.2302 88.3288 70.1103 88.2298 70.0263 88.1196C69.9422 88.0075 69.8774 87.9147 69.8319 87.8412H69.7794V89.9735H69.1597ZM69.7689 86.4441C69.7689 86.7488 69.8135 87.0175 69.9028 87.2503C69.9921 87.4814 70.1225 87.6626 70.2941 87.7939C70.4657 87.9235 70.6758 87.9882 70.9244 87.9882C71.1835 87.9882 71.3997 87.92 71.573 87.7834C71.7481 87.6451 71.8794 87.4595 71.9669 87.2267C72.0562 86.9921 72.1008 86.7312 72.1008 86.4441C72.1008 86.1605 72.0571 85.9049 71.9695 85.6773C71.8838 85.448 71.7533 85.2668 71.5783 85.1337C71.4049 84.9989 71.187 84.9315 70.9244 84.9315C70.6723 84.9315 70.4604 84.9954 70.2889 85.1232C70.1173 85.2493 69.9877 85.4261 69.9002 85.6537C69.8127 85.8795 69.7689 86.143 69.7689 86.4441ZM75.4202 84.4273V84.9525H73.3298V84.4273H75.4202ZM73.9391 83.4609H74.5588V87.3055C74.5588 87.4805 74.5842 87.6118 74.635 87.6994C74.6875 87.7852 74.754 87.8429 74.8346 87.8727C74.9168 87.9007 75.0035 87.9147 75.0945 87.9147C75.1628 87.9147 75.2188 87.9112 75.2626 87.9042C75.3064 87.8955 75.3414 87.8885 75.3676 87.8832L75.4937 88.4399C75.4517 88.4557 75.393 88.4714 75.3178 88.4872C75.2425 88.5047 75.1471 88.5135 75.0315 88.5135C74.8564 88.5135 74.6849 88.4758 74.5168 88.4005C74.3505 88.3253 74.2122 88.2106 74.1019 88.0565C73.9933 87.9025 73.9391 87.7081 73.9391 87.4735V83.4609ZM76.3524 88.4609V84.4273H76.9722V88.4609H76.3524ZM76.6675 83.7551C76.5467 83.7551 76.4426 83.7139 76.355 83.6316C76.2693 83.5493 76.2264 83.4504 76.2264 83.3349C76.2264 83.2193 76.2693 83.1204 76.355 83.0381C76.4426 82.9559 76.5467 82.9147 76.6675 82.9147C76.7883 82.9147 76.8916 82.9559 76.9774 83.0381C77.0649 83.1204 77.1087 83.2193 77.1087 83.3349C77.1087 83.4504 77.0649 83.5493 76.9774 83.6316C76.8916 83.7139 76.7883 83.7551 76.6675 83.7551ZM79.7459 88.545C79.3818 88.545 79.0623 88.4583 78.7874 88.285C78.5143 88.1117 78.3007 87.8692 78.1467 87.5576C77.9944 87.246 77.9182 86.8818 77.9182 86.4651C77.9182 86.045 77.9944 85.6782 78.1467 85.3648C78.3007 85.0514 78.5143 84.8081 78.7874 84.6348C79.0623 84.4615 79.3818 84.3748 79.7459 84.3748C80.1101 84.3748 80.4287 84.4615 80.7018 84.6348C80.9767 84.8081 81.1903 85.0514 81.3426 85.3648C81.4966 85.6782 81.5737 86.045 81.5737 86.4651C81.5737 86.8818 81.4966 87.246 81.3426 87.5576C81.1903 87.8692 80.9767 88.1117 80.7018 88.285C80.4287 88.4583 80.1101 88.545 79.7459 88.545ZM79.7459 87.9882C80.0225 87.9882 80.2501 87.9173 80.4287 87.7755C80.6073 87.6337 80.7395 87.4473 80.8252 87.2162C80.911 86.9851 80.9539 86.7347 80.9539 86.4651C80.9539 86.1955 80.911 85.9443 80.8252 85.7115C80.7395 85.4786 80.6073 85.2904 80.4287 85.1469C80.2501 85.0033 80.0225 84.9315 79.7459 84.9315C79.4693 84.9315 79.2417 85.0033 79.0632 85.1469C78.8846 85.2904 78.7524 85.4786 78.6666 85.7115C78.5808 85.9443 78.5379 86.1955 78.5379 86.4651C78.5379 86.7347 78.5808 86.9851 78.6666 87.2162C78.7524 87.4473 78.8846 87.6337 79.0632 87.7755C79.2417 87.9173 79.4693 87.9882 79.7459 87.9882ZM83.1394 86.0345V88.4609H82.5197V84.4273H83.1184V85.0576H83.171C83.2655 84.8527 83.409 84.6882 83.6016 84.5639C83.7942 84.4378 84.0428 84.3748 84.3474 84.3748C84.6205 84.3748 84.8595 84.4308 85.0643 84.5429C85.2692 84.6532 85.4285 84.8212 85.5423 85.0471C85.6561 85.2712 85.713 85.5548 85.713 85.8979V88.4609H85.0932V85.9399C85.0932 85.6231 85.0109 85.3762 84.8464 85.1994C84.6818 85.0208 84.456 84.9315 84.1689 84.9315C83.971 84.9315 83.7942 84.9744 83.6384 85.0602C83.4843 85.146 83.3627 85.2712 83.2734 85.4357C83.1841 85.6003 83.1394 85.7999 83.1394 86.0345Z" fill="black"/>
<path d="M40.1576 41.1511C40.132 41.3164 39.9937 41.4321 39.8488 41.4097C39.7038 41.3873 39.607 41.2351 39.6326 41.0698C39.6582 40.9046 39.7964 40.7888 39.9414 40.8112C40.0864 40.8336 40.1832 40.9858 40.1576 41.1511Z" fill="#35B2C2"/>
<path d="M40.7066 40.1904C40.681 40.3556 40.5427 40.4714 40.3977 40.449C40.2528 40.4266 40.156 40.2744 40.1816 40.1091C40.2071 39.9438 40.3454 39.828 40.4904 39.8505C40.6354 39.8729 40.7321 40.0251 40.7066 40.1904Z" fill="#35B2C2"/>
<path d="M41.1641 39.2297C41.1385 39.3949 41.0002 39.5107 40.8552 39.4883C40.7103 39.4658 40.6135 39.3137 40.639 39.1484C40.6646 38.9831 40.8029 38.8673 40.9479 38.8898C41.0928 38.9122 41.1896 39.0644 41.1641 39.2297Z" fill="#35B2C2"/>
<path d="M41.4843 38.1774C41.4587 38.3427 41.3204 38.4585 41.1755 38.4361C41.0305 38.4136 40.9337 38.2615 40.9593 38.0962C40.9849 37.9309 41.1231 37.8151 41.2681 37.8376C41.4131 37.86 41.5099 38.0122 41.4843 38.1774Z" fill="#35B2C2"/>
<path d="M41.713 37.1252C41.6875 37.2905 41.5492 37.4063 41.4042 37.3838C41.2592 37.3614 41.1624 37.2092 41.188 37.044C41.2136 36.8787 41.3519 36.7629 41.4969 36.7853C41.6418 36.8078 41.7386 36.96 41.713 37.1252Z" fill="#35B2C2"/>
<path d="M41.8045 36.073C41.7789 36.2383 41.6407 36.3541 41.4957 36.3316C41.3507 36.3092 41.2539 36.157 41.2795 35.9918C41.3051 35.8265 41.4434 35.7107 41.5883 35.7331C41.7333 35.7556 41.8301 35.9077 41.8045 36.073Z" fill="#35B2C2"/>
<path d="M41.8503 34.9751C41.8247 35.1403 41.6864 35.2561 41.5415 35.2337C41.3965 35.2112 41.2997 35.0591 41.3253 34.8938C41.3509 34.7285 41.4891 34.6127 41.6341 34.6352C41.7791 34.6576 41.8759 34.8098 41.8503 34.9751Z" fill="#35B2C2"/>
<path d="M41.7588 33.9228C41.7332 34.0881 41.5949 34.2039 41.45 34.1815C41.305 34.159 41.2082 34.0069 41.2338 33.8416C41.2594 33.6763 41.3976 33.5605 41.5426 33.583C41.6876 33.6054 41.7844 33.7576 41.7588 33.9228Z" fill="#35B2C2"/>
<path d="M41.53 32.9164C41.5045 33.0817 41.3662 33.1974 41.2212 33.175C41.0762 33.1526 40.9795 33.0004 41.005 32.8351C41.0306 32.6698 41.1689 32.5541 41.3139 32.5765C41.4588 32.5989 41.5556 32.7511 41.53 32.9164Z" fill="#35B2C2"/>
<path d="M41.2098 31.9099C41.1842 32.0752 41.046 32.191 40.901 32.1685C40.756 32.1461 40.6592 31.9939 40.6848 31.8287C40.7104 31.6634 40.8486 31.5476 40.9936 31.57C41.1386 31.5925 41.2354 31.7446 41.2098 31.9099Z" fill="#35B2C2"/>
<path d="M40.7981 30.9949C40.7725 31.1602 40.6342 31.276 40.4892 31.2536C40.3443 31.2311 40.2475 31.079 40.2731 30.9137C40.2986 30.7484 40.4369 30.6326 40.5819 30.6551C40.7269 30.6775 40.8236 30.8297 40.7981 30.9949Z" fill="#35B2C2"/>
<path d="M40.2948 30.1257C40.2693 30.291 40.131 30.4068 39.986 30.3843C39.841 30.3619 39.7442 30.2097 39.7698 30.0445C39.7954 29.8792 39.9337 29.7634 40.0786 29.7858C40.2236 29.8083 40.3204 29.9605 40.2948 30.1257Z" fill="#35B2C2"/>
<path d="M39.7001 29.348C39.6745 29.5133 39.5363 29.6291 39.3913 29.6066C39.2463 29.5842 39.1495 29.432 39.1751 29.2667C39.2007 29.1015 39.3389 28.9857 39.4839 29.0081C39.6289 29.0306 39.7257 29.1827 39.7001 29.348Z" fill="#35B2C2"/>
<path d="M39.0139 28.6618C38.9883 28.8271 38.85 28.9428 38.7051 28.9204C38.5601 28.898 38.4633 28.7458 38.4889 28.5805C38.5145 28.4152 38.6527 28.2995 38.7977 28.3219C38.9427 28.3443 39.0395 28.4965 39.0139 28.6618Z" fill="#35B2C2"/>
<path d="M38.2362 28.0671C38.2106 28.2323 38.0723 28.3481 37.9273 28.3257C37.7824 28.3032 37.6856 28.1511 37.7111 27.9858C37.7367 27.8205 37.875 27.7047 38.02 27.7272C38.1649 27.7496 38.2617 27.9018 38.2362 28.0671Z" fill="#35B2C2"/>
<path d="M37.4127 27.5638C37.3871 27.7291 37.2488 27.8449 37.1039 27.8224C36.9589 27.8 36.8621 27.6478 36.8877 27.4826C36.9133 27.3173 37.0515 27.2015 37.1965 27.2239C37.3415 27.2464 37.4383 27.3985 37.4127 27.5638Z" fill="#35B2C2"/>
<path d="M36.5435 27.1978C36.5179 27.3631 36.3796 27.4789 36.2346 27.4565C36.0897 27.434 35.9929 27.2818 36.0185 27.1166C36.044 26.9513 36.1823 26.8355 36.3273 26.858C36.4723 26.8804 36.569 27.0326 36.5435 27.1978Z" fill="#35B2C2"/>
<path d="M35.6285 26.9691C35.6029 27.1344 35.4647 27.2501 35.3197 27.2277C35.1747 27.2053 35.0779 27.0531 35.1035 26.8878C35.1291 26.7226 35.2673 26.6068 35.4123 26.6292C35.5573 26.6516 35.6541 26.8038 35.6285 26.9691Z" fill="#35B2C2"/>
<path d="M34.6678 26.8318C34.6422 26.9971 34.5039 27.1129 34.359 27.0905C34.214 27.068 34.1172 26.9159 34.1428 26.7506C34.1684 26.5853 34.3066 26.4695 34.4516 26.492C34.5966 26.5144 34.6934 26.6666 34.6678 26.8318Z" fill="#35B2C2"/>
<path d="M33.7071 26.8318C33.6815 26.9971 33.5432 27.1129 33.3982 27.0905C33.2533 27.068 33.1565 26.9159 33.1821 26.7506C33.2076 26.5853 33.3459 26.4695 33.4909 26.492C33.6359 26.5144 33.7326 26.6666 33.7071 26.8318Z" fill="#35B2C2"/>
<path d="M32.7921 26.9233C32.7665 27.0886 32.6283 27.2044 32.4833 27.182C32.3383 27.1595 32.2415 27.0074 32.2671 26.8421C32.2927 26.6768 32.4309 26.561 32.5759 26.5835C32.7209 26.6059 32.8177 26.7581 32.7921 26.9233Z" fill="#35B2C2"/>
<path d="M31.8314 27.1521C31.8058 27.3174 31.6675 27.4331 31.5226 27.4107C31.3776 27.3883 31.2808 27.2361 31.3064 27.0708C31.332 26.9055 31.4702 26.7898 31.6152 26.8122C31.7602 26.8346 31.857 26.9868 31.8314 27.1521Z" fill="#35B2C2"/>
<path d="M30.9164 27.5181C30.8908 27.6833 30.7526 27.7991 30.6076 27.7767C30.4626 27.7542 30.3658 27.6021 30.3914 27.4368C30.417 27.2715 30.5553 27.1557 30.7002 27.1782C30.8452 27.2006 30.942 27.3528 30.9164 27.5181Z" fill="#35B2C2"/>
<path d="M30.0472 27.9756C30.0216 28.1408 29.8834 28.2566 29.7384 28.2342C29.5934 28.2117 29.4966 28.0596 29.5222 27.8943C29.5478 27.729 29.686 27.6132 29.831 27.6357C29.976 27.6581 30.0728 27.8103 30.0472 27.9756Z" fill="#35B2C2"/>
<path d="M29.178 28.5703C29.1524 28.7356 29.0141 28.8513 28.8692 28.8289C28.7242 28.8065 28.6274 28.6543 28.653 28.489C28.6786 28.3237 28.8168 28.208 28.9618 28.2304C29.1068 28.2528 29.2036 28.405 29.178 28.5703Z" fill="#35B2C2"/>
<path d="M28.446 29.2565C28.4204 29.4218 28.2822 29.5376 28.1372 29.5151C27.9922 29.4927 27.8954 29.3405 27.921 29.1752C27.9466 29.01 28.0848 28.8942 28.2298 28.9166C28.3748 28.9391 28.4716 29.0912 28.446 29.2565Z" fill="#35B2C2"/>
<path d="M27.714 30.0342C27.6884 30.1995 27.5502 30.3153 27.4052 30.2929C27.2602 30.2704 27.1634 30.1182 27.189 29.953C27.2146 29.7877 27.3529 29.6719 27.4978 29.6944C27.6428 29.7168 27.7396 29.869 27.714 30.0342Z" fill="#35B2C2"/>
<path d="M27.0736 30.9035C27.048 31.0687 26.9097 31.1845 26.7647 31.1621C26.6198 31.1396 26.523 30.9875 26.5485 30.8222C26.5741 30.6569 26.7124 30.5411 26.8574 30.5636C27.0023 30.586 27.0991 30.7382 27.0736 30.9035Z" fill="#35B2C2"/>
<path d="M26.5703 31.8642C26.5447 32.0294 26.4065 32.1452 26.2615 32.1228C26.1165 32.1003 26.0197 31.9482 26.0453 31.7829C26.0709 31.6176 26.2092 31.5018 26.3541 31.5243C26.4991 31.5467 26.5959 31.6989 26.5703 31.8642Z" fill="#35B2C2"/>
<path d="M26.1586 32.8249C26.133 32.9902 25.9947 33.1059 25.8498 33.0835C25.7048 33.0611 25.608 32.9089 25.6336 32.7436C25.6592 32.5783 25.7974 32.4626 25.9424 32.485C26.0874 32.5074 26.1842 32.6596 26.1586 32.8249Z" fill="#35B2C2"/>
<path d="M25.7926 33.8313C25.767 33.9966 25.6288 34.1124 25.4838 34.09C25.3388 34.0675 25.242 33.9154 25.2676 33.7501C25.2932 33.5848 25.4314 33.469 25.5764 33.4915C25.7214 33.5139 25.8182 33.6661 25.7926 33.8313Z" fill="#35B2C2"/>
<path d="M25.5639 34.8836C25.5383 35.0488 25.4 35.1646 25.255 35.1422C25.1101 35.1197 25.0133 34.9676 25.0388 34.8023C25.0644 34.637 25.2027 34.5212 25.3477 34.5437C25.4926 34.5661 25.5894 34.7183 25.5639 34.8836Z" fill="#35B2C2"/>
<path d="M25.4266 35.9815C25.401 36.1468 25.2628 36.2626 25.1178 36.2401C24.9728 36.2177 24.876 36.0655 24.9016 35.9003C24.9272 35.735 25.0655 35.6192 25.2104 35.6416C25.3554 35.6641 25.4522 35.8162 25.4266 35.9815Z" fill="#35B2C2"/>
<path d="M25.4266 37.0795C25.401 37.2448 25.2628 37.3605 25.1178 37.3381C24.9728 37.3157 24.876 37.1635 24.9016 36.9982C24.9272 36.8329 25.0655 36.7172 25.2104 36.7396C25.3554 36.762 25.4522 36.9142 25.4266 37.0795Z" fill="#35B2C2"/>
<path d="M25.5181 38.1317C25.4925 38.297 25.3543 38.4128 25.2093 38.3903C25.0643 38.3679 24.9675 38.2157 24.9931 38.0504C25.0187 37.8852 25.1569 37.7694 25.3019 37.7918C25.4469 37.8143 25.5437 37.9664 25.5181 38.1317Z" fill="#35B2C2"/>
<path d="M25.7468 39.1839C25.7213 39.3492 25.583 39.465 25.438 39.4425C25.293 39.4201 25.1963 39.2679 25.2218 39.1026C25.2474 38.9374 25.3857 38.8216 25.5307 38.844C25.6756 38.8665 25.7724 39.0186 25.7468 39.1839Z" fill="#35B2C2"/>
<path d="M26.0671 40.0989C26.0415 40.2641 25.9032 40.3799 25.7583 40.3575C25.6133 40.3351 25.5165 40.1829 25.5421 40.0176C25.5677 39.8523 25.7059 39.7366 25.8509 39.759C25.9959 39.7814 26.0927 39.9336 26.0671 40.0989Z" fill="#35B2C2"/>
<path d="M26.4788 41.0596C26.4532 41.2249 26.315 41.3407 26.17 41.3182C26.025 41.2958 25.9282 41.1436 25.9538 40.9783C25.9794 40.8131 26.1177 40.6973 26.2626 40.7197C26.4076 40.7421 26.5044 40.8943 26.4788 41.0596Z" fill="#35B2C2"/>
<path d="M26.9821 41.9288C26.9565 42.0941 26.8182 42.2099 26.6732 42.1874C26.5283 42.165 26.4315 42.0128 26.457 41.8475C26.4826 41.6823 26.6209 41.5665 26.7659 41.5889C26.9108 41.6114 27.0076 41.7635 26.9821 41.9288Z" fill="#35B2C2"/>
<path d="M27.5768 42.7065C27.5512 42.8718 27.4129 42.9876 27.268 42.9652C27.123 42.9427 27.0262 42.7905 27.0518 42.6253C27.0774 42.46 27.2156 42.3442 27.3606 42.3666C27.5056 42.3891 27.6024 42.5413 27.5768 42.7065Z" fill="#35B2C2"/>
<path d="M28.3088 43.3928C28.2832 43.558 28.1449 43.6738 27.9999 43.6514C27.855 43.6289 27.7582 43.4768 27.7838 43.3115C27.8093 43.1462 27.9476 43.0304 28.0926 43.0529C28.2376 43.0753 28.3343 43.2275 28.3088 43.3928Z" fill="#35B2C2"/>
<path d="M29.0407 43.9875C29.0152 44.1528 28.8769 44.2685 28.7319 44.2461C28.5869 44.2237 28.4901 44.0715 28.5157 43.9062C28.5413 43.741 28.6796 43.6252 28.8245 43.6476C28.9695 43.67 29.0663 43.8222 29.0407 43.9875Z" fill="#35B2C2"/>
<path d="M29.8642 44.4907C29.8386 44.656 29.7004 44.7718 29.5554 44.7493C29.4104 44.7269 29.3136 44.5747 29.3392 44.4095C29.3648 44.2442 29.503 44.1284 29.648 44.1508C29.793 44.1733 29.8898 44.3254 29.8642 44.4907Z" fill="#35B2C2"/>
<path d="M30.7334 44.8567C30.7078 45.022 30.5696 45.1378 30.4246 45.1153C30.2796 45.0929 30.1828 44.9407 30.2084 44.7754C30.234 44.6102 30.3723 44.4944 30.5172 44.5168C30.6622 44.5393 30.759 44.6914 30.7334 44.8567Z" fill="#35B2C2"/>
<path d="M31.6484 45.0854C31.6228 45.2507 31.4845 45.3665 31.3396 45.3441C31.1946 45.3216 31.0978 45.1695 31.1234 45.0042C31.149 44.8389 31.2872 44.7231 31.4322 44.7456C31.5772 44.768 31.674 44.9202 31.6484 45.0854Z" fill="#35B2C2"/>
<path d="M32.6091 45.2227C32.5835 45.388 32.4453 45.5038 32.3003 45.4813C32.1553 45.4589 32.0585 45.3067 32.0841 45.1414C32.1097 44.9762 32.2479 44.8604 32.3929 44.8828C32.5379 44.9053 32.6347 45.0574 32.6091 45.2227Z" fill="#35B2C2"/>
<path d="M33.5241 45.2227C33.4985 45.388 33.3602 45.5038 33.2153 45.4813C33.0703 45.4589 32.9735 45.3067 32.9991 45.1414C33.0246 44.9762 33.1629 44.8604 33.3079 44.8828C33.4529 44.9053 33.5497 45.0574 33.5241 45.2227Z" fill="#35B2C2"/>
<path d="M34.4848 45.1312C34.4592 45.2965 34.3209 45.4123 34.176 45.3898C34.031 45.3674 33.9342 45.2152 33.9598 45.0499C33.9854 44.8847 34.1236 44.7689 34.2686 44.7913C34.4136 44.8138 34.5104 44.9659 34.4848 45.1312Z" fill="#35B2C2"/>
<path d="M35.4455 44.9025C35.4199 45.0677 35.2817 45.1835 35.1367 45.1611C34.9917 45.1386 34.8949 44.9865 34.9205 44.8212C34.9461 44.6559 35.0843 44.5401 35.2293 44.5626C35.3743 44.585 35.4711 44.7372 35.4455 44.9025Z" fill="#35B2C2"/>
<path d="M36.3605 44.5365C36.3349 44.7017 36.1966 44.8175 36.0517 44.7951C35.9067 44.7726 35.8099 44.6205 35.8355 44.4552C35.861 44.2899 35.9993 44.1741 36.1443 44.1966C36.2893 44.219 36.3861 44.3712 36.3605 44.5365Z" fill="#35B2C2"/>
<path d="M37.2297 44.0332C37.2041 44.1985 37.0658 44.3143 36.9209 44.2919C36.7759 44.2694 36.6791 44.1172 36.7047 43.952C36.7303 43.7867 36.8685 43.6709 37.0135 43.6934C37.1585 43.7158 37.2553 43.868 37.2297 44.0332Z" fill="#35B2C2"/>
<path d="M38.0532 43.4385C38.0276 43.6038 37.8893 43.7196 37.7443 43.6971C37.5994 43.6747 37.5026 43.5225 37.5282 43.3572C37.5537 43.192 37.692 43.0762 37.837 43.0986C37.982 43.1211 38.0787 43.2732 38.0532 43.4385Z" fill="#35B2C2"/>
<path d="M38.8309 42.7523C38.8053 42.9176 38.667 43.0333 38.5221 43.0109C38.3771 42.9885 38.2803 42.8363 38.3059 42.671C38.3315 42.5057 38.4697 42.39 38.6147 42.4124C38.7597 42.4348 38.8565 42.587 38.8309 42.7523Z" fill="#35B2C2"/>
<path d="M39.5629 42.0203C39.5373 42.1856 39.399 42.3014 39.254 42.2789C39.1091 42.2565 39.0123 42.1043 39.0379 41.939C39.0634 41.7738 39.2017 41.658 39.3467 41.6804C39.4917 41.7029 39.5884 41.855 39.5629 42.0203Z" fill="#35B2C2"/>
<path d="M30.6654 46.0545C30.6654 46.2693 30.4913 46.4434 30.2765 46.4434C30.0618 46.4434 29.8877 46.2693 29.8877 46.0545C29.8877 45.8397 30.0618 45.6657 30.2765 45.6657C30.4913 45.6657 30.6654 45.8397 30.6654 46.0545Z" fill="#35B2C2"/>
<path d="M31.9463 46.329C31.9463 46.5438 31.7722 46.7179 31.5575 46.7179C31.3427 46.7179 31.1686 46.5438 31.1686 46.329C31.1686 46.1142 31.3427 45.9401 31.5575 45.9401C31.7722 45.9401 31.9463 46.1142 31.9463 46.329Z" fill="#35B2C2"/>
<path d="M33.2273 46.4662C33.2273 46.681 33.0532 46.8551 32.8384 46.8551C32.6237 46.8551 32.4496 46.681 32.4496 46.4662C32.4496 46.2515 32.6237 46.0774 32.8384 46.0774C33.0532 46.0774 33.2273 46.2515 33.2273 46.4662Z" fill="#35B2C2"/>
<path d="M34.5997 46.4662C34.5997 46.681 34.4256 46.8551 34.2109 46.8551C33.9961 46.8551 33.822 46.681 33.822 46.4662C33.822 46.2515 33.9961 46.0774 34.2109 46.0774C34.4256 46.0774 34.5997 46.2515 34.5997 46.4662Z" fill="#35B2C2"/>
<path d="M35.8807 46.329C35.8807 46.5438 35.7066 46.7179 35.4918 46.7179C35.2771 46.7179 35.103 46.5438 35.103 46.329C35.103 46.1142 35.2771 45.9401 35.4918 45.9401C35.7066 45.9401 35.8807 46.1142 35.8807 46.329Z" fill="#35B2C2"/>
<path d="M37.1616 46.0545C37.1616 46.2693 36.9875 46.4434 36.7728 46.4434C36.558 46.4434 36.3839 46.2693 36.3839 46.0545C36.3839 45.8397 36.558 45.6657 36.7728 45.6657C36.9875 45.6657 37.1616 45.8397 37.1616 46.0545Z" fill="#35B2C2"/>
<path d="M38.3968 45.5513C38.3968 45.766 38.2228 45.9401 38.008 45.9401C37.7932 45.9401 37.6191 45.766 37.6191 45.5513C37.6191 45.3365 37.7932 45.1624 38.008 45.1624C38.2228 45.1624 38.3968 45.3365 38.3968 45.5513Z" fill="#35B2C2"/>
<path d="M39.5863 45.0023C39.5863 45.2171 39.4122 45.3912 39.1974 45.3912C38.9827 45.3912 38.8086 45.2171 38.8086 45.0023C38.8086 44.7875 38.9827 44.6134 39.1974 44.6134C39.4122 44.6134 39.5863 44.7875 39.5863 45.0023Z" fill="#35B2C2"/>
<path d="M40.6843 44.2246C40.6843 44.4393 40.5102 44.6134 40.2954 44.6134C40.0806 44.6134 39.9065 44.4393 39.9065 44.2246C39.9065 44.0098 40.0806 43.8357 40.2954 43.8357C40.5102 43.8357 40.6843 44.0098 40.6843 44.2246Z" fill="#35B2C2"/>
<path d="M41.6907 43.4469C41.6907 43.6616 41.5166 43.8357 41.3019 43.8357C41.0871 43.8357 40.913 43.6616 40.913 43.4469C40.913 43.2321 41.0871 43.058 41.3019 43.058C41.5166 43.058 41.6907 43.2321 41.6907 43.4469Z" fill="#35B2C2"/>
<path d="M42.6057 42.4404C42.6057 42.6552 42.4316 42.8293 42.2168 42.8293C42.0021 42.8293 41.828 42.6552 41.828 42.4404C41.828 42.2256 42.0021 42.0515 42.2168 42.0515C42.4316 42.0515 42.6057 42.2256 42.6057 42.4404Z" fill="#35B2C2"/>
<path d="M43.3834 41.3882C43.3834 41.6029 43.2093 41.777 42.9946 41.777C42.7798 41.777 42.6057 41.6029 42.6057 41.3882C42.6057 41.1734 42.7798 40.9993 42.9946 40.9993C43.2093 40.9993 43.3834 41.1734 43.3834 41.3882Z" fill="#35B2C2"/>
<path d="M44.0239 40.2445C44.0239 40.4592 43.8498 40.6333 43.635 40.6333C43.4203 40.6333 43.2462 40.4592 43.2462 40.2445C43.2462 40.0297 43.4203 39.8556 43.635 39.8556C43.8498 39.8556 44.0239 40.0297 44.0239 40.2445Z" fill="#35B2C2"/>
<path d="M44.5729 39.055C44.5729 39.2698 44.3988 39.4439 44.184 39.4439C43.9693 39.4439 43.7952 39.2698 43.7952 39.055C43.7952 38.8402 43.9693 38.6662 44.184 38.6662C44.3988 38.6662 44.5729 38.8402 44.5729 39.055Z" fill="#35B2C2"/>
<path d="M44.9389 37.8198C44.9389 38.0346 44.7648 38.2087 44.55 38.2087C44.3352 38.2087 44.1611 38.0346 44.1611 37.8198C44.1611 37.605 44.3352 37.4309 44.55 37.4309C44.7648 37.4309 44.9389 37.605 44.9389 37.8198Z" fill="#35B2C2"/>
<path d="M45.1676 36.4931C45.1676 36.7079 44.9935 36.882 44.7787 36.882C44.564 36.882 44.3899 36.7079 44.3899 36.4931C44.3899 36.2783 44.564 36.1042 44.7787 36.1042C44.9935 36.1042 45.1676 36.2783 45.1676 36.4931Z" fill="#35B2C2"/>
<path d="M45.1676 35.1664C45.1676 35.3812 44.9935 35.5553 44.7787 35.5553C44.564 35.5553 44.3899 35.3812 44.3899 35.1664C44.3899 34.9516 44.564 34.7775 44.7787 34.7775C44.9935 34.7775 45.1676 34.9516 45.1676 35.1664Z" fill="#35B2C2"/>
<path d="M45.1676 33.8397C45.1676 34.0545 44.9935 34.2286 44.7787 34.2286C44.564 34.2286 44.3899 34.0545 44.3899 33.8397C44.3899 33.6249 44.564 33.4508 44.7787 33.4508C44.9935 33.4508 45.1676 33.6249 45.1676 33.8397Z" fill="#35B2C2"/>
<path d="M44.9389 32.6045C44.9389 32.8193 44.7648 32.9934 44.55 32.9934C44.3352 32.9934 44.1611 32.8193 44.1611 32.6045C44.1611 32.3897 44.3352 32.2156 44.55 32.2156C44.7648 32.2156 44.9389 32.3897 44.9389 32.6045Z" fill="#35B2C2"/>
<path d="M44.5729 31.2778C44.5729 31.4925 44.3988 31.6666 44.184 31.6666C43.9693 31.6666 43.7952 31.4925 43.7952 31.2778C43.7952 31.063 43.9693 30.8889 44.184 30.8889C44.3988 30.8889 44.5729 31.063 44.5729 31.2778Z" fill="#35B2C2"/>
<path d="M44.0239 30.1341C44.0239 30.3488 43.8498 30.5229 43.635 30.5229C43.4203 30.5229 43.2462 30.3488 43.2462 30.1341C43.2462 29.9193 43.4203 29.7452 43.635 29.7452C43.8498 29.7452 44.0239 29.9193 44.0239 30.1341Z" fill="#35B2C2"/>
<path d="M43.3834 28.9904C43.3834 29.2051 43.2093 29.3792 42.9946 29.3792C42.7798 29.3792 42.6057 29.2051 42.6057 28.9904C42.6057 28.7756 42.7798 28.6015 42.9946 28.6015C43.2093 28.6015 43.3834 28.7756 43.3834 28.9904Z" fill="#35B2C2"/>
<path d="M42.6057 27.9839C42.6057 28.1987 42.4316 28.3728 42.2168 28.3728C42.0021 28.3728 41.828 28.1987 41.828 27.9839C41.828 27.7691 42.0021 27.595 42.2168 27.595C42.4316 27.595 42.6057 27.7691 42.6057 27.9839Z" fill="#35B2C2"/>
<path d="M41.645 26.9317C41.645 27.1465 41.4709 27.3206 41.2561 27.3206C41.0414 27.3206 40.8673 27.1465 40.8673 26.9317C40.8673 26.7169 41.0414 26.5428 41.2561 26.5428C41.4709 26.5428 41.645 26.7169 41.645 26.9317Z" fill="#35B2C2"/>
<path d="M40.6843 26.154C40.6843 26.3687 40.5102 26.5428 40.2954 26.5428C40.0806 26.5428 39.9065 26.3687 39.9065 26.154C39.9065 25.9392 40.0806 25.7651 40.2954 25.7651C40.5102 25.7651 40.6843 25.9392 40.6843 26.154Z" fill="#35B2C2"/>
<path d="M39.5863 25.3762C39.5863 25.591 39.4122 25.7651 39.1974 25.7651C38.9827 25.7651 38.8086 25.591 38.8086 25.3762C38.8086 25.1615 38.9827 24.9874 39.1974 24.9874C39.4122 24.9874 39.5863 25.1615 39.5863 25.3762Z" fill="#35B2C2"/>
<path d="M38.4426 24.8273C38.4426 25.042 38.2685 25.2161 38.0537 25.2161C37.839 25.2161 37.6649 25.042 37.6649 24.8273C37.6649 24.6125 37.839 24.4384 38.0537 24.4384C38.2685 24.4384 38.4426 24.6125 38.4426 24.8273Z" fill="#35B2C2"/>
<path d="M37.1616 24.324C37.1616 24.5388 36.9875 24.7129 36.7728 24.7129C36.558 24.7129 36.3839 24.5388 36.3839 24.324C36.3839 24.1093 36.558 23.9352 36.7728 23.9352C36.9875 23.9352 37.1616 24.1093 37.1616 24.324Z" fill="#35B2C2"/>
<path d="M35.9264 24.0495C35.9264 24.2643 35.7523 24.4384 35.5376 24.4384C35.3228 24.4384 35.1487 24.2643 35.1487 24.0495C35.1487 23.8348 35.3228 23.6607 35.5376 23.6607C35.7523 23.6607 35.9264 23.8348 35.9264 24.0495Z" fill="#35B2C2"/>
<path d="M34.554 23.9123C34.554 24.1271 34.3799 24.3012 34.1651 24.3012C33.9504 24.3012 33.7763 24.1271 33.7763 23.9123C33.7763 23.6975 33.9504 23.5234 34.1651 23.5234C34.3799 23.5234 34.554 23.6975 34.554 23.9123Z" fill="#35B2C2"/>
<path d="M33.3188 23.9123C33.3188 24.1271 33.1447 24.3012 32.9299 24.3012C32.7152 24.3012 32.5411 24.1271 32.5411 23.9123C32.5411 23.6975 32.7152 23.5234 32.9299 23.5234C33.1447 23.5234 33.3188 23.6975 33.3188 23.9123Z" fill="#35B2C2"/>
<path d="M31.9463 24.0495C31.9463 24.2643 31.7722 24.4384 31.5575 24.4384C31.3427 24.4384 31.1686 24.2643 31.1686 24.0495C31.1686 23.8348 31.3427 23.6607 31.5575 23.6607C31.7722 23.6607 31.9463 23.8348 31.9463 24.0495Z" fill="#35B2C2"/>
<path d="M30.6654 24.324C30.6654 24.5388 30.4913 24.7129 30.2765 24.7129C30.0618 24.7129 29.8877 24.5388 29.8877 24.324C29.8877 24.1093 30.0618 23.9352 30.2765 23.9352C30.4913 23.9352 30.6654 24.1093 30.6654 24.324Z" fill="#35B2C2"/>
<path d="M29.4759 24.8273C29.4759 25.042 29.3018 25.2161 29.0871 25.2161C28.8723 25.2161 28.6982 25.042 28.6982 24.8273C28.6982 24.6125 28.8723 24.4384 29.0871 24.4384C29.3018 24.4384 29.4759 24.6125 29.4759 24.8273Z" fill="#35B2C2"/>
<path d="M28.2407 25.422C28.2407 25.6368 28.0666 25.8109 27.8518 25.8109C27.6371 25.8109 27.463 25.6368 27.463 25.422C27.463 25.2072 27.6371 25.0331 27.8518 25.0331C28.0666 25.0331 28.2407 25.2072 28.2407 25.422Z" fill="#35B2C2"/>
<path d="M27.1427 26.1082C27.1427 26.323 26.9686 26.4971 26.7539 26.4971C26.5391 26.4971 26.365 26.323 26.365 26.1082C26.365 25.8935 26.5391 25.7194 26.7539 25.7194C26.9686 25.7194 27.1427 25.8935 27.1427 26.1082Z" fill="#35B2C2"/>
<path d="M26.1363 26.9774C26.1363 27.1922 25.9622 27.3663 25.7474 27.3663C25.5327 27.3663 25.3586 27.1922 25.3586 26.9774C25.3586 26.7627 25.5327 26.5886 25.7474 26.5886C25.9622 26.5886 26.1363 26.7627 26.1363 26.9774Z" fill="#35B2C2"/>
<path d="M25.2671 27.9382C25.2671 28.1529 25.093 28.327 24.8782 28.327C24.6634 28.327 24.4893 28.1529 24.4893 27.9382C24.4893 27.7234 24.6634 27.5493 24.8782 27.5493C25.093 27.5493 25.2671 27.7234 25.2671 27.9382Z" fill="#35B2C2"/>
<path d="M24.4893 28.9904C24.4893 29.2051 24.3152 29.3792 24.1005 29.3792C23.8857 29.3792 23.7116 29.2051 23.7116 28.9904C23.7116 28.7756 23.8857 28.6015 24.1005 28.6015C24.3152 28.6015 24.4893 28.7756 24.4893 28.9904Z" fill="#35B2C2"/>
<path d="M23.8031 30.1341C23.8031 30.3488 23.629 30.5229 23.4143 30.5229C23.1995 30.5229 23.0254 30.3488 23.0254 30.1341C23.0254 29.9193 23.1995 29.7452 23.4143 29.7452C23.629 29.7452 23.8031 29.9193 23.8031 30.1341Z" fill="#35B2C2"/>
<path d="M23.2541 31.3235C23.2541 31.5383 23.08 31.7124 22.8653 31.7124C22.6505 31.7124 22.4764 31.5383 22.4764 31.3235C22.4764 31.1088 22.6505 30.9347 22.8653 30.9347C23.08 30.9347 23.2541 31.1088 23.2541 31.3235Z" fill="#35B2C2"/>
<path d="M22.8882 32.5587C22.8882 32.7735 22.7141 32.9476 22.4993 32.9476C22.2845 32.9476 22.1104 32.7735 22.1104 32.5587C22.1104 32.344 22.2845 32.1699 22.4993 32.1699C22.7141 32.1699 22.8882 32.344 22.8882 32.5587Z" fill="#35B2C2"/>
<path d="M22.7052 33.9312C22.7052 34.146 22.5311 34.3201 22.3163 34.3201C22.1015 34.3201 21.9274 34.146 21.9274 33.9312C21.9274 33.7164 22.1015 33.5423 22.3163 33.5423C22.5311 33.5423 22.7052 33.7164 22.7052 33.9312Z" fill="#35B2C2"/>
<path d="M22.6137 35.2579C22.6137 35.4727 22.4396 35.6468 22.2248 35.6468C22.01 35.6468 21.8359 35.4727 21.8359 35.2579C21.8359 35.0431 22.01 34.869 22.2248 34.869C22.4396 34.869 22.6137 35.0431 22.6137 35.2579Z" fill="#35B2C2"/>
<path d="M22.7052 36.4931C22.7052 36.7079 22.5311 36.882 22.3163 36.882C22.1015 36.882 21.9274 36.7079 21.9274 36.4931C21.9274 36.2783 22.1015 36.1042 22.3163 36.1042C22.5311 36.1042 22.7052 36.2783 22.7052 36.4931Z" fill="#35B2C2"/>
<path d="M22.8882 37.8198C22.8882 38.0346 22.7141 38.2087 22.4993 38.2087C22.2845 38.2087 22.1104 38.0346 22.1104 37.8198C22.1104 37.605 22.2845 37.4309 22.4993 37.4309C22.7141 37.4309 22.8882 37.605 22.8882 37.8198Z" fill="#35B2C2"/>
<path d="M23.2999 39.055C23.2999 39.2698 23.1258 39.4439 22.911 39.4439C22.6963 39.4439 22.5222 39.2698 22.5222 39.055C22.5222 38.8402 22.6963 38.6662 22.911 38.6662C23.1258 38.6662 23.2999 38.8402 23.2999 39.055Z" fill="#35B2C2"/>
<path d="M23.8031 40.2445C23.8031 40.4592 23.629 40.6333 23.4143 40.6333C23.1995 40.6333 23.0254 40.4592 23.0254 40.2445C23.0254 40.0297 23.1995 39.8556 23.4143 39.8556C23.629 39.8556 23.8031 40.0297 23.8031 40.2445Z" fill="#35B2C2"/>
<path d="M24.4893 41.3882C24.4893 41.6029 24.3152 41.777 24.1005 41.777C23.8857 41.777 23.7116 41.6029 23.7116 41.3882C23.7116 41.1734 23.8857 40.9993 24.1005 40.9993C24.3152 40.9993 24.4893 41.1734 24.4893 41.3882Z" fill="#35B2C2"/>
<path d="M25.2671 42.4404C25.2671 42.6552 25.093 42.8293 24.8782 42.8293C24.6634 42.8293 24.4893 42.6552 24.4893 42.4404C24.4893 42.2256 24.6634 42.0515 24.8782 42.0515C25.093 42.0515 25.2671 42.2256 25.2671 42.4404Z" fill="#35B2C2"/>
<path d="M26.182 43.4469C26.182 43.6616 26.0079 43.8357 25.7932 43.8357C25.5784 43.8357 25.4043 43.6616 25.4043 43.4469C25.4043 43.2321 25.5784 43.058 25.7932 43.058C26.0079 43.058 26.182 43.2321 26.182 43.4469Z" fill="#35B2C2"/>
<path d="M27.1427 44.2246C27.1427 44.4393 26.9686 44.6134 26.7539 44.6134C26.5391 44.6134 26.365 44.4393 26.365 44.2246C26.365 44.0098 26.5391 43.8357 26.7539 43.8357C26.9686 43.8357 27.1427 44.0098 27.1427 44.2246Z" fill="#35B2C2"/>
<path d="M28.2407 45.0023C28.2407 45.2171 28.0666 45.3912 27.8518 45.3912C27.6371 45.3912 27.463 45.2171 27.463 45.0023C27.463 44.7875 27.6371 44.6134 27.8518 44.6134C28.0666 44.6134 28.2407 44.7875 28.2407 45.0023Z" fill="#35B2C2"/>
<path d="M29.4759 45.5513C29.4759 45.766 29.3018 45.9401 29.0871 45.9401C28.8723 45.9401 28.6982 45.766 28.6982 45.5513C28.6982 45.3365 28.8723 45.1624 29.0871 45.1624C29.3018 45.1624 29.4759 45.3365 29.4759 45.5513Z" fill="#35B2C2"/>
<path d="M28.378 34.0227C28.378 34.1364 28.2858 34.2286 28.1721 34.2286C28.0584 34.2286 27.9662 34.1364 27.9662 34.0227C27.9662 33.909 28.0584 33.8168 28.1721 33.8168C28.2858 33.8168 28.378 33.909 28.378 34.0227Z" fill="#35B2C2"/>
<path d="M28.6524 33.3822C28.6524 33.4959 28.5603 33.5881 28.4466 33.5881C28.3329 33.5881 28.2407 33.4959 28.2407 33.3822C28.2407 33.2685 28.3329 33.1763 28.4466 33.1763C28.5603 33.1763 28.6524 33.2685 28.6524 33.3822Z" fill="#35B2C2"/>
<path d="M29.0642 32.7875C29.0642 32.9012 28.972 32.9934 28.8583 32.9934C28.7446 32.9934 28.6524 32.9012 28.6524 32.7875C28.6524 32.6738 28.7446 32.5816 28.8583 32.5816C28.972 32.5816 29.0642 32.6738 29.0642 32.7875Z" fill="#35B2C2"/>
<path d="M29.4759 32.2385C29.4759 32.3522 29.3837 32.4444 29.27 32.4444C29.1564 32.4444 29.0642 32.3522 29.0642 32.2385C29.0642 32.1248 29.1564 32.0326 29.27 32.0326C29.3837 32.0326 29.4759 32.1248 29.4759 32.2385Z" fill="#35B2C2"/>
<path d="M29.9791 31.781C29.9791 31.8947 29.887 31.9869 29.7733 31.9869C29.6596 31.9869 29.5674 31.8947 29.5674 31.781C29.5674 31.6673 29.6596 31.5752 29.7733 31.5752C29.887 31.5752 29.9791 31.6673 29.9791 31.781Z" fill="#35B2C2"/>
<path d="M30.5281 31.3693C30.5281 31.483 30.436 31.5752 30.3223 31.5752C30.2086 31.5752 30.1164 31.483 30.1164 31.3693C30.1164 31.2556 30.2086 31.1634 30.3223 31.1634C30.436 31.1634 30.5281 31.2556 30.5281 31.3693Z" fill="#35B2C2"/>
<path d="M31.1686 31.0033C31.1686 31.117 31.0764 31.2092 30.9627 31.2092C30.849 31.2092 30.7569 31.117 30.7569 31.0033C30.7569 30.8896 30.849 30.7974 30.9627 30.7974C31.0764 30.7974 31.1686 30.8896 31.1686 31.0033Z" fill="#35B2C2"/>
<path d="M31.8091 30.7746C31.8091 30.8883 31.7169 30.9804 31.6032 30.9804C31.4895 30.9804 31.3973 30.8883 31.3973 30.7746C31.3973 30.6609 31.4895 30.5687 31.6032 30.5687C31.7169 30.5687 31.8091 30.6609 31.8091 30.7746Z" fill="#35B2C2"/>
<path d="M32.4496 30.5916C32.4496 30.7053 32.3574 30.7974 32.2437 30.7974C32.13 30.7974 32.0378 30.7053 32.0378 30.5916C32.0378 30.4779 32.13 30.3857 32.2437 30.3857C32.3574 30.3857 32.4496 30.4779 32.4496 30.5916Z" fill="#35B2C2"/>
<path d="M33.1815 30.5001C33.1815 30.6138 33.0894 30.7059 32.9757 30.7059C32.862 30.7059 32.7698 30.6138 32.7698 30.5001C32.7698 30.3864 32.862 30.2942 32.9757 30.2942C33.0894 30.2942 33.1815 30.3864 33.1815 30.5001Z" fill="#35B2C2"/>
<path d="M33.8678 30.4543C33.8678 30.568 33.7756 30.6602 33.6619 30.6602C33.5482 30.6602 33.456 30.568 33.456 30.4543C33.456 30.3406 33.5482 30.2484 33.6619 30.2484C33.7756 30.2484 33.8678 30.3406 33.8678 30.4543Z" fill="#35B2C2"/>
<path d="M34.554 30.5458C34.554 30.6595 34.4618 30.7517 34.3481 30.7517C34.2344 30.7517 34.1423 30.6595 34.1423 30.5458C34.1423 30.4321 34.2344 30.3399 34.3481 30.3399C34.4618 30.3399 34.554 30.4321 34.554 30.5458Z" fill="#35B2C2"/>
<path d="M35.2402 30.6831C35.2402 30.7968 35.148 30.8889 35.0343 30.8889C34.9206 30.8889 34.8285 30.7968 34.8285 30.6831C34.8285 30.5694 34.9206 30.4772 35.0343 30.4772C35.148 30.4772 35.2402 30.5694 35.2402 30.6831Z" fill="#35B2C2"/>
<path d="M35.9264 30.9118C35.9264 31.0255 35.8343 31.1177 35.7206 31.1177C35.6069 31.1177 35.5147 31.0255 35.5147 30.9118C35.5147 30.7981 35.6069 30.7059 35.7206 30.7059C35.8343 30.7059 35.9264 30.7981 35.9264 30.9118Z" fill="#35B2C2"/>
<path d="M36.5669 31.2778C36.5669 31.3915 36.4747 31.4837 36.361 31.4837C36.2473 31.4837 36.1552 31.3915 36.1552 31.2778C36.1552 31.1641 36.2473 31.0719 36.361 31.0719C36.4747 31.0719 36.5669 31.1641 36.5669 31.2778Z" fill="#35B2C2"/>
<path d="M37.1616 31.6438C37.1616 31.7575 37.0695 31.8496 36.9558 31.8496C36.8421 31.8496 36.7499 31.7575 36.7499 31.6438C36.7499 31.5301 36.8421 31.4379 36.9558 31.4379C37.0695 31.4379 37.1616 31.5301 37.1616 31.6438Z" fill="#35B2C2"/>
<path d="M37.7564 32.1013C37.7564 32.215 37.6642 32.3071 37.5505 32.3071C37.4368 32.3071 37.3446 32.215 37.3446 32.1013C37.3446 31.9876 37.4368 31.8954 37.5505 31.8954C37.6642 31.8954 37.7564 31.9876 37.7564 32.1013Z" fill="#35B2C2"/>
<path d="M38.2596 32.6045C38.2596 32.7182 38.1674 32.8104 38.0537 32.8104C37.94 32.8104 37.8479 32.7182 37.8479 32.6045C37.8479 32.4908 37.94 32.3986 38.0537 32.3986C38.1674 32.3986 38.2596 32.4908 38.2596 32.6045Z" fill="#35B2C2"/>
<path d="M38.7171 33.1992C38.7171 33.3129 38.6249 33.4051 38.5112 33.4051C38.3975 33.4051 38.3054 33.3129 38.3054 33.1992C38.3054 33.0855 38.3975 32.9934 38.5112 32.9934C38.6249 32.9934 38.7171 33.0855 38.7171 33.1992Z" fill="#35B2C2"/>
<path d="M39.1288 33.8397C39.1288 33.9534 39.0367 34.0456 38.923 34.0456C38.8093 34.0456 38.7171 33.9534 38.7171 33.8397C38.7171 33.726 38.8093 33.6338 38.923 33.6338C39.0367 33.6338 39.1288 33.726 39.1288 33.8397Z" fill="#35B2C2"/>
<path d="M39.4491 34.4802C39.4491 34.5939 39.3569 34.686 39.2432 34.686C39.1295 34.686 39.0373 34.5939 39.0373 34.4802C39.0373 34.3665 39.1295 34.2743 39.2432 34.2743C39.3569 34.2743 39.4491 34.3665 39.4491 34.4802Z" fill="#35B2C2"/>
<path d="M39.6778 35.1664C39.6778 35.2801 39.5856 35.3723 39.4719 35.3723C39.3582 35.3723 39.2661 35.2801 39.2661 35.1664C39.2661 35.0527 39.3582 34.9605 39.4719 34.9605C39.5856 34.9605 39.6778 35.0527 39.6778 35.1664Z" fill="#35B2C2"/>
<path d="M39.8608 35.8984C39.8608 36.0121 39.7686 36.1042 39.6549 36.1042C39.5412 36.1042 39.4491 36.0121 39.4491 35.8984C39.4491 35.7847 39.5412 35.6925 39.6549 35.6925C39.7686 35.6925 39.8608 35.7847 39.8608 35.8984Z" fill="#35B2C2"/>
<path d="M39.9523 36.6303C39.9523 36.744 39.8601 36.8362 39.7464 36.8362C39.6327 36.8362 39.5406 36.744 39.5406 36.6303C39.5406 36.5166 39.6327 36.4245 39.7464 36.4245C39.8601 36.4245 39.9523 36.5166 39.9523 36.6303Z" fill="#35B2C2"/>
<path d="M39.9523 37.3623C39.9523 37.476 39.8601 37.5682 39.7464 37.5682C39.6327 37.5682 39.5406 37.476 39.5406 37.3623C39.5406 37.2486 39.6327 37.1565 39.7464 37.1565C39.8601 37.1565 39.9523 37.2486 39.9523 37.3623Z" fill="#35B2C2"/>
<path d="M39.9065 38.0943C39.9065 38.208 39.8144 38.3002 39.7007 38.3002C39.587 38.3002 39.4948 38.208 39.4948 38.0943C39.4948 37.9806 39.587 37.8884 39.7007 37.8884C39.8144 37.8884 39.9065 37.9806 39.9065 38.0943Z" fill="#35B2C2"/>
<path d="M39.7236 38.7805C39.7236 38.8942 39.6314 38.9864 39.5177 38.9864C39.404 38.9864 39.3118 38.8942 39.3118 38.7805C39.3118 38.6668 39.404 38.5747 39.5177 38.5747C39.6314 38.5747 39.7236 38.6668 39.7236 38.7805Z" fill="#35B2C2"/>
<path d="M39.4948 39.4667C39.4948 39.5804 39.4026 39.6726 39.2889 39.6726C39.1752 39.6726 39.0831 39.5804 39.0831 39.4667C39.0831 39.353 39.1752 39.2609 39.2889 39.2609C39.4026 39.2609 39.4948 39.353 39.4948 39.4667Z" fill="#35B2C2"/>
<path d="M39.1746 40.1072C39.1746 40.2209 39.0824 40.3131 38.9687 40.3131C38.855 40.3131 38.7628 40.2209 38.7628 40.1072C38.7628 39.9935 38.855 39.9014 38.9687 39.9014C39.0824 39.9014 39.1746 39.9935 39.1746 40.1072Z" fill="#35B2C2"/>
<path d="M38.8086 40.702C38.8086 40.8157 38.7164 40.9078 38.6027 40.9078C38.489 40.9078 38.3968 40.8157 38.3968 40.702C38.3968 40.5883 38.489 40.4961 38.6027 40.4961C38.7164 40.4961 38.8086 40.5883 38.8086 40.702Z" fill="#35B2C2"/>
<path d="M38.3968 41.2509C38.3968 41.3646 38.3047 41.4568 38.191 41.4568C38.0773 41.4568 37.9851 41.3646 37.9851 41.2509C37.9851 41.1372 38.0773 41.0451 38.191 41.0451C38.3047 41.0451 38.3968 41.1372 38.3968 41.2509Z" fill="#35B2C2"/>
<path d="M37.8936 41.7084C37.8936 41.8221 37.8014 41.9143 37.6877 41.9143C37.5741 41.9143 37.4819 41.8221 37.4819 41.7084C37.4819 41.5947 37.5741 41.5026 37.6877 41.5026C37.8014 41.5026 37.8936 41.5947 37.8936 41.7084Z" fill="#35B2C2"/>
<path d="M37.3446 42.1202C37.3446 42.2338 37.2525 42.326 37.1388 42.326C37.0251 42.326 36.9329 42.2338 36.9329 42.1202C36.9329 42.0065 37.0251 41.9143 37.1388 41.9143C37.2525 41.9143 37.3446 42.0065 37.3446 42.1202Z" fill="#35B2C2"/>
<path d="M36.7042 42.4861C36.7042 42.5998 36.612 42.692 36.4983 42.692C36.3846 42.692 36.2924 42.5998 36.2924 42.4861C36.2924 42.3724 36.3846 42.2803 36.4983 42.2803C36.612 42.2803 36.7042 42.3724 36.7042 42.4861Z" fill="#35B2C2"/>
<path d="M36.0637 42.7149C36.0637 42.8286 35.9715 42.9207 35.8578 42.9207C35.7441 42.9207 35.6519 42.8286 35.6519 42.7149C35.6519 42.6012 35.7441 42.509 35.8578 42.509C35.9715 42.509 36.0637 42.6012 36.0637 42.7149Z" fill="#35B2C2"/>
<path d="M35.4232 42.8979C35.4232 43.0116 35.331 43.1037 35.2173 43.1037C35.1036 43.1037 35.0115 43.0116 35.0115 42.8979C35.0115 42.7842 35.1036 42.692 35.2173 42.692C35.331 42.692 35.4232 42.7842 35.4232 42.8979Z" fill="#35B2C2"/>
<path d="M34.005 43.0351C34.005 43.1488 33.9128 43.241 33.7991 43.241C33.6854 43.241 33.5933 43.1488 33.5933 43.0351C33.5933 42.9214 33.6854 42.8293 33.7991 42.8293C33.9128 42.8293 34.005 42.9214 34.005 43.0351Z" fill="#35B2C2"/>
<path d="M33.3188 42.9436C33.3188 43.0573 33.2266 43.1495 33.1129 43.1495C32.9992 43.1495 32.907 43.0573 32.907 42.9436C32.907 42.8299 32.9992 42.7378 33.1129 42.7378C33.2266 42.7378 33.3188 42.8299 33.3188 42.9436Z" fill="#35B2C2"/>
<path d="M32.6326 42.8064C32.6326 42.9201 32.5404 43.0122 32.4267 43.0122C32.313 43.0122 32.2208 42.9201 32.2208 42.8064C32.2208 42.6927 32.313 42.6005 32.4267 42.6005C32.5404 42.6005 32.6326 42.6927 32.6326 42.8064Z" fill="#35B2C2"/>
<path d="M31.9463 42.5319C31.9463 42.6456 31.8542 42.7378 31.7405 42.7378C31.6268 42.7378 31.5346 42.6456 31.5346 42.5319C31.5346 42.4182 31.6268 42.326 31.7405 42.326C31.8542 42.326 31.9463 42.4182 31.9463 42.5319Z" fill="#35B2C2"/>
<path d="M31.3059 42.2116C31.3059 42.3253 31.2137 42.4175 31.1 42.4175C30.9863 42.4175 30.8941 42.3253 30.8941 42.2116C30.8941 42.098 30.9863 42.0058 31.1 42.0058C31.2137 42.0058 31.3059 42.098 31.3059 42.2116Z" fill="#35B2C2"/>
<path d="M30.6654 41.8457C30.6654 41.9594 30.5732 42.0515 30.4595 42.0515C30.3458 42.0515 30.2536 41.9594 30.2536 41.8457C30.2536 41.732 30.3458 41.6398 30.4595 41.6398C30.5732 41.6398 30.6654 41.732 30.6654 41.8457Z" fill="#35B2C2"/>
<path d="M30.1164 41.3882C30.1164 41.5019 30.0242 41.594 29.9105 41.594C29.7968 41.594 29.7047 41.5019 29.7047 41.3882C29.7047 41.2745 29.7968 41.1823 29.9105 41.1823C30.0242 41.1823 30.1164 41.2745 30.1164 41.3882Z" fill="#35B2C2"/>
<path d="M29.6132 40.8392C29.6132 40.9529 29.521 41.0451 29.4073 41.0451C29.2936 41.0451 29.2014 40.9529 29.2014 40.8392C29.2014 40.7255 29.2936 40.6333 29.4073 40.6333C29.521 40.6333 29.6132 40.7255 29.6132 40.8392Z" fill="#35B2C2"/>
<path d="M29.1557 40.2902C29.1557 40.4039 29.0635 40.4961 28.9498 40.4961C28.8361 40.4961 28.7439 40.4039 28.7439 40.2902C28.7439 40.1765 28.8361 40.0843 28.9498 40.0843C29.0635 40.0843 29.1557 40.1765 29.1557 40.2902Z" fill="#35B2C2"/>
<path d="M28.7439 39.6497C28.7439 39.7634 28.6518 39.8556 28.5381 39.8556C28.4244 39.8556 28.3322 39.7634 28.3322 39.6497C28.3322 39.536 28.4244 39.4439 28.5381 39.4439C28.6518 39.4439 28.7439 39.536 28.7439 39.6497Z" fill="#35B2C2"/>
<path d="M28.4237 38.9635C28.4237 39.0772 28.3315 39.1694 28.2178 39.1694C28.1041 39.1694 28.012 39.0772 28.012 38.9635C28.012 38.8498 28.1041 38.7576 28.2178 38.7576C28.3315 38.7576 28.4237 38.8498 28.4237 38.9635Z" fill="#35B2C2"/>
<path d="M28.195 38.2773C28.195 38.391 28.1028 38.4832 27.9891 38.4832C27.8754 38.4832 27.7832 38.391 27.7832 38.2773C27.7832 38.1636 27.8754 38.0714 27.9891 38.0714C28.1028 38.0714 28.195 38.1636 28.195 38.2773Z" fill="#35B2C2"/>
<path d="M28.012 37.5453C28.012 37.659 27.9198 37.7512 27.8061 37.7512C27.6924 37.7512 27.6002 37.659 27.6002 37.5453C27.6002 37.4316 27.6924 37.3394 27.8061 37.3394C27.9198 37.3394 28.012 37.4316 28.012 37.5453Z" fill="#35B2C2"/>
<path d="M27.9205 36.8591C27.9205 36.9728 27.8283 37.065 27.7146 37.065C27.6009 37.065 27.5087 36.9728 27.5087 36.8591C27.5087 36.7454 27.6009 36.6532 27.7146 36.6532C27.8283 36.6532 27.9205 36.7454 27.9205 36.8591Z" fill="#35B2C2"/>
<path d="M27.9205 36.1271C27.9205 36.2408 27.8283 36.333 27.7146 36.333C27.6009 36.333 27.5087 36.2408 27.5087 36.1271C27.5087 36.0134 27.6009 35.9212 27.7146 35.9212C27.8283 35.9212 27.9205 36.0134 27.9205 36.1271Z" fill="#35B2C2"/>
<path d="M27.9662 35.3951C27.9662 35.5088 27.874 35.601 27.7604 35.601C27.6467 35.601 27.5545 35.5088 27.5545 35.3951C27.5545 35.2814 27.6467 35.1893 27.7604 35.1893C27.874 35.1893 27.9662 35.2814 27.9662 35.3951Z" fill="#35B2C2"/>
<path d="M28.1492 34.6632C28.1492 34.7769 28.057 34.869 27.9433 34.869C27.8296 34.869 27.7375 34.7769 27.7375 34.6632C27.7375 34.5495 27.8296 34.4573 27.9433 34.4573C28.057 34.4573 28.1492 34.5495 28.1492 34.6632Z" fill="#35B2C2"/>
<path d="M34.737 42.9894C34.737 43.1031 34.6448 43.1952 34.5311 43.1952C34.4174 43.1952 34.3252 43.1031 34.3252 42.9894C34.3252 42.8757 34.4174 42.7835 34.5311 42.7835C34.6448 42.7835 34.737 42.8757 34.737 42.9894Z" fill="#35B2C2"/>
</g>
<defs>
<filter id="filter0_dd_1968_2512" x="0.622393" y="0.750866" width="221.755" height="313.083" filterUnits="userSpaceOnUse" color-interpolation-filters="sRGB">
<feFlood flood-opacity="0" result="BackgroundImageFix"/>
<feColorMatrix in="SourceAlpha" type="matrix" values="0 0 0 0 0 0 0 0 0 0 0 0 0 0 0 0 0 0 127 0" result="hardAlpha"/>
<feOffset dy="0.146268"/>
<feGaussianBlur stdDeviation="0.219402"/>
<feComposite in2="hardAlpha" operator="out"/>
<feColorMatrix type="matrix" values="0 0 0 0 0.019962 0 0 0 0 0.0677962 0 0 0 0 0.162654 0 0 0 0.09 0"/>
<feBlend mode="normal" in2="BackgroundImageFix" result="effect1_dropShadow_1968_2512"/>
<feColorMatrix in="SourceAlpha" type="matrix" values="0 0 0 0 0 0 0 0 0 0 0 0 0 0 0 0 0 0 127 0" result="hardAlpha"/>
<feOffset dy="0.292536"/>
<feGaussianBlur stdDeviation="0.438804"/>
<feComposite in2="hardAlpha" operator="out"/>
<feColorMatrix type="matrix" values="0 0 0 0 0.0856981 0 0 0 0 0.167367 0 0 0 0 0.329321 0 0 0 0.11 0"/>
<feBlend mode="normal" in2="effect1_dropShadow_1968_2512" result="effect2_dropShadow_1968_2512"/>
<feBlend mode="normal" in="SourceGraphic" in2="effect2_dropShadow_1968_2512" result="shape"/>
</filter>
<linearGradient id="paint0_linear_1968_2512" x1="231.878" y1="1.33594" x2="232.18" y2="175.319" gradientUnits="userSpaceOnUse">
<stop stop-color="white"/>
<stop offset="1" stop-color="white" stop-opacity="0"/>
</linearGradient>
<clipPath id="clip0_1968_2512">
<rect width="220" height="311.328" fill="white" transform="translate(1.5 1.33594)"/>
</clipPath>
</defs>
</svg>
