<svg width="96" height="33" viewBox="0 0 96 33" fill="none" xmlns="http://www.w3.org/2000/svg">
<path d="M25.7421 24.8998C25.7061 25.132 25.5119 25.2947 25.3082 25.2632C25.1045 25.2317 24.9685 25.0179 25.0045 24.7856C25.0404 24.5534 25.2347 24.3908 25.4383 24.4223C25.642 24.4538 25.778 24.6676 25.7421 24.8998Z" fill="white"/>
<path d="M26.5134 23.55C26.4775 23.7822 26.2832 23.9449 26.0795 23.9134C25.8758 23.8818 25.7398 23.668 25.7758 23.4358C25.8117 23.2036 26.006 23.0409 26.2097 23.0725C26.4134 23.104 26.5494 23.3178 26.5134 23.55Z" fill="white"/>
<path d="M27.1562 22.2002C27.1202 22.4324 26.926 22.5951 26.7223 22.5636C26.5186 22.532 26.3826 22.3182 26.4185 22.086C26.4545 21.8538 26.6487 21.6911 26.8524 21.7227C27.0561 21.7542 27.1921 21.968 27.1562 22.2002Z" fill="white"/>
<path d="M27.6061 20.7218C27.5702 20.954 27.3759 21.1167 27.1722 21.0852C26.9685 21.0537 26.8325 20.8399 26.8685 20.6077C26.9044 20.3754 27.0987 20.2128 27.3024 20.2443C27.5061 20.2758 27.6421 20.4896 27.6061 20.7218Z" fill="white"/>
<path d="M27.9275 19.2435C27.8916 19.4757 27.6973 19.6383 27.4936 19.6068C27.2899 19.5753 27.1539 19.3615 27.1899 19.1293C27.2258 18.8971 27.4201 18.7344 27.6238 18.7659C27.8275 18.7975 27.9634 19.0113 27.9275 19.2435Z" fill="white"/>
<path d="M28.0561 17.7651C28.0201 17.9973 27.8259 18.16 27.6222 18.1285C27.4185 18.0969 27.2825 17.8831 27.3184 17.6509C27.3544 17.4187 27.5486 17.256 27.7523 17.2876C27.956 17.3191 28.092 17.5329 28.0561 17.7651Z" fill="white"/>
<path d="M28.1203 16.2224C28.0844 16.4547 27.8901 16.6173 27.6864 16.5858C27.4827 16.5543 27.3468 16.3405 27.3827 16.1083C27.4186 15.8761 27.6129 15.7134 27.8166 15.7449C28.0203 15.7764 28.1563 15.9902 28.1203 16.2224Z" fill="white"/>
<path d="M27.9918 14.7441C27.9558 14.9763 27.7616 15.139 27.5579 15.1074C27.3542 15.0759 27.2182 14.8621 27.2541 14.6299C27.2901 14.3977 27.4843 14.235 27.688 14.2665C27.8917 14.2981 28.0277 14.5119 27.9918 14.7441Z" fill="white"/>
<path d="M27.6704 13.33C27.6345 13.5622 27.4402 13.7249 27.2365 13.6933C27.0328 13.6618 26.8968 13.448 26.9328 13.2158C26.9687 12.9836 27.163 12.8209 27.3667 12.8524C27.5704 12.884 27.7063 13.0978 27.6704 13.33Z" fill="white"/>
<path d="M27.2205 11.9159C27.1845 12.1481 26.9903 12.3108 26.7866 12.2793C26.5829 12.2477 26.4469 12.0339 26.4828 11.8017C26.5188 11.5695 26.713 11.4068 26.9167 11.4384C27.1204 11.4699 27.2564 11.6837 27.2205 11.9159Z" fill="white"/>
<path d="M26.642 10.6304C26.606 10.8626 26.4118 11.0252 26.2081 10.9937C26.0044 10.9622 25.8684 10.7484 25.9043 10.5162C25.9403 10.284 26.1345 10.1213 26.3382 10.1528C26.5419 10.1843 26.6779 10.3981 26.642 10.6304Z" fill="white"/>
<path d="M25.9349 9.40909C25.899 9.6413 25.7047 9.80398 25.501 9.77245C25.2973 9.74093 25.1613 9.52713 25.1973 9.29492C25.2332 9.06271 25.4275 8.90003 25.6312 8.93156C25.8349 8.96309 25.9709 9.17689 25.9349 9.40909Z" fill="white"/>
<path d="M25.0993 8.31639C25.0634 8.54859 24.8691 8.71128 24.6654 8.67975C24.4617 8.64822 24.3257 8.43442 24.3617 8.20221C24.3976 7.97 24.5919 7.80732 24.7956 7.83885C24.9993 7.87038 25.1353 8.08418 25.0993 8.31639Z" fill="white"/>
<path d="M24.1352 7.35223C24.0992 7.58444 23.905 7.74712 23.7013 7.71559C23.4976 7.68406 23.3616 7.47027 23.3975 7.23806C23.4335 7.00585 23.6277 6.84317 23.8314 6.8747C24.0351 6.90623 24.1711 7.12003 24.1352 7.35223Z" fill="white"/>
<path d="M23.0425 6.51663C23.0065 6.74884 22.8123 6.91152 22.6086 6.87999C22.4049 6.84847 22.2689 6.63467 22.3048 6.40246C22.3408 6.17025 22.535 6.00757 22.7387 6.0391C22.9424 6.07063 23.0784 6.28443 23.0425 6.51663Z" fill="white"/>
<path d="M21.8855 5.80959C21.8495 6.0418 21.6553 6.20448 21.4516 6.17295C21.2479 6.14142 21.1119 5.92762 21.1478 5.69541C21.1838 5.4632 21.378 5.30052 21.5817 5.33205C21.7854 5.36358 21.9214 5.57738 21.8855 5.80959Z" fill="white"/>
<path d="M20.6642 5.29537C20.6283 5.52758 20.434 5.69026 20.2303 5.65873C20.0266 5.6272 19.8906 5.4134 19.9266 5.1812C19.9625 4.94899 20.1568 4.78631 20.3605 4.81784C20.5642 4.84936 20.7002 5.06317 20.6642 5.29537Z" fill="white"/>
<path d="M19.3787 4.97399C19.3427 5.2062 19.1485 5.36888 18.9448 5.33735C18.7411 5.30582 18.6051 5.09202 18.641 4.85981C18.677 4.6276 18.8712 4.46492 19.0749 4.49645C19.2786 4.52798 19.4146 4.74178 19.3787 4.97399Z" fill="white"/>
<path d="M18.0289 4.78116C17.9929 5.01337 17.7987 5.17605 17.595 5.14452C17.3913 5.11299 17.2553 4.89919 17.2912 4.66698C17.3272 4.43477 17.5214 4.27209 17.7251 4.30362C17.9288 4.33515 18.0648 4.54895 18.0289 4.78116Z" fill="white"/>
<path d="M16.679 4.78116C16.6431 5.01337 16.4488 5.17605 16.2451 5.14452C16.0415 5.11299 15.9055 4.89919 15.9414 4.66698C15.9774 4.43477 16.1716 4.27209 16.3753 4.30362C16.579 4.33515 16.715 4.54895 16.679 4.78116Z" fill="white"/>
<path d="M15.3935 4.90971C15.3576 5.14192 15.1633 5.3046 14.9596 5.27307C14.7559 5.24154 14.6199 5.02774 14.6559 4.79554C14.6918 4.56333 14.8861 4.40065 15.0898 4.43217C15.2935 4.4637 15.4295 4.6775 15.3935 4.90971Z" fill="white"/>
<path d="M14.0437 5.2311C14.0078 5.4633 13.8135 5.62599 13.6098 5.59446C13.4061 5.56293 13.2701 5.34913 13.3061 5.11692C13.342 4.88471 13.5363 4.72203 13.74 4.75356C13.9436 4.78509 14.0796 4.99889 14.0437 5.2311Z" fill="white"/>
<path d="M12.7582 5.74531C12.7222 5.97752 12.528 6.1402 12.3243 6.10867C12.1206 6.07714 11.9846 5.86334 12.0205 5.63113C12.0565 5.39893 12.2507 5.23624 12.4544 5.26777C12.6581 5.2993 12.7941 5.5131 12.7582 5.74531Z" fill="white"/>
<path d="M11.5369 6.38808C11.501 6.62029 11.3067 6.78297 11.103 6.75144C10.8993 6.71991 10.7633 6.50611 10.7993 6.2739C10.8352 6.0417 11.0295 5.87901 11.2332 5.91054C11.4368 5.94207 11.5728 6.15587 11.5369 6.38808Z" fill="white"/>
<path d="M10.3156 7.22368C10.2797 7.45589 10.0854 7.61857 9.88174 7.58704C9.67804 7.55551 9.54205 7.34171 9.578 7.1095C9.61394 6.8773 9.8082 6.71461 10.0119 6.74614C10.2156 6.77767 10.3516 6.99147 10.3156 7.22368Z" fill="white"/>
<path d="M9.28721 8.18783C9.25126 8.42004 9.057 8.58272 8.85331 8.55119C8.64961 8.51966 8.51362 8.30586 8.54957 8.07366C8.58551 7.84145 8.77977 7.67877 8.98347 7.7103C9.18716 7.74183 9.32315 7.95563 9.28721 8.18783Z" fill="white"/>
<path d="M8.25878 9.28054C8.22283 9.51275 8.02857 9.67543 7.82488 9.6439C7.62118 9.61237 7.48519 9.39857 7.52114 9.16636C7.55708 8.93416 7.75134 8.77147 7.95504 8.803C8.15873 8.83453 8.29472 9.04833 8.25878 9.28054Z" fill="white"/>
<path d="M7.3589 10.5018C7.32296 10.734 7.12869 10.8967 6.925 10.8652C6.72131 10.8336 6.58532 10.6198 6.62126 10.3876C6.6572 10.1554 6.85147 9.99273 7.05516 10.0243C7.25885 10.0558 7.39484 10.2696 7.3589 10.5018Z" fill="white"/>
<path d="M6.65185 11.8516C6.61591 12.0838 6.42165 12.2465 6.21795 12.215C6.01426 12.1834 5.87827 11.9696 5.91421 11.7374C5.95016 11.5052 6.14442 11.3426 6.34811 11.3741C6.55181 11.4056 6.6878 11.6194 6.65185 11.8516Z" fill="white"/>
<path d="M6.07336 13.2014C6.03742 13.4336 5.84315 13.5963 5.63946 13.5648C5.43577 13.5333 5.29978 13.3195 5.33572 13.0873C5.37166 12.855 5.56593 12.6924 5.76962 12.7239C5.97331 12.7554 6.1093 12.9692 6.07336 13.2014Z" fill="white"/>
<path d="M5.55915 14.6155C5.5232 14.8477 5.32894 15.0104 5.12525 14.9789C4.92155 14.9474 4.78556 14.7336 4.82151 14.5013C4.85745 14.2691 5.05171 14.1065 5.25541 14.138C5.4591 14.1695 5.59509 14.3833 5.55915 14.6155Z" fill="white"/>
<path d="M5.23776 16.0939C5.20182 16.3261 5.00755 16.4888 4.80386 16.4573C4.60017 16.4257 4.46418 16.2119 4.50012 15.9797C4.53606 15.7475 4.73033 15.5848 4.93402 15.6164C5.13771 15.6479 5.2737 15.8617 5.23776 16.0939Z" fill="white"/>
<path d="M5.04493 17.6365C5.00899 17.8687 4.81472 18.0314 4.61103 17.9999C4.40734 17.9684 4.27135 17.7546 4.30729 17.5224C4.34323 17.2902 4.5375 17.1275 4.74119 17.159C4.94488 17.1905 5.08087 17.4043 5.04493 17.6365Z" fill="white"/>
<path d="M5.04493 19.1792C5.00899 19.4114 4.81472 19.5741 4.61103 19.5425C4.40734 19.511 4.27135 19.2972 4.30729 19.065C4.34323 18.8328 4.5375 18.6701 4.74119 18.7016C4.94488 18.7332 5.08087 18.947 5.04493 19.1792Z" fill="white"/>
<path d="M5.17348 20.6576C5.13754 20.8898 4.94328 21.0524 4.73958 21.0209C4.53589 20.9894 4.3999 20.7756 4.43584 20.5434C4.47179 20.3112 4.66605 20.1485 4.86974 20.18C5.07344 20.2115 5.20943 20.4253 5.17348 20.6576Z" fill="white"/>
<path d="M5.49487 22.1359C5.45893 22.3681 5.26466 22.5308 5.06097 22.4993C4.85728 22.4678 4.72129 22.254 4.75723 22.0217C4.79317 21.7895 4.98744 21.6269 5.19113 21.6584C5.39482 21.6899 5.53081 21.9037 5.49487 22.1359Z" fill="white"/>
<path d="M5.94481 23.4215C5.90886 23.6537 5.7146 23.8163 5.51091 23.7848C5.30721 23.7533 5.17122 23.5395 5.20717 23.3073C5.24311 23.0751 5.43737 22.9124 5.64107 22.9439C5.84476 22.9754 5.98075 23.1892 5.94481 23.4215Z" fill="white"/>
<path d="M6.5233 24.7713C6.48736 25.0035 6.29309 25.1662 6.0894 25.1346C5.88571 25.1031 5.74972 24.8893 5.78566 24.6571C5.8216 24.4249 6.01587 24.2622 6.21956 24.2937C6.42325 24.3253 6.55924 24.5391 6.5233 24.7713Z" fill="white"/>
<path d="M7.23034 25.9925C7.1944 26.2247 7.00014 26.3874 6.79645 26.3559C6.59275 26.3244 6.45676 26.1106 6.4927 25.8784C6.52865 25.6461 6.72291 25.4835 6.92661 25.515C7.1303 25.5465 7.26629 25.7603 7.23034 25.9925Z" fill="white"/>
<path d="M8.06594 27.0852C8.03 27.3174 7.83574 27.4801 7.63204 27.4486C7.42835 27.4171 7.29236 27.2033 7.3283 26.9711C7.36425 26.7389 7.55851 26.5762 7.7622 26.6077C7.9659 26.6392 8.10189 26.853 8.06594 27.0852Z" fill="white"/>
<path d="M9.09437 28.0494C9.05843 28.2816 8.86417 28.4443 8.66047 28.4128C8.45678 28.3812 8.32079 28.1674 8.35673 27.9352C8.39268 27.703 8.58694 27.5403 8.79063 27.5719C8.99433 27.6034 9.13032 27.8172 9.09437 28.0494Z" fill="white"/>
<path d="M10.1228 28.885C10.0869 29.1172 9.8926 29.2799 9.68891 29.2484C9.48521 29.2168 9.34922 29.003 9.38517 28.7708C9.42111 28.5386 9.61537 28.3759 9.81906 28.4075C10.0228 28.439 10.1587 28.6528 10.1228 28.885Z" fill="white"/>
<path d="M11.2798 29.592C11.2438 29.8242 11.0496 29.9869 10.8459 29.9554C10.6422 29.9239 10.5062 29.7101 10.5422 29.4779C10.5781 29.2457 10.7724 29.083 10.976 29.1145C11.1797 29.146 11.3157 29.3598 11.2798 29.592Z" fill="white"/>
<path d="M12.501 30.1063C12.4651 30.3385 12.2708 30.5011 12.0671 30.4696C11.8635 30.4381 11.7275 30.2243 11.7634 29.9921C11.7994 29.7599 11.9936 29.5972 12.1973 29.6287C12.401 29.6602 12.537 29.874 12.501 30.1063Z" fill="white"/>
<path d="M13.7866 30.4276C13.7506 30.6598 13.5564 30.8225 13.3527 30.791C13.149 30.7595 13.013 30.5457 13.0489 30.3135C13.0849 30.0813 13.2792 29.9186 13.4828 29.9501C13.6865 29.9816 13.8225 30.1954 13.7866 30.4276Z" fill="white"/>
<path d="M15.1364 30.6205C15.1005 30.8527 14.9062 31.0154 14.7025 30.9838C14.4988 30.9523 14.3628 30.7385 14.3988 30.5063C14.4347 30.2741 14.629 30.1114 14.8327 30.1429C15.0364 30.1745 15.1723 30.3883 15.1364 30.6205Z" fill="white"/>
<path d="M16.4219 30.6205C16.386 30.8527 16.1917 31.0154 15.988 30.9838C15.7843 30.9523 15.6484 30.7385 15.6843 30.5063C15.7202 30.2741 15.9145 30.1114 16.1182 30.1429C16.3219 30.1745 16.4579 30.3883 16.4219 30.6205Z" fill="white"/>
<path d="M17.7718 30.4919C17.7358 30.7241 17.5416 30.8868 17.3379 30.8553C17.1342 30.8237 16.9982 30.6099 17.0341 30.3777C17.0701 30.1455 17.2643 29.9828 17.468 30.0144C17.6717 30.0459 17.8077 30.2597 17.7718 30.4919Z" fill="white"/>
<path d="M19.1216 30.1705C19.0856 30.4027 18.8914 30.5654 18.6877 30.5339C18.484 30.5024 18.348 30.2886 18.3839 30.0564C18.4199 29.8241 18.6141 29.6615 18.8178 29.693C19.0215 29.7245 19.1575 29.9383 19.1216 30.1705Z" fill="white"/>
<path d="M20.4071 29.6563C20.3712 29.8885 20.1769 30.0512 19.9732 30.0197C19.7695 29.9881 19.6335 29.7743 19.6695 29.5421C19.7054 29.3099 19.8997 29.1472 20.1034 29.1788C20.3071 29.2103 20.4431 29.4241 20.4071 29.6563Z" fill="white"/>
<path d="M21.6284 28.9493C21.5924 29.1815 21.3982 29.3442 21.1945 29.3126C20.9908 29.2811 20.8548 29.0673 20.8907 28.8351C20.9267 28.6029 21.1209 28.4402 21.3246 28.4717C21.5283 28.5033 21.6643 28.7171 21.6284 28.9493Z" fill="white"/>
<path d="M22.7854 28.1137C22.7494 28.3459 22.5551 28.5086 22.3515 28.477C22.1478 28.4455 22.0118 28.2317 22.0477 27.9995C22.0837 27.7673 22.2779 27.6046 22.4816 27.6361C22.6853 27.6677 22.8213 27.8815 22.7854 28.1137Z" fill="white"/>
<path d="M23.8781 27.1495C23.8421 27.3817 23.6479 27.5444 23.4442 27.5129C23.2405 27.4813 23.1045 27.2675 23.1404 27.0353C23.1764 26.8031 23.3706 26.6405 23.5743 26.672C23.778 26.7035 23.914 26.9173 23.8781 27.1495Z" fill="white"/>
<path d="M24.9065 26.1211C24.8705 26.3533 24.6763 26.516 24.4726 26.4844C24.2689 26.4529 24.1329 26.2391 24.1689 26.0069C24.2048 25.7747 24.3991 25.612 24.6027 25.6435C24.8064 25.6751 24.9424 25.8889 24.9065 26.1211Z" fill="white"/>
<path d="M12.4054 31.7892C12.4054 32.0909 12.1608 32.3355 11.8591 32.3355C11.5573 32.3355 11.3127 32.0909 11.3127 31.7892C11.3127 31.4874 11.5573 31.2428 11.8591 31.2428C12.1608 31.2428 12.4054 31.4874 12.4054 31.7892Z" fill="white"/>
<path d="M14.2052 32.1748C14.2052 32.4766 13.9606 32.7212 13.6588 32.7212C13.3571 32.7212 13.1125 32.4766 13.1125 32.1748C13.1125 31.8731 13.3571 31.6285 13.6588 31.6285C13.9606 31.6285 14.2052 31.8731 14.2052 32.1748Z" fill="white"/>
<path d="M16.0049 32.3677C16.0049 32.6694 15.7603 32.914 15.4586 32.914C15.1569 32.914 14.9122 32.6694 14.9122 32.3677C14.9122 32.0659 15.1569 31.8213 15.4586 31.8213C15.7603 31.8213 16.0049 32.0659 16.0049 32.3677Z" fill="white"/>
<path d="M17.9333 32.3677C17.9333 32.6694 17.6886 32.914 17.3869 32.914C17.0852 32.914 16.8405 32.6694 16.8405 32.3677C16.8405 32.0659 17.0852 31.8213 17.3869 31.8213C17.6886 31.8213 17.9333 32.0659 17.9333 32.3677Z" fill="white"/>
<path d="M19.733 32.1748C19.733 32.4766 19.4884 32.7212 19.1867 32.7212C18.8849 32.7212 18.6403 32.4766 18.6403 32.1748C18.6403 31.8731 18.8849 31.6285 19.1867 31.6285C19.4884 31.6285 19.733 31.8731 19.733 32.1748Z" fill="white"/>
<path d="M21.5328 31.7892C21.5328 32.0909 21.2881 32.3355 20.9864 32.3355C20.6847 32.3355 20.4401 32.0909 20.4401 31.7892C20.4401 31.4874 20.6847 31.2428 20.9864 31.2428C21.2881 31.2428 21.5328 31.4874 21.5328 31.7892Z" fill="white"/>
<path d="M23.2682 31.0821C23.2682 31.3839 23.0236 31.6285 22.7219 31.6285C22.4201 31.6285 22.1755 31.3839 22.1755 31.0821C22.1755 30.7804 22.4201 30.5358 22.7219 30.5358C23.0236 30.5358 23.2682 30.7804 23.2682 31.0821Z" fill="white"/>
<path d="M24.9394 30.3108C24.9394 30.6126 24.6948 30.8572 24.3931 30.8572C24.0913 30.8572 23.8467 30.6126 23.8467 30.3108C23.8467 30.0091 24.0913 29.7645 24.3931 29.7645C24.6948 29.7645 24.9394 30.0091 24.9394 30.3108Z" fill="white"/>
<path d="M26.4821 29.2181C26.4821 29.5199 26.2375 29.7645 25.9357 29.7645C25.634 29.7645 25.3894 29.5199 25.3894 29.2181C25.3894 28.9164 25.634 28.6718 25.9357 28.6718C26.2375 28.6718 26.4821 28.9164 26.4821 29.2181Z" fill="white"/>
<path d="M27.8962 28.1254C27.8962 28.4271 27.6516 28.6718 27.3498 28.6718C27.0481 28.6718 26.8035 28.4271 26.8035 28.1254C26.8035 27.8237 27.0481 27.579 27.3498 27.579C27.6516 27.579 27.8962 27.8237 27.8962 28.1254Z" fill="white"/>
<path d="M29.1817 26.7113C29.1817 27.0131 28.9371 27.2577 28.6354 27.2577C28.3336 27.2577 28.089 27.0131 28.089 26.7113C28.089 26.4096 28.3336 26.165 28.6354 26.165C28.9371 26.165 29.1817 26.4096 29.1817 26.7113Z" fill="white"/>
<path d="M30.2744 25.2329C30.2744 25.5347 30.0298 25.7793 29.7281 25.7793C29.4263 25.7793 29.1817 25.5347 29.1817 25.2329C29.1817 24.9312 29.4263 24.6866 29.7281 24.6866C30.0298 24.6866 30.2744 24.9312 30.2744 25.2329Z" fill="white"/>
<path d="M31.1743 23.626C31.1743 23.9278 30.9297 24.1724 30.6279 24.1724C30.3262 24.1724 30.0816 23.9278 30.0816 23.626C30.0816 23.3243 30.3262 23.0797 30.6279 23.0797C30.9297 23.0797 31.1743 23.3243 31.1743 23.626Z" fill="white"/>
<path d="M31.9456 21.9548C31.9456 22.2566 31.701 22.5012 31.3993 22.5012C31.0975 22.5012 30.8529 22.2566 30.8529 21.9548C30.8529 21.6531 31.0975 21.4085 31.3993 21.4085C31.701 21.4085 31.9456 21.6531 31.9456 21.9548Z" fill="white"/>
<path d="M32.4598 20.2193C32.4598 20.5211 32.2152 20.7657 31.9135 20.7657C31.6117 20.7657 31.3671 20.5211 31.3671 20.2193C31.3671 19.9176 31.6117 19.673 31.9135 19.673C32.2152 19.673 32.4598 19.9176 32.4598 20.2193Z" fill="white"/>
<path d="M32.7812 18.3553C32.7812 18.6571 32.5366 18.9017 32.2349 18.9017C31.9331 18.9017 31.6885 18.6571 31.6885 18.3553C31.6885 18.0536 31.9331 17.809 32.2349 17.809C32.5366 17.809 32.7812 18.0536 32.7812 18.3553Z" fill="white"/>
<path d="M32.7812 16.4913C32.7812 16.793 32.5366 17.0376 32.2349 17.0376C31.9331 17.0376 31.6885 16.793 31.6885 16.4913C31.6885 16.1895 31.9331 15.9449 32.2349 15.9449C32.5366 15.9449 32.7812 16.1895 32.7812 16.4913Z" fill="white"/>
<path d="M32.7812 14.6273C32.7812 14.929 32.5366 15.1736 32.2349 15.1736C31.9331 15.1736 31.6885 14.929 31.6885 14.6273C31.6885 14.3255 31.9331 14.0809 32.2349 14.0809C32.5366 14.0809 32.7812 14.3255 32.7812 14.6273Z" fill="white"/>
<path d="M32.4598 12.8918C32.4598 13.1935 32.2152 13.4381 31.9135 13.4381C31.6117 13.4381 31.3671 13.1935 31.3671 12.8918C31.3671 12.59 31.6117 12.3454 31.9135 12.3454C32.2152 12.3454 32.4598 12.59 32.4598 12.8918Z" fill="white"/>
<path d="M31.9456 11.0277C31.9456 11.3295 31.701 11.5741 31.3993 11.5741C31.0975 11.5741 30.8529 11.3295 30.8529 11.0277C30.8529 10.726 31.0975 10.4814 31.3993 10.4814C31.701 10.4814 31.9456 10.726 31.9456 11.0277Z" fill="white"/>
<path d="M31.1743 9.42082C31.1743 9.72257 30.9297 9.96718 30.6279 9.96718C30.3262 9.96718 30.0816 9.72257 30.0816 9.42082C30.0816 9.11908 30.3262 8.87447 30.6279 8.87447C30.9297 8.87447 31.1743 9.11908 31.1743 9.42082Z" fill="white"/>
<path d="M30.2744 7.8139C30.2744 8.11564 30.0298 8.36026 29.7281 8.36026C29.4263 8.36026 29.1817 8.11564 29.1817 7.8139C29.1817 7.51216 29.4263 7.26755 29.7281 7.26755C30.0298 7.26755 30.2744 7.51216 30.2744 7.8139Z" fill="white"/>
<path d="M29.1817 6.39981C29.1817 6.70155 28.9371 6.94616 28.6354 6.94616C28.3336 6.94616 28.089 6.70155 28.089 6.39981C28.089 6.09807 28.3336 5.85346 28.6354 5.85346C28.9371 5.85346 29.1817 6.09807 29.1817 6.39981Z" fill="white"/>
<path d="M27.8319 4.92144C27.8319 5.22318 27.5873 5.46779 27.2855 5.46779C26.9838 5.46779 26.7392 5.22318 26.7392 4.92144C26.7392 4.6197 26.9838 4.37509 27.2855 4.37509C27.5873 4.37509 27.8319 4.6197 27.8319 4.92144Z" fill="white"/>
<path d="M26.4821 3.82873C26.4821 4.13048 26.2375 4.37509 25.9357 4.37509C25.634 4.37509 25.3894 4.13048 25.3894 3.82873C25.3894 3.52699 25.634 3.28238 25.9357 3.28238C26.2375 3.28238 26.4821 3.52699 26.4821 3.82873Z" fill="white"/>
<path d="M24.9394 2.73603C24.9394 3.03777 24.6948 3.28238 24.3931 3.28238C24.0913 3.28238 23.8467 3.03777 23.8467 2.73603C23.8467 2.43428 24.0913 2.18967 24.3931 2.18967C24.6948 2.18967 24.9394 2.43428 24.9394 2.73603Z" fill="white"/>
<path d="M23.3325 1.9647C23.3325 2.26645 23.0879 2.51106 22.7862 2.51106C22.4844 2.51106 22.2398 2.26645 22.2398 1.9647C22.2398 1.66296 22.4844 1.41835 22.7862 1.41835C23.0879 1.41835 23.3325 1.66296 23.3325 1.9647Z" fill="white"/>
<path d="M21.5328 1.25766C21.5328 1.5594 21.2881 1.80401 20.9864 1.80401C20.6847 1.80401 20.4401 1.5594 20.4401 1.25766C20.4401 0.955915 20.6847 0.711305 20.9864 0.711305C21.2881 0.711305 21.5328 0.955915 21.5328 1.25766Z" fill="white"/>
<path d="M19.7973 0.871997C19.7973 1.17374 19.5527 1.41835 19.2509 1.41835C18.9492 1.41835 18.7046 1.17374 18.7046 0.871997C18.7046 0.570254 18.9492 0.325643 19.2509 0.325643C19.5527 0.325643 19.7973 0.570254 19.7973 0.871997Z" fill="white"/>
<path d="M17.869 0.679166C17.869 0.980909 17.6244 1.22552 17.3226 1.22552C17.0209 1.22552 16.7763 0.980909 16.7763 0.679166C16.7763 0.377423 17.0209 0.132812 17.3226 0.132812C17.6244 0.132812 17.869 0.377423 17.869 0.679166Z" fill="white"/>
<path d="M16.1335 0.679166C16.1335 0.980909 15.8889 1.22552 15.5871 1.22552C15.2854 1.22552 15.0408 0.980909 15.0408 0.679166C15.0408 0.377423 15.2854 0.132812 15.5871 0.132812C15.8889 0.132812 16.1335 0.377423 16.1335 0.679166Z" fill="white"/>
<path d="M14.2052 0.871997C14.2052 1.17374 13.9606 1.41835 13.6588 1.41835C13.3571 1.41835 13.1125 1.17374 13.1125 0.871997C13.1125 0.570254 13.3571 0.325643 13.6588 0.325643C13.9606 0.325643 14.2052 0.570254 14.2052 0.871997Z" fill="white"/>
<path d="M12.4054 1.25766C12.4054 1.5594 12.1608 1.80401 11.8591 1.80401C11.5573 1.80401 11.3127 1.5594 11.3127 1.25766C11.3127 0.955915 11.5573 0.711305 11.8591 0.711305C12.1608 0.711305 12.4054 0.955915 12.4054 1.25766Z" fill="white"/>
<path d="M10.7342 1.9647C10.7342 2.26645 10.4896 2.51106 10.1879 2.51106C9.88615 2.51106 9.64153 2.26645 9.64153 1.9647C9.64153 1.66296 9.88615 1.41835 10.1879 1.41835C10.4896 1.41835 10.7342 1.66296 10.7342 1.9647Z" fill="white"/>
<path d="M8.99877 2.8003C8.99877 3.10205 8.75415 3.34666 8.45241 3.34666C8.15067 3.34666 7.90606 3.10205 7.90606 2.8003C7.90606 2.49856 8.15067 2.25395 8.45241 2.25395C8.75415 2.25395 8.99877 2.49856 8.99877 2.8003Z" fill="white"/>
<path d="M7.45612 3.76446C7.45612 4.0662 7.21151 4.31081 6.90977 4.31081C6.60802 4.31081 6.36341 4.0662 6.36341 3.76446C6.36341 3.46271 6.60802 3.2181 6.90977 3.2181C7.21151 3.2181 7.45612 3.46271 7.45612 3.76446Z" fill="white"/>
<path d="M6.04203 4.98572C6.04203 5.28746 5.79742 5.53207 5.49567 5.53207C5.19393 5.53207 4.94932 5.28746 4.94932 4.98572C4.94932 4.68398 5.19393 4.43936 5.49567 4.43936C5.79742 4.43936 6.04203 4.68398 6.04203 4.98572Z" fill="white"/>
<path d="M4.82077 6.33553C4.82077 6.63728 4.57616 6.88189 4.27441 6.88189C3.97267 6.88189 3.72806 6.63728 3.72806 6.33553C3.72806 6.03379 3.97267 5.78918 4.27441 5.78918C4.57616 5.78918 4.82077 6.03379 4.82077 6.33553Z" fill="white"/>
<path d="M3.72806 7.8139C3.72806 8.11564 3.48345 8.36026 3.18171 8.36026C2.87996 8.36026 2.63535 8.11564 2.63535 7.8139C2.63535 7.51216 2.87996 7.26755 3.18171 7.26755C3.48345 7.26755 3.72806 7.51216 3.72806 7.8139Z" fill="white"/>
<path d="M2.76391 9.42082C2.76391 9.72257 2.5193 9.96718 2.21755 9.96718C1.91581 9.96718 1.6712 9.72257 1.6712 9.42082C1.6712 9.11908 1.91581 8.87447 2.21755 8.87447C2.5193 8.87447 2.76391 9.11908 2.76391 9.42082Z" fill="white"/>
<path d="M1.99258 11.092C1.99258 11.3938 1.74797 11.6384 1.44623 11.6384C1.14449 11.6384 0.899877 11.3938 0.899877 11.092C0.899877 10.7903 1.14449 10.5457 1.44623 10.5457C1.74797 10.5457 1.99258 10.7903 1.99258 11.092Z" fill="white"/>
<path d="M1.47837 12.8275C1.47837 13.1292 1.23376 13.3739 0.932015 13.3739C0.630272 13.3739 0.385661 13.1292 0.385661 12.8275C0.385661 12.5258 0.630272 12.2811 0.932015 12.2811C1.23376 12.2811 1.47837 12.5258 1.47837 12.8275Z" fill="white"/>
<path d="M1.22126 14.7558C1.22126 15.0575 0.97665 15.3022 0.674907 15.3022C0.373165 15.3022 0.128554 15.0575 0.128554 14.7558C0.128554 14.4541 0.373165 14.2095 0.674907 14.2095C0.97665 14.2095 1.22126 14.4541 1.22126 14.7558Z" fill="white"/>
<path d="M1.09271 16.6198C1.09271 16.9216 0.848096 17.1662 0.546354 17.1662C0.244611 17.1662 0 16.9216 0 16.6198C0 16.3181 0.244611 16.0735 0.546354 16.0735C0.848096 16.0735 1.09271 16.3181 1.09271 16.6198Z" fill="white"/>
<path d="M1.22126 18.3553C1.22126 18.6571 0.97665 18.9017 0.674907 18.9017C0.373165 18.9017 0.128554 18.6571 0.128554 18.3553C0.128554 18.0536 0.373165 17.809 0.674907 17.809C0.97665 17.809 1.22126 18.0536 1.22126 18.3553Z" fill="white"/>
<path d="M1.47837 20.2193C1.47837 20.5211 1.23376 20.7657 0.932015 20.7657C0.630272 20.7657 0.385661 20.5211 0.385661 20.2193C0.385661 19.9176 0.630272 19.673 0.932015 19.673C1.23376 19.673 1.47837 19.9176 1.47837 20.2193Z" fill="white"/>
<path d="M2.05686 21.9548C2.05686 22.2566 1.81225 22.5012 1.51051 22.5012C1.20876 22.5012 0.964153 22.2566 0.964153 21.9548C0.964153 21.6531 1.20876 21.4085 1.51051 21.4085C1.81225 21.4085 2.05686 21.6531 2.05686 21.9548Z" fill="white"/>
<path d="M2.76391 23.626C2.76391 23.9278 2.5193 24.1724 2.21755 24.1724C1.91581 24.1724 1.6712 23.9278 1.6712 23.626C1.6712 23.3243 1.91581 23.0797 2.21755 23.0797C2.5193 23.0797 2.76391 23.3243 2.76391 23.626Z" fill="white"/>
<path d="M3.72806 25.2329C3.72806 25.5347 3.48345 25.7793 3.18171 25.7793C2.87996 25.7793 2.63535 25.5347 2.63535 25.2329C2.63535 24.9312 2.87996 24.6866 3.18171 24.6866C3.48345 24.6866 3.72806 24.9312 3.72806 25.2329Z" fill="white"/>
<path d="M4.82077 26.7113C4.82077 27.0131 4.57616 27.2577 4.27441 27.2577C3.97267 27.2577 3.72806 27.0131 3.72806 26.7113C3.72806 26.4096 3.97267 26.165 4.27441 26.165C4.57616 26.165 4.82077 26.4096 4.82077 26.7113Z" fill="white"/>
<path d="M6.10631 28.1254C6.10631 28.4271 5.86169 28.6718 5.55995 28.6718C5.25821 28.6718 5.0136 28.4271 5.0136 28.1254C5.0136 27.8237 5.25821 27.579 5.55995 27.579C5.86169 27.579 6.10631 27.8237 6.10631 28.1254Z" fill="white"/>
<path d="M7.45612 29.2181C7.45612 29.5199 7.21151 29.7645 6.90977 29.7645C6.60802 29.7645 6.36341 29.5199 6.36341 29.2181C6.36341 28.9164 6.60802 28.6718 6.90977 28.6718C7.21151 28.6718 7.45612 28.9164 7.45612 29.2181Z" fill="white"/>
<path d="M8.99877 30.3108C8.99877 30.6126 8.75415 30.8572 8.45241 30.8572C8.15067 30.8572 7.90606 30.6126 7.90606 30.3108C7.90606 30.0091 8.15067 29.7645 8.45241 29.7645C8.75415 29.7645 8.99877 30.0091 8.99877 30.3108Z" fill="white"/>
<path d="M10.7342 31.0821C10.7342 31.3839 10.4896 31.6285 10.1879 31.6285C9.88615 31.6285 9.64153 31.3839 9.64153 31.0821C9.64153 30.7804 9.88615 30.5358 10.1879 30.5358C10.4896 30.5358 10.7342 30.7804 10.7342 31.0821Z" fill="white"/>
<path d="M9.1916 14.8844C9.1916 15.0441 9.0621 15.1736 8.90235 15.1736C8.7426 15.1736 8.6131 15.0441 8.6131 14.8844C8.6131 14.7246 8.7426 14.5951 8.90235 14.5951C9.0621 14.5951 9.1916 14.7246 9.1916 14.8844Z" fill="white"/>
<path d="M9.57726 13.9845C9.57726 14.1442 9.44776 14.2737 9.28801 14.2737C9.12827 14.2737 8.99877 14.1442 8.99877 13.9845C8.99877 13.8247 9.12827 13.6952 9.28801 13.6952C9.44776 13.6952 9.57726 13.8247 9.57726 13.9845Z" fill="white"/>
<path d="M10.1557 13.1489C10.1557 13.3086 10.0262 13.4381 9.8665 13.4381C9.70676 13.4381 9.57726 13.3086 9.57726 13.1489C9.57726 12.9891 9.70676 12.8596 9.8665 12.8596C10.0262 12.8596 10.1557 12.9891 10.1557 13.1489Z" fill="white"/>
<path d="M10.7342 12.3776C10.7342 12.5373 10.6047 12.6668 10.445 12.6668C10.2852 12.6668 10.1557 12.5373 10.1557 12.3776C10.1557 12.2178 10.2852 12.0883 10.445 12.0883C10.6047 12.0883 10.7342 12.2178 10.7342 12.3776Z" fill="white"/>
<path d="M11.4413 11.7348C11.4413 11.8945 11.3118 12.024 11.152 12.024C10.9923 12.024 10.8628 11.8945 10.8628 11.7348C10.8628 11.575 10.9923 11.4455 11.152 11.4455C11.3118 11.4455 11.4413 11.575 11.4413 11.7348Z" fill="white"/>
<path d="M12.2126 11.1563C12.2126 11.316 12.0831 11.4455 11.9234 11.4455C11.7636 11.4455 11.6341 11.316 11.6341 11.1563C11.6341 10.9966 11.7636 10.8671 11.9234 10.8671C12.0831 10.8671 12.2126 10.9966 12.2126 11.1563Z" fill="white"/>
<path d="M13.1125 10.6421C13.1125 10.8018 12.983 10.9313 12.8232 10.9313C12.6635 10.9313 12.534 10.8018 12.534 10.6421C12.534 10.4823 12.6635 10.3528 12.8232 10.3528C12.983 10.3528 13.1125 10.4823 13.1125 10.6421Z" fill="white"/>
<path d="M14.0124 10.3207C14.0124 10.4804 13.8829 10.6099 13.7231 10.6099C13.5634 10.6099 13.4339 10.4804 13.4339 10.3207C13.4339 10.161 13.5634 10.0315 13.7231 10.0315C13.8829 10.0315 14.0124 10.161 14.0124 10.3207Z" fill="white"/>
<path d="M14.9122 10.0636C14.9122 10.2233 14.7827 10.3528 14.623 10.3528C14.4632 10.3528 14.3337 10.2233 14.3337 10.0636C14.3337 9.90385 14.4632 9.77435 14.623 9.77435C14.7827 9.77435 14.9122 9.90385 14.9122 10.0636Z" fill="white"/>
<path d="M15.9407 9.93504C15.9407 10.0948 15.8112 10.2243 15.6514 10.2243C15.4917 10.2243 15.3622 10.0948 15.3622 9.93504C15.3622 9.77529 15.4917 9.64579 15.6514 9.64579C15.8112 9.64579 15.9407 9.77529 15.9407 9.93504Z" fill="white"/>
<path d="M16.9048 9.87076C16.9048 10.0305 16.7753 10.16 16.6156 10.16C16.4558 10.16 16.3263 10.0305 16.3263 9.87076C16.3263 9.71102 16.4558 9.58152 16.6156 9.58152C16.7753 9.58152 16.9048 9.71102 16.9048 9.87076Z" fill="white"/>
<path d="M17.869 9.99932C17.869 10.1591 17.7395 10.2886 17.5797 10.2886C17.42 10.2886 17.2905 10.1591 17.2905 9.99932C17.2905 9.83957 17.42 9.71007 17.5797 9.71007C17.7395 9.71007 17.869 9.83957 17.869 9.99932Z" fill="white"/>
<path d="M18.8331 10.1921C18.8331 10.3519 18.7036 10.4814 18.5439 10.4814C18.3841 10.4814 18.2546 10.3519 18.2546 10.1921C18.2546 10.0324 18.3841 9.9029 18.5439 9.9029C18.7036 9.9029 18.8331 10.0324 18.8331 10.1921Z" fill="white"/>
<path d="M19.7973 10.5135C19.7973 10.6733 19.6678 10.8028 19.508 10.8028C19.3483 10.8028 19.2188 10.6733 19.2188 10.5135C19.2188 10.3538 19.3483 10.2243 19.508 10.2243C19.6678 10.2243 19.7973 10.3538 19.7973 10.5135Z" fill="white"/>
<path d="M20.6972 11.0277C20.6972 11.1875 20.5677 11.317 20.4079 11.317C20.2482 11.317 20.1187 11.1875 20.1187 11.0277C20.1187 10.868 20.2482 10.7385 20.4079 10.7385C20.5677 10.7385 20.6972 10.868 20.6972 11.0277Z" fill="white"/>
<path d="M21.5328 11.542C21.5328 11.7017 21.4033 11.8312 21.2435 11.8312C21.0838 11.8312 20.9543 11.7017 20.9543 11.542C20.9543 11.3822 21.0838 11.2527 21.2435 11.2527C21.4033 11.2527 21.5328 11.3822 21.5328 11.542Z" fill="white"/>
<path d="M22.3684 12.1847C22.3684 12.3445 22.2389 12.474 22.0791 12.474C21.9194 12.474 21.7899 12.3445 21.7899 12.1847C21.7899 12.025 21.9194 11.8955 22.0791 11.8955C22.2389 11.8955 22.3684 12.025 22.3684 12.1847Z" fill="white"/>
<path d="M23.0754 12.8918C23.0754 13.0515 22.9459 13.181 22.7862 13.181C22.6264 13.181 22.4969 13.0515 22.4969 12.8918C22.4969 12.732 22.6264 12.6025 22.7862 12.6025C22.9459 12.6025 23.0754 12.732 23.0754 12.8918Z" fill="white"/>
<path d="M23.7182 13.7274C23.7182 13.8871 23.5887 14.0166 23.4289 14.0166C23.2692 14.0166 23.1397 13.8871 23.1397 13.7274C23.1397 13.5676 23.2692 13.4381 23.4289 13.4381C23.5887 13.4381 23.7182 13.5676 23.7182 13.7274Z" fill="white"/>
<path d="M24.2967 14.6273C24.2967 14.787 24.1672 14.9165 24.0074 14.9165C23.8477 14.9165 23.7182 14.787 23.7182 14.6273C23.7182 14.4675 23.8477 14.338 24.0074 14.338C24.1672 14.338 24.2967 14.4675 24.2967 14.6273Z" fill="white"/>
<path d="M24.7466 15.5271C24.7466 15.6869 24.6171 15.8164 24.4574 15.8164C24.2976 15.8164 24.1681 15.6869 24.1681 15.5271C24.1681 15.3674 24.2976 15.2379 24.4574 15.2379C24.6171 15.2379 24.7466 15.3674 24.7466 15.5271Z" fill="white"/>
<path d="M25.068 16.4913C25.068 16.651 24.9385 16.7805 24.7787 16.7805C24.619 16.7805 24.4895 16.651 24.4895 16.4913C24.4895 16.3315 24.619 16.202 24.7787 16.202C24.9385 16.202 25.068 16.3315 25.068 16.4913Z" fill="white"/>
<path d="M25.3251 17.5197C25.3251 17.6795 25.1956 17.809 25.0359 17.809C24.8761 17.809 24.7466 17.6795 24.7466 17.5197C24.7466 17.36 24.8761 17.2305 25.0359 17.2305C25.1956 17.2305 25.3251 17.36 25.3251 17.5197Z" fill="white"/>
<path d="M25.4537 18.5481C25.4537 18.7079 25.3241 18.8374 25.1644 18.8374C25.0047 18.8374 24.8752 18.7079 24.8752 18.5481C24.8752 18.3884 25.0047 18.2589 25.1644 18.2589C25.3241 18.2589 25.4537 18.3884 25.4537 18.5481Z" fill="white"/>
<path d="M25.4537 19.5766C25.4537 19.7363 25.3241 19.8658 25.1644 19.8658C25.0047 19.8658 24.8752 19.7363 24.8752 19.5766C24.8752 19.4168 25.0047 19.2873 25.1644 19.2873C25.3241 19.2873 25.4537 19.4168 25.4537 19.5766Z" fill="white"/>
<path d="M25.3894 20.605C25.3894 20.7648 25.2599 20.8942 25.1001 20.8942C24.9404 20.8942 24.8109 20.7648 24.8109 20.605C24.8109 20.4453 24.9404 20.3158 25.1001 20.3158C25.2599 20.3158 25.3894 20.4453 25.3894 20.605Z" fill="white"/>
<path d="M25.1323 21.5692C25.1323 21.7289 25.0028 21.8584 24.843 21.8584C24.6833 21.8584 24.5538 21.7289 24.5538 21.5692C24.5538 21.4094 24.6833 21.2799 24.843 21.2799C25.0028 21.2799 25.1323 21.4094 25.1323 21.5692Z" fill="white"/>
<path d="M24.8109 22.5333C24.8109 22.6931 24.6814 22.8226 24.5216 22.8226C24.3619 22.8226 24.2324 22.6931 24.2324 22.5333C24.2324 22.3736 24.3619 22.2441 24.5216 22.2441C24.6814 22.2441 24.8109 22.3736 24.8109 22.5333Z" fill="white"/>
<path d="M24.3609 23.4332C24.3609 23.5929 24.2314 23.7224 24.0717 23.7224C23.912 23.7224 23.7825 23.5929 23.7825 23.4332C23.7825 23.2734 23.912 23.1439 24.0717 23.1439C24.2314 23.1439 24.3609 23.2734 24.3609 23.4332Z" fill="white"/>
<path d="M23.8467 24.2688C23.8467 24.4285 23.7172 24.558 23.5575 24.558C23.3977 24.558 23.2682 24.4285 23.2682 24.2688C23.2682 24.109 23.3977 23.9795 23.5575 23.9795C23.7172 23.9795 23.8467 24.109 23.8467 24.2688Z" fill="white"/>
<path d="M23.2682 25.0401C23.2682 25.1999 23.1387 25.3294 22.979 25.3294C22.8192 25.3294 22.6897 25.1999 22.6897 25.0401C22.6897 24.8804 22.8192 24.7509 22.979 24.7509C23.1387 24.7509 23.2682 24.8804 23.2682 25.0401Z" fill="white"/>
<path d="M22.5612 25.6829C22.5612 25.8426 22.4317 25.9721 22.2719 25.9721C22.1122 25.9721 21.9827 25.8426 21.9827 25.6829C21.9827 25.5231 22.1122 25.3936 22.2719 25.3936C22.4317 25.3936 22.5612 25.5231 22.5612 25.6829Z" fill="white"/>
<path d="M21.7899 26.2614C21.7899 26.4211 21.6604 26.5506 21.5006 26.5506C21.3409 26.5506 21.2114 26.4211 21.2114 26.2614C21.2114 26.1016 21.3409 25.9721 21.5006 25.9721C21.6604 25.9721 21.7899 26.1016 21.7899 26.2614Z" fill="white"/>
<path d="M20.89 26.7756C20.89 26.9353 20.7605 27.0648 20.6007 27.0648C20.441 27.0648 20.3115 26.9353 20.3115 26.7756C20.3115 26.6158 20.441 26.4863 20.6007 26.4863C20.7605 26.4863 20.89 26.6158 20.89 26.7756Z" fill="white"/>
<path d="M19.9901 27.097C19.9901 27.2567 19.8606 27.3862 19.7009 27.3862C19.5411 27.3862 19.4116 27.2567 19.4116 27.097C19.4116 26.9372 19.5411 26.8077 19.7009 26.8077C19.8606 26.8077 19.9901 26.9372 19.9901 27.097Z" fill="white"/>
<path d="M19.0902 27.3541C19.0902 27.5138 18.9607 27.6433 18.801 27.6433C18.6412 27.6433 18.5117 27.5138 18.5117 27.3541C18.5117 27.1943 18.6412 27.0648 18.801 27.0648C18.9607 27.0648 19.0902 27.1943 19.0902 27.3541Z" fill="white"/>
<path d="M17.0977 27.5469C17.0977 27.7067 16.9682 27.8362 16.8084 27.8362C16.6487 27.8362 16.5192 27.7067 16.5192 27.5469C16.5192 27.3872 16.6487 27.2577 16.8084 27.2577C16.9682 27.2577 17.0977 27.3872 17.0977 27.5469Z" fill="white"/>
<path d="M16.1335 27.4184C16.1335 27.5781 16.004 27.7076 15.8443 27.7076C15.6845 27.7076 15.555 27.5781 15.555 27.4184C15.555 27.2586 15.6845 27.1291 15.8443 27.1291C16.004 27.1291 16.1335 27.2586 16.1335 27.4184Z" fill="white"/>
<path d="M15.1693 27.2255C15.1693 27.3853 15.0398 27.5148 14.8801 27.5148C14.7204 27.5148 14.5909 27.3853 14.5909 27.2255C14.5909 27.0658 14.7204 26.9363 14.8801 26.9363C15.0398 26.9363 15.1693 27.0658 15.1693 27.2255Z" fill="white"/>
<path d="M14.2052 26.8399C14.2052 26.9996 14.0757 27.1291 13.9159 27.1291C13.7562 27.1291 13.6267 26.9996 13.6267 26.8399C13.6267 26.6801 13.7562 26.5506 13.9159 26.5506C14.0757 26.5506 14.2052 26.6801 14.2052 26.8399Z" fill="white"/>
<path d="M13.3053 26.3899C13.3053 26.5497 13.1758 26.6792 13.0161 26.6792C12.8563 26.6792 12.7268 26.5497 12.7268 26.3899C12.7268 26.2302 12.8563 26.1007 13.0161 26.1007C13.1758 26.1007 13.3053 26.2302 13.3053 26.3899Z" fill="white"/>
<path d="M12.4054 25.8757C12.4054 26.0355 12.2759 26.165 12.1162 26.165C11.9564 26.165 11.8269 26.0355 11.8269 25.8757C11.8269 25.716 11.9564 25.5865 12.1162 25.5865C12.2759 25.5865 12.4054 25.716 12.4054 25.8757Z" fill="white"/>
<path d="M11.6341 25.2329C11.6341 25.3927 11.5046 25.5222 11.3449 25.5222C11.1851 25.5222 11.0556 25.3927 11.0556 25.2329C11.0556 25.0732 11.1851 24.9437 11.3449 24.9437C11.5046 24.9437 11.6341 25.0732 11.6341 25.2329Z" fill="white"/>
<path d="M10.9271 24.4616C10.9271 24.6214 10.7976 24.7509 10.6378 24.7509C10.4781 24.7509 10.3486 24.6214 10.3486 24.4616C10.3486 24.3019 10.4781 24.1724 10.6378 24.1724C10.7976 24.1724 10.9271 24.3019 10.9271 24.4616Z" fill="white"/>
<path d="M10.2843 23.6903C10.2843 23.85 10.1548 23.9795 9.99506 23.9795C9.83531 23.9795 9.70581 23.85 9.70581 23.6903C9.70581 23.5305 9.83531 23.401 9.99506 23.401C10.1548 23.401 10.2843 23.5305 10.2843 23.6903Z" fill="white"/>
<path d="M9.70581 22.7904C9.70581 22.9502 9.57631 23.0797 9.41657 23.0797C9.25682 23.0797 9.12732 22.9502 9.12732 22.7904C9.12732 22.6307 9.25682 22.5012 9.41657 22.5012C9.57631 22.5012 9.70581 22.6307 9.70581 22.7904Z" fill="white"/>
<path d="M9.25587 21.8263C9.25587 21.986 9.12637 22.1155 8.96663 22.1155C8.80688 22.1155 8.67738 21.986 8.67738 21.8263C8.67738 21.6665 8.80688 21.537 8.96663 21.537C9.12637 21.537 9.25587 21.6665 9.25587 21.8263Z" fill="white"/>
<path d="M8.93449 20.8621C8.93449 21.0219 8.80499 21.1514 8.64524 21.1514C8.4855 21.1514 8.356 21.0219 8.356 20.8621C8.356 20.7024 8.4855 20.5729 8.64524 20.5729C8.80499 20.5729 8.93449 20.7024 8.93449 20.8621Z" fill="white"/>
<path d="M8.67738 19.8337C8.67738 19.9934 8.54788 20.1229 8.38814 20.1229C8.22839 20.1229 8.09889 19.9934 8.09889 19.8337C8.09889 19.6739 8.22839 19.5444 8.38814 19.5444C8.54788 19.5444 8.67738 19.6739 8.67738 19.8337Z" fill="white"/>
<path d="M8.54883 18.8695C8.54883 19.0293 8.41933 19.1588 8.25958 19.1588C8.09984 19.1588 7.97033 19.0293 7.97033 18.8695C7.97033 18.7098 8.09984 18.5803 8.25958 18.5803C8.41933 18.5803 8.54883 18.7098 8.54883 18.8695Z" fill="white"/>
<path d="M8.54883 17.8411C8.54883 18.0008 8.41933 18.1303 8.25958 18.1303C8.09984 18.1303 7.97033 18.0008 7.97033 17.8411C7.97033 17.6814 8.09984 17.5519 8.25958 17.5519C8.41933 17.5519 8.54883 17.6814 8.54883 17.8411Z" fill="white"/>
<path d="M8.6131 16.8127C8.6131 16.9724 8.4836 17.1019 8.32386 17.1019C8.16411 17.1019 8.03461 16.9724 8.03461 16.8127C8.03461 16.6529 8.16411 16.5234 8.32386 16.5234C8.4836 16.5234 8.6131 16.6529 8.6131 16.8127Z" fill="white"/>
<path d="M8.87021 15.7842C8.87021 15.944 8.74071 16.0735 8.58097 16.0735C8.42122 16.0735 8.29172 15.944 8.29172 15.7842C8.29172 15.6245 8.42122 15.495 8.58097 15.495C8.74071 15.495 8.87021 15.6245 8.87021 15.7842Z" fill="white"/>
<path d="M18.1261 27.4826C18.1261 27.6424 17.9966 27.7719 17.8368 27.7719C17.6771 27.7719 17.5476 27.6424 17.5476 27.4826C17.5476 27.3229 17.6771 27.1934 17.8368 27.1934C17.9966 27.1934 18.1261 27.3229 18.1261 27.4826Z" fill="white"/>
<path d="M39.9792 2.92969H39.1797V30.1141H39.9792V2.92969Z" fill="white"/>
<path d="M50.9571 3.3286C50.758 3.61302 50.4964 3.8491 50.1721 4.03682C49.8479 4.22454 49.5208 4.3184 49.1908 4.3184C49.0828 4.45493 49.0031 4.58577 48.9519 4.71092C48.9064 4.83606 48.8837 4.98112 48.8837 5.14609V7.9022C48.8837 8.31177 48.7926 8.65593 48.6106 8.93467C48.4343 9.21341 48.1584 9.4694 47.7829 9.70263L47.6037 9.49784C47.7516 9.31012 47.8256 9.03422 47.8256 8.67015V5.64099C47.8256 5.40208 47.8995 5.17169 48.0474 4.94983C48.201 4.72229 48.3888 4.51182 48.6106 4.3184L47.4757 4.30987C47.2823 4.30987 47.106 4.35254 46.9467 4.43786C46.7874 4.52319 46.6367 4.65403 46.4945 4.83037L46.3067 4.65119C46.5741 4.29849 46.8472 4.01976 47.1259 3.81497C47.4103 3.61018 47.7317 3.50778 48.0901 3.50778H49.353C49.626 3.50778 49.9019 3.48503 50.1806 3.43952C50.4594 3.38832 50.6699 3.30015 50.8121 3.175L50.9571 3.3286ZM52.2149 7.40729H52.249C52.3741 6.8555 52.5789 6.34638 52.8634 5.87991C53.1478 5.41345 53.4976 5.18022 53.9129 5.18022C54.1063 5.18022 54.2485 5.23995 54.3395 5.35941C54.4362 5.47887 54.496 5.62108 54.5187 5.78605C54.5415 5.94533 54.5529 6.14159 54.5529 6.37482V8.73842C54.5529 8.80668 54.5728 8.8721 54.6126 8.93467C54.6581 8.99156 54.7207 9.02 54.8003 9.02C54.9368 9.02 55.0791 8.92045 55.227 8.72135L55.372 8.88347C55.2753 9.07689 55.1359 9.24185 54.9539 9.37838C54.7719 9.5149 54.5728 9.58317 54.3566 9.58317C53.8162 9.58317 53.546 9.28452 53.546 8.68722V6.45161C53.546 6.37766 53.5318 6.31224 53.5033 6.25536C53.4806 6.19279 53.4379 6.1615 53.3753 6.1615C53.1364 6.1615 52.9288 6.3606 52.7524 6.7588C52.5818 7.157 52.4481 7.61777 52.3514 8.14112C52.2604 8.66446 52.2149 9.08826 52.2149 9.41251L51.1909 9.63436V1.99747L52.2149 1.63909V7.40729ZM58.3415 5.18022C58.6714 5.18022 58.9473 5.26555 59.1692 5.43621C59.391 5.60117 59.502 5.84294 59.502 6.1615C59.502 6.41748 59.3626 6.70476 59.0839 7.02332C58.8108 7.33619 58.4837 7.62915 58.1026 7.9022C57.7271 8.16956 57.4057 8.36297 57.1384 8.48243C57.3773 8.86356 57.7271 9.05413 58.1879 9.05413C58.4439 9.05413 58.6999 8.98302 58.9559 8.84081C59.2175 8.69291 59.4394 8.4995 59.6214 8.26058L59.7921 8.46537C59.4963 8.83512 59.1834 9.12239 58.8535 9.32718C58.5292 9.52628 58.1424 9.62583 57.693 9.62583C57.3289 9.62583 57.0019 9.54335 56.7117 9.37838C56.4273 9.21341 56.2026 8.98871 56.0376 8.70428C55.8784 8.41417 55.7987 8.08992 55.7987 7.73154C55.7987 7.29921 55.9153 6.88679 56.1486 6.49428C56.3875 6.09608 56.7032 5.77752 57.0957 5.5386C57.4882 5.29968 57.9035 5.18022 58.3415 5.18022ZM57.8551 5.73486C57.639 5.73486 57.4456 5.8145 57.2749 5.97378C57.1042 6.12737 56.9706 6.32647 56.8739 6.57107C56.7772 6.81568 56.7288 7.06882 56.7288 7.3305C56.7288 7.67181 56.8028 7.96477 56.9507 8.20938C57.1611 8.08992 57.383 7.92495 57.6162 7.71448C57.8551 7.49831 58.0542 7.26792 58.2135 7.02332C58.3728 6.77871 58.4524 6.55685 58.4524 6.35775C58.4524 6.15865 58.3984 6.00506 58.2903 5.89698C58.1879 5.7889 58.0429 5.73486 57.8551 5.73486ZM50.1892 13.2945C50.5703 13.2945 50.8775 13.3969 51.1107 13.6016C51.344 13.8064 51.4606 14.0766 51.4606 14.4123C51.4606 14.6853 51.3838 14.9612 51.2302 15.24C51.0766 15.513 50.869 15.7548 50.6073 15.9652C50.3513 16.1757 50.0669 16.3236 49.754 16.409L49.626 16.1871C49.8706 16.0733 50.0669 15.8998 50.2148 15.6666C50.3684 15.4277 50.4452 15.1717 50.4452 14.8986C50.4452 14.5744 50.357 14.3156 50.1806 14.1221C50.0043 13.923 49.7739 13.8235 49.4895 13.8235C49.188 13.8235 48.9036 13.9458 48.6362 14.1904C48.3745 14.4293 48.1641 14.7536 48.0048 15.1632C47.8512 15.567 47.7744 16.0022 47.7744 16.4687C47.7744 16.9465 47.8483 17.3703 47.9962 17.7401C48.1441 18.1041 48.3489 18.3886 48.6106 18.5934C48.878 18.7981 49.1823 18.9005 49.5236 18.9005C49.7682 18.9005 50.0128 18.8408 50.2574 18.7214C50.5077 18.5962 50.7495 18.417 50.9827 18.1838L51.2131 18.3971C50.9458 18.7441 50.613 19.0342 50.2148 19.2675C49.8223 19.495 49.4098 19.6088 48.9775 19.6088C48.5111 19.6088 48.1015 19.5007 47.7488 19.2845C47.4018 19.0684 47.1344 18.7697 46.9467 18.3886C46.759 18.0017 46.6651 17.5609 46.6651 17.066C46.6651 16.372 46.8216 15.7377 47.1344 15.1632C47.453 14.5829 47.8796 14.1278 48.4143 13.7979C48.9548 13.4623 49.5464 13.2945 50.1892 13.2945ZM53.9762 15.3594C53.6008 15.6268 53.305 15.9311 53.0888 16.2724C52.8783 16.6081 52.7731 17.0034 52.7731 17.4585C52.7731 17.7088 52.8215 17.9619 52.9182 18.2179C53.0149 18.4739 53.1571 18.6872 53.3448 18.8579C53.5325 19.0228 53.7572 19.1053 54.0189 19.1053C54.3488 19.1053 54.6133 18.9859 54.8124 18.7469C55.0172 18.508 55.1196 18.2122 55.1196 17.8595C55.1196 17.5922 55.0485 17.322 54.9063 17.0489C54.7698 16.7702 54.5849 16.5369 54.3517 16.3492C54.1184 16.1558 53.8681 16.0477 53.6008 16.025C53.7202 15.8941 53.8482 15.7747 53.9848 15.6666C54.127 15.5585 54.3033 15.4277 54.5138 15.2741C54.9234 15.4106 55.2476 15.6637 55.4865 16.0335C55.7311 16.4033 55.8535 16.81 55.8535 17.2537C55.8535 17.6462 55.7653 18.0273 55.5889 18.3971C55.4183 18.7669 55.168 19.0684 54.838 19.3016C54.5138 19.5291 54.1355 19.6429 53.7032 19.6429C53.3448 19.6429 53.0149 19.5604 52.7134 19.3954C52.4176 19.2248 52.1815 18.9944 52.0051 18.7043C51.8288 18.4085 51.7406 18.0842 51.7406 17.7315C51.7406 17.1229 51.9312 16.5881 52.3123 16.1274C52.6991 15.6666 53.1997 15.3452 53.8141 15.1632L53.9762 15.3594ZM58.7343 15.3594C58.3588 15.6268 58.063 15.9311 57.8469 16.2724C57.6364 16.6081 57.5312 17.0034 57.5312 17.4585C57.5312 17.7088 57.5795 17.9619 57.6762 18.2179C57.7729 18.4739 57.9151 18.6872 58.1029 18.8579C58.2906 19.0228 58.5153 19.1053 58.777 19.1053C59.1069 19.1053 59.3714 18.9859 59.5705 18.7469C59.7753 18.508 59.8777 18.2122 59.8777 17.8595C59.8777 17.5922 59.8066 17.322 59.6644 17.0489C59.5278 16.7702 59.343 16.5369 59.1097 16.3492C58.8765 16.1558 58.6262 16.0477 58.3588 16.025C58.4783 15.8941 58.6063 15.7747 58.7428 15.6666C58.885 15.5585 59.0614 15.4277 59.2719 15.2741C59.6814 15.4106 60.0057 15.6637 60.2446 16.0335C60.4892 16.4033 60.6115 16.81 60.6115 17.2537C60.6115 17.6462 60.5233 18.0273 60.347 18.3971C60.1763 18.7669 59.926 19.0684 59.5961 19.3016C59.2719 19.5291 58.8936 19.6429 58.4612 19.6429C58.1029 19.6429 57.7729 19.5604 57.4714 19.3954C57.1756 19.2248 56.9395 18.9944 56.7632 18.7043C56.5869 18.4085 56.4987 18.0842 56.4987 17.7315C56.4987 17.1229 56.6892 16.5881 57.0704 16.1274C57.4572 15.6666 57.9578 15.3452 58.5722 15.1632L58.7343 15.3594ZM62.6135 17.4158C62.7898 17.0119 62.9974 16.6763 63.2364 16.409L63.2108 16.3748C63.0174 16.4886 62.7841 16.5455 62.5111 16.5455C62.3347 16.5455 62.1726 16.517 62.0247 16.4601L61.4701 17.6462L61.1202 17.4926L61.6919 16.3151C61.6749 16.298 61.6208 16.2497 61.5298 16.17C61.4388 16.0904 61.3819 16.0108 61.3591 15.9311L62.1783 15.0096C62.2409 15.2428 62.3603 15.4476 62.5367 15.6239C62.7187 15.7946 62.9206 15.8799 63.1425 15.8799C63.4895 15.8799 63.8536 15.7548 64.2347 15.5045L64.3883 15.6666C64.0584 15.9738 63.7768 16.3378 63.5435 16.7588C63.3103 17.1798 63.1937 17.6035 63.1937 18.0302C63.1937 18.2919 63.2591 18.5109 63.39 18.6872C63.5265 18.8636 63.7227 18.9517 63.9787 18.9517C64.1494 18.9517 64.3314 18.8892 64.5248 18.764L64.6528 18.9176C64.4878 19.1281 64.2887 19.2959 64.0555 19.421C63.828 19.5462 63.5891 19.6088 63.3388 19.6088C63.0259 19.6088 62.7841 19.5064 62.6135 19.3016C62.4428 19.0911 62.3575 18.8266 62.3575 18.508C62.3575 18.1781 62.4428 17.814 62.6135 17.4158ZM68.9717 18.7043C68.9717 18.7839 68.9888 18.855 69.0229 18.9176C69.0627 18.9745 69.1196 19.0029 69.1935 19.0029C69.2675 19.0029 69.3415 18.9716 69.4154 18.9091C69.495 18.8465 69.5548 18.7782 69.5946 18.7043L69.7823 18.8664C69.6799 19.0655 69.5377 19.2362 69.3557 19.3784C69.1793 19.5149 68.9888 19.5832 68.784 19.5832C68.4882 19.5832 68.2748 19.5035 68.144 19.3442C68.0132 19.1793 67.9506 18.929 67.9563 18.5934H67.9136C67.7828 18.8892 67.6121 19.1366 67.4017 19.3357C67.1912 19.5291 66.938 19.6258 66.6422 19.6258C66.3294 19.6258 66.062 19.5462 65.8401 19.3869C65.6183 19.2276 65.4505 19.0143 65.3367 18.7469C65.2229 18.4739 65.166 18.1724 65.166 17.8425C65.166 17.4215 65.2514 17.0091 65.422 16.6052C65.5984 16.1956 65.8515 15.86 66.1815 15.5983C66.5114 15.3367 66.8954 15.2058 67.3334 15.2058C67.5552 15.2058 67.7572 15.2599 67.9392 15.3679V11.9975L68.9717 11.6391V18.7043ZM67.3163 15.7519C67.0433 15.7519 66.8157 15.8458 66.6337 16.0335C66.4574 16.2155 66.3265 16.4431 66.2412 16.7161C66.1559 16.9835 66.1132 17.248 66.1132 17.5097C66.1132 17.8624 66.1815 18.198 66.318 18.5166C66.4602 18.8351 66.6821 18.9944 66.9835 18.9944C67.3476 18.9944 67.5979 18.8095 67.7344 18.4398C67.871 18.0643 67.9392 17.6576 67.9392 17.2196V16.0335C67.7515 15.8458 67.5439 15.7519 67.3163 15.7519ZM71.3413 14.3611L70.8037 14.5317L70.4539 12.7484L71.6399 12.3473L71.3413 14.3611ZM71.6143 18.7384C71.6143 18.8237 71.6343 18.892 71.6741 18.9432C71.7139 18.9944 71.7679 19.02 71.8362 19.02C71.9784 19.02 72.1235 18.9205 72.2714 18.7214L72.425 18.8835C72.2998 19.111 72.1377 19.2845 71.9386 19.404C71.7452 19.5234 71.5518 19.5832 71.3584 19.5832C70.8407 19.5832 70.5819 19.2845 70.5819 18.6872V15.6154L71.6143 15.257V18.7384ZM76.2777 15.1802C76.4768 15.1802 76.6219 15.24 76.7129 15.3594C76.8039 15.4732 76.8608 15.6097 76.8836 15.769C76.9063 15.9226 76.9177 16.1217 76.9177 16.3663V18.7384C76.9177 18.8067 76.9376 18.8721 76.9774 18.9347C77.0229 18.9916 77.077 19.02 77.1396 19.02C77.2249 19.02 77.2988 18.9944 77.3614 18.9432C77.4297 18.8863 77.5008 18.8124 77.5747 18.7214L77.7198 18.8835C77.6174 19.0826 77.4752 19.2504 77.2931 19.3869C77.1168 19.5177 76.9262 19.5832 76.7214 19.5832C76.4484 19.5832 76.2436 19.5064 76.1071 19.3528C75.9706 19.1935 75.9023 18.9716 75.9023 18.6872V16.4516C75.9023 16.372 75.8938 16.3037 75.8767 16.2468C75.8596 16.1899 75.8198 16.1615 75.7572 16.1615C75.5638 16.1615 75.3676 16.3691 75.1685 16.7844C74.9694 17.194 74.8016 17.6661 74.665 18.2008C74.5285 18.7356 74.4602 19.1395 74.4602 19.4125L73.4619 19.6344V16.0506C73.4619 15.9652 73.442 15.8941 73.4022 15.8373C73.3624 15.7804 73.3055 15.7519 73.2315 15.7519C73.1519 15.7519 73.0722 15.7861 72.9926 15.8543C72.9186 15.9169 72.8561 15.9908 72.8049 16.0762L72.6513 15.9055C72.7366 15.7064 72.8703 15.5358 73.0523 15.3935C73.2344 15.2513 73.4306 15.1802 73.6411 15.1802C73.9255 15.1802 74.1332 15.2599 74.264 15.4191C74.3948 15.5727 74.4602 15.7889 74.4602 16.0676V17.7145H74.4944C74.648 17.083 74.8755 16.5028 75.177 15.9738C75.4842 15.4447 75.8511 15.1802 76.2777 15.1802ZM80.5368 15.257C80.8383 15.257 81.1171 15.3167 81.373 15.4362C81.6347 15.5557 81.8281 15.7405 81.9533 15.9908L81.1256 16.3322C81.046 16.1843 80.935 16.0619 80.7928 15.9652C80.6506 15.8685 80.4999 15.8202 80.3406 15.8202C79.9594 15.8202 79.6579 15.9795 79.4361 16.298C79.2142 16.6166 79.1033 17.0148 79.1033 17.4926C79.1033 17.9306 79.1687 18.2919 79.2996 18.5763C79.4304 18.855 79.638 18.9944 79.9225 18.9944C80.3207 18.9944 80.5937 18.8095 80.7416 18.4398C80.8895 18.0643 80.9635 17.6576 80.9635 17.2196V16.8441L81.9618 16.4857V18.7043C81.9618 18.7839 81.9789 18.855 82.013 18.9176C82.0528 18.9745 82.1097 19.0029 82.1837 19.0029C82.3259 19.0029 82.4709 18.9034 82.6188 18.7043L82.781 18.8664C82.6956 19.0655 82.5591 19.2362 82.3714 19.3784C82.1894 19.5149 81.9931 19.5832 81.7826 19.5832C81.5096 19.5832 81.3105 19.4922 81.1853 19.3101C81.0602 19.1224 80.9976 18.8835 80.9976 18.5934H80.9635C80.8269 18.9005 80.6449 19.1508 80.4174 19.3442C80.1898 19.532 79.9253 19.6258 79.6238 19.6258C79.1687 19.6258 78.816 19.4609 78.5657 19.1309C78.3211 18.7953 78.1988 18.3601 78.1988 17.8254C78.1988 17.3703 78.2955 16.9465 78.4889 16.554C78.688 16.1615 78.9639 15.8486 79.3166 15.6154C79.675 15.3765 80.0817 15.257 80.5368 15.257ZM84.6148 15.8202V18.7384C84.6148 18.8181 84.6375 18.8863 84.6831 18.9432C84.7286 18.9944 84.7883 19.02 84.8622 19.02C84.9988 19.02 85.1524 18.9205 85.323 18.7214L85.4766 18.8835C85.3742 19.0883 85.2462 19.2419 85.0926 19.3442C84.939 19.4466 84.7911 19.5149 84.6489 19.549C84.5067 19.5832 84.4356 19.5945 84.4356 19.5832C83.8667 19.5832 83.5823 19.2845 83.5823 18.6872V15.8202H82.9765L83.241 15.257H83.5823V13.3201L84.6148 12.9702V15.257H85.7326L85.4766 15.8202H84.6148ZM88.5981 15.1802C88.928 15.1802 89.2039 15.2655 89.4258 15.4362C89.6476 15.6012 89.7586 15.8429 89.7586 16.1615C89.7586 16.4175 89.6192 16.7048 89.3405 17.0233C89.0674 17.3362 88.7403 17.6291 88.3592 17.9022C87.9837 18.1696 87.6623 18.363 87.395 18.4824C87.6339 18.8636 87.9837 19.0541 88.4445 19.0541C88.7005 19.0541 88.9565 18.983 89.2125 18.8408C89.4741 18.6929 89.696 18.4995 89.878 18.2606L90.0487 18.4654C89.7529 18.8351 89.44 19.1224 89.1101 19.3272C88.7858 19.5263 88.399 19.6258 87.9496 19.6258C87.5855 19.6258 87.2584 19.5433 86.9683 19.3784C86.6839 19.2134 86.4592 18.9887 86.2942 18.7043C86.1349 18.4142 86.0553 18.0899 86.0553 17.7315C86.0553 17.2992 86.1719 16.8868 86.4052 16.4943C86.6441 16.0961 86.9598 15.7775 87.3523 15.5386C87.7448 15.2997 88.1601 15.1802 88.5981 15.1802ZM88.1117 15.7349C87.8956 15.7349 87.7021 15.8145 87.5315 15.9738C87.3608 16.1274 87.2272 16.3265 87.1304 16.5711C87.0337 16.8157 86.9854 17.0688 86.9854 17.3305C86.9854 17.6718 87.0593 17.9648 87.2072 18.2094C87.4177 18.0899 87.6396 17.925 87.8728 17.7145C88.1117 17.4983 88.3108 17.2679 88.4701 17.0233C88.6294 16.7787 88.709 16.5569 88.709 16.3578C88.709 16.1587 88.655 16.0051 88.5469 15.897C88.4445 15.7889 88.2994 15.7349 88.1117 15.7349ZM94.4452 18.7043C94.4452 18.7839 94.4623 18.855 94.4964 18.9176C94.5362 18.9745 94.5931 19.0029 94.6671 19.0029C94.741 19.0029 94.815 18.9716 94.8889 18.9091C94.9686 18.8465 95.0283 18.7782 95.0681 18.7043L95.2558 18.8664C95.1535 19.0655 95.0112 19.2362 94.8292 19.3784C94.6529 19.5149 94.4623 19.5832 94.2575 19.5832C93.9617 19.5832 93.7484 19.5035 93.6175 19.3442C93.4867 19.1793 93.4241 18.929 93.4298 18.5934H93.3872C93.2563 18.8892 93.0857 19.1366 92.8752 19.3357C92.6647 19.5291 92.4116 19.6258 92.1158 19.6258C91.8029 19.6258 91.5355 19.5462 91.3137 19.3869C91.0918 19.2276 90.924 19.0143 90.8102 18.7469C90.6965 18.4739 90.6396 18.1724 90.6396 17.8425C90.6396 17.4215 90.7249 17.0091 90.8956 16.6052C91.0719 16.1956 91.3251 15.86 91.655 15.5983C91.9849 15.3367 92.3689 15.2058 92.8069 15.2058C93.0288 15.2058 93.2307 15.2599 93.4128 15.3679V11.9975L94.4452 11.6391V18.7043ZM92.7899 15.7519C92.5168 15.7519 92.2893 15.8458 92.1072 16.0335C91.9309 16.2155 91.8 16.4431 91.7147 16.7161C91.6294 16.9835 91.5867 17.248 91.5867 17.5097C91.5867 17.8624 91.655 18.198 91.7915 18.5166C91.9337 18.8351 92.1556 18.9944 92.4571 18.9944C92.8211 18.9944 93.0714 18.8095 93.208 18.4398C93.3445 18.0643 93.4128 17.6576 93.4128 17.2196V16.0335C93.225 15.8458 93.0174 15.7519 92.7899 15.7519ZM49.7881 22.2945C50.1124 22.2945 50.3797 22.3684 50.5902 22.5163C50.8064 22.6642 50.9145 22.8804 50.9145 23.1648C50.9145 23.4151 50.8263 23.6512 50.65 23.873C50.4793 24.0892 50.2461 24.2769 49.9503 24.4362C49.6601 24.5955 49.3387 24.7121 48.986 24.7861L48.8922 24.5557C49.1994 24.4135 49.4354 24.2428 49.6004 24.0437C49.7654 23.8446 49.8479 23.6227 49.8479 23.3781C49.8479 23.2018 49.7967 23.0624 49.6943 22.96C49.5976 22.8519 49.4582 22.7979 49.2762 22.7979C49.0202 22.7979 48.804 22.8719 48.6277 23.0198C48.4513 23.162 48.3205 23.3468 48.2352 23.5744C48.1498 23.7962 48.1072 24.0266 48.1072 24.2655V26.8425C48.1072 27.0074 48.0816 27.1497 48.0304 27.2691C47.9849 27.3829 47.9081 27.4995 47.8 27.619L47.8512 27.6531C48.1072 27.4938 48.3774 27.4142 48.6618 27.4142C48.8495 27.4142 49.0742 27.4369 49.3359 27.4824C49.3757 27.4881 49.4554 27.4995 49.5748 27.5166C49.7 27.5336 49.828 27.5422 49.9588 27.5422C50.1579 27.5422 50.3342 27.491 50.4878 27.3886C50.6471 27.2862 50.795 27.1468 50.9315 26.9705L51.1363 27.1155L50.4452 28.6088C50.155 28.586 49.7853 28.5291 49.3359 28.4381C49.0628 28.3869 48.8239 28.3471 48.6191 28.3186C48.4143 28.2902 48.1925 28.276 47.9536 28.276C47.5724 28.276 47.2254 28.3841 46.9126 28.6002L46.6566 28.3613C46.7874 28.2532 46.8813 28.1281 46.9382 27.9859C47.0007 27.838 47.032 27.6474 47.032 27.4142V25.1018C47.032 24.5784 47.1458 24.1034 47.3733 23.6768C47.6066 23.2501 47.9308 22.9145 48.3461 22.6699C48.767 22.4196 49.2477 22.2945 49.7881 22.2945ZM52.609 23.3611L52.0715 23.5317L51.7216 21.7484L52.9077 21.3473L52.609 23.3611ZM52.8821 27.7384C52.8821 27.8237 52.902 27.892 52.9418 27.9432C52.9816 27.9944 53.0357 28.02 53.1039 28.02C53.2462 28.02 53.3912 27.9205 53.5391 27.7214L53.6927 27.8835C53.5676 28.111 53.4054 28.2845 53.2063 28.404C53.0129 28.5234 52.8195 28.5832 52.6261 28.5832C52.1084 28.5832 51.8496 28.2845 51.8496 27.6872V24.6154L52.8821 24.257V27.7384ZM57.3492 23.9413C57.5882 24.0323 57.773 24.166 57.9039 24.3423C58.0347 24.5187 58.1001 24.7178 58.1001 24.9396C58.1001 25.0591 58.0831 25.1899 58.0489 25.3322C58.0148 25.4687 57.9721 25.5881 57.9209 25.6905L56.4789 28.5576C56.4618 28.5917 56.4277 28.6201 56.3765 28.6429C56.3253 28.6657 56.2713 28.677 56.2144 28.677C56.1461 28.677 56.0835 28.6657 56.0266 28.6429C55.9754 28.6201 55.9413 28.586 55.9242 28.5405L54.4993 25.4004C54.3741 25.1672 54.2404 25.0506 54.0982 25.0506C54.0186 25.0506 53.9304 25.1075 53.8337 25.2212L53.6972 25.1018C53.7654 24.8799 53.902 24.6865 54.1068 24.5215C54.3115 24.3509 54.5362 24.2655 54.7808 24.2655C54.9344 24.2655 55.0624 24.348 55.1648 24.513C55.2729 24.6723 55.3753 24.8657 55.472 25.0932L56.5813 27.5934L57.1956 26.3305C57.3037 26.103 57.3578 25.9124 57.3578 25.7588C57.3578 25.5426 57.3009 25.3549 57.1871 25.1956C57.0733 25.0363 56.9141 24.9084 56.7093 24.8117L57.3492 23.9413ZM59.6836 23.3611L59.1461 23.5317L58.7962 21.7484L59.9823 21.3473L59.6836 23.3611ZM59.9567 27.7384C59.9567 27.8237 59.9766 27.892 60.0164 27.9432C60.0562 27.9944 60.1103 28.02 60.1785 28.02C60.3207 28.02 60.4658 27.9205 60.6137 27.7214L60.7673 27.8835C60.6422 28.111 60.48 28.2845 60.2809 28.404C60.0875 28.5234 59.8941 28.5832 59.7007 28.5832C59.183 28.5832 58.9242 28.2845 58.9242 27.6872V24.6154L59.9567 24.257V27.7384ZM64.6201 24.1802C64.8192 24.1802 64.9642 24.24 65.0553 24.3594C65.1463 24.4732 65.2032 24.6097 65.2259 24.769C65.2487 24.9226 65.26 25.1217 65.26 25.3663V27.7384C65.26 27.8067 65.28 27.8721 65.3198 27.9347C65.3653 27.9916 65.4193 28.02 65.4819 28.02C65.5672 28.02 65.6412 27.9944 65.7038 27.9432C65.772 27.8863 65.8431 27.8124 65.9171 27.7214L66.0621 27.8835C65.9597 28.0826 65.8175 28.2504 65.6355 28.3869C65.4591 28.5177 65.2686 28.5832 65.0638 28.5832C64.7907 28.5832 64.5859 28.5064 64.4494 28.3528C64.3129 28.1935 64.2446 27.9716 64.2446 27.6872V25.4516C64.2446 25.372 64.2361 25.3037 64.219 25.2468C64.202 25.1899 64.1622 25.1615 64.0996 25.1615C63.9062 25.1615 63.7099 25.3691 63.5108 25.7844C63.3117 26.194 63.1439 26.6661 63.0074 27.2008C62.8708 27.7356 62.8026 28.1395 62.8026 28.4125L61.8042 28.6344V25.0506C61.8042 24.9652 61.7843 24.8941 61.7445 24.8373C61.7047 24.7804 61.6478 24.7519 61.5739 24.7519C61.4942 24.7519 61.4146 24.7861 61.3349 24.8543C61.261 24.9169 61.1984 24.9908 61.1472 25.0762L60.9936 24.9055C61.079 24.7064 61.2126 24.5358 61.3947 24.3935C61.5767 24.2513 61.773 24.1802 61.9834 24.1802C62.2679 24.1802 62.4755 24.2599 62.6063 24.4191C62.7372 24.5727 62.8026 24.7889 62.8026 25.0676V26.7145H62.8367C62.9903 26.083 63.2178 25.5028 63.5193 24.9738C63.8265 24.4447 64.1934 24.1802 64.6201 24.1802ZM68.8621 24.1802C69.1579 24.1802 69.4366 24.2513 69.6983 24.3935C69.9657 24.5358 70.1648 24.7349 70.2956 24.9908L69.4679 25.3322C69.3826 25.1387 69.2688 24.9908 69.1266 24.8884C68.9901 24.7804 68.8393 24.7263 68.6744 24.7263C68.4298 24.7263 68.2136 24.8202 68.0259 25.0079C67.8382 25.1899 67.6931 25.4175 67.5907 25.6905C67.494 25.9636 67.4456 26.2309 67.4456 26.4926C67.4456 26.8965 67.5168 27.2492 67.659 27.5507C67.8012 27.8465 68.0287 27.9944 68.3416 27.9944C68.7 27.9944 68.9474 27.8067 69.084 27.4312C69.2262 27.0558 69.2973 26.6519 69.2973 26.2196V25.8441L70.3042 25.4857V28.1053C70.3042 28.5433 70.1904 28.9899 69.9628 29.445C69.7353 29.9058 69.4281 30.284 69.0413 30.5799C68.6545 30.8813 68.2364 31.0321 67.787 31.0321C67.4684 31.0321 67.2067 30.9269 67.0019 30.7164L67.7272 30.0252C67.9093 30.2641 68.1226 30.3836 68.3672 30.3836C68.7483 30.3836 68.9986 30.2385 69.1181 29.9484C69.2432 29.664 69.3058 29.2857 69.3058 28.8136L69.2973 28.2163C69.2973 27.9603 69.32 27.7526 69.3655 27.5934H69.2973C69.1323 27.9005 68.9474 28.1508 68.7426 28.3442C68.5379 28.532 68.2904 28.6258 68.0003 28.6258C67.5338 28.6258 67.1726 28.4637 66.9166 28.1395C66.6606 27.8152 66.5326 27.4056 66.5326 26.9107C66.5326 26.4443 66.6293 26.0006 66.8228 25.5796C67.0219 25.1587 67.2977 24.8202 67.6504 24.5642C68.0088 24.3082 68.4127 24.1802 68.8621 24.1802Z" fill="white"/>
</svg>
