<svg width="220" height="312" viewBox="0 0 220 312" fill="none" xmlns="http://www.w3.org/2000/svg">
<rect width="220" height="311.328" rx="16" fill="#2481C2"/>
<path d="M116.322 39.6276C116.296 39.7929 116.158 39.9087 116.013 39.8863C115.868 39.8638 115.771 39.7117 115.797 39.5464C115.822 39.3811 115.96 39.2653 116.105 39.2878C116.25 39.3102 116.347 39.4624 116.322 39.6276Z" fill="white"/>
<path d="M116.871 38.6669C116.845 38.8322 116.707 38.948 116.562 38.9256C116.417 38.9031 116.32 38.7509 116.346 38.5857C116.371 38.4204 116.509 38.3046 116.654 38.3271C116.799 38.3495 116.896 38.5017 116.871 38.6669Z" fill="white"/>
<path d="M117.328 37.7062C117.303 37.8715 117.164 37.9873 117.019 37.9648C116.874 37.9424 116.778 37.7902 116.803 37.625C116.829 37.4597 116.967 37.3439 117.112 37.3663C117.257 37.3888 117.354 37.5409 117.328 37.7062Z" fill="white"/>
<path d="M117.648 36.654C117.623 36.8193 117.485 36.9351 117.34 36.9126C117.195 36.8902 117.098 36.738 117.123 36.5727C117.149 36.4075 117.287 36.2917 117.432 36.3141C117.577 36.3366 117.674 36.4887 117.648 36.654Z" fill="white"/>
<path d="M117.877 35.6018C117.852 35.7671 117.713 35.8829 117.568 35.8604C117.423 35.838 117.327 35.6858 117.352 35.5205C117.378 35.3553 117.516 35.2395 117.661 35.2619C117.806 35.2844 117.903 35.4365 117.877 35.6018Z" fill="white"/>
<path d="M117.969 34.5496C117.943 34.7149 117.805 34.8306 117.66 34.8082C117.515 34.7858 117.418 34.6336 117.444 34.4683C117.469 34.303 117.607 34.1873 117.752 34.2097C117.897 34.2321 117.994 34.3843 117.969 34.5496Z" fill="white"/>
<path d="M118.014 33.4516C117.989 33.6169 117.85 33.7327 117.706 33.7102C117.561 33.6878 117.464 33.5356 117.489 33.3704C117.515 33.2051 117.653 33.0893 117.798 33.1117C117.943 33.1342 118.04 33.2863 118.014 33.4516Z" fill="white"/>
<path d="M117.923 32.3994C117.897 32.5647 117.759 32.6805 117.614 32.658C117.469 32.6356 117.372 32.4834 117.398 32.3181C117.423 32.1529 117.562 32.0371 117.707 32.0595C117.852 32.082 117.948 32.2341 117.923 32.3994Z" fill="white"/>
<path d="M117.694 31.3929C117.669 31.5582 117.53 31.674 117.385 31.6516C117.24 31.6291 117.144 31.4769 117.169 31.3117C117.195 31.1464 117.333 31.0306 117.478 31.0531C117.623 31.0755 117.72 31.2277 117.694 31.3929Z" fill="white"/>
<path d="M117.374 30.3865C117.348 30.5517 117.21 30.6675 117.065 30.6451C116.92 30.6227 116.823 30.4705 116.849 30.3052C116.874 30.1399 117.013 30.0242 117.158 30.0466C117.303 30.069 117.399 30.2212 117.374 30.3865Z" fill="white"/>
<path d="M116.962 29.4715C116.937 29.6368 116.798 29.7526 116.653 29.7301C116.508 29.7077 116.412 29.5555 116.437 29.3902C116.463 29.225 116.601 29.1092 116.746 29.1316C116.891 29.1541 116.988 29.3062 116.962 29.4715Z" fill="white"/>
<path d="M116.459 28.6023C116.433 28.7676 116.295 28.8834 116.15 28.8609C116.005 28.8385 115.908 28.6863 115.934 28.521C115.959 28.3558 116.098 28.24 116.243 28.2624C116.388 28.2849 116.484 28.437 116.459 28.6023Z" fill="white"/>
<path d="M115.864 27.8246C115.839 27.9898 115.7 28.1056 115.555 28.0832C115.41 28.0607 115.314 27.9086 115.339 27.7433C115.365 27.578 115.503 27.4622 115.648 27.4847C115.793 27.5071 115.89 27.6593 115.864 27.8246Z" fill="white"/>
<path d="M115.178 27.1383C115.152 27.3036 115.014 27.4194 114.869 27.397C114.724 27.3745 114.627 27.2224 114.653 27.0571C114.679 26.8918 114.817 26.776 114.962 26.7985C115.107 26.8209 115.204 26.9731 115.178 27.1383Z" fill="white"/>
<path d="M114.4 26.5436C114.375 26.7089 114.236 26.8247 114.091 26.8022C113.946 26.7798 113.85 26.6276 113.875 26.4624C113.901 26.2971 114.039 26.1813 114.184 26.2037C114.329 26.2262 114.426 26.3783 114.4 26.5436Z" fill="white"/>
<path d="M113.577 26.0404C113.551 26.2057 113.413 26.3214 113.268 26.299C113.123 26.2766 113.026 26.1244 113.052 25.9591C113.077 25.7938 113.216 25.6781 113.361 25.7005C113.506 25.7229 113.602 25.8751 113.577 26.0404Z" fill="white"/>
<path d="M112.708 25.6744C112.682 25.8397 112.544 25.9555 112.399 25.933C112.254 25.9106 112.157 25.7584 112.183 25.5931C112.208 25.4279 112.346 25.3121 112.491 25.3345C112.636 25.357 112.733 25.5091 112.708 25.6744Z" fill="white"/>
<path d="M111.793 25.4457C111.767 25.6109 111.629 25.7267 111.484 25.7043C111.339 25.6818 111.242 25.5297 111.268 25.3644C111.293 25.1991 111.431 25.0833 111.576 25.1058C111.721 25.1282 111.818 25.2804 111.793 25.4457Z" fill="white"/>
<path d="M110.832 25.3084C110.806 25.4737 110.668 25.5895 110.523 25.567C110.378 25.5446 110.281 25.3924 110.307 25.2271C110.332 25.0619 110.471 24.9461 110.616 24.9685C110.761 24.991 110.857 25.1431 110.832 25.3084Z" fill="white"/>
<path d="M109.871 25.3084C109.846 25.4737 109.707 25.5895 109.562 25.567C109.417 25.5446 109.321 25.3924 109.346 25.2271C109.372 25.0619 109.51 24.9461 109.655 24.9685C109.8 24.991 109.897 25.1431 109.871 25.3084Z" fill="white"/>
<path d="M108.956 25.3999C108.931 25.5652 108.792 25.681 108.647 25.6585C108.502 25.6361 108.406 25.4839 108.431 25.3186C108.457 25.1534 108.595 25.0376 108.74 25.06C108.885 25.0825 108.982 25.2346 108.956 25.3999Z" fill="white"/>
<path d="M107.995 25.6286C107.97 25.7939 107.832 25.9097 107.687 25.8873C107.542 25.8648 107.445 25.7127 107.47 25.5474C107.496 25.3821 107.634 25.2663 107.779 25.2888C107.924 25.3112 108.021 25.4634 107.995 25.6286Z" fill="white"/>
<path d="M107.08 25.9946C107.055 26.1599 106.917 26.2757 106.772 26.2533C106.627 26.2308 106.53 26.0786 106.555 25.9134C106.581 25.7481 106.719 25.6323 106.864 25.6548C107.009 25.6772 107.106 25.8294 107.08 25.9946Z" fill="white"/>
<path d="M106.211 26.4521C106.186 26.6174 106.047 26.7332 105.902 26.7107C105.757 26.6883 105.661 26.5361 105.686 26.3709C105.712 26.2056 105.85 26.0898 105.995 26.1122C106.14 26.1347 106.237 26.2868 106.211 26.4521Z" fill="white"/>
<path d="M105.342 27.0468C105.316 27.2121 105.178 27.3279 105.033 27.3055C104.888 27.283 104.791 27.1309 104.817 26.9656C104.843 26.8003 104.981 26.6845 105.126 26.707C105.271 26.7294 105.368 26.8816 105.342 27.0468Z" fill="white"/>
<path d="M104.61 27.7331C104.584 27.8983 104.446 28.0141 104.301 27.9917C104.156 27.9693 104.059 27.8171 104.085 27.6518C104.111 27.4865 104.249 27.3708 104.394 27.3932C104.539 27.4156 104.636 27.5678 104.61 27.7331Z" fill="white"/>
<path d="M103.878 28.5108C103.853 28.6761 103.714 28.7919 103.569 28.7694C103.424 28.747 103.328 28.5948 103.353 28.4295C103.379 28.2643 103.517 28.1485 103.662 28.1709C103.807 28.1934 103.904 28.3455 103.878 28.5108Z" fill="white"/>
<path d="M103.238 29.38C103.212 29.5453 103.074 29.6611 102.929 29.6386C102.784 29.6162 102.687 29.464 102.713 29.2988C102.738 29.1335 102.876 29.0177 103.021 29.0401C103.166 29.0626 103.263 29.2147 103.238 29.38Z" fill="white"/>
<path d="M102.734 30.3407C102.709 30.506 102.571 30.6218 102.426 30.5993C102.281 30.5769 102.184 30.4247 102.209 30.2595C102.235 30.0942 102.373 29.9784 102.518 30.0008C102.663 30.0233 102.76 30.1755 102.734 30.3407Z" fill="white"/>
<path d="M102.323 31.3014C102.297 31.4667 102.159 31.5825 102.014 31.5601C101.869 31.5376 101.772 31.3855 101.798 31.2202C101.823 31.0549 101.961 30.9391 102.106 30.9616C102.251 30.984 102.348 31.1362 102.323 31.3014Z" fill="white"/>
<path d="M101.957 32.3079C101.931 32.4732 101.793 32.589 101.648 32.5665C101.503 32.5441 101.406 32.3919 101.432 32.2266C101.457 32.0614 101.596 31.9456 101.74 31.968C101.885 31.9905 101.982 32.1426 101.957 32.3079Z" fill="white"/>
<path d="M101.728 33.3601C101.702 33.5254 101.564 33.6412 101.419 33.6187C101.274 33.5963 101.177 33.4441 101.203 33.2789C101.228 33.1136 101.367 32.9978 101.512 33.0202C101.657 33.0427 101.754 33.1949 101.728 33.3601Z" fill="white"/>
<path d="M101.591 34.4581C101.565 34.6234 101.427 34.7391 101.282 34.7167C101.137 34.6943 101.04 34.5421 101.066 34.3768C101.091 34.2115 101.23 34.0958 101.374 34.1182C101.519 34.1406 101.616 34.2928 101.591 34.4581Z" fill="white"/>
<path d="M101.591 35.556C101.565 35.7213 101.427 35.8371 101.282 35.8147C101.137 35.7922 101.04 35.6401 101.066 35.4748C101.091 35.3095 101.23 35.1937 101.374 35.2162C101.519 35.2386 101.616 35.3908 101.591 35.556Z" fill="white"/>
<path d="M101.682 36.6083C101.657 36.7735 101.518 36.8893 101.373 36.8669C101.228 36.8444 101.132 36.6923 101.157 36.527C101.183 36.3617 101.321 36.2459 101.466 36.2684C101.611 36.2908 101.708 36.443 101.682 36.6083Z" fill="white"/>
<path d="M101.911 37.6605C101.885 37.8257 101.747 37.9415 101.602 37.9191C101.457 37.8966 101.36 37.7445 101.386 37.5792C101.411 37.4139 101.55 37.2981 101.695 37.3206C101.84 37.343 101.936 37.4952 101.911 37.6605Z" fill="white"/>
<path d="M102.231 38.5754C102.206 38.7407 102.067 38.8565 101.922 38.8341C101.777 38.8116 101.681 38.6594 101.706 38.4942C101.732 38.3289 101.87 38.2131 102.015 38.2356C102.16 38.258 102.257 38.4102 102.231 38.5754Z" fill="white"/>
<path d="M102.643 39.5362C102.617 39.7014 102.479 39.8172 102.334 39.7948C102.189 39.7723 102.092 39.6202 102.118 39.4549C102.143 39.2896 102.282 39.1738 102.427 39.1963C102.572 39.2187 102.668 39.3709 102.643 39.5362Z" fill="white"/>
<path d="M103.146 40.4054C103.121 40.5706 102.982 40.6864 102.837 40.664C102.692 40.6416 102.596 40.4894 102.621 40.3241C102.647 40.1588 102.785 40.043 102.93 40.0655C103.075 40.0879 103.172 40.2401 103.146 40.4054Z" fill="white"/>
<path d="M103.741 41.1831C103.715 41.3484 103.577 41.4642 103.432 41.4417C103.287 41.4193 103.19 41.2671 103.216 41.1018C103.241 40.9366 103.38 40.8208 103.525 40.8432C103.67 40.8657 103.766 41.0178 103.741 41.1831Z" fill="white"/>
<path d="M104.473 41.8693C104.447 42.0346 104.309 42.1504 104.164 42.1279C104.019 42.1055 103.922 41.9533 103.948 41.7881C103.973 41.6228 104.112 41.507 104.257 41.5294C104.402 41.5519 104.498 41.704 104.473 41.8693Z" fill="white"/>
<path d="M105.205 42.464C105.179 42.6293 105.041 42.7451 104.896 42.7227C104.751 42.7002 104.654 42.5481 104.68 42.3828C104.705 42.2175 104.844 42.1017 104.989 42.1242C105.134 42.1466 105.23 42.2988 105.205 42.464Z" fill="white"/>
<path d="M106.028 42.9673C106.003 43.1326 105.864 43.2483 105.719 43.2259C105.574 43.2035 105.478 43.0513 105.503 42.886C105.529 42.7207 105.667 42.605 105.812 42.6274C105.957 42.6498 106.054 42.802 106.028 42.9673Z" fill="white"/>
<path d="M106.897 43.3333C106.872 43.4985 106.734 43.6143 106.589 43.5919C106.444 43.5694 106.347 43.4173 106.372 43.252C106.398 43.0867 106.536 42.9709 106.681 42.9934C106.826 43.0158 106.923 43.168 106.897 43.3333Z" fill="white"/>
<path d="M107.812 43.562C107.787 43.7273 107.649 43.8431 107.504 43.8206C107.359 43.7982 107.262 43.646 107.287 43.4807C107.313 43.3155 107.451 43.1997 107.596 43.2221C107.741 43.2446 107.838 43.3967 107.812 43.562Z" fill="white"/>
<path d="M108.773 43.6993C108.748 43.8645 108.609 43.9803 108.464 43.9579C108.319 43.9354 108.223 43.7833 108.248 43.618C108.274 43.4527 108.412 43.3369 108.557 43.3594C108.702 43.3818 108.799 43.534 108.773 43.6993Z" fill="white"/>
<path d="M109.688 43.6993C109.663 43.8645 109.524 43.9803 109.379 43.9579C109.234 43.9354 109.138 43.7833 109.163 43.618C109.189 43.4527 109.327 43.3369 109.472 43.3594C109.617 43.3818 109.714 43.534 109.688 43.6993Z" fill="white"/>
<path d="M110.649 43.6078C110.623 43.773 110.485 43.8888 110.34 43.8664C110.195 43.8439 110.098 43.6918 110.124 43.5265C110.149 43.3612 110.288 43.2454 110.433 43.2679C110.578 43.2903 110.674 43.4425 110.649 43.6078Z" fill="white"/>
<path d="M111.61 43.379C111.584 43.5443 111.446 43.6601 111.301 43.6376C111.156 43.6152 111.059 43.463 111.085 43.2978C111.11 43.1325 111.248 43.0167 111.393 43.0391C111.538 43.0616 111.635 43.2137 111.61 43.379Z" fill="white"/>
<path d="M112.525 43.013C112.499 43.1783 112.361 43.2941 112.216 43.2717C112.071 43.2492 111.974 43.097 112 42.9318C112.025 42.7665 112.163 42.6507 112.308 42.6731C112.453 42.6956 112.55 42.8478 112.525 43.013Z" fill="white"/>
<path d="M113.394 42.5098C113.368 42.6751 113.23 42.7909 113.085 42.7684C112.94 42.746 112.843 42.5938 112.869 42.4285C112.894 42.2633 113.033 42.1475 113.178 42.1699C113.323 42.1924 113.419 42.3445 113.394 42.5098Z" fill="white"/>
<path d="M114.217 41.9151C114.192 42.0803 114.053 42.1961 113.908 42.1737C113.763 42.1512 113.667 41.9991 113.692 41.8338C113.718 41.6685 113.856 41.5527 114.001 41.5752C114.146 41.5976 114.243 41.7498 114.217 41.9151Z" fill="white"/>
<path d="M114.995 41.2288C114.969 41.3941 114.831 41.5099 114.686 41.4875C114.541 41.465 114.444 41.3129 114.47 41.1476C114.496 40.9823 114.634 40.8665 114.779 40.889C114.924 40.9114 115.021 41.0636 114.995 41.2288Z" fill="white"/>
<path d="M115.727 40.4969C115.701 40.6621 115.563 40.7779 115.418 40.7555C115.273 40.733 115.176 40.5809 115.202 40.4156C115.227 40.2503 115.366 40.1345 115.511 40.157C115.656 40.1794 115.753 40.3316 115.727 40.4969Z" fill="white"/>
<path d="M106.829 44.5311C106.829 44.7458 106.655 44.9199 106.441 44.9199C106.226 44.9199 106.052 44.7458 106.052 44.5311C106.052 44.3163 106.226 44.1422 106.441 44.1422C106.655 44.1422 106.829 44.3163 106.829 44.5311Z" fill="white"/>
<path d="M108.11 44.8056C108.11 45.0203 107.936 45.1944 107.722 45.1944C107.507 45.1944 107.333 45.0203 107.333 44.8056C107.333 44.5908 107.507 44.4167 107.722 44.4167C107.936 44.4167 108.11 44.5908 108.11 44.8056Z" fill="white"/>
<path d="M109.391 44.9428C109.391 45.1576 109.217 45.3317 109.002 45.3317C108.788 45.3317 108.614 45.1576 108.614 44.9428C108.614 44.728 108.788 44.5539 109.002 44.5539C109.217 44.5539 109.391 44.728 109.391 44.9428Z" fill="white"/>
<path d="M110.764 44.9428C110.764 45.1576 110.59 45.3317 110.375 45.3317C110.16 45.3317 109.986 45.1576 109.986 44.9428C109.986 44.728 110.16 44.5539 110.375 44.5539C110.59 44.5539 110.764 44.728 110.764 44.9428Z" fill="white"/>
<path d="M112.045 44.8056C112.045 45.0203 111.871 45.1944 111.656 45.1944C111.441 45.1944 111.267 45.0203 111.267 44.8056C111.267 44.5908 111.441 44.4167 111.656 44.4167C111.871 44.4167 112.045 44.5908 112.045 44.8056Z" fill="white"/>
<path d="M113.326 44.5311C113.326 44.7458 113.152 44.9199 112.937 44.9199C112.722 44.9199 112.548 44.7458 112.548 44.5311C112.548 44.3163 112.722 44.1422 112.937 44.1422C113.152 44.1422 113.326 44.3163 113.326 44.5311Z" fill="white"/>
<path d="M114.561 44.0278C114.561 44.2426 114.387 44.4167 114.172 44.4167C113.957 44.4167 113.783 44.2426 113.783 44.0278C113.783 43.8131 113.957 43.639 114.172 43.639C114.387 43.639 114.561 43.8131 114.561 44.0278Z" fill="white"/>
<path d="M115.75 43.4789C115.75 43.6936 115.576 43.8677 115.362 43.8677C115.147 43.8677 114.973 43.6936 114.973 43.4789C114.973 43.2641 115.147 43.09 115.362 43.09C115.576 43.09 115.75 43.2641 115.75 43.4789Z" fill="white"/>
<path d="M116.848 42.7011C116.848 42.9159 116.674 43.09 116.459 43.09C116.245 43.09 116.071 42.9159 116.071 42.7011C116.071 42.4864 116.245 42.3123 116.459 42.3123C116.674 42.3123 116.848 42.4864 116.848 42.7011Z" fill="white"/>
<path d="M117.855 41.9234C117.855 42.1382 117.681 42.3123 117.466 42.3123C117.251 42.3123 117.077 42.1382 117.077 41.9234C117.077 41.7087 117.251 41.5346 117.466 41.5346C117.681 41.5346 117.855 41.7087 117.855 41.9234Z" fill="white"/>
<path d="M118.77 40.917C118.77 41.1317 118.596 41.3058 118.381 41.3058C118.166 41.3058 117.992 41.1317 117.992 40.917C117.992 40.7022 118.166 40.5281 118.381 40.5281C118.596 40.5281 118.77 40.7022 118.77 40.917Z" fill="white"/>
<path d="M119.547 39.8647C119.547 40.0795 119.373 40.2536 119.159 40.2536C118.944 40.2536 118.77 40.0795 118.77 39.8647C118.77 39.65 118.944 39.4759 119.159 39.4759C119.373 39.4759 119.547 39.65 119.547 39.8647Z" fill="white"/>
<path d="M120.188 38.721C120.188 38.9358 120.014 39.1099 119.799 39.1099C119.584 39.1099 119.41 38.9358 119.41 38.721C119.41 38.5063 119.584 38.3322 119.799 38.3322C120.014 38.3322 120.188 38.5063 120.188 38.721Z" fill="white"/>
<path d="M120.737 37.5316C120.737 37.7463 120.563 37.9204 120.348 37.9204C120.133 37.9204 119.959 37.7463 119.959 37.5316C119.959 37.3168 120.133 37.1427 120.348 37.1427C120.563 37.1427 120.737 37.3168 120.737 37.5316Z" fill="white"/>
<path d="M121.103 36.2964C121.103 36.5111 120.929 36.6852 120.714 36.6852C120.499 36.6852 120.325 36.5111 120.325 36.2964C120.325 36.0816 120.499 35.9075 120.714 35.9075C120.929 35.9075 121.103 36.0816 121.103 36.2964Z" fill="white"/>
<path d="M121.332 34.9697C121.332 35.1844 121.158 35.3585 120.943 35.3585C120.728 35.3585 120.554 35.1844 120.554 34.9697C120.554 34.7549 120.728 34.5808 120.943 34.5808C121.158 34.5808 121.332 34.7549 121.332 34.9697Z" fill="white"/>
<path d="M121.332 33.643C121.332 33.8577 121.158 34.0318 120.943 34.0318C120.728 34.0318 120.554 33.8577 120.554 33.643C120.554 33.4282 120.728 33.2541 120.943 33.2541C121.158 33.2541 121.332 33.4282 121.332 33.643Z" fill="white"/>
<path d="M121.332 32.3163C121.332 32.531 121.158 32.7051 120.943 32.7051C120.728 32.7051 120.554 32.531 120.554 32.3163C120.554 32.1015 120.728 31.9274 120.943 31.9274C121.158 31.9274 121.332 32.1015 121.332 32.3163Z" fill="white"/>
<path d="M121.103 31.0811C121.103 31.2958 120.929 31.4699 120.714 31.4699C120.499 31.4699 120.325 31.2958 120.325 31.0811C120.325 30.8663 120.499 30.6922 120.714 30.6922C120.929 30.6922 121.103 30.8663 121.103 31.0811Z" fill="white"/>
<path d="M120.737 29.7543C120.737 29.9691 120.563 30.1432 120.348 30.1432C120.133 30.1432 119.959 29.9691 119.959 29.7543C119.959 29.5396 120.133 29.3655 120.348 29.3655C120.563 29.3655 120.737 29.5396 120.737 29.7543Z" fill="white"/>
<path d="M120.188 28.6106C120.188 28.8254 120.014 28.9995 119.799 28.9995C119.584 28.9995 119.41 28.8254 119.41 28.6106C119.41 28.3959 119.584 28.2218 119.799 28.2218C120.014 28.2218 120.188 28.3959 120.188 28.6106Z" fill="white"/>
<path d="M119.547 27.4669C119.547 27.6817 119.373 27.8558 119.159 27.8558C118.944 27.8558 118.77 27.6817 118.77 27.4669C118.77 27.2522 118.944 27.0781 119.159 27.0781C119.373 27.0781 119.547 27.2522 119.547 27.4669Z" fill="white"/>
<path d="M118.77 26.4605C118.77 26.6752 118.596 26.8493 118.381 26.8493C118.166 26.8493 117.992 26.6752 117.992 26.4605C117.992 26.2457 118.166 26.0716 118.381 26.0716C118.596 26.0716 118.77 26.2457 118.77 26.4605Z" fill="white"/>
<path d="M117.809 25.4083C117.809 25.623 117.635 25.7971 117.42 25.7971C117.205 25.7971 117.031 25.623 117.031 25.4083C117.031 25.1935 117.205 25.0194 117.42 25.0194C117.635 25.0194 117.809 25.1935 117.809 25.4083Z" fill="white"/>
<path d="M116.848 24.6305C116.848 24.8453 116.674 25.0194 116.459 25.0194C116.245 25.0194 116.071 24.8453 116.071 24.6305C116.071 24.4158 116.245 24.2417 116.459 24.2417C116.674 24.2417 116.848 24.4158 116.848 24.6305Z" fill="white"/>
<path d="M115.75 23.8528C115.75 24.0676 115.576 24.2417 115.362 24.2417C115.147 24.2417 114.973 24.0676 114.973 23.8528C114.973 23.638 115.147 23.4639 115.362 23.4639C115.576 23.4639 115.75 23.638 115.75 23.8528Z" fill="white"/>
<path d="M114.607 23.3038C114.607 23.5186 114.433 23.6927 114.218 23.6927C114.003 23.6927 113.829 23.5186 113.829 23.3038C113.829 23.0891 114.003 22.915 114.218 22.915C114.433 22.915 114.607 23.0891 114.607 23.3038Z" fill="white"/>
<path d="M113.326 22.8006C113.326 23.0154 113.152 23.1895 112.937 23.1895C112.722 23.1895 112.548 23.0154 112.548 22.8006C112.548 22.5858 112.722 22.4117 112.937 22.4117C113.152 22.4117 113.326 22.5858 113.326 22.8006Z" fill="white"/>
<path d="M112.09 22.5261C112.09 22.7409 111.916 22.915 111.702 22.915C111.487 22.915 111.313 22.7409 111.313 22.5261C111.313 22.3113 111.487 22.1372 111.702 22.1372C111.916 22.1372 112.09 22.3113 112.09 22.5261Z" fill="white"/>
<path d="M110.718 22.3889C110.718 22.6036 110.544 22.7777 110.329 22.7777C110.114 22.7777 109.94 22.6036 109.94 22.3889C109.94 22.1741 110.114 22 110.329 22C110.544 22 110.718 22.1741 110.718 22.3889Z" fill="white"/>
<path d="M109.483 22.3889C109.483 22.6036 109.309 22.7777 109.094 22.7777C108.879 22.7777 108.705 22.6036 108.705 22.3889C108.705 22.1741 108.879 22 109.094 22C109.309 22 109.483 22.1741 109.483 22.3889Z" fill="white"/>
<path d="M108.11 22.5261C108.11 22.7409 107.936 22.915 107.722 22.915C107.507 22.915 107.333 22.7409 107.333 22.5261C107.333 22.3113 107.507 22.1372 107.722 22.1372C107.936 22.1372 108.11 22.3113 108.11 22.5261Z" fill="white"/>
<path d="M106.829 22.8006C106.829 23.0154 106.655 23.1895 106.441 23.1895C106.226 23.1895 106.052 23.0154 106.052 22.8006C106.052 22.5858 106.226 22.4117 106.441 22.4117C106.655 22.4117 106.829 22.5858 106.829 22.8006Z" fill="white"/>
<path d="M105.64 23.3038C105.64 23.5186 105.466 23.6927 105.251 23.6927C105.036 23.6927 104.862 23.5186 104.862 23.3038C104.862 23.0891 105.036 22.915 105.251 22.915C105.466 22.915 105.64 23.0891 105.64 23.3038Z" fill="white"/>
<path d="M104.405 23.8986C104.405 24.1133 104.231 24.2874 104.016 24.2874C103.801 24.2874 103.627 24.1133 103.627 23.8986C103.627 23.6838 103.801 23.5097 104.016 23.5097C104.231 23.5097 104.405 23.6838 104.405 23.8986Z" fill="white"/>
<path d="M103.307 24.5848C103.307 24.7995 103.133 24.9736 102.918 24.9736C102.703 24.9736 102.529 24.7995 102.529 24.5848C102.529 24.37 102.703 24.1959 102.918 24.1959C103.133 24.1959 103.307 24.37 103.307 24.5848Z" fill="white"/>
<path d="M102.3 25.454C102.3 25.6688 102.126 25.8429 101.911 25.8429C101.697 25.8429 101.523 25.6688 101.523 25.454C101.523 25.2392 101.697 25.0651 101.911 25.0651C102.126 25.0651 102.3 25.2392 102.3 25.454Z" fill="white"/>
<path d="M101.431 26.4147C101.431 26.6295 101.257 26.8036 101.042 26.8036C100.828 26.8036 100.653 26.6295 100.653 26.4147C100.653 26.2 100.828 26.0259 101.042 26.0259C101.257 26.0259 101.431 26.2 101.431 26.4147Z" fill="white"/>
<path d="M100.653 27.4669C100.653 27.6817 100.479 27.8558 100.265 27.8558C100.05 27.8558 99.8757 27.6817 99.8757 27.4669C99.8757 27.2522 100.05 27.0781 100.265 27.0781C100.479 27.0781 100.653 27.2522 100.653 27.4669Z" fill="white"/>
<path d="M99.9672 28.6106C99.9672 28.8254 99.7931 28.9995 99.5783 28.9995C99.3636 28.9995 99.1895 28.8254 99.1895 28.6106C99.1895 28.3959 99.3636 28.2218 99.5783 28.2218C99.7931 28.2218 99.9672 28.3959 99.9672 28.6106Z" fill="white"/>
<path d="M99.4182 29.8001C99.4182 30.0149 99.2441 30.189 99.0293 30.189C98.8146 30.189 98.6405 30.0149 98.6405 29.8001C98.6405 29.5853 98.8146 29.4112 99.0293 29.4112C99.2441 29.4112 99.4182 29.5853 99.4182 29.8001Z" fill="white"/>
<path d="M99.0522 31.0353C99.0522 31.2501 98.8781 31.4242 98.6634 31.4242C98.4486 31.4242 98.2745 31.2501 98.2745 31.0353C98.2745 30.8205 98.4486 30.6464 98.6634 30.6464C98.8781 30.6464 99.0522 30.8205 99.0522 31.0353Z" fill="white"/>
<path d="M98.8692 32.4078C98.8692 32.6225 98.6951 32.7966 98.4804 32.7966C98.2656 32.7966 98.0915 32.6225 98.0915 32.4078C98.0915 32.193 98.2656 32.0189 98.4804 32.0189C98.6951 32.0189 98.8692 32.193 98.8692 32.4078Z" fill="white"/>
<path d="M98.7777 33.7345C98.7777 33.9492 98.6036 34.1233 98.3889 34.1233C98.1741 34.1233 98 33.9492 98 33.7345C98 33.5197 98.1741 33.3456 98.3889 33.3456C98.6036 33.3456 98.7777 33.5197 98.7777 33.7345Z" fill="white"/>
<path d="M98.8692 34.9697C98.8692 35.1844 98.6951 35.3585 98.4804 35.3585C98.2656 35.3585 98.0915 35.1844 98.0915 34.9697C98.0915 34.7549 98.2656 34.5808 98.4804 34.5808C98.6951 34.5808 98.8692 34.7549 98.8692 34.9697Z" fill="white"/>
<path d="M99.0522 36.2964C99.0522 36.5111 98.8781 36.6852 98.6634 36.6852C98.4486 36.6852 98.2745 36.5111 98.2745 36.2964C98.2745 36.0816 98.4486 35.9075 98.6634 35.9075C98.8781 35.9075 99.0522 36.0816 99.0522 36.2964Z" fill="white"/>
<path d="M99.4639 37.5316C99.4639 37.7463 99.2898 37.9204 99.0751 37.9204C98.8603 37.9204 98.6862 37.7463 98.6862 37.5316C98.6862 37.3168 98.8603 37.1427 99.0751 37.1427C99.2898 37.1427 99.4639 37.3168 99.4639 37.5316Z" fill="white"/>
<path d="M99.9672 38.721C99.9672 38.9358 99.7931 39.1099 99.5783 39.1099C99.3636 39.1099 99.1895 38.9358 99.1895 38.721C99.1895 38.5063 99.3636 38.3322 99.5783 38.3322C99.7931 38.3322 99.9672 38.5063 99.9672 38.721Z" fill="white"/>
<path d="M100.653 39.8647C100.653 40.0795 100.479 40.2536 100.265 40.2536C100.05 40.2536 99.8757 40.0795 99.8757 39.8647C99.8757 39.65 100.05 39.4759 100.265 39.4759C100.479 39.4759 100.653 39.65 100.653 39.8647Z" fill="white"/>
<path d="M101.431 40.917C101.431 41.1317 101.257 41.3058 101.042 41.3058C100.828 41.3058 100.653 41.1317 100.653 40.917C100.653 40.7022 100.828 40.5281 101.042 40.5281C101.257 40.5281 101.431 40.7022 101.431 40.917Z" fill="white"/>
<path d="M102.346 41.9234C102.346 42.1382 102.172 42.3123 101.957 42.3123C101.742 42.3123 101.568 42.1382 101.568 41.9234C101.568 41.7087 101.742 41.5346 101.957 41.5346C102.172 41.5346 102.346 41.7087 102.346 41.9234Z" fill="white"/>
<path d="M103.307 42.7011C103.307 42.9159 103.133 43.09 102.918 43.09C102.703 43.09 102.529 42.9159 102.529 42.7011C102.529 42.4864 102.703 42.3123 102.918 42.3123C103.133 42.3123 103.307 42.4864 103.307 42.7011Z" fill="white"/>
<path d="M104.405 43.4789C104.405 43.6936 104.231 43.8677 104.016 43.8677C103.801 43.8677 103.627 43.6936 103.627 43.4789C103.627 43.2641 103.801 43.09 104.016 43.09C104.231 43.09 104.405 43.2641 104.405 43.4789Z" fill="white"/>
<path d="M105.64 44.0278C105.64 44.2426 105.466 44.4167 105.251 44.4167C105.036 44.4167 104.862 44.2426 104.862 44.0278C104.862 43.8131 105.036 43.639 105.251 43.639C105.466 43.639 105.64 43.8131 105.64 44.0278Z" fill="white"/>
<path d="M104.542 32.4993C104.542 32.613 104.45 32.7051 104.336 32.7051C104.222 32.7051 104.13 32.613 104.13 32.4993C104.13 32.3856 104.222 32.2934 104.336 32.2934C104.45 32.2934 104.542 32.3856 104.542 32.4993Z" fill="white"/>
<path d="M104.817 31.8588C104.817 31.9725 104.724 32.0646 104.611 32.0646C104.497 32.0646 104.405 31.9725 104.405 31.8588C104.405 31.7451 104.497 31.6529 104.611 31.6529C104.724 31.6529 104.817 31.7451 104.817 31.8588Z" fill="white"/>
<path d="M105.228 31.264C105.228 31.3777 105.136 31.4699 105.022 31.4699C104.909 31.4699 104.817 31.3777 104.817 31.264C104.817 31.1503 104.909 31.0582 105.022 31.0582C105.136 31.0582 105.228 31.1503 105.228 31.264Z" fill="white"/>
<path d="M105.64 30.7151C105.64 30.8288 105.548 30.9209 105.434 30.9209C105.32 30.9209 105.228 30.8288 105.228 30.7151C105.228 30.6014 105.32 30.5092 105.434 30.5092C105.548 30.5092 105.64 30.6014 105.64 30.7151Z" fill="white"/>
<path d="M106.143 30.2576C106.143 30.3713 106.051 30.4634 105.937 30.4634C105.824 30.4634 105.731 30.3713 105.731 30.2576C105.731 30.1439 105.824 30.0517 105.937 30.0517C106.051 30.0517 106.143 30.1439 106.143 30.2576Z" fill="white"/>
<path d="M106.692 29.8458C106.692 29.9595 106.6 30.0517 106.486 30.0517C106.373 30.0517 106.28 29.9595 106.28 29.8458C106.28 29.7321 106.373 29.64 106.486 29.64C106.6 29.64 106.692 29.7321 106.692 29.8458Z" fill="white"/>
<path d="M107.333 29.4799C107.333 29.5936 107.24 29.6857 107.127 29.6857C107.013 29.6857 106.921 29.5936 106.921 29.4799C106.921 29.3662 107.013 29.274 107.127 29.274C107.24 29.274 107.333 29.3662 107.333 29.4799Z" fill="white"/>
<path d="M107.973 29.2511C107.973 29.3648 107.881 29.457 107.767 29.457C107.654 29.457 107.561 29.3648 107.561 29.2511C107.561 29.1374 107.654 29.0452 107.767 29.0452C107.881 29.0452 107.973 29.1374 107.973 29.2511Z" fill="white"/>
<path d="M108.614 29.0681C108.614 29.1818 108.521 29.274 108.408 29.274C108.294 29.274 108.202 29.1818 108.202 29.0681C108.202 28.9544 108.294 28.8623 108.408 28.8623C108.521 28.8623 108.614 28.9544 108.614 29.0681Z" fill="white"/>
<path d="M109.346 28.9766C109.346 29.0903 109.253 29.1825 109.14 29.1825C109.026 29.1825 108.934 29.0903 108.934 28.9766C108.934 28.8629 109.026 28.7708 109.14 28.7708C109.253 28.7708 109.346 28.8629 109.346 28.9766Z" fill="white"/>
<path d="M110.032 28.9309C110.032 29.0446 109.94 29.1367 109.826 29.1367C109.712 29.1367 109.62 29.0446 109.62 28.9309C109.62 28.8172 109.712 28.725 109.826 28.725C109.94 28.725 110.032 28.8172 110.032 28.9309Z" fill="white"/>
<path d="M110.718 29.0224C110.718 29.1361 110.626 29.2282 110.512 29.2282C110.398 29.2282 110.306 29.1361 110.306 29.0224C110.306 28.9087 110.398 28.8165 110.512 28.8165C110.626 28.8165 110.718 28.9087 110.718 29.0224Z" fill="white"/>
<path d="M111.404 29.1596C111.404 29.2733 111.312 29.3655 111.198 29.3655C111.085 29.3655 110.993 29.2733 110.993 29.1596C110.993 29.0459 111.085 28.9538 111.198 28.9538C111.312 28.9538 111.404 29.0459 111.404 29.1596Z" fill="white"/>
<path d="M112.09 29.3884C112.09 29.5021 111.998 29.5942 111.885 29.5942C111.771 29.5942 111.679 29.5021 111.679 29.3884C111.679 29.2747 111.771 29.1825 111.885 29.1825C111.998 29.1825 112.09 29.2747 112.09 29.3884Z" fill="white"/>
<path d="M112.731 29.7543C112.731 29.868 112.639 29.9602 112.525 29.9602C112.411 29.9602 112.319 29.868 112.319 29.7543C112.319 29.6407 112.411 29.5485 112.525 29.5485C112.639 29.5485 112.731 29.6407 112.731 29.7543Z" fill="white"/>
<path d="M113.326 30.1203C113.326 30.234 113.234 30.3262 113.12 30.3262C113.006 30.3262 112.914 30.234 112.914 30.1203C112.914 30.0066 113.006 29.9145 113.12 29.9145C113.234 29.9145 113.326 30.0066 113.326 30.1203Z" fill="white"/>
<path d="M113.92 30.5778C113.92 30.6915 113.828 30.7837 113.715 30.7837C113.601 30.7837 113.509 30.6915 113.509 30.5778C113.509 30.4641 113.601 30.372 113.715 30.372C113.828 30.372 113.92 30.4641 113.92 30.5778Z" fill="white"/>
<path d="M114.424 31.0811C114.424 31.1947 114.331 31.2869 114.218 31.2869C114.104 31.2869 114.012 31.1947 114.012 31.0811C114.012 30.9674 114.104 30.8752 114.218 30.8752C114.331 30.8752 114.424 30.9674 114.424 31.0811Z" fill="white"/>
<path d="M114.881 31.6758C114.881 31.7895 114.789 31.8816 114.675 31.8816C114.562 31.8816 114.469 31.7895 114.469 31.6758C114.469 31.5621 114.562 31.4699 114.675 31.4699C114.789 31.4699 114.881 31.5621 114.881 31.6758Z" fill="white"/>
<path d="M115.293 32.3163C115.293 32.43 115.201 32.5221 115.087 32.5221C114.973 32.5221 114.881 32.43 114.881 32.3163C114.881 32.2026 114.973 32.1104 115.087 32.1104C115.201 32.1104 115.293 32.2026 115.293 32.3163Z" fill="white"/>
<path d="M115.613 32.9567C115.613 33.0704 115.521 33.1626 115.407 33.1626C115.294 33.1626 115.201 33.0704 115.201 32.9567C115.201 32.843 115.294 32.7509 115.407 32.7509C115.521 32.7509 115.613 32.843 115.613 32.9567Z" fill="white"/>
<path d="M115.842 33.643C115.842 33.7567 115.75 33.8488 115.636 33.8488C115.522 33.8488 115.43 33.7567 115.43 33.643C115.43 33.5293 115.522 33.4371 115.636 33.4371C115.75 33.4371 115.842 33.5293 115.842 33.643Z" fill="white"/>
<path d="M116.025 34.3749C116.025 34.4886 115.933 34.5808 115.819 34.5808C115.705 34.5808 115.613 34.4886 115.613 34.3749C115.613 34.2612 115.705 34.1691 115.819 34.1691C115.933 34.1691 116.025 34.2612 116.025 34.3749Z" fill="white"/>
<path d="M116.116 35.1069C116.116 35.2206 116.024 35.3128 115.91 35.3128C115.797 35.3128 115.705 35.2206 115.705 35.1069C115.705 34.9932 115.797 34.901 115.91 34.901C116.024 34.901 116.116 34.9932 116.116 35.1069Z" fill="white"/>
<path d="M116.116 35.8389C116.116 35.9526 116.024 36.0448 115.91 36.0448C115.797 36.0448 115.705 35.9526 115.705 35.8389C115.705 35.7252 115.797 35.633 115.91 35.633C116.024 35.633 116.116 35.7252 116.116 35.8389Z" fill="white"/>
<path d="M116.071 36.5709C116.071 36.6846 115.978 36.7767 115.865 36.7767C115.751 36.7767 115.659 36.6846 115.659 36.5709C115.659 36.4572 115.751 36.365 115.865 36.365C115.978 36.365 116.071 36.4572 116.071 36.5709Z" fill="white"/>
<path d="M115.888 37.2571C115.888 37.3708 115.795 37.463 115.682 37.463C115.568 37.463 115.476 37.3708 115.476 37.2571C115.476 37.1434 115.568 37.0512 115.682 37.0512C115.795 37.0512 115.888 37.1434 115.888 37.2571Z" fill="white"/>
<path d="M115.659 37.9433C115.659 38.057 115.567 38.1492 115.453 38.1492C115.339 38.1492 115.247 38.057 115.247 37.9433C115.247 37.8296 115.339 37.7374 115.453 37.7374C115.567 37.7374 115.659 37.8296 115.659 37.9433Z" fill="white"/>
<path d="M115.339 38.5838C115.339 38.6975 115.246 38.7897 115.133 38.7897C115.019 38.7897 114.927 38.6975 114.927 38.5838C114.927 38.4701 115.019 38.3779 115.133 38.3779C115.246 38.3779 115.339 38.4701 115.339 38.5838Z" fill="white"/>
<path d="M114.973 39.1785C114.973 39.2922 114.88 39.3844 114.767 39.3844C114.653 39.3844 114.561 39.2922 114.561 39.1785C114.561 39.0648 114.653 38.9726 114.767 38.9726C114.88 38.9726 114.973 39.0648 114.973 39.1785Z" fill="white"/>
<path d="M114.561 39.7275C114.561 39.8412 114.469 39.9334 114.355 39.9334C114.241 39.9334 114.149 39.8412 114.149 39.7275C114.149 39.6138 114.241 39.5216 114.355 39.5216C114.469 39.5216 114.561 39.6138 114.561 39.7275Z" fill="white"/>
<path d="M114.058 40.185C114.058 40.2987 113.966 40.3908 113.852 40.3908C113.738 40.3908 113.646 40.2987 113.646 40.185C113.646 40.0713 113.738 39.9791 113.852 39.9791C113.966 39.9791 114.058 40.0713 114.058 40.185Z" fill="white"/>
<path d="M113.509 40.5967C113.509 40.7104 113.417 40.8026 113.303 40.8026C113.189 40.8026 113.097 40.7104 113.097 40.5967C113.097 40.483 113.189 40.3908 113.303 40.3908C113.417 40.3908 113.509 40.483 113.509 40.5967Z" fill="white"/>
<path d="M112.868 40.9627C112.868 41.0764 112.776 41.1686 112.662 41.1686C112.549 41.1686 112.456 41.0764 112.456 40.9627C112.456 40.849 112.549 40.7568 112.662 40.7568C112.776 40.7568 112.868 40.849 112.868 40.9627Z" fill="white"/>
<path d="M112.228 41.1914C112.228 41.3051 112.136 41.3973 112.022 41.3973C111.908 41.3973 111.816 41.3051 111.816 41.1914C111.816 41.0777 111.908 40.9856 112.022 40.9856C112.136 40.9856 112.228 41.0777 112.228 41.1914Z" fill="white"/>
<path d="M111.587 41.3744C111.587 41.4881 111.495 41.5803 111.381 41.5803C111.268 41.5803 111.176 41.4881 111.176 41.3744C111.176 41.2607 111.268 41.1686 111.381 41.1686C111.495 41.1686 111.587 41.2607 111.587 41.3744Z" fill="white"/>
<path d="M110.169 41.5117C110.169 41.6254 110.077 41.7175 109.963 41.7175C109.85 41.7175 109.757 41.6254 109.757 41.5117C109.757 41.398 109.85 41.3058 109.963 41.3058C110.077 41.3058 110.169 41.398 110.169 41.5117Z" fill="white"/>
<path d="M109.483 41.4202C109.483 41.5339 109.391 41.6261 109.277 41.6261C109.163 41.6261 109.071 41.5339 109.071 41.4202C109.071 41.3065 109.163 41.2143 109.277 41.2143C109.391 41.2143 109.483 41.3065 109.483 41.4202Z" fill="white"/>
<path d="M108.797 41.2829C108.797 41.3966 108.704 41.4888 108.591 41.4888C108.477 41.4888 108.385 41.3966 108.385 41.2829C108.385 41.1692 108.477 41.0771 108.591 41.0771C108.704 41.0771 108.797 41.1692 108.797 41.2829Z" fill="white"/>
<path d="M108.11 41.0084C108.11 41.1221 108.018 41.2143 107.905 41.2143C107.791 41.2143 107.699 41.1221 107.699 41.0084C107.699 40.8948 107.791 40.8026 107.905 40.8026C108.018 40.8026 108.11 40.8948 108.11 41.0084Z" fill="white"/>
<path d="M107.47 40.6882C107.47 40.8019 107.378 40.8941 107.264 40.8941C107.15 40.8941 107.058 40.8019 107.058 40.6882C107.058 40.5745 107.15 40.4823 107.264 40.4823C107.378 40.4823 107.47 40.5745 107.47 40.6882Z" fill="white"/>
<path d="M106.829 40.3222C106.829 40.4359 106.737 40.5281 106.624 40.5281C106.51 40.5281 106.418 40.4359 106.418 40.3222C106.418 40.2085 106.51 40.1164 106.624 40.1164C106.737 40.1164 106.829 40.2085 106.829 40.3222Z" fill="white"/>
<path d="M106.28 39.8647C106.28 39.9784 106.188 40.0706 106.075 40.0706C105.961 40.0706 105.869 39.9784 105.869 39.8647C105.869 39.751 105.961 39.6589 106.075 39.6589C106.188 39.6589 106.28 39.751 106.28 39.8647Z" fill="white"/>
<path d="M105.777 39.3158C105.777 39.4295 105.685 39.5216 105.571 39.5216C105.458 39.5216 105.365 39.4295 105.365 39.3158C105.365 39.2021 105.458 39.1099 105.571 39.1099C105.685 39.1099 105.777 39.2021 105.777 39.3158Z" fill="white"/>
<path d="M105.32 38.7668C105.32 38.8805 105.228 38.9726 105.114 38.9726C105 38.9726 104.908 38.8805 104.908 38.7668C104.908 38.6531 105 38.5609 105.114 38.5609C105.228 38.5609 105.32 38.6531 105.32 38.7668Z" fill="white"/>
<path d="M104.908 38.1263C104.908 38.24 104.816 38.3322 104.702 38.3322C104.588 38.3322 104.496 38.24 104.496 38.1263C104.496 38.0126 104.588 37.9204 104.702 37.9204C104.816 37.9204 104.908 38.0126 104.908 38.1263Z" fill="white"/>
<path d="M104.588 37.4401C104.588 37.5538 104.496 37.6459 104.382 37.6459C104.268 37.6459 104.176 37.5538 104.176 37.4401C104.176 37.3264 104.268 37.2342 104.382 37.2342C104.496 37.2342 104.588 37.3264 104.588 37.4401Z" fill="white"/>
<path d="M104.359 36.7539C104.359 36.8675 104.267 36.9597 104.153 36.9597C104.039 36.9597 103.947 36.8675 103.947 36.7539C103.947 36.6402 104.039 36.548 104.153 36.548C104.267 36.548 104.359 36.6402 104.359 36.7539Z" fill="white"/>
<path d="M104.176 36.0219C104.176 36.1356 104.084 36.2277 103.97 36.2277C103.856 36.2277 103.764 36.1356 103.764 36.0219C103.764 35.9082 103.856 35.816 103.97 35.816C104.084 35.816 104.176 35.9082 104.176 36.0219Z" fill="white"/>
<path d="M104.085 35.3357C104.085 35.4493 103.992 35.5415 103.879 35.5415C103.765 35.5415 103.673 35.4493 103.673 35.3357C103.673 35.222 103.765 35.1298 103.879 35.1298C103.992 35.1298 104.085 35.222 104.085 35.3357Z" fill="white"/>
<path d="M104.085 34.6037C104.085 34.7174 103.992 34.8095 103.879 34.8095C103.765 34.8095 103.673 34.7174 103.673 34.6037C103.673 34.49 103.765 34.3978 103.879 34.3978C103.992 34.3978 104.085 34.49 104.085 34.6037Z" fill="white"/>
<path d="M104.13 33.8717C104.13 33.9854 104.038 34.0776 103.924 34.0776C103.811 34.0776 103.719 33.9854 103.719 33.8717C103.719 33.758 103.811 33.6658 103.924 33.6658C104.038 33.6658 104.13 33.758 104.13 33.8717Z" fill="white"/>
<path d="M104.313 33.1397C104.313 33.2534 104.221 33.3456 104.107 33.3456C103.994 33.3456 103.902 33.2534 103.902 33.1397C103.902 33.026 103.994 32.9339 104.107 32.9339C104.221 32.9339 104.313 33.026 104.313 33.1397Z" fill="white"/>
<path d="M110.901 41.4659C110.901 41.5796 110.809 41.6718 110.695 41.6718C110.581 41.6718 110.489 41.5796 110.489 41.4659C110.489 41.3522 110.581 41.2601 110.695 41.2601C110.809 41.2601 110.901 41.3522 110.901 41.4659Z" fill="white"/>
<path d="M43.4839 76.4659C44.7263 76.4659 45.7418 76.7222 46.5306 77.235C47.3194 77.7477 47.7138 78.428 47.7138 79.276C47.7138 80.1239 47.3589 80.9719 46.6489 81.8198C45.9587 82.6678 45.0516 83.3777 43.9276 83.9496C42.8233 84.5215 41.6894 84.837 40.5259 84.8961L40.1118 84.1271C41.1372 83.8707 42.0049 83.3678 42.7148 82.6185C43.4445 81.8494 43.8093 81.0606 43.8093 80.2521C43.8093 79.6211 43.6121 79.1182 43.2177 78.7435C42.843 78.3689 42.3303 78.1815 41.6795 78.1815C40.5358 78.1815 39.5005 78.6252 38.5736 79.5126C37.6665 80.3803 36.9468 81.5832 36.4143 83.1213C35.9016 84.6398 35.6452 86.3554 35.6452 88.2682C35.6452 90.536 36.0002 92.3305 36.7101 93.6518C37.4398 94.973 38.4652 95.6336 39.7864 95.6336C40.5949 95.6336 41.3739 95.328 42.1232 94.7166C42.8726 94.0856 43.4839 93.2672 43.9572 92.2615C44.4305 91.2558 44.677 90.2205 44.6967 89.1556L48.3942 88.002V100.041L44.7854 101.254V92.7644H44.6079C44.1149 94.48 43.2768 95.8308 42.0936 96.8168C40.9105 97.7831 39.5695 98.2662 38.0708 98.2662C36.789 98.2662 35.6551 97.9408 34.6691 97.2901C33.7028 96.6196 32.9436 95.6928 32.3915 94.5096C31.859 93.3067 31.5928 91.9361 31.5928 90.398C31.5928 87.8344 32.1154 85.4976 33.1605 83.3876C34.2254 81.2578 35.665 79.5718 37.4792 78.3294C39.2934 77.0871 41.295 76.4659 43.4839 76.4659ZM65.1086 95.2491C65.1086 95.5449 65.1776 95.7914 65.3157 95.9886C65.4537 96.1661 65.6509 96.2548 65.9073 96.2548C66.3017 96.2548 66.7848 95.9196 67.3567 95.2491L67.8595 95.7815C67.3665 96.7872 66.7552 97.4478 66.0256 97.7634C65.2959 98.0592 64.7438 98.2071 64.3691 98.2071C63.6395 98.2071 63.0775 98.0394 62.6831 97.7042C62.3084 97.369 62.0323 96.8168 61.8548 96.0477C61.6971 95.2589 61.6182 94.1546 61.6182 92.7348V91.8474L61.4999 89.8064H61.3815C60.9083 91.9164 60.1984 93.8687 59.2518 95.6632C58.325 97.4577 57.1023 98.355 55.5839 98.355C54.9134 98.355 54.4106 98.1972 54.0753 97.8817C53.7598 97.5464 53.5527 97.1027 53.4541 96.5506C53.3753 95.9984 53.3358 95.2392 53.3358 94.2729V86.0497C53.3358 85.7145 53.2668 85.4582 53.1288 85.2807C52.9907 85.0835 52.8034 84.9849 52.5668 84.9849C52.0935 84.9849 51.5906 85.3398 51.0582 86.0497L50.5553 85.4877C50.8906 84.7581 51.3145 84.2059 51.8273 83.8313C52.34 83.4566 52.7837 83.2199 53.1584 83.1213C53.5527 83.0227 53.8091 82.9734 53.9274 82.9734C54.9923 82.9734 55.7515 83.2692 56.2051 83.8608C56.6586 84.4327 56.8854 85.1624 56.8854 86.0497V93.9476C56.8854 94.3025 56.9248 94.5786 57.0037 94.7758C57.1023 94.973 57.2206 95.0716 57.3587 95.0716C58.0686 95.0716 58.7292 94.3617 59.3405 92.9418C59.9519 91.5023 60.4448 89.8754 60.8195 88.0612C61.1942 86.2272 61.3815 84.8961 61.3815 84.0679L65.1086 82.8255V95.2491ZM73.3133 80.1042L71.4498 80.6958L70.237 74.5136L74.3486 73.1234L73.3133 80.1042ZM74.2599 95.2787C74.2599 95.5745 74.3289 95.8111 74.4669 95.9886C74.605 96.1661 74.7923 96.2548 75.0289 96.2548C75.5219 96.2548 76.0248 95.9097 76.5375 95.2195L77.0699 95.7815C76.6361 96.5703 76.0741 97.1718 75.3839 97.5859C74.7134 98 74.0429 98.2071 73.3725 98.2071C71.578 98.2071 70.6807 97.1718 70.6807 95.1012V84.4524L74.2599 83.2101V95.2787ZM91.9345 95.1603C91.9345 95.4364 91.9937 95.6829 92.112 95.8998C92.25 96.097 92.4472 96.1956 92.7036 96.1956C92.9599 96.1956 93.2163 96.0872 93.4727 95.8703C93.7487 95.6533 93.9558 95.4167 94.0938 95.1603L94.7446 95.7224C94.3896 96.4125 93.8966 97.0041 93.2656 97.4971C92.6543 97.9704 91.9937 98.2071 91.2837 98.2071C90.2583 98.2071 89.5188 97.931 89.0653 97.3788C88.6117 96.8069 88.3948 95.9393 88.4145 94.7758H88.2666C87.813 95.8012 87.2215 96.659 86.4918 97.3492C85.7622 98.0197 84.8846 98.355 83.8592 98.355C82.7746 98.355 81.8478 98.0789 81.0787 97.5267C80.3096 96.9746 79.7279 96.2351 79.3335 95.3082C78.9391 94.3617 78.7419 93.3165 78.7419 92.1728C78.7419 90.7135 79.0377 89.2838 79.6293 87.8837C80.2406 86.4639 81.1181 85.3004 82.2619 84.3933C83.4057 83.4862 84.7367 83.0326 86.2552 83.0326C87.0243 83.0326 87.7243 83.2199 88.3553 83.5946V71.9106L91.9345 70.6682V95.1603ZM86.196 84.9257C85.2495 84.9257 84.4607 85.2511 83.8296 85.9018C83.2183 86.5329 82.7648 87.3217 82.469 88.2682C82.1732 89.1951 82.0253 90.112 82.0253 91.0192C82.0253 92.2418 82.2619 93.4053 82.7352 94.5096C83.2282 95.6139 83.9973 96.1661 85.0424 96.1661C86.3045 96.1661 87.1722 95.5252 87.6454 94.2434C88.1187 92.9418 88.3553 91.5319 88.3553 90.0134V85.9018C87.7046 85.2511 86.9848 84.9257 86.196 84.9257ZM105 82.9439C106.144 82.9439 107.1 83.2397 107.869 83.8313C108.638 84.4031 109.023 85.2412 109.023 86.3455C109.023 87.2329 108.54 88.2288 107.573 89.3331C106.627 90.4177 105.493 91.4333 104.172 92.3798C102.87 93.3067 101.756 93.9771 100.829 94.3913C101.657 95.7125 102.87 96.3731 104.468 96.3731C105.355 96.3731 106.242 96.1266 107.13 95.6336C108.037 95.1209 108.806 94.4504 109.437 93.6222L110.029 94.3321C109.003 95.6139 107.919 96.6097 106.775 97.3197C105.651 98.0099 104.31 98.355 102.752 98.355C101.49 98.355 100.356 98.069 99.3503 97.4971C98.3643 96.9253 97.5853 96.1463 97.0135 95.1603C96.4613 94.1546 96.1852 93.0306 96.1852 91.7882C96.1852 90.2895 96.5895 88.8598 97.398 87.4992C98.2262 86.1188 99.3207 85.0145 100.681 84.1862C102.042 83.358 103.482 82.9439 105 82.9439ZM103.314 84.8666C102.565 84.8666 101.894 85.1426 101.303 85.6948C100.711 86.2272 100.248 86.9174 99.9123 87.7654C99.577 88.6133 99.4094 89.4909 99.4094 90.398C99.4094 91.5812 99.6658 92.5968 100.178 93.4447C100.908 93.0306 101.677 92.4587 102.486 91.7291C103.314 90.9797 104.004 90.1811 104.556 89.3331C105.108 88.4852 105.385 87.7161 105.385 87.0259C105.385 86.3357 105.197 85.8032 104.823 85.4286C104.468 85.0539 103.965 84.8666 103.314 84.8666ZM132.668 76.525C131.978 77.511 131.071 78.3294 129.947 78.9802C128.823 79.6309 127.689 79.9563 126.545 79.9563C126.171 80.4296 125.894 80.8831 125.717 81.317C125.559 81.7508 125.48 82.2537 125.48 82.8255V92.3798C125.48 93.7997 125.165 94.9927 124.534 95.959C123.922 96.9253 122.966 97.8127 121.665 98.6212L121.043 97.9113C121.556 97.2605 121.812 96.3041 121.812 95.042V84.5412C121.812 83.7129 122.069 82.9143 122.582 82.1452C123.114 81.3564 123.765 80.6268 124.534 79.9563L120.6 79.9267C119.929 79.9267 119.318 80.0746 118.766 80.3704C118.214 80.6662 117.691 81.1198 117.198 81.7311L116.547 81.1099C117.474 79.8873 118.421 78.921 119.387 78.2111C120.373 77.5012 121.487 77.1462 122.729 77.1462H127.107C128.054 77.1462 129.01 77.0673 129.976 76.9096C130.943 76.7321 131.672 76.4264 132.165 75.9926L132.668 76.525ZM134.755 80.1042L132.891 80.6958L131.679 74.5136L135.79 73.1234L134.755 80.1042ZM135.702 95.2787C135.702 95.5745 135.771 95.8111 135.909 95.9886C136.047 96.1661 136.234 96.2548 136.471 96.2548C136.964 96.2548 137.466 95.9097 137.979 95.2195L138.512 95.7815C138.078 96.5703 137.516 97.1718 136.826 97.5859C136.155 98 135.485 98.2071 134.814 98.2071C133.02 98.2071 132.122 97.1718 132.122 95.1012V84.4524L135.702 83.2101V95.2787ZM145.094 85.1624V95.2787C145.094 95.5547 145.173 95.7914 145.33 95.9886C145.488 96.1661 145.695 96.2548 145.952 96.2548C146.425 96.2548 146.957 95.9097 147.549 95.2195L148.081 95.7815C147.726 96.4914 147.283 97.0239 146.75 97.3788C146.218 97.7338 145.705 97.9704 145.212 98.0887C144.719 98.2071 144.473 98.2465 144.473 98.2071C142.501 98.2071 141.515 97.1718 141.515 95.1012V85.1624H139.415L140.331 83.2101H141.515V76.4955L145.094 75.2827V83.2101H148.969L148.081 85.1624H145.094ZM155.113 95.2787C155.113 95.535 155.172 95.7618 155.291 95.959C155.429 96.1562 155.636 96.2548 155.912 96.2548C156.188 96.2548 156.464 96.1463 156.74 95.9294C157.036 95.7125 157.273 95.4759 157.45 95.2195L157.983 95.7815C157.647 96.452 157.154 97.0239 156.504 97.4971C155.873 97.9704 155.192 98.2071 154.463 98.2071C152.55 98.2071 151.593 97.1718 151.593 95.1012V71.9106L155.113 70.6387V95.2787ZM168.319 82.9439C169.463 82.9439 170.42 83.2397 171.189 83.8313C171.958 84.4031 172.342 85.2412 172.342 86.3455C172.342 87.2329 171.859 88.2288 170.893 89.3331C169.946 90.4177 168.812 91.4333 167.491 92.3798C166.19 93.3067 165.075 93.9771 164.149 94.3913C164.977 95.7125 166.19 96.3731 167.787 96.3731C168.674 96.3731 169.562 96.1266 170.449 95.6336C171.356 95.1209 172.125 94.4504 172.756 93.6222L173.348 94.3321C172.322 95.6139 171.238 96.6097 170.094 97.3197C168.97 98.0099 167.629 98.355 166.071 98.355C164.809 98.355 163.675 98.069 162.67 97.4971C161.684 96.9253 160.905 96.1463 160.333 95.1603C159.781 94.1546 159.505 93.0306 159.505 91.7882C159.505 90.2895 159.909 88.8598 160.717 87.4992C161.546 86.1188 162.64 85.0145 164.001 84.1862C165.361 83.358 166.801 82.9439 168.319 82.9439ZM166.633 84.8666C165.884 84.8666 165.213 85.1426 164.622 85.6948C164.03 86.2272 163.567 86.9174 163.232 87.7654C162.896 88.6133 162.729 89.4909 162.729 90.398C162.729 91.5812 162.985 92.5968 163.498 93.4447C164.227 93.0306 164.997 92.4587 165.805 91.7291C166.633 90.9797 167.323 90.1811 167.876 89.3331C168.428 88.4852 168.704 87.7161 168.704 87.0259C168.704 86.3357 168.517 85.8032 168.142 85.4286C167.787 85.0539 167.284 84.8666 166.633 84.8666ZM180.627 80.5775L187.756 76.7617V97.4971L184.059 98.6803V80.2817L181.278 81.7903L180.627 80.5775Z" fill="white"/>
<path d="M79.9779 126.482C79.9201 126.305 79.8439 126.147 79.7494 126.007C79.6566 125.865 79.5455 125.744 79.4159 125.644C79.2881 125.545 79.1428 125.469 78.98 125.416C78.8172 125.364 78.6386 125.337 78.4443 125.337C78.1256 125.337 77.8359 125.42 77.575 125.584C77.3142 125.749 77.1067 125.991 76.9527 126.312C76.7986 126.632 76.7216 127.025 76.7216 127.491C76.7216 127.956 76.7995 128.349 76.9553 128.67C77.1111 128.99 77.3221 129.233 77.5882 129.397C77.8543 129.562 78.1536 129.644 78.4863 129.644C78.7944 129.644 79.0658 129.578 79.3004 129.447C79.5367 129.314 79.7205 129.127 79.8518 128.885C79.9849 128.642 80.0514 128.355 80.0514 128.026L80.251 128.068H78.6333V127.491H80.6817V128.068C80.6817 128.511 80.5871 128.896 80.398 129.224C80.2107 129.551 79.9516 129.805 79.6207 129.985C79.2916 130.164 78.9134 130.253 78.4863 130.253C78.0101 130.253 77.5917 130.141 77.231 129.917C76.8721 129.693 76.592 129.374 76.3907 128.961C76.1911 128.548 76.0913 128.058 76.0913 127.491C76.0913 127.065 76.1482 126.683 76.262 126.343C76.3776 126.002 76.5404 125.711 76.7505 125.471C76.9605 125.231 77.2091 125.048 77.4963 124.92C77.7834 124.792 78.0994 124.728 78.4443 124.728C78.7279 124.728 78.9922 124.771 79.2373 124.857C79.4842 124.941 79.7039 125.061 79.8965 125.216C80.0908 125.371 80.2527 125.555 80.3823 125.771C80.5118 125.984 80.6011 126.221 80.6501 126.482H79.9779ZM84.2551 128.531V126.146H84.8748V130.18H84.2551V129.497H84.213C84.1185 129.702 83.9714 129.876 83.7719 130.019C83.5723 130.161 83.3202 130.232 83.0156 130.232C82.7635 130.232 82.5394 130.177 82.3433 130.067C82.1472 129.955 81.9931 129.787 81.8811 129.563C81.7691 129.337 81.713 129.052 81.713 128.709V126.146H82.3328V128.667C82.3328 128.961 82.4151 129.196 82.5796 129.371C82.7459 129.546 82.9578 129.633 83.2151 129.633C83.3692 129.633 83.5259 129.594 83.6852 129.515C83.8463 129.437 83.9811 129.316 84.0896 129.153C84.1999 128.99 84.2551 128.783 84.2551 128.531ZM86.0099 130.18V126.146H86.6297V130.18H86.0099ZM86.325 125.474C86.2042 125.474 86.1001 125.433 86.0125 125.35C85.9268 125.268 85.8839 125.169 85.8839 125.054C85.8839 124.938 85.9268 124.839 86.0125 124.757C86.1001 124.675 86.2042 124.633 86.325 124.633C86.4458 124.633 86.5491 124.675 86.6349 124.757C86.7224 124.839 86.7662 124.938 86.7662 125.054C86.7662 125.169 86.7224 125.268 86.6349 125.35C86.5491 125.433 86.4458 125.474 86.325 125.474ZM89.2879 130.264C88.9517 130.264 88.655 130.179 88.3976 130.009C88.1403 129.837 87.939 129.596 87.7937 129.284C87.6483 128.971 87.5757 128.601 87.5757 128.173C87.5757 127.75 87.6483 127.382 87.7937 127.07C87.939 126.759 88.1412 126.518 88.4003 126.348C88.6594 126.178 88.9587 126.094 89.2984 126.094C89.561 126.094 89.7684 126.137 89.9208 126.225C90.0748 126.311 90.1921 126.409 90.2726 126.519C90.3549 126.628 90.4188 126.717 90.4643 126.787H90.5169V124.802H91.1366V130.18H90.5379V129.56H90.4643C90.4188 129.633 90.3541 129.726 90.27 129.838C90.186 129.949 90.0661 130.048 89.9103 130.135C89.7544 130.221 89.547 130.264 89.2879 130.264ZM89.3719 129.707C89.6205 129.707 89.8306 129.642 90.0022 129.513C90.1737 129.381 90.3042 129.2 90.3934 128.969C90.4827 128.736 90.5274 128.468 90.5274 128.163C90.5274 127.862 90.4836 127.598 90.3961 127.372C90.3085 127.145 90.179 126.968 90.0074 126.842C89.8358 126.714 89.624 126.65 89.3719 126.65C89.1093 126.65 88.8905 126.718 88.7154 126.852C88.5421 126.986 88.4117 127.167 88.3241 127.396C88.2383 127.624 88.1954 127.879 88.1954 128.163C88.1954 128.45 88.2392 128.711 88.3267 128.945C88.416 129.178 88.5473 129.364 88.7206 129.502C88.8957 129.639 89.1128 129.707 89.3719 129.707ZM94.0489 130.264C93.6603 130.264 93.325 130.178 93.0431 130.006C92.763 129.833 92.5468 129.591 92.3945 129.282C92.2439 128.97 92.1687 128.608 92.1687 128.194C92.1687 127.781 92.2439 127.417 92.3945 127.102C92.5468 126.785 92.7586 126.538 93.03 126.361C93.3031 126.183 93.6217 126.094 93.9859 126.094C94.196 126.094 94.4034 126.129 94.6083 126.199C94.8131 126.269 94.9995 126.382 95.1676 126.54C95.3357 126.696 95.4696 126.902 95.5694 127.16C95.6692 127.417 95.7191 127.734 95.7191 128.11V128.373H92.6098V127.837H95.0888C95.0888 127.61 95.0433 127.407 94.9523 127.228C94.863 127.049 94.7352 126.909 94.5689 126.805C94.4043 126.702 94.21 126.65 93.9859 126.65C93.739 126.65 93.5254 126.712 93.3451 126.834C93.1666 126.955 93.0291 127.112 92.9328 127.307C92.8365 127.501 92.7884 127.709 92.7884 127.932V128.289C92.7884 128.594 92.8409 128.852 92.946 129.064C93.0528 129.274 93.2007 129.434 93.3898 129.544C93.5788 129.653 93.7986 129.707 94.0489 129.707C94.2117 129.707 94.3588 129.684 94.4901 129.639C94.6231 129.591 94.7378 129.521 94.8341 129.429C94.9304 129.334 95.0048 129.217 95.0573 129.077L95.6561 129.245C95.593 129.448 95.4871 129.626 95.3383 129.781C95.1895 129.933 95.0057 130.052 94.7868 130.138C94.568 130.222 94.322 130.264 94.0489 130.264ZM100.485 130.18H98.8257V124.802H100.559C101.081 124.802 101.527 124.909 101.898 125.125C102.269 125.338 102.554 125.645 102.752 126.046C102.949 126.445 103.048 126.923 103.048 127.48C103.048 128.04 102.949 128.523 102.749 128.927C102.549 129.33 102.259 129.64 101.877 129.857C101.496 130.072 101.032 130.18 100.485 130.18ZM99.477 129.602H100.443C100.888 129.602 101.257 129.516 101.549 129.345C101.841 129.173 102.059 128.929 102.203 128.612C102.346 128.295 102.418 127.918 102.418 127.48C102.418 127.046 102.347 126.672 102.205 126.359C102.064 126.044 101.852 125.802 101.57 125.634C101.288 125.464 100.937 125.379 100.517 125.379H99.477V129.602ZM105.748 130.264C105.359 130.264 105.024 130.178 104.742 130.006C104.462 129.833 104.246 129.591 104.094 129.282C103.943 128.97 103.868 128.608 103.868 128.194C103.868 127.781 103.943 127.417 104.094 127.102C104.246 126.785 104.458 126.538 104.729 126.361C105.002 126.183 105.321 126.094 105.685 126.094C105.895 126.094 106.102 126.129 106.307 126.199C106.512 126.269 106.699 126.382 106.867 126.54C107.035 126.696 107.169 126.902 107.268 127.16C107.368 127.417 107.418 127.734 107.418 128.11V128.373H104.309V127.837H106.788C106.788 127.61 106.742 127.407 106.651 127.228C106.562 127.049 106.434 126.909 106.268 126.805C106.103 126.702 105.909 126.65 105.685 126.65C105.438 126.65 105.225 126.712 105.044 126.834C104.866 126.955 104.728 127.112 104.632 127.307C104.536 127.501 104.487 127.709 104.487 127.932V128.289C104.487 128.594 104.54 128.852 104.645 129.064C104.752 129.274 104.9 129.434 105.089 129.544C105.278 129.653 105.498 129.707 105.748 129.707C105.911 129.707 106.058 129.684 106.189 129.639C106.322 129.591 106.437 129.521 106.533 129.429C106.629 129.334 106.704 129.217 106.756 129.077L107.355 129.245C107.292 129.448 107.186 129.626 107.037 129.781C106.889 129.933 106.705 130.052 106.486 130.138C106.267 130.222 106.021 130.264 105.748 130.264ZM111.218 127.049L110.661 127.207C110.626 127.114 110.575 127.024 110.506 126.937C110.44 126.847 110.349 126.774 110.233 126.716C110.118 126.658 109.97 126.629 109.789 126.629C109.543 126.629 109.337 126.686 109.172 126.8C109.01 126.912 108.928 127.055 108.928 127.228C108.928 127.382 108.984 127.504 109.096 127.593C109.208 127.682 109.383 127.757 109.621 127.816L110.22 127.963C110.581 128.051 110.85 128.185 111.026 128.365C111.203 128.544 111.292 128.774 111.292 129.056C111.292 129.287 111.225 129.493 111.092 129.675C110.961 129.858 110.777 130.001 110.541 130.106C110.304 130.211 110.029 130.264 109.716 130.264C109.305 130.264 108.964 130.174 108.694 129.996C108.425 129.817 108.254 129.556 108.182 129.213L108.771 129.066C108.827 129.283 108.932 129.446 109.088 129.555C109.246 129.663 109.452 129.718 109.705 129.718C109.994 129.718 110.224 129.656 110.393 129.534C110.565 129.409 110.651 129.261 110.651 129.087C110.651 128.947 110.602 128.83 110.504 128.735C110.406 128.639 110.255 128.567 110.052 128.52L109.38 128.362C109.01 128.275 108.739 128.139 108.566 127.955C108.394 127.77 108.308 127.538 108.308 127.26C108.308 127.032 108.372 126.831 108.5 126.656C108.63 126.48 108.806 126.343 109.028 126.243C109.252 126.143 109.506 126.094 109.789 126.094C110.189 126.094 110.502 126.181 110.73 126.356C110.959 126.531 111.122 126.762 111.218 127.049ZM113.863 130.264C113.485 130.264 113.159 130.174 112.886 129.996C112.613 129.817 112.403 129.571 112.256 129.258C112.109 128.945 112.035 128.587 112.035 128.184C112.035 127.774 112.111 127.413 112.261 127.099C112.414 126.784 112.625 126.538 112.897 126.361C113.17 126.183 113.488 126.094 113.853 126.094C114.136 126.094 114.392 126.146 114.619 126.251C114.847 126.356 115.033 126.503 115.179 126.692C115.324 126.881 115.414 127.102 115.449 127.354H114.83C114.782 127.17 114.677 127.007 114.514 126.866C114.353 126.722 114.136 126.65 113.863 126.65C113.622 126.65 113.41 126.713 113.228 126.839C113.047 126.964 112.906 127.14 112.805 127.367C112.705 127.593 112.655 127.858 112.655 128.163C112.655 128.475 112.704 128.746 112.802 128.977C112.902 129.208 113.042 129.387 113.222 129.515C113.404 129.643 113.618 129.707 113.863 129.707C114.024 129.707 114.17 129.679 114.302 129.623C114.433 129.567 114.544 129.486 114.635 129.381C114.726 129.276 114.791 129.15 114.83 129.003H115.449C115.414 129.241 115.328 129.456 115.189 129.647C115.053 129.836 114.872 129.986 114.646 130.098C114.422 130.209 114.161 130.264 113.863 130.264ZM116.355 130.18V126.146H116.954V126.755H116.996C117.07 126.556 117.203 126.394 117.395 126.269C117.588 126.145 117.805 126.083 118.046 126.083C118.092 126.083 118.149 126.084 118.217 126.086C118.285 126.087 118.337 126.09 118.372 126.094V126.724C118.351 126.719 118.303 126.711 118.228 126.7C118.154 126.688 118.076 126.682 117.994 126.682C117.798 126.682 117.623 126.723 117.469 126.805C117.316 126.886 117.196 126.998 117.106 127.141C117.019 127.283 116.975 127.445 116.975 127.627V130.18H116.355ZM119.107 130.18V126.146H119.726V130.18H119.107ZM119.422 125.474C119.301 125.474 119.197 125.433 119.109 125.35C119.024 125.268 118.981 125.169 118.981 125.054C118.981 124.938 119.024 124.839 119.109 124.757C119.197 124.675 119.301 124.633 119.422 124.633C119.543 124.633 119.646 124.675 119.732 124.757C119.819 124.839 119.863 124.938 119.863 125.054C119.863 125.169 119.819 125.268 119.732 125.35C119.646 125.433 119.543 125.474 119.422 125.474ZM120.862 131.692V126.146H121.46V126.787H121.534C121.579 126.717 121.642 126.628 121.723 126.519C121.805 126.409 121.922 126.311 122.075 126.225C122.229 126.137 122.437 126.094 122.7 126.094C123.039 126.094 123.339 126.178 123.598 126.348C123.857 126.518 124.059 126.759 124.205 127.07C124.35 127.382 124.422 127.75 124.422 128.173C124.422 128.601 124.35 128.971 124.205 129.284C124.059 129.596 123.858 129.837 123.601 130.009C123.343 130.179 123.046 130.264 122.71 130.264C122.451 130.264 122.244 130.221 122.088 130.135C121.932 130.048 121.812 129.949 121.728 129.838C121.644 129.726 121.579 129.633 121.534 129.56H121.481V131.692H120.862ZM121.471 128.163C121.471 128.468 121.515 128.736 121.605 128.969C121.694 129.2 121.824 129.381 121.996 129.513C122.168 129.642 122.378 129.707 122.626 129.707C122.885 129.707 123.102 129.639 123.275 129.502C123.45 129.364 123.581 129.178 123.669 128.945C123.758 128.711 123.803 128.45 123.803 128.163C123.803 127.879 123.759 127.624 123.671 127.396C123.586 127.167 123.455 126.986 123.28 126.852C123.107 126.718 122.889 126.65 122.626 126.65C122.374 126.65 122.162 126.714 121.991 126.842C121.819 126.968 121.69 127.145 121.602 127.372C121.515 127.598 121.471 127.862 121.471 128.163ZM127.122 126.146V126.671H125.032V126.146H127.122ZM125.641 125.18H126.261V129.024C126.261 129.199 126.286 129.331 126.337 129.418C126.389 129.504 126.456 129.562 126.536 129.591C126.619 129.619 126.705 129.633 126.796 129.633C126.865 129.633 126.921 129.63 126.964 129.623C127.008 129.614 127.043 129.607 127.07 129.602L127.196 130.159C127.154 130.174 127.095 130.19 127.02 130.206C126.944 130.223 126.849 130.232 126.733 130.232C126.558 130.232 126.387 130.195 126.219 130.119C126.052 130.044 125.914 129.929 125.804 129.775C125.695 129.621 125.641 129.427 125.641 129.192V125.18ZM128.054 130.18V126.146H128.674V130.18H128.054ZM128.369 125.474C128.249 125.474 128.144 125.433 128.057 125.35C127.971 125.268 127.928 125.169 127.928 125.054C127.928 124.938 127.971 124.839 128.057 124.757C128.144 124.675 128.249 124.633 128.369 124.633C128.49 124.633 128.594 124.675 128.679 124.757C128.767 124.839 128.811 124.938 128.811 125.054C128.811 125.169 128.767 125.268 128.679 125.35C128.594 125.433 128.49 125.474 128.369 125.474ZM131.448 130.264C131.084 130.264 130.764 130.177 130.489 130.004C130.216 129.83 130.003 129.588 129.849 129.276C129.696 128.965 129.62 128.601 129.62 128.184C129.62 127.764 129.696 127.397 129.849 127.084C130.003 126.77 130.216 126.527 130.489 126.354C130.764 126.18 131.084 126.094 131.448 126.094C131.812 126.094 132.131 126.18 132.404 126.354C132.679 126.527 132.892 126.77 133.044 127.084C133.199 127.397 133.276 127.764 133.276 128.184C133.276 128.601 133.199 128.965 133.044 129.276C132.892 129.588 132.679 129.83 132.404 130.004C132.131 130.177 131.812 130.264 131.448 130.264ZM131.448 129.707C131.724 129.707 131.952 129.636 132.131 129.494C132.309 129.352 132.441 129.166 132.527 128.935C132.613 128.704 132.656 128.453 132.656 128.184C132.656 127.914 132.613 127.663 132.527 127.43C132.441 127.197 132.309 127.009 132.131 126.866C131.952 126.722 131.724 126.65 131.448 126.65C131.171 126.65 130.944 126.722 130.765 126.866C130.586 127.009 130.454 127.197 130.369 127.43C130.283 127.663 130.24 127.914 130.24 128.184C130.24 128.453 130.283 128.704 130.369 128.935C130.454 129.166 130.586 129.352 130.765 129.494C130.944 129.636 131.171 129.707 131.448 129.707ZM134.841 127.753V130.18H134.222V126.146H134.82V126.776H134.873C134.967 126.571 135.111 126.407 135.304 126.283C135.496 126.157 135.745 126.094 136.049 126.094C136.322 126.094 136.561 126.15 136.766 126.262C136.971 126.372 137.13 126.54 137.244 126.766C137.358 126.99 137.415 127.274 137.415 127.617V130.18H136.795V127.659C136.795 127.342 136.713 127.095 136.548 126.918C136.384 126.74 136.158 126.65 135.871 126.65C135.673 126.65 135.496 126.693 135.34 126.779C135.186 126.865 135.065 126.99 134.975 127.154C134.886 127.319 134.841 127.519 134.841 127.753Z" fill="white"/>
<path d="M198.243 166.724C209.593 166.724 218.793 175.9 218.793 187.217C218.793 198.534 209.593 207.709 198.243 207.709C186.893 207.709 177.693 198.534 177.692 187.217C177.692 175.9 186.893 166.724 198.243 166.724Z" stroke="white" stroke-width="0.557457" stroke-linecap="round"/>
<path d="M198.243 216.567C209.593 216.567 218.793 225.742 218.793 237.058C218.793 248.373 209.593 257.547 198.243 257.547C186.893 257.547 177.692 248.373 177.692 237.058C177.692 225.742 186.893 216.567 198.243 216.567Z" stroke="white" stroke-width="0.557457" stroke-linecap="round"/>
<path d="M198.243 268.263C209.593 268.263 218.793 277.439 218.793 288.756C218.793 300.073 209.593 309.248 198.243 309.248C186.893 309.248 177.693 300.073 177.692 288.756C177.692 277.439 186.893 268.263 198.243 268.263Z" stroke="white" stroke-width="0.557457" stroke-linecap="round"/>
<path d="M146.424 216.567C157.773 216.567 166.972 225.742 166.972 237.058C166.972 248.373 157.773 257.547 146.424 257.547C135.075 257.547 125.876 248.373 125.876 237.058C125.876 225.742 135.075 216.567 146.424 216.567Z" stroke="white" stroke-width="0.557457" stroke-linecap="round"/>
<path d="M146.389 268.263C157.737 268.263 166.937 277.439 166.937 288.756C166.936 300.073 157.737 309.248 146.389 309.248C135.04 309.248 125.841 300.073 125.841 288.756C125.841 277.439 135.04 268.263 146.389 268.263Z" stroke="white" stroke-width="0.557457" stroke-linecap="round"/>
<path d="M96.4229 268.263C107.773 268.263 116.973 277.439 116.973 288.756C116.972 300.073 107.773 309.248 96.4229 309.248C85.0726 309.248 75.8722 300.073 75.8721 288.756C75.8721 277.439 85.0725 268.263 96.4229 268.263Z" stroke="white" stroke-width="0.557457" stroke-linecap="round"/>
<rect opacity="0.5" x="75.2539" y="166.25" width="143.188" height="143.188" stroke="white" stroke-width="0.371638"/>
<rect x="74" y="165" width="2.51697" height="2.51697" rx="0.371638" fill="#EFF6FF" stroke="white" stroke-width="0.371638"/>
<rect x="217.188" y="165" width="2.51697" height="2.51697" fill="white" stroke="white" stroke-width="0.279663"/>
<rect x="74" y="308.195" width="2.51697" height="2.51697" rx="0.371638" fill="white" stroke="white" stroke-width="0.371638"/>
<rect x="217.188" y="308.195" width="2.51697" height="2.51697" fill="white" stroke="white" stroke-width="0.279663"/>
</svg>
