<svg width="96" height="33" viewBox="0 0 96 33" fill="none" xmlns="http://www.w3.org/2000/svg">
<path d="M26.3515 24.767C26.3155 24.9992 26.1213 25.1619 25.9176 25.1304C25.7139 25.0988 25.5779 24.885 25.6138 24.6528C25.6498 24.4206 25.844 24.2579 26.0477 24.2895C26.2514 24.321 26.3874 24.5348 26.3515 24.767Z" fill="white"/>
<path d="M27.1228 23.4172C27.0868 23.6494 26.8926 23.8121 26.6889 23.7806C26.4852 23.749 26.3492 23.5352 26.3851 23.303C26.4211 23.0708 26.6154 22.9081 26.819 22.9397C27.0227 22.9712 27.1587 23.185 27.1228 23.4172Z" fill="white"/>
<path d="M27.7656 22.0674C27.7296 22.2996 27.5354 22.4623 27.3317 22.4307C27.128 22.3992 26.992 22.1854 27.0279 21.9532C27.0639 21.721 27.2581 21.5583 27.4618 21.5898C27.6655 21.6214 27.8015 21.8352 27.7656 22.0674Z" fill="white"/>
<path d="M28.2155 20.589C28.1796 20.8212 27.9853 20.9839 27.7816 20.9524C27.5779 20.9208 27.4419 20.707 27.4779 20.4748C27.5138 20.2426 27.7081 20.0799 27.9118 20.1115C28.1154 20.143 28.2514 20.3568 28.2155 20.589Z" fill="white"/>
<path d="M28.5369 19.1106C28.5009 19.3429 28.3067 19.5055 28.103 19.474C27.8993 19.4425 27.7633 19.2287 27.7992 18.9965C27.8352 18.7643 28.0294 18.6016 28.2331 18.6331C28.4368 18.6646 28.5728 18.8784 28.5369 19.1106Z" fill="white"/>
<path d="M28.6654 17.6323C28.6295 17.8645 28.4352 18.0272 28.2315 17.9956C28.0278 17.9641 27.8919 17.7503 27.9278 17.5181C27.9637 17.2859 28.158 17.1232 28.3617 17.1547C28.5654 17.1863 28.7014 17.4001 28.6654 17.6323Z" fill="white"/>
<path d="M28.7297 16.0896C28.6938 16.3218 28.4995 16.4845 28.2958 16.453C28.0921 16.4215 27.9561 16.2077 27.9921 15.9755C28.028 15.7432 28.2223 15.5806 28.426 15.6121C28.6297 15.6436 28.7657 15.8574 28.7297 16.0896Z" fill="white"/>
<path d="M28.6012 14.6113C28.5652 14.8435 28.371 15.0062 28.1673 14.9746C27.9636 14.9431 27.8276 14.7293 27.8635 14.4971C27.8995 14.2649 28.0937 14.1022 28.2974 14.1337C28.5011 14.1653 28.6371 14.3791 28.6012 14.6113Z" fill="white"/>
<path d="M28.2798 13.1972C28.2438 13.4294 28.0496 13.5921 27.8459 13.5605C27.6422 13.529 27.5062 13.3152 27.5421 13.083C27.5781 12.8508 27.7723 12.6881 27.976 12.7196C28.1797 12.7512 28.3157 12.965 28.2798 13.1972Z" fill="white"/>
<path d="M27.8298 11.7831C27.7939 12.0153 27.5996 12.178 27.3959 12.1464C27.1922 12.1149 27.0563 11.9011 27.0922 11.6689C27.1281 11.4367 27.3224 11.274 27.5261 11.3055C27.7298 11.3371 27.8658 11.5509 27.8298 11.7831Z" fill="white"/>
<path d="M27.2513 10.4975C27.2154 10.7297 27.0211 10.8924 26.8174 10.8609C26.6138 10.8294 26.4778 10.6156 26.5137 10.3834C26.5496 10.1512 26.7439 9.98848 26.9476 10.02C27.1513 10.0515 27.2873 10.2653 27.2513 10.4975Z" fill="white"/>
<path d="M26.5443 9.27628C26.5084 9.50849 26.3141 9.67117 26.1104 9.63964C25.9067 9.60811 25.7707 9.39431 25.8067 9.16211C25.8426 8.9299 26.0369 8.76722 26.2406 8.79874C26.4442 8.83027 26.5802 9.04407 26.5443 9.27628Z" fill="white"/>
<path d="M25.7087 8.18357C25.6728 8.41578 25.4785 8.57846 25.2748 8.54694C25.0711 8.51541 24.9351 8.30161 24.9711 8.0694C25.007 7.83719 25.2013 7.67451 25.405 7.70604C25.6087 7.73757 25.7446 7.95137 25.7087 8.18357Z" fill="white"/>
<path d="M24.7445 7.21942C24.7086 7.45163 24.5143 7.61431 24.3106 7.58278C24.107 7.55125 23.971 7.33745 24.0069 7.10524C24.0428 6.87304 24.2371 6.71036 24.4408 6.74188C24.6445 6.77341 24.7805 6.98721 24.7445 7.21942Z" fill="white"/>
<path d="M23.6518 6.38382C23.6159 6.61603 23.4216 6.77871 23.2179 6.74718C23.0142 6.71565 22.8783 6.50185 22.9142 6.26965C22.9501 6.03744 23.1444 5.87476 23.3481 5.90628C23.5518 5.93781 23.6878 6.15161 23.6518 6.38382Z" fill="white"/>
<path d="M22.4949 5.67678C22.4589 5.90898 22.2646 6.07167 22.061 6.04014C21.8573 6.00861 21.7213 5.79481 21.7572 5.5626C21.7932 5.33039 21.9874 5.16771 22.1911 5.19924C22.3948 5.23077 22.5308 5.44457 22.4949 5.67678Z" fill="white"/>
<path d="M21.2736 5.16256C21.2376 5.39477 21.0434 5.55745 20.8397 5.52592C20.636 5.49439 20.5 5.28059 20.536 5.04838C20.5719 4.81618 20.7662 4.65349 20.9699 4.68502C21.1735 4.71655 21.3095 4.93035 21.2736 5.16256Z" fill="white"/>
<path d="M19.9881 4.84118C19.9521 5.07338 19.7578 5.23607 19.5542 5.20454C19.3505 5.17301 19.2145 4.95921 19.2504 4.727C19.2864 4.49479 19.4806 4.33211 19.6843 4.36364C19.888 4.39517 20.024 4.60897 19.9881 4.84118Z" fill="white"/>
<path d="M18.6382 4.64835C18.6023 4.88055 18.408 5.04324 18.2043 5.01171C18.0006 4.98018 17.8647 4.76638 17.9006 4.53417C17.9365 4.30196 18.1308 4.13928 18.3345 4.17081C18.5382 4.20234 18.6742 4.41614 18.6382 4.64835Z" fill="white"/>
<path d="M17.2884 4.64835C17.2525 4.88055 17.0582 5.04324 16.8545 5.01171C16.6508 4.98018 16.5148 4.76638 16.5508 4.53417C16.5867 4.30196 16.781 4.13928 16.9847 4.17081C17.1884 4.20234 17.3244 4.41614 17.2884 4.64835Z" fill="white"/>
<path d="M16.0029 4.7769C15.9669 5.00911 15.7727 5.17179 15.569 5.14026C15.3653 5.10873 15.2293 4.89493 15.2652 4.66272C15.3012 4.43051 15.4955 4.26783 15.6991 4.29936C15.9028 4.33089 16.0388 4.54469 16.0029 4.7769Z" fill="white"/>
<path d="M14.6531 5.09828C14.6171 5.33049 14.4229 5.49317 14.2192 5.46164C14.0155 5.43012 13.8795 5.21631 13.9154 4.98411C13.9514 4.7519 14.1456 4.58922 14.3493 4.62075C14.553 4.65228 14.689 4.86608 14.6531 5.09828Z" fill="white"/>
<path d="M13.3675 5.6125C13.3316 5.84471 13.1373 6.00739 12.9336 5.97586C12.7299 5.94433 12.594 5.73053 12.6299 5.49832C12.6658 5.26611 12.8601 5.10343 13.0638 5.13496C13.2675 5.16649 13.4035 5.38029 13.3675 5.6125Z" fill="white"/>
<path d="M12.1463 6.25527C12.1103 6.48748 11.9161 6.65016 11.7124 6.61863C11.5087 6.5871 11.3727 6.3733 11.4086 6.14109C11.4446 5.90888 11.6388 5.7462 11.8425 5.77773C12.0462 5.80926 12.1822 6.02306 12.1463 6.25527Z" fill="white"/>
<path d="M10.925 7.09087C10.8891 7.32308 10.6948 7.48576 10.4911 7.45423C10.2874 7.4227 10.1514 7.2089 10.1874 6.97669C10.2233 6.74448 10.4176 6.5818 10.6213 6.61333C10.825 6.64486 10.961 6.85866 10.925 7.09087Z" fill="white"/>
<path d="M9.89658 8.05502C9.86064 8.28723 9.66637 8.44991 9.46268 8.41838C9.25899 8.38685 9.123 8.17305 9.15894 7.94084C9.19488 7.70864 9.38915 7.54595 9.59284 7.57748C9.79653 7.60901 9.93252 7.82281 9.89658 8.05502Z" fill="white"/>
<path d="M8.86815 9.14773C8.83221 9.37994 8.63794 9.54262 8.43425 9.51109C8.23056 9.47956 8.09457 9.26576 8.13051 9.03355C8.16645 8.80134 8.36072 8.63866 8.56441 8.67019C8.7681 8.70172 8.90409 8.91552 8.86815 9.14773Z" fill="white"/>
<path d="M7.96827 10.369C7.93233 10.6012 7.73807 10.7639 7.53437 10.7323C7.33068 10.7008 7.19469 10.487 7.23063 10.2548C7.26658 10.0226 7.46084 9.85992 7.66453 9.89145C7.86823 9.92298 8.00422 10.1368 7.96827 10.369Z" fill="white"/>
<path d="M7.26123 11.7188C7.22528 11.951 7.03102 12.1137 6.82733 12.0822C6.62363 12.0506 6.48765 11.8368 6.52359 11.6046C6.55953 11.3724 6.75379 11.2097 6.95749 11.2413C7.16118 11.2728 7.29717 11.4866 7.26123 11.7188Z" fill="white"/>
<path d="M6.68274 13.0686C6.64679 13.3008 6.45253 13.4635 6.24884 13.432C6.04514 13.4005 5.90915 13.1866 5.9451 12.9544C5.98104 12.7222 6.1753 12.5596 6.379 12.5911C6.58269 12.6226 6.71868 12.8364 6.68274 13.0686Z" fill="white"/>
<path d="M6.16852 14.4827C6.13258 14.7149 5.93831 14.8776 5.73462 14.8461C5.53093 14.8145 5.39494 14.6007 5.43088 14.3685C5.46682 14.1363 5.66109 13.9736 5.86478 14.0052C6.06847 14.0367 6.20446 14.2505 6.16852 14.4827Z" fill="white"/>
<path d="M5.84714 15.9611C5.81119 16.1933 5.61693 16.356 5.41324 16.3244C5.20954 16.2929 5.07355 16.0791 5.1095 15.8469C5.14544 15.6147 5.3397 15.452 5.5434 15.4835C5.74709 15.5151 5.88308 15.7289 5.84714 15.9611Z" fill="white"/>
<path d="M5.65431 17.5037C5.61836 17.7359 5.4241 17.8986 5.22041 17.8671C5.01671 17.8356 4.88072 17.6218 4.91667 17.3895C4.95261 17.1573 5.14687 16.9947 5.35057 17.0262C5.55426 17.0577 5.69025 17.2715 5.65431 17.5037Z" fill="white"/>
<path d="M5.65431 19.0464C5.61836 19.2786 5.4241 19.4413 5.22041 19.4097C5.01671 19.3782 4.88072 19.1644 4.91667 18.9322C4.95261 18.7 5.14687 18.5373 5.35057 18.5688C5.55426 18.6004 5.69025 18.8142 5.65431 19.0464Z" fill="white"/>
<path d="M5.78286 20.5247C5.74692 20.7569 5.55265 20.9196 5.34896 20.8881C5.14527 20.8566 5.00928 20.6428 5.04522 20.4106C5.08116 20.1784 5.27543 20.0157 5.47912 20.0472C5.68281 20.0787 5.8188 20.2925 5.78286 20.5247Z" fill="white"/>
<path d="M6.10424 22.0031C6.0683 22.2353 5.87404 22.398 5.67034 22.3665C5.46665 22.3349 5.33066 22.1211 5.3666 21.8889C5.40255 21.6567 5.59681 21.494 5.8005 21.5256C6.0042 21.5571 6.14019 21.7709 6.10424 22.0031Z" fill="white"/>
<path d="M6.55418 23.2886C6.51824 23.5209 6.32398 23.6835 6.12028 23.652C5.91659 23.6205 5.7806 23.4067 5.81654 23.1745C5.85249 22.9423 6.04675 22.7796 6.25044 22.8111C6.45414 22.8426 6.59012 23.0564 6.55418 23.2886Z" fill="white"/>
<path d="M7.13267 24.6385C7.09673 24.8707 6.90247 25.0334 6.69877 25.0018C6.49508 24.9703 6.35909 24.7565 6.39503 24.5243C6.43098 24.2921 6.62524 24.1294 6.82893 24.1609C7.03263 24.1924 7.16862 24.4063 7.13267 24.6385Z" fill="white"/>
<path d="M7.83972 25.8597C7.80378 26.0919 7.60951 26.2546 7.40582 26.2231C7.20213 26.1916 7.06614 25.9778 7.10208 25.7455C7.13802 25.5133 7.33229 25.3507 7.53598 25.3822C7.73967 25.4137 7.87566 25.6275 7.83972 25.8597Z" fill="white"/>
<path d="M8.67532 26.9524C8.63938 27.1846 8.44511 27.3473 8.24142 27.3158C8.03773 27.2843 7.90174 27.0705 7.93768 26.8383C7.97362 26.606 8.16789 26.4434 8.37158 26.4749C8.57527 26.5064 8.71126 26.7202 8.67532 26.9524Z" fill="white"/>
<path d="M9.70375 27.9166C9.66781 28.1488 9.47354 28.3115 9.26985 28.2799C9.06616 28.2484 8.93017 28.0346 8.96611 27.8024C9.00205 27.5702 9.19632 27.4075 9.40001 27.439C9.6037 27.4706 9.73969 27.6844 9.70375 27.9166Z" fill="white"/>
<path d="M10.7322 28.7522C10.6962 28.9844 10.502 29.1471 10.2983 29.1155C10.0946 29.084 9.9586 28.8702 9.99454 28.638C10.0305 28.4058 10.2247 28.2431 10.4284 28.2746C10.6321 28.3062 10.7681 28.52 10.7322 28.7522Z" fill="white"/>
<path d="M11.8892 29.4592C11.8532 29.6914 11.659 29.8541 11.4553 29.8226C11.2516 29.7911 11.1156 29.5773 11.1515 29.3451C11.1875 29.1128 11.3817 28.9502 11.5854 28.9817C11.7891 29.0132 11.9251 29.227 11.8892 29.4592Z" fill="white"/>
<path d="M13.1104 29.9734C13.0745 30.2056 12.8802 30.3683 12.6765 30.3368C12.4728 30.3053 12.3368 30.0915 12.3728 29.8593C12.4087 29.6271 12.603 29.4644 12.8067 29.4959C13.0104 29.5274 13.1464 29.7412 13.1104 29.9734Z" fill="white"/>
<path d="M14.396 30.2948C14.36 30.527 14.1658 30.6897 13.9621 30.6582C13.7584 30.6267 13.6224 30.4129 13.6583 30.1807C13.6943 29.9484 13.8885 29.7858 14.0922 29.8173C14.2959 29.8488 14.4319 30.0626 14.396 30.2948Z" fill="white"/>
<path d="M15.7458 30.4877C15.7098 30.7199 15.5156 30.8825 15.3119 30.851C15.1082 30.8195 14.9722 30.6057 15.0081 30.3735C15.0441 30.1413 15.2383 29.9786 15.442 30.0101C15.6457 30.0416 15.7817 30.2554 15.7458 30.4877Z" fill="white"/>
<path d="M17.0313 30.4877C16.9954 30.7199 16.8011 30.8825 16.5974 30.851C16.3937 30.8195 16.2577 30.6057 16.2937 30.3735C16.3296 30.1413 16.5239 29.9786 16.7276 30.0101C16.9313 30.0416 17.0673 30.2554 17.0313 30.4877Z" fill="white"/>
<path d="M18.3811 30.3591C18.3452 30.5913 18.1509 30.754 17.9472 30.7225C17.7435 30.6909 17.6075 30.4771 17.6435 30.2449C17.6794 30.0127 17.8737 29.85 18.0774 29.8816C18.2811 29.9131 18.4171 30.1269 18.3811 30.3591Z" fill="white"/>
<path d="M19.7309 30.0377C19.695 30.2699 19.5007 30.4326 19.297 30.4011C19.0934 30.3696 18.9574 30.1558 18.9933 29.9235C19.0292 29.6913 19.2235 29.5287 19.4272 29.5602C19.6309 29.5917 19.7669 29.8055 19.7309 30.0377Z" fill="white"/>
<path d="M21.0165 29.5235C20.9805 29.7557 20.7863 29.9184 20.5826 29.8869C20.3789 29.8553 20.2429 29.6415 20.2788 29.4093C20.3148 29.1771 20.509 29.0144 20.7127 29.046C20.9164 29.0775 21.0524 29.2913 21.0165 29.5235Z" fill="white"/>
<path d="M22.2377 28.8165C22.2018 29.0487 22.0075 29.2113 21.8038 29.1798C21.6002 29.1483 21.4642 28.9345 21.5001 28.7023C21.536 28.4701 21.7303 28.3074 21.934 28.3389C22.1377 28.3704 22.2737 28.5842 22.2377 28.8165Z" fill="white"/>
<path d="M23.3947 27.9809C23.3588 28.2131 23.1645 28.3757 22.9608 28.3442C22.7571 28.3127 22.6211 28.0989 22.6571 27.8667C22.693 27.6345 22.8873 27.4718 23.091 27.5033C23.2947 27.5348 23.4307 27.7487 23.3947 27.9809Z" fill="white"/>
<path d="M24.4874 27.0167C24.4515 27.2489 24.2572 27.4116 24.0535 27.3801C23.8498 27.3485 23.7139 27.1347 23.7498 26.9025C23.7857 26.6703 23.98 26.5076 24.1837 26.5392C24.3874 26.5707 24.5234 26.7845 24.4874 27.0167Z" fill="white"/>
<path d="M25.5159 25.9883C25.4799 26.2205 25.2857 26.3832 25.082 26.3516C24.8783 26.3201 24.7423 26.1063 24.7782 25.8741C24.8142 25.6419 25.0084 25.4792 25.2121 25.5107C25.4158 25.5423 25.5518 25.7561 25.5159 25.9883Z" fill="white"/>
<path d="M13.0148 31.6564C13.0148 31.9581 12.7702 32.2027 12.4685 32.2027C12.1667 32.2027 11.9221 31.9581 11.9221 31.6564C11.9221 31.3546 12.1667 31.11 12.4685 31.11C12.7702 31.11 13.0148 31.3546 13.0148 31.6564Z" fill="white"/>
<path d="M14.8146 32.042C14.8146 32.3438 14.57 32.5884 14.2682 32.5884C13.9665 32.5884 13.7219 32.3438 13.7219 32.042C13.7219 31.7403 13.9665 31.4957 14.2682 31.4957C14.57 31.4957 14.8146 31.7403 14.8146 32.042Z" fill="white"/>
<path d="M16.6143 32.2349C16.6143 32.5366 16.3697 32.7812 16.068 32.7812C15.7662 32.7812 15.5216 32.5366 15.5216 32.2349C15.5216 31.9331 15.7662 31.6885 16.068 31.6885C16.3697 31.6885 16.6143 31.9331 16.6143 32.2349Z" fill="white"/>
<path d="M18.5426 32.2349C18.5426 32.5366 18.298 32.7812 17.9963 32.7812C17.6945 32.7812 17.4499 32.5366 17.4499 32.2349C17.4499 31.9331 17.6945 31.6885 17.9963 31.6885C18.298 31.6885 18.5426 31.9331 18.5426 32.2349Z" fill="white"/>
<path d="M20.3424 32.042C20.3424 32.3438 20.0978 32.5884 19.796 32.5884C19.4943 32.5884 19.2497 32.3438 19.2497 32.042C19.2497 31.7403 19.4943 31.4957 19.796 31.4957C20.0978 31.4957 20.3424 31.7403 20.3424 32.042Z" fill="white"/>
<path d="M22.1421 31.6564C22.1421 31.9581 21.8975 32.2027 21.5958 32.2027C21.294 32.2027 21.0494 31.9581 21.0494 31.6564C21.0494 31.3546 21.294 31.11 21.5958 31.11C21.8975 31.11 22.1421 31.3546 22.1421 31.6564Z" fill="white"/>
<path d="M23.8776 30.9493C23.8776 31.2511 23.633 31.4957 23.3313 31.4957C23.0295 31.4957 22.7849 31.2511 22.7849 30.9493C22.7849 30.6476 23.0295 30.403 23.3313 30.403C23.633 30.403 23.8776 30.6476 23.8776 30.9493Z" fill="white"/>
<path d="M25.5488 30.178C25.5488 30.4797 25.3042 30.7244 25.0025 30.7244C24.7007 30.7244 24.4561 30.4797 24.4561 30.178C24.4561 29.8763 24.7007 29.6316 25.0025 29.6316C25.3042 29.6316 25.5488 29.8763 25.5488 30.178Z" fill="white"/>
<path d="M27.0915 29.0853C27.0915 29.387 26.8468 29.6316 26.5451 29.6316C26.2434 29.6316 25.9987 29.387 25.9987 29.0853C25.9987 28.7836 26.2434 28.5389 26.5451 28.5389C26.8468 28.5389 27.0915 28.7836 27.0915 29.0853Z" fill="white"/>
<path d="M28.5055 27.9926C28.5055 28.2943 28.2609 28.5389 27.9592 28.5389C27.6575 28.5389 27.4128 28.2943 27.4128 27.9926C27.4128 27.6908 27.6575 27.4462 27.9592 27.4462C28.2609 27.4462 28.5055 27.6908 28.5055 27.9926Z" fill="white"/>
<path d="M29.7911 26.5785C29.7911 26.8802 29.5465 27.1248 29.2447 27.1248C28.943 27.1248 28.6984 26.8802 28.6984 26.5785C28.6984 26.2768 28.943 26.0321 29.2447 26.0321C29.5465 26.0321 29.7911 26.2768 29.7911 26.5785Z" fill="white"/>
<path d="M30.8838 25.1001C30.8838 25.4019 30.6392 25.6465 30.3374 25.6465C30.0357 25.6465 29.7911 25.4019 29.7911 25.1001C29.7911 24.7984 30.0357 24.5538 30.3374 24.5538C30.6392 24.5538 30.8838 24.7984 30.8838 25.1001Z" fill="white"/>
<path d="M31.7837 23.4932C31.7837 23.7949 31.5391 24.0396 31.2373 24.0396C30.9356 24.0396 30.691 23.7949 30.691 23.4932C30.691 23.1915 30.9356 22.9469 31.2373 22.9469C31.5391 22.9469 31.7837 23.1915 31.7837 23.4932Z" fill="white"/>
<path d="M32.555 21.822C32.555 22.1237 32.3104 22.3684 32.0086 22.3684C31.7069 22.3684 31.4623 22.1237 31.4623 21.822C31.4623 21.5203 31.7069 21.2757 32.0086 21.2757C32.3104 21.2757 32.555 21.5203 32.555 21.822Z" fill="white"/>
<path d="M33.0692 20.0865C33.0692 20.3883 32.8246 20.6329 32.5229 20.6329C32.2211 20.6329 31.9765 20.3883 31.9765 20.0865C31.9765 19.7848 32.2211 19.5402 32.5229 19.5402C32.8246 19.5402 33.0692 19.7848 33.0692 20.0865Z" fill="white"/>
<path d="M33.3906 18.2225C33.3906 18.5242 33.146 18.7689 32.8442 18.7689C32.5425 18.7689 32.2979 18.5242 32.2979 18.2225C32.2979 17.9208 32.5425 17.6761 32.8442 17.6761C33.146 17.6761 33.3906 17.9208 33.3906 18.2225Z" fill="white"/>
<path d="M33.3906 16.3585C33.3906 16.6602 33.146 16.9048 32.8442 16.9048C32.5425 16.9048 32.2979 16.6602 32.2979 16.3585C32.2979 16.0567 32.5425 15.8121 32.8442 15.8121C33.146 15.8121 33.3906 16.0567 33.3906 16.3585Z" fill="white"/>
<path d="M33.3906 14.4944C33.3906 14.7962 33.146 15.0408 32.8442 15.0408C32.5425 15.0408 32.2979 14.7962 32.2979 14.4944C32.2979 14.1927 32.5425 13.9481 32.8442 13.9481C33.146 13.9481 33.3906 14.1927 33.3906 14.4944Z" fill="white"/>
<path d="M33.0692 12.759C33.0692 13.0607 32.8246 13.3053 32.5229 13.3053C32.2211 13.3053 31.9765 13.0607 31.9765 12.759C31.9765 12.4572 32.2211 12.2126 32.5229 12.2126C32.8246 12.2126 33.0692 12.4572 33.0692 12.759Z" fill="white"/>
<path d="M32.555 10.8949C32.555 11.1967 32.3104 11.4413 32.0086 11.4413C31.7069 11.4413 31.4623 11.1967 31.4623 10.8949C31.4623 10.5932 31.7069 10.3486 32.0086 10.3486C32.3104 10.3486 32.555 10.5932 32.555 10.8949Z" fill="white"/>
<path d="M31.7837 9.28801C31.7837 9.58975 31.5391 9.83437 31.2373 9.83437C30.9356 9.83437 30.691 9.58975 30.691 9.28801C30.691 8.98627 30.9356 8.74166 31.2373 8.74166C31.5391 8.74166 31.7837 8.98627 31.7837 9.28801Z" fill="white"/>
<path d="M30.8838 7.68109C30.8838 7.98283 30.6392 8.22744 30.3374 8.22744C30.0357 8.22744 29.7911 7.98283 29.7911 7.68109C29.7911 7.37935 30.0357 7.13474 30.3374 7.13474C30.6392 7.13474 30.8838 7.37935 30.8838 7.68109Z" fill="white"/>
<path d="M29.7911 6.267C29.7911 6.56874 29.5465 6.81335 29.2447 6.81335C28.943 6.81335 28.6984 6.56874 28.6984 6.267C28.6984 5.96525 28.943 5.72064 29.2447 5.72064C29.5465 5.72064 29.7911 5.96525 29.7911 6.267Z" fill="white"/>
<path d="M28.4413 4.78863C28.4413 5.09037 28.1967 5.33498 27.8949 5.33498C27.5932 5.33498 27.3486 5.09037 27.3486 4.78863C27.3486 4.48689 27.5932 4.24228 27.8949 4.24228C28.1967 4.24228 28.4413 4.48689 28.4413 4.78863Z" fill="white"/>
<path d="M27.0915 3.69592C27.0915 3.99766 26.8468 4.24228 26.5451 4.24228C26.2434 4.24228 25.9987 3.99766 25.9987 3.69592C25.9987 3.39418 26.2434 3.14957 26.5451 3.14957C26.8468 3.14957 27.0915 3.39418 27.0915 3.69592Z" fill="white"/>
<path d="M25.5488 2.60321C25.5488 2.90496 25.3042 3.14957 25.0025 3.14957C24.7007 3.14957 24.4561 2.90496 24.4561 2.60321C24.4561 2.30147 24.7007 2.05686 25.0025 2.05686C25.3042 2.05686 25.5488 2.30147 25.5488 2.60321Z" fill="white"/>
<path d="M23.9419 1.83189C23.9419 2.13363 23.6973 2.37825 23.3955 2.37825C23.0938 2.37825 22.8492 2.13363 22.8492 1.83189C22.8492 1.53015 23.0938 1.28554 23.3955 1.28554C23.6973 1.28554 23.9419 1.53015 23.9419 1.83189Z" fill="white"/>
<path d="M22.1421 1.12485C22.1421 1.42659 21.8975 1.6712 21.5958 1.6712C21.294 1.6712 21.0494 1.42659 21.0494 1.12485C21.0494 0.823103 21.294 0.578492 21.5958 0.578492C21.8975 0.578492 22.1421 0.823103 22.1421 1.12485Z" fill="white"/>
<path d="M20.4067 0.739184C20.4067 1.04093 20.162 1.28554 19.8603 1.28554C19.5586 1.28554 19.314 1.04093 19.314 0.739184C19.314 0.437441 19.5586 0.192831 19.8603 0.192831C20.162 0.192831 20.4067 0.437441 20.4067 0.739184Z" fill="white"/>
<path d="M18.4784 0.546354C18.4784 0.848096 18.2337 1.09271 17.932 1.09271C17.6303 1.09271 17.3856 0.848096 17.3856 0.546354C17.3856 0.244611 17.6303 0 17.932 0C18.2337 0 18.4784 0.244611 18.4784 0.546354Z" fill="white"/>
<path d="M16.7429 0.546354C16.7429 0.848096 16.4983 1.09271 16.1965 1.09271C15.8948 1.09271 15.6502 0.848096 15.6502 0.546354C15.6502 0.244611 15.8948 0 16.1965 0C16.4983 0 16.7429 0.244611 16.7429 0.546354Z" fill="white"/>
<path d="M14.8146 0.739184C14.8146 1.04093 14.57 1.28554 14.2682 1.28554C13.9665 1.28554 13.7219 1.04093 13.7219 0.739184C13.7219 0.437441 13.9665 0.192831 14.2682 0.192831C14.57 0.192831 14.8146 0.437441 14.8146 0.739184Z" fill="white"/>
<path d="M13.0148 1.12485C13.0148 1.42659 12.7702 1.6712 12.4685 1.6712C12.1667 1.6712 11.9221 1.42659 11.9221 1.12485C11.9221 0.823103 12.1667 0.578492 12.4685 0.578492C12.7702 0.578492 13.0148 0.823103 13.0148 1.12485Z" fill="white"/>
<path d="M11.3436 1.83189C11.3436 2.13363 11.099 2.37825 10.7973 2.37825C10.4955 2.37825 10.2509 2.13363 10.2509 1.83189C10.2509 1.53015 10.4955 1.28554 10.7973 1.28554C11.099 1.28554 11.3436 1.53015 11.3436 1.83189Z" fill="white"/>
<path d="M9.60814 2.66749C9.60814 2.96923 9.36353 3.21384 9.06179 3.21384C8.76004 3.21384 8.51543 2.96923 8.51543 2.66749C8.51543 2.36575 8.76004 2.12114 9.06179 2.12114C9.36353 2.12114 9.60814 2.36575 9.60814 2.66749Z" fill="white"/>
<path d="M8.06549 3.63164C8.06549 3.93339 7.82088 4.178 7.51914 4.178C7.2174 4.178 6.97279 3.93339 6.97279 3.63164C6.97279 3.3299 7.2174 3.08529 7.51914 3.08529C7.82088 3.08529 8.06549 3.3299 8.06549 3.63164Z" fill="white"/>
<path d="M6.6514 4.85291C6.6514 5.15465 6.40679 5.39926 6.10505 5.39926C5.80331 5.39926 5.5587 5.15465 5.5587 4.85291C5.5587 4.55116 5.80331 4.30655 6.10505 4.30655C6.40679 4.30655 6.6514 4.55116 6.6514 4.85291Z" fill="white"/>
<path d="M5.43014 6.20272C5.43014 6.50446 5.18553 6.74907 4.88379 6.74907C4.58205 6.74907 4.33743 6.50446 4.33743 6.20272C4.33743 5.90098 4.58205 5.65637 4.88379 5.65637C5.18553 5.65637 5.43014 5.90098 5.43014 6.20272Z" fill="white"/>
<path d="M4.33743 7.68109C4.33743 7.98283 4.09282 8.22744 3.79108 8.22744C3.48934 8.22744 3.24473 7.98283 3.24473 7.68109C3.24473 7.37935 3.48934 7.13474 3.79108 7.13474C4.09282 7.13474 4.33743 7.37935 4.33743 7.68109Z" fill="white"/>
<path d="M3.37328 9.28801C3.37328 9.58975 3.12867 9.83437 2.82693 9.83437C2.52519 9.83437 2.28057 9.58975 2.28057 9.28801C2.28057 8.98627 2.52519 8.74166 2.82693 8.74166C3.12867 8.74166 3.37328 8.98627 3.37328 9.28801Z" fill="white"/>
<path d="M2.60196 10.9592C2.60196 11.261 2.35735 11.5056 2.05561 11.5056C1.75386 11.5056 1.50925 11.261 1.50925 10.9592C1.50925 10.6575 1.75386 10.4129 2.05561 10.4129C2.35735 10.4129 2.60196 10.6575 2.60196 10.9592Z" fill="white"/>
<path d="M2.08774 12.6947C2.08774 12.9964 1.84313 13.241 1.54139 13.241C1.23965 13.241 0.995036 12.9964 0.995036 12.6947C0.995036 12.3929 1.23965 12.1483 1.54139 12.1483C1.84313 12.1483 2.08774 12.3929 2.08774 12.6947Z" fill="white"/>
<path d="M1.83064 14.623C1.83064 14.9247 1.58603 15.1693 1.28428 15.1693C0.98254 15.1693 0.737929 14.9247 0.737929 14.623C0.737929 14.3213 0.98254 14.0766 1.28428 14.0766C1.58603 14.0766 1.83064 14.3213 1.83064 14.623Z" fill="white"/>
<path d="M1.70208 16.487C1.70208 16.7888 1.45747 17.0334 1.15573 17.0334C0.853986 17.0334 0.609375 16.7888 0.609375 16.487C0.609375 16.1853 0.853986 15.9407 1.15573 15.9407C1.45747 15.9407 1.70208 16.1853 1.70208 16.487Z" fill="white"/>
<path d="M1.83064 18.2225C1.83064 18.5242 1.58603 18.7689 1.28428 18.7689C0.98254 18.7689 0.737929 18.5242 0.737929 18.2225C0.737929 17.9208 0.98254 17.6761 1.28428 17.6761C1.58603 17.6761 1.83064 17.9208 1.83064 18.2225Z" fill="white"/>
<path d="M2.08774 20.0865C2.08774 20.3883 1.84313 20.6329 1.54139 20.6329C1.23965 20.6329 0.995036 20.3883 0.995036 20.0865C0.995036 19.7848 1.23965 19.5402 1.54139 19.5402C1.84313 19.5402 2.08774 19.7848 2.08774 20.0865Z" fill="white"/>
<path d="M2.66624 21.822C2.66624 22.1237 2.42162 22.3684 2.11988 22.3684C1.81814 22.3684 1.57353 22.1237 1.57353 21.822C1.57353 21.5203 1.81814 21.2757 2.11988 21.2757C2.42162 21.2757 2.66624 21.5203 2.66624 21.822Z" fill="white"/>
<path d="M3.37328 23.4932C3.37328 23.7949 3.12867 24.0396 2.82693 24.0396C2.52519 24.0396 2.28057 23.7949 2.28057 23.4932C2.28057 23.1915 2.52519 22.9469 2.82693 22.9469C3.12867 22.9469 3.37328 23.1915 3.37328 23.4932Z" fill="white"/>
<path d="M4.33743 25.1001C4.33743 25.4019 4.09282 25.6465 3.79108 25.6465C3.48934 25.6465 3.24473 25.4019 3.24473 25.1001C3.24473 24.7984 3.48934 24.5538 3.79108 24.5538C4.09282 24.5538 4.33743 24.7984 4.33743 25.1001Z" fill="white"/>
<path d="M5.43014 26.5785C5.43014 26.8802 5.18553 27.1248 4.88379 27.1248C4.58205 27.1248 4.33743 26.8802 4.33743 26.5785C4.33743 26.2768 4.58205 26.0321 4.88379 26.0321C5.18553 26.0321 5.43014 26.2768 5.43014 26.5785Z" fill="white"/>
<path d="M6.71568 27.9926C6.71568 28.2943 6.47107 28.5389 6.16933 28.5389C5.86758 28.5389 5.62297 28.2943 5.62297 27.9926C5.62297 27.6908 5.86758 27.4462 6.16933 27.4462C6.47107 27.4462 6.71568 27.6908 6.71568 27.9926Z" fill="white"/>
<path d="M8.06549 29.0853C8.06549 29.387 7.82088 29.6316 7.51914 29.6316C7.2174 29.6316 6.97279 29.387 6.97279 29.0853C6.97279 28.7836 7.2174 28.5389 7.51914 28.5389C7.82088 28.5389 8.06549 28.7836 8.06549 29.0853Z" fill="white"/>
<path d="M9.60814 30.178C9.60814 30.4797 9.36353 30.7244 9.06179 30.7244C8.76004 30.7244 8.51543 30.4797 8.51543 30.178C8.51543 29.8763 8.76004 29.6316 9.06179 29.6316C9.36353 29.6316 9.60814 29.8763 9.60814 30.178Z" fill="white"/>
<path d="M11.3436 30.9493C11.3436 31.2511 11.099 31.4957 10.7973 31.4957C10.4955 31.4957 10.2509 31.2511 10.2509 30.9493C10.2509 30.6476 10.4955 30.403 10.7973 30.403C11.099 30.403 11.3436 30.6476 11.3436 30.9493Z" fill="white"/>
<path d="M9.80097 14.7515C9.80097 14.9113 9.67147 15.0408 9.51172 15.0408C9.35198 15.0408 9.22248 14.9113 9.22248 14.7515C9.22248 14.5918 9.35198 14.4623 9.51172 14.4623C9.67147 14.4623 9.80097 14.5918 9.80097 14.7515Z" fill="white"/>
<path d="M10.1866 13.8517C10.1866 14.0114 10.0571 14.1409 9.89739 14.1409C9.73764 14.1409 9.60814 14.0114 9.60814 13.8517C9.60814 13.6919 9.73764 13.5624 9.89739 13.5624C10.0571 13.5624 10.1866 13.6919 10.1866 13.8517Z" fill="white"/>
<path d="M10.7651 13.0161C10.7651 13.1758 10.6356 13.3053 10.4759 13.3053C10.3161 13.3053 10.1866 13.1758 10.1866 13.0161C10.1866 12.8563 10.3161 12.7268 10.4759 12.7268C10.6356 12.7268 10.7651 12.8563 10.7651 13.0161Z" fill="white"/>
<path d="M11.3436 12.2447C11.3436 12.4045 11.2141 12.534 11.0544 12.534C10.8946 12.534 10.7651 12.4045 10.7651 12.2447C10.7651 12.085 10.8946 11.9555 11.0544 11.9555C11.2141 11.9555 11.3436 12.085 11.3436 12.2447Z" fill="white"/>
<path d="M12.0507 11.602C12.0507 11.7617 11.9212 11.8912 11.7614 11.8912C11.6017 11.8912 11.4722 11.7617 11.4722 11.602C11.4722 11.4422 11.6017 11.3127 11.7614 11.3127C11.9212 11.3127 12.0507 11.4422 12.0507 11.602Z" fill="white"/>
<path d="M12.822 11.0235C12.822 11.1832 12.6925 11.3127 12.5327 11.3127C12.373 11.3127 12.2435 11.1832 12.2435 11.0235C12.2435 10.8637 12.373 10.7342 12.5327 10.7342C12.6925 10.7342 12.822 10.8637 12.822 11.0235Z" fill="white"/>
<path d="M13.7219 10.5093C13.7219 10.669 13.5924 10.7985 13.4326 10.7985C13.2729 10.7985 13.1434 10.669 13.1434 10.5093C13.1434 10.3495 13.2729 10.22 13.4326 10.22C13.5924 10.22 13.7219 10.3495 13.7219 10.5093Z" fill="white"/>
<path d="M14.6217 10.1879C14.6217 10.3476 14.4922 10.4771 14.3325 10.4771C14.1727 10.4771 14.0432 10.3476 14.0432 10.1879C14.0432 10.0281 14.1727 9.89864 14.3325 9.89864C14.4922 9.89864 14.6217 10.0281 14.6217 10.1879Z" fill="white"/>
<path d="M15.5216 9.93078C15.5216 10.0905 15.3921 10.22 15.2324 10.22C15.0726 10.22 14.9431 10.0905 14.9431 9.93078C14.9431 9.77103 15.0726 9.64153 15.2324 9.64153C15.3921 9.64153 15.5216 9.77103 15.5216 9.93078Z" fill="white"/>
<path d="M16.55 9.80223C16.55 9.96197 16.4205 10.0915 16.2608 10.0915C16.1011 10.0915 15.9716 9.96197 15.9716 9.80223C15.9716 9.64248 16.1011 9.51298 16.2608 9.51298C16.4205 9.51298 16.55 9.64248 16.55 9.80223Z" fill="white"/>
<path d="M17.5142 9.73795C17.5142 9.8977 17.3847 10.0272 17.225 10.0272C17.0652 10.0272 16.9357 9.8977 16.9357 9.73795C16.9357 9.5782 17.0652 9.4487 17.225 9.4487C17.3847 9.4487 17.5142 9.5782 17.5142 9.73795Z" fill="white"/>
<path d="M18.4784 9.8665C18.4784 10.0262 18.3489 10.1557 18.1891 10.1557C18.0294 10.1557 17.8999 10.0262 17.8999 9.8665C17.8999 9.70676 18.0294 9.57726 18.1891 9.57726C18.3489 9.57726 18.4784 9.70676 18.4784 9.8665Z" fill="white"/>
<path d="M19.4425 10.0593C19.4425 10.2191 19.313 10.3486 19.1533 10.3486C18.9935 10.3486 18.864 10.2191 18.864 10.0593C18.864 9.89959 18.9935 9.77009 19.1533 9.77009C19.313 9.77009 19.4425 9.89959 19.4425 10.0593Z" fill="white"/>
<path d="M20.4067 10.3807C20.4067 10.5405 20.2772 10.67 20.1174 10.67C19.9577 10.67 19.8282 10.5405 19.8282 10.3807C19.8282 10.221 19.9577 10.0915 20.1174 10.0915C20.2772 10.0915 20.4067 10.221 20.4067 10.3807Z" fill="white"/>
<path d="M21.3065 10.8949C21.3065 11.0547 21.177 11.1842 21.0173 11.1842C20.8575 11.1842 20.728 11.0547 20.728 10.8949C20.728 10.7352 20.8575 10.6057 21.0173 10.6057C21.177 10.6057 21.3065 10.7352 21.3065 10.8949Z" fill="white"/>
<path d="M22.1421 11.4091C22.1421 11.5689 22.0126 11.6984 21.8529 11.6984C21.6931 11.6984 21.5636 11.5689 21.5636 11.4091C21.5636 11.2494 21.6931 11.1199 21.8529 11.1199C22.0126 11.1199 22.1421 11.2494 22.1421 11.4091Z" fill="white"/>
<path d="M22.9777 12.0519C22.9777 12.2117 22.8482 12.3412 22.6885 12.3412C22.5287 12.3412 22.3992 12.2117 22.3992 12.0519C22.3992 11.8922 22.5287 11.7627 22.6885 11.7627C22.8482 11.7627 22.9777 11.8922 22.9777 12.0519Z" fill="white"/>
<path d="M23.6848 12.759C23.6848 12.9187 23.5553 13.0482 23.3955 13.0482C23.2358 13.0482 23.1063 12.9187 23.1063 12.759C23.1063 12.5992 23.2358 12.4697 23.3955 12.4697C23.5553 12.4697 23.6848 12.5992 23.6848 12.759Z" fill="white"/>
<path d="M24.3276 13.5946C24.3276 13.7543 24.1981 13.8838 24.0383 13.8838C23.8786 13.8838 23.7491 13.7543 23.7491 13.5946C23.7491 13.4348 23.8786 13.3053 24.0383 13.3053C24.1981 13.3053 24.3276 13.4348 24.3276 13.5946Z" fill="white"/>
<path d="M24.906 14.4944C24.906 14.6542 24.7765 14.7837 24.6168 14.7837C24.457 14.7837 24.3276 14.6542 24.3276 14.4944C24.3276 14.3347 24.457 14.2052 24.6168 14.2052C24.7765 14.2052 24.906 14.3347 24.906 14.4944Z" fill="white"/>
<path d="M25.356 15.3943C25.356 15.5541 25.2265 15.6836 25.0667 15.6836C24.907 15.6836 24.7775 15.5541 24.7775 15.3943C24.7775 15.2346 24.907 15.1051 25.0667 15.1051C25.2265 15.1051 25.356 15.2346 25.356 15.3943Z" fill="white"/>
<path d="M25.6774 16.3585C25.6774 16.5182 25.5479 16.6477 25.3881 16.6477C25.2284 16.6477 25.0989 16.5182 25.0989 16.3585C25.0989 16.1987 25.2284 16.0692 25.3881 16.0692C25.5479 16.0692 25.6774 16.1987 25.6774 16.3585Z" fill="white"/>
<path d="M25.9345 17.3869C25.9345 17.5466 25.805 17.6761 25.6452 17.6761C25.4855 17.6761 25.356 17.5466 25.356 17.3869C25.356 17.2272 25.4855 17.0977 25.6452 17.0977C25.805 17.0977 25.9345 17.2272 25.9345 17.3869Z" fill="white"/>
<path d="M26.063 18.4153C26.063 18.5751 25.9335 18.7046 25.7738 18.7046C25.614 18.7046 25.4845 18.5751 25.4845 18.4153C25.4845 18.2556 25.614 18.1261 25.7738 18.1261C25.9335 18.1261 26.063 18.2556 26.063 18.4153Z" fill="white"/>
<path d="M26.063 19.4438C26.063 19.6035 25.9335 19.733 25.7738 19.733C25.614 19.733 25.4845 19.6035 25.4845 19.4438C25.4845 19.284 25.614 19.1545 25.7738 19.1545C25.9335 19.1545 26.063 19.284 26.063 19.4438Z" fill="white"/>
<path d="M25.9987 20.4722C25.9987 20.6319 25.8692 20.7614 25.7095 20.7614C25.5498 20.7614 25.4203 20.6319 25.4203 20.4722C25.4203 20.3124 25.5498 20.1829 25.7095 20.1829C25.8692 20.1829 25.9987 20.3124 25.9987 20.4722Z" fill="white"/>
<path d="M25.7416 21.4363C25.7416 21.5961 25.6121 21.7256 25.4524 21.7256C25.2926 21.7256 25.1632 21.5961 25.1632 21.4363C25.1632 21.2766 25.2926 21.1471 25.4524 21.1471C25.6121 21.1471 25.7416 21.2766 25.7416 21.4363Z" fill="white"/>
<path d="M25.4203 22.4005C25.4203 22.5602 25.2908 22.6897 25.131 22.6897C24.9713 22.6897 24.8418 22.5602 24.8418 22.4005C24.8418 22.2408 24.9713 22.1113 25.131 22.1113C25.2908 22.1113 25.4203 22.2408 25.4203 22.4005Z" fill="white"/>
<path d="M24.9703 23.3004C24.9703 23.4601 24.8408 23.5896 24.6811 23.5896C24.5213 23.5896 24.3918 23.4601 24.3918 23.3004C24.3918 23.1406 24.5213 23.0111 24.6811 23.0111C24.8408 23.0111 24.9703 23.1406 24.9703 23.3004Z" fill="white"/>
<path d="M24.4561 24.136C24.4561 24.2957 24.3266 24.4252 24.1669 24.4252C24.0071 24.4252 23.8776 24.2957 23.8776 24.136C23.8776 23.9762 24.0071 23.8467 24.1669 23.8467C24.3266 23.8467 24.4561 23.9762 24.4561 24.136Z" fill="white"/>
<path d="M23.8776 24.9073C23.8776 25.067 23.7481 25.1965 23.5884 25.1965C23.4286 25.1965 23.2991 25.067 23.2991 24.9073C23.2991 24.7476 23.4286 24.6181 23.5884 24.6181C23.7481 24.6181 23.8776 24.7476 23.8776 24.9073Z" fill="white"/>
<path d="M23.1706 25.5501C23.1706 25.7098 23.0411 25.8393 22.8813 25.8393C22.7216 25.8393 22.5921 25.7098 22.5921 25.5501C22.5921 25.3903 22.7216 25.2608 22.8813 25.2608C23.0411 25.2608 23.1706 25.3903 23.1706 25.5501Z" fill="white"/>
<path d="M22.3992 26.1286C22.3992 26.2883 22.2697 26.4178 22.11 26.4178C21.9502 26.4178 21.8208 26.2883 21.8208 26.1286C21.8208 25.9688 21.9502 25.8393 22.11 25.8393C22.2697 25.8393 22.3992 25.9688 22.3992 26.1286Z" fill="white"/>
<path d="M21.4994 26.6428C21.4994 26.8025 21.3699 26.932 21.2101 26.932C21.0504 26.932 20.9209 26.8025 20.9209 26.6428C20.9209 26.483 21.0504 26.3535 21.2101 26.3535C21.3699 26.3535 21.4994 26.483 21.4994 26.6428Z" fill="white"/>
<path d="M20.5995 26.9642C20.5995 27.1239 20.47 27.2534 20.3102 27.2534C20.1505 27.2534 20.021 27.1239 20.021 26.9642C20.021 26.8044 20.1505 26.6749 20.3102 26.6749C20.47 26.6749 20.5995 26.8044 20.5995 26.9642Z" fill="white"/>
<path d="M19.6996 27.2213C19.6996 27.381 19.5701 27.5105 19.4104 27.5105C19.2506 27.5105 19.1211 27.381 19.1211 27.2213C19.1211 27.0615 19.2506 26.932 19.4104 26.932C19.5701 26.932 19.6996 27.0615 19.6996 27.2213Z" fill="white"/>
<path d="M17.707 27.4141C17.707 27.5738 17.5775 27.7033 17.4178 27.7033C17.258 27.7033 17.1285 27.5738 17.1285 27.4141C17.1285 27.2543 17.258 27.1248 17.4178 27.1248C17.5775 27.1248 17.707 27.2543 17.707 27.4141Z" fill="white"/>
<path d="M16.7429 27.2855C16.7429 27.4453 16.6134 27.5748 16.4536 27.5748C16.2939 27.5748 16.1644 27.4453 16.1644 27.2855C16.1644 27.1258 16.2939 26.9963 16.4536 26.9963C16.6134 26.9963 16.7429 27.1258 16.7429 27.2855Z" fill="white"/>
<path d="M15.7787 27.0927C15.7787 27.2525 15.6492 27.382 15.4895 27.382C15.3297 27.382 15.2002 27.2525 15.2002 27.0927C15.2002 26.933 15.3297 26.8035 15.4895 26.8035C15.6492 26.8035 15.7787 26.933 15.7787 27.0927Z" fill="white"/>
<path d="M14.8146 26.707C14.8146 26.8668 14.6851 26.9963 14.5253 26.9963C14.3656 26.9963 14.2361 26.8668 14.2361 26.707C14.2361 26.5473 14.3656 26.4178 14.5253 26.4178C14.6851 26.4178 14.8146 26.5473 14.8146 26.707Z" fill="white"/>
<path d="M13.9147 26.2571C13.9147 26.4169 13.7852 26.5464 13.6254 26.5464C13.4657 26.5464 13.3362 26.4169 13.3362 26.2571C13.3362 26.0974 13.4657 25.9679 13.6254 25.9679C13.7852 25.9679 13.9147 26.0974 13.9147 26.2571Z" fill="white"/>
<path d="M13.0148 25.7429C13.0148 25.9026 12.8853 26.0321 12.7256 26.0321C12.5658 26.0321 12.4363 25.9026 12.4363 25.7429C12.4363 25.5832 12.5658 25.4537 12.7256 25.4537C12.8853 25.4537 13.0148 25.5832 13.0148 25.7429Z" fill="white"/>
<path d="M12.2435 25.1001C12.2435 25.2599 12.114 25.3894 11.9542 25.3894C11.7945 25.3894 11.665 25.2599 11.665 25.1001C11.665 24.9404 11.7945 24.8109 11.9542 24.8109C12.114 24.8109 12.2435 24.9404 12.2435 25.1001Z" fill="white"/>
<path d="M11.5364 24.3288C11.5364 24.4886 11.4069 24.6181 11.2472 24.6181C11.0875 24.6181 10.958 24.4886 10.958 24.3288C10.958 24.1691 11.0875 24.0396 11.2472 24.0396C11.4069 24.0396 11.5364 24.1691 11.5364 24.3288Z" fill="white"/>
<path d="M10.8937 23.5575C10.8937 23.7172 10.7642 23.8467 10.6044 23.8467C10.4447 23.8467 10.3152 23.7172 10.3152 23.5575C10.3152 23.3977 10.4447 23.2682 10.6044 23.2682C10.7642 23.2682 10.8937 23.3977 10.8937 23.5575Z" fill="white"/>
<path d="M10.3152 22.6576C10.3152 22.8174 10.1857 22.9469 10.0259 22.9469C9.86619 22.9469 9.73669 22.8174 9.73669 22.6576C9.73669 22.4979 9.86619 22.3684 10.0259 22.3684C10.1857 22.3684 10.3152 22.4979 10.3152 22.6576Z" fill="white"/>
<path d="M9.86525 21.6935C9.86525 21.8532 9.73575 21.9827 9.576 21.9827C9.41626 21.9827 9.28676 21.8532 9.28676 21.6935C9.28676 21.5337 9.41626 21.4042 9.576 21.4042C9.73575 21.4042 9.86525 21.5337 9.86525 21.6935Z" fill="white"/>
<path d="M9.54386 20.7293C9.54386 20.889 9.41436 21.0185 9.25462 21.0185C9.09487 21.0185 8.96537 20.889 8.96537 20.7293C8.96537 20.5696 9.09487 20.4401 9.25462 20.4401C9.41436 20.4401 9.54386 20.5696 9.54386 20.7293Z" fill="white"/>
<path d="M9.28676 19.7009C9.28676 19.8606 9.15726 19.9901 8.99751 19.9901C8.83776 19.9901 8.70826 19.8606 8.70826 19.7009C8.70826 19.5411 8.83776 19.4116 8.99751 19.4116C9.15726 19.4116 9.28676 19.5411 9.28676 19.7009Z" fill="white"/>
<path d="M9.1582 18.7367C9.1582 18.8965 9.0287 19.026 8.86896 19.026C8.70921 19.026 8.57971 18.8965 8.57971 18.7367C8.57971 18.577 8.70921 18.4475 8.86896 18.4475C9.0287 18.4475 9.1582 18.577 9.1582 18.7367Z" fill="white"/>
<path d="M9.1582 17.7083C9.1582 17.868 9.0287 17.9975 8.86896 17.9975C8.70921 17.9975 8.57971 17.868 8.57971 17.7083C8.57971 17.5485 8.70921 17.419 8.86896 17.419C9.0287 17.419 9.1582 17.5485 9.1582 17.7083Z" fill="white"/>
<path d="M9.22248 16.6799C9.22248 16.8396 9.09298 16.9691 8.93323 16.9691C8.77349 16.9691 8.64399 16.8396 8.64399 16.6799C8.64399 16.5201 8.77349 16.3906 8.93323 16.3906C9.09298 16.3906 9.22248 16.5201 9.22248 16.6799Z" fill="white"/>
<path d="M9.47959 15.6514C9.47959 15.8112 9.35009 15.9407 9.19034 15.9407C9.03059 15.9407 8.90109 15.8112 8.90109 15.6514C8.90109 15.4917 9.03059 15.3622 9.19034 15.3622C9.35009 15.3622 9.47959 15.4917 9.47959 15.6514Z" fill="white"/>
<path d="M18.7355 27.3498C18.7355 27.5096 18.606 27.6391 18.4462 27.6391C18.2865 27.6391 18.157 27.5096 18.157 27.3498C18.157 27.1901 18.2865 27.0606 18.4462 27.0606C18.606 27.0606 18.7355 27.1901 18.7355 27.3498Z" fill="white"/>
<path d="M40.5886 2.79688H39.7891V29.9813H40.5886V2.79688Z" fill="white"/>
<path d="M51.5665 3.19578C51.3674 3.48021 51.1057 3.71629 50.7815 3.90401C50.4572 4.09173 50.1301 4.18559 49.8002 4.18559C49.6921 4.32212 49.6125 4.45295 49.5613 4.5781C49.5158 4.70325 49.493 4.84831 49.493 5.01328V7.76939C49.493 8.17896 49.402 8.52312 49.22 8.80186C49.0436 9.0806 48.7677 9.33658 48.3923 9.56981L48.2131 9.36503C48.361 9.1773 48.435 8.90141 48.435 8.53734V5.50818C48.435 5.26926 48.5089 5.03888 48.6568 4.81702C48.8104 4.58948 48.9981 4.379 49.22 4.18559L48.0851 4.17706C47.8917 4.17706 47.7154 4.21972 47.5561 4.30505C47.3968 4.39038 47.246 4.52122 47.1038 4.69756L46.9161 4.51837C47.1835 4.16568 47.4565 3.88694 47.7353 3.68215C48.0197 3.47737 48.3411 3.37497 48.6995 3.37497H49.9623C50.2354 3.37497 50.5113 3.35222 50.79 3.30671C51.0688 3.25551 51.2792 3.16734 51.4215 3.04219L51.5665 3.19578ZM52.8242 7.27448H52.8584C52.9835 6.72269 53.1883 6.21356 53.4727 5.7471C53.7572 5.28064 54.107 5.04741 54.5223 5.04741C54.7157 5.04741 54.8579 5.10714 54.9489 5.2266C55.0456 5.34606 55.1054 5.48827 55.1281 5.65324C55.1509 5.81252 55.1622 6.00878 55.1622 6.24201V8.6056C55.1622 8.67387 55.1821 8.73928 55.222 8.80186C55.2675 8.85874 55.33 8.88719 55.4097 8.88719C55.5462 8.88719 55.6884 8.78764 55.8363 8.58854L55.9814 8.75066C55.8847 8.94407 55.7453 9.10904 55.5633 9.24557C55.3812 9.38209 55.1821 9.45035 54.966 9.45035C54.4256 9.45035 54.1554 9.15171 54.1554 8.55441V6.3188C54.1554 6.24485 54.1411 6.17943 54.1127 6.12255C54.0899 6.05997 54.0473 6.02869 53.9847 6.02869C53.7458 6.02869 53.5382 6.22779 53.3618 6.62598C53.1912 7.02418 53.0575 7.48496 52.9608 8.0083C52.8697 8.53165 52.8242 8.95545 52.8242 9.2797L51.8003 9.50155V1.86466L52.8242 1.50628V7.27448ZM58.9509 5.04741C59.2808 5.04741 59.5567 5.13274 59.7786 5.30339C60.0004 5.46836 60.1114 5.71013 60.1114 6.02869C60.1114 6.28467 59.972 6.57194 59.6932 6.8905C59.4202 7.20337 59.0931 7.49633 58.712 7.76939C58.3365 8.03675 58.0151 8.23016 57.7478 8.34962C57.9867 8.73075 58.3365 8.92132 58.7973 8.92132C59.0533 8.92132 59.3093 8.85021 59.5652 8.708C59.8269 8.5601 60.0488 8.36668 60.2308 8.12776L60.4015 8.33255C60.1057 8.70231 59.7928 8.98958 59.4629 9.19437C59.1386 9.39347 58.7518 9.49302 58.3024 9.49302C57.9383 9.49302 57.6112 9.41053 57.3211 9.24557C57.0367 9.0806 56.812 8.8559 56.647 8.57147C56.4877 8.28136 56.4081 7.95711 56.4081 7.59873C56.4081 7.1664 56.5247 6.75398 56.7579 6.36147C56.9969 5.96327 57.3126 5.64471 57.7051 5.40579C58.0976 5.16687 58.5129 5.04741 58.9509 5.04741ZM58.4645 5.60204C58.2483 5.60204 58.0549 5.68168 57.8843 5.84096C57.7136 5.99455 57.5799 6.19365 57.4832 6.43826C57.3865 6.68287 57.3382 6.93601 57.3382 7.19768C57.3382 7.539 57.4121 7.83196 57.56 8.07657C57.7705 7.95711 57.9924 7.79214 58.2256 7.58166C58.4645 7.3655 58.6636 7.13511 58.8229 6.8905C58.9822 6.64589 59.0618 6.42404 59.0618 6.22494C59.0618 6.02584 59.0078 5.87225 58.8997 5.76417C58.7973 5.65608 58.6522 5.60204 58.4645 5.60204ZM50.7986 13.1617C51.1797 13.1617 51.4869 13.264 51.7201 13.4688C51.9533 13.6736 52.0699 13.9438 52.0699 14.2795C52.0699 14.5525 51.9932 14.8284 51.8396 15.1071C51.686 15.3802 51.4783 15.622 51.2167 15.8324C50.9607 16.0429 50.6763 16.1908 50.3634 16.2761L50.2354 16.0543C50.48 15.9405 50.6763 15.767 50.8242 15.5338C50.9777 15.2949 51.0545 15.0389 51.0545 14.7658C51.0545 14.4416 50.9664 14.1827 50.79 13.9893C50.6137 13.7902 50.3833 13.6907 50.0989 13.6907C49.7974 13.6907 49.5129 13.813 49.2456 14.0576C48.9839 14.2965 48.7734 14.6208 48.6141 15.0303C48.4606 15.4342 48.3838 15.8694 48.3838 16.3359C48.3838 16.8137 48.4577 17.2375 48.6056 17.6073C48.7535 17.9713 48.9583 18.2558 49.22 18.4605C49.4873 18.6653 49.7917 18.7677 50.133 18.7677C50.3776 18.7677 50.6222 18.708 50.8668 18.5885C51.1171 18.4634 51.3589 18.2842 51.5921 18.051L51.8225 18.2643C51.5551 18.6113 51.2224 18.9014 50.8242 19.1346C50.4316 19.3622 50.0192 19.476 49.5869 19.476C49.1204 19.476 48.7109 19.3679 48.3582 19.1517C48.0112 18.9355 47.7438 18.6369 47.5561 18.2558C47.3684 17.8689 47.2745 17.4281 47.2745 16.9332C47.2745 16.2392 47.4309 15.6049 47.7438 15.0303C48.0624 14.4501 48.489 13.995 49.0237 13.6651C49.5641 13.3295 50.1557 13.1617 50.7986 13.1617ZM54.5856 15.2266C54.2102 15.494 53.9144 15.7983 53.6982 16.1396C53.4877 16.4752 53.3825 16.8706 53.3825 17.3257C53.3825 17.576 53.4308 17.8291 53.5275 18.0851C53.6242 18.3411 53.7665 18.5544 53.9542 18.7251C54.1419 18.89 54.3666 18.9725 54.6283 18.9725C54.9582 18.9725 55.2227 18.8531 55.4218 18.6141C55.6266 18.3752 55.729 18.0794 55.729 17.7267C55.729 17.4594 55.6579 17.1892 55.5157 16.9161C55.3792 16.6374 55.1943 16.4041 54.961 16.2164C54.7278 16.023 54.4775 15.9149 54.2102 15.8922C54.3296 15.7613 54.4576 15.6419 54.5941 15.5338C54.7363 15.4257 54.9127 15.2949 55.1232 15.1413C55.5327 15.2778 55.857 15.5309 56.0959 15.9007C56.3405 16.2704 56.4628 16.6772 56.4628 17.1209C56.4628 17.5134 56.3747 17.8945 56.1983 18.2643C56.0277 18.634 55.7774 18.9355 55.4474 19.1688C55.1232 19.3963 54.7449 19.5101 54.3126 19.5101C53.9542 19.5101 53.6242 19.4276 53.3227 19.2626C53.0269 19.092 52.7909 18.8616 52.6145 18.5715C52.4382 18.2757 52.35 17.9514 52.35 17.5987C52.35 16.9901 52.5406 16.4553 52.9217 15.9946C53.3085 15.5338 53.8091 15.2124 54.4235 15.0303L54.5856 15.2266ZM59.3437 15.2266C58.9682 15.494 58.6724 15.7983 58.4562 16.1396C58.2458 16.4752 58.1405 16.8706 58.1405 17.3257C58.1405 17.576 58.1889 17.8291 58.2856 18.0851C58.3823 18.3411 58.5245 18.5544 58.7122 18.7251C58.9 18.89 59.1247 18.9725 59.3863 18.9725C59.7163 18.9725 59.9808 18.8531 60.1799 18.6141C60.3847 18.3752 60.4871 18.0794 60.4871 17.7267C60.4871 17.4594 60.416 17.1892 60.2737 16.9161C60.1372 16.6374 59.9523 16.4041 59.7191 16.2164C59.4859 16.023 59.2356 15.9149 58.9682 15.8922C59.0877 15.7613 59.2157 15.6419 59.3522 15.5338C59.4944 15.4257 59.6708 15.2949 59.8812 15.1413C60.2908 15.2778 60.6151 15.5309 60.854 15.9007C61.0986 16.2704 61.2209 16.6772 61.2209 17.1209C61.2209 17.5134 61.1327 17.8945 60.9564 18.2643C60.7857 18.634 60.5354 18.9355 60.2055 19.1688C59.8812 19.3963 59.5029 19.5101 59.0706 19.5101C58.7122 19.5101 58.3823 19.4276 58.0808 19.2626C57.785 19.092 57.5489 18.8616 57.3726 18.5715C57.1962 18.2757 57.1081 17.9514 57.1081 17.5987C57.1081 16.9901 57.2986 16.4553 57.6798 15.9946C58.0666 15.5338 58.5672 15.2124 59.1815 15.0303L59.3437 15.2266ZM63.2228 17.283C63.3992 16.8791 63.6068 16.5435 63.8457 16.2761L63.8201 16.242C63.6267 16.3558 63.3935 16.4127 63.1204 16.4127C62.9441 16.4127 62.782 16.3842 62.6341 16.3273L62.0794 17.5134L61.7296 17.3598L62.3013 16.1823C62.2842 16.1652 62.2302 16.1169 62.1392 16.0372C62.0482 15.9576 61.9913 15.8779 61.9685 15.7983L62.7877 14.8768C62.8502 15.11 62.9697 15.3148 63.146 15.4911C63.3281 15.6618 63.53 15.7471 63.7519 15.7471C64.0989 15.7471 64.4629 15.622 64.8441 15.3717L64.9977 15.5338C64.6677 15.841 64.3861 16.205 64.1529 16.626C63.9197 17.0469 63.8031 17.4707 63.8031 17.8974C63.8031 18.1591 63.8685 18.3781 63.9993 18.5544C64.1359 18.7308 64.3321 18.8189 64.5881 18.8189C64.7587 18.8189 64.9408 18.7564 65.1342 18.6312L65.2622 18.7848C65.0972 18.9953 64.8981 19.1631 64.6649 19.2882C64.4373 19.4134 64.1984 19.476 63.9481 19.476C63.6353 19.476 63.3935 19.3736 63.2228 19.1688C63.0522 18.9583 62.9669 18.6938 62.9669 18.3752C62.9669 18.0453 63.0522 17.6812 63.2228 17.283ZM69.5811 18.5715C69.5811 18.6511 69.5981 18.7222 69.6323 18.7848C69.6721 18.8417 69.729 18.8701 69.8029 18.8701C69.8769 18.8701 69.9508 18.8388 70.0248 18.7763C70.1044 18.7137 70.1641 18.6454 70.204 18.5715L70.3917 18.7336C70.2893 18.9327 70.1471 19.1034 69.965 19.2456C69.7887 19.3821 69.5981 19.4504 69.3933 19.4504C69.0975 19.4504 68.8842 19.3707 68.7534 19.2114C68.6225 19.0465 68.56 18.7962 68.5657 18.4605H68.523C68.3922 18.7564 68.2215 19.0038 68.011 19.2029C67.8006 19.3963 67.5474 19.493 67.2516 19.493C66.9387 19.493 66.6714 19.4134 66.4495 19.2541C66.2277 19.0948 66.0599 18.8815 65.9461 18.6141C65.8323 18.3411 65.7754 18.0396 65.7754 17.7097C65.7754 17.2887 65.8608 16.8763 66.0314 16.4724C66.2078 16.0628 66.4609 15.7272 66.7908 15.4655C67.1208 15.2038 67.5047 15.073 67.9428 15.073C68.1646 15.073 68.3666 15.127 68.5486 15.2351V11.8647L69.5811 11.5063V18.5715ZM67.9257 15.6191C67.6526 15.6191 67.4251 15.713 67.2431 15.9007C67.0667 16.0827 66.9359 16.3103 66.8506 16.5833C66.7652 16.8507 66.7226 17.1152 66.7226 17.3769C66.7226 17.7296 66.7908 18.0652 66.9274 18.3837C67.0696 18.7023 67.2914 18.8616 67.5929 18.8616C67.957 18.8616 68.2073 18.6767 68.3438 18.307C68.4803 17.9315 68.5486 17.5248 68.5486 17.0868V15.9007C68.3609 15.713 68.1532 15.6191 67.9257 15.6191ZM71.9507 14.2283L71.4131 14.3989L71.0633 12.6155L72.2493 12.2145L71.9507 14.2283ZM72.2237 18.6056C72.2237 18.6909 72.2436 18.7592 72.2834 18.8104C72.3233 18.8616 72.3773 18.8872 72.4456 18.8872C72.5878 18.8872 72.7328 18.7876 72.8807 18.5885L73.0343 18.7507C72.9092 18.9782 72.7471 19.1517 72.548 19.2712C72.3546 19.3906 72.1611 19.4504 71.9677 19.4504C71.4501 19.4504 71.1912 19.1517 71.1912 18.5544V15.4826L72.2237 15.1242V18.6056ZM76.8871 15.0474C77.0862 15.0474 77.2313 15.1071 77.3223 15.2266C77.4133 15.3404 77.4702 15.4769 77.4929 15.6362C77.5157 15.7898 77.5271 15.9889 77.5271 16.2335V18.6056C77.5271 18.6739 77.547 18.7393 77.5868 18.8019C77.6323 18.8587 77.6864 18.8872 77.7489 18.8872C77.8343 18.8872 77.9082 18.8616 77.9708 18.8104C78.039 18.7535 78.1102 18.6796 78.1841 18.5885L78.3292 18.7507C78.2268 18.9498 78.0846 19.1176 77.9025 19.2541C77.7262 19.3849 77.5356 19.4504 77.3308 19.4504C77.0578 19.4504 76.853 19.3736 76.7165 19.22C76.5799 19.0607 76.5117 18.8388 76.5117 18.5544V16.3188C76.5117 16.2392 76.5031 16.1709 76.4861 16.114C76.469 16.0571 76.4292 16.0287 76.3666 16.0287C76.1732 16.0287 75.9769 16.2363 75.7778 16.6516C75.5787 17.0612 75.4109 17.5333 75.2744 18.068C75.1379 18.6028 75.0696 19.0066 75.0696 19.2797L74.0713 19.5016V15.9178C74.0713 15.8324 74.0514 15.7613 74.0115 15.7044C73.9717 15.6476 73.9148 15.6191 73.8409 15.6191C73.7613 15.6191 73.6816 15.6532 73.602 15.7215C73.528 15.7841 73.4654 15.858 73.4142 15.9434L73.2607 15.7727C73.346 15.5736 73.4797 15.4029 73.6617 15.2607C73.8437 15.1185 74.04 15.0474 74.2505 15.0474C74.5349 15.0474 74.7425 15.127 74.8734 15.2863C75.0042 15.4399 75.0696 15.6561 75.0696 15.9348V17.5817H75.1038C75.2573 16.9502 75.4849 16.37 75.7864 15.841C76.0936 15.3119 76.4605 15.0474 76.8871 15.0474ZM81.1462 15.1242C81.4477 15.1242 81.7264 15.1839 81.9824 15.3034C82.2441 15.4229 82.4375 15.6077 82.5627 15.858L81.735 16.1993C81.6553 16.0514 81.5444 15.9291 81.4022 15.8324C81.26 15.7357 81.1092 15.6874 80.9499 15.6874C80.5688 15.6874 80.2673 15.8467 80.0455 16.1652C79.8236 16.4838 79.7127 16.882 79.7127 17.3598C79.7127 17.7978 79.7781 18.1591 79.9089 18.4435C80.0398 18.7222 80.2474 18.8616 80.5318 18.8616C80.93 18.8616 81.2031 18.6767 81.351 18.307C81.4989 17.9315 81.5728 17.5248 81.5728 17.0868V16.7113L82.5712 16.3529V18.5715C82.5712 18.6511 82.5883 18.7222 82.6224 18.7848C82.6622 18.8417 82.7191 18.8701 82.793 18.8701C82.9353 18.8701 83.0803 18.7706 83.2282 18.5715L83.3903 18.7336C83.305 18.9327 83.1685 19.1034 82.9808 19.2456C82.7987 19.3821 82.6025 19.4504 82.392 19.4504C82.1189 19.4504 81.9198 19.3593 81.7947 19.1773C81.6696 18.9896 81.607 18.7507 81.607 18.4605H81.5728C81.4363 18.7677 81.2543 19.018 81.0267 19.2114C80.7992 19.3992 80.5347 19.493 80.2332 19.493C79.7781 19.493 79.4254 19.3281 79.1751 18.9981C78.9305 18.6625 78.8082 18.2273 78.8082 17.6926C78.8082 17.2375 78.9049 16.8137 79.0983 16.4212C79.2974 16.0287 79.5733 15.7158 79.926 15.4826C80.2844 15.2437 80.6911 15.1242 81.1462 15.1242ZM85.2242 15.6874V18.6056C85.2242 18.6852 85.2469 18.7535 85.2924 18.8104C85.3379 18.8616 85.3977 18.8872 85.4716 18.8872C85.6081 18.8872 85.7617 18.7876 85.9324 18.5885L86.086 18.7507C85.9836 18.9555 85.8556 19.109 85.702 19.2114C85.5484 19.3138 85.4005 19.3821 85.2583 19.4162C85.1161 19.4504 85.045 19.4617 85.045 19.4504C84.4761 19.4504 84.1917 19.1517 84.1917 18.5544V15.6874H83.5859L83.8504 15.1242H84.1917V13.1872L85.2242 12.8374V15.1242H86.342L86.086 15.6874H85.2242ZM89.2075 15.0474C89.5374 15.0474 89.8133 15.1327 90.0352 15.3034C90.257 15.4684 90.3679 15.7101 90.3679 16.0287C90.3679 16.2847 90.2286 16.5719 89.9498 16.8905C89.6768 17.2034 89.3497 17.4963 88.9686 17.7694C88.5931 18.0367 88.2717 18.2302 88.0043 18.3496C88.2433 18.7308 88.5931 18.9213 89.0539 18.9213C89.3099 18.9213 89.5658 18.8502 89.8218 18.708C90.0835 18.5601 90.3054 18.3667 90.4874 18.1278L90.6581 18.3326C90.3622 18.7023 90.0494 18.9896 89.7194 19.1944C89.3952 19.3935 89.0084 19.493 88.559 19.493C88.1949 19.493 87.8678 19.4105 87.5777 19.2456C87.2933 19.0806 87.0686 18.8559 86.9036 18.5715C86.7443 18.2814 86.6647 17.9571 86.6647 17.5987C86.6647 17.1664 86.7813 16.754 87.0145 16.3615C87.2534 15.9633 87.5692 15.6447 87.9617 15.4058C88.3542 15.1669 88.7695 15.0474 89.2075 15.0474ZM88.7211 15.602C88.5049 15.602 88.3115 15.6817 88.1409 15.841C87.9702 15.9946 87.8365 16.1937 87.7398 16.4383C87.6431 16.6829 87.5948 16.936 87.5948 17.1977C87.5948 17.539 87.6687 17.832 87.8166 18.0766C88.0271 17.9571 88.2489 17.7921 88.4822 17.5817C88.7211 17.3655 88.9202 17.1351 89.0795 16.8905C89.2388 16.6459 89.3184 16.424 89.3184 16.2249C89.3184 16.0258 89.2644 15.8723 89.1563 15.7642C89.0539 15.6561 88.9088 15.602 88.7211 15.602ZM95.0546 18.5715C95.0546 18.6511 95.0717 18.7222 95.1058 18.7848C95.1456 18.8417 95.2025 18.8701 95.2765 18.8701C95.3504 18.8701 95.4244 18.8388 95.4983 18.7763C95.5779 18.7137 95.6377 18.6454 95.6775 18.5715L95.8652 18.7336C95.7628 18.9327 95.6206 19.1034 95.4386 19.2456C95.2622 19.3821 95.0717 19.4504 94.8669 19.4504C94.5711 19.4504 94.3578 19.3707 94.2269 19.2114C94.0961 19.0465 94.0335 18.7962 94.0392 18.4605H93.9965C93.8657 18.7564 93.695 19.0038 93.4846 19.2029C93.2741 19.3963 93.0209 19.493 92.7251 19.493C92.4123 19.493 92.1449 19.4134 91.923 19.2541C91.7012 19.0948 91.5334 18.8815 91.4196 18.6141C91.3058 18.3411 91.249 18.0396 91.249 17.7097C91.249 17.2887 91.3343 16.8763 91.5049 16.4724C91.6813 16.0628 91.9344 15.7272 92.2644 15.4655C92.5943 15.2038 92.9783 15.073 93.4163 15.073C93.6381 15.073 93.8401 15.127 94.0221 15.2351V11.8647L95.0546 11.5063V18.5715ZM93.3992 15.6191C93.1262 15.6191 92.8986 15.713 92.7166 15.9007C92.5403 16.0827 92.4094 16.3103 92.3241 16.5833C92.2388 16.8507 92.1961 17.1152 92.1961 17.3769C92.1961 17.7296 92.2644 18.0652 92.4009 18.3837C92.5431 18.7023 92.765 18.8616 93.0664 18.8616C93.4305 18.8616 93.6808 18.6767 93.8173 18.307C93.9539 17.9315 94.0221 17.5248 94.0221 17.0868V15.9007C93.8344 15.713 93.6268 15.6191 93.3992 15.6191ZM50.3975 22.1617C50.7218 22.1617 50.9891 22.2356 51.1996 22.3835C51.4158 22.5314 51.5238 22.7476 51.5238 23.032C51.5238 23.2823 51.4357 23.5184 51.2593 23.7402C51.0887 23.9564 50.8554 24.1441 50.5596 24.3034C50.2695 24.4627 49.9481 24.5793 49.5954 24.6532L49.5016 24.4229C49.8087 24.2806 50.0448 24.11 50.2098 23.9109C50.3748 23.7118 50.4572 23.4899 50.4572 23.2453C50.4572 23.069 50.406 22.9296 50.3037 22.8272C50.2069 22.7191 50.0676 22.6651 49.8855 22.6651C49.6296 22.6651 49.4134 22.739 49.237 22.8869C49.0607 23.0292 48.9299 23.214 48.8445 23.4416C48.7592 23.6634 48.7165 23.8938 48.7165 24.1327V26.7097C48.7165 26.8746 48.6909 27.0168 48.6397 27.1363C48.5942 27.2501 48.5174 27.3667 48.4094 27.4861L48.4606 27.5203C48.7165 27.361 48.9867 27.2814 49.2712 27.2814C49.4589 27.2814 49.6836 27.3041 49.9453 27.3496C49.9851 27.3553 50.0647 27.3667 50.1842 27.3837C50.3093 27.4008 50.4373 27.4093 50.5682 27.4093C50.7673 27.4093 50.9436 27.3582 51.0972 27.2558C51.2565 27.1534 51.4044 27.014 51.5409 26.8376L51.7457 26.9827L51.0545 28.476C50.7644 28.4532 50.3947 28.3963 49.9453 28.3053C49.6722 28.2541 49.4333 28.2143 49.2285 28.1858C49.0237 28.1574 48.8019 28.1432 48.563 28.1432C48.1818 28.1432 47.8348 28.2513 47.5219 28.4674L47.266 28.2285C47.3968 28.1204 47.4907 27.9953 47.5475 27.8531C47.6101 27.7052 47.6414 27.5146 47.6414 27.2814V24.969C47.6414 24.4456 47.7552 23.9706 47.9827 23.544C48.2159 23.1173 48.5402 22.7817 48.9555 22.5371C49.3764 22.2868 49.8571 22.1617 50.3975 22.1617ZM53.2184 23.2283L52.6808 23.3989L52.331 21.6155L53.5171 21.2145L53.2184 23.2283ZM53.4915 27.6056C53.4915 27.6909 53.5114 27.7592 53.5512 27.8104C53.591 27.8616 53.6451 27.8872 53.7133 27.8872C53.8555 27.8872 54.0006 27.7876 54.1485 27.5885L54.3021 27.7507C54.1769 27.9782 54.0148 28.1517 53.8157 28.2712C53.6223 28.3906 53.4289 28.4504 53.2355 28.4504C52.7178 28.4504 52.459 28.1517 52.459 27.5544V24.4826L53.4915 24.1242V27.6056ZM57.9586 23.8085C58.1975 23.8995 58.3824 24.0332 58.5132 24.2095C58.6441 24.3859 58.7095 24.585 58.7095 24.8068C58.7095 24.9263 58.6924 25.0571 58.6583 25.1993C58.6242 25.3359 58.5815 25.4553 58.5303 25.5577L57.0883 28.4248C57.0712 28.4589 57.0371 28.4873 56.9859 28.5101C56.9347 28.5328 56.8806 28.5442 56.8237 28.5442C56.7555 28.5442 56.6929 28.5328 56.636 28.5101C56.5848 28.4873 56.5507 28.4532 56.5336 28.4077L55.1086 25.2676C54.9835 25.0344 54.8498 24.9178 54.7076 24.9178C54.628 24.9178 54.5398 24.9746 54.4431 25.0884L54.3066 24.969C54.3748 24.7471 54.5113 24.5537 54.7161 24.3887C54.9209 24.2181 55.1456 24.1327 55.3902 24.1327C55.5438 24.1327 55.6718 24.2152 55.7742 24.3802C55.8823 24.5395 55.9847 24.7329 56.0814 24.9604L57.1907 27.4605L57.805 26.1977C57.9131 25.9701 57.9671 25.7796 57.9671 25.626C57.9671 25.4098 57.9103 25.2221 57.7965 25.0628C57.6827 24.9035 57.5234 24.7755 57.3186 24.6788L57.9586 23.8085ZM60.293 23.2283L59.7554 23.3989L59.4056 21.6155L60.5917 21.2145L60.293 23.2283ZM60.5661 27.6056C60.5661 27.6909 60.586 27.7592 60.6258 27.8104C60.6656 27.8616 60.7196 27.8872 60.7879 27.8872C60.9301 27.8872 61.0752 27.7876 61.2231 27.5885L61.3767 27.7507C61.2515 27.9782 61.0894 28.1517 60.8903 28.2712C60.6969 28.3906 60.5035 28.4504 60.3101 28.4504C59.7924 28.4504 59.5336 28.1517 59.5336 27.5544V24.4826L60.5661 24.1242V27.6056ZM65.2295 24.0474C65.4286 24.0474 65.5736 24.1071 65.6646 24.2266C65.7556 24.3404 65.8125 24.4769 65.8353 24.6362C65.858 24.7898 65.8694 24.9889 65.8694 25.2335V27.6056C65.8694 27.6739 65.8893 27.7393 65.9291 27.8019C65.9747 27.8587 66.0287 27.8872 66.0913 27.8872C66.1766 27.8872 66.2506 27.8616 66.3131 27.8104C66.3814 27.7535 66.4525 27.6796 66.5264 27.5885L66.6715 27.7507C66.5691 27.9498 66.4269 28.1176 66.2449 28.2541C66.0685 28.3849 65.878 28.4504 65.6732 28.4504C65.4001 28.4504 65.1953 28.3736 65.0588 28.22C64.9223 28.0607 64.854 27.8388 64.854 27.5544V25.3188C64.854 25.2392 64.8455 25.1709 64.8284 25.114C64.8113 25.0571 64.7715 25.0287 64.709 25.0287C64.5155 25.0287 64.3193 25.2363 64.1202 25.6516C63.9211 26.0612 63.7533 26.5333 63.6167 27.068C63.4802 27.6028 63.412 28.0066 63.412 28.2797L62.4136 28.5016V24.9178C62.4136 24.8324 62.3937 24.7613 62.3539 24.7044C62.3141 24.6476 62.2572 24.6191 62.1832 24.6191C62.1036 24.6191 62.024 24.6532 61.9443 24.7215C61.8704 24.7841 61.8078 24.858 61.7566 24.9434L61.603 24.7727C61.6883 24.5736 61.822 24.4029 62.004 24.2607C62.1861 24.1185 62.3823 24.0474 62.5928 24.0474C62.8772 24.0474 63.0849 24.127 63.2157 24.2863C63.3465 24.4399 63.412 24.6561 63.412 24.9348V26.5817H63.4461C63.5997 25.9502 63.8272 25.37 64.1287 24.841C64.4359 24.3119 64.8028 24.0474 65.2295 24.0474ZM69.4715 24.0474C69.7673 24.0474 70.046 24.1185 70.3077 24.2607C70.5751 24.4029 70.7742 24.602 70.905 24.858L70.0773 25.1993C69.992 25.0059 69.8782 24.858 69.736 24.7556C69.5995 24.6476 69.4487 24.5935 69.2838 24.5935C69.0391 24.5935 68.823 24.6874 68.6353 24.8751C68.4475 25.0571 68.3025 25.2847 68.2001 25.5577C68.1034 25.8308 68.055 26.0981 68.055 26.3598C68.055 26.7637 68.1261 27.1164 68.2683 27.4179C68.4106 27.7137 68.6381 27.8616 68.951 27.8616C69.3094 27.8616 69.5568 27.6739 69.6933 27.2984C69.8355 26.923 69.9067 26.5191 69.9067 26.0868V25.7113L70.9135 25.3529V27.9725C70.9135 28.4105 70.7998 28.8571 70.5722 29.3122C70.3447 29.7729 70.0375 30.1512 69.6507 30.447C69.2638 30.7485 68.8457 30.8993 68.3963 30.8993C68.0778 30.8993 67.8161 30.794 67.6113 30.5836L68.3366 29.8924C68.5186 30.1313 68.732 30.2508 68.9766 30.2508C69.3577 30.2508 69.608 30.1057 69.7275 29.8156C69.8526 29.5312 69.9152 29.1529 69.9152 28.6807L69.9067 28.0834C69.9067 27.8275 69.9294 27.6198 69.9749 27.4605H69.9067C69.7417 27.7677 69.5568 28.018 69.352 28.2114C69.1472 28.3992 68.8998 28.493 68.6097 28.493C68.1432 28.493 67.782 28.3309 67.526 28.0066C67.27 27.6824 67.142 27.2728 67.142 26.7779C67.142 26.3115 67.2387 25.8677 67.4321 25.4468C67.6312 25.0258 67.9071 24.6874 68.2598 24.4314C68.6182 24.1754 69.0221 24.0474 69.4715 24.0474Z" fill="white"/>
</svg>
