<svg width="70" height="70" viewBox="0 0 70 70" fill="none" xmlns="http://www.w3.org/2000/svg">
<path d="M1.96139e-09 35C0.000152588 13.125 6.25015 1.70805e-05 35 0C63.7498 -1.70804e-05 70 11.5625 70 35C70 60 59.3752 70 35 70C13.4375 70 -0.000187461 61.875 1.96139e-09 35Z" fill="#2F4C6C"/>
<path d="M21.2406 42.1144C21.6137 42.0375 21.9944 42 22.375 42H24.25V12.1875C19.885 13.0781 16.75 16.92 16.75 21.375V43.9219C18.0606 42.9337 19.6094 42.3094 21.2406 42.1144ZM54.25 45.75H22.375C19.2681 45.75 16.75 48.2681 16.75 51.375C16.75 54.4819 19.2681 57 22.375 57H44.875C50.0519 57 54.25 52.8019 54.25 47.625V45.75ZM54.25 21.375V42H28V12H37.375V31.4025C37.375 32.5706 38.8581 33.0713 39.5669 32.1431L42.0625 28.875L44.5581 32.1431C45.2669 33.0713 46.75 32.5706 46.75 31.4025V12.1894C51.0288 13.0575 54.25 16.8394 54.25 21.375Z" fill="white"/>
</svg>
