<svg width="223" height="314" viewBox="0 0 223 314" fill="none" xmlns="http://www.w3.org/2000/svg">
<g clip-path="url(#clip0_1968_2407)" filter="url(#filter0_dd_1968_2407)">
<rect width="220" height="311.328" transform="translate(1.5 1.33594)" fill="#2F4C6C"/>
<circle cx="0.0733709" cy="314.511" r="12.2531" fill="white"/>
<circle cx="31.9093" cy="314.511" r="12.2531" fill="white"/>
<circle cx="63.7452" cy="314.511" r="12.2531" fill="white"/>
<circle cx="95.5812" cy="314.511" r="12.2531" fill="white"/>
<circle cx="127.417" cy="314.511" r="12.2531" fill="white"/>
<circle cx="191.089" cy="314.511" r="12.2531" fill="white"/>
<circle cx="159.253" cy="314.511" r="12.2531" fill="white"/>
<circle cx="222.925" cy="314.511" r="12.2531" fill="white"/>
<g opacity="0.55">
<circle cx="0.0733709" cy="281.73" r="12.2531" fill="white"/>
<circle cx="31.9093" cy="281.73" r="12.2531" fill="white"/>
<circle cx="63.7452" cy="281.73" r="12.2531" fill="white"/>
<circle cx="95.5812" cy="281.73" r="12.2531" fill="white"/>
<circle cx="127.417" cy="281.73" r="12.2531" fill="white"/>
<circle cx="191.089" cy="281.73" r="12.2531" fill="white"/>
<circle cx="159.253" cy="281.73" r="12.2531" fill="white"/>
<circle cx="222.925" cy="281.73" r="12.2531" fill="white"/>
</g>
<g opacity="0.4">
<circle cx="0.0733709" cy="248.941" r="12.2531" fill="white"/>
<circle cx="31.9093" cy="248.941" r="12.2531" fill="white"/>
<circle cx="63.7452" cy="248.941" r="12.2531" fill="white"/>
<circle cx="95.5812" cy="248.941" r="12.2531" fill="white"/>
<circle cx="127.417" cy="248.941" r="12.2531" fill="white"/>
<circle cx="191.089" cy="248.941" r="12.2531" fill="white"/>
<circle cx="159.253" cy="248.941" r="12.2531" fill="white"/>
<circle cx="222.925" cy="248.941" r="12.2531" fill="white"/>
</g>
<g opacity="0.2">
<circle cx="0.0733709" cy="216.159" r="12.2531" fill="white"/>
<circle cx="31.9093" cy="216.159" r="12.2531" fill="white"/>
<circle cx="63.7452" cy="216.159" r="12.2531" fill="white"/>
<circle cx="95.5812" cy="216.159" r="12.2531" fill="white"/>
<circle cx="127.417" cy="216.159" r="12.2531" fill="white"/>
<circle cx="191.089" cy="216.159" r="12.2531" fill="white"/>
<circle cx="159.253" cy="216.159" r="12.2531" fill="white"/>
<circle cx="222.925" cy="216.159" r="12.2531" fill="white"/>
</g>
<g opacity="0.07">
<circle cx="0.0733709" cy="183.37" r="12.2531" fill="white"/>
<circle cx="31.9093" cy="183.37" r="12.2531" fill="white"/>
<circle cx="63.7452" cy="183.37" r="12.2531" fill="white"/>
<circle cx="95.5812" cy="183.37" r="12.2531" fill="white"/>
<circle cx="127.417" cy="183.37" r="12.2531" fill="white"/>
<circle cx="191.089" cy="183.37" r="12.2531" fill="white"/>
<circle cx="159.253" cy="183.37" r="12.2531" fill="white"/>
<circle cx="222.925" cy="183.37" r="12.2531" fill="white"/>
</g>
<g opacity="0.02">
<circle cx="0.0733709" cy="150.589" r="12.2531" fill="white"/>
<circle cx="31.9093" cy="150.589" r="12.2531" fill="white"/>
<circle cx="63.7452" cy="150.589" r="12.2531" fill="white"/>
<circle cx="95.5812" cy="150.589" r="12.2531" fill="white"/>
<circle cx="127.417" cy="150.589" r="12.2531" fill="white"/>
<circle cx="191.089" cy="150.589" r="12.2531" fill="white"/>
<circle cx="159.253" cy="150.589" r="12.2531" fill="white"/>
<circle cx="222.925" cy="150.589" r="12.2531" fill="white"/>
</g>
<path d="M40.7602 67.7159C42.0026 67.7159 43.0182 67.9722 43.807 68.485C44.5958 68.9977 44.9902 69.678 44.9902 70.526C44.9902 71.3739 44.6352 72.2219 43.9253 73.0698C43.2351 73.9178 42.328 74.6277 41.2039 75.1996C40.0996 75.7715 38.9657 76.087 37.8023 76.1461L37.3881 75.3771C38.4136 75.1207 39.2813 74.6178 39.9912 73.8685C40.7208 73.0994 41.0856 72.3106 41.0856 71.5021C41.0856 70.8711 40.8884 70.3682 40.494 69.9935C40.1194 69.6189 39.6066 69.4315 38.9559 69.4315C37.8121 69.4315 36.7768 69.8752 35.85 70.7626C34.9429 71.6303 34.2231 72.8332 33.6907 74.3713C33.178 75.8898 32.9216 77.6054 32.9216 79.5182C32.9216 81.786 33.2766 83.5805 33.9865 84.9018C34.7161 86.223 35.7415 86.8836 37.0628 86.8836C37.8713 86.8836 38.6502 86.578 39.3996 85.9666C40.1489 85.3356 40.7602 84.5172 41.2335 83.5115C41.7068 82.5058 41.9533 81.4705 41.973 80.4056L45.6705 79.252V91.291L42.0618 92.5038V84.0144H41.8843C41.3913 85.73 40.5532 87.0808 39.37 88.0668C38.1868 89.0331 36.8459 89.5162 35.3471 89.5162C34.0653 89.5162 32.9315 89.1908 31.9455 88.5401C30.9792 87.8696 30.22 86.9428 29.6678 85.7596C29.1354 84.5567 28.8692 83.1861 28.8692 81.648C28.8692 79.0844 29.3917 76.7476 30.4369 74.6376C31.5018 72.5078 32.9413 70.8218 34.7555 69.5794C36.5698 68.3371 38.5713 67.7159 40.7602 67.7159ZM62.385 86.4991C62.385 86.7949 62.454 87.0414 62.592 87.2386C62.7301 87.4161 62.9273 87.5048 63.1836 87.5048C63.578 87.5048 64.0611 87.1696 64.633 86.4991L65.1359 87.0315C64.6429 88.0372 64.0316 88.6978 63.3019 89.0134C62.5723 89.3092 62.0201 89.4571 61.6455 89.4571C60.9158 89.4571 60.3538 89.2894 59.9594 88.9542C59.5847 88.619 59.3087 88.0668 59.1312 87.2977C58.9734 86.5089 58.8945 85.4046 58.8945 83.9848V83.0974L58.7762 81.0564H58.6579C58.1846 83.1664 57.4747 85.1187 56.5281 86.9132C55.6013 88.7077 54.3787 89.605 52.8602 89.605C52.1898 89.605 51.6869 89.4472 51.3517 89.1317C51.0362 88.7964 50.8291 88.3527 50.7305 87.8006C50.6516 87.2484 50.6122 86.4892 50.6122 85.5229V77.2997C50.6122 76.9645 50.5432 76.7082 50.4051 76.5307C50.2671 76.3335 50.0797 76.2349 49.8431 76.2349C49.3698 76.2349 48.867 76.5898 48.3345 77.2997L47.8317 76.7377C48.1669 76.0081 48.5909 75.4559 49.1036 75.0813C49.6163 74.7066 50.06 74.4699 50.4347 74.3713C50.8291 74.2727 51.0855 74.2234 51.2038 74.2234C52.2687 74.2234 53.0279 74.5192 53.4814 75.1108C53.935 75.6827 54.1618 76.4124 54.1618 77.2997V85.1976C54.1618 85.5525 54.2012 85.8286 54.2801 86.0258C54.3787 86.223 54.497 86.3216 54.635 86.3216C55.345 86.3216 56.0056 85.6117 56.6169 84.1918C57.2282 82.7523 57.7212 81.1254 58.0959 79.3112C58.4706 77.4772 58.6579 76.1461 58.6579 75.3179L62.385 74.0755V86.4991ZM70.5897 71.3542L68.7261 71.9458L67.5134 65.7636L71.625 64.3734L70.5897 71.3542ZM71.5362 86.5287C71.5362 86.8245 71.6052 87.0611 71.7433 87.2386C71.8813 87.4161 72.0687 87.5048 72.3053 87.5048C72.7983 87.5048 73.3011 87.1597 73.8139 86.4695L74.3463 87.0315C73.9125 87.8203 73.3504 88.4218 72.6603 88.8359C71.9898 89.25 71.3193 89.4571 70.6488 89.4571C68.8543 89.4571 67.9571 88.4218 67.9571 86.3512V75.7024L71.5362 74.4601V86.5287ZM89.2109 86.4103C89.2109 86.6864 89.27 86.9329 89.3883 87.1498C89.5264 87.347 89.7236 87.4456 89.9799 87.4456C90.2363 87.4456 90.4927 87.3372 90.749 87.1203C91.0251 86.9033 91.2321 86.6667 91.3702 86.4103L92.0209 86.9724C91.666 87.6625 91.173 88.2541 90.542 88.7471C89.9306 89.2204 89.27 89.4571 88.5601 89.4571C87.5347 89.4571 86.7952 89.181 86.3416 88.6288C85.8881 88.0569 85.6711 87.1893 85.6909 86.0258H85.543C85.0894 87.0512 84.4978 87.909 83.7682 88.5992C83.0385 89.2697 82.161 89.605 81.1356 89.605C80.051 89.605 79.1241 89.3289 78.3551 88.7767C77.586 88.2246 77.0042 87.4851 76.6098 86.5582C76.2155 85.6117 76.0183 84.5665 76.0183 83.4228C76.0183 81.9635 76.3141 80.5338 76.9056 79.1337C77.517 77.7139 78.3945 76.5504 79.5383 75.6433C80.682 74.7362 82.0131 74.2826 83.5315 74.2826C84.3006 74.2826 85.0007 74.4699 85.6317 74.8446V63.1606L89.2109 61.9182V86.4103ZM83.4724 76.1757C82.5258 76.1757 81.737 76.5011 81.106 77.1518C80.4947 77.7829 80.0411 78.5717 79.7453 79.5182C79.4495 80.4451 79.3016 81.362 79.3016 82.2692C79.3016 83.4918 79.5383 84.6553 80.0115 85.7596C80.5045 86.8639 81.2736 87.4161 82.3188 87.4161C83.5808 87.4161 84.4485 86.7752 84.9218 85.4934C85.3951 84.1918 85.6317 82.7819 85.6317 81.2634V77.1518C84.9809 76.5011 84.2612 76.1757 83.4724 76.1757ZM102.276 74.1939C103.42 74.1939 104.377 74.4897 105.146 75.0813C105.915 75.6531 106.299 76.4912 106.299 77.5955C106.299 78.4829 105.816 79.4788 104.85 80.5831C103.903 81.6677 102.769 82.6833 101.448 83.6298C100.147 84.5567 99.0324 85.2271 98.1056 85.6413C98.9338 86.9625 100.147 87.6231 101.744 87.6231C102.631 87.6231 103.519 87.3766 104.406 86.8836C105.313 86.3709 106.082 85.7004 106.713 84.8722L107.305 85.5821C106.28 86.8639 105.195 87.8597 104.051 88.5697C102.927 89.2599 101.586 89.605 100.028 89.605C98.7662 89.605 97.6323 89.319 96.6266 88.7471C95.6406 88.1753 94.8617 87.3963 94.2898 86.4103C93.7377 85.4046 93.4616 84.2806 93.4616 83.0382C93.4616 81.5395 93.8658 80.1098 94.6743 78.7492C95.5026 77.3688 96.597 76.2645 97.9577 75.4362C99.3184 74.608 100.758 74.1939 102.276 74.1939ZM100.59 76.1166C99.841 76.1166 99.1705 76.3926 98.5789 76.9448C97.9873 77.4772 97.5239 78.1674 97.1886 79.0154C96.8534 79.8633 96.6858 80.7409 96.6858 81.648C96.6858 82.8312 96.9421 83.8468 97.4549 84.6947C98.1845 84.2806 98.9536 83.7087 99.7621 82.9791C100.59 82.2297 101.281 81.4311 101.833 80.5831C102.385 79.7352 102.661 78.9661 102.661 78.2759C102.661 77.5857 102.474 77.0532 102.099 76.6786C101.744 76.3039 101.241 76.1166 100.59 76.1166ZM129.945 67.775C129.254 68.761 128.347 69.5794 127.223 70.2302C126.099 70.8809 124.965 71.2063 123.822 71.2063C123.447 71.6796 123.171 72.1331 122.993 72.567C122.836 73.0008 122.757 73.5037 122.757 74.0755V83.6298C122.757 85.0497 122.441 86.2427 121.81 87.209C121.199 88.1753 120.242 89.0627 118.941 89.8712L118.32 89.1613C118.832 88.5105 119.089 87.5541 119.089 86.292V75.7912C119.089 74.9629 119.345 74.1643 119.858 73.3952C120.39 72.6064 121.041 71.8768 121.81 71.2063L117.876 71.1767C117.206 71.1767 116.594 71.3246 116.042 71.6204C115.49 71.9162 114.967 72.3698 114.474 72.9811L113.824 72.3599C114.75 71.1373 115.697 70.171 116.663 69.4611C117.649 68.7512 118.763 68.3962 120.006 68.3962H124.384C125.33 68.3962 126.287 68.3173 127.253 68.1596C128.219 67.9821 128.949 67.6764 129.442 67.2426L129.945 67.775ZM132.031 71.3542L130.168 71.9458L128.955 65.7636L133.067 64.3734L132.031 71.3542ZM132.978 86.5287C132.978 86.8245 133.047 87.0611 133.185 87.2386C133.323 87.4161 133.51 87.5048 133.747 87.5048C134.24 87.5048 134.743 87.1597 135.256 86.4695L135.788 87.0315C135.354 87.8203 134.792 88.4218 134.102 88.8359C133.431 89.25 132.761 89.4571 132.091 89.4571C130.296 89.4571 129.399 88.4218 129.399 86.3512V75.7024L132.978 74.4601V86.5287ZM142.37 76.4124V86.5287C142.37 86.8047 142.449 87.0414 142.607 87.2386C142.765 87.4161 142.972 87.5048 143.228 87.5048C143.701 87.5048 144.234 87.1597 144.825 86.4695L145.358 87.0315C145.003 87.7414 144.559 88.2739 144.027 88.6288C143.494 88.9838 142.982 89.2204 142.489 89.3387C141.996 89.4571 141.749 89.4965 141.749 89.4571C139.777 89.4571 138.791 88.4218 138.791 86.3512V76.4124H136.691L137.608 74.4601H138.791V67.7455L142.37 66.5327V74.4601H146.245L145.358 76.4124H142.37ZM152.39 86.5287C152.39 86.785 152.449 87.0118 152.567 87.209C152.705 87.4062 152.912 87.5048 153.188 87.5048C153.464 87.5048 153.74 87.3963 154.017 87.1794C154.312 86.9625 154.549 86.7259 154.726 86.4695L155.259 87.0315C154.924 87.702 154.431 88.2739 153.78 88.7471C153.149 89.2204 152.469 89.4571 151.739 89.4571C149.826 89.4571 148.87 88.4218 148.87 86.3512V63.1606L152.39 61.8887V86.5287ZM165.596 74.1939C166.739 74.1939 167.696 74.4897 168.465 75.0813C169.234 75.6531 169.619 76.4912 169.619 77.5955C169.619 78.4829 169.135 79.4788 168.169 80.5831C167.223 81.6677 166.089 82.6833 164.767 83.6298C163.466 84.5567 162.352 85.2271 161.425 85.6413C162.253 86.9625 163.466 87.6231 165.063 87.6231C165.951 87.6231 166.838 87.3766 167.725 86.8836C168.633 86.3709 169.402 85.7004 170.033 84.8722L170.624 85.5821C169.599 86.8639 168.514 87.8597 167.37 88.5697C166.246 89.2599 164.905 89.605 163.348 89.605C162.086 89.605 160.952 89.319 159.946 88.7471C158.96 88.1753 158.181 87.3963 157.609 86.4103C157.057 85.4046 156.781 84.2806 156.781 83.0382C156.781 81.5395 157.185 80.1098 157.994 78.7492C158.822 77.3688 159.916 76.2645 161.277 75.4362C162.638 74.608 164.077 74.1939 165.596 74.1939ZM163.91 76.1166C163.16 76.1166 162.49 76.3926 161.898 76.9448C161.307 77.4772 160.843 78.1674 160.508 79.0154C160.173 79.8633 160.005 80.7409 160.005 81.648C160.005 82.8312 160.261 83.8468 160.774 84.6947C161.504 84.2806 162.273 83.7087 163.081 82.9791C163.91 82.2297 164.6 81.4311 165.152 80.5831C165.704 79.7352 165.98 78.9661 165.98 78.2759C165.98 77.5857 165.793 77.0532 165.418 76.6786C165.063 76.3039 164.56 76.1166 163.91 76.1166ZM185.683 68.0413C187.773 68.0413 189.45 68.6033 190.712 69.7273C191.974 70.8513 192.605 72.3895 192.605 74.3418C192.605 76.018 192.141 77.5561 191.215 78.9562C190.307 80.3366 189.282 81.4902 188.138 82.4171C186.995 83.3242 185.476 84.4285 183.583 85.73L183.701 85.8779C184.411 85.6018 185.161 85.4638 185.949 85.4638C186.403 85.4638 186.837 85.5032 187.251 85.5821C187.685 85.661 187.951 85.7103 188.05 85.73C188.996 85.9272 189.755 86.0258 190.327 86.0258C191.017 86.0258 191.609 85.8483 192.102 85.4934C192.595 85.1384 193.058 84.6454 193.492 84.0144L194.202 84.5468L191.658 89.5162C190.613 89.4373 189.312 89.2796 187.754 89.0429C186.649 88.8655 185.703 88.7373 184.914 88.6584C184.145 88.5795 183.346 88.5401 182.518 88.5401C181.118 88.5401 179.964 88.8655 179.057 89.5162L178.288 88.7767C178.781 88.3232 179.304 87.8597 179.856 87.3865C181.611 85.8483 183.07 84.4876 184.234 83.3045C185.417 82.1015 186.433 80.7902 187.28 79.3703C188.148 77.9308 188.582 76.5011 188.582 75.0813C188.582 73.7206 188.178 72.6261 187.369 71.7979C186.58 70.9499 185.525 70.526 184.204 70.526C183.238 70.526 182.291 70.7725 181.365 71.2655C180.457 71.7585 179.678 72.4191 179.028 73.2473L178.199 72.5374C179.028 71.3148 180.132 70.2597 181.512 69.3724C182.913 68.485 184.303 68.0413 185.683 68.0413Z" fill="white"/>
<path d="M80.9662 117.732C80.9084 117.555 80.8322 117.397 80.7377 117.257C80.6449 117.115 80.5337 116.994 80.4042 116.894C80.2764 116.795 80.1311 116.719 79.9683 116.666C79.8054 116.614 79.6269 116.587 79.4325 116.587C79.1139 116.587 78.8242 116.67 78.5633 116.834C78.3025 116.999 78.095 117.241 77.9409 117.562C77.7869 117.882 77.7099 118.275 77.7099 118.741C77.7099 119.206 77.7878 119.599 77.9436 119.92C78.0994 120.24 78.3103 120.483 78.5764 120.647C78.8426 120.812 79.1419 120.894 79.4746 120.894C79.7827 120.894 80.054 120.828 80.2886 120.697C80.525 120.564 80.7088 120.377 80.8401 120.135C80.9732 119.892 81.0397 119.605 81.0397 119.276L81.2393 119.318H79.6216V118.741H81.6699V119.318C81.6699 119.761 81.5754 120.146 81.3863 120.474C81.199 120.801 80.9399 121.055 80.609 121.235C80.2799 121.414 79.9017 121.503 79.4746 121.503C78.9984 121.503 78.58 121.391 78.2193 121.167C77.8604 120.943 77.5803 120.624 77.379 120.211C77.1794 119.798 77.0796 119.308 77.0796 118.741C77.0796 118.315 77.1365 117.933 77.2503 117.593C77.3658 117.252 77.5287 116.961 77.7387 116.721C77.9488 116.481 78.1974 116.298 78.4845 116.17C78.7717 116.042 79.0877 115.978 79.4325 115.978C79.7162 115.978 79.9805 116.021 80.2256 116.107C80.4725 116.191 80.6922 116.311 80.8847 116.466C81.0791 116.621 81.241 116.805 81.3706 117.021C81.5001 117.234 81.5894 117.471 81.6384 117.732H80.9662ZM85.2433 119.781V117.396H85.8631V121.43H85.2433V120.747H85.2013C85.1068 120.952 84.9597 121.126 84.7601 121.269C84.5606 121.411 84.3085 121.482 84.0038 121.482C83.7517 121.482 83.5276 121.427 83.3316 121.317C83.1355 121.205 82.9814 121.037 82.8694 120.813C82.7573 120.587 82.7013 120.302 82.7013 119.959V117.396H83.3211V119.917C83.3211 120.211 83.4033 120.446 83.5679 120.621C83.7342 120.796 83.9461 120.883 84.2034 120.883C84.3575 120.883 84.5142 120.844 84.6735 120.765C84.8345 120.687 84.9693 120.566 85.0779 120.403C85.1882 120.24 85.2433 120.033 85.2433 119.781ZM86.9982 121.43V117.396H87.6179V121.43H86.9982ZM87.3133 116.724C87.1925 116.724 87.0884 116.683 87.0008 116.6C86.915 116.518 86.8721 116.419 86.8721 116.304C86.8721 116.188 86.915 116.089 87.0008 116.007C87.0884 115.925 87.1925 115.883 87.3133 115.883C87.4341 115.883 87.5374 115.925 87.6232 116.007C87.7107 116.089 87.7545 116.188 87.7545 116.304C87.7545 116.419 87.7107 116.518 87.6232 116.6C87.5374 116.683 87.4341 116.724 87.3133 116.724ZM90.2762 121.514C89.94 121.514 89.6433 121.429 89.3859 121.259C89.1286 121.087 88.9272 120.846 88.7819 120.534C88.6366 120.221 88.564 119.851 88.564 119.423C88.564 119 88.6366 118.632 88.7819 118.32C88.9272 118.009 89.1294 117.768 89.3886 117.598C89.6477 117.428 89.947 117.344 90.2867 117.344C90.5493 117.344 90.7567 117.387 90.909 117.475C91.0631 117.561 91.1804 117.659 91.2609 117.769C91.3432 117.878 91.4071 117.967 91.4526 118.037H91.5051V116.052H92.1249V121.43H91.5262V120.81H91.4526C91.4071 120.883 91.3423 120.976 91.2583 121.088C91.1743 121.199 91.0543 121.298 90.8985 121.385C90.7427 121.471 90.5353 121.514 90.2762 121.514ZM90.3602 120.957C90.6088 120.957 90.8189 120.892 90.9904 120.763C91.162 120.631 91.2924 120.45 91.3817 120.219C91.471 119.986 91.5157 119.718 91.5157 119.413C91.5157 119.112 91.4719 118.848 91.3844 118.622C91.2968 118.395 91.1673 118.218 90.9957 118.092C90.8241 117.964 90.6123 117.9 90.3602 117.9C90.0976 117.9 89.8787 117.968 89.7037 118.102C89.5304 118.236 89.3999 118.417 89.3124 118.646C89.2266 118.874 89.1837 119.129 89.1837 119.413C89.1837 119.7 89.2275 119.961 89.315 120.195C89.4043 120.428 89.5356 120.614 89.7089 120.752C89.884 120.889 90.1011 120.957 90.3602 120.957ZM95.0372 121.514C94.6485 121.514 94.3133 121.428 94.0314 121.256C93.7513 121.083 93.5351 120.841 93.3828 120.532C93.2322 120.22 93.1569 119.858 93.1569 119.444C93.1569 119.031 93.2322 118.667 93.3828 118.352C93.5351 118.035 93.7469 117.788 94.0183 117.611C94.2914 117.433 94.61 117.344 94.9742 117.344C95.1842 117.344 95.3917 117.379 95.5965 117.449C95.8014 117.519 95.9878 117.632 96.1559 117.79C96.324 117.946 96.4579 118.152 96.5577 118.41C96.6575 118.667 96.7074 118.984 96.7074 119.36V119.623H93.5981V119.087H96.0771C96.0771 118.86 96.0316 118.657 95.9406 118.478C95.8513 118.299 95.7235 118.159 95.5571 118.055C95.3926 117.952 95.1983 117.9 94.9742 117.9C94.7273 117.9 94.5137 117.962 94.3334 118.084C94.1548 118.205 94.0174 118.362 93.9211 118.557C93.8248 118.751 93.7767 118.959 93.7767 119.182V119.539C93.7767 119.844 93.8292 120.102 93.9342 120.314C94.041 120.524 94.189 120.684 94.3781 120.794C94.5671 120.903 94.7868 120.957 95.0372 120.957C95.2 120.957 95.3471 120.934 95.4784 120.889C95.6114 120.841 95.7261 120.771 95.8224 120.679C95.9187 120.584 95.9931 120.467 96.0456 120.327L96.6443 120.495C96.5813 120.698 96.4754 120.876 96.3266 121.031C96.1778 121.183 95.9939 121.302 95.7751 121.388C95.5563 121.472 95.3103 121.514 95.0372 121.514ZM101.474 121.43H99.814V116.052H101.547C102.069 116.052 102.515 116.159 102.886 116.375C103.258 116.588 103.542 116.895 103.74 117.296C103.938 117.695 104.037 118.173 104.037 118.73C104.037 119.29 103.937 119.773 103.737 120.177C103.538 120.58 103.247 120.89 102.865 121.107C102.484 121.322 102.02 121.43 101.474 121.43ZM100.465 120.852H101.432C101.876 120.852 102.245 120.766 102.537 120.595C102.83 120.423 103.048 120.179 103.191 119.862C103.335 119.545 103.406 119.168 103.406 118.73C103.406 118.296 103.336 117.922 103.194 117.609C103.052 117.294 102.84 117.052 102.558 116.884C102.276 116.714 101.925 116.629 101.505 116.629H100.465V120.852ZM106.736 121.514C106.348 121.514 106.012 121.428 105.73 121.256C105.45 121.083 105.234 120.841 105.082 120.532C104.931 120.22 104.856 119.858 104.856 119.444C104.856 119.031 104.931 118.667 105.082 118.352C105.234 118.035 105.446 117.788 105.717 117.611C105.99 117.433 106.309 117.344 106.673 117.344C106.883 117.344 107.091 117.379 107.296 117.449C107.5 117.519 107.687 117.632 107.855 117.79C108.023 117.946 108.157 118.152 108.257 118.41C108.357 118.667 108.406 118.984 108.406 119.36V119.623H105.297V119.087H107.776C107.776 118.86 107.731 118.657 107.64 118.478C107.55 118.299 107.423 118.159 107.256 118.055C107.092 117.952 106.897 117.9 106.673 117.9C106.426 117.9 106.213 117.962 106.032 118.084C105.854 118.205 105.716 118.362 105.62 118.557C105.524 118.751 105.476 118.959 105.476 119.182V119.539C105.476 119.844 105.528 120.102 105.633 120.314C105.74 120.524 105.888 120.684 106.077 120.794C106.266 120.903 106.486 120.957 106.736 120.957C106.899 120.957 107.046 120.934 107.177 120.889C107.31 120.841 107.425 120.771 107.521 120.679C107.618 120.584 107.692 120.467 107.745 120.327L108.343 120.495C108.28 120.698 108.174 120.876 108.026 121.031C107.877 121.183 107.693 121.302 107.474 121.388C107.255 121.472 107.009 121.514 106.736 121.514ZM112.206 118.299L111.65 118.457C111.615 118.364 111.563 118.274 111.495 118.187C111.428 118.097 111.337 118.024 111.222 117.966C111.106 117.908 110.958 117.879 110.778 117.879C110.531 117.879 110.325 117.936 110.161 118.05C109.998 118.162 109.916 118.305 109.916 118.478C109.916 118.632 109.972 118.754 110.084 118.843C110.197 118.932 110.372 119.007 110.61 119.066L111.208 119.213C111.569 119.301 111.838 119.435 112.015 119.615C112.191 119.794 112.28 120.024 112.28 120.306C112.28 120.537 112.213 120.743 112.08 120.925C111.949 121.108 111.765 121.251 111.529 121.356C111.292 121.461 111.018 121.514 110.704 121.514C110.293 121.514 109.952 121.424 109.683 121.246C109.413 121.067 109.242 120.806 109.171 120.463L109.759 120.316C109.815 120.533 109.921 120.696 110.077 120.805C110.234 120.913 110.44 120.968 110.694 120.968C110.983 120.968 111.212 120.906 111.382 120.784C111.553 120.659 111.639 120.511 111.639 120.337C111.639 120.197 111.59 120.08 111.492 119.985C111.394 119.889 111.243 119.817 111.04 119.77L110.368 119.612C109.999 119.525 109.727 119.389 109.554 119.205C109.382 119.02 109.297 118.788 109.297 118.51C109.297 118.282 109.361 118.081 109.488 117.906C109.618 117.73 109.794 117.593 110.016 117.493C110.24 117.393 110.494 117.344 110.778 117.344C111.177 117.344 111.49 117.431 111.718 117.606C111.947 117.781 112.11 118.012 112.206 118.299ZM114.851 121.514C114.473 121.514 114.148 121.424 113.875 121.246C113.601 121.067 113.391 120.821 113.244 120.508C113.097 120.195 113.024 119.837 113.024 119.434C113.024 119.024 113.099 118.663 113.25 118.349C113.402 118.034 113.614 117.788 113.885 117.611C114.158 117.433 114.477 117.344 114.841 117.344C115.125 117.344 115.38 117.396 115.608 117.501C115.835 117.606 116.022 117.753 116.167 117.942C116.312 118.131 116.403 118.352 116.438 118.604H115.818C115.771 118.42 115.665 118.257 115.503 118.116C115.342 117.972 115.125 117.9 114.851 117.9C114.61 117.9 114.398 117.963 114.216 118.089C114.036 118.214 113.895 118.39 113.793 118.617C113.693 118.843 113.643 119.108 113.643 119.413C113.643 119.725 113.692 119.996 113.79 120.227C113.89 120.458 114.03 120.637 114.211 120.765C114.393 120.893 114.606 120.957 114.851 120.957C115.012 120.957 115.159 120.929 115.29 120.873C115.421 120.817 115.532 120.736 115.623 120.631C115.714 120.526 115.779 120.4 115.818 120.253H116.438C116.403 120.491 116.316 120.706 116.178 120.897C116.041 121.086 115.86 121.236 115.634 121.348C115.41 121.459 115.149 121.514 114.851 121.514ZM117.344 121.43V117.396H117.942V118.005H117.984C118.058 117.806 118.191 117.644 118.383 117.519C118.576 117.395 118.793 117.333 119.035 117.333C119.08 117.333 119.137 117.334 119.205 117.336C119.274 117.337 119.325 117.34 119.36 117.344V117.974C119.339 117.969 119.291 117.961 119.216 117.95C119.142 117.938 119.064 117.932 118.982 117.932C118.786 117.932 118.611 117.973 118.457 118.055C118.305 118.136 118.184 118.248 118.095 118.391C118.007 118.533 117.963 118.695 117.963 118.877V121.43H117.344ZM120.095 121.43V117.396H120.715V121.43H120.095ZM120.41 116.724C120.289 116.724 120.185 116.683 120.098 116.6C120.012 116.518 119.969 116.419 119.969 116.304C119.969 116.188 120.012 116.089 120.098 116.007C120.185 115.925 120.289 115.883 120.41 115.883C120.531 115.883 120.634 115.925 120.72 116.007C120.808 116.089 120.851 116.188 120.851 116.304C120.851 116.419 120.808 116.518 120.72 116.6C120.634 116.683 120.531 116.724 120.41 116.724ZM121.85 122.942V117.396H122.449V118.037H122.522C122.568 117.967 122.631 117.878 122.711 117.769C122.793 117.659 122.911 117.561 123.063 117.475C123.217 117.387 123.425 117.344 123.688 117.344C124.028 117.344 124.327 117.428 124.586 117.598C124.845 117.768 125.047 118.009 125.193 118.32C125.338 118.632 125.411 119 125.411 119.423C125.411 119.851 125.338 120.221 125.193 120.534C125.047 120.846 124.846 121.087 124.589 121.259C124.331 121.429 124.035 121.514 123.699 121.514C123.439 121.514 123.232 121.471 123.076 121.385C122.92 121.298 122.8 121.199 122.716 121.088C122.632 120.976 122.568 120.883 122.522 120.81H122.47V122.942H121.85ZM122.459 119.413C122.459 119.718 122.504 119.986 122.593 120.219C122.682 120.45 122.813 120.631 122.984 120.763C123.156 120.892 123.366 120.957 123.615 120.957C123.874 120.957 124.09 120.889 124.263 120.752C124.438 120.614 124.57 120.428 124.657 120.195C124.746 119.961 124.791 119.7 124.791 119.413C124.791 119.129 124.747 118.874 124.66 118.646C124.574 118.417 124.443 118.236 124.268 118.102C124.095 117.968 123.877 117.9 123.615 117.9C123.362 117.9 123.151 117.964 122.979 118.092C122.807 118.218 122.678 118.395 122.59 118.622C122.503 118.848 122.459 119.112 122.459 119.413ZM128.11 117.396V117.921H126.02V117.396H128.11ZM126.629 116.43H127.249V120.274C127.249 120.449 127.274 120.581 127.325 120.668C127.378 120.754 127.444 120.812 127.525 120.841C127.607 120.869 127.694 120.883 127.785 120.883C127.853 120.883 127.909 120.88 127.953 120.873C127.997 120.864 128.032 120.857 128.058 120.852L128.184 121.409C128.142 121.424 128.083 121.44 128.008 121.456C127.933 121.473 127.837 121.482 127.722 121.482C127.547 121.482 127.375 121.445 127.207 121.369C127.041 121.294 126.902 121.179 126.792 121.025C126.684 120.871 126.629 120.677 126.629 120.442V116.43ZM129.043 121.43V117.396H129.662V121.43H129.043ZM129.358 116.724C129.237 116.724 129.133 116.683 129.045 116.6C128.959 116.518 128.917 116.419 128.917 116.304C128.917 116.188 128.959 116.089 129.045 116.007C129.133 115.925 129.237 115.883 129.358 115.883C129.478 115.883 129.582 115.925 129.668 116.007C129.755 116.089 129.799 116.188 129.799 116.304C129.799 116.419 129.755 116.518 129.668 116.6C129.582 116.683 129.478 116.724 129.358 116.724ZM132.436 121.514C132.072 121.514 131.752 121.427 131.478 121.254C131.204 121.08 130.991 120.838 130.837 120.526C130.685 120.215 130.608 119.851 130.608 119.434C130.608 119.014 130.685 118.647 130.837 118.334C130.991 118.02 131.204 117.777 131.478 117.604C131.752 117.43 132.072 117.344 132.436 117.344C132.8 117.344 133.119 117.43 133.392 117.604C133.667 117.777 133.88 118.02 134.033 118.334C134.187 118.647 134.264 119.014 134.264 119.434C134.264 119.851 134.187 120.215 134.033 120.526C133.88 120.838 133.667 121.08 133.392 121.254C133.119 121.427 132.8 121.514 132.436 121.514ZM132.436 120.957C132.713 120.957 132.94 120.886 133.119 120.744C133.297 120.602 133.43 120.416 133.515 120.185C133.601 119.954 133.644 119.703 133.644 119.434C133.644 119.164 133.601 118.913 133.515 118.68C133.43 118.447 133.297 118.259 133.119 118.116C132.94 117.972 132.713 117.9 132.436 117.9C132.159 117.9 131.932 117.972 131.753 118.116C131.575 118.259 131.443 118.447 131.357 118.68C131.271 118.913 131.228 119.164 131.228 119.434C131.228 119.703 131.271 119.954 131.357 120.185C131.443 120.416 131.575 120.602 131.753 120.744C131.932 120.886 132.159 120.957 132.436 120.957ZM135.83 119.003V121.43H135.21V117.396H135.809V118.026H135.861C135.956 117.821 136.099 117.657 136.292 117.533C136.484 117.407 136.733 117.344 137.038 117.344C137.311 117.344 137.55 117.4 137.754 117.512C137.959 117.622 138.119 117.79 138.232 118.016C138.346 118.24 138.403 118.524 138.403 118.867V121.43H137.783V118.909C137.783 118.592 137.701 118.345 137.537 118.168C137.372 117.99 137.146 117.9 136.859 117.9C136.661 117.9 136.484 117.943 136.329 118.029C136.174 118.115 136.053 118.24 135.964 118.404C135.874 118.569 135.83 118.769 135.83 119.003Z" fill="white"/>
<path d="M118.173 31.9011C118.148 32.0664 118.009 32.1821 117.864 32.1597C117.719 32.1373 117.623 31.9851 117.648 31.8198C117.674 31.6546 117.812 31.5388 117.957 31.5612C118.102 31.5836 118.199 31.7358 118.173 31.9011Z" fill="white"/>
<path d="M118.722 30.9404C118.697 31.1056 118.558 31.2214 118.413 31.199C118.268 31.1766 118.172 31.0244 118.197 30.8591C118.223 30.6938 118.361 30.578 118.506 30.6005C118.651 30.6229 118.748 30.7751 118.722 30.9404Z" fill="white"/>
<path d="M119.18 29.9797C119.154 30.1449 119.016 30.2607 118.871 30.2383C118.726 30.2158 118.629 30.0637 118.655 29.8984C118.68 29.7331 118.819 29.6173 118.963 29.6398C119.108 29.6622 119.205 29.8144 119.18 29.9797Z" fill="white"/>
<path d="M119.5 28.9274C119.474 29.0927 119.336 29.2085 119.191 29.1861C119.046 29.1636 118.949 29.0115 118.975 28.8462C119 28.6809 119.139 28.5651 119.284 28.5876C119.429 28.61 119.525 28.7622 119.5 28.9274Z" fill="white"/>
<path d="M119.729 27.8752C119.703 28.0405 119.565 28.1563 119.42 28.1338C119.275 28.1114 119.178 27.9592 119.204 27.794C119.229 27.6287 119.367 27.5129 119.512 27.5353C119.657 27.5578 119.754 27.71 119.729 27.8752Z" fill="white"/>
<path d="M119.82 26.823C119.795 26.9883 119.656 27.1041 119.511 27.0816C119.366 27.0592 119.27 26.907 119.295 26.7418C119.321 26.5765 119.459 26.4607 119.604 26.4831C119.749 26.5056 119.846 26.6577 119.82 26.823Z" fill="white"/>
<path d="M119.866 25.7251C119.84 25.8903 119.702 26.0061 119.557 25.9837C119.412 25.9612 119.315 25.8091 119.341 25.6438C119.366 25.4785 119.505 25.3627 119.65 25.3852C119.795 25.4076 119.891 25.5598 119.866 25.7251Z" fill="white"/>
<path d="M119.774 24.6728C119.749 24.8381 119.611 24.9539 119.466 24.9315C119.321 24.909 119.224 24.7569 119.249 24.5916C119.275 24.4263 119.413 24.3105 119.558 24.333C119.703 24.3554 119.8 24.5076 119.774 24.6728Z" fill="white"/>
<path d="M119.546 23.6664C119.52 23.8317 119.382 23.9474 119.237 23.925C119.092 23.9026 118.995 23.7504 119.021 23.5851C119.046 23.4198 119.185 23.3041 119.329 23.3265C119.474 23.3489 119.571 23.5011 119.546 23.6664Z" fill="white"/>
<path d="M119.225 22.6599C119.2 22.8252 119.062 22.941 118.917 22.9185C118.772 22.8961 118.675 22.7439 118.7 22.5787C118.726 22.4134 118.864 22.2976 119.009 22.32C119.154 22.3425 119.251 22.4946 119.225 22.6599Z" fill="white"/>
<path d="M118.814 21.7449C118.788 21.9102 118.65 22.026 118.505 22.0036C118.36 21.9811 118.263 21.829 118.289 21.6637C118.314 21.4984 118.453 21.3826 118.598 21.4051C118.742 21.4275 118.839 21.5797 118.814 21.7449Z" fill="white"/>
<path d="M118.31 20.8757C118.285 21.041 118.147 21.1568 118.002 21.1343C117.857 21.1119 117.76 20.9597 117.785 20.7945C117.811 20.6292 117.949 20.5134 118.094 20.5358C118.239 20.5583 118.336 20.7105 118.31 20.8757Z" fill="white"/>
<path d="M117.716 20.098C117.69 20.2633 117.552 20.3791 117.407 20.3566C117.262 20.3342 117.165 20.182 117.191 20.0167C117.216 19.8515 117.355 19.7357 117.5 19.7581C117.645 19.7806 117.741 19.9327 117.716 20.098Z" fill="white"/>
<path d="M117.03 19.4118C117.004 19.5771 116.866 19.6928 116.721 19.6704C116.576 19.648 116.479 19.4958 116.504 19.3305C116.53 19.1652 116.668 19.0495 116.813 19.0719C116.958 19.0943 117.055 19.2465 117.03 19.4118Z" fill="white"/>
<path d="M116.252 18.8171C116.226 18.9823 116.088 19.0981 115.943 19.0757C115.798 19.0532 115.701 18.9011 115.727 18.7358C115.752 18.5705 115.891 18.4547 116.036 18.4772C116.181 18.4996 116.277 18.6518 116.252 18.8171Z" fill="white"/>
<path d="M115.428 18.3138C115.403 18.4791 115.264 18.5949 115.119 18.5724C114.975 18.55 114.878 18.3978 114.903 18.2326C114.929 18.0673 115.067 17.9515 115.212 17.9739C115.357 17.9964 115.454 18.1485 115.428 18.3138Z" fill="white"/>
<path d="M114.559 17.9478C114.534 18.1131 114.395 18.2289 114.25 18.2065C114.105 18.184 114.009 18.0318 114.034 17.8666C114.06 17.7013 114.198 17.5855 114.343 17.608C114.488 17.6304 114.585 17.7826 114.559 17.9478Z" fill="white"/>
<path d="M113.644 17.7191C113.619 17.8844 113.48 18.0001 113.335 17.9777C113.19 17.9553 113.094 17.8031 113.119 17.6378C113.145 17.4726 113.283 17.3568 113.428 17.3792C113.573 17.4016 113.67 17.5538 113.644 17.7191Z" fill="white"/>
<path d="M112.683 17.5818C112.658 17.7471 112.52 17.8629 112.375 17.8405C112.23 17.818 112.133 17.6659 112.158 17.5006C112.184 17.3353 112.322 17.2195 112.467 17.242C112.612 17.2644 112.709 17.4166 112.683 17.5818Z" fill="white"/>
<path d="M111.723 17.5818C111.697 17.7471 111.559 17.8629 111.414 17.8405C111.269 17.818 111.172 17.6659 111.198 17.5006C111.223 17.3353 111.362 17.2195 111.507 17.242C111.651 17.2644 111.748 17.4166 111.723 17.5818Z" fill="white"/>
<path d="M110.808 17.6733C110.782 17.8386 110.644 17.9544 110.499 17.932C110.354 17.9095 110.257 17.7574 110.283 17.5921C110.308 17.4268 110.447 17.311 110.592 17.3335C110.737 17.3559 110.833 17.5081 110.808 17.6733Z" fill="white"/>
<path d="M109.847 17.9021C109.821 18.0674 109.683 18.1831 109.538 18.1607C109.393 18.1383 109.296 17.9861 109.322 17.8208C109.348 17.6555 109.486 17.5398 109.631 17.5622C109.776 17.5846 109.873 17.7368 109.847 17.9021Z" fill="white"/>
<path d="M108.932 18.2681C108.906 18.4333 108.768 18.5491 108.623 18.5267C108.478 18.5042 108.381 18.3521 108.407 18.1868C108.433 18.0215 108.571 17.9057 108.716 17.9282C108.861 17.9506 108.958 18.1028 108.932 18.2681Z" fill="white"/>
<path d="M108.063 18.7256C108.037 18.8908 107.899 19.0066 107.754 18.9842C107.609 18.9617 107.512 18.8096 107.538 18.6443C107.563 18.479 107.702 18.3632 107.847 18.3857C107.992 18.4081 108.088 18.5603 108.063 18.7256Z" fill="white"/>
<path d="M107.194 19.3203C107.168 19.4856 107.03 19.6013 106.885 19.5789C106.74 19.5565 106.643 19.4043 106.669 19.239C106.694 19.0737 106.832 18.958 106.977 18.9804C107.122 19.0028 107.219 19.155 107.194 19.3203Z" fill="white"/>
<path d="M106.462 20.0065C106.436 20.1718 106.298 20.2876 106.153 20.2651C106.008 20.2427 105.911 20.0905 105.937 19.9252C105.962 19.76 106.1 19.6442 106.245 19.6666C106.39 19.6891 106.487 19.8412 106.462 20.0065Z" fill="white"/>
<path d="M105.73 20.7842C105.704 20.9495 105.566 21.0653 105.421 21.0429C105.276 21.0204 105.179 20.8682 105.205 20.703C105.23 20.5377 105.368 20.4219 105.513 20.4444C105.658 20.4668 105.755 20.619 105.73 20.7842Z" fill="white"/>
<path d="M105.089 21.6535C105.064 21.8187 104.925 21.9345 104.78 21.9121C104.635 21.8896 104.539 21.7375 104.564 21.5722C104.59 21.4069 104.728 21.2911 104.873 21.3136C105.018 21.336 105.115 21.4882 105.089 21.6535Z" fill="white"/>
<path d="M104.586 22.6142C104.56 22.7794 104.422 22.8952 104.277 22.8728C104.132 22.8503 104.035 22.6982 104.061 22.5329C104.087 22.3676 104.225 22.2518 104.37 22.2743C104.515 22.2967 104.612 22.4489 104.586 22.6142Z" fill="white"/>
<path d="M104.174 23.5749C104.149 23.7402 104.01 23.8559 103.865 23.8335C103.72 23.8111 103.624 23.6589 103.649 23.4936C103.675 23.3283 103.813 23.2126 103.958 23.235C104.103 23.2574 104.2 23.4096 104.174 23.5749Z" fill="white"/>
<path d="M103.808 24.5813C103.783 24.7466 103.644 24.8624 103.499 24.84C103.354 24.8175 103.258 24.6654 103.283 24.5001C103.309 24.3348 103.447 24.219 103.592 24.2415C103.737 24.2639 103.834 24.4161 103.808 24.5813Z" fill="white"/>
<path d="M103.579 25.6336C103.554 25.7988 103.416 25.9146 103.271 25.8922C103.126 25.8697 103.029 25.7176 103.054 25.5523C103.08 25.387 103.218 25.2712 103.363 25.2937C103.508 25.3161 103.605 25.4683 103.579 25.6336Z" fill="white"/>
<path d="M103.442 26.7315C103.417 26.8968 103.278 27.0126 103.133 26.9901C102.988 26.9677 102.892 26.8155 102.917 26.6503C102.943 26.485 103.081 26.3692 103.226 26.3916C103.371 26.4141 103.468 26.5662 103.442 26.7315Z" fill="white"/>
<path d="M103.442 27.8295C103.417 27.9948 103.278 28.1105 103.133 28.0881C102.988 28.0657 102.892 27.9135 102.917 27.7482C102.943 27.5829 103.081 27.4672 103.226 27.4896C103.371 27.512 103.468 27.6642 103.442 27.8295Z" fill="white"/>
<path d="M103.534 28.8817C103.508 29.047 103.37 29.1628 103.225 29.1403C103.08 29.1179 102.983 28.9657 103.009 28.8004C103.034 28.6352 103.173 28.5194 103.318 28.5418C103.463 28.5643 103.559 28.7164 103.534 28.8817Z" fill="white"/>
<path d="M103.762 29.9339C103.737 30.0992 103.599 30.215 103.454 30.1925C103.309 30.1701 103.212 30.0179 103.237 29.8526C103.263 29.6874 103.401 29.5716 103.546 29.594C103.691 29.6165 103.788 29.7686 103.762 29.9339Z" fill="white"/>
<path d="M104.083 30.8489C104.057 31.0141 103.919 31.1299 103.774 31.1075C103.629 31.0851 103.532 30.9329 103.558 30.7676C103.583 30.6023 103.722 30.4866 103.867 30.509C104.012 30.5314 104.108 30.6836 104.083 30.8489Z" fill="white"/>
<path d="M104.494 31.8096C104.469 31.9749 104.331 32.0907 104.186 32.0682C104.041 32.0458 103.944 31.8936 103.969 31.7283C103.995 31.5631 104.133 31.4473 104.278 31.4697C104.423 31.4921 104.52 31.6443 104.494 31.8096Z" fill="white"/>
<path d="M104.998 32.6788C104.972 32.8441 104.834 32.9599 104.689 32.9374C104.544 32.915 104.447 32.7628 104.473 32.5975C104.498 32.4323 104.637 32.3165 104.781 32.3389C104.926 32.3614 105.023 32.5135 104.998 32.6788Z" fill="white"/>
<path d="M105.592 33.4565C105.567 33.6218 105.429 33.7376 105.284 33.7152C105.139 33.6927 105.042 33.5405 105.067 33.3753C105.093 33.21 105.231 33.0942 105.376 33.1166C105.521 33.1391 105.618 33.2913 105.592 33.4565Z" fill="white"/>
<path d="M106.324 34.1428C106.299 34.308 106.161 34.4238 106.016 34.4014C105.871 34.3789 105.774 34.2268 105.799 34.0615C105.825 33.8962 105.963 33.7804 106.108 33.8029C106.253 33.8253 106.35 33.9775 106.324 34.1428Z" fill="white"/>
<path d="M107.056 34.7375C107.031 34.9028 106.893 35.0185 106.748 34.9961C106.603 34.9737 106.506 34.8215 106.531 34.6562C106.557 34.491 106.695 34.3752 106.84 34.3976C106.985 34.42 107.082 34.5722 107.056 34.7375Z" fill="white"/>
<path d="M107.88 35.2407C107.854 35.406 107.716 35.5218 107.571 35.4993C107.426 35.4769 107.329 35.3247 107.355 35.1595C107.38 34.9942 107.519 34.8784 107.664 34.9008C107.809 34.9233 107.905 35.0754 107.88 35.2407Z" fill="white"/>
<path d="M108.749 35.6067C108.723 35.772 108.585 35.8878 108.44 35.8653C108.295 35.8429 108.198 35.6907 108.224 35.5254C108.25 35.3602 108.388 35.2444 108.533 35.2668C108.678 35.2893 108.775 35.4414 108.749 35.6067Z" fill="white"/>
<path d="M109.664 35.8354C109.638 36.0007 109.5 36.1165 109.355 36.0941C109.21 36.0716 109.113 35.9195 109.139 35.7542C109.165 35.5889 109.303 35.4731 109.448 35.4956C109.593 35.518 109.69 35.6702 109.664 35.8354Z" fill="white"/>
<path d="M110.625 35.9727C110.599 36.138 110.461 36.2538 110.316 36.2313C110.171 36.2089 110.074 36.0567 110.1 35.8914C110.125 35.7262 110.264 35.6104 110.409 35.6328C110.554 35.6553 110.65 35.8074 110.625 35.9727Z" fill="white"/>
<path d="M111.54 35.9727C111.514 36.138 111.376 36.2538 111.231 36.2313C111.086 36.2089 110.989 36.0567 111.015 35.8914C111.04 35.7262 111.179 35.6104 111.324 35.6328C111.468 35.6553 111.565 35.8074 111.54 35.9727Z" fill="white"/>
<path d="M112.5 35.8812C112.475 36.0465 112.337 36.1623 112.192 36.1398C112.047 36.1174 111.95 35.9652 111.975 35.7999C112.001 35.6347 112.139 35.5189 112.284 35.5413C112.429 35.5638 112.526 35.7159 112.5 35.8812Z" fill="white"/>
<path d="M113.461 35.6525C113.436 35.8177 113.297 35.9335 113.152 35.9111C113.007 35.8886 112.911 35.7365 112.936 35.5712C112.962 35.4059 113.1 35.2901 113.245 35.3126C113.39 35.335 113.487 35.4872 113.461 35.6525Z" fill="white"/>
<path d="M114.376 35.2865C114.351 35.4517 114.212 35.5675 114.067 35.5451C113.922 35.5226 113.826 35.3705 113.851 35.2052C113.877 35.0399 114.015 34.9241 114.16 34.9466C114.305 34.969 114.402 35.1212 114.376 35.2865Z" fill="white"/>
<path d="M115.245 34.7832C115.22 34.9485 115.081 35.0643 114.936 35.0419C114.792 35.0194 114.695 34.8672 114.72 34.702C114.746 34.5367 114.884 34.4209 115.029 34.4434C115.174 34.4658 115.271 34.618 115.245 34.7832Z" fill="white"/>
<path d="M116.069 34.1885C116.043 34.3538 115.905 34.4696 115.76 34.4471C115.615 34.4247 115.518 34.2725 115.544 34.1072C115.569 33.942 115.708 33.8262 115.853 33.8486C115.998 33.8711 116.094 34.0232 116.069 34.1885Z" fill="white"/>
<path d="M116.847 33.5023C116.821 33.6676 116.683 33.7833 116.538 33.7609C116.393 33.7385 116.296 33.5863 116.322 33.421C116.347 33.2557 116.485 33.14 116.63 33.1624C116.775 33.1848 116.872 33.337 116.847 33.5023Z" fill="white"/>
<path d="M117.578 32.7703C117.553 32.9356 117.415 33.0514 117.27 33.0289C117.125 33.0065 117.028 32.8543 117.053 32.689C117.079 32.5238 117.217 32.408 117.362 32.4304C117.507 32.4529 117.604 32.605 117.578 32.7703Z" fill="white"/>
<path d="M108.681 36.8045C108.681 37.0193 108.507 37.1934 108.292 37.1934C108.077 37.1934 107.903 37.0193 107.903 36.8045C107.903 36.5897 108.077 36.4157 108.292 36.4157C108.507 36.4157 108.681 36.5897 108.681 36.8045Z" fill="white"/>
<path d="M109.962 37.079C109.962 37.2938 109.788 37.4679 109.573 37.4679C109.358 37.4679 109.184 37.2938 109.184 37.079C109.184 36.8642 109.358 36.6901 109.573 36.6901C109.788 36.6901 109.962 36.8642 109.962 37.079Z" fill="white"/>
<path d="M111.243 37.2162C111.243 37.431 111.069 37.6051 110.854 37.6051C110.639 37.6051 110.465 37.431 110.465 37.2162C110.465 37.0015 110.639 36.8274 110.854 36.8274C111.069 36.8274 111.243 37.0015 111.243 37.2162Z" fill="white"/>
<path d="M112.615 37.2162C112.615 37.431 112.441 37.6051 112.226 37.6051C112.012 37.6051 111.838 37.431 111.838 37.2162C111.838 37.0015 112.012 36.8274 112.226 36.8274C112.441 36.8274 112.615 37.0015 112.615 37.2162Z" fill="white"/>
<path d="M113.896 37.079C113.896 37.2938 113.722 37.4679 113.507 37.4679C113.293 37.4679 113.119 37.2938 113.119 37.079C113.119 36.8642 113.293 36.6901 113.507 36.6901C113.722 36.6901 113.896 36.8642 113.896 37.079Z" fill="white"/>
<path d="M115.177 36.8045C115.177 37.0193 115.003 37.1934 114.788 37.1934C114.574 37.1934 114.4 37.0193 114.4 36.8045C114.4 36.5897 114.574 36.4157 114.788 36.4157C115.003 36.4157 115.177 36.5897 115.177 36.8045Z" fill="white"/>
<path d="M116.412 36.3013C116.412 36.516 116.238 36.6901 116.024 36.6901C115.809 36.6901 115.635 36.516 115.635 36.3013C115.635 36.0865 115.809 35.9124 116.024 35.9124C116.238 35.9124 116.412 36.0865 116.412 36.3013Z" fill="white"/>
<path d="M117.602 35.7523C117.602 35.9671 117.428 36.1412 117.213 36.1412C116.998 36.1412 116.824 35.9671 116.824 35.7523C116.824 35.5375 116.998 35.3634 117.213 35.3634C117.428 35.3634 117.602 35.5375 117.602 35.7523Z" fill="white"/>
<path d="M118.7 34.9746C118.7 35.1893 118.526 35.3634 118.311 35.3634C118.096 35.3634 117.922 35.1893 117.922 34.9746C117.922 34.7598 118.096 34.5857 118.311 34.5857C118.526 34.5857 118.7 34.7598 118.7 34.9746Z" fill="white"/>
<path d="M119.706 34.1969C119.706 34.4116 119.532 34.5857 119.317 34.5857C119.103 34.5857 118.929 34.4116 118.929 34.1969C118.929 33.9821 119.103 33.808 119.317 33.808C119.532 33.808 119.706 33.9821 119.706 34.1969Z" fill="white"/>
<path d="M120.621 33.1904C120.621 33.4052 120.447 33.5793 120.232 33.5793C120.018 33.5793 119.844 33.4052 119.844 33.1904C119.844 32.9756 120.018 32.8015 120.232 32.8015C120.447 32.8015 120.621 32.9756 120.621 33.1904Z" fill="white"/>
<path d="M121.399 32.1382C121.399 32.3529 121.225 32.527 121.01 32.527C120.795 32.527 120.621 32.3529 120.621 32.1382C120.621 31.9234 120.795 31.7493 121.01 31.7493C121.225 31.7493 121.399 31.9234 121.399 32.1382Z" fill="white"/>
<path d="M122.04 30.9945C122.04 31.2092 121.865 31.3833 121.651 31.3833C121.436 31.3833 121.262 31.2092 121.262 30.9945C121.262 30.7797 121.436 30.6056 121.651 30.6056C121.865 30.6056 122.04 30.7797 122.04 30.9945Z" fill="white"/>
<path d="M122.589 29.805C122.589 30.0198 122.414 30.1939 122.2 30.1939C121.985 30.1939 121.811 30.0198 121.811 29.805C121.811 29.5902 121.985 29.4162 122.2 29.4162C122.414 29.4162 122.589 29.5902 122.589 29.805Z" fill="white"/>
<path d="M122.954 28.5698C122.954 28.7846 122.78 28.9587 122.566 28.9587C122.351 28.9587 122.177 28.7846 122.177 28.5698C122.177 28.355 122.351 28.1809 122.566 28.1809C122.78 28.1809 122.954 28.355 122.954 28.5698Z" fill="white"/>
<path d="M123.183 27.2431C123.183 27.4579 123.009 27.632 122.794 27.632C122.58 27.632 122.406 27.4579 122.406 27.2431C122.406 27.0283 122.58 26.8542 122.794 26.8542C123.009 26.8542 123.183 27.0283 123.183 27.2431Z" fill="white"/>
<path d="M123.183 25.9164C123.183 26.1312 123.009 26.3053 122.794 26.3053C122.58 26.3053 122.406 26.1312 122.406 25.9164C122.406 25.7016 122.58 25.5275 122.794 25.5275C123.009 25.5275 123.183 25.7016 123.183 25.9164Z" fill="white"/>
<path d="M123.183 24.5897C123.183 24.8045 123.009 24.9786 122.794 24.9786C122.58 24.9786 122.406 24.8045 122.406 24.5897C122.406 24.3749 122.58 24.2008 122.794 24.2008C123.009 24.2008 123.183 24.3749 123.183 24.5897Z" fill="white"/>
<path d="M122.954 23.3545C122.954 23.5693 122.78 23.7434 122.566 23.7434C122.351 23.7434 122.177 23.5693 122.177 23.3545C122.177 23.1397 122.351 22.9656 122.566 22.9656C122.78 22.9656 122.954 23.1397 122.954 23.3545Z" fill="white"/>
<path d="M122.589 22.0278C122.589 22.2425 122.414 22.4166 122.2 22.4166C121.985 22.4166 121.811 22.2425 121.811 22.0278C121.811 21.813 121.985 21.6389 122.2 21.6389C122.414 21.6389 122.589 21.813 122.589 22.0278Z" fill="white"/>
<path d="M122.04 20.8841C122.04 21.0988 121.865 21.2729 121.651 21.2729C121.436 21.2729 121.262 21.0988 121.262 20.8841C121.262 20.6693 121.436 20.4952 121.651 20.4952C121.865 20.4952 122.04 20.6693 122.04 20.8841Z" fill="white"/>
<path d="M121.399 19.7404C121.399 19.9551 121.225 20.1292 121.01 20.1292C120.795 20.1292 120.621 19.9551 120.621 19.7404C120.621 19.5256 120.795 19.3515 121.01 19.3515C121.225 19.3515 121.399 19.5256 121.399 19.7404Z" fill="white"/>
<path d="M120.621 18.7339C120.621 18.9487 120.447 19.1228 120.232 19.1228C120.018 19.1228 119.844 18.9487 119.844 18.7339C119.844 18.5191 120.018 18.345 120.232 18.345C120.447 18.345 120.621 18.5191 120.621 18.7339Z" fill="white"/>
<path d="M119.661 17.6817C119.661 17.8965 119.487 18.0706 119.272 18.0706C119.057 18.0706 118.883 17.8965 118.883 17.6817C118.883 17.4669 119.057 17.2928 119.272 17.2928C119.487 17.2928 119.661 17.4669 119.661 17.6817Z" fill="white"/>
<path d="M118.7 16.904C118.7 17.1187 118.526 17.2928 118.311 17.2928C118.096 17.2928 117.922 17.1187 117.922 16.904C117.922 16.6892 118.096 16.5151 118.311 16.5151C118.526 16.5151 118.7 16.6892 118.7 16.904Z" fill="white"/>
<path d="M117.602 16.1262C117.602 16.341 117.428 16.5151 117.213 16.5151C116.998 16.5151 116.824 16.341 116.824 16.1262C116.824 15.9115 116.998 15.7374 117.213 15.7374C117.428 15.7374 117.602 15.9115 117.602 16.1262Z" fill="white"/>
<path d="M116.458 15.5773C116.458 15.792 116.284 15.9661 116.069 15.9661C115.855 15.9661 115.681 15.792 115.681 15.5773C115.681 15.3625 115.855 15.1884 116.069 15.1884C116.284 15.1884 116.458 15.3625 116.458 15.5773Z" fill="white"/>
<path d="M115.177 15.074C115.177 15.2888 115.003 15.4629 114.788 15.4629C114.574 15.4629 114.4 15.2888 114.4 15.074C114.4 14.8593 114.574 14.6852 114.788 14.6852C115.003 14.6852 115.177 14.8593 115.177 15.074Z" fill="white"/>
<path d="M113.942 14.7995C113.942 15.0143 113.768 15.1884 113.553 15.1884C113.338 15.1884 113.164 15.0143 113.164 14.7995C113.164 14.5848 113.338 14.4107 113.553 14.4107C113.768 14.4107 113.942 14.5848 113.942 14.7995Z" fill="white"/>
<path d="M112.57 14.6623C112.57 14.8771 112.396 15.0512 112.181 15.0512C111.966 15.0512 111.792 14.8771 111.792 14.6623C111.792 14.4475 111.966 14.2734 112.181 14.2734C112.396 14.2734 112.57 14.4475 112.57 14.6623Z" fill="white"/>
<path d="M111.334 14.6623C111.334 14.8771 111.16 15.0512 110.946 15.0512C110.731 15.0512 110.557 14.8771 110.557 14.6623C110.557 14.4475 110.731 14.2734 110.946 14.2734C111.16 14.2734 111.334 14.4475 111.334 14.6623Z" fill="white"/>
<path d="M109.962 14.7995C109.962 15.0143 109.788 15.1884 109.573 15.1884C109.358 15.1884 109.184 15.0143 109.184 14.7995C109.184 14.5848 109.358 14.4107 109.573 14.4107C109.788 14.4107 109.962 14.5848 109.962 14.7995Z" fill="white"/>
<path d="M108.681 15.074C108.681 15.2888 108.507 15.4629 108.292 15.4629C108.077 15.4629 107.903 15.2888 107.903 15.074C107.903 14.8593 108.077 14.6852 108.292 14.6852C108.507 14.6852 108.681 14.8593 108.681 15.074Z" fill="white"/>
<path d="M107.492 15.5773C107.492 15.792 107.317 15.9661 107.103 15.9661C106.888 15.9661 106.714 15.792 106.714 15.5773C106.714 15.3625 106.888 15.1884 107.103 15.1884C107.317 15.1884 107.492 15.3625 107.492 15.5773Z" fill="white"/>
<path d="M106.256 16.172C106.256 16.3868 106.082 16.5609 105.867 16.5609C105.653 16.5609 105.479 16.3868 105.479 16.172C105.479 15.9572 105.653 15.7831 105.867 15.7831C106.082 15.7831 106.256 15.9572 106.256 16.172Z" fill="white"/>
<path d="M105.158 16.8582C105.158 17.073 104.984 17.2471 104.77 17.2471C104.555 17.2471 104.381 17.073 104.381 16.8582C104.381 16.6435 104.555 16.4694 104.77 16.4694C104.984 16.4694 105.158 16.6435 105.158 16.8582Z" fill="white"/>
<path d="M104.152 17.7274C104.152 17.9422 103.978 18.1163 103.763 18.1163C103.548 18.1163 103.374 17.9422 103.374 17.7274C103.374 17.5127 103.548 17.3386 103.763 17.3386C103.978 17.3386 104.152 17.5127 104.152 17.7274Z" fill="white"/>
<path d="M103.283 18.6882C103.283 18.9029 103.109 19.077 102.894 19.077C102.679 19.077 102.505 18.9029 102.505 18.6882C102.505 18.4734 102.679 18.2993 102.894 18.2993C103.109 18.2993 103.283 18.4734 103.283 18.6882Z" fill="white"/>
<path d="M102.505 19.7404C102.505 19.9551 102.331 20.1292 102.116 20.1292C101.901 20.1292 101.727 19.9551 101.727 19.7404C101.727 19.5256 101.901 19.3515 102.116 19.3515C102.331 19.3515 102.505 19.5256 102.505 19.7404Z" fill="white"/>
<path d="M101.819 20.8841C101.819 21.0988 101.645 21.2729 101.43 21.2729C101.215 21.2729 101.041 21.0988 101.041 20.8841C101.041 20.6693 101.215 20.4952 101.43 20.4952C101.645 20.4952 101.819 20.6693 101.819 20.8841Z" fill="white"/>
<path d="M101.27 22.0735C101.27 22.2883 101.096 22.4624 100.881 22.4624C100.666 22.4624 100.492 22.2883 100.492 22.0735C100.492 21.8588 100.666 21.6847 100.881 21.6847C101.096 21.6847 101.27 21.8588 101.27 22.0735Z" fill="white"/>
<path d="M100.904 23.3087C100.904 23.5235 100.73 23.6976 100.515 23.6976C100.3 23.6976 100.126 23.5235 100.126 23.3087C100.126 23.094 100.3 22.9199 100.515 22.9199C100.73 22.9199 100.904 23.094 100.904 23.3087Z" fill="white"/>
<path d="M100.721 24.6812C100.721 24.896 100.547 25.0701 100.332 25.0701C100.117 25.0701 99.9431 24.896 99.9431 24.6812C99.9431 24.4664 100.117 24.2923 100.332 24.2923C100.547 24.2923 100.721 24.4664 100.721 24.6812Z" fill="white"/>
<path d="M100.629 26.0079C100.629 26.2227 100.455 26.3968 100.24 26.3968C100.026 26.3968 99.8516 26.2227 99.8516 26.0079C99.8516 25.7931 100.026 25.619 100.24 25.619C100.455 25.619 100.629 25.7931 100.629 26.0079Z" fill="white"/>
<path d="M100.721 27.2431C100.721 27.4579 100.547 27.632 100.332 27.632C100.117 27.632 99.9431 27.4579 99.9431 27.2431C99.9431 27.0283 100.117 26.8542 100.332 26.8542C100.547 26.8542 100.721 27.0283 100.721 27.2431Z" fill="white"/>
<path d="M100.904 28.5698C100.904 28.7846 100.73 28.9587 100.515 28.9587C100.3 28.9587 100.126 28.7846 100.126 28.5698C100.126 28.355 100.3 28.1809 100.515 28.1809C100.73 28.1809 100.904 28.355 100.904 28.5698Z" fill="white"/>
<path d="M101.316 29.805C101.316 30.0198 101.141 30.1939 100.927 30.1939C100.712 30.1939 100.538 30.0198 100.538 29.805C100.538 29.5902 100.712 29.4162 100.927 29.4162C101.141 29.4162 101.316 29.5902 101.316 29.805Z" fill="white"/>
<path d="M101.819 30.9945C101.819 31.2092 101.645 31.3833 101.43 31.3833C101.215 31.3833 101.041 31.2092 101.041 30.9945C101.041 30.7797 101.215 30.6056 101.43 30.6056C101.645 30.6056 101.819 30.7797 101.819 30.9945Z" fill="white"/>
<path d="M102.505 32.1382C102.505 32.3529 102.331 32.527 102.116 32.527C101.901 32.527 101.727 32.3529 101.727 32.1382C101.727 31.9234 101.901 31.7493 102.116 31.7493C102.331 31.7493 102.505 31.9234 102.505 32.1382Z" fill="white"/>
<path d="M103.283 33.1904C103.283 33.4052 103.109 33.5793 102.894 33.5793C102.679 33.5793 102.505 33.4052 102.505 33.1904C102.505 32.9756 102.679 32.8015 102.894 32.8015C103.109 32.8015 103.283 32.9756 103.283 33.1904Z" fill="white"/>
<path d="M104.198 34.1969C104.198 34.4116 104.024 34.5857 103.809 34.5857C103.594 34.5857 103.42 34.4116 103.42 34.1969C103.42 33.9821 103.594 33.808 103.809 33.808C104.024 33.808 104.198 33.9821 104.198 34.1969Z" fill="white"/>
<path d="M105.158 34.9746C105.158 35.1893 104.984 35.3634 104.77 35.3634C104.555 35.3634 104.381 35.1893 104.381 34.9746C104.381 34.7598 104.555 34.5857 104.77 34.5857C104.984 34.5857 105.158 34.7598 105.158 34.9746Z" fill="white"/>
<path d="M106.256 35.7523C106.256 35.9671 106.082 36.1412 105.867 36.1412C105.653 36.1412 105.479 35.9671 105.479 35.7523C105.479 35.5375 105.653 35.3634 105.867 35.3634C106.082 35.3634 106.256 35.5375 106.256 35.7523Z" fill="white"/>
<path d="M107.492 36.3013C107.492 36.516 107.317 36.6901 107.103 36.6901C106.888 36.6901 106.714 36.516 106.714 36.3013C106.714 36.0865 106.888 35.9124 107.103 35.9124C107.317 35.9124 107.492 36.0865 107.492 36.3013Z" fill="white"/>
<path d="M106.394 24.7727C106.394 24.8864 106.301 24.9786 106.188 24.9786C106.074 24.9786 105.982 24.8864 105.982 24.7727C105.982 24.659 106.074 24.5668 106.188 24.5668C106.301 24.5668 106.394 24.659 106.394 24.7727Z" fill="white"/>
<path d="M106.668 24.1322C106.668 24.2459 106.576 24.3381 106.462 24.3381C106.349 24.3381 106.256 24.2459 106.256 24.1322C106.256 24.0185 106.349 23.9263 106.462 23.9263C106.576 23.9263 106.668 24.0185 106.668 24.1322Z" fill="white"/>
<path d="M107.08 23.5375C107.08 23.6512 106.988 23.7434 106.874 23.7434C106.76 23.7434 106.668 23.6512 106.668 23.5375C106.668 23.4238 106.76 23.3316 106.874 23.3316C106.988 23.3316 107.08 23.4238 107.08 23.5375Z" fill="white"/>
<path d="M107.492 22.9885C107.492 23.1022 107.399 23.1944 107.286 23.1944C107.172 23.1944 107.08 23.1022 107.08 22.9885C107.08 22.8748 107.172 22.7826 107.286 22.7826C107.399 22.7826 107.492 22.8748 107.492 22.9885Z" fill="white"/>
<path d="M107.995 22.531C107.995 22.6447 107.903 22.7369 107.789 22.7369C107.675 22.7369 107.583 22.6447 107.583 22.531C107.583 22.4173 107.675 22.3252 107.789 22.3252C107.903 22.3252 107.995 22.4173 107.995 22.531Z" fill="white"/>
<path d="M108.544 22.1193C108.544 22.233 108.452 22.3252 108.338 22.3252C108.224 22.3252 108.132 22.233 108.132 22.1193C108.132 22.0056 108.224 21.9134 108.338 21.9134C108.452 21.9134 108.544 22.0056 108.544 22.1193Z" fill="white"/>
<path d="M109.184 21.7533C109.184 21.867 109.092 21.9592 108.978 21.9592C108.865 21.9592 108.772 21.867 108.772 21.7533C108.772 21.6396 108.865 21.5474 108.978 21.5474C109.092 21.5474 109.184 21.6396 109.184 21.7533Z" fill="white"/>
<path d="M109.825 21.5246C109.825 21.6383 109.733 21.7304 109.619 21.7304C109.505 21.7304 109.413 21.6383 109.413 21.5246C109.413 21.4109 109.505 21.3187 109.619 21.3187C109.733 21.3187 109.825 21.4109 109.825 21.5246Z" fill="white"/>
<path d="M110.465 21.3416C110.465 21.4553 110.373 21.5474 110.259 21.5474C110.146 21.5474 110.053 21.4553 110.053 21.3416C110.053 21.2279 110.146 21.1357 110.259 21.1357C110.373 21.1357 110.465 21.2279 110.465 21.3416Z" fill="white"/>
<path d="M111.197 21.2501C111.197 21.3638 111.105 21.4559 110.991 21.4559C110.878 21.4559 110.785 21.3638 110.785 21.2501C110.785 21.1364 110.878 21.0442 110.991 21.0442C111.105 21.0442 111.197 21.1364 111.197 21.2501Z" fill="white"/>
<path d="M111.883 21.2043C111.883 21.318 111.791 21.4102 111.678 21.4102C111.564 21.4102 111.472 21.318 111.472 21.2043C111.472 21.0906 111.564 20.9984 111.678 20.9984C111.791 20.9984 111.883 21.0906 111.883 21.2043Z" fill="white"/>
<path d="M112.57 21.2958C112.57 21.4095 112.477 21.5017 112.364 21.5017C112.25 21.5017 112.158 21.4095 112.158 21.2958C112.158 21.1821 112.25 21.0899 112.364 21.0899C112.477 21.0899 112.57 21.1821 112.57 21.2958Z" fill="white"/>
<path d="M113.256 21.4331C113.256 21.5468 113.164 21.6389 113.05 21.6389C112.936 21.6389 112.844 21.5468 112.844 21.4331C112.844 21.3194 112.936 21.2272 113.05 21.2272C113.164 21.2272 113.256 21.3194 113.256 21.4331Z" fill="white"/>
<path d="M113.942 21.6618C113.942 21.7755 113.85 21.8677 113.736 21.8677C113.622 21.8677 113.53 21.7755 113.53 21.6618C113.53 21.5481 113.622 21.4559 113.736 21.4559C113.85 21.4559 113.942 21.5481 113.942 21.6618Z" fill="white"/>
<path d="M114.583 22.0278C114.583 22.1415 114.49 22.2337 114.377 22.2337C114.263 22.2337 114.171 22.1415 114.171 22.0278C114.171 21.9141 114.263 21.8219 114.377 21.8219C114.49 21.8219 114.583 21.9141 114.583 22.0278Z" fill="white"/>
<path d="M115.177 22.3938C115.177 22.5075 115.085 22.5996 114.971 22.5996C114.858 22.5996 114.766 22.5075 114.766 22.3938C114.766 22.2801 114.858 22.1879 114.971 22.1879C115.085 22.1879 115.177 22.2801 115.177 22.3938Z" fill="white"/>
<path d="M115.772 22.8513C115.772 22.965 115.68 23.0571 115.566 23.0571C115.452 23.0571 115.36 22.965 115.36 22.8513C115.36 22.7376 115.452 22.6454 115.566 22.6454C115.68 22.6454 115.772 22.7376 115.772 22.8513Z" fill="white"/>
<path d="M116.275 23.3545C116.275 23.4682 116.183 23.5604 116.069 23.5604C115.956 23.5604 115.863 23.4682 115.863 23.3545C115.863 23.2408 115.956 23.1486 116.069 23.1486C116.183 23.1486 116.275 23.2408 116.275 23.3545Z" fill="white"/>
<path d="M116.733 23.9492C116.733 24.0629 116.641 24.1551 116.527 24.1551C116.413 24.1551 116.321 24.0629 116.321 23.9492C116.321 23.8355 116.413 23.7434 116.527 23.7434C116.641 23.7434 116.733 23.8355 116.733 23.9492Z" fill="white"/>
<path d="M117.144 24.5897C117.144 24.7034 117.052 24.7956 116.939 24.7956C116.825 24.7956 116.733 24.7034 116.733 24.5897C116.733 24.476 116.825 24.3838 116.939 24.3838C117.052 24.3838 117.144 24.476 117.144 24.5897Z" fill="white"/>
<path d="M117.465 25.2302C117.465 25.3439 117.373 25.436 117.259 25.436C117.145 25.436 117.053 25.3439 117.053 25.2302C117.053 25.1165 117.145 25.0243 117.259 25.0243C117.373 25.0243 117.465 25.1165 117.465 25.2302Z" fill="white"/>
<path d="M117.693 25.9164C117.693 26.0301 117.601 26.1223 117.488 26.1223C117.374 26.1223 117.282 26.0301 117.282 25.9164C117.282 25.8027 117.374 25.7105 117.488 25.7105C117.601 25.7105 117.693 25.8027 117.693 25.9164Z" fill="white"/>
<path d="M117.876 26.6484C117.876 26.7621 117.784 26.8542 117.671 26.8542C117.557 26.8542 117.465 26.7621 117.465 26.6484C117.465 26.5347 117.557 26.4425 117.671 26.4425C117.784 26.4425 117.876 26.5347 117.876 26.6484Z" fill="white"/>
<path d="M117.968 27.3803C117.968 27.494 117.876 27.5862 117.762 27.5862C117.648 27.5862 117.556 27.494 117.556 27.3803C117.556 27.2666 117.648 27.1745 117.762 27.1745C117.876 27.1745 117.968 27.2666 117.968 27.3803Z" fill="white"/>
<path d="M117.968 28.1123C117.968 28.226 117.876 28.3182 117.762 28.3182C117.648 28.3182 117.556 28.226 117.556 28.1123C117.556 27.9986 117.648 27.9065 117.762 27.9065C117.876 27.9065 117.968 27.9986 117.968 28.1123Z" fill="white"/>
<path d="M117.922 28.8443C117.922 28.958 117.83 29.0502 117.716 29.0502C117.603 29.0502 117.51 28.958 117.51 28.8443C117.51 28.7306 117.603 28.6384 117.716 28.6384C117.83 28.6384 117.922 28.7306 117.922 28.8443Z" fill="white"/>
<path d="M117.739 29.5305C117.739 29.6442 117.647 29.7364 117.533 29.7364C117.42 29.7364 117.327 29.6442 117.327 29.5305C117.327 29.4168 117.42 29.3247 117.533 29.3247C117.647 29.3247 117.739 29.4168 117.739 29.5305Z" fill="white"/>
<path d="M117.51 30.2167C117.51 30.3304 117.418 30.4226 117.305 30.4226C117.191 30.4226 117.099 30.3304 117.099 30.2167C117.099 30.103 117.191 30.0109 117.305 30.0109C117.418 30.0109 117.51 30.103 117.51 30.2167Z" fill="white"/>
<path d="M117.19 30.8572C117.19 30.9709 117.098 31.0631 116.984 31.0631C116.871 31.0631 116.778 30.9709 116.778 30.8572C116.778 30.7435 116.871 30.6514 116.984 30.6514C117.098 30.6514 117.19 30.7435 117.19 30.8572Z" fill="white"/>
<path d="M116.824 31.452C116.824 31.5657 116.732 31.6578 116.618 31.6578C116.505 31.6578 116.412 31.5657 116.412 31.452C116.412 31.3383 116.505 31.2461 116.618 31.2461C116.732 31.2461 116.824 31.3383 116.824 31.452Z" fill="white"/>
<path d="M116.412 32.0009C116.412 32.1146 116.32 32.2068 116.207 32.2068C116.093 32.2068 116.001 32.1146 116.001 32.0009C116.001 31.8872 116.093 31.7951 116.207 31.7951C116.32 31.7951 116.412 31.8872 116.412 32.0009Z" fill="white"/>
<path d="M115.909 32.4584C115.909 32.5721 115.817 32.6643 115.703 32.6643C115.59 32.6643 115.498 32.5721 115.498 32.4584C115.498 32.3447 115.59 32.2526 115.703 32.2526C115.817 32.2526 115.909 32.3447 115.909 32.4584Z" fill="white"/>
<path d="M115.36 32.8702C115.36 32.9838 115.268 33.076 115.154 33.076C115.041 33.076 114.949 32.9838 114.949 32.8702C114.949 32.7565 115.041 32.6643 115.154 32.6643C115.268 32.6643 115.36 32.7565 115.36 32.8702Z" fill="white"/>
<path d="M114.72 33.2361C114.72 33.3498 114.628 33.442 114.514 33.442C114.4 33.442 114.308 33.3498 114.308 33.2361C114.308 33.1224 114.4 33.0303 114.514 33.0303C114.628 33.0303 114.72 33.1224 114.72 33.2361Z" fill="white"/>
<path d="M114.079 33.4649C114.079 33.5786 113.987 33.6707 113.873 33.6707C113.76 33.6707 113.668 33.5786 113.668 33.4649C113.668 33.3512 113.76 33.259 113.873 33.259C113.987 33.259 114.079 33.3512 114.079 33.4649Z" fill="white"/>
<path d="M113.439 33.6479C113.439 33.7616 113.347 33.8537 113.233 33.8537C113.119 33.8537 113.027 33.7616 113.027 33.6479C113.027 33.5342 113.119 33.442 113.233 33.442C113.347 33.442 113.439 33.5342 113.439 33.6479Z" fill="white"/>
<path d="M112.021 33.7851C112.021 33.8988 111.928 33.991 111.815 33.991C111.701 33.991 111.609 33.8988 111.609 33.7851C111.609 33.6714 111.701 33.5793 111.815 33.5793C111.928 33.5793 112.021 33.6714 112.021 33.7851Z" fill="white"/>
<path d="M111.334 33.6936C111.334 33.8073 111.242 33.8995 111.129 33.8995C111.015 33.8995 110.923 33.8073 110.923 33.6936C110.923 33.5799 111.015 33.4878 111.129 33.4878C111.242 33.4878 111.334 33.5799 111.334 33.6936Z" fill="white"/>
<path d="M110.648 33.5564C110.648 33.6701 110.556 33.7622 110.442 33.7622C110.329 33.7622 110.236 33.6701 110.236 33.5564C110.236 33.4427 110.329 33.3505 110.442 33.3505C110.556 33.3505 110.648 33.4427 110.648 33.5564Z" fill="white"/>
<path d="M109.962 33.2819C109.962 33.3956 109.87 33.4878 109.756 33.4878C109.642 33.4878 109.55 33.3956 109.55 33.2819C109.55 33.1682 109.642 33.076 109.756 33.076C109.87 33.076 109.962 33.1682 109.962 33.2819Z" fill="white"/>
<path d="M109.321 32.9616C109.321 33.0753 109.229 33.1675 109.116 33.1675C109.002 33.1675 108.91 33.0753 108.91 32.9616C108.91 32.848 109.002 32.7558 109.116 32.7558C109.229 32.7558 109.321 32.848 109.321 32.9616Z" fill="white"/>
<path d="M108.681 32.5957C108.681 32.7094 108.589 32.8015 108.475 32.8015C108.361 32.8015 108.269 32.7094 108.269 32.5957C108.269 32.482 108.361 32.3898 108.475 32.3898C108.589 32.3898 108.681 32.482 108.681 32.5957Z" fill="white"/>
<path d="M108.132 32.1382C108.132 32.2519 108.04 32.344 107.926 32.344C107.812 32.344 107.72 32.2519 107.72 32.1382C107.72 32.0245 107.812 31.9323 107.926 31.9323C108.04 31.9323 108.132 32.0245 108.132 32.1382Z" fill="white"/>
<path d="M107.629 31.5892C107.629 31.7029 107.537 31.7951 107.423 31.7951C107.309 31.7951 107.217 31.7029 107.217 31.5892C107.217 31.4755 107.309 31.3833 107.423 31.3833C107.537 31.3833 107.629 31.4755 107.629 31.5892Z" fill="white"/>
<path d="M107.171 31.0402C107.171 31.1539 107.079 31.2461 106.965 31.2461C106.852 31.2461 106.76 31.1539 106.76 31.0402C106.76 30.9265 106.852 30.8343 106.965 30.8343C107.079 30.8343 107.171 30.9265 107.171 31.0402Z" fill="white"/>
<path d="M106.76 30.3997C106.76 30.5134 106.667 30.6056 106.554 30.6056C106.44 30.6056 106.348 30.5134 106.348 30.3997C106.348 30.286 106.44 30.1939 106.554 30.1939C106.667 30.1939 106.76 30.286 106.76 30.3997Z" fill="white"/>
<path d="M106.439 29.7135C106.439 29.8272 106.347 29.9194 106.233 29.9194C106.12 29.9194 106.028 29.8272 106.028 29.7135C106.028 29.5998 106.12 29.5076 106.233 29.5076C106.347 29.5076 106.439 29.5998 106.439 29.7135Z" fill="white"/>
<path d="M106.211 29.0273C106.211 29.141 106.118 29.2332 106.005 29.2332C105.891 29.2332 105.799 29.141 105.799 29.0273C105.799 28.9136 105.891 28.8214 106.005 28.8214C106.118 28.8214 106.211 28.9136 106.211 29.0273Z" fill="white"/>
<path d="M106.028 28.2953C106.028 28.409 105.935 28.5012 105.822 28.5012C105.708 28.5012 105.616 28.409 105.616 28.2953C105.616 28.1816 105.708 28.0894 105.822 28.0894C105.935 28.0894 106.028 28.1816 106.028 28.2953Z" fill="white"/>
<path d="M105.936 27.6091C105.936 27.7228 105.844 27.815 105.73 27.815C105.617 27.815 105.524 27.7228 105.524 27.6091C105.524 27.4954 105.617 27.4032 105.73 27.4032C105.844 27.4032 105.936 27.4954 105.936 27.6091Z" fill="white"/>
<path d="M105.936 26.8771C105.936 26.9908 105.844 27.083 105.73 27.083C105.617 27.083 105.524 26.9908 105.524 26.8771C105.524 26.7634 105.617 26.6712 105.73 26.6712C105.844 26.6712 105.936 26.7634 105.936 26.8771Z" fill="white"/>
<path d="M105.982 26.1451C105.982 26.2588 105.89 26.351 105.776 26.351C105.662 26.351 105.57 26.2588 105.57 26.1451C105.57 26.0314 105.662 25.9393 105.776 25.9393C105.89 25.9393 105.982 26.0314 105.982 26.1451Z" fill="white"/>
<path d="M106.165 25.4132C106.165 25.5269 106.073 25.619 105.959 25.619C105.845 25.619 105.753 25.5269 105.753 25.4132C105.753 25.2995 105.845 25.2073 105.959 25.2073C106.073 25.2073 106.165 25.2995 106.165 25.4132Z" fill="white"/>
<path d="M112.753 33.7394C112.753 33.8531 112.66 33.9452 112.547 33.9452C112.433 33.9452 112.341 33.8531 112.341 33.7394C112.341 33.6257 112.433 33.5335 112.547 33.5335C112.66 33.5335 112.753 33.6257 112.753 33.7394Z" fill="white"/>
</g>
<defs>
<filter id="filter0_dd_1968_2407" x="0.622393" y="0.750866" width="221.755" height="313.083" filterUnits="userSpaceOnUse" color-interpolation-filters="sRGB">
<feFlood flood-opacity="0" result="BackgroundImageFix"/>
<feColorMatrix in="SourceAlpha" type="matrix" values="0 0 0 0 0 0 0 0 0 0 0 0 0 0 0 0 0 0 127 0" result="hardAlpha"/>
<feOffset dy="0.146268"/>
<feGaussianBlur stdDeviation="0.219402"/>
<feComposite in2="hardAlpha" operator="out"/>
<feColorMatrix type="matrix" values="0 0 0 0 0.019962 0 0 0 0 0.0677962 0 0 0 0 0.162654 0 0 0 0.09 0"/>
<feBlend mode="normal" in2="BackgroundImageFix" result="effect1_dropShadow_1968_2407"/>
<feColorMatrix in="SourceAlpha" type="matrix" values="0 0 0 0 0 0 0 0 0 0 0 0 0 0 0 0 0 0 127 0" result="hardAlpha"/>
<feOffset dy="0.292536"/>
<feGaussianBlur stdDeviation="0.438804"/>
<feComposite in2="hardAlpha" operator="out"/>
<feColorMatrix type="matrix" values="0 0 0 0 0.0856981 0 0 0 0 0.167367 0 0 0 0 0.329321 0 0 0 0.11 0"/>
<feBlend mode="normal" in2="effect1_dropShadow_1968_2407" result="effect2_dropShadow_1968_2407"/>
<feBlend mode="normal" in="SourceGraphic" in2="effect2_dropShadow_1968_2407" result="shape"/>
</filter>
<clipPath id="clip0_1968_2407">
<rect width="220" height="311.328" fill="white" transform="translate(1.5 1.33594)"/>
</clipPath>
</defs>
</svg>
