<svg width="221" height="312" viewBox="0 0 221 312" fill="none" xmlns="http://www.w3.org/2000/svg">
<g clip-path="url(#clip0_1968_2512)">
<rect width="220" height="311.328" transform="translate(0.5 0.335938)" fill="#2481C2"/>
<g opacity="0.2">
<line x1="154.095" y1="-330.984" x2="154.095" y2="699.864" stroke="#A8B7D4" stroke-width="0.369748"/>
<line x1="65.4036" y1="-330.984" x2="65.4036" y2="699.864" stroke="#A8B7D4" stroke-width="0.369748"/>
<line x1="176.271" y1="-330.984" x2="176.271" y2="699.864" stroke="#A8B7D4" stroke-width="0.369748"/>
<line x1="87.5716" y1="-330.984" x2="87.5716" y2="699.864" stroke="#A8B7D4" stroke-width="0.369748"/>
<line x1="21.056" y1="-330.984" x2="21.0559" y2="699.864" stroke="#A8B7D4" stroke-width="0.369748"/>
<line x1="198.435" y1="-330.984" x2="198.435" y2="699.864" stroke="#A8B7D4" stroke-width="0.369748"/>
<line x1="109.755" y1="-330.984" x2="109.755" y2="699.864" stroke="#A8B7D4" stroke-width="0.369748"/>
<line x1="43.2396" y1="-330.984" x2="43.2395" y2="699.864" stroke="#A8B7D4" stroke-width="0.369748"/>
<line x1="220.603" y1="-330.984" x2="220.603" y2="699.864" stroke="#A8B7D4" stroke-width="0.369748"/>
<line x1="131.923" y1="-330.984" x2="131.923" y2="699.864" stroke="#A8B7D4" stroke-width="0.369748"/>
<line x1="-510.23" y1="1.45575" x2="763.35" y2="1.4558" stroke="#A8B7D4" stroke-width="0.369748"/>
<line x1="-510.23" y1="178.854" x2="763.35" y2="178.854" stroke="#A8B7D4" stroke-width="0.369748"/>
<line x1="-510.23" y1="267.557" x2="763.35" y2="267.557" stroke="#A8B7D4" stroke-width="0.369748"/>
<line x1="-510.23" y1="90.1667" x2="763.35" y2="90.1667" stroke="#A8B7D4" stroke-width="0.369748"/>
<line x1="-510.23" y1="156.69" x2="763.35" y2="156.69" stroke="#A8B7D4" stroke-width="0.369748"/>
<line x1="-510.23" y1="245.385" x2="763.35" y2="245.385" stroke="#A8B7D4" stroke-width="0.369748"/>
<line x1="-510.23" y1="67.9948" x2="763.35" y2="67.9949" stroke="#A8B7D4" stroke-width="0.369748"/>
<line x1="-510.23" y1="134.518" x2="763.35" y2="134.518" stroke="#A8B7D4" stroke-width="0.369748"/>
<line x1="-510.23" y1="223.198" x2="763.35" y2="223.198" stroke="#A8B7D4" stroke-width="0.369748"/>
<line x1="-510.23" y1="45.8073" x2="763.35" y2="45.8074" stroke="#A8B7D4" stroke-width="0.369748"/>
<line x1="-510.23" y1="289.721" x2="763.35" y2="289.721" stroke="#A8B7D4" stroke-width="0.369748"/>
<line x1="-510.23" y1="112.331" x2="763.35" y2="112.331" stroke="#A8B7D4" stroke-width="0.369748"/>
<line x1="-510.23" y1="201.034" x2="763.35" y2="201.034" stroke="#A8B7D4" stroke-width="0.369748"/>
<line x1="-510.23" y1="23.6354" x2="763.35" y2="23.6355" stroke="#A8B7D4" stroke-width="0.369748"/>
</g>
<path d="M0.5 0.335938H220.5V174.319H0.5V0.335938Z" fill="url(#paint0_linear_1968_2512)"/>
<path fill-rule="evenodd" clip-rule="evenodd" d="M216.852 164.024C231.075 164.024 242.606 152.493 242.606 138.27C242.606 124.046 231.075 112.516 216.852 112.516C202.628 112.516 191.098 124.046 191.098 138.27C191.098 152.493 202.628 164.024 216.852 164.024Z" fill="#D0B3D6"/>
<path fill-rule="evenodd" clip-rule="evenodd" d="M216.852 225.814C231.075 225.814 242.606 214.285 242.606 200.063C242.606 185.841 231.075 174.312 216.852 174.312C202.628 174.312 191.098 185.841 191.098 200.063C191.098 214.285 202.628 225.814 216.852 225.814Z" fill="#5D3D6E"/>
<path fill-rule="evenodd" clip-rule="evenodd" d="M216.852 289.906C231.075 289.906 242.606 278.376 242.606 264.152C242.606 249.929 231.075 238.398 216.852 238.398C202.628 238.398 191.098 249.929 191.098 264.152C191.098 278.376 202.628 289.906 216.852 289.906Z" fill="#2481C2"/>
<path fill-rule="evenodd" clip-rule="evenodd" d="M152.786 225.814C167.008 225.814 178.537 214.285 178.537 200.063C178.537 185.841 167.008 174.312 152.786 174.312C138.564 174.312 127.035 185.841 127.035 200.063C127.035 214.285 138.564 225.814 152.786 225.814Z" fill="#2F4C6C"/>
<path fill-rule="evenodd" clip-rule="evenodd" d="M152.747 289.906C166.968 289.906 178.497 278.376 178.497 264.152C178.497 249.929 166.968 238.398 152.747 238.398C138.525 238.398 126.996 249.929 126.996 264.152C126.996 278.376 138.525 289.906 152.747 289.906Z" fill="#35B2C2"/>
<path fill-rule="evenodd" clip-rule="evenodd" d="M90.969 289.906C105.193 289.906 116.723 278.376 116.723 264.152C116.723 249.929 105.193 238.398 90.969 238.398C76.7454 238.398 65.2148 249.929 65.2148 264.152C65.2148 278.376 76.7454 289.906 90.969 289.906Z" fill="#5C3262"/>
<path d="M29.9026 62.3202C31.1678 62.3202 32.244 62.6256 33.1312 63.2365C34.0183 63.8327 34.4619 64.7199 34.4619 65.8979C34.4619 67.2504 33.9165 68.4212 32.8258 69.4101C31.7496 70.3991 30.4334 71.1481 28.8772 71.6571C27.3356 72.1807 25.8886 72.4643 24.536 72.5079L24.3397 71.7225C26.2013 71.3444 27.8447 70.6972 29.2699 69.781C30.7097 68.8648 31.4296 67.6286 31.4296 66.0724C31.4296 65.5052 31.2624 65.0035 30.9279 64.5672C30.6079 64.1163 30.1862 63.7746 29.6626 63.5419C29.1536 63.2946 28.6227 63.171 28.0701 63.171C27.1102 63.171 26.1285 63.3674 25.125 63.76L25.0814 63.6509V70.2391L22.3545 71.1335V63.1056C22.3545 61.6367 22.6745 60.2914 23.3144 59.0698C23.9543 57.8481 24.8487 56.8883 25.9976 56.1902C27.1611 55.4775 28.47 55.1212 29.9244 55.1212C30.6661 55.1212 31.2915 55.303 31.8005 55.6666C32.3095 56.0302 32.564 56.5538 32.564 57.2373C32.564 58.1535 32.0913 59.0916 31.146 60.0515C30.2007 60.9968 29.1463 61.7967 27.9828 62.4511L28.0265 62.5602C28.7682 62.4002 29.3935 62.3202 29.9026 62.3202ZM25.0814 63.1056C26.3031 62.5238 27.3575 61.8039 28.2446 60.9459C29.1463 60.0878 29.5971 59.1352 29.5971 58.0881C29.5971 57.55 29.459 57.121 29.1827 56.801C28.9063 56.4665 28.5282 56.2993 28.0483 56.2993C27.3211 56.2993 26.7321 56.6119 26.2812 57.2373C25.8449 57.8481 25.5323 58.5826 25.3432 59.4406C25.1687 60.2987 25.0814 61.1204 25.0814 61.9057V63.1056ZM41.5827 60.1823C40.6228 60.8659 39.8666 61.644 39.3139 62.5166C38.7758 63.3746 38.5067 64.3854 38.5067 65.5489C38.5067 66.1888 38.6304 66.836 38.8776 67.4904C39.1248 68.1449 39.4884 68.6902 39.9684 69.1265C40.4483 69.5483 41.0228 69.7592 41.6918 69.7592C42.5353 69.7592 43.2115 69.4538 43.7206 68.8429C44.2441 68.2321 44.5059 67.4759 44.5059 66.5742C44.5059 65.8906 44.3241 65.1998 43.9605 64.5017C43.6115 63.7891 43.1388 63.1928 42.5425 62.7129C41.9463 62.2184 41.3064 61.9421 40.6228 61.8839C40.9282 61.5494 41.2555 61.244 41.6045 60.9677C41.9681 60.6914 42.4189 60.3569 42.957 59.9642C44.0042 60.3132 44.8331 60.9604 45.444 61.9057C46.0693 62.8511 46.382 63.8909 46.382 65.0253C46.382 66.0288 46.1566 67.0032 45.7057 67.9485C45.2694 68.8939 44.6295 69.6647 43.786 70.2609C42.957 70.8427 41.9899 71.1335 40.8846 71.1335C39.9684 71.1335 39.1248 70.9227 38.354 70.5009C37.5978 70.0646 36.9942 69.4756 36.5434 68.7339C36.0925 67.9776 35.8671 67.1486 35.8671 66.2469C35.8671 64.6908 36.3543 63.3237 37.3287 62.1457C38.3177 60.9677 39.5975 60.146 41.1682 59.6806L41.5827 60.1823ZM53.7472 60.1823C52.7873 60.8659 52.031 61.644 51.4784 62.5166C50.9403 63.3746 50.6712 64.3854 50.6712 65.5489C50.6712 66.1888 50.7949 66.836 51.0421 67.4904C51.2893 68.1449 51.6529 68.6902 52.1329 69.1265C52.6128 69.5483 53.1872 69.7592 53.8562 69.7592C54.6998 69.7592 55.376 69.4538 55.8851 68.8429C56.4086 68.2321 56.6704 67.4759 56.6704 66.5742C56.6704 65.8906 56.4886 65.1998 56.125 64.5017C55.776 63.7891 55.3033 63.1928 54.707 62.7129C54.1108 62.2184 53.4708 61.9421 52.7873 61.8839C53.0927 61.5494 53.4199 61.244 53.769 60.9677C54.1326 60.6914 54.5834 60.3569 55.1215 59.9642C56.1687 60.3132 56.9976 60.9604 57.6084 61.9057C58.2338 62.8511 58.5465 63.8909 58.5465 65.0253C58.5465 66.0288 58.3211 67.0032 57.8702 67.9485C57.4339 68.8939 56.794 69.6647 55.9505 70.2609C55.1215 70.8427 54.1544 71.1335 53.0491 71.1335C52.1329 71.1335 51.2893 70.9227 50.5185 70.5009C49.7623 70.0646 49.1587 69.4756 48.7079 68.7339C48.257 67.9776 48.0316 67.1486 48.0316 66.2469C48.0316 64.6908 48.5188 63.3237 49.4932 62.1457C50.4822 60.9677 51.762 60.146 53.3327 59.6806L53.7472 60.1823ZM63.7083 65.9634H63.861C64.341 64.3054 64.9591 62.8511 65.7153 61.6003C66.4861 60.3496 67.4387 59.7242 68.5731 59.7242C69.1112 59.7242 69.5402 59.906 69.8602 60.2696C70.1802 60.6332 70.3401 61.084 70.3401 61.6221C70.3401 62.5238 69.962 63.3819 69.2057 64.1963C68.464 65.0108 67.606 65.7088 66.6316 66.2906C66.7625 66.4796 66.8933 66.6469 67.0242 66.7923C67.6205 67.6068 68.1513 68.2612 68.6167 68.7557C69.0967 69.2356 69.5475 69.4756 69.9693 69.4756C70.5074 69.4756 70.9655 69.2502 71.3436 68.7993L71.7363 69.2356C71.4163 69.7592 70.9655 70.1955 70.3838 70.5445C69.802 70.8936 69.1912 71.0681 68.5513 71.0681C67.9259 71.0681 67.3587 70.8499 66.8497 70.4136C66.3552 69.9773 65.7953 69.3665 65.1699 68.5812C64.69 67.9994 64.3846 67.6504 64.2537 67.534L64.0574 67.6431C63.9701 67.9485 63.8901 68.3994 63.8174 68.9957C63.7592 69.5919 63.7229 70.1082 63.7083 70.5445L61.1123 71.1117V51.5872L63.7083 50.6709V65.9634ZM67.0242 61.993C66.5298 61.993 66.0135 62.5602 65.4754 63.6946C64.9373 64.8144 64.4937 65.8906 64.1446 66.9232C65.119 66.356 65.948 65.7088 66.6316 64.9817C67.3296 64.2545 67.6787 63.5491 67.6787 62.8656C67.6787 62.6329 67.6205 62.4293 67.5042 62.2548C67.3878 62.0803 67.2278 61.993 67.0242 61.993ZM88.0397 54.9903C87.5307 55.7175 86.8617 56.3211 86.0327 56.801C85.2037 57.2809 84.3675 57.5209 83.524 57.5209C83.2476 57.8699 83.044 58.2044 82.9131 58.5244C82.7968 58.8443 82.7386 59.2152 82.7386 59.637V66.6833C82.7386 67.7304 82.5059 68.6103 82.0405 69.3229C81.5897 70.0355 80.8843 70.69 79.9245 71.2862L79.4664 70.7627C79.8445 70.2827 80.0335 69.5774 80.0335 68.6466V60.9022C80.0335 60.2914 80.2226 59.7024 80.6007 59.1352C80.9934 58.5535 81.4733 58.0154 82.0405 57.5209L79.1391 57.4991C78.6446 57.4991 78.1938 57.6082 77.7866 57.8263C77.3794 58.0445 76.994 58.379 76.6304 58.8298L76.1505 58.3717C76.834 57.47 77.5321 56.7574 78.2447 56.2338C78.9719 55.7102 79.7936 55.4485 80.7098 55.4485H83.9385C84.6365 55.4485 85.3419 55.3903 86.0545 55.2739C86.7671 55.143 87.3053 54.9176 87.6688 54.5977L88.0397 54.9903ZM89.5787 57.63L88.2043 58.0663L87.3099 53.5069L90.3422 52.4816L89.5787 57.63ZM90.2768 68.8211C90.2768 69.0393 90.3277 69.2138 90.4295 69.3447C90.5313 69.4756 90.6694 69.541 90.844 69.541C91.2075 69.541 91.5784 69.2865 91.9565 68.7775L92.3492 69.192C92.0293 69.7737 91.6148 70.2173 91.1057 70.5227C90.6113 70.8281 90.1168 70.9808 89.6223 70.9808C88.2989 70.9808 87.6371 70.2173 87.6371 68.6902V60.8368L90.2768 59.9206V68.8211ZM97.2036 61.3604V68.8211C97.2036 69.0247 97.2618 69.1993 97.3781 69.3447C97.4945 69.4756 97.6472 69.541 97.8362 69.541C98.1853 69.541 98.5779 69.2865 99.0142 68.7775L99.4069 69.192C99.1451 69.7156 98.8179 70.1082 98.4252 70.37C98.0326 70.6318 97.6544 70.8063 97.2908 70.8936C96.9273 70.9808 96.7455 71.0099 96.7455 70.9808C95.2911 70.9808 94.564 70.2173 94.564 68.6902V61.3604H93.0151L93.6913 59.9206H94.564V54.9685L97.2036 54.0741V59.9206H100.061L99.4069 61.3604H97.2036ZM104.593 68.8211C104.593 69.0102 104.637 69.1774 104.724 69.3229C104.826 69.4683 104.978 69.541 105.182 69.541C105.386 69.541 105.589 69.461 105.793 69.3011C106.011 69.1411 106.185 68.9666 106.316 68.7775L106.709 69.192C106.462 69.6865 106.098 70.1082 105.618 70.4573C105.153 70.8063 104.651 70.9808 104.113 70.9808C102.702 70.9808 101.997 70.2173 101.997 68.6902V51.5872L104.593 50.6491V68.8211ZM114.332 59.7242C115.176 59.7242 115.881 59.9424 116.448 60.3787C117.016 60.8004 117.299 61.4185 117.299 62.233C117.299 62.8874 116.943 63.6219 116.23 64.4363C115.532 65.2362 114.696 65.9852 113.722 66.6833C112.762 67.3668 111.94 67.8613 111.256 68.1667C111.867 69.1411 112.762 69.6283 113.94 69.6283C114.594 69.6283 115.249 69.4465 115.903 69.0829C116.572 68.7048 117.139 68.2103 117.605 67.5995L118.041 68.123C117.285 69.0684 116.485 69.8028 115.641 70.3264C114.812 70.8354 113.823 71.0899 112.674 71.0899C111.744 71.0899 110.907 70.879 110.166 70.4573C109.439 70.0355 108.864 69.461 108.442 68.7339C108.035 67.9922 107.831 67.1632 107.831 66.2469C107.831 65.1416 108.13 64.0873 108.726 63.0838C109.337 62.0657 110.144 61.2513 111.147 60.6405C112.151 60.0296 113.213 59.7242 114.332 59.7242ZM113.089 61.1422C112.536 61.1422 112.042 61.3458 111.605 61.753C111.169 62.1457 110.827 62.6547 110.58 63.2801C110.333 63.9055 110.209 64.5526 110.209 65.2216C110.209 66.0942 110.398 66.8432 110.777 67.4686C111.315 67.1632 111.882 66.7414 112.478 66.2033C113.089 65.6507 113.598 65.0617 114.005 64.4363C114.412 63.8109 114.616 63.2437 114.616 62.7347C114.616 62.2257 114.478 61.833 114.201 61.5567C113.94 61.2804 113.569 61.1422 113.089 61.1422ZM131.176 60.1605C130.274 60.9604 129.227 61.644 128.034 62.2111L128.078 62.342C128.529 62.2111 129.038 62.1457 129.605 62.1457C130.434 62.1457 131.198 62.3202 131.896 62.6693C132.594 63.0038 133.146 63.4764 133.554 64.0873C133.961 64.6981 134.164 65.4034 134.164 66.2033C134.164 67.5849 133.626 68.7411 132.55 69.6719C131.488 70.6027 130.187 71.279 128.645 71.7007C127.104 72.137 125.62 72.3552 124.195 72.3552L124.042 71.6789C125.075 71.548 126.136 71.2572 127.227 70.8063C128.318 70.3409 129.234 69.7228 129.976 68.952C130.718 68.1667 131.088 67.2723 131.088 66.2688C131.088 65.338 130.768 64.5963 130.129 64.0436C129.503 63.491 128.711 63.2146 127.751 63.2146C127.314 63.2146 126.871 63.2728 126.42 63.3892C125.984 63.5055 125.475 63.6873 124.893 63.9345L124.609 63.1928C125.875 62.6111 126.973 61.9203 127.903 61.1204C128.849 60.306 129.321 59.3825 129.321 58.3499C129.321 57.8263 129.176 57.4409 128.885 57.1937C128.609 56.9319 128.231 56.801 127.751 56.801C127.198 56.801 126.587 56.9901 125.918 57.3682C125.249 57.7318 124.697 58.1608 124.26 58.6553L123.693 58.0881C124.464 57.0991 125.38 56.3429 126.442 55.8193C127.503 55.2812 128.536 55.0122 129.54 55.0122C130.427 55.0122 131.147 55.2303 131.699 55.6666C132.266 56.1029 132.55 56.7283 132.55 57.5427C132.55 58.4735 132.092 59.3461 131.176 60.1605Z" fill="white"/>
<path d="M27.276 83.7635C27.2182 83.5866 27.1421 83.4282 27.0475 83.2881C26.9547 83.1463 26.8436 83.0255 26.714 82.9257C26.5862 82.826 26.4409 82.7498 26.2781 82.6973C26.1153 82.6448 25.9367 82.6185 25.7424 82.6185C25.4238 82.6185 25.134 82.7008 24.8732 82.8653C24.6123 83.0299 24.4048 83.2724 24.2508 83.5928C24.0967 83.9131 24.0197 84.3062 24.0197 84.7719C24.0197 85.2375 24.0976 85.6306 24.2534 85.951C24.4092 86.2713 24.6202 86.5138 24.8863 86.6784C25.1524 86.8429 25.4518 86.9252 25.7844 86.9252C26.0925 86.9252 26.3639 86.8596 26.5985 86.7283C26.8348 86.5952 27.0186 86.4079 27.1499 86.1663C27.283 85.9229 27.3495 85.6367 27.3495 85.3076L27.5491 85.3496H25.9315V84.7719H27.9798V85.3496C27.9798 85.7925 27.8852 86.1777 27.6962 86.5051C27.5088 86.8324 27.2497 87.0863 26.9189 87.2666C26.5897 87.4452 26.2116 87.5345 25.7844 87.5345C25.3082 87.5345 24.8898 87.4224 24.5291 87.1983C24.1703 86.9742 23.8901 86.6556 23.6888 86.2425C23.4892 85.8293 23.3894 85.3391 23.3894 84.7719C23.3894 84.3464 23.4463 83.9639 23.5601 83.6243C23.6757 83.2829 23.8385 82.9923 24.0486 82.7524C24.2587 82.5126 24.5073 82.3288 24.7944 82.201C25.0815 82.0732 25.3975 82.0093 25.7424 82.0093C26.026 82.0093 26.2904 82.0521 26.5355 82.1379C26.7823 82.222 27.002 82.3419 27.1946 82.4977C27.3889 82.6518 27.5509 82.8365 27.6804 83.0518C27.81 83.2654 27.8992 83.5026 27.9483 83.7635H27.276ZM31.5532 85.8118V83.4273H32.1729V87.4609H31.5532V86.7782H31.5112C31.4166 86.983 31.2696 87.1572 31.07 87.3007C30.8704 87.4426 30.6183 87.5135 30.3137 87.5135C30.0616 87.5135 29.8375 87.4583 29.6414 87.348C29.4453 87.236 29.2913 87.0679 29.1792 86.8438C29.0672 86.618 29.0112 86.3335 29.0112 85.9903V83.4273H29.6309V85.9483C29.6309 86.2425 29.7132 86.477 29.8778 86.6521C30.0441 86.8272 30.2559 86.9147 30.5133 86.9147C30.6673 86.9147 30.824 86.8753 30.9833 86.7965C31.1444 86.7178 31.2792 86.597 31.3877 86.4342C31.498 86.2713 31.5532 86.0639 31.5532 85.8118ZM33.308 87.4609V83.4273H33.9278V87.4609H33.308ZM33.6232 82.7551C33.5024 82.7551 33.3982 82.7139 33.3107 82.6316C33.2249 82.5493 33.182 82.4504 33.182 82.3349C33.182 82.2193 33.2249 82.1204 33.3107 82.0381C33.3982 81.9559 33.5024 81.9147 33.6232 81.9147C33.744 81.9147 33.8472 81.9559 33.933 82.0381C34.0206 82.1204 34.0643 82.2193 34.0643 82.3349C34.0643 82.4504 34.0206 82.5493 33.933 82.6316C33.8472 82.7139 33.744 82.7551 33.6232 82.7551ZM36.586 87.545C36.2499 87.545 35.9531 87.4601 35.6958 87.2902C35.4384 87.1187 35.2371 86.8771 35.0918 86.5655C34.9465 86.2521 34.8738 85.8818 34.8738 85.4546C34.8738 85.031 34.9465 84.6633 35.0918 84.3517C35.2371 84.0401 35.4393 83.7993 35.6984 83.6295C35.9575 83.4597 36.2569 83.3748 36.5965 83.3748C36.8591 83.3748 37.0666 83.4186 37.2189 83.5061C37.3729 83.5919 37.4902 83.6899 37.5708 83.8002C37.6531 83.9088 37.717 83.9981 37.7625 84.0681H37.815V82.0828H38.4347V87.4609H37.836V86.8412H37.7625C37.717 86.9147 37.6522 87.0075 37.5681 87.1196C37.4841 87.2298 37.3642 87.3288 37.2084 87.4163C37.0526 87.5021 36.8451 87.545 36.586 87.545ZM36.67 86.9882C36.9186 86.9882 37.1287 86.9235 37.3003 86.7939C37.4719 86.6626 37.6023 86.4814 37.6916 86.2503C37.7809 86.0175 37.8255 85.7488 37.8255 85.4441C37.8255 85.143 37.7817 84.8795 37.6942 84.6537C37.6067 84.4261 37.4771 84.2493 37.3055 84.1232C37.134 83.9954 36.9221 83.9315 36.67 83.9315C36.4074 83.9315 36.1886 83.9989 36.0135 84.1337C35.8402 84.2668 35.7098 84.448 35.6222 84.6773C35.5365 84.9049 35.4936 85.1605 35.4936 85.4441C35.4936 85.7312 35.5373 85.9921 35.6249 86.2267C35.7142 86.4595 35.8455 86.6451 36.0188 86.7834C36.1938 86.92 36.4109 86.9882 36.67 86.9882ZM41.347 87.545C40.9584 87.545 40.6231 87.4592 40.3413 87.2876C40.0611 87.1143 39.8449 86.8727 39.6926 86.5628C39.5421 86.2512 39.4668 85.8888 39.4668 85.4756C39.4668 85.0625 39.5421 84.6983 39.6926 84.3832C39.8449 84.0663 40.0568 83.8195 40.3281 83.6427C40.6012 83.4641 40.9199 83.3748 41.284 83.3748C41.4941 83.3748 41.7015 83.4098 41.9064 83.4798C42.1112 83.5499 42.2977 83.6637 42.4657 83.8212C42.6338 83.977 42.7677 84.1836 42.8675 84.441C42.9673 84.6983 43.0172 85.0152 43.0172 85.3916V85.6542H39.908V85.1185H42.3869C42.3869 84.8909 42.3414 84.6878 42.2504 84.5093C42.1611 84.3307 42.0333 84.1898 41.867 84.0865C41.7024 83.9832 41.5081 83.9315 41.284 83.9315C41.0372 83.9315 40.8236 83.9928 40.6432 84.1153C40.4647 84.2361 40.3272 84.3937 40.231 84.588C40.1347 84.7824 40.0865 84.9907 40.0865 85.213V85.5702C40.0865 85.8748 40.139 86.133 40.2441 86.3449C40.3509 86.555 40.4988 86.7151 40.6879 86.8254C40.877 86.934 41.0967 86.9882 41.347 86.9882C41.5098 86.9882 41.6569 86.9655 41.7882 86.92C41.9213 86.8727 42.0359 86.8027 42.1322 86.7099C42.2285 86.6153 42.3029 86.4981 42.3554 86.358L42.9542 86.5261C42.8911 86.7291 42.7852 86.9077 42.6364 87.0618C42.4876 87.2141 42.3038 87.3331 42.085 87.4189C41.8661 87.503 41.6201 87.545 41.347 87.545ZM47.7835 87.4609H46.1238V82.0828H47.857C48.3787 82.0828 48.8251 82.1905 49.1963 82.4058C49.5674 82.6194 49.8519 82.9266 50.0498 83.3275C50.2476 83.7267 50.3465 84.2046 50.3465 84.7614C50.3465 85.3216 50.2467 85.8039 50.0471 86.2083C49.8476 86.611 49.5569 86.9208 49.1753 87.1379C48.7936 87.3533 48.3297 87.4609 47.7835 87.4609ZM46.7751 86.8832H47.7415C48.1861 86.8832 48.5547 86.7974 48.847 86.6259C49.1394 86.4543 49.3574 86.2101 49.5009 85.8932C49.6445 85.5763 49.7163 85.199 49.7163 84.7614C49.7163 84.3272 49.6454 83.9534 49.5035 83.64C49.3617 83.3249 49.1499 83.0833 48.868 82.9152C48.5862 82.7454 48.2352 82.6605 47.815 82.6605H46.7751V86.8832ZM53.0461 87.545C52.6574 87.545 52.3222 87.4592 52.0403 87.2876C51.7602 87.1143 51.544 86.8727 51.3917 86.5628C51.2411 86.2512 51.1658 85.8888 51.1658 85.4756C51.1658 85.0625 51.2411 84.6983 51.3917 84.3832C51.544 84.0663 51.7558 83.8195 52.0272 83.6427C52.3003 83.4641 52.6189 83.3748 52.9831 83.3748C53.1931 83.3748 53.4006 83.4098 53.6054 83.4798C53.8103 83.5499 53.9967 83.6637 54.1648 83.8212C54.3328 83.977 54.4668 84.1836 54.5666 84.441C54.6664 84.6983 54.7163 85.0152 54.7163 85.3916V85.6542H51.607V85.1185H54.086C54.086 84.8909 54.0405 84.6878 53.9494 84.5093C53.8602 84.3307 53.7324 84.1898 53.566 84.0865C53.4015 83.9832 53.2071 83.9315 52.9831 83.9315C52.7362 83.9315 52.5226 83.9928 52.3423 84.1153C52.1637 84.2361 52.0263 84.3937 51.93 84.588C51.8337 84.7824 51.7856 84.9907 51.7856 85.213V85.5702C51.7856 85.8748 51.8381 86.133 51.9431 86.3449C52.0499 86.555 52.1979 86.7151 52.3869 86.8254C52.576 86.934 52.7957 86.9882 53.0461 86.9882C53.2089 86.9882 53.356 86.9655 53.4873 86.92C53.6203 86.8727 53.735 86.8027 53.8313 86.7099C53.9276 86.6153 54.002 86.4981 54.0545 86.358L54.6532 86.5261C54.5902 86.7291 54.4843 86.9077 54.3355 87.0618C54.1867 87.2141 54.0028 87.3331 53.784 87.4189C53.5652 87.503 53.3192 87.545 53.0461 87.545ZM58.5161 84.3307L57.9594 84.4882C57.9244 84.3955 57.8728 84.3053 57.8045 84.2178C57.738 84.1285 57.6469 84.0549 57.5314 83.9972C57.4158 83.9394 57.2679 83.9105 57.0876 83.9105C56.8407 83.9105 56.635 83.9674 56.4705 84.0812C56.3076 84.1933 56.2262 84.3359 56.2262 84.5093C56.2262 84.6633 56.2823 84.785 56.3943 84.8743C56.5063 84.9636 56.6814 85.038 56.9195 85.0975L57.5182 85.2446C57.8789 85.3321 58.1476 85.466 58.3244 85.6463C58.5013 85.8249 58.5897 86.0551 58.5897 86.337C58.5897 86.5681 58.5232 86.7747 58.3901 86.9567C58.2588 87.1388 58.075 87.2824 57.8386 87.3874C57.6023 87.4925 57.3274 87.545 57.014 87.545C56.6026 87.545 56.2621 87.4557 55.9925 87.2771C55.7229 87.0985 55.5522 86.8377 55.4804 86.4946L56.0687 86.3475C56.1247 86.5646 56.2306 86.7274 56.3864 86.8359C56.544 86.9445 56.7497 86.9988 57.0035 86.9988C57.2924 86.9988 57.5217 86.9375 57.6916 86.8149C57.8631 86.6906 57.9489 86.5418 57.9489 86.3685C57.9489 86.2284 57.8999 86.1111 57.8019 86.0166C57.7038 85.9203 57.5533 85.8485 57.3502 85.8013L56.6779 85.6437C56.3085 85.5562 56.0372 85.4205 55.8638 85.2367C55.6923 85.0511 55.6065 84.8191 55.6065 84.5408C55.6065 84.3132 55.6704 84.1118 55.7982 83.9368C55.9277 83.7617 56.1037 83.6243 56.326 83.5245C56.5501 83.4247 56.804 83.3748 57.0876 83.3748C57.4867 83.3748 57.8001 83.4623 58.0277 83.6374C58.257 83.8125 58.4199 84.0436 58.5161 84.3307ZM61.1612 87.545C60.7831 87.545 60.4575 87.4557 60.1843 87.2771C59.9112 87.0985 59.7012 86.8526 59.5541 86.5392C59.407 86.2258 59.3335 85.8678 59.3335 85.4651C59.3335 85.0555 59.4088 84.694 59.5593 84.3806C59.7117 84.0655 59.9235 83.8195 60.1949 83.6427C60.468 83.4641 60.7866 83.3748 61.1507 83.3748C61.4343 83.3748 61.69 83.4273 61.9175 83.5324C62.1451 83.6374 62.3316 83.7845 62.4769 83.9735C62.6222 84.1626 62.7124 84.3832 62.7474 84.6353H62.1276C62.0804 84.4515 61.9753 84.2887 61.8125 84.1469C61.6514 84.0033 61.4343 83.9315 61.1612 83.9315C60.9196 83.9315 60.7078 83.9946 60.5257 84.1206C60.3454 84.2449 60.2045 84.4208 60.1029 84.6484C60.0032 84.8743 59.9533 85.1395 59.9533 85.4441C59.9533 85.7558 60.0023 86.0271 60.1003 86.2582C60.2001 86.4893 60.3402 86.6687 60.5205 86.7965C60.7026 86.9243 60.9161 86.9882 61.1612 86.9882C61.3223 86.9882 61.4685 86.9602 61.5998 86.9042C61.7311 86.8482 61.8423 86.7677 61.9333 86.6626C62.0243 86.5576 62.0891 86.4315 62.1276 86.2845H62.7474C62.7124 86.5226 62.6257 86.737 62.4874 86.9278C62.3508 87.1169 62.1696 87.2675 61.9438 87.3795C61.7197 87.4898 61.4589 87.545 61.1612 87.545ZM63.6534 87.4609V83.4273H64.2521V84.0366H64.2941C64.3676 83.837 64.5007 83.675 64.6933 83.5507C64.8859 83.4264 65.1029 83.3643 65.3445 83.3643C65.3901 83.3643 65.447 83.3652 65.5152 83.3669C65.5835 83.3687 65.6352 83.3713 65.6702 83.3748V84.0051C65.6492 83.9998 65.601 83.9919 65.5257 83.9814C65.4522 83.9692 65.3743 83.963 65.292 83.963C65.0959 83.963 64.9209 84.0042 64.7668 84.0865C64.6145 84.167 64.4937 84.279 64.4044 84.4226C64.3169 84.5644 64.2731 84.7263 64.2731 84.9084V87.4609H63.6534ZM66.4048 87.4609V83.4273H67.0246V87.4609H66.4048ZM66.7199 82.7551C66.5991 82.7551 66.495 82.7139 66.4074 82.6316C66.3216 82.5493 66.2788 82.4504 66.2788 82.3349C66.2788 82.2193 66.3216 82.1204 66.4074 82.0381C66.495 81.9559 66.5991 81.9147 66.7199 81.9147C66.8407 81.9147 66.944 81.9559 67.0298 82.0381C67.1173 82.1204 67.1611 82.2193 67.1611 82.3349C67.1611 82.4504 67.1173 82.5493 67.0298 82.6316C66.944 82.7139 66.8407 82.7551 66.7199 82.7551ZM68.1597 88.9735V83.4273H68.7584V84.0681H68.8319C68.8774 83.9981 68.9405 83.9088 69.021 83.8002C69.1033 83.6899 69.2206 83.5919 69.3729 83.5061C69.527 83.4186 69.7353 83.3748 69.9979 83.3748C70.3375 83.3748 70.6369 83.4597 70.896 83.6295C71.1551 83.7993 71.3573 84.0401 71.5026 84.3517C71.6479 84.6633 71.7206 85.031 71.7206 85.4546C71.7206 85.8818 71.6479 86.2521 71.5026 86.5655C71.3573 86.8771 71.156 87.1187 70.8986 87.2902C70.6413 87.4601 70.3445 87.545 70.0084 87.545C69.7493 87.545 69.5418 87.5021 69.386 87.4163C69.2302 87.3288 69.1103 87.2298 69.0263 87.1196C68.9422 87.0075 68.8774 86.9147 68.8319 86.8412H68.7794V88.9735H68.1597ZM68.7689 85.4441C68.7689 85.7488 68.8135 86.0175 68.9028 86.2503C68.9921 86.4814 69.1225 86.6626 69.2941 86.7939C69.4657 86.9235 69.6758 86.9882 69.9244 86.9882C70.1835 86.9882 70.3997 86.92 70.573 86.7834C70.7481 86.6451 70.8794 86.4595 70.9669 86.2267C71.0562 85.9921 71.1008 85.7312 71.1008 85.4441C71.1008 85.1605 71.0571 84.9049 70.9695 84.6773C70.8838 84.448 70.7533 84.2668 70.5783 84.1337C70.4049 83.9989 70.187 83.9315 69.9244 83.9315C69.6723 83.9315 69.4604 83.9954 69.2889 84.1232C69.1173 84.2493 68.9877 84.4261 68.9002 84.6537C68.8127 84.8795 68.7689 85.143 68.7689 85.4441ZM74.4202 83.4273V83.9525H72.3298V83.4273H74.4202ZM72.9391 82.4609H73.5588V86.3055C73.5588 86.4805 73.5842 86.6118 73.635 86.6994C73.6875 86.7852 73.754 86.8429 73.8346 86.8727C73.9168 86.9007 74.0035 86.9147 74.0945 86.9147C74.1628 86.9147 74.2188 86.9112 74.2626 86.9042C74.3064 86.8955 74.3414 86.8885 74.3676 86.8832L74.4937 87.4399C74.4517 87.4557 74.393 87.4714 74.3178 87.4872C74.2425 87.5047 74.1471 87.5135 74.0315 87.5135C73.8564 87.5135 73.6849 87.4758 73.5168 87.4005C73.3505 87.3253 73.2122 87.2106 73.1019 87.0565C72.9933 86.9025 72.9391 86.7081 72.9391 86.4735V82.4609ZM75.3524 87.4609V83.4273H75.9722V87.4609H75.3524ZM75.6675 82.7551C75.5467 82.7551 75.4426 82.7139 75.355 82.6316C75.2693 82.5493 75.2264 82.4504 75.2264 82.3349C75.2264 82.2193 75.2693 82.1204 75.355 82.0381C75.4426 81.9559 75.5467 81.9147 75.6675 81.9147C75.7883 81.9147 75.8916 81.9559 75.9774 82.0381C76.0649 82.1204 76.1087 82.2193 76.1087 82.3349C76.1087 82.4504 76.0649 82.5493 75.9774 82.6316C75.8916 82.7139 75.7883 82.7551 75.6675 82.7551ZM78.7459 87.545C78.3818 87.545 78.0623 87.4583 77.7874 87.285C77.5143 87.1117 77.3007 86.8692 77.1467 86.5576C76.9944 86.246 76.9182 85.8818 76.9182 85.4651C76.9182 85.045 76.9944 84.6782 77.1467 84.3648C77.3007 84.0514 77.5143 83.8081 77.7874 83.6348C78.0623 83.4615 78.3818 83.3748 78.7459 83.3748C79.1101 83.3748 79.4287 83.4615 79.7018 83.6348C79.9767 83.8081 80.1903 84.0514 80.3426 84.3648C80.4966 84.6782 80.5737 85.045 80.5737 85.4651C80.5737 85.8818 80.4966 86.246 80.3426 86.5576C80.1903 86.8692 79.9767 87.1117 79.7018 87.285C79.4287 87.4583 79.1101 87.545 78.7459 87.545ZM78.7459 86.9882C79.0225 86.9882 79.2501 86.9173 79.4287 86.7755C79.6073 86.6337 79.7395 86.4473 79.8252 86.2162C79.911 85.9851 79.9539 85.7347 79.9539 85.4651C79.9539 85.1955 79.911 84.9443 79.8252 84.7115C79.7395 84.4786 79.6073 84.2904 79.4287 84.1469C79.2501 84.0033 79.0225 83.9315 78.7459 83.9315C78.4693 83.9315 78.2417 84.0033 78.0632 84.1469C77.8846 84.2904 77.7524 84.4786 77.6666 84.7115C77.5808 84.9443 77.5379 85.1955 77.5379 85.4651C77.5379 85.7347 77.5808 85.9851 77.6666 86.2162C77.7524 86.4473 77.8846 86.6337 78.0632 86.7755C78.2417 86.9173 78.4693 86.9882 78.7459 86.9882ZM82.1394 85.0345V87.4609H81.5197V83.4273H82.1184V84.0576H82.171C82.2655 83.8527 82.409 83.6882 82.6016 83.5639C82.7942 83.4378 83.0428 83.3748 83.3474 83.3748C83.6205 83.3748 83.8595 83.4308 84.0643 83.5429C84.2692 83.6532 84.4285 83.8212 84.5423 84.0471C84.6561 84.2712 84.713 84.5548 84.713 84.8979V87.4609H84.0932V84.9399C84.0932 84.6231 84.0109 84.3762 83.8464 84.1994C83.6818 84.0208 83.456 83.9315 83.1689 83.9315C82.971 83.9315 82.7942 83.9744 82.6384 84.0602C82.4843 84.146 82.3627 84.2712 82.2734 84.4357C82.1841 84.6003 82.1394 84.7999 82.1394 85.0345Z" fill="white"/>
<path d="M39.1576 40.1511C39.132 40.3164 38.9937 40.4321 38.8488 40.4097C38.7038 40.3873 38.607 40.2351 38.6326 40.0698C38.6582 39.9046 38.7964 39.7888 38.9414 39.8112C39.0864 39.8336 39.1832 39.9858 39.1576 40.1511Z" fill="white"/>
<path d="M39.7066 39.1904C39.681 39.3556 39.5427 39.4714 39.3977 39.449C39.2528 39.4266 39.156 39.2744 39.1816 39.1091C39.2071 38.9438 39.3454 38.828 39.4904 38.8505C39.6354 38.8729 39.7321 39.0251 39.7066 39.1904Z" fill="white"/>
<path d="M40.1641 38.2297C40.1385 38.3949 40.0002 38.5107 39.8552 38.4883C39.7103 38.4658 39.6135 38.3137 39.639 38.1484C39.6646 37.9831 39.8029 37.8673 39.9479 37.8898C40.0928 37.9122 40.1896 38.0644 40.1641 38.2297Z" fill="white"/>
<path d="M40.4843 37.1774C40.4587 37.3427 40.3204 37.4585 40.1755 37.4361C40.0305 37.4136 39.9337 37.2615 39.9593 37.0962C39.9849 36.9309 40.1231 36.8151 40.2681 36.8376C40.4131 36.86 40.5099 37.0122 40.4843 37.1774Z" fill="white"/>
<path d="M40.713 36.1252C40.6875 36.2905 40.5492 36.4063 40.4042 36.3838C40.2592 36.3614 40.1624 36.2092 40.188 36.044C40.2136 35.8787 40.3519 35.7629 40.4969 35.7853C40.6418 35.8078 40.7386 35.96 40.713 36.1252Z" fill="white"/>
<path d="M40.8045 35.073C40.7789 35.2383 40.6407 35.3541 40.4957 35.3316C40.3507 35.3092 40.2539 35.157 40.2795 34.9918C40.3051 34.8265 40.4434 34.7107 40.5883 34.7331C40.7333 34.7556 40.8301 34.9077 40.8045 35.073Z" fill="white"/>
<path d="M40.8503 33.9751C40.8247 34.1403 40.6864 34.2561 40.5415 34.2337C40.3965 34.2112 40.2997 34.0591 40.3253 33.8938C40.3509 33.7285 40.4891 33.6127 40.6341 33.6352C40.7791 33.6576 40.8759 33.8098 40.8503 33.9751Z" fill="white"/>
<path d="M40.7588 32.9228C40.7332 33.0881 40.5949 33.2039 40.45 33.1815C40.305 33.159 40.2082 33.0069 40.2338 32.8416C40.2594 32.6763 40.3976 32.5605 40.5426 32.583C40.6876 32.6054 40.7844 32.7576 40.7588 32.9228Z" fill="white"/>
<path d="M40.53 31.9164C40.5045 32.0817 40.3662 32.1974 40.2212 32.175C40.0762 32.1526 39.9795 32.0004 40.005 31.8351C40.0306 31.6698 40.1689 31.5541 40.3139 31.5765C40.4588 31.5989 40.5556 31.7511 40.53 31.9164Z" fill="white"/>
<path d="M40.2098 30.9099C40.1842 31.0752 40.046 31.191 39.901 31.1685C39.756 31.1461 39.6592 30.9939 39.6848 30.8287C39.7104 30.6634 39.8486 30.5476 39.9936 30.57C40.1386 30.5925 40.2354 30.7446 40.2098 30.9099Z" fill="white"/>
<path d="M39.7981 29.9949C39.7725 30.1602 39.6342 30.276 39.4892 30.2536C39.3443 30.2311 39.2475 30.079 39.2731 29.9137C39.2986 29.7484 39.4369 29.6326 39.5819 29.6551C39.7269 29.6775 39.8236 29.8297 39.7981 29.9949Z" fill="white"/>
<path d="M39.2948 29.1257C39.2693 29.291 39.131 29.4068 38.986 29.3843C38.841 29.3619 38.7442 29.2097 38.7698 29.0445C38.7954 28.8792 38.9337 28.7634 39.0786 28.7858C39.2236 28.8083 39.3204 28.9605 39.2948 29.1257Z" fill="white"/>
<path d="M38.7001 28.348C38.6745 28.5133 38.5363 28.6291 38.3913 28.6066C38.2463 28.5842 38.1495 28.432 38.1751 28.2667C38.2007 28.1015 38.3389 27.9857 38.4839 28.0081C38.6289 28.0306 38.7257 28.1827 38.7001 28.348Z" fill="white"/>
<path d="M38.0139 27.6618C37.9883 27.8271 37.85 27.9428 37.7051 27.9204C37.5601 27.898 37.4633 27.7458 37.4889 27.5805C37.5145 27.4152 37.6527 27.2995 37.7977 27.3219C37.9427 27.3443 38.0395 27.4965 38.0139 27.6618Z" fill="white"/>
<path d="M37.2362 27.0671C37.2106 27.2323 37.0723 27.3481 36.9273 27.3257C36.7824 27.3032 36.6856 27.1511 36.7111 26.9858C36.7367 26.8205 36.875 26.7047 37.02 26.7272C37.1649 26.7496 37.2617 26.9018 37.2362 27.0671Z" fill="white"/>
<path d="M36.4127 26.5638C36.3871 26.7291 36.2488 26.8449 36.1039 26.8224C35.9589 26.8 35.8621 26.6478 35.8877 26.4826C35.9133 26.3173 36.0515 26.2015 36.1965 26.2239C36.3415 26.2464 36.4383 26.3985 36.4127 26.5638Z" fill="white"/>
<path d="M35.5435 26.1978C35.5179 26.3631 35.3796 26.4789 35.2346 26.4565C35.0897 26.434 34.9929 26.2818 35.0185 26.1166C35.044 25.9513 35.1823 25.8355 35.3273 25.858C35.4723 25.8804 35.569 26.0326 35.5435 26.1978Z" fill="white"/>
<path d="M34.6285 25.9691C34.6029 26.1344 34.4647 26.2501 34.3197 26.2277C34.1747 26.2053 34.0779 26.0531 34.1035 25.8878C34.1291 25.7226 34.2673 25.6068 34.4123 25.6292C34.5573 25.6516 34.6541 25.8038 34.6285 25.9691Z" fill="white"/>
<path d="M33.6678 25.8318C33.6422 25.9971 33.5039 26.1129 33.359 26.0905C33.214 26.068 33.1172 25.9159 33.1428 25.7506C33.1684 25.5853 33.3066 25.4695 33.4516 25.492C33.5966 25.5144 33.6934 25.6666 33.6678 25.8318Z" fill="white"/>
<path d="M32.7071 25.8318C32.6815 25.9971 32.5432 26.1129 32.3982 26.0905C32.2533 26.068 32.1565 25.9159 32.1821 25.7506C32.2076 25.5853 32.3459 25.4695 32.4909 25.492C32.6359 25.5144 32.7326 25.6666 32.7071 25.8318Z" fill="white"/>
<path d="M31.7921 25.9233C31.7665 26.0886 31.6283 26.2044 31.4833 26.182C31.3383 26.1595 31.2415 26.0074 31.2671 25.8421C31.2927 25.6768 31.4309 25.561 31.5759 25.5835C31.7209 25.6059 31.8177 25.7581 31.7921 25.9233Z" fill="white"/>
<path d="M30.8314 26.1521C30.8058 26.3174 30.6675 26.4331 30.5226 26.4107C30.3776 26.3883 30.2808 26.2361 30.3064 26.0708C30.332 25.9055 30.4702 25.7898 30.6152 25.8122C30.7602 25.8346 30.857 25.9868 30.8314 26.1521Z" fill="white"/>
<path d="M29.9164 26.5181C29.8908 26.6833 29.7526 26.7991 29.6076 26.7767C29.4626 26.7542 29.3658 26.6021 29.3914 26.4368C29.417 26.2715 29.5553 26.1557 29.7002 26.1782C29.8452 26.2006 29.942 26.3528 29.9164 26.5181Z" fill="white"/>
<path d="M29.0472 26.9756C29.0216 27.1408 28.8834 27.2566 28.7384 27.2342C28.5934 27.2117 28.4966 27.0596 28.5222 26.8943C28.5478 26.729 28.686 26.6132 28.831 26.6357C28.976 26.6581 29.0728 26.8103 29.0472 26.9756Z" fill="white"/>
<path d="M28.178 27.5703C28.1524 27.7356 28.0141 27.8513 27.8692 27.8289C27.7242 27.8065 27.6274 27.6543 27.653 27.489C27.6786 27.3237 27.8168 27.208 27.9618 27.2304C28.1068 27.2528 28.2036 27.405 28.178 27.5703Z" fill="white"/>
<path d="M27.446 28.2565C27.4204 28.4218 27.2822 28.5376 27.1372 28.5151C26.9922 28.4927 26.8954 28.3405 26.921 28.1752C26.9466 28.01 27.0848 27.8942 27.2298 27.9166C27.3748 27.9391 27.4716 28.0912 27.446 28.2565Z" fill="white"/>
<path d="M26.714 29.0342C26.6884 29.1995 26.5502 29.3153 26.4052 29.2929C26.2602 29.2704 26.1634 29.1182 26.189 28.953C26.2146 28.7877 26.3529 28.6719 26.4978 28.6944C26.6428 28.7168 26.7396 28.869 26.714 29.0342Z" fill="white"/>
<path d="M26.0736 29.9035C26.048 30.0687 25.9097 30.1845 25.7647 30.1621C25.6198 30.1396 25.523 29.9875 25.5485 29.8222C25.5741 29.6569 25.7124 29.5411 25.8574 29.5636C26.0023 29.586 26.0991 29.7382 26.0736 29.9035Z" fill="white"/>
<path d="M25.5703 30.8642C25.5447 31.0294 25.4065 31.1452 25.2615 31.1228C25.1165 31.1003 25.0197 30.9482 25.0453 30.7829C25.0709 30.6176 25.2092 30.5018 25.3541 30.5243C25.4991 30.5467 25.5959 30.6989 25.5703 30.8642Z" fill="white"/>
<path d="M25.1586 31.8249C25.133 31.9902 24.9947 32.1059 24.8498 32.0835C24.7048 32.0611 24.608 31.9089 24.6336 31.7436C24.6592 31.5783 24.7974 31.4626 24.9424 31.485C25.0874 31.5074 25.1842 31.6596 25.1586 31.8249Z" fill="white"/>
<path d="M24.7926 32.8313C24.767 32.9966 24.6288 33.1124 24.4838 33.09C24.3388 33.0675 24.242 32.9154 24.2676 32.7501C24.2932 32.5848 24.4314 32.469 24.5764 32.4915C24.7214 32.5139 24.8182 32.6661 24.7926 32.8313Z" fill="white"/>
<path d="M24.5639 33.8836C24.5383 34.0488 24.4 34.1646 24.255 34.1422C24.1101 34.1197 24.0133 33.9676 24.0388 33.8023C24.0644 33.637 24.2027 33.5212 24.3477 33.5437C24.4926 33.5661 24.5894 33.7183 24.5639 33.8836Z" fill="white"/>
<path d="M24.4266 34.9815C24.401 35.1468 24.2628 35.2626 24.1178 35.2401C23.9728 35.2177 23.876 35.0655 23.9016 34.9003C23.9272 34.735 24.0655 34.6192 24.2104 34.6416C24.3554 34.6641 24.4522 34.8162 24.4266 34.9815Z" fill="white"/>
<path d="M24.4266 36.0795C24.401 36.2448 24.2628 36.3605 24.1178 36.3381C23.9728 36.3157 23.876 36.1635 23.9016 35.9982C23.9272 35.8329 24.0655 35.7172 24.2104 35.7396C24.3554 35.762 24.4522 35.9142 24.4266 36.0795Z" fill="white"/>
<path d="M24.5181 37.1317C24.4925 37.297 24.3543 37.4128 24.2093 37.3903C24.0643 37.3679 23.9675 37.2157 23.9931 37.0504C24.0187 36.8852 24.1569 36.7694 24.3019 36.7918C24.4469 36.8143 24.5437 36.9664 24.5181 37.1317Z" fill="white"/>
<path d="M24.7468 38.1839C24.7213 38.3492 24.583 38.465 24.438 38.4425C24.293 38.4201 24.1963 38.2679 24.2218 38.1026C24.2474 37.9374 24.3857 37.8216 24.5307 37.844C24.6756 37.8665 24.7724 38.0186 24.7468 38.1839Z" fill="white"/>
<path d="M25.0671 39.0989C25.0415 39.2641 24.9032 39.3799 24.7583 39.3575C24.6133 39.3351 24.5165 39.1829 24.5421 39.0176C24.5677 38.8523 24.7059 38.7366 24.8509 38.759C24.9959 38.7814 25.0927 38.9336 25.0671 39.0989Z" fill="white"/>
<path d="M25.4788 40.0596C25.4532 40.2249 25.315 40.3407 25.17 40.3182C25.025 40.2958 24.9282 40.1436 24.9538 39.9783C24.9794 39.8131 25.1177 39.6973 25.2626 39.7197C25.4076 39.7421 25.5044 39.8943 25.4788 40.0596Z" fill="white"/>
<path d="M25.9821 40.9288C25.9565 41.0941 25.8182 41.2099 25.6732 41.1874C25.5283 41.165 25.4315 41.0128 25.457 40.8475C25.4826 40.6823 25.6209 40.5665 25.7659 40.5889C25.9108 40.6114 26.0076 40.7635 25.9821 40.9288Z" fill="white"/>
<path d="M26.5768 41.7065C26.5512 41.8718 26.4129 41.9876 26.268 41.9652C26.123 41.9427 26.0262 41.7905 26.0518 41.6253C26.0774 41.46 26.2156 41.3442 26.3606 41.3666C26.5056 41.3891 26.6024 41.5413 26.5768 41.7065Z" fill="white"/>
<path d="M27.3088 42.3928C27.2832 42.558 27.1449 42.6738 26.9999 42.6514C26.855 42.6289 26.7582 42.4768 26.7838 42.3115C26.8093 42.1462 26.9476 42.0304 27.0926 42.0529C27.2376 42.0753 27.3343 42.2275 27.3088 42.3928Z" fill="white"/>
<path d="M28.0407 42.9875C28.0152 43.1528 27.8769 43.2685 27.7319 43.2461C27.5869 43.2237 27.4901 43.0715 27.5157 42.9062C27.5413 42.741 27.6796 42.6252 27.8245 42.6476C27.9695 42.67 28.0663 42.8222 28.0407 42.9875Z" fill="white"/>
<path d="M28.8642 43.4907C28.8386 43.656 28.7004 43.7718 28.5554 43.7493C28.4104 43.7269 28.3136 43.5747 28.3392 43.4095C28.3648 43.2442 28.503 43.1284 28.648 43.1508C28.793 43.1733 28.8898 43.3254 28.8642 43.4907Z" fill="white"/>
<path d="M29.7334 43.8567C29.7078 44.022 29.5696 44.1378 29.4246 44.1153C29.2796 44.0929 29.1828 43.9407 29.2084 43.7754C29.234 43.6102 29.3723 43.4944 29.5172 43.5168C29.6622 43.5393 29.759 43.6914 29.7334 43.8567Z" fill="white"/>
<path d="M30.6484 44.0854C30.6228 44.2507 30.4845 44.3665 30.3396 44.3441C30.1946 44.3216 30.0978 44.1695 30.1234 44.0042C30.149 43.8389 30.2872 43.7231 30.4322 43.7456C30.5772 43.768 30.674 43.9202 30.6484 44.0854Z" fill="white"/>
<path d="M31.6091 44.2227C31.5835 44.388 31.4453 44.5038 31.3003 44.4813C31.1553 44.4589 31.0585 44.3067 31.0841 44.1414C31.1097 43.9762 31.2479 43.8604 31.3929 43.8828C31.5379 43.9053 31.6347 44.0574 31.6091 44.2227Z" fill="white"/>
<path d="M32.5241 44.2227C32.4985 44.388 32.3602 44.5038 32.2153 44.4813C32.0703 44.4589 31.9735 44.3067 31.9991 44.1414C32.0246 43.9762 32.1629 43.8604 32.3079 43.8828C32.4529 43.9053 32.5497 44.0574 32.5241 44.2227Z" fill="white"/>
<path d="M33.4848 44.1312C33.4592 44.2965 33.3209 44.4123 33.176 44.3898C33.031 44.3674 32.9342 44.2152 32.9598 44.0499C32.9854 43.8847 33.1236 43.7689 33.2686 43.7913C33.4136 43.8138 33.5104 43.9659 33.4848 44.1312Z" fill="white"/>
<path d="M34.4455 43.9025C34.4199 44.0677 34.2817 44.1835 34.1367 44.1611C33.9917 44.1386 33.8949 43.9865 33.9205 43.8212C33.9461 43.6559 34.0843 43.5401 34.2293 43.5626C34.3743 43.585 34.4711 43.7372 34.4455 43.9025Z" fill="white"/>
<path d="M35.3605 43.5365C35.3349 43.7017 35.1966 43.8175 35.0517 43.7951C34.9067 43.7726 34.8099 43.6205 34.8355 43.4552C34.861 43.2899 34.9993 43.1741 35.1443 43.1966C35.2893 43.219 35.3861 43.3712 35.3605 43.5365Z" fill="white"/>
<path d="M36.2297 43.0332C36.2041 43.1985 36.0658 43.3143 35.9209 43.2919C35.7759 43.2694 35.6791 43.1172 35.7047 42.952C35.7303 42.7867 35.8685 42.6709 36.0135 42.6934C36.1585 42.7158 36.2553 42.868 36.2297 43.0332Z" fill="white"/>
<path d="M37.0532 42.4385C37.0276 42.6038 36.8893 42.7196 36.7443 42.6971C36.5994 42.6747 36.5026 42.5225 36.5282 42.3572C36.5537 42.192 36.692 42.0762 36.837 42.0986C36.982 42.1211 37.0787 42.2732 37.0532 42.4385Z" fill="white"/>
<path d="M37.8309 41.7523C37.8053 41.9176 37.667 42.0333 37.5221 42.0109C37.3771 41.9885 37.2803 41.8363 37.3059 41.671C37.3315 41.5057 37.4697 41.39 37.6147 41.4124C37.7597 41.4348 37.8565 41.587 37.8309 41.7523Z" fill="white"/>
<path d="M38.5629 41.0203C38.5373 41.1856 38.399 41.3014 38.254 41.2789C38.1091 41.2565 38.0123 41.1043 38.0379 40.939C38.0634 40.7738 38.2017 40.658 38.3467 40.6804C38.4917 40.7029 38.5884 40.855 38.5629 41.0203Z" fill="white"/>
<path d="M29.6654 45.0545C29.6654 45.2693 29.4913 45.4434 29.2765 45.4434C29.0618 45.4434 28.8877 45.2693 28.8877 45.0545C28.8877 44.8397 29.0618 44.6657 29.2765 44.6657C29.4913 44.6657 29.6654 44.8397 29.6654 45.0545Z" fill="white"/>
<path d="M30.9463 45.329C30.9463 45.5438 30.7722 45.7179 30.5575 45.7179C30.3427 45.7179 30.1686 45.5438 30.1686 45.329C30.1686 45.1142 30.3427 44.9401 30.5575 44.9401C30.7722 44.9401 30.9463 45.1142 30.9463 45.329Z" fill="white"/>
<path d="M32.2273 45.4662C32.2273 45.681 32.0532 45.8551 31.8384 45.8551C31.6237 45.8551 31.4496 45.681 31.4496 45.4662C31.4496 45.2515 31.6237 45.0774 31.8384 45.0774C32.0532 45.0774 32.2273 45.2515 32.2273 45.4662Z" fill="white"/>
<path d="M33.5997 45.4662C33.5997 45.681 33.4256 45.8551 33.2109 45.8551C32.9961 45.8551 32.822 45.681 32.822 45.4662C32.822 45.2515 32.9961 45.0774 33.2109 45.0774C33.4256 45.0774 33.5997 45.2515 33.5997 45.4662Z" fill="white"/>
<path d="M34.8807 45.329C34.8807 45.5438 34.7066 45.7179 34.4918 45.7179C34.2771 45.7179 34.103 45.5438 34.103 45.329C34.103 45.1142 34.2771 44.9401 34.4918 44.9401C34.7066 44.9401 34.8807 45.1142 34.8807 45.329Z" fill="white"/>
<path d="M36.1616 45.0545C36.1616 45.2693 35.9875 45.4434 35.7728 45.4434C35.558 45.4434 35.3839 45.2693 35.3839 45.0545C35.3839 44.8397 35.558 44.6657 35.7728 44.6657C35.9875 44.6657 36.1616 44.8397 36.1616 45.0545Z" fill="white"/>
<path d="M37.3968 44.5513C37.3968 44.766 37.2228 44.9401 37.008 44.9401C36.7932 44.9401 36.6191 44.766 36.6191 44.5513C36.6191 44.3365 36.7932 44.1624 37.008 44.1624C37.2228 44.1624 37.3968 44.3365 37.3968 44.5513Z" fill="white"/>
<path d="M38.5863 44.0023C38.5863 44.2171 38.4122 44.3912 38.1974 44.3912C37.9827 44.3912 37.8086 44.2171 37.8086 44.0023C37.8086 43.7875 37.9827 43.6134 38.1974 43.6134C38.4122 43.6134 38.5863 43.7875 38.5863 44.0023Z" fill="white"/>
<path d="M39.6843 43.2246C39.6843 43.4393 39.5102 43.6134 39.2954 43.6134C39.0806 43.6134 38.9065 43.4393 38.9065 43.2246C38.9065 43.0098 39.0806 42.8357 39.2954 42.8357C39.5102 42.8357 39.6843 43.0098 39.6843 43.2246Z" fill="white"/>
<path d="M40.6907 42.4469C40.6907 42.6616 40.5166 42.8357 40.3019 42.8357C40.0871 42.8357 39.913 42.6616 39.913 42.4469C39.913 42.2321 40.0871 42.058 40.3019 42.058C40.5166 42.058 40.6907 42.2321 40.6907 42.4469Z" fill="white"/>
<path d="M41.6057 41.4404C41.6057 41.6552 41.4316 41.8293 41.2168 41.8293C41.0021 41.8293 40.828 41.6552 40.828 41.4404C40.828 41.2256 41.0021 41.0515 41.2168 41.0515C41.4316 41.0515 41.6057 41.2256 41.6057 41.4404Z" fill="white"/>
<path d="M42.3834 40.3882C42.3834 40.6029 42.2093 40.777 41.9946 40.777C41.7798 40.777 41.6057 40.6029 41.6057 40.3882C41.6057 40.1734 41.7798 39.9993 41.9946 39.9993C42.2093 39.9993 42.3834 40.1734 42.3834 40.3882Z" fill="white"/>
<path d="M43.0239 39.2445C43.0239 39.4592 42.8498 39.6333 42.635 39.6333C42.4203 39.6333 42.2462 39.4592 42.2462 39.2445C42.2462 39.0297 42.4203 38.8556 42.635 38.8556C42.8498 38.8556 43.0239 39.0297 43.0239 39.2445Z" fill="white"/>
<path d="M43.5729 38.055C43.5729 38.2698 43.3988 38.4439 43.184 38.4439C42.9693 38.4439 42.7952 38.2698 42.7952 38.055C42.7952 37.8402 42.9693 37.6662 43.184 37.6662C43.3988 37.6662 43.5729 37.8402 43.5729 38.055Z" fill="white"/>
<path d="M43.9389 36.8198C43.9389 37.0346 43.7648 37.2087 43.55 37.2087C43.3352 37.2087 43.1611 37.0346 43.1611 36.8198C43.1611 36.605 43.3352 36.4309 43.55 36.4309C43.7648 36.4309 43.9389 36.605 43.9389 36.8198Z" fill="white"/>
<path d="M44.1676 35.4931C44.1676 35.7079 43.9935 35.882 43.7787 35.882C43.564 35.882 43.3899 35.7079 43.3899 35.4931C43.3899 35.2783 43.564 35.1042 43.7787 35.1042C43.9935 35.1042 44.1676 35.2783 44.1676 35.4931Z" fill="white"/>
<path d="M44.1676 34.1664C44.1676 34.3812 43.9935 34.5553 43.7787 34.5553C43.564 34.5553 43.3899 34.3812 43.3899 34.1664C43.3899 33.9516 43.564 33.7775 43.7787 33.7775C43.9935 33.7775 44.1676 33.9516 44.1676 34.1664Z" fill="white"/>
<path d="M44.1676 32.8397C44.1676 33.0545 43.9935 33.2286 43.7787 33.2286C43.564 33.2286 43.3899 33.0545 43.3899 32.8397C43.3899 32.6249 43.564 32.4508 43.7787 32.4508C43.9935 32.4508 44.1676 32.6249 44.1676 32.8397Z" fill="white"/>
<path d="M43.9389 31.6045C43.9389 31.8193 43.7648 31.9934 43.55 31.9934C43.3352 31.9934 43.1611 31.8193 43.1611 31.6045C43.1611 31.3897 43.3352 31.2156 43.55 31.2156C43.7648 31.2156 43.9389 31.3897 43.9389 31.6045Z" fill="white"/>
<path d="M43.5729 30.2778C43.5729 30.4925 43.3988 30.6666 43.184 30.6666C42.9693 30.6666 42.7952 30.4925 42.7952 30.2778C42.7952 30.063 42.9693 29.8889 43.184 29.8889C43.3988 29.8889 43.5729 30.063 43.5729 30.2778Z" fill="white"/>
<path d="M43.0239 29.1341C43.0239 29.3488 42.8498 29.5229 42.635 29.5229C42.4203 29.5229 42.2462 29.3488 42.2462 29.1341C42.2462 28.9193 42.4203 28.7452 42.635 28.7452C42.8498 28.7452 43.0239 28.9193 43.0239 29.1341Z" fill="white"/>
<path d="M42.3834 27.9904C42.3834 28.2051 42.2093 28.3792 41.9946 28.3792C41.7798 28.3792 41.6057 28.2051 41.6057 27.9904C41.6057 27.7756 41.7798 27.6015 41.9946 27.6015C42.2093 27.6015 42.3834 27.7756 42.3834 27.9904Z" fill="white"/>
<path d="M41.6057 26.9839C41.6057 27.1987 41.4316 27.3728 41.2168 27.3728C41.0021 27.3728 40.828 27.1987 40.828 26.9839C40.828 26.7691 41.0021 26.595 41.2168 26.595C41.4316 26.595 41.6057 26.7691 41.6057 26.9839Z" fill="white"/>
<path d="M40.645 25.9317C40.645 26.1465 40.4709 26.3206 40.2561 26.3206C40.0414 26.3206 39.8673 26.1465 39.8673 25.9317C39.8673 25.7169 40.0414 25.5428 40.2561 25.5428C40.4709 25.5428 40.645 25.7169 40.645 25.9317Z" fill="white"/>
<path d="M39.6843 25.154C39.6843 25.3687 39.5102 25.5428 39.2954 25.5428C39.0806 25.5428 38.9065 25.3687 38.9065 25.154C38.9065 24.9392 39.0806 24.7651 39.2954 24.7651C39.5102 24.7651 39.6843 24.9392 39.6843 25.154Z" fill="white"/>
<path d="M38.5863 24.3762C38.5863 24.591 38.4122 24.7651 38.1974 24.7651C37.9827 24.7651 37.8086 24.591 37.8086 24.3762C37.8086 24.1615 37.9827 23.9874 38.1974 23.9874C38.4122 23.9874 38.5863 24.1615 38.5863 24.3762Z" fill="white"/>
<path d="M37.4426 23.8273C37.4426 24.042 37.2685 24.2161 37.0537 24.2161C36.839 24.2161 36.6649 24.042 36.6649 23.8273C36.6649 23.6125 36.839 23.4384 37.0537 23.4384C37.2685 23.4384 37.4426 23.6125 37.4426 23.8273Z" fill="white"/>
<path d="M36.1616 23.324C36.1616 23.5388 35.9875 23.7129 35.7728 23.7129C35.558 23.7129 35.3839 23.5388 35.3839 23.324C35.3839 23.1093 35.558 22.9352 35.7728 22.9352C35.9875 22.9352 36.1616 23.1093 36.1616 23.324Z" fill="white"/>
<path d="M34.9264 23.0495C34.9264 23.2643 34.7523 23.4384 34.5376 23.4384C34.3228 23.4384 34.1487 23.2643 34.1487 23.0495C34.1487 22.8348 34.3228 22.6607 34.5376 22.6607C34.7523 22.6607 34.9264 22.8348 34.9264 23.0495Z" fill="white"/>
<path d="M33.554 22.9123C33.554 23.1271 33.3799 23.3012 33.1651 23.3012C32.9504 23.3012 32.7763 23.1271 32.7763 22.9123C32.7763 22.6975 32.9504 22.5234 33.1651 22.5234C33.3799 22.5234 33.554 22.6975 33.554 22.9123Z" fill="white"/>
<path d="M32.3188 22.9123C32.3188 23.1271 32.1447 23.3012 31.9299 23.3012C31.7152 23.3012 31.5411 23.1271 31.5411 22.9123C31.5411 22.6975 31.7152 22.5234 31.9299 22.5234C32.1447 22.5234 32.3188 22.6975 32.3188 22.9123Z" fill="white"/>
<path d="M30.9463 23.0495C30.9463 23.2643 30.7722 23.4384 30.5575 23.4384C30.3427 23.4384 30.1686 23.2643 30.1686 23.0495C30.1686 22.8348 30.3427 22.6607 30.5575 22.6607C30.7722 22.6607 30.9463 22.8348 30.9463 23.0495Z" fill="white"/>
<path d="M29.6654 23.324C29.6654 23.5388 29.4913 23.7129 29.2765 23.7129C29.0618 23.7129 28.8877 23.5388 28.8877 23.324C28.8877 23.1093 29.0618 22.9352 29.2765 22.9352C29.4913 22.9352 29.6654 23.1093 29.6654 23.324Z" fill="white"/>
<path d="M28.4759 23.8273C28.4759 24.042 28.3018 24.2161 28.0871 24.2161C27.8723 24.2161 27.6982 24.042 27.6982 23.8273C27.6982 23.6125 27.8723 23.4384 28.0871 23.4384C28.3018 23.4384 28.4759 23.6125 28.4759 23.8273Z" fill="white"/>
<path d="M27.2407 24.422C27.2407 24.6368 27.0666 24.8109 26.8518 24.8109C26.6371 24.8109 26.463 24.6368 26.463 24.422C26.463 24.2072 26.6371 24.0331 26.8518 24.0331C27.0666 24.0331 27.2407 24.2072 27.2407 24.422Z" fill="white"/>
<path d="M26.1427 25.1082C26.1427 25.323 25.9686 25.4971 25.7539 25.4971C25.5391 25.4971 25.365 25.323 25.365 25.1082C25.365 24.8935 25.5391 24.7194 25.7539 24.7194C25.9686 24.7194 26.1427 24.8935 26.1427 25.1082Z" fill="white"/>
<path d="M25.1363 25.9774C25.1363 26.1922 24.9622 26.3663 24.7474 26.3663C24.5327 26.3663 24.3586 26.1922 24.3586 25.9774C24.3586 25.7627 24.5327 25.5886 24.7474 25.5886C24.9622 25.5886 25.1363 25.7627 25.1363 25.9774Z" fill="white"/>
<path d="M24.2671 26.9382C24.2671 27.1529 24.093 27.327 23.8782 27.327C23.6634 27.327 23.4893 27.1529 23.4893 26.9382C23.4893 26.7234 23.6634 26.5493 23.8782 26.5493C24.093 26.5493 24.2671 26.7234 24.2671 26.9382Z" fill="white"/>
<path d="M23.4893 27.9904C23.4893 28.2051 23.3152 28.3792 23.1005 28.3792C22.8857 28.3792 22.7116 28.2051 22.7116 27.9904C22.7116 27.7756 22.8857 27.6015 23.1005 27.6015C23.3152 27.6015 23.4893 27.7756 23.4893 27.9904Z" fill="white"/>
<path d="M22.8031 29.1341C22.8031 29.3488 22.629 29.5229 22.4143 29.5229C22.1995 29.5229 22.0254 29.3488 22.0254 29.1341C22.0254 28.9193 22.1995 28.7452 22.4143 28.7452C22.629 28.7452 22.8031 28.9193 22.8031 29.1341Z" fill="white"/>
<path d="M22.2541 30.3235C22.2541 30.5383 22.08 30.7124 21.8653 30.7124C21.6505 30.7124 21.4764 30.5383 21.4764 30.3235C21.4764 30.1088 21.6505 29.9347 21.8653 29.9347C22.08 29.9347 22.2541 30.1088 22.2541 30.3235Z" fill="white"/>
<path d="M21.8882 31.5587C21.8882 31.7735 21.7141 31.9476 21.4993 31.9476C21.2845 31.9476 21.1104 31.7735 21.1104 31.5587C21.1104 31.344 21.2845 31.1699 21.4993 31.1699C21.7141 31.1699 21.8882 31.344 21.8882 31.5587Z" fill="white"/>
<path d="M21.7052 32.9312C21.7052 33.146 21.5311 33.3201 21.3163 33.3201C21.1015 33.3201 20.9274 33.146 20.9274 32.9312C20.9274 32.7164 21.1015 32.5423 21.3163 32.5423C21.5311 32.5423 21.7052 32.7164 21.7052 32.9312Z" fill="white"/>
<path d="M21.6137 34.2579C21.6137 34.4727 21.4396 34.6468 21.2248 34.6468C21.01 34.6468 20.8359 34.4727 20.8359 34.2579C20.8359 34.0431 21.01 33.869 21.2248 33.869C21.4396 33.869 21.6137 34.0431 21.6137 34.2579Z" fill="white"/>
<path d="M21.7052 35.4931C21.7052 35.7079 21.5311 35.882 21.3163 35.882C21.1015 35.882 20.9274 35.7079 20.9274 35.4931C20.9274 35.2783 21.1015 35.1042 21.3163 35.1042C21.5311 35.1042 21.7052 35.2783 21.7052 35.4931Z" fill="white"/>
<path d="M21.8882 36.8198C21.8882 37.0346 21.7141 37.2087 21.4993 37.2087C21.2845 37.2087 21.1104 37.0346 21.1104 36.8198C21.1104 36.605 21.2845 36.4309 21.4993 36.4309C21.7141 36.4309 21.8882 36.605 21.8882 36.8198Z" fill="white"/>
<path d="M22.2999 38.055C22.2999 38.2698 22.1258 38.4439 21.911 38.4439C21.6963 38.4439 21.5222 38.2698 21.5222 38.055C21.5222 37.8402 21.6963 37.6662 21.911 37.6662C22.1258 37.6662 22.2999 37.8402 22.2999 38.055Z" fill="white"/>
<path d="M22.8031 39.2445C22.8031 39.4592 22.629 39.6333 22.4143 39.6333C22.1995 39.6333 22.0254 39.4592 22.0254 39.2445C22.0254 39.0297 22.1995 38.8556 22.4143 38.8556C22.629 38.8556 22.8031 39.0297 22.8031 39.2445Z" fill="white"/>
<path d="M23.4893 40.3882C23.4893 40.6029 23.3152 40.777 23.1005 40.777C22.8857 40.777 22.7116 40.6029 22.7116 40.3882C22.7116 40.1734 22.8857 39.9993 23.1005 39.9993C23.3152 39.9993 23.4893 40.1734 23.4893 40.3882Z" fill="white"/>
<path d="M24.2671 41.4404C24.2671 41.6552 24.093 41.8293 23.8782 41.8293C23.6634 41.8293 23.4893 41.6552 23.4893 41.4404C23.4893 41.2256 23.6634 41.0515 23.8782 41.0515C24.093 41.0515 24.2671 41.2256 24.2671 41.4404Z" fill="white"/>
<path d="M25.182 42.4469C25.182 42.6616 25.0079 42.8357 24.7932 42.8357C24.5784 42.8357 24.4043 42.6616 24.4043 42.4469C24.4043 42.2321 24.5784 42.058 24.7932 42.058C25.0079 42.058 25.182 42.2321 25.182 42.4469Z" fill="white"/>
<path d="M26.1427 43.2246C26.1427 43.4393 25.9686 43.6134 25.7539 43.6134C25.5391 43.6134 25.365 43.4393 25.365 43.2246C25.365 43.0098 25.5391 42.8357 25.7539 42.8357C25.9686 42.8357 26.1427 43.0098 26.1427 43.2246Z" fill="white"/>
<path d="M27.2407 44.0023C27.2407 44.2171 27.0666 44.3912 26.8518 44.3912C26.6371 44.3912 26.463 44.2171 26.463 44.0023C26.463 43.7875 26.6371 43.6134 26.8518 43.6134C27.0666 43.6134 27.2407 43.7875 27.2407 44.0023Z" fill="white"/>
<path d="M28.4759 44.5513C28.4759 44.766 28.3018 44.9401 28.0871 44.9401C27.8723 44.9401 27.6982 44.766 27.6982 44.5513C27.6982 44.3365 27.8723 44.1624 28.0871 44.1624C28.3018 44.1624 28.4759 44.3365 28.4759 44.5513Z" fill="white"/>
<path d="M27.378 33.0227C27.378 33.1364 27.2858 33.2286 27.1721 33.2286C27.0584 33.2286 26.9662 33.1364 26.9662 33.0227C26.9662 32.909 27.0584 32.8168 27.1721 32.8168C27.2858 32.8168 27.378 32.909 27.378 33.0227Z" fill="white"/>
<path d="M27.6524 32.3822C27.6524 32.4959 27.5603 32.5881 27.4466 32.5881C27.3329 32.5881 27.2407 32.4959 27.2407 32.3822C27.2407 32.2685 27.3329 32.1763 27.4466 32.1763C27.5603 32.1763 27.6524 32.2685 27.6524 32.3822Z" fill="white"/>
<path d="M28.0642 31.7875C28.0642 31.9012 27.972 31.9934 27.8583 31.9934C27.7446 31.9934 27.6524 31.9012 27.6524 31.7875C27.6524 31.6738 27.7446 31.5816 27.8583 31.5816C27.972 31.5816 28.0642 31.6738 28.0642 31.7875Z" fill="white"/>
<path d="M28.4759 31.2385C28.4759 31.3522 28.3837 31.4444 28.27 31.4444C28.1564 31.4444 28.0642 31.3522 28.0642 31.2385C28.0642 31.1248 28.1564 31.0326 28.27 31.0326C28.3837 31.0326 28.4759 31.1248 28.4759 31.2385Z" fill="white"/>
<path d="M28.9791 30.781C28.9791 30.8947 28.887 30.9869 28.7733 30.9869C28.6596 30.9869 28.5674 30.8947 28.5674 30.781C28.5674 30.6673 28.6596 30.5752 28.7733 30.5752C28.887 30.5752 28.9791 30.6673 28.9791 30.781Z" fill="white"/>
<path d="M29.5281 30.3693C29.5281 30.483 29.436 30.5752 29.3223 30.5752C29.2086 30.5752 29.1164 30.483 29.1164 30.3693C29.1164 30.2556 29.2086 30.1634 29.3223 30.1634C29.436 30.1634 29.5281 30.2556 29.5281 30.3693Z" fill="white"/>
<path d="M30.1686 30.0033C30.1686 30.117 30.0764 30.2092 29.9627 30.2092C29.849 30.2092 29.7569 30.117 29.7569 30.0033C29.7569 29.8896 29.849 29.7974 29.9627 29.7974C30.0764 29.7974 30.1686 29.8896 30.1686 30.0033Z" fill="white"/>
<path d="M30.8091 29.7746C30.8091 29.8883 30.7169 29.9804 30.6032 29.9804C30.4895 29.9804 30.3973 29.8883 30.3973 29.7746C30.3973 29.6609 30.4895 29.5687 30.6032 29.5687C30.7169 29.5687 30.8091 29.6609 30.8091 29.7746Z" fill="white"/>
<path d="M31.4496 29.5916C31.4496 29.7053 31.3574 29.7974 31.2437 29.7974C31.13 29.7974 31.0378 29.7053 31.0378 29.5916C31.0378 29.4779 31.13 29.3857 31.2437 29.3857C31.3574 29.3857 31.4496 29.4779 31.4496 29.5916Z" fill="white"/>
<path d="M32.1815 29.5001C32.1815 29.6138 32.0894 29.7059 31.9757 29.7059C31.862 29.7059 31.7698 29.6138 31.7698 29.5001C31.7698 29.3864 31.862 29.2942 31.9757 29.2942C32.0894 29.2942 32.1815 29.3864 32.1815 29.5001Z" fill="white"/>
<path d="M32.8678 29.4543C32.8678 29.568 32.7756 29.6602 32.6619 29.6602C32.5482 29.6602 32.456 29.568 32.456 29.4543C32.456 29.3406 32.5482 29.2484 32.6619 29.2484C32.7756 29.2484 32.8678 29.3406 32.8678 29.4543Z" fill="white"/>
<path d="M33.554 29.5458C33.554 29.6595 33.4618 29.7517 33.3481 29.7517C33.2344 29.7517 33.1423 29.6595 33.1423 29.5458C33.1423 29.4321 33.2344 29.3399 33.3481 29.3399C33.4618 29.3399 33.554 29.4321 33.554 29.5458Z" fill="white"/>
<path d="M34.2402 29.6831C34.2402 29.7968 34.148 29.8889 34.0343 29.8889C33.9206 29.8889 33.8285 29.7968 33.8285 29.6831C33.8285 29.5694 33.9206 29.4772 34.0343 29.4772C34.148 29.4772 34.2402 29.5694 34.2402 29.6831Z" fill="white"/>
<path d="M34.9264 29.9118C34.9264 30.0255 34.8343 30.1177 34.7206 30.1177C34.6069 30.1177 34.5147 30.0255 34.5147 29.9118C34.5147 29.7981 34.6069 29.7059 34.7206 29.7059C34.8343 29.7059 34.9264 29.7981 34.9264 29.9118Z" fill="white"/>
<path d="M35.5669 30.2778C35.5669 30.3915 35.4747 30.4837 35.361 30.4837C35.2473 30.4837 35.1552 30.3915 35.1552 30.2778C35.1552 30.1641 35.2473 30.0719 35.361 30.0719C35.4747 30.0719 35.5669 30.1641 35.5669 30.2778Z" fill="white"/>
<path d="M36.1616 30.6438C36.1616 30.7575 36.0695 30.8496 35.9558 30.8496C35.8421 30.8496 35.7499 30.7575 35.7499 30.6438C35.7499 30.5301 35.8421 30.4379 35.9558 30.4379C36.0695 30.4379 36.1616 30.5301 36.1616 30.6438Z" fill="white"/>
<path d="M36.7564 31.1013C36.7564 31.215 36.6642 31.3071 36.5505 31.3071C36.4368 31.3071 36.3446 31.215 36.3446 31.1013C36.3446 30.9876 36.4368 30.8954 36.5505 30.8954C36.6642 30.8954 36.7564 30.9876 36.7564 31.1013Z" fill="white"/>
<path d="M37.2596 31.6045C37.2596 31.7182 37.1674 31.8104 37.0537 31.8104C36.94 31.8104 36.8479 31.7182 36.8479 31.6045C36.8479 31.4908 36.94 31.3986 37.0537 31.3986C37.1674 31.3986 37.2596 31.4908 37.2596 31.6045Z" fill="white"/>
<path d="M37.7171 32.1992C37.7171 32.3129 37.6249 32.4051 37.5112 32.4051C37.3975 32.4051 37.3054 32.3129 37.3054 32.1992C37.3054 32.0855 37.3975 31.9934 37.5112 31.9934C37.6249 31.9934 37.7171 32.0855 37.7171 32.1992Z" fill="white"/>
<path d="M38.1288 32.8397C38.1288 32.9534 38.0367 33.0456 37.923 33.0456C37.8093 33.0456 37.7171 32.9534 37.7171 32.8397C37.7171 32.726 37.8093 32.6338 37.923 32.6338C38.0367 32.6338 38.1288 32.726 38.1288 32.8397Z" fill="white"/>
<path d="M38.4491 33.4802C38.4491 33.5939 38.3569 33.686 38.2432 33.686C38.1295 33.686 38.0373 33.5939 38.0373 33.4802C38.0373 33.3665 38.1295 33.2743 38.2432 33.2743C38.3569 33.2743 38.4491 33.3665 38.4491 33.4802Z" fill="white"/>
<path d="M38.6778 34.1664C38.6778 34.2801 38.5856 34.3723 38.4719 34.3723C38.3582 34.3723 38.2661 34.2801 38.2661 34.1664C38.2661 34.0527 38.3582 33.9605 38.4719 33.9605C38.5856 33.9605 38.6778 34.0527 38.6778 34.1664Z" fill="white"/>
<path d="M38.8608 34.8984C38.8608 35.0121 38.7686 35.1042 38.6549 35.1042C38.5412 35.1042 38.4491 35.0121 38.4491 34.8984C38.4491 34.7847 38.5412 34.6925 38.6549 34.6925C38.7686 34.6925 38.8608 34.7847 38.8608 34.8984Z" fill="white"/>
<path d="M38.9523 35.6303C38.9523 35.744 38.8601 35.8362 38.7464 35.8362C38.6327 35.8362 38.5406 35.744 38.5406 35.6303C38.5406 35.5166 38.6327 35.4245 38.7464 35.4245C38.8601 35.4245 38.9523 35.5166 38.9523 35.6303Z" fill="white"/>
<path d="M38.9523 36.3623C38.9523 36.476 38.8601 36.5682 38.7464 36.5682C38.6327 36.5682 38.5406 36.476 38.5406 36.3623C38.5406 36.2486 38.6327 36.1565 38.7464 36.1565C38.8601 36.1565 38.9523 36.2486 38.9523 36.3623Z" fill="white"/>
<path d="M38.9065 37.0943C38.9065 37.208 38.8144 37.3002 38.7007 37.3002C38.587 37.3002 38.4948 37.208 38.4948 37.0943C38.4948 36.9806 38.587 36.8884 38.7007 36.8884C38.8144 36.8884 38.9065 36.9806 38.9065 37.0943Z" fill="white"/>
<path d="M38.7236 37.7805C38.7236 37.8942 38.6314 37.9864 38.5177 37.9864C38.404 37.9864 38.3118 37.8942 38.3118 37.7805C38.3118 37.6668 38.404 37.5747 38.5177 37.5747C38.6314 37.5747 38.7236 37.6668 38.7236 37.7805Z" fill="white"/>
<path d="M38.4948 38.4667C38.4948 38.5804 38.4026 38.6726 38.2889 38.6726C38.1752 38.6726 38.0831 38.5804 38.0831 38.4667C38.0831 38.353 38.1752 38.2609 38.2889 38.2609C38.4026 38.2609 38.4948 38.353 38.4948 38.4667Z" fill="white"/>
<path d="M38.1746 39.1072C38.1746 39.2209 38.0824 39.3131 37.9687 39.3131C37.855 39.3131 37.7628 39.2209 37.7628 39.1072C37.7628 38.9935 37.855 38.9014 37.9687 38.9014C38.0824 38.9014 38.1746 38.9935 38.1746 39.1072Z" fill="white"/>
<path d="M37.8086 39.702C37.8086 39.8157 37.7164 39.9078 37.6027 39.9078C37.489 39.9078 37.3968 39.8157 37.3968 39.702C37.3968 39.5883 37.489 39.4961 37.6027 39.4961C37.7164 39.4961 37.8086 39.5883 37.8086 39.702Z" fill="white"/>
<path d="M37.3968 40.2509C37.3968 40.3646 37.3047 40.4568 37.191 40.4568C37.0773 40.4568 36.9851 40.3646 36.9851 40.2509C36.9851 40.1372 37.0773 40.0451 37.191 40.0451C37.3047 40.0451 37.3968 40.1372 37.3968 40.2509Z" fill="white"/>
<path d="M36.8936 40.7084C36.8936 40.8221 36.8014 40.9143 36.6877 40.9143C36.5741 40.9143 36.4819 40.8221 36.4819 40.7084C36.4819 40.5947 36.5741 40.5026 36.6877 40.5026C36.8014 40.5026 36.8936 40.5947 36.8936 40.7084Z" fill="white"/>
<path d="M36.3446 41.1202C36.3446 41.2338 36.2525 41.326 36.1388 41.326C36.0251 41.326 35.9329 41.2338 35.9329 41.1202C35.9329 41.0065 36.0251 40.9143 36.1388 40.9143C36.2525 40.9143 36.3446 41.0065 36.3446 41.1202Z" fill="white"/>
<path d="M35.7042 41.4861C35.7042 41.5998 35.612 41.692 35.4983 41.692C35.3846 41.692 35.2924 41.5998 35.2924 41.4861C35.2924 41.3724 35.3846 41.2803 35.4983 41.2803C35.612 41.2803 35.7042 41.3724 35.7042 41.4861Z" fill="white"/>
<path d="M35.0637 41.7149C35.0637 41.8286 34.9715 41.9207 34.8578 41.9207C34.7441 41.9207 34.6519 41.8286 34.6519 41.7149C34.6519 41.6012 34.7441 41.509 34.8578 41.509C34.9715 41.509 35.0637 41.6012 35.0637 41.7149Z" fill="white"/>
<path d="M34.4232 41.8979C34.4232 42.0116 34.331 42.1037 34.2173 42.1037C34.1036 42.1037 34.0115 42.0116 34.0115 41.8979C34.0115 41.7842 34.1036 41.692 34.2173 41.692C34.331 41.692 34.4232 41.7842 34.4232 41.8979Z" fill="white"/>
<path d="M33.005 42.0351C33.005 42.1488 32.9128 42.241 32.7991 42.241C32.6854 42.241 32.5933 42.1488 32.5933 42.0351C32.5933 41.9214 32.6854 41.8293 32.7991 41.8293C32.9128 41.8293 33.005 41.9214 33.005 42.0351Z" fill="white"/>
<path d="M32.3188 41.9436C32.3188 42.0573 32.2266 42.1495 32.1129 42.1495C31.9992 42.1495 31.907 42.0573 31.907 41.9436C31.907 41.8299 31.9992 41.7378 32.1129 41.7378C32.2266 41.7378 32.3188 41.8299 32.3188 41.9436Z" fill="white"/>
<path d="M31.6326 41.8064C31.6326 41.9201 31.5404 42.0122 31.4267 42.0122C31.313 42.0122 31.2208 41.9201 31.2208 41.8064C31.2208 41.6927 31.313 41.6005 31.4267 41.6005C31.5404 41.6005 31.6326 41.6927 31.6326 41.8064Z" fill="white"/>
<path d="M30.9463 41.5319C30.9463 41.6456 30.8542 41.7378 30.7405 41.7378C30.6268 41.7378 30.5346 41.6456 30.5346 41.5319C30.5346 41.4182 30.6268 41.326 30.7405 41.326C30.8542 41.326 30.9463 41.4182 30.9463 41.5319Z" fill="white"/>
<path d="M30.3059 41.2116C30.3059 41.3253 30.2137 41.4175 30.1 41.4175C29.9863 41.4175 29.8941 41.3253 29.8941 41.2116C29.8941 41.098 29.9863 41.0058 30.1 41.0058C30.2137 41.0058 30.3059 41.098 30.3059 41.2116Z" fill="white"/>
<path d="M29.6654 40.8457C29.6654 40.9594 29.5732 41.0515 29.4595 41.0515C29.3458 41.0515 29.2536 40.9594 29.2536 40.8457C29.2536 40.732 29.3458 40.6398 29.4595 40.6398C29.5732 40.6398 29.6654 40.732 29.6654 40.8457Z" fill="white"/>
<path d="M29.1164 40.3882C29.1164 40.5019 29.0242 40.594 28.9105 40.594C28.7968 40.594 28.7047 40.5019 28.7047 40.3882C28.7047 40.2745 28.7968 40.1823 28.9105 40.1823C29.0242 40.1823 29.1164 40.2745 29.1164 40.3882Z" fill="white"/>
<path d="M28.6132 39.8392C28.6132 39.9529 28.521 40.0451 28.4073 40.0451C28.2936 40.0451 28.2014 39.9529 28.2014 39.8392C28.2014 39.7255 28.2936 39.6333 28.4073 39.6333C28.521 39.6333 28.6132 39.7255 28.6132 39.8392Z" fill="white"/>
<path d="M28.1557 39.2902C28.1557 39.4039 28.0635 39.4961 27.9498 39.4961C27.8361 39.4961 27.7439 39.4039 27.7439 39.2902C27.7439 39.1765 27.8361 39.0843 27.9498 39.0843C28.0635 39.0843 28.1557 39.1765 28.1557 39.2902Z" fill="white"/>
<path d="M27.7439 38.6497C27.7439 38.7634 27.6518 38.8556 27.5381 38.8556C27.4244 38.8556 27.3322 38.7634 27.3322 38.6497C27.3322 38.536 27.4244 38.4439 27.5381 38.4439C27.6518 38.4439 27.7439 38.536 27.7439 38.6497Z" fill="white"/>
<path d="M27.4237 37.9635C27.4237 38.0772 27.3315 38.1694 27.2178 38.1694C27.1041 38.1694 27.012 38.0772 27.012 37.9635C27.012 37.8498 27.1041 37.7576 27.2178 37.7576C27.3315 37.7576 27.4237 37.8498 27.4237 37.9635Z" fill="white"/>
<path d="M27.195 37.2773C27.195 37.391 27.1028 37.4832 26.9891 37.4832C26.8754 37.4832 26.7832 37.391 26.7832 37.2773C26.7832 37.1636 26.8754 37.0714 26.9891 37.0714C27.1028 37.0714 27.195 37.1636 27.195 37.2773Z" fill="white"/>
<path d="M27.012 36.5453C27.012 36.659 26.9198 36.7512 26.8061 36.7512C26.6924 36.7512 26.6002 36.659 26.6002 36.5453C26.6002 36.4316 26.6924 36.3394 26.8061 36.3394C26.9198 36.3394 27.012 36.4316 27.012 36.5453Z" fill="white"/>
<path d="M26.9205 35.8591C26.9205 35.9728 26.8283 36.065 26.7146 36.065C26.6009 36.065 26.5087 35.9728 26.5087 35.8591C26.5087 35.7454 26.6009 35.6532 26.7146 35.6532C26.8283 35.6532 26.9205 35.7454 26.9205 35.8591Z" fill="white"/>
<path d="M26.9205 35.1271C26.9205 35.2408 26.8283 35.333 26.7146 35.333C26.6009 35.333 26.5087 35.2408 26.5087 35.1271C26.5087 35.0134 26.6009 34.9212 26.7146 34.9212C26.8283 34.9212 26.9205 35.0134 26.9205 35.1271Z" fill="white"/>
<path d="M26.9662 34.3951C26.9662 34.5088 26.874 34.601 26.7604 34.601C26.6467 34.601 26.5545 34.5088 26.5545 34.3951C26.5545 34.2814 26.6467 34.1893 26.7604 34.1893C26.874 34.1893 26.9662 34.2814 26.9662 34.3951Z" fill="white"/>
<path d="M27.1492 33.6632C27.1492 33.7769 27.057 33.869 26.9433 33.869C26.8296 33.869 26.7375 33.7769 26.7375 33.6632C26.7375 33.5495 26.8296 33.4573 26.9433 33.4573C27.057 33.4573 27.1492 33.5495 27.1492 33.6632Z" fill="white"/>
<path d="M33.737 41.9894C33.737 42.1031 33.6448 42.1952 33.5311 42.1952C33.4174 42.1952 33.3252 42.1031 33.3252 41.9894C33.3252 41.8757 33.4174 41.7835 33.5311 41.7835C33.6448 41.7835 33.737 41.8757 33.737 41.9894Z" fill="white"/>
</g>
<defs>
<linearGradient id="paint0_linear_1968_2512" x1="230.878" y1="0.335938" x2="231.18" y2="174.319" gradientUnits="userSpaceOnUse">
<stop stop-color="#2481C2"/>
<stop offset="1" stop-color="#2481C2" stop-opacity="0"/>
</linearGradient>
<clipPath id="clip0_1968_2512">
<rect width="220" height="311.328" fill="white" transform="translate(0.5 0.335938)"/>
</clipPath>
</defs>
</svg>
