<svg width="64" height="64" viewBox="0 0 64 64" fill="none" xmlns="http://www.w3.org/2000/svg">
<path d="M49.5517 47.6748C49.4825 48.1218 49.1086 48.4349 48.7165 48.3742C48.3244 48.3135 48.0626 47.902 48.1318 47.455C48.201 47.008 48.575 46.6949 48.9671 46.7556C49.3592 46.8162 49.6209 47.2278 49.5517 47.6748Z" fill="#22B5CB"/>
<path d="M51.0365 45.0765C50.9673 45.5235 50.5933 45.8366 50.2013 45.7759C49.8092 45.7152 49.5474 45.3037 49.6166 44.8567C49.6858 44.4097 50.0597 44.0966 50.4518 44.1573C50.8439 44.2179 51.1057 44.6295 51.0365 45.0765Z" fill="#22B5CB"/>
<path d="M52.2738 42.4782C52.2046 42.9252 51.8306 43.2383 51.4385 43.1776C51.0464 43.1169 50.7847 42.7054 50.8539 42.2584C50.923 41.8114 51.297 41.4983 51.6891 41.559C52.0812 41.6196 52.343 42.0312 52.2738 42.4782Z" fill="#22B5CB"/>
<path d="M53.1399 39.6324C53.0707 40.0794 52.6967 40.3926 52.3046 40.3319C51.9125 40.2712 51.6508 39.8596 51.72 39.4126C51.7892 38.9657 52.1631 38.6525 52.5552 38.7132C52.9473 38.7739 53.2091 39.1854 53.1399 39.6324Z" fill="#22B5CB"/>
<path d="M53.7585 36.7867C53.6893 37.2337 53.3154 37.5468 52.9233 37.4861C52.5312 37.4254 52.2694 37.0139 52.3386 36.5669C52.4078 36.1199 52.7817 35.8067 53.1738 35.8674C53.5659 35.9281 53.8277 36.3397 53.7585 36.7867Z" fill="#22B5CB"/>
<path d="M54.006 33.9409C53.9368 34.3879 53.5628 34.701 53.1707 34.6404C52.7786 34.5797 52.5169 34.1681 52.5861 33.7211C52.6552 33.2741 53.0292 32.961 53.4213 33.0217C53.8134 33.0824 54.0752 33.4939 54.006 33.9409Z" fill="#22B5CB"/>
<path d="M54.1297 30.9714C54.0605 31.4184 53.6866 31.7316 53.2945 31.6709C52.9024 31.6102 52.6406 31.1986 52.7098 30.7516C52.779 30.3047 53.1529 29.9915 53.545 30.0522C53.9371 30.1129 54.1989 30.5244 54.1297 30.9714Z" fill="#22B5CB"/>
<path d="M53.8822 28.1257C53.813 28.5727 53.4391 28.8858 53.047 28.8251C52.6549 28.7644 52.3931 28.3529 52.4623 27.9059C52.5315 27.4589 52.9055 27.1458 53.2976 27.2064C53.6897 27.2671 53.9514 27.6787 53.8822 28.1257Z" fill="#22B5CB"/>
<path d="M53.2636 25.4036C53.1944 25.8506 52.8205 26.1638 52.4284 26.1031C52.0363 26.0424 51.7745 25.6308 51.8437 25.1839C51.9129 24.7369 52.2868 24.4237 52.6789 24.4844C53.071 24.5451 53.3328 24.9567 53.2636 25.4036Z" fill="#22B5CB"/>
<path d="M52.3975 22.6816C52.3283 23.1286 51.9544 23.4417 51.5623 23.3811C51.1702 23.3204 50.9084 22.9088 50.9776 22.4618C51.0468 22.0148 51.4207 21.7017 51.8128 21.7624C52.2049 21.8231 52.4667 22.2346 52.3975 22.6816Z" fill="#22B5CB"/>
<path d="M51.2839 20.207C51.2147 20.654 50.8408 20.9672 50.4487 20.9065C50.0566 20.8458 49.7948 20.4342 49.864 19.9873C49.9332 19.5403 50.3072 19.2271 50.6993 19.2878C51.0914 19.3485 51.3531 19.7601 51.2839 20.207Z" fill="#22B5CB"/>
<path d="M49.9229 17.8562C49.8537 18.3032 49.4798 18.6163 49.0877 18.5556C48.6956 18.495 48.4338 18.0834 48.503 17.6364C48.5722 17.1894 48.9461 16.8763 49.3382 16.937C49.7303 16.9977 49.9921 17.4092 49.9229 17.8562Z" fill="#22B5CB"/>
<path d="M48.3144 15.7528C48.2453 16.1998 47.8713 16.5129 47.4792 16.4523C47.0871 16.3916 46.8254 15.98 46.8945 15.533C46.9637 15.086 47.3377 14.7729 47.7298 14.8336C48.1219 14.8943 48.3836 15.3058 48.3144 15.7528Z" fill="#22B5CB"/>
<path d="M46.4585 13.8969C46.3893 14.3439 46.0154 14.657 45.6233 14.5963C45.2312 14.5356 44.9694 14.1241 45.0386 13.6771C45.1078 13.2301 45.4817 12.917 45.8738 12.9777C46.2659 13.0383 46.5277 13.4499 46.4585 13.8969Z" fill="#22B5CB"/>
<path d="M44.3551 12.2884C44.286 12.7354 43.912 13.0485 43.5199 12.9879C43.1278 12.9272 42.866 12.5156 42.9352 12.0686C43.0044 11.6216 43.3784 11.3085 43.7705 11.3692C44.1626 11.4299 44.4243 11.8414 44.3551 12.2884Z" fill="#22B5CB"/>
<path d="M42.128 10.9274C42.0588 11.3744 41.6849 11.6875 41.2928 11.6268C40.9007 11.5662 40.6389 11.1546 40.7081 10.7076C40.7773 10.2606 41.1512 9.94748 41.5433 10.0082C41.9354 10.0689 42.1972 10.4804 42.128 10.9274Z" fill="#22B5CB"/>
<path d="M39.7772 9.93757C39.708 10.3846 39.3341 10.6977 38.942 10.637C38.5499 10.5763 38.2881 10.1648 38.3573 9.71779C38.4265 9.27081 38.8004 8.95765 39.1925 9.01834C39.5846 9.07904 39.8464 9.49059 39.7772 9.93757Z" fill="#22B5CB"/>
<path d="M37.3026 9.31893C37.2334 9.76591 36.8595 10.0791 36.4674 10.0184C36.0753 9.95768 35.8135 9.54613 35.8827 9.09915C35.9519 8.65216 36.3258 8.33901 36.7179 8.3997C37.11 8.46039 37.3718 8.87194 37.3026 9.31893Z" fill="#22B5CB"/>
<path d="M34.7043 8.94774C34.6351 9.39473 34.2612 9.70788 33.8691 9.64719C33.477 9.58649 33.2152 9.17494 33.2844 8.72796C33.3536 8.28098 33.7275 7.96782 34.1196 8.02852C34.5117 8.08921 34.7735 8.50076 34.7043 8.94774Z" fill="#22B5CB"/>
<path d="M32.106 8.94774C32.0368 9.39473 31.6629 9.70788 31.2708 9.64719C30.8787 9.58649 30.6169 9.17494 30.6861 8.72796C30.7553 8.28098 31.1292 7.96782 31.5213 8.02852C31.9134 8.08921 32.1752 8.50076 32.106 8.94774Z" fill="#22B5CB"/>
<path d="M29.6314 9.1952C29.5623 9.64218 29.1883 9.95533 28.7962 9.89464C28.4041 9.83395 28.1423 9.4224 28.2115 8.97542C28.2807 8.52843 28.6547 8.21528 29.0468 8.27597C29.4389 8.33666 29.7006 8.74822 29.6314 9.1952Z" fill="#22B5CB"/>
<path d="M27.0331 9.81384C26.964 10.2608 26.59 10.574 26.1979 10.5133C25.8058 10.4526 25.544 10.041 25.6132 9.59406C25.6824 9.14708 26.0564 8.83392 26.4485 8.89462C26.8406 8.95531 27.1023 9.36686 27.0331 9.81384Z" fill="#22B5CB"/>
<path d="M24.5586 10.8037C24.4894 11.2507 24.1154 11.5638 23.7233 11.5031C23.3312 11.4424 23.0695 11.0309 23.1387 10.5839C23.2079 10.1369 23.5818 9.82375 23.9739 9.88444C24.366 9.94514 24.6278 10.3567 24.5586 10.8037Z" fill="#22B5CB"/>
<path d="M22.2077 12.041C22.1385 12.4879 21.7646 12.8011 21.3725 12.7404C20.9804 12.6797 20.7186 12.2682 20.7878 11.8212C20.857 11.3742 21.231 11.061 21.623 11.1217C22.0151 11.1824 22.2769 11.594 22.2077 12.041Z" fill="#22B5CB"/>
<path d="M19.8569 13.6494C19.7877 14.0964 19.4138 14.4096 19.0217 14.3489C18.6296 14.2882 18.3678 13.8766 18.437 13.4296C18.5062 12.9827 18.8801 12.6695 19.2722 12.7302C19.6643 12.7909 19.9261 13.2024 19.8569 13.6494Z" fill="#22B5CB"/>
<path d="M17.8772 15.5054C17.808 15.9523 17.4341 16.2655 17.042 16.2048C16.6499 16.1441 16.3881 15.7326 16.4573 15.2856C16.5265 14.8386 16.9005 14.5254 17.2925 14.5861C17.6846 14.6468 17.9464 15.0584 17.8772 15.5054Z" fill="#22B5CB"/>
<path d="M15.8976 17.6087C15.8284 18.0557 15.4544 18.3689 15.0623 18.3082C14.6702 18.2475 14.4085 17.8359 14.4777 17.389C14.5468 16.942 14.9208 16.6288 15.3129 16.6895C15.705 16.7502 15.9668 17.1618 15.8976 17.6087Z" fill="#22B5CB"/>
<path d="M14.1654 19.9596C14.0962 20.4066 13.7222 20.7197 13.3301 20.659C12.938 20.5983 12.6763 20.1868 12.7455 19.7398C12.8147 19.2928 13.1886 18.9797 13.5807 19.0404C13.9728 19.101 14.2346 19.5126 14.1654 19.9596Z" fill="#22B5CB"/>
<path d="M12.8044 22.5579C12.7352 23.0049 12.3612 23.318 11.9691 23.2573C11.577 23.1966 11.3153 22.7851 11.3845 22.3381C11.4536 21.8911 11.8276 21.578 12.2197 21.6387C12.6118 21.6993 12.8735 22.1109 12.8044 22.5579Z" fill="#22B5CB"/>
<path d="M11.6908 25.1562C11.6216 25.6032 11.2477 25.9163 10.8556 25.8556C10.4635 25.7949 10.2017 25.3834 10.2709 24.9364C10.3401 24.4894 10.714 24.1763 11.1061 24.237C11.4982 24.2976 11.76 24.7092 11.6908 25.1562Z" fill="#22B5CB"/>
<path d="M10.701 27.8782C10.6318 28.3252 10.2578 28.6383 9.86574 28.5777C9.47365 28.517 9.21188 28.1054 9.28106 27.6584C9.35025 27.2114 9.7242 26.8983 10.1163 26.959C10.5084 27.0197 10.7702 27.4312 10.701 27.8782Z" fill="#22B5CB"/>
<path d="M10.0823 30.724C10.0131 31.171 9.6392 31.4841 9.2471 31.4234C8.855 31.3627 8.59323 30.9512 8.66242 30.5042C8.73161 30.0572 9.10555 29.7441 9.49765 29.8047C9.88974 29.8654 10.1515 30.277 10.0823 30.724Z" fill="#22B5CB"/>
<path d="M9.71114 33.6935C9.64195 34.1404 9.26801 34.4536 8.87591 34.3929C8.48382 34.3322 8.22205 33.9207 8.29124 33.4737C8.36042 33.0267 8.73437 32.7135 9.12646 32.7742C9.51856 32.8349 9.78033 33.2465 9.71114 33.6935Z" fill="#22B5CB"/>
<path d="M9.71114 36.6629C9.64195 37.1099 9.26801 37.4231 8.87591 37.3624C8.48382 37.3017 8.22205 36.8901 8.29124 36.4432C8.36042 35.9962 8.73437 35.683 9.12646 35.7437C9.51856 35.8044 9.78033 36.216 9.71114 36.6629Z" fill="#22B5CB"/>
<path d="M9.9586 39.5087C9.88941 39.9557 9.51547 40.2688 9.12337 40.2081C8.73128 40.1475 8.46951 39.7359 8.53869 39.2889C8.60788 38.8419 8.98182 38.5288 9.37392 38.5895C9.76602 38.6502 10.0278 39.0617 9.9586 39.5087Z" fill="#22B5CB"/>
<path d="M10.5772 42.3545C10.5081 42.8014 10.1341 43.1146 9.74201 43.0539C9.34992 42.9932 9.08815 42.5817 9.15734 42.1347C9.22652 41.6877 9.60047 41.3745 9.99256 41.4352C10.3847 41.4959 10.6464 41.9075 10.5772 42.3545Z" fill="#22B5CB"/>
<path d="M11.4433 44.829C11.3742 45.276 11.0002 45.5892 10.6081 45.5285C10.216 45.4678 9.95425 45.0562 10.0234 44.6092C10.0926 44.1623 10.4666 43.8491 10.8587 43.9098C11.2508 43.9705 11.5125 44.382 11.4433 44.829Z" fill="#22B5CB"/>
<path d="M12.5569 47.4273C12.4877 47.8743 12.1138 48.1875 11.7217 48.1268C11.3296 48.0661 11.0678 47.6545 11.137 47.2075C11.2062 46.7606 11.5801 46.4474 11.9722 46.5081C12.3643 46.5688 12.6261 46.9803 12.5569 47.4273Z" fill="#22B5CB"/>
<path d="M13.9179 49.7782C13.8487 50.2252 13.4748 50.5383 13.0827 50.4776C12.6906 50.4169 12.4288 50.0054 12.498 49.5584C12.5672 49.1114 12.9411 48.7982 13.3332 48.8589C13.7253 48.9196 13.9871 49.3312 13.9179 49.7782Z" fill="#22B5CB"/>
<path d="M15.5264 51.8816C15.4572 52.3285 15.0833 52.6417 14.6912 52.581C14.2991 52.5203 14.0373 52.1088 14.1065 51.6618C14.1757 51.2148 14.5496 50.9016 14.9417 50.9623C15.3338 51.023 15.5956 51.4346 15.5264 51.8816Z" fill="#22B5CB"/>
<path d="M17.506 53.7375C17.4369 54.1845 17.0629 54.4976 16.6708 54.4369C16.2787 54.3762 16.0169 53.9647 16.0861 53.5177C16.1553 53.0707 16.5293 52.7576 16.9214 52.8183C17.3135 52.8789 17.5752 53.2905 17.506 53.7375Z" fill="#22B5CB"/>
<path d="M19.4857 55.346C19.4165 55.7929 19.0426 56.1061 18.6505 56.0454C18.2584 55.9847 17.9966 55.5732 18.0658 55.1262C18.135 54.6792 18.5089 54.366 18.901 54.4267C19.2931 54.4874 19.5549 54.899 19.4857 55.346Z" fill="#22B5CB"/>
<path d="M21.7128 56.707C21.6436 57.1539 21.2697 57.4671 20.8776 57.4064C20.4855 57.3457 20.2237 56.9342 20.2929 56.4872C20.3621 56.0402 20.736 55.727 21.1281 55.7877C21.5202 55.8484 21.782 56.26 21.7128 56.707Z" fill="#22B5CB"/>
<path d="M24.0637 57.6968C23.9945 58.1438 23.6205 58.4569 23.2284 58.3962C22.8363 58.3355 22.5746 57.924 22.6438 57.477C22.7129 57.03 23.0869 56.7169 23.479 56.7776C23.8711 56.8383 24.1328 57.2498 24.0637 57.6968Z" fill="#22B5CB"/>
<path d="M26.5382 58.3154C26.469 58.7624 26.0951 59.0756 25.703 59.0149C25.3109 58.9542 25.0491 58.5426 25.1183 58.0957C25.1875 57.6487 25.5615 57.3355 25.9535 57.3962C26.3456 57.4569 26.6074 57.8685 26.5382 58.3154Z" fill="#22B5CB"/>
<path d="M29.1365 58.6866C29.0673 59.1336 28.6934 59.4468 28.3013 59.3861C27.9092 59.3254 27.6474 58.9138 27.7166 58.4668C27.7858 58.0199 28.1597 57.7067 28.5518 57.7674C28.9439 57.8281 29.2057 58.2396 29.1365 58.6866Z" fill="#22B5CB"/>
<path d="M31.6111 58.6866C31.5419 59.1336 31.168 59.4468 30.7759 59.3861C30.3838 59.3254 30.122 58.9138 30.1912 58.4668C30.2604 58.0199 30.6343 57.7067 31.0264 57.7674C31.4185 57.8281 31.6803 58.2396 31.6111 58.6866Z" fill="#22B5CB"/>
<path d="M34.2094 58.4392C34.1402 58.8861 33.7663 59.1993 33.3742 59.1386C32.9821 59.0779 32.7203 58.6664 32.7895 58.2194C32.8587 57.7724 33.2326 57.4592 33.6247 57.5199C34.0168 57.5806 34.2786 57.9922 34.2094 58.4392Z" fill="#22B5CB"/>
<path d="M36.8077 57.8205C36.7385 58.2675 36.3646 58.5807 35.9725 58.52C35.5804 58.4593 35.3186 58.0477 35.3878 57.6007C35.457 57.1538 35.8309 56.8406 36.223 56.9013C36.6151 56.962 36.8769 57.3735 36.8077 57.8205Z" fill="#22B5CB"/>
<path d="M39.2823 56.8307C39.2131 57.2777 38.8391 57.5908 38.447 57.5301C38.0549 57.4695 37.7932 57.0579 37.8624 56.6109C37.9315 56.1639 38.3055 55.8508 38.6976 55.9115C39.0897 55.9722 39.3515 56.3837 39.2823 56.8307Z" fill="#22B5CB"/>
<path d="M41.6331 55.4697C41.5639 55.9167 41.19 56.2298 40.7979 56.1691C40.4058 56.1084 40.144 55.6969 40.2132 55.2499C40.2824 54.8029 40.6563 54.4898 41.0484 54.5505C41.4405 54.6111 41.7023 55.0227 41.6331 55.4697Z" fill="#22B5CB"/>
<path d="M43.8602 53.8612C43.791 54.3082 43.4171 54.6213 43.025 54.5607C42.6329 54.5 42.3711 54.0884 42.4403 53.6414C42.5095 53.1944 42.8834 52.8813 43.2755 52.942C43.6676 53.0027 43.9294 53.4142 43.8602 53.8612Z" fill="#22B5CB"/>
<path d="M45.9636 52.0053C45.8944 52.4523 45.5205 52.7654 45.1284 52.7047C44.7363 52.644 44.4745 52.2325 44.5437 51.7855C44.6129 51.3385 44.9868 51.0254 45.3789 51.0861C45.771 51.1467 46.0328 51.5583 45.9636 52.0053Z" fill="#22B5CB"/>
<path d="M47.9433 50.0256C47.8741 50.4726 47.5001 50.7858 47.108 50.7251C46.7159 50.6644 46.4542 50.2528 46.5234 49.8058C46.5925 49.3589 46.9665 49.0457 47.3586 49.1064C47.7507 49.1671 48.0125 49.5786 47.9433 50.0256Z" fill="#22B5CB"/>
<path d="M23.8796 60.9363C23.8796 61.5171 23.4088 61.988 22.8279 61.988C22.2471 61.988 21.7762 61.5171 21.7762 60.9363C21.7762 60.3555 22.2471 59.8846 22.8279 59.8846C23.4088 59.8846 23.8796 60.3555 23.8796 60.9363Z" fill="#22B5CB"/>
<path d="M27.344 61.6787C27.344 62.2595 26.8732 62.7304 26.2923 62.7304C25.7115 62.7304 25.2406 62.2595 25.2406 61.6787C25.2406 61.0979 25.7115 60.627 26.2923 60.627C26.8732 60.627 27.344 61.0979 27.344 61.6787Z" fill="#22B5CB"/>
<path d="M30.8084 62.0499C30.8084 62.6307 30.3376 63.1016 29.7567 63.1016C29.1759 63.1016 28.705 62.6307 28.705 62.0499C28.705 61.469 29.1759 60.9982 29.7567 60.9982C30.3376 60.9982 30.8084 61.469 30.8084 62.0499Z" fill="#22B5CB"/>
<path d="M34.5203 62.0499C34.5203 62.6307 34.0494 63.1016 33.4686 63.1016C32.8877 63.1016 32.4169 62.6307 32.4169 62.0499C32.4169 61.469 32.8877 60.9982 33.4686 60.9982C34.0494 60.9982 34.5203 61.469 34.5203 62.0499Z" fill="#22B5CB"/>
<path d="M37.9847 61.6787C37.9847 62.2595 37.5138 62.7304 36.933 62.7304C36.3521 62.7304 35.8813 62.2595 35.8813 61.6787C35.8813 61.0979 36.3521 60.627 36.933 60.627C37.5138 60.627 37.9847 61.0979 37.9847 61.6787Z" fill="#22B5CB"/>
<path d="M41.4491 60.9363C41.4491 61.5171 40.9782 61.988 40.3974 61.988C39.8165 61.988 39.3457 61.5171 39.3457 60.9363C39.3457 60.3555 39.8165 59.8846 40.3974 59.8846C40.9782 59.8846 41.4491 60.3555 41.4491 60.9363Z" fill="#22B5CB"/>
<path d="M44.7897 59.5753C44.7897 60.1561 44.3189 60.627 43.738 60.627C43.1572 60.627 42.6864 60.1561 42.6864 59.5753C42.6864 58.9945 43.1572 58.5236 43.738 58.5236C44.3189 58.5236 44.7897 58.9945 44.7897 59.5753Z" fill="#22B5CB"/>
<path d="M48.0067 58.0906C48.0067 58.6714 47.5358 59.1423 46.955 59.1423C46.3742 59.1423 45.9033 58.6714 45.9033 58.0906C45.9033 57.5097 46.3742 57.0389 46.955 57.0389C47.5358 57.0389 48.0067 57.5097 48.0067 58.0906Z" fill="#22B5CB"/>
<path d="M50.9762 55.9872C50.9762 56.568 50.5053 57.0389 49.9245 57.0389C49.3436 57.0389 48.8728 56.568 48.8728 55.9872C48.8728 55.4063 49.3436 54.9355 49.9245 54.9355C50.5053 54.9355 50.9762 55.4063 50.9762 55.9872Z" fill="#22B5CB"/>
<path d="M53.6982 53.8838C53.6982 54.4646 53.2273 54.9355 52.6465 54.9355C52.0657 54.9355 51.5948 54.4646 51.5948 53.8838C51.5948 53.303 52.0657 52.8321 52.6465 52.8321C53.2273 52.8321 53.6982 53.303 53.6982 53.8838Z" fill="#22B5CB"/>
<path d="M56.1728 51.1618C56.1728 51.7426 55.7019 52.2135 55.1211 52.2135C54.5402 52.2135 54.0694 51.7426 54.0694 51.1618C54.0694 50.5809 54.5402 50.1101 55.1211 50.1101C55.7019 50.1101 56.1728 50.5809 56.1728 51.1618Z" fill="#22B5CB"/>
<path d="M58.2762 48.316C58.2762 48.8968 57.8053 49.3677 57.2245 49.3677C56.6436 49.3677 56.1728 48.8968 56.1728 48.316C56.1728 47.7352 56.6436 47.2643 57.2245 47.2643C57.8053 47.2643 58.2762 47.7352 58.2762 48.316Z" fill="#22B5CB"/>
<path d="M60.0084 45.2228C60.0084 45.8036 59.5375 46.2745 58.9567 46.2745C58.3758 46.2745 57.905 45.8036 57.905 45.2228C57.905 44.642 58.3758 44.1711 58.9567 44.1711C59.5375 44.1711 60.0084 44.642 60.0084 45.2228Z" fill="#22B5CB"/>
<path d="M61.4931 42.0058C61.4931 42.5867 61.0222 43.0575 60.4414 43.0575C59.8606 43.0575 59.3897 42.5867 59.3897 42.0058C59.3897 41.425 59.8606 40.9542 60.4414 40.9542C61.0222 40.9542 61.4931 41.425 61.4931 42.0058Z" fill="#22B5CB"/>
<path d="M62.4829 38.6652C62.4829 39.246 62.0121 39.7169 61.4312 39.7169C60.8504 39.7169 60.3795 39.246 60.3795 38.6652C60.3795 38.0843 60.8504 37.6135 61.4312 37.6135C62.0121 37.6135 62.4829 38.0843 62.4829 38.6652Z" fill="#22B5CB"/>
<path d="M63.1016 35.077C63.1016 35.6579 62.6307 36.1287 62.0499 36.1287C61.469 36.1287 60.9982 35.6579 60.9982 35.077C60.9982 34.4962 61.469 34.0254 62.0499 34.0254C62.6307 34.0254 63.1016 34.4962 63.1016 35.077Z" fill="#22B5CB"/>
<path d="M63.1016 31.4889C63.1016 32.0698 62.6307 32.5406 62.0499 32.5406C61.469 32.5406 60.9982 32.0698 60.9982 31.4889C60.9982 30.9081 61.469 30.4372 62.0499 30.4372C62.6307 30.4372 63.1016 30.9081 63.1016 31.4889Z" fill="#22B5CB"/>
<path d="M63.1016 27.9008C63.1016 28.4816 62.6307 28.9525 62.0499 28.9525C61.469 28.9525 60.9982 28.4816 60.9982 27.9008C60.9982 27.32 61.469 26.8491 62.0499 26.8491C62.6307 26.8491 63.1016 27.32 63.1016 27.9008Z" fill="#22B5CB"/>
<path d="M62.4829 24.5601C62.4829 25.141 62.0121 25.6118 61.4312 25.6118C60.8504 25.6118 60.3795 25.141 60.3795 24.5601C60.3795 23.9793 60.8504 23.5084 61.4312 23.5084C62.0121 23.5084 62.4829 23.9793 62.4829 24.5601Z" fill="#22B5CB"/>
<path d="M61.4931 20.972C61.4931 21.5528 61.0222 22.0237 60.4414 22.0237C59.8606 22.0237 59.3897 21.5528 59.3897 20.972C59.3897 20.3912 59.8606 19.9203 60.4414 19.9203C61.0222 19.9203 61.4931 20.3912 61.4931 20.972Z" fill="#22B5CB"/>
<path d="M60.0084 17.8788C60.0084 18.4596 59.5375 18.9305 58.9567 18.9305C58.3758 18.9305 57.905 18.4596 57.905 17.8788C57.905 17.2979 58.3758 16.8271 58.9567 16.8271C59.5375 16.8271 60.0084 17.2979 60.0084 17.8788Z" fill="#22B5CB"/>
<path d="M58.2762 14.7856C58.2762 15.3664 57.8053 15.8373 57.2245 15.8373C56.6436 15.8373 56.1728 15.3664 56.1728 14.7856C56.1728 14.2047 56.6436 13.7339 57.2245 13.7339C57.8053 13.7339 58.2762 14.2047 58.2762 14.7856Z" fill="#22B5CB"/>
<path d="M56.1728 12.0635C56.1728 12.6444 55.7019 13.1152 55.1211 13.1152C54.5402 13.1152 54.0694 12.6444 54.0694 12.0635C54.0694 11.4827 54.5402 11.0118 55.1211 11.0118C55.7019 11.0118 56.1728 11.4827 56.1728 12.0635Z" fill="#22B5CB"/>
<path d="M53.5745 9.21778C53.5745 9.79861 53.1036 10.2695 52.5228 10.2695C51.9419 10.2695 51.4711 9.79861 51.4711 9.21778C51.4711 8.63694 51.9419 8.16609 52.5228 8.16609C53.1036 8.16609 53.5745 8.63694 53.5745 9.21778Z" fill="#22B5CB"/>
<path d="M50.9762 7.11439C50.9762 7.69523 50.5053 8.16609 49.9245 8.16609C49.3436 8.16609 48.8728 7.69523 48.8728 7.11439C48.8728 6.53356 49.3436 6.0627 49.9245 6.0627C50.5053 6.0627 50.9762 6.53356 50.9762 7.11439Z" fill="#22B5CB"/>
<path d="M48.0067 5.01101C48.0067 5.59184 47.5358 6.0627 46.955 6.0627C46.3742 6.0627 45.9033 5.59184 45.9033 5.01101C45.9033 4.43017 46.3742 3.95931 46.955 3.95931C47.5358 3.95931 48.0067 4.43017 48.0067 5.01101Z" fill="#22B5CB"/>
<path d="M44.9135 3.52626C44.9135 4.1071 44.4426 4.57796 43.8618 4.57796C43.2809 4.57796 42.8101 4.1071 42.8101 3.52626C42.8101 2.94543 43.2809 2.47457 43.8618 2.47457C44.4426 2.47457 44.9135 2.94543 44.9135 3.52626Z" fill="#22B5CB"/>
<path d="M41.4491 2.16525C41.4491 2.74608 40.9782 3.21694 40.3974 3.21694C39.8165 3.21694 39.3457 2.74608 39.3457 2.16525C39.3457 1.58442 39.8165 1.11356 40.3974 1.11356C40.9782 1.11356 41.4491 1.58442 41.4491 2.16525Z" fill="#22B5CB"/>
<path d="M38.1084 1.42288C38.1084 2.00371 37.6375 2.47457 37.0567 2.47457C36.4759 2.47457 36.005 2.00371 36.005 1.42288C36.005 0.842045 36.4759 0.371186 37.0567 0.371186C37.6375 0.371186 38.1084 0.842045 38.1084 1.42288Z" fill="#22B5CB"/>
<path d="M34.3965 1.05169C34.3965 1.63253 33.9257 2.10339 33.3448 2.10339C32.764 2.10339 32.2932 1.63253 32.2932 1.05169C32.2932 0.470859 32.764 0 33.3448 0C33.9257 0 34.3965 0.470859 34.3965 1.05169Z" fill="#22B5CB"/>
<path d="M31.0559 1.05169C31.0559 1.63253 30.585 2.10339 30.0042 2.10339C29.4233 2.10339 28.9525 1.63253 28.9525 1.05169C28.9525 0.470859 29.4233 0 30.0042 0C30.585 0 31.0559 0.470859 31.0559 1.05169Z" fill="#22B5CB"/>
<path d="M27.344 1.42288C27.344 2.00371 26.8732 2.47457 26.2923 2.47457C25.7115 2.47457 25.2406 2.00371 25.2406 1.42288C25.2406 0.842045 25.7115 0.371186 26.2923 0.371186C26.8732 0.371186 27.344 0.842045 27.344 1.42288Z" fill="#22B5CB"/>
<path d="M23.8796 2.16525C23.8796 2.74608 23.4088 3.21694 22.8279 3.21694C22.2471 3.21694 21.7762 2.74608 21.7762 2.16525C21.7762 1.58442 22.2471 1.11356 22.8279 1.11356C23.4088 1.11356 23.8796 1.58442 23.8796 2.16525Z" fill="#22B5CB"/>
<path d="M20.6627 3.52626C20.6627 4.1071 20.1918 4.57796 19.611 4.57796C19.0301 4.57796 18.5593 4.1071 18.5593 3.52626C18.5593 2.94543 19.0301 2.47457 19.611 2.47457C20.1918 2.47457 20.6627 2.94543 20.6627 3.52626Z" fill="#22B5CB"/>
<path d="M17.322 5.13474C17.322 5.71557 16.8511 6.18643 16.2703 6.18643C15.6895 6.18643 15.2186 5.71557 15.2186 5.13474C15.2186 4.5539 15.6895 4.08304 16.2703 4.08304C16.8511 4.08304 17.322 4.5539 17.322 5.13474Z" fill="#22B5CB"/>
<path d="M14.3525 6.99066C14.3525 7.5715 13.8817 8.04236 13.3008 8.04236C12.72 8.04236 12.2491 7.5715 12.2491 6.99066C12.2491 6.40983 12.72 5.93897 13.3008 5.93897C13.8817 5.93897 14.3525 6.40983 14.3525 6.99066Z" fill="#22B5CB"/>
<path d="M11.6305 9.34151C11.6305 9.92234 11.1596 10.3932 10.5788 10.3932C9.99796 10.3932 9.5271 9.92234 9.5271 9.34151C9.5271 8.76067 9.99796 8.28981 10.5788 8.28981C11.1596 8.28981 11.6305 8.76067 11.6305 9.34151Z" fill="#22B5CB"/>
<path d="M9.27964 11.9398C9.27964 12.5206 8.80878 12.9915 8.22795 12.9915C7.64712 12.9915 7.17626 12.5206 7.17626 11.9398C7.17626 11.359 7.64712 10.8881 8.22795 10.8881C8.80878 10.8881 9.27964 11.359 9.27964 11.9398Z" fill="#22B5CB"/>
<path d="M7.17626 14.7856C7.17626 15.3664 6.7054 15.8373 6.12456 15.8373C5.54373 15.8373 5.07287 15.3664 5.07287 14.7856C5.07287 14.2047 5.54373 13.7339 6.12456 13.7339C6.7054 13.7339 7.17626 14.2047 7.17626 14.7856Z" fill="#22B5CB"/>
<path d="M5.32033 17.8788C5.32033 18.4596 4.84947 18.9305 4.26864 18.9305C3.6878 18.9305 3.21694 18.4596 3.21694 17.8788C3.21694 17.2979 3.6878 16.8271 4.26864 16.8271C4.84947 16.8271 5.32033 17.2979 5.32033 17.8788Z" fill="#22B5CB"/>
<path d="M3.83559 21.0957C3.83559 21.6766 3.36473 22.1474 2.78389 22.1474C2.20306 22.1474 1.7322 21.6766 1.7322 21.0957C1.7322 20.5149 2.20306 20.044 2.78389 20.044C3.36473 20.044 3.83559 20.5149 3.83559 21.0957Z" fill="#22B5CB"/>
<path d="M2.84576 24.4364C2.84576 25.0172 2.3749 25.4881 1.79406 25.4881C1.21323 25.4881 0.742371 25.0172 0.742371 24.4364C0.742371 23.8556 1.21323 23.3847 1.79406 23.3847C2.3749 23.3847 2.84576 23.8556 2.84576 24.4364Z" fill="#22B5CB"/>
<path d="M2.35084 28.1482C2.35084 28.7291 1.87998 29.1999 1.29915 29.1999C0.718316 29.1999 0.247457 28.7291 0.247457 28.1482C0.247457 27.5674 0.718316 27.0966 1.29915 27.0966C1.87998 27.0966 2.35084 27.5674 2.35084 28.1482Z" fill="#22B5CB"/>
<path d="M2.10339 31.7364C2.10339 32.3172 1.63253 32.7881 1.05169 32.7881C0.470859 32.7881 0 32.3172 0 31.7364C0 31.1555 0.470859 30.6847 1.05169 30.6847C1.63253 30.6847 2.10339 31.1555 2.10339 31.7364Z" fill="#22B5CB"/>
<path d="M2.35084 35.077C2.35084 35.6579 1.87998 36.1287 1.29915 36.1287C0.718316 36.1287 0.247457 35.6579 0.247457 35.077C0.247457 34.4962 0.718316 34.0254 1.29915 34.0254C1.87998 34.0254 2.35084 34.4962 2.35084 35.077Z" fill="#22B5CB"/>
<path d="M2.84576 38.6652C2.84576 39.246 2.3749 39.7169 1.79406 39.7169C1.21323 39.7169 0.742371 39.246 0.742371 38.6652C0.742371 38.0843 1.21323 37.6135 1.79406 37.6135C2.3749 37.6135 2.84576 38.0843 2.84576 38.6652Z" fill="#22B5CB"/>
<path d="M3.95931 42.0058C3.95931 42.5867 3.48845 43.0575 2.90762 43.0575C2.32679 43.0575 1.85593 42.5867 1.85593 42.0058C1.85593 41.425 2.32679 40.9542 2.90762 40.9542C3.48845 40.9542 3.95931 41.425 3.95931 42.0058Z" fill="#22B5CB"/>
<path d="M5.32033 45.2228C5.32033 45.8036 4.84947 46.2745 4.26864 46.2745C3.6878 46.2745 3.21694 45.8036 3.21694 45.2228C3.21694 44.642 3.6878 44.1711 4.26864 44.1711C4.84947 44.1711 5.32033 44.642 5.32033 45.2228Z" fill="#22B5CB"/>
<path d="M7.17626 48.316C7.17626 48.8968 6.7054 49.3677 6.12456 49.3677C5.54373 49.3677 5.07287 48.8968 5.07287 48.316C5.07287 47.7352 5.54373 47.2643 6.12456 47.2643C6.7054 47.2643 7.17626 47.7352 7.17626 48.316Z" fill="#22B5CB"/>
<path d="M9.27964 51.1618C9.27964 51.7426 8.80878 52.2135 8.22795 52.2135C7.64712 52.2135 7.17626 51.7426 7.17626 51.1618C7.17626 50.5809 7.64712 50.1101 8.22795 50.1101C8.80878 50.1101 9.27964 50.5809 9.27964 51.1618Z" fill="#22B5CB"/>
<path d="M11.7542 53.8838C11.7542 54.4646 11.2834 54.9355 10.7025 54.9355C10.1217 54.9355 9.65083 54.4646 9.65083 53.8838C9.65083 53.303 10.1217 52.8321 10.7025 52.8321C11.2834 52.8321 11.7542 53.303 11.7542 53.8838Z" fill="#22B5CB"/>
<path d="M14.3525 55.9872C14.3525 56.568 13.8817 57.0389 13.3008 57.0389C12.72 57.0389 12.2491 56.568 12.2491 55.9872C12.2491 55.4063 12.72 54.9355 13.3008 54.9355C13.8817 54.9355 14.3525 55.4063 14.3525 55.9872Z" fill="#22B5CB"/>
<path d="M17.322 58.0906C17.322 58.6714 16.8511 59.1423 16.2703 59.1423C15.6895 59.1423 15.2186 58.6714 15.2186 58.0906C15.2186 57.5097 15.6895 57.0389 16.2703 57.0389C16.8511 57.0389 17.322 57.5097 17.322 58.0906Z" fill="#22B5CB"/>
<path d="M20.6627 59.5753C20.6627 60.1561 20.1918 60.627 19.611 60.627C19.0301 60.627 18.5593 60.1561 18.5593 59.5753C18.5593 58.9945 19.0301 58.5236 19.611 58.5236C20.1918 58.5236 20.6627 58.9945 20.6627 59.5753Z" fill="#22B5CB"/>
<path d="M17.6932 28.3957C17.6932 28.7032 17.4439 28.9525 17.1364 28.9525C16.8289 28.9525 16.5796 28.7032 16.5796 28.3957C16.5796 28.0882 16.8289 27.8389 17.1364 27.8389C17.4439 27.8389 17.6932 28.0882 17.6932 28.3957Z" fill="#22B5CB"/>
<path d="M18.4356 26.6635C18.4356 26.971 18.1863 27.2203 17.8788 27.2203C17.5713 27.2203 17.322 26.971 17.322 26.6635C17.322 26.356 17.5713 26.1067 17.8788 26.1067C18.1863 26.1067 18.4356 26.356 18.4356 26.6635Z" fill="#22B5CB"/>
<path d="M19.5491 25.055C19.5491 25.3625 19.2998 25.6118 18.9923 25.6118C18.6848 25.6118 18.4356 25.3625 18.4356 25.055C18.4356 24.7475 18.6848 24.4983 18.9923 24.4983C19.2998 24.4983 19.5491 24.7475 19.5491 25.055Z" fill="#22B5CB"/>
<path d="M20.6627 23.5703C20.6627 23.8778 20.4134 24.1271 20.1059 24.1271C19.7984 24.1271 19.5491 23.8778 19.5491 23.5703C19.5491 23.2628 19.7984 23.0135 20.1059 23.0135C20.4134 23.0135 20.6627 23.2628 20.6627 23.5703Z" fill="#22B5CB"/>
<path d="M22.0237 22.333C22.0237 22.6405 21.7744 22.8898 21.4669 22.8898C21.1594 22.8898 20.9101 22.6405 20.9101 22.333C20.9101 22.0255 21.1594 21.7762 21.4669 21.7762C21.7744 21.7762 22.0237 22.0255 22.0237 22.333Z" fill="#22B5CB"/>
<path d="M23.5084 21.2194C23.5084 21.5269 23.2591 21.7762 22.9516 21.7762C22.6441 21.7762 22.3949 21.5269 22.3949 21.2194C22.3949 20.9119 22.6441 20.6627 22.9516 20.6627C23.2591 20.6627 23.5084 20.9119 23.5084 21.2194Z" fill="#22B5CB"/>
<path d="M25.2406 20.2296C25.2406 20.5371 24.9913 20.7864 24.6838 20.7864C24.3763 20.7864 24.1271 20.5371 24.1271 20.2296C24.1271 19.9221 24.3763 19.6728 24.6838 19.6728C24.9913 19.6728 25.2406 19.9221 25.2406 20.2296Z" fill="#22B5CB"/>
<path d="M26.9728 19.611C26.9728 19.9185 26.7235 20.1678 26.416 20.1678C26.1085 20.1678 25.8593 19.9185 25.8593 19.611C25.8593 19.3035 26.1085 19.0542 26.416 19.0542C26.7235 19.0542 26.9728 19.3035 26.9728 19.611Z" fill="#22B5CB"/>
<path d="M28.705 19.1161C28.705 19.4236 28.4557 19.6728 28.1482 19.6728C27.8407 19.6728 27.5915 19.4236 27.5915 19.1161C27.5915 18.8086 27.8407 18.5593 28.1482 18.5593C28.4557 18.5593 28.705 18.8086 28.705 19.1161Z" fill="#22B5CB"/>
<path d="M30.6847 18.8686C30.6847 19.1761 30.4354 19.4254 30.1279 19.4254C29.8204 19.4254 29.5711 19.1761 29.5711 18.8686C29.5711 18.5611 29.8204 18.3118 30.1279 18.3118C30.4354 18.3118 30.6847 18.5611 30.6847 18.8686Z" fill="#22B5CB"/>
<path d="M32.5406 18.7449C32.5406 19.0524 32.2913 19.3017 31.9838 19.3017C31.6763 19.3017 31.4271 19.0524 31.4271 18.7449C31.4271 18.4374 31.6763 18.1881 31.9838 18.1881C32.2913 18.1881 32.5406 18.4374 32.5406 18.7449Z" fill="#22B5CB"/>
<path d="M34.3965 18.9923C34.3965 19.2998 34.1473 19.5491 33.8398 19.5491C33.5323 19.5491 33.283 19.2998 33.283 18.9923C33.283 18.6848 33.5323 18.4356 33.8398 18.4356C34.1473 18.4356 34.3965 18.6848 34.3965 18.9923Z" fill="#22B5CB"/>
<path d="M36.2525 19.3635C36.2525 19.671 36.0032 19.9203 35.6957 19.9203C35.3882 19.9203 35.1389 19.671 35.1389 19.3635C35.1389 19.056 35.3882 18.8067 35.6957 18.8067C36.0032 18.8067 36.2525 19.056 36.2525 19.3635Z" fill="#22B5CB"/>
<path d="M38.1084 19.9822C38.1084 20.2897 37.8591 20.5389 37.5516 20.5389C37.2441 20.5389 36.9948 20.2897 36.9948 19.9822C36.9948 19.6747 37.2441 19.4254 37.5516 19.4254C37.8591 19.4254 38.1084 19.6747 38.1084 19.9822Z" fill="#22B5CB"/>
<path d="M39.8406 20.972C39.8406 21.2795 39.5913 21.5288 39.2838 21.5288C38.9763 21.5288 38.727 21.2795 38.727 20.972C38.727 20.6645 38.9763 20.4152 39.2838 20.4152C39.5913 20.4152 39.8406 20.6645 39.8406 20.972Z" fill="#22B5CB"/>
<path d="M41.4491 21.9618C41.4491 22.2693 41.1998 22.5186 40.8923 22.5186C40.5848 22.5186 40.3355 22.2693 40.3355 21.9618C40.3355 21.6543 40.5848 21.405 40.8923 21.405C41.1998 21.405 41.4491 21.6543 41.4491 21.9618Z" fill="#22B5CB"/>
<path d="M43.0575 23.1991C43.0575 23.5066 42.8083 23.7559 42.5008 23.7559C42.1933 23.7559 41.944 23.5066 41.944 23.1991C41.944 22.8916 42.1933 22.6423 42.5008 22.6423C42.8083 22.6423 43.0575 22.8916 43.0575 23.1991Z" fill="#22B5CB"/>
<path d="M44.4186 24.5601C44.4186 24.8676 44.1693 25.1169 43.8618 25.1169C43.5543 25.1169 43.305 24.8676 43.305 24.5601C43.305 24.2526 43.5543 24.0033 43.8618 24.0033C44.1693 24.0033 44.4186 24.2526 44.4186 24.5601Z" fill="#22B5CB"/>
<path d="M45.6558 26.1686C45.6558 26.4761 45.4066 26.7254 45.0991 26.7254C44.7916 26.7254 44.5423 26.4761 44.5423 26.1686C44.5423 25.8611 44.7916 25.6118 45.0991 25.6118C45.4066 25.6118 45.6558 25.8611 45.6558 26.1686Z" fill="#22B5CB"/>
<path d="M46.7694 27.9008C46.7694 28.2083 46.5201 28.4576 46.2126 28.4576C45.9051 28.4576 45.6558 28.2083 45.6558 27.9008C45.6558 27.5933 45.9051 27.344 46.2126 27.344C46.5201 27.344 46.7694 27.5933 46.7694 27.9008Z" fill="#22B5CB"/>
<path d="M47.6355 29.633C47.6355 29.9405 47.3862 30.1898 47.0787 30.1898C46.7712 30.1898 46.5219 29.9405 46.5219 29.633C46.5219 29.3255 46.7712 29.0762 47.0787 29.0762C47.3862 29.0762 47.6355 29.3255 47.6355 29.633Z" fill="#22B5CB"/>
<path d="M48.2541 31.4889C48.2541 31.7964 48.0049 32.0457 47.6974 32.0457C47.3899 32.0457 47.1406 31.7964 47.1406 31.4889C47.1406 31.1814 47.3899 30.9321 47.6974 30.9321C48.0049 30.9321 48.2541 31.1814 48.2541 31.4889Z" fill="#22B5CB"/>
<path d="M48.7491 33.4686C48.7491 33.7761 48.4998 34.0254 48.1923 34.0254C47.8848 34.0254 47.6355 33.7761 47.6355 33.4686C47.6355 33.1611 47.8848 32.9118 48.1923 32.9118C48.4998 32.9118 48.7491 33.1611 48.7491 33.4686Z" fill="#22B5CB"/>
<path d="M48.9965 35.4482C48.9965 35.7557 48.7472 36.005 48.4397 36.005C48.1322 36.005 47.883 35.7557 47.883 35.4482C47.883 35.1407 48.1322 34.8915 48.4397 34.8915C48.7472 34.8915 48.9965 35.1407 48.9965 35.4482Z" fill="#22B5CB"/>
<path d="M48.9965 37.4279C48.9965 37.7354 48.7472 37.9847 48.4397 37.9847C48.1322 37.9847 47.883 37.7354 47.883 37.4279C47.883 37.1204 48.1322 36.8711 48.4397 36.8711C48.7472 36.8711 48.9965 37.1204 48.9965 37.4279Z" fill="#22B5CB"/>
<path d="M48.8728 39.4075C48.8728 39.715 48.6235 39.9643 48.316 39.9643C48.0085 39.9643 47.7592 39.715 47.7592 39.4075C47.7592 39.1 48.0085 38.8508 48.316 38.8508C48.6235 38.8508 48.8728 39.1 48.8728 39.4075Z" fill="#22B5CB"/>
<path d="M48.3779 41.2635C48.3779 41.571 48.1286 41.8203 47.8211 41.8203C47.5136 41.8203 47.2643 41.571 47.2643 41.2635C47.2643 40.956 47.5136 40.7067 47.8211 40.7067C48.1286 40.7067 48.3779 40.956 48.3779 41.2635Z" fill="#22B5CB"/>
<path d="M47.7592 43.1194C47.7592 43.4269 47.5099 43.6762 47.2024 43.6762C46.8949 43.6762 46.6457 43.4269 46.6457 43.1194C46.6457 42.8119 46.8949 42.5626 47.2024 42.5626C47.5099 42.5626 47.7592 42.8119 47.7592 43.1194Z" fill="#22B5CB"/>
<path d="M46.8931 44.8516C46.8931 45.1591 46.6438 45.4084 46.3363 45.4084C46.0288 45.4084 45.7796 45.1591 45.7796 44.8516C45.7796 44.5441 46.0288 44.2948 46.3363 44.2948C46.6438 44.2948 46.8931 44.5441 46.8931 44.8516Z" fill="#22B5CB"/>
<path d="M45.9033 46.4601C45.9033 46.7676 45.654 47.0169 45.3465 47.0169C45.039 47.0169 44.7897 46.7676 44.7897 46.4601C44.7897 46.1526 45.039 45.9033 45.3465 45.9033C45.654 45.9033 45.9033 46.1526 45.9033 46.4601Z" fill="#22B5CB"/>
<path d="M44.7897 47.9448C44.7897 48.2523 44.5405 48.5016 44.233 48.5016C43.9255 48.5016 43.6762 48.2523 43.6762 47.9448C43.6762 47.6373 43.9255 47.388 44.233 47.388C44.5405 47.388 44.7897 47.6373 44.7897 47.9448Z" fill="#22B5CB"/>
<path d="M43.4287 49.1821C43.4287 49.4896 43.1794 49.7389 42.8719 49.7389C42.5644 49.7389 42.3152 49.4896 42.3152 49.1821C42.3152 48.8746 42.5644 48.6253 42.8719 48.6253C43.1794 48.6253 43.4287 48.8746 43.4287 49.1821Z" fill="#22B5CB"/>
<path d="M41.944 50.2957C41.944 50.6032 41.6947 50.8524 41.3872 50.8524C41.0797 50.8524 40.8304 50.6032 40.8304 50.2957C40.8304 49.9882 41.0797 49.7389 41.3872 49.7389C41.6947 49.7389 41.944 49.9882 41.944 50.2957Z" fill="#22B5CB"/>
<path d="M40.2118 51.2855C40.2118 51.593 39.9625 51.8423 39.655 51.8423C39.3475 51.8423 39.0982 51.593 39.0982 51.2855C39.0982 50.978 39.3475 50.7287 39.655 50.7287C39.9625 50.7287 40.2118 50.978 40.2118 51.2855Z" fill="#22B5CB"/>
<path d="M38.4796 51.9041C38.4796 52.2116 38.2303 52.4609 37.9228 52.4609C37.6153 52.4609 37.366 52.2116 37.366 51.9041C37.366 51.5966 37.6153 51.3474 37.9228 51.3474C38.2303 51.3474 38.4796 51.5966 38.4796 51.9041Z" fill="#22B5CB"/>
<path d="M36.7474 52.399C36.7474 52.7065 36.4981 52.9558 36.1906 52.9558C35.8831 52.9558 35.6338 52.7065 35.6338 52.399C35.6338 52.0915 35.8831 51.8423 36.1906 51.8423C36.4981 51.8423 36.7474 52.0915 36.7474 52.399Z" fill="#22B5CB"/>
<path d="M32.9118 52.7702C32.9118 53.0777 32.6625 53.327 32.355 53.327C32.0475 53.327 31.7982 53.0777 31.7982 52.7702C31.7982 52.4627 32.0475 52.2135 32.355 52.2135C32.6625 52.2135 32.9118 52.4627 32.9118 52.7702Z" fill="#22B5CB"/>
<path d="M31.0559 52.5228C31.0559 52.8303 30.8066 53.0796 30.4991 53.0796C30.1916 53.0796 29.9423 52.8303 29.9423 52.5228C29.9423 52.2153 30.1916 51.966 30.4991 51.966C30.8066 51.966 31.0559 52.2153 31.0559 52.5228Z" fill="#22B5CB"/>
<path d="M29.1999 52.1516C29.1999 52.4591 28.9507 52.7084 28.6432 52.7084C28.3357 52.7084 28.0864 52.4591 28.0864 52.1516C28.0864 51.8441 28.3357 51.5948 28.6432 51.5948C28.9507 51.5948 29.1999 51.8441 29.1999 52.1516Z" fill="#22B5CB"/>
<path d="M27.344 51.4092C27.344 51.7167 27.0947 51.966 26.7872 51.966C26.4797 51.966 26.2305 51.7167 26.2305 51.4092C26.2305 51.1017 26.4797 50.8524 26.7872 50.8524C27.0947 50.8524 27.344 51.1017 27.344 51.4092Z" fill="#22B5CB"/>
<path d="M25.6118 50.5431C25.6118 50.8506 25.3625 51.0999 25.055 51.0999C24.7475 51.0999 24.4983 50.8506 24.4983 50.5431C24.4983 50.2356 24.7475 49.9863 25.055 49.9863C25.3625 49.9863 25.6118 50.2356 25.6118 50.5431Z" fill="#22B5CB"/>
<path d="M23.8796 49.5533C23.8796 49.8608 23.6303 50.1101 23.3228 50.1101C23.0153 50.1101 22.7661 49.8608 22.7661 49.5533C22.7661 49.2458 23.0153 48.9965 23.3228 48.9965C23.6303 48.9965 23.8796 49.2458 23.8796 49.5533Z" fill="#22B5CB"/>
<path d="M22.3949 48.316C22.3949 48.6235 22.1456 48.8728 21.8381 48.8728C21.5306 48.8728 21.2813 48.6235 21.2813 48.316C21.2813 48.0085 21.5306 47.7592 21.8381 47.7592C22.1456 47.7592 22.3949 48.0085 22.3949 48.316Z" fill="#22B5CB"/>
<path d="M21.0339 46.8313C21.0339 47.1388 20.7846 47.388 20.4771 47.388C20.1696 47.388 19.9203 47.1388 19.9203 46.8313C19.9203 46.5238 20.1696 46.2745 20.4771 46.2745C20.7846 46.2745 21.0339 46.5238 21.0339 46.8313Z" fill="#22B5CB"/>
<path d="M19.7966 45.3465C19.7966 45.654 19.5473 45.9033 19.2398 45.9033C18.9323 45.9033 18.683 45.654 18.683 45.3465C18.683 45.039 18.9323 44.7897 19.2398 44.7897C19.5473 44.7897 19.7966 45.039 19.7966 45.3465Z" fill="#22B5CB"/>
<path d="M18.683 43.6143C18.683 43.9218 18.4337 44.1711 18.1262 44.1711C17.8187 44.1711 17.5695 43.9218 17.5695 43.6143C17.5695 43.3068 17.8187 43.0575 18.1262 43.0575C18.4337 43.0575 18.683 43.3068 18.683 43.6143Z" fill="#22B5CB"/>
<path d="M17.8169 41.7584C17.8169 42.0659 17.5676 42.3152 17.2601 42.3152C16.9526 42.3152 16.7034 42.0659 16.7034 41.7584C16.7034 41.4509 16.9526 41.2016 17.2601 41.2016C17.5676 41.2016 17.8169 41.4509 17.8169 41.7584Z" fill="#22B5CB"/>
<path d="M17.1983 39.9025C17.1983 40.21 16.949 40.4592 16.6415 40.4592C16.334 40.4592 16.0847 40.21 16.0847 39.9025C16.0847 39.595 16.334 39.3457 16.6415 39.3457C16.949 39.3457 17.1983 39.595 17.1983 39.9025Z" fill="#22B5CB"/>
<path d="M16.7034 37.9228C16.7034 38.2303 16.4541 38.4796 16.1466 38.4796C15.8391 38.4796 15.5898 38.2303 15.5898 37.9228C15.5898 37.6153 15.8391 37.366 16.1466 37.366C16.4541 37.366 16.7034 37.6153 16.7034 37.9228Z" fill="#22B5CB"/>
<path d="M16.4559 36.0669C16.4559 36.3744 16.2066 36.6237 15.8991 36.6237C15.5916 36.6237 15.3423 36.3744 15.3423 36.0669C15.3423 35.7594 15.5916 35.5101 15.8991 35.5101C16.2066 35.5101 16.4559 35.7594 16.4559 36.0669Z" fill="#22B5CB"/>
<path d="M16.4559 34.0872C16.4559 34.3947 16.2066 34.644 15.8991 34.644C15.5916 34.644 15.3423 34.3947 15.3423 34.0872C15.3423 33.7797 15.5916 33.5304 15.8991 33.5304C16.2066 33.5304 16.4559 33.7797 16.4559 34.0872Z" fill="#22B5CB"/>
<path d="M16.5796 32.1076C16.5796 32.4151 16.3303 32.6643 16.0228 32.6643C15.7153 32.6643 15.4661 32.4151 15.4661 32.1076C15.4661 31.8001 15.7153 31.5508 16.0228 31.5508C16.3303 31.5508 16.5796 31.8001 16.5796 32.1076Z" fill="#22B5CB"/>
<path d="M17.0745 30.1279C17.0745 30.4354 16.8253 30.6847 16.5178 30.6847C16.2103 30.6847 15.961 30.4354 15.961 30.1279C15.961 29.8204 16.2103 29.5711 16.5178 29.5711C16.8253 29.5711 17.0745 29.8204 17.0745 30.1279Z" fill="#22B5CB"/>
<path d="M34.8915 52.6465C34.8915 52.954 34.6422 53.2033 34.3347 53.2033C34.0272 53.2033 33.7779 52.954 33.7779 52.6465C33.7779 52.339 34.0272 52.0897 34.3347 52.0897C34.6422 52.0897 34.8915 52.339 34.8915 52.6465Z" fill="#22B5CB"/>
</svg>
