<svg width="220" height="312" viewBox="0 0 220 312" fill="none" xmlns="http://www.w3.org/2000/svg">
<g clip-path="url(#clip0_1968_2718)">
<rect width="220" height="311.328" rx="16" fill="#5C3262"/>
<g opacity="0.2">
<line x1="202.298" y1="-57.25" x2="202.298" y2="371.525" stroke="white" stroke-width="0.369748"/>
<line x1="45.5169" y1="-57.25" x2="45.5169" y2="371.525" stroke="white" stroke-width="0.369748"/>
<line x1="54.7396" y1="-57.25" x2="54.7395" y2="371.525" stroke="white" stroke-width="0.369748"/>
<line x1="128.517" y1="-57.25" x2="128.517" y2="371.525" stroke="white" stroke-width="0.369748"/>
<line x1="91.6263" y1="-57.25" x2="91.6263" y2="371.525" stroke="white" stroke-width="0.369748"/>
<line x1="165.408" y1="-57.25" x2="165.408" y2="371.525" stroke="white" stroke-width="0.369748"/>
<line x1="8.63019" y1="-57.25" x2="8.63017" y2="371.525" stroke="white" stroke-width="0.369748"/>
<line x1="211.525" y1="-57.25" x2="211.525" y2="371.525" stroke="white" stroke-width="0.369748"/>
<line x1="63.9622" y1="-57.25" x2="63.9622" y2="371.525" stroke="white" stroke-width="0.369748"/>
<line x1="137.74" y1="-57.25" x2="137.74" y2="371.525" stroke="white" stroke-width="0.369748"/>
<line x1="100.849" y1="-57.25" x2="100.849" y2="371.525" stroke="white" stroke-width="0.369748"/>
<line x1="174.626" y1="-57.25" x2="174.626" y2="371.525" stroke="white" stroke-width="0.369748"/>
<line x1="17.8489" y1="-57.25" x2="17.8489" y2="371.525" stroke="white" stroke-width="0.369748"/>
<line x1="73.181" y1="-57.25" x2="73.181" y2="371.525" stroke="white" stroke-width="0.369748"/>
<line x1="146.962" y1="-57.25" x2="146.962" y2="371.525" stroke="white" stroke-width="0.369748"/>
<line x1="110.075" y1="-57.25" x2="110.075" y2="371.525" stroke="white" stroke-width="0.369748"/>
<line x1="183.857" y1="-57.25" x2="183.857" y2="371.525" stroke="white" stroke-width="0.369748"/>
<line x1="27.0716" y1="-57.25" x2="27.0716" y2="371.525" stroke="white" stroke-width="0.369748"/>
<line x1="82.4075" y1="-57.25" x2="82.4075" y2="371.525" stroke="white" stroke-width="0.369748"/>
<line x1="156.181" y1="-57.25" x2="156.181" y2="371.525" stroke="white" stroke-width="0.369748"/>
<line x1="119.294" y1="-57.25" x2="119.294" y2="371.525" stroke="white" stroke-width="0.369748"/>
<line x1="193.075" y1="-57.25" x2="193.075" y2="371.525" stroke="white" stroke-width="0.369748"/>
<line x1="36.2982" y1="-57.25" x2="36.2981" y2="371.525" stroke="white" stroke-width="0.369748"/>
<line x1="-147.914" y1="80.9167" x2="381.825" y2="80.9167" stroke="white" stroke-width="0.369748"/>
<line x1="-147.914" y1="237.721" x2="381.825" y2="237.721" stroke="white" stroke-width="0.369748"/>
<line x1="-147.914" y1="228.495" x2="381.825" y2="228.495" stroke="white" stroke-width="0.369748"/>
<line x1="-147.914" y1="7.13544" x2="381.825" y2="7.13546" stroke="white" stroke-width="0.369748"/>
<line x1="-147.914" y1="154.714" x2="381.825" y2="154.714" stroke="white" stroke-width="0.369748"/>
<line x1="-147.914" y1="44.0261" x2="381.825" y2="44.0261" stroke="white" stroke-width="0.369748"/>
<line x1="-147.914" y1="191.604" x2="381.825" y2="191.604" stroke="white" stroke-width="0.369748"/>
<line x1="-147.914" y1="117.823" x2="381.825" y2="117.823" stroke="white" stroke-width="0.369748"/>
<line x1="-147.914" y1="274.62" x2="381.825" y2="274.62" stroke="white" stroke-width="0.369748"/>
<line x1="-147.914" y1="71.7058" x2="381.825" y2="71.7058" stroke="white" stroke-width="0.369748"/>
<line x1="-147.914" y1="219.276" x2="381.825" y2="219.276" stroke="white" stroke-width="0.369748"/>
<line x1="-147.914" y1="145.487" x2="381.825" y2="145.487" stroke="white" stroke-width="0.369748"/>
<line x1="-147.914" y1="302.284" x2="381.825" y2="302.284" stroke="white" stroke-width="0.369748"/>
<line x1="-147.914" y1="34.8073" x2="381.825" y2="34.8073" stroke="white" stroke-width="0.369748"/>
<line x1="-147.914" y1="182.378" x2="381.825" y2="182.378" stroke="white" stroke-width="0.369748"/>
<line x1="-147.914" y1="108.596" x2="381.825" y2="108.596" stroke="white" stroke-width="0.369748"/>
<line x1="-147.914" y1="265.393" x2="381.825" y2="265.393" stroke="white" stroke-width="0.369748"/>
<line x1="-147.914" y1="62.4792" x2="381.825" y2="62.4792" stroke="white" stroke-width="0.369748"/>
<line x1="-147.914" y1="210.05" x2="381.825" y2="210.05" stroke="white" stroke-width="0.369748"/>
<line x1="-147.914" y1="136.268" x2="381.825" y2="136.268" stroke="white" stroke-width="0.369748"/>
<line x1="-147.914" y1="293.065" x2="381.825" y2="293.065" stroke="white" stroke-width="0.369748"/>
<line x1="-147.914" y1="25.5729" x2="381.825" y2="25.573" stroke="white" stroke-width="0.369748"/>
<line x1="-147.914" y1="173.151" x2="381.825" y2="173.151" stroke="white" stroke-width="0.369748"/>
<line x1="-147.914" y1="99.3698" x2="381.825" y2="99.3698" stroke="white" stroke-width="0.369748"/>
<line x1="-147.914" y1="256.167" x2="381.825" y2="256.167" stroke="white" stroke-width="0.369748"/>
<line x1="-147.914" y1="53.2526" x2="381.825" y2="53.2526" stroke="white" stroke-width="0.369748"/>
<line x1="-147.914" y1="200.823" x2="381.825" y2="200.823" stroke="white" stroke-width="0.369748"/>
<line x1="-147.914" y1="127.042" x2="381.825" y2="127.042" stroke="white" stroke-width="0.369748"/>
<line x1="-147.914" y1="283.846" x2="381.825" y2="283.846" stroke="white" stroke-width="0.369748"/>
<line x1="-147.914" y1="16.3542" x2="381.825" y2="16.3542" stroke="white" stroke-width="0.369748"/>
<line x1="-147.914" y1="163.94" x2="381.825" y2="163.94" stroke="white" stroke-width="0.369748"/>
<line x1="-147.914" y1="90.1433" x2="381.825" y2="90.1433" stroke="white" stroke-width="0.369748"/>
<line x1="-147.914" y1="246.948" x2="381.825" y2="246.948" stroke="white" stroke-width="0.369748"/>
</g>
<path d="M0 -0.09375H220V311.234H0V-0.09375Z" fill="url(#paint0_linear_1968_2718)"/>
<circle opacity="0.3" cx="52.4774" cy="244.638" r="7.23909" fill="white"/>
<circle opacity="0.25" cx="52.4774" cy="224.888" r="7.23909" fill="white"/>
<circle opacity="0.2" cx="52.4774" cy="205.13" r="7.23909" fill="white"/>
<circle opacity="0.15" cx="52.4774" cy="185.38" r="7.23909" fill="white"/>
<circle opacity="0.1" cx="52.4774" cy="165.63" r="7.23909" fill="white"/>
<circle opacity="0.05" cx="52.4774" cy="145.88" r="7.23909" fill="white"/>
<circle opacity="0.03" cx="52.4774" cy="126.122" r="7.23909" fill="white"/>
<circle opacity="0.3" cx="71.6532" cy="244.638" r="7.23909" fill="white"/>
<circle opacity="0.25" cx="71.6532" cy="224.888" r="7.23909" fill="white"/>
<circle opacity="0.2" cx="71.6532" cy="205.13" r="7.23909" fill="white"/>
<circle opacity="0.15" cx="71.6532" cy="185.38" r="7.23909" fill="white"/>
<circle opacity="0.1" cx="71.6532" cy="165.63" r="7.23909" fill="white"/>
<circle opacity="0.05" cx="71.6532" cy="145.88" r="7.23909" fill="white"/>
<circle opacity="0.03" cx="71.6532" cy="126.122" r="7.23909" fill="white"/>
<circle opacity="0.3" cx="90.825" cy="244.638" r="7.23909" fill="white"/>
<circle opacity="0.25" cx="90.825" cy="224.888" r="7.23909" fill="white"/>
<circle opacity="0.7" cx="90.825" cy="205.13" r="7.23909" fill="white"/>
<circle opacity="0.15" cx="90.825" cy="185.38" r="7.23909" fill="white"/>
<circle opacity="0.1" cx="90.825" cy="165.63" r="7.23909" fill="white"/>
<circle opacity="0.05" cx="90.825" cy="145.88" r="7.23909" fill="white"/>
<circle opacity="0.03" cx="90.825" cy="126.122" r="7.23909" fill="white"/>
<circle opacity="0.3" cx="110.001" cy="244.638" r="7.23909" fill="white"/>
<circle opacity="0.25" cx="110.001" cy="224.888" r="7.23909" fill="white"/>
<circle opacity="0.7" cx="110.001" cy="205.13" r="7.23909" fill="white"/>
<circle opacity="0.5" cx="110.001" cy="185.38" r="7.23909" fill="white"/>
<circle opacity="0.1" cx="110.001" cy="165.63" r="7.23909" fill="white"/>
<circle opacity="0.05" cx="110.001" cy="145.88" r="7.23909" fill="white"/>
<circle opacity="0.03" cx="110.001" cy="126.122" r="7.23909" fill="white"/>
<circle opacity="0.3" cx="129.177" cy="244.638" r="7.23909" fill="white"/>
<circle opacity="0.25" cx="129.177" cy="224.888" r="7.23909" fill="white"/>
<circle opacity="0.7" cx="129.177" cy="205.13" r="7.23909" fill="white"/>
<circle opacity="0.5" cx="129.177" cy="185.38" r="7.23909" fill="white"/>
<circle opacity="0.3" cx="129.177" cy="165.63" r="7.23909" fill="white"/>
<circle opacity="0.05" cx="129.177" cy="145.88" r="7.23909" fill="white"/>
<circle opacity="0.03" cx="129.177" cy="126.122" r="7.23909" fill="white"/>
<circle opacity="0.3" cx="167.524" cy="244.638" r="7.23909" fill="white"/>
<circle opacity="0.25" cx="167.524" cy="224.888" r="7.23909" fill="white"/>
<circle opacity="0.2" cx="167.524" cy="205.13" r="7.23909" fill="white"/>
<circle opacity="0.15" cx="167.524" cy="185.38" r="7.23909" fill="white"/>
<circle opacity="0.1" cx="167.524" cy="165.63" r="7.23909" fill="white"/>
<circle opacity="0.05" cx="167.524" cy="145.88" r="7.23909" fill="white"/>
<circle opacity="0.03" cx="167.524" cy="126.122" r="7.23909" fill="white"/>
<circle opacity="0.3" cx="148.348" cy="244.638" r="7.23909" fill="white"/>
<circle opacity="0.25" cx="148.348" cy="224.888" r="7.23909" fill="white"/>
<circle opacity="0.2" cx="148.348" cy="205.13" r="7.23909" fill="white"/>
<circle opacity="0.15" cx="148.348" cy="185.38" r="7.23909" fill="white"/>
<circle opacity="0.1" cx="148.348" cy="165.63" r="7.23909" fill="white"/>
<circle opacity="0.05" cx="148.348" cy="145.88" r="7.23909" fill="white"/>
<circle opacity="0.03" cx="148.348" cy="126.122" r="7.23909" fill="white"/>
<path d="M65.3334 284.796H63.9938L63.9866 284.135H65.1565C65.3539 284.135 65.5212 284.106 65.6584 284.049C65.798 283.988 65.904 283.903 65.9762 283.792C66.0484 283.679 66.0845 283.543 66.0845 283.384C66.0845 283.208 66.0508 283.065 65.9834 282.954C65.916 282.844 65.8125 282.763 65.6729 282.713C65.5356 282.662 65.3599 282.637 65.1457 282.637H64.2683V287.172H63.3619V281.915H65.1457C65.4345 281.915 65.6921 281.942 65.9184 281.998C66.1471 282.053 66.3409 282.14 66.4997 282.258C66.661 282.373 66.7826 282.52 66.8644 282.698C66.9487 282.876 66.9908 283.088 66.9908 283.334C66.9908 283.55 66.9391 283.749 66.8355 283.929C66.732 284.107 66.5792 284.253 66.377 284.366C66.1748 284.479 65.9232 284.547 65.6223 284.568L65.3334 284.796ZM65.2937 287.172H63.7086L64.1166 286.453H65.2937C65.4983 286.453 65.6692 286.42 65.8065 286.352C65.9437 286.282 66.046 286.187 66.1134 286.067C66.1832 285.944 66.2181 285.801 66.2181 285.637C66.2181 285.466 66.188 285.318 66.1278 285.193C66.0676 285.066 65.9726 284.968 65.8426 284.901C65.7126 284.831 65.5429 284.796 65.3334 284.796H64.3152L64.3224 284.135H65.6476L65.8534 284.384C66.1423 284.394 66.3794 284.458 66.5647 284.576C66.7525 284.694 66.8921 284.847 66.9836 285.034C67.0751 285.222 67.1208 285.424 67.1208 285.641C67.1208 285.975 67.0474 286.256 66.9005 286.482C66.7561 286.708 66.5479 286.881 66.2759 286.999C66.0039 287.114 65.6765 287.172 65.2937 287.172ZM68.7777 281.915L69.9982 284.424L71.2186 281.915H72.2225L70.4532 285.236V287.172H69.5396V285.236L67.7703 281.915H68.7777ZM78.6308 285.46H79.5335C79.5046 285.805 79.4083 286.111 79.2446 286.381C79.0809 286.648 78.851 286.859 78.555 287.013C78.2589 287.167 77.899 287.244 77.4753 287.244C77.1504 287.244 76.8579 287.186 76.5979 287.071C76.3379 286.953 76.1153 286.787 75.9299 286.572C75.7445 286.356 75.6025 286.095 75.5038 285.789C75.4075 285.483 75.3594 285.141 75.3594 284.763V284.327C75.3594 283.949 75.4087 283.607 75.5074 283.301C75.6085 282.995 75.753 282.734 75.9407 282.518C76.1285 282.298 76.3536 282.131 76.616 282.016C76.8807 281.9 77.178 281.842 77.5078 281.842C77.9267 281.842 78.2805 281.919 78.5694 282.073C78.8583 282.227 79.0821 282.44 79.241 282.713C79.4023 282.985 79.501 283.296 79.5371 283.648H78.6344C78.6103 283.421 78.5574 283.228 78.4755 283.066C78.3961 282.905 78.2781 282.782 78.1217 282.698C77.9652 282.611 77.7606 282.568 77.5078 282.568C77.3008 282.568 77.1203 282.607 76.9662 282.684C76.8121 282.761 76.6834 282.874 76.5798 283.023C76.4763 283.172 76.3981 283.356 76.3451 283.575C76.2946 283.792 76.2693 284.04 76.2693 284.319V284.763C76.2693 285.028 76.2922 285.269 76.3379 285.486C76.3861 285.7 76.4583 285.884 76.5546 286.038C76.6533 286.192 76.7784 286.311 76.9301 286.396C77.0817 286.48 77.2635 286.522 77.4753 286.522C77.7329 286.522 77.9411 286.481 78.1 286.399C78.2613 286.317 78.3828 286.198 78.4647 286.042C78.5489 285.883 78.6043 285.689 78.6308 285.46ZM84.9926 284.399V284.688C84.9926 285.085 84.9409 285.441 84.8374 285.756C84.7338 286.072 84.5858 286.34 84.3932 286.562C84.2031 286.783 83.9744 286.953 83.7072 287.071C83.44 287.186 83.1439 287.244 82.8189 287.244C82.4963 287.244 82.2015 287.186 81.9343 287.071C81.6695 286.953 81.4396 286.783 81.2446 286.562C81.0496 286.34 80.898 286.072 80.7896 285.756C80.6837 285.441 80.6308 285.085 80.6308 284.688V284.399C80.6308 284.002 80.6837 283.647 80.7896 283.334C80.8955 283.018 81.0448 282.75 81.2374 282.528C81.4324 282.304 81.6622 282.135 81.927 282.019C82.1942 281.901 82.4891 281.842 82.8117 281.842C83.1367 281.842 83.4327 281.901 83.6999 282.019C83.9671 282.135 84.197 282.304 84.3896 282.528C84.5822 282.75 84.7302 283.018 84.8337 283.334C84.9397 283.647 84.9926 284.002 84.9926 284.399ZM84.0863 284.688V284.392C84.0863 284.098 84.0574 283.839 83.9996 283.615C83.9443 283.389 83.8612 283.2 83.7505 283.048C83.6422 282.894 83.5086 282.779 83.3497 282.702C83.1908 282.622 83.0115 282.583 82.8117 282.583C82.6119 282.583 82.4338 282.622 82.2773 282.702C82.1208 282.779 81.9872 282.894 81.8765 283.048C81.7682 283.2 81.6851 283.389 81.6273 283.615C81.5696 283.839 81.5407 284.098 81.5407 284.392V284.688C81.5407 284.981 81.5696 285.241 81.6273 285.468C81.6851 285.694 81.7694 285.885 81.8801 286.042C81.9932 286.196 82.128 286.312 82.2845 286.392C82.441 286.469 82.6191 286.507 82.8189 286.507C83.0211 286.507 83.2005 286.469 83.3569 286.392C83.5134 286.312 83.6458 286.196 83.7541 286.042C83.8624 285.885 83.9443 285.694 83.9996 285.468C84.0574 285.241 84.0863 284.981 84.0863 284.688ZM90.5348 284.399V284.688C90.5348 285.085 90.483 285.441 90.3795 285.756C90.276 286.072 90.128 286.34 89.9354 286.562C89.7452 286.783 89.5165 286.953 89.2493 287.071C88.9821 287.186 88.6861 287.244 88.3611 287.244C88.0385 287.244 87.7436 287.186 87.4764 287.071C87.2116 286.953 86.9817 286.783 86.7868 286.562C86.5918 286.34 86.4401 286.072 86.3318 285.756C86.2259 285.441 86.1729 285.085 86.1729 284.688V284.399C86.1729 284.002 86.2259 283.647 86.3318 283.334C86.4377 283.018 86.587 282.75 86.7795 282.528C86.9745 282.304 87.2044 282.135 87.4692 282.019C87.7364 281.901 88.0313 281.842 88.3539 281.842C88.6788 281.842 88.9749 281.901 89.2421 282.019C89.5093 282.135 89.7392 282.304 89.9318 282.528C90.1244 282.75 90.2724 283.018 90.3759 283.334C90.4818 283.647 90.5348 284.002 90.5348 284.399ZM89.6285 284.688V284.392C89.6285 284.098 89.5996 283.839 89.5418 283.615C89.4865 283.389 89.4034 283.2 89.2927 283.048C89.1843 282.894 89.0507 282.779 88.8919 282.702C88.733 282.622 88.5537 282.583 88.3539 282.583C88.1541 282.583 87.9759 282.622 87.8195 282.702C87.663 282.779 87.5294 282.894 87.4187 283.048C87.3103 283.2 87.2273 283.389 87.1695 283.615C87.1117 283.839 87.0829 284.098 87.0829 284.392V284.688C87.0829 284.981 87.1117 285.241 87.1695 285.468C87.2273 285.694 87.3115 285.885 87.4223 286.042C87.5354 286.196 87.6702 286.312 87.8267 286.392C87.9832 286.469 88.1613 286.507 88.3611 286.507C88.5633 286.507 88.7426 286.469 88.8991 286.392C89.0556 286.312 89.188 286.196 89.2963 286.042C89.4046 285.885 89.4865 285.694 89.5418 285.468C89.5996 285.241 89.6285 284.981 89.6285 284.688ZM91.8848 281.915H93.7444C94.144 281.915 94.4846 281.975 94.7662 282.095C95.0479 282.215 95.2633 282.394 95.4126 282.629C95.5642 282.863 95.6401 283.152 95.6401 283.496C95.6401 283.758 95.5919 283.99 95.4956 284.189C95.3993 284.389 95.2633 284.558 95.0876 284.695C94.9119 284.83 94.7025 284.934 94.4593 285.009L94.1849 285.143H92.5131L92.5059 284.424H93.7588C93.9755 284.424 94.156 284.386 94.3004 284.308C94.4449 284.231 94.5532 284.127 94.6254 283.994C94.7 283.86 94.7374 283.708 94.7374 283.539C94.7374 283.356 94.7012 283.198 94.629 283.063C94.5592 282.926 94.4509 282.821 94.3041 282.749C94.1572 282.674 93.9707 282.637 93.7444 282.637H92.7911V287.172H91.8848V281.915ZM94.8854 287.172L93.6505 284.81L94.6001 284.807L95.8531 287.125V287.172H94.8854ZM98.5138 287.172H97.3909L97.3981 286.453H98.5138C98.8388 286.453 99.1108 286.382 99.3299 286.24C99.5513 286.098 99.7174 285.895 99.8282 285.63C99.9413 285.365 99.9979 285.05 99.9979 284.684V284.399C99.9979 284.115 99.9654 283.863 99.9004 283.644C99.8378 283.425 99.7439 283.241 99.6187 283.092C99.496 282.942 99.3443 282.829 99.1638 282.752C98.9857 282.675 98.7798 282.637 98.5463 282.637H97.3692V281.915H98.5463C98.8954 281.915 99.2143 281.973 99.5032 282.091C99.7921 282.207 100.041 282.374 100.251 282.593C100.462 282.812 100.625 283.075 100.738 283.381C100.851 283.686 100.908 284.028 100.908 284.406V284.684C100.908 285.062 100.851 285.404 100.738 285.709C100.625 286.015 100.462 286.278 100.251 286.497C100.039 286.713 99.7861 286.881 99.4924 286.999C99.2011 287.114 98.8749 287.172 98.5138 287.172ZM97.8928 281.915V287.172H96.9865V281.915H97.8928ZM103.229 281.915V287.172H102.323V281.915H103.229ZM108.97 281.915V287.172H108.064L105.706 283.406V287.172H104.799V281.915H105.706L108.071 285.688V281.915H108.97ZM112.606 282.615L111.035 287.172H110.085L112.064 281.915H112.671L112.606 282.615ZM113.92 287.172L112.346 282.615L112.277 281.915H112.887L114.873 287.172H113.92ZM113.844 285.222V285.941H110.984V285.222H113.844ZM117.613 281.915V287.172H116.714V281.915H117.613ZM119.263 281.915V282.637H115.079V281.915H119.263ZM123.842 286.453V287.172H121.05V286.453H123.842ZM121.307 281.915V287.172H120.4V281.915H121.307ZM123.477 284.11V284.818H121.05V284.11H123.477ZM123.824 281.915V282.637H121.05V281.915H123.824ZM126.553 287.172H125.43L125.437 286.453H126.553C126.878 286.453 127.15 286.382 127.369 286.24C127.59 286.098 127.756 285.895 127.867 285.63C127.98 285.365 128.037 285.05 128.037 284.684V284.399C128.037 284.115 128.004 283.863 127.939 283.644C127.877 283.425 127.783 283.241 127.658 283.092C127.535 282.942 127.383 282.829 127.203 282.752C127.025 282.675 126.819 282.637 126.585 282.637H125.408V281.915H126.585C126.934 281.915 127.253 281.973 127.542 282.091C127.831 282.207 128.08 282.374 128.29 282.593C128.502 282.812 128.664 283.075 128.777 283.381C128.89 283.686 128.947 284.028 128.947 284.406V284.684C128.947 285.062 128.89 285.404 128.777 285.709C128.664 286.015 128.502 286.278 128.29 286.497C128.078 286.713 127.825 286.881 127.531 286.999C127.24 287.114 126.914 287.172 126.553 287.172ZM125.932 281.915V287.172H125.025V281.915H125.932ZM135.879 286.453V287.172H133.239V286.453H135.879ZM133.492 281.915V287.172H132.586V281.915H133.492ZM137.991 281.915V287.172H137.084V281.915H137.991ZM141.363 286.211L142.746 281.915H143.746L141.861 287.172H141.186L141.363 286.211ZM140.084 281.915L141.457 286.211L141.644 287.172H140.966L139.088 281.915H140.084ZM145.746 281.915V287.172H144.839V281.915H145.746ZM151.487 281.915V287.172H150.58L148.222 283.406V287.172H147.316V281.915H148.222L150.587 285.688V281.915H151.487ZM157.047 284.485V286.493C156.972 286.592 156.855 286.7 156.697 286.818C156.54 286.934 156.332 287.033 156.072 287.118C155.812 287.202 155.488 287.244 155.101 287.244C154.771 287.244 154.469 287.189 154.194 287.078C153.92 286.965 153.683 286.8 153.483 286.583C153.286 286.367 153.133 286.103 153.024 285.793C152.916 285.48 152.862 285.123 152.862 284.724V284.359C152.862 283.962 152.911 283.608 153.01 283.297C153.111 282.985 153.255 282.72 153.443 282.503C153.631 282.286 153.857 282.123 154.122 282.012C154.389 281.899 154.691 281.842 155.028 281.842C155.459 281.842 155.816 281.915 156.097 282.059C156.381 282.201 156.6 282.398 156.754 282.651C156.908 282.904 157.006 283.193 157.047 283.518H156.159C156.13 283.335 156.073 283.171 155.989 283.027C155.907 282.882 155.789 282.769 155.635 282.687C155.483 282.603 155.286 282.561 155.043 282.561C154.833 282.561 154.649 282.601 154.49 282.68C154.331 282.759 154.199 282.876 154.093 283.03C153.99 283.184 153.911 283.372 153.858 283.594C153.805 283.815 153.779 284.068 153.779 284.352V284.724C153.779 285.013 153.809 285.269 153.869 285.493C153.932 285.717 154.021 285.906 154.136 286.06C154.254 286.214 154.398 286.331 154.566 286.41C154.735 286.487 154.925 286.526 155.137 286.526C155.344 286.526 155.513 286.509 155.646 286.475C155.778 286.439 155.883 286.397 155.96 286.349C156.039 286.298 156.101 286.25 156.144 286.204V285.161H155.05V284.485H157.047Z" fill="white"/>
<path d="M62.0318 63.8593C63.297 63.8593 64.3733 64.1647 65.2604 64.7755C66.1476 65.3718 66.5911 66.259 66.5911 67.437C66.5911 68.7895 66.0458 69.9603 64.955 70.9492C63.8788 71.9382 62.5626 72.6871 61.0065 73.1962C59.4649 73.7197 58.0178 74.0033 56.6653 74.047L56.4689 73.2616C58.3305 72.8835 59.9739 72.2363 61.3991 71.3201C62.8389 70.4038 63.5588 69.1676 63.5588 67.6115C63.5588 67.0443 63.3916 66.5425 63.0571 66.1062C62.7371 65.6554 62.3154 65.3136 61.7918 65.0809C61.2828 64.8337 60.752 64.7101 60.1993 64.7101C59.2394 64.7101 58.2578 64.9064 57.2543 65.2991L57.2106 65.19V71.7782L54.4837 72.6726V64.6446C54.4837 63.1757 54.8037 61.8305 55.4436 60.6088C56.0835 59.3872 56.9779 58.4273 58.1269 57.7292C59.2903 57.0166 60.5992 56.6603 62.0536 56.6603C62.7953 56.6603 63.4207 56.8421 63.9297 57.2057C64.4387 57.5693 64.6932 58.0928 64.6932 58.7764C64.6932 59.6926 64.2206 60.6306 63.2752 61.5905C62.3299 62.5358 61.2755 63.3357 60.112 63.9902L60.1557 64.0993C60.8974 63.9393 61.5228 63.8593 62.0318 63.8593ZM57.2106 64.6446C58.4323 64.0629 59.4867 63.343 60.3738 62.4849C61.2755 61.6269 61.7264 60.6743 61.7264 59.6272C61.7264 59.089 61.5882 58.66 61.3119 58.3401C61.0355 58.0056 60.6574 57.8383 60.1775 57.8383C59.4503 57.8383 58.8613 58.151 58.4105 58.7764C57.9742 59.3872 57.6615 60.1216 57.4724 60.9797C57.2979 61.8378 57.2106 62.6595 57.2106 63.4448V64.6446ZM73.7119 61.7214C72.752 62.4049 71.9958 63.183 71.4431 64.0556C70.905 64.9137 70.636 65.9245 70.636 67.0879C70.636 67.7278 70.7596 68.375 71.0068 69.0295C71.2541 69.6839 71.6176 70.2293 72.0976 70.6656C72.5775 71.0874 73.152 71.2982 73.821 71.2982C74.6645 71.2982 75.3408 70.9928 75.8498 70.382C76.3733 69.7712 76.6351 69.0149 76.6351 68.1132C76.6351 67.4297 76.4533 66.7389 76.0897 66.0408C75.7407 65.3282 75.268 64.7319 74.6718 64.252C74.0755 63.7575 73.4356 63.4812 72.752 63.423C73.0574 63.0885 73.3847 62.7831 73.7337 62.5067C74.0973 62.2304 74.5481 61.8959 75.0862 61.5033C76.1334 61.8523 76.9624 62.4995 77.5732 63.4448C78.1985 64.3901 78.5112 65.43 78.5112 66.5644C78.5112 67.5679 78.2858 68.5423 77.835 69.4876C77.3987 70.4329 76.7587 71.2037 75.9152 71.8C75.0862 72.3817 74.1191 72.6726 73.0138 72.6726C72.0976 72.6726 71.2541 72.4617 70.4833 72.04C69.727 71.6037 69.1234 71.0146 68.6726 70.2729C68.2218 69.5167 67.9963 68.6877 67.9963 67.786C67.9963 66.2299 68.4835 64.8628 69.4579 63.6848C70.4469 62.5067 71.7267 61.685 73.2974 61.2197L73.7119 61.7214ZM85.8764 61.7214C84.9165 62.4049 84.1603 63.183 83.6076 64.0556C83.0695 64.9137 82.8005 65.9245 82.8005 67.0879C82.8005 67.7278 82.9241 68.375 83.1713 69.0295C83.4185 69.6839 83.7821 70.2293 84.2621 70.6656C84.742 71.0874 85.3165 71.2982 85.9855 71.2982C86.829 71.2982 87.5052 70.9928 88.0143 70.382C88.5378 69.7712 88.7996 69.0149 88.7996 68.1132C88.7996 67.4297 88.6178 66.7389 88.2542 66.0408C87.9052 65.3282 87.4325 64.7319 86.8363 64.252C86.24 63.7575 85.6001 63.4812 84.9165 63.423C85.2219 63.0885 85.5492 62.7831 85.8982 62.5067C86.2618 62.2304 86.7126 61.8959 87.2507 61.5033C88.2979 61.8523 89.1268 62.4995 89.7377 63.4448C90.363 64.3901 90.6757 65.43 90.6757 66.5644C90.6757 67.5679 90.4503 68.5423 89.9994 69.4876C89.5631 70.4329 88.9232 71.2037 88.0797 71.8C87.2507 72.3817 86.2836 72.6726 85.1783 72.6726C84.2621 72.6726 83.4185 72.4617 82.6477 72.04C81.8915 71.6037 81.2879 71.0146 80.8371 70.2729C80.3862 69.5167 80.1608 68.6877 80.1608 67.786C80.1608 66.2299 80.648 64.8628 81.6224 63.6848C82.6114 62.5067 83.8912 61.685 85.4619 61.2197L85.8764 61.7214ZM95.8375 67.5024H95.9903C96.4702 65.8445 97.0883 64.3901 97.8445 63.1394C98.6153 61.8887 99.5679 61.2633 100.702 61.2633C101.24 61.2633 101.669 61.4451 101.989 61.8087C102.309 62.1723 102.469 62.6231 102.469 63.1612C102.469 64.0629 102.091 64.921 101.335 65.7354C100.593 66.5498 99.7352 67.2479 98.7608 67.8296C98.8917 68.0187 99.0226 68.186 99.1534 68.3314C99.7497 69.1458 100.281 69.8003 100.746 70.2948C101.226 70.7747 101.677 71.0146 102.098 71.0146C102.637 71.0146 103.095 70.7892 103.473 70.3384L103.866 70.7747C103.546 71.2982 103.095 71.7345 102.513 72.0836C101.931 72.4326 101.32 72.6072 100.681 72.6072C100.055 72.6072 99.4879 72.389 98.9789 71.9527C98.4845 71.5164 97.9245 70.9056 97.2992 70.1202C96.8192 69.5385 96.5138 69.1895 96.3829 69.0731L96.1866 69.1822C96.0993 69.4876 96.0193 69.9384 95.9466 70.5347C95.8885 71.131 95.8521 71.6473 95.8375 72.0836L93.2415 72.6508V53.1262L95.8375 52.21V67.5024ZM99.1534 63.5321C98.659 63.5321 98.1427 64.0993 97.6046 65.2336C97.0665 66.3535 96.6229 67.4297 96.2739 68.4623C97.2483 67.8951 98.0772 67.2479 98.7608 66.5207C99.4589 65.7936 99.8079 65.0882 99.8079 64.4047C99.8079 64.172 99.7497 63.9684 99.6334 63.7938C99.517 63.6193 99.3571 63.5321 99.1534 63.5321ZM120.169 56.5294C119.66 57.2566 118.991 57.8601 118.162 58.3401C117.333 58.82 116.497 59.06 115.653 59.06C115.377 59.409 115.173 59.7435 115.042 60.0635C114.926 60.3834 114.868 60.7543 114.868 61.176V68.2223C114.868 69.2694 114.635 70.1493 114.17 70.8619C113.719 71.5746 113.014 72.229 112.054 72.8253L111.596 72.3017C111.974 71.8218 112.163 71.1165 112.163 70.1857V62.4413C112.163 61.8305 112.352 61.2415 112.73 60.6743C113.123 60.0925 113.603 59.5544 114.17 59.06L111.268 59.0381C110.774 59.0381 110.323 59.1472 109.916 59.3654C109.509 59.5835 109.123 59.918 108.76 60.3689L108.28 59.9107C108.963 59.0091 109.661 58.2964 110.374 57.7729C111.101 57.2493 111.923 56.9875 112.839 56.9875H116.068C116.766 56.9875 117.471 56.9293 118.184 56.813C118.896 56.6821 119.434 56.4567 119.798 56.1367L120.169 56.5294ZM121.708 59.169L120.334 59.6053L119.439 55.046L122.471 54.0207L121.708 59.169ZM122.406 70.3602C122.406 70.5783 122.457 70.7529 122.559 70.8838C122.66 71.0146 122.799 71.0801 122.973 71.0801C123.337 71.0801 123.708 70.8256 124.086 70.3166L124.478 70.7311C124.158 71.3128 123.744 71.7564 123.235 72.0618C122.74 72.3672 122.246 72.5199 121.752 72.5199C120.428 72.5199 119.766 71.7564 119.766 70.2293V62.3759L122.406 61.4596V70.3602ZM129.333 62.8994V70.3602C129.333 70.5638 129.391 70.7383 129.507 70.8838C129.624 71.0146 129.776 71.0801 129.965 71.0801C130.314 71.0801 130.707 70.8256 131.143 70.3166L131.536 70.7311C131.274 71.2546 130.947 71.6473 130.554 71.9091C130.162 72.1709 129.784 72.3454 129.42 72.4326C129.056 72.5199 128.875 72.549 128.875 72.5199C127.42 72.5199 126.693 71.7564 126.693 70.2293V62.8994H125.144L125.821 61.4596H126.693V56.5076L129.333 55.6132V61.4596H132.191L131.536 62.8994H129.333ZM136.722 70.3602C136.722 70.5493 136.766 70.7165 136.853 70.8619C136.955 71.0074 137.108 71.0801 137.311 71.0801C137.515 71.0801 137.718 71.0001 137.922 70.8401C138.14 70.6802 138.315 70.5056 138.446 70.3166L138.838 70.7311C138.591 71.2255 138.227 71.6473 137.747 71.9963C137.282 72.3454 136.78 72.5199 136.242 72.5199C134.832 72.5199 134.126 71.7564 134.126 70.2293V53.1262L136.722 52.1882V70.3602ZM146.462 61.2633C147.305 61.2633 148.01 61.4814 148.578 61.9177C149.145 62.3395 149.428 62.9576 149.428 63.772C149.428 64.4265 149.072 65.1609 148.36 65.9754C147.661 66.7752 146.825 67.5242 145.851 68.2223C144.891 68.9059 144.069 69.4003 143.386 69.7057C143.996 70.6802 144.891 71.1674 146.069 71.1674C146.723 71.1674 147.378 70.9856 148.032 70.622C148.701 70.2438 149.268 69.7494 149.734 69.1385L150.17 69.6621C149.414 70.6074 148.614 71.3419 147.771 71.8654C146.942 72.3745 145.953 72.629 144.804 72.629C143.873 72.629 143.037 72.4181 142.295 71.9963C141.568 71.5746 140.993 71.0001 140.572 70.2729C140.164 69.5312 139.961 68.7022 139.961 67.786C139.961 66.6807 140.259 65.6263 140.855 64.6228C141.466 63.6048 142.273 62.7903 143.277 62.1795C144.28 61.5687 145.342 61.2633 146.462 61.2633ZM145.218 62.6813C144.665 62.6813 144.171 62.8849 143.735 63.2921C143.298 63.6848 142.957 64.1938 142.709 64.8192C142.462 65.4445 142.339 66.0917 142.339 66.7607C142.339 67.6333 142.528 68.3823 142.906 69.0077C143.444 68.7022 144.011 68.2805 144.607 67.7424C145.218 67.1897 145.727 66.6007 146.134 65.9754C146.542 65.35 146.745 64.7828 146.745 64.2738C146.745 63.7648 146.607 63.3721 146.331 63.0958C146.069 62.8194 145.698 62.6813 145.218 62.6813ZM163.305 61.6996C162.403 62.4995 161.356 63.183 160.164 63.7502L160.207 63.8811C160.658 63.7502 161.167 63.6848 161.734 63.6848C162.563 63.6848 163.327 63.8593 164.025 64.2083C164.723 64.5428 165.276 65.0155 165.683 65.6263C166.09 66.2371 166.294 66.9425 166.294 67.7424C166.294 69.124 165.755 70.2802 164.679 71.211C163.618 72.1418 162.316 72.818 160.774 73.2398C159.233 73.6761 157.749 73.8942 156.324 73.8942L156.171 73.218C157.204 73.0871 158.266 72.7962 159.356 72.3454C160.447 71.88 161.363 71.2619 162.105 70.4911C162.847 69.7057 163.218 68.8113 163.218 67.8078C163.218 66.877 162.898 66.1353 162.258 65.5827C161.632 65.03 160.84 64.7537 159.88 64.7537C159.444 64.7537 159 64.8119 158.549 64.9282C158.113 65.0446 157.604 65.2264 157.022 65.4736L156.739 64.7319C158.004 64.1502 159.102 63.4593 160.033 62.6595C160.978 61.845 161.451 60.9215 161.451 59.8889C161.451 59.3654 161.305 58.98 161.014 58.7327C160.738 58.471 160.36 58.3401 159.88 58.3401C159.327 58.3401 158.716 58.5291 158.047 58.9073C157.378 59.2708 156.826 59.6999 156.39 60.1943L155.822 59.6272C156.593 58.6382 157.509 57.8819 158.571 57.3584C159.633 56.8203 160.665 56.5512 161.669 56.5512C162.556 56.5512 163.276 56.7694 163.828 57.2057C164.396 57.642 164.679 58.2673 164.679 59.0818C164.679 60.0126 164.221 60.8852 163.305 61.6996Z" fill="white"/>
<path d="M116.673 34.2683C116.648 34.4335 116.509 34.5493 116.364 34.5269C116.219 34.5045 116.123 34.3523 116.148 34.187C116.174 34.0217 116.312 33.906 116.457 33.9284C116.602 33.9508 116.699 34.103 116.673 34.2683Z" fill="white"/>
<path d="M117.222 33.3076C117.197 33.4728 117.058 33.5886 116.913 33.5662C116.768 33.5437 116.672 33.3916 116.697 33.2263C116.723 33.061 116.861 32.9452 117.006 32.9677C117.151 32.9901 117.248 33.1423 117.222 33.3076Z" fill="white"/>
<path d="M117.68 32.3468C117.654 32.5121 117.516 32.6279 117.371 32.6055C117.226 32.583 117.129 32.4309 117.155 32.2656C117.18 32.1003 117.319 31.9845 117.463 32.007C117.608 32.0294 117.705 32.1816 117.68 32.3468Z" fill="white"/>
<path d="M118 31.2946C117.974 31.4599 117.836 31.5757 117.691 31.5533C117.546 31.5308 117.449 31.3786 117.475 31.2134C117.5 31.0481 117.639 30.9323 117.784 30.9547C117.929 30.9772 118.025 31.1294 118 31.2946Z" fill="white"/>
<path d="M118.229 30.2424C118.203 30.4077 118.065 30.5235 117.92 30.501C117.775 30.4786 117.678 30.3264 117.704 30.1612C117.729 29.9959 117.867 29.8801 118.012 29.9025C118.157 29.925 118.254 30.0771 118.229 30.2424Z" fill="white"/>
<path d="M118.32 29.1902C118.295 29.3555 118.156 29.4713 118.011 29.4488C117.866 29.4264 117.77 29.2742 117.795 29.1089C117.821 28.9437 117.959 28.8279 118.104 28.8503C118.249 28.8728 118.346 29.0249 118.32 29.1902Z" fill="white"/>
<path d="M118.366 28.0922C118.34 28.2575 118.202 28.3733 118.057 28.3509C117.912 28.3284 117.815 28.1763 117.841 28.011C117.866 27.8457 118.005 27.7299 118.15 27.7524C118.295 27.7748 118.391 27.927 118.366 28.0922Z" fill="white"/>
<path d="M118.274 27.04C118.249 27.2053 118.111 27.3211 117.966 27.2986C117.821 27.2762 117.724 27.124 117.749 26.9588C117.775 26.7935 117.913 26.6777 118.058 26.7001C118.203 26.7226 118.3 26.8748 118.274 27.04Z" fill="white"/>
<path d="M118.046 26.0336C118.02 26.1988 117.882 26.3146 117.737 26.2922C117.592 26.2697 117.495 26.1176 117.521 25.9523C117.546 25.787 117.685 25.6712 117.829 25.6937C117.974 25.7161 118.071 25.8683 118.046 26.0336Z" fill="white"/>
<path d="M117.725 25.0271C117.7 25.1924 117.562 25.3082 117.417 25.2857C117.272 25.2633 117.175 25.1111 117.2 24.9458C117.226 24.7806 117.364 24.6648 117.509 24.6872C117.654 24.7097 117.751 24.8618 117.725 25.0271Z" fill="white"/>
<path d="M117.314 24.1121C117.288 24.2774 117.15 24.3932 117.005 24.3708C116.86 24.3483 116.763 24.1961 116.789 24.0309C116.814 23.8656 116.953 23.7498 117.098 23.7723C117.242 23.7947 117.339 23.9469 117.314 24.1121Z" fill="white"/>
<path d="M116.81 23.2429C116.785 23.4082 116.647 23.524 116.502 23.5015C116.357 23.4791 116.26 23.3269 116.285 23.1617C116.311 22.9964 116.449 22.8806 116.594 22.903C116.739 22.9255 116.836 23.0776 116.81 23.2429Z" fill="white"/>
<path d="M116.216 22.4652C116.19 22.6305 116.052 22.7463 115.907 22.7238C115.762 22.7014 115.665 22.5492 115.691 22.3839C115.716 22.2187 115.855 22.1029 116 22.1253C116.145 22.1478 116.241 22.2999 116.216 22.4652Z" fill="white"/>
<path d="M115.53 21.779C115.504 21.9442 115.366 22.06 115.221 22.0376C115.076 22.0151 114.979 21.863 115.004 21.6977C115.03 21.5324 115.168 21.4166 115.313 21.4391C115.458 21.4615 115.555 21.6137 115.53 21.779Z" fill="white"/>
<path d="M114.752 21.1842C114.726 21.3495 114.588 21.4653 114.443 21.4429C114.298 21.4204 114.201 21.2682 114.227 21.103C114.252 20.9377 114.391 20.8219 114.536 20.8444C114.681 20.8668 114.777 21.019 114.752 21.1842Z" fill="white"/>
<path d="M113.928 20.681C113.903 20.8463 113.764 20.9621 113.619 20.9396C113.475 20.9172 113.378 20.765 113.403 20.5997C113.429 20.4345 113.567 20.3187 113.712 20.3411C113.857 20.3636 113.954 20.5157 113.928 20.681Z" fill="white"/>
<path d="M113.059 20.315C113.034 20.4803 112.895 20.5961 112.75 20.5736C112.605 20.5512 112.509 20.399 112.534 20.2338C112.56 20.0685 112.698 19.9527 112.843 19.9751C112.988 19.9976 113.085 20.1497 113.059 20.315Z" fill="white"/>
<path d="M112.144 20.0863C112.119 20.2516 111.98 20.3673 111.835 20.3449C111.69 20.3225 111.594 20.1703 111.619 20.005C111.645 19.8397 111.783 19.724 111.928 19.7464C112.073 19.7688 112.17 19.921 112.144 20.0863Z" fill="white"/>
<path d="M111.183 19.949C111.158 20.1143 111.02 20.2301 110.875 20.2077C110.73 20.1852 110.633 20.033 110.658 19.8678C110.684 19.7025 110.822 19.5867 110.967 19.6092C111.112 19.6316 111.209 19.7838 111.183 19.949Z" fill="white"/>
<path d="M110.223 19.949C110.197 20.1143 110.059 20.2301 109.914 20.2077C109.769 20.1852 109.672 20.033 109.698 19.8678C109.723 19.7025 109.862 19.5867 110.007 19.6092C110.151 19.6316 110.248 19.7838 110.223 19.949Z" fill="white"/>
<path d="M109.308 20.0405C109.282 20.2058 109.144 20.3216 108.999 20.2991C108.854 20.2767 108.757 20.1245 108.783 19.9593C108.808 19.794 108.947 19.6782 109.092 19.7006C109.237 19.7231 109.333 19.8753 109.308 20.0405Z" fill="white"/>
<path d="M108.347 20.2693C108.321 20.4345 108.183 20.5503 108.038 20.5279C107.893 20.5055 107.796 20.3533 107.822 20.188C107.848 20.0227 107.986 19.9069 108.131 19.9294C108.276 19.9518 108.373 20.104 108.347 20.2693Z" fill="white"/>
<path d="M107.432 20.6353C107.406 20.8005 107.268 20.9163 107.123 20.8939C106.978 20.8714 106.881 20.7193 106.907 20.554C106.933 20.3887 107.071 20.2729 107.216 20.2954C107.361 20.3178 107.458 20.47 107.432 20.6353Z" fill="white"/>
<path d="M106.563 21.0927C106.537 21.258 106.399 21.3738 106.254 21.3514C106.109 21.3289 106.012 21.1768 106.038 21.0115C106.063 20.8462 106.202 20.7304 106.347 20.7529C106.492 20.7753 106.588 20.9275 106.563 21.0927Z" fill="white"/>
<path d="M105.694 21.6875C105.668 21.8527 105.53 21.9685 105.385 21.9461C105.24 21.9236 105.143 21.7715 105.169 21.6062C105.194 21.4409 105.332 21.3252 105.477 21.3476C105.622 21.37 105.719 21.5222 105.694 21.6875Z" fill="white"/>
<path d="M104.962 22.3737C104.936 22.539 104.798 22.6548 104.653 22.6323C104.508 22.6099 104.411 22.4577 104.437 22.2924C104.462 22.1272 104.6 22.0114 104.745 22.0338C104.89 22.0563 104.987 22.2084 104.962 22.3737Z" fill="white"/>
<path d="M104.23 23.1514C104.204 23.3167 104.066 23.4325 103.921 23.41C103.776 23.3876 103.679 23.2354 103.705 23.0702C103.73 22.9049 103.868 22.7891 104.013 22.8115C104.158 22.834 104.255 22.9861 104.23 23.1514Z" fill="white"/>
<path d="M103.589 24.0206C103.564 24.1859 103.425 24.3017 103.28 24.2793C103.135 24.2568 103.039 24.1046 103.064 23.9394C103.09 23.7741 103.228 23.6583 103.373 23.6808C103.518 23.7032 103.615 23.8554 103.589 24.0206Z" fill="white"/>
<path d="M103.086 24.9814C103.06 25.1466 102.922 25.2624 102.777 25.24C102.632 25.2175 102.535 25.0654 102.561 24.9001C102.587 24.7348 102.725 24.619 102.87 24.6415C103.015 24.6639 103.112 24.8161 103.086 24.9814Z" fill="white"/>
<path d="M102.674 25.9421C102.649 26.1073 102.51 26.2231 102.365 26.2007C102.22 26.1782 102.124 26.0261 102.149 25.8608C102.175 25.6955 102.313 25.5797 102.458 25.6022C102.603 25.6246 102.7 25.7768 102.674 25.9421Z" fill="white"/>
<path d="M102.308 26.9485C102.283 27.1138 102.144 27.2296 101.999 27.2072C101.854 27.1847 101.758 27.0325 101.783 26.8673C101.809 26.702 101.947 26.5862 102.092 26.6087C102.237 26.6311 102.334 26.7833 102.308 26.9485Z" fill="white"/>
<path d="M102.079 28.0007C102.054 28.166 101.916 28.2818 101.771 28.2594C101.626 28.2369 101.529 28.0848 101.554 27.9195C101.58 27.7542 101.718 27.6384 101.863 27.6609C102.008 27.6833 102.105 27.8355 102.079 28.0007Z" fill="white"/>
<path d="M101.942 29.0987C101.917 29.264 101.778 29.3798 101.633 29.3573C101.488 29.3349 101.392 29.1827 101.417 29.0174C101.443 28.8522 101.581 28.7364 101.726 28.7588C101.871 28.7813 101.968 28.9334 101.942 29.0987Z" fill="white"/>
<path d="M101.942 30.1967C101.917 30.3619 101.778 30.4777 101.633 30.4553C101.488 30.4328 101.392 30.2807 101.417 30.1154C101.443 29.9501 101.581 29.8343 101.726 29.8568C101.871 29.8792 101.968 30.0314 101.942 30.1967Z" fill="white"/>
<path d="M102.034 31.2489C102.008 31.4142 101.87 31.5299 101.725 31.5075C101.58 31.4851 101.483 31.3329 101.509 31.1676C101.534 31.0023 101.673 30.8866 101.818 30.909C101.963 30.9314 102.059 31.0836 102.034 31.2489Z" fill="white"/>
<path d="M102.262 32.3011C102.237 32.4664 102.099 32.5822 101.954 32.5597C101.809 32.5373 101.712 32.3851 101.737 32.2198C101.763 32.0546 101.901 31.9388 102.046 31.9612C102.191 31.9837 102.288 32.1358 102.262 32.3011Z" fill="white"/>
<path d="M102.583 33.2161C102.557 33.3813 102.419 33.4971 102.274 33.4747C102.129 33.4522 102.032 33.3001 102.058 33.1348C102.083 32.9695 102.222 32.8537 102.367 32.8762C102.512 32.8986 102.608 33.0508 102.583 33.2161Z" fill="white"/>
<path d="M102.994 34.1768C102.969 34.3421 102.831 34.4578 102.686 34.4354C102.541 34.413 102.444 34.2608 102.469 34.0955C102.495 33.9302 102.633 33.8145 102.778 33.8369C102.923 33.8593 103.02 34.0115 102.994 34.1768Z" fill="white"/>
<path d="M103.498 35.046C103.472 35.2113 103.334 35.3271 103.189 35.3046C103.044 35.2822 102.947 35.13 102.973 34.9647C102.998 34.7995 103.137 34.6837 103.281 34.7061C103.426 34.7286 103.523 34.8807 103.498 35.046Z" fill="white"/>
<path d="M104.092 35.8237C104.067 35.989 103.929 36.1048 103.784 36.0823C103.639 36.0599 103.542 35.9077 103.567 35.7425C103.593 35.5772 103.731 35.4614 103.876 35.4838C104.021 35.5063 104.118 35.6584 104.092 35.8237Z" fill="white"/>
<path d="M104.824 36.5099C104.799 36.6752 104.661 36.791 104.516 36.7686C104.371 36.7461 104.274 36.594 104.299 36.4287C104.325 36.2634 104.463 36.1476 104.608 36.1701C104.753 36.1925 104.85 36.3447 104.824 36.5099Z" fill="white"/>
<path d="M105.556 37.1047C105.531 37.2699 105.393 37.3857 105.248 37.3633C105.103 37.3409 105.006 37.1887 105.031 37.0234C105.057 36.8581 105.195 36.7424 105.34 36.7648C105.485 36.7872 105.582 36.9394 105.556 37.1047Z" fill="white"/>
<path d="M106.38 37.6079C106.354 37.7732 106.216 37.889 106.071 37.8665C105.926 37.8441 105.829 37.6919 105.855 37.5266C105.88 37.3614 106.019 37.2456 106.164 37.268C106.309 37.2905 106.405 37.4426 106.38 37.6079Z" fill="white"/>
<path d="M107.249 37.9739C107.223 38.1392 107.085 38.255 106.94 38.2325C106.795 38.2101 106.698 38.0579 106.724 37.8926C106.75 37.7274 106.888 37.6116 107.033 37.634C107.178 37.6565 107.275 37.8086 107.249 37.9739Z" fill="white"/>
<path d="M108.164 38.2026C108.138 38.3679 108 38.4837 107.855 38.4613C107.71 38.4388 107.613 38.2866 107.639 38.1214C107.665 37.9561 107.803 37.8403 107.948 37.8628C108.093 37.8852 108.19 38.0374 108.164 38.2026Z" fill="white"/>
<path d="M109.125 38.3399C109.099 38.5052 108.961 38.6209 108.816 38.5985C108.671 38.5761 108.574 38.4239 108.6 38.2586C108.625 38.0933 108.764 37.9776 108.909 38C109.054 38.0224 109.15 38.1746 109.125 38.3399Z" fill="white"/>
<path d="M110.04 38.3399C110.014 38.5052 109.876 38.6209 109.731 38.5985C109.586 38.5761 109.489 38.4239 109.515 38.2586C109.54 38.0933 109.679 37.9776 109.824 38C109.968 38.0224 110.065 38.1746 110.04 38.3399Z" fill="white"/>
<path d="M111 38.2484C110.975 38.4137 110.837 38.5294 110.692 38.507C110.547 38.4846 110.45 38.3324 110.475 38.1671C110.501 38.0019 110.639 37.8861 110.784 37.9085C110.929 37.9309 111.026 38.0831 111 38.2484Z" fill="white"/>
<path d="M111.961 38.0196C111.936 38.1849 111.797 38.3007 111.652 38.2783C111.507 38.2558 111.411 38.1036 111.436 37.9384C111.462 37.7731 111.6 37.6573 111.745 37.6798C111.89 37.7022 111.987 37.8544 111.961 38.0196Z" fill="white"/>
<path d="M112.876 37.6537C112.851 37.8189 112.712 37.9347 112.567 37.9123C112.422 37.8898 112.326 37.7377 112.351 37.5724C112.377 37.4071 112.515 37.2913 112.66 37.3138C112.805 37.3362 112.902 37.4884 112.876 37.6537Z" fill="white"/>
<path d="M113.745 37.1504C113.72 37.3157 113.581 37.4315 113.436 37.409C113.292 37.3866 113.195 37.2344 113.22 37.0692C113.246 36.9039 113.384 36.7881 113.529 36.8105C113.674 36.833 113.771 36.9852 113.745 37.1504Z" fill="white"/>
<path d="M114.569 36.5557C114.543 36.721 114.405 36.8368 114.26 36.8143C114.115 36.7919 114.018 36.6397 114.044 36.4744C114.069 36.3092 114.208 36.1934 114.353 36.2158C114.498 36.2383 114.594 36.3904 114.569 36.5557Z" fill="white"/>
<path d="M115.347 35.8695C115.321 36.0347 115.183 36.1505 115.038 36.1281C114.893 36.1056 114.796 35.9535 114.822 35.7882C114.847 35.6229 114.985 35.5071 115.13 35.5296C115.275 35.552 115.372 35.7042 115.347 35.8695Z" fill="white"/>
<path d="M116.078 35.1375C116.053 35.3028 115.915 35.4186 115.77 35.3961C115.625 35.3737 115.528 35.2215 115.553 35.0562C115.579 34.891 115.717 34.7752 115.862 34.7976C116.007 34.8201 116.104 34.9722 116.078 35.1375Z" fill="white"/>
<path d="M107.181 39.1717C107.181 39.3865 107.007 39.5606 106.792 39.5606C106.577 39.5606 106.403 39.3865 106.403 39.1717C106.403 38.9569 106.577 38.7828 106.792 38.7828C107.007 38.7828 107.181 38.9569 107.181 39.1717Z" fill="white"/>
<path d="M108.462 39.4462C108.462 39.661 108.288 39.8351 108.073 39.8351C107.858 39.8351 107.684 39.661 107.684 39.4462C107.684 39.2314 107.858 39.0573 108.073 39.0573C108.288 39.0573 108.462 39.2314 108.462 39.4462Z" fill="white"/>
<path d="M109.743 39.5834C109.743 39.7982 109.569 39.9723 109.354 39.9723C109.139 39.9723 108.965 39.7982 108.965 39.5834C108.965 39.3687 109.139 39.1946 109.354 39.1946C109.569 39.1946 109.743 39.3687 109.743 39.5834Z" fill="white"/>
<path d="M111.115 39.5834C111.115 39.7982 110.941 39.9723 110.726 39.9723C110.512 39.9723 110.338 39.7982 110.338 39.5834C110.338 39.3687 110.512 39.1946 110.726 39.1946C110.941 39.1946 111.115 39.3687 111.115 39.5834Z" fill="white"/>
<path d="M112.396 39.4462C112.396 39.661 112.222 39.8351 112.007 39.8351C111.793 39.8351 111.619 39.661 111.619 39.4462C111.619 39.2314 111.793 39.0573 112.007 39.0573C112.222 39.0573 112.396 39.2314 112.396 39.4462Z" fill="white"/>
<path d="M113.677 39.1717C113.677 39.3865 113.503 39.5606 113.288 39.5606C113.074 39.5606 112.9 39.3865 112.9 39.1717C112.9 38.9569 113.074 38.7828 113.288 38.7828C113.503 38.7828 113.677 38.9569 113.677 39.1717Z" fill="white"/>
<path d="M114.912 38.6685C114.912 38.8832 114.738 39.0573 114.524 39.0573C114.309 39.0573 114.135 38.8832 114.135 38.6685C114.135 38.4537 114.309 38.2796 114.524 38.2796C114.738 38.2796 114.912 38.4537 114.912 38.6685Z" fill="white"/>
<path d="M116.102 38.1195C116.102 38.3342 115.928 38.5084 115.713 38.5084C115.498 38.5084 115.324 38.3342 115.324 38.1195C115.324 37.9047 115.498 37.7306 115.713 37.7306C115.928 37.7306 116.102 37.9047 116.102 38.1195Z" fill="white"/>
<path d="M117.2 37.3418C117.2 37.5565 117.026 37.7306 116.811 37.7306C116.596 37.7306 116.422 37.5565 116.422 37.3418C116.422 37.127 116.596 36.9529 116.811 36.9529C117.026 36.9529 117.2 37.127 117.2 37.3418Z" fill="white"/>
<path d="M118.206 36.564C118.206 36.7788 118.032 36.9529 117.817 36.9529C117.603 36.9529 117.429 36.7788 117.429 36.564C117.429 36.3493 117.603 36.1752 117.817 36.1752C118.032 36.1752 118.206 36.3493 118.206 36.564Z" fill="white"/>
<path d="M119.121 35.5576C119.121 35.7723 118.947 35.9464 118.732 35.9464C118.518 35.9464 118.344 35.7723 118.344 35.5576C118.344 35.3428 118.518 35.1687 118.732 35.1687C118.947 35.1687 119.121 35.3428 119.121 35.5576Z" fill="white"/>
<path d="M119.899 34.5054C119.899 34.7201 119.725 34.8942 119.51 34.8942C119.295 34.8942 119.121 34.7201 119.121 34.5054C119.121 34.2906 119.295 34.1165 119.51 34.1165C119.725 34.1165 119.899 34.2906 119.899 34.5054Z" fill="white"/>
<path d="M120.54 33.3617C120.54 33.5764 120.365 33.7505 120.151 33.7505C119.936 33.7505 119.762 33.5764 119.762 33.3617C119.762 33.1469 119.936 32.9728 120.151 32.9728C120.365 32.9728 120.54 33.1469 120.54 33.3617Z" fill="white"/>
<path d="M121.089 32.1722C121.089 32.387 120.914 32.5611 120.7 32.5611C120.485 32.5611 120.311 32.387 120.311 32.1722C120.311 31.9574 120.485 31.7833 120.7 31.7833C120.914 31.7833 121.089 31.9574 121.089 32.1722Z" fill="white"/>
<path d="M121.454 30.937C121.454 31.1518 121.28 31.3259 121.066 31.3259C120.851 31.3259 120.677 31.1518 120.677 30.937C120.677 30.7222 120.851 30.5481 121.066 30.5481C121.28 30.5481 121.454 30.7222 121.454 30.937Z" fill="white"/>
<path d="M121.683 29.6103C121.683 29.8251 121.509 29.9992 121.294 29.9992C121.08 29.9992 120.906 29.8251 120.906 29.6103C120.906 29.3955 121.08 29.2214 121.294 29.2214C121.509 29.2214 121.683 29.3955 121.683 29.6103Z" fill="white"/>
<path d="M121.683 28.2836C121.683 28.4983 121.509 28.6724 121.294 28.6724C121.08 28.6724 120.906 28.4983 120.906 28.2836C120.906 28.0688 121.08 27.8947 121.294 27.8947C121.509 27.8947 121.683 28.0688 121.683 28.2836Z" fill="white"/>
<path d="M121.683 26.9569C121.683 27.1716 121.509 27.3457 121.294 27.3457C121.08 27.3457 120.906 27.1716 120.906 26.9569C120.906 26.7421 121.08 26.568 121.294 26.568C121.509 26.568 121.683 26.7421 121.683 26.9569Z" fill="white"/>
<path d="M121.454 25.7217C121.454 25.9364 121.28 26.1105 121.066 26.1105C120.851 26.1105 120.677 25.9364 120.677 25.7217C120.677 25.5069 120.851 25.3328 121.066 25.3328C121.28 25.3328 121.454 25.5069 121.454 25.7217Z" fill="white"/>
<path d="M121.089 24.395C121.089 24.6097 120.914 24.7838 120.7 24.7838C120.485 24.7838 120.311 24.6097 120.311 24.395C120.311 24.1802 120.485 24.0061 120.7 24.0061C120.914 24.0061 121.089 24.1802 121.089 24.395Z" fill="white"/>
<path d="M120.54 23.2513C120.54 23.466 120.365 23.6401 120.151 23.6401C119.936 23.6401 119.762 23.466 119.762 23.2513C119.762 23.0365 119.936 22.8624 120.151 22.8624C120.365 22.8624 120.54 23.0365 120.54 23.2513Z" fill="white"/>
<path d="M119.899 22.1076C119.899 22.3223 119.725 22.4964 119.51 22.4964C119.295 22.4964 119.121 22.3223 119.121 22.1076C119.121 21.8928 119.295 21.7187 119.51 21.7187C119.725 21.7187 119.899 21.8928 119.899 22.1076Z" fill="white"/>
<path d="M119.121 21.1011C119.121 21.3159 118.947 21.49 118.732 21.49C118.518 21.49 118.344 21.3159 118.344 21.1011C118.344 20.8863 118.518 20.7122 118.732 20.7122C118.947 20.7122 119.121 20.8863 119.121 21.1011Z" fill="white"/>
<path d="M118.161 20.0489C118.161 20.2636 117.987 20.4377 117.772 20.4377C117.557 20.4377 117.383 20.2636 117.383 20.0489C117.383 19.8341 117.557 19.66 117.772 19.66C117.987 19.66 118.161 19.8341 118.161 20.0489Z" fill="white"/>
<path d="M117.2 19.2712C117.2 19.4859 117.026 19.66 116.811 19.66C116.596 19.66 116.422 19.4859 116.422 19.2712C116.422 19.0564 116.596 18.8823 116.811 18.8823C117.026 18.8823 117.2 19.0564 117.2 19.2712Z" fill="white"/>
<path d="M116.102 18.4934C116.102 18.7082 115.928 18.8823 115.713 18.8823C115.498 18.8823 115.324 18.7082 115.324 18.4934C115.324 18.2787 115.498 18.1046 115.713 18.1046C115.928 18.1046 116.102 18.2787 116.102 18.4934Z" fill="white"/>
<path d="M114.958 17.9445C114.958 18.1592 114.784 18.3333 114.569 18.3333C114.355 18.3333 114.181 18.1592 114.181 17.9445C114.181 17.7297 114.355 17.5556 114.569 17.5556C114.784 17.5556 114.958 17.7297 114.958 17.9445Z" fill="white"/>
<path d="M113.677 17.4412C113.677 17.656 113.503 17.8301 113.288 17.8301C113.074 17.8301 112.9 17.656 112.9 17.4412C112.9 17.2265 113.074 17.0524 113.288 17.0524C113.503 17.0524 113.677 17.2265 113.677 17.4412Z" fill="white"/>
<path d="M112.442 17.1667C112.442 17.3815 112.268 17.5556 112.053 17.5556C111.838 17.5556 111.664 17.3815 111.664 17.1667C111.664 16.952 111.838 16.7779 112.053 16.7779C112.268 16.7779 112.442 16.952 112.442 17.1667Z" fill="white"/>
<path d="M111.07 17.0295C111.07 17.2442 110.896 17.4183 110.681 17.4183C110.466 17.4183 110.292 17.2442 110.292 17.0295C110.292 16.8147 110.466 16.6406 110.681 16.6406C110.896 16.6406 111.07 16.8147 111.07 17.0295Z" fill="white"/>
<path d="M109.834 17.0295C109.834 17.2442 109.66 17.4183 109.446 17.4183C109.231 17.4183 109.057 17.2442 109.057 17.0295C109.057 16.8147 109.231 16.6406 109.446 16.6406C109.66 16.6406 109.834 16.8147 109.834 17.0295Z" fill="white"/>
<path d="M108.462 17.1667C108.462 17.3815 108.288 17.5556 108.073 17.5556C107.858 17.5556 107.684 17.3815 107.684 17.1667C107.684 16.952 107.858 16.7779 108.073 16.7779C108.288 16.7779 108.462 16.952 108.462 17.1667Z" fill="white"/>
<path d="M107.181 17.4412C107.181 17.656 107.007 17.8301 106.792 17.8301C106.577 17.8301 106.403 17.656 106.403 17.4412C106.403 17.2265 106.577 17.0524 106.792 17.0524C107.007 17.0524 107.181 17.2265 107.181 17.4412Z" fill="white"/>
<path d="M105.992 17.9445C105.992 18.1592 105.817 18.3333 105.603 18.3333C105.388 18.3333 105.214 18.1592 105.214 17.9445C105.214 17.7297 105.388 17.5556 105.603 17.5556C105.817 17.5556 105.992 17.7297 105.992 17.9445Z" fill="white"/>
<path d="M104.756 18.5392C104.756 18.7539 104.582 18.928 104.367 18.928C104.153 18.928 103.979 18.7539 103.979 18.5392C103.979 18.3244 104.153 18.1503 104.367 18.1503C104.582 18.1503 104.756 18.3244 104.756 18.5392Z" fill="white"/>
<path d="M103.658 19.2254C103.658 19.4402 103.484 19.6143 103.27 19.6143C103.055 19.6143 102.881 19.4402 102.881 19.2254C102.881 19.0106 103.055 18.8365 103.27 18.8365C103.484 18.8365 103.658 19.0106 103.658 19.2254Z" fill="white"/>
<path d="M102.652 20.0946C102.652 20.3094 102.478 20.4835 102.263 20.4835C102.048 20.4835 101.874 20.3094 101.874 20.0946C101.874 19.8799 102.048 19.7058 102.263 19.7058C102.478 19.7058 102.652 19.8799 102.652 20.0946Z" fill="white"/>
<path d="M101.783 21.0553C101.783 21.2701 101.609 21.4442 101.394 21.4442C101.179 21.4442 101.005 21.2701 101.005 21.0553C101.005 20.8406 101.179 20.6665 101.394 20.6665C101.609 20.6665 101.783 20.8406 101.783 21.0553Z" fill="white"/>
<path d="M101.005 22.1076C101.005 22.3223 100.831 22.4964 100.616 22.4964C100.401 22.4964 100.227 22.3223 100.227 22.1076C100.227 21.8928 100.401 21.7187 100.616 21.7187C100.831 21.7187 101.005 21.8928 101.005 22.1076Z" fill="white"/>
<path d="M100.319 23.2513C100.319 23.466 100.145 23.6401 99.9299 23.6401C99.7151 23.6401 99.541 23.466 99.541 23.2513C99.541 23.0365 99.7151 22.8624 99.9299 22.8624C100.145 22.8624 100.319 23.0365 100.319 23.2513Z" fill="white"/>
<path d="M99.7698 24.4407C99.7698 24.6555 99.5957 24.8296 99.3809 24.8296C99.1661 24.8296 98.992 24.6555 98.992 24.4407C98.992 24.226 99.1661 24.0519 99.3809 24.0519C99.5957 24.0519 99.7698 24.226 99.7698 24.4407Z" fill="white"/>
<path d="M99.4038 25.6759C99.4038 25.8907 99.2297 26.0648 99.0149 26.0648C98.8002 26.0648 98.6261 25.8907 98.6261 25.6759C98.6261 25.4612 98.8002 25.2871 99.0149 25.2871C99.2297 25.2871 99.4038 25.4612 99.4038 25.6759Z" fill="white"/>
<path d="M99.2208 27.0484C99.2208 27.2631 99.0467 27.4372 98.8319 27.4372C98.6172 27.4372 98.4431 27.2631 98.4431 27.0484C98.4431 26.8336 98.6172 26.6595 98.8319 26.6595C99.0467 26.6595 99.2208 26.8336 99.2208 27.0484Z" fill="white"/>
<path d="M99.1293 28.3751C99.1293 28.5898 98.9552 28.7639 98.7404 28.7639C98.5257 28.7639 98.3516 28.5898 98.3516 28.3751C98.3516 28.1603 98.5257 27.9862 98.7404 27.9862C98.9552 27.9862 99.1293 28.1603 99.1293 28.3751Z" fill="white"/>
<path d="M99.2208 29.6103C99.2208 29.8251 99.0467 29.9992 98.8319 29.9992C98.6172 29.9992 98.4431 29.8251 98.4431 29.6103C98.4431 29.3955 98.6172 29.2214 98.8319 29.2214C99.0467 29.2214 99.2208 29.3955 99.2208 29.6103Z" fill="white"/>
<path d="M99.4038 30.937C99.4038 31.1518 99.2297 31.3259 99.0149 31.3259C98.8002 31.3259 98.6261 31.1518 98.6261 30.937C98.6261 30.7222 98.8002 30.5481 99.0149 30.5481C99.2297 30.5481 99.4038 30.7222 99.4038 30.937Z" fill="white"/>
<path d="M99.8155 32.1722C99.8155 32.387 99.6414 32.5611 99.4266 32.5611C99.2119 32.5611 99.0378 32.387 99.0378 32.1722C99.0378 31.9574 99.2119 31.7833 99.4266 31.7833C99.6414 31.7833 99.8155 31.9574 99.8155 32.1722Z" fill="white"/>
<path d="M100.319 33.3617C100.319 33.5764 100.145 33.7505 99.9299 33.7505C99.7151 33.7505 99.541 33.5764 99.541 33.3617C99.541 33.1469 99.7151 32.9728 99.9299 32.9728C100.145 32.9728 100.319 33.1469 100.319 33.3617Z" fill="white"/>
<path d="M101.005 34.5054C101.005 34.7201 100.831 34.8942 100.616 34.8942C100.401 34.8942 100.227 34.7201 100.227 34.5054C100.227 34.2906 100.401 34.1165 100.616 34.1165C100.831 34.1165 101.005 34.2906 101.005 34.5054Z" fill="white"/>
<path d="M101.783 35.5576C101.783 35.7723 101.609 35.9464 101.394 35.9464C101.179 35.9464 101.005 35.7723 101.005 35.5576C101.005 35.3428 101.179 35.1687 101.394 35.1687C101.609 35.1687 101.783 35.3428 101.783 35.5576Z" fill="white"/>
<path d="M102.698 36.564C102.698 36.7788 102.524 36.9529 102.309 36.9529C102.094 36.9529 101.92 36.7788 101.92 36.564C101.92 36.3493 102.094 36.1752 102.309 36.1752C102.524 36.1752 102.698 36.3493 102.698 36.564Z" fill="white"/>
<path d="M103.658 37.3418C103.658 37.5565 103.484 37.7306 103.27 37.7306C103.055 37.7306 102.881 37.5565 102.881 37.3418C102.881 37.127 103.055 36.9529 103.27 36.9529C103.484 36.9529 103.658 37.127 103.658 37.3418Z" fill="white"/>
<path d="M104.756 38.1195C104.756 38.3342 104.582 38.5084 104.367 38.5084C104.153 38.5084 103.979 38.3342 103.979 38.1195C103.979 37.9047 104.153 37.7306 104.367 37.7306C104.582 37.7306 104.756 37.9047 104.756 38.1195Z" fill="white"/>
<path d="M105.992 38.6685C105.992 38.8832 105.817 39.0573 105.603 39.0573C105.388 39.0573 105.214 38.8832 105.214 38.6685C105.214 38.4537 105.388 38.2796 105.603 38.2796C105.817 38.2796 105.992 38.4537 105.992 38.6685Z" fill="white"/>
<path d="M104.894 27.1399C104.894 27.2536 104.801 27.3457 104.688 27.3457C104.574 27.3457 104.482 27.2536 104.482 27.1399C104.482 27.0262 104.574 26.934 104.688 26.934C104.801 26.934 104.894 27.0262 104.894 27.1399Z" fill="white"/>
<path d="M105.168 26.4994C105.168 26.6131 105.076 26.7053 104.962 26.7053C104.849 26.7053 104.756 26.6131 104.756 26.4994C104.756 26.3857 104.849 26.2935 104.962 26.2935C105.076 26.2935 105.168 26.3857 105.168 26.4994Z" fill="white"/>
<path d="M105.58 25.9047C105.58 26.0184 105.488 26.1105 105.374 26.1105C105.26 26.1105 105.168 26.0184 105.168 25.9047C105.168 25.791 105.26 25.6988 105.374 25.6988C105.488 25.6988 105.58 25.791 105.58 25.9047Z" fill="white"/>
<path d="M105.992 25.3557C105.992 25.4694 105.899 25.5616 105.786 25.5616C105.672 25.5616 105.58 25.4694 105.58 25.3557C105.58 25.242 105.672 25.1498 105.786 25.1498C105.899 25.1498 105.992 25.242 105.992 25.3557Z" fill="white"/>
<path d="M106.495 24.8982C106.495 25.0119 106.403 25.1041 106.289 25.1041C106.175 25.1041 106.083 25.0119 106.083 24.8982C106.083 24.7845 106.175 24.6923 106.289 24.6923C106.403 24.6923 106.495 24.7845 106.495 24.8982Z" fill="white"/>
<path d="M107.044 24.4865C107.044 24.6002 106.952 24.6923 106.838 24.6923C106.724 24.6923 106.632 24.6002 106.632 24.4865C106.632 24.3728 106.724 24.2806 106.838 24.2806C106.952 24.2806 107.044 24.3728 107.044 24.4865Z" fill="white"/>
<path d="M107.684 24.1205C107.684 24.2342 107.592 24.3264 107.478 24.3264C107.365 24.3264 107.272 24.2342 107.272 24.1205C107.272 24.0068 107.365 23.9146 107.478 23.9146C107.592 23.9146 107.684 24.0068 107.684 24.1205Z" fill="white"/>
<path d="M108.325 23.8917C108.325 24.0054 108.233 24.0976 108.119 24.0976C108.005 24.0976 107.913 24.0054 107.913 23.8917C107.913 23.778 108.005 23.6859 108.119 23.6859C108.233 23.6859 108.325 23.778 108.325 23.8917Z" fill="white"/>
<path d="M108.965 23.7087C108.965 23.8224 108.873 23.9146 108.759 23.9146C108.646 23.9146 108.553 23.8224 108.553 23.7087C108.553 23.5951 108.646 23.5029 108.759 23.5029C108.873 23.5029 108.965 23.5951 108.965 23.7087Z" fill="white"/>
<path d="M109.697 23.6173C109.697 23.7309 109.605 23.8231 109.491 23.8231C109.378 23.8231 109.285 23.7309 109.285 23.6173C109.285 23.5036 109.378 23.4114 109.491 23.4114C109.605 23.4114 109.697 23.5036 109.697 23.6173Z" fill="white"/>
<path d="M110.383 23.5715C110.383 23.6852 110.291 23.7774 110.178 23.7774C110.064 23.7774 109.972 23.6852 109.972 23.5715C109.972 23.4578 110.064 23.3656 110.178 23.3656C110.291 23.3656 110.383 23.4578 110.383 23.5715Z" fill="white"/>
<path d="M111.07 23.663C111.07 23.7767 110.977 23.8689 110.864 23.8689C110.75 23.8689 110.658 23.7767 110.658 23.663C110.658 23.5493 110.75 23.4571 110.864 23.4571C110.977 23.4571 111.07 23.5493 111.07 23.663Z" fill="white"/>
<path d="M111.756 23.8002C111.756 23.9139 111.664 24.0061 111.55 24.0061C111.436 24.0061 111.344 23.9139 111.344 23.8002C111.344 23.6865 111.436 23.5944 111.55 23.5944C111.664 23.5944 111.756 23.6865 111.756 23.8002Z" fill="white"/>
<path d="M112.442 24.029C112.442 24.1427 112.35 24.2349 112.236 24.2349C112.122 24.2349 112.03 24.1427 112.03 24.029C112.03 23.9153 112.122 23.8231 112.236 23.8231C112.35 23.8231 112.442 23.9153 112.442 24.029Z" fill="white"/>
<path d="M113.083 24.395C113.083 24.5087 112.99 24.6008 112.877 24.6008C112.763 24.6008 112.671 24.5087 112.671 24.395C112.671 24.2813 112.763 24.1891 112.877 24.1891C112.99 24.1891 113.083 24.2813 113.083 24.395Z" fill="white"/>
<path d="M113.677 24.761C113.677 24.8747 113.585 24.9668 113.471 24.9668C113.358 24.9668 113.266 24.8747 113.266 24.761C113.266 24.6473 113.358 24.5551 113.471 24.5551C113.585 24.5551 113.677 24.6473 113.677 24.761Z" fill="white"/>
<path d="M114.272 25.2184C114.272 25.3321 114.18 25.4243 114.066 25.4243C113.952 25.4243 113.86 25.3321 113.86 25.2184C113.86 25.1047 113.952 25.0126 114.066 25.0126C114.18 25.0126 114.272 25.1047 114.272 25.2184Z" fill="white"/>
<path d="M114.775 25.7217C114.775 25.8354 114.683 25.9275 114.569 25.9275C114.456 25.9275 114.363 25.8354 114.363 25.7217C114.363 25.608 114.456 25.5158 114.569 25.5158C114.683 25.5158 114.775 25.608 114.775 25.7217Z" fill="white"/>
<path d="M115.233 26.3164C115.233 26.4301 115.141 26.5223 115.027 26.5223C114.913 26.5223 114.821 26.4301 114.821 26.3164C114.821 26.2027 114.913 26.1105 115.027 26.1105C115.141 26.1105 115.233 26.2027 115.233 26.3164Z" fill="white"/>
<path d="M115.644 26.9569C115.644 27.0706 115.552 27.1628 115.439 27.1628C115.325 27.1628 115.233 27.0706 115.233 26.9569C115.233 26.8432 115.325 26.751 115.439 26.751C115.552 26.751 115.644 26.8432 115.644 26.9569Z" fill="white"/>
<path d="M115.965 27.5974C115.965 27.7111 115.873 27.8032 115.759 27.8032C115.645 27.8032 115.553 27.7111 115.553 27.5974C115.553 27.4837 115.645 27.3915 115.759 27.3915C115.873 27.3915 115.965 27.4837 115.965 27.5974Z" fill="white"/>
<path d="M116.193 28.2836C116.193 28.3973 116.101 28.4895 115.988 28.4895C115.874 28.4895 115.782 28.3973 115.782 28.2836C115.782 28.1699 115.874 28.0777 115.988 28.0777C116.101 28.0777 116.193 28.1699 116.193 28.2836Z" fill="white"/>
<path d="M116.376 29.0156C116.376 29.1293 116.284 29.2214 116.171 29.2214C116.057 29.2214 115.965 29.1293 115.965 29.0156C115.965 28.9019 116.057 28.8097 116.171 28.8097C116.284 28.8097 116.376 28.9019 116.376 29.0156Z" fill="white"/>
<path d="M116.468 29.7475C116.468 29.8612 116.376 29.9534 116.262 29.9534C116.148 29.9534 116.056 29.8612 116.056 29.7475C116.056 29.6338 116.148 29.5417 116.262 29.5417C116.376 29.5417 116.468 29.6338 116.468 29.7475Z" fill="white"/>
<path d="M116.468 30.4795C116.468 30.5932 116.376 30.6854 116.262 30.6854C116.148 30.6854 116.056 30.5932 116.056 30.4795C116.056 30.3658 116.148 30.2736 116.262 30.2736C116.376 30.2736 116.468 30.3658 116.468 30.4795Z" fill="white"/>
<path d="M116.422 31.2115C116.422 31.3252 116.33 31.4174 116.216 31.4174C116.103 31.4174 116.01 31.3252 116.01 31.2115C116.01 31.0978 116.103 31.0056 116.216 31.0056C116.33 31.0056 116.422 31.0978 116.422 31.2115Z" fill="white"/>
<path d="M116.239 31.8977C116.239 32.0114 116.147 32.1036 116.033 32.1036C115.92 32.1036 115.827 32.0114 115.827 31.8977C115.827 31.784 115.92 31.6918 116.033 31.6918C116.147 31.6918 116.239 31.784 116.239 31.8977Z" fill="white"/>
<path d="M116.01 32.5839C116.01 32.6976 115.918 32.7898 115.805 32.7898C115.691 32.7898 115.599 32.6976 115.599 32.5839C115.599 32.4702 115.691 32.3781 115.805 32.3781C115.918 32.3781 116.01 32.4702 116.01 32.5839Z" fill="white"/>
<path d="M115.69 33.2244C115.69 33.3381 115.598 33.4303 115.484 33.4303C115.371 33.4303 115.278 33.3381 115.278 33.2244C115.278 33.1107 115.371 33.0185 115.484 33.0185C115.598 33.0185 115.69 33.1107 115.69 33.2244Z" fill="white"/>
<path d="M115.324 33.8191C115.324 33.9328 115.232 34.025 115.118 34.025C115.005 34.025 114.912 33.9328 114.912 33.8191C114.912 33.7054 115.005 33.6133 115.118 33.6133C115.232 33.6133 115.324 33.7054 115.324 33.8191Z" fill="white"/>
<path d="M114.912 34.3681C114.912 34.4818 114.82 34.574 114.707 34.574C114.593 34.574 114.501 34.4818 114.501 34.3681C114.501 34.2544 114.593 34.1623 114.707 34.1623C114.82 34.1623 114.912 34.2544 114.912 34.3681Z" fill="white"/>
<path d="M114.409 34.8256C114.409 34.9393 114.317 35.0315 114.203 35.0315C114.09 35.0315 113.998 34.9393 113.998 34.8256C113.998 34.7119 114.09 34.6197 114.203 34.6197C114.317 34.6197 114.409 34.7119 114.409 34.8256Z" fill="white"/>
<path d="M113.86 35.2373C113.86 35.351 113.768 35.4432 113.654 35.4432C113.541 35.4432 113.449 35.351 113.449 35.2373C113.449 35.1236 113.541 35.0315 113.654 35.0315C113.768 35.0315 113.86 35.1236 113.86 35.2373Z" fill="white"/>
<path d="M113.22 35.6033C113.22 35.717 113.128 35.8092 113.014 35.8092C112.9 35.8092 112.808 35.717 112.808 35.6033C112.808 35.4896 112.9 35.3975 113.014 35.3975C113.128 35.3975 113.22 35.4896 113.22 35.6033Z" fill="white"/>
<path d="M112.579 35.8321C112.579 35.9458 112.487 36.0379 112.373 36.0379C112.26 36.0379 112.168 35.9458 112.168 35.8321C112.168 35.7184 112.26 35.6262 112.373 35.6262C112.487 35.6262 112.579 35.7184 112.579 35.8321Z" fill="white"/>
<path d="M111.939 36.0151C111.939 36.1288 111.847 36.2209 111.733 36.2209C111.619 36.2209 111.527 36.1288 111.527 36.0151C111.527 35.9014 111.619 35.8092 111.733 35.8092C111.847 35.8092 111.939 35.9014 111.939 36.0151Z" fill="white"/>
<path d="M110.521 36.1523C110.521 36.266 110.428 36.3582 110.315 36.3582C110.201 36.3582 110.109 36.266 110.109 36.1523C110.109 36.0386 110.201 35.9464 110.315 35.9464C110.428 35.9464 110.521 36.0386 110.521 36.1523Z" fill="white"/>
<path d="M109.834 36.0608C109.834 36.1745 109.742 36.2667 109.629 36.2667C109.515 36.2667 109.423 36.1745 109.423 36.0608C109.423 35.9471 109.515 35.8549 109.629 35.8549C109.742 35.8549 109.834 35.9471 109.834 36.0608Z" fill="white"/>
<path d="M109.148 35.9236C109.148 36.0373 109.056 36.1294 108.942 36.1294C108.829 36.1294 108.736 36.0373 108.736 35.9236C108.736 35.8099 108.829 35.7177 108.942 35.7177C109.056 35.7177 109.148 35.8099 109.148 35.9236Z" fill="white"/>
<path d="M108.462 35.6491C108.462 35.7628 108.37 35.8549 108.256 35.8549C108.142 35.8549 108.05 35.7628 108.05 35.6491C108.05 35.5354 108.142 35.4432 108.256 35.4432C108.37 35.4432 108.462 35.5354 108.462 35.6491Z" fill="white"/>
<path d="M107.821 35.3288C107.821 35.4425 107.729 35.5347 107.616 35.5347C107.502 35.5347 107.41 35.4425 107.41 35.3288C107.41 35.2151 107.502 35.123 107.616 35.123C107.729 35.123 107.821 35.2151 107.821 35.3288Z" fill="white"/>
<path d="M107.181 34.9629C107.181 35.0765 107.089 35.1687 106.975 35.1687C106.861 35.1687 106.769 35.0765 106.769 34.9629C106.769 34.8492 106.861 34.757 106.975 34.757C107.089 34.757 107.181 34.8492 107.181 34.9629Z" fill="white"/>
<path d="M106.632 34.5054C106.632 34.6191 106.54 34.7112 106.426 34.7112C106.312 34.7112 106.22 34.6191 106.22 34.5054C106.22 34.3917 106.312 34.2995 106.426 34.2995C106.54 34.2995 106.632 34.3917 106.632 34.5054Z" fill="white"/>
<path d="M106.129 33.9564C106.129 34.0701 106.037 34.1623 105.923 34.1623C105.809 34.1623 105.717 34.0701 105.717 33.9564C105.717 33.8427 105.809 33.7505 105.923 33.7505C106.037 33.7505 106.129 33.8427 106.129 33.9564Z" fill="white"/>
<path d="M105.671 33.4074C105.671 33.5211 105.579 33.6133 105.465 33.6133C105.352 33.6133 105.26 33.5211 105.26 33.4074C105.26 33.2937 105.352 33.2015 105.465 33.2015C105.579 33.2015 105.671 33.2937 105.671 33.4074Z" fill="white"/>
<path d="M105.26 32.7669C105.26 32.8806 105.167 32.9728 105.054 32.9728C104.94 32.9728 104.848 32.8806 104.848 32.7669C104.848 32.6532 104.94 32.5611 105.054 32.5611C105.167 32.5611 105.26 32.6532 105.26 32.7669Z" fill="white"/>
<path d="M104.939 32.0807C104.939 32.1944 104.847 32.2866 104.733 32.2866C104.62 32.2866 104.528 32.1944 104.528 32.0807C104.528 31.967 104.62 31.8748 104.733 31.8748C104.847 31.8748 104.939 31.967 104.939 32.0807Z" fill="white"/>
<path d="M104.711 31.3945C104.711 31.5082 104.618 31.6003 104.505 31.6003C104.391 31.6003 104.299 31.5082 104.299 31.3945C104.299 31.2808 104.391 31.1886 104.505 31.1886C104.618 31.1886 104.711 31.2808 104.711 31.3945Z" fill="white"/>
<path d="M104.528 30.6625C104.528 30.7762 104.435 30.8684 104.322 30.8684C104.208 30.8684 104.116 30.7762 104.116 30.6625C104.116 30.5488 104.208 30.4566 104.322 30.4566C104.435 30.4566 104.528 30.5488 104.528 30.6625Z" fill="white"/>
<path d="M104.436 29.9763C104.436 30.09 104.344 30.1821 104.23 30.1821C104.117 30.1821 104.024 30.09 104.024 29.9763C104.024 29.8626 104.117 29.7704 104.23 29.7704C104.344 29.7704 104.436 29.8626 104.436 29.9763Z" fill="white"/>
<path d="M104.436 29.2443C104.436 29.358 104.344 29.4502 104.23 29.4502C104.117 29.4502 104.024 29.358 104.024 29.2443C104.024 29.1306 104.117 29.0384 104.23 29.0384C104.344 29.0384 104.436 29.1306 104.436 29.2443Z" fill="white"/>
<path d="M104.482 28.5123C104.482 28.626 104.39 28.7182 104.276 28.7182C104.162 28.7182 104.07 28.626 104.07 28.5123C104.07 28.3986 104.162 28.3065 104.276 28.3065C104.39 28.3065 104.482 28.3986 104.482 28.5123Z" fill="white"/>
<path d="M104.665 27.7804C104.665 27.8941 104.573 27.9862 104.459 27.9862C104.345 27.9862 104.253 27.8941 104.253 27.7804C104.253 27.6667 104.345 27.5745 104.459 27.5745C104.573 27.5745 104.665 27.6667 104.665 27.7804Z" fill="white"/>
<path d="M111.253 36.1066C111.253 36.2203 111.16 36.3124 111.047 36.3124C110.933 36.3124 110.841 36.2203 110.841 36.1066C110.841 35.9929 110.933 35.9007 111.047 35.9007C111.16 35.9007 111.253 35.9929 111.253 36.1066Z" fill="white"/>
<path d="M82.9791 84.1697C82.9213 83.9929 82.8452 83.8344 82.7507 83.6944C82.6579 83.5526 82.5467 83.4318 82.4171 83.332C82.2893 83.2322 82.144 83.1561 81.9812 83.1035C81.8184 83.051 81.6398 83.0248 81.4455 83.0248C81.1269 83.0248 80.8371 83.107 80.5763 83.2716C80.3154 83.4362 80.108 83.6786 79.9539 83.999C79.7998 84.3194 79.7228 84.7124 79.7228 85.1781C79.7228 85.6438 79.8007 86.0368 79.9565 86.3572C80.1123 86.6776 80.3233 86.9201 80.5894 87.0846C80.8555 87.2492 81.1549 87.3315 81.4875 87.3315C81.7956 87.3315 82.067 87.2658 82.3016 87.1345C82.5379 87.0015 82.7218 86.8141 82.8531 86.5725C82.9861 86.3292 83.0527 86.043 83.0527 85.7138L83.2522 85.7558H81.6346V85.1781H83.6829V85.7558C83.6829 86.1988 83.5884 86.5839 83.3993 86.9113C83.212 87.2387 82.9529 87.4925 82.622 87.6729C82.2928 87.8514 81.9147 87.9407 81.4875 87.9407C81.0113 87.9407 80.5929 87.8287 80.2323 87.6046C79.8734 87.3805 79.5933 87.0619 79.3919 86.6487C79.1924 86.2355 79.0926 85.7453 79.0926 85.1781C79.0926 84.7527 79.1495 84.3702 79.2633 84.0305C79.3788 83.6891 79.5416 83.3985 79.7517 83.1587C79.9618 82.9188 80.2104 82.735 80.4975 82.6072C80.7846 82.4794 81.1006 82.4155 81.4455 82.4155C81.7291 82.4155 81.9935 82.4584 82.2386 82.5442C82.4854 82.6282 82.7051 82.7481 82.8977 82.904C83.092 83.058 83.254 83.2427 83.3835 83.458C83.5131 83.6716 83.6024 83.9089 83.6514 84.1697H82.9791ZM87.2563 86.218V83.8336H87.876V87.8672H87.2563V87.1844H87.2143C87.1197 87.3892 86.9727 87.5634 86.7731 87.707C86.5735 87.8488 86.3214 87.9197 86.0168 87.9197C85.7647 87.9197 85.5406 87.8646 85.3445 87.7543C85.1485 87.6422 84.9944 87.4742 84.8824 87.2501C84.7703 87.0242 84.7143 86.7397 84.7143 86.3966V83.8336H85.334V86.3546C85.334 86.6487 85.4163 86.8833 85.5809 87.0584C85.7472 87.2334 85.959 87.321 86.2164 87.321C86.3704 87.321 86.5271 87.2816 86.6864 87.2028C86.8475 87.124 86.9823 87.0032 87.0909 86.8404C87.2012 86.6776 87.2563 86.4701 87.2563 86.218ZM89.0112 87.8672V83.8336H89.6309V87.8672H89.0112ZM89.3263 83.1613C89.2055 83.1613 89.1013 83.1202 89.0138 83.0379C88.928 82.9556 88.8851 82.8567 88.8851 82.7411C88.8851 82.6256 88.928 82.5267 89.0138 82.4444C89.1013 82.3621 89.2055 82.321 89.3263 82.321C89.4471 82.321 89.5504 82.3621 89.6362 82.4444C89.7237 82.5267 89.7675 82.6256 89.7675 82.7411C89.7675 82.8567 89.7237 82.9556 89.6362 83.0379C89.5504 83.1202 89.4471 83.1613 89.3263 83.1613ZM92.2891 87.9512C91.953 87.9512 91.6562 87.8663 91.3989 87.6965C91.1415 87.5249 90.9402 87.2833 90.7949 86.9717C90.6496 86.6583 90.5769 86.2881 90.5769 85.8609C90.5769 85.4372 90.6496 85.0696 90.7949 84.7579C90.9402 84.4463 91.1424 84.2056 91.4015 84.0358C91.6606 83.866 91.96 83.7811 92.2996 83.7811C92.5622 83.7811 92.7697 83.8248 92.922 83.9124C93.0761 83.9981 93.1934 84.0962 93.2739 84.2065C93.3562 84.315 93.4201 84.4043 93.4656 84.4743H93.5181V82.489H94.1379V87.8672H93.5391V87.2474H93.4656C93.4201 87.321 93.3553 87.4138 93.2713 87.5258C93.1872 87.6361 93.0673 87.735 92.9115 87.8225C92.7557 87.9083 92.5482 87.9512 92.2891 87.9512ZM92.3732 87.3945C92.6218 87.3945 92.8318 87.3297 93.0034 87.2002C93.175 87.0689 93.3054 86.8877 93.3947 86.6566C93.484 86.4237 93.5286 86.155 93.5286 85.8504C93.5286 85.5493 93.4849 85.2858 93.3973 85.0599C93.3098 84.8323 93.1802 84.6555 93.0087 84.5295C92.8371 84.4017 92.6253 84.3378 92.3732 84.3378C92.1106 84.3378 91.8917 84.4052 91.7166 84.54C91.5433 84.673 91.4129 84.8542 91.3254 85.0836C91.2396 85.3112 91.1967 85.5668 91.1967 85.8504C91.1967 86.1375 91.2405 86.3983 91.328 86.6329C91.4173 86.8658 91.5486 87.0514 91.7219 87.1897C91.897 87.3262 92.1141 87.3945 92.3732 87.3945ZM97.0502 87.9512C96.6615 87.9512 96.3262 87.8654 96.0444 87.6939C95.7643 87.5205 95.5481 87.279 95.3957 86.9691C95.2452 86.6575 95.1699 86.2951 95.1699 85.8819C95.1699 85.4687 95.2452 85.1046 95.3957 84.7895C95.5481 84.4726 95.7599 84.2257 96.0312 84.0489C96.3044 83.8703 96.623 83.7811 96.9871 83.7811C97.1972 83.7811 97.4047 83.8161 97.6095 83.8861C97.8143 83.9561 98.0008 84.0699 98.1689 84.2275C98.3369 84.3833 98.4708 84.5899 98.5706 84.8472C98.6704 85.1046 98.7203 85.4215 98.7203 85.7979V86.0605H95.6111V85.5248H98.0901C98.0901 85.2972 98.0446 85.0941 97.9535 84.9155C97.8642 84.7369 97.7364 84.596 97.5701 84.4927C97.4055 84.3894 97.2112 84.3378 96.9871 84.3378C96.7403 84.3378 96.5267 84.3991 96.3464 84.5216C96.1678 84.6424 96.0304 84.8 95.9341 84.9943C95.8378 85.1886 95.7897 85.3969 95.7897 85.6193V85.9764C95.7897 86.2811 95.8422 86.5393 95.9472 86.7511C96.054 86.9612 96.2019 87.1214 96.391 87.2317C96.5801 87.3402 96.7998 87.3945 97.0502 87.3945C97.213 87.3945 97.36 87.3717 97.4913 87.3262C97.6244 87.279 97.7391 87.2089 97.8353 87.1161C97.9316 87.0216 98.006 86.9043 98.0586 86.7642L98.6573 86.9323C98.5943 87.1354 98.4884 87.314 98.3395 87.468C98.1907 87.6203 98.0069 87.7394 97.7881 87.8252C97.5692 87.9092 97.3233 87.9512 97.0502 87.9512ZM103.487 87.8672H101.827V82.489H103.56C104.082 82.489 104.528 82.5967 104.899 82.812C105.271 83.0256 105.555 83.3329 105.753 83.7338C105.951 84.1329 106.05 84.6109 106.05 85.1676C106.05 85.7278 105.95 86.2101 105.75 86.6146C105.551 87.0172 105.26 87.3271 104.878 87.5442C104.497 87.7595 104.033 87.8672 103.487 87.8672ZM102.478 87.2895H103.445C103.889 87.2895 104.258 87.2037 104.55 87.0321C104.843 86.8605 105.06 86.6163 105.204 86.2994C105.348 85.9826 105.419 85.6053 105.419 85.1676C105.419 84.7334 105.348 84.3597 105.207 84.0463C105.065 83.7312 104.853 83.4896 104.571 83.3215C104.289 83.1517 103.938 83.0668 103.518 83.0668H102.478V87.2895ZM108.749 87.9512C108.361 87.9512 108.025 87.8654 107.743 87.6939C107.463 87.5205 107.247 87.279 107.095 86.9691C106.944 86.6575 106.869 86.2951 106.869 85.8819C106.869 85.4687 106.944 85.1046 107.095 84.7895C107.247 84.4726 107.459 84.2257 107.73 84.0489C108.003 83.8703 108.322 83.7811 108.686 83.7811C108.896 83.7811 109.104 83.8161 109.309 83.8861C109.513 83.9561 109.7 84.0699 109.868 84.2275C110.036 84.3833 110.17 84.5899 110.27 84.8472C110.369 85.1046 110.419 85.4215 110.419 85.7979V86.0605H107.31V85.5248H109.789C109.789 85.2972 109.744 85.0941 109.653 84.9155C109.563 84.7369 109.435 84.596 109.269 84.4927C109.105 84.3894 108.91 84.3378 108.686 84.3378C108.439 84.3378 108.226 84.3991 108.045 84.5216C107.867 84.6424 107.729 84.8 107.633 84.9943C107.537 85.1886 107.489 85.3969 107.489 85.6193V85.9764C107.489 86.2811 107.541 86.5393 107.646 86.7511C107.753 86.9612 107.901 87.1214 108.09 87.2317C108.279 87.3402 108.499 87.3945 108.749 87.3945C108.912 87.3945 109.059 87.3717 109.19 87.3262C109.323 87.279 109.438 87.2089 109.534 87.1161C109.631 87.0216 109.705 86.9043 109.758 86.7642L110.356 86.9323C110.293 87.1354 110.187 87.314 110.039 87.468C109.89 87.6203 109.706 87.7394 109.487 87.8252C109.268 87.9092 109.022 87.9512 108.749 87.9512ZM114.219 84.7369L113.663 84.8945C113.628 84.8017 113.576 84.7116 113.508 84.624C113.441 84.5347 113.35 84.4612 113.235 84.4034C113.119 84.3457 112.971 84.3168 112.791 84.3168C112.544 84.3168 112.338 84.3737 112.174 84.4875C112.011 84.5995 111.929 84.7422 111.929 84.9155C111.929 85.0696 111.985 85.1912 112.097 85.2805C112.209 85.3698 112.385 85.4442 112.623 85.5037L113.221 85.6508C113.582 85.7383 113.851 85.8723 114.028 86.0526C114.204 86.2312 114.293 86.4614 114.293 86.7432C114.293 86.9743 114.226 87.1809 114.093 87.363C113.962 87.5451 113.778 87.6886 113.542 87.7937C113.305 87.8987 113.031 87.9512 112.717 87.9512C112.306 87.9512 111.965 87.8619 111.696 87.6834C111.426 87.5048 111.255 87.2439 111.184 86.9008L111.772 86.7537C111.828 86.9708 111.934 87.1336 112.09 87.2422C112.247 87.3507 112.453 87.405 112.707 87.405C112.996 87.405 113.225 87.3437 113.395 87.2212C113.566 87.0969 113.652 86.9481 113.652 86.7748C113.652 86.6347 113.603 86.5174 113.505 86.4229C113.407 86.3266 113.256 86.2548 113.053 86.2075L112.381 86.05C112.012 85.9624 111.74 85.8267 111.567 85.6429C111.395 85.4573 111.31 85.2254 111.31 84.947C111.31 84.7194 111.374 84.5181 111.501 84.343C111.631 84.168 111.807 84.0305 112.029 83.9307C112.253 83.8309 112.507 83.7811 112.791 83.7811C113.19 83.7811 113.503 83.8686 113.731 84.0437C113.96 84.2187 114.123 84.4498 114.219 84.7369ZM116.864 87.9512C116.486 87.9512 116.161 87.8619 115.887 87.6834C115.614 87.5048 115.404 87.2588 115.257 86.9454C115.11 86.6321 115.037 86.2741 115.037 85.8714C115.037 85.4617 115.112 85.1002 115.262 84.7868C115.415 84.4717 115.627 84.2257 115.898 84.0489C116.171 83.8703 116.49 83.7811 116.854 83.7811C117.137 83.7811 117.393 83.8336 117.621 83.9386C117.848 84.0437 118.035 84.1907 118.18 84.3798C118.325 84.5689 118.415 84.7895 118.45 85.0416H117.831C117.783 84.8577 117.678 84.6949 117.516 84.5531C117.355 84.4096 117.137 84.3378 116.864 84.3378C116.623 84.3378 116.411 84.4008 116.229 84.5269C116.049 84.6512 115.908 84.8271 115.806 85.0547C115.706 85.2805 115.656 85.5458 115.656 85.8504C115.656 86.162 115.705 86.4334 115.803 86.6645C115.903 86.8955 116.043 87.075 116.224 87.2028C116.406 87.3306 116.619 87.3945 116.864 87.3945C117.025 87.3945 117.172 87.3665 117.303 87.3105C117.434 87.2544 117.545 87.1739 117.636 87.0689C117.727 86.9638 117.792 86.8378 117.831 86.6907H118.45C118.415 86.9288 118.329 87.1433 118.191 87.3341C118.054 87.5232 117.873 87.6737 117.647 87.7858C117.423 87.8961 117.162 87.9512 116.864 87.9512ZM119.356 87.8672V83.8336H119.955V84.4428H119.997C120.071 84.2432 120.204 84.0813 120.396 83.957C120.589 83.8327 120.806 83.7705 121.048 83.7705C121.093 83.7705 121.15 83.7714 121.218 83.7732C121.287 83.7749 121.338 83.7776 121.373 83.7811V84.4113C121.352 84.4061 121.304 84.3982 121.229 84.3877C121.155 84.3754 121.077 84.3693 120.995 84.3693C120.799 84.3693 120.624 84.4104 120.47 84.4927C120.318 84.5732 120.197 84.6853 120.108 84.8288C120.02 84.9707 119.976 85.1326 119.976 85.3147V87.8672H119.356ZM122.108 87.8672V83.8336H122.728V87.8672H122.108ZM122.423 83.1613C122.302 83.1613 122.198 83.1202 122.111 83.0379C122.025 82.9556 121.982 82.8567 121.982 82.7411C121.982 82.6256 122.025 82.5267 122.111 82.4444C122.198 82.3621 122.302 82.321 122.423 82.321C122.544 82.321 122.647 82.3621 122.733 82.4444C122.82 82.5267 122.864 82.6256 122.864 82.7411C122.864 82.8567 122.82 82.9556 122.733 83.0379C122.647 83.1202 122.544 83.1613 122.423 83.1613ZM123.863 89.3798V83.8336H124.462V84.4743H124.535C124.581 84.4043 124.644 84.315 124.724 84.2065C124.806 84.0962 124.924 83.9981 125.076 83.9124C125.23 83.8248 125.438 83.7811 125.701 83.7811C126.041 83.7811 126.34 83.866 126.599 84.0358C126.858 84.2056 127.06 84.4463 127.206 84.7579C127.351 85.0696 127.424 85.4372 127.424 85.8609C127.424 86.2881 127.351 86.6583 127.206 86.9717C127.06 87.2833 126.859 87.5249 126.602 87.6965C126.344 87.8663 126.048 87.9512 125.712 87.9512C125.452 87.9512 125.245 87.9083 125.089 87.8225C124.933 87.735 124.813 87.6361 124.729 87.5258C124.645 87.4138 124.581 87.321 124.535 87.2474H124.483V89.3798H123.863ZM124.472 85.8504C124.472 86.155 124.517 86.4237 124.606 86.6566C124.695 86.8877 124.826 87.0689 124.997 87.2002C125.169 87.3297 125.379 87.3945 125.627 87.3945C125.887 87.3945 126.103 87.3262 126.276 87.1897C126.451 87.0514 126.582 86.8658 126.67 86.6329C126.759 86.3983 126.804 86.1375 126.804 85.8504C126.804 85.5668 126.76 85.3112 126.673 85.0836C126.587 84.8542 126.456 84.673 126.281 84.54C126.108 84.4052 125.89 84.3378 125.627 84.3378C125.375 84.3378 125.164 84.4017 124.992 84.5295C124.82 84.6555 124.691 84.8323 124.603 85.0599C124.516 85.2858 124.472 85.5493 124.472 85.8504ZM130.123 83.8336V84.3588H128.033V83.8336H130.123ZM128.642 82.8672H129.262V86.7117C129.262 86.8868 129.287 87.0181 129.338 87.1056C129.391 87.1914 129.457 87.2492 129.538 87.279C129.62 87.307 129.707 87.321 129.798 87.321C129.866 87.321 129.922 87.3175 129.966 87.3105C130.009 87.3017 130.045 87.2947 130.071 87.2895L130.197 87.8462C130.155 87.8619 130.096 87.8777 130.021 87.8934C129.946 87.911 129.85 87.9197 129.735 87.9197C129.56 87.9197 129.388 87.8821 129.22 87.8068C129.054 87.7315 128.915 87.6168 128.805 87.4628C128.696 87.3087 128.642 87.1144 128.642 86.8798V82.8672ZM131.056 87.8672V83.8336H131.675V87.8672H131.056ZM131.371 83.1613C131.25 83.1613 131.146 83.1202 131.058 83.0379C130.972 82.9556 130.929 82.8567 130.929 82.7411C130.929 82.6256 130.972 82.5267 131.058 82.4444C131.146 82.3621 131.25 82.321 131.371 82.321C131.491 82.321 131.595 82.3621 131.681 82.4444C131.768 82.5267 131.812 82.6256 131.812 82.7411C131.812 82.8567 131.768 82.9556 131.681 83.0379C131.595 83.1202 131.491 83.1613 131.371 83.1613ZM134.449 87.9512C134.085 87.9512 133.765 87.8646 133.491 87.6912C133.217 87.5179 133.004 87.2755 132.85 86.9638C132.697 86.6522 132.621 86.2881 132.621 85.8714C132.621 85.4512 132.697 85.0844 132.85 84.7711C133.004 84.4577 133.217 84.2144 133.491 84.041C133.765 83.8677 134.085 83.7811 134.449 83.7811C134.813 83.7811 135.132 83.8677 135.405 84.041C135.68 84.2144 135.893 84.4577 136.046 84.7711C136.2 85.0844 136.277 85.4512 136.277 85.8714C136.277 86.2881 136.2 86.6522 136.046 86.9638C135.893 87.2755 135.68 87.5179 135.405 87.6912C135.132 87.8646 134.813 87.9512 134.449 87.9512ZM134.449 87.3945C134.726 87.3945 134.953 87.3236 135.132 87.1818C135.31 87.04 135.443 86.8535 135.528 86.6224C135.614 86.3913 135.657 86.141 135.657 85.8714C135.657 85.6018 135.614 85.3506 135.528 85.1177C135.443 84.8849 135.31 84.6967 135.132 84.5531C134.953 84.4096 134.726 84.3378 134.449 84.3378C134.172 84.3378 133.945 84.4096 133.766 84.5531C133.588 84.6967 133.456 84.8849 133.37 85.1177C133.284 85.3506 133.241 85.6018 133.241 85.8714C133.241 86.141 133.284 86.3913 133.37 86.6224C133.456 86.8535 133.588 87.04 133.766 87.1818C133.945 87.3236 134.172 87.3945 134.449 87.3945ZM137.843 85.4407V87.8672H137.223V83.8336H137.822V84.4638H137.874C137.969 84.259 138.112 84.0944 138.305 83.9701C138.497 83.8441 138.746 83.7811 139.051 83.7811C139.324 83.7811 139.563 83.8371 139.767 83.9491C139.972 84.0594 140.132 84.2275 140.245 84.4533C140.359 84.6774 140.416 84.961 140.416 85.3042V87.8672H139.796V85.3462C139.796 85.0293 139.714 84.7825 139.549 84.6056C139.385 84.4271 139.159 84.3378 138.872 84.3378C138.674 84.3378 138.497 84.3807 138.342 84.4665C138.187 84.5522 138.066 84.6774 137.976 84.842C137.887 85.0065 137.843 85.2061 137.843 85.4407Z" fill="white"/>
</g>
<defs>
<linearGradient id="paint0_linear_1968_2718" x1="230.378" y1="-0.09375" x2="231.344" y2="311.231" gradientUnits="userSpaceOnUse">
<stop offset="0.12077" stop-color="#5C3262"/>
<stop offset="1" stop-color="#5C3262" stop-opacity="0"/>
</linearGradient>
<clipPath id="clip0_1968_2718">
<rect width="220" height="311.328" rx="16" fill="white"/>
</clipPath>
</defs>
</svg>
