<svg width="221" height="312" viewBox="0 0 221 312" fill="none" xmlns="http://www.w3.org/2000/svg">
<g clip-path="url(#clip0_1968_2407)">
<rect x="0.5" y="0.335938" width="220" height="311.328" rx="16" fill="#5C3262"/>
<circle cx="-0.926629" cy="313.511" r="12.2531" fill="white"/>
<circle cx="30.9093" cy="313.511" r="12.2531" fill="white"/>
<circle cx="62.7452" cy="313.511" r="12.2531" fill="white"/>
<circle cx="94.5812" cy="313.511" r="12.2531" fill="white"/>
<circle cx="126.417" cy="313.511" r="12.2531" fill="white"/>
<circle cx="190.089" cy="313.511" r="12.2531" fill="white"/>
<circle cx="158.253" cy="313.511" r="12.2531" fill="white"/>
<circle cx="221.925" cy="313.511" r="12.2531" fill="white"/>
<g opacity="0.55">
<circle cx="-0.926629" cy="280.73" r="12.2531" fill="white"/>
<circle cx="30.9093" cy="280.73" r="12.2531" fill="white"/>
<circle cx="62.7452" cy="280.73" r="12.2531" fill="white"/>
<circle cx="94.5812" cy="280.73" r="12.2531" fill="white"/>
<circle cx="126.417" cy="280.73" r="12.2531" fill="white"/>
<circle cx="190.089" cy="280.73" r="12.2531" fill="white"/>
<circle cx="158.253" cy="280.73" r="12.2531" fill="white"/>
<circle cx="221.925" cy="280.73" r="12.2531" fill="white"/>
</g>
<g opacity="0.4">
<circle cx="-0.926629" cy="247.941" r="12.2531" fill="white"/>
<circle cx="30.9093" cy="247.941" r="12.2531" fill="white"/>
<circle cx="62.7452" cy="247.941" r="12.2531" fill="white"/>
<circle cx="94.5812" cy="247.941" r="12.2531" fill="white"/>
<circle cx="126.417" cy="247.941" r="12.2531" fill="white"/>
<circle cx="190.089" cy="247.941" r="12.2531" fill="white"/>
<circle cx="158.253" cy="247.941" r="12.2531" fill="white"/>
<circle cx="221.925" cy="247.941" r="12.2531" fill="white"/>
</g>
<g opacity="0.2">
<circle cx="-0.926629" cy="215.159" r="12.2531" fill="white"/>
<circle cx="30.9093" cy="215.159" r="12.2531" fill="white"/>
<circle cx="62.7452" cy="215.159" r="12.2531" fill="white"/>
<circle cx="94.5812" cy="215.159" r="12.2531" fill="white"/>
<circle cx="126.417" cy="215.159" r="12.2531" fill="white"/>
<circle cx="190.089" cy="215.159" r="12.2531" fill="white"/>
<circle cx="158.253" cy="215.159" r="12.2531" fill="white"/>
<circle cx="221.925" cy="215.159" r="12.2531" fill="white"/>
</g>
<g opacity="0.07">
<circle cx="-0.926629" cy="182.37" r="12.2531" fill="white"/>
<circle cx="30.9093" cy="182.37" r="12.2531" fill="white"/>
<circle cx="62.7452" cy="182.37" r="12.2531" fill="white"/>
<circle cx="94.5812" cy="182.37" r="12.2531" fill="white"/>
<circle cx="126.417" cy="182.37" r="12.2531" fill="white"/>
<circle cx="190.089" cy="182.37" r="12.2531" fill="white"/>
<circle cx="158.253" cy="182.37" r="12.2531" fill="white"/>
<circle cx="221.925" cy="182.37" r="12.2531" fill="white"/>
</g>
<g opacity="0.02">
<circle cx="-0.926629" cy="149.589" r="12.2531" fill="white"/>
<circle cx="30.9093" cy="149.589" r="12.2531" fill="white"/>
<circle cx="62.7452" cy="149.589" r="12.2531" fill="white"/>
<circle cx="94.5812" cy="149.589" r="12.2531" fill="white"/>
<circle cx="126.417" cy="149.589" r="12.2531" fill="white"/>
<circle cx="190.089" cy="149.589" r="12.2531" fill="white"/>
<circle cx="158.253" cy="149.589" r="12.2531" fill="white"/>
<circle cx="221.925" cy="149.589" r="12.2531" fill="white"/>
</g>
<path d="M39.7602 66.7159C41.0026 66.7159 42.0182 66.9722 42.807 67.485C43.5958 67.9977 43.9902 68.678 43.9902 69.526C43.9902 70.3739 43.6352 71.2219 42.9253 72.0698C42.2351 72.9178 41.328 73.6277 40.2039 74.1996C39.0996 74.7715 37.9657 75.087 36.8023 75.1461L36.3881 74.3771C37.4136 74.1207 38.2813 73.6178 38.9912 72.8685C39.7208 72.0994 40.0856 71.3106 40.0856 70.5021C40.0856 69.8711 39.8884 69.3682 39.494 68.9935C39.1194 68.6189 38.6066 68.4315 37.9559 68.4315C36.8121 68.4315 35.7768 68.8752 34.85 69.7626C33.9429 70.6303 33.2231 71.8332 32.6907 73.3713C32.178 74.8898 31.9216 76.6054 31.9216 78.5182C31.9216 80.786 32.2766 82.5805 32.9865 83.9018C33.7161 85.223 34.7415 85.8836 36.0628 85.8836C36.8713 85.8836 37.6502 85.578 38.3996 84.9666C39.1489 84.3356 39.7602 83.5172 40.2335 82.5115C40.7068 81.5058 40.9533 80.4705 40.973 79.4056L44.6705 78.252V90.291L41.0618 91.5038V83.0144H40.8843C40.3913 84.73 39.5532 86.0808 38.37 87.0668C37.1868 88.0331 35.8459 88.5162 34.3471 88.5162C33.0653 88.5162 31.9315 88.1908 30.9455 87.5401C29.9792 86.8696 29.22 85.9428 28.6678 84.7596C28.1354 83.5567 27.8692 82.1861 27.8692 80.648C27.8692 78.0844 28.3917 75.7476 29.4369 73.6376C30.5018 71.5078 31.9413 69.8218 33.7555 68.5794C35.5698 67.3371 37.5713 66.7159 39.7602 66.7159ZM61.385 85.4991C61.385 85.7949 61.454 86.0414 61.592 86.2386C61.7301 86.4161 61.9273 86.5048 62.1836 86.5048C62.578 86.5048 63.0611 86.1696 63.633 85.4991L64.1359 86.0315C63.6429 87.0372 63.0316 87.6978 62.3019 88.0134C61.5723 88.3092 61.0201 88.4571 60.6455 88.4571C59.9158 88.4571 59.3538 88.2894 58.9594 87.9542C58.5847 87.619 58.3087 87.0668 58.1312 86.2977C57.9734 85.5089 57.8945 84.4046 57.8945 82.9848V82.0974L57.7762 80.0564H57.6579C57.1846 82.1664 56.4747 84.1187 55.5281 85.9132C54.6013 87.7077 53.3787 88.605 51.8602 88.605C51.1898 88.605 50.6869 88.4472 50.3517 88.1317C50.0362 87.7964 49.8291 87.3527 49.7305 86.8006C49.6516 86.2484 49.6122 85.4892 49.6122 84.5229V76.2997C49.6122 75.9645 49.5432 75.7082 49.4051 75.5307C49.2671 75.3335 49.0797 75.2349 48.8431 75.2349C48.3698 75.2349 47.867 75.5898 47.3345 76.2997L46.8317 75.7377C47.1669 75.0081 47.5909 74.4559 48.1036 74.0813C48.6163 73.7066 49.06 73.4699 49.4347 73.3713C49.8291 73.2727 50.0855 73.2234 50.2038 73.2234C51.2687 73.2234 52.0279 73.5192 52.4814 74.1108C52.935 74.6827 53.1618 75.4124 53.1618 76.2997V84.1976C53.1618 84.5525 53.2012 84.8286 53.2801 85.0258C53.3787 85.223 53.497 85.3216 53.635 85.3216C54.345 85.3216 55.0056 84.6117 55.6169 83.1918C56.2282 81.7523 56.7212 80.1254 57.0959 78.3112C57.4706 76.4772 57.6579 75.1461 57.6579 74.3179L61.385 73.0755V85.4991ZM69.5897 70.3542L67.7261 70.9458L66.5134 64.7636L70.625 63.3734L69.5897 70.3542ZM70.5362 85.5287C70.5362 85.8245 70.6052 86.0611 70.7433 86.2386C70.8813 86.4161 71.0687 86.5048 71.3053 86.5048C71.7983 86.5048 72.3011 86.1597 72.8139 85.4695L73.3463 86.0315C72.9125 86.8203 72.3504 87.4218 71.6603 87.8359C70.9898 88.25 70.3193 88.4571 69.6488 88.4571C67.8543 88.4571 66.9571 87.4218 66.9571 85.3512V74.7024L70.5362 73.4601V85.5287ZM88.2109 85.4103C88.2109 85.6864 88.27 85.9329 88.3883 86.1498C88.5264 86.347 88.7236 86.4456 88.9799 86.4456C89.2363 86.4456 89.4927 86.3372 89.749 86.1203C90.0251 85.9033 90.2321 85.6667 90.3702 85.4103L91.0209 85.9724C90.666 86.6625 90.173 87.2541 89.542 87.7471C88.9306 88.2204 88.27 88.4571 87.5601 88.4571C86.5347 88.4571 85.7952 88.181 85.3416 87.6288C84.8881 87.0569 84.6711 86.1893 84.6909 85.0258H84.543C84.0894 86.0512 83.4978 86.909 82.7682 87.5992C82.0385 88.2697 81.161 88.605 80.1356 88.605C79.051 88.605 78.1241 88.3289 77.3551 87.7767C76.586 87.2246 76.0042 86.4851 75.6098 85.5582C75.2155 84.6117 75.0183 83.5665 75.0183 82.4228C75.0183 80.9635 75.3141 79.5338 75.9056 78.1337C76.517 76.7139 77.3945 75.5504 78.5383 74.6433C79.682 73.7362 81.0131 73.2826 82.5315 73.2826C83.3006 73.2826 84.0007 73.4699 84.6317 73.8446V62.1606L88.2109 60.9182V85.4103ZM82.4724 75.1757C81.5258 75.1757 80.737 75.5011 80.106 76.1518C79.4947 76.7829 79.0411 77.5717 78.7453 78.5182C78.4495 79.4451 78.3016 80.362 78.3016 81.2692C78.3016 82.4918 78.5383 83.6553 79.0115 84.7596C79.5045 85.8639 80.2736 86.4161 81.3188 86.4161C82.5808 86.4161 83.4485 85.7752 83.9218 84.4934C84.3951 83.1918 84.6317 81.7819 84.6317 80.2634V76.1518C83.9809 75.5011 83.2612 75.1757 82.4724 75.1757ZM101.276 73.1939C102.42 73.1939 103.377 73.4897 104.146 74.0813C104.915 74.6531 105.299 75.4912 105.299 76.5955C105.299 77.4829 104.816 78.4788 103.85 79.5831C102.903 80.6677 101.769 81.6833 100.448 82.6298C99.1466 83.5567 98.0324 84.2271 97.1056 84.6413C97.9338 85.9625 99.1466 86.6231 100.744 86.6231C101.631 86.6231 102.519 86.3766 103.406 85.8836C104.313 85.3709 105.082 84.7004 105.713 83.8722L106.305 84.5821C105.28 85.8639 104.195 86.8597 103.051 87.5697C101.927 88.2599 100.586 88.605 99.0283 88.605C97.7662 88.605 96.6323 88.319 95.6266 87.7471C94.6406 87.1753 93.8617 86.3963 93.2898 85.4103C92.7377 84.4046 92.4616 83.2806 92.4616 82.0382C92.4616 80.5395 92.8658 79.1098 93.6743 77.7492C94.5026 76.3688 95.597 75.2645 96.9577 74.4362C98.3184 73.608 99.7579 73.1939 101.276 73.1939ZM99.5903 75.1166C98.841 75.1166 98.1705 75.3926 97.5789 75.9448C96.9873 76.4772 96.5239 77.1674 96.1886 78.0154C95.8534 78.8633 95.6858 79.7409 95.6858 80.648C95.6858 81.8312 95.9421 82.8468 96.4549 83.6947C97.1845 83.2806 97.9536 82.7087 98.7621 81.9791C99.5903 81.2297 100.281 80.4311 100.833 79.5831C101.385 78.7352 101.661 77.9661 101.661 77.2759C101.661 76.5857 101.474 76.0532 101.099 75.6786C100.744 75.3039 100.241 75.1166 99.5903 75.1166ZM128.945 66.775C128.254 67.761 127.347 68.5794 126.223 69.2302C125.099 69.8809 123.965 70.2063 122.822 70.2063C122.447 70.6796 122.171 71.1331 121.993 71.567C121.836 72.0008 121.757 72.5037 121.757 73.0755V82.6298C121.757 84.0497 121.441 85.2427 120.81 86.209C120.199 87.1753 119.242 88.0627 117.941 88.8712L117.32 88.1613C117.832 87.5105 118.089 86.5541 118.089 85.292V74.7912C118.089 73.9629 118.345 73.1643 118.858 72.3952C119.39 71.6064 120.041 70.8768 120.81 70.2063L116.876 70.1767C116.206 70.1767 115.594 70.3246 115.042 70.6204C114.49 70.9162 113.967 71.3698 113.474 71.9811L112.824 71.3599C113.75 70.1373 114.697 69.171 115.663 68.4611C116.649 67.7512 117.763 67.3962 119.006 67.3962H123.384C124.33 67.3962 125.287 67.3173 126.253 67.1596C127.219 66.9821 127.949 66.6764 128.442 66.2426L128.945 66.775ZM131.031 70.3542L129.168 70.9458L127.955 64.7636L132.067 63.3734L131.031 70.3542ZM131.978 85.5287C131.978 85.8245 132.047 86.0611 132.185 86.2386C132.323 86.4161 132.51 86.5048 132.747 86.5048C133.24 86.5048 133.743 86.1597 134.256 85.4695L134.788 86.0315C134.354 86.8203 133.792 87.4218 133.102 87.8359C132.431 88.25 131.761 88.4571 131.091 88.4571C129.296 88.4571 128.399 87.4218 128.399 85.3512V74.7024L131.978 73.4601V85.5287ZM141.37 75.4124V85.5287C141.37 85.8047 141.449 86.0414 141.607 86.2386C141.765 86.4161 141.972 86.5048 142.228 86.5048C142.701 86.5048 143.234 86.1597 143.825 85.4695L144.358 86.0315C144.003 86.7414 143.559 87.2739 143.027 87.6288C142.494 87.9838 141.982 88.2204 141.489 88.3387C140.996 88.4571 140.749 88.4965 140.749 88.4571C138.777 88.4571 137.791 87.4218 137.791 85.3512V75.4124H135.691L136.608 73.4601H137.791V66.7455L141.37 65.5327V73.4601H145.245L144.358 75.4124H141.37ZM151.39 85.5287C151.39 85.785 151.449 86.0118 151.567 86.209C151.705 86.4062 151.912 86.5048 152.188 86.5048C152.464 86.5048 152.74 86.3963 153.017 86.1794C153.312 85.9625 153.549 85.7259 153.726 85.4695L154.259 86.0315C153.924 86.702 153.431 87.2739 152.78 87.7471C152.149 88.2204 151.469 88.4571 150.739 88.4571C148.826 88.4571 147.87 87.4218 147.87 85.3512V62.1606L151.39 60.8887V85.5287ZM164.596 73.1939C165.739 73.1939 166.696 73.4897 167.465 74.0813C168.234 74.6531 168.619 75.4912 168.619 76.5955C168.619 77.4829 168.135 78.4788 167.169 79.5831C166.223 80.6677 165.089 81.6833 163.767 82.6298C162.466 83.5567 161.352 84.2271 160.425 84.6413C161.253 85.9625 162.466 86.6231 164.063 86.6231C164.951 86.6231 165.838 86.3766 166.725 85.8836C167.633 85.3709 168.402 84.7004 169.033 83.8722L169.624 84.5821C168.599 85.8639 167.514 86.8597 166.37 87.5697C165.246 88.2599 163.905 88.605 162.348 88.605C161.086 88.605 159.952 88.319 158.946 87.7471C157.96 87.1753 157.181 86.3963 156.609 85.4103C156.057 84.4046 155.781 83.2806 155.781 82.0382C155.781 80.5395 156.185 79.1098 156.994 77.7492C157.822 76.3688 158.916 75.2645 160.277 74.4362C161.638 73.608 163.077 73.1939 164.596 73.1939ZM162.91 75.1166C162.16 75.1166 161.49 75.3926 160.898 75.9448C160.307 76.4772 159.843 77.1674 159.508 78.0154C159.173 78.8633 159.005 79.7409 159.005 80.648C159.005 81.8312 159.261 82.8468 159.774 83.6947C160.504 83.2806 161.273 82.7087 162.081 81.9791C162.91 81.2297 163.6 80.4311 164.152 79.5831C164.704 78.7352 164.98 77.9661 164.98 77.2759C164.98 76.5857 164.793 76.0532 164.418 75.6786C164.063 75.3039 163.56 75.1166 162.91 75.1166ZM184.683 67.0413C186.773 67.0413 188.45 67.6033 189.712 68.7273C190.974 69.8513 191.605 71.3895 191.605 73.3418C191.605 75.018 191.141 76.5561 190.215 77.9562C189.307 79.3366 188.282 80.4902 187.138 81.4171C185.995 82.3242 184.476 83.4285 182.583 84.73L182.701 84.8779C183.411 84.6018 184.161 84.4638 184.949 84.4638C185.403 84.4638 185.837 84.5032 186.251 84.5821C186.685 84.661 186.951 84.7103 187.05 84.73C187.996 84.9272 188.755 85.0258 189.327 85.0258C190.017 85.0258 190.609 84.8483 191.102 84.4934C191.595 84.1384 192.058 83.6454 192.492 83.0144L193.202 83.5468L190.658 88.5162C189.613 88.4373 188.312 88.2796 186.754 88.0429C185.649 87.8655 184.703 87.7373 183.914 87.6584C183.145 87.5795 182.346 87.5401 181.518 87.5401C180.118 87.5401 178.964 87.8655 178.057 88.5162L177.288 87.7767C177.781 87.3232 178.304 86.8597 178.856 86.3865C180.611 84.8483 182.07 83.4876 183.234 82.3045C184.417 81.1015 185.433 79.7902 186.28 78.3703C187.148 76.9308 187.582 75.5011 187.582 74.0813C187.582 72.7206 187.178 71.6261 186.369 70.7979C185.58 69.9499 184.525 69.526 183.204 69.526C182.238 69.526 181.291 69.7725 180.365 70.2655C179.457 70.7585 178.678 71.4191 178.028 72.2473L177.199 71.5374C178.028 70.3148 179.132 69.2597 180.512 68.3724C181.913 67.485 183.303 67.0413 184.683 67.0413Z" fill="white"/>
<path d="M79.9662 116.732C79.9084 116.555 79.8322 116.397 79.7377 116.257C79.6449 116.115 79.5337 115.994 79.4042 115.894C79.2764 115.795 79.1311 115.719 78.9683 115.666C78.8054 115.614 78.6269 115.587 78.4325 115.587C78.1139 115.587 77.8242 115.67 77.5633 115.834C77.3025 115.999 77.095 116.241 76.9409 116.562C76.7869 116.882 76.7099 117.275 76.7099 117.741C76.7099 118.206 76.7878 118.599 76.9436 118.92C77.0994 119.24 77.3103 119.483 77.5764 119.647C77.8426 119.812 78.1419 119.894 78.4746 119.894C78.7827 119.894 79.054 119.828 79.2886 119.697C79.525 119.564 79.7088 119.377 79.8401 119.135C79.9732 118.892 80.0397 118.605 80.0397 118.276L80.2393 118.318H78.6216V117.741H80.6699V118.318C80.6699 118.761 80.5754 119.146 80.3863 119.474C80.199 119.801 79.9399 120.055 79.609 120.235C79.2799 120.414 78.9017 120.503 78.4746 120.503C77.9984 120.503 77.58 120.391 77.2193 120.167C76.8604 119.943 76.5803 119.624 76.379 119.211C76.1794 118.798 76.0796 118.308 76.0796 117.741C76.0796 117.315 76.1365 116.933 76.2503 116.593C76.3658 116.252 76.5287 115.961 76.7387 115.721C76.9488 115.481 77.1974 115.298 77.4845 115.17C77.7717 115.042 78.0877 114.978 78.4325 114.978C78.7162 114.978 78.9805 115.021 79.2256 115.107C79.4725 115.191 79.6922 115.311 79.8847 115.466C80.0791 115.621 80.241 115.805 80.3706 116.021C80.5001 116.234 80.5894 116.471 80.6384 116.732H79.9662ZM84.2433 118.781V116.396H84.8631V120.43H84.2433V119.747H84.2013C84.1068 119.952 83.9597 120.126 83.7601 120.269C83.5606 120.411 83.3085 120.482 83.0038 120.482C82.7517 120.482 82.5276 120.427 82.3316 120.317C82.1355 120.205 81.9814 120.037 81.8694 119.813C81.7573 119.587 81.7013 119.302 81.7013 118.959V116.396H82.3211V118.917C82.3211 119.211 82.4033 119.446 82.5679 119.621C82.7342 119.796 82.9461 119.883 83.2034 119.883C83.3575 119.883 83.5142 119.844 83.6735 119.765C83.8345 119.687 83.9693 119.566 84.0779 119.403C84.1882 119.24 84.2433 119.033 84.2433 118.781ZM85.9982 120.43V116.396H86.6179V120.43H85.9982ZM86.3133 115.724C86.1925 115.724 86.0884 115.683 86.0008 115.6C85.915 115.518 85.8721 115.419 85.8721 115.304C85.8721 115.188 85.915 115.089 86.0008 115.007C86.0884 114.925 86.1925 114.883 86.3133 114.883C86.4341 114.883 86.5374 114.925 86.6232 115.007C86.7107 115.089 86.7545 115.188 86.7545 115.304C86.7545 115.419 86.7107 115.518 86.6232 115.6C86.5374 115.683 86.4341 115.724 86.3133 115.724ZM89.2762 120.514C88.94 120.514 88.6433 120.429 88.3859 120.259C88.1286 120.087 87.9272 119.846 87.7819 119.534C87.6366 119.221 87.564 118.851 87.564 118.423C87.564 118 87.6366 117.632 87.7819 117.32C87.9272 117.009 88.1294 116.768 88.3886 116.598C88.6477 116.428 88.947 116.344 89.2867 116.344C89.5493 116.344 89.7567 116.387 89.909 116.475C90.0631 116.561 90.1804 116.659 90.2609 116.769C90.3432 116.878 90.4071 116.967 90.4526 117.037H90.5051V115.052H91.1249V120.43H90.5262V119.81H90.4526C90.4071 119.883 90.3423 119.976 90.2583 120.088C90.1743 120.199 90.0543 120.298 89.8985 120.385C89.7427 120.471 89.5353 120.514 89.2762 120.514ZM89.3602 119.957C89.6088 119.957 89.8189 119.892 89.9904 119.763C90.162 119.631 90.2924 119.45 90.3817 119.219C90.471 118.986 90.5157 118.718 90.5157 118.413C90.5157 118.112 90.4719 117.848 90.3844 117.622C90.2968 117.395 90.1673 117.218 89.9957 117.092C89.8241 116.964 89.6123 116.9 89.3602 116.9C89.0976 116.9 88.8787 116.968 88.7037 117.102C88.5304 117.236 88.3999 117.417 88.3124 117.646C88.2266 117.874 88.1837 118.129 88.1837 118.413C88.1837 118.7 88.2275 118.961 88.315 119.195C88.4043 119.428 88.5356 119.614 88.7089 119.752C88.884 119.889 89.1011 119.957 89.3602 119.957ZM94.0372 120.514C93.6485 120.514 93.3133 120.428 93.0314 120.256C92.7513 120.083 92.5351 119.841 92.3828 119.532C92.2322 119.22 92.1569 118.858 92.1569 118.444C92.1569 118.031 92.2322 117.667 92.3828 117.352C92.5351 117.035 92.7469 116.788 93.0183 116.611C93.2914 116.433 93.61 116.344 93.9742 116.344C94.1842 116.344 94.3917 116.379 94.5965 116.449C94.8014 116.519 94.9878 116.632 95.1559 116.79C95.324 116.946 95.4579 117.152 95.5577 117.41C95.6575 117.667 95.7074 117.984 95.7074 118.36V118.623H92.5981V118.087H95.0771C95.0771 117.86 95.0316 117.657 94.9406 117.478C94.8513 117.299 94.7235 117.159 94.5571 117.055C94.3926 116.952 94.1983 116.9 93.9742 116.9C93.7273 116.9 93.5137 116.962 93.3334 117.084C93.1548 117.205 93.0174 117.362 92.9211 117.557C92.8248 117.751 92.7767 117.959 92.7767 118.182V118.539C92.7767 118.844 92.8292 119.102 92.9342 119.314C93.041 119.524 93.189 119.684 93.3781 119.794C93.5671 119.903 93.7868 119.957 94.0372 119.957C94.2 119.957 94.3471 119.934 94.4784 119.889C94.6114 119.841 94.7261 119.771 94.8224 119.679C94.9187 119.584 94.9931 119.467 95.0456 119.327L95.6443 119.495C95.5813 119.698 95.4754 119.876 95.3266 120.031C95.1778 120.183 94.9939 120.302 94.7751 120.388C94.5563 120.472 94.3103 120.514 94.0372 120.514ZM100.474 120.43H98.814V115.052H100.547C101.069 115.052 101.515 115.159 101.886 115.375C102.258 115.588 102.542 115.895 102.74 116.296C102.938 116.695 103.037 117.173 103.037 117.73C103.037 118.29 102.937 118.773 102.737 119.177C102.538 119.58 102.247 119.89 101.865 120.107C101.484 120.322 101.02 120.43 100.474 120.43ZM99.4652 119.852H100.432C100.876 119.852 101.245 119.766 101.537 119.595C101.83 119.423 102.048 119.179 102.191 118.862C102.335 118.545 102.406 118.168 102.406 117.73C102.406 117.296 102.336 116.922 102.194 116.609C102.052 116.294 101.84 116.052 101.558 115.884C101.276 115.714 100.925 115.629 100.505 115.629H99.4652V119.852ZM105.736 120.514C105.348 120.514 105.012 120.428 104.73 120.256C104.45 120.083 104.234 119.841 104.082 119.532C103.931 119.22 103.856 118.858 103.856 118.444C103.856 118.031 103.931 117.667 104.082 117.352C104.234 117.035 104.446 116.788 104.717 116.611C104.99 116.433 105.309 116.344 105.673 116.344C105.883 116.344 106.091 116.379 106.296 116.449C106.5 116.519 106.687 116.632 106.855 116.79C107.023 116.946 107.157 117.152 107.257 117.41C107.357 117.667 107.406 117.984 107.406 118.36V118.623H104.297V118.087H106.776C106.776 117.86 106.731 117.657 106.64 117.478C106.55 117.299 106.423 117.159 106.256 117.055C106.092 116.952 105.897 116.9 105.673 116.9C105.426 116.9 105.213 116.962 105.032 117.084C104.854 117.205 104.716 117.362 104.62 117.557C104.524 117.751 104.476 117.959 104.476 118.182V118.539C104.476 118.844 104.528 119.102 104.633 119.314C104.74 119.524 104.888 119.684 105.077 119.794C105.266 119.903 105.486 119.957 105.736 119.957C105.899 119.957 106.046 119.934 106.177 119.889C106.31 119.841 106.425 119.771 106.521 119.679C106.618 119.584 106.692 119.467 106.745 119.327L107.343 119.495C107.28 119.698 107.174 119.876 107.026 120.031C106.877 120.183 106.693 120.302 106.474 120.388C106.255 120.472 106.009 120.514 105.736 120.514ZM111.206 117.299L110.65 117.457C110.615 117.364 110.563 117.274 110.495 117.187C110.428 117.097 110.337 117.024 110.222 116.966C110.106 116.908 109.958 116.879 109.778 116.879C109.531 116.879 109.325 116.936 109.161 117.05C108.998 117.162 108.916 117.305 108.916 117.478C108.916 117.632 108.972 117.754 109.084 117.843C109.197 117.932 109.372 118.007 109.61 118.066L110.208 118.213C110.569 118.301 110.838 118.435 111.015 118.615C111.191 118.794 111.28 119.024 111.28 119.306C111.28 119.537 111.213 119.743 111.08 119.925C110.949 120.108 110.765 120.251 110.529 120.356C110.292 120.461 110.018 120.514 109.704 120.514C109.293 120.514 108.952 120.424 108.683 120.246C108.413 120.067 108.242 119.806 108.171 119.463L108.759 119.316C108.815 119.533 108.921 119.696 109.077 119.805C109.234 119.913 109.44 119.968 109.694 119.968C109.983 119.968 110.212 119.906 110.382 119.784C110.553 119.659 110.639 119.511 110.639 119.337C110.639 119.197 110.59 119.08 110.492 118.985C110.394 118.889 110.243 118.817 110.04 118.77L109.368 118.612C108.999 118.525 108.727 118.389 108.554 118.205C108.382 118.02 108.297 117.788 108.297 117.51C108.297 117.282 108.361 117.081 108.488 116.906C108.618 116.73 108.794 116.593 109.016 116.493C109.24 116.393 109.494 116.344 109.778 116.344C110.177 116.344 110.49 116.431 110.718 116.606C110.947 116.781 111.11 117.012 111.206 117.299ZM113.851 120.514C113.473 120.514 113.148 120.424 112.875 120.246C112.601 120.067 112.391 119.821 112.244 119.508C112.097 119.195 112.024 118.837 112.024 118.434C112.024 118.024 112.099 117.663 112.25 117.349C112.402 117.034 112.614 116.788 112.885 116.611C113.158 116.433 113.477 116.344 113.841 116.344C114.125 116.344 114.38 116.396 114.608 116.501C114.835 116.606 115.022 116.753 115.167 116.942C115.312 117.131 115.403 117.352 115.438 117.604H114.818C114.771 117.42 114.665 117.257 114.503 117.116C114.342 116.972 114.125 116.9 113.851 116.9C113.61 116.9 113.398 116.963 113.216 117.089C113.036 117.214 112.895 117.39 112.793 117.617C112.693 117.843 112.643 118.108 112.643 118.413C112.643 118.725 112.692 118.996 112.79 119.227C112.89 119.458 113.03 119.637 113.211 119.765C113.393 119.893 113.606 119.957 113.851 119.957C114.012 119.957 114.159 119.929 114.29 119.873C114.421 119.817 114.532 119.736 114.623 119.631C114.714 119.526 114.779 119.4 114.818 119.253H115.438C115.403 119.491 115.316 119.706 115.178 119.897C115.041 120.086 114.86 120.236 114.634 120.348C114.41 120.459 114.149 120.514 113.851 120.514ZM116.344 120.43V116.396H116.942V117.005H116.984C117.058 116.806 117.191 116.644 117.383 116.519C117.576 116.395 117.793 116.333 118.035 116.333C118.08 116.333 118.137 116.334 118.205 116.336C118.274 116.337 118.325 116.34 118.36 116.344V116.974C118.339 116.969 118.291 116.961 118.216 116.95C118.142 116.938 118.064 116.932 117.982 116.932C117.786 116.932 117.611 116.973 117.457 117.055C117.305 117.136 117.184 117.248 117.095 117.391C117.007 117.533 116.963 117.695 116.963 117.877V120.43H116.344ZM119.095 120.43V116.396H119.715V120.43H119.095ZM119.41 115.724C119.289 115.724 119.185 115.683 119.098 115.6C119.012 115.518 118.969 115.419 118.969 115.304C118.969 115.188 119.012 115.089 119.098 115.007C119.185 114.925 119.289 114.883 119.41 114.883C119.531 114.883 119.634 114.925 119.72 115.007C119.808 115.089 119.851 115.188 119.851 115.304C119.851 115.419 119.808 115.518 119.72 115.6C119.634 115.683 119.531 115.724 119.41 115.724ZM120.85 121.942V116.396H121.449V117.037H121.522C121.568 116.967 121.631 116.878 121.711 116.769C121.793 116.659 121.911 116.561 122.063 116.475C122.217 116.387 122.425 116.344 122.688 116.344C123.028 116.344 123.327 116.428 123.586 116.598C123.845 116.768 124.047 117.009 124.193 117.32C124.338 117.632 124.411 118 124.411 118.423C124.411 118.851 124.338 119.221 124.193 119.534C124.047 119.846 123.846 120.087 123.589 120.259C123.331 120.429 123.035 120.514 122.699 120.514C122.439 120.514 122.232 120.471 122.076 120.385C121.92 120.298 121.8 120.199 121.716 120.088C121.632 119.976 121.568 119.883 121.522 119.81H121.47V121.942H120.85ZM121.459 118.413C121.459 118.718 121.504 118.986 121.593 119.219C121.682 119.45 121.813 119.631 121.984 119.763C122.156 119.892 122.366 119.957 122.615 119.957C122.874 119.957 123.09 119.889 123.263 119.752C123.438 119.614 123.57 119.428 123.657 119.195C123.746 118.961 123.791 118.7 123.791 118.413C123.791 118.129 123.747 117.874 123.66 117.646C123.574 117.417 123.443 117.236 123.268 117.102C123.095 116.968 122.877 116.9 122.615 116.9C122.362 116.9 122.151 116.964 121.979 117.092C121.807 117.218 121.678 117.395 121.59 117.622C121.503 117.848 121.459 118.112 121.459 118.413ZM127.11 116.396V116.921H125.02V116.396H127.11ZM125.629 115.43H126.249V119.274C126.249 119.449 126.274 119.581 126.325 119.668C126.378 119.754 126.444 119.812 126.525 119.841C126.607 119.869 126.694 119.883 126.785 119.883C126.853 119.883 126.909 119.88 126.953 119.873C126.997 119.864 127.032 119.857 127.058 119.852L127.184 120.409C127.142 120.424 127.083 120.44 127.008 120.456C126.933 120.473 126.837 120.482 126.722 120.482C126.547 120.482 126.375 120.445 126.207 120.369C126.041 120.294 125.902 120.179 125.792 120.025C125.684 119.871 125.629 119.677 125.629 119.442V115.43ZM128.043 120.43V116.396H128.662V120.43H128.043ZM128.358 115.724C128.237 115.724 128.133 115.683 128.045 115.6C127.959 115.518 127.917 115.419 127.917 115.304C127.917 115.188 127.959 115.089 128.045 115.007C128.133 114.925 128.237 114.883 128.358 114.883C128.478 114.883 128.582 114.925 128.668 115.007C128.755 115.089 128.799 115.188 128.799 115.304C128.799 115.419 128.755 115.518 128.668 115.6C128.582 115.683 128.478 115.724 128.358 115.724ZM131.436 120.514C131.072 120.514 130.752 120.427 130.478 120.254C130.204 120.08 129.991 119.838 129.837 119.526C129.685 119.215 129.608 118.851 129.608 118.434C129.608 118.014 129.685 117.647 129.837 117.334C129.991 117.02 130.204 116.777 130.478 116.604C130.752 116.43 131.072 116.344 131.436 116.344C131.8 116.344 132.119 116.43 132.392 116.604C132.667 116.777 132.88 117.02 133.033 117.334C133.187 117.647 133.264 118.014 133.264 118.434C133.264 118.851 133.187 119.215 133.033 119.526C132.88 119.838 132.667 120.08 132.392 120.254C132.119 120.427 131.8 120.514 131.436 120.514ZM131.436 119.957C131.713 119.957 131.94 119.886 132.119 119.744C132.297 119.602 132.43 119.416 132.515 119.185C132.601 118.954 132.644 118.703 132.644 118.434C132.644 118.164 132.601 117.913 132.515 117.68C132.43 117.447 132.297 117.259 132.119 117.116C131.94 116.972 131.713 116.9 131.436 116.9C131.159 116.9 130.932 116.972 130.753 117.116C130.575 117.259 130.443 117.447 130.357 117.68C130.271 117.913 130.228 118.164 130.228 118.434C130.228 118.703 130.271 118.954 130.357 119.185C130.443 119.416 130.575 119.602 130.753 119.744C130.932 119.886 131.159 119.957 131.436 119.957ZM134.83 118.003V120.43H134.21V116.396H134.809V117.026H134.861C134.956 116.821 135.099 116.657 135.292 116.533C135.484 116.407 135.733 116.344 136.038 116.344C136.311 116.344 136.55 116.4 136.754 116.512C136.959 116.622 137.119 116.79 137.232 117.016C137.346 117.24 137.403 117.524 137.403 117.867V120.43H136.783V117.909C136.783 117.592 136.701 117.345 136.537 117.168C136.372 116.99 136.146 116.9 135.859 116.9C135.661 116.9 135.484 116.943 135.329 117.029C135.174 117.115 135.053 117.24 134.964 117.404C134.874 117.569 134.83 117.769 134.83 118.003Z" fill="white"/>
<path d="M117.173 30.9011C117.148 31.0664 117.009 31.1821 116.864 31.1597C116.719 31.1373 116.623 30.9851 116.648 30.8198C116.674 30.6546 116.812 30.5388 116.957 30.5612C117.102 30.5836 117.199 30.7358 117.173 30.9011Z" fill="white"/>
<path d="M117.722 29.9404C117.697 30.1056 117.558 30.2214 117.413 30.199C117.268 30.1765 117.172 30.0244 117.197 29.8591C117.223 29.6938 117.361 29.578 117.506 29.6005C117.651 29.6229 117.748 29.7751 117.722 29.9404Z" fill="white"/>
<path d="M118.18 28.9797C118.154 29.1449 118.016 29.2607 117.871 29.2383C117.726 29.2158 117.629 29.0637 117.655 28.8984C117.68 28.7331 117.819 28.6173 117.963 28.6398C118.108 28.6622 118.205 28.8144 118.18 28.9797Z" fill="white"/>
<path d="M118.5 27.9274C118.474 28.0927 118.336 28.2085 118.191 28.1861C118.046 28.1636 117.949 28.0115 117.975 27.8462C118 27.6809 118.139 27.5651 118.284 27.5876C118.429 27.61 118.525 27.7622 118.5 27.9274Z" fill="white"/>
<path d="M118.729 26.8752C118.703 27.0405 118.565 27.1563 118.42 27.1338C118.275 27.1114 118.178 26.9592 118.204 26.794C118.229 26.6287 118.367 26.5129 118.512 26.5353C118.657 26.5578 118.754 26.71 118.729 26.8752Z" fill="white"/>
<path d="M118.82 25.823C118.795 25.9883 118.656 26.1041 118.511 26.0816C118.366 26.0592 118.27 25.907 118.295 25.7418C118.321 25.5765 118.459 25.4607 118.604 25.4831C118.749 25.5056 118.846 25.6577 118.82 25.823Z" fill="white"/>
<path d="M118.866 24.7251C118.84 24.8903 118.702 25.0061 118.557 24.9837C118.412 24.9612 118.315 24.8091 118.341 24.6438C118.366 24.4785 118.505 24.3627 118.65 24.3852C118.795 24.4076 118.891 24.5598 118.866 24.7251Z" fill="white"/>
<path d="M118.774 23.6728C118.749 23.8381 118.611 23.9539 118.466 23.9315C118.321 23.909 118.224 23.7569 118.249 23.5916C118.275 23.4263 118.413 23.3105 118.558 23.333C118.703 23.3554 118.8 23.5076 118.774 23.6728Z" fill="white"/>
<path d="M118.546 22.6664C118.52 22.8317 118.382 22.9474 118.237 22.925C118.092 22.9026 117.995 22.7504 118.021 22.5851C118.046 22.4198 118.185 22.3041 118.329 22.3265C118.474 22.3489 118.571 22.5011 118.546 22.6664Z" fill="white"/>
<path d="M118.225 21.6599C118.2 21.8252 118.062 21.941 117.917 21.9185C117.772 21.8961 117.675 21.7439 117.7 21.5787C117.726 21.4134 117.864 21.2976 118.009 21.32C118.154 21.3425 118.251 21.4946 118.225 21.6599Z" fill="white"/>
<path d="M117.814 20.7449C117.788 20.9102 117.65 21.026 117.505 21.0036C117.36 20.9811 117.263 20.829 117.289 20.6637C117.314 20.4984 117.453 20.3826 117.598 20.4051C117.742 20.4275 117.839 20.5797 117.814 20.7449Z" fill="white"/>
<path d="M117.31 19.8757C117.285 20.041 117.147 20.1568 117.002 20.1343C116.857 20.1119 116.76 19.9597 116.785 19.7945C116.811 19.6292 116.949 19.5134 117.094 19.5358C117.239 19.5583 117.336 19.7105 117.31 19.8757Z" fill="white"/>
<path d="M116.716 19.098C116.69 19.2633 116.552 19.3791 116.407 19.3566C116.262 19.3342 116.165 19.182 116.191 19.0167C116.216 18.8515 116.355 18.7357 116.5 18.7581C116.645 18.7806 116.741 18.9327 116.716 19.098Z" fill="white"/>
<path d="M116.03 18.4118C116.004 18.5771 115.866 18.6928 115.721 18.6704C115.576 18.648 115.479 18.4958 115.504 18.3305C115.53 18.1652 115.668 18.0495 115.813 18.0719C115.958 18.0943 116.055 18.2465 116.03 18.4118Z" fill="white"/>
<path d="M115.252 17.8171C115.226 17.9823 115.088 18.0981 114.943 18.0757C114.798 18.0532 114.701 17.9011 114.727 17.7358C114.752 17.5705 114.891 17.4547 115.036 17.4772C115.181 17.4996 115.277 17.6518 115.252 17.8171Z" fill="white"/>
<path d="M114.428 17.3138C114.403 17.4791 114.264 17.5949 114.119 17.5724C113.975 17.55 113.878 17.3978 113.903 17.2326C113.929 17.0673 114.067 16.9515 114.212 16.9739C114.357 16.9964 114.454 17.1485 114.428 17.3138Z" fill="white"/>
<path d="M113.559 16.9478C113.534 17.1131 113.395 17.2289 113.25 17.2065C113.105 17.184 113.009 17.0318 113.034 16.8666C113.06 16.7013 113.198 16.5855 113.343 16.608C113.488 16.6304 113.585 16.7826 113.559 16.9478Z" fill="white"/>
<path d="M112.644 16.7191C112.619 16.8844 112.48 17.0001 112.335 16.9777C112.19 16.9553 112.094 16.8031 112.119 16.6378C112.145 16.4726 112.283 16.3568 112.428 16.3792C112.573 16.4016 112.67 16.5538 112.644 16.7191Z" fill="white"/>
<path d="M111.683 16.5818C111.658 16.7471 111.52 16.8629 111.375 16.8405C111.23 16.818 111.133 16.6659 111.158 16.5006C111.184 16.3353 111.322 16.2195 111.467 16.242C111.612 16.2644 111.709 16.4166 111.683 16.5818Z" fill="white"/>
<path d="M110.723 16.5818C110.697 16.7471 110.559 16.8629 110.414 16.8405C110.269 16.818 110.172 16.6659 110.198 16.5006C110.223 16.3353 110.362 16.2195 110.507 16.242C110.651 16.2644 110.748 16.4166 110.723 16.5818Z" fill="white"/>
<path d="M109.808 16.6733C109.782 16.8386 109.644 16.9544 109.499 16.932C109.354 16.9095 109.257 16.7574 109.283 16.5921C109.308 16.4268 109.447 16.311 109.592 16.3335C109.737 16.3559 109.833 16.5081 109.808 16.6733Z" fill="white"/>
<path d="M108.847 16.9021C108.821 17.0674 108.683 17.1831 108.538 17.1607C108.393 17.1383 108.296 16.9861 108.322 16.8208C108.348 16.6556 108.486 16.5398 108.631 16.5622C108.776 16.5846 108.873 16.7368 108.847 16.9021Z" fill="white"/>
<path d="M107.932 17.2681C107.906 17.4333 107.768 17.5491 107.623 17.5267C107.478 17.5042 107.381 17.3521 107.407 17.1868C107.433 17.0215 107.571 16.9057 107.716 16.9282C107.861 16.9506 107.958 17.1028 107.932 17.2681Z" fill="white"/>
<path d="M107.063 17.7256C107.037 17.8908 106.899 18.0066 106.754 17.9842C106.609 17.9617 106.512 17.8096 106.538 17.6443C106.563 17.479 106.702 17.3632 106.847 17.3857C106.992 17.4081 107.088 17.5603 107.063 17.7256Z" fill="white"/>
<path d="M106.194 18.3203C106.168 18.4856 106.03 18.6013 105.885 18.5789C105.74 18.5565 105.643 18.4043 105.669 18.239C105.694 18.0737 105.832 17.958 105.977 17.9804C106.122 18.0028 106.219 18.155 106.194 18.3203Z" fill="white"/>
<path d="M105.462 19.0065C105.436 19.1718 105.298 19.2876 105.153 19.2651C105.008 19.2427 104.911 19.0905 104.937 18.9252C104.962 18.76 105.1 18.6442 105.245 18.6666C105.39 18.6891 105.487 18.8412 105.462 19.0065Z" fill="white"/>
<path d="M104.73 19.7842C104.704 19.9495 104.566 20.0653 104.421 20.0429C104.276 20.0204 104.179 19.8682 104.205 19.703C104.23 19.5377 104.368 19.4219 104.513 19.4444C104.658 19.4668 104.755 19.619 104.73 19.7842Z" fill="white"/>
<path d="M104.089 20.6535C104.064 20.8187 103.925 20.9345 103.78 20.9121C103.635 20.8896 103.539 20.7375 103.564 20.5722C103.59 20.4069 103.728 20.2911 103.873 20.3136C104.018 20.336 104.115 20.4882 104.089 20.6535Z" fill="white"/>
<path d="M103.586 21.6142C103.56 21.7794 103.422 21.8952 103.277 21.8728C103.132 21.8503 103.035 21.6982 103.061 21.5329C103.087 21.3676 103.225 21.2518 103.37 21.2743C103.515 21.2967 103.612 21.4489 103.586 21.6142Z" fill="white"/>
<path d="M103.174 22.5749C103.149 22.7402 103.01 22.8559 102.865 22.8335C102.72 22.8111 102.624 22.6589 102.649 22.4936C102.675 22.3283 102.813 22.2126 102.958 22.235C103.103 22.2574 103.2 22.4096 103.174 22.5749Z" fill="white"/>
<path d="M102.808 23.5813C102.783 23.7466 102.644 23.8624 102.499 23.84C102.354 23.8175 102.258 23.6654 102.283 23.5001C102.309 23.3348 102.447 23.219 102.592 23.2415C102.737 23.2639 102.834 23.4161 102.808 23.5813Z" fill="white"/>
<path d="M102.579 24.6336C102.554 24.7988 102.416 24.9146 102.271 24.8922C102.126 24.8697 102.029 24.7176 102.054 24.5523C102.08 24.387 102.218 24.2712 102.363 24.2937C102.508 24.3161 102.605 24.4683 102.579 24.6336Z" fill="white"/>
<path d="M102.442 25.7315C102.417 25.8968 102.278 26.0126 102.133 25.9901C101.988 25.9677 101.892 25.8155 101.917 25.6503C101.943 25.485 102.081 25.3692 102.226 25.3916C102.371 25.4141 102.468 25.5662 102.442 25.7315Z" fill="white"/>
<path d="M102.442 26.8295C102.417 26.9948 102.278 27.1105 102.133 27.0881C101.988 27.0657 101.892 26.9135 101.917 26.7482C101.943 26.5829 102.081 26.4672 102.226 26.4896C102.371 26.512 102.468 26.6642 102.442 26.8295Z" fill="white"/>
<path d="M102.534 27.8817C102.508 28.047 102.37 28.1628 102.225 28.1403C102.08 28.1179 101.983 27.9657 102.009 27.8004C102.034 27.6352 102.173 27.5194 102.318 27.5418C102.463 27.5643 102.559 27.7164 102.534 27.8817Z" fill="white"/>
<path d="M102.762 28.9339C102.737 29.0992 102.599 29.215 102.454 29.1925C102.309 29.1701 102.212 29.0179 102.237 28.8526C102.263 28.6874 102.401 28.5716 102.546 28.594C102.691 28.6165 102.788 28.7686 102.762 28.9339Z" fill="white"/>
<path d="M103.083 29.8489C103.057 30.0141 102.919 30.1299 102.774 30.1075C102.629 30.0851 102.532 29.9329 102.558 29.7676C102.583 29.6023 102.722 29.4866 102.867 29.509C103.012 29.5314 103.108 29.6836 103.083 29.8489Z" fill="white"/>
<path d="M103.494 30.8096C103.469 30.9749 103.331 31.0907 103.186 31.0682C103.041 31.0458 102.944 30.8936 102.969 30.7283C102.995 30.5631 103.133 30.4473 103.278 30.4697C103.423 30.4921 103.52 30.6443 103.494 30.8096Z" fill="white"/>
<path d="M103.998 31.6788C103.972 31.8441 103.834 31.9599 103.689 31.9374C103.544 31.915 103.447 31.7628 103.473 31.5975C103.498 31.4323 103.637 31.3165 103.781 31.3389C103.926 31.3614 104.023 31.5135 103.998 31.6788Z" fill="white"/>
<path d="M104.592 32.4565C104.567 32.6218 104.429 32.7376 104.284 32.7152C104.139 32.6927 104.042 32.5405 104.067 32.3753C104.093 32.21 104.231 32.0942 104.376 32.1166C104.521 32.1391 104.618 32.2913 104.592 32.4565Z" fill="white"/>
<path d="M105.324 33.1428C105.299 33.308 105.161 33.4238 105.016 33.4014C104.871 33.3789 104.774 33.2268 104.799 33.0615C104.825 32.8962 104.963 32.7804 105.108 32.8029C105.253 32.8253 105.35 32.9775 105.324 33.1428Z" fill="white"/>
<path d="M106.056 33.7375C106.031 33.9028 105.893 34.0185 105.748 33.9961C105.603 33.9737 105.506 33.8215 105.531 33.6562C105.557 33.491 105.695 33.3752 105.84 33.3976C105.985 33.42 106.082 33.5722 106.056 33.7375Z" fill="white"/>
<path d="M106.88 34.2407C106.854 34.406 106.716 34.5218 106.571 34.4993C106.426 34.4769 106.329 34.3247 106.355 34.1595C106.38 33.9942 106.519 33.8784 106.664 33.9008C106.809 33.9233 106.905 34.0754 106.88 34.2407Z" fill="white"/>
<path d="M107.749 34.6067C107.723 34.772 107.585 34.8878 107.44 34.8653C107.295 34.8429 107.198 34.6907 107.224 34.5254C107.25 34.3602 107.388 34.2444 107.533 34.2668C107.678 34.2893 107.775 34.4414 107.749 34.6067Z" fill="white"/>
<path d="M108.664 34.8354C108.638 35.0007 108.5 35.1165 108.355 35.0941C108.21 35.0716 108.113 34.9195 108.139 34.7542C108.165 34.5889 108.303 34.4731 108.448 34.4956C108.593 34.518 108.69 34.6702 108.664 34.8354Z" fill="white"/>
<path d="M109.625 34.9727C109.599 35.138 109.461 35.2538 109.316 35.2313C109.171 35.2089 109.074 35.0567 109.1 34.8914C109.125 34.7262 109.264 34.6104 109.409 34.6328C109.554 34.6553 109.65 34.8074 109.625 34.9727Z" fill="white"/>
<path d="M110.54 34.9727C110.514 35.138 110.376 35.2538 110.231 35.2313C110.086 35.2089 109.989 35.0567 110.015 34.8914C110.04 34.7262 110.179 34.6104 110.324 34.6328C110.468 34.6553 110.565 34.8074 110.54 34.9727Z" fill="white"/>
<path d="M111.5 34.8812C111.475 35.0465 111.337 35.1623 111.192 35.1398C111.047 35.1174 110.95 34.9652 110.975 34.7999C111.001 34.6347 111.139 34.5189 111.284 34.5413C111.429 34.5638 111.526 34.7159 111.5 34.8812Z" fill="white"/>
<path d="M112.461 34.6525C112.436 34.8177 112.297 34.9335 112.152 34.9111C112.007 34.8886 111.911 34.7365 111.936 34.5712C111.962 34.4059 112.1 34.2901 112.245 34.3126C112.39 34.335 112.487 34.4872 112.461 34.6525Z" fill="white"/>
<path d="M113.376 34.2865C113.351 34.4517 113.212 34.5675 113.067 34.5451C112.922 34.5226 112.826 34.3705 112.851 34.2052C112.877 34.0399 113.015 33.9241 113.16 33.9466C113.305 33.969 113.402 34.1212 113.376 34.2865Z" fill="white"/>
<path d="M114.245 33.7832C114.22 33.9485 114.081 34.0643 113.936 34.0419C113.792 34.0194 113.695 33.8672 113.72 33.702C113.746 33.5367 113.884 33.4209 114.029 33.4434C114.174 33.4658 114.271 33.618 114.245 33.7832Z" fill="white"/>
<path d="M115.069 33.1885C115.043 33.3538 114.905 33.4696 114.76 33.4471C114.615 33.4247 114.518 33.2725 114.544 33.1072C114.569 32.942 114.708 32.8262 114.853 32.8486C114.998 32.8711 115.094 33.0232 115.069 33.1885Z" fill="white"/>
<path d="M115.847 32.5023C115.821 32.6676 115.683 32.7833 115.538 32.7609C115.393 32.7385 115.296 32.5863 115.322 32.421C115.347 32.2557 115.485 32.14 115.63 32.1624C115.775 32.1848 115.872 32.337 115.847 32.5023Z" fill="white"/>
<path d="M116.578 31.7703C116.553 31.9356 116.415 32.0514 116.27 32.0289C116.125 32.0065 116.028 31.8543 116.053 31.689C116.079 31.5238 116.217 31.408 116.362 31.4304C116.507 31.4529 116.604 31.605 116.578 31.7703Z" fill="white"/>
<path d="M107.681 35.8045C107.681 36.0193 107.507 36.1934 107.292 36.1934C107.077 36.1934 106.903 36.0193 106.903 35.8045C106.903 35.5898 107.077 35.4157 107.292 35.4157C107.507 35.4157 107.681 35.5898 107.681 35.8045Z" fill="white"/>
<path d="M108.962 36.079C108.962 36.2938 108.788 36.4679 108.573 36.4679C108.358 36.4679 108.184 36.2938 108.184 36.079C108.184 35.8642 108.358 35.6901 108.573 35.6901C108.788 35.6901 108.962 35.8642 108.962 36.079Z" fill="white"/>
<path d="M110.243 36.2162C110.243 36.431 110.069 36.6051 109.854 36.6051C109.639 36.6051 109.465 36.431 109.465 36.2162C109.465 36.0015 109.639 35.8274 109.854 35.8274C110.069 35.8274 110.243 36.0015 110.243 36.2162Z" fill="white"/>
<path d="M111.615 36.2162C111.615 36.431 111.441 36.6051 111.226 36.6051C111.012 36.6051 110.838 36.431 110.838 36.2162C110.838 36.0015 111.012 35.8274 111.226 35.8274C111.441 35.8274 111.615 36.0015 111.615 36.2162Z" fill="white"/>
<path d="M112.896 36.079C112.896 36.2938 112.722 36.4679 112.507 36.4679C112.293 36.4679 112.119 36.2938 112.119 36.079C112.119 35.8642 112.293 35.6901 112.507 35.6901C112.722 35.6901 112.896 35.8642 112.896 36.079Z" fill="white"/>
<path d="M114.177 35.8045C114.177 36.0193 114.003 36.1934 113.788 36.1934C113.574 36.1934 113.4 36.0193 113.4 35.8045C113.4 35.5898 113.574 35.4157 113.788 35.4157C114.003 35.4157 114.177 35.5898 114.177 35.8045Z" fill="white"/>
<path d="M115.412 35.3013C115.412 35.516 115.238 35.6901 115.024 35.6901C114.809 35.6901 114.635 35.516 114.635 35.3013C114.635 35.0865 114.809 34.9124 115.024 34.9124C115.238 34.9124 115.412 35.0865 115.412 35.3013Z" fill="white"/>
<path d="M116.602 34.7523C116.602 34.9671 116.428 35.1412 116.213 35.1412C115.998 35.1412 115.824 34.9671 115.824 34.7523C115.824 34.5375 115.998 34.3634 116.213 34.3634C116.428 34.3634 116.602 34.5375 116.602 34.7523Z" fill="white"/>
<path d="M117.7 33.9746C117.7 34.1893 117.526 34.3634 117.311 34.3634C117.096 34.3634 116.922 34.1893 116.922 33.9746C116.922 33.7598 117.096 33.5857 117.311 33.5857C117.526 33.5857 117.7 33.7598 117.7 33.9746Z" fill="white"/>
<path d="M118.706 33.1969C118.706 33.4116 118.532 33.5857 118.317 33.5857C118.103 33.5857 117.929 33.4116 117.929 33.1969C117.929 32.9821 118.103 32.808 118.317 32.808C118.532 32.808 118.706 32.9821 118.706 33.1969Z" fill="white"/>
<path d="M119.621 32.1904C119.621 32.4052 119.447 32.5793 119.232 32.5793C119.018 32.5793 118.844 32.4052 118.844 32.1904C118.844 31.9756 119.018 31.8015 119.232 31.8015C119.447 31.8015 119.621 31.9756 119.621 32.1904Z" fill="white"/>
<path d="M120.399 31.1382C120.399 31.3529 120.225 31.527 120.01 31.527C119.795 31.527 119.621 31.3529 119.621 31.1382C119.621 30.9234 119.795 30.7493 120.01 30.7493C120.225 30.7493 120.399 30.9234 120.399 31.1382Z" fill="white"/>
<path d="M121.04 29.9945C121.04 30.2092 120.865 30.3833 120.651 30.3833C120.436 30.3833 120.262 30.2092 120.262 29.9945C120.262 29.7797 120.436 29.6056 120.651 29.6056C120.865 29.6056 121.04 29.7797 121.04 29.9945Z" fill="white"/>
<path d="M121.589 28.805C121.589 29.0198 121.414 29.1939 121.2 29.1939C120.985 29.1939 120.811 29.0198 120.811 28.805C120.811 28.5902 120.985 28.4162 121.2 28.4162C121.414 28.4162 121.589 28.5902 121.589 28.805Z" fill="white"/>
<path d="M121.954 27.5698C121.954 27.7846 121.78 27.9587 121.566 27.9587C121.351 27.9587 121.177 27.7846 121.177 27.5698C121.177 27.355 121.351 27.1809 121.566 27.1809C121.78 27.1809 121.954 27.355 121.954 27.5698Z" fill="white"/>
<path d="M122.183 26.2431C122.183 26.4579 122.009 26.632 121.794 26.632C121.58 26.632 121.406 26.4579 121.406 26.2431C121.406 26.0283 121.58 25.8542 121.794 25.8542C122.009 25.8542 122.183 26.0283 122.183 26.2431Z" fill="white"/>
<path d="M122.183 24.9164C122.183 25.1312 122.009 25.3053 121.794 25.3053C121.58 25.3053 121.406 25.1312 121.406 24.9164C121.406 24.7016 121.58 24.5275 121.794 24.5275C122.009 24.5275 122.183 24.7016 122.183 24.9164Z" fill="white"/>
<path d="M122.183 23.5897C122.183 23.8045 122.009 23.9786 121.794 23.9786C121.58 23.9786 121.406 23.8045 121.406 23.5897C121.406 23.3749 121.58 23.2008 121.794 23.2008C122.009 23.2008 122.183 23.3749 122.183 23.5897Z" fill="white"/>
<path d="M121.954 22.3545C121.954 22.5693 121.78 22.7434 121.566 22.7434C121.351 22.7434 121.177 22.5693 121.177 22.3545C121.177 22.1397 121.351 21.9656 121.566 21.9656C121.78 21.9656 121.954 22.1397 121.954 22.3545Z" fill="white"/>
<path d="M121.589 21.0278C121.589 21.2425 121.414 21.4166 121.2 21.4166C120.985 21.4166 120.811 21.2425 120.811 21.0278C120.811 20.813 120.985 20.6389 121.2 20.6389C121.414 20.6389 121.589 20.813 121.589 21.0278Z" fill="white"/>
<path d="M121.04 19.8841C121.04 20.0988 120.865 20.2729 120.651 20.2729C120.436 20.2729 120.262 20.0988 120.262 19.8841C120.262 19.6693 120.436 19.4952 120.651 19.4952C120.865 19.4952 121.04 19.6693 121.04 19.8841Z" fill="white"/>
<path d="M120.399 18.7404C120.399 18.9551 120.225 19.1292 120.01 19.1292C119.795 19.1292 119.621 18.9551 119.621 18.7404C119.621 18.5256 119.795 18.3515 120.01 18.3515C120.225 18.3515 120.399 18.5256 120.399 18.7404Z" fill="white"/>
<path d="M119.621 17.7339C119.621 17.9487 119.447 18.1228 119.232 18.1228C119.018 18.1228 118.844 17.9487 118.844 17.7339C118.844 17.5191 119.018 17.345 119.232 17.345C119.447 17.345 119.621 17.5191 119.621 17.7339Z" fill="white"/>
<path d="M118.661 16.6817C118.661 16.8965 118.487 17.0706 118.272 17.0706C118.057 17.0706 117.883 16.8965 117.883 16.6817C117.883 16.4669 118.057 16.2928 118.272 16.2928C118.487 16.2928 118.661 16.4669 118.661 16.6817Z" fill="white"/>
<path d="M117.7 15.904C117.7 16.1187 117.526 16.2928 117.311 16.2928C117.096 16.2928 116.922 16.1187 116.922 15.904C116.922 15.6892 117.096 15.5151 117.311 15.5151C117.526 15.5151 117.7 15.6892 117.7 15.904Z" fill="white"/>
<path d="M116.602 15.1262C116.602 15.341 116.428 15.5151 116.213 15.5151C115.998 15.5151 115.824 15.341 115.824 15.1262C115.824 14.9115 115.998 14.7374 116.213 14.7374C116.428 14.7374 116.602 14.9115 116.602 15.1262Z" fill="white"/>
<path d="M115.458 14.5773C115.458 14.792 115.284 14.9661 115.069 14.9661C114.855 14.9661 114.681 14.792 114.681 14.5773C114.681 14.3625 114.855 14.1884 115.069 14.1884C115.284 14.1884 115.458 14.3625 115.458 14.5773Z" fill="white"/>
<path d="M114.177 14.074C114.177 14.2888 114.003 14.4629 113.788 14.4629C113.574 14.4629 113.4 14.2888 113.4 14.074C113.4 13.8593 113.574 13.6852 113.788 13.6852C114.003 13.6852 114.177 13.8593 114.177 14.074Z" fill="white"/>
<path d="M112.942 13.7995C112.942 14.0143 112.768 14.1884 112.553 14.1884C112.338 14.1884 112.164 14.0143 112.164 13.7995C112.164 13.5848 112.338 13.4107 112.553 13.4107C112.768 13.4107 112.942 13.5848 112.942 13.7995Z" fill="white"/>
<path d="M111.57 13.6623C111.57 13.8771 111.396 14.0512 111.181 14.0512C110.966 14.0512 110.792 13.8771 110.792 13.6623C110.792 13.4475 110.966 13.2734 111.181 13.2734C111.396 13.2734 111.57 13.4475 111.57 13.6623Z" fill="white"/>
<path d="M110.334 13.6623C110.334 13.8771 110.16 14.0512 109.946 14.0512C109.731 14.0512 109.557 13.8771 109.557 13.6623C109.557 13.4475 109.731 13.2734 109.946 13.2734C110.16 13.2734 110.334 13.4475 110.334 13.6623Z" fill="white"/>
<path d="M108.962 13.7995C108.962 14.0143 108.788 14.1884 108.573 14.1884C108.358 14.1884 108.184 14.0143 108.184 13.7995C108.184 13.5848 108.358 13.4107 108.573 13.4107C108.788 13.4107 108.962 13.5848 108.962 13.7995Z" fill="white"/>
<path d="M107.681 14.074C107.681 14.2888 107.507 14.4629 107.292 14.4629C107.077 14.4629 106.903 14.2888 106.903 14.074C106.903 13.8593 107.077 13.6852 107.292 13.6852C107.507 13.6852 107.681 13.8593 107.681 14.074Z" fill="white"/>
<path d="M106.492 14.5773C106.492 14.792 106.317 14.9661 106.103 14.9661C105.888 14.9661 105.714 14.792 105.714 14.5773C105.714 14.3625 105.888 14.1884 106.103 14.1884C106.317 14.1884 106.492 14.3625 106.492 14.5773Z" fill="white"/>
<path d="M105.256 15.172C105.256 15.3868 105.082 15.5609 104.867 15.5609C104.653 15.5609 104.479 15.3868 104.479 15.172C104.479 14.9572 104.653 14.7831 104.867 14.7831C105.082 14.7831 105.256 14.9572 105.256 15.172Z" fill="white"/>
<path d="M104.158 15.8582C104.158 16.073 103.984 16.2471 103.77 16.2471C103.555 16.2471 103.381 16.073 103.381 15.8582C103.381 15.6435 103.555 15.4694 103.77 15.4694C103.984 15.4694 104.158 15.6435 104.158 15.8582Z" fill="white"/>
<path d="M103.152 16.7274C103.152 16.9422 102.978 17.1163 102.763 17.1163C102.548 17.1163 102.374 16.9422 102.374 16.7274C102.374 16.5127 102.548 16.3386 102.763 16.3386C102.978 16.3386 103.152 16.5127 103.152 16.7274Z" fill="white"/>
<path d="M102.283 17.6882C102.283 17.9029 102.109 18.077 101.894 18.077C101.679 18.077 101.505 17.9029 101.505 17.6882C101.505 17.4734 101.679 17.2993 101.894 17.2993C102.109 17.2993 102.283 17.4734 102.283 17.6882Z" fill="white"/>
<path d="M101.505 18.7404C101.505 18.9551 101.331 19.1292 101.116 19.1292C100.901 19.1292 100.727 18.9551 100.727 18.7404C100.727 18.5256 100.901 18.3515 101.116 18.3515C101.331 18.3515 101.505 18.5256 101.505 18.7404Z" fill="white"/>
<path d="M100.819 19.8841C100.819 20.0988 100.645 20.2729 100.43 20.2729C100.215 20.2729 100.041 20.0988 100.041 19.8841C100.041 19.6693 100.215 19.4952 100.43 19.4952C100.645 19.4952 100.819 19.6693 100.819 19.8841Z" fill="white"/>
<path d="M100.27 21.0735C100.27 21.2883 100.096 21.4624 99.8809 21.4624C99.6661 21.4624 99.492 21.2883 99.492 21.0735C99.492 20.8588 99.6661 20.6847 99.8809 20.6847C100.096 20.6847 100.27 20.8588 100.27 21.0735Z" fill="white"/>
<path d="M99.9038 22.3087C99.9038 22.5235 99.7297 22.6976 99.5149 22.6976C99.3002 22.6976 99.1261 22.5235 99.1261 22.3087C99.1261 22.094 99.3002 21.9199 99.5149 21.9199C99.7297 21.9199 99.9038 22.094 99.9038 22.3087Z" fill="white"/>
<path d="M99.7208 23.6812C99.7208 23.896 99.5467 24.0701 99.3319 24.0701C99.1172 24.0701 98.9431 23.896 98.9431 23.6812C98.9431 23.4664 99.1172 23.2923 99.3319 23.2923C99.5467 23.2923 99.7208 23.4664 99.7208 23.6812Z" fill="white"/>
<path d="M99.6293 25.0079C99.6293 25.2227 99.4552 25.3968 99.2404 25.3968C99.0257 25.3968 98.8516 25.2227 98.8516 25.0079C98.8516 24.7931 99.0257 24.619 99.2404 24.619C99.4552 24.619 99.6293 24.7931 99.6293 25.0079Z" fill="white"/>
<path d="M99.7208 26.2431C99.7208 26.4579 99.5467 26.632 99.3319 26.632C99.1172 26.632 98.9431 26.4579 98.9431 26.2431C98.9431 26.0283 99.1172 25.8542 99.3319 25.8542C99.5467 25.8542 99.7208 26.0283 99.7208 26.2431Z" fill="white"/>
<path d="M99.9038 27.5698C99.9038 27.7846 99.7297 27.9587 99.5149 27.9587C99.3002 27.9587 99.1261 27.7846 99.1261 27.5698C99.1261 27.355 99.3002 27.1809 99.5149 27.1809C99.7297 27.1809 99.9038 27.355 99.9038 27.5698Z" fill="white"/>
<path d="M100.316 28.805C100.316 29.0198 100.141 29.1939 99.9266 29.1939C99.7119 29.1939 99.5378 29.0198 99.5378 28.805C99.5378 28.5902 99.7119 28.4162 99.9266 28.4162C100.141 28.4162 100.316 28.5902 100.316 28.805Z" fill="white"/>
<path d="M100.819 29.9945C100.819 30.2092 100.645 30.3833 100.43 30.3833C100.215 30.3833 100.041 30.2092 100.041 29.9945C100.041 29.7797 100.215 29.6056 100.43 29.6056C100.645 29.6056 100.819 29.7797 100.819 29.9945Z" fill="white"/>
<path d="M101.505 31.1382C101.505 31.3529 101.331 31.527 101.116 31.527C100.901 31.527 100.727 31.3529 100.727 31.1382C100.727 30.9234 100.901 30.7493 101.116 30.7493C101.331 30.7493 101.505 30.9234 101.505 31.1382Z" fill="white"/>
<path d="M102.283 32.1904C102.283 32.4052 102.109 32.5793 101.894 32.5793C101.679 32.5793 101.505 32.4052 101.505 32.1904C101.505 31.9756 101.679 31.8015 101.894 31.8015C102.109 31.8015 102.283 31.9756 102.283 32.1904Z" fill="white"/>
<path d="M103.198 33.1969C103.198 33.4116 103.024 33.5857 102.809 33.5857C102.594 33.5857 102.42 33.4116 102.42 33.1969C102.42 32.9821 102.594 32.808 102.809 32.808C103.024 32.808 103.198 32.9821 103.198 33.1969Z" fill="white"/>
<path d="M104.158 33.9746C104.158 34.1893 103.984 34.3634 103.77 34.3634C103.555 34.3634 103.381 34.1893 103.381 33.9746C103.381 33.7598 103.555 33.5857 103.77 33.5857C103.984 33.5857 104.158 33.7598 104.158 33.9746Z" fill="white"/>
<path d="M105.256 34.7523C105.256 34.9671 105.082 35.1412 104.867 35.1412C104.653 35.1412 104.479 34.9671 104.479 34.7523C104.479 34.5375 104.653 34.3634 104.867 34.3634C105.082 34.3634 105.256 34.5375 105.256 34.7523Z" fill="white"/>
<path d="M106.492 35.3013C106.492 35.516 106.317 35.6901 106.103 35.6901C105.888 35.6901 105.714 35.516 105.714 35.3013C105.714 35.0865 105.888 34.9124 106.103 34.9124C106.317 34.9124 106.492 35.0865 106.492 35.3013Z" fill="white"/>
<path d="M105.394 23.7727C105.394 23.8864 105.301 23.9786 105.188 23.9786C105.074 23.9786 104.982 23.8864 104.982 23.7727C104.982 23.659 105.074 23.5668 105.188 23.5668C105.301 23.5668 105.394 23.659 105.394 23.7727Z" fill="white"/>
<path d="M105.668 23.1322C105.668 23.2459 105.576 23.3381 105.462 23.3381C105.349 23.3381 105.256 23.2459 105.256 23.1322C105.256 23.0185 105.349 22.9263 105.462 22.9263C105.576 22.9263 105.668 23.0185 105.668 23.1322Z" fill="white"/>
<path d="M106.08 22.5375C106.08 22.6512 105.988 22.7434 105.874 22.7434C105.76 22.7434 105.668 22.6512 105.668 22.5375C105.668 22.4238 105.76 22.3316 105.874 22.3316C105.988 22.3316 106.08 22.4238 106.08 22.5375Z" fill="white"/>
<path d="M106.492 21.9885C106.492 22.1022 106.399 22.1944 106.286 22.1944C106.172 22.1944 106.08 22.1022 106.08 21.9885C106.08 21.8748 106.172 21.7826 106.286 21.7826C106.399 21.7826 106.492 21.8748 106.492 21.9885Z" fill="white"/>
<path d="M106.995 21.531C106.995 21.6447 106.903 21.7369 106.789 21.7369C106.675 21.7369 106.583 21.6447 106.583 21.531C106.583 21.4173 106.675 21.3252 106.789 21.3252C106.903 21.3252 106.995 21.4173 106.995 21.531Z" fill="white"/>
<path d="M107.544 21.1193C107.544 21.233 107.452 21.3252 107.338 21.3252C107.224 21.3252 107.132 21.233 107.132 21.1193C107.132 21.0056 107.224 20.9134 107.338 20.9134C107.452 20.9134 107.544 21.0056 107.544 21.1193Z" fill="white"/>
<path d="M108.184 20.7533C108.184 20.867 108.092 20.9592 107.978 20.9592C107.865 20.9592 107.772 20.867 107.772 20.7533C107.772 20.6396 107.865 20.5474 107.978 20.5474C108.092 20.5474 108.184 20.6396 108.184 20.7533Z" fill="white"/>
<path d="M108.825 20.5246C108.825 20.6383 108.733 20.7304 108.619 20.7304C108.505 20.7304 108.413 20.6383 108.413 20.5246C108.413 20.4109 108.505 20.3187 108.619 20.3187C108.733 20.3187 108.825 20.4109 108.825 20.5246Z" fill="white"/>
<path d="M109.465 20.3416C109.465 20.4553 109.373 20.5474 109.259 20.5474C109.146 20.5474 109.053 20.4553 109.053 20.3416C109.053 20.2279 109.146 20.1357 109.259 20.1357C109.373 20.1357 109.465 20.2279 109.465 20.3416Z" fill="white"/>
<path d="M110.197 20.2501C110.197 20.3638 110.105 20.4559 109.991 20.4559C109.878 20.4559 109.785 20.3638 109.785 20.2501C109.785 20.1364 109.878 20.0442 109.991 20.0442C110.105 20.0442 110.197 20.1364 110.197 20.2501Z" fill="white"/>
<path d="M110.883 20.2043C110.883 20.318 110.791 20.4102 110.678 20.4102C110.564 20.4102 110.472 20.318 110.472 20.2043C110.472 20.0906 110.564 19.9984 110.678 19.9984C110.791 19.9984 110.883 20.0906 110.883 20.2043Z" fill="white"/>
<path d="M111.57 20.2958C111.57 20.4095 111.477 20.5017 111.364 20.5017C111.25 20.5017 111.158 20.4095 111.158 20.2958C111.158 20.1821 111.25 20.0899 111.364 20.0899C111.477 20.0899 111.57 20.1821 111.57 20.2958Z" fill="white"/>
<path d="M112.256 20.4331C112.256 20.5468 112.164 20.6389 112.05 20.6389C111.936 20.6389 111.844 20.5468 111.844 20.4331C111.844 20.3194 111.936 20.2272 112.05 20.2272C112.164 20.2272 112.256 20.3194 112.256 20.4331Z" fill="white"/>
<path d="M112.942 20.6618C112.942 20.7755 112.85 20.8677 112.736 20.8677C112.622 20.8677 112.53 20.7755 112.53 20.6618C112.53 20.5481 112.622 20.4559 112.736 20.4559C112.85 20.4559 112.942 20.5481 112.942 20.6618Z" fill="white"/>
<path d="M113.583 21.0278C113.583 21.1415 113.49 21.2337 113.377 21.2337C113.263 21.2337 113.171 21.1415 113.171 21.0278C113.171 20.9141 113.263 20.8219 113.377 20.8219C113.49 20.8219 113.583 20.9141 113.583 21.0278Z" fill="white"/>
<path d="M114.177 21.3938C114.177 21.5075 114.085 21.5996 113.971 21.5996C113.858 21.5996 113.766 21.5075 113.766 21.3938C113.766 21.2801 113.858 21.1879 113.971 21.1879C114.085 21.1879 114.177 21.2801 114.177 21.3938Z" fill="white"/>
<path d="M114.772 21.8513C114.772 21.965 114.68 22.0571 114.566 22.0571C114.452 22.0571 114.36 21.965 114.36 21.8513C114.36 21.7376 114.452 21.6454 114.566 21.6454C114.68 21.6454 114.772 21.7376 114.772 21.8513Z" fill="white"/>
<path d="M115.275 22.3545C115.275 22.4682 115.183 22.5604 115.069 22.5604C114.956 22.5604 114.863 22.4682 114.863 22.3545C114.863 22.2408 114.956 22.1486 115.069 22.1486C115.183 22.1486 115.275 22.2408 115.275 22.3545Z" fill="white"/>
<path d="M115.733 22.9492C115.733 23.0629 115.641 23.1551 115.527 23.1551C115.413 23.1551 115.321 23.0629 115.321 22.9492C115.321 22.8355 115.413 22.7434 115.527 22.7434C115.641 22.7434 115.733 22.8355 115.733 22.9492Z" fill="white"/>
<path d="M116.144 23.5897C116.144 23.7034 116.052 23.7956 115.939 23.7956C115.825 23.7956 115.733 23.7034 115.733 23.5897C115.733 23.476 115.825 23.3838 115.939 23.3838C116.052 23.3838 116.144 23.476 116.144 23.5897Z" fill="white"/>
<path d="M116.465 24.2302C116.465 24.3439 116.373 24.436 116.259 24.436C116.145 24.436 116.053 24.3439 116.053 24.2302C116.053 24.1165 116.145 24.0243 116.259 24.0243C116.373 24.0243 116.465 24.1165 116.465 24.2302Z" fill="white"/>
<path d="M116.693 24.9164C116.693 25.0301 116.601 25.1223 116.488 25.1223C116.374 25.1223 116.282 25.0301 116.282 24.9164C116.282 24.8027 116.374 24.7105 116.488 24.7105C116.601 24.7105 116.693 24.8027 116.693 24.9164Z" fill="white"/>
<path d="M116.876 25.6484C116.876 25.7621 116.784 25.8542 116.671 25.8542C116.557 25.8542 116.465 25.7621 116.465 25.6484C116.465 25.5347 116.557 25.4425 116.671 25.4425C116.784 25.4425 116.876 25.5347 116.876 25.6484Z" fill="white"/>
<path d="M116.968 26.3803C116.968 26.494 116.876 26.5862 116.762 26.5862C116.648 26.5862 116.556 26.494 116.556 26.3803C116.556 26.2666 116.648 26.1745 116.762 26.1745C116.876 26.1745 116.968 26.2666 116.968 26.3803Z" fill="white"/>
<path d="M116.968 27.1123C116.968 27.226 116.876 27.3182 116.762 27.3182C116.648 27.3182 116.556 27.226 116.556 27.1123C116.556 26.9986 116.648 26.9065 116.762 26.9065C116.876 26.9065 116.968 26.9986 116.968 27.1123Z" fill="white"/>
<path d="M116.922 27.8443C116.922 27.958 116.83 28.0502 116.716 28.0502C116.603 28.0502 116.51 27.958 116.51 27.8443C116.51 27.7306 116.603 27.6384 116.716 27.6384C116.83 27.6384 116.922 27.7306 116.922 27.8443Z" fill="white"/>
<path d="M116.739 28.5305C116.739 28.6442 116.647 28.7364 116.533 28.7364C116.42 28.7364 116.327 28.6442 116.327 28.5305C116.327 28.4168 116.42 28.3247 116.533 28.3247C116.647 28.3247 116.739 28.4168 116.739 28.5305Z" fill="white"/>
<path d="M116.51 29.2167C116.51 29.3304 116.418 29.4226 116.305 29.4226C116.191 29.4226 116.099 29.3304 116.099 29.2167C116.099 29.103 116.191 29.0109 116.305 29.0109C116.418 29.0109 116.51 29.103 116.51 29.2167Z" fill="white"/>
<path d="M116.19 29.8572C116.19 29.9709 116.098 30.0631 115.984 30.0631C115.871 30.0631 115.778 29.9709 115.778 29.8572C115.778 29.7435 115.871 29.6514 115.984 29.6514C116.098 29.6514 116.19 29.7435 116.19 29.8572Z" fill="white"/>
<path d="M115.824 30.452C115.824 30.5657 115.732 30.6578 115.618 30.6578C115.505 30.6578 115.412 30.5657 115.412 30.452C115.412 30.3383 115.505 30.2461 115.618 30.2461C115.732 30.2461 115.824 30.3383 115.824 30.452Z" fill="white"/>
<path d="M115.412 31.0009C115.412 31.1146 115.32 31.2068 115.207 31.2068C115.093 31.2068 115.001 31.1146 115.001 31.0009C115.001 30.8872 115.093 30.7951 115.207 30.7951C115.32 30.7951 115.412 30.8872 115.412 31.0009Z" fill="white"/>
<path d="M114.909 31.4584C114.909 31.5721 114.817 31.6643 114.703 31.6643C114.59 31.6643 114.498 31.5721 114.498 31.4584C114.498 31.3447 114.59 31.2526 114.703 31.2526C114.817 31.2526 114.909 31.3447 114.909 31.4584Z" fill="white"/>
<path d="M114.36 31.8702C114.36 31.9839 114.268 32.076 114.154 32.076C114.041 32.076 113.949 31.9839 113.949 31.8702C113.949 31.7565 114.041 31.6643 114.154 31.6643C114.268 31.6643 114.36 31.7565 114.36 31.8702Z" fill="white"/>
<path d="M113.72 32.2361C113.72 32.3498 113.628 32.442 113.514 32.442C113.4 32.442 113.308 32.3498 113.308 32.2361C113.308 32.1224 113.4 32.0303 113.514 32.0303C113.628 32.0303 113.72 32.1224 113.72 32.2361Z" fill="white"/>
<path d="M113.079 32.4649C113.079 32.5786 112.987 32.6707 112.873 32.6707C112.76 32.6707 112.668 32.5786 112.668 32.4649C112.668 32.3512 112.76 32.259 112.873 32.259C112.987 32.259 113.079 32.3512 113.079 32.4649Z" fill="white"/>
<path d="M112.439 32.6479C112.439 32.7616 112.347 32.8537 112.233 32.8537C112.119 32.8537 112.027 32.7616 112.027 32.6479C112.027 32.5342 112.119 32.442 112.233 32.442C112.347 32.442 112.439 32.5342 112.439 32.6479Z" fill="white"/>
<path d="M111.021 32.7851C111.021 32.8988 110.928 32.991 110.815 32.991C110.701 32.991 110.609 32.8988 110.609 32.7851C110.609 32.6714 110.701 32.5793 110.815 32.5793C110.928 32.5793 111.021 32.6714 111.021 32.7851Z" fill="white"/>
<path d="M110.334 32.6936C110.334 32.8073 110.242 32.8995 110.129 32.8995C110.015 32.8995 109.923 32.8073 109.923 32.6936C109.923 32.5799 110.015 32.4878 110.129 32.4878C110.242 32.4878 110.334 32.5799 110.334 32.6936Z" fill="white"/>
<path d="M109.648 32.5564C109.648 32.6701 109.556 32.7622 109.442 32.7622C109.329 32.7622 109.236 32.6701 109.236 32.5564C109.236 32.4427 109.329 32.3505 109.442 32.3505C109.556 32.3505 109.648 32.4427 109.648 32.5564Z" fill="white"/>
<path d="M108.962 32.2819C108.962 32.3956 108.87 32.4878 108.756 32.4878C108.642 32.4878 108.55 32.3956 108.55 32.2819C108.55 32.1682 108.642 32.076 108.756 32.076C108.87 32.076 108.962 32.1682 108.962 32.2819Z" fill="white"/>
<path d="M108.321 31.9616C108.321 32.0753 108.229 32.1675 108.116 32.1675C108.002 32.1675 107.91 32.0753 107.91 31.9616C107.91 31.848 108.002 31.7558 108.116 31.7558C108.229 31.7558 108.321 31.848 108.321 31.9616Z" fill="white"/>
<path d="M107.681 31.5957C107.681 31.7094 107.589 31.8015 107.475 31.8015C107.361 31.8015 107.269 31.7094 107.269 31.5957C107.269 31.482 107.361 31.3898 107.475 31.3898C107.589 31.3898 107.681 31.482 107.681 31.5957Z" fill="white"/>
<path d="M107.132 31.1382C107.132 31.2519 107.04 31.344 106.926 31.344C106.812 31.344 106.72 31.2519 106.72 31.1382C106.72 31.0245 106.812 30.9323 106.926 30.9323C107.04 30.9323 107.132 31.0245 107.132 31.1382Z" fill="white"/>
<path d="M106.629 30.5892C106.629 30.7029 106.537 30.7951 106.423 30.7951C106.309 30.7951 106.217 30.7029 106.217 30.5892C106.217 30.4755 106.309 30.3833 106.423 30.3833C106.537 30.3833 106.629 30.4755 106.629 30.5892Z" fill="white"/>
<path d="M106.171 30.0402C106.171 30.1539 106.079 30.2461 105.965 30.2461C105.852 30.2461 105.76 30.1539 105.76 30.0402C105.76 29.9265 105.852 29.8343 105.965 29.8343C106.079 29.8343 106.171 29.9265 106.171 30.0402Z" fill="white"/>
<path d="M105.76 29.3997C105.76 29.5134 105.667 29.6056 105.554 29.6056C105.44 29.6056 105.348 29.5134 105.348 29.3997C105.348 29.286 105.44 29.1939 105.554 29.1939C105.667 29.1939 105.76 29.286 105.76 29.3997Z" fill="white"/>
<path d="M105.439 28.7135C105.439 28.8272 105.347 28.9194 105.233 28.9194C105.12 28.9194 105.028 28.8272 105.028 28.7135C105.028 28.5998 105.12 28.5076 105.233 28.5076C105.347 28.5076 105.439 28.5998 105.439 28.7135Z" fill="white"/>
<path d="M105.211 28.0273C105.211 28.141 105.118 28.2332 105.005 28.2332C104.891 28.2332 104.799 28.141 104.799 28.0273C104.799 27.9136 104.891 27.8214 105.005 27.8214C105.118 27.8214 105.211 27.9136 105.211 28.0273Z" fill="white"/>
<path d="M105.028 27.2953C105.028 27.409 104.935 27.5012 104.822 27.5012C104.708 27.5012 104.616 27.409 104.616 27.2953C104.616 27.1816 104.708 27.0894 104.822 27.0894C104.935 27.0894 105.028 27.1816 105.028 27.2953Z" fill="white"/>
<path d="M104.936 26.6091C104.936 26.7228 104.844 26.815 104.73 26.815C104.617 26.815 104.524 26.7228 104.524 26.6091C104.524 26.4954 104.617 26.4032 104.73 26.4032C104.844 26.4032 104.936 26.4954 104.936 26.6091Z" fill="white"/>
<path d="M104.936 25.8771C104.936 25.9908 104.844 26.083 104.73 26.083C104.617 26.083 104.524 25.9908 104.524 25.8771C104.524 25.7634 104.617 25.6712 104.73 25.6712C104.844 25.6712 104.936 25.7634 104.936 25.8771Z" fill="white"/>
<path d="M104.982 25.1451C104.982 25.2588 104.89 25.351 104.776 25.351C104.662 25.351 104.57 25.2588 104.57 25.1451C104.57 25.0314 104.662 24.9393 104.776 24.9393C104.89 24.9393 104.982 25.0314 104.982 25.1451Z" fill="white"/>
<path d="M105.165 24.4132C105.165 24.5269 105.073 24.619 104.959 24.619C104.845 24.619 104.753 24.5269 104.753 24.4132C104.753 24.2995 104.845 24.2073 104.959 24.2073C105.073 24.2073 105.165 24.2995 105.165 24.4132Z" fill="white"/>
<path d="M111.753 32.7394C111.753 32.8531 111.66 32.9452 111.547 32.9452C111.433 32.9452 111.341 32.8531 111.341 32.7394C111.341 32.6257 111.433 32.5335 111.547 32.5335C111.66 32.5335 111.753 32.6257 111.753 32.7394Z" fill="white"/>
</g>
<defs>
<clipPath id="clip0_1968_2407">
<rect x="0.5" y="0.335938" width="220" height="311.328" rx="16" fill="white"/>
</clipPath>
</defs>
</svg>
