<svg width="223" height="314" viewBox="0 0 223 314" fill="none" xmlns="http://www.w3.org/2000/svg">
<g clip-path="url(#clip0_1968_2718)" filter="url(#filter0_dd_1968_2718)">
<rect width="220" height="311.328" transform="translate(1.5 1.33594)" fill="#5C3262"/>
<g opacity="0.2">
<line x1="203.798" y1="-55.9141" x2="203.798" y2="372.861" stroke="white" stroke-width="0.369748"/>
<line x1="47.0169" y1="-55.9141" x2="47.0169" y2="372.861" stroke="white" stroke-width="0.369748"/>
<line x1="56.2396" y1="-55.9141" x2="56.2395" y2="372.861" stroke="white" stroke-width="0.369748"/>
<line x1="130.017" y1="-55.9141" x2="130.017" y2="372.861" stroke="white" stroke-width="0.369748"/>
<line x1="93.1263" y1="-55.9141" x2="93.1263" y2="372.861" stroke="white" stroke-width="0.369748"/>
<line x1="166.908" y1="-55.9141" x2="166.908" y2="372.861" stroke="white" stroke-width="0.369748"/>
<line x1="10.1302" y1="-55.9141" x2="10.1302" y2="372.861" stroke="white" stroke-width="0.369748"/>
<line x1="213.025" y1="-55.9141" x2="213.025" y2="372.861" stroke="white" stroke-width="0.369748"/>
<line x1="65.4622" y1="-55.9141" x2="65.4622" y2="372.861" stroke="white" stroke-width="0.369748"/>
<line x1="139.24" y1="-55.9141" x2="139.24" y2="372.861" stroke="white" stroke-width="0.369748"/>
<line x1="102.349" y1="-55.9141" x2="102.349" y2="372.861" stroke="white" stroke-width="0.369748"/>
<line x1="176.126" y1="-55.9141" x2="176.126" y2="372.861" stroke="white" stroke-width="0.369748"/>
<line x1="19.3489" y1="-55.9141" x2="19.3489" y2="372.861" stroke="white" stroke-width="0.369748"/>
<line x1="74.681" y1="-55.9141" x2="74.681" y2="372.861" stroke="white" stroke-width="0.369748"/>
<line x1="148.462" y1="-55.9141" x2="148.462" y2="372.861" stroke="white" stroke-width="0.369748"/>
<line x1="111.575" y1="-55.9141" x2="111.575" y2="372.861" stroke="white" stroke-width="0.369748"/>
<line x1="185.357" y1="-55.9141" x2="185.357" y2="372.861" stroke="white" stroke-width="0.369748"/>
<line x1="28.5716" y1="-55.9141" x2="28.5716" y2="372.861" stroke="white" stroke-width="0.369748"/>
<line x1="83.9075" y1="-55.9141" x2="83.9075" y2="372.861" stroke="white" stroke-width="0.369748"/>
<line x1="157.681" y1="-55.9141" x2="157.681" y2="372.861" stroke="white" stroke-width="0.369748"/>
<line x1="120.794" y1="-55.9141" x2="120.794" y2="372.861" stroke="white" stroke-width="0.369748"/>
<line x1="194.575" y1="-55.9141" x2="194.575" y2="372.861" stroke="white" stroke-width="0.369748"/>
<line x1="37.7982" y1="-55.9141" x2="37.7981" y2="372.861" stroke="white" stroke-width="0.369748"/>
<line x1="-146.414" y1="82.2526" x2="383.325" y2="82.2526" stroke="white" stroke-width="0.369748"/>
<line x1="-146.414" y1="239.057" x2="383.325" y2="239.057" stroke="white" stroke-width="0.369748"/>
<line x1="-146.414" y1="229.831" x2="383.325" y2="229.831" stroke="white" stroke-width="0.369748"/>
<line x1="-146.414" y1="8.47138" x2="383.325" y2="8.4714" stroke="white" stroke-width="0.369748"/>
<line x1="-146.414" y1="156.05" x2="383.325" y2="156.05" stroke="white" stroke-width="0.369748"/>
<line x1="-146.414" y1="45.362" x2="383.325" y2="45.362" stroke="white" stroke-width="0.369748"/>
<line x1="-146.414" y1="192.94" x2="383.325" y2="192.94" stroke="white" stroke-width="0.369748"/>
<line x1="-146.414" y1="119.159" x2="383.325" y2="119.159" stroke="white" stroke-width="0.369748"/>
<line x1="-146.414" y1="275.956" x2="383.325" y2="275.956" stroke="white" stroke-width="0.369748"/>
<line x1="-146.414" y1="73.0417" x2="383.325" y2="73.0417" stroke="white" stroke-width="0.369748"/>
<line x1="-146.414" y1="220.612" x2="383.325" y2="220.612" stroke="white" stroke-width="0.369748"/>
<line x1="-146.414" y1="146.823" x2="383.325" y2="146.823" stroke="white" stroke-width="0.369748"/>
<line x1="-146.414" y1="303.62" x2="383.325" y2="303.62" stroke="white" stroke-width="0.369748"/>
<line x1="-146.414" y1="36.1433" x2="383.325" y2="36.1433" stroke="white" stroke-width="0.369748"/>
<line x1="-146.414" y1="183.714" x2="383.325" y2="183.714" stroke="white" stroke-width="0.369748"/>
<line x1="-146.414" y1="109.932" x2="383.325" y2="109.932" stroke="white" stroke-width="0.369748"/>
<line x1="-146.414" y1="266.729" x2="383.325" y2="266.729" stroke="white" stroke-width="0.369748"/>
<line x1="-146.414" y1="63.8151" x2="383.325" y2="63.8151" stroke="white" stroke-width="0.369748"/>
<line x1="-146.414" y1="211.385" x2="383.325" y2="211.385" stroke="white" stroke-width="0.369748"/>
<line x1="-146.414" y1="137.604" x2="383.325" y2="137.604" stroke="white" stroke-width="0.369748"/>
<line x1="-146.414" y1="294.401" x2="383.325" y2="294.401" stroke="white" stroke-width="0.369748"/>
<line x1="-146.414" y1="26.9089" x2="383.325" y2="26.9089" stroke="white" stroke-width="0.369748"/>
<line x1="-146.414" y1="174.487" x2="383.325" y2="174.487" stroke="white" stroke-width="0.369748"/>
<line x1="-146.414" y1="100.706" x2="383.325" y2="100.706" stroke="white" stroke-width="0.369748"/>
<line x1="-146.414" y1="257.503" x2="383.325" y2="257.503" stroke="white" stroke-width="0.369748"/>
<line x1="-146.414" y1="54.5886" x2="383.325" y2="54.5886" stroke="white" stroke-width="0.369748"/>
<line x1="-146.414" y1="202.159" x2="383.325" y2="202.159" stroke="white" stroke-width="0.369748"/>
<line x1="-146.414" y1="128.378" x2="383.325" y2="128.378" stroke="white" stroke-width="0.369748"/>
<line x1="-146.414" y1="285.182" x2="383.325" y2="285.182" stroke="white" stroke-width="0.369748"/>
<line x1="-146.414" y1="17.6901" x2="383.325" y2="17.6901" stroke="white" stroke-width="0.369748"/>
<line x1="-146.414" y1="165.276" x2="383.325" y2="165.276" stroke="white" stroke-width="0.369748"/>
<line x1="-146.414" y1="91.4792" x2="383.325" y2="91.4792" stroke="white" stroke-width="0.369748"/>
<line x1="-146.414" y1="248.284" x2="383.325" y2="248.284" stroke="white" stroke-width="0.369748"/>
</g>
<path d="M1.5 1.24219H221.5V312.57H1.5V1.24219Z" fill="url(#paint0_linear_1968_2718)"/>
<circle opacity="0.3" cx="53.9774" cy="245.973" r="7.23909" fill="white"/>
<circle opacity="0.25" cx="53.9774" cy="226.223" r="7.23909" fill="white"/>
<circle opacity="0.2" cx="53.9774" cy="206.466" r="7.23909" fill="white"/>
<circle opacity="0.15" cx="53.9774" cy="186.716" r="7.23909" fill="white"/>
<circle opacity="0.1" cx="53.9774" cy="166.966" r="7.23909" fill="white"/>
<circle opacity="0.05" cx="53.9774" cy="147.216" r="7.23909" fill="white"/>
<circle opacity="0.03" cx="53.9774" cy="127.458" r="7.23909" fill="white"/>
<circle opacity="0.3" cx="73.1532" cy="245.973" r="7.23909" fill="white"/>
<circle opacity="0.25" cx="73.1532" cy="226.223" r="7.23909" fill="white"/>
<circle opacity="0.2" cx="73.1532" cy="206.466" r="7.23909" fill="white"/>
<circle opacity="0.15" cx="73.1532" cy="186.716" r="7.23909" fill="white"/>
<circle opacity="0.1" cx="73.1532" cy="166.966" r="7.23909" fill="white"/>
<circle opacity="0.05" cx="73.1532" cy="147.216" r="7.23909" fill="white"/>
<circle opacity="0.03" cx="73.1532" cy="127.458" r="7.23909" fill="white"/>
<circle opacity="0.3" cx="92.325" cy="245.973" r="7.23909" fill="white"/>
<circle opacity="0.25" cx="92.325" cy="226.223" r="7.23909" fill="white"/>
<circle opacity="0.7" cx="92.325" cy="206.466" r="7.23909" fill="white"/>
<circle opacity="0.15" cx="92.325" cy="186.716" r="7.23909" fill="white"/>
<circle opacity="0.1" cx="92.325" cy="166.966" r="7.23909" fill="white"/>
<circle opacity="0.05" cx="92.325" cy="147.216" r="7.23909" fill="white"/>
<circle opacity="0.03" cx="92.325" cy="127.458" r="7.23909" fill="white"/>
<circle opacity="0.3" cx="111.501" cy="245.973" r="7.23909" fill="white"/>
<circle opacity="0.25" cx="111.501" cy="226.223" r="7.23909" fill="white"/>
<circle opacity="0.7" cx="111.501" cy="206.466" r="7.23909" fill="white"/>
<circle opacity="0.5" cx="111.501" cy="186.716" r="7.23909" fill="white"/>
<circle opacity="0.1" cx="111.501" cy="166.966" r="7.23909" fill="white"/>
<circle opacity="0.05" cx="111.501" cy="147.216" r="7.23909" fill="white"/>
<circle opacity="0.03" cx="111.501" cy="127.458" r="7.23909" fill="white"/>
<circle opacity="0.3" cx="130.677" cy="245.973" r="7.23909" fill="white"/>
<circle opacity="0.25" cx="130.677" cy="226.223" r="7.23909" fill="white"/>
<circle opacity="0.7" cx="130.677" cy="206.466" r="7.23909" fill="white"/>
<circle opacity="0.5" cx="130.677" cy="186.716" r="7.23909" fill="white"/>
<circle opacity="0.3" cx="130.677" cy="166.966" r="7.23909" fill="white"/>
<circle opacity="0.05" cx="130.677" cy="147.216" r="7.23909" fill="white"/>
<circle opacity="0.03" cx="130.677" cy="127.458" r="7.23909" fill="white"/>
<circle opacity="0.3" cx="169.024" cy="245.973" r="7.23909" fill="white"/>
<circle opacity="0.25" cx="169.024" cy="226.223" r="7.23909" fill="white"/>
<circle opacity="0.2" cx="169.024" cy="206.466" r="7.23909" fill="white"/>
<circle opacity="0.15" cx="169.024" cy="186.716" r="7.23909" fill="white"/>
<circle opacity="0.1" cx="169.024" cy="166.966" r="7.23909" fill="white"/>
<circle opacity="0.05" cx="169.024" cy="147.216" r="7.23909" fill="white"/>
<circle opacity="0.03" cx="169.024" cy="127.458" r="7.23909" fill="white"/>
<circle opacity="0.3" cx="149.848" cy="245.973" r="7.23909" fill="white"/>
<circle opacity="0.25" cx="149.848" cy="226.223" r="7.23909" fill="white"/>
<circle opacity="0.2" cx="149.848" cy="206.466" r="7.23909" fill="white"/>
<circle opacity="0.15" cx="149.848" cy="186.716" r="7.23909" fill="white"/>
<circle opacity="0.1" cx="149.848" cy="166.966" r="7.23909" fill="white"/>
<circle opacity="0.05" cx="149.848" cy="147.216" r="7.23909" fill="white"/>
<circle opacity="0.03" cx="149.848" cy="127.458" r="7.23909" fill="white"/>
<path d="M66.8334 286.132H65.4938L65.4866 285.471H66.6565C66.8539 285.471 67.0212 285.442 67.1584 285.384C67.298 285.324 67.404 285.239 67.4762 285.128C67.5484 285.015 67.5845 284.879 67.5845 284.72C67.5845 284.544 67.5508 284.401 67.4834 284.29C67.416 284.18 67.3125 284.099 67.1729 284.048C67.0356 283.998 66.8599 283.973 66.6457 283.973H65.7683V288.508H64.8619V283.25H66.6457C66.9345 283.25 67.1921 283.278 67.4184 283.334C67.6471 283.389 67.8409 283.476 67.9997 283.593C68.161 283.709 68.2826 283.856 68.3644 284.034C68.4487 284.212 68.4908 284.424 68.4908 284.67C68.4908 284.886 68.4391 285.085 68.3355 285.265C68.232 285.443 68.0792 285.589 67.877 285.702C67.6748 285.815 67.4232 285.883 67.1223 285.904L66.8334 286.132ZM66.7937 288.508H65.2086L65.6166 287.789H66.7937C66.9983 287.789 67.1692 287.756 67.3065 287.688C67.4437 287.618 67.546 287.523 67.6134 287.403C67.6832 287.28 67.7181 287.137 67.7181 286.973C67.7181 286.802 67.688 286.654 67.6278 286.529C67.5676 286.402 67.4726 286.304 67.3426 286.237C67.2126 286.167 67.0429 286.132 66.8334 286.132H65.8152L65.8224 285.471H67.1476L67.3534 285.72C67.6423 285.73 67.8794 285.794 68.0647 285.912C68.2525 286.03 68.3921 286.182 68.4836 286.37C68.5751 286.558 68.6208 286.76 68.6208 286.977C68.6208 287.311 68.5474 287.592 68.4005 287.818C68.2561 288.044 68.0479 288.217 67.7759 288.334C67.5039 288.45 67.1765 288.508 66.7937 288.508ZM70.2777 283.25L71.4982 285.76L72.7186 283.25H73.7225L71.9532 286.572V288.508H71.0396V286.572L69.2703 283.25H70.2777ZM80.1308 286.796H81.0335C81.0046 287.141 80.9083 287.447 80.7446 287.717C80.5809 287.984 80.351 288.195 80.055 288.349C79.7589 288.503 79.399 288.58 78.9753 288.58C78.6504 288.58 78.3579 288.522 78.0979 288.407C77.8379 288.289 77.6153 288.123 77.4299 287.908C77.2445 287.692 77.1025 287.431 77.0038 287.125C76.9075 286.819 76.8594 286.477 76.8594 286.099V285.662C76.8594 285.285 76.9087 284.943 77.0074 284.637C77.1085 284.331 77.253 284.07 77.4407 283.853C77.6285 283.634 77.8536 283.467 78.116 283.352C78.3807 283.236 78.678 283.178 79.0078 283.178C79.4267 283.178 79.7805 283.255 80.0694 283.409C80.3583 283.563 80.5821 283.776 80.741 284.048C80.9023 284.32 81.001 284.632 81.0371 284.984H80.1344C80.1103 284.757 80.0574 284.564 79.9755 284.402C79.8961 284.241 79.7781 284.118 79.6217 284.034C79.4652 283.947 79.2606 283.904 79.0078 283.904C78.8008 283.904 78.6203 283.943 78.4662 284.02C78.3121 284.097 78.1834 284.21 78.0798 284.359C77.9763 284.508 77.8981 284.692 77.8451 284.911C77.7946 285.128 77.7693 285.376 77.7693 285.655V286.099C77.7693 286.364 77.7922 286.605 77.8379 286.822C77.8861 287.036 77.9583 287.22 78.0546 287.374C78.1533 287.528 78.2784 287.647 78.4301 287.731C78.5817 287.816 78.7635 287.858 78.9753 287.858C79.2329 287.858 79.4411 287.817 79.6 287.735C79.7613 287.653 79.8828 287.534 79.9647 287.378C80.0489 287.219 80.1043 287.025 80.1308 286.796ZM86.4926 285.735V286.024C86.4926 286.421 86.4409 286.777 86.3374 287.092C86.2338 287.408 86.0858 287.676 85.8932 287.898C85.7031 288.119 85.4744 288.289 85.2072 288.407C84.94 288.522 84.6439 288.58 84.3189 288.58C83.9963 288.58 83.7015 288.522 83.4343 288.407C83.1695 288.289 82.9396 288.119 82.7446 287.898C82.5496 287.676 82.398 287.408 82.2896 287.092C82.1837 286.777 82.1308 286.421 82.1308 286.024V285.735C82.1308 285.338 82.1837 284.982 82.2896 284.67C82.3955 284.354 82.5448 284.086 82.7374 283.864C82.9324 283.64 83.1622 283.471 83.427 283.355C83.6942 283.237 83.9891 283.178 84.3117 283.178C84.6367 283.178 84.9327 283.237 85.1999 283.355C85.4671 283.471 85.697 283.64 85.8896 283.864C86.0822 284.086 86.2302 284.354 86.3337 284.67C86.4397 284.982 86.4926 285.338 86.4926 285.735ZM85.5863 286.024V285.727C85.5863 285.434 85.5574 285.175 85.4996 284.951C85.4443 284.725 85.3612 284.536 85.2505 284.384C85.1422 284.23 85.0086 284.115 84.8497 284.038C84.6908 283.958 84.5115 283.918 84.3117 283.918C84.1119 283.918 83.9338 283.958 83.7773 284.038C83.6208 284.115 83.4872 284.23 83.3765 284.384C83.2682 284.536 83.1851 284.725 83.1273 284.951C83.0696 285.175 83.0407 285.434 83.0407 285.727V286.024C83.0407 286.317 83.0696 286.577 83.1273 286.804C83.1851 287.03 83.2694 287.221 83.3801 287.378C83.4932 287.532 83.628 287.648 83.7845 287.728C83.941 287.805 84.1191 287.843 84.3189 287.843C84.5211 287.843 84.7005 287.805 84.8569 287.728C85.0134 287.648 85.1458 287.532 85.2541 287.378C85.3624 287.221 85.4443 287.03 85.4996 286.804C85.5574 286.577 85.5863 286.317 85.5863 286.024ZM92.0348 285.735V286.024C92.0348 286.421 91.983 286.777 91.8795 287.092C91.776 287.408 91.628 287.676 91.4354 287.898C91.2452 288.119 91.0165 288.289 90.7493 288.407C90.4821 288.522 90.1861 288.58 89.8611 288.58C89.5385 288.58 89.2436 288.522 88.9764 288.407C88.7116 288.289 88.4817 288.119 88.2868 287.898C88.0918 287.676 87.9401 287.408 87.8318 287.092C87.7259 286.777 87.6729 286.421 87.6729 286.024V285.735C87.6729 285.338 87.7259 284.982 87.8318 284.67C87.9377 284.354 88.087 284.086 88.2795 283.864C88.4745 283.64 88.7044 283.471 88.9692 283.355C89.2364 283.237 89.5313 283.178 89.8539 283.178C90.1788 283.178 90.4749 283.237 90.7421 283.355C91.0093 283.471 91.2392 283.64 91.4318 283.864C91.6244 284.086 91.7724 284.354 91.8759 284.67C91.9818 284.982 92.0348 285.338 92.0348 285.735ZM91.1285 286.024V285.727C91.1285 285.434 91.0996 285.175 91.0418 284.951C90.9865 284.725 90.9034 284.536 90.7927 284.384C90.6843 284.23 90.5507 284.115 90.3919 284.038C90.233 283.958 90.0537 283.918 89.8539 283.918C89.6541 283.918 89.4759 283.958 89.3195 284.038C89.163 284.115 89.0294 284.23 88.9187 284.384C88.8103 284.536 88.7273 284.725 88.6695 284.951C88.6117 285.175 88.5829 285.434 88.5829 285.727V286.024C88.5829 286.317 88.6117 286.577 88.6695 286.804C88.7273 287.03 88.8115 287.221 88.9223 287.378C89.0354 287.532 89.1702 287.648 89.3267 287.728C89.4832 287.805 89.6613 287.843 89.8611 287.843C90.0633 287.843 90.2426 287.805 90.3991 287.728C90.5556 287.648 90.688 287.532 90.7963 287.378C90.9046 287.221 90.9865 287.03 91.0418 286.804C91.0996 286.577 91.1285 286.317 91.1285 286.024ZM93.3848 283.25H95.2444C95.644 283.25 95.9846 283.311 96.2662 283.431C96.5479 283.551 96.7633 283.729 96.9126 283.965C97.0642 284.199 97.1401 284.488 97.1401 284.832C97.1401 285.094 97.0919 285.325 96.9956 285.525C96.8993 285.725 96.7633 285.894 96.5876 286.031C96.4119 286.166 96.2025 286.27 95.9593 286.345L95.6849 286.479H94.0131L94.0059 285.76H95.2588C95.4755 285.76 95.656 285.721 95.8004 285.644C95.9449 285.567 96.0532 285.463 96.1254 285.33C96.2 285.195 96.2374 285.044 96.2374 284.875C96.2374 284.692 96.2012 284.534 96.129 284.399C96.0592 284.261 95.9509 284.157 95.8041 284.085C95.6572 284.01 95.4707 283.973 95.2444 283.973H94.2911V288.508H93.3848V283.25ZM96.3854 288.508L95.1505 286.146L96.1001 286.143L97.3531 288.461V288.508H96.3854ZM100.014 288.508H98.8909L98.8981 287.789H100.014C100.339 287.789 100.611 287.718 100.83 287.576C101.051 287.434 101.217 287.231 101.328 286.966C101.441 286.701 101.498 286.386 101.498 286.02V285.735C101.498 285.451 101.465 285.199 101.4 284.98C101.338 284.761 101.244 284.577 101.119 284.428C100.996 284.278 100.844 284.165 100.664 284.088C100.486 284.011 100.28 283.973 100.046 283.973H98.8692V283.25H100.046C100.395 283.25 100.714 283.309 101.003 283.427C101.292 283.543 101.541 283.71 101.751 283.929C101.962 284.148 102.125 284.411 102.238 284.716C102.351 285.022 102.408 285.364 102.408 285.742V286.02C102.408 286.398 102.351 286.74 102.238 287.045C102.125 287.351 101.962 287.614 101.751 287.833C101.539 288.049 101.286 288.217 100.992 288.334C100.701 288.45 100.375 288.508 100.014 288.508ZM99.3928 283.25V288.508H98.4865V283.25H99.3928ZM104.729 283.25V288.508H103.823V283.25H104.729ZM110.47 283.25V288.508H109.564L107.206 284.742V288.508H106.299V283.25H107.206L109.571 287.024V283.25H110.47ZM114.106 283.951L112.535 288.508H111.585L113.564 283.25H114.171L114.106 283.951ZM115.42 288.508L113.846 283.951L113.777 283.25H114.387L116.373 288.508H115.42ZM115.344 286.558V287.277H112.484V286.558H115.344ZM119.113 283.25V288.508H118.214V283.25H119.113ZM120.763 283.25V283.973H116.579V283.25H120.763ZM125.342 287.789V288.508H122.55V287.789H125.342ZM122.807 283.25V288.508H121.9V283.25H122.807ZM124.977 285.446V286.154H122.55V285.446H124.977ZM125.324 283.25V283.973H122.55V283.25H125.324ZM128.053 288.508H126.93L126.937 287.789H128.053C128.378 287.789 128.65 287.718 128.869 287.576C129.09 287.434 129.256 287.231 129.367 286.966C129.48 286.701 129.537 286.386 129.537 286.02V285.735C129.537 285.451 129.504 285.199 129.439 284.98C129.377 284.761 129.283 284.577 129.158 284.428C129.035 284.278 128.883 284.165 128.703 284.088C128.525 284.011 128.319 283.973 128.085 283.973H126.908V283.25H128.085C128.434 283.25 128.753 283.309 129.042 283.427C129.331 283.543 129.58 283.71 129.79 283.929C130.002 284.148 130.164 284.411 130.277 284.716C130.39 285.022 130.447 285.364 130.447 285.742V286.02C130.447 286.398 130.39 286.74 130.277 287.045C130.164 287.351 130.002 287.614 129.79 287.833C129.578 288.049 129.325 288.217 129.031 288.334C128.74 288.45 128.414 288.508 128.053 288.508ZM127.432 283.25V288.508H126.525V283.25H127.432ZM137.379 287.789V288.508H134.739V287.789H137.379ZM134.992 283.25V288.508H134.086V283.25H134.992ZM139.491 283.25V288.508H138.584V283.25H139.491ZM142.863 287.547L144.246 283.25H145.246L143.361 288.508H142.686L142.863 287.547ZM141.584 283.25L142.957 287.547L143.144 288.508H142.466L140.588 283.25H141.584ZM147.246 283.25V288.508H146.339V283.25H147.246ZM152.987 283.25V288.508H152.08L149.722 284.742V288.508H148.816V283.25H149.722L152.087 287.024V283.25H152.987ZM158.547 285.821V287.829C158.472 287.928 158.355 288.036 158.197 288.154C158.04 288.269 157.832 288.369 157.572 288.454C157.312 288.538 156.988 288.58 156.601 288.58C156.271 288.58 155.969 288.525 155.694 288.414C155.42 288.301 155.183 288.136 154.983 287.919C154.786 287.703 154.633 287.439 154.524 287.128C154.416 286.816 154.362 286.459 154.362 286.06V285.695C154.362 285.298 154.411 284.944 154.51 284.633C154.611 284.32 154.755 284.056 154.943 283.839C155.131 283.622 155.357 283.459 155.622 283.348C155.889 283.235 156.191 283.178 156.528 283.178C156.959 283.178 157.316 283.25 157.597 283.395C157.881 283.537 158.1 283.734 158.254 283.987C158.408 284.24 158.506 284.529 158.547 284.854H157.659C157.63 284.671 157.573 284.507 157.489 284.363C157.407 284.218 157.289 284.105 157.135 284.023C156.983 283.939 156.786 283.897 156.543 283.897C156.333 283.897 156.149 283.937 155.99 284.016C155.831 284.095 155.699 284.212 155.593 284.366C155.49 284.52 155.411 284.708 155.358 284.929C155.305 285.151 155.279 285.404 155.279 285.688V286.06C155.279 286.349 155.309 286.605 155.369 286.829C155.432 287.053 155.521 287.242 155.636 287.396C155.754 287.55 155.898 287.666 156.066 287.746C156.235 287.823 156.425 287.861 156.637 287.861C156.844 287.861 157.013 287.845 157.146 287.811C157.278 287.775 157.383 287.733 157.46 287.685C157.539 287.634 157.601 287.586 157.644 287.54V286.497H156.55V285.821H158.547Z" fill="white"/>
<path d="M63.5318 65.1952C64.797 65.1952 65.8733 65.5006 66.7604 66.1115C67.6476 66.7077 68.0911 67.5949 68.0911 68.7729C68.0911 70.1254 67.5458 71.2962 66.455 72.2851C65.3788 73.2741 64.0626 74.0231 62.5065 74.5321C60.9649 75.0557 59.5178 75.3393 58.1653 75.3829L57.9689 74.5975C59.8305 74.2194 61.4739 73.5722 62.8991 72.656C64.3389 71.7398 65.0588 70.5036 65.0588 68.9474C65.0588 68.3802 64.8916 67.8785 64.5571 67.4422C64.2371 66.9913 63.8154 66.6496 63.2918 66.4169C62.7828 66.1696 62.252 66.046 61.6993 66.046C60.7394 66.046 59.7578 66.2424 58.7543 66.635L58.7106 66.5259V73.1141L55.9837 74.0085V65.9806C55.9837 64.5117 56.3037 63.1664 56.9436 61.9448C57.5835 60.7231 58.4779 59.7633 59.6269 59.0652C60.7903 58.3525 62.0992 57.9962 63.5536 57.9962C64.2953 57.9962 64.9207 58.178 65.4297 58.5416C65.9387 58.9052 66.1932 59.4288 66.1932 60.1123C66.1932 61.0285 65.7206 61.9666 64.7752 62.9265C63.8299 63.8718 62.7755 64.6717 61.612 65.3261L61.6557 65.4352C62.3974 65.2752 63.0228 65.1952 63.5318 65.1952ZM58.7106 65.9806C59.9323 65.3988 60.9867 64.6789 61.8738 63.8209C62.7755 62.9628 63.2264 62.0102 63.2264 60.9631C63.2264 60.425 63.0882 59.996 62.8119 59.676C62.5355 59.3415 62.1574 59.1743 61.6775 59.1743C60.9503 59.1743 60.3613 59.4869 59.9105 60.1123C59.4742 60.7231 59.1615 61.4576 58.9724 62.3156C58.7979 63.1737 58.7106 63.9954 58.7106 64.7807V65.9806ZM75.2119 63.0573C74.252 63.7409 73.4958 64.519 72.9431 65.3916C72.405 66.2496 72.136 67.2604 72.136 68.4239C72.136 69.0638 72.2596 69.711 72.5068 70.3654C72.7541 71.0199 73.1176 71.5652 73.5976 72.0015C74.0775 72.4233 74.652 72.6342 75.321 72.6342C76.1645 72.6342 76.8408 72.3288 77.3498 71.7179C77.8733 71.1071 78.1351 70.3509 78.1351 69.4492C78.1351 68.7656 77.9533 68.0748 77.5897 67.3767C77.2407 66.6641 76.768 66.0678 76.1718 65.5879C75.5755 65.0934 74.9356 64.8171 74.252 64.7589C74.5574 64.4244 74.8847 64.119 75.2337 63.8427C75.5973 63.5664 76.0481 63.2319 76.5862 62.8392C77.6334 63.1882 78.4624 63.8354 79.0732 64.7807C79.6985 65.7261 80.0112 66.7659 80.0112 67.9003C80.0112 68.9038 79.7858 69.8782 79.335 70.8235C78.8987 71.7689 78.2587 72.5397 77.4152 73.1359C76.5862 73.7177 75.6191 74.0085 74.5138 74.0085C73.5976 74.0085 72.7541 73.7977 71.9833 73.3759C71.227 72.9396 70.6234 72.3506 70.1726 71.6089C69.7218 70.8526 69.4963 70.0236 69.4963 69.1219C69.4963 67.5658 69.9835 66.1987 70.9579 65.0207C71.9469 63.8427 73.2267 63.021 74.7974 62.5556L75.2119 63.0573ZM87.3764 63.0573C86.4165 63.7409 85.6603 64.519 85.1076 65.3916C84.5695 66.2496 84.3005 67.2604 84.3005 68.4239C84.3005 69.0638 84.4241 69.711 84.6713 70.3654C84.9185 71.0199 85.2821 71.5652 85.7621 72.0015C86.242 72.4233 86.8165 72.6342 87.4855 72.6342C88.329 72.6342 89.0052 72.3288 89.5143 71.7179C90.0378 71.1071 90.2996 70.3509 90.2996 69.4492C90.2996 68.7656 90.1178 68.0748 89.7542 67.3767C89.4052 66.6641 88.9325 66.0678 88.3363 65.5879C87.74 65.0934 87.1001 64.8171 86.4165 64.7589C86.7219 64.4244 87.0492 64.119 87.3982 63.8427C87.7618 63.5664 88.2126 63.2319 88.7507 62.8392C89.7979 63.1882 90.6268 63.8354 91.2377 64.7807C91.863 65.7261 92.1757 66.7659 92.1757 67.9003C92.1757 68.9038 91.9503 69.8782 91.4994 70.8235C91.0631 71.7689 90.4232 72.5397 89.5797 73.1359C88.7507 73.7177 87.7836 74.0085 86.6783 74.0085C85.7621 74.0085 84.9185 73.7977 84.1477 73.3759C83.3915 72.9396 82.7879 72.3506 82.3371 71.6089C81.8862 70.8526 81.6608 70.0236 81.6608 69.1219C81.6608 67.5658 82.148 66.1987 83.1224 65.0207C84.1114 63.8427 85.3912 63.021 86.9619 62.5556L87.3764 63.0573ZM97.3375 68.8384H97.4903C97.9702 67.1804 98.5883 65.7261 99.3445 64.4753C100.115 63.2246 101.068 62.5992 102.202 62.5992C102.74 62.5992 103.169 62.781 103.489 63.1446C103.809 63.5082 103.969 63.959 103.969 64.4971C103.969 65.3988 103.591 66.2569 102.835 67.0713C102.093 67.8858 101.235 68.5838 100.261 69.1656C100.392 69.3546 100.523 69.5219 100.653 69.6673C101.25 70.4818 101.781 71.1362 102.246 71.6307C102.726 72.1106 103.177 72.3506 103.598 72.3506C104.137 72.3506 104.595 72.1252 104.973 71.6743L105.366 72.1106C105.046 72.6342 104.595 73.0705 104.013 73.4195C103.431 73.7686 102.82 73.9431 102.181 73.9431C101.555 73.9431 100.988 73.7249 100.479 73.2886C99.9845 72.8523 99.4245 72.2415 98.7992 71.4562C98.3192 70.8744 98.0138 70.5254 97.8829 70.409L97.6866 70.5181C97.5993 70.8235 97.5193 71.2744 97.4466 71.8707C97.3885 72.4669 97.3521 72.9832 97.3375 73.4195L94.7415 73.9867V54.4622L97.3375 53.5459V68.8384ZM100.653 64.868C100.159 64.868 99.6427 65.4352 99.1046 66.5696C98.5665 67.6894 98.1229 68.7656 97.7739 69.7982C98.7483 69.231 99.5772 68.5838 100.261 67.8567C100.959 67.1295 101.308 66.4241 101.308 65.7406C101.308 65.5079 101.25 65.3043 101.133 65.1298C101.017 64.9553 100.857 64.868 100.653 64.868ZM121.669 57.8653C121.16 58.5925 120.491 59.1961 119.662 59.676C118.833 60.1559 117.997 60.3959 117.153 60.3959C116.877 60.7449 116.673 61.0794 116.542 61.3994C116.426 61.7193 116.368 62.0902 116.368 62.512V69.5583C116.368 70.6054 116.135 71.4853 115.67 72.1979C115.219 72.9105 114.514 73.565 113.554 74.1612L113.096 73.6377C113.474 73.1577 113.663 72.4524 113.663 71.5216V63.7772C113.663 63.1664 113.852 62.5774 114.23 62.0102C114.623 61.4285 115.103 60.8904 115.67 60.3959L112.768 60.3741C112.274 60.3741 111.823 60.4832 111.416 60.7013C111.009 60.9195 110.623 61.254 110.26 61.7048L109.78 61.2467C110.463 60.345 111.161 59.6324 111.874 59.1088C112.601 58.5852 113.423 58.3235 114.339 58.3235H117.568C118.266 58.3235 118.971 58.2653 119.684 58.1489C120.396 58.018 120.934 57.7926 121.298 57.4727L121.669 57.8653ZM123.208 60.505L121.834 60.9413L120.939 56.3819L123.971 55.3566L123.208 60.505ZM123.906 71.6961C123.906 71.9143 123.957 72.0888 124.059 72.2197C124.16 72.3506 124.299 72.416 124.473 72.416C124.837 72.416 125.208 72.1615 125.586 71.6525L125.978 72.067C125.658 72.6487 125.244 73.0923 124.735 73.3977C124.24 73.7031 123.746 73.8558 123.252 73.8558C121.928 73.8558 121.266 73.0923 121.266 71.5652V63.7118L123.906 62.7956V71.6961ZM130.833 64.2354V71.6961C130.833 71.8997 130.891 72.0743 131.007 72.2197C131.124 72.3506 131.276 72.416 131.465 72.416C131.814 72.416 132.207 72.1615 132.643 71.6525L133.036 72.067C132.774 72.5906 132.447 72.9832 132.054 73.245C131.662 73.5068 131.284 73.6813 130.92 73.7686C130.556 73.8558 130.375 73.8849 130.375 73.8558C128.92 73.8558 128.193 73.0923 128.193 71.5652V64.2354H126.644L127.321 62.7956H128.193V57.8435L130.833 56.9491V62.7956H133.691L133.036 64.2354H130.833ZM138.222 71.6961C138.222 71.8852 138.266 72.0524 138.353 72.1979C138.455 72.3433 138.608 72.416 138.811 72.416C139.015 72.416 139.218 72.336 139.422 72.1761C139.64 72.0161 139.815 71.8416 139.946 71.6525L140.338 72.067C140.091 72.5615 139.727 72.9832 139.247 73.3323C138.782 73.6813 138.28 73.8558 137.742 73.8558C136.332 73.8558 135.626 73.0923 135.626 71.5652V54.4622L138.222 53.5241V71.6961ZM147.962 62.5992C148.805 62.5992 149.51 62.8174 150.078 63.2537C150.645 63.6754 150.928 64.2935 150.928 65.108C150.928 65.7624 150.572 66.4969 149.86 67.3113C149.161 68.1112 148.325 68.8602 147.351 69.5583C146.391 70.2418 145.569 70.7363 144.886 71.0417C145.496 72.0161 146.391 72.5033 147.569 72.5033C148.223 72.5033 148.878 72.3215 149.532 71.9579C150.201 71.5798 150.768 71.0853 151.234 70.4745L151.67 70.998C150.914 71.9434 150.114 72.6778 149.271 73.2014C148.442 73.7104 147.453 73.9649 146.304 73.9649C145.373 73.9649 144.537 73.754 143.795 73.3323C143.068 72.9105 142.493 72.336 142.072 71.6089C141.664 70.8672 141.461 70.0382 141.461 69.1219C141.461 68.0166 141.759 66.9623 142.355 65.9588C142.966 64.9407 143.773 64.1263 144.777 63.5155C145.78 62.9046 146.842 62.5992 147.962 62.5992ZM146.718 64.0172C146.165 64.0172 145.671 64.2208 145.235 64.628C144.798 65.0207 144.457 65.5297 144.209 66.1551C143.962 66.7805 143.839 67.4276 143.839 68.0966C143.839 68.9692 144.028 69.7182 144.406 70.3436C144.944 70.0382 145.511 69.6164 146.107 69.0783C146.718 68.5257 147.227 67.9367 147.634 67.3113C148.042 66.6859 148.245 66.1187 148.245 65.6097C148.245 65.1007 148.107 64.708 147.831 64.4317C147.569 64.1554 147.198 64.0172 146.718 64.0172ZM164.805 63.0355C163.903 63.8354 162.856 64.519 161.664 65.0861L161.707 65.217C162.158 65.0861 162.667 65.0207 163.234 65.0207C164.063 65.0207 164.827 65.1952 165.525 65.5443C166.223 65.8788 166.776 66.3514 167.183 66.9623C167.59 67.5731 167.794 68.2784 167.794 69.0783C167.794 70.4599 167.255 71.6161 166.179 72.5469C165.118 73.4777 163.816 74.154 162.274 74.5757C160.733 75.012 159.249 75.2302 157.824 75.2302L157.671 74.5539C158.704 74.423 159.766 74.1322 160.856 73.6813C161.947 73.2159 162.863 72.5978 163.605 71.827C164.347 71.0417 164.718 70.1473 164.718 69.1438C164.718 68.213 164.398 67.4713 163.758 66.9186C163.132 66.366 162.34 66.0896 161.38 66.0896C160.944 66.0896 160.5 66.1478 160.049 66.2642C159.613 66.3805 159.104 66.5623 158.522 66.8095L158.239 66.0678C159.504 65.4861 160.602 64.7953 161.533 63.9954C162.478 63.181 162.951 62.2575 162.951 61.2249C162.951 60.7013 162.805 60.3159 162.514 60.0687C162.238 59.8069 161.86 59.676 161.38 59.676C160.827 59.676 160.216 59.8651 159.547 60.2432C158.878 60.6068 158.326 61.0358 157.89 61.5303L157.322 60.9631C158.093 59.9741 159.009 59.2179 160.071 58.6943C161.133 58.1562 162.165 57.8872 163.169 57.8872C164.056 57.8872 164.776 58.1053 165.328 58.5416C165.896 58.9779 166.179 59.6033 166.179 60.4177C166.179 61.3485 165.721 62.2211 164.805 63.0355Z" fill="white"/>
<path d="M118.173 35.6042C118.148 35.7695 118.009 35.8853 117.864 35.8628C117.719 35.8404 117.623 35.6882 117.648 35.5229C117.674 35.3577 117.812 35.2419 117.957 35.2643C118.102 35.2868 118.199 35.4389 118.173 35.6042Z" fill="white"/>
<path d="M118.722 34.6435C118.697 34.8088 118.558 34.9246 118.413 34.9021C118.268 34.8797 118.172 34.7275 118.197 34.5622C118.223 34.397 118.361 34.2812 118.506 34.3036C118.651 34.3261 118.748 34.4782 118.722 34.6435Z" fill="white"/>
<path d="M119.18 33.6828C119.154 33.8481 119.016 33.9638 118.871 33.9414C118.726 33.919 118.629 33.7668 118.655 33.6015C118.68 33.4362 118.819 33.3205 118.963 33.3429C119.108 33.3653 119.205 33.5175 119.18 33.6828Z" fill="white"/>
<path d="M119.5 32.6306C119.474 32.7958 119.336 32.9116 119.191 32.8892C119.046 32.8667 118.949 32.7146 118.975 32.5493C119 32.384 119.139 32.2682 119.284 32.2907C119.429 32.3131 119.525 32.4653 119.5 32.6306Z" fill="white"/>
<path d="M119.729 31.5784C119.703 31.7436 119.565 31.8594 119.42 31.837C119.275 31.8145 119.178 31.6624 119.204 31.4971C119.229 31.3318 119.367 31.216 119.512 31.2385C119.657 31.2609 119.754 31.4131 119.729 31.5784Z" fill="white"/>
<path d="M119.82 30.5261C119.795 30.6914 119.656 30.8072 119.511 30.7848C119.366 30.7623 119.27 30.6102 119.295 30.4449C119.321 30.2796 119.459 30.1638 119.604 30.1863C119.749 30.2087 119.846 30.3609 119.82 30.5261Z" fill="white"/>
<path d="M119.866 29.4282C119.84 29.5935 119.702 29.7092 119.557 29.6868C119.412 29.6644 119.315 29.5122 119.341 29.3469C119.366 29.1816 119.505 29.0659 119.65 29.0883C119.795 29.1107 119.891 29.2629 119.866 29.4282Z" fill="white"/>
<path d="M119.774 28.376C119.749 28.5412 119.611 28.657 119.466 28.6346C119.321 28.6121 119.224 28.46 119.249 28.2947C119.275 28.1294 119.413 28.0136 119.558 28.0361C119.703 28.0585 119.8 28.2107 119.774 28.376Z" fill="white"/>
<path d="M119.546 27.3695C119.52 27.5348 119.382 27.6506 119.237 27.6281C119.092 27.6057 118.995 27.4535 119.021 27.2882C119.046 27.123 119.185 27.0072 119.329 27.0296C119.474 27.0521 119.571 27.2042 119.546 27.3695Z" fill="white"/>
<path d="M119.225 26.363C119.2 26.5283 119.062 26.6441 118.917 26.6217C118.772 26.5992 118.675 26.447 118.7 26.2818C118.726 26.1165 118.864 26.0007 119.009 26.0232C119.154 26.0456 119.251 26.1978 119.225 26.363Z" fill="white"/>
<path d="M118.814 25.4481C118.788 25.6133 118.65 25.7291 118.505 25.7067C118.36 25.6843 118.263 25.5321 118.289 25.3668C118.314 25.2015 118.453 25.0858 118.598 25.1082C118.742 25.1306 118.839 25.2828 118.814 25.4481Z" fill="white"/>
<path d="M118.31 24.5789C118.285 24.7441 118.147 24.8599 118.002 24.8375C117.857 24.815 117.76 24.6629 117.785 24.4976C117.811 24.3323 117.949 24.2165 118.094 24.239C118.239 24.2614 118.336 24.4136 118.31 24.5789Z" fill="white"/>
<path d="M117.716 23.8011C117.69 23.9664 117.552 24.0822 117.407 24.0597C117.262 24.0373 117.165 23.8851 117.191 23.7199C117.216 23.5546 117.355 23.4388 117.5 23.4613C117.645 23.4837 117.741 23.6359 117.716 23.8011Z" fill="white"/>
<path d="M117.03 23.1149C117.004 23.2802 116.866 23.396 116.721 23.3735C116.576 23.3511 116.479 23.1989 116.504 23.0336C116.53 22.8684 116.668 22.7526 116.813 22.775C116.958 22.7975 117.055 22.9496 117.03 23.1149Z" fill="white"/>
<path d="M116.252 22.5202C116.226 22.6854 116.088 22.8012 115.943 22.7788C115.798 22.7564 115.701 22.6042 115.727 22.4389C115.752 22.2736 115.891 22.1579 116.036 22.1803C116.181 22.2027 116.277 22.3549 116.252 22.5202Z" fill="white"/>
<path d="M115.428 22.0169C115.403 22.1822 115.264 22.298 115.119 22.2756C114.975 22.2531 114.878 22.101 114.903 21.9357C114.929 21.7704 115.067 21.6546 115.212 21.6771C115.357 21.6995 115.454 21.8517 115.428 22.0169Z" fill="white"/>
<path d="M114.559 21.651C114.534 21.8162 114.395 21.932 114.25 21.9096C114.105 21.8871 114.009 21.735 114.034 21.5697C114.06 21.4044 114.198 21.2886 114.343 21.3111C114.488 21.3335 114.585 21.4857 114.559 21.651Z" fill="white"/>
<path d="M113.644 21.4222C113.619 21.5875 113.48 21.7033 113.335 21.6808C113.19 21.6584 113.094 21.5062 113.119 21.341C113.145 21.1757 113.283 21.0599 113.428 21.0823C113.573 21.1048 113.67 21.2569 113.644 21.4222Z" fill="white"/>
<path d="M112.683 21.285C112.658 21.4502 112.52 21.566 112.375 21.5436C112.23 21.5211 112.133 21.369 112.158 21.2037C112.184 21.0384 112.322 20.9226 112.467 20.9451C112.612 20.9675 112.709 21.1197 112.683 21.285Z" fill="white"/>
<path d="M111.723 21.285C111.697 21.4502 111.559 21.566 111.414 21.5436C111.269 21.5211 111.172 21.369 111.198 21.2037C111.223 21.0384 111.362 20.9226 111.507 20.9451C111.651 20.9675 111.748 21.1197 111.723 21.285Z" fill="white"/>
<path d="M110.808 21.3765C110.782 21.5417 110.644 21.6575 110.499 21.6351C110.354 21.6126 110.257 21.4605 110.283 21.2952C110.308 21.1299 110.447 21.0141 110.592 21.0366C110.737 21.059 110.833 21.2112 110.808 21.3765Z" fill="white"/>
<path d="M109.847 21.6052C109.821 21.7705 109.683 21.8863 109.538 21.8638C109.393 21.8414 109.296 21.6892 109.322 21.5239C109.348 21.3587 109.486 21.2429 109.631 21.2653C109.776 21.2878 109.873 21.4399 109.847 21.6052Z" fill="white"/>
<path d="M108.932 21.9712C108.906 22.1365 108.768 22.2523 108.623 22.2298C108.478 22.2074 108.381 22.0552 108.407 21.8899C108.433 21.7247 108.571 21.6089 108.716 21.6313C108.861 21.6538 108.958 21.8059 108.932 21.9712Z" fill="white"/>
<path d="M108.063 22.4287C108.037 22.594 107.899 22.7097 107.754 22.6873C107.609 22.6649 107.512 22.5127 107.538 22.3474C107.563 22.1821 107.702 22.0664 107.847 22.0888C107.992 22.1112 108.088 22.2634 108.063 22.4287Z" fill="white"/>
<path d="M107.194 23.0234C107.168 23.1887 107.03 23.3045 106.885 23.282C106.74 23.2596 106.643 23.1074 106.669 22.9421C106.694 22.7769 106.832 22.6611 106.977 22.6835C107.122 22.706 107.219 22.8581 107.194 23.0234Z" fill="white"/>
<path d="M106.462 23.7096C106.436 23.8749 106.298 23.9907 106.153 23.9683C106.008 23.9458 105.911 23.7936 105.937 23.6284C105.962 23.4631 106.1 23.3473 106.245 23.3698C106.39 23.3922 106.487 23.5444 106.462 23.7096Z" fill="white"/>
<path d="M105.73 24.4874C105.704 24.6526 105.566 24.7684 105.421 24.746C105.276 24.7235 105.179 24.5714 105.205 24.4061C105.23 24.2408 105.368 24.125 105.513 24.1475C105.658 24.1699 105.755 24.3221 105.73 24.4874Z" fill="white"/>
<path d="M105.089 25.3566C105.064 25.5218 104.925 25.6376 104.78 25.6152C104.635 25.5928 104.539 25.4406 104.564 25.2753C104.59 25.11 104.728 24.9943 104.873 25.0167C105.018 25.0391 105.115 25.1913 105.089 25.3566Z" fill="white"/>
<path d="M104.586 26.3173C104.56 26.4826 104.422 26.5984 104.277 26.5759C104.132 26.5535 104.035 26.4013 104.061 26.236C104.087 26.0708 104.225 25.955 104.37 25.9774C104.515 25.9999 104.612 26.152 104.586 26.3173Z" fill="white"/>
<path d="M104.174 27.278C104.149 27.4433 104.01 27.5591 103.865 27.5366C103.72 27.5142 103.624 27.362 103.649 27.1967C103.675 27.0315 103.813 26.9157 103.958 26.9381C104.103 26.9606 104.2 27.1127 104.174 27.278Z" fill="white"/>
<path d="M103.808 28.2845C103.783 28.4497 103.644 28.5655 103.499 28.5431C103.354 28.5207 103.258 28.3685 103.283 28.2032C103.309 28.0379 103.447 27.9222 103.592 27.9446C103.737 27.967 103.834 28.1192 103.808 28.2845Z" fill="white"/>
<path d="M103.579 29.3367C103.554 29.502 103.416 29.6177 103.271 29.5953C103.126 29.5729 103.029 29.4207 103.054 29.2554C103.08 29.0902 103.218 28.9744 103.363 28.9968C103.508 29.0192 103.605 29.1714 103.579 29.3367Z" fill="white"/>
<path d="M103.442 30.4346C103.417 30.5999 103.278 30.7157 103.133 30.6933C102.988 30.6708 102.892 30.5187 102.917 30.3534C102.943 30.1881 103.081 30.0723 103.226 30.0948C103.371 30.1172 103.468 30.2694 103.442 30.4346Z" fill="white"/>
<path d="M103.442 31.5326C103.417 31.6979 103.278 31.8137 103.133 31.7912C102.988 31.7688 102.892 31.6166 102.917 31.4513C102.943 31.2861 103.081 31.1703 103.226 31.1927C103.371 31.2152 103.468 31.3673 103.442 31.5326Z" fill="white"/>
<path d="M103.534 32.5848C103.508 32.7501 103.37 32.8659 103.225 32.8434C103.08 32.821 102.983 32.6688 103.009 32.5036C103.034 32.3383 103.173 32.2225 103.318 32.2449C103.463 32.2674 103.559 32.4195 103.534 32.5848Z" fill="white"/>
<path d="M103.762 33.637C103.737 33.8023 103.599 33.9181 103.454 33.8957C103.309 33.8732 103.212 33.721 103.237 33.5558C103.263 33.3905 103.401 33.2747 103.546 33.2972C103.691 33.3196 103.788 33.4718 103.762 33.637Z" fill="white"/>
<path d="M104.083 34.552C104.057 34.7173 103.919 34.8331 103.774 34.8106C103.629 34.7882 103.532 34.636 103.558 34.4707C103.583 34.3055 103.722 34.1897 103.867 34.2121C104.012 34.2346 104.108 34.3867 104.083 34.552Z" fill="white"/>
<path d="M104.494 35.5127C104.469 35.678 104.331 35.7938 104.186 35.7713C104.041 35.7489 103.944 35.5967 103.969 35.4315C103.995 35.2662 104.133 35.1504 104.278 35.1728C104.423 35.1953 104.52 35.3474 104.494 35.5127Z" fill="white"/>
<path d="M104.998 36.3819C104.972 36.5472 104.834 36.663 104.689 36.6406C104.544 36.6181 104.447 36.4659 104.473 36.3007C104.498 36.1354 104.637 36.0196 104.781 36.0421C104.926 36.0645 105.023 36.2167 104.998 36.3819Z" fill="white"/>
<path d="M105.592 37.1597C105.567 37.3249 105.429 37.4407 105.284 37.4183C105.139 37.3958 105.042 37.2437 105.067 37.0784C105.093 36.9131 105.231 36.7973 105.376 36.8198C105.521 36.8422 105.618 36.9944 105.592 37.1597Z" fill="white"/>
<path d="M106.324 37.8459C106.299 38.0112 106.161 38.1269 106.016 38.1045C105.871 38.0821 105.774 37.9299 105.799 37.7646C105.825 37.5993 105.963 37.4836 106.108 37.506C106.253 37.5284 106.35 37.6806 106.324 37.8459Z" fill="white"/>
<path d="M107.056 38.4406C107.031 38.6059 106.893 38.7217 106.748 38.6992C106.603 38.6768 106.506 38.5246 106.531 38.3593C106.557 38.1941 106.695 38.0783 106.84 38.1007C106.985 38.1232 107.082 38.2753 107.056 38.4406Z" fill="white"/>
<path d="M107.88 38.9438C107.854 39.1091 107.716 39.2249 107.571 39.2025C107.426 39.18 107.329 39.0279 107.355 38.8626C107.38 38.6973 107.519 38.5815 107.664 38.604C107.809 38.6264 107.905 38.7786 107.88 38.9438Z" fill="white"/>
<path d="M108.749 39.3098C108.723 39.4751 108.585 39.5909 108.44 39.5684C108.295 39.546 108.198 39.3938 108.224 39.2286C108.25 39.0633 108.388 38.9475 108.533 38.9699C108.678 38.9924 108.775 39.1446 108.749 39.3098Z" fill="white"/>
<path d="M109.664 39.5386C109.638 39.7038 109.5 39.8196 109.355 39.7972C109.21 39.7748 109.113 39.6226 109.139 39.4573C109.165 39.292 109.303 39.1762 109.448 39.1987C109.593 39.2211 109.69 39.3733 109.664 39.5386Z" fill="white"/>
<path d="M110.625 39.6758C110.599 39.8411 110.461 39.9569 110.316 39.9344C110.171 39.912 110.074 39.7598 110.1 39.5946C110.125 39.4293 110.264 39.3135 110.409 39.3359C110.554 39.3584 110.65 39.5105 110.625 39.6758Z" fill="white"/>
<path d="M111.54 39.6758C111.514 39.8411 111.376 39.9569 111.231 39.9344C111.086 39.912 110.989 39.7598 111.015 39.5946C111.04 39.4293 111.179 39.3135 111.324 39.3359C111.468 39.3584 111.565 39.5105 111.54 39.6758Z" fill="white"/>
<path d="M112.5 39.5843C112.475 39.7496 112.337 39.8654 112.192 39.8429C112.047 39.8205 111.95 39.6683 111.975 39.5031C112.001 39.3378 112.139 39.222 112.284 39.2444C112.429 39.2669 112.526 39.419 112.5 39.5843Z" fill="white"/>
<path d="M113.461 39.3556C113.436 39.5208 113.297 39.6366 113.152 39.6142C113.007 39.5918 112.911 39.4396 112.936 39.2743C112.962 39.109 113.1 38.9933 113.245 39.0157C113.39 39.0381 113.487 39.1903 113.461 39.3556Z" fill="white"/>
<path d="M114.376 38.9896C114.351 39.1549 114.212 39.2707 114.067 39.2482C113.922 39.2258 113.826 39.0736 113.851 38.9083C113.877 38.7431 114.015 38.6273 114.16 38.6497C114.305 38.6722 114.402 38.8243 114.376 38.9896Z" fill="white"/>
<path d="M115.245 38.4864C115.22 38.6516 115.081 38.7674 114.936 38.745C114.792 38.7225 114.695 38.5704 114.72 38.4051C114.746 38.2398 114.884 38.124 115.029 38.1465C115.174 38.1689 115.271 38.3211 115.245 38.4864Z" fill="white"/>
<path d="M116.069 37.8916C116.043 38.0569 115.905 38.1727 115.76 38.1503C115.615 38.1278 115.518 37.9756 115.544 37.8104C115.569 37.6451 115.708 37.5293 115.853 37.5517C115.998 37.5742 116.094 37.7264 116.069 37.8916Z" fill="white"/>
<path d="M116.847 37.2054C116.821 37.3707 116.683 37.4865 116.538 37.464C116.393 37.4416 116.296 37.2894 116.322 37.1241C116.347 36.9589 116.485 36.8431 116.63 36.8655C116.775 36.888 116.872 37.0401 116.847 37.2054Z" fill="white"/>
<path d="M117.578 36.4734C117.553 36.6387 117.415 36.7545 117.27 36.7321C117.125 36.7096 117.028 36.5574 117.053 36.3922C117.079 36.2269 117.217 36.1111 117.362 36.1335C117.507 36.156 117.604 36.3082 117.578 36.4734Z" fill="white"/>
<path d="M108.681 40.5076C108.681 40.7224 108.507 40.8965 108.292 40.8965C108.077 40.8965 107.903 40.7224 107.903 40.5076C107.903 40.2929 108.077 40.1188 108.292 40.1188C108.507 40.1188 108.681 40.2929 108.681 40.5076Z" fill="white"/>
<path d="M109.962 40.7821C109.962 40.9969 109.788 41.171 109.573 41.171C109.358 41.171 109.184 40.9969 109.184 40.7821C109.184 40.5674 109.358 40.3933 109.573 40.3933C109.788 40.3933 109.962 40.5674 109.962 40.7821Z" fill="white"/>
<path d="M111.243 40.9194C111.243 41.1341 111.069 41.3082 110.854 41.3082C110.639 41.3082 110.465 41.1341 110.465 40.9194C110.465 40.7046 110.639 40.5305 110.854 40.5305C111.069 40.5305 111.243 40.7046 111.243 40.9194Z" fill="white"/>
<path d="M112.615 40.9194C112.615 41.1341 112.441 41.3082 112.226 41.3082C112.012 41.3082 111.838 41.1341 111.838 40.9194C111.838 40.7046 112.012 40.5305 112.226 40.5305C112.441 40.5305 112.615 40.7046 112.615 40.9194Z" fill="white"/>
<path d="M113.896 40.7821C113.896 40.9969 113.722 41.171 113.507 41.171C113.293 41.171 113.119 40.9969 113.119 40.7821C113.119 40.5674 113.293 40.3933 113.507 40.3933C113.722 40.3933 113.896 40.5674 113.896 40.7821Z" fill="white"/>
<path d="M115.177 40.5076C115.177 40.7224 115.003 40.8965 114.788 40.8965C114.574 40.8965 114.4 40.7224 114.4 40.5076C114.4 40.2929 114.574 40.1188 114.788 40.1188C115.003 40.1188 115.177 40.2929 115.177 40.5076Z" fill="white"/>
<path d="M116.412 40.0044C116.412 40.2192 116.238 40.3933 116.024 40.3933C115.809 40.3933 115.635 40.2192 115.635 40.0044C115.635 39.7896 115.809 39.6155 116.024 39.6155C116.238 39.6155 116.412 39.7896 116.412 40.0044Z" fill="white"/>
<path d="M117.602 39.4554C117.602 39.6702 117.428 39.8443 117.213 39.8443C116.998 39.8443 116.824 39.6702 116.824 39.4554C116.824 39.2407 116.998 39.0666 117.213 39.0666C117.428 39.0666 117.602 39.2407 117.602 39.4554Z" fill="white"/>
<path d="M118.7 38.6777C118.7 38.8925 118.526 39.0666 118.311 39.0666C118.096 39.0666 117.922 38.8925 117.922 38.6777C117.922 38.4629 118.096 38.2888 118.311 38.2888C118.526 38.2888 118.7 38.4629 118.7 38.6777Z" fill="white"/>
<path d="M119.706 37.9C119.706 38.1147 119.532 38.2888 119.317 38.2888C119.103 38.2888 118.929 38.1147 118.929 37.9C118.929 37.6852 119.103 37.5111 119.317 37.5111C119.532 37.5111 119.706 37.6852 119.706 37.9Z" fill="white"/>
<path d="M120.621 36.8935C120.621 37.1083 120.447 37.2824 120.232 37.2824C120.018 37.2824 119.844 37.1083 119.844 36.8935C119.844 36.6788 120.018 36.5047 120.232 36.5047C120.447 36.5047 120.621 36.6788 120.621 36.8935Z" fill="white"/>
<path d="M121.399 35.8413C121.399 36.0561 121.225 36.2302 121.01 36.2302C120.795 36.2302 120.621 36.0561 120.621 35.8413C120.621 35.6265 120.795 35.4524 121.01 35.4524C121.225 35.4524 121.399 35.6265 121.399 35.8413Z" fill="white"/>
<path d="M122.04 34.6976C122.04 34.9124 121.865 35.0865 121.651 35.0865C121.436 35.0865 121.262 34.9124 121.262 34.6976C121.262 34.4828 121.436 34.3087 121.651 34.3087C121.865 34.3087 122.04 34.4828 122.04 34.6976Z" fill="white"/>
<path d="M122.589 33.5081C122.589 33.7229 122.414 33.897 122.2 33.897C121.985 33.897 121.811 33.7229 121.811 33.5081C121.811 33.2934 121.985 33.1193 122.2 33.1193C122.414 33.1193 122.589 33.2934 122.589 33.5081Z" fill="white"/>
<path d="M122.954 32.2729C122.954 32.4877 122.78 32.6618 122.566 32.6618C122.351 32.6618 122.177 32.4877 122.177 32.2729C122.177 32.0582 122.351 31.8841 122.566 31.8841C122.78 31.8841 122.954 32.0582 122.954 32.2729Z" fill="white"/>
<path d="M123.183 30.9462C123.183 31.161 123.009 31.3351 122.794 31.3351C122.58 31.3351 122.406 31.161 122.406 30.9462C122.406 30.7315 122.58 30.5574 122.794 30.5574C123.009 30.5574 123.183 30.7315 123.183 30.9462Z" fill="white"/>
<path d="M123.183 29.6195C123.183 29.8343 123.009 30.0084 122.794 30.0084C122.58 30.0084 122.406 29.8343 122.406 29.6195C122.406 29.4048 122.58 29.2307 122.794 29.2307C123.009 29.2307 123.183 29.4048 123.183 29.6195Z" fill="white"/>
<path d="M123.183 28.2928C123.183 28.5076 123.009 28.6817 122.794 28.6817C122.58 28.6817 122.406 28.5076 122.406 28.2928C122.406 28.0781 122.58 27.904 122.794 27.904C123.009 27.904 123.183 28.0781 123.183 28.2928Z" fill="white"/>
<path d="M122.954 27.0576C122.954 27.2724 122.78 27.4465 122.566 27.4465C122.351 27.4465 122.177 27.2724 122.177 27.0576C122.177 26.8429 122.351 26.6688 122.566 26.6688C122.78 26.6688 122.954 26.8429 122.954 27.0576Z" fill="white"/>
<path d="M122.589 25.7309C122.589 25.9457 122.414 26.1198 122.2 26.1198C121.985 26.1198 121.811 25.9457 121.811 25.7309C121.811 25.5162 121.985 25.3421 122.2 25.3421C122.414 25.3421 122.589 25.5162 122.589 25.7309Z" fill="white"/>
<path d="M122.04 24.5872C122.04 24.802 121.865 24.9761 121.651 24.9761C121.436 24.9761 121.262 24.802 121.262 24.5872C121.262 24.3724 121.436 24.1983 121.651 24.1983C121.865 24.1983 122.04 24.3724 122.04 24.5872Z" fill="white"/>
<path d="M121.399 23.4435C121.399 23.6583 121.225 23.8324 121.01 23.8324C120.795 23.8324 120.621 23.6583 120.621 23.4435C120.621 23.2287 120.795 23.0546 121.01 23.0546C121.225 23.0546 121.399 23.2287 121.399 23.4435Z" fill="white"/>
<path d="M120.621 22.437C120.621 22.6518 120.447 22.8259 120.232 22.8259C120.018 22.8259 119.844 22.6518 119.844 22.437C119.844 22.2223 120.018 22.0482 120.232 22.0482C120.447 22.0482 120.621 22.2223 120.621 22.437Z" fill="white"/>
<path d="M119.661 21.3848C119.661 21.5996 119.487 21.7737 119.272 21.7737C119.057 21.7737 118.883 21.5996 118.883 21.3848C118.883 21.1701 119.057 20.996 119.272 20.996C119.487 20.996 119.661 21.1701 119.661 21.3848Z" fill="white"/>
<path d="M118.7 20.6071C118.7 20.8219 118.526 20.996 118.311 20.996C118.096 20.996 117.922 20.8219 117.922 20.6071C117.922 20.3923 118.096 20.2182 118.311 20.2182C118.526 20.2182 118.7 20.3923 118.7 20.6071Z" fill="white"/>
<path d="M117.602 19.8294C117.602 20.0441 117.428 20.2182 117.213 20.2182C116.998 20.2182 116.824 20.0441 116.824 19.8294C116.824 19.6146 116.998 19.4405 117.213 19.4405C117.428 19.4405 117.602 19.6146 117.602 19.8294Z" fill="white"/>
<path d="M116.458 19.2804C116.458 19.4952 116.284 19.6693 116.069 19.6693C115.855 19.6693 115.681 19.4952 115.681 19.2804C115.681 19.0656 115.855 18.8915 116.069 18.8915C116.284 18.8915 116.458 19.0656 116.458 19.2804Z" fill="white"/>
<path d="M115.177 18.7772C115.177 18.9919 115.003 19.166 114.788 19.166C114.574 19.166 114.4 18.9919 114.4 18.7772C114.4 18.5624 114.574 18.3883 114.788 18.3883C115.003 18.3883 115.177 18.5624 115.177 18.7772Z" fill="white"/>
<path d="M113.942 18.5027C113.942 18.7174 113.768 18.8915 113.553 18.8915C113.338 18.8915 113.164 18.7174 113.164 18.5027C113.164 18.2879 113.338 18.1138 113.553 18.1138C113.768 18.1138 113.942 18.2879 113.942 18.5027Z" fill="white"/>
<path d="M112.57 18.3654C112.57 18.5802 112.396 18.7543 112.181 18.7543C111.966 18.7543 111.792 18.5802 111.792 18.3654C111.792 18.1507 111.966 17.9766 112.181 17.9766C112.396 17.9766 112.57 18.1507 112.57 18.3654Z" fill="white"/>
<path d="M111.334 18.3654C111.334 18.5802 111.16 18.7543 110.946 18.7543C110.731 18.7543 110.557 18.5802 110.557 18.3654C110.557 18.1507 110.731 17.9766 110.946 17.9766C111.16 17.9766 111.334 18.1507 111.334 18.3654Z" fill="white"/>
<path d="M109.962 18.5027C109.962 18.7174 109.788 18.8915 109.573 18.8915C109.358 18.8915 109.184 18.7174 109.184 18.5027C109.184 18.2879 109.358 18.1138 109.573 18.1138C109.788 18.1138 109.962 18.2879 109.962 18.5027Z" fill="white"/>
<path d="M108.681 18.7772C108.681 18.9919 108.507 19.166 108.292 19.166C108.077 19.166 107.903 18.9919 107.903 18.7772C107.903 18.5624 108.077 18.3883 108.292 18.3883C108.507 18.3883 108.681 18.5624 108.681 18.7772Z" fill="white"/>
<path d="M107.492 19.2804C107.492 19.4952 107.317 19.6693 107.103 19.6693C106.888 19.6693 106.714 19.4952 106.714 19.2804C106.714 19.0656 106.888 18.8915 107.103 18.8915C107.317 18.8915 107.492 19.0656 107.492 19.2804Z" fill="white"/>
<path d="M106.256 19.8751C106.256 20.0899 106.082 20.264 105.867 20.264C105.653 20.264 105.479 20.0899 105.479 19.8751C105.479 19.6604 105.653 19.4863 105.867 19.4863C106.082 19.4863 106.256 19.6604 106.256 19.8751Z" fill="white"/>
<path d="M105.158 20.5613C105.158 20.7761 104.984 20.9502 104.77 20.9502C104.555 20.9502 104.381 20.7761 104.381 20.5613C104.381 20.3466 104.555 20.1725 104.77 20.1725C104.984 20.1725 105.158 20.3466 105.158 20.5613Z" fill="white"/>
<path d="M104.152 21.4306C104.152 21.6453 103.978 21.8194 103.763 21.8194C103.548 21.8194 103.374 21.6453 103.374 21.4306C103.374 21.2158 103.548 21.0417 103.763 21.0417C103.978 21.0417 104.152 21.2158 104.152 21.4306Z" fill="white"/>
<path d="M103.283 22.3913C103.283 22.606 103.109 22.7801 102.894 22.7801C102.679 22.7801 102.505 22.606 102.505 22.3913C102.505 22.1765 102.679 22.0024 102.894 22.0024C103.109 22.0024 103.283 22.1765 103.283 22.3913Z" fill="white"/>
<path d="M102.505 23.4435C102.505 23.6583 102.331 23.8324 102.116 23.8324C101.901 23.8324 101.727 23.6583 101.727 23.4435C101.727 23.2287 101.901 23.0546 102.116 23.0546C102.331 23.0546 102.505 23.2287 102.505 23.4435Z" fill="white"/>
<path d="M101.819 24.5872C101.819 24.802 101.645 24.9761 101.43 24.9761C101.215 24.9761 101.041 24.802 101.041 24.5872C101.041 24.3724 101.215 24.1983 101.43 24.1983C101.645 24.1983 101.819 24.3724 101.819 24.5872Z" fill="white"/>
<path d="M101.27 25.7767C101.27 25.9914 101.096 26.1655 100.881 26.1655C100.666 26.1655 100.492 25.9914 100.492 25.7767C100.492 25.5619 100.666 25.3878 100.881 25.3878C101.096 25.3878 101.27 25.5619 101.27 25.7767Z" fill="white"/>
<path d="M100.904 27.0119C100.904 27.2266 100.73 27.4007 100.515 27.4007C100.3 27.4007 100.126 27.2266 100.126 27.0119C100.126 26.7971 100.3 26.623 100.515 26.623C100.73 26.623 100.904 26.7971 100.904 27.0119Z" fill="white"/>
<path d="M100.721 28.3843C100.721 28.5991 100.547 28.7732 100.332 28.7732C100.117 28.7732 99.9431 28.5991 99.9431 28.3843C99.9431 28.1696 100.117 27.9955 100.332 27.9955C100.547 27.9955 100.721 28.1696 100.721 28.3843Z" fill="white"/>
<path d="M100.629 29.711C100.629 29.9258 100.455 30.0999 100.24 30.0999C100.026 30.0999 99.8516 29.9258 99.8516 29.711C99.8516 29.4963 100.026 29.3222 100.24 29.3222C100.455 29.3222 100.629 29.4963 100.629 29.711Z" fill="white"/>
<path d="M100.721 30.9462C100.721 31.161 100.547 31.3351 100.332 31.3351C100.117 31.3351 99.9431 31.161 99.9431 30.9462C99.9431 30.7315 100.117 30.5574 100.332 30.5574C100.547 30.5574 100.721 30.7315 100.721 30.9462Z" fill="white"/>
<path d="M100.904 32.2729C100.904 32.4877 100.73 32.6618 100.515 32.6618C100.3 32.6618 100.126 32.4877 100.126 32.2729C100.126 32.0582 100.3 31.8841 100.515 31.8841C100.73 31.8841 100.904 32.0582 100.904 32.2729Z" fill="white"/>
<path d="M101.316 33.5081C101.316 33.7229 101.141 33.897 100.927 33.897C100.712 33.897 100.538 33.7229 100.538 33.5081C100.538 33.2934 100.712 33.1193 100.927 33.1193C101.141 33.1193 101.316 33.2934 101.316 33.5081Z" fill="white"/>
<path d="M101.819 34.6976C101.819 34.9124 101.645 35.0865 101.43 35.0865C101.215 35.0865 101.041 34.9124 101.041 34.6976C101.041 34.4828 101.215 34.3087 101.43 34.3087C101.645 34.3087 101.819 34.4828 101.819 34.6976Z" fill="white"/>
<path d="M102.505 35.8413C102.505 36.0561 102.331 36.2302 102.116 36.2302C101.901 36.2302 101.727 36.0561 101.727 35.8413C101.727 35.6265 101.901 35.4524 102.116 35.4524C102.331 35.4524 102.505 35.6265 102.505 35.8413Z" fill="white"/>
<path d="M103.283 36.8935C103.283 37.1083 103.109 37.2824 102.894 37.2824C102.679 37.2824 102.505 37.1083 102.505 36.8935C102.505 36.6788 102.679 36.5047 102.894 36.5047C103.109 36.5047 103.283 36.6788 103.283 36.8935Z" fill="white"/>
<path d="M104.198 37.9C104.198 38.1147 104.024 38.2888 103.809 38.2888C103.594 38.2888 103.42 38.1147 103.42 37.9C103.42 37.6852 103.594 37.5111 103.809 37.5111C104.024 37.5111 104.198 37.6852 104.198 37.9Z" fill="white"/>
<path d="M105.158 38.6777C105.158 38.8925 104.984 39.0666 104.77 39.0666C104.555 39.0666 104.381 38.8925 104.381 38.6777C104.381 38.4629 104.555 38.2888 104.77 38.2888C104.984 38.2888 105.158 38.4629 105.158 38.6777Z" fill="white"/>
<path d="M106.256 39.4554C106.256 39.6702 106.082 39.8443 105.867 39.8443C105.653 39.8443 105.479 39.6702 105.479 39.4554C105.479 39.2407 105.653 39.0666 105.867 39.0666C106.082 39.0666 106.256 39.2407 106.256 39.4554Z" fill="white"/>
<path d="M107.492 40.0044C107.492 40.2192 107.317 40.3933 107.103 40.3933C106.888 40.3933 106.714 40.2192 106.714 40.0044C106.714 39.7896 106.888 39.6155 107.103 39.6155C107.317 39.6155 107.492 39.7896 107.492 40.0044Z" fill="white"/>
<path d="M106.394 28.4758C106.394 28.5895 106.301 28.6817 106.188 28.6817C106.074 28.6817 105.982 28.5895 105.982 28.4758C105.982 28.3621 106.074 28.2699 106.188 28.2699C106.301 28.2699 106.394 28.3621 106.394 28.4758Z" fill="white"/>
<path d="M106.668 27.8353C106.668 27.949 106.576 28.0412 106.462 28.0412C106.349 28.0412 106.256 27.949 106.256 27.8353C106.256 27.7216 106.349 27.6295 106.462 27.6295C106.576 27.6295 106.668 27.7216 106.668 27.8353Z" fill="white"/>
<path d="M107.08 27.2406C107.08 27.3543 106.988 27.4465 106.874 27.4465C106.76 27.4465 106.668 27.3543 106.668 27.2406C106.668 27.1269 106.76 27.0347 106.874 27.0347C106.988 27.0347 107.08 27.1269 107.08 27.2406Z" fill="white"/>
<path d="M107.492 26.6916C107.492 26.8053 107.399 26.8975 107.286 26.8975C107.172 26.8975 107.08 26.8053 107.08 26.6916C107.08 26.5779 107.172 26.4858 107.286 26.4858C107.399 26.4858 107.492 26.5779 107.492 26.6916Z" fill="white"/>
<path d="M107.995 26.2341C107.995 26.3478 107.903 26.44 107.789 26.44C107.675 26.44 107.583 26.3478 107.583 26.2341C107.583 26.1204 107.675 26.0283 107.789 26.0283C107.903 26.0283 107.995 26.1204 107.995 26.2341Z" fill="white"/>
<path d="M108.544 25.8224C108.544 25.9361 108.452 26.0283 108.338 26.0283C108.224 26.0283 108.132 25.9361 108.132 25.8224C108.132 25.7087 108.224 25.6165 108.338 25.6165C108.452 25.6165 108.544 25.7087 108.544 25.8224Z" fill="white"/>
<path d="M109.184 25.4564C109.184 25.5701 109.092 25.6623 108.978 25.6623C108.865 25.6623 108.772 25.5701 108.772 25.4564C108.772 25.3427 108.865 25.2506 108.978 25.2506C109.092 25.2506 109.184 25.3427 109.184 25.4564Z" fill="white"/>
<path d="M109.825 25.2277C109.825 25.3414 109.733 25.4335 109.619 25.4335C109.505 25.4335 109.413 25.3414 109.413 25.2277C109.413 25.114 109.505 25.0218 109.619 25.0218C109.733 25.0218 109.825 25.114 109.825 25.2277Z" fill="white"/>
<path d="M110.465 25.0447C110.465 25.1584 110.373 25.2506 110.259 25.2506C110.146 25.2506 110.053 25.1584 110.053 25.0447C110.053 24.931 110.146 24.8388 110.259 24.8388C110.373 24.8388 110.465 24.931 110.465 25.0447Z" fill="white"/>
<path d="M111.197 24.9532C111.197 25.0669 111.105 25.1591 110.991 25.1591C110.878 25.1591 110.785 25.0669 110.785 24.9532C110.785 24.8395 110.878 24.7473 110.991 24.7473C111.105 24.7473 111.197 24.8395 111.197 24.9532Z" fill="white"/>
<path d="M111.883 24.9074C111.883 25.0211 111.791 25.1133 111.678 25.1133C111.564 25.1133 111.472 25.0211 111.472 24.9074C111.472 24.7937 111.564 24.7016 111.678 24.7016C111.791 24.7016 111.883 24.7937 111.883 24.9074Z" fill="white"/>
<path d="M112.57 24.9989C112.57 25.1126 112.477 25.2048 112.364 25.2048C112.25 25.2048 112.158 25.1126 112.158 24.9989C112.158 24.8852 112.25 24.7931 112.364 24.7931C112.477 24.7931 112.57 24.8852 112.57 24.9989Z" fill="white"/>
<path d="M113.256 25.1362C113.256 25.2499 113.164 25.3421 113.05 25.3421C112.936 25.3421 112.844 25.2499 112.844 25.1362C112.844 25.0225 112.936 24.9303 113.05 24.9303C113.164 24.9303 113.256 25.0225 113.256 25.1362Z" fill="white"/>
<path d="M113.942 25.3649C113.942 25.4786 113.85 25.5708 113.736 25.5708C113.622 25.5708 113.53 25.4786 113.53 25.3649C113.53 25.2512 113.622 25.1591 113.736 25.1591C113.85 25.1591 113.942 25.2512 113.942 25.3649Z" fill="white"/>
<path d="M114.583 25.7309C114.583 25.8446 114.49 25.9368 114.377 25.9368C114.263 25.9368 114.171 25.8446 114.171 25.7309C114.171 25.6172 114.263 25.525 114.377 25.525C114.49 25.525 114.583 25.6172 114.583 25.7309Z" fill="white"/>
<path d="M115.177 26.0969C115.177 26.2106 115.085 26.3028 114.971 26.3028C114.858 26.3028 114.766 26.2106 114.766 26.0969C114.766 25.9832 114.858 25.891 114.971 25.891C115.085 25.891 115.177 25.9832 115.177 26.0969Z" fill="white"/>
<path d="M115.772 26.5544C115.772 26.6681 115.68 26.7603 115.566 26.7603C115.452 26.7603 115.36 26.6681 115.36 26.5544C115.36 26.4407 115.452 26.3485 115.566 26.3485C115.68 26.3485 115.772 26.4407 115.772 26.5544Z" fill="white"/>
<path d="M116.275 27.0576C116.275 27.1713 116.183 27.2635 116.069 27.2635C115.956 27.2635 115.863 27.1713 115.863 27.0576C115.863 26.9439 115.956 26.8517 116.069 26.8517C116.183 26.8517 116.275 26.9439 116.275 27.0576Z" fill="white"/>
<path d="M116.733 27.6523C116.733 27.766 116.641 27.8582 116.527 27.8582C116.413 27.8582 116.321 27.766 116.321 27.6523C116.321 27.5386 116.413 27.4465 116.527 27.4465C116.641 27.4465 116.733 27.5386 116.733 27.6523Z" fill="white"/>
<path d="M117.144 28.2928C117.144 28.4065 117.052 28.4987 116.939 28.4987C116.825 28.4987 116.733 28.4065 116.733 28.2928C116.733 28.1791 116.825 28.087 116.939 28.087C117.052 28.087 117.144 28.1791 117.144 28.2928Z" fill="white"/>
<path d="M117.465 28.9333C117.465 29.047 117.373 29.1392 117.259 29.1392C117.145 29.1392 117.053 29.047 117.053 28.9333C117.053 28.8196 117.145 28.7274 117.259 28.7274C117.373 28.7274 117.465 28.8196 117.465 28.9333Z" fill="white"/>
<path d="M117.693 29.6195C117.693 29.7332 117.601 29.8254 117.488 29.8254C117.374 29.8254 117.282 29.7332 117.282 29.6195C117.282 29.5058 117.374 29.4137 117.488 29.4137C117.601 29.4137 117.693 29.5058 117.693 29.6195Z" fill="white"/>
<path d="M117.876 30.3515C117.876 30.4652 117.784 30.5574 117.671 30.5574C117.557 30.5574 117.465 30.4652 117.465 30.3515C117.465 30.2378 117.557 30.1456 117.671 30.1456C117.784 30.1456 117.876 30.2378 117.876 30.3515Z" fill="white"/>
<path d="M117.968 31.0835C117.968 31.1972 117.876 31.2893 117.762 31.2893C117.648 31.2893 117.556 31.1972 117.556 31.0835C117.556 30.9698 117.648 30.8776 117.762 30.8776C117.876 30.8776 117.968 30.9698 117.968 31.0835Z" fill="white"/>
<path d="M117.968 31.8154C117.968 31.9291 117.876 32.0213 117.762 32.0213C117.648 32.0213 117.556 31.9291 117.556 31.8154C117.556 31.7017 117.648 31.6096 117.762 31.6096C117.876 31.6096 117.968 31.7017 117.968 31.8154Z" fill="white"/>
<path d="M117.922 32.5474C117.922 32.6611 117.83 32.7533 117.716 32.7533C117.603 32.7533 117.51 32.6611 117.51 32.5474C117.51 32.4337 117.603 32.3416 117.716 32.3416C117.83 32.3416 117.922 32.4337 117.922 32.5474Z" fill="white"/>
<path d="M117.739 33.2336C117.739 33.3473 117.647 33.4395 117.533 33.4395C117.42 33.4395 117.327 33.3473 117.327 33.2336C117.327 33.1199 117.42 33.0278 117.533 33.0278C117.647 33.0278 117.739 33.1199 117.739 33.2336Z" fill="white"/>
<path d="M117.51 33.9199C117.51 34.0336 117.418 34.1257 117.305 34.1257C117.191 34.1257 117.099 34.0336 117.099 33.9199C117.099 33.8062 117.191 33.714 117.305 33.714C117.418 33.714 117.51 33.8062 117.51 33.9199Z" fill="white"/>
<path d="M117.19 34.5603C117.19 34.674 117.098 34.7662 116.984 34.7662C116.871 34.7662 116.778 34.674 116.778 34.5603C116.778 34.4467 116.871 34.3545 116.984 34.3545C117.098 34.3545 117.19 34.4467 117.19 34.5603Z" fill="white"/>
<path d="M116.824 35.1551C116.824 35.2688 116.732 35.3609 116.618 35.3609C116.505 35.3609 116.412 35.2688 116.412 35.1551C116.412 35.0414 116.505 34.9492 116.618 34.9492C116.732 34.9492 116.824 35.0414 116.824 35.1551Z" fill="white"/>
<path d="M116.412 35.7041C116.412 35.8178 116.32 35.9099 116.207 35.9099C116.093 35.9099 116.001 35.8178 116.001 35.7041C116.001 35.5904 116.093 35.4982 116.207 35.4982C116.32 35.4982 116.412 35.5904 116.412 35.7041Z" fill="white"/>
<path d="M115.909 36.1615C115.909 36.2752 115.817 36.3674 115.703 36.3674C115.59 36.3674 115.498 36.2752 115.498 36.1615C115.498 36.0478 115.59 35.9557 115.703 35.9557C115.817 35.9557 115.909 36.0478 115.909 36.1615Z" fill="white"/>
<path d="M115.36 36.5733C115.36 36.687 115.268 36.7791 115.154 36.7791C115.041 36.7791 114.949 36.687 114.949 36.5733C114.949 36.4596 115.041 36.3674 115.154 36.3674C115.268 36.3674 115.36 36.4596 115.36 36.5733Z" fill="white"/>
<path d="M114.72 36.9393C114.72 37.053 114.628 37.1451 114.514 37.1451C114.4 37.1451 114.308 37.053 114.308 36.9393C114.308 36.8256 114.4 36.7334 114.514 36.7334C114.628 36.7334 114.72 36.8256 114.72 36.9393Z" fill="white"/>
<path d="M114.079 37.168C114.079 37.2817 113.987 37.3739 113.873 37.3739C113.76 37.3739 113.668 37.2817 113.668 37.168C113.668 37.0543 113.76 36.9621 113.873 36.9621C113.987 36.9621 114.079 37.0543 114.079 37.168Z" fill="white"/>
<path d="M113.439 37.351C113.439 37.4647 113.347 37.5569 113.233 37.5569C113.119 37.5569 113.027 37.4647 113.027 37.351C113.027 37.2373 113.119 37.1451 113.233 37.1451C113.347 37.1451 113.439 37.2373 113.439 37.351Z" fill="white"/>
<path d="M112.021 37.4882C112.021 37.6019 111.928 37.6941 111.815 37.6941C111.701 37.6941 111.609 37.6019 111.609 37.4882C111.609 37.3745 111.701 37.2824 111.815 37.2824C111.928 37.2824 112.021 37.3745 112.021 37.4882Z" fill="white"/>
<path d="M111.334 37.3967C111.334 37.5104 111.242 37.6026 111.129 37.6026C111.015 37.6026 110.923 37.5104 110.923 37.3967C110.923 37.2831 111.015 37.1909 111.129 37.1909C111.242 37.1909 111.334 37.2831 111.334 37.3967Z" fill="white"/>
<path d="M110.648 37.2595C110.648 37.3732 110.556 37.4654 110.442 37.4654C110.329 37.4654 110.236 37.3732 110.236 37.2595C110.236 37.1458 110.329 37.0536 110.442 37.0536C110.556 37.0536 110.648 37.1458 110.648 37.2595Z" fill="white"/>
<path d="M109.962 36.985C109.962 37.0987 109.87 37.1909 109.756 37.1909C109.642 37.1909 109.55 37.0987 109.55 36.985C109.55 36.8713 109.642 36.7791 109.756 36.7791C109.87 36.7791 109.962 36.8713 109.962 36.985Z" fill="white"/>
<path d="M109.321 36.6648C109.321 36.7785 109.229 36.8706 109.116 36.8706C109.002 36.8706 108.91 36.7785 108.91 36.6648C108.91 36.5511 109.002 36.4589 109.116 36.4589C109.229 36.4589 109.321 36.5511 109.321 36.6648Z" fill="white"/>
<path d="M108.681 36.2988C108.681 36.4125 108.589 36.5047 108.475 36.5047C108.361 36.5047 108.269 36.4125 108.269 36.2988C108.269 36.1851 108.361 36.0929 108.475 36.0929C108.589 36.0929 108.681 36.1851 108.681 36.2988Z" fill="white"/>
<path d="M108.132 35.8413C108.132 35.955 108.04 36.0472 107.926 36.0472C107.812 36.0472 107.72 35.955 107.72 35.8413C107.72 35.7276 107.812 35.6354 107.926 35.6354C108.04 35.6354 108.132 35.7276 108.132 35.8413Z" fill="white"/>
<path d="M107.629 35.2923C107.629 35.406 107.537 35.4982 107.423 35.4982C107.309 35.4982 107.217 35.406 107.217 35.2923C107.217 35.1786 107.309 35.0865 107.423 35.0865C107.537 35.0865 107.629 35.1786 107.629 35.2923Z" fill="white"/>
<path d="M107.171 34.7433C107.171 34.857 107.079 34.9492 106.965 34.9492C106.852 34.9492 106.76 34.857 106.76 34.7433C106.76 34.6296 106.852 34.5375 106.965 34.5375C107.079 34.5375 107.171 34.6296 107.171 34.7433Z" fill="white"/>
<path d="M106.76 34.1029C106.76 34.2166 106.667 34.3087 106.554 34.3087C106.44 34.3087 106.348 34.2166 106.348 34.1029C106.348 33.9892 106.44 33.897 106.554 33.897C106.667 33.897 106.76 33.9892 106.76 34.1029Z" fill="white"/>
<path d="M106.439 33.4166C106.439 33.5303 106.347 33.6225 106.233 33.6225C106.12 33.6225 106.028 33.5303 106.028 33.4166C106.028 33.3029 106.12 33.2108 106.233 33.2108C106.347 33.2108 106.439 33.3029 106.439 33.4166Z" fill="white"/>
<path d="M106.211 32.7304C106.211 32.8441 106.118 32.9363 106.005 32.9363C105.891 32.9363 105.799 32.8441 105.799 32.7304C105.799 32.6167 105.891 32.5245 106.005 32.5245C106.118 32.5245 106.211 32.6167 106.211 32.7304Z" fill="white"/>
<path d="M106.028 31.9984C106.028 32.1121 105.935 32.2043 105.822 32.2043C105.708 32.2043 105.616 32.1121 105.616 31.9984C105.616 31.8847 105.708 31.7926 105.822 31.7926C105.935 31.7926 106.028 31.8847 106.028 31.9984Z" fill="white"/>
<path d="M105.936 31.3122C105.936 31.4259 105.844 31.5181 105.73 31.5181C105.617 31.5181 105.524 31.4259 105.524 31.3122C105.524 31.1985 105.617 31.1063 105.73 31.1063C105.844 31.1063 105.936 31.1985 105.936 31.3122Z" fill="white"/>
<path d="M105.936 30.5802C105.936 30.6939 105.844 30.7861 105.73 30.7861C105.617 30.7861 105.524 30.6939 105.524 30.5802C105.524 30.4665 105.617 30.3744 105.73 30.3744C105.844 30.3744 105.936 30.4665 105.936 30.5802Z" fill="white"/>
<path d="M105.982 29.8483C105.982 29.962 105.89 30.0541 105.776 30.0541C105.662 30.0541 105.57 29.962 105.57 29.8483C105.57 29.7346 105.662 29.6424 105.776 29.6424C105.89 29.6424 105.982 29.7346 105.982 29.8483Z" fill="white"/>
<path d="M106.165 29.1163C106.165 29.23 106.073 29.3222 105.959 29.3222C105.845 29.3222 105.753 29.23 105.753 29.1163C105.753 29.0026 105.845 28.9104 105.959 28.9104C106.073 28.9104 106.165 29.0026 106.165 29.1163Z" fill="white"/>
<path d="M112.753 37.4425C112.753 37.5562 112.66 37.6484 112.547 37.6484C112.433 37.6484 112.341 37.5562 112.341 37.4425C112.341 37.3288 112.433 37.2366 112.547 37.2366C112.66 37.2366 112.753 37.3288 112.753 37.4425Z" fill="white"/>
<path d="M84.4791 85.5056C84.4213 85.3288 84.3452 85.1704 84.2507 85.0303C84.1579 84.8885 84.0467 84.7677 83.9171 84.6679C83.7893 84.5681 83.644 84.492 83.4812 84.4395C83.3184 84.3869 83.1398 84.3607 82.9455 84.3607C82.6269 84.3607 82.3371 84.443 82.0763 84.6075C81.8154 84.7721 81.608 85.0146 81.4539 85.335C81.2998 85.6553 81.2228 86.0484 81.2228 86.514C81.2228 86.9797 81.3007 87.3728 81.4565 87.6931C81.6123 88.0135 81.8233 88.256 82.0894 88.4206C82.3555 88.5851 82.6549 88.6674 82.9875 88.6674C83.2956 88.6674 83.567 88.6018 83.8016 88.4705C84.0379 88.3374 84.2218 88.1501 84.3531 87.9085C84.4861 87.6651 84.5527 87.3789 84.5527 87.0498L84.7522 87.0918H83.1346V86.514H85.1829V87.0918C85.1829 87.5347 85.0884 87.9199 84.8993 88.2472C84.712 88.5746 84.4529 88.8285 84.122 89.0088C83.7928 89.1874 83.4147 89.2767 82.9875 89.2767C82.5113 89.2767 82.0929 89.1646 81.7323 88.9405C81.3734 88.7164 81.0933 88.3978 80.8919 87.9846C80.6924 87.5715 80.5926 87.0813 80.5926 86.514C80.5926 86.0886 80.6495 85.7061 80.7633 85.3665C80.8788 85.0251 81.0416 84.7345 81.2517 84.4946C81.4618 84.2548 81.7104 84.0709 81.9975 83.9431C82.2846 83.8153 82.6006 83.7514 82.9455 83.7514C83.2291 83.7514 83.4935 83.7943 83.7386 83.8801C83.9854 83.9642 84.2051 84.0841 84.3977 84.2399C84.592 84.394 84.754 84.5786 84.8835 84.794C85.0131 85.0076 85.1024 85.2448 85.1514 85.5056H84.4791ZM88.7563 87.554V85.1695H89.376V89.2031H88.7563V88.5204H88.7143C88.6197 88.7252 88.4727 88.8994 88.2731 89.0429C88.0735 89.1847 87.8214 89.2556 87.5168 89.2556C87.2647 89.2556 87.0406 89.2005 86.8445 89.0902C86.6485 88.9782 86.4944 88.8101 86.3824 88.586C86.2703 88.3602 86.2143 88.0757 86.2143 87.7325V85.1695H86.834V87.6905C86.834 87.9846 86.9163 88.2192 87.0809 88.3943C87.2472 88.5694 87.459 88.6569 87.7164 88.6569C87.8704 88.6569 88.0271 88.6175 88.1864 88.5387C88.3475 88.46 88.4823 88.3392 88.5909 88.1763C88.7012 88.0135 88.7563 87.8061 88.7563 87.554ZM90.5112 89.2031V85.1695H91.1309V89.2031H90.5112ZM90.8263 84.4972C90.7055 84.4972 90.6013 84.4561 90.5138 84.3738C90.428 84.2915 90.3851 84.1926 90.3851 84.0771C90.3851 83.9615 90.428 83.8626 90.5138 83.7803C90.6013 83.698 90.7055 83.6569 90.8263 83.6569C90.9471 83.6569 91.0504 83.698 91.1362 83.7803C91.2237 83.8626 91.2675 83.9615 91.2675 84.0771C91.2675 84.1926 91.2237 84.2915 91.1362 84.3738C91.0504 84.4561 90.9471 84.4972 90.8263 84.4972ZM93.7891 89.2872C93.453 89.2872 93.1562 89.2022 92.8989 89.0324C92.6415 88.8609 92.4402 88.6193 92.2949 88.3076C92.1496 87.9943 92.0769 87.624 92.0769 87.1968C92.0769 86.7732 92.1496 86.4055 92.2949 86.0939C92.4402 85.7823 92.6424 85.5415 92.9015 85.3717C93.1606 85.2019 93.46 85.117 93.7996 85.117C94.0622 85.117 94.2697 85.1608 94.422 85.2483C94.5761 85.3341 94.6934 85.4321 94.7739 85.5424C94.8562 85.651 94.9201 85.7402 94.9656 85.8103H95.0181V83.825H95.6379V89.2031H95.0391V88.5834H94.9656C94.9201 88.6569 94.8553 88.7497 94.7713 88.8617C94.6872 88.972 94.5673 89.0709 94.4115 89.1585C94.2557 89.2443 94.0482 89.2872 93.7891 89.2872ZM93.8732 88.7304C94.1218 88.7304 94.3318 88.6657 94.5034 88.5361C94.675 88.4048 94.8054 88.2236 94.8947 87.9925C94.984 87.7597 95.0286 87.4909 95.0286 87.1863C95.0286 86.8852 94.9849 86.6217 94.8973 86.3959C94.8098 86.1683 94.6802 85.9915 94.5087 85.8654C94.3371 85.7376 94.1253 85.6737 93.8732 85.6737C93.6106 85.6737 93.3917 85.7411 93.2166 85.8759C93.0433 86.009 92.9129 86.1902 92.8254 86.4195C92.7396 86.6471 92.6967 86.9027 92.6967 87.1863C92.6967 87.4734 92.7405 87.7343 92.828 87.9689C92.9173 88.2017 93.0486 88.3873 93.2219 88.5256C93.397 88.6622 93.6141 88.7304 93.8732 88.7304ZM98.5502 89.2872C98.1615 89.2872 97.8262 89.2014 97.5444 89.0298C97.2643 88.8565 97.0481 88.6149 96.8957 88.305C96.7452 87.9934 96.6699 87.631 96.6699 87.2178C96.6699 86.8047 96.7452 86.4405 96.8957 86.1254C97.0481 85.8085 97.2599 85.5617 97.5312 85.3848C97.8044 85.2063 98.123 85.117 98.4871 85.117C98.6972 85.117 98.9047 85.152 99.1095 85.222C99.3143 85.2921 99.5008 85.4059 99.6689 85.5634C99.8369 85.7192 99.9708 85.9258 100.071 86.1832C100.17 86.4405 100.22 86.7574 100.22 87.1338V87.3964H97.1111V86.8607H99.5901C99.5901 86.6331 99.5446 86.43 99.4535 86.2514C99.3642 86.0729 99.2364 85.9319 99.0701 85.8287C98.9055 85.7254 98.7112 85.6737 98.4871 85.6737C98.2403 85.6737 98.0267 85.735 97.8464 85.8575C97.6678 85.9783 97.5304 86.1359 97.4341 86.3302C97.3378 86.5246 97.2897 86.7329 97.2897 86.9552V87.3124C97.2897 87.617 97.3422 87.8752 97.4472 88.0871C97.554 88.2971 97.7019 88.4573 97.891 88.5676C98.0801 88.6762 98.2998 88.7304 98.5502 88.7304C98.713 88.7304 98.86 88.7077 98.9913 88.6622C99.1244 88.6149 99.2391 88.5449 99.3353 88.4521C99.4316 88.3575 99.506 88.2402 99.5586 88.1002L100.157 88.2683C100.094 88.4713 99.9884 88.6499 99.8395 88.804C99.6907 88.9563 99.5069 89.0753 99.2881 89.1611C99.0692 89.2451 98.8233 89.2872 98.5502 89.2872ZM104.987 89.2031H103.327V83.825H105.06C105.582 83.825 106.028 83.9326 106.399 84.148C106.771 84.3616 107.055 84.6688 107.253 85.0697C107.451 85.4689 107.55 85.9468 107.55 86.5035C107.55 87.0638 107.45 87.5461 107.25 87.9505C107.051 88.3532 106.76 88.663 106.378 88.8801C105.997 89.0955 105.533 89.2031 104.987 89.2031ZM103.978 88.6254H104.945C105.389 88.6254 105.758 88.5396 106.05 88.368C106.343 88.1965 106.56 87.9522 106.704 87.6354C106.848 87.3185 106.919 86.9412 106.919 86.5035C106.919 86.0694 106.848 85.6956 106.707 85.3822C106.565 85.0671 106.353 84.8255 106.071 84.6574C105.789 84.4876 105.438 84.4027 105.018 84.4027H103.978V88.6254ZM110.249 89.2872C109.861 89.2872 109.525 89.2014 109.243 89.0298C108.963 88.8565 108.747 88.6149 108.595 88.305C108.444 87.9934 108.369 87.631 108.369 87.2178C108.369 86.8047 108.444 86.4405 108.595 86.1254C108.747 85.8085 108.959 85.5617 109.23 85.3848C109.503 85.2063 109.822 85.117 110.186 85.117C110.396 85.117 110.604 85.152 110.809 85.222C111.013 85.2921 111.2 85.4059 111.368 85.5634C111.536 85.7192 111.67 85.9258 111.77 86.1832C111.869 86.4405 111.919 86.7574 111.919 87.1338V87.3964H108.81V86.8607H111.289C111.289 86.6331 111.244 86.43 111.153 86.2514C111.063 86.0729 110.935 85.9319 110.769 85.8287C110.605 85.7254 110.41 85.6737 110.186 85.6737C109.939 85.6737 109.726 85.735 109.545 85.8575C109.367 85.9783 109.229 86.1359 109.133 86.3302C109.037 86.5246 108.989 86.7329 108.989 86.9552V87.3124C108.989 87.617 109.041 87.8752 109.146 88.0871C109.253 88.2971 109.401 88.4573 109.59 88.5676C109.779 88.6762 109.999 88.7304 110.249 88.7304C110.412 88.7304 110.559 88.7077 110.69 88.6622C110.823 88.6149 110.938 88.5449 111.034 88.4521C111.131 88.3575 111.205 88.2402 111.258 88.1002L111.856 88.2683C111.793 88.4713 111.687 88.6499 111.539 88.804C111.39 88.9563 111.206 89.0753 110.987 89.1611C110.768 89.2451 110.522 89.2872 110.249 89.2872ZM115.719 86.0729L115.163 86.2304C115.128 86.1376 115.076 86.0475 115.008 85.96C114.941 85.8707 114.85 85.7971 114.735 85.7394C114.619 85.6816 114.471 85.6527 114.291 85.6527C114.044 85.6527 113.838 85.7096 113.674 85.8234C113.511 85.9354 113.429 86.0781 113.429 86.2514C113.429 86.4055 113.485 86.5272 113.597 86.6165C113.709 86.7058 113.885 86.7802 114.123 86.8397L114.721 86.9867C115.082 87.0743 115.351 87.2082 115.528 87.3885C115.704 87.5671 115.793 87.7973 115.793 88.0792C115.793 88.3103 115.726 88.5169 115.593 88.6989C115.462 88.881 115.278 89.0246 115.042 89.1296C114.805 89.2346 114.531 89.2872 114.217 89.2872C113.806 89.2872 113.465 89.1979 113.196 89.0193C112.926 88.8407 112.755 88.5799 112.684 88.2367L113.272 88.0897C113.328 88.3068 113.434 88.4696 113.59 88.5781C113.747 88.6867 113.953 88.7409 114.207 88.7409C114.496 88.7409 114.725 88.6797 114.895 88.5571C115.066 88.4328 115.152 88.284 115.152 88.1107C115.152 87.9706 115.103 87.8533 115.005 87.7588C114.907 87.6625 114.756 87.5907 114.553 87.5435L113.881 87.3859C113.512 87.2984 113.24 87.1627 113.067 86.9789C112.895 86.7933 112.81 86.5613 112.81 86.283C112.81 86.0554 112.874 85.854 113.001 85.679C113.131 85.5039 113.307 85.3665 113.529 85.2667C113.753 85.1669 114.007 85.117 114.291 85.117C114.69 85.117 115.003 85.2045 115.231 85.3796C115.46 85.5547 115.623 85.7858 115.719 86.0729ZM118.364 89.2872C117.986 89.2872 117.661 89.1979 117.387 89.0193C117.114 88.8407 116.904 88.5948 116.757 88.2814C116.61 87.968 116.537 87.61 116.537 87.2073C116.537 86.7977 116.612 86.4361 116.762 86.1228C116.915 85.8076 117.127 85.5617 117.398 85.3848C117.671 85.2063 117.99 85.117 118.354 85.117C118.637 85.117 118.893 85.1695 119.121 85.2746C119.348 85.3796 119.535 85.5267 119.68 85.7157C119.825 85.9048 119.915 86.1254 119.95 86.3775H119.331C119.283 86.1937 119.178 86.0309 119.016 85.889C118.855 85.7455 118.637 85.6737 118.364 85.6737C118.123 85.6737 117.911 85.7367 117.729 85.8628C117.549 85.9871 117.408 86.163 117.306 86.3906C117.206 86.6165 117.156 86.8817 117.156 87.1863C117.156 87.4979 117.205 87.7693 117.303 88.0004C117.403 88.2315 117.543 88.4109 117.724 88.5387C117.906 88.6665 118.119 88.7304 118.364 88.7304C118.525 88.7304 118.672 88.7024 118.803 88.6464C118.934 88.5904 119.045 88.5098 119.136 88.4048C119.227 88.2998 119.292 88.1737 119.331 88.0267H119.95C119.915 88.2647 119.829 88.4792 119.691 88.67C119.554 88.8591 119.373 89.0097 119.147 89.1217C118.923 89.232 118.662 89.2872 118.364 89.2872ZM120.856 89.2031V85.1695H121.455V85.7788H121.497C121.571 85.5792 121.704 85.4172 121.896 85.2929C122.089 85.1686 122.306 85.1065 122.548 85.1065C122.593 85.1065 122.65 85.1074 122.718 85.1091C122.787 85.1109 122.838 85.1135 122.873 85.117V85.7472C122.852 85.742 122.804 85.7341 122.729 85.7236C122.655 85.7114 122.577 85.7052 122.495 85.7052C122.299 85.7052 122.124 85.7464 121.97 85.8287C121.818 85.9092 121.697 86.0212 121.608 86.1648C121.52 86.3066 121.476 86.4685 121.476 86.6506V89.2031H120.856ZM123.608 89.2031V85.1695H124.228V89.2031H123.608ZM123.923 84.4972C123.802 84.4972 123.698 84.4561 123.611 84.3738C123.525 84.2915 123.482 84.1926 123.482 84.0771C123.482 83.9615 123.525 83.8626 123.611 83.7803C123.698 83.698 123.802 83.6569 123.923 83.6569C124.044 83.6569 124.147 83.698 124.233 83.7803C124.32 83.8626 124.364 83.9615 124.364 84.0771C124.364 84.1926 124.32 84.2915 124.233 84.3738C124.147 84.4561 124.044 84.4972 123.923 84.4972ZM125.363 90.7157V85.1695H125.962V85.8103H126.035C126.081 85.7402 126.144 85.651 126.224 85.5424C126.306 85.4321 126.424 85.3341 126.576 85.2483C126.73 85.1608 126.938 85.117 127.201 85.117C127.541 85.117 127.84 85.2019 128.099 85.3717C128.358 85.5415 128.56 85.7823 128.706 86.0939C128.851 86.4055 128.924 86.7732 128.924 87.1968C128.924 87.624 128.851 87.9943 128.706 88.3076C128.56 88.6193 128.359 88.8609 128.102 89.0324C127.844 89.2022 127.548 89.2872 127.212 89.2872C126.952 89.2872 126.745 89.2443 126.589 89.1585C126.433 89.0709 126.313 88.972 126.229 88.8617C126.145 88.7497 126.081 88.6569 126.035 88.5834H125.983V90.7157H125.363ZM125.972 87.1863C125.972 87.4909 126.017 87.7597 126.106 87.9925C126.195 88.2236 126.326 88.4048 126.497 88.5361C126.669 88.6657 126.879 88.7304 127.127 88.7304C127.387 88.7304 127.603 88.6622 127.776 88.5256C127.951 88.3873 128.082 88.2017 128.17 87.9689C128.259 87.7343 128.304 87.4734 128.304 87.1863C128.304 86.9027 128.26 86.6471 128.173 86.4195C128.087 86.1902 127.956 86.009 127.781 85.8759C127.608 85.7411 127.39 85.6737 127.127 85.6737C126.875 85.6737 126.664 85.7376 126.492 85.8654C126.32 85.9915 126.191 86.1683 126.103 86.3959C126.016 86.6217 125.972 86.8852 125.972 87.1863ZM131.623 85.1695V85.6947H129.533V85.1695H131.623ZM130.142 84.2031H130.762V88.0477C130.762 88.2227 130.787 88.354 130.838 88.4416C130.891 88.5274 130.957 88.5851 131.038 88.6149C131.12 88.6429 131.207 88.6569 131.298 88.6569C131.366 88.6569 131.422 88.6534 131.466 88.6464C131.509 88.6376 131.545 88.6306 131.571 88.6254L131.697 89.1821C131.655 89.1979 131.596 89.2136 131.521 89.2294C131.446 89.2469 131.35 89.2556 131.235 89.2556C131.06 89.2556 130.888 89.218 130.72 89.1427C130.554 89.0674 130.415 88.9528 130.305 88.7987C130.196 88.6447 130.142 88.4503 130.142 88.2157V84.2031ZM132.556 89.2031V85.1695H133.175V89.2031H132.556ZM132.871 84.4972C132.75 84.4972 132.646 84.4561 132.558 84.3738C132.472 84.2915 132.429 84.1926 132.429 84.0771C132.429 83.9615 132.472 83.8626 132.558 83.7803C132.646 83.698 132.75 83.6569 132.871 83.6569C132.991 83.6569 133.095 83.698 133.181 83.7803C133.268 83.8626 133.312 83.9615 133.312 84.0771C133.312 84.1926 133.268 84.2915 133.181 84.3738C133.095 84.4561 132.991 84.4972 132.871 84.4972ZM135.949 89.2872C135.585 89.2872 135.265 89.2005 134.991 89.0272C134.717 88.8539 134.504 88.6114 134.35 88.2998C134.197 87.9881 134.121 87.624 134.121 87.2073C134.121 86.7872 134.197 86.4204 134.35 86.107C134.504 85.7936 134.717 85.5503 134.991 85.377C135.265 85.2037 135.585 85.117 135.949 85.117C136.313 85.117 136.632 85.2037 136.905 85.377C137.18 85.5503 137.393 85.7936 137.546 86.107C137.7 86.4204 137.777 86.7872 137.777 87.2073C137.777 87.624 137.7 87.9881 137.546 88.2998C137.393 88.6114 137.18 88.8539 136.905 89.0272C136.632 89.2005 136.313 89.2872 135.949 89.2872ZM135.949 88.7304C136.226 88.7304 136.453 88.6595 136.632 88.5177C136.81 88.3759 136.943 88.1895 137.028 87.9584C137.114 87.7273 137.157 87.4769 137.157 87.2073C137.157 86.9377 137.114 86.6865 137.028 86.4537C136.943 86.2208 136.81 86.0326 136.632 85.889C136.453 85.7455 136.226 85.6737 135.949 85.6737C135.672 85.6737 135.445 85.7455 135.266 85.889C135.088 86.0326 134.956 86.2208 134.87 86.4537C134.784 86.6865 134.741 86.9377 134.741 87.2073C134.741 87.4769 134.784 87.7273 134.87 87.9584C134.956 88.1895 135.088 88.3759 135.266 88.5177C135.445 88.6595 135.672 88.7304 135.949 88.7304ZM139.343 86.7767V89.2031H138.723V85.1695H139.322V85.7998H139.374C139.469 85.5949 139.612 85.4304 139.805 85.3061C139.997 85.18 140.246 85.117 140.551 85.117C140.824 85.117 141.063 85.173 141.267 85.2851C141.472 85.3954 141.632 85.5634 141.745 85.7893C141.859 86.0133 141.916 86.297 141.916 86.6401V89.2031H141.296V86.6821C141.296 86.3652 141.214 86.1184 141.049 85.9416C140.885 85.763 140.659 85.6737 140.372 85.6737C140.174 85.6737 139.997 85.7166 139.842 85.8024C139.687 85.8882 139.566 86.0133 139.476 86.1779C139.387 86.3425 139.343 86.5421 139.343 86.7767Z" fill="white"/>
</g>
<defs>
<filter id="filter0_dd_1968_2718" x="0.622393" y="0.750866" width="221.755" height="313.083" filterUnits="userSpaceOnUse" color-interpolation-filters="sRGB">
<feFlood flood-opacity="0" result="BackgroundImageFix"/>
<feColorMatrix in="SourceAlpha" type="matrix" values="0 0 0 0 0 0 0 0 0 0 0 0 0 0 0 0 0 0 127 0" result="hardAlpha"/>
<feOffset dy="0.146268"/>
<feGaussianBlur stdDeviation="0.219402"/>
<feComposite in2="hardAlpha" operator="out"/>
<feColorMatrix type="matrix" values="0 0 0 0 0.019962 0 0 0 0 0.0677962 0 0 0 0 0.162654 0 0 0 0.09 0"/>
<feBlend mode="normal" in2="BackgroundImageFix" result="effect1_dropShadow_1968_2718"/>
<feColorMatrix in="SourceAlpha" type="matrix" values="0 0 0 0 0 0 0 0 0 0 0 0 0 0 0 0 0 0 127 0" result="hardAlpha"/>
<feOffset dy="0.292536"/>
<feGaussianBlur stdDeviation="0.438804"/>
<feComposite in2="hardAlpha" operator="out"/>
<feColorMatrix type="matrix" values="0 0 0 0 0.0856981 0 0 0 0 0.167367 0 0 0 0 0.329321 0 0 0 0.11 0"/>
<feBlend mode="normal" in2="effect1_dropShadow_1968_2718" result="effect2_dropShadow_1968_2718"/>
<feBlend mode="normal" in="SourceGraphic" in2="effect2_dropShadow_1968_2718" result="shape"/>
</filter>
<linearGradient id="paint0_linear_1968_2718" x1="231.878" y1="1.24219" x2="232.844" y2="312.567" gradientUnits="userSpaceOnUse">
<stop offset="0.12077" stop-color="#5C3262"/>
<stop offset="1" stop-color="#5C3262" stop-opacity="0"/>
</linearGradient>
<clipPath id="clip0_1968_2718">
<rect width="220" height="311.328" fill="white" transform="translate(1.5 1.33594)"/>
</clipPath>
</defs>
</svg>
