<svg width="70" height="70" viewBox="0 0 70 70" fill="none" xmlns="http://www.w3.org/2000/svg">
<path d="M1.96139e-09 35C0.000152588 13.125 6.25015 1.70805e-05 35 0C63.7498 -1.70804e-05 70 11.5625 70 35C70 60 59.3752 70 35 70C13.4375 70 -0.000187461 61.875 1.96139e-09 35Z" fill="#2481C2"/>
<path d="M22.5 44.25C21.3008 44.2484 20.1421 44.6904 19.25 45.4931V19.875C19.25 17.1824 21.4324 15 24.125 15H25.75V44.25H22.5ZM48.5 15H45.25V32.875L41.1875 28.8125L37.125 32.875V15H29V44.25H51.75V18.25C51.75 16.4544 50.2956 15 48.5 15ZM19.25 50.75C19.25 52.5456 20.7044 54 22.5 54H51.75V47.5H22.5C20.7044 47.5 19.25 48.9544 19.25 50.75Z" fill="white"/>
</svg>
