<svg width="267" height="327" viewBox="0 0 267 327" fill="none" xmlns="http://www.w3.org/2000/svg">
<g clip-path="url(#clip0_1965_2628)">
<rect width="267" height="326.07" fill="white"/>
<g opacity="0.05" filter="url(#filter0_f_1965_2628)">
<ellipse cx="539.999" cy="194.631" rx="668.03" ry="522.842" fill="#2388FF"/>
</g>
<g filter="url(#filter1_d_1965_2628)">
<circle cx="133.5" cy="104" r="56" fill="white"/>
</g>
<path d="M151.552 119.675C151.483 120.122 151.109 120.435 150.717 120.374C150.324 120.314 150.063 119.902 150.132 119.455C150.201 119.008 150.575 118.695 150.967 118.756C151.359 118.816 151.621 119.228 151.552 119.675Z" fill="#22B5CB"/>
<path d="M153.036 117.076C152.967 117.523 152.593 117.837 152.201 117.776C151.809 117.715 151.547 117.304 151.617 116.857C151.686 116.41 152.06 116.097 152.452 116.157C152.844 116.218 153.106 116.629 153.036 117.076Z" fill="#22B5CB"/>
<path d="M154.274 114.478C154.205 114.925 153.831 115.238 153.439 115.178C153.046 115.117 152.785 114.705 152.854 114.258C152.923 113.811 153.297 113.498 153.689 113.559C154.081 113.62 154.343 114.031 154.274 114.478Z" fill="#22B5CB"/>
<path d="M155.14 111.632C155.071 112.079 154.697 112.393 154.305 112.332C153.913 112.271 153.651 111.86 153.72 111.413C153.789 110.966 154.163 110.653 154.555 110.713C154.947 110.774 155.209 111.185 155.14 111.632Z" fill="#22B5CB"/>
<path d="M155.759 108.787C155.689 109.234 155.315 109.547 154.923 109.486C154.531 109.425 154.269 109.014 154.339 108.567C154.408 108.12 154.782 107.807 155.174 107.867C155.566 107.928 155.828 108.34 155.759 108.787Z" fill="#22B5CB"/>
<path d="M156.006 105.941C155.937 106.388 155.563 106.701 155.171 106.64C154.779 106.58 154.517 106.168 154.586 105.721C154.655 105.274 155.029 104.961 155.421 105.022C155.813 105.082 156.075 105.494 156.006 105.941Z" fill="#22B5CB"/>
<path d="M156.13 102.971C156.061 103.418 155.687 103.732 155.294 103.671C154.902 103.61 154.641 103.199 154.71 102.752C154.779 102.305 155.153 101.992 155.545 102.052C155.937 102.113 156.199 102.524 156.13 102.971Z" fill="#22B5CB"/>
<path d="M155.882 100.126C155.813 100.573 155.439 100.886 155.047 100.825C154.655 100.764 154.393 100.353 154.462 99.9059C154.532 99.4589 154.905 99.1458 155.298 99.2064C155.69 99.2671 155.951 99.6787 155.882 100.126Z" fill="#22B5CB"/>
<path d="M155.264 97.4036C155.194 97.8506 154.82 98.1638 154.428 98.1031C154.036 98.0424 153.775 97.6308 153.844 97.1839C153.913 96.7369 154.287 96.4237 154.679 96.4844C155.071 96.5451 155.333 96.9567 155.264 97.4036Z" fill="#22B5CB"/>
<path d="M154.397 94.6816C154.328 95.1286 153.954 95.4417 153.562 95.3811C153.17 95.3204 152.908 94.9088 152.978 94.4618C153.047 94.0148 153.421 93.7017 153.813 93.7624C154.205 93.8231 154.467 94.2346 154.397 94.6816Z" fill="#22B5CB"/>
<path d="M153.284 92.207C153.215 92.654 152.841 92.9672 152.449 92.9065C152.057 92.8458 151.795 92.4342 151.864 91.9873C151.933 91.5403 152.307 91.2271 152.699 91.2878C153.091 91.3485 153.353 91.7601 153.284 92.207Z" fill="#22B5CB"/>
<path d="M151.923 89.8562C151.854 90.3032 151.48 90.6163 151.088 90.5556C150.696 90.495 150.434 90.0834 150.503 89.6364C150.572 89.1894 150.946 88.8763 151.338 88.937C151.73 88.9977 151.992 89.4092 151.923 89.8562Z" fill="#22B5CB"/>
<path d="M150.314 87.7528C150.245 88.1998 149.871 88.5129 149.479 88.4523C149.087 88.3916 148.825 87.98 148.895 87.533C148.964 87.086 149.338 86.7729 149.73 86.8336C150.122 86.8943 150.384 87.3058 150.314 87.7528Z" fill="#22B5CB"/>
<path d="M148.459 85.8969C148.389 86.3439 148.015 86.657 147.623 86.5963C147.231 86.5356 146.969 86.1241 147.039 85.6771C147.108 85.2301 147.482 84.917 147.874 84.9777C148.266 85.0383 148.528 85.4499 148.459 85.8969Z" fill="#22B5CB"/>
<path d="M146.355 84.2884C146.286 84.7354 145.912 85.0485 145.52 84.9879C145.128 84.9272 144.866 84.5156 144.935 84.0686C145.004 83.6216 145.378 83.3085 145.77 83.3692C146.163 83.4299 146.424 83.8414 146.355 84.2884Z" fill="#22B5CB"/>
<path d="M144.128 82.9274C144.059 83.3744 143.685 83.6875 143.293 83.6268C142.901 83.5662 142.639 83.1546 142.708 82.7076C142.777 82.2606 143.151 81.9475 143.543 82.0082C143.935 82.0689 144.197 82.4804 144.128 82.9274Z" fill="#22B5CB"/>
<path d="M141.777 81.9376C141.708 82.3846 141.334 82.6977 140.942 82.637C140.55 82.5763 140.288 82.1648 140.357 81.7178C140.426 81.2708 140.8 80.9577 141.193 81.0183C141.585 81.079 141.846 81.4906 141.777 81.9376Z" fill="#22B5CB"/>
<path d="M139.303 81.3189C139.233 81.7659 138.859 82.0791 138.467 82.0184C138.075 81.9577 137.814 81.5461 137.883 81.0991C137.952 80.6522 138.326 80.339 138.718 80.3997C139.11 80.4604 139.372 80.8719 139.303 81.3189Z" fill="#22B5CB"/>
<path d="M136.704 80.9477C136.635 81.3947 136.261 81.7079 135.869 81.6472C135.477 81.5865 135.215 81.1749 135.284 80.728C135.354 80.281 135.728 79.9678 136.12 80.0285C136.512 80.0892 136.773 80.5008 136.704 80.9477Z" fill="#22B5CB"/>
<path d="M134.106 80.9477C134.037 81.3947 133.663 81.7079 133.271 81.6472C132.879 81.5865 132.617 81.1749 132.686 80.728C132.755 80.281 133.129 79.9678 133.521 80.0285C133.913 80.0892 134.175 80.5008 134.106 80.9477Z" fill="#22B5CB"/>
<path d="M131.631 81.1952C131.562 81.6422 131.188 81.9553 130.796 81.8946C130.404 81.834 130.142 81.4224 130.212 80.9754C130.281 80.5284 130.655 80.2153 131.047 80.276C131.439 80.3367 131.701 80.7482 131.631 81.1952Z" fill="#22B5CB"/>
<path d="M129.033 81.8138C128.964 82.2608 128.59 82.574 128.198 82.5133C127.806 82.4526 127.544 82.041 127.613 81.5941C127.682 81.1471 128.056 80.8339 128.448 80.8946C128.841 80.9553 129.102 81.3669 129.033 81.8138Z" fill="#22B5CB"/>
<path d="M126.559 82.8037C126.489 83.2507 126.115 83.5638 125.723 83.5031C125.331 83.4424 125.069 83.0309 125.139 82.5839C125.208 82.1369 125.582 81.8238 125.974 81.8844C126.366 81.9451 126.628 82.3567 126.559 82.8037Z" fill="#22B5CB"/>
<path d="M124.208 84.041C124.139 84.4879 123.765 84.8011 123.372 84.7404C122.98 84.6797 122.719 84.2682 122.788 83.8212C122.857 83.3742 123.231 83.061 123.623 83.1217C124.015 83.1824 124.277 83.594 124.208 84.041Z" fill="#22B5CB"/>
<path d="M121.857 85.6494C121.788 86.0964 121.414 86.4096 121.022 86.3489C120.63 86.2882 120.368 85.8766 120.437 85.4296C120.506 84.9827 120.88 84.6695 121.272 84.7302C121.664 84.7909 121.926 85.2024 121.857 85.6494Z" fill="#22B5CB"/>
<path d="M119.877 87.5054C119.808 87.9523 119.434 88.2655 119.042 88.2048C118.65 88.1441 118.388 87.7326 118.457 87.2856C118.527 86.8386 118.9 86.5254 119.293 86.5861C119.685 86.6468 119.946 87.0584 119.877 87.5054Z" fill="#22B5CB"/>
<path d="M117.898 89.6087C117.828 90.0557 117.454 90.3689 117.062 90.3082C116.67 90.2475 116.408 89.8359 116.478 89.389C116.547 88.942 116.921 88.6288 117.313 88.6895C117.705 88.7502 117.967 89.1618 117.898 89.6087Z" fill="#22B5CB"/>
<path d="M116.165 91.9596C116.096 92.4066 115.722 92.7197 115.33 92.659C114.938 92.5983 114.676 92.1868 114.745 91.7398C114.815 91.2928 115.189 90.9797 115.581 91.0404C115.973 91.101 116.235 91.5126 116.165 91.9596Z" fill="#22B5CB"/>
<path d="M114.804 94.5579C114.735 95.0049 114.361 95.318 113.969 95.2573C113.577 95.1966 113.315 94.7851 113.384 94.3381C113.454 93.8911 113.828 93.578 114.22 93.6387C114.612 93.6993 114.874 94.1109 114.804 94.5579Z" fill="#22B5CB"/>
<path d="M113.691 97.1562C113.622 97.6032 113.248 97.9163 112.856 97.8556C112.463 97.7949 112.202 97.3834 112.271 96.9364C112.34 96.4894 112.714 96.1763 113.106 96.237C113.498 96.2976 113.76 96.7092 113.691 97.1562Z" fill="#22B5CB"/>
<path d="M112.701 99.8782C112.632 100.325 112.258 100.638 111.866 100.578C111.474 100.517 111.212 100.105 111.281 99.6584C111.35 99.2114 111.724 98.8983 112.116 98.959C112.508 99.0197 112.77 99.4312 112.701 99.8782Z" fill="#22B5CB"/>
<path d="M112.082 102.724C112.013 103.171 111.639 103.484 111.247 103.423C110.855 103.363 110.593 102.951 110.662 102.504C110.732 102.057 111.106 101.744 111.498 101.805C111.89 101.865 112.152 102.277 112.082 102.724Z" fill="#22B5CB"/>
<path d="M111.711 105.693C111.642 106.14 111.268 106.454 110.876 106.393C110.484 106.332 110.222 105.921 110.291 105.474C110.36 105.027 110.734 104.714 111.126 104.774C111.519 104.835 111.78 105.246 111.711 105.693Z" fill="#22B5CB"/>
<path d="M111.711 108.663C111.642 109.11 111.268 109.423 110.876 109.362C110.484 109.302 110.222 108.89 110.291 108.443C110.36 107.996 110.734 107.683 111.126 107.744C111.519 107.804 111.78 108.216 111.711 108.663Z" fill="#22B5CB"/>
<path d="M111.959 111.509C111.889 111.956 111.515 112.269 111.123 112.208C110.731 112.147 110.47 111.736 110.539 111.289C110.608 110.842 110.982 110.529 111.374 110.589C111.766 110.65 112.028 111.062 111.959 111.509Z" fill="#22B5CB"/>
<path d="M112.577 114.354C112.508 114.801 112.134 115.115 111.742 115.054C111.35 114.993 111.088 114.582 111.157 114.135C111.227 113.688 111.6 113.375 111.993 113.435C112.385 113.496 112.646 113.907 112.577 114.354Z" fill="#22B5CB"/>
<path d="M113.443 116.829C113.374 117.276 113 117.589 112.608 117.528C112.216 117.468 111.954 117.056 112.023 116.609C112.093 116.162 112.467 115.849 112.859 115.91C113.251 115.97 113.513 116.382 113.443 116.829Z" fill="#22B5CB"/>
<path d="M114.557 119.427C114.488 119.874 114.114 120.187 113.722 120.127C113.33 120.066 113.068 119.655 113.137 119.208C113.206 118.761 113.58 118.447 113.972 118.508C114.364 118.569 114.626 118.98 114.557 119.427Z" fill="#22B5CB"/>
<path d="M115.918 121.778C115.849 122.225 115.475 122.538 115.083 122.478C114.691 122.417 114.429 122.005 114.498 121.558C114.567 121.111 114.941 120.798 115.333 120.859C115.725 120.92 115.987 121.331 115.918 121.778Z" fill="#22B5CB"/>
<path d="M117.526 123.882C117.457 124.329 117.083 124.642 116.691 124.581C116.299 124.52 116.037 124.109 116.106 123.662C116.176 123.215 116.55 122.902 116.942 122.962C117.334 123.023 117.596 123.435 117.526 123.882Z" fill="#22B5CB"/>
<path d="M119.506 125.737C119.437 126.184 119.063 126.498 118.671 126.437C118.279 126.376 118.017 125.965 118.086 125.518C118.155 125.071 118.529 124.758 118.921 124.818C119.313 124.879 119.575 125.29 119.506 125.737Z" fill="#22B5CB"/>
<path d="M121.486 127.346C121.417 127.793 121.043 128.106 120.65 128.045C120.258 127.985 119.997 127.573 120.066 127.126C120.135 126.679 120.509 126.366 120.901 126.427C121.293 126.487 121.555 126.899 121.486 127.346Z" fill="#22B5CB"/>
<path d="M123.713 128.707C123.644 129.154 123.27 129.467 122.878 129.406C122.485 129.346 122.224 128.934 122.293 128.487C122.362 128.04 122.736 127.727 123.128 127.788C123.52 127.848 123.782 128.26 123.713 128.707Z" fill="#22B5CB"/>
<path d="M126.064 129.697C125.994 130.144 125.621 130.457 125.228 130.396C124.836 130.336 124.575 129.924 124.644 129.477C124.713 129.03 125.087 128.717 125.479 128.778C125.871 128.838 126.133 129.25 126.064 129.697Z" fill="#22B5CB"/>
<path d="M128.538 130.315C128.469 130.762 128.095 131.076 127.703 131.015C127.311 130.954 127.049 130.543 127.118 130.096C127.188 129.649 127.561 129.336 127.954 129.396C128.346 129.457 128.607 129.868 128.538 130.315Z" fill="#22B5CB"/>
<path d="M131.137 130.687C131.067 131.134 130.693 131.447 130.301 131.386C129.909 131.325 129.647 130.914 129.717 130.467C129.786 130.02 130.16 129.707 130.552 129.767C130.944 129.828 131.206 130.24 131.137 130.687Z" fill="#22B5CB"/>
<path d="M133.611 130.687C133.542 131.134 133.168 131.447 132.776 131.386C132.384 131.325 132.122 130.914 132.191 130.467C132.26 130.02 132.634 129.707 133.026 129.767C133.419 129.828 133.68 130.24 133.611 130.687Z" fill="#22B5CB"/>
<path d="M136.209 130.439C136.14 130.886 135.766 131.199 135.374 131.139C134.982 131.078 134.72 130.666 134.789 130.219C134.859 129.772 135.233 129.459 135.625 129.52C136.017 129.581 136.279 129.992 136.209 130.439Z" fill="#22B5CB"/>
<path d="M138.808 129.821C138.739 130.268 138.365 130.581 137.972 130.52C137.58 130.459 137.319 130.048 137.388 129.601C137.457 129.154 137.831 128.841 138.223 128.901C138.615 128.962 138.877 129.374 138.808 129.821Z" fill="#22B5CB"/>
<path d="M141.282 128.831C141.213 129.278 140.839 129.591 140.447 129.53C140.055 129.469 139.793 129.058 139.862 128.611C139.932 128.164 140.305 127.851 140.698 127.911C141.09 127.972 141.351 128.384 141.282 128.831Z" fill="#22B5CB"/>
<path d="M143.633 127.47C143.564 127.917 143.19 128.23 142.798 128.169C142.406 128.108 142.144 127.697 142.213 127.25C142.282 126.803 142.656 126.49 143.048 126.55C143.441 126.611 143.702 127.023 143.633 127.47Z" fill="#22B5CB"/>
<path d="M145.86 125.861C145.791 126.308 145.417 126.621 145.025 126.561C144.633 126.5 144.371 126.088 144.44 125.641C144.51 125.194 144.883 124.881 145.276 124.942C145.668 125.003 145.929 125.414 145.86 125.861Z" fill="#22B5CB"/>
<path d="M147.964 124.005C147.894 124.452 147.52 124.765 147.128 124.705C146.736 124.644 146.475 124.232 146.544 123.785C146.613 123.339 146.987 123.025 147.379 123.086C147.771 123.147 148.033 123.558 147.964 124.005Z" fill="#22B5CB"/>
<path d="M149.943 122.026C149.874 122.473 149.5 122.786 149.108 122.725C148.716 122.664 148.454 122.253 148.523 121.806C148.593 121.359 148.966 121.046 149.359 121.106C149.751 121.167 150.012 121.579 149.943 122.026Z" fill="#22B5CB"/>
<path d="M125.88 132.936C125.88 133.517 125.409 133.988 124.828 133.988C124.247 133.988 123.776 133.517 123.776 132.936C123.776 132.355 124.247 131.885 124.828 131.885C125.409 131.885 125.88 132.355 125.88 132.936Z" fill="#22B5CB"/>
<path d="M129.344 133.679C129.344 134.26 128.873 134.73 128.292 134.73C127.711 134.73 127.241 134.26 127.241 133.679C127.241 133.098 127.711 132.627 128.292 132.627C128.873 132.627 129.344 133.098 129.344 133.679Z" fill="#22B5CB"/>
<path d="M132.808 134.05C132.808 134.631 132.338 135.102 131.757 135.102C131.176 135.102 130.705 134.631 130.705 134.05C130.705 133.469 131.176 132.998 131.757 132.998C132.338 132.998 132.808 133.469 132.808 134.05Z" fill="#22B5CB"/>
<path d="M136.52 134.05C136.52 134.631 136.049 135.102 135.469 135.102C134.888 135.102 134.417 134.631 134.417 134.05C134.417 133.469 134.888 132.998 135.469 132.998C136.049 132.998 136.52 133.469 136.52 134.05Z" fill="#22B5CB"/>
<path d="M139.985 133.679C139.985 134.26 139.514 134.73 138.933 134.73C138.352 134.73 137.881 134.26 137.881 133.679C137.881 133.098 138.352 132.627 138.933 132.627C139.514 132.627 139.985 133.098 139.985 133.679Z" fill="#22B5CB"/>
<path d="M143.449 132.936C143.449 133.517 142.978 133.988 142.397 133.988C141.817 133.988 141.346 133.517 141.346 132.936C141.346 132.355 141.817 131.885 142.397 131.885C142.978 131.885 143.449 132.355 143.449 132.936Z" fill="#22B5CB"/>
<path d="M146.79 131.575C146.79 132.156 146.319 132.627 145.738 132.627C145.157 132.627 144.686 132.156 144.686 131.575C144.686 130.994 145.157 130.524 145.738 130.524C146.319 130.524 146.79 130.994 146.79 131.575Z" fill="#22B5CB"/>
<path d="M150.007 130.091C150.007 130.671 149.536 131.142 148.955 131.142C148.374 131.142 147.903 130.671 147.903 130.091C147.903 129.51 148.374 129.039 148.955 129.039C149.536 129.039 150.007 129.51 150.007 130.091Z" fill="#22B5CB"/>
<path d="M152.976 127.987C152.976 128.568 152.505 129.039 151.924 129.039C151.344 129.039 150.873 128.568 150.873 127.987C150.873 127.406 151.344 126.935 151.924 126.935C152.505 126.935 152.976 127.406 152.976 127.987Z" fill="#22B5CB"/>
<path d="M155.698 125.884C155.698 126.465 155.227 126.935 154.647 126.935C154.066 126.935 153.595 126.465 153.595 125.884C153.595 125.303 154.066 124.832 154.647 124.832C155.227 124.832 155.698 125.303 155.698 125.884Z" fill="#22B5CB"/>
<path d="M158.173 123.162C158.173 123.743 157.702 124.213 157.121 124.213C156.54 124.213 156.069 123.743 156.069 123.162C156.069 122.581 156.54 122.11 157.121 122.11C157.702 122.11 158.173 122.581 158.173 123.162Z" fill="#22B5CB"/>
<path d="M160.276 120.316C160.276 120.897 159.805 121.368 159.224 121.368C158.644 121.368 158.173 120.897 158.173 120.316C158.173 119.735 158.644 119.264 159.224 119.264C159.805 119.264 160.276 119.735 160.276 120.316Z" fill="#22B5CB"/>
<path d="M162.008 117.223C162.008 117.804 161.537 118.274 160.957 118.274C160.376 118.274 159.905 117.804 159.905 117.223C159.905 116.642 160.376 116.171 160.957 116.171C161.537 116.171 162.008 116.642 162.008 117.223Z" fill="#22B5CB"/>
<path d="M163.493 114.006C163.493 114.587 163.022 115.058 162.441 115.058C161.861 115.058 161.39 114.587 161.39 114.006C161.39 113.425 161.861 112.954 162.441 112.954C163.022 112.954 163.493 113.425 163.493 114.006Z" fill="#22B5CB"/>
<path d="M164.483 110.665C164.483 111.246 164.012 111.717 163.431 111.717C162.85 111.717 162.38 111.246 162.38 110.665C162.38 110.084 162.85 109.613 163.431 109.613C164.012 109.613 164.483 110.084 164.483 110.665Z" fill="#22B5CB"/>
<path d="M165.102 107.077C165.102 107.658 164.631 108.129 164.05 108.129C163.469 108.129 162.998 107.658 162.998 107.077C162.998 106.496 163.469 106.025 164.05 106.025C164.631 106.025 165.102 106.496 165.102 107.077Z" fill="#22B5CB"/>
<path d="M165.102 103.489C165.102 104.07 164.631 104.541 164.05 104.541C163.469 104.541 162.998 104.07 162.998 103.489C162.998 102.908 163.469 102.437 164.05 102.437C164.631 102.437 165.102 102.908 165.102 103.489Z" fill="#22B5CB"/>
<path d="M165.102 99.9008C165.102 100.482 164.631 100.952 164.05 100.952C163.469 100.952 162.998 100.482 162.998 99.9008C162.998 99.32 163.469 98.8491 164.05 98.8491C164.631 98.8491 165.102 99.32 165.102 99.9008Z" fill="#22B5CB"/>
<path d="M164.483 96.5601C164.483 97.141 164.012 97.6118 163.431 97.6118C162.85 97.6118 162.38 97.141 162.38 96.5601C162.38 95.9793 162.85 95.5084 163.431 95.5084C164.012 95.5084 164.483 95.9793 164.483 96.5601Z" fill="#22B5CB"/>
<path d="M163.493 92.972C163.493 93.5528 163.022 94.0237 162.441 94.0237C161.861 94.0237 161.39 93.5528 161.39 92.972C161.39 92.3912 161.861 91.9203 162.441 91.9203C163.022 91.9203 163.493 92.3912 163.493 92.972Z" fill="#22B5CB"/>
<path d="M162.008 89.8788C162.008 90.4596 161.537 90.9305 160.957 90.9305C160.376 90.9305 159.905 90.4596 159.905 89.8788C159.905 89.2979 160.376 88.8271 160.957 88.8271C161.537 88.8271 162.008 89.2979 162.008 89.8788Z" fill="#22B5CB"/>
<path d="M160.276 86.7856C160.276 87.3664 159.805 87.8373 159.224 87.8373C158.644 87.8373 158.173 87.3664 158.173 86.7856C158.173 86.2047 158.644 85.7339 159.224 85.7339C159.805 85.7339 160.276 86.2047 160.276 86.7856Z" fill="#22B5CB"/>
<path d="M158.173 84.0635C158.173 84.6444 157.702 85.1152 157.121 85.1152C156.54 85.1152 156.069 84.6444 156.069 84.0635C156.069 83.4827 156.54 83.0118 157.121 83.0118C157.702 83.0118 158.173 83.4827 158.173 84.0635Z" fill="#22B5CB"/>
<path d="M155.574 81.2178C155.574 81.7986 155.104 82.2695 154.523 82.2695C153.942 82.2695 153.471 81.7986 153.471 81.2178C153.471 80.6369 153.942 80.1661 154.523 80.1661C155.104 80.1661 155.574 80.6369 155.574 81.2178Z" fill="#22B5CB"/>
<path d="M152.976 79.1144C152.976 79.6952 152.505 80.1661 151.924 80.1661C151.344 80.1661 150.873 79.6952 150.873 79.1144C150.873 78.5336 151.344 78.0627 151.924 78.0627C152.505 78.0627 152.976 78.5336 152.976 79.1144Z" fill="#22B5CB"/>
<path d="M150.007 77.011C150.007 77.5918 149.536 78.0627 148.955 78.0627C148.374 78.0627 147.903 77.5918 147.903 77.011C147.903 76.4302 148.374 75.9593 148.955 75.9593C149.536 75.9593 150.007 76.4302 150.007 77.011Z" fill="#22B5CB"/>
<path d="M146.913 75.5263C146.913 76.1071 146.443 76.578 145.862 76.578C145.281 76.578 144.81 76.1071 144.81 75.5263C144.81 74.9454 145.281 74.4746 145.862 74.4746C146.443 74.4746 146.913 74.9454 146.913 75.5263Z" fill="#22B5CB"/>
<path d="M143.449 74.1652C143.449 74.7461 142.978 75.2169 142.397 75.2169C141.817 75.2169 141.346 74.7461 141.346 74.1652C141.346 73.5844 141.817 73.1136 142.397 73.1136C142.978 73.1136 143.449 73.5844 143.449 74.1652Z" fill="#22B5CB"/>
<path d="M140.108 73.4229C140.108 74.0037 139.638 74.4746 139.057 74.4746C138.476 74.4746 138.005 74.0037 138.005 73.4229C138.005 72.842 138.476 72.3712 139.057 72.3712C139.638 72.3712 140.108 72.842 140.108 73.4229Z" fill="#22B5CB"/>
<path d="M136.397 73.0517C136.397 73.6325 135.926 74.1034 135.345 74.1034C134.764 74.1034 134.293 73.6325 134.293 73.0517C134.293 72.4709 134.764 72 135.345 72C135.926 72 136.397 72.4709 136.397 73.0517Z" fill="#22B5CB"/>
<path d="M133.056 73.0517C133.056 73.6325 132.585 74.1034 132.004 74.1034C131.423 74.1034 130.952 73.6325 130.952 73.0517C130.952 72.4709 131.423 72 132.004 72C132.585 72 133.056 72.4709 133.056 73.0517Z" fill="#22B5CB"/>
<path d="M129.344 73.4229C129.344 74.0037 128.873 74.4746 128.292 74.4746C127.711 74.4746 127.241 74.0037 127.241 73.4229C127.241 72.842 127.711 72.3712 128.292 72.3712C128.873 72.3712 129.344 72.842 129.344 73.4229Z" fill="#22B5CB"/>
<path d="M125.88 74.1652C125.88 74.7461 125.409 75.2169 124.828 75.2169C124.247 75.2169 123.776 74.7461 123.776 74.1652C123.776 73.5844 124.247 73.1136 124.828 73.1136C125.409 73.1136 125.88 73.5844 125.88 74.1652Z" fill="#22B5CB"/>
<path d="M122.663 75.5263C122.663 76.1071 122.192 76.578 121.611 76.578C121.03 76.578 120.559 76.1071 120.559 75.5263C120.559 74.9454 121.03 74.4746 121.611 74.4746C122.192 74.4746 122.663 74.9454 122.663 75.5263Z" fill="#22B5CB"/>
<path d="M119.322 77.1347C119.322 77.7156 118.851 78.1864 118.27 78.1864C117.689 78.1864 117.219 77.7156 117.219 77.1347C117.219 76.5539 117.689 76.083 118.27 76.083C118.851 76.083 119.322 76.5539 119.322 77.1347Z" fill="#22B5CB"/>
<path d="M116.353 78.9907C116.353 79.5715 115.882 80.0424 115.301 80.0424C114.72 80.0424 114.249 79.5715 114.249 78.9907C114.249 78.4098 114.72 77.939 115.301 77.939C115.882 77.939 116.353 78.4098 116.353 78.9907Z" fill="#22B5CB"/>
<path d="M113.63 81.3415C113.63 81.9223 113.16 82.3932 112.579 82.3932C111.998 82.3932 111.527 81.9223 111.527 81.3415C111.527 80.7607 111.998 80.2898 112.579 80.2898C113.16 80.2898 113.63 80.7607 113.63 81.3415Z" fill="#22B5CB"/>
<path d="M111.28 83.9398C111.28 84.5206 110.809 84.9915 110.228 84.9915C109.647 84.9915 109.176 84.5206 109.176 83.9398C109.176 83.359 109.647 82.8881 110.228 82.8881C110.809 82.8881 111.28 83.359 111.28 83.9398Z" fill="#22B5CB"/>
<path d="M109.176 86.7856C109.176 87.3664 108.705 87.8373 108.125 87.8373C107.544 87.8373 107.073 87.3664 107.073 86.7856C107.073 86.2047 107.544 85.7339 108.125 85.7339C108.705 85.7339 109.176 86.2047 109.176 86.7856Z" fill="#22B5CB"/>
<path d="M107.32 89.8788C107.32 90.4596 106.849 90.9305 106.269 90.9305C105.688 90.9305 105.217 90.4596 105.217 89.8788C105.217 89.2979 105.688 88.8271 106.269 88.8271C106.849 88.8271 107.32 89.2979 107.32 89.8788Z" fill="#22B5CB"/>
<path d="M105.836 93.0957C105.836 93.6766 105.365 94.1474 104.784 94.1474C104.203 94.1474 103.732 93.6766 103.732 93.0957C103.732 92.5149 104.203 92.044 104.784 92.044C105.365 92.044 105.836 92.5149 105.836 93.0957Z" fill="#22B5CB"/>
<path d="M104.846 96.4364C104.846 97.0172 104.375 97.4881 103.794 97.4881C103.213 97.4881 102.742 97.0172 102.742 96.4364C102.742 95.8556 103.213 95.3847 103.794 95.3847C104.375 95.3847 104.846 95.8556 104.846 96.4364Z" fill="#22B5CB"/>
<path d="M104.351 100.148C104.351 100.729 103.88 101.2 103.299 101.2C102.718 101.2 102.247 100.729 102.247 100.148C102.247 99.5674 102.718 99.0966 103.299 99.0966C103.88 99.0966 104.351 99.5674 104.351 100.148Z" fill="#22B5CB"/>
<path d="M104.103 103.736C104.103 104.317 103.633 104.788 103.052 104.788C102.471 104.788 102 104.317 102 103.736C102 103.156 102.471 102.685 103.052 102.685C103.633 102.685 104.103 103.156 104.103 103.736Z" fill="#22B5CB"/>
<path d="M104.351 107.077C104.351 107.658 103.88 108.129 103.299 108.129C102.718 108.129 102.247 107.658 102.247 107.077C102.247 106.496 102.718 106.025 103.299 106.025C103.88 106.025 104.351 106.496 104.351 107.077Z" fill="#22B5CB"/>
<path d="M104.846 110.665C104.846 111.246 104.375 111.717 103.794 111.717C103.213 111.717 102.742 111.246 102.742 110.665C102.742 110.084 103.213 109.613 103.794 109.613C104.375 109.613 104.846 110.084 104.846 110.665Z" fill="#22B5CB"/>
<path d="M105.959 114.006C105.959 114.587 105.488 115.058 104.908 115.058C104.327 115.058 103.856 114.587 103.856 114.006C103.856 113.425 104.327 112.954 104.908 112.954C105.488 112.954 105.959 113.425 105.959 114.006Z" fill="#22B5CB"/>
<path d="M107.32 117.223C107.32 117.804 106.849 118.274 106.269 118.274C105.688 118.274 105.217 117.804 105.217 117.223C105.217 116.642 105.688 116.171 106.269 116.171C106.849 116.171 107.32 116.642 107.32 117.223Z" fill="#22B5CB"/>
<path d="M109.176 120.316C109.176 120.897 108.705 121.368 108.125 121.368C107.544 121.368 107.073 120.897 107.073 120.316C107.073 119.735 107.544 119.264 108.125 119.264C108.705 119.264 109.176 119.735 109.176 120.316Z" fill="#22B5CB"/>
<path d="M111.28 123.162C111.28 123.743 110.809 124.213 110.228 124.213C109.647 124.213 109.176 123.743 109.176 123.162C109.176 122.581 109.647 122.11 110.228 122.11C110.809 122.11 111.28 122.581 111.28 123.162Z" fill="#22B5CB"/>
<path d="M113.754 125.884C113.754 126.465 113.283 126.935 112.703 126.935C112.122 126.935 111.651 126.465 111.651 125.884C111.651 125.303 112.122 124.832 112.703 124.832C113.283 124.832 113.754 125.303 113.754 125.884Z" fill="#22B5CB"/>
<path d="M116.353 127.987C116.353 128.568 115.882 129.039 115.301 129.039C114.72 129.039 114.249 128.568 114.249 127.987C114.249 127.406 114.72 126.935 115.301 126.935C115.882 126.935 116.353 127.406 116.353 127.987Z" fill="#22B5CB"/>
<path d="M119.322 130.091C119.322 130.671 118.851 131.142 118.27 131.142C117.689 131.142 117.219 130.671 117.219 130.091C117.219 129.51 117.689 129.039 118.27 129.039C118.851 129.039 119.322 129.51 119.322 130.091Z" fill="#22B5CB"/>
<path d="M122.663 131.575C122.663 132.156 122.192 132.627 121.611 132.627C121.03 132.627 120.559 132.156 120.559 131.575C120.559 130.994 121.03 130.524 121.611 130.524C122.192 130.524 122.663 130.994 122.663 131.575Z" fill="#22B5CB"/>
<path d="M119.693 100.396C119.693 100.703 119.444 100.952 119.136 100.952C118.829 100.952 118.58 100.703 118.58 100.396C118.58 100.088 118.829 99.8389 119.136 99.8389C119.444 99.8389 119.693 100.088 119.693 100.396Z" fill="#22B5CB"/>
<path d="M120.436 98.6635C120.436 98.971 120.186 99.2203 119.879 99.2203C119.571 99.2203 119.322 98.971 119.322 98.6635C119.322 98.356 119.571 98.1067 119.879 98.1067C120.186 98.1067 120.436 98.356 120.436 98.6635Z" fill="#22B5CB"/>
<path d="M121.549 97.055C121.549 97.3625 121.3 97.6118 120.992 97.6118C120.685 97.6118 120.436 97.3625 120.436 97.055C120.436 96.7475 120.685 96.4983 120.992 96.4983C121.3 96.4983 121.549 96.7475 121.549 97.055Z" fill="#22B5CB"/>
<path d="M122.663 95.5703C122.663 95.8778 122.413 96.1271 122.106 96.1271C121.798 96.1271 121.549 95.8778 121.549 95.5703C121.549 95.2628 121.798 95.0135 122.106 95.0135C122.413 95.0135 122.663 95.2628 122.663 95.5703Z" fill="#22B5CB"/>
<path d="M124.024 94.333C124.024 94.6405 123.774 94.8898 123.467 94.8898C123.159 94.8898 122.91 94.6405 122.91 94.333C122.91 94.0255 123.159 93.7762 123.467 93.7762C123.774 93.7762 124.024 94.0255 124.024 94.333Z" fill="#22B5CB"/>
<path d="M125.508 93.2194C125.508 93.5269 125.259 93.7762 124.952 93.7762C124.644 93.7762 124.395 93.5269 124.395 93.2194C124.395 92.9119 124.644 92.6627 124.952 92.6627C125.259 92.6627 125.508 92.9119 125.508 93.2194Z" fill="#22B5CB"/>
<path d="M127.241 92.2296C127.241 92.5371 126.991 92.7864 126.684 92.7864C126.376 92.7864 126.127 92.5371 126.127 92.2296C126.127 91.9221 126.376 91.6728 126.684 91.6728C126.991 91.6728 127.241 91.9221 127.241 92.2296Z" fill="#22B5CB"/>
<path d="M128.973 91.611C128.973 91.9185 128.724 92.1678 128.416 92.1678C128.109 92.1678 127.859 91.9185 127.859 91.611C127.859 91.3035 128.109 91.0542 128.416 91.0542C128.724 91.0542 128.973 91.3035 128.973 91.611Z" fill="#22B5CB"/>
<path d="M130.705 91.1161C130.705 91.4236 130.456 91.6728 130.148 91.6728C129.841 91.6728 129.591 91.4236 129.591 91.1161C129.591 90.8086 129.841 90.5593 130.148 90.5593C130.456 90.5593 130.705 90.8086 130.705 91.1161Z" fill="#22B5CB"/>
<path d="M132.685 90.8686C132.685 91.1761 132.435 91.4254 132.128 91.4254C131.82 91.4254 131.571 91.1761 131.571 90.8686C131.571 90.5611 131.82 90.3118 132.128 90.3118C132.435 90.3118 132.685 90.5611 132.685 90.8686Z" fill="#22B5CB"/>
<path d="M134.541 90.7449C134.541 91.0524 134.291 91.3017 133.984 91.3017C133.676 91.3017 133.427 91.0524 133.427 90.7449C133.427 90.4374 133.676 90.1881 133.984 90.1881C134.291 90.1881 134.541 90.4374 134.541 90.7449Z" fill="#22B5CB"/>
<path d="M136.397 90.9923C136.397 91.2998 136.147 91.5491 135.84 91.5491C135.532 91.5491 135.283 91.2998 135.283 90.9923C135.283 90.6848 135.532 90.4356 135.84 90.4356C136.147 90.4356 136.397 90.6848 136.397 90.9923Z" fill="#22B5CB"/>
<path d="M138.252 91.3635C138.252 91.671 138.003 91.9203 137.696 91.9203C137.388 91.9203 137.139 91.671 137.139 91.3635C137.139 91.056 137.388 90.8067 137.696 90.8067C138.003 90.8067 138.252 91.056 138.252 91.3635Z" fill="#22B5CB"/>
<path d="M140.108 91.9822C140.108 92.2897 139.859 92.5389 139.552 92.5389C139.244 92.5389 138.995 92.2897 138.995 91.9822C138.995 91.6747 139.244 91.4254 139.552 91.4254C139.859 91.4254 140.108 91.6747 140.108 91.9822Z" fill="#22B5CB"/>
<path d="M141.841 92.972C141.841 93.2795 141.591 93.5288 141.284 93.5288C140.976 93.5288 140.727 93.2795 140.727 92.972C140.727 92.6645 140.976 92.4152 141.284 92.4152C141.591 92.4152 141.841 92.6645 141.841 92.972Z" fill="#22B5CB"/>
<path d="M143.449 93.9618C143.449 94.2693 143.2 94.5186 142.892 94.5186C142.585 94.5186 142.336 94.2693 142.336 93.9618C142.336 93.6543 142.585 93.405 142.892 93.405C143.2 93.405 143.449 93.6543 143.449 93.9618Z" fill="#22B5CB"/>
<path d="M145.058 95.1991C145.058 95.5066 144.808 95.7559 144.501 95.7559C144.193 95.7559 143.944 95.5066 143.944 95.1991C143.944 94.8916 144.193 94.6423 144.501 94.6423C144.808 94.6423 145.058 94.8916 145.058 95.1991Z" fill="#22B5CB"/>
<path d="M146.419 96.5601C146.419 96.8676 146.169 97.1169 145.862 97.1169C145.554 97.1169 145.305 96.8676 145.305 96.5601C145.305 96.2526 145.554 96.0033 145.862 96.0033C146.169 96.0033 146.419 96.2526 146.419 96.5601Z" fill="#22B5CB"/>
<path d="M147.656 98.1686C147.656 98.4761 147.407 98.7254 147.099 98.7254C146.792 98.7254 146.542 98.4761 146.542 98.1686C146.542 97.8611 146.792 97.6118 147.099 97.6118C147.407 97.6118 147.656 97.8611 147.656 98.1686Z" fill="#22B5CB"/>
<path d="M148.769 99.9008C148.769 100.208 148.52 100.458 148.213 100.458C147.905 100.458 147.656 100.208 147.656 99.9008C147.656 99.5933 147.905 99.344 148.213 99.344C148.52 99.344 148.769 99.5933 148.769 99.9008Z" fill="#22B5CB"/>
<path d="M149.635 101.633C149.635 101.94 149.386 102.19 149.079 102.19C148.771 102.19 148.522 101.94 148.522 101.633C148.522 101.325 148.771 101.076 149.079 101.076C149.386 101.076 149.635 101.325 149.635 101.633Z" fill="#22B5CB"/>
<path d="M150.254 103.489C150.254 103.796 150.005 104.046 149.697 104.046C149.39 104.046 149.141 103.796 149.141 103.489C149.141 103.181 149.39 102.932 149.697 102.932C150.005 102.932 150.254 103.181 150.254 103.489Z" fill="#22B5CB"/>
<path d="M150.749 105.469C150.749 105.776 150.5 106.025 150.192 106.025C149.885 106.025 149.635 105.776 149.635 105.469C149.635 105.161 149.885 104.912 150.192 104.912C150.5 104.912 150.749 105.161 150.749 105.469Z" fill="#22B5CB"/>
<path d="M150.997 107.448C150.997 107.756 150.747 108.005 150.44 108.005C150.132 108.005 149.883 107.756 149.883 107.448C149.883 107.141 150.132 106.891 150.44 106.891C150.747 106.891 150.997 107.141 150.997 107.448Z" fill="#22B5CB"/>
<path d="M150.997 109.428C150.997 109.735 150.747 109.985 150.44 109.985C150.132 109.985 149.883 109.735 149.883 109.428C149.883 109.12 150.132 108.871 150.44 108.871C150.747 108.871 150.997 109.12 150.997 109.428Z" fill="#22B5CB"/>
<path d="M150.873 111.408C150.873 111.715 150.624 111.964 150.316 111.964C150.009 111.964 149.759 111.715 149.759 111.408C149.759 111.1 150.009 110.851 150.316 110.851C150.624 110.851 150.873 111.1 150.873 111.408Z" fill="#22B5CB"/>
<path d="M150.378 113.263C150.378 113.571 150.129 113.82 149.821 113.82C149.514 113.82 149.264 113.571 149.264 113.263C149.264 112.956 149.514 112.707 149.821 112.707C150.129 112.707 150.378 112.956 150.378 113.263Z" fill="#22B5CB"/>
<path d="M149.759 115.119C149.759 115.427 149.51 115.676 149.202 115.676C148.895 115.676 148.646 115.427 148.646 115.119C148.646 114.812 148.895 114.563 149.202 114.563C149.51 114.563 149.759 114.812 149.759 115.119Z" fill="#22B5CB"/>
<path d="M148.893 116.852C148.893 117.159 148.644 117.408 148.336 117.408C148.029 117.408 147.78 117.159 147.78 116.852C147.78 116.544 148.029 116.295 148.336 116.295C148.644 116.295 148.893 116.544 148.893 116.852Z" fill="#22B5CB"/>
<path d="M147.903 118.46C147.903 118.768 147.654 119.017 147.347 119.017C147.039 119.017 146.79 118.768 146.79 118.46C146.79 118.153 147.039 117.903 147.347 117.903C147.654 117.903 147.903 118.153 147.903 118.46Z" fill="#22B5CB"/>
<path d="M146.79 119.945C146.79 120.252 146.54 120.502 146.233 120.502C145.925 120.502 145.676 120.252 145.676 119.945C145.676 119.637 145.925 119.388 146.233 119.388C146.54 119.388 146.79 119.637 146.79 119.945Z" fill="#22B5CB"/>
<path d="M145.429 121.182C145.429 121.49 145.179 121.739 144.872 121.739C144.564 121.739 144.315 121.49 144.315 121.182C144.315 120.875 144.564 120.625 144.872 120.625C145.179 120.625 145.429 120.875 145.429 121.182Z" fill="#22B5CB"/>
<path d="M143.944 122.296C143.944 122.603 143.695 122.852 143.387 122.852C143.08 122.852 142.83 122.603 142.83 122.296C142.83 121.988 143.08 121.739 143.387 121.739C143.695 121.739 143.944 121.988 143.944 122.296Z" fill="#22B5CB"/>
<path d="M142.212 123.285C142.212 123.593 141.963 123.842 141.655 123.842C141.348 123.842 141.098 123.593 141.098 123.285C141.098 122.978 141.348 122.729 141.655 122.729C141.963 122.729 142.212 122.978 142.212 123.285Z" fill="#22B5CB"/>
<path d="M140.48 123.904C140.48 124.212 140.23 124.461 139.923 124.461C139.615 124.461 139.366 124.212 139.366 123.904C139.366 123.597 139.615 123.347 139.923 123.347C140.23 123.347 140.48 123.597 140.48 123.904Z" fill="#22B5CB"/>
<path d="M138.747 124.399C138.747 124.707 138.498 124.956 138.191 124.956C137.883 124.956 137.634 124.707 137.634 124.399C137.634 124.092 137.883 123.842 138.191 123.842C138.498 123.842 138.747 124.092 138.747 124.399Z" fill="#22B5CB"/>
<path d="M134.912 124.77C134.912 125.078 134.663 125.327 134.355 125.327C134.048 125.327 133.798 125.078 133.798 124.77C133.798 124.463 134.048 124.213 134.355 124.213C134.663 124.213 134.912 124.463 134.912 124.77Z" fill="#22B5CB"/>
<path d="M133.056 124.523C133.056 124.83 132.807 125.08 132.499 125.08C132.192 125.08 131.942 124.83 131.942 124.523C131.942 124.215 132.192 123.966 132.499 123.966C132.807 123.966 133.056 124.215 133.056 124.523Z" fill="#22B5CB"/>
<path d="M131.2 124.152C131.2 124.459 130.951 124.708 130.643 124.708C130.336 124.708 130.086 124.459 130.086 124.152C130.086 123.844 130.336 123.595 130.643 123.595C130.951 123.595 131.2 123.844 131.2 124.152Z" fill="#22B5CB"/>
<path d="M129.344 123.409C129.344 123.717 129.095 123.966 128.787 123.966C128.48 123.966 128.23 123.717 128.23 123.409C128.23 123.102 128.48 122.852 128.787 122.852C129.095 122.852 129.344 123.102 129.344 123.409Z" fill="#22B5CB"/>
<path d="M127.612 122.543C127.612 122.851 127.363 123.1 127.055 123.1C126.748 123.1 126.498 122.851 126.498 122.543C126.498 122.236 126.748 121.986 127.055 121.986C127.363 121.986 127.612 122.236 127.612 122.543Z" fill="#22B5CB"/>
<path d="M125.88 121.553C125.88 121.861 125.63 122.11 125.323 122.11C125.015 122.11 124.766 121.861 124.766 121.553C124.766 121.246 125.015 120.997 125.323 120.997C125.63 120.997 125.88 121.246 125.88 121.553Z" fill="#22B5CB"/>
<path d="M124.395 120.316C124.395 120.624 124.146 120.873 123.838 120.873C123.531 120.873 123.281 120.624 123.281 120.316C123.281 120.009 123.531 119.759 123.838 119.759C124.146 119.759 124.395 120.009 124.395 120.316Z" fill="#22B5CB"/>
<path d="M123.034 118.831C123.034 119.139 122.785 119.388 122.477 119.388C122.17 119.388 121.92 119.139 121.92 118.831C121.92 118.524 122.17 118.274 122.477 118.274C122.785 118.274 123.034 118.524 123.034 118.831Z" fill="#22B5CB"/>
<path d="M121.797 117.347C121.797 117.654 121.547 117.903 121.24 117.903C120.932 117.903 120.683 117.654 120.683 117.347C120.683 117.039 120.932 116.79 121.24 116.79C121.547 116.79 121.797 117.039 121.797 117.347Z" fill="#22B5CB"/>
<path d="M120.683 115.614C120.683 115.922 120.434 116.171 120.126 116.171C119.819 116.171 119.569 115.922 119.569 115.614C119.569 115.307 119.819 115.058 120.126 115.058C120.434 115.058 120.683 115.307 120.683 115.614Z" fill="#22B5CB"/>
<path d="M119.817 113.758C119.817 114.066 119.568 114.315 119.26 114.315C118.953 114.315 118.703 114.066 118.703 113.758C118.703 113.451 118.953 113.202 119.26 113.202C119.568 113.202 119.817 113.451 119.817 113.758Z" fill="#22B5CB"/>
<path d="M119.198 111.902C119.198 112.21 118.949 112.459 118.641 112.459C118.334 112.459 118.085 112.21 118.085 111.902C118.085 111.595 118.334 111.346 118.641 111.346C118.949 111.346 119.198 111.595 119.198 111.902Z" fill="#22B5CB"/>
<path d="M118.703 109.923C118.703 110.23 118.454 110.48 118.147 110.48C117.839 110.48 117.59 110.23 117.59 109.923C117.59 109.615 117.839 109.366 118.147 109.366C118.454 109.366 118.703 109.615 118.703 109.923Z" fill="#22B5CB"/>
<path d="M118.456 108.067C118.456 108.374 118.207 108.624 117.899 108.624C117.592 108.624 117.342 108.374 117.342 108.067C117.342 107.759 117.592 107.51 117.899 107.51C118.207 107.51 118.456 107.759 118.456 108.067Z" fill="#22B5CB"/>
<path d="M118.456 106.087C118.456 106.395 118.207 106.644 117.899 106.644C117.592 106.644 117.342 106.395 117.342 106.087C117.342 105.78 117.592 105.53 117.899 105.53C118.207 105.53 118.456 105.78 118.456 106.087Z" fill="#22B5CB"/>
<path d="M118.58 104.108C118.58 104.415 118.33 104.664 118.023 104.664C117.715 104.664 117.466 104.415 117.466 104.108C117.466 103.8 117.715 103.551 118.023 103.551C118.33 103.551 118.58 103.8 118.58 104.108Z" fill="#22B5CB"/>
<path d="M119.075 102.128C119.075 102.435 118.825 102.685 118.518 102.685C118.21 102.685 117.961 102.435 117.961 102.128C117.961 101.82 118.21 101.571 118.518 101.571C118.825 101.571 119.075 101.82 119.075 102.128Z" fill="#22B5CB"/>
<path d="M136.891 124.647C136.891 124.954 136.642 125.203 136.335 125.203C136.027 125.203 135.778 124.954 135.778 124.647C135.778 124.339 136.027 124.09 136.335 124.09C136.642 124.09 136.891 124.339 136.891 124.647Z" fill="#22B5CB"/>
<path d="M60.6797 181.833C62.8515 181.833 64.7685 182.42 66.4306 183.595C68.0927 184.769 69.367 186.309 70.2534 188.215C71.1621 190.099 71.6164 192.083 71.6164 194.166C71.6164 196.315 71.1953 198.332 70.3532 200.216C69.511 202.077 68.2589 203.584 66.5968 204.737C64.9568 205.867 62.9845 206.432 60.6797 206.432C58.5078 206.432 56.5798 205.845 54.8955 204.67C53.2112 203.496 51.9148 201.967 51.0062 200.083C50.0975 198.199 49.6432 196.227 49.6432 194.166C49.6432 192.016 50.0754 189.999 50.9397 188.116C51.804 186.232 53.0672 184.714 54.7293 183.561C56.3914 182.409 58.3749 181.833 60.6797 181.833ZM59.4497 183.694C58.12 183.694 57.023 184.115 56.1587 184.958C55.3166 185.778 54.7071 186.819 54.3304 188.082C53.9536 189.346 53.7653 190.642 53.7653 191.972C53.7653 193.9 54.0423 195.828 54.5963 197.756C55.1725 199.662 56.059 201.257 57.2557 202.543C58.4746 203.828 60.0037 204.471 61.8431 204.471C63.1507 204.471 64.2255 204.05 65.0676 203.208C65.9319 202.343 66.5525 201.28 66.9292 200.016C67.306 198.731 67.4943 197.435 67.4943 196.127C67.4943 194.265 67.2062 192.382 66.63 190.476C66.076 188.548 65.1895 186.941 63.9706 185.656C62.7739 184.348 61.2669 183.694 59.4497 183.694ZM89.2558 202.908C89.2558 203.241 89.3334 203.518 89.4885 203.74C89.6436 203.939 89.8653 204.039 90.1534 204.039C90.5966 204.039 91.1395 203.662 91.7822 202.908L92.3474 203.507C91.7933 204.637 91.1063 205.379 90.2863 205.734C89.4664 206.066 88.8458 206.233 88.4248 206.233C87.6048 206.233 86.9732 206.044 86.53 205.668C86.1089 205.291 85.7986 204.67 85.5992 203.806C85.4219 202.92 85.3332 201.679 85.3332 200.083V199.086L85.2003 196.792H85.0673C84.5354 199.163 83.7376 201.357 82.6738 203.374C81.6323 205.391 80.2582 206.399 78.5518 206.399C77.7983 206.399 77.2332 206.222 76.8564 205.867C76.5019 205.49 76.2692 204.992 76.1584 204.371C76.0697 203.751 76.0254 202.897 76.0254 201.811V192.57C76.0254 192.193 75.9478 191.905 75.7927 191.706C75.6376 191.484 75.427 191.373 75.1611 191.373C74.6292 191.373 74.0641 191.772 73.4657 192.57L72.9006 191.939C73.2774 191.119 73.7538 190.498 74.33 190.077C74.9062 189.656 75.4049 189.39 75.8259 189.279C76.2692 189.168 76.5573 189.113 76.6902 189.113C77.887 189.113 78.7402 189.445 79.2499 190.11C79.7596 190.753 80.0145 191.573 80.0145 192.57V201.446C80.0145 201.845 80.0588 202.155 80.1474 202.377C80.2582 202.598 80.3912 202.709 80.5463 202.709C81.3442 202.709 82.0866 201.911 82.7736 200.316C83.4606 198.698 84.0146 196.869 84.4357 194.831C84.8568 192.77 85.0673 191.274 85.0673 190.343L89.2558 188.947V202.908ZM99.3075 197.789C99.9945 196.216 100.803 194.908 101.734 193.867L101.634 193.734C100.881 194.177 99.9723 194.398 98.9086 194.398C98.2215 194.398 97.5899 194.288 97.0137 194.066L94.853 198.687L93.4901 198.088L95.7173 193.501C95.6508 193.434 95.4403 193.246 95.0857 192.936C94.7311 192.626 94.5095 192.315 94.4208 192.005L97.6121 188.415C97.8559 189.323 98.3213 190.121 99.0083 190.808C99.7174 191.473 100.504 191.806 101.368 191.806C102.72 191.806 104.139 191.318 105.623 190.343L106.222 190.974C104.936 192.171 103.839 193.59 102.931 195.23C102.022 196.869 101.568 198.52 101.568 200.183C101.568 201.202 101.823 202.055 102.333 202.742C102.864 203.429 103.629 203.773 104.626 203.773C105.291 203.773 106 203.529 106.754 203.041L107.252 203.64C106.61 204.46 105.834 205.114 104.925 205.601C104.039 206.089 103.108 206.332 102.133 206.332C100.914 206.332 99.9723 205.934 99.3075 205.136C98.6426 204.316 98.3102 203.285 98.3102 202.044C98.3102 200.759 98.6426 199.34 99.3075 197.789ZM129.458 181.8C130.854 181.8 131.995 182.088 132.882 182.664C133.768 183.24 134.212 184.005 134.212 184.958C134.212 185.911 133.813 186.864 133.015 187.816C132.239 188.769 131.22 189.567 129.957 190.21C128.716 190.853 127.441 191.207 126.134 191.274L125.668 190.409C126.821 190.121 127.796 189.556 128.594 188.714C129.414 187.85 129.824 186.963 129.824 186.055C129.824 185.345 129.602 184.78 129.159 184.359C128.738 183.938 128.161 183.728 127.43 183.728C126.145 183.728 124.981 184.226 123.94 185.224C122.92 186.199 122.111 187.551 121.513 189.279C120.937 190.986 120.649 192.914 120.649 195.063C120.649 197.612 121.048 199.629 121.845 201.113C122.665 202.598 123.818 203.341 125.303 203.341C126.211 203.341 127.087 202.997 127.929 202.31C128.771 201.601 129.458 200.681 129.99 199.551C130.522 198.421 130.799 197.257 130.821 196.061L134.976 194.764V208.294L130.921 209.657V200.116H130.721C130.167 202.044 129.225 203.562 127.896 204.67C126.566 205.756 125.059 206.299 123.375 206.299C121.934 206.299 120.66 205.934 119.552 205.202C118.466 204.449 117.613 203.407 116.992 202.077C116.394 200.726 116.095 199.185 116.095 197.457C116.095 194.576 116.682 191.95 117.856 189.578C119.053 187.185 120.671 185.29 122.71 183.894C124.749 182.498 126.998 181.8 129.458 181.8ZM153.76 202.908C153.76 203.241 153.838 203.518 153.993 203.74C154.148 203.939 154.37 204.039 154.658 204.039C155.101 204.039 155.644 203.662 156.287 202.908L156.852 203.507C156.298 204.637 155.611 205.379 154.791 205.734C153.971 206.066 153.35 206.233 152.929 206.233C152.109 206.233 151.477 206.044 151.034 205.668C150.613 205.291 150.303 204.67 150.103 203.806C149.926 202.92 149.838 201.679 149.838 200.083V199.086L149.705 196.792H149.572C149.04 199.163 148.242 201.357 147.178 203.374C146.137 205.391 144.763 206.399 143.056 206.399C142.303 206.399 141.738 206.222 141.361 205.867C141.006 205.49 140.773 204.992 140.663 204.371C140.574 203.751 140.53 202.897 140.53 201.811V192.57C140.53 192.193 140.452 191.905 140.297 191.706C140.142 191.484 139.931 191.373 139.665 191.373C139.134 191.373 138.568 191.772 137.97 192.57L137.405 191.939C137.782 191.119 138.258 190.498 138.834 190.077C139.411 189.656 139.909 189.39 140.33 189.279C140.773 189.168 141.062 189.113 141.195 189.113C142.391 189.113 143.244 189.445 143.754 190.11C144.264 190.753 144.519 191.573 144.519 192.57V201.446C144.519 201.845 144.563 202.155 144.652 202.377C144.763 202.598 144.896 202.709 145.051 202.709C145.848 202.709 146.591 201.911 147.278 200.316C147.965 198.698 148.519 196.869 148.94 194.831C149.361 192.77 149.572 191.274 149.572 190.343L153.76 188.947V202.908ZM162.981 185.888L160.886 186.553L159.524 179.606L164.144 178.043L162.981 185.888ZM164.044 202.942C164.044 203.274 164.122 203.54 164.277 203.74C164.432 203.939 164.643 204.039 164.909 204.039C165.463 204.039 166.028 203.651 166.604 202.875L167.202 203.507C166.715 204.393 166.083 205.069 165.308 205.535C164.554 206 163.801 206.233 163.047 206.233C161.03 206.233 160.022 205.069 160.022 202.742V190.775L164.044 189.379V202.942ZM183.907 202.809C183.907 203.119 183.974 203.396 184.107 203.64C184.262 203.861 184.484 203.972 184.772 203.972C185.06 203.972 185.348 203.85 185.636 203.607C185.946 203.363 186.179 203.097 186.334 202.809L187.066 203.44C186.667 204.216 186.113 204.881 185.403 205.435C184.716 205.967 183.974 206.233 183.176 206.233C182.024 206.233 181.193 205.922 180.683 205.302C180.173 204.659 179.93 203.684 179.952 202.377H179.785C179.276 203.529 178.611 204.493 177.791 205.269C176.971 206.022 175.985 206.399 174.832 206.399C173.613 206.399 172.572 206.089 171.708 205.468C170.843 204.848 170.19 204.017 169.746 202.975C169.303 201.911 169.081 200.737 169.081 199.451C169.081 197.811 169.414 196.205 170.079 194.631C170.766 193.036 171.752 191.728 173.037 190.709C174.323 189.689 175.819 189.179 177.525 189.179C178.389 189.179 179.176 189.39 179.885 189.811V176.68L183.907 175.284V202.809ZM177.458 191.307C176.395 191.307 175.508 191.673 174.799 192.404C174.112 193.113 173.602 194 173.27 195.063C172.938 196.105 172.771 197.135 172.771 198.155C172.771 199.529 173.037 200.836 173.569 202.077C174.123 203.318 174.987 203.939 176.162 203.939C177.58 203.939 178.555 203.219 179.087 201.778C179.619 200.316 179.885 198.731 179.885 197.025V192.404C179.154 191.673 178.345 191.307 177.458 191.307ZM198.591 189.08C199.876 189.08 200.951 189.412 201.815 190.077C202.68 190.72 203.112 191.661 203.112 192.903C203.112 193.9 202.569 195.019 201.483 196.26C200.419 197.479 199.145 198.62 197.66 199.684C196.197 200.726 194.945 201.479 193.904 201.944C194.834 203.429 196.197 204.172 197.992 204.172C198.99 204.172 199.987 203.895 200.984 203.341C202.004 202.764 202.868 202.011 203.577 201.08L204.242 201.878C203.09 203.318 201.871 204.438 200.585 205.235C199.322 206.011 197.815 206.399 196.064 206.399C194.646 206.399 193.372 206.078 192.241 205.435C191.133 204.792 190.258 203.917 189.615 202.809C188.995 201.679 188.685 200.415 188.685 199.019C188.685 197.335 189.139 195.728 190.047 194.199C190.978 192.648 192.208 191.407 193.737 190.476C195.266 189.545 196.884 189.08 198.591 189.08ZM196.696 191.24C195.854 191.24 195.1 191.551 194.435 192.171C193.771 192.77 193.25 193.545 192.873 194.498C192.496 195.451 192.308 196.437 192.308 197.457C192.308 198.786 192.596 199.928 193.172 200.881C193.992 200.415 194.857 199.773 195.765 198.953C196.696 198.11 197.472 197.213 198.092 196.26C198.713 195.307 199.023 194.443 199.023 193.667C199.023 192.891 198.812 192.293 198.391 191.872C197.992 191.451 197.427 191.24 196.696 191.24ZM211.663 188.016C213.17 188.016 213.924 188.614 213.924 189.811C213.902 190.343 213.791 190.808 213.591 191.207C213.392 191.606 213.17 191.961 212.926 192.271C212.705 192.581 212.55 192.792 212.461 192.903C212.749 193.235 213.27 193.711 214.023 194.332C214.71 194.886 215.265 195.396 215.686 195.861C216.107 196.304 216.461 196.881 216.749 197.59C217.037 198.277 217.181 199.119 217.181 200.116C217.181 201.269 216.893 202.332 216.317 203.307C215.763 204.26 214.999 205.014 214.023 205.568C213.048 206.122 211.974 206.399 210.799 206.399C209.935 206.399 209.037 206.244 208.106 205.934C207.176 205.623 206.477 205.191 206.012 204.637L208.439 201.379C208.904 202.088 209.458 202.72 210.101 203.274C210.744 203.828 211.386 204.105 212.029 204.105C212.849 204.105 213.558 203.828 214.156 203.274C214.755 202.72 215.054 202.022 215.054 201.18C215.054 200.493 214.766 199.817 214.19 199.152C213.613 198.487 212.793 197.678 211.73 196.725C210.998 196.083 210.533 195.651 210.334 195.429L208.073 198.72L206.876 197.922L209.469 194.332C209.026 193.534 208.804 192.614 208.804 191.573C208.804 190.553 209.048 189.711 209.536 189.046C210.023 188.359 210.732 188.016 211.663 188.016ZM211.663 189.379C211.397 189.379 211.22 189.456 211.131 189.612C211.043 189.767 210.998 189.988 210.998 190.276C210.998 190.52 211.043 190.764 211.131 191.008C211.22 191.252 211.32 191.495 211.431 191.739C211.674 191.562 211.885 191.296 212.062 190.941C212.239 190.587 212.328 190.276 212.328 190.01C212.328 189.833 212.262 189.689 212.129 189.578C212.018 189.445 211.863 189.379 211.663 189.379Z" fill="#19213D"/>
<path d="M45.4659 247.28L48.8054 237.666H50.4323L46.2365 249H45.0766L45.4659 247.28ZM42.3443 237.666L45.6527 247.28L46.0653 249H44.9054L40.7174 237.666H42.3443ZM53.3048 240.577V249H51.8569V240.577H53.3048ZM51.7479 238.343C51.7479 238.11 51.818 237.912 51.9581 237.751C52.1034 237.591 52.3162 237.51 52.5964 237.51C52.8715 237.51 53.0816 237.591 53.2269 237.751C53.3774 237.912 53.4527 238.11 53.4527 238.343C53.4527 238.566 53.3774 238.758 53.2269 238.919C53.0816 239.075 52.8715 239.153 52.5964 239.153C52.3162 239.153 52.1034 239.075 51.9581 238.919C51.818 238.758 51.7479 238.566 51.7479 238.343ZM59.112 249.156C58.5255 249.156 57.9936 249.057 57.5162 248.86C57.0439 248.657 56.6365 248.375 56.294 248.011C55.9567 247.648 55.6972 247.217 55.5156 246.719C55.3339 246.221 55.2431 245.676 55.2431 245.084V244.757C55.2431 244.072 55.3443 243.463 55.5467 242.928C55.7491 242.388 56.0242 241.932 56.3719 241.558C56.7196 241.184 57.114 240.902 57.5551 240.71C57.9962 240.518 58.4529 240.422 58.9251 240.422C59.5271 240.422 60.0461 240.525 60.482 240.733C60.9232 240.941 61.2838 241.231 61.5641 241.605C61.8443 241.973 62.0519 242.409 62.1868 242.913C62.3218 243.411 62.3892 243.956 62.3892 244.547V245.193H56.0994V244.018H60.9491V243.909C60.9283 243.535 60.8505 243.172 60.7156 242.819C60.5858 242.466 60.3782 242.176 60.0928 241.947C59.8074 241.719 59.4182 241.605 58.9251 241.605C58.5982 241.605 58.2972 241.675 58.0222 241.815C57.7471 241.95 57.511 242.152 57.3138 242.422C57.1166 242.692 56.9635 243.022 56.8545 243.411C56.7455 243.8 56.691 244.249 56.691 244.757V245.084C56.691 245.484 56.7455 245.86 56.8545 246.213C56.9687 246.561 57.1321 246.867 57.3449 247.132C57.5629 247.396 57.8249 247.604 58.1311 247.754C58.4425 247.905 58.7954 247.98 59.1898 247.98C59.6984 247.98 60.1291 247.876 60.482 247.669C60.8349 247.461 61.1437 247.184 61.4084 246.836L62.2802 247.529C62.0986 247.804 61.8677 248.066 61.5874 248.315C61.3072 248.564 60.9621 248.766 60.5521 248.922C60.1473 249.078 59.6673 249.156 59.112 249.156ZM66.2036 247.505L68.3677 240.577H69.3174L69.1305 241.955L66.9275 249H66.0012L66.2036 247.505ZM64.7479 240.577L66.5928 247.583L66.7251 249H65.7521L63.3078 240.577H64.7479ZM71.388 247.529L73.1473 240.577H74.5796L72.1353 249H71.1701L71.388 247.529ZM69.5275 240.577L71.6449 247.389L71.8862 249H70.9677L68.7024 241.94L68.5156 240.577H69.5275ZM84.9796 247.56V243.224C84.9796 242.892 84.9122 242.604 84.7772 242.36C84.6475 242.111 84.4503 241.919 84.1856 241.784C83.921 241.649 83.594 241.581 83.2048 241.581C82.8415 241.581 82.5224 241.644 82.2473 241.768C81.9774 241.893 81.7647 242.056 81.609 242.259C81.4585 242.461 81.3832 242.679 81.3832 242.913H79.9431C79.9431 242.612 80.021 242.313 80.1767 242.017C80.3323 241.722 80.5555 241.454 80.8461 241.216C81.1419 240.972 81.4948 240.78 81.9048 240.64C82.32 240.494 82.7818 240.422 83.2904 240.422C83.9028 240.422 84.4425 240.525 84.9096 240.733C85.3818 240.941 85.7503 241.254 86.015 241.675C86.2848 242.09 86.4198 242.612 86.4198 243.24V247.163C86.4198 247.443 86.4431 247.742 86.4898 248.058C86.5417 248.375 86.617 248.647 86.7156 248.875V249H85.2132C85.1405 248.834 85.0834 248.613 85.0419 248.338C85.0004 248.058 84.9796 247.799 84.9796 247.56ZM85.2287 243.893L85.2443 244.905H83.7886C83.3786 244.905 83.0128 244.939 82.691 245.007C82.3693 245.069 82.0994 245.165 81.8814 245.295C81.6635 245.424 81.4974 245.588 81.3832 245.785C81.2691 245.977 81.212 246.203 81.212 246.462C81.212 246.727 81.2717 246.968 81.391 247.186C81.5104 247.404 81.6894 247.578 81.9281 247.708C82.1721 247.832 82.4705 247.895 82.8234 247.895C83.2645 247.895 83.6537 247.801 83.991 247.614C84.3283 247.428 84.5956 247.199 84.7928 246.929C84.9952 246.659 85.1042 246.397 85.1198 246.143L85.7347 246.836C85.6984 247.054 85.5998 247.295 85.4389 247.56C85.278 247.825 85.0627 248.079 84.7928 248.323C84.5281 248.561 84.2116 248.761 83.8431 248.922C83.4798 249.078 83.0699 249.156 82.6132 249.156C82.0423 249.156 81.5415 249.044 81.1108 248.821C80.6852 248.598 80.3531 248.299 80.1144 247.926C79.8808 247.547 79.7641 247.124 79.7641 246.657C79.7641 246.205 79.8523 245.808 80.0287 245.466C80.2052 245.118 80.4595 244.83 80.7916 244.602C81.1238 244.368 81.5234 244.192 81.9904 244.072C82.4575 243.953 82.979 243.893 83.5551 243.893H85.2287ZM90.1251 242.375V249H88.685V240.577H90.0473L90.1251 242.375ZM89.7826 244.469L89.1832 244.446C89.1884 243.87 89.2741 243.338 89.4401 242.85C89.6062 242.357 89.8397 241.929 90.1407 241.566C90.4417 241.203 90.7998 240.922 91.215 240.725C91.6353 240.523 92.0998 240.422 92.6084 240.422C93.0236 240.422 93.3972 240.479 93.7293 240.593C94.0615 240.702 94.3443 240.878 94.5778 241.122C94.8166 241.366 94.9982 241.683 95.1228 242.072C95.2473 242.456 95.3096 242.926 95.3096 243.481V249H93.8617V243.465C93.8617 243.024 93.7968 242.671 93.6671 242.407C93.5373 242.137 93.3479 241.942 93.0988 241.823C92.8497 241.698 92.5435 241.636 92.1802 241.636C91.8222 241.636 91.4952 241.711 91.1994 241.862C90.9088 242.012 90.6571 242.22 90.4443 242.484C90.2367 242.749 90.0733 243.053 89.9539 243.395C89.8397 243.733 89.7826 244.091 89.7826 244.469ZM102.806 247.365V237.043H104.254V249H102.931L102.806 247.365ZM97.1389 244.882V244.719C97.1389 244.075 97.2168 243.491 97.3725 242.967C97.5333 242.438 97.7591 241.984 98.0497 241.605C98.3455 241.226 98.6958 240.935 99.1006 240.733C99.5106 240.525 99.9673 240.422 100.471 240.422C101 240.422 101.462 240.515 101.856 240.702C102.256 240.883 102.593 241.151 102.868 241.504C103.149 241.851 103.369 242.272 103.53 242.765C103.691 243.258 103.802 243.816 103.865 244.438V245.154C103.808 245.772 103.696 246.327 103.53 246.82C103.369 247.313 103.149 247.734 102.868 248.081C102.593 248.429 102.256 248.696 101.856 248.883C101.457 249.065 100.99 249.156 100.455 249.156C99.9621 249.156 99.5106 249.049 99.1006 248.837C98.6958 248.624 98.3455 248.325 98.0497 247.941C97.7591 247.557 97.5333 247.106 97.3725 246.587C97.2168 246.063 97.1389 245.494 97.1389 244.882ZM98.5868 244.719V244.882C98.5868 245.302 98.6283 245.697 98.7114 246.065C98.7996 246.434 98.9345 246.758 99.1162 247.038C99.2978 247.319 99.5287 247.539 99.809 247.7C100.089 247.856 100.424 247.934 100.813 247.934C101.291 247.934 101.682 247.832 101.989 247.63C102.3 247.428 102.549 247.16 102.736 246.828C102.923 246.496 103.068 246.135 103.172 245.746V243.87C103.11 243.585 103.019 243.31 102.899 243.045C102.785 242.775 102.635 242.536 102.448 242.329C102.266 242.116 102.041 241.947 101.771 241.823C101.506 241.698 101.192 241.636 100.829 241.636C100.434 241.636 100.094 241.719 99.809 241.885C99.5287 242.046 99.2978 242.269 99.1162 242.554C98.9345 242.835 98.7996 243.162 98.7114 243.535C98.6283 243.904 98.5868 244.298 98.5868 244.719ZM115.759 247.365V237.043H117.207V249H115.884L115.759 247.365ZM110.092 244.882V244.719C110.092 244.075 110.17 243.491 110.326 242.967C110.487 242.438 110.712 241.984 111.003 241.605C111.299 241.226 111.649 240.935 112.054 240.733C112.464 240.525 112.921 240.422 113.424 240.422C113.953 240.422 114.415 240.515 114.81 240.702C115.209 240.883 115.547 241.151 115.822 241.504C116.102 241.851 116.322 242.272 116.483 242.765C116.644 243.258 116.756 243.816 116.818 244.438V245.154C116.761 245.772 116.649 246.327 116.483 246.82C116.322 247.313 116.102 247.734 115.822 248.081C115.547 248.429 115.209 248.696 114.81 248.883C114.41 249.065 113.943 249.156 113.408 249.156C112.915 249.156 112.464 249.049 112.054 248.837C111.649 248.624 111.299 248.325 111.003 247.941C110.712 247.557 110.487 247.106 110.326 246.587C110.17 246.063 110.092 245.494 110.092 244.882ZM111.54 244.719V244.882C111.54 245.302 111.582 245.697 111.665 246.065C111.753 246.434 111.888 246.758 112.069 247.038C112.251 247.319 112.482 247.539 112.762 247.7C113.043 247.856 113.377 247.934 113.766 247.934C114.244 247.934 114.636 247.832 114.942 247.63C115.253 247.428 115.502 247.16 115.689 246.828C115.876 246.496 116.021 246.135 116.125 245.746V243.87C116.063 243.585 115.972 243.31 115.853 243.045C115.739 242.775 115.588 242.536 115.401 242.329C115.22 242.116 114.994 241.947 114.724 241.823C114.459 241.698 114.145 241.636 113.782 241.636C113.388 241.636 113.048 241.719 112.762 241.885C112.482 242.046 112.251 242.269 112.069 242.554C111.888 242.835 111.753 243.162 111.665 243.535C111.582 243.904 111.54 244.298 111.54 244.719ZM119.068 244.882V244.703C119.068 244.096 119.156 243.533 119.332 243.014C119.509 242.49 119.763 242.036 120.095 241.651C120.427 241.262 120.83 240.961 121.302 240.749C121.774 240.531 122.303 240.422 122.89 240.422C123.481 240.422 124.013 240.531 124.486 240.749C124.963 240.961 125.368 241.262 125.7 241.651C126.037 242.036 126.294 242.49 126.471 243.014C126.647 243.533 126.735 244.096 126.735 244.703V244.882C126.735 245.489 126.647 246.052 126.471 246.571C126.294 247.09 126.037 247.544 125.7 247.934C125.368 248.318 124.966 248.619 124.493 248.837C124.026 249.049 123.497 249.156 122.905 249.156C122.314 249.156 121.782 249.049 121.31 248.837C120.837 248.619 120.433 248.318 120.095 247.934C119.763 247.544 119.509 247.09 119.332 246.571C119.156 246.052 119.068 245.489 119.068 244.882ZM120.508 244.703V244.882C120.508 245.302 120.557 245.699 120.656 246.073C120.754 246.442 120.902 246.768 121.099 247.054C121.302 247.339 121.553 247.565 121.854 247.731C122.155 247.892 122.506 247.972 122.905 247.972C123.3 247.972 123.645 247.892 123.941 247.731C124.242 247.565 124.491 247.339 124.688 247.054C124.885 246.768 125.033 246.442 125.132 246.073C125.236 245.699 125.287 245.302 125.287 244.882V244.703C125.287 244.288 125.236 243.896 125.132 243.528C125.033 243.154 124.883 242.824 124.68 242.539C124.483 242.248 124.234 242.02 123.933 241.854C123.637 241.688 123.289 241.605 122.89 241.605C122.495 241.605 122.148 241.688 121.847 241.854C121.551 242.02 121.302 242.248 121.099 242.539C120.902 242.824 120.754 243.154 120.656 243.528C120.557 243.896 120.508 244.288 120.508 244.703ZM130.674 247.505L132.838 240.577H133.788L133.601 241.955L131.398 249H130.472L130.674 247.505ZM129.219 240.577L131.063 247.583L131.196 249H130.223L127.778 240.577H129.219ZM135.859 247.529L137.618 240.577H139.05L136.606 249H135.641L135.859 247.529ZM133.998 240.577L136.116 247.389L136.357 249H135.438L133.173 241.94L132.986 240.577H133.998ZM141.969 242.375V249H140.529V240.577H141.892L141.969 242.375ZM141.627 244.469L141.028 244.446C141.033 243.87 141.118 243.338 141.284 242.85C141.451 242.357 141.684 241.929 141.985 241.566C142.286 241.203 142.644 240.922 143.059 240.725C143.48 240.523 143.944 240.422 144.453 240.422C144.868 240.422 145.242 240.479 145.574 240.593C145.906 240.702 146.189 240.878 146.422 241.122C146.661 241.366 146.843 241.683 146.967 242.072C147.092 242.456 147.154 242.926 147.154 243.481V249H145.706V243.465C145.706 243.024 145.641 242.671 145.511 242.407C145.382 242.137 145.192 241.942 144.943 241.823C144.694 241.698 144.388 241.636 144.025 241.636C143.666 241.636 143.34 241.711 143.044 241.862C142.753 242.012 142.501 242.22 142.289 242.484C142.081 242.749 141.918 243.053 141.798 243.395C141.684 243.733 141.627 244.091 141.627 244.469ZM150.906 237.043V249H149.458V237.043H150.906ZM152.837 244.882V244.703C152.837 244.096 152.925 243.533 153.101 243.014C153.278 242.49 153.532 242.036 153.864 241.651C154.196 241.262 154.598 240.961 155.071 240.749C155.543 240.531 156.072 240.422 156.659 240.422C157.25 240.422 157.782 240.531 158.254 240.749C158.732 240.961 159.137 241.262 159.469 241.651C159.806 242.036 160.063 242.49 160.24 243.014C160.416 243.533 160.504 244.096 160.504 244.703V244.882C160.504 245.489 160.416 246.052 160.24 246.571C160.063 247.09 159.806 247.544 159.469 247.934C159.137 248.318 158.735 248.619 158.262 248.837C157.795 249.049 157.266 249.156 156.674 249.156C156.083 249.156 155.551 249.049 155.078 248.837C154.606 248.619 154.201 248.318 153.864 247.934C153.532 247.544 153.278 247.09 153.101 246.571C152.925 246.052 152.837 245.489 152.837 244.882ZM154.277 244.703V244.882C154.277 245.302 154.326 245.699 154.425 246.073C154.523 246.442 154.671 246.768 154.868 247.054C155.071 247.339 155.322 247.565 155.623 247.731C155.924 247.892 156.275 247.972 156.674 247.972C157.069 247.972 157.414 247.892 157.71 247.731C158.011 247.565 158.26 247.339 158.457 247.054C158.654 246.768 158.802 246.442 158.901 246.073C159.004 245.699 159.056 245.302 159.056 244.882V244.703C159.056 244.288 159.004 243.896 158.901 243.528C158.802 243.154 158.651 242.824 158.449 242.539C158.252 242.248 158.003 242.02 157.702 241.854C157.406 241.688 157.058 241.605 156.659 241.605C156.264 241.605 155.917 241.688 155.616 241.854C155.32 242.02 155.071 242.248 154.868 242.539C154.671 242.824 154.523 243.154 154.425 243.528C154.326 243.896 154.277 244.288 154.277 244.703ZM167.277 247.56V243.224C167.277 242.892 167.209 242.604 167.074 242.36C166.945 242.111 166.747 241.919 166.483 241.784C166.218 241.649 165.891 241.581 165.502 241.581C165.139 241.581 164.819 241.644 164.544 241.768C164.274 241.893 164.062 242.056 163.906 242.259C163.755 242.461 163.68 242.679 163.68 242.913H162.24C162.24 242.612 162.318 242.313 162.474 242.017C162.629 241.722 162.853 241.454 163.143 241.216C163.439 240.972 163.792 240.78 164.202 240.64C164.617 240.494 165.079 240.422 165.587 240.422C166.2 240.422 166.74 240.525 167.207 240.733C167.679 240.941 168.047 241.254 168.312 241.675C168.582 242.09 168.717 242.612 168.717 243.24V247.163C168.717 247.443 168.74 247.742 168.787 248.058C168.839 248.375 168.914 248.647 169.013 248.875V249H167.51C167.438 248.834 167.38 248.613 167.339 248.338C167.297 248.058 167.277 247.799 167.277 247.56ZM167.526 243.893L167.541 244.905H166.086C165.676 244.905 165.31 244.939 164.988 245.007C164.666 245.069 164.396 245.165 164.178 245.295C163.96 245.424 163.794 245.588 163.68 245.785C163.566 245.977 163.509 246.203 163.509 246.462C163.509 246.727 163.569 246.968 163.688 247.186C163.807 247.404 163.986 247.578 164.225 247.708C164.469 247.832 164.767 247.895 165.12 247.895C165.561 247.895 165.951 247.801 166.288 247.614C166.625 247.428 166.893 247.199 167.09 246.929C167.292 246.659 167.401 246.397 167.417 246.143L168.032 246.836C167.995 247.054 167.897 247.295 167.736 247.56C167.575 247.825 167.36 248.079 167.09 248.323C166.825 248.561 166.509 248.761 166.14 248.922C165.777 249.078 165.367 249.156 164.91 249.156C164.339 249.156 163.839 249.044 163.408 248.821C162.982 248.598 162.65 248.299 162.411 247.926C162.178 247.547 162.061 247.124 162.061 246.657C162.061 246.205 162.149 245.808 162.326 245.466C162.502 245.118 162.756 244.83 163.089 244.602C163.421 244.368 163.82 244.192 164.287 244.072C164.755 243.953 165.276 243.893 165.852 243.893H167.526ZM176.291 247.365V237.043H177.739V249H176.416L176.291 247.365ZM170.624 244.882V244.719C170.624 244.075 170.702 243.491 170.857 242.967C171.018 242.438 171.244 241.984 171.535 241.605C171.831 241.226 172.181 240.935 172.586 240.733C172.996 240.525 173.452 240.422 173.956 240.422C174.485 240.422 174.947 240.515 175.341 240.702C175.741 240.883 176.078 241.151 176.353 241.504C176.634 241.851 176.854 242.272 177.015 242.765C177.176 243.258 177.287 243.816 177.35 244.438V245.154C177.293 245.772 177.181 246.327 177.015 246.82C176.854 247.313 176.634 247.734 176.353 248.081C176.078 248.429 175.741 248.696 175.341 248.883C174.942 249.065 174.475 249.156 173.94 249.156C173.447 249.156 172.996 249.049 172.586 248.837C172.181 248.624 171.831 248.325 171.535 247.941C171.244 247.557 171.018 247.106 170.857 246.587C170.702 246.063 170.624 245.494 170.624 244.882ZM172.072 244.719V244.882C172.072 245.302 172.113 245.697 172.196 246.065C172.285 246.434 172.42 246.758 172.601 247.038C172.783 247.319 173.014 247.539 173.294 247.7C173.574 247.856 173.909 247.934 174.298 247.934C174.776 247.934 175.167 247.832 175.474 247.63C175.785 247.428 176.034 247.16 176.221 246.828C176.408 246.496 176.553 246.135 176.657 245.746V243.87C176.595 243.585 176.504 243.31 176.384 243.045C176.27 242.775 176.12 242.536 175.933 242.329C175.751 242.116 175.526 241.947 175.256 241.823C174.991 241.698 174.677 241.636 174.314 241.636C173.919 241.636 173.579 241.719 173.294 241.885C173.014 242.046 172.783 242.269 172.601 242.554C172.42 242.835 172.285 243.162 172.196 243.535C172.113 243.904 172.072 244.298 172.072 244.719ZM188.902 247.56V243.224C188.902 242.892 188.834 242.604 188.699 242.36C188.57 242.111 188.372 241.919 188.108 241.784C187.843 241.649 187.516 241.581 187.127 241.581C186.764 241.581 186.445 241.644 186.169 241.768C185.9 241.893 185.687 242.056 185.531 242.259C185.381 242.461 185.305 242.679 185.305 242.913H183.865C183.865 242.612 183.943 242.313 184.099 242.017C184.255 241.722 184.478 241.454 184.768 241.216C185.064 240.972 185.417 240.78 185.827 240.64C186.242 240.494 186.704 240.422 187.213 240.422C187.825 240.422 188.365 240.525 188.832 240.733C189.304 240.941 189.672 241.254 189.937 241.675C190.207 242.09 190.342 242.612 190.342 243.24V247.163C190.342 247.443 190.365 247.742 190.412 248.058C190.464 248.375 190.539 248.647 190.638 248.875V249H189.135C189.063 248.834 189.006 248.613 188.964 248.338C188.923 248.058 188.902 247.799 188.902 247.56ZM189.151 243.893L189.166 244.905H187.711C187.301 244.905 186.935 244.939 186.613 245.007C186.291 245.069 186.022 245.165 185.804 245.295C185.586 245.424 185.42 245.588 185.305 245.785C185.191 245.977 185.134 246.203 185.134 246.462C185.134 246.727 185.194 246.968 185.313 247.186C185.433 247.404 185.612 247.578 185.85 247.708C186.094 247.832 186.393 247.895 186.746 247.895C187.187 247.895 187.576 247.801 187.913 247.614C188.251 247.428 188.518 247.199 188.715 246.929C188.917 246.659 189.026 246.397 189.042 246.143L189.657 246.836C189.621 247.054 189.522 247.295 189.361 247.56C189.2 247.825 188.985 248.079 188.715 248.323C188.45 248.561 188.134 248.761 187.765 248.922C187.402 249.078 186.992 249.156 186.535 249.156C185.964 249.156 185.464 249.044 185.033 248.821C184.607 248.598 184.275 248.299 184.037 247.926C183.803 247.547 183.686 247.124 183.686 246.657C183.686 246.205 183.774 245.808 183.951 245.466C184.127 245.118 184.382 244.83 184.714 244.602C185.046 244.368 185.446 244.192 185.913 244.072C186.38 243.953 186.901 243.893 187.477 243.893H189.151ZM194.172 237.043V249H192.724V237.043H194.172ZM198.049 237.043V249H196.601V237.043H198.049ZM203.934 244.882V244.703C203.934 244.096 204.022 243.533 204.198 243.014C204.375 242.49 204.629 242.036 204.961 241.651C205.293 241.262 205.695 240.961 206.168 240.749C206.64 240.531 207.169 240.422 207.756 240.422C208.347 240.422 208.879 240.531 209.352 240.749C209.829 240.961 210.234 241.262 210.566 241.651C210.903 242.036 211.16 242.49 211.337 243.014C211.513 243.533 211.601 244.096 211.601 244.703V244.882C211.601 245.489 211.513 246.052 211.337 246.571C211.16 247.09 210.903 247.544 210.566 247.934C210.234 248.318 209.832 248.619 209.359 248.837C208.892 249.049 208.363 249.156 207.771 249.156C207.18 249.156 206.648 249.049 206.175 248.837C205.703 248.619 205.298 248.318 204.961 247.934C204.629 247.544 204.375 247.09 204.198 246.571C204.022 246.052 203.934 245.489 203.934 244.882ZM205.374 244.703V244.882C205.374 245.302 205.423 245.699 205.522 246.073C205.62 246.442 205.768 246.768 205.965 247.054C206.168 247.339 206.419 247.565 206.72 247.731C207.021 247.892 207.372 247.972 207.771 247.972C208.166 247.972 208.511 247.892 208.807 247.731C209.108 247.565 209.357 247.339 209.554 247.054C209.751 246.768 209.899 246.442 209.998 246.073C210.101 245.699 210.153 245.302 210.153 244.882V244.703C210.153 244.288 210.101 243.896 209.998 243.528C209.899 243.154 209.749 242.824 209.546 242.539C209.349 242.248 209.1 242.02 208.799 241.854C208.503 241.688 208.155 241.605 207.756 241.605C207.361 241.605 207.014 241.688 206.713 241.854C206.417 242.02 206.168 242.248 205.965 242.539C205.768 242.824 205.62 243.154 205.522 243.528C205.423 243.896 205.374 244.288 205.374 244.703ZM218.56 247.054V240.577H220.008V249H218.631L218.56 247.054ZM218.833 245.279L219.432 245.263C219.432 245.824 219.373 246.343 219.253 246.82C219.139 247.293 218.952 247.703 218.693 248.05C218.433 248.398 218.093 248.67 217.673 248.868C217.253 249.06 216.742 249.156 216.14 249.156C215.73 249.156 215.353 249.096 215.011 248.977C214.673 248.857 214.383 248.673 214.139 248.424C213.895 248.175 213.706 247.85 213.571 247.451C213.441 247.051 213.376 246.571 213.376 246.011V240.577H214.816V246.026C214.816 246.405 214.858 246.719 214.941 246.968C215.029 247.212 215.146 247.407 215.291 247.552C215.442 247.692 215.608 247.791 215.789 247.848C215.976 247.905 216.168 247.934 216.365 247.934C216.978 247.934 217.463 247.817 217.821 247.583C218.179 247.345 218.436 247.025 218.592 246.626C218.752 246.221 218.833 245.772 218.833 245.279ZM223.644 241.901V249H222.204V240.577H223.605L223.644 241.901ZM226.275 240.531L226.267 241.869C226.148 241.844 226.034 241.828 225.925 241.823C225.821 241.812 225.701 241.807 225.566 241.807C225.234 241.807 224.941 241.859 224.687 241.963C224.433 242.067 224.217 242.212 224.041 242.399C223.864 242.586 223.724 242.809 223.62 243.068C223.522 243.323 223.457 243.603 223.426 243.909L223.021 244.143C223.021 243.634 223.07 243.156 223.169 242.71C223.273 242.264 223.431 241.869 223.644 241.527C223.856 241.179 224.126 240.909 224.453 240.717C224.785 240.52 225.18 240.422 225.637 240.422C225.74 240.422 225.86 240.435 225.995 240.46C226.13 240.481 226.223 240.505 226.275 240.531ZM82.6677 270.56V266.224C82.6677 265.892 82.6002 265.604 82.4653 265.36C82.3355 265.111 82.1383 264.919 81.8737 264.784C81.609 264.649 81.282 264.581 80.8928 264.581C80.5295 264.581 80.2104 264.644 79.9353 264.768C79.6655 264.893 79.4527 265.056 79.297 265.259C79.1465 265.461 79.0713 265.679 79.0713 265.913H77.6311C77.6311 265.612 77.709 265.313 77.8647 265.017C78.0204 264.722 78.2435 264.454 78.5341 264.216C78.8299 263.972 79.1828 263.78 79.5928 263.64C80.008 263.494 80.4699 263.422 80.9784 263.422C81.5908 263.422 82.1305 263.525 82.5976 263.733C83.0699 263.941 83.4383 264.254 83.703 264.675C83.9729 265.09 84.1078 265.612 84.1078 266.24V270.163C84.1078 270.443 84.1311 270.742 84.1778 271.058C84.2297 271.375 84.305 271.647 84.4036 271.875V272H82.9012C82.8285 271.834 82.7715 271.613 82.7299 271.338C82.6884 271.058 82.6677 270.799 82.6677 270.56ZM82.9168 266.893L82.9323 267.905H81.4766C81.0667 267.905 80.7008 267.939 80.379 268.007C80.0573 268.069 79.7874 268.165 79.5695 268.295C79.3515 268.424 79.1854 268.588 79.0713 268.785C78.9571 268.977 78.9 269.203 78.9 269.462C78.9 269.727 78.9597 269.968 79.079 270.186C79.1984 270.404 79.3774 270.578 79.6162 270.708C79.8601 270.832 80.1585 270.895 80.5114 270.895C80.9525 270.895 81.3417 270.801 81.679 270.614C82.0164 270.428 82.2836 270.199 82.4808 269.929C82.6832 269.659 82.7922 269.397 82.8078 269.143L83.4228 269.836C83.3864 270.054 83.2878 270.295 83.1269 270.56C82.9661 270.825 82.7507 271.079 82.4808 271.323C82.2162 271.561 81.8996 271.761 81.5311 271.922C81.1679 272.078 80.7579 272.156 80.3012 272.156C79.7303 272.156 79.2295 272.044 78.7988 271.821C78.3733 271.598 78.0411 271.299 77.8024 270.926C77.5689 270.547 77.4521 270.124 77.4521 269.657C77.4521 269.205 77.5403 268.808 77.7168 268.466C77.8932 268.118 78.1475 267.83 78.4796 267.602C78.8118 267.368 79.2114 267.192 79.6784 267.072C80.1455 266.953 80.6671 266.893 81.2431 266.893H82.9168ZM88.8096 270.7L91.1138 263.577H92.585L89.5569 272H88.5916L88.8096 270.7ZM86.8868 263.577L89.2611 270.739L89.4245 272H88.4593L85.4078 263.577H86.8868ZM98.8126 270.56V266.224C98.8126 265.892 98.7451 265.604 98.6102 265.36C98.4804 265.111 98.2832 264.919 98.0186 264.784C97.7539 264.649 97.4269 264.581 97.0377 264.581C96.6745 264.581 96.3553 264.644 96.0802 264.768C95.8104 264.893 95.5976 265.056 95.4419 265.259C95.2914 265.461 95.2162 265.679 95.2162 265.913H93.776C93.776 265.612 93.8539 265.313 94.0096 265.017C94.1653 264.722 94.3884 264.454 94.679 264.216C94.9749 263.972 95.3277 263.78 95.7377 263.64C96.1529 263.494 96.6148 263.422 97.1234 263.422C97.7357 263.422 98.2755 263.525 98.7425 263.733C99.2148 263.941 99.5832 264.254 99.8479 264.675C100.118 265.09 100.253 265.612 100.253 266.24V270.163C100.253 270.443 100.276 270.742 100.323 271.058C100.375 271.375 100.45 271.647 100.549 271.875V272H99.0461C98.9735 271.834 98.9164 271.613 98.8749 271.338C98.8333 271.058 98.8126 270.799 98.8126 270.56ZM99.0617 266.893L99.0772 267.905H97.6216C97.2116 267.905 96.8457 267.939 96.524 268.007C96.2022 268.069 95.9323 268.165 95.7144 268.295C95.4964 268.424 95.3303 268.588 95.2162 268.785C95.102 268.977 95.0449 269.203 95.0449 269.462C95.0449 269.727 95.1046 269.968 95.224 270.186C95.3433 270.404 95.5224 270.578 95.7611 270.708C96.005 270.832 96.3034 270.895 96.6563 270.895C97.0974 270.895 97.4866 270.801 97.824 270.614C98.1613 270.428 98.4285 270.199 98.6258 269.929C98.8281 269.659 98.9371 269.397 98.9527 269.143L99.5677 269.836C99.5313 270.054 99.4327 270.295 99.2719 270.56C99.111 270.825 98.8956 271.079 98.6258 271.323C98.3611 271.561 98.0445 271.761 97.676 271.922C97.3128 272.078 96.9028 272.156 96.4461 272.156C95.8753 272.156 95.3745 272.044 94.9437 271.821C94.5182 271.598 94.186 271.299 93.9473 270.926C93.7138 270.547 93.597 270.124 93.597 269.657C93.597 269.205 93.6852 268.808 93.8617 268.466C94.0381 268.118 94.2924 267.83 94.6246 267.602C94.9567 267.368 95.3563 267.192 95.8234 267.072C96.2904 266.953 96.812 266.893 97.388 266.893H99.0617ZM104.083 263.577V272H102.635V263.577H104.083ZM102.526 261.343C102.526 261.11 102.596 260.912 102.736 260.751C102.881 260.591 103.094 260.51 103.374 260.51C103.649 260.51 103.859 260.591 104.005 260.751C104.155 260.912 104.231 261.11 104.231 261.343C104.231 261.566 104.155 261.758 104.005 261.919C103.859 262.075 103.649 262.153 103.374 262.153C103.094 262.153 102.881 262.075 102.736 261.919C102.596 261.758 102.526 261.566 102.526 261.343ZM107.959 260.043V272H106.511V260.043H107.959ZM115.238 270.56V266.224C115.238 265.892 115.17 265.604 115.035 265.36C114.906 265.111 114.708 264.919 114.444 264.784C114.179 264.649 113.852 264.581 113.463 264.581C113.1 264.581 112.78 264.644 112.505 264.768C112.236 264.893 112.023 265.056 111.867 265.259C111.717 265.461 111.641 265.679 111.641 265.913H110.201C110.201 265.612 110.279 265.313 110.435 265.017C110.59 264.722 110.814 264.454 111.104 264.216C111.4 263.972 111.753 263.78 112.163 263.64C112.578 263.494 113.04 263.422 113.549 263.422C114.161 263.422 114.701 263.525 115.168 263.733C115.64 263.941 116.008 264.254 116.273 264.675C116.543 265.09 116.678 265.612 116.678 266.24V270.163C116.678 270.443 116.701 270.742 116.748 271.058C116.8 271.375 116.875 271.647 116.974 271.875V272H115.471C115.399 271.834 115.342 271.613 115.3 271.338C115.258 271.058 115.238 270.799 115.238 270.56ZM115.487 266.893L115.502 267.905H114.047C113.637 267.905 113.271 267.939 112.949 268.007C112.627 268.069 112.357 268.165 112.14 268.295C111.922 268.424 111.755 268.588 111.641 268.785C111.527 268.977 111.47 269.203 111.47 269.462C111.47 269.727 111.53 269.968 111.649 270.186C111.768 270.404 111.948 270.578 112.186 270.708C112.43 270.832 112.729 270.895 113.081 270.895C113.523 270.895 113.912 270.801 114.249 270.614C114.586 270.428 114.854 270.199 115.051 269.929C115.253 269.659 115.362 269.397 115.378 269.143L115.993 269.836C115.956 270.054 115.858 270.295 115.697 270.56C115.536 270.825 115.321 271.079 115.051 271.323C114.786 271.561 114.47 271.761 114.101 271.922C113.738 272.078 113.328 272.156 112.871 272.156C112.3 272.156 111.8 272.044 111.369 271.821C110.943 271.598 110.611 271.299 110.372 270.926C110.139 270.547 110.022 270.124 110.022 269.657C110.022 269.205 110.11 268.808 110.287 268.466C110.463 268.118 110.718 267.83 111.05 267.602C111.382 267.368 111.781 267.192 112.249 267.072C112.716 266.953 113.237 266.893 113.813 266.893H115.487ZM118.935 260.043H120.383V270.365L120.259 272H118.935V260.043ZM126.074 267.719V267.882C126.074 268.494 126.001 269.063 125.856 269.587C125.71 270.106 125.498 270.557 125.217 270.941C124.937 271.325 124.595 271.624 124.19 271.837C123.785 272.049 123.321 272.156 122.796 272.156C122.262 272.156 121.792 272.065 121.387 271.883C120.988 271.696 120.65 271.429 120.375 271.081C120.1 270.734 119.88 270.313 119.714 269.82C119.553 269.327 119.441 268.772 119.379 268.154V267.438C119.441 266.816 119.553 266.258 119.714 265.765C119.88 265.272 120.1 264.851 120.375 264.504C120.65 264.151 120.988 263.883 121.387 263.702C121.787 263.515 122.251 263.422 122.781 263.422C123.31 263.422 123.78 263.525 124.19 263.733C124.6 263.935 124.942 264.226 125.217 264.605C125.498 264.984 125.71 265.438 125.856 265.967C126.001 266.491 126.074 267.075 126.074 267.719ZM124.626 267.882V267.719C124.626 267.298 124.587 266.904 124.509 266.535C124.431 266.162 124.307 265.835 124.135 265.554C123.964 265.269 123.738 265.046 123.458 264.885C123.178 264.719 122.833 264.636 122.423 264.636C122.059 264.636 121.743 264.698 121.473 264.823C121.208 264.947 120.983 265.116 120.796 265.329C120.609 265.536 120.456 265.775 120.337 266.045C120.222 266.31 120.137 266.585 120.08 266.87V268.746C120.163 269.109 120.298 269.46 120.484 269.797C120.676 270.129 120.931 270.402 121.247 270.614C121.569 270.827 121.966 270.934 122.438 270.934C122.828 270.934 123.16 270.856 123.435 270.7C123.715 270.539 123.941 270.319 124.112 270.038C124.288 269.758 124.418 269.434 124.501 269.065C124.584 268.697 124.626 268.302 124.626 267.882ZM129.46 260.043V272H128.012V260.043H129.46ZM135.267 272.156C134.681 272.156 134.149 272.057 133.671 271.86C133.199 271.657 132.792 271.375 132.449 271.011C132.112 270.648 131.852 270.217 131.671 269.719C131.489 269.221 131.398 268.676 131.398 268.084V267.757C131.398 267.072 131.499 266.463 131.702 265.928C131.904 265.388 132.179 264.932 132.527 264.558C132.875 264.184 133.269 263.902 133.71 263.71C134.151 263.518 134.608 263.422 135.08 263.422C135.682 263.422 136.201 263.525 136.637 263.733C137.078 263.941 137.439 264.231 137.719 264.605C137.999 264.973 138.207 265.409 138.342 265.913C138.477 266.411 138.544 266.956 138.544 267.547V268.193H132.254V267.018H137.104V266.909C137.083 266.535 137.006 266.172 136.871 265.819C136.741 265.466 136.533 265.176 136.248 264.947C135.962 264.719 135.573 264.605 135.08 264.605C134.753 264.605 134.452 264.675 134.177 264.815C133.902 264.95 133.666 265.152 133.469 265.422C133.272 265.692 133.119 266.022 133.01 266.411C132.901 266.8 132.846 267.249 132.846 267.757V268.084C132.846 268.484 132.901 268.86 133.01 269.213C133.124 269.561 133.287 269.867 133.5 270.132C133.718 270.396 133.98 270.604 134.286 270.754C134.598 270.905 134.951 270.98 135.345 270.98C135.853 270.98 136.284 270.876 136.637 270.669C136.99 270.461 137.299 270.184 137.563 269.836L138.435 270.529C138.254 270.804 138.023 271.066 137.743 271.315C137.462 271.564 137.117 271.766 136.707 271.922C136.302 272.078 135.822 272.156 135.267 272.156ZM149.637 263.577H150.945V271.821C150.945 272.563 150.794 273.196 150.493 273.72C150.192 274.245 149.772 274.642 149.232 274.911C148.698 275.186 148.08 275.324 147.38 275.324C147.089 275.324 146.747 275.277 146.352 275.184C145.963 275.096 145.579 274.943 145.2 274.725C144.826 274.512 144.512 274.224 144.258 273.86L145.013 273.004C145.366 273.43 145.735 273.726 146.119 273.892C146.508 274.058 146.892 274.141 147.271 274.141C147.727 274.141 148.122 274.055 148.454 273.884C148.786 273.713 149.043 273.458 149.225 273.121C149.411 272.789 149.505 272.379 149.505 271.891V265.43L149.637 263.577ZM143.838 267.882V267.719C143.838 267.075 143.913 266.491 144.063 265.967C144.219 265.438 144.44 264.984 144.725 264.605C145.016 264.226 145.366 263.935 145.776 263.733C146.186 263.525 146.648 263.422 147.162 263.422C147.691 263.422 148.153 263.515 148.547 263.702C148.947 263.883 149.284 264.151 149.559 264.504C149.84 264.851 150.06 265.272 150.221 265.765C150.382 266.258 150.493 266.816 150.556 267.438V268.154C150.499 268.772 150.387 269.327 150.221 269.82C150.06 270.313 149.84 270.734 149.559 271.081C149.284 271.429 148.947 271.696 148.547 271.883C148.148 272.065 147.681 272.156 147.146 272.156C146.643 272.156 146.186 272.049 145.776 271.837C145.371 271.624 145.024 271.325 144.733 270.941C144.442 270.557 144.219 270.106 144.063 269.587C143.913 269.063 143.838 268.494 143.838 267.882ZM145.278 267.719V267.882C145.278 268.302 145.319 268.697 145.402 269.065C145.491 269.434 145.623 269.758 145.799 270.038C145.981 270.319 146.212 270.539 146.492 270.7C146.772 270.856 147.107 270.934 147.496 270.934C147.974 270.934 148.368 270.832 148.68 270.63C148.991 270.428 149.238 270.16 149.419 269.828C149.606 269.496 149.751 269.135 149.855 268.746V266.87C149.798 266.585 149.71 266.31 149.59 266.045C149.476 265.775 149.326 265.536 149.139 265.329C148.957 265.116 148.732 264.947 148.462 264.823C148.192 264.698 147.875 264.636 147.512 264.636C147.118 264.636 146.778 264.719 146.492 264.885C146.212 265.046 145.981 265.269 145.799 265.554C145.623 265.835 145.491 266.162 145.402 266.535C145.319 266.904 145.278 267.298 145.278 267.719ZM158.286 270.054V263.577H159.734V272H158.356L158.286 270.054ZM158.558 268.279L159.157 268.263C159.157 268.824 159.098 269.343 158.978 269.82C158.864 270.293 158.677 270.703 158.418 271.05C158.158 271.398 157.819 271.67 157.398 271.868C156.978 272.06 156.467 272.156 155.865 272.156C155.455 272.156 155.078 272.096 154.736 271.977C154.399 271.857 154.108 271.673 153.864 271.424C153.62 271.175 153.431 270.85 153.296 270.451C153.166 270.051 153.101 269.571 153.101 269.011V263.577H154.541V269.026C154.541 269.405 154.583 269.719 154.666 269.968C154.754 270.212 154.871 270.407 155.016 270.552C155.167 270.692 155.333 270.791 155.514 270.848C155.701 270.905 155.893 270.934 156.09 270.934C156.703 270.934 157.188 270.817 157.546 270.583C157.904 270.345 158.161 270.025 158.317 269.626C158.478 269.221 158.558 268.772 158.558 268.279ZM163.493 263.577V272H162.046V263.577H163.493ZM161.937 261.343C161.937 261.11 162.007 260.912 162.147 260.751C162.292 260.591 162.505 260.51 162.785 260.51C163.06 260.51 163.27 260.591 163.416 260.751C163.566 260.912 163.641 261.11 163.641 261.343C163.641 261.566 163.566 261.758 163.416 261.919C163.27 262.075 163.06 262.153 162.785 262.153C162.505 262.153 162.292 262.075 162.147 261.919C162.007 261.758 161.937 261.566 161.937 261.343ZM171.114 270.365V260.043H172.562V272H171.239L171.114 270.365ZM165.447 267.882V267.719C165.447 267.075 165.525 266.491 165.681 265.967C165.842 265.438 166.067 264.984 166.358 264.605C166.654 264.226 167.004 263.935 167.409 263.733C167.819 263.525 168.276 263.422 168.779 263.422C169.308 263.422 169.77 263.515 170.165 263.702C170.564 263.883 170.902 264.151 171.177 264.504C171.457 264.851 171.677 265.272 171.838 265.765C171.999 266.258 172.111 266.816 172.173 267.438V268.154C172.116 268.772 172.004 269.327 171.838 269.82C171.677 270.313 171.457 270.734 171.177 271.081C170.902 271.429 170.564 271.696 170.165 271.883C169.765 272.065 169.298 272.156 168.763 272.156C168.27 272.156 167.819 272.049 167.409 271.837C167.004 271.624 166.654 271.325 166.358 270.941C166.067 270.557 165.842 270.106 165.681 269.587C165.525 269.063 165.447 268.494 165.447 267.882ZM166.895 267.719V267.882C166.895 268.302 166.937 268.697 167.02 269.065C167.108 269.434 167.243 269.758 167.425 270.038C167.606 270.319 167.837 270.539 168.117 270.7C168.398 270.856 168.732 270.934 169.122 270.934C169.599 270.934 169.991 270.832 170.297 270.63C170.608 270.428 170.857 270.16 171.044 269.828C171.231 269.496 171.376 269.135 171.48 268.746V266.87C171.418 266.585 171.327 266.31 171.208 266.045C171.094 265.775 170.943 265.536 170.756 265.329C170.575 265.116 170.349 264.947 170.079 264.823C169.814 264.698 169.5 264.636 169.137 264.636C168.743 264.636 168.403 264.719 168.117 264.885C167.837 265.046 167.606 265.269 167.425 265.554C167.243 265.835 167.108 266.162 167.02 266.535C166.937 266.904 166.895 267.298 166.895 267.719ZM178.299 272.156C177.713 272.156 177.181 272.057 176.704 271.86C176.231 271.657 175.824 271.375 175.481 271.011C175.144 270.648 174.885 270.217 174.703 269.719C174.521 269.221 174.431 268.676 174.431 268.084V267.757C174.431 267.072 174.532 266.463 174.734 265.928C174.937 265.388 175.212 264.932 175.559 264.558C175.907 264.184 176.301 263.902 176.743 263.71C177.184 263.518 177.64 263.422 178.113 263.422C178.715 263.422 179.234 263.525 179.669 263.733C180.111 263.941 180.471 264.231 180.751 264.605C181.032 264.973 181.239 265.409 181.374 265.913C181.509 266.411 181.577 266.956 181.577 267.547V268.193H175.287V267.018H180.137V266.909C180.116 266.535 180.038 266.172 179.903 265.819C179.773 265.466 179.566 265.176 179.28 264.947C178.995 264.719 178.606 264.605 178.113 264.605C177.786 264.605 177.485 264.675 177.21 264.815C176.935 264.95 176.698 265.152 176.501 265.422C176.304 265.692 176.151 266.022 176.042 266.411C175.933 266.8 175.878 267.249 175.878 267.757V268.084C175.878 268.484 175.933 268.86 176.042 269.213C176.156 269.561 176.32 269.867 176.532 270.132C176.75 270.396 177.012 270.604 177.319 270.754C177.63 270.905 177.983 270.98 178.377 270.98C178.886 270.98 179.317 270.876 179.669 270.669C180.022 270.461 180.331 270.184 180.596 269.836L181.468 270.529C181.286 270.804 181.055 271.066 180.775 271.315C180.495 271.564 180.15 271.766 179.74 271.922C179.335 272.078 178.855 272.156 178.299 272.156ZM188.162 269.766C188.162 269.558 188.116 269.366 188.022 269.19C187.934 269.008 187.75 268.845 187.469 268.699C187.194 268.549 186.779 268.419 186.224 268.31C185.757 268.212 185.334 268.095 184.955 267.96C184.581 267.825 184.262 267.661 183.998 267.469C183.738 267.277 183.538 267.052 183.398 266.792C183.258 266.533 183.188 266.229 183.188 265.881C183.188 265.549 183.261 265.235 183.406 264.94C183.556 264.644 183.767 264.382 184.037 264.153C184.312 263.925 184.641 263.746 185.025 263.616C185.409 263.486 185.837 263.422 186.31 263.422C186.984 263.422 187.56 263.541 188.038 263.78C188.515 264.018 188.881 264.338 189.135 264.737C189.39 265.132 189.517 265.57 189.517 266.053H188.077C188.077 265.819 188.007 265.593 187.866 265.375C187.732 265.152 187.532 264.968 187.267 264.823C187.008 264.677 186.688 264.605 186.31 264.605C185.91 264.605 185.586 264.667 185.337 264.792C185.093 264.911 184.914 265.064 184.799 265.251C184.69 265.438 184.636 265.635 184.636 265.843C184.636 265.998 184.662 266.138 184.714 266.263C184.771 266.382 184.869 266.494 185.01 266.598C185.15 266.696 185.347 266.79 185.601 266.878C185.856 266.966 186.18 267.054 186.574 267.143C187.264 267.298 187.833 267.485 188.279 267.703C188.725 267.921 189.057 268.188 189.275 268.505C189.493 268.821 189.602 269.205 189.602 269.657C189.602 270.025 189.525 270.363 189.369 270.669C189.218 270.975 188.998 271.24 188.707 271.463C188.422 271.681 188.079 271.852 187.68 271.977C187.285 272.096 186.842 272.156 186.349 272.156C185.606 272.156 184.978 272.023 184.465 271.759C183.951 271.494 183.562 271.151 183.297 270.731C183.032 270.311 182.9 269.867 182.9 269.4H184.348C184.369 269.794 184.483 270.108 184.69 270.342C184.898 270.57 185.152 270.734 185.453 270.832C185.754 270.926 186.053 270.972 186.349 270.972C186.743 270.972 187.072 270.921 187.337 270.817C187.607 270.713 187.812 270.57 187.952 270.389C188.092 270.207 188.162 269.999 188.162 269.766Z" fill="#5D6481"/>
</g>
<defs>
<filter id="filter0_f_1965_2628" x="-353.815" y="-553.995" width="1787.63" height="1497.26" filterUnits="userSpaceOnUse" color-interpolation-filters="sRGB">
<feFlood flood-opacity="0" result="BackgroundImageFix"/>
<feBlend mode="normal" in="SourceGraphic" in2="BackgroundImageFix" result="shape"/>
<feGaussianBlur stdDeviation="112.892" result="effect1_foregroundBlur_1965_2628"/>
</filter>
<filter id="filter1_d_1965_2628" x="61.82" y="35.008" width="147.84" height="147.84" filterUnits="userSpaceOnUse" color-interpolation-filters="sRGB">
<feFlood flood-opacity="0" result="BackgroundImageFix"/>
<feColorMatrix in="SourceAlpha" type="matrix" values="0 0 0 0 0 0 0 0 0 0 0 0 0 0 0 0 0 0 127 0" result="hardAlpha"/>
<feOffset dx="2.24" dy="4.928"/>
<feGaussianBlur stdDeviation="8.96"/>
<feComposite in2="hardAlpha" operator="out"/>
<feColorMatrix type="matrix" values="0 0 0 0 0.130044 0 0 0 0 0.396943 0 0 0 0 0.687863 0 0 0 0.07 0"/>
<feBlend mode="normal" in2="BackgroundImageFix" result="effect1_dropShadow_1965_2628"/>
<feBlend mode="normal" in="SourceGraphic" in2="effect1_dropShadow_1965_2628" result="shape"/>
</filter>
<clipPath id="clip0_1965_2628">
<rect width="267" height="326.07" fill="white"/>
</clipPath>
</defs>
</svg>
