<svg width="19" height="19" viewBox="0 0 19 19" fill="none" xmlns="http://www.w3.org/2000/svg">
<g clip-path="url(#clip0_2309_3018)">
<path d="M2.4725 9.18275L4.14425 7.5155L5.732 9.10925L4.061 10.775C3.4565 11.3795 3.1235 12.1827 3.1235 13.037C3.1235 13.8912 3.4565 14.6952 4.061 15.2997C4.6685 15.9072 5.474 16.244 6.329 16.2492H6.347C7.19375 16.2492 7.98725 15.9215 8.58275 15.326L10.262 13.6415L11.8557 15.23L10.175 16.916C9.1535 17.9382 7.7945 18.5 6.347 18.5H6.31625C4.86425 18.4918 3.49775 17.921 2.4695 16.8912C1.442 15.8607 0.875 14.4927 0.875 13.037C0.875 11.5812 1.442 10.2133 2.4725 9.18275ZM8.78975 12.1738L7.199 10.583L6.07925 11.7035L7.67 13.2943L8.78975 12.1738ZM2.46725 0.5L6.815 4.847L9.572 2.0945C11.6975 -0.0310001 15.1543 -0.03025 17.2783 2.0945C18.3073 3.1235 18.8743 4.49225 18.8743 5.948C18.8743 7.403 18.3072 8.77175 17.279 9.8L14.5258 12.5585L18.8735 16.9062L17.2828 18.497L0.8765 2.09075L2.46725 0.5ZM15.6875 8.21C16.292 7.6055 16.6243 6.80225 16.6243 5.948C16.6243 5.093 16.292 4.28975 15.6875 3.68525C14.4395 2.438 12.41 2.438 11.162 3.68525L8.40575 6.437L9.875 7.90625L12.0793 5.702L13.67 7.29275L11.4658 9.497L12.9357 10.967L15.6882 8.20925L15.6875 8.21Z" fill="white"/>
</g>
<defs>
<clipPath id="clip0_2309_3018">
<rect width="18" height="18" fill="white" transform="translate(0.875 0.5)"/>
</clipPath>
</defs>
</svg>
