<svg width="24" height="24" viewBox="0 0 24 24" fill="none" xmlns="http://www.w3.org/2000/svg">
<g clip-path="url(#clip0_2159_2801)">
<path d="M14.4528 0H8.67031C6.01325 0 3.85156 2.16169 3.85156 4.81875V18.3112C3.85156 20.9683 6.01325 23.13 8.67031 23.13H14.4528C17.1099 23.13 19.2716 20.9683 19.2716 18.3112V4.81875C19.2716 2.16169 17.1099 0 14.4528 0ZM12.5253 20.2387H10.5978C10.0658 20.2387 9.63406 19.807 9.63406 19.275C9.63406 18.743 10.0658 18.3112 10.5978 18.3112H12.5253C13.0573 18.3112 13.4891 18.743 13.4891 19.275C13.4891 19.807 13.0573 20.2387 12.5253 20.2387Z" fill="#7D7D7D"/>
</g>
<defs>
<clipPath id="clip0_2159_2801">
<rect width="23.13" height="23.13" fill="white"/>
</clipPath>
</defs>
</svg>
