<svg width="94" height="27" viewBox="0 0 94 27" fill="none" xmlns="http://www.w3.org/2000/svg">
<rect x="0.273438" y="0.226562" width="93.4558" height="25.9748" rx="12.9874" fill="white"/>
<path d="M20.6917 7.47656C17.4396 7.47656 14.793 10.0257 14.7919 13.1585C14.7911 14.1604 15.0633 15.1381 15.5793 15.9993L14.7422 18.9437L17.87 18.1536C18.7401 18.6087 19.7075 18.8461 20.6894 18.8454H20.6917C23.9438 18.8454 26.5904 16.2959 26.5915 13.1631C26.5923 11.6456 25.9792 10.2172 24.865 9.1435C23.7511 8.06941 22.27 7.47694 20.6917 7.47656ZM20.6917 17.8856H20.6898C19.8099 17.8856 18.9468 17.6578 18.1938 17.2274L18.0141 17.125L16.1588 17.5936L16.6541 15.8506L16.5376 15.6721C16.0479 14.9253 15.7872 14.0516 15.7876 13.1585C15.7888 10.5543 17.9889 8.43636 20.6936 8.43636C22.0032 8.43674 23.2343 8.92868 24.1605 9.8212C25.0867 10.7137 25.5962 11.9006 25.5954 13.1627C25.5943 15.7669 23.3945 17.8856 20.6913 17.8856H20.6917ZM23.3815 14.348C23.234 14.2773 22.5092 13.9337 22.3739 13.8859C22.239 13.8389 22.1408 13.8144 22.0425 13.9566C21.9447 14.0988 21.6618 14.4187 21.5762 14.5132C21.4898 14.608 21.4038 14.6194 21.2563 14.5487C21.1087 14.4776 20.6336 14.3278 20.071 13.8439C19.6325 13.4677 19.3367 13.0029 19.2507 12.8604C19.1647 12.7186 19.2415 12.6417 19.3153 12.571C19.3814 12.5079 19.4628 12.4055 19.5362 12.3226C19.6096 12.2396 19.6341 12.1804 19.6837 12.0856C19.7327 11.9912 19.7082 11.9078 19.6711 11.8371C19.6341 11.7656 19.3397 11.0669 19.2163 10.7829C19.097 10.5062 18.9755 10.5432 18.8849 10.5387C18.7989 10.5348 18.701 10.5337 18.602 10.5337C18.5045 10.5337 18.3444 10.5692 18.2091 10.7114C18.0741 10.8536 17.6931 11.1969 17.6931 11.8956C17.6931 12.5947 18.2213 13.2697 18.2951 13.3645C18.3689 13.459 19.3348 14.8935 20.8136 15.5089C21.1653 15.6545 21.4397 15.7421 21.6542 15.8078C22.0074 15.916 22.3288 15.9003 22.5826 15.864C22.8655 15.8231 23.4549 15.5207 23.5772 15.1893C23.7003 14.8579 23.7003 14.5736 23.6636 14.5143C23.6277 14.4551 23.529 14.4195 23.3815 14.348V14.348Z" fill="#5C3262"/>
<path d="M33.9899 10.0724H35.1683V14.0039C35.1683 14.3674 35.0866 14.6831 34.9232 14.9511C34.7617 15.219 34.5369 15.4255 34.2487 15.5705C33.9605 15.7155 33.6256 15.788 33.2438 15.788C32.9042 15.788 32.5959 15.7284 32.3187 15.6091C32.0434 15.4879 31.825 15.3044 31.6634 15.0584C31.5019 14.8106 31.4221 14.4995 31.4239 14.1251H32.6105C32.6142 14.2738 32.6445 14.4013 32.7014 14.5078C32.7601 14.6124 32.84 14.6932 32.9409 14.7501C33.0437 14.8051 33.1648 14.8327 33.3043 14.8327C33.4512 14.8327 33.5751 14.8015 33.676 14.7391C33.7788 14.6748 33.8568 14.5812 33.9101 14.4582C33.9633 14.3352 33.9899 14.1838 33.9899 14.0039V10.0724ZM38.0426 15.7935C37.615 15.7935 37.2451 15.7027 36.9331 15.521C36.6229 15.3374 36.3834 15.0823 36.2145 14.7556C36.0456 14.427 35.9612 14.0462 35.9612 13.613C35.9612 13.1761 36.0456 12.7944 36.2145 12.4677C36.3834 12.1391 36.6229 11.884 36.9331 11.7023C37.2451 11.5187 37.615 11.4269 38.0426 11.4269C38.4703 11.4269 38.8392 11.5187 39.1494 11.7023C39.4615 11.884 39.7019 12.1391 39.8708 12.4677C40.0396 12.7944 40.1241 13.1761 40.1241 13.613C40.1241 14.0462 40.0396 14.427 39.8708 14.7556C39.7019 15.0823 39.4615 15.3374 39.1494 15.521C38.8392 15.7027 38.4703 15.7935 38.0426 15.7935ZM38.0481 14.885C38.2427 14.885 38.4051 14.8299 38.5355 14.7198C38.6658 14.6078 38.764 14.4555 38.83 14.2627C38.898 14.07 38.9319 13.8507 38.9319 13.6047C38.9319 13.3588 38.898 13.1394 38.83 12.9467C38.764 12.754 38.6658 12.6016 38.5355 12.4897C38.4051 12.3777 38.2427 12.3217 38.0481 12.3217C37.8517 12.3217 37.6865 12.3777 37.5526 12.4897C37.4204 12.6016 37.3204 12.754 37.2525 12.9467C37.1864 13.1394 37.1533 13.3588 37.1533 13.6047C37.1533 13.8507 37.1864 14.07 37.2525 14.2627C37.3204 14.4555 37.4204 14.6078 37.5526 14.7198C37.6865 14.8299 37.8517 14.885 38.0481 14.885ZM40.8867 15.7109V11.482H42.0596V15.7109H40.8867ZM41.4759 10.9369C41.3015 10.9369 41.1519 10.879 41.0271 10.7634C40.9041 10.6459 40.8426 10.5055 40.8426 10.3422C40.8426 10.1806 40.9041 10.0421 41.0271 9.92643C41.1519 9.80896 41.3015 9.75023 41.4759 9.75023C41.6503 9.75023 41.7989 9.80896 41.9219 9.92643C42.0467 10.0421 42.1091 10.1806 42.1091 10.3422C42.1091 10.5055 42.0467 10.6459 41.9219 10.7634C41.7989 10.879 41.6503 10.9369 41.4759 10.9369ZM44.172 13.2661V15.7109H42.9991V11.482H44.1169V12.2281H44.1665C44.2601 11.9822 44.417 11.7876 44.6373 11.6444C44.8575 11.4994 45.1246 11.4269 45.4384 11.4269C45.7321 11.4269 45.9882 11.4912 46.2066 11.6197C46.425 11.7481 46.5948 11.9317 46.7159 12.1703C46.8371 12.4071 46.8977 12.6897 46.8977 13.0183V15.7109H45.7248V13.2275C45.7266 12.9687 45.6605 12.7668 45.5266 12.6218C45.3926 12.475 45.2081 12.4016 44.9732 12.4016C44.8153 12.4016 44.6758 12.4355 44.5547 12.5034C44.4354 12.5714 44.3418 12.6705 44.2738 12.8008C44.2078 12.9293 44.1738 13.0844 44.172 13.2661ZM54.6135 12.0464H53.4076C53.3856 11.8904 53.3406 11.7518 53.2727 11.6307C53.2048 11.5077 53.1176 11.4031 53.0112 11.3168C52.9047 11.2305 52.7817 11.1645 52.6422 11.1186C52.5046 11.0727 52.355 11.0497 52.1935 11.0497C51.9016 11.0497 51.6474 11.1222 51.4308 11.2672C51.2142 11.4104 51.0463 11.6197 50.927 11.895C50.8077 12.1685 50.748 12.5007 50.748 12.8916C50.748 13.2936 50.8077 13.6313 50.927 13.9048C51.0481 14.1783 51.217 14.3848 51.4336 14.5243C51.6502 14.6638 51.9007 14.7335 52.1852 14.7335C52.3449 14.7335 52.4926 14.7124 52.6285 14.6702C52.7661 14.628 52.8882 14.5665 52.9946 14.4858C53.1011 14.4032 53.1892 14.3031 53.259 14.1857C53.3305 14.0682 53.3801 13.9342 53.4076 13.7837L54.6135 13.7892C54.5823 14.048 54.5043 14.2976 54.3795 14.5381C54.2565 14.7767 54.0904 14.9905 53.8812 15.1796C53.6738 15.3668 53.426 15.5155 53.1378 15.6256C52.8515 15.7339 52.5275 15.788 52.1659 15.788C51.663 15.788 51.2133 15.6742 50.8169 15.4466C50.4222 15.219 50.1102 14.8896 49.8808 14.4582C49.6532 14.0269 49.5394 13.5047 49.5394 12.8916C49.5394 12.2768 49.655 11.7537 49.8863 11.3223C50.1175 10.891 50.4314 10.5624 50.8279 10.3367C51.2243 10.1091 51.6703 9.99526 52.1659 9.99526C52.4926 9.99526 52.7955 10.0412 53.0745 10.1329C53.3553 10.2247 53.604 10.3587 53.8206 10.5349C54.0372 10.7093 54.2134 10.9231 54.3492 11.1764C54.4869 11.4297 54.575 11.7197 54.6135 12.0464ZM56.6193 13.2661V15.7109H55.4464V10.0724H56.5862V12.2281H56.6358C56.7312 11.9785 56.8854 11.783 57.0983 11.6417C57.3112 11.4985 57.5783 11.4269 57.8995 11.4269C58.1932 11.4269 58.4492 11.4912 58.6676 11.6197C58.8879 11.7463 59.0586 11.9289 59.1797 12.1676C59.3027 12.4043 59.3633 12.6879 59.3615 13.0183V15.7109H58.1886V13.2275C58.1904 12.9669 58.1243 12.7641 57.9904 12.6191C57.8582 12.4741 57.6728 12.4016 57.4342 12.4016C57.2745 12.4016 57.1332 12.4355 57.0102 12.5034C56.8891 12.5714 56.7936 12.6705 56.7239 12.8008C56.656 12.9293 56.6211 13.0844 56.6193 13.2661ZM61.4904 15.7908C61.2206 15.7908 60.9801 15.744 60.769 15.6504C60.558 15.5549 60.3909 15.4145 60.268 15.2291C60.1468 15.0419 60.0862 14.8088 60.0862 14.5298C60.0862 14.2949 60.1294 14.0976 60.2156 13.9379C60.3019 13.7782 60.4194 13.6497 60.5681 13.5524C60.7167 13.4551 60.8856 13.3817 61.0746 13.3322C61.2655 13.2826 61.4656 13.2477 61.6748 13.2275C61.9208 13.2018 62.119 13.178 62.2695 13.156C62.42 13.1321 62.5293 13.0972 62.5972 13.0513C62.6651 13.0054 62.699 12.9375 62.699 12.8476V12.8311C62.699 12.6567 62.644 12.5218 62.5338 12.4264C62.4256 12.3309 62.2714 12.2832 62.0713 12.2832C61.8602 12.2832 61.6923 12.33 61.5675 12.4236C61.4427 12.5154 61.3601 12.631 61.3197 12.7705L60.2349 12.6824C60.29 12.4254 60.3983 12.2033 60.5598 12.0161C60.7213 11.8271 60.9296 11.6821 61.1848 11.5811C61.4417 11.4783 61.7391 11.4269 62.0768 11.4269C62.3118 11.4269 62.5366 11.4545 62.7514 11.5095C62.9679 11.5646 63.1597 11.6499 63.3268 11.7656C63.4956 11.8812 63.6287 12.0299 63.726 12.2116C63.8233 12.3915 63.8719 12.6071 63.8719 12.8586V15.7109H62.7596V15.1245H62.7266C62.6587 15.2567 62.5678 15.3732 62.454 15.4742C62.3402 15.5733 62.2035 15.6513 62.0438 15.7082C61.8841 15.7632 61.6996 15.7908 61.4904 15.7908ZM61.8263 14.9813C61.9988 14.9813 62.1511 14.9474 62.2833 14.8795C62.4155 14.8097 62.5192 14.7161 62.5944 14.5986C62.6697 14.4812 62.7073 14.3481 62.7073 14.1994V13.7506C62.6706 13.7745 62.6201 13.7965 62.5559 13.8167C62.4935 13.8351 62.4228 13.8525 62.3439 13.869C62.2649 13.8837 62.186 13.8975 62.1071 13.9103C62.0282 13.9213 61.9566 13.9314 61.8923 13.9406C61.7547 13.9608 61.6345 13.9929 61.5317 14.037C61.4289 14.081 61.349 14.1407 61.2921 14.2159C61.2352 14.2894 61.2068 14.3811 61.2068 14.4913C61.2068 14.6509 61.2646 14.773 61.3802 14.8574C61.4977 14.94 61.6464 14.9813 61.8263 14.9813ZM65.9547 13.2661V15.7109H64.7818V11.482H65.8996V12.2281H65.9492C66.0428 11.9822 66.1997 11.7876 66.42 11.6444C66.6403 11.4994 66.9073 11.4269 67.2212 11.4269C67.5149 11.4269 67.7709 11.4912 67.9893 11.6197C68.2078 11.7481 68.3775 11.9317 68.4987 12.1703C68.6198 12.4071 68.6804 12.6897 68.6804 13.0183V15.7109H67.5075V13.2275C67.5094 12.9687 67.4433 12.7668 67.3093 12.6218C67.1753 12.475 66.9908 12.4016 66.7559 12.4016C66.598 12.4016 66.4586 12.4355 66.3374 12.5034C66.2181 12.5714 66.1245 12.6705 66.0566 12.8008C65.9905 12.9293 65.9565 13.0844 65.9547 13.2661ZM70.7777 13.2661V15.7109H69.6048V11.482H70.7226V12.2281H70.7722C70.8658 11.9822 71.0227 11.7876 71.243 11.6444C71.4632 11.4994 71.7303 11.4269 72.0441 11.4269C72.3378 11.4269 72.5939 11.4912 72.8123 11.6197C73.0307 11.7481 73.2005 11.9317 73.3216 12.1703C73.4428 12.4071 73.5033 12.6897 73.5033 13.0183V15.7109H72.3305V13.2275C72.3323 12.9687 72.2662 12.7668 72.1322 12.6218C71.9982 12.475 71.8138 12.4016 71.5788 12.4016C71.421 12.4016 71.2815 12.4355 71.1604 12.5034C71.041 12.5714 70.9474 12.6705 70.8795 12.8008C70.8134 12.9293 70.7795 13.0844 70.7777 13.2661ZM76.355 15.7935C75.92 15.7935 75.5455 15.7054 75.2317 15.5292C74.9196 15.3512 74.6792 15.0997 74.5103 14.7748C74.3415 14.4481 74.257 14.0618 74.257 13.6157C74.257 13.1807 74.3415 12.799 74.5103 12.4704C74.6792 12.1419 74.9169 11.8858 75.2234 11.7023C75.5318 11.5187 75.8934 11.4269 76.3082 11.4269C76.5872 11.4269 76.8469 11.4719 77.0873 11.5618C77.3296 11.6499 77.5407 11.783 77.7206 11.9611C77.9023 12.1391 78.0436 12.363 78.1446 12.6328C78.2455 12.9008 78.296 13.2147 78.296 13.5744V13.8966H74.7251V13.1697H77.192C77.192 13.0009 77.1553 12.8513 77.0818 12.7209C77.0084 12.5906 76.9065 12.4888 76.7762 12.4153C76.6477 12.3401 76.4982 12.3025 76.3275 12.3025C76.1494 12.3025 75.9916 12.3438 75.8539 12.4264C75.7181 12.5071 75.6116 12.6163 75.5345 12.754C75.4574 12.8898 75.418 13.0412 75.4161 13.2083V13.8993C75.4161 14.1086 75.4547 14.2894 75.5318 14.4417C75.6107 14.5941 75.7217 14.7115 75.8649 14.7941C76.0081 14.8767 76.1779 14.918 76.3743 14.918C76.5046 14.918 76.6239 14.8997 76.7322 14.8629C76.8405 14.8262 76.9332 14.7712 77.0102 14.6978C77.0873 14.6243 77.1461 14.5344 77.1865 14.4279L78.2712 14.4995C78.2162 14.7602 78.1033 14.9878 77.9326 15.1823C77.7637 15.375 77.5453 15.5256 77.2773 15.6338C77.0112 15.7403 76.7037 15.7935 76.355 15.7935ZM80.2343 10.0724V15.7109H79.0614V10.0724H80.2343Z" fill="#5C3262"/>
</svg>
