<svg width="349" height="97" viewBox="0 0 349 97" fill="none" xmlns="http://www.w3.org/2000/svg">
<rect width="349" height="97" rx="48.5" fill="white"/>
<path d="M53.5928 27.0898C41.4483 27.0898 31.5648 36.6093 31.5606 48.3084C31.5577 52.0497 32.574 55.701 34.501 58.917L31.375 69.9124L43.0556 66.962C46.3047 68.6615 49.9174 69.5481 53.5842 69.5456H53.5928C65.7373 69.5456 75.6207 60.0247 75.625 48.3256C75.6279 42.6587 73.3383 37.3244 69.1773 33.3148C65.0178 29.3038 59.4866 27.0913 53.5928 27.0898ZM53.5928 65.9613H53.5856C50.2997 65.9613 47.0766 65.1106 44.2646 63.5033L43.5937 63.1208L36.665 64.8708L38.515 58.3617L38.0796 57.6951C36.2509 54.9062 35.2775 51.6435 35.279 48.3084C35.2833 38.5834 43.4995 30.6741 53.5999 30.6741C58.4903 30.6755 63.088 32.5126 66.5466 35.8456C70.0052 39.1787 71.908 43.6108 71.9051 48.3241C71.9009 58.0491 63.6861 65.9613 53.5914 65.9613H53.5928ZM63.6375 52.7506C63.0865 52.4865 60.3802 51.2032 59.8749 51.0248C59.371 50.8492 59.0041 50.7579 58.6373 51.2889C58.2719 51.8199 57.2156 53.0146 56.8958 53.3672C56.5732 53.7212 56.2521 53.764 55.7011 53.5C55.1501 53.2345 53.3758 52.6749 51.2747 50.8678C49.6374 49.4632 48.5326 47.7275 48.2114 47.195C47.8902 46.6655 48.1772 46.3786 48.4526 46.1145C48.6996 45.879 49.0036 45.4964 49.2777 45.1867C49.5518 44.8769 49.6431 44.6557 49.8287 44.3017C50.0114 43.9491 49.92 43.6379 49.7816 43.3738C49.6431 43.1069 48.544 40.4976 48.0829 39.437C47.6376 38.4036 47.1837 38.542 46.8454 38.5249C46.5242 38.5106 46.1588 38.5063 45.7891 38.5063C45.4251 38.5063 44.827 38.6391 44.3217 39.1701C43.8178 39.7011 42.3947 40.9829 42.3947 43.5922C42.3947 46.203 44.3674 48.7238 44.6429 49.0778C44.9184 49.4304 48.5254 54.7875 54.0481 57.0856C55.3614 57.6295 56.3862 57.9564 57.187 58.2019C58.506 58.6058 59.7064 58.5473 60.6542 58.4117C61.7105 58.259 63.9116 57.1299 64.3684 55.8923C64.828 54.6547 64.828 53.5927 64.691 53.3715C64.5568 53.1502 64.1885 53.0175 63.6375 52.7506Z" fill="#5C3C6E"/>
<path d="M103.261 37.9434H107.662V52.6254C107.662 53.9826 107.356 55.1616 106.746 56.1623C106.143 57.163 105.304 57.9341 104.227 58.4756C103.151 59.0171 101.9 59.2879 100.475 59.2879C99.2066 59.2879 98.0551 59.0651 97.0201 58.6196C95.9919 58.1672 95.1763 57.4818 94.5731 56.5633C93.9699 55.6379 93.6717 54.4761 93.6786 53.0778H98.1099C98.1236 53.633 98.2367 54.1094 98.4492 54.507C98.6686 54.8977 98.9667 55.1992 99.3437 55.4117C99.7276 55.6174 100.18 55.7202 100.701 55.7202C101.249 55.7202 101.712 55.6037 102.089 55.3706C102.473 55.1307 102.764 54.7811 102.963 54.3219C103.162 53.8626 103.261 53.2972 103.261 52.6254V37.9434ZM118.395 59.3084C116.798 59.3084 115.417 58.9692 114.252 58.2906C113.094 57.6051 112.199 56.6524 111.568 55.4323C110.938 54.2054 110.623 52.7831 110.623 51.1655C110.623 49.5341 110.938 48.1084 111.568 46.8883C112.199 45.6614 113.094 44.7086 114.252 44.03C115.417 43.3446 116.798 43.0019 118.395 43.0019C119.993 43.0019 121.37 43.3446 122.529 44.03C123.694 44.7086 124.592 45.6614 125.222 46.8883C125.853 48.1084 126.168 49.5341 126.168 51.1655C126.168 52.7831 125.853 54.2054 125.222 55.4323C124.592 56.6524 123.694 57.6051 122.529 58.2906C121.37 58.9692 119.993 59.3084 118.395 59.3084ZM118.416 55.9155C119.143 55.9155 119.749 55.7099 120.236 55.2986C120.723 54.8805 121.089 54.3116 121.336 53.5919C121.59 52.8722 121.716 52.0531 121.716 51.1346C121.716 50.2161 121.59 49.397 121.336 48.6773C121.089 47.9576 120.723 47.3887 120.236 46.9706C119.749 46.5525 119.143 46.3434 118.416 46.3434C117.683 46.3434 117.066 46.5525 116.565 46.9706C116.072 47.3887 115.698 47.9576 115.445 48.6773C115.198 49.397 115.075 50.2161 115.075 51.1346C115.075 52.0531 115.198 52.8722 115.445 53.5919C115.698 54.3116 116.072 54.8805 116.565 55.2986C117.066 55.7099 117.683 55.9155 118.416 55.9155ZM129.016 59V43.2075H133.396V59H129.016ZM131.217 41.1718C130.565 41.1718 130.007 40.9559 129.541 40.524C129.081 40.0854 128.852 39.561 128.852 38.951C128.852 38.3478 129.081 37.8303 129.541 37.3984C130.007 36.9598 130.565 36.7404 131.217 36.7404C131.868 36.7404 132.423 36.9598 132.882 37.3984C133.348 37.8303 133.581 38.3478 133.581 38.951C133.581 39.561 133.348 40.0854 132.882 40.524C132.423 40.9559 131.868 41.1718 131.217 41.1718ZM141.285 49.87V59H136.905V43.2075H141.079V45.9938H141.264C141.614 45.0753 142.2 44.3488 143.022 43.8141C143.845 43.2726 144.842 43.0019 146.014 43.0019C147.111 43.0019 148.067 43.2418 148.883 43.7216C149.699 44.2014 150.333 44.8868 150.785 45.7779C151.237 46.6621 151.464 47.7177 151.464 48.9446V59H147.084V49.726C147.09 48.7596 146.844 48.0056 146.343 47.4641C145.843 46.9157 145.154 46.6416 144.277 46.6416C143.687 46.6416 143.166 46.7684 142.714 47.022C142.268 47.2756 141.919 47.6457 141.665 48.1324C141.418 48.6122 141.292 49.1914 141.285 49.87ZM180.278 45.3152H175.774C175.692 44.7326 175.524 44.2151 175.27 43.7627C175.017 43.3035 174.691 42.9128 174.294 42.5906C173.896 42.2685 173.437 42.0217 172.916 41.8504C172.402 41.679 171.843 41.5933 171.24 41.5933C170.15 41.5933 169.201 41.8641 168.392 42.4056C167.583 42.9402 166.956 43.7216 166.511 44.7498C166.065 45.7711 165.842 47.0117 165.842 48.4717C165.842 49.9728 166.065 51.234 166.511 52.2553C166.963 53.2766 167.594 54.0477 168.402 54.5686C169.211 55.0896 170.147 55.35 171.209 55.35C171.806 55.35 172.357 55.2712 172.865 55.1136C173.379 54.9559 173.834 54.7263 174.232 54.4247C174.63 54.1163 174.959 53.7427 175.219 53.304C175.486 52.8653 175.671 52.365 175.774 51.8029L180.278 51.8235C180.161 52.7899 179.87 53.7221 179.404 54.6201C178.944 55.5111 178.324 56.3097 177.543 57.0157C176.768 57.7148 175.843 58.27 174.767 58.6813C173.697 59.0857 172.488 59.2879 171.137 59.2879C169.259 59.2879 167.58 58.8629 166.099 58.013C164.626 57.163 163.46 55.9327 162.604 54.3219C161.754 52.7111 161.329 50.761 161.329 48.4717C161.329 46.1755 161.761 44.222 162.624 42.6112C163.488 41.0004 164.66 39.7735 166.14 38.9304C167.621 38.0805 169.287 37.6555 171.137 37.6555C172.357 37.6555 173.488 37.8268 174.53 38.1696C175.579 38.5123 176.508 39.0126 177.317 39.6707C178.125 40.3218 178.783 41.1204 179.291 42.0663C179.805 43.0122 180.134 44.0952 180.278 45.3152ZM190.523 59.3084C188.926 59.3084 187.545 58.9692 186.38 58.2906C185.221 57.6051 184.327 56.6524 183.696 55.4323C183.066 54.2054 182.75 52.7831 182.75 51.1655C182.75 49.5341 183.066 48.1084 183.696 46.8883C184.327 45.6614 185.221 44.7086 186.38 44.03C187.545 43.3446 188.926 43.0019 190.523 43.0019C192.12 43.0019 193.498 43.3446 194.656 44.03C195.822 44.7086 196.72 45.6614 197.35 46.8883C197.981 48.1084 198.296 49.5341 198.296 51.1655C198.296 52.7831 197.981 54.2054 197.35 55.4323C196.72 56.6524 195.822 57.6051 194.656 58.2906C193.498 58.9692 192.12 59.3084 190.523 59.3084ZM190.544 55.9155C191.27 55.9155 191.877 55.7099 192.364 55.2986C192.85 54.8805 193.217 54.3116 193.464 53.5919C193.717 52.8722 193.844 52.0531 193.844 51.1346C193.844 50.2161 193.717 49.397 193.464 48.6773C193.217 47.9576 192.85 47.3887 192.364 46.9706C191.877 46.5525 191.27 46.3434 190.544 46.3434C189.81 46.3434 189.193 46.5525 188.693 46.9706C188.2 47.3887 187.826 47.9576 187.572 48.6773C187.326 49.397 187.202 50.2161 187.202 51.1346C187.202 52.0531 187.326 52.8722 187.572 53.5919C187.826 54.3116 188.2 54.8805 188.693 55.2986C189.193 55.7099 189.81 55.9155 190.544 55.9155ZM201.144 59V43.2075H205.318V45.9938H205.503C205.832 45.0685 206.381 44.3385 207.148 43.8039C207.916 43.2692 208.835 43.0019 209.904 43.0019C210.987 43.0019 211.909 43.2726 212.67 43.8141C213.43 44.3488 213.938 45.0753 214.191 45.9938H214.356C214.678 45.089 215.261 44.3659 216.104 43.8244C216.954 43.2761 217.958 43.0019 219.116 43.0019C220.59 43.0019 221.786 43.4714 222.704 44.4105C223.63 45.3427 224.092 46.6656 224.092 48.3791V59H219.723V49.2428C219.723 48.3654 219.49 47.7074 219.024 47.2687C218.558 46.8301 217.975 46.6107 217.276 46.6107C216.481 46.6107 215.86 46.8643 215.415 47.3716C214.969 47.8719 214.747 48.5334 214.747 49.3559V59H210.5V49.1503C210.5 48.3757 210.277 47.7588 209.832 47.2996C209.393 46.8403 208.814 46.6107 208.094 46.6107C207.608 46.6107 207.169 46.7341 206.778 46.9809C206.394 47.2208 206.089 47.56 205.863 47.9987C205.637 48.4306 205.524 48.9378 205.524 49.5204V59H201.144ZM227.552 59V43.2075H231.727V45.9938H231.912C232.241 45.0685 232.789 44.3385 233.557 43.8039C234.324 43.2692 235.243 43.0019 236.312 43.0019C237.395 43.0019 238.317 43.2726 239.078 43.8141C239.839 44.3488 240.346 45.0753 240.6 45.9938H240.764C241.086 45.089 241.669 44.3659 242.512 43.8244C243.362 43.2761 244.366 43.0019 245.524 43.0019C246.998 43.0019 248.194 43.4714 249.113 44.4105C250.038 45.3427 250.501 46.6656 250.501 48.3791V59H246.131V49.2428C246.131 48.3654 245.898 47.7074 245.432 47.2687C244.966 46.8301 244.383 46.6107 243.684 46.6107C242.889 46.6107 242.269 46.8643 241.823 47.3716C241.377 47.8719 241.155 48.5334 241.155 49.3559V59H236.908V49.1503C236.908 48.3757 236.686 47.7588 236.24 47.2996C235.801 46.8403 235.222 46.6107 234.503 46.6107C234.016 46.6107 233.577 46.7341 233.187 46.9809C232.803 47.2208 232.498 47.56 232.271 47.9987C232.045 48.4306 231.932 48.9378 231.932 49.5204V59H227.552ZM264.088 52.2759V43.2075H268.468V59H264.263V56.1314H264.098C263.742 57.0568 263.149 57.8005 262.319 58.3625C261.497 58.9246 260.493 59.2056 259.307 59.2056C258.251 59.2056 257.322 58.9657 256.521 58.4859C255.719 58.0061 255.091 57.3241 254.639 56.4399C254.193 55.5557 253.967 54.4967 253.96 53.2629V43.2075H258.34V52.4815C258.347 53.4137 258.597 54.1505 259.091 54.692C259.584 55.2335 260.246 55.5043 261.075 55.5043C261.603 55.5043 262.097 55.3843 262.556 55.1444C263.015 54.8977 263.385 54.5344 263.666 54.0546C263.954 53.5748 264.095 52.9819 264.088 52.2759ZM276.351 49.87V59H271.971V43.2075H276.145V45.9938H276.331C276.68 45.0753 277.266 44.3488 278.089 43.8141C278.911 43.2726 279.908 43.0019 281.081 43.0019C282.177 43.0019 283.133 43.2418 283.949 43.7216C284.765 44.2014 285.399 44.8868 285.851 45.7779C286.304 46.6621 286.53 47.7177 286.53 48.9446V59H282.15V49.726C282.157 48.7596 281.91 48.0056 281.41 47.4641C280.909 46.9157 280.22 46.6416 279.343 46.6416C278.754 46.6416 278.233 46.7684 277.78 47.022C277.335 47.2756 276.985 47.6457 276.731 48.1324C276.485 48.6122 276.358 49.1914 276.351 49.87ZM289.982 59V43.2075H294.362V59H289.982ZM292.182 41.1718C291.531 41.1718 290.972 40.9559 290.506 40.524C290.047 40.0854 289.817 39.561 289.817 38.951C289.817 38.3478 290.047 37.8303 290.506 37.3984C290.972 36.9598 291.531 36.7404 292.182 36.7404C292.833 36.7404 293.388 36.9598 293.848 37.3984C294.314 37.8303 294.547 38.3478 294.547 38.951C294.547 39.561 294.314 40.0854 293.848 40.524C293.388 40.9559 292.833 41.1718 292.182 41.1718ZM306.27 43.2075V46.4976H296.76V43.2075H306.27ZM298.919 39.4239H303.299V54.1471C303.299 54.5515 303.361 54.8668 303.484 55.093C303.607 55.3123 303.779 55.4666 303.998 55.5557C304.224 55.6448 304.485 55.6893 304.78 55.6893C304.985 55.6893 305.191 55.6722 305.396 55.6379C305.602 55.5968 305.76 55.566 305.869 55.5454L306.558 58.8047C306.339 58.8732 306.031 58.952 305.633 59.0411C305.235 59.1371 304.752 59.1953 304.183 59.2159C303.128 59.257 302.202 59.1165 301.407 58.7944C300.619 58.4722 300.006 57.9718 299.567 57.2933C299.128 56.6147 298.912 55.7579 298.919 54.7229V39.4239ZM311.828 64.9222C311.272 64.9222 310.751 64.8776 310.265 64.7885C309.785 64.7063 309.387 64.6 309.072 64.4698L310.059 61.2003C310.573 61.3579 311.036 61.4436 311.447 61.4573C311.865 61.471 312.225 61.375 312.527 61.1694C312.835 60.9638 313.085 60.6142 313.277 60.1207L313.534 59.4524L307.869 43.2075H312.475L315.745 54.8051H315.909L319.21 43.2075H323.847L317.709 60.7067C317.414 61.5567 317.013 62.297 316.506 62.9276C316.005 63.565 315.371 64.0551 314.604 64.3978C313.836 64.7474 312.911 64.9222 311.828 64.9222Z" fill="#5C3C6E"/>
</svg>
