<svg width="94" height="27" viewBox="0 0 94 27" fill="none" xmlns="http://www.w3.org/2000/svg">
<rect x="0.273438" y="0.226562" width="93.4558" height="25.9748" rx="12.9874" fill="#5C3262"/>
<path d="M20.6878 7.47656C17.4357 7.47656 14.7891 10.0257 14.788 13.1585C14.7872 14.1604 15.0594 15.1381 15.5754 15.9993L14.7383 18.9437L17.8661 18.1536C18.7362 18.6087 19.7036 18.8461 20.6855 18.8454H20.6878C23.9399 18.8454 26.5865 16.2959 26.5876 13.1631C26.5884 11.6456 25.9753 10.2172 24.8611 9.1435C23.7472 8.06941 22.2661 7.47694 20.6878 7.47656ZM20.6878 17.8856H20.6859C19.806 17.8856 18.9429 17.6578 18.1899 17.2274L18.0102 17.125L16.1549 17.5936L16.6502 15.8506L16.5336 15.6721C16.044 14.9253 15.7833 14.0516 15.7837 13.1585C15.7848 10.5543 17.985 8.43636 20.6897 8.43636C21.9993 8.43674 23.2304 8.92868 24.1566 9.8212C25.0828 10.7137 25.5923 11.9006 25.5915 13.1627C25.5904 15.7669 23.3906 17.8856 20.6874 17.8856H20.6878ZM23.3776 14.348C23.2301 14.2773 22.5053 13.9337 22.37 13.8859C22.2351 13.8389 22.1369 13.8144 22.0386 13.9566C21.9408 14.0988 21.6579 14.4187 21.5723 14.5132C21.4859 14.608 21.3999 14.6194 21.2524 14.5487C21.1048 14.4776 20.6297 14.3278 20.067 13.8439C19.6286 13.4677 19.3328 13.0029 19.2468 12.8604C19.1608 12.7186 19.2376 12.6417 19.3114 12.571C19.3775 12.5079 19.4589 12.4055 19.5323 12.3226C19.6057 12.2396 19.6301 12.1804 19.6798 12.0856C19.7288 11.9912 19.7043 11.9078 19.6672 11.8371C19.6301 11.7656 19.3358 11.0669 19.2124 10.7829C19.0931 10.5062 18.9716 10.5432 18.881 10.5387C18.795 10.5348 18.6971 10.5337 18.5981 10.5337C18.5006 10.5337 18.3405 10.5692 18.2052 10.7114C18.0702 10.8536 17.6891 11.1969 17.6891 11.8956C17.6891 12.5947 18.2174 13.2697 18.2912 13.3645C18.3649 13.459 19.3309 14.8935 20.8097 15.5089C21.1614 15.6545 21.4358 15.7421 21.6503 15.8078C22.0035 15.916 22.3249 15.9003 22.5787 15.864C22.8616 15.8231 23.451 15.5207 23.5733 15.1893C23.6964 14.8579 23.6964 14.5736 23.6597 14.5143C23.6238 14.4551 23.5251 14.4195 23.3776 14.348V14.348Z" fill="white"/>
<path d="M33.986 10.0724H35.1644V14.0039C35.1644 14.3674 35.0827 14.6831 34.9193 14.9511C34.7578 15.219 34.533 15.4255 34.2448 15.5705C33.9566 15.7155 33.6216 15.788 33.2399 15.788C32.9003 15.788 32.5919 15.7284 32.3148 15.6091C32.0395 15.4879 31.821 15.3044 31.6595 15.0584C31.498 14.8106 31.4182 14.4995 31.42 14.1251H32.6066C32.6103 14.2738 32.6406 14.4013 32.6975 14.5078C32.7562 14.6124 32.8361 14.6932 32.937 14.7501C33.0398 14.8051 33.1609 14.8327 33.3004 14.8327C33.4473 14.8327 33.5712 14.8015 33.6721 14.7391C33.7749 14.6748 33.8529 14.5812 33.9061 14.4582C33.9594 14.3352 33.986 14.1838 33.986 14.0039V10.0724ZM38.0387 15.7935C37.6111 15.7935 37.2412 15.7027 36.9292 15.521C36.619 15.3374 36.3795 15.0823 36.2106 14.7556C36.0417 14.427 35.9573 14.0462 35.9573 13.613C35.9573 13.1761 36.0417 12.7944 36.2106 12.4677C36.3795 12.1391 36.619 11.884 36.9292 11.7023C37.2412 11.5187 37.6111 11.4269 38.0387 11.4269C38.4664 11.4269 38.8353 11.5187 39.1455 11.7023C39.4575 11.884 39.698 12.1391 39.8669 12.4677C40.0357 12.7944 40.1202 13.1761 40.1202 13.613C40.1202 14.0462 40.0357 14.427 39.8669 14.7556C39.698 15.0823 39.4575 15.3374 39.1455 15.521C38.8353 15.7027 38.4664 15.7935 38.0387 15.7935ZM38.0442 14.885C38.2388 14.885 38.4012 14.8299 38.5315 14.7198C38.6619 14.6078 38.7601 14.4555 38.8261 14.2627C38.8941 14.07 38.928 13.8507 38.928 13.6047C38.928 13.3588 38.8941 13.1394 38.8261 12.9467C38.7601 12.754 38.6619 12.6016 38.5315 12.4897C38.4012 12.3777 38.2388 12.3217 38.0442 12.3217C37.8478 12.3217 37.6826 12.3777 37.5486 12.4897C37.4165 12.6016 37.3165 12.754 37.2485 12.9467C37.1825 13.1394 37.1494 13.3588 37.1494 13.6047C37.1494 13.8507 37.1825 14.07 37.2485 14.2627C37.3165 14.4555 37.4165 14.6078 37.5486 14.7198C37.6826 14.8299 37.8478 14.885 38.0442 14.885ZM40.8828 15.7109V11.482H42.0557V15.7109H40.8828ZM41.472 10.9369C41.2976 10.9369 41.148 10.879 41.0232 10.7634C40.9002 10.6459 40.8387 10.5055 40.8387 10.3422C40.8387 10.1806 40.9002 10.0421 41.0232 9.92643C41.148 9.80896 41.2976 9.75023 41.472 9.75023C41.6463 9.75023 41.795 9.80896 41.918 9.92643C42.0428 10.0421 42.1052 10.1806 42.1052 10.3422C42.1052 10.5055 42.0428 10.6459 41.918 10.7634C41.795 10.879 41.6463 10.9369 41.472 10.9369ZM44.1681 13.2661V15.7109H42.9952V11.482H44.113V12.2281H44.1626C44.2562 11.9822 44.4131 11.7876 44.6334 11.6444C44.8536 11.4994 45.1207 11.4269 45.4345 11.4269C45.7282 11.4269 45.9843 11.4912 46.2027 11.6197C46.4211 11.7481 46.5909 11.9317 46.712 12.1703C46.8332 12.4071 46.8937 12.6897 46.8937 13.0183V15.7109H45.7209V13.2275C45.7227 12.9687 45.6566 12.7668 45.5226 12.6218C45.3887 12.475 45.2042 12.4016 44.9693 12.4016C44.8114 12.4016 44.6719 12.4355 44.5508 12.5034C44.4315 12.5714 44.3378 12.6705 44.2699 12.8008C44.2039 12.9293 44.1699 13.0844 44.1681 13.2661ZM54.6096 12.0464H53.4037C53.3817 11.8904 53.3367 11.7518 53.2688 11.6307C53.2009 11.5077 53.1137 11.4031 53.0073 11.3168C52.9008 11.2305 52.7778 11.1645 52.6383 11.1186C52.5007 11.0727 52.3511 11.0497 52.1896 11.0497C51.8977 11.0497 51.6435 11.1222 51.4269 11.2672C51.2103 11.4104 51.0424 11.6197 50.9231 11.895C50.8038 12.1685 50.7441 12.5007 50.7441 12.8916C50.7441 13.2936 50.8038 13.6313 50.9231 13.9048C51.0442 14.1783 51.2131 14.3848 51.4297 14.5243C51.6463 14.6638 51.8968 14.7335 52.1813 14.7335C52.341 14.7335 52.4887 14.7124 52.6246 14.6702C52.7622 14.628 52.8843 14.5665 52.9907 14.4858C53.0972 14.4032 53.1853 14.3031 53.255 14.1857C53.3266 14.0682 53.3762 13.9342 53.4037 13.7837L54.6096 13.7892C54.5784 14.048 54.5004 14.2976 54.3756 14.5381C54.2526 14.7767 54.0865 14.9905 53.8773 15.1796C53.6699 15.3668 53.4221 15.5155 53.1339 15.6256C52.8476 15.7339 52.5236 15.788 52.162 15.788C51.6591 15.788 51.2094 15.6742 50.8129 15.4466C50.4183 15.219 50.1063 14.8896 49.8769 14.4582C49.6493 14.0269 49.5355 13.5047 49.5355 12.8916C49.5355 12.2768 49.6511 11.7537 49.8824 11.3223C50.1136 10.891 50.4275 10.5624 50.824 10.3367C51.2204 10.1091 51.6664 9.99526 52.162 9.99526C52.4887 9.99526 52.7916 10.0412 53.0706 10.1329C53.3514 10.2247 53.6001 10.3587 53.8167 10.5349C54.0333 10.7093 54.2095 10.9231 54.3453 11.1764C54.483 11.4297 54.5711 11.7197 54.6096 12.0464ZM56.6153 13.2661V15.7109H55.4425V10.0724H56.5823V12.2281H56.6319C56.7273 11.9785 56.8815 11.783 57.0944 11.6417C57.3073 11.4985 57.5744 11.4269 57.8956 11.4269C58.1893 11.4269 58.4453 11.4912 58.6637 11.6197C58.884 11.7463 59.0547 11.9289 59.1758 12.1676C59.2988 12.4043 59.3594 12.6879 59.3575 13.0183V15.7109H58.1847V13.2275C58.1865 12.9669 58.1204 12.7641 57.9864 12.6191C57.8543 12.4741 57.6689 12.4016 57.4303 12.4016C57.2706 12.4016 57.1293 12.4355 57.0063 12.5034C56.8852 12.5714 56.7897 12.6705 56.72 12.8008C56.6521 12.9293 56.6172 13.0844 56.6153 13.2661ZM61.4865 15.7908C61.2167 15.7908 60.9762 15.744 60.7651 15.6504C60.554 15.5549 60.387 15.4145 60.264 15.2291C60.1429 15.0419 60.0823 14.8088 60.0823 14.5298C60.0823 14.2949 60.1255 14.0976 60.2117 13.9379C60.298 13.7782 60.4155 13.6497 60.5641 13.5524C60.7128 13.4551 60.8817 13.3817 61.0707 13.3322C61.2616 13.2826 61.4617 13.2477 61.6709 13.2275C61.9169 13.2018 62.1151 13.178 62.2656 13.156C62.4161 13.1321 62.5254 13.0972 62.5933 13.0513C62.6612 13.0054 62.6951 12.9375 62.6951 12.8476V12.8311C62.6951 12.6567 62.6401 12.5218 62.5299 12.4264C62.4216 12.3309 62.2675 12.2832 62.0674 12.2832C61.8563 12.2832 61.6884 12.33 61.5636 12.4236C61.4387 12.5154 61.3562 12.631 61.3158 12.7705L60.231 12.6824C60.2861 12.4254 60.3944 12.2033 60.5559 12.0161C60.7174 11.8271 60.9257 11.6821 61.1809 11.5811C61.4378 11.4783 61.7352 11.4269 62.0729 11.4269C62.3078 11.4269 62.5327 11.4545 62.7474 11.5095C62.964 11.5646 63.1558 11.6499 63.3229 11.7656C63.4917 11.8812 63.6248 12.0299 63.7221 12.2116C63.8194 12.3915 63.868 12.6071 63.868 12.8586V15.7109H62.7557V15.1245H62.7227C62.6548 15.2567 62.5639 15.3732 62.4501 15.4742C62.3363 15.5733 62.1996 15.6513 62.0399 15.7082C61.8802 15.7632 61.6957 15.7908 61.4865 15.7908ZM61.8224 14.9813C61.9949 14.9813 62.1472 14.9474 62.2794 14.8795C62.4116 14.8097 62.5153 14.7161 62.5905 14.5986C62.6658 14.4812 62.7034 14.3481 62.7034 14.1994V13.7506C62.6667 13.7745 62.6162 13.7965 62.552 13.8167C62.4896 13.8351 62.4189 13.8525 62.34 13.869C62.261 13.8837 62.1821 13.8975 62.1032 13.9103C62.0243 13.9213 61.9527 13.9314 61.8884 13.9406C61.7508 13.9608 61.6306 13.9929 61.5278 14.037C61.425 14.081 61.3451 14.1407 61.2882 14.2159C61.2313 14.2894 61.2029 14.3811 61.2029 14.4913C61.2029 14.6509 61.2607 14.773 61.3763 14.8574C61.4938 14.94 61.6425 14.9813 61.8224 14.9813ZM65.9508 13.2661V15.7109H64.7779V11.482H65.8957V12.2281H65.9453C66.0389 11.9822 66.1958 11.7876 66.4161 11.6444C66.6364 11.4994 66.9034 11.4269 67.2173 11.4269C67.511 11.4269 67.767 11.4912 67.9854 11.6197C68.2039 11.7481 68.3736 11.9317 68.4948 12.1703C68.6159 12.4071 68.6765 12.6897 68.6765 13.0183V15.7109H67.5036V13.2275C67.5055 12.9687 67.4394 12.7668 67.3054 12.6218C67.1714 12.475 66.9869 12.4016 66.752 12.4016C66.5941 12.4016 66.4546 12.4355 66.3335 12.5034C66.2142 12.5714 66.1206 12.6705 66.0527 12.8008C65.9866 12.9293 65.9526 13.0844 65.9508 13.2661ZM70.7738 13.2661V15.7109H69.6009V11.482H70.7187V12.2281H70.7682C70.8619 11.9822 71.0188 11.7876 71.239 11.6444C71.4593 11.4994 71.7264 11.4269 72.0402 11.4269C72.3339 11.4269 72.59 11.4912 72.8084 11.6197C73.0268 11.7481 73.1966 11.9317 73.3177 12.1703C73.4389 12.4071 73.4994 12.6897 73.4994 13.0183V15.7109H72.3266V13.2275C72.3284 12.9687 72.2623 12.7668 72.1283 12.6218C71.9943 12.475 71.8099 12.4016 71.5749 12.4016C71.4171 12.4016 71.2776 12.4355 71.1564 12.5034C71.0371 12.5714 70.9435 12.6705 70.8756 12.8008C70.8095 12.9293 70.7756 13.0844 70.7738 13.2661ZM76.3511 15.7935C75.9161 15.7935 75.5416 15.7054 75.2278 15.5292C74.9157 15.3512 74.6753 15.0997 74.5064 14.7748C74.3376 14.4481 74.2531 14.0618 74.2531 13.6157C74.2531 13.1807 74.3376 12.799 74.5064 12.4704C74.6753 12.1419 74.913 11.8858 75.2195 11.7023C75.5279 11.5187 75.8895 11.4269 76.3043 11.4269C76.5833 11.4269 76.843 11.4719 77.0834 11.5618C77.3257 11.6499 77.5368 11.783 77.7167 11.9611C77.8984 12.1391 78.0397 12.363 78.1407 12.6328C78.2416 12.9008 78.2921 13.2147 78.2921 13.5744V13.8966H74.7212V13.1697H77.1881C77.1881 13.0009 77.1513 12.8513 77.0779 12.7209C77.0045 12.5906 76.9026 12.4888 76.7723 12.4153C76.6438 12.3401 76.4942 12.3025 76.3235 12.3025C76.1455 12.3025 75.9877 12.3438 75.85 12.4264C75.7142 12.5071 75.6077 12.6163 75.5306 12.754C75.4535 12.8898 75.4141 13.0412 75.4122 13.2083V13.8993C75.4122 14.1086 75.4508 14.2894 75.5279 14.4417C75.6068 14.5941 75.7178 14.7115 75.861 14.7941C76.0042 14.8767 76.174 14.918 76.3703 14.918C76.5007 14.918 76.62 14.8997 76.7283 14.8629C76.8366 14.8262 76.9293 14.7712 77.0063 14.6978C77.0834 14.6243 77.1422 14.5344 77.1825 14.4279L78.2673 14.4995C78.2122 14.7602 78.0994 14.9878 77.9287 15.1823C77.7598 15.375 77.5414 15.5256 77.2734 15.6338C77.0073 15.7403 76.6998 15.7935 76.3511 15.7935ZM80.2304 10.0724V15.7109H79.0575V10.0724H80.2304Z" fill="white"/>
</svg>
