<svg width="382" height="97" viewBox="0 0 382 97" fill="none" xmlns="http://www.w3.org/2000/svg">
<rect width="382" height="97" rx="48.5" fill="white"/>
<path d="M40.5928 27.0898C28.4483 27.0898 18.5648 36.6093 18.5606 48.3084C18.5577 52.0497 19.574 55.701 21.501 58.917L18.375 69.9124L30.0556 66.962C33.3047 68.6615 36.9174 69.5481 40.5842 69.5456H40.5928C52.7373 69.5456 62.6207 60.0247 62.625 48.3256C62.6279 42.6587 60.3383 37.3244 56.1773 33.3148C52.0178 29.3038 46.4866 27.0913 40.5928 27.0898ZM40.5928 65.9613H40.5856C37.2997 65.9613 34.0766 65.1106 31.2646 63.5033L30.5937 63.1208L23.665 64.8708L25.515 58.3617L25.0796 57.6951C23.2509 54.9062 22.2775 51.6435 22.279 48.3084C22.2833 38.5834 30.4995 30.6741 40.5999 30.6741C45.4903 30.6755 50.088 32.5126 53.5466 35.8456C57.0052 39.1787 58.908 43.6108 58.9051 48.3241C58.9009 58.0491 50.6861 65.9613 40.5914 65.9613H40.5928ZM50.6375 52.7506C50.0865 52.4865 47.3802 51.2032 46.8749 51.0248C46.371 50.8492 46.0041 50.7579 45.6373 51.2889C45.2719 51.8199 44.2156 53.0146 43.8958 53.3672C43.5732 53.7212 43.2521 53.764 42.7011 53.5C42.1501 53.2345 40.3758 52.6749 38.2747 50.8678C36.6374 49.4632 35.5326 47.7275 35.2114 47.195C34.8902 46.6655 35.1772 46.3786 35.4526 46.1145C35.6996 45.879 36.0036 45.4964 36.2777 45.1867C36.5518 44.8769 36.6431 44.6557 36.8287 44.3017C37.0114 43.9491 36.92 43.6379 36.7816 43.3738C36.6431 43.1069 35.544 40.4976 35.0829 39.437C34.6376 38.4036 34.1837 38.542 33.8454 38.5249C33.5242 38.5106 33.1588 38.5063 32.7891 38.5063C32.4251 38.5063 31.827 38.6391 31.3217 39.1701C30.8178 39.7011 29.3947 40.9829 29.3947 43.5922C29.3947 46.203 31.3674 48.7238 31.6429 49.0778C31.9184 49.4304 35.5254 54.7875 41.0481 57.0856C42.3614 57.6295 43.3862 57.9564 44.187 58.2019C45.506 58.6058 46.7064 58.5473 47.6542 58.4117C48.7105 58.259 50.9116 57.1299 51.3684 55.8923C51.828 54.6547 51.828 53.5927 51.691 53.3715C51.5568 53.1502 51.1885 53.0175 50.6375 52.7506Z" fill="#5C3C6E"/>
<path d="M90.261 37.9434H94.6615V52.6254C94.6615 53.9826 94.3565 55.1616 93.7464 56.1623C93.1433 57.163 92.3036 57.9341 91.2275 58.4756C90.1513 59.0171 88.9004 59.2879 87.4747 59.2879C86.2066 59.2879 85.0551 59.0651 84.0201 58.6196C82.9919 58.1672 82.1763 57.4818 81.5731 56.5633C80.9699 55.6379 80.6717 54.4761 80.6786 53.0778H85.1099C85.1236 53.633 85.2367 54.1094 85.4492 54.507C85.6686 54.8977 85.9667 55.1992 86.3437 55.4117C86.7276 55.6174 87.18 55.7202 87.7009 55.7202C88.2492 55.7202 88.7119 55.6037 89.0889 55.3706C89.4727 55.1307 89.7641 54.7811 89.9628 54.3219C90.1616 53.8626 90.261 53.2972 90.261 52.6254V37.9434ZM105.395 59.3084C103.798 59.3084 102.417 58.9692 101.252 58.2906C100.094 57.6051 99.1991 56.6524 98.5685 55.4323C97.9379 54.2054 97.6226 52.7831 97.6226 51.1655C97.6226 49.5341 97.9379 48.1084 98.5685 46.8883C99.1991 45.6614 100.094 44.7086 101.252 44.03C102.417 43.3446 103.798 43.0019 105.395 43.0019C106.993 43.0019 108.37 43.3446 109.529 44.03C110.694 44.7086 111.592 45.6614 112.222 46.8883C112.853 48.1084 113.168 49.5341 113.168 51.1655C113.168 52.7831 112.853 54.2054 112.222 55.4323C111.592 56.6524 110.694 57.6051 109.529 58.2906C108.37 58.9692 106.993 59.3084 105.395 59.3084ZM105.416 55.9155C106.143 55.9155 106.749 55.7099 107.236 55.2986C107.723 54.8805 108.089 54.3116 108.336 53.5919C108.59 52.8722 108.716 52.0531 108.716 51.1346C108.716 50.2161 108.59 49.397 108.336 48.6773C108.089 47.9576 107.723 47.3887 107.236 46.9706C106.749 46.5525 106.143 46.3434 105.416 46.3434C104.683 46.3434 104.066 46.5525 103.565 46.9706C103.072 47.3887 102.698 47.9576 102.445 48.6773C102.198 49.397 102.075 50.2161 102.075 51.1346C102.075 52.0531 102.198 52.8722 102.445 53.5919C102.698 54.3116 103.072 54.8805 103.565 55.2986C104.066 55.7099 104.683 55.9155 105.416 55.9155ZM116.016 59V43.2075H120.396V59H116.016ZM118.217 41.1718C117.565 41.1718 117.007 40.9559 116.541 40.524C116.081 40.0854 115.852 39.561 115.852 38.951C115.852 38.3478 116.081 37.8303 116.541 37.3984C117.007 36.9598 117.565 36.7404 118.217 36.7404C118.868 36.7404 119.423 36.9598 119.882 37.3984C120.348 37.8303 120.581 38.3478 120.581 38.951C120.581 39.561 120.348 40.0854 119.882 40.524C119.423 40.9559 118.868 41.1718 118.217 41.1718ZM128.285 49.87V59H123.905V43.2075H128.079V45.9938H128.264C128.614 45.0753 129.2 44.3488 130.022 43.8141C130.845 43.2726 131.842 43.0019 133.014 43.0019C134.111 43.0019 135.067 43.2418 135.883 43.7216C136.699 44.2014 137.333 44.8868 137.785 45.7779C138.237 46.6621 138.464 47.7177 138.464 48.9446V59H134.084V49.726C134.09 48.7596 133.844 48.0056 133.343 47.4641C132.843 46.9157 132.154 46.6416 131.277 46.6416C130.687 46.6416 130.166 46.7684 129.714 47.022C129.268 47.2756 128.919 47.6457 128.665 48.1324C128.418 48.6122 128.292 49.1914 128.285 49.87ZM168.049 48.4717C168.049 50.7679 167.613 52.7214 166.743 54.3322C165.879 55.9429 164.7 57.1733 163.206 58.0233C161.719 58.8663 160.046 59.2879 158.189 59.2879C156.317 59.2879 154.638 58.8629 153.151 58.013C151.663 57.163 150.488 55.9327 149.624 54.3219C148.761 52.7111 148.329 50.761 148.329 48.4717C148.329 46.1755 148.761 44.222 149.624 42.6112C150.488 41.0004 151.663 39.7735 153.151 38.9304C154.638 38.0805 156.317 37.6555 158.189 37.6555C160.046 37.6555 161.719 38.0805 163.206 38.9304C164.7 39.7735 165.879 41.0004 166.743 42.6112C167.613 44.222 168.049 46.1755 168.049 48.4717ZM163.535 48.4717C163.535 46.9843 163.312 45.7299 162.867 44.7086C162.428 43.6873 161.808 42.9128 161.006 42.385C160.204 41.8572 159.265 41.5933 158.189 41.5933C157.113 41.5933 156.174 41.8572 155.372 42.385C154.57 42.9128 153.946 43.6873 153.5 44.7086C153.062 45.7299 152.842 46.9843 152.842 48.4717C152.842 49.9591 153.062 51.2134 153.5 52.2347C153.946 53.256 154.57 54.0306 155.372 54.5584C156.174 55.0862 157.113 55.35 158.189 55.35C159.265 55.35 160.204 55.0862 161.006 54.5584C161.808 54.0306 162.428 53.256 162.867 52.2347C163.312 51.2134 163.535 49.9591 163.535 48.4717ZM181.392 52.2759V43.2075H185.772V59H181.566V56.1314H181.402C181.045 57.0568 180.453 57.8005 179.623 58.3625C178.801 58.9246 177.796 59.2056 176.611 59.2056C175.555 59.2056 174.626 58.9657 173.824 58.4859C173.022 58.0061 172.395 57.3241 171.943 56.4399C171.497 55.5557 171.271 54.4967 171.264 53.2629V43.2075H175.644V52.4815C175.651 53.4137 175.901 54.1505 176.395 54.692C176.888 55.2335 177.55 55.5043 178.379 55.5043C178.907 55.5043 179.4 55.3843 179.86 55.1444C180.319 54.8977 180.689 54.5344 180.97 54.0546C181.258 53.5748 181.398 52.9819 181.392 52.2759ZM189.275 59V43.2075H193.521V45.963H193.686C193.974 44.9828 194.457 44.2425 195.135 43.7422C195.814 43.2349 196.595 42.9813 197.48 42.9813C197.699 42.9813 197.936 42.995 198.189 43.0225C198.443 43.0499 198.665 43.0876 198.857 43.1356V47.022C198.652 46.9603 198.367 46.9055 198.004 46.8575C197.641 46.8095 197.308 46.7855 197.007 46.7855C196.362 46.7855 195.787 46.926 195.279 47.207C194.779 47.4812 194.382 47.8651 194.087 48.3586C193.799 48.8521 193.655 49.421 193.655 50.0653V59H189.275ZM226.484 45.3152H221.981C221.898 44.7326 221.73 44.2151 221.477 43.7627C221.223 43.3035 220.898 42.9128 220.5 42.5906C220.103 42.2685 219.643 42.0217 219.122 41.8504C218.608 41.679 218.05 41.5933 217.446 41.5933C216.357 41.5933 215.407 41.8641 214.598 42.4056C213.79 42.9402 213.162 43.7216 212.717 44.7498C212.271 45.7711 212.049 47.0117 212.049 48.4717C212.049 49.9728 212.271 51.234 212.717 52.2553C213.169 53.2766 213.8 54.0477 214.609 54.5686C215.418 55.0896 216.353 55.35 217.416 55.35C218.012 55.35 218.564 55.2712 219.071 55.1136C219.585 54.9559 220.041 54.7263 220.438 54.4247C220.836 54.1163 221.165 53.7427 221.425 53.304C221.693 52.8653 221.878 52.365 221.981 51.8029L226.484 51.8235C226.367 52.7899 226.076 53.7221 225.61 54.6201C225.151 55.5111 224.53 56.3097 223.749 57.0157C222.975 57.7148 222.049 58.27 220.973 58.6813C219.904 59.0857 218.694 59.2879 217.344 59.2879C215.466 59.2879 213.786 58.8629 212.306 58.013C210.832 57.163 209.667 55.9327 208.81 54.3219C207.96 52.7111 207.535 50.761 207.535 48.4717C207.535 46.1755 207.967 44.222 208.831 42.6112C209.694 41.0004 210.866 39.7735 212.347 38.9304C213.827 38.0805 215.493 37.6555 217.344 37.6555C218.564 37.6555 219.695 37.8268 220.737 38.1696C221.785 38.5123 222.714 39.0126 223.523 39.6707C224.332 40.3218 224.99 41.1204 225.497 42.0663C226.011 43.0122 226.34 44.0952 226.484 45.3152ZM236.73 59.3084C235.132 59.3084 233.751 58.9692 232.586 58.2906C231.428 57.6051 230.533 56.6524 229.903 55.4323C229.272 54.2054 228.957 52.7831 228.957 51.1655C228.957 49.5341 229.272 48.1084 229.903 46.8883C230.533 45.6614 231.428 44.7086 232.586 44.03C233.751 43.3446 235.132 43.0019 236.73 43.0019C238.327 43.0019 239.704 43.3446 240.863 44.03C242.028 44.7086 242.926 45.6614 243.557 46.8883C244.187 48.1084 244.502 49.5341 244.502 51.1655C244.502 52.7831 244.187 54.2054 243.557 55.4323C242.926 56.6524 242.028 57.6051 240.863 58.2906C239.704 58.9692 238.327 59.3084 236.73 59.3084ZM236.75 55.9155C237.477 55.9155 238.083 55.7099 238.57 55.2986C239.057 54.8805 239.423 54.3116 239.67 53.5919C239.924 52.8722 240.05 52.0531 240.05 51.1346C240.05 50.2161 239.924 49.397 239.67 48.6773C239.423 47.9576 239.057 47.3887 238.57 46.9706C238.083 46.5525 237.477 46.3434 236.75 46.3434C236.017 46.3434 235.4 46.5525 234.899 46.9706C234.406 47.3887 234.032 47.9576 233.779 48.6773C233.532 49.397 233.409 50.2161 233.409 51.1346C233.409 52.0531 233.532 52.8722 233.779 53.5919C234.032 54.3116 234.406 54.8805 234.899 55.2986C235.4 55.7099 236.017 55.9155 236.75 55.9155ZM247.35 59V43.2075H251.525V45.9938H251.71C252.039 45.0685 252.587 44.3385 253.355 43.8039C254.123 43.2692 255.041 43.0019 256.11 43.0019C257.193 43.0019 258.115 43.2726 258.876 43.8141C259.637 44.3488 260.144 45.0753 260.398 45.9938H260.562C260.884 45.089 261.467 44.3659 262.31 43.8244C263.16 43.2761 264.164 43.0019 265.323 43.0019C266.796 43.0019 267.992 43.4714 268.911 44.4105C269.836 45.3427 270.299 46.6656 270.299 48.3791V59H265.929V49.2428C265.929 48.3654 265.696 47.7074 265.23 47.2687C264.764 46.8301 264.181 46.6107 263.482 46.6107C262.687 46.6107 262.067 46.8643 261.621 47.3716C261.176 47.8719 260.953 48.5334 260.953 49.3559V59H256.707V49.1503C256.707 48.3757 256.484 47.7588 256.038 47.2996C255.6 46.8403 255.02 46.6107 254.301 46.6107C253.814 46.6107 253.375 46.7341 252.985 46.9809C252.601 47.2208 252.296 47.56 252.07 47.9987C251.843 48.4306 251.73 48.9378 251.73 49.5204V59H247.35ZM273.759 59V43.2075H277.933V45.9938H278.118C278.447 45.0685 278.995 44.3385 279.763 43.8039C280.531 43.2692 281.449 43.0019 282.518 43.0019C283.601 43.0019 284.523 43.2726 285.284 43.8141C286.045 44.3488 286.552 45.0753 286.806 45.9938H286.97C287.293 45.089 287.875 44.3659 288.718 43.8244C289.568 43.2761 290.572 43.0019 291.731 43.0019C293.204 43.0019 294.401 43.4714 295.319 44.4105C296.244 45.3427 296.707 46.6656 296.707 48.3791V59H292.337V49.2428C292.337 48.3654 292.104 47.7074 291.638 47.2687C291.172 46.8301 290.59 46.6107 289.89 46.6107C289.095 46.6107 288.475 46.8643 288.029 47.3716C287.584 47.8719 287.361 48.5334 287.361 49.3559V59H283.115V49.1503C283.115 48.3757 282.892 47.7588 282.447 47.2996C282.008 46.8403 281.429 46.6107 280.709 46.6107C280.222 46.6107 279.784 46.7341 279.393 46.9809C279.009 47.2208 278.704 47.56 278.478 47.9987C278.252 48.4306 278.139 48.9378 278.139 49.5204V59H273.759ZM310.294 52.2759V43.2075H314.674V59H310.469V56.1314H310.304C309.948 57.0568 309.355 57.8005 308.526 58.3625C307.703 58.9246 306.699 59.2056 305.513 59.2056C304.458 59.2056 303.529 58.9657 302.727 58.4859C301.925 58.0061 301.298 57.3241 300.845 56.4399C300.4 55.5557 300.174 54.4967 300.167 53.2629V43.2075H304.547V52.4815C304.554 53.4137 304.804 54.1505 305.297 54.692C305.791 55.2335 306.452 55.5043 307.282 55.5043C307.809 55.5043 308.303 55.3843 308.762 55.1444C309.221 54.8977 309.592 54.5344 309.873 54.0546C310.16 53.5748 310.301 52.9819 310.294 52.2759ZM322.557 49.87V59H318.178V43.2075H322.352V45.9938H322.537C322.886 45.0753 323.473 44.3488 324.295 43.8141C325.118 43.2726 326.115 43.0019 327.287 43.0019C328.384 43.0019 329.34 43.2418 330.156 43.7216C330.971 44.2014 331.605 44.8868 332.058 45.7779C332.51 46.6621 332.736 47.7177 332.736 48.9446V59H328.356V49.726C328.363 48.7596 328.116 48.0056 327.616 47.4641C327.116 46.9157 326.427 46.6416 325.549 46.6416C324.96 46.6416 324.439 46.7684 323.987 47.022C323.541 47.2756 323.191 47.6457 322.938 48.1324C322.691 48.6122 322.564 49.1914 322.557 49.87ZM336.188 59V43.2075H340.568V59H336.188ZM338.388 41.1718C337.737 41.1718 337.179 40.9559 336.713 40.524C336.253 40.0854 336.024 39.561 336.024 38.951C336.024 38.3478 336.253 37.8303 336.713 37.3984C337.179 36.9598 337.737 36.7404 338.388 36.7404C339.04 36.7404 339.595 36.9598 340.054 37.3984C340.52 37.8303 340.753 38.3478 340.753 38.951C340.753 39.561 340.52 40.0854 340.054 40.524C339.595 40.9559 339.04 41.1718 338.388 41.1718ZM352.477 43.2075V46.4976H342.966V43.2075H352.477ZM345.125 39.4239H349.505V54.1471C349.505 54.5515 349.567 54.8668 349.69 55.093C349.814 55.3123 349.985 55.4666 350.205 55.5557C350.431 55.6448 350.691 55.6893 350.986 55.6893C351.192 55.6893 351.397 55.6722 351.603 55.6379C351.808 55.5968 351.966 55.566 352.076 55.5454L352.765 58.8047C352.545 58.8732 352.237 58.952 351.839 59.0411C351.442 59.1371 350.959 59.1953 350.39 59.2159C349.334 59.257 348.409 59.1165 347.614 58.7944C346.825 58.4722 346.212 57.9718 345.773 57.2933C345.335 56.6147 345.119 55.7579 345.125 54.7229V39.4239ZM358.034 64.9222C357.479 64.9222 356.958 64.8776 356.471 64.7885C355.991 64.7063 355.594 64.6 355.279 64.4698L356.266 61.2003C356.78 61.3579 357.242 61.4436 357.654 61.4573C358.072 61.471 358.432 61.375 358.733 61.1694C359.042 60.9638 359.292 60.6142 359.484 60.1207L359.741 59.4524L354.076 43.2075H358.682L361.951 54.8051H362.116L365.416 43.2075H370.053L363.915 60.7067C363.62 61.5567 363.219 62.297 362.712 62.9276C362.212 63.565 361.578 64.0551 360.81 64.3978C360.042 64.7474 359.117 64.9222 358.034 64.9222Z" fill="#5C3C6E"/>
</svg>
