<svg width="86" height="85" viewBox="0 0 86 85" fill="none" xmlns="http://www.w3.org/2000/svg">
<path d="M67.6229 64.2196C67.5297 64.8217 67.026 65.2435 66.4978 65.1618C65.9697 65.08 65.6171 64.5256 65.7103 63.9235C65.8035 63.3214 66.3072 62.8996 66.8353 62.9814C67.3635 63.0631 67.7161 63.6175 67.6229 64.2196Z" fill="white"/>
<path d="M69.6229 60.7196C69.5297 61.3217 69.026 61.7435 68.4978 61.6618C67.9697 61.58 67.6171 61.0256 67.7103 60.4235C67.8034 59.8214 68.3072 59.3996 68.8353 59.4814C69.3635 59.5631 69.7161 60.1175 69.6229 60.7196Z" fill="white"/>
<path d="M71.2896 57.2196C71.1964 57.8217 70.6927 58.2435 70.1645 58.1618C69.6363 58.08 69.2837 57.5256 69.3769 56.9235C69.4701 56.3214 69.9738 55.8996 70.502 55.9814C71.0302 56.0631 71.3828 56.6175 71.2896 57.2196Z" fill="white"/>
<path d="M72.4562 53.3863C72.3631 53.9884 71.8593 54.4102 71.3312 54.3284C70.803 54.2467 70.4504 53.6923 70.5436 53.0902C70.6368 52.4881 71.1405 52.0663 71.6687 52.148C72.1968 52.2298 72.5494 52.7841 72.4562 53.3863Z" fill="white"/>
<path d="M73.2896 49.5529C73.1964 50.155 72.6927 50.5769 72.1645 50.4951C71.6363 50.4133 71.2837 49.859 71.3769 49.2569C71.4701 48.6548 71.9738 48.2329 72.502 48.3147C73.0302 48.3964 73.3828 48.9508 73.2896 49.5529Z" fill="white"/>
<path d="M73.6229 45.7196C73.5297 46.3217 73.026 46.7435 72.4978 46.6618C71.9697 46.58 71.6171 46.0256 71.7103 45.4235C71.8035 44.8214 72.3072 44.3996 72.8353 44.4814C73.3635 44.5631 73.7161 45.1175 73.6229 45.7196Z" fill="white"/>
<path d="M73.7896 41.7196C73.6964 42.3217 73.1927 42.7435 72.6645 42.6618C72.1363 42.58 71.7837 42.0256 71.8769 41.4235C71.9701 40.8214 72.4738 40.3996 73.002 40.4814C73.5302 40.5631 73.8828 41.1175 73.7896 41.7196Z" fill="white"/>
<path d="M73.4562 37.8863C73.3631 38.4884 72.8593 38.9102 72.3312 38.8284C71.803 38.7467 71.4504 38.1923 71.5436 37.5902C71.6368 36.9881 72.1405 36.5663 72.6687 36.648C73.1968 36.7298 73.5494 37.2842 73.4562 37.8863Z" fill="white"/>
<path d="M72.6229 34.2196C72.5297 34.8217 72.026 35.2435 71.4978 35.1618C70.9697 35.08 70.6171 34.5256 70.7103 33.9235C70.8035 33.3214 71.3072 32.8996 71.8353 32.9814C72.3635 33.0631 72.7161 33.6175 72.6229 34.2196Z" fill="white"/>
<path d="M71.4562 30.5529C71.363 31.155 70.8593 31.5768 70.3312 31.4951C69.803 31.4133 69.4504 30.859 69.5436 30.2569C69.6368 29.6548 70.1405 29.2329 70.6687 29.3147C71.1968 29.3964 71.5494 29.9508 71.4562 30.5529Z" fill="white"/>
<path d="M69.9562 27.2196C69.863 27.8217 69.3593 28.2435 68.8312 28.1618C68.303 28.08 67.9504 27.5256 68.0436 26.9235C68.1368 26.3214 68.6405 25.8996 69.1687 25.9814C69.6968 26.0631 70.0494 26.6175 69.9562 27.2196Z" fill="white"/>
<path d="M68.1229 24.0529C68.0297 24.655 67.526 25.0768 66.9978 24.9951C66.4697 24.9133 66.1171 24.359 66.2103 23.7569C66.3035 23.1548 66.8072 22.7329 67.3353 22.8147C67.8635 22.8964 68.2161 23.4508 68.1229 24.0529Z" fill="white"/>
<path d="M65.9562 21.2196C65.863 21.8217 65.3593 22.2435 64.8312 22.1618C64.303 22.08 63.9504 21.5256 64.0436 20.9235C64.1368 20.3214 64.6405 19.8996 65.1687 19.9814C65.6968 20.0631 66.0494 20.6175 65.9562 21.2196Z" fill="white"/>
<path d="M63.4562 18.7196C63.363 19.3217 62.8593 19.7435 62.3312 19.6618C61.803 19.58 61.4504 19.0256 61.5436 18.4235C61.6368 17.8214 62.1405 17.3996 62.6687 17.4814C63.1968 17.5631 63.5494 18.1175 63.4562 18.7196Z" fill="white"/>
<path d="M60.6229 16.5529C60.5297 17.155 60.026 17.5768 59.4978 17.4951C58.9697 17.4133 58.6171 16.859 58.7103 16.2569C58.8034 15.6548 59.3072 15.2329 59.8353 15.3147C60.3635 15.3964 60.7161 15.9508 60.6229 16.5529Z" fill="white"/>
<path d="M57.6229 14.7196C57.5297 15.3217 57.026 15.7435 56.4978 15.6618C55.9697 15.58 55.6171 15.0256 55.7103 14.4235C55.8034 13.8214 56.3072 13.3996 56.8353 13.4814C57.3635 13.5631 57.7161 14.1175 57.6229 14.7196Z" fill="white"/>
<path d="M54.4562 13.3863C54.363 13.9884 53.8593 14.4102 53.3312 14.3284C52.803 14.2467 52.4504 13.6923 52.5436 13.0902C52.6368 12.4881 53.1405 12.0663 53.6687 12.148C54.1968 12.2298 54.5494 12.7842 54.4562 13.3863Z" fill="white"/>
<path d="M51.1229 12.5529C51.0297 13.155 50.526 13.5768 49.9978 13.4951C49.4697 13.4133 49.117 12.859 49.2102 12.2569C49.3034 11.6548 49.8072 11.2329 50.3353 11.3147C50.8635 11.3964 51.2161 11.9508 51.1229 12.5529Z" fill="white"/>
<path d="M47.6229 12.0529C47.5297 12.655 47.026 13.0768 46.4978 12.9951C45.9697 12.9133 45.6171 12.359 45.7102 11.7569C45.8034 11.1548 46.3072 10.7329 46.8353 10.8147C47.3635 10.8964 47.7161 11.4508 47.6229 12.0529Z" fill="white"/>
<path d="M44.1229 12.0529C44.0297 12.655 43.526 13.0768 42.9978 12.9951C42.4697 12.9133 42.1171 12.359 42.2102 11.7569C42.3034 11.1548 42.8072 10.7329 43.3353 10.8147C43.8635 10.8964 44.2161 11.4508 44.1229 12.0529Z" fill="white"/>
<path d="M40.7896 12.3863C40.6964 12.9884 40.1927 13.4102 39.6645 13.3284C39.1363 13.2467 38.7837 12.6923 38.8769 12.0902C38.9701 11.4881 39.4738 11.0663 40.002 11.148C40.5302 11.2298 40.8828 11.7842 40.7896 12.3863Z" fill="white"/>
<path d="M37.2896 13.2196C37.1964 13.8217 36.6927 14.2435 36.1645 14.1618C35.6363 14.08 35.2837 13.5256 35.3769 12.9235C35.4701 12.3214 35.9738 11.8996 36.502 11.9814C37.0302 12.0631 37.3828 12.6175 37.2896 13.2196Z" fill="white"/>
<path d="M33.9562 14.5529C33.863 15.155 33.3593 15.5768 32.8312 15.4951C32.303 15.4133 31.9504 14.859 32.0436 14.2569C32.1368 13.6548 32.6405 13.2329 33.1687 13.3147C33.6968 13.3964 34.0494 13.9508 33.9562 14.5529Z" fill="white"/>
<path d="M30.7896 16.2196C30.6964 16.8217 30.1927 17.2435 29.6645 17.1618C29.1363 17.08 28.7837 16.5256 28.8769 15.9235C28.9701 15.3214 29.4738 14.8996 30.002 14.9814C30.5302 15.0631 30.8828 15.6175 30.7896 16.2196Z" fill="white"/>
<path d="M27.6229 18.3863C27.5297 18.9884 27.026 19.4102 26.4978 19.3284C25.9697 19.2467 25.6171 18.6923 25.7103 18.0902C25.8035 17.4881 26.3072 17.0663 26.8353 17.148C27.3635 17.2298 27.7161 17.7842 27.6229 18.3863Z" fill="white"/>
<path d="M24.9562 20.8863C24.863 21.4884 24.3593 21.9102 23.8312 21.8284C23.303 21.7467 22.9504 21.1923 23.0436 20.5902C23.1368 19.9881 23.6405 19.5663 24.1687 19.648C24.6968 19.7298 25.0494 20.2842 24.9562 20.8863Z" fill="white"/>
<path d="M22.2896 23.7196C22.1964 24.3217 21.6927 24.7435 21.1645 24.6618C20.6363 24.58 20.2837 24.0256 20.3769 23.4235C20.4701 22.8214 20.9738 22.3996 21.502 22.4814C22.0302 22.5631 22.3828 23.1175 22.2896 23.7196Z" fill="white"/>
<path d="M19.9562 26.8863C19.863 27.4884 19.3593 27.9102 18.8312 27.8284C18.303 27.7467 17.9504 27.1923 18.0436 26.5902C18.1368 25.9881 18.6405 25.5663 19.1687 25.648C19.6968 25.7298 20.0494 26.2841 19.9562 26.8863Z" fill="white"/>
<path d="M18.1229 30.3863C18.0297 30.9884 17.526 31.4102 16.9978 31.3284C16.4697 31.2467 16.1171 30.6923 16.2103 30.0902C16.3034 29.4881 16.8072 29.0663 17.3353 29.148C17.8635 29.2298 18.2161 29.7842 18.1229 30.3863Z" fill="white"/>
<path d="M16.6229 33.8863C16.5297 34.4884 16.026 34.9102 15.4978 34.8284C14.9697 34.7467 14.6171 34.1923 14.7103 33.5902C14.8034 32.9881 15.3072 32.5663 15.8353 32.648C16.3635 32.7298 16.7161 33.2842 16.6229 33.8863Z" fill="white"/>
<path d="M15.2896 37.5529C15.1964 38.155 14.6927 38.5769 14.1645 38.4951C13.6363 38.4133 13.2837 37.859 13.3769 37.2569C13.4701 36.6548 13.9738 36.2329 14.502 36.3147C15.0302 36.3964 15.3828 36.9508 15.2896 37.5529Z" fill="white"/>
<path d="M14.4562 41.3863C14.363 41.9884 13.8593 42.4102 13.3312 42.3284C12.803 42.2467 12.4504 41.6923 12.5436 41.0902C12.6368 40.4881 13.1405 40.0663 13.6687 40.148C14.1968 40.2298 14.5494 40.7842 14.4562 41.3863Z" fill="white"/>
<path d="M13.9562 45.3863C13.863 45.9884 13.3593 46.4102 12.8312 46.3284C12.303 46.2467 11.9504 45.6923 12.0436 45.0902C12.1368 44.4881 12.6405 44.0663 13.1687 44.148C13.6968 44.2298 14.0494 44.7841 13.9562 45.3863Z" fill="white"/>
<path d="M13.9562 49.3863C13.863 49.9884 13.3593 50.4102 12.8312 50.3284C12.303 50.2467 11.9504 49.6923 12.0436 49.0902C12.1368 48.4881 12.6405 48.0663 13.1687 48.148C13.6968 48.2298 14.0494 48.7842 13.9562 49.3863Z" fill="white"/>
<path d="M14.2896 53.2196C14.1964 53.8217 13.6927 54.2435 13.1645 54.1618C12.6363 54.08 12.2837 53.5256 12.3769 52.9235C12.4701 52.3214 12.9738 51.8996 13.502 51.9814C14.0302 52.0631 14.3828 52.6175 14.2896 53.2196Z" fill="white"/>
<path d="M15.1229 57.0529C15.0297 57.655 14.526 58.0769 13.9978 57.9951C13.4697 57.9133 13.1171 57.359 13.2103 56.7569C13.3034 56.1548 13.8072 55.7329 14.3353 55.8147C14.8635 55.8964 15.2161 56.4508 15.1229 57.0529Z" fill="white"/>
<path d="M16.2896 60.3863C16.1964 60.9884 15.6927 61.4102 15.1645 61.3284C14.6363 61.2467 14.2837 60.6923 14.3769 60.0902C14.4701 59.4881 14.9738 59.0663 15.502 59.148C16.0302 59.2298 16.3828 59.7842 16.2896 60.3863Z" fill="white"/>
<path d="M17.7896 63.8863C17.6964 64.4884 17.1927 64.9102 16.6645 64.8284C16.1363 64.7467 15.7837 64.1923 15.8769 63.5902C15.9701 62.9881 16.4738 62.5663 17.002 62.648C17.5302 62.7298 17.8828 63.2842 17.7896 63.8863Z" fill="white"/>
<path d="M19.6229 67.0529C19.5297 67.655 19.026 68.0769 18.4978 67.9951C17.9697 67.9133 17.6171 67.359 17.7102 66.7569C17.8034 66.1548 18.3072 65.7329 18.8353 65.8147C19.3635 65.8964 19.7161 66.4508 19.6229 67.0529Z" fill="white"/>
<path d="M21.7896 69.8863C21.6964 70.4884 21.1927 70.9102 20.6645 70.8284C20.1363 70.7467 19.7837 70.1923 19.8769 69.5902C19.9701 68.9881 20.4738 68.5663 21.002 68.648C21.5302 68.7298 21.8828 69.2842 21.7896 69.8863Z" fill="white"/>
<path d="M24.4562 72.3863C24.363 72.9884 23.8593 73.4102 23.3312 73.3284C22.803 73.2467 22.4504 72.6923 22.5436 72.0902C22.6368 71.4881 23.1405 71.0663 23.6687 71.148C24.1968 71.2298 24.5494 71.7841 24.4562 72.3863Z" fill="white"/>
<path d="M27.1229 74.5529C27.0297 75.155 26.526 75.5769 25.9978 75.4951C25.4697 75.4133 25.1171 74.859 25.2103 74.2569C25.3034 73.6548 25.8072 73.2329 26.3353 73.3147C26.8635 73.3964 27.2161 73.9508 27.1229 74.5529Z" fill="white"/>
<path d="M30.1229 76.3863C30.0297 76.9884 29.526 77.4102 28.9978 77.3284C28.4697 77.2467 28.1171 76.6923 28.2103 76.0902C28.3035 75.4881 28.8072 75.0663 29.3353 75.148C29.8635 75.2298 30.2161 75.7842 30.1229 76.3863Z" fill="white"/>
<path d="M33.2896 77.7196C33.1964 78.3217 32.6927 78.7435 32.1645 78.6618C31.6363 78.58 31.2837 78.0256 31.3769 77.4235C31.4701 76.8214 31.9738 76.3996 32.502 76.4814C33.0302 76.5631 33.3828 77.1175 33.2896 77.7196Z" fill="white"/>
<path d="M36.6229 78.5529C36.5297 79.155 36.026 79.5769 35.4978 79.4951C34.9697 79.4133 34.6171 78.859 34.7103 78.2569C34.8034 77.6548 35.3072 77.2329 35.8353 77.3147C36.3635 77.3964 36.7161 77.9508 36.6229 78.5529Z" fill="white"/>
<path d="M40.1229 79.0529C40.0297 79.655 39.526 80.0769 38.9978 79.9951C38.4697 79.9133 38.1171 79.359 38.2103 78.7569C38.3034 78.1548 38.8072 77.7329 39.3353 77.8147C39.8635 77.8964 40.2161 78.4508 40.1229 79.0529Z" fill="white"/>
<path d="M43.4562 79.0529C43.363 79.655 42.8593 80.0769 42.3312 79.9951C41.803 79.9133 41.4504 79.359 41.5436 78.7569C41.6368 78.1548 42.1405 77.7329 42.6687 77.8147C43.1968 77.8964 43.5494 78.4508 43.4562 79.0529Z" fill="white"/>
<path d="M46.9562 78.7196C46.863 79.3217 46.3593 79.7435 45.8312 79.6618C45.303 79.58 44.9504 79.0256 45.0436 78.4235C45.1368 77.8214 45.6405 77.3996 46.1687 77.4814C46.6968 77.5631 47.0494 78.1175 46.9562 78.7196Z" fill="white"/>
<path d="M50.4562 77.8863C50.363 78.4884 49.8593 78.9102 49.3312 78.8284C48.803 78.7467 48.4504 78.1923 48.5436 77.5902C48.6368 76.9881 49.1405 76.5663 49.6687 76.648C50.1968 76.7298 50.5494 77.2841 50.4562 77.8863Z" fill="white"/>
<path d="M53.7896 76.5529C53.6964 77.155 53.1927 77.5769 52.6645 77.4951C52.1363 77.4133 51.7837 76.859 51.8769 76.2569C51.9701 75.6548 52.4738 75.2329 53.002 75.3147C53.5302 75.3964 53.8828 75.9508 53.7896 76.5529Z" fill="white"/>
<path d="M56.9562 74.7196C56.863 75.3217 56.3593 75.7435 55.8312 75.6618C55.303 75.58 54.9504 75.0256 55.0436 74.4235C55.1368 73.8214 55.6405 73.3996 56.1687 73.4814C56.6968 73.5631 57.0494 74.1175 56.9562 74.7196Z" fill="white"/>
<path d="M59.9562 72.5529C59.863 73.155 59.3593 73.5769 58.8312 73.4951C58.303 73.4133 57.9504 72.859 58.0436 72.2569C58.1368 71.6548 58.6405 71.2329 59.1687 71.3147C59.6968 71.3964 60.0494 71.9508 59.9562 72.5529Z" fill="white"/>
<path d="M62.7896 70.0529C62.6964 70.655 62.1927 71.0769 61.6645 70.9951C61.1363 70.9133 60.7837 70.359 60.8769 69.7569C60.9701 69.1548 61.4738 68.7329 62.002 68.8147C62.5302 68.8964 62.8828 69.4508 62.7896 70.0529Z" fill="white"/>
<path d="M65.4562 67.3863C65.363 67.9884 64.8593 68.4102 64.3312 68.3284C63.803 68.2467 63.4504 67.6923 63.5436 67.0902C63.6368 66.4881 64.1405 66.0663 64.6687 66.148C65.1968 66.2298 65.5494 66.7841 65.4562 67.3863Z" fill="white"/>
<path d="M33.0417 82.0833C33.0417 82.8657 32.4074 83.5 31.625 83.5C30.8426 83.5 30.2083 82.8657 30.2083 82.0833C30.2083 81.3009 30.8426 80.6667 31.625 80.6667C32.4074 80.6667 33.0417 81.3009 33.0417 82.0833Z" fill="white"/>
<path d="M37.7083 83.0833C37.7083 83.8657 37.0741 84.5 36.2917 84.5C35.5093 84.5 34.875 83.8657 34.875 83.0833C34.875 82.3009 35.5093 81.6667 36.2917 81.6667C37.0741 81.6667 37.7083 82.3009 37.7083 83.0833Z" fill="white"/>
<path d="M42.375 83.5833C42.375 84.3657 41.7407 85 40.9583 85C40.1759 85 39.5417 84.3657 39.5417 83.5833C39.5417 82.8009 40.1759 82.1667 40.9583 82.1667C41.7407 82.1667 42.375 82.8009 42.375 83.5833Z" fill="white"/>
<path d="M47.375 83.5833C47.375 84.3657 46.7407 85 45.9583 85C45.1759 85 44.5417 84.3657 44.5417 83.5833C44.5417 82.8009 45.1759 82.1667 45.9583 82.1667C46.7407 82.1667 47.375 82.8009 47.375 83.5833Z" fill="white"/>
<path d="M52.0417 83.0833C52.0417 83.8657 51.4074 84.5 50.625 84.5C49.8426 84.5 49.2083 83.8657 49.2083 83.0833C49.2083 82.3009 49.8426 81.6667 50.625 81.6667C51.4074 81.6667 52.0417 82.3009 52.0417 83.0833Z" fill="white"/>
<path d="M56.7083 82.0833C56.7083 82.8657 56.0741 83.5 55.2917 83.5C54.5093 83.5 53.875 82.8657 53.875 82.0833C53.875 81.3009 54.5093 80.6667 55.2917 80.6667C56.0741 80.6667 56.7083 81.3009 56.7083 82.0833Z" fill="white"/>
<path d="M61.2083 80.25C61.2083 81.0324 60.5741 81.6667 59.7917 81.6667C59.0093 81.6667 58.375 81.0324 58.375 80.25C58.375 79.4676 59.0093 78.8333 59.7917 78.8333C60.5741 78.8333 61.2083 79.4676 61.2083 80.25Z" fill="white"/>
<path d="M65.5417 78.25C65.5417 79.0324 64.9074 79.6667 64.125 79.6667C63.3426 79.6667 62.7083 79.0324 62.7083 78.25C62.7083 77.4676 63.3426 76.8333 64.125 76.8333C64.9074 76.8333 65.5417 77.4676 65.5417 78.25Z" fill="white"/>
<path d="M69.5417 75.4167C69.5417 76.1991 68.9074 76.8333 68.125 76.8333C67.3426 76.8333 66.7083 76.1991 66.7083 75.4167C66.7083 74.6343 67.3426 74 68.125 74C68.9074 74 69.5417 74.6343 69.5417 75.4167Z" fill="white"/>
<path d="M73.2083 72.5833C73.2083 73.3657 72.5741 74 71.7917 74C71.0093 74 70.375 73.3657 70.375 72.5833C70.375 71.8009 71.0093 71.1667 71.7917 71.1667C72.5741 71.1667 73.2083 71.8009 73.2083 72.5833Z" fill="white"/>
<path d="M76.5417 68.9167C76.5417 69.6991 75.9074 70.3333 75.125 70.3333C74.3426 70.3333 73.7083 69.6991 73.7083 68.9167C73.7083 68.1343 74.3426 67.5 75.125 67.5C75.9074 67.5 76.5417 68.1343 76.5417 68.9167Z" fill="white"/>
<path d="M79.375 65.0833C79.375 65.8657 78.7407 66.5 77.9583 66.5C77.1759 66.5 76.5417 65.8657 76.5417 65.0833C76.5417 64.3009 77.1759 63.6667 77.9583 63.6667C78.7407 63.6667 79.375 64.3009 79.375 65.0833Z" fill="white"/>
<path d="M81.7083 60.9167C81.7083 61.6991 81.0741 62.3333 80.2917 62.3333C79.5093 62.3333 78.875 61.6991 78.875 60.9167C78.875 60.1343 79.5093 59.5 80.2917 59.5C81.0741 59.5 81.7083 60.1343 81.7083 60.9167Z" fill="white"/>
<path d="M83.7083 56.5833C83.7083 57.3657 83.0741 58 82.2917 58C81.5093 58 80.875 57.3657 80.875 56.5833C80.875 55.8009 81.5093 55.1667 82.2917 55.1667C83.0741 55.1667 83.7083 55.8009 83.7083 56.5833Z" fill="white"/>
<path d="M85.0417 52.0833C85.0417 52.8657 84.4074 53.5 83.625 53.5C82.8426 53.5 82.2083 52.8657 82.2083 52.0833C82.2083 51.3009 82.8426 50.6667 83.625 50.6667C84.4074 50.6667 85.0417 51.3009 85.0417 52.0833Z" fill="white"/>
<path d="M85.875 47.25C85.875 48.0324 85.2407 48.6667 84.4583 48.6667C83.6759 48.6667 83.0417 48.0324 83.0417 47.25C83.0417 46.4676 83.6759 45.8333 84.4583 45.8333C85.2407 45.8333 85.875 46.4676 85.875 47.25Z" fill="white"/>
<path d="M85.875 42.4167C85.875 43.1991 85.2407 43.8333 84.4583 43.8333C83.6759 43.8333 83.0417 43.1991 83.0417 42.4167C83.0417 41.6343 83.6759 41 84.4583 41C85.2407 41 85.875 41.6343 85.875 42.4167Z" fill="white"/>
<path d="M85.875 37.5833C85.875 38.3657 85.2407 39 84.4583 39C83.6759 39 83.0417 38.3657 83.0417 37.5833C83.0417 36.8009 83.6759 36.1667 84.4583 36.1667C85.2407 36.1667 85.875 36.8009 85.875 37.5833Z" fill="white"/>
<path d="M85.0417 33.0833C85.0417 33.8657 84.4074 34.5 83.625 34.5C82.8426 34.5 82.2083 33.8657 82.2083 33.0833C82.2083 32.3009 82.8426 31.6667 83.625 31.6667C84.4074 31.6667 85.0417 32.3009 85.0417 33.0833Z" fill="white"/>
<path d="M83.7083 28.25C83.7083 29.0324 83.0741 29.6667 82.2917 29.6667C81.5093 29.6667 80.875 29.0324 80.875 28.25C80.875 27.4676 81.5093 26.8333 82.2917 26.8333C83.0741 26.8333 83.7083 27.4676 83.7083 28.25Z" fill="white"/>
<path d="M81.7083 24.0833C81.7083 24.8657 81.0741 25.5 80.2917 25.5C79.5093 25.5 78.875 24.8657 78.875 24.0833C78.875 23.3009 79.5093 22.6667 80.2917 22.6667C81.0741 22.6667 81.7083 23.3009 81.7083 24.0833Z" fill="white"/>
<path d="M79.375 19.9167C79.375 20.6991 78.7407 21.3333 77.9583 21.3333C77.1759 21.3333 76.5417 20.6991 76.5417 19.9167C76.5417 19.1343 77.1759 18.5 77.9583 18.5C78.7407 18.5 79.375 19.1343 79.375 19.9167Z" fill="white"/>
<path d="M76.5417 16.25C76.5417 17.0324 75.9074 17.6667 75.125 17.6667C74.3426 17.6667 73.7083 17.0324 73.7083 16.25C73.7083 15.4676 74.3426 14.8333 75.125 14.8333C75.9074 14.8333 76.5417 15.4676 76.5417 16.25Z" fill="white"/>
<path d="M73.0417 12.4167C73.0417 13.1991 72.4074 13.8333 71.625 13.8333C70.8426 13.8333 70.2083 13.1991 70.2083 12.4167C70.2083 11.6343 70.8426 11 71.625 11C72.4074 11 73.0417 11.6343 73.0417 12.4167Z" fill="white"/>
<path d="M69.5417 9.58333C69.5417 10.3657 68.9074 11 68.125 11C67.3426 11 66.7083 10.3657 66.7083 9.58333C66.7083 8.80093 67.3426 8.16667 68.125 8.16667C68.9074 8.16667 69.5417 8.80093 69.5417 9.58333Z" fill="white"/>
<path d="M65.5417 6.75C65.5417 7.5324 64.9074 8.16667 64.125 8.16667C63.3426 8.16667 62.7083 7.5324 62.7083 6.75C62.7083 5.9676 63.3426 5.33333 64.125 5.33333C64.9074 5.33333 65.5417 5.9676 65.5417 6.75Z" fill="white"/>
<path d="M61.375 4.75C61.375 5.5324 60.7407 6.16667 59.9583 6.16667C59.1759 6.16667 58.5417 5.5324 58.5417 4.75C58.5417 3.9676 59.1759 3.33333 59.9583 3.33333C60.7407 3.33333 61.375 3.9676 61.375 4.75Z" fill="white"/>
<path d="M56.7083 2.91667C56.7083 3.69907 56.0741 4.33333 55.2917 4.33333C54.5093 4.33333 53.875 3.69907 53.875 2.91667C53.875 2.13426 54.5093 1.5 55.2917 1.5C56.0741 1.5 56.7083 2.13426 56.7083 2.91667Z" fill="white"/>
<path d="M52.2083 1.91667C52.2083 2.69907 51.5741 3.33333 50.7917 3.33333C50.0093 3.33333 49.375 2.69907 49.375 1.91667C49.375 1.13426 50.0093 0.5 50.7917 0.5C51.5741 0.5 52.2083 1.13426 52.2083 1.91667Z" fill="white"/>
<path d="M47.2083 1.41667C47.2083 2.19907 46.5741 2.83333 45.7917 2.83333C45.0093 2.83333 44.375 2.19907 44.375 1.41667C44.375 0.634263 45.0093 0 45.7917 0C46.5741 0 47.2083 0.634263 47.2083 1.41667Z" fill="white"/>
<path d="M42.7083 1.41667C42.7083 2.19907 42.0741 2.83333 41.2917 2.83333C40.5093 2.83333 39.875 2.19907 39.875 1.41667C39.875 0.634263 40.5093 0 41.2917 0C42.0741 0 42.7083 0.634263 42.7083 1.41667Z" fill="white"/>
<path d="M37.7083 1.91667C37.7083 2.69907 37.0741 3.33333 36.2917 3.33333C35.5093 3.33333 34.875 2.69907 34.875 1.91667C34.875 1.13426 35.5093 0.5 36.2917 0.5C37.0741 0.5 37.7083 1.13426 37.7083 1.91667Z" fill="white"/>
<path d="M33.0417 2.91667C33.0417 3.69907 32.4074 4.33333 31.625 4.33333C30.8426 4.33333 30.2083 3.69907 30.2083 2.91667C30.2083 2.13426 30.8426 1.5 31.625 1.5C32.4074 1.5 33.0417 2.13426 33.0417 2.91667Z" fill="white"/>
<path d="M28.7083 4.75C28.7083 5.5324 28.0741 6.16667 27.2917 6.16667C26.5093 6.16667 25.875 5.5324 25.875 4.75C25.875 3.9676 26.5093 3.33333 27.2917 3.33333C28.0741 3.33333 28.7083 3.9676 28.7083 4.75Z" fill="white"/>
<path d="M24.2083 6.91667C24.2083 7.69907 23.5741 8.33333 22.7917 8.33333C22.0093 8.33333 21.375 7.69907 21.375 6.91667C21.375 6.13426 22.0093 5.5 22.7917 5.5C23.5741 5.5 24.2083 6.13426 24.2083 6.91667Z" fill="white"/>
<path d="M20.2083 9.41667C20.2083 10.1991 19.5741 10.8333 18.7917 10.8333C18.0093 10.8333 17.375 10.1991 17.375 9.41667C17.375 8.63426 18.0093 8 18.7917 8C19.5741 8 20.2083 8.63426 20.2083 9.41667Z" fill="white"/>
<path d="M16.5417 12.5833C16.5417 13.3657 15.9074 14 15.125 14C14.3426 14 13.7083 13.3657 13.7083 12.5833C13.7083 11.8009 14.3426 11.1667 15.125 11.1667C15.9074 11.1667 16.5417 11.8009 16.5417 12.5833Z" fill="white"/>
<path d="M13.375 16.0833C13.375 16.8657 12.7407 17.5 11.9583 17.5C11.1759 17.5 10.5417 16.8657 10.5417 16.0833C10.5417 15.3009 11.1759 14.6667 11.9583 14.6667C12.7407 14.6667 13.375 15.3009 13.375 16.0833Z" fill="white"/>
<path d="M10.5417 19.9167C10.5417 20.6991 9.9074 21.3333 9.125 21.3333C8.3426 21.3333 7.70833 20.6991 7.70833 19.9167C7.70833 19.1343 8.3426 18.5 9.125 18.5C9.9074 18.5 10.5417 19.1343 10.5417 19.9167Z" fill="white"/>
<path d="M8.04167 24.0833C8.04167 24.8657 7.4074 25.5 6.625 25.5C5.8426 25.5 5.20833 24.8657 5.20833 24.0833C5.20833 23.3009 5.8426 22.6667 6.625 22.6667C7.4074 22.6667 8.04167 23.3009 8.04167 24.0833Z" fill="white"/>
<path d="M6.04167 28.4167C6.04167 29.1991 5.4074 29.8333 4.625 29.8333C3.8426 29.8333 3.20833 29.1991 3.20833 28.4167C3.20833 27.6343 3.8426 27 4.625 27C5.4074 27 6.04167 27.6343 6.04167 28.4167Z" fill="white"/>
<path d="M4.70833 32.9167C4.70833 33.6991 4.07407 34.3333 3.29167 34.3333C2.50926 34.3333 1.875 33.6991 1.875 32.9167C1.875 32.1343 2.50926 31.5 3.29167 31.5C4.07407 31.5 4.70833 32.1343 4.70833 32.9167Z" fill="white"/>
<path d="M4.04167 37.9167C4.04167 38.6991 3.4074 39.3333 2.625 39.3333C1.8426 39.3333 1.20833 38.6991 1.20833 37.9167C1.20833 37.1343 1.8426 36.5 2.625 36.5C3.4074 36.5 4.04167 37.1343 4.04167 37.9167Z" fill="white"/>
<path d="M3.70833 42.75C3.70833 43.5324 3.07407 44.1667 2.29167 44.1667C1.50926 44.1667 0.875 43.5324 0.875 42.75C0.875 41.9676 1.50926 41.3333 2.29167 41.3333C3.07407 41.3333 3.70833 41.9676 3.70833 42.75Z" fill="white"/>
<path d="M4.04167 47.25C4.04167 48.0324 3.4074 48.6667 2.625 48.6667C1.8426 48.6667 1.20833 48.0324 1.20833 47.25C1.20833 46.4676 1.8426 45.8333 2.625 45.8333C3.4074 45.8333 4.04167 46.4676 4.04167 47.25Z" fill="white"/>
<path d="M4.70833 52.0833C4.70833 52.8657 4.07407 53.5 3.29167 53.5C2.50926 53.5 1.875 52.8657 1.875 52.0833C1.875 51.3009 2.50926 50.6667 3.29167 50.6667C4.07407 50.6667 4.70833 51.3009 4.70833 52.0833Z" fill="white"/>
<path d="M6.20833 56.5833C6.20833 57.3657 5.57407 58 4.79167 58C4.00926 58 3.375 57.3657 3.375 56.5833C3.375 55.8009 4.00926 55.1667 4.79167 55.1667C5.57407 55.1667 6.20833 55.8009 6.20833 56.5833Z" fill="white"/>
<path d="M8.04167 60.9167C8.04167 61.6991 7.4074 62.3333 6.625 62.3333C5.8426 62.3333 5.20833 61.6991 5.20833 60.9167C5.20833 60.1343 5.8426 59.5 6.625 59.5C7.4074 59.5 8.04167 60.1343 8.04167 60.9167Z" fill="white"/>
<path d="M10.5417 65.0833C10.5417 65.8657 9.9074 66.5 9.125 66.5C8.3426 66.5 7.70833 65.8657 7.70833 65.0833C7.70833 64.3009 8.3426 63.6667 9.125 63.6667C9.9074 63.6667 10.5417 64.3009 10.5417 65.0833Z" fill="white"/>
<path d="M13.375 68.9167C13.375 69.6991 12.7407 70.3333 11.9583 70.3333C11.1759 70.3333 10.5417 69.6991 10.5417 68.9167C10.5417 68.1343 11.1759 67.5 11.9583 67.5C12.7407 67.5 13.375 68.1343 13.375 68.9167Z" fill="white"/>
<path d="M16.7083 72.5833C16.7083 73.3657 16.0741 74 15.2917 74C14.5093 74 13.875 73.3657 13.875 72.5833C13.875 71.8009 14.5093 71.1667 15.2917 71.1667C16.0741 71.1667 16.7083 71.8009 16.7083 72.5833Z" fill="white"/>
<path d="M20.2083 75.4167C20.2083 76.1991 19.5741 76.8333 18.7917 76.8333C18.0093 76.8333 17.375 76.1991 17.375 75.4167C17.375 74.6343 18.0093 74 18.7917 74C19.5741 74 20.2083 74.6343 20.2083 75.4167Z" fill="white"/>
<path d="M24.2083 78.25C24.2083 79.0324 23.5741 79.6667 22.7917 79.6667C22.0093 79.6667 21.375 79.0324 21.375 78.25C21.375 77.4676 22.0093 76.8333 22.7917 76.8333C23.5741 76.8333 24.2083 77.4676 24.2083 78.25Z" fill="white"/>
<path d="M28.7083 80.25C28.7083 81.0324 28.0741 81.6667 27.2917 81.6667C26.5093 81.6667 25.875 81.0324 25.875 80.25C25.875 79.4676 26.5093 78.8333 27.2917 78.8333C28.0741 78.8333 28.7083 79.4676 28.7083 80.25Z" fill="white"/>
<path d="M24.7083 38.25C24.7083 38.6642 24.3725 39 23.9583 39C23.5441 39 23.2083 38.6642 23.2083 38.25C23.2083 37.8358 23.5441 37.5 23.9583 37.5C24.3725 37.5 24.7083 37.8358 24.7083 38.25Z" fill="white"/>
<path d="M25.7083 35.9167C25.7083 36.3309 25.3725 36.6667 24.9583 36.6667C24.5441 36.6667 24.2083 36.3309 24.2083 35.9167C24.2083 35.5025 24.5441 35.1667 24.9583 35.1667C25.3725 35.1667 25.7083 35.5025 25.7083 35.9167Z" fill="white"/>
<path d="M27.2083 33.75C27.2083 34.1642 26.8725 34.5 26.4583 34.5C26.0441 34.5 25.7083 34.1642 25.7083 33.75C25.7083 33.3358 26.0441 33 26.4583 33C26.8725 33 27.2083 33.3358 27.2083 33.75Z" fill="white"/>
<path d="M28.7083 31.75C28.7083 32.1642 28.3725 32.5 27.9583 32.5C27.5441 32.5 27.2083 32.1642 27.2083 31.75C27.2083 31.3358 27.5441 31 27.9583 31C28.3725 31 28.7083 31.3358 28.7083 31.75Z" fill="white"/>
<path d="M30.5417 30.0833C30.5417 30.4975 30.2059 30.8333 29.7917 30.8333C29.3775 30.8333 29.0417 30.4975 29.0417 30.0833C29.0417 29.6691 29.3775 29.3333 29.7917 29.3333C30.2059 29.3333 30.5417 29.6691 30.5417 30.0833Z" fill="white"/>
<path d="M32.5417 28.5833C32.5417 28.9975 32.2059 29.3333 31.7917 29.3333C31.3775 29.3333 31.0417 28.9975 31.0417 28.5833C31.0417 28.1691 31.3775 27.8333 31.7917 27.8333C32.2059 27.8333 32.5417 28.1691 32.5417 28.5833Z" fill="white"/>
<path d="M34.875 27.25C34.875 27.6642 34.5392 28 34.125 28C33.7108 28 33.375 27.6642 33.375 27.25C33.375 26.8358 33.7108 26.5 34.125 26.5C34.5392 26.5 34.875 26.8358 34.875 27.25Z" fill="white"/>
<path d="M37.2083 26.4167C37.2083 26.8309 36.8725 27.1667 36.4583 27.1667C36.0441 27.1667 35.7083 26.8309 35.7083 26.4167C35.7083 26.0025 36.0441 25.6667 36.4583 25.6667C36.8725 25.6667 37.2083 26.0025 37.2083 26.4167Z" fill="white"/>
<path d="M39.5417 25.75C39.5417 26.1642 39.2059 26.5 38.7917 26.5C38.3775 26.5 38.0417 26.1642 38.0417 25.75C38.0417 25.3358 38.3775 25 38.7917 25C39.2059 25 39.5417 25.3358 39.5417 25.75Z" fill="white"/>
<path d="M42.2083 25.4167C42.2083 25.8309 41.8725 26.1667 41.4583 26.1667C41.0441 26.1667 40.7083 25.8309 40.7083 25.4167C40.7083 25.0025 41.0441 24.6667 41.4583 24.6667C41.8725 24.6667 42.2083 25.0025 42.2083 25.4167Z" fill="white"/>
<path d="M44.7083 25.25C44.7083 25.6642 44.3725 26 43.9583 26C43.5441 26 43.2083 25.6642 43.2083 25.25C43.2083 24.8358 43.5441 24.5 43.9583 24.5C44.3725 24.5 44.7083 24.8358 44.7083 25.25Z" fill="white"/>
<path d="M47.2083 25.5833C47.2083 25.9975 46.8725 26.3333 46.4583 26.3333C46.0441 26.3333 45.7083 25.9975 45.7083 25.5833C45.7083 25.1691 46.0441 24.8333 46.4583 24.8333C46.8725 24.8333 47.2083 25.1691 47.2083 25.5833Z" fill="white"/>
<path d="M49.7083 26.0833C49.7083 26.4975 49.3726 26.8333 48.9583 26.8333C48.5441 26.8333 48.2083 26.4975 48.2083 26.0833C48.2083 25.6691 48.5441 25.3333 48.9583 25.3333C49.3726 25.3333 49.7083 25.6691 49.7083 26.0833Z" fill="white"/>
<path d="M52.2083 26.9167C52.2083 27.3309 51.8726 27.6667 51.4583 27.6667C51.0441 27.6667 50.7083 27.3309 50.7083 26.9167C50.7083 26.5025 51.0441 26.1667 51.4583 26.1667C51.8726 26.1667 52.2083 26.5025 52.2083 26.9167Z" fill="white"/>
<path d="M54.5417 28.25C54.5417 28.6642 54.2059 29 53.7917 29C53.3775 29 53.0417 28.6642 53.0417 28.25C53.0417 27.8358 53.3775 27.5 53.7917 27.5C54.2059 27.5 54.5417 27.8358 54.5417 28.25Z" fill="white"/>
<path d="M56.7083 29.5833C56.7083 29.9975 56.3725 30.3333 55.9583 30.3333C55.5441 30.3333 55.2083 29.9975 55.2083 29.5833C55.2083 29.1691 55.5441 28.8333 55.9583 28.8333C56.3725 28.8333 56.7083 29.1691 56.7083 29.5833Z" fill="white"/>
<path d="M58.875 31.25C58.875 31.6642 58.5392 32 58.125 32C57.7108 32 57.375 31.6642 57.375 31.25C57.375 30.8358 57.7108 30.5 58.125 30.5C58.5392 30.5 58.875 30.8358 58.875 31.25Z" fill="white"/>
<path d="M60.7083 33.0833C60.7083 33.4975 60.3725 33.8333 59.9583 33.8333C59.5441 33.8333 59.2083 33.4975 59.2083 33.0833C59.2083 32.6691 59.5441 32.3333 59.9583 32.3333C60.3725 32.3333 60.7083 32.6691 60.7083 33.0833Z" fill="white"/>
<path d="M62.375 35.25C62.375 35.6642 62.0392 36 61.625 36C61.2108 36 60.875 35.6642 60.875 35.25C60.875 34.8358 61.2108 34.5 61.625 34.5C62.0392 34.5 62.375 34.8358 62.375 35.25Z" fill="white"/>
<path d="M63.875 37.5833C63.875 37.9975 63.5392 38.3333 63.125 38.3333C62.7108 38.3333 62.375 37.9975 62.375 37.5833C62.375 37.1691 62.7108 36.8333 63.125 36.8333C63.5392 36.8333 63.875 37.1691 63.875 37.5833Z" fill="white"/>
<path d="M65.0417 39.9167C65.0417 40.3309 64.7059 40.6667 64.2917 40.6667C63.8775 40.6667 63.5417 40.3309 63.5417 39.9167C63.5417 39.5025 63.8775 39.1667 64.2917 39.1667C64.7059 39.1667 65.0417 39.5025 65.0417 39.9167Z" fill="white"/>
<path d="M65.875 42.4167C65.875 42.8309 65.5392 43.1667 65.125 43.1667C64.7108 43.1667 64.375 42.8309 64.375 42.4167C64.375 42.0025 64.7108 41.6667 65.125 41.6667C65.5392 41.6667 65.875 42.0025 65.875 42.4167Z" fill="white"/>
<path d="M66.5417 45.0833C66.5417 45.4976 66.2059 45.8333 65.7917 45.8333C65.3775 45.8333 65.0417 45.4976 65.0417 45.0833C65.0417 44.6691 65.3775 44.3333 65.7917 44.3333C66.2059 44.3333 66.5417 44.6691 66.5417 45.0833Z" fill="white"/>
<path d="M66.875 47.75C66.875 48.1642 66.5392 48.5 66.125 48.5C65.7108 48.5 65.375 48.1642 65.375 47.75C65.375 47.3358 65.7108 47 66.125 47C66.5392 47 66.875 47.3358 66.875 47.75Z" fill="white"/>
<path d="M66.875 50.4167C66.875 50.8309 66.5392 51.1667 66.125 51.1667C65.7108 51.1667 65.375 50.8309 65.375 50.4167C65.375 50.0025 65.7108 49.6667 66.125 49.6667C66.5392 49.6667 66.875 50.0025 66.875 50.4167Z" fill="white"/>
<path d="M66.7083 53.0833C66.7083 53.4976 66.3725 53.8333 65.9583 53.8333C65.5441 53.8333 65.2083 53.4976 65.2083 53.0833C65.2083 52.6691 65.5441 52.3333 65.9583 52.3333C66.3725 52.3333 66.7083 52.6691 66.7083 53.0833Z" fill="white"/>
<path d="M66.0417 55.5833C66.0417 55.9976 65.7059 56.3333 65.2917 56.3333C64.8775 56.3333 64.5417 55.9976 64.5417 55.5833C64.5417 55.1691 64.8775 54.8333 65.2917 54.8333C65.7059 54.8333 66.0417 55.1691 66.0417 55.5833Z" fill="white"/>
<path d="M65.2083 58.0833C65.2083 58.4976 64.8726 58.8333 64.4583 58.8333C64.0441 58.8333 63.7083 58.4976 63.7083 58.0833C63.7083 57.6691 64.0441 57.3333 64.4583 57.3333C64.8726 57.3333 65.2083 57.6691 65.2083 58.0833Z" fill="white"/>
<path d="M64.0417 60.4167C64.0417 60.8309 63.7059 61.1667 63.2917 61.1667C62.8775 61.1667 62.5417 60.8309 62.5417 60.4167C62.5417 60.0025 62.8775 59.6667 63.2917 59.6667C63.7059 59.6667 64.0417 60.0025 64.0417 60.4167Z" fill="white"/>
<path d="M62.7083 62.5833C62.7083 62.9976 62.3725 63.3333 61.9583 63.3333C61.5441 63.3333 61.2083 62.9976 61.2083 62.5833C61.2083 62.1691 61.5441 61.8333 61.9583 61.8333C62.3725 61.8333 62.7083 62.1691 62.7083 62.5833Z" fill="white"/>
<path d="M61.2083 64.5833C61.2083 64.9975 60.8725 65.3333 60.4583 65.3333C60.0441 65.3333 59.7083 64.9975 59.7083 64.5833C59.7083 64.1691 60.0441 63.8333 60.4583 63.8333C60.8725 63.8333 61.2083 64.1691 61.2083 64.5833Z" fill="white"/>
<path d="M59.375 66.25C59.375 66.6642 59.0392 67 58.625 67C58.2108 67 57.875 66.6642 57.875 66.25C57.875 65.8358 58.2108 65.5 58.625 65.5C59.0392 65.5 59.375 65.8358 59.375 66.25Z" fill="white"/>
<path d="M57.375 67.75C57.375 68.1642 57.0392 68.5 56.625 68.5C56.2108 68.5 55.875 68.1642 55.875 67.75C55.875 67.3358 56.2108 67 56.625 67C57.0392 67 57.375 67.3358 57.375 67.75Z" fill="white"/>
<path d="M55.0417 69.0833C55.0417 69.4976 54.7059 69.8333 54.2917 69.8333C53.8775 69.8333 53.5417 69.4976 53.5417 69.0833C53.5417 68.6691 53.8775 68.3333 54.2917 68.3333C54.7059 68.3333 55.0417 68.6691 55.0417 69.0833Z" fill="white"/>
<path d="M52.7083 69.9167C52.7083 70.3309 52.3725 70.6667 51.9583 70.6667C51.5441 70.6667 51.2083 70.3309 51.2083 69.9167C51.2083 69.5025 51.5441 69.1667 51.9583 69.1667C52.3725 69.1667 52.7083 69.5025 52.7083 69.9167Z" fill="white"/>
<path d="M50.375 70.5833C50.375 70.9975 50.0392 71.3333 49.625 71.3333C49.2108 71.3333 48.875 70.9975 48.875 70.5833C48.875 70.1691 49.2108 69.8333 49.625 69.8333C50.0392 69.8333 50.375 70.1691 50.375 70.5833Z" fill="white"/>
<path d="M45.2083 71.0833C45.2083 71.4975 44.8725 71.8333 44.4583 71.8333C44.0441 71.8333 43.7083 71.4975 43.7083 71.0833C43.7083 70.6691 44.0441 70.3333 44.4583 70.3333C44.8725 70.3333 45.2083 70.6691 45.2083 71.0833Z" fill="white"/>
<path d="M42.7083 70.75C42.7083 71.1642 42.3725 71.5 41.9583 71.5C41.5441 71.5 41.2083 71.1642 41.2083 70.75C41.2083 70.3358 41.5441 70 41.9583 70C42.3725 70 42.7083 70.3358 42.7083 70.75Z" fill="white"/>
<path d="M40.2083 70.25C40.2083 70.6642 39.8725 71 39.4583 71C39.0441 71 38.7083 70.6642 38.7083 70.25C38.7083 69.8358 39.0441 69.5 39.4583 69.5C39.8725 69.5 40.2083 69.8358 40.2083 70.25Z" fill="white"/>
<path d="M37.7083 69.25C37.7083 69.6642 37.3725 70 36.9583 70C36.5441 70 36.2083 69.6642 36.2083 69.25C36.2083 68.8358 36.5441 68.5 36.9583 68.5C37.3725 68.5 37.7083 68.8358 37.7083 69.25Z" fill="white"/>
<path d="M35.375 68.0833C35.375 68.4976 35.0392 68.8333 34.625 68.8333C34.2108 68.8333 33.875 68.4976 33.875 68.0833C33.875 67.6691 34.2108 67.3333 34.625 67.3333C35.0392 67.3333 35.375 67.6691 35.375 68.0833Z" fill="white"/>
<path d="M33.0417 66.75C33.0417 67.1642 32.7059 67.5 32.2917 67.5C31.8775 67.5 31.5417 67.1642 31.5417 66.75C31.5417 66.3358 31.8775 66 32.2917 66C32.7059 66 33.0417 66.3358 33.0417 66.75Z" fill="white"/>
<path d="M31.0417 65.0833C31.0417 65.4975 30.7059 65.8333 30.2917 65.8333C29.8775 65.8333 29.5417 65.4975 29.5417 65.0833C29.5417 64.6691 29.8775 64.3333 30.2917 64.3333C30.7059 64.3333 31.0417 64.6691 31.0417 65.0833Z" fill="white"/>
<path d="M29.2083 63.0833C29.2083 63.4976 28.8725 63.8333 28.4583 63.8333C28.0441 63.8333 27.7083 63.4976 27.7083 63.0833C27.7083 62.6691 28.0441 62.3333 28.4583 62.3333C28.8725 62.3333 29.2083 62.6691 29.2083 63.0833Z" fill="white"/>
<path d="M27.5417 61.0833C27.5417 61.4975 27.2059 61.8333 26.7917 61.8333C26.3775 61.8333 26.0417 61.4975 26.0417 61.0833C26.0417 60.6691 26.3775 60.3333 26.7917 60.3333C27.2059 60.3333 27.5417 60.6691 27.5417 61.0833Z" fill="white"/>
<path d="M26.0417 58.75C26.0417 59.1642 25.7059 59.5 25.2917 59.5C24.8775 59.5 24.5417 59.1642 24.5417 58.75C24.5417 58.3358 24.8775 58 25.2917 58C25.7059 58 26.0417 58.3358 26.0417 58.75Z" fill="white"/>
<path d="M24.875 56.25C24.875 56.6642 24.5392 57 24.125 57C23.7108 57 23.375 56.6642 23.375 56.25C23.375 55.8358 23.7108 55.5 24.125 55.5C24.5392 55.5 24.875 55.8358 24.875 56.25Z" fill="white"/>
<path d="M24.0417 53.75C24.0417 54.1642 23.7059 54.5 23.2917 54.5C22.8775 54.5 22.5417 54.1642 22.5417 53.75C22.5417 53.3358 22.8775 53 23.2917 53C23.7059 53 24.0417 53.3358 24.0417 53.75Z" fill="white"/>
<path d="M23.375 51.0833C23.375 51.4975 23.0392 51.8333 22.625 51.8333C22.2108 51.8333 21.875 51.4975 21.875 51.0833C21.875 50.6691 22.2108 50.3333 22.625 50.3333C23.0392 50.3333 23.375 50.6691 23.375 51.0833Z" fill="white"/>
<path d="M23.0417 48.5833C23.0417 48.9975 22.7059 49.3333 22.2917 49.3333C21.8775 49.3333 21.5417 48.9975 21.5417 48.5833C21.5417 48.1691 21.8775 47.8333 22.2917 47.8333C22.7059 47.8333 23.0417 48.1691 23.0417 48.5833Z" fill="white"/>
<path d="M23.0417 45.9167C23.0417 46.3309 22.7059 46.6667 22.2917 46.6667C21.8775 46.6667 21.5417 46.3309 21.5417 45.9167C21.5417 45.5025 21.8775 45.1667 22.2917 45.1667C22.7059 45.1667 23.0417 45.5025 23.0417 45.9167Z" fill="white"/>
<path d="M23.2083 43.25C23.2083 43.6642 22.8725 44 22.4583 44C22.0441 44 21.7083 43.6642 21.7083 43.25C21.7083 42.8358 22.0441 42.5 22.4583 42.5C22.8725 42.5 23.2083 42.8358 23.2083 43.25Z" fill="white"/>
<path d="M23.875 40.5833C23.875 40.9975 23.5392 41.3333 23.125 41.3333C22.7108 41.3333 22.375 40.9975 22.375 40.5833C22.375 40.1691 22.7108 39.8333 23.125 39.8333C23.5392 39.8333 23.875 40.1691 23.875 40.5833Z" fill="white"/>
<path d="M47.875 70.9167C47.875 71.3309 47.5392 71.6667 47.125 71.6667C46.7108 71.6667 46.375 71.3309 46.375 70.9167C46.375 70.5025 46.7108 70.1667 47.125 70.1667C47.5392 70.1667 47.875 70.5025 47.875 70.9167Z" fill="white"/>
</svg>
