<svg width="69" height="19" viewBox="0 0 69 19" fill="none" xmlns="http://www.w3.org/2000/svg">
<path fill-rule="evenodd" clip-rule="evenodd" d="M4.82432 13.0654L6.51215 11.8193H6.5177L7.18903 15.3747L4.82432 13.0654ZM12.1955 6.92842C12.7711 6.92842 12.8669 5.58338 12.8827 5.14163C12.8859 5.06246 12.8479 4.97458 12.7837 4.92788C12.6064 4.79804 12.6254 4.63733 12.6246 4.37767C12.6246 4.35233 12.6238 4.32621 12.6238 4.2985L12.6373 3.96996L12.6499 3.69525C12.6531 3.33583 12.5359 2.99542 12.338 2.69538V2.69379C12.11 2.34704 11.7142 2.05333 11.2701 1.84275C11.122 1.77308 10.9692 1.71292 10.8149 1.66225C10.5924 1.59812 10.3573 1.5625 10.1142 1.5625C8.71774 1.5625 7.58645 2.69458 7.58645 4.09108C7.58645 4.22646 7.59753 4.36025 7.61811 4.49088C7.63632 4.57796 7.6569 4.66583 7.68303 4.7545C7.75982 5.01575 7.87699 5.25246 8.00524 5.47808H7.28165C6.46624 5.50025 5.67536 5.82958 5.08953 6.417L4.32715 7.18017C4.21632 7.28625 3.90045 7.60767 3.5434 7.19996L3.90045 7.60767C4.55595 8.38746 5.73157 8.42229 6.43061 7.68288L8.16594 5.74804C8.25224 5.89133 8.33932 6.03383 8.41928 6.17554L8.45332 6.23729C8.48578 6.29667 8.51745 6.35683 8.54595 6.41779C8.73753 6.81996 8.76524 7.43746 8.59978 7.97658C8.4272 7.93304 8.24986 7.91008 8.07253 7.91008C7.94269 7.91008 7.81286 7.92196 7.68461 7.9465C7.57061 7.96788 7.46928 7.99558 7.38695 8.03042C7.06236 8.14917 6.78132 8.33758 6.57232 8.56479L2.91086 12.4566C2.38995 12.9601 2.48099 13.8215 3.08582 14.2189L6.17015 16.4625C6.81615 16.8583 7.5714 17.2335 8.27915 17.3713C8.6932 17.4148 9.11436 17.4378 9.54265 17.4378C10.3984 17.4378 11.2289 17.3491 12.0214 17.1837C12.148 17.1417 12.3491 17.0625 12.5906 16.9359V16.9398C12.6096 16.9288 12.6309 16.9153 12.6515 16.9034C12.6713 16.8923 12.6895 16.8836 12.7101 16.8725V16.8686C12.9349 16.734 13.1843 16.5622 13.4416 16.3374L15.8958 13.8056C16.0335 13.6655 16.1333 13.557 16.2085 13.4605C16.3415 13.3314 16.4238 13.1525 16.4238 12.9538V11.6658C16.4238 11.6357 16.4214 11.608 16.4191 11.581C16.4175 11.5668 16.4151 11.5525 16.4127 11.5383L16.4056 11.5058C16.4017 11.4908 16.3977 11.4757 16.3937 11.4607C16.2702 11.0767 15.8119 11.0459 15.8119 11.0459C15.8047 11.0451 15.7976 11.0451 15.7921 11.0451C15.7272 11.0451 15.6599 11.057 15.591 11.0767C15.2545 11.1741 14.9007 11.4615 14.888 11.471L14.8864 11.4718C14.7273 11.6016 14.6252 11.798 14.6252 12.018L14.8017 12.9538C14.8017 13.0235 14.812 13.0892 14.831 13.1525L12.7101 14.7509V14.2664L12.6254 11.1322L12.6222 11.1361C12.528 9.97554 11.2075 8.92738 11.122 8.86088L11.4973 6.92842H12.1955Z" fill="white" fill-opacity="0.8"/>
<path fill-rule="evenodd" clip-rule="evenodd" d="M34.5026 14.9859C32.8592 14.9859 31.3953 14.2234 30.4421 13.0343C30.8581 11.1744 32.5174 9.78357 34.5026 9.78357C36.4874 9.78357 38.1469 11.1744 38.5626 13.0343C37.6095 14.2234 36.1459 14.9859 34.5026 14.9859ZM34.4888 4.61826C35.5508 4.61826 36.4112 5.47888 36.4112 6.54066C36.4112 7.60237 35.5508 8.46346 34.4888 8.46346C33.4266 8.46346 32.566 7.60237 32.566 6.54066C32.566 5.47888 33.4266 4.61826 34.4888 4.61826ZM34.5028 1.58594C30.1302 1.58594 26.5859 5.13031 26.5859 9.5026C26.5859 13.8751 30.1302 17.4193 34.5028 17.4193C38.875 17.4193 42.4193 13.8751 42.4193 9.5026C42.4193 5.13031 38.875 1.58594 34.5028 1.58594Z" fill="white" fill-opacity="0.8"/>
<path d="M67.2653 7.95212H66.6276V7.91927H59.5026V11.0859H63.9767C63.324 12.9293 61.57 14.2526 59.5026 14.2526C56.8794 14.2526 54.7526 12.1258 54.7526 9.5026C54.7526 6.87942 56.8794 4.7526 59.5026 4.7526C60.7135 4.7526 61.8151 5.2094 62.6538 5.95554L64.8931 3.71631C63.4791 2.39858 61.5879 1.58594 59.5026 1.58594C55.1306 1.58594 51.5859 5.13062 51.5859 9.5026C51.5859 13.8746 55.1306 17.4193 59.5026 17.4193C63.8746 17.4193 67.4193 13.8746 67.4193 9.5026C67.4193 8.97179 67.3646 8.45365 67.2653 7.95212Z" fill="white" fill-opacity="0.8"/>
<path d="M52.5 5.81779L55.101 7.72531C55.8048 5.98285 57.5093 4.7526 59.5039 4.7526C60.7147 4.7526 61.8163 5.2094 62.6551 5.95554L64.8943 3.71631C63.4804 2.39858 61.5891 1.58594 59.5039 1.58594C56.4631 1.58594 53.826 3.30267 52.5 5.81779Z" fill="white" fill-opacity="0.8"/>
<path d="M59.5009 17.4135C61.5458 17.4135 63.4039 16.631 64.8087 15.3584L62.3585 13.285C61.5636 13.887 60.5756 14.2469 59.5009 14.2469C57.4418 14.2469 55.6934 12.9339 55.0347 11.1016L52.4531 13.0906C53.7633 15.6544 56.4241 17.4135 59.5009 17.4135Z" fill="white" fill-opacity="0.8"/>
<path d="M67.2627 7.94692H66.625V7.91406H59.5V11.0807H63.9741C63.6606 11.9662 63.091 12.7298 62.3563 13.2859L62.3575 13.2851L64.8077 15.3585C64.6344 15.516 67.4167 13.4557 67.4167 9.4974C67.4167 8.96658 67.362 8.44844 67.2627 7.94692Z" fill="white" fill-opacity="0.8"/>
</svg>
