<svg width="24" height="24" viewBox="0 0 24 24" fill="none" xmlns="http://www.w3.org/2000/svg">
<path d="M16.4969 10.0516L16.3969 7.35156C16.3969 4.85156 14.3969 2.85156 11.9969 2.85156C9.59688 2.85156 7.59688 4.85156 7.59688 7.35156V10.0516H7.49688C6.29688 10.0516 5.29688 11.0516 5.29688 12.2516V18.9516C5.29688 20.1516 6.29688 21.1516 7.49688 21.1516H16.4969C17.6969 21.1516 18.6969 20.1516 18.6969 18.9516V12.2516C18.7969 11.0516 17.7969 10.0516 16.4969 10.0516ZM10.7969 14.4516C10.7969 13.7516 11.3969 13.1516 12.0969 13.1516C12.7969 13.1516 13.3969 13.7516 13.3969 14.4516C13.3969 14.8516 13.1969 15.2516 12.8969 15.4516V17.5516C12.8969 17.9516 12.5969 18.3516 12.0969 18.3516C11.5969 18.3516 11.2969 18.0516 11.2969 17.5516V15.4516C10.9969 15.2516 10.7969 14.8516 10.7969 14.4516ZM9.09687 7.25156C9.09687 5.55156 10.3969 4.25156 11.9969 4.25156C13.5969 4.25156 14.8969 5.55156 14.8969 7.25156V9.95156H9.09687V7.25156Z" fill="white" fill-opacity="0.8"/>
</svg>
