<svg width="45" height="45" viewBox="0 0 45 45" fill="none" xmlns="http://www.w3.org/2000/svg">
<path d="M35.3371 33.9986C35.2878 34.3174 35.0211 34.5407 34.7415 34.4974C34.4619 34.4541 34.2752 34.1606 34.3245 33.8419C34.3739 33.5231 34.6406 33.2998 34.9202 33.3431C35.1998 33.3864 35.3865 33.6798 35.3371 33.9986Z" fill="white"/>
<path d="M36.396 32.1457C36.3466 32.4644 36.0799 32.6877 35.8003 32.6445C35.5207 32.6012 35.334 32.3077 35.3834 31.9889C35.4327 31.6702 35.6994 31.4468 35.979 31.4901C36.2586 31.5334 36.4453 31.8269 36.396 32.1457Z" fill="white"/>
<path d="M37.2783 30.2927C37.229 30.6115 36.9623 30.8348 36.6827 30.7915C36.4031 30.7482 36.2164 30.4547 36.2657 30.136C36.3151 29.8172 36.5817 29.5939 36.8613 29.6372C37.141 29.6805 37.3276 29.974 37.2783 30.2927Z" fill="white"/>
<path d="M37.896 28.2633C37.8466 28.5821 37.5799 28.8054 37.3003 28.7621C37.0207 28.7188 36.834 28.4253 36.8834 28.1066C36.9327 27.7878 37.1994 27.5645 37.479 27.6078C37.7586 27.6511 37.9453 27.9445 37.896 28.2633Z" fill="white"/>
<path d="M38.3371 26.2339C38.2878 26.5527 38.0211 26.776 37.7415 26.7327C37.4619 26.6894 37.2752 26.3959 37.3245 26.0772C37.3739 25.7584 37.6406 25.5351 37.9202 25.5784C38.1998 25.6216 38.3865 25.9151 38.3371 26.2339Z" fill="white"/>
<path d="M38.5136 24.2045C38.4643 24.5232 38.1976 24.7466 37.918 24.7033C37.6384 24.66 37.4517 24.3665 37.501 24.0478C37.5504 23.729 37.817 23.5057 38.0966 23.549C38.3763 23.5922 38.5629 23.8857 38.5136 24.2045Z" fill="white"/>
<path d="M38.6018 22.0868C38.5525 22.4056 38.2858 22.6289 38.0062 22.5856C37.7266 22.5424 37.5399 22.2489 37.5893 21.9301C37.6386 21.6113 37.9053 21.388 38.1849 21.4313C38.4645 21.4746 38.6512 21.7681 38.6018 22.0868Z" fill="white"/>
<path d="M38.4254 20.0574C38.376 20.3762 38.1094 20.5995 37.8297 20.5562C37.5501 20.5129 37.3634 20.2195 37.4128 19.9007C37.4621 19.5819 37.7288 19.3586 38.0084 19.4019C38.288 19.4452 38.4747 19.7387 38.4254 20.0574Z" fill="white"/>
<path d="M37.9842 18.1163C37.9348 18.435 37.6682 18.6583 37.3886 18.615C37.1089 18.5718 36.9223 18.2783 36.9716 17.9595C37.0209 17.6408 37.2876 17.4174 37.5672 17.4607C37.8468 17.504 38.0335 17.7975 37.9842 18.1163Z" fill="white"/>
<path d="M37.3665 16.1751C37.3172 16.4938 37.0505 16.7172 36.7709 16.6739C36.4913 16.6306 36.3046 16.3371 36.354 16.0183C36.4033 15.6996 36.67 15.4763 36.9496 15.5195C37.2292 15.5628 37.4159 15.8563 37.3665 16.1751Z" fill="white"/>
<path d="M36.5724 14.4104C36.5231 14.7291 36.2564 14.9524 35.9768 14.9092C35.6972 14.8659 35.5105 14.5724 35.5598 14.2536C35.6092 13.9349 35.8758 13.7116 36.1555 13.7548C36.4351 13.7981 36.6218 14.0916 36.5724 14.4104Z" fill="white"/>
<path d="M35.6018 12.7339C35.5525 13.0527 35.2858 13.276 35.0062 13.2327C34.7266 13.1894 34.5399 12.8959 34.5892 12.5772C34.6386 12.2584 34.9053 12.0351 35.1849 12.0784C35.4645 12.1216 35.6512 12.4151 35.6018 12.7339Z" fill="white"/>
<path d="M34.4548 11.2339C34.4054 11.5527 34.1388 11.776 33.8591 11.7327C33.5795 11.6894 33.3929 11.3959 33.4422 11.0772C33.4915 10.7584 33.7582 10.5351 34.0378 10.5784C34.3174 10.6216 34.5041 10.9151 34.4548 11.2339Z" fill="white"/>
<path d="M33.1312 9.91037C33.0819 10.2291 32.8152 10.4524 32.5356 10.4092C32.256 10.3659 32.0693 10.0724 32.1187 9.75363C32.168 9.43487 32.4347 9.21155 32.7143 9.25484C32.9939 9.29812 33.1806 9.59161 33.1312 9.91037Z" fill="white"/>
<path d="M31.6312 8.76331C31.5819 9.08207 31.3152 9.30539 31.0356 9.26211C30.756 9.21883 30.5693 8.92534 30.6187 8.60658C30.668 8.28782 30.9347 8.0645 31.2143 8.10778C31.4939 8.15106 31.6806 8.44455 31.6312 8.76331Z" fill="white"/>
<path d="M30.043 7.79272C29.9937 8.11148 29.727 8.3348 29.4474 8.29152C29.1678 8.24824 28.9811 7.95475 29.0304 7.63599C29.0798 7.31723 29.3464 7.09391 29.6261 7.13719C29.9057 7.18047 30.0924 7.47396 30.043 7.79272Z" fill="white"/>
<path d="M28.3665 7.08684C28.3172 7.4056 28.0505 7.62892 27.7709 7.58564C27.4913 7.54236 27.3046 7.24887 27.354 6.93011C27.4033 6.61135 27.67 6.38803 27.9496 6.43131C28.2292 6.47459 28.4159 6.76808 28.3665 7.08684Z" fill="white"/>
<path d="M26.6018 6.64566C26.5525 6.96442 26.2858 7.18774 26.0062 7.14446C25.7266 7.10118 25.5399 6.80769 25.5892 6.48893C25.6386 6.17017 25.9053 5.94685 26.1849 5.99013C26.4645 6.03341 26.6512 6.3269 26.6018 6.64566Z" fill="white"/>
<path d="M24.7489 6.38096C24.6996 6.69972 24.4329 6.92304 24.1533 6.87976C23.8736 6.83647 23.687 6.54298 23.7363 6.22422C23.7856 5.90546 24.0523 5.68214 24.3319 5.72542C24.6116 5.76871 24.7982 6.0622 24.7489 6.38096Z" fill="white"/>
<path d="M22.896 6.38096C22.8466 6.69972 22.5799 6.92304 22.3003 6.87976C22.0207 6.83647 21.834 6.54298 21.8834 6.22422C21.9327 5.90546 22.1994 5.68214 22.479 5.72542C22.7586 5.76871 22.9453 6.0622 22.896 6.38096Z" fill="white"/>
<path d="M21.1312 6.55743C21.0819 6.87619 20.8152 7.09951 20.5356 7.05623C20.256 7.01295 20.0693 6.71945 20.1187 6.40069C20.168 6.08193 20.4347 5.85861 20.7143 5.90189C20.9939 5.94518 21.1806 6.23867 21.1312 6.55743Z" fill="white"/>
<path d="M19.2783 6.9986C19.229 7.31736 18.9623 7.54068 18.6827 7.4974C18.4031 7.45412 18.2164 7.16063 18.2657 6.84187C18.3151 6.52311 18.5817 6.29979 18.8613 6.34307C19.141 6.38635 19.3276 6.67984 19.2783 6.9986Z" fill="white"/>
<path d="M17.5136 7.70449C17.4643 8.02325 17.1976 8.24657 16.918 8.20329C16.6384 8.16 16.4517 7.86651 16.501 7.54775C16.5504 7.22899 16.817 7.00567 17.0966 7.04895C17.3763 7.09223 17.5629 7.38573 17.5136 7.70449Z" fill="white"/>
<path d="M15.8371 8.58684C15.7878 8.9056 15.5211 9.12892 15.2415 9.08564C14.9619 9.04236 14.7752 8.74887 14.8245 8.43011C14.8739 8.11135 15.1406 7.88803 15.4202 7.93131C15.6998 7.97459 15.8865 8.26808 15.8371 8.58684Z" fill="white"/>
<path d="M14.1607 9.7339C14.1113 10.0527 13.8446 10.276 13.565 10.2327C13.2854 10.1894 13.0987 9.89592 13.1481 9.57716C13.1974 9.2584 13.4641 9.03508 13.7437 9.07837C14.0233 9.12165 14.21 9.41514 14.1607 9.7339Z" fill="white"/>
<path d="M12.7489 11.0574C12.6996 11.3762 12.4329 11.5995 12.1533 11.5562C11.8736 11.5129 11.687 11.2195 11.7363 10.9007C11.7856 10.5819 12.0523 10.3586 12.3319 10.4019C12.6116 10.4452 12.7982 10.7387 12.7489 11.0574Z" fill="white"/>
<path d="M11.3371 12.5574C11.2878 12.8762 11.0211 13.0995 10.7415 13.0562C10.4619 13.0129 10.2752 12.7195 10.3245 12.4007C10.3739 12.0819 10.6406 11.8586 10.9202 11.9019C11.1998 11.9452 11.3865 12.2387 11.3371 12.5574Z" fill="white"/>
<path d="M10.1018 14.2339C10.0525 14.5527 9.78582 14.776 9.5062 14.7327C9.22659 14.6894 9.03991 14.3959 9.08925 14.0772C9.13859 13.7584 9.40526 13.5351 9.68488 13.5784C9.9645 13.6216 10.1512 13.9151 10.1018 14.2339Z" fill="white"/>
<path d="M9.13125 16.0868C9.08191 16.4056 8.81523 16.6289 8.53562 16.5856C8.256 16.5424 8.06932 16.2489 8.11866 15.9301C8.168 15.6113 8.43467 15.388 8.71429 15.4313C8.99391 15.4746 9.18059 15.7681 9.13125 16.0868Z" fill="white"/>
<path d="M8.33713 17.9398C8.28779 18.2585 8.02112 18.4819 7.7415 18.4386C7.46188 18.3953 7.2752 18.1018 7.32454 17.783C7.37388 17.4643 7.64056 17.241 7.92017 17.2842C8.19979 17.3275 8.38647 17.621 8.33713 17.9398Z" fill="white"/>
<path d="M7.63125 19.881C7.58191 20.1997 7.31523 20.423 7.03562 20.3798C6.756 20.3365 6.56932 20.043 6.61866 19.7242C6.668 19.4055 6.93467 19.1821 7.21429 19.2254C7.49391 19.2687 7.68059 19.5622 7.63125 19.881Z" fill="white"/>
<path d="M7.19007 21.9104C7.14073 22.2291 6.87406 22.4524 6.59444 22.4092C6.31482 22.3659 6.12815 22.0724 6.17749 21.7536C6.22682 21.4349 6.4935 21.2116 6.77311 21.2548C7.05273 21.2981 7.23941 21.5916 7.19007 21.9104Z" fill="white"/>
<path d="M6.92536 24.028C6.87602 24.3468 6.60935 24.5701 6.32973 24.5268C6.05012 24.4835 5.86344 24.19 5.91278 23.8713C5.96212 23.5525 6.22879 23.3292 6.50841 23.3725C6.78803 23.4158 6.9747 23.7093 6.92536 24.028Z" fill="white"/>
<path d="M6.92536 26.1457C6.87602 26.4644 6.60935 26.6877 6.32973 26.6445C6.05012 26.6012 5.86344 26.3077 5.91278 25.9889C5.96212 25.6702 6.22879 25.4468 6.50841 25.4901C6.78803 25.5334 6.9747 25.8269 6.92536 26.1457Z" fill="white"/>
<path d="M7.10183 28.1751C7.05249 28.4938 6.78582 28.7172 6.5062 28.6739C6.22659 28.6306 6.03991 28.3371 6.08925 28.0183C6.13859 27.6996 6.40526 27.4763 6.68488 27.5195C6.9645 27.5628 7.15117 27.8563 7.10183 28.1751Z" fill="white"/>
<path d="M7.54301 30.2045C7.49367 30.5232 7.227 30.7466 6.94738 30.7033C6.66776 30.66 6.48109 30.3665 6.53043 30.0478C6.57977 29.729 6.84644 29.5057 7.12606 29.549C7.40567 29.5922 7.59235 29.8857 7.54301 30.2045Z" fill="white"/>
<path d="M8.16066 31.9692C8.11132 32.288 7.84465 32.5113 7.56503 32.468C7.28541 32.4247 7.09873 32.1312 7.14807 31.8125C7.19741 31.4937 7.46409 31.2704 7.7437 31.3137C8.02332 31.3569 8.21 31.6504 8.16066 31.9692Z" fill="white"/>
<path d="M8.95478 33.8221C8.90544 34.1409 8.63876 34.3642 8.35915 34.3209C8.07953 34.2777 7.89285 33.9842 7.94219 33.6654C7.99153 33.3466 8.2582 33.1233 8.53782 33.1666C8.81744 33.2099 9.00412 33.5034 8.95478 33.8221Z" fill="white"/>
<path d="M9.92536 35.4986C9.87602 35.8174 9.60935 36.0407 9.32973 35.9974C9.05012 35.9541 8.86344 35.6606 8.91278 35.3419C8.96212 35.0231 9.22879 34.7998 9.50841 34.8431C9.78803 34.8863 9.9747 35.1798 9.92536 35.4986Z" fill="white"/>
<path d="M11.0724 36.9986C11.0231 37.3174 10.7564 37.5407 10.4768 37.4974C10.1972 37.4541 10.0105 37.1606 10.0598 36.8419C10.1092 36.5231 10.3759 36.2998 10.6555 36.3431C10.9351 36.3863 11.1218 36.6798 11.0724 36.9986Z" fill="white"/>
<path d="M12.4842 38.3221C12.4348 38.6409 12.1682 38.8642 11.8886 38.8209C11.6089 38.7777 11.4223 38.4842 11.4716 38.1654C11.5209 37.8466 11.7876 37.6233 12.0672 37.6666C12.3469 37.7099 12.5335 38.0034 12.4842 38.3221Z" fill="white"/>
<path d="M13.896 39.4692C13.8466 39.788 13.5799 40.0113 13.3003 39.968C13.0207 39.9247 12.834 39.6312 12.8834 39.3125C12.9327 38.9937 13.1994 38.7704 13.479 38.8137C13.7586 38.8569 13.9453 39.1504 13.896 39.4692Z" fill="white"/>
<path d="M15.4842 40.4398C15.4348 40.7585 15.1682 40.9819 14.8886 40.9386C14.6089 40.8953 14.4223 40.6018 14.4716 40.283C14.5209 39.9643 14.7876 39.741 15.0672 39.7842C15.3468 39.8275 15.5335 40.121 15.4842 40.4398Z" fill="white"/>
<path d="M17.1607 41.1457C17.1113 41.4644 16.8446 41.6877 16.565 41.6445C16.2854 41.6012 16.0987 41.3077 16.1481 40.9889C16.1974 40.6702 16.4641 40.4468 16.7437 40.4901C17.0233 40.5334 17.21 40.8269 17.1607 41.1457Z" fill="white"/>
<path d="M18.9254 41.5868C18.876 41.9056 18.6094 42.1289 18.3297 42.0856C18.0501 42.0424 17.8634 41.7489 17.9128 41.4301C17.9621 41.1113 18.2288 40.888 18.5084 40.9313C18.788 40.9746 18.9747 41.2681 18.9254 41.5868Z" fill="white"/>
<path d="M20.7783 41.8515C20.729 42.1703 20.4623 42.3936 20.1827 42.3503C19.9031 42.3071 19.7164 42.0136 19.7657 41.6948C19.8151 41.3761 20.0817 41.1527 20.3613 41.196C20.641 41.2393 20.8276 41.5328 20.7783 41.8515Z" fill="white"/>
<path d="M22.543 41.8515C22.4937 42.1703 22.227 42.3936 21.9474 42.3503C21.6678 42.3071 21.4811 42.0136 21.5304 41.6948C21.5798 41.3761 21.8464 41.1527 22.1261 41.196C22.4057 41.2393 22.5924 41.5328 22.543 41.8515Z" fill="white"/>
<path d="M24.396 41.6751C24.3466 41.9938 24.0799 42.2172 23.8003 42.1739C23.5207 42.1306 23.334 41.8371 23.3834 41.5183C23.4327 41.1996 23.6994 40.9763 23.979 41.0195C24.2586 41.0628 24.4453 41.3563 24.396 41.6751Z" fill="white"/>
<path d="M26.2489 41.2339C26.1996 41.5527 25.9329 41.776 25.6533 41.7327C25.3736 41.6894 25.187 41.3959 25.2363 41.0772C25.2856 40.7584 25.5523 40.5351 25.8319 40.5784C26.1116 40.6216 26.2982 40.9151 26.2489 41.2339Z" fill="white"/>
<path d="M28.0136 40.528C27.9643 40.8468 27.6976 41.0701 27.418 41.0268C27.1384 40.9835 26.9517 40.69 27.001 40.3713C27.0504 40.0525 27.317 39.8292 27.5966 39.8725C27.8763 39.9158 28.0629 40.2093 28.0136 40.528Z" fill="white"/>
<path d="M29.6901 39.5574C29.6407 39.8762 29.3741 40.0995 29.0944 40.0562C28.8148 40.0129 28.6281 39.7195 28.6775 39.4007C28.7268 39.0819 28.9935 38.8586 29.2731 38.9019C29.5527 38.9452 29.7394 39.2387 29.6901 39.5574Z" fill="white"/>
<path d="M31.2783 38.4104C31.229 38.7291 30.9623 38.9524 30.6827 38.9092C30.4031 38.8659 30.2164 38.5724 30.2657 38.2536C30.3151 37.9349 30.5817 37.7116 30.8613 37.7548C31.141 37.7981 31.3276 38.0916 31.2783 38.4104Z" fill="white"/>
<path d="M32.7783 37.0868C32.729 37.4056 32.4623 37.6289 32.1827 37.5856C31.9031 37.5424 31.7164 37.2489 31.7657 36.9301C31.8151 36.6113 32.0817 36.388 32.3614 36.4313C32.641 36.4746 32.8276 36.7681 32.7783 37.0868Z" fill="white"/>
<path d="M34.1901 35.6751C34.1407 35.9938 33.8741 36.2172 33.5944 36.1739C33.3148 36.1306 33.1281 35.8371 33.1775 35.5183C33.2268 35.1996 33.4935 34.9763 33.7731 35.0195C34.0527 35.0628 34.2394 35.3563 34.1901 35.6751Z" fill="white"/>
<path d="M17.0294 43.4559C17.0294 43.8701 16.6936 44.2059 16.2794 44.2059C15.8652 44.2059 15.5294 43.8701 15.5294 43.4559C15.5294 43.0417 15.8652 42.7059 16.2794 42.7059C16.6936 42.7059 17.0294 43.0417 17.0294 43.4559Z" fill="white"/>
<path d="M19.5 43.9853C19.5 44.3995 19.1642 44.7353 18.75 44.7353C18.3358 44.7353 18 44.3995 18 43.9853C18 43.5711 18.3358 43.2353 18.75 43.2353C19.1642 43.2353 19.5 43.5711 19.5 43.9853Z" fill="white"/>
<path d="M21.9706 44.25C21.9706 44.6642 21.6348 45 21.2206 45C20.8064 45 20.4706 44.6642 20.4706 44.25C20.4706 43.8358 20.8064 43.5 21.2206 43.5C21.6348 43.5 21.9706 43.8358 21.9706 44.25Z" fill="white"/>
<path d="M24.6176 44.25C24.6176 44.6642 24.2819 45 23.8676 45C23.4534 45 23.1176 44.6642 23.1176 44.25C23.1176 43.8358 23.4534 43.5 23.8676 43.5C24.2819 43.5 24.6176 43.8358 24.6176 44.25Z" fill="white"/>
<path d="M27.0882 43.9853C27.0882 44.3995 26.7524 44.7353 26.3382 44.7353C25.924 44.7353 25.5882 44.3995 25.5882 43.9853C25.5882 43.5711 25.924 43.2353 26.3382 43.2353C26.7524 43.2353 27.0882 43.5711 27.0882 43.9853Z" fill="white"/>
<path d="M29.5588 43.4559C29.5588 43.8701 29.223 44.2059 28.8088 44.2059C28.3946 44.2059 28.0588 43.8701 28.0588 43.4559C28.0588 43.0417 28.3946 42.7059 28.8088 42.7059C29.223 42.7059 29.5588 43.0417 29.5588 43.4559Z" fill="white"/>
<path d="M31.9412 42.4853C31.9412 42.8995 31.6054 43.2353 31.1912 43.2353C30.777 43.2353 30.4412 42.8995 30.4412 42.4853C30.4412 42.0711 30.777 41.7353 31.1912 41.7353C31.6054 41.7353 31.9412 42.0711 31.9412 42.4853Z" fill="white"/>
<path d="M34.2353 41.4265C34.2353 41.8407 33.8995 42.1765 33.4853 42.1765C33.0711 42.1765 32.7353 41.8407 32.7353 41.4265C32.7353 41.0123 33.0711 40.6765 33.4853 40.6765C33.8995 40.6765 34.2353 41.0123 34.2353 41.4265Z" fill="white"/>
<path d="M36.3529 39.9265C36.3529 40.3407 36.0172 40.6765 35.6029 40.6765C35.1887 40.6765 34.8529 40.3407 34.8529 39.9265C34.8529 39.5123 35.1887 39.1765 35.6029 39.1765C36.0172 39.1765 36.3529 39.5123 36.3529 39.9265Z" fill="white"/>
<path d="M38.2941 38.4265C38.2941 38.8407 37.9583 39.1765 37.5441 39.1765C37.1299 39.1765 36.7941 38.8407 36.7941 38.4265C36.7941 38.0123 37.1299 37.6765 37.5441 37.6765C37.9583 37.6765 38.2941 38.0123 38.2941 38.4265Z" fill="white"/>
<path d="M40.0588 36.4853C40.0588 36.8995 39.723 37.2353 39.3088 37.2353C38.8946 37.2353 38.5588 36.8995 38.5588 36.4853C38.5588 36.0711 38.8946 35.7353 39.3088 35.7353C39.723 35.7353 40.0588 36.0711 40.0588 36.4853Z" fill="white"/>
<path d="M41.5588 34.4559C41.5588 34.8701 41.223 35.2059 40.8088 35.2059C40.3946 35.2059 40.0588 34.8701 40.0588 34.4559C40.0588 34.0417 40.3946 33.7059 40.8088 33.7059C41.223 33.7059 41.5588 34.0417 41.5588 34.4559Z" fill="white"/>
<path d="M42.7941 32.25C42.7941 32.6642 42.4583 33 42.0441 33C41.6299 33 41.2941 32.6642 41.2941 32.25C41.2941 31.8358 41.6299 31.5 42.0441 31.5C42.4583 31.5 42.7941 31.8358 42.7941 32.25Z" fill="white"/>
<path d="M43.8529 29.9559C43.8529 30.3701 43.5172 30.7059 43.1029 30.7059C42.6887 30.7059 42.3529 30.3701 42.3529 29.9559C42.3529 29.5417 42.6887 29.2059 43.1029 29.2059C43.5172 29.2059 43.8529 29.5417 43.8529 29.9559Z" fill="white"/>
<path d="M44.5588 27.5735C44.5588 27.9877 44.223 28.3235 43.8088 28.3235C43.3946 28.3235 43.0588 27.9877 43.0588 27.5735C43.0588 27.1593 43.3946 26.8235 43.8088 26.8235C44.223 26.8235 44.5588 27.1593 44.5588 27.5735Z" fill="white"/>
<path d="M45 25.0147C45 25.4289 44.6642 25.7647 44.25 25.7647C43.8358 25.7647 43.5 25.4289 43.5 25.0147C43.5 24.6005 43.8358 24.2647 44.25 24.2647C44.6642 24.2647 45 24.6005 45 25.0147Z" fill="white"/>
<path d="M45 22.4559C45 22.8701 44.6642 23.2059 44.25 23.2059C43.8358 23.2059 43.5 22.8701 43.5 22.4559C43.5 22.0417 43.8358 21.7059 44.25 21.7059C44.6642 21.7059 45 22.0417 45 22.4559Z" fill="white"/>
<path d="M45 19.8971C45 20.3113 44.6642 20.6471 44.25 20.6471C43.8358 20.6471 43.5 20.3113 43.5 19.8971C43.5 19.4828 43.8358 19.1471 44.25 19.1471C44.6642 19.1471 45 19.4828 45 19.8971Z" fill="white"/>
<path d="M44.5588 17.5147C44.5588 17.9289 44.223 18.2647 43.8088 18.2647C43.3946 18.2647 43.0588 17.9289 43.0588 17.5147C43.0588 17.1005 43.3946 16.7647 43.8088 16.7647C44.223 16.7647 44.5588 17.1005 44.5588 17.5147Z" fill="white"/>
<path d="M43.8529 14.9559C43.8529 15.3701 43.5172 15.7059 43.1029 15.7059C42.6887 15.7059 42.3529 15.3701 42.3529 14.9559C42.3529 14.5417 42.6887 14.2059 43.1029 14.2059C43.5172 14.2059 43.8529 14.5417 43.8529 14.9559Z" fill="white"/>
<path d="M42.7941 12.75C42.7941 13.1642 42.4583 13.5 42.0441 13.5C41.6299 13.5 41.2941 13.1642 41.2941 12.75C41.2941 12.3358 41.6299 12 42.0441 12C42.4583 12 42.7941 12.3358 42.7941 12.75Z" fill="white"/>
<path d="M41.5588 10.5441C41.5588 10.9583 41.223 11.2941 40.8088 11.2941C40.3946 11.2941 40.0588 10.9583 40.0588 10.5441C40.0588 10.1299 40.3946 9.79412 40.8088 9.79412C41.223 9.79412 41.5588 10.1299 41.5588 10.5441Z" fill="white"/>
<path d="M40.0588 8.60294C40.0588 9.01715 39.723 9.35294 39.3088 9.35294C38.8946 9.35294 38.5588 9.01715 38.5588 8.60294C38.5588 8.18873 38.8946 7.85294 39.3088 7.85294C39.723 7.85294 40.0588 8.18873 40.0588 8.60294Z" fill="white"/>
<path d="M38.2059 6.57353C38.2059 6.98774 37.8701 7.32353 37.4559 7.32353C37.0417 7.32353 36.7059 6.98774 36.7059 6.57353C36.7059 6.15932 37.0417 5.82353 37.4559 5.82353C37.8701 5.82353 38.2059 6.15932 38.2059 6.57353Z" fill="white"/>
<path d="M36.3529 5.07353C36.3529 5.48774 36.0172 5.82353 35.6029 5.82353C35.1887 5.82353 34.8529 5.48774 34.8529 5.07353C34.8529 4.65932 35.1887 4.32353 35.6029 4.32353C36.0172 4.32353 36.3529 4.65932 36.3529 5.07353Z" fill="white"/>
<path d="M34.2353 3.57353C34.2353 3.98774 33.8995 4.32353 33.4853 4.32353C33.0711 4.32353 32.7353 3.98774 32.7353 3.57353C32.7353 3.15932 33.0711 2.82353 33.4853 2.82353C33.8995 2.82353 34.2353 3.15932 34.2353 3.57353Z" fill="white"/>
<path d="M32.0294 2.51471C32.0294 2.92892 31.6936 3.26471 31.2794 3.26471C30.8652 3.26471 30.5294 2.92892 30.5294 2.51471C30.5294 2.10049 30.8652 1.76471 31.2794 1.76471C31.6936 1.76471 32.0294 2.10049 32.0294 2.51471Z" fill="white"/>
<path d="M29.5588 1.54412C29.5588 1.95833 29.223 2.29412 28.8088 2.29412C28.3946 2.29412 28.0588 1.95833 28.0588 1.54412C28.0588 1.1299 28.3946 0.794118 28.8088 0.794118C29.223 0.794118 29.5588 1.1299 29.5588 1.54412Z" fill="white"/>
<path d="M27.1765 1.01471C27.1765 1.42892 26.8407 1.76471 26.4265 1.76471C26.0123 1.76471 25.6765 1.42892 25.6765 1.01471C25.6765 0.600492 26.0123 0.264706 26.4265 0.264706C26.8407 0.264706 27.1765 0.600492 27.1765 1.01471Z" fill="white"/>
<path d="M24.5294 0.75C24.5294 1.16421 24.1936 1.5 23.7794 1.5C23.3652 1.5 23.0294 1.16421 23.0294 0.75C23.0294 0.335786 23.3652 0 23.7794 0C24.1936 0 24.5294 0.335786 24.5294 0.75Z" fill="white"/>
<path d="M22.1471 0.75C22.1471 1.16421 21.8113 1.5 21.3971 1.5C20.9828 1.5 20.6471 1.16421 20.6471 0.75C20.6471 0.335786 20.9828 0 21.3971 0C21.8113 0 22.1471 0.335786 22.1471 0.75Z" fill="white"/>
<path d="M19.5 1.01471C19.5 1.42892 19.1642 1.76471 18.75 1.76471C18.3358 1.76471 18 1.42892 18 1.01471C18 0.600492 18.3358 0.264706 18.75 0.264706C19.1642 0.264706 19.5 0.600492 19.5 1.01471Z" fill="white"/>
<path d="M17.0294 1.54412C17.0294 1.95833 16.6936 2.29412 16.2794 2.29412C15.8652 2.29412 15.5294 1.95833 15.5294 1.54412C15.5294 1.1299 15.8652 0.794118 16.2794 0.794118C16.6936 0.794118 17.0294 1.1299 17.0294 1.54412Z" fill="white"/>
<path d="M14.7353 2.51471C14.7353 2.92892 14.3995 3.26471 13.9853 3.26471C13.5711 3.26471 13.2353 2.92892 13.2353 2.51471C13.2353 2.10049 13.5711 1.76471 13.9853 1.76471C14.3995 1.76471 14.7353 2.10049 14.7353 2.51471Z" fill="white"/>
<path d="M12.3529 3.66176C12.3529 4.07598 12.0172 4.41176 11.6029 4.41176C11.1887 4.41176 10.8529 4.07598 10.8529 3.66176C10.8529 3.24755 11.1887 2.91176 11.6029 2.91176C12.0172 2.91176 12.3529 3.24755 12.3529 3.66176Z" fill="white"/>
<path d="M10.2353 4.98529C10.2353 5.39951 9.89951 5.73529 9.48529 5.73529C9.07108 5.73529 8.73529 5.39951 8.73529 4.98529C8.73529 4.57108 9.07108 4.23529 9.48529 4.23529C9.89951 4.23529 10.2353 4.57108 10.2353 4.98529Z" fill="white"/>
<path d="M8.29412 6.66176C8.29412 7.07598 7.95833 7.41176 7.54412 7.41176C7.1299 7.41176 6.79412 7.07598 6.79412 6.66176C6.79412 6.24755 7.1299 5.91176 7.54412 5.91176C7.95833 5.91176 8.29412 6.24755 8.29412 6.66176Z" fill="white"/>
<path d="M6.61765 8.51471C6.61765 8.92892 6.28186 9.26471 5.86765 9.26471C5.45343 9.26471 5.11765 8.92892 5.11765 8.51471C5.11765 8.10049 5.45343 7.76471 5.86765 7.76471C6.28186 7.76471 6.61765 8.10049 6.61765 8.51471Z" fill="white"/>
<path d="M5.11765 10.5441C5.11765 10.9583 4.78186 11.2941 4.36765 11.2941C3.95343 11.2941 3.61765 10.9583 3.61765 10.5441C3.61765 10.1299 3.95343 9.79412 4.36765 9.79412C4.78186 9.79412 5.11765 10.1299 5.11765 10.5441Z" fill="white"/>
<path d="M3.79412 12.75C3.79412 13.1642 3.45833 13.5 3.04412 13.5C2.6299 13.5 2.29412 13.1642 2.29412 12.75C2.29412 12.3358 2.6299 12 3.04412 12C3.45833 12 3.79412 12.3358 3.79412 12.75Z" fill="white"/>
<path d="M2.73529 15.0441C2.73529 15.4583 2.39951 15.7941 1.98529 15.7941C1.57108 15.7941 1.23529 15.4583 1.23529 15.0441C1.23529 14.6299 1.57108 14.2941 1.98529 14.2941C2.39951 14.2941 2.73529 14.6299 2.73529 15.0441Z" fill="white"/>
<path d="M2.02941 17.4265C2.02941 17.8407 1.69363 18.1765 1.27941 18.1765C0.865198 18.1765 0.529412 17.8407 0.529412 17.4265C0.529412 17.0123 0.865198 16.6765 1.27941 16.6765C1.69363 16.6765 2.02941 17.0123 2.02941 17.4265Z" fill="white"/>
<path d="M1.67647 20.0735C1.67647 20.4877 1.34068 20.8235 0.926471 20.8235C0.512257 20.8235 0.176471 20.4877 0.176471 20.0735C0.176471 19.6593 0.512257 19.3235 0.926471 19.3235C1.34068 19.3235 1.67647 19.6593 1.67647 20.0735Z" fill="white"/>
<path d="M1.5 22.6324C1.5 23.0466 1.16421 23.3824 0.75 23.3824C0.335786 23.3824 0 23.0466 0 22.6324C0 22.2181 0.335786 21.8824 0.75 21.8824C1.16421 21.8824 1.5 22.2181 1.5 22.6324Z" fill="white"/>
<path d="M1.67647 25.0147C1.67647 25.4289 1.34068 25.7647 0.926471 25.7647C0.512257 25.7647 0.176471 25.4289 0.176471 25.0147C0.176471 24.6005 0.512257 24.2647 0.926471 24.2647C1.34068 24.2647 1.67647 24.6005 1.67647 25.0147Z" fill="white"/>
<path d="M2.02941 27.5735C2.02941 27.9877 1.69363 28.3235 1.27941 28.3235C0.865198 28.3235 0.529412 27.9877 0.529412 27.5735C0.529412 27.1593 0.865198 26.8235 1.27941 26.8235C1.69363 26.8235 2.02941 27.1593 2.02941 27.5735Z" fill="white"/>
<path d="M2.82353 29.9559C2.82353 30.3701 2.48774 30.7059 2.07353 30.7059C1.65932 30.7059 1.32353 30.3701 1.32353 29.9559C1.32353 29.5417 1.65932 29.2059 2.07353 29.2059C2.48774 29.2059 2.82353 29.5417 2.82353 29.9559Z" fill="white"/>
<path d="M3.79412 32.25C3.79412 32.6642 3.45833 33 3.04412 33C2.6299 33 2.29412 32.6642 2.29412 32.25C2.29412 31.8358 2.6299 31.5 3.04412 31.5C3.45833 31.5 3.79412 31.8358 3.79412 32.25Z" fill="white"/>
<path d="M5.11765 34.4559C5.11765 34.8701 4.78186 35.2059 4.36765 35.2059C3.95343 35.2059 3.61765 34.8701 3.61765 34.4559C3.61765 34.0417 3.95343 33.7059 4.36765 33.7059C4.78186 33.7059 5.11765 34.0417 5.11765 34.4559Z" fill="white"/>
<path d="M6.61765 36.4853C6.61765 36.8995 6.28186 37.2353 5.86765 37.2353C5.45343 37.2353 5.11765 36.8995 5.11765 36.4853C5.11765 36.0711 5.45343 35.7353 5.86765 35.7353C6.28186 35.7353 6.61765 36.0711 6.61765 36.4853Z" fill="white"/>
<path d="M8.38235 38.4265C8.38235 38.8407 8.04657 39.1765 7.63235 39.1765C7.21814 39.1765 6.88235 38.8407 6.88235 38.4265C6.88235 38.0123 7.21814 37.6765 7.63235 37.6765C8.04657 37.6765 8.38235 38.0123 8.38235 38.4265Z" fill="white"/>
<path d="M10.2353 39.9265C10.2353 40.3407 9.89951 40.6765 9.48529 40.6765C9.07108 40.6765 8.73529 40.3407 8.73529 39.9265C8.73529 39.5123 9.07108 39.1765 9.48529 39.1765C9.89951 39.1765 10.2353 39.5123 10.2353 39.9265Z" fill="white"/>
<path d="M12.3529 41.4265C12.3529 41.8407 12.0172 42.1765 11.6029 42.1765C11.1887 42.1765 10.8529 41.8407 10.8529 41.4265C10.8529 41.0123 11.1887 40.6765 11.6029 40.6765C12.0172 40.6765 12.3529 41.0123 12.3529 41.4265Z" fill="white"/>
<path d="M14.7353 42.4853C14.7353 42.8995 14.3995 43.2353 13.9853 43.2353C13.5711 43.2353 13.2353 42.8995 13.2353 42.4853C13.2353 42.0711 13.5711 41.7353 13.9853 41.7353C14.3995 41.7353 14.7353 42.0711 14.7353 42.4853Z" fill="white"/>
<path d="M12.6176 20.25C12.6176 20.4693 12.4399 20.6471 12.2206 20.6471C12.0013 20.6471 11.8235 20.4693 11.8235 20.25C11.8235 20.0307 12.0013 19.8529 12.2206 19.8529C12.4399 19.8529 12.6176 20.0307 12.6176 20.25Z" fill="white"/>
<path d="M13.1471 19.0147C13.1471 19.234 12.9693 19.4118 12.75 19.4118C12.5307 19.4118 12.3529 19.234 12.3529 19.0147C12.3529 18.7954 12.5307 18.6176 12.75 18.6176C12.9693 18.6176 13.1471 18.7954 13.1471 19.0147Z" fill="white"/>
<path d="M13.9412 17.8676C13.9412 18.0869 13.7634 18.2647 13.5441 18.2647C13.3248 18.2647 13.1471 18.0869 13.1471 17.8676C13.1471 17.6484 13.3248 17.4706 13.5441 17.4706C13.7634 17.4706 13.9412 17.6484 13.9412 17.8676Z" fill="white"/>
<path d="M14.7353 16.8088C14.7353 17.0281 14.5575 17.2059 14.3382 17.2059C14.1189 17.2059 13.9412 17.0281 13.9412 16.8088C13.9412 16.5895 14.1189 16.4118 14.3382 16.4118C14.5575 16.4118 14.7353 16.5895 14.7353 16.8088Z" fill="white"/>
<path d="M15.7059 15.9265C15.7059 16.1458 15.5281 16.3235 15.3088 16.3235C15.0895 16.3235 14.9118 16.1458 14.9118 15.9265C14.9118 15.7072 15.0895 15.5294 15.3088 15.5294C15.5281 15.5294 15.7059 15.7072 15.7059 15.9265Z" fill="white"/>
<path d="M16.7647 15.1324C16.7647 15.3516 16.5869 15.5294 16.3676 15.5294C16.1484 15.5294 15.9706 15.3516 15.9706 15.1324C15.9706 14.9131 16.1484 14.7353 16.3676 14.7353C16.5869 14.7353 16.7647 14.9131 16.7647 15.1324Z" fill="white"/>
<path d="M18 14.4265C18 14.6458 17.8222 14.8235 17.6029 14.8235C17.3837 14.8235 17.2059 14.6458 17.2059 14.4265C17.2059 14.2072 17.3837 14.0294 17.6029 14.0294C17.8222 14.0294 18 14.2072 18 14.4265Z" fill="white"/>
<path d="M19.2353 13.9853C19.2353 14.2046 19.0575 14.3824 18.8382 14.3824C18.6189 14.3824 18.4412 14.2046 18.4412 13.9853C18.4412 13.766 18.6189 13.5882 18.8382 13.5882C19.0575 13.5882 19.2353 13.766 19.2353 13.9853Z" fill="white"/>
<path d="M20.4706 13.6324C20.4706 13.8516 20.2928 14.0294 20.0735 14.0294C19.8542 14.0294 19.6765 13.8516 19.6765 13.6324C19.6765 13.4131 19.8542 13.2353 20.0735 13.2353C20.2928 13.2353 20.4706 13.4131 20.4706 13.6324Z" fill="white"/>
<path d="M21.8824 13.4559C21.8824 13.6752 21.7046 13.8529 21.4853 13.8529C21.266 13.8529 21.0882 13.6752 21.0882 13.4559C21.0882 13.2366 21.266 13.0588 21.4853 13.0588C21.7046 13.0588 21.8824 13.2366 21.8824 13.4559Z" fill="white"/>
<path d="M23.2059 13.3676C23.2059 13.5869 23.0281 13.7647 22.8088 13.7647C22.5895 13.7647 22.4118 13.5869 22.4118 13.3676C22.4118 13.1484 22.5895 12.9706 22.8088 12.9706C23.0281 12.9706 23.2059 13.1484 23.2059 13.3676Z" fill="white"/>
<path d="M24.5294 13.5441C24.5294 13.7634 24.3516 13.9412 24.1324 13.9412C23.9131 13.9412 23.7353 13.7634 23.7353 13.5441C23.7353 13.3248 23.9131 13.1471 24.1324 13.1471C24.3516 13.1471 24.5294 13.3248 24.5294 13.5441Z" fill="white"/>
<path d="M25.8529 13.8088C25.8529 14.0281 25.6752 14.2059 25.4559 14.2059C25.2366 14.2059 25.0588 14.0281 25.0588 13.8088C25.0588 13.5895 25.2366 13.4118 25.4559 13.4118C25.6752 13.4118 25.8529 13.5895 25.8529 13.8088Z" fill="white"/>
<path d="M27.1765 14.25C27.1765 14.4693 26.9987 14.6471 26.7794 14.6471C26.5601 14.6471 26.3824 14.4693 26.3824 14.25C26.3824 14.0307 26.5601 13.8529 26.7794 13.8529C26.9987 13.8529 27.1765 14.0307 27.1765 14.25Z" fill="white"/>
<path d="M28.4118 14.9559C28.4118 15.1752 28.234 15.3529 28.0147 15.3529C27.7954 15.3529 27.6176 15.1752 27.6176 14.9559C27.6176 14.7366 27.7954 14.5588 28.0147 14.5588C28.234 14.5588 28.4118 14.7366 28.4118 14.9559Z" fill="white"/>
<path d="M29.5588 15.6618C29.5588 15.8811 29.3811 16.0588 29.1618 16.0588C28.9425 16.0588 28.7647 15.8811 28.7647 15.6618C28.7647 15.4425 28.9425 15.2647 29.1618 15.2647C29.3811 15.2647 29.5588 15.4425 29.5588 15.6618Z" fill="white"/>
<path d="M30.7059 16.5441C30.7059 16.7634 30.5281 16.9412 30.3088 16.9412C30.0895 16.9412 29.9118 16.7634 29.9118 16.5441C29.9118 16.3248 30.0895 16.1471 30.3088 16.1471C30.5281 16.1471 30.7059 16.3248 30.7059 16.5441Z" fill="white"/>
<path d="M31.6765 17.5147C31.6765 17.734 31.4987 17.9118 31.2794 17.9118C31.0601 17.9118 30.8824 17.734 30.8824 17.5147C30.8824 17.2954 31.0601 17.1176 31.2794 17.1176C31.4987 17.1176 31.6765 17.2954 31.6765 17.5147Z" fill="white"/>
<path d="M32.5588 18.6618C32.5588 18.8811 32.3811 19.0588 32.1618 19.0588C31.9425 19.0588 31.7647 18.8811 31.7647 18.6618C31.7647 18.4425 31.9425 18.2647 32.1618 18.2647C32.3811 18.2647 32.5588 18.4425 32.5588 18.6618Z" fill="white"/>
<path d="M33.3529 19.8971C33.3529 20.1163 33.1752 20.2941 32.9559 20.2941C32.7366 20.2941 32.5588 20.1163 32.5588 19.8971C32.5588 19.6778 32.7366 19.5 32.9559 19.5C33.1752 19.5 33.3529 19.6778 33.3529 19.8971Z" fill="white"/>
<path d="M33.9706 21.1324C33.9706 21.3516 33.7928 21.5294 33.5735 21.5294C33.3542 21.5294 33.1765 21.3516 33.1765 21.1324C33.1765 20.9131 33.3542 20.7353 33.5735 20.7353C33.7928 20.7353 33.9706 20.9131 33.9706 21.1324Z" fill="white"/>
<path d="M34.4118 22.4559C34.4118 22.6752 34.234 22.8529 34.0147 22.8529C33.7954 22.8529 33.6176 22.6752 33.6176 22.4559C33.6176 22.2366 33.7954 22.0588 34.0147 22.0588C34.234 22.0588 34.4118 22.2366 34.4118 22.4559Z" fill="white"/>
<path d="M34.7647 23.8676C34.7647 24.0869 34.5869 24.2647 34.3676 24.2647C34.1484 24.2647 33.9706 24.0869 33.9706 23.8676C33.9706 23.6484 34.1484 23.4706 34.3676 23.4706C34.5869 23.4706 34.7647 23.6484 34.7647 23.8676Z" fill="white"/>
<path d="M34.9412 25.2794C34.9412 25.4987 34.7634 25.6765 34.5441 25.6765C34.3248 25.6765 34.1471 25.4987 34.1471 25.2794C34.1471 25.0601 34.3248 24.8824 34.5441 24.8824C34.7634 24.8824 34.9412 25.0601 34.9412 25.2794Z" fill="white"/>
<path d="M34.9412 26.6912C34.9412 26.9105 34.7634 27.0882 34.5441 27.0882C34.3248 27.0882 34.1471 26.9105 34.1471 26.6912C34.1471 26.4719 34.3248 26.2941 34.5441 26.2941C34.7634 26.2941 34.9412 26.4719 34.9412 26.6912Z" fill="white"/>
<path d="M34.8529 28.1029C34.8529 28.3222 34.6752 28.5 34.4559 28.5C34.2366 28.5 34.0588 28.3222 34.0588 28.1029C34.0588 27.8837 34.2366 27.7059 34.4559 27.7059C34.6752 27.7059 34.8529 27.8837 34.8529 28.1029Z" fill="white"/>
<path d="M34.5 29.4265C34.5 29.6458 34.3222 29.8235 34.1029 29.8235C33.8837 29.8235 33.7059 29.6458 33.7059 29.4265C33.7059 29.2072 33.8837 29.0294 34.1029 29.0294C34.3222 29.0294 34.5 29.2072 34.5 29.4265Z" fill="white"/>
<path d="M34.0588 30.75C34.0588 30.9693 33.8811 31.1471 33.6618 31.1471C33.4425 31.1471 33.2647 30.9693 33.2647 30.75C33.2647 30.5307 33.4425 30.3529 33.6618 30.3529C33.8811 30.3529 34.0588 30.5307 34.0588 30.75Z" fill="white"/>
<path d="M33.4412 31.9853C33.4412 32.2046 33.2634 32.3824 33.0441 32.3824C32.8248 32.3824 32.6471 32.2046 32.6471 31.9853C32.6471 31.766 32.8248 31.5882 33.0441 31.5882C33.2634 31.5882 33.4412 31.766 33.4412 31.9853Z" fill="white"/>
<path d="M32.7353 33.1324C32.7353 33.3516 32.5575 33.5294 32.3382 33.5294C32.1189 33.5294 31.9412 33.3516 31.9412 33.1324C31.9412 32.9131 32.1189 32.7353 32.3382 32.7353C32.5575 32.7353 32.7353 32.9131 32.7353 33.1324Z" fill="white"/>
<path d="M31.9412 34.1912C31.9412 34.4105 31.7634 34.5882 31.5441 34.5882C31.3248 34.5882 31.1471 34.4105 31.1471 34.1912C31.1471 33.9719 31.3248 33.7941 31.5441 33.7941C31.7634 33.7941 31.9412 33.9719 31.9412 34.1912Z" fill="white"/>
<path d="M30.9706 35.0735C30.9706 35.2928 30.7928 35.4706 30.5735 35.4706C30.3542 35.4706 30.1765 35.2928 30.1765 35.0735C30.1765 34.8542 30.3542 34.6765 30.5735 34.6765C30.7928 34.6765 30.9706 34.8542 30.9706 35.0735Z" fill="white"/>
<path d="M29.9118 35.8676C29.9118 36.0869 29.734 36.2647 29.5147 36.2647C29.2954 36.2647 29.1176 36.0869 29.1176 35.8676C29.1176 35.6484 29.2954 35.4706 29.5147 35.4706C29.734 35.4706 29.9118 35.6484 29.9118 35.8676Z" fill="white"/>
<path d="M28.6765 36.5735C28.6765 36.7928 28.4987 36.9706 28.2794 36.9706C28.0601 36.9706 27.8824 36.7928 27.8824 36.5735C27.8824 36.3542 28.0601 36.1765 28.2794 36.1765C28.4987 36.1765 28.6765 36.3542 28.6765 36.5735Z" fill="white"/>
<path d="M27.4412 37.0147C27.4412 37.234 27.2634 37.4118 27.0441 37.4118C26.8248 37.4118 26.6471 37.234 26.6471 37.0147C26.6471 36.7954 26.8248 36.6176 27.0441 36.6176C27.2634 36.6176 27.4412 36.7954 27.4412 37.0147Z" fill="white"/>
<path d="M26.2059 37.3676C26.2059 37.5869 26.0281 37.7647 25.8088 37.7647C25.5895 37.7647 25.4118 37.5869 25.4118 37.3676C25.4118 37.1484 25.5895 36.9706 25.8088 36.9706C26.0281 36.9706 26.2059 37.1484 26.2059 37.3676Z" fill="white"/>
<path d="M23.4706 37.6324C23.4706 37.8516 23.2928 38.0294 23.0735 38.0294C22.8542 38.0294 22.6765 37.8516 22.6765 37.6324C22.6765 37.4131 22.8542 37.2353 23.0735 37.2353C23.2928 37.2353 23.4706 37.4131 23.4706 37.6324Z" fill="white"/>
<path d="M22.1471 37.4559C22.1471 37.6752 21.9693 37.8529 21.75 37.8529C21.5307 37.8529 21.3529 37.6752 21.3529 37.4559C21.3529 37.2366 21.5307 37.0588 21.75 37.0588C21.9693 37.0588 22.1471 37.2366 22.1471 37.4559Z" fill="white"/>
<path d="M20.8235 37.1912C20.8235 37.4105 20.6458 37.5882 20.4265 37.5882C20.2072 37.5882 20.0294 37.4105 20.0294 37.1912C20.0294 36.9719 20.2072 36.7941 20.4265 36.7941C20.6458 36.7941 20.8235 36.9719 20.8235 37.1912Z" fill="white"/>
<path d="M19.5 36.6618C19.5 36.8811 19.3222 37.0588 19.1029 37.0588C18.8837 37.0588 18.7059 36.8811 18.7059 36.6618C18.7059 36.4425 18.8837 36.2647 19.1029 36.2647C19.3222 36.2647 19.5 36.4425 19.5 36.6618Z" fill="white"/>
<path d="M18.2647 36.0441C18.2647 36.2634 18.0869 36.4412 17.8676 36.4412C17.6484 36.4412 17.4706 36.2634 17.4706 36.0441C17.4706 35.8248 17.6484 35.6471 17.8676 35.6471C18.0869 35.6471 18.2647 35.8248 18.2647 36.0441Z" fill="white"/>
<path d="M17.0294 35.3382C17.0294 35.5575 16.8516 35.7353 16.6324 35.7353C16.4131 35.7353 16.2353 35.5575 16.2353 35.3382C16.2353 35.1189 16.4131 34.9412 16.6324 34.9412C16.8516 34.9412 17.0294 35.1189 17.0294 35.3382Z" fill="white"/>
<path d="M15.9706 34.4559C15.9706 34.6752 15.7928 34.8529 15.5735 34.8529C15.3542 34.8529 15.1765 34.6752 15.1765 34.4559C15.1765 34.2366 15.3542 34.0588 15.5735 34.0588C15.7928 34.0588 15.9706 34.2366 15.9706 34.4559Z" fill="white"/>
<path d="M15 33.3971C15 33.6163 14.8222 33.7941 14.6029 33.7941C14.3837 33.7941 14.2059 33.6163 14.2059 33.3971C14.2059 33.1778 14.3837 33 14.6029 33C14.8222 33 15 33.1778 15 33.3971Z" fill="white"/>
<path d="M14.1176 32.3382C14.1176 32.5575 13.9399 32.7353 13.7206 32.7353C13.5013 32.7353 13.3235 32.5575 13.3235 32.3382C13.3235 32.1189 13.5013 31.9412 13.7206 31.9412C13.9399 31.9412 14.1176 32.1189 14.1176 32.3382Z" fill="white"/>
<path d="M13.3235 31.1029C13.3235 31.3222 13.1458 31.5 12.9265 31.5C12.7072 31.5 12.5294 31.3222 12.5294 31.1029C12.5294 30.8837 12.7072 30.7059 12.9265 30.7059C13.1458 30.7059 13.3235 30.8837 13.3235 31.1029Z" fill="white"/>
<path d="M12.7059 29.7794C12.7059 29.9987 12.5281 30.1765 12.3088 30.1765C12.0895 30.1765 11.9118 29.9987 11.9118 29.7794C11.9118 29.5601 12.0895 29.3824 12.3088 29.3824C12.5281 29.3824 12.7059 29.5601 12.7059 29.7794Z" fill="white"/>
<path d="M12.2647 28.4559C12.2647 28.6752 12.0869 28.8529 11.8676 28.8529C11.6484 28.8529 11.4706 28.6752 11.4706 28.4559C11.4706 28.2366 11.6484 28.0588 11.8676 28.0588C12.0869 28.0588 12.2647 28.2366 12.2647 28.4559Z" fill="white"/>
<path d="M11.9118 27.0441C11.9118 27.2634 11.734 27.4412 11.5147 27.4412C11.2954 27.4412 11.1176 27.2634 11.1176 27.0441C11.1176 26.8248 11.2954 26.6471 11.5147 26.6471C11.734 26.6471 11.9118 26.8248 11.9118 27.0441Z" fill="white"/>
<path d="M11.7353 25.7206C11.7353 25.9399 11.5575 26.1176 11.3382 26.1176C11.1189 26.1176 10.9412 25.9399 10.9412 25.7206C10.9412 25.5013 11.1189 25.3235 11.3382 25.3235C11.5575 25.3235 11.7353 25.5013 11.7353 25.7206Z" fill="white"/>
<path d="M11.7353 24.3088C11.7353 24.5281 11.5575 24.7059 11.3382 24.7059C11.1189 24.7059 10.9412 24.5281 10.9412 24.3088C10.9412 24.0895 11.1189 23.9118 11.3382 23.9118C11.5575 23.9118 11.7353 24.0895 11.7353 24.3088Z" fill="white"/>
<path d="M11.8235 22.8971C11.8235 23.1163 11.6458 23.2941 11.4265 23.2941C11.2072 23.2941 11.0294 23.1163 11.0294 22.8971C11.0294 22.6778 11.2072 22.5 11.4265 22.5C11.6458 22.5 11.8235 22.6778 11.8235 22.8971Z" fill="white"/>
<path d="M12.1765 21.4853C12.1765 21.7046 11.9987 21.8824 11.7794 21.8824C11.5601 21.8824 11.3824 21.7046 11.3824 21.4853C11.3824 21.266 11.5601 21.0882 11.7794 21.0882C11.9987 21.0882 12.1765 21.266 12.1765 21.4853Z" fill="white"/>
<path d="M24.8824 37.5441C24.8824 37.7634 24.7046 37.9412 24.4853 37.9412C24.266 37.9412 24.0882 37.7634 24.0882 37.5441C24.0882 37.3248 24.266 37.1471 24.4853 37.1471C24.7046 37.1471 24.8824 37.3248 24.8824 37.5441Z" fill="white"/>
</svg>
