<svg width="276" height="276" viewBox="0 0 276 276" fill="none" xmlns="http://www.w3.org/2000/svg">
<path d="M216.433 208.235C216.131 210.188 214.498 211.555 212.785 211.29C211.073 211.025 209.929 209.228 210.232 207.275C210.534 205.323 212.167 203.955 213.88 204.22C215.592 204.485 216.736 206.283 216.433 208.235Z" fill="#35B2C2"/>
<path d="M222.918 196.886C222.616 198.839 220.983 200.206 219.27 199.941C217.558 199.676 216.414 197.879 216.717 195.926C217.019 193.974 218.652 192.606 220.365 192.871C222.077 193.136 223.221 194.934 222.918 196.886Z" fill="#35B2C2"/>
<path d="M228.323 185.537C228.021 187.49 226.387 188.857 224.675 188.592C222.962 188.327 221.819 186.53 222.121 184.577C222.423 182.625 224.056 181.257 225.769 181.522C227.482 181.787 228.625 183.585 228.323 185.537Z" fill="#35B2C2"/>
<path d="M232.106 173.108C231.804 175.06 230.17 176.428 228.458 176.163C226.745 175.898 225.602 174.1 225.904 172.148C226.206 170.195 227.839 168.827 229.552 169.093C231.265 169.358 232.408 171.155 232.106 173.108Z" fill="#35B2C2"/>
<path d="M234.808 160.678C234.506 162.63 232.872 163.998 231.16 163.733C229.447 163.468 228.304 161.67 228.606 159.718C228.908 157.765 230.541 156.398 232.254 156.663C233.967 156.928 235.11 158.725 234.808 160.678Z" fill="#35B2C2"/>
<path d="M235.889 148.248C235.586 150.2 233.953 151.568 232.241 151.303C230.528 151.038 229.385 149.24 229.687 147.288C229.989 145.336 231.622 143.968 233.335 144.233C235.048 144.498 236.191 146.296 235.889 148.248Z" fill="#35B2C2"/>
<path d="M236.429 135.278C236.127 137.23 234.494 138.598 232.781 138.333C231.068 138.068 229.925 136.27 230.227 134.318C230.529 132.365 232.163 130.998 233.875 131.263C235.588 131.528 236.731 133.325 236.429 135.278Z" fill="#35B2C2"/>
<path d="M235.348 122.848C235.046 124.8 233.413 126.168 231.7 125.903C229.988 125.638 228.844 123.84 229.146 121.888C229.449 119.936 231.082 118.568 232.794 118.833C234.507 119.098 235.65 120.896 235.348 122.848Z" fill="#35B2C2"/>
<path d="M232.646 110.959C232.344 112.911 230.711 114.279 228.998 114.014C227.285 113.749 226.142 111.951 226.444 109.999C226.746 108.046 228.38 106.679 230.092 106.944C231.805 107.209 232.948 109.006 232.646 110.959Z" fill="#35B2C2"/>
<path d="M228.863 99.0693C228.561 101.022 226.928 102.389 225.215 102.124C223.502 101.859 222.359 100.062 222.661 98.1094C222.963 96.157 224.597 94.7892 226.309 95.0543C228.022 95.3194 229.165 97.117 228.863 99.0693Z" fill="#35B2C2"/>
<path d="M223.999 88.2608C223.697 90.2132 222.064 91.581 220.351 91.3159C218.639 91.0508 217.495 89.2532 217.797 87.3009C218.1 85.3485 219.733 83.9807 221.446 84.2458C223.158 84.5109 224.302 86.3085 223.999 88.2608Z" fill="#35B2C2"/>
<path d="M218.055 77.9928C217.752 79.9451 216.119 81.3129 214.407 81.0478C212.694 80.7827 211.551 78.9852 211.853 77.0328C212.155 75.0805 213.788 73.7127 215.501 73.9778C217.213 74.2429 218.357 76.0404 218.055 77.9928Z" fill="#35B2C2"/>
<path d="M211.029 68.8056C210.727 70.7579 209.094 72.1257 207.381 71.8606C205.668 71.5955 204.525 69.7979 204.827 67.8456C205.129 65.8932 206.763 64.5254 208.475 64.7905C210.188 65.0556 211.331 66.8532 211.029 68.8056Z" fill="#35B2C2"/>
<path d="M202.923 60.6992C202.621 62.6515 200.987 64.0193 199.275 63.7542C197.562 63.4891 196.419 61.6916 196.721 59.7392C197.023 57.7869 198.656 56.4191 200.369 56.6842C202.082 56.9493 203.225 58.7468 202.923 60.6992Z" fill="#35B2C2"/>
<path d="M193.736 53.6737C193.433 55.626 191.8 56.9938 190.087 56.7287C188.375 56.4636 187.231 54.666 187.534 52.7137C187.836 50.7613 189.469 49.3936 191.182 49.6586C192.894 49.9237 194.038 51.7213 193.736 53.6737Z" fill="#35B2C2"/>
<path d="M184.008 47.729C183.706 49.6813 182.072 51.0491 180.36 50.784C178.647 50.5189 177.504 48.7214 177.806 46.769C178.108 44.8167 179.742 43.4489 181.454 43.714C183.167 43.9791 184.31 45.7766 184.008 47.729Z" fill="#35B2C2"/>
<path d="M173.74 43.4056C173.438 45.3579 171.804 46.7257 170.092 46.4606C168.379 46.1955 167.236 44.398 167.538 42.4456C167.84 40.4933 169.473 39.1255 171.186 39.3906C172.899 39.6557 174.042 41.4532 173.74 43.4056Z" fill="#35B2C2"/>
<path d="M162.931 40.7035C162.629 42.6558 160.996 44.0236 159.283 43.7585C157.571 43.4934 156.427 41.6958 156.729 39.7435C157.032 37.7911 158.665 36.4234 160.378 36.6884C162.09 36.9535 163.234 38.7511 162.931 40.7035Z" fill="#35B2C2"/>
<path d="M151.582 39.0822C151.28 41.0345 149.647 42.4023 147.934 42.1372C146.222 41.8721 145.078 40.0746 145.381 38.1222C145.683 36.1699 147.316 34.8021 149.029 35.0672C150.741 35.3323 151.885 37.1298 151.582 39.0822Z" fill="#35B2C2"/>
<path d="M140.233 39.0822C139.931 41.0345 138.298 42.4023 136.585 42.1372C134.873 41.8721 133.729 40.0746 134.032 38.1222C134.334 36.1699 135.967 34.8021 137.68 35.0672C139.392 35.3323 140.536 37.1298 140.233 39.0822Z" fill="#35B2C2"/>
<path d="M129.425 40.163C129.123 42.1154 127.489 43.4832 125.777 43.2181C124.064 42.953 122.921 41.1554 123.223 39.2031C123.525 37.2507 125.159 35.8829 126.871 36.148C128.584 36.4131 129.727 38.2107 129.425 40.163Z" fill="#35B2C2"/>
<path d="M118.076 42.8652C117.774 44.8175 116.141 46.1853 114.428 45.9202C112.715 45.6551 111.572 43.8575 111.874 41.9052C112.176 39.9528 113.81 38.5851 115.522 38.8501C117.235 39.1152 118.378 40.9128 118.076 42.8652Z" fill="#35B2C2"/>
<path d="M107.268 47.1886C106.965 49.1409 105.332 50.5087 103.619 50.2436C101.907 49.9785 100.763 48.1809 101.066 46.2286C101.368 44.2762 103.001 42.9085 104.714 43.1735C106.426 43.4386 107.57 45.2362 107.268 47.1886Z" fill="#35B2C2"/>
<path d="M96.9995 52.5928C96.6973 54.5452 95.064 55.9129 93.3514 55.6479C91.6388 55.3828 90.4954 53.5852 90.7976 51.6328C91.0998 49.6805 92.7331 48.3127 94.4457 48.5778C96.1583 48.8429 97.3017 50.6405 96.9995 52.5928Z" fill="#35B2C2"/>
<path d="M86.7314 59.6183C86.4292 61.5707 84.7959 62.9385 83.0833 62.6734C81.3707 62.4083 80.2273 60.6107 80.5295 58.6584C80.8317 56.706 82.465 55.3382 84.1776 55.6033C85.8903 55.8684 87.0336 57.666 86.7314 59.6183Z" fill="#35B2C2"/>
<path d="M78.0846 67.7247C77.7824 69.6771 76.1491 71.0448 74.4365 70.7798C72.7239 70.5147 71.5805 68.7171 71.8827 66.7647C72.1849 64.8124 73.8182 63.4446 75.5308 63.7097C77.2435 63.9748 78.3868 65.7724 78.0846 67.7247Z" fill="#35B2C2"/>
<path d="M69.4378 76.9119C69.1356 78.8643 67.5023 80.2321 65.7897 79.967C64.0771 79.7019 62.9337 77.9043 63.2359 75.952C63.5381 73.9996 65.1714 72.6318 66.8841 72.8969C68.5967 73.162 69.74 74.9596 69.4378 76.9119Z" fill="#35B2C2"/>
<path d="M61.8719 87.18C61.5697 89.1323 59.9364 90.5001 58.2238 90.2351C56.5111 89.97 55.3678 88.1724 55.67 86.22C55.9722 84.2677 57.6055 82.8999 59.3181 83.165C61.0307 83.4301 62.1741 85.2276 61.8719 87.18Z" fill="#35B2C2"/>
<path d="M55.9272 98.5289C55.625 100.481 53.9917 101.849 52.2791 101.584C50.5665 101.319 49.4231 99.5213 49.7253 97.569C50.0275 95.6166 51.6608 94.2488 53.3734 94.5139C55.086 94.779 56.2294 96.5766 55.9272 98.5289Z" fill="#35B2C2"/>
<path d="M51.0634 109.878C50.7612 111.83 49.1279 113.198 47.4153 112.933C45.7026 112.668 44.5593 110.87 44.8615 108.918C45.1637 106.966 46.797 105.598 48.5096 105.863C50.2222 106.128 51.3656 107.926 51.0634 109.878Z" fill="#35B2C2"/>
<path d="M46.74 121.767C46.4378 123.72 44.8045 125.087 43.0919 124.822C41.3792 124.557 40.2359 122.76 40.5381 120.807C40.8403 118.855 42.4736 117.487 44.1862 117.752C45.8988 118.017 47.0422 119.815 46.74 121.767Z" fill="#35B2C2"/>
<path d="M44.0379 134.197C43.7357 136.149 42.1023 137.517 40.3897 137.252C38.6771 136.987 37.5338 135.189 37.836 133.237C38.1382 131.285 39.7715 129.917 41.4841 130.182C43.1967 130.447 44.34 132.245 44.0379 134.197Z" fill="#35B2C2"/>
<path d="M42.4166 147.167C42.1144 149.12 40.4811 150.487 38.7685 150.222C37.0558 149.957 35.9125 148.16 36.2147 146.207C36.5169 144.255 38.1502 142.887 39.8628 143.152C41.5754 143.417 42.7188 145.215 42.4166 147.167Z" fill="#35B2C2"/>
<path d="M42.4166 160.137C42.1144 162.09 40.4811 163.458 38.7685 163.192C37.0558 162.927 35.9125 161.13 36.2147 159.177C36.5169 157.225 38.1502 155.857 39.8628 156.122C41.5754 156.387 42.7188 158.185 42.4166 160.137Z" fill="#35B2C2"/>
<path d="M43.4974 172.567C43.1952 174.519 41.5619 175.887 39.8493 175.622C38.1367 175.357 36.9933 173.56 37.2955 171.607C37.5977 169.655 39.231 168.287 40.9437 168.552C42.6563 168.817 43.7996 170.615 43.4974 172.567Z" fill="#35B2C2"/>
<path d="M46.1996 184.997C45.8974 186.949 44.264 188.317 42.5514 188.052C40.8388 187.787 39.6955 185.989 39.9977 184.037C40.2999 182.085 41.9332 180.717 43.6458 180.982C45.3584 181.247 46.5018 183.045 46.1996 184.997Z" fill="#35B2C2"/>
<path d="M49.9825 195.805C49.6803 197.758 48.047 199.126 46.3344 198.86C44.6218 198.595 43.4784 196.798 43.7806 194.845C44.0828 192.893 45.7162 191.525 47.4288 191.79C49.1414 192.055 50.2847 193.853 49.9825 195.805Z" fill="#35B2C2"/>
<path d="M54.8463 207.154C54.5442 209.107 52.9108 210.474 51.1982 210.209C49.4856 209.944 48.3423 208.147 48.6445 206.194C48.9467 204.242 50.58 202.874 52.2926 203.139C54.0052 203.404 55.1485 205.202 54.8463 207.154Z" fill="#35B2C2"/>
<path d="M60.791 217.422C60.4888 219.375 58.8555 220.743 57.1429 220.477C55.4303 220.212 54.2869 218.415 54.5891 216.462C54.8913 214.51 56.5246 213.142 58.2373 213.407C59.9499 213.672 61.0932 215.47 60.791 217.422Z" fill="#35B2C2"/>
<path d="M67.8165 226.61C67.5144 228.562 65.881 229.93 64.1684 229.665C62.4558 229.4 61.3125 227.602 61.6146 225.65C61.9168 223.697 63.5502 222.33 65.2628 222.595C66.9754 222.86 68.1187 224.657 67.8165 226.61Z" fill="#35B2C2"/>
<path d="M76.4633 234.716C76.1612 236.668 74.5278 238.036 72.8152 237.771C71.1026 237.506 69.9592 235.708 70.2614 233.756C70.5636 231.804 72.197 230.436 73.9096 230.701C75.6222 230.966 76.7655 232.764 76.4633 234.716Z" fill="#35B2C2"/>
<path d="M85.1101 241.742C84.8079 243.694 83.1746 245.062 81.462 244.797C79.7494 244.531 78.6061 242.734 78.9083 240.782C79.2105 238.829 80.8438 237.461 82.5564 237.727C84.269 237.992 85.4123 239.789 85.1101 241.742Z" fill="#35B2C2"/>
<path d="M94.8378 247.686C94.5356 249.639 92.9023 251.006 91.1897 250.741C89.4771 250.476 88.3337 248.679 88.6359 246.726C88.9381 244.774 90.5714 243.406 92.284 243.671C93.9966 243.936 95.14 245.734 94.8378 247.686Z" fill="#35B2C2"/>
<path d="M105.106 252.01C104.804 253.962 103.17 255.33 101.458 255.065C99.7451 254.8 98.6018 253.002 98.904 251.05C99.2062 249.097 100.839 247.729 102.552 247.995C104.265 248.26 105.408 250.057 105.106 252.01Z" fill="#35B2C2"/>
<path d="M115.914 254.712C115.612 256.664 113.979 258.032 112.266 257.767C110.554 257.502 109.41 255.704 109.712 253.752C110.015 251.799 111.648 250.432 113.361 250.697C115.073 250.962 116.217 252.759 115.914 254.712Z" fill="#35B2C2"/>
<path d="M127.263 256.333C126.961 258.285 125.328 259.653 123.615 259.388C121.903 259.123 120.759 257.325 121.061 255.373C121.364 253.421 122.997 252.053 124.71 252.318C126.422 252.583 127.565 254.381 127.263 256.333Z" fill="#35B2C2"/>
<path d="M138.072 256.333C137.77 258.285 136.136 259.653 134.424 259.388C132.711 259.123 131.568 257.325 131.87 255.373C132.172 253.421 133.805 252.053 135.518 252.318C137.231 252.583 138.374 254.381 138.072 256.333Z" fill="#35B2C2"/>
<path d="M149.421 255.252C149.119 257.204 147.485 258.572 145.773 258.307C144.06 258.042 142.917 256.245 143.219 254.292C143.521 252.34 145.154 250.972 146.867 251.237C148.58 251.502 149.723 253.3 149.421 255.252Z" fill="#35B2C2"/>
<path d="M160.77 252.55C160.467 254.502 158.834 255.87 157.122 255.605C155.409 255.34 154.266 253.542 154.568 251.59C154.87 249.638 156.503 248.27 158.216 248.535C159.928 248.8 161.072 250.598 160.77 252.55Z" fill="#35B2C2"/>
<path d="M171.578 248.227C171.276 250.179 169.643 251.547 167.93 251.282C166.217 251.017 165.074 249.219 165.376 247.267C165.678 245.314 167.312 243.947 169.024 244.212C170.737 244.477 171.88 246.274 171.578 248.227Z" fill="#35B2C2"/>
<path d="M181.846 242.282C181.544 244.234 179.911 245.602 178.198 245.337C176.485 245.072 175.342 243.274 175.644 241.322C175.947 239.37 177.58 238.002 179.292 238.267C181.005 238.532 182.148 240.33 181.846 242.282Z" fill="#35B2C2"/>
<path d="M191.574 235.256C191.272 237.209 189.638 238.577 187.926 238.311C186.213 238.046 185.07 236.249 185.372 234.296C185.674 232.344 187.307 230.976 189.02 231.241C190.733 231.506 191.876 233.304 191.574 235.256Z" fill="#35B2C2"/>
<path d="M200.761 227.15C200.459 229.102 198.826 230.47 197.113 230.205C195.4 229.94 194.257 228.142 194.559 226.19C194.861 224.238 196.495 222.87 198.207 223.135C199.92 223.4 201.063 225.198 200.761 227.15Z" fill="#35B2C2"/>
<path d="M209.408 218.503C209.106 220.456 207.472 221.823 205.76 221.558C204.047 221.293 202.904 219.496 203.206 217.543C203.508 215.591 205.141 214.223 206.854 214.488C208.567 214.753 209.71 216.551 209.408 218.503Z" fill="#35B2C2"/>
<path d="M104.302 266.159C104.302 268.696 102.245 270.753 99.7084 270.753C97.1714 270.753 95.1148 268.696 95.1148 266.159C95.1148 263.622 97.1714 261.566 99.7084 261.566C102.245 261.566 104.302 263.622 104.302 266.159Z" fill="#35B2C2"/>
<path d="M119.434 269.402C119.434 271.939 117.377 273.995 114.84 273.995C112.303 273.995 110.247 271.939 110.247 269.402C110.247 266.865 112.303 264.808 114.84 264.808C117.377 264.808 119.434 266.865 119.434 269.402Z" fill="#35B2C2"/>
<path d="M134.566 271.023C134.566 273.56 132.509 275.617 129.972 275.617C127.435 275.617 125.379 273.56 125.379 271.023C125.379 268.486 127.435 266.429 129.972 266.429C132.509 266.429 134.566 268.486 134.566 271.023Z" fill="#35B2C2"/>
<path d="M150.779 271.023C150.779 273.56 148.722 275.617 146.185 275.617C143.648 275.617 141.591 273.56 141.591 271.023C141.591 268.486 143.648 266.429 146.185 266.429C148.722 266.429 150.779 268.486 150.779 271.023Z" fill="#35B2C2"/>
<path d="M165.91 269.402C165.91 271.939 163.854 273.995 161.317 273.995C158.78 273.995 156.723 271.939 156.723 269.402C156.723 266.865 158.78 264.808 161.317 264.808C163.854 264.808 165.91 266.865 165.91 269.402Z" fill="#35B2C2"/>
<path d="M181.042 266.159C181.042 268.696 178.986 270.753 176.449 270.753C173.912 270.753 171.855 268.696 171.855 266.159C171.855 263.622 173.912 261.566 176.449 261.566C178.986 261.566 181.042 263.622 181.042 266.159Z" fill="#35B2C2"/>
<path d="M195.634 260.215C195.634 262.752 193.577 264.808 191.04 264.808C188.503 264.808 186.447 262.752 186.447 260.215C186.447 257.678 188.503 255.621 191.04 255.621C193.577 255.621 195.634 257.678 195.634 260.215Z" fill="#35B2C2"/>
<path d="M209.685 253.729C209.685 256.266 207.628 258.323 205.091 258.323C202.554 258.323 200.498 256.266 200.498 253.729C200.498 251.193 202.554 249.136 205.091 249.136C207.628 249.136 209.685 251.193 209.685 253.729Z" fill="#35B2C2"/>
<path d="M222.655 244.542C222.655 247.079 220.598 249.136 218.061 249.136C215.524 249.136 213.468 247.079 213.468 244.542C213.468 242.005 215.524 239.949 218.061 239.949C220.598 239.949 222.655 242.005 222.655 244.542Z" fill="#35B2C2"/>
<path d="M234.544 235.355C234.544 237.892 232.488 239.949 229.951 239.949C227.414 239.949 225.357 237.892 225.357 235.355C225.357 232.818 227.414 230.761 229.951 230.761C232.488 230.761 234.544 232.818 234.544 235.355Z" fill="#35B2C2"/>
<path d="M245.353 223.466C245.353 226.003 243.296 228.059 240.759 228.059C238.222 228.059 236.166 226.003 236.166 223.466C236.166 220.929 238.222 218.872 240.759 218.872C243.296 218.872 245.353 220.929 245.353 223.466Z" fill="#35B2C2"/>
<path d="M254.54 211.036C254.54 213.573 252.483 215.63 249.947 215.63C247.41 215.63 245.353 213.573 245.353 211.036C245.353 208.499 247.41 206.442 249.947 206.442C252.483 206.442 254.54 208.499 254.54 211.036Z" fill="#35B2C2"/>
<path d="M262.106 197.525C262.106 200.062 260.049 202.119 257.512 202.119C254.975 202.119 252.919 200.062 252.919 197.525C252.919 194.988 254.975 192.932 257.512 192.932C260.049 192.932 262.106 194.988 262.106 197.525Z" fill="#35B2C2"/>
<path d="M268.591 183.474C268.591 186.011 266.535 188.068 263.998 188.068C261.461 188.068 259.404 186.011 259.404 183.474C259.404 180.937 261.461 178.881 263.998 178.881C266.535 178.881 268.591 180.937 268.591 183.474Z" fill="#35B2C2"/>
<path d="M272.915 168.883C272.915 171.42 270.858 173.476 268.321 173.476C265.784 173.476 263.727 171.42 263.727 168.883C263.727 166.346 265.784 164.289 268.321 164.289C270.858 164.289 272.915 166.346 272.915 168.883Z" fill="#35B2C2"/>
<path d="M275.617 153.21C275.617 155.747 273.56 157.804 271.023 157.804C268.486 157.804 266.429 155.747 266.429 153.21C266.429 150.673 268.486 148.617 271.023 148.617C273.56 148.617 275.617 150.673 275.617 153.21Z" fill="#35B2C2"/>
<path d="M275.617 137.538C275.617 140.075 273.56 142.132 271.023 142.132C268.486 142.132 266.429 140.075 266.429 137.538C266.429 135.001 268.486 132.945 271.023 132.945C273.56 132.945 275.617 135.001 275.617 137.538Z" fill="#35B2C2"/>
<path d="M275.617 121.866C275.617 124.403 273.56 126.459 271.023 126.459C268.486 126.459 266.429 124.403 266.429 121.866C266.429 119.329 268.486 117.272 271.023 117.272C273.56 117.272 275.617 119.329 275.617 121.866Z" fill="#35B2C2"/>
<path d="M272.915 107.274C272.915 109.811 270.858 111.868 268.321 111.868C265.784 111.868 263.727 109.811 263.727 107.274C263.727 104.737 265.784 102.681 268.321 102.681C270.858 102.681 272.915 104.737 272.915 107.274Z" fill="#35B2C2"/>
<path d="M268.591 91.602C268.591 94.139 266.535 96.1956 263.998 96.1956C261.461 96.1956 259.404 94.139 259.404 91.602C259.404 89.065 261.461 87.0084 263.998 87.0084C266.535 87.0084 268.591 89.065 268.591 91.602Z" fill="#35B2C2"/>
<path d="M262.106 78.0914C262.106 80.6284 260.049 82.685 257.512 82.685C254.975 82.685 252.919 80.6284 252.919 78.0914C252.919 75.5544 254.975 73.4978 257.512 73.4978C260.049 73.4978 262.106 75.5544 262.106 78.0914Z" fill="#35B2C2"/>
<path d="M254.54 64.5808C254.54 67.1178 252.483 69.1744 249.947 69.1744C247.41 69.1744 245.353 67.1178 245.353 64.5808C245.353 62.0438 247.41 59.9872 249.947 59.9872C252.483 59.9872 254.54 62.0438 254.54 64.5808Z" fill="#35B2C2"/>
<path d="M245.353 52.6914C245.353 55.2284 243.296 57.285 240.759 57.285C238.222 57.285 236.166 55.2284 236.166 52.6914C236.166 50.1544 238.222 48.0978 240.759 48.0978C243.296 48.0978 245.353 50.1544 245.353 52.6914Z" fill="#35B2C2"/>
<path d="M234.004 40.2617C234.004 42.7986 231.947 44.8553 229.41 44.8553C226.873 44.8553 224.817 42.7986 224.817 40.2617C224.817 37.7247 226.873 35.668 229.41 35.668C231.947 35.668 234.004 37.7247 234.004 40.2617Z" fill="#35B2C2"/>
<path d="M222.655 31.0744C222.655 33.6114 220.598 35.668 218.061 35.668C215.524 35.668 213.468 33.6114 213.468 31.0744C213.468 28.5375 215.524 26.4808 218.061 26.4808C220.598 26.4808 222.655 28.5375 222.655 31.0744Z" fill="#35B2C2"/>
<path d="M209.685 21.8872C209.685 24.4242 207.628 26.4808 205.091 26.4808C202.554 26.4808 200.498 24.4242 200.498 21.8872C200.498 19.3502 202.554 17.2936 205.091 17.2936C207.628 17.2936 209.685 19.3502 209.685 21.8872Z" fill="#35B2C2"/>
<path d="M196.174 15.4021C196.174 17.9391 194.118 19.9957 191.581 19.9957C189.044 19.9957 186.987 17.9391 186.987 15.4021C186.987 12.8651 189.044 10.8085 191.581 10.8085C194.118 10.8085 196.174 12.8651 196.174 15.4021Z" fill="#35B2C2"/>
<path d="M181.042 9.45744C181.042 11.9944 178.986 14.051 176.449 14.051C173.912 14.051 171.855 11.9944 171.855 9.45744C171.855 6.92045 173.912 4.86382 176.449 4.86382C178.986 4.86382 181.042 6.92045 181.042 9.45744Z" fill="#35B2C2"/>
<path d="M166.451 6.21489C166.451 8.75187 164.394 10.8085 161.857 10.8085C159.32 10.8085 157.264 8.75187 157.264 6.21489C157.264 3.6779 159.32 1.62127 161.857 1.62127C164.394 1.62127 166.451 3.6779 166.451 6.21489Z" fill="#35B2C2"/>
<path d="M150.238 4.59361C150.238 7.13059 148.181 9.18722 145.645 9.18722C143.108 9.18722 141.051 7.13059 141.051 4.59361C141.051 2.05663 143.108 0 145.645 0C148.181 0 150.238 2.05663 150.238 4.59361Z" fill="#35B2C2"/>
<path d="M135.647 4.59361C135.647 7.13059 133.59 9.18722 131.053 9.18722C128.516 9.18722 126.459 7.13059 126.459 4.59361C126.459 2.05663 128.516 0 131.053 0C133.59 0 135.647 2.05663 135.647 4.59361Z" fill="#35B2C2"/>
<path d="M119.434 6.21489C119.434 8.75187 117.377 10.8085 114.84 10.8085C112.303 10.8085 110.247 8.75187 110.247 6.21489C110.247 3.6779 112.303 1.62127 114.84 1.62127C117.377 1.62127 119.434 3.6779 119.434 6.21489Z" fill="#35B2C2"/>
<path d="M104.302 9.45744C104.302 11.9944 102.245 14.051 99.7084 14.051C97.1714 14.051 95.1148 11.9944 95.1148 9.45744C95.1148 6.92045 97.1714 4.86382 99.7084 4.86382C102.245 4.86382 104.302 6.92045 104.302 9.45744Z" fill="#35B2C2"/>
<path d="M90.251 15.4021C90.251 17.9391 88.1943 19.9957 85.6574 19.9957C83.1204 19.9957 81.0637 17.9391 81.0637 15.4021C81.0637 12.8651 83.1204 10.8085 85.6574 10.8085C88.1943 10.8085 90.251 12.8651 90.251 15.4021Z" fill="#35B2C2"/>
<path d="M75.6595 22.4276C75.6595 24.9646 73.6029 27.0212 71.0659 27.0212C68.5289 27.0212 66.4723 24.9646 66.4723 22.4276C66.4723 19.8907 68.5289 17.834 71.0659 17.834C73.6029 17.834 75.6595 19.8907 75.6595 22.4276Z" fill="#35B2C2"/>
<path d="M62.6893 30.534C62.6893 33.071 60.6327 35.1276 58.0957 35.1276C55.5587 35.1276 53.5021 33.071 53.5021 30.534C53.5021 27.997 55.5587 25.9404 58.0957 25.9404C60.6327 25.9404 62.6893 27.997 62.6893 30.534Z" fill="#35B2C2"/>
<path d="M50.7999 40.8021C50.7999 43.3391 48.7433 45.3957 46.2063 45.3957C43.6693 45.3957 41.6127 43.3391 41.6127 40.8021C41.6127 38.2651 43.6693 36.2085 46.2063 36.2085C48.7433 36.2085 50.7999 38.2651 50.7999 40.8021Z" fill="#35B2C2"/>
<path d="M40.5319 52.151C40.5319 54.688 38.4752 56.7446 35.9383 56.7446C33.4013 56.7446 31.3446 54.688 31.3446 52.151C31.3446 49.614 33.4013 47.5574 35.9383 47.5574C38.4752 47.5574 40.5319 49.614 40.5319 52.151Z" fill="#35B2C2"/>
<path d="M31.3446 64.5808C31.3446 67.1178 29.288 69.1744 26.751 69.1744C24.2141 69.1744 22.1574 67.1178 22.1574 64.5808C22.1574 62.0438 24.2141 59.9872 26.751 59.9872C29.288 59.9872 31.3446 62.0438 31.3446 64.5808Z" fill="#35B2C2"/>
<path d="M23.2383 78.0914C23.2383 80.6284 21.1816 82.685 18.6447 82.685C16.1077 82.685 14.051 80.6284 14.051 78.0914C14.051 75.5544 16.1077 73.4978 18.6447 73.4978C21.1816 73.4978 23.2383 75.5544 23.2383 78.0914Z" fill="#35B2C2"/>
<path d="M16.7532 92.1424C16.7532 94.6794 14.6965 96.7361 12.1596 96.7361C9.62258 96.7361 7.56595 94.6794 7.56595 92.1424C7.56595 89.6055 9.62258 87.5488 12.1596 87.5488C14.6965 87.5488 16.7532 89.6055 16.7532 92.1424Z" fill="#35B2C2"/>
<path d="M12.4298 106.734C12.4298 109.271 10.3731 111.328 7.83616 111.328C5.29918 111.328 3.24255 109.271 3.24255 106.734C3.24255 104.197 5.29918 102.14 7.83616 102.14C10.3731 102.14 12.4298 104.197 12.4298 106.734Z" fill="#35B2C2"/>
<path d="M10.2681 122.947C10.2681 125.484 8.21144 127.54 5.67446 127.54C3.13748 127.54 1.08085 125.484 1.08085 122.947C1.08085 120.41 3.13748 118.353 5.67446 118.353C8.21144 118.353 10.2681 120.41 10.2681 122.947Z" fill="#35B2C2"/>
<path d="M9.18722 138.619C9.18722 141.156 7.13059 143.213 4.59361 143.213C2.05663 143.213 0 141.156 0 138.619C0 136.082 2.05663 134.025 4.59361 134.025C7.13059 134.025 9.18722 136.082 9.18722 138.619Z" fill="#35B2C2"/>
<path d="M10.2681 153.21C10.2681 155.747 8.21144 157.804 5.67446 157.804C3.13748 157.804 1.08085 155.747 1.08085 153.21C1.08085 150.673 3.13748 148.617 5.67446 148.617C8.21144 148.617 10.2681 150.673 10.2681 153.21Z" fill="#35B2C2"/>
<path d="M12.4298 168.883C12.4298 171.42 10.3731 173.476 7.83616 173.476C5.29918 173.476 3.24255 171.42 3.24255 168.883C3.24255 166.346 5.29918 164.289 7.83616 164.289C10.3731 164.289 12.4298 166.346 12.4298 168.883Z" fill="#35B2C2"/>
<path d="M17.2936 183.474C17.2936 186.011 15.237 188.068 12.7 188.068C10.163 188.068 8.10637 186.011 8.10637 183.474C8.10637 180.937 10.163 178.881 12.7 178.881C15.237 178.881 17.2936 180.937 17.2936 183.474Z" fill="#35B2C2"/>
<path d="M23.2383 197.525C23.2383 200.062 21.1816 202.119 18.6447 202.119C16.1077 202.119 14.051 200.062 14.051 197.525C14.051 194.988 16.1077 192.932 18.6447 192.932C21.1816 192.932 23.2383 194.988 23.2383 197.525Z" fill="#35B2C2"/>
<path d="M31.3446 211.036C31.3446 213.573 29.288 215.63 26.751 215.63C24.2141 215.63 22.1574 213.573 22.1574 211.036C22.1574 208.499 24.2141 206.442 26.751 206.442C29.288 206.442 31.3446 208.499 31.3446 211.036Z" fill="#35B2C2"/>
<path d="M40.5319 223.466C40.5319 226.003 38.4752 228.059 35.9383 228.059C33.4013 228.059 31.3446 226.003 31.3446 223.466C31.3446 220.929 33.4013 218.872 35.9383 218.872C38.4752 218.872 40.5319 220.929 40.5319 223.466Z" fill="#35B2C2"/>
<path d="M51.3404 235.355C51.3404 237.892 49.2837 239.949 46.7468 239.949C44.2098 239.949 42.1531 237.892 42.1531 235.355C42.1531 232.818 44.2098 230.761 46.7468 230.761C49.2837 230.761 51.3404 232.818 51.3404 235.355Z" fill="#35B2C2"/>
<path d="M62.6893 244.542C62.6893 247.079 60.6327 249.136 58.0957 249.136C55.5587 249.136 53.5021 247.079 53.5021 244.542C53.5021 242.005 55.5587 239.949 58.0957 239.949C60.6327 239.949 62.6893 242.005 62.6893 244.542Z" fill="#35B2C2"/>
<path d="M75.6595 253.729C75.6595 256.266 73.6029 258.323 71.0659 258.323C68.5289 258.323 66.4723 256.266 66.4723 253.729C66.4723 251.193 68.5289 249.136 71.0659 249.136C73.6029 249.136 75.6595 251.193 75.6595 253.729Z" fill="#35B2C2"/>
<path d="M90.251 260.215C90.251 262.752 88.1943 264.808 85.6574 264.808C83.1204 264.808 81.0637 262.752 81.0637 260.215C81.0637 257.678 83.1204 255.621 85.6574 255.621C88.1943 255.621 90.251 257.678 90.251 260.215Z" fill="#35B2C2"/>
<path d="M77.2808 124.028C77.2808 125.371 76.192 126.459 74.8488 126.459C73.5057 126.459 72.4169 125.371 72.4169 124.028C72.4169 122.684 73.5057 121.596 74.8488 121.596C76.192 121.596 77.2808 122.684 77.2808 124.028Z" fill="#35B2C2"/>
<path d="M80.5233 116.462C80.5233 117.805 79.4345 118.893 78.0914 118.893C76.7483 118.893 75.6595 117.805 75.6595 116.462C75.6595 115.118 76.7483 114.03 78.0914 114.03C79.4345 114.03 80.5233 115.118 80.5233 116.462Z" fill="#35B2C2"/>
<path d="M85.3871 109.436C85.3871 110.779 84.2983 111.868 82.9552 111.868C81.6121 111.868 80.5233 110.779 80.5233 109.436C80.5233 108.093 81.6121 107.004 82.9552 107.004C84.2983 107.004 85.3871 108.093 85.3871 109.436Z" fill="#35B2C2"/>
<path d="M90.251 102.951C90.251 104.294 89.1622 105.383 87.819 105.383C86.4759 105.383 85.3871 104.294 85.3871 102.951C85.3871 101.608 86.4759 100.519 87.819 100.519C89.1622 100.519 90.251 101.608 90.251 102.951Z" fill="#35B2C2"/>
<path d="M96.1956 97.5467C96.1956 98.8898 95.1068 99.9786 93.7637 99.9786C92.4206 99.9786 91.3318 98.8898 91.3318 97.5467C91.3318 96.2036 92.4206 95.1148 93.7637 95.1148C95.1068 95.1148 96.1956 96.2036 96.1956 97.5467Z" fill="#35B2C2"/>
<path d="M102.681 92.6829C102.681 94.026 101.592 95.1148 100.249 95.1148C98.9057 95.1148 97.8169 94.026 97.8169 92.6829C97.8169 91.3398 98.9057 90.251 100.249 90.251C101.592 90.251 102.681 91.3398 102.681 92.6829Z" fill="#35B2C2"/>
<path d="M110.247 88.3595C110.247 89.7026 109.158 90.7914 107.815 90.7914C106.472 90.7914 105.383 89.7026 105.383 88.3595C105.383 87.0164 106.472 85.9276 107.815 85.9276C109.158 85.9276 110.247 87.0164 110.247 88.3595Z" fill="#35B2C2"/>
<path d="M117.813 85.6574C117.813 87.0005 116.724 88.0893 115.381 88.0893C114.038 88.0893 112.949 87.0005 112.949 85.6574C112.949 84.3142 114.038 83.2254 115.381 83.2254C116.724 83.2254 117.813 84.3142 117.813 85.6574Z" fill="#35B2C2"/>
<path d="M125.379 83.4957C125.379 84.8388 124.29 85.9276 122.947 85.9276C121.604 85.9276 120.515 84.8388 120.515 83.4957C120.515 82.1525 121.604 81.0637 122.947 81.0637C124.29 81.0637 125.379 82.1525 125.379 83.4957Z" fill="#35B2C2"/>
<path d="M134.025 82.4148C134.025 83.7579 132.937 84.8467 131.593 84.8467C130.25 84.8467 129.162 83.7579 129.162 82.4148C129.162 81.0717 130.25 79.9829 131.593 79.9829C132.937 79.9829 134.025 81.0717 134.025 82.4148Z" fill="#35B2C2"/>
<path d="M142.132 81.8744C142.132 83.2175 141.043 84.3063 139.7 84.3063C138.357 84.3063 137.268 83.2175 137.268 81.8744C137.268 80.5313 138.357 79.4425 139.7 79.4425C141.043 79.4425 142.132 80.5313 142.132 81.8744Z" fill="#35B2C2"/>
<path d="M150.238 82.9552C150.238 84.2983 149.149 85.3871 147.806 85.3871C146.463 85.3871 145.374 84.2983 145.374 82.9552C145.374 81.6121 146.463 80.5233 147.806 80.5233C149.149 80.5233 150.238 81.6121 150.238 82.9552Z" fill="#35B2C2"/>
<path d="M158.344 84.5765C158.344 85.9196 157.256 87.0084 155.913 87.0084C154.569 87.0084 153.481 85.9196 153.481 84.5765C153.481 83.2334 154.569 82.1446 155.913 82.1446C157.256 82.1446 158.344 83.2334 158.344 84.5765Z" fill="#35B2C2"/>
<path d="M166.451 87.2786C166.451 88.6217 165.362 89.7105 164.019 89.7105C162.676 89.7105 161.587 88.6217 161.587 87.2786C161.587 85.9355 162.676 84.8467 164.019 84.8467C165.362 84.8467 166.451 85.9355 166.451 87.2786Z" fill="#35B2C2"/>
<path d="M174.017 91.602C174.017 92.9451 172.928 94.0339 171.585 94.0339C170.242 94.0339 169.153 92.9451 169.153 91.602C169.153 90.2589 170.242 89.1701 171.585 89.1701C172.928 89.1701 174.017 90.2589 174.017 91.602Z" fill="#35B2C2"/>
<path d="M181.042 95.9254C181.042 97.2685 179.954 98.3573 178.61 98.3573C177.267 98.3573 176.179 97.2685 176.179 95.9254C176.179 94.5823 177.267 93.4935 178.61 93.4935C179.954 93.4935 181.042 94.5823 181.042 95.9254Z" fill="#35B2C2"/>
<path d="M188.068 101.33C188.068 102.673 186.979 103.762 185.636 103.762C184.293 103.762 183.204 102.673 183.204 101.33C183.204 99.9866 184.293 98.8978 185.636 98.8978C186.979 98.8978 188.068 99.9866 188.068 101.33Z" fill="#35B2C2"/>
<path d="M194.013 107.274C194.013 108.617 192.924 109.706 191.581 109.706C190.238 109.706 189.149 108.617 189.149 107.274C189.149 105.931 190.238 104.842 191.581 104.842C192.924 104.842 194.013 105.931 194.013 107.274Z" fill="#35B2C2"/>
<path d="M199.417 114.3C199.417 115.643 198.328 116.732 196.985 116.732C195.642 116.732 194.553 115.643 194.553 114.3C194.553 112.957 195.642 111.868 196.985 111.868C198.328 111.868 199.417 112.957 199.417 114.3Z" fill="#35B2C2"/>
<path d="M204.281 121.866C204.281 123.209 203.192 124.298 201.849 124.298C200.506 124.298 199.417 123.209 199.417 121.866C199.417 120.523 200.506 119.434 201.849 119.434C203.192 119.434 204.281 120.523 204.281 121.866Z" fill="#35B2C2"/>
<path d="M208.064 129.432C208.064 130.775 206.975 131.864 205.632 131.864C204.289 131.864 203.2 130.775 203.2 129.432C203.2 128.089 204.289 127 205.632 127C206.975 127 208.064 128.089 208.064 129.432Z" fill="#35B2C2"/>
<path d="M210.766 137.538C210.766 138.881 209.677 139.97 208.334 139.97C206.991 139.97 205.902 138.881 205.902 137.538C205.902 136.195 206.991 135.106 208.334 135.106C209.677 135.106 210.766 136.195 210.766 137.538Z" fill="#35B2C2"/>
<path d="M212.927 146.185C212.927 147.528 211.839 148.617 210.496 148.617C209.152 148.617 208.064 147.528 208.064 146.185C208.064 144.842 209.152 143.753 210.496 143.753C211.839 143.753 212.927 144.842 212.927 146.185Z" fill="#35B2C2"/>
<path d="M214.008 154.832C214.008 156.175 212.919 157.264 211.576 157.264C210.233 157.264 209.144 156.175 209.144 154.832C209.144 153.489 210.233 152.4 211.576 152.4C212.919 152.4 214.008 153.489 214.008 154.832Z" fill="#35B2C2"/>
<path d="M214.008 163.479C214.008 164.822 212.919 165.91 211.576 165.91C210.233 165.91 209.144 164.822 209.144 163.479C209.144 162.135 210.233 161.047 211.576 161.047C212.919 161.047 214.008 162.135 214.008 163.479Z" fill="#35B2C2"/>
<path d="M213.468 172.125C213.468 173.468 212.379 174.557 211.036 174.557C209.693 174.557 208.604 173.468 208.604 172.125C208.604 170.782 209.693 169.693 211.036 169.693C212.379 169.693 213.468 170.782 213.468 172.125Z" fill="#35B2C2"/>
<path d="M211.306 180.232C211.306 181.575 210.217 182.664 208.874 182.664C207.531 182.664 206.442 181.575 206.442 180.232C206.442 178.889 207.531 177.8 208.874 177.8C210.217 177.8 211.306 178.889 211.306 180.232Z" fill="#35B2C2"/>
<path d="M208.604 188.338C208.604 189.681 207.515 190.77 206.172 190.77C204.829 190.77 203.74 189.681 203.74 188.338C203.74 186.995 204.829 185.906 206.172 185.906C207.515 185.906 208.604 186.995 208.604 188.338Z" fill="#35B2C2"/>
<path d="M204.821 195.904C204.821 197.247 203.732 198.336 202.389 198.336C201.046 198.336 199.957 197.247 199.957 195.904C199.957 194.561 201.046 193.472 202.389 193.472C203.732 193.472 204.821 194.561 204.821 195.904Z" fill="#35B2C2"/>
<path d="M200.498 202.93C200.498 204.273 199.409 205.361 198.066 205.361C196.723 205.361 195.634 204.273 195.634 202.93C195.634 201.586 196.723 200.498 198.066 200.498C199.409 200.498 200.498 201.586 200.498 202.93Z" fill="#35B2C2"/>
<path d="M195.634 209.415C195.634 210.758 194.545 211.847 193.202 211.847C191.859 211.847 190.77 210.758 190.77 209.415C190.77 208.072 191.859 206.983 193.202 206.983C194.545 206.983 195.634 208.072 195.634 209.415Z" fill="#35B2C2"/>
<path d="M189.689 214.819C189.689 216.162 188.6 217.251 187.257 217.251C185.914 217.251 184.825 216.162 184.825 214.819C184.825 213.476 185.914 212.387 187.257 212.387C188.6 212.387 189.689 213.476 189.689 214.819Z" fill="#35B2C2"/>
<path d="M183.204 219.683C183.204 221.026 182.115 222.115 180.772 222.115C179.429 222.115 178.34 221.026 178.34 219.683C178.34 218.34 179.429 217.251 180.772 217.251C182.115 217.251 183.204 218.34 183.204 219.683Z" fill="#35B2C2"/>
<path d="M175.638 224.006C175.638 225.349 174.549 226.438 173.206 226.438C171.863 226.438 170.774 225.349 170.774 224.006C170.774 222.663 171.863 221.574 173.206 221.574C174.549 221.574 175.638 222.663 175.638 224.006Z" fill="#35B2C2"/>
<path d="M168.072 226.708C168.072 228.051 166.983 229.14 165.64 229.14C164.297 229.14 163.208 228.051 163.208 226.708C163.208 225.365 164.297 224.276 165.64 224.276C166.983 224.276 168.072 225.365 168.072 226.708Z" fill="#35B2C2"/>
<path d="M160.506 228.87C160.506 230.213 159.417 231.302 158.074 231.302C156.731 231.302 155.642 230.213 155.642 228.87C155.642 227.527 156.731 226.438 158.074 226.438C159.417 226.438 160.506 227.527 160.506 228.87Z" fill="#35B2C2"/>
<path d="M143.753 230.491C143.753 231.834 142.664 232.923 141.321 232.923C139.978 232.923 138.889 231.834 138.889 230.491C138.889 229.148 139.978 228.059 141.321 228.059C142.664 228.059 143.753 229.148 143.753 230.491Z" fill="#35B2C2"/>
<path d="M135.647 229.41C135.647 230.753 134.558 231.842 133.215 231.842C131.872 231.842 130.783 230.753 130.783 229.41C130.783 228.067 131.872 226.978 133.215 226.978C134.558 226.978 135.647 228.067 135.647 229.41Z" fill="#35B2C2"/>
<path d="M127.54 227.789C127.54 229.132 126.451 230.221 125.108 230.221C123.765 230.221 122.676 229.132 122.676 227.789C122.676 226.446 123.765 225.357 125.108 225.357C126.451 225.357 127.54 226.446 127.54 227.789Z" fill="#35B2C2"/>
<path d="M119.434 224.547C119.434 225.89 118.345 226.978 117.002 226.978C115.659 226.978 114.57 225.89 114.57 224.547C114.57 223.203 115.659 222.115 117.002 222.115C118.345 222.115 119.434 223.203 119.434 224.547Z" fill="#35B2C2"/>
<path d="M111.868 220.764C111.868 222.107 110.779 223.195 109.436 223.195C108.093 223.195 107.004 222.107 107.004 220.764C107.004 219.42 108.093 218.332 109.436 218.332C110.779 218.332 111.868 219.42 111.868 220.764Z" fill="#35B2C2"/>
<path d="M104.302 216.44C104.302 217.783 103.213 218.872 101.87 218.872C100.527 218.872 99.4382 217.783 99.4382 216.44C99.4382 215.097 100.527 214.008 101.87 214.008C103.213 214.008 104.302 215.097 104.302 216.44Z" fill="#35B2C2"/>
<path d="M97.8169 211.036C97.8169 212.379 96.7281 213.468 95.385 213.468C94.0419 213.468 92.9531 212.379 92.9531 211.036C92.9531 209.693 94.0419 208.604 95.385 208.604C96.7281 208.604 97.8169 209.693 97.8169 211.036Z" fill="#35B2C2"/>
<path d="M91.8722 204.551C91.8722 205.894 90.7834 206.983 89.4403 206.983C88.0972 206.983 87.0084 205.894 87.0084 204.551C87.0084 203.208 88.0972 202.119 89.4403 202.119C90.7834 202.119 91.8722 203.208 91.8722 204.551Z" fill="#35B2C2"/>
<path d="M86.468 198.066C86.468 199.409 85.3792 200.498 84.0361 200.498C82.693 200.498 81.6042 199.409 81.6042 198.066C81.6042 196.723 82.693 195.634 84.0361 195.634C85.3792 195.634 86.468 196.723 86.468 198.066Z" fill="#35B2C2"/>
<path d="M81.6042 190.5C81.6042 191.843 80.5154 192.932 79.1722 192.932C77.8291 192.932 76.7403 191.843 76.7403 190.5C76.7403 189.157 77.8291 188.068 79.1722 188.068C80.5154 188.068 81.6042 189.157 81.6042 190.5Z" fill="#35B2C2"/>
<path d="M77.8212 182.393C77.8212 183.737 76.7324 184.825 75.3893 184.825C74.0462 184.825 72.9574 183.737 72.9574 182.393C72.9574 181.05 74.0462 179.961 75.3893 179.961C76.7324 179.961 77.8212 181.05 77.8212 182.393Z" fill="#35B2C2"/>
<path d="M75.1191 174.287C75.1191 175.63 74.0303 176.719 72.6871 176.719C71.344 176.719 70.2552 175.63 70.2552 174.287C70.2552 172.944 71.344 171.855 72.6871 171.855C74.0303 171.855 75.1191 172.944 75.1191 174.287Z" fill="#35B2C2"/>
<path d="M72.9574 165.64C72.9574 166.983 71.8686 168.072 70.5255 168.072C69.1823 168.072 68.0935 166.983 68.0935 165.64C68.0935 164.297 69.1823 163.208 70.5255 163.208C71.8686 163.208 72.9574 164.297 72.9574 165.64Z" fill="#35B2C2"/>
<path d="M71.8765 157.534C71.8765 158.877 70.7877 159.966 69.4446 159.966C68.1015 159.966 67.0127 158.877 67.0127 157.534C67.0127 156.191 68.1015 155.102 69.4446 155.102C70.7877 155.102 71.8765 156.191 71.8765 157.534Z" fill="#35B2C2"/>
<path d="M71.8765 148.887C71.8765 150.23 70.7877 151.319 69.4446 151.319C68.1015 151.319 67.0127 150.23 67.0127 148.887C67.0127 147.544 68.1015 146.455 69.4446 146.455C70.7877 146.455 71.8765 147.544 71.8765 148.887Z" fill="#35B2C2"/>
<path d="M72.4169 140.24C72.4169 141.583 71.3281 142.672 69.985 142.672C68.6419 142.672 67.5531 141.583 67.5531 140.24C67.5531 138.897 68.6419 137.808 69.985 137.808C71.3281 137.808 72.4169 138.897 72.4169 140.24Z" fill="#35B2C2"/>
<path d="M74.5786 131.593C74.5786 132.937 73.4898 134.025 72.1467 134.025C70.8036 134.025 69.7148 132.937 69.7148 131.593C69.7148 130.25 70.8036 129.162 72.1467 129.162C73.4898 129.162 74.5786 130.25 74.5786 131.593Z" fill="#35B2C2"/>
<path d="M152.4 229.951C152.4 231.294 151.311 232.383 149.968 232.383C148.625 232.383 147.536 231.294 147.536 229.951C147.536 228.608 148.625 227.519 149.968 227.519C151.311 227.519 152.4 228.608 152.4 229.951Z" fill="#35B2C2"/>
</svg>
