<svg width="144" height="49" viewBox="0 0 144 49" fill="none" xmlns="http://www.w3.org/2000/svg">
<path d="M38.3995 36.945C38.3459 37.2913 38.0561 37.534 37.7522 37.487C37.4484 37.44 37.2455 37.121 37.2991 36.7746C37.3528 36.4283 37.6425 36.1856 37.9464 36.2326C38.2502 36.2796 38.4531 36.5986 38.3995 36.945Z" fill="white"/>
<path d="M39.5501 34.9314C39.4964 35.2778 39.2067 35.5205 38.9028 35.4735C38.599 35.4264 38.3961 35.1075 38.4497 34.7611C38.5033 34.4147 38.7931 34.1721 39.097 34.2191C39.4008 34.2661 39.6037 34.5851 39.5501 34.9314Z" fill="white"/>
<path d="M40.5089 32.9179C40.4553 33.2643 40.1655 33.507 39.8616 33.4599C39.5578 33.4129 39.3549 33.094 39.4085 32.7476C39.4622 32.4012 39.7519 32.1585 40.0558 32.2056C40.3596 32.2526 40.5625 32.5715 40.5089 32.9179Z" fill="white"/>
<path d="M41.1801 30.7126C41.1264 31.059 40.8367 31.3017 40.5328 31.2547C40.229 31.2076 40.0261 30.8887 40.0797 30.5423C40.1333 30.1959 40.4231 29.9533 40.727 30.0003C41.0308 30.0473 41.2337 30.3663 41.1801 30.7126Z" fill="white"/>
<path d="M41.6595 28.5074C41.6058 28.8537 41.3161 29.0964 41.0122 29.0494C40.7084 29.0024 40.5055 28.6834 40.5591 28.337C40.6127 27.9907 40.9025 27.748 41.2064 27.795C41.5102 27.842 41.7131 28.161 41.6595 28.5074Z" fill="white"/>
<path d="M41.8512 26.3021C41.7976 26.6485 41.5078 26.8911 41.204 26.8441C40.9001 26.7971 40.6973 26.4781 40.7509 26.1318C40.8045 25.7854 41.0943 25.5427 41.3981 25.5897C41.702 25.6368 41.9048 25.9557 41.8512 26.3021Z" fill="white"/>
<path d="M41.9471 24.0009C41.8935 24.3473 41.6037 24.59 41.2999 24.5429C40.996 24.4959 40.7932 24.177 40.8468 23.8306C40.9004 23.4842 41.1902 23.2415 41.494 23.2886C41.7979 23.3356 42.0007 23.6545 41.9471 24.0009Z" fill="white"/>
<path d="M41.7553 21.7956C41.7017 22.142 41.412 22.3847 41.1081 22.3377C40.8043 22.2906 40.6014 21.9717 40.655 21.6253C40.7086 21.2789 40.9984 21.0363 41.3023 21.0833C41.6061 21.1303 41.809 21.4492 41.7553 21.7956Z" fill="white"/>
<path d="M41.2759 19.6862C41.2223 20.0326 40.9325 20.2753 40.6287 20.2283C40.3248 20.1812 40.122 19.8623 40.1756 19.5159C40.2292 19.1695 40.519 18.9269 40.8228 18.9739C41.1267 19.0209 41.3296 19.3398 41.2759 19.6862Z" fill="white"/>
<path d="M40.6048 17.5768C40.5511 17.9232 40.2614 18.1659 39.9575 18.1188C39.6537 18.0718 39.4508 17.7529 39.5044 17.4065C39.558 17.0601 39.8478 16.8174 40.1517 16.8645C40.4555 16.9115 40.6584 17.2304 40.6048 17.5768Z" fill="white"/>
<path d="M39.7418 15.6592C39.6882 16.0056 39.3984 16.2482 39.0946 16.2012C38.7907 16.1542 38.5879 15.8353 38.6415 15.4889C38.6951 15.1425 38.9849 14.8998 39.2887 14.9468C39.5926 14.9939 39.7954 15.3128 39.7418 15.6592Z" fill="white"/>
<path d="M38.6871 13.8374C38.6335 14.1838 38.3437 14.4265 38.0399 14.3795C37.736 14.3324 37.5332 14.0135 37.5868 13.6671C37.6404 13.3207 37.9302 13.0781 38.234 13.1251C38.5379 13.1721 38.7407 13.491 38.6871 13.8374Z" fill="white"/>
<path d="M37.4407 12.2074C37.387 12.5538 37.0973 12.7965 36.7934 12.7495C36.4896 12.7024 36.2867 12.3835 36.3403 12.0371C36.3939 11.6907 36.6837 11.4481 36.9876 11.4951C37.2914 11.5421 37.4943 11.8611 37.4407 12.2074Z" fill="white"/>
<path d="M36.0024 10.7692C35.9488 11.1156 35.659 11.3583 35.3552 11.3112C35.0513 11.2642 34.8485 10.9453 34.9021 10.5989C34.9557 10.2525 35.2455 10.0098 35.5493 10.0569C35.8532 10.1039 36.0561 10.4228 36.0024 10.7692Z" fill="white"/>
<path d="M34.3724 9.52275C34.3188 9.86913 34.029 10.1118 33.7252 10.0648C33.4213 10.0177 33.2185 9.69882 33.2721 9.35243C33.3257 9.00605 33.6155 8.76337 33.9194 8.81041C34.2232 8.85744 34.4261 9.17636 34.3724 9.52275Z" fill="white"/>
<path d="M32.6466 8.46805C32.593 8.81443 32.3032 9.0571 31.9993 9.01007C31.6955 8.96304 31.4926 8.64411 31.5462 8.29773C31.5999 7.95135 31.8896 7.70867 32.1935 7.75571C32.4973 7.80274 32.7002 8.12166 32.6466 8.46805Z" fill="white"/>
<path d="M30.8248 7.70099C30.7712 8.04738 30.4814 8.29005 30.1776 8.24302C29.8737 8.19599 29.6709 7.87706 29.7245 7.53068C29.7781 7.18429 30.0679 6.94162 30.3717 6.98865C30.6756 7.03568 30.8784 7.35461 30.8248 7.70099Z" fill="white"/>
<path d="M28.9072 7.22158C28.8536 7.56797 28.5638 7.81064 28.2599 7.76361C27.9561 7.71658 27.7532 7.39765 27.8068 7.05127C27.8605 6.70488 28.1502 6.46221 28.4541 6.50924C28.7579 6.55627 28.9608 6.8752 28.9072 7.22158Z" fill="white"/>
<path d="M26.8937 6.93394C26.84 7.28032 26.5503 7.52299 26.2464 7.47596C25.9426 7.42893 25.7397 7.11 25.7933 6.76362C25.8469 6.41724 26.1367 6.17456 26.4406 6.2216C26.7444 6.26863 26.9473 6.58755 26.8937 6.93394Z" fill="white"/>
<path d="M24.8801 6.93394C24.8265 7.28032 24.5367 7.52299 24.2329 7.47596C23.929 7.42893 23.7262 7.11 23.7798 6.76362C23.8334 6.41724 24.1232 6.17456 24.4271 6.2216C24.7309 6.26863 24.9338 6.58755 24.8801 6.93394Z" fill="white"/>
<path d="M22.9625 7.1257C22.9089 7.47209 22.6191 7.71476 22.3153 7.66773C22.0114 7.6207 21.8086 7.30177 21.8622 6.95538C21.9158 6.609 22.2056 6.36633 22.5094 6.41336C22.8133 6.46039 23.0161 6.77932 22.9625 7.1257Z" fill="white"/>
<path d="M20.949 7.60511C20.8954 7.9515 20.6056 8.19417 20.3017 8.14714C19.9979 8.1001 19.795 7.78118 19.8486 7.43479C19.9023 7.08841 20.192 6.84574 20.4959 6.89277C20.7997 6.9398 21.0026 7.25873 20.949 7.60511Z" fill="white"/>
<path d="M19.0313 8.37217C18.9777 8.71855 18.6879 8.96122 18.3841 8.91419C18.0802 8.86716 17.8774 8.54823 17.931 8.20185C17.9846 7.85546 18.2744 7.61279 18.5783 7.65982C18.8821 7.70685 19.085 8.02578 19.0313 8.37217Z" fill="white"/>
<path d="M17.2096 9.33098C17.156 9.67737 16.8662 9.92004 16.5623 9.87301C16.2585 9.82598 16.0556 9.50705 16.1093 9.16067C16.1629 8.81428 16.4527 8.57161 16.7565 8.61864C17.0604 8.66567 17.2632 8.9846 17.2096 9.33098Z" fill="white"/>
<path d="M15.3878 10.5774C15.3342 10.9238 15.0444 11.1665 14.7406 11.1195C14.4367 11.0724 14.2339 10.7535 14.2875 10.4071C14.3411 10.0607 14.6309 9.81807 14.9347 9.86511C15.2386 9.91214 15.4415 10.2311 15.3878 10.5774Z" fill="white"/>
<path d="M13.8537 12.0157C13.8001 12.3621 13.5103 12.6047 13.2065 12.5577C12.9026 12.5107 12.6998 12.1917 12.7534 11.8454C12.807 11.499 13.0968 11.2563 13.4006 11.3033C13.7045 11.3504 13.9073 11.6693 13.8537 12.0157Z" fill="white"/>
<path d="M12.3196 13.6457C12.266 13.9921 11.9762 14.2347 11.6724 14.1877C11.3685 14.1407 11.1657 13.8217 11.2193 13.4754C11.2729 13.129 11.5627 12.8863 11.8665 12.9333C12.1704 12.9804 12.3732 13.2993 12.3196 13.6457Z" fill="white"/>
<path d="M10.9773 15.4674C10.9237 15.8138 10.6339 16.0565 10.33 16.0094C10.0262 15.9624 9.82332 15.6435 9.87693 15.2971C9.93055 14.9507 10.2203 14.708 10.5242 14.7551C10.828 14.8021 11.0309 15.121 10.9773 15.4674Z" fill="white"/>
<path d="M9.92257 17.4809C9.86895 17.8273 9.57917 18.07 9.27532 18.023C8.97147 17.9759 8.76862 17.657 8.82223 17.3106C8.87585 16.9642 9.16563 16.7216 9.46948 16.7686C9.77333 16.8156 9.97619 17.1346 9.92257 17.4809Z" fill="white"/>
<path d="M9.05963 19.4945C9.00602 19.8408 8.71624 20.0835 8.41239 20.0365C8.10854 19.9895 7.90568 19.6705 7.9593 19.3241C8.01291 18.9778 8.3027 18.7351 8.60655 18.7821C8.91039 18.8292 9.11325 19.1481 9.05963 19.4945Z" fill="white"/>
<path d="M8.29258 21.6039C8.23896 21.9502 7.94918 22.1929 7.64533 22.1459C7.34148 22.0989 7.13863 21.7799 7.19224 21.4335C7.24586 21.0872 7.53564 20.8445 7.83949 20.8915C8.14334 20.9386 8.34619 21.2575 8.29258 21.6039Z" fill="white"/>
<path d="M7.81317 23.8091C7.75955 24.1555 7.46977 24.3982 7.16592 24.3512C6.86207 24.3041 6.65922 23.9852 6.71283 23.6388C6.76645 23.2924 7.05623 23.0498 7.36008 23.0968C7.66393 23.1438 7.86678 23.4628 7.81317 23.8091Z" fill="white"/>
<path d="M7.52552 26.1103C7.47191 26.4567 7.18213 26.6994 6.87828 26.6523C6.57443 26.6053 6.37157 26.2864 6.42519 25.94C6.4788 25.5936 6.76859 25.3509 7.07243 25.398C7.37628 25.445 7.57914 25.7639 7.52552 26.1103Z" fill="white"/>
<path d="M7.52552 28.4115C7.47191 28.7579 7.18213 29.0005 6.87828 28.9535C6.57443 28.9065 6.37157 28.5875 6.42519 28.2412C6.4788 27.8948 6.76859 27.6521 7.07243 27.6991C7.37628 27.7462 7.57914 28.0651 7.52552 28.4115Z" fill="white"/>
<path d="M7.71729 30.6168C7.66367 30.9631 7.37389 31.2058 7.07004 31.1588C6.76619 31.1118 6.56334 30.7928 6.61695 30.4464C6.67057 30.1001 6.96035 29.8574 7.2642 29.9044C7.56805 29.9514 7.7709 30.2704 7.71729 30.6168Z" fill="white"/>
<path d="M8.1967 32.822C8.14308 33.1684 7.8533 33.4111 7.54945 33.3641C7.2456 33.317 7.04274 32.9981 7.09636 32.6517C7.14998 32.3053 7.43976 32.0627 7.74361 32.1097C8.04746 32.1567 8.25031 32.4757 8.1967 32.822Z" fill="white"/>
<path d="M8.86787 34.7397C8.81425 35.0861 8.52447 35.3287 8.22062 35.2817C7.91677 35.2347 7.71392 34.9157 7.76753 34.5694C7.82115 34.223 8.11093 33.9803 8.41478 34.0273C8.71863 34.0744 8.92149 34.3933 8.86787 34.7397Z" fill="white"/>
<path d="M9.73081 36.7532C9.67719 37.0996 9.38741 37.3423 9.08356 37.2952C8.77971 37.2482 8.57685 36.9293 8.63047 36.5829C8.68409 36.2365 8.97387 35.9938 9.27772 36.0409C9.58157 36.0879 9.78442 36.4068 9.73081 36.7532Z" fill="white"/>
<path d="M10.7855 38.575C10.7319 38.9213 10.4421 39.164 10.1383 39.117C9.83441 39.0699 9.63155 38.751 9.68517 38.4046C9.73879 38.0582 10.0286 37.8156 10.3324 37.8626C10.6363 37.9096 10.8391 38.2286 10.7855 38.575Z" fill="white"/>
<path d="M12.032 40.2049C11.9784 40.5513 11.6886 40.794 11.3847 40.747C11.0809 40.6999 10.878 40.381 10.9316 40.0346C10.9852 39.6882 11.275 39.4456 11.5789 39.4926C11.8827 39.5396 12.0856 39.8586 12.032 40.2049Z" fill="white"/>
<path d="M13.5661 41.6432C13.5125 41.9896 13.2227 42.2322 12.9188 42.1852C12.615 42.1382 12.4121 41.8192 12.4657 41.4729C12.5194 41.1265 12.8091 40.8838 13.113 40.9308C13.4168 40.9779 13.6197 41.2968 13.5661 41.6432Z" fill="white"/>
<path d="M15.1002 42.8896C15.0466 43.236 14.7568 43.4787 14.4529 43.4317C14.1491 43.3846 13.9462 43.0657 13.9999 42.7193C14.0535 42.3729 14.3433 42.1303 14.6471 42.1773C14.951 42.2243 15.1538 42.5433 15.1002 42.8896Z" fill="white"/>
<path d="M16.8261 43.9443C16.7724 44.2907 16.4827 44.5334 16.1788 44.4864C15.875 44.4393 15.6721 44.1204 15.7257 43.774C15.7793 43.4276 16.0691 43.185 16.373 43.232C16.6768 43.279 16.8797 43.598 16.8261 43.9443Z" fill="white"/>
<path d="M18.6478 44.7114C18.5942 45.0578 18.3044 45.3004 18.0006 45.2534C17.6967 45.2064 17.4939 44.8875 17.5475 44.5411C17.6011 44.1947 17.8909 43.952 18.1947 43.999C18.4986 44.0461 18.7014 44.365 18.6478 44.7114Z" fill="white"/>
<path d="M20.5655 45.1908C20.5118 45.5372 20.2221 45.7799 19.9182 45.7328C19.6144 45.6858 19.4115 45.3669 19.4651 45.0205C19.5187 44.6741 19.8085 44.4314 20.1124 44.4785C20.4162 44.5255 20.6191 44.8444 20.5655 45.1908Z" fill="white"/>
<path d="M22.579 45.4784C22.5254 45.8248 22.2356 46.0675 21.9317 46.0205C21.6279 45.9734 21.425 45.6545 21.4786 45.3081C21.5323 44.9617 21.822 44.7191 22.1259 44.7661C22.4297 44.8131 22.6326 45.1321 22.579 45.4784Z" fill="white"/>
<path d="M24.4966 45.4784C24.443 45.8248 24.1532 46.0675 23.8494 46.0205C23.5455 45.9734 23.3427 45.6545 23.3963 45.3081C23.4499 44.9617 23.7397 44.7191 24.0435 44.7661C24.3474 44.8131 24.5502 45.1321 24.4966 45.4784Z" fill="white"/>
<path d="M26.5101 45.2867C26.4565 45.6331 26.1667 45.8757 25.8629 45.8287C25.559 45.7817 25.3562 45.4628 25.4098 45.1164C25.4634 44.77 25.7532 44.5273 26.057 44.5743C26.3609 44.6214 26.5637 44.9403 26.5101 45.2867Z" fill="white"/>
<path d="M28.5237 44.8073C28.47 45.1537 28.1803 45.3963 27.8764 45.3493C27.5726 45.3023 27.3697 44.9833 27.4233 44.637C27.4769 44.2906 27.7667 44.0479 28.0706 44.0949C28.3744 44.142 28.5773 44.4609 28.5237 44.8073Z" fill="white"/>
<path d="M30.4413 44.0402C30.3877 44.3866 30.0979 44.6293 29.794 44.5822C29.4902 44.5352 29.2873 44.2163 29.3409 43.8699C29.3946 43.5235 29.6843 43.2808 29.9882 43.3279C30.292 43.3749 30.4949 43.6938 30.4413 44.0402Z" fill="white"/>
<path d="M32.263 42.9855C32.2094 43.3319 31.9196 43.5746 31.6158 43.5275C31.3119 43.4805 31.1091 43.1616 31.1627 42.8152C31.2163 42.4688 31.5061 42.2261 31.81 42.2732C32.1138 42.3202 32.3167 42.6391 32.263 42.9855Z" fill="white"/>
<path d="M33.9889 41.7391C33.9353 42.0854 33.6455 42.3281 33.3417 42.2811C33.0378 42.234 32.835 41.9151 32.8886 41.5687C32.9422 41.2224 33.232 40.9797 33.5358 41.0267C33.8397 41.0737 34.0425 41.3927 33.9889 41.7391Z" fill="white"/>
<path d="M35.6189 40.3008C35.5653 40.6472 35.2755 40.8899 34.9717 40.8429C34.6678 40.7958 34.465 40.4769 34.5186 40.1305C34.5722 39.7841 34.862 39.5415 35.1658 39.5885C35.4697 39.6355 35.6725 39.9544 35.6189 40.3008Z" fill="white"/>
<path d="M37.153 38.7667C37.0994 39.1131 36.8096 39.3558 36.5058 39.3087C36.2019 39.2617 35.9991 38.9428 36.0527 38.5964C36.1063 38.25 36.3961 38.0073 36.6999 38.0544C37.0038 38.1014 37.2066 38.4203 37.153 38.7667Z" fill="white"/>
<path d="M18.5052 47.2218C18.5052 47.6719 18.1403 48.0368 17.6902 48.0368C17.2401 48.0368 16.8752 47.6719 16.8752 47.2218C16.8752 46.7717 17.2401 46.4068 17.6902 46.4068C18.1403 46.4068 18.5052 46.7717 18.5052 47.2218Z" fill="white"/>
<path d="M21.1899 47.7971C21.1899 48.2472 20.825 48.6121 20.3749 48.6121C19.9248 48.6121 19.5599 48.2472 19.5599 47.7971C19.5599 47.347 19.9248 46.9821 20.3749 46.9821C20.825 46.9821 21.1899 47.347 21.1899 47.7971Z" fill="white"/>
<path d="M23.8746 48.0848C23.8746 48.5349 23.5097 48.8997 23.0596 48.8997C22.6095 48.8997 22.2446 48.5349 22.2446 48.0848C22.2446 47.6346 22.6095 47.2698 23.0596 47.2698C23.5097 47.2698 23.8746 47.6346 23.8746 48.0848Z" fill="white"/>
<path d="M26.751 48.0848C26.751 48.5349 26.3862 48.8997 25.936 48.8997C25.4859 48.8997 25.121 48.5349 25.121 48.0848C25.121 47.6346 25.4859 47.2698 25.936 47.2698C26.3862 47.2698 26.751 47.6346 26.751 48.0848Z" fill="white"/>
<path d="M29.4357 47.7971C29.4357 48.2472 29.0708 48.6121 28.6207 48.6121C28.1706 48.6121 27.8057 48.2472 27.8057 47.7971C27.8057 47.347 28.1706 46.9821 28.6207 46.9821C29.0708 46.9821 29.4357 47.347 29.4357 47.7971Z" fill="white"/>
<path d="M32.1204 47.2218C32.1204 47.6719 31.7555 48.0368 31.3054 48.0368C30.8553 48.0368 30.4904 47.6719 30.4904 47.2218C30.4904 46.7717 30.8553 46.4068 31.3054 46.4068C31.7555 46.4068 32.1204 46.7717 32.1204 47.2218Z" fill="white"/>
<path d="M34.7092 46.1671C34.7092 46.6172 34.3443 46.9821 33.8942 46.9821C33.4441 46.9821 33.0792 46.6172 33.0792 46.1671C33.0792 45.717 33.4441 45.3521 33.8942 45.3521C34.3443 45.3521 34.7092 45.717 34.7092 46.1671Z" fill="white"/>
<path d="M37.2022 45.0165C37.2022 45.4666 36.8373 45.8315 36.3872 45.8315C35.9371 45.8315 35.5722 45.4666 35.5722 45.0165C35.5722 44.5664 35.9371 44.2015 36.3872 44.2015C36.8373 44.2015 37.2022 44.5664 37.2022 45.0165Z" fill="white"/>
<path d="M39.5033 43.3865C39.5033 43.8367 39.1384 44.2015 38.6883 44.2015C38.2382 44.2015 37.8733 43.8367 37.8733 43.3865C37.8733 42.9364 38.2382 42.5715 38.6883 42.5715C39.1384 42.5715 39.5033 42.9364 39.5033 43.3865Z" fill="white"/>
<path d="M41.6127 41.7566C41.6127 42.2067 41.2478 42.5715 40.7977 42.5715C40.3476 42.5715 39.9827 42.2067 39.9827 41.7566C39.9827 41.3064 40.3476 40.9416 40.7977 40.9416C41.2478 40.9416 41.6127 41.3064 41.6127 41.7566Z" fill="white"/>
<path d="M43.5304 39.6472C43.5304 40.0973 43.1655 40.4621 42.7154 40.4621C42.2653 40.4621 41.9004 40.0973 41.9004 39.6472C41.9004 39.197 42.2653 38.8322 42.7154 38.8322C43.1655 38.8322 43.5304 39.197 43.5304 39.6472Z" fill="white"/>
<path d="M45.1604 37.4419C45.1604 37.892 44.7955 38.2569 44.3454 38.2569C43.8952 38.2569 43.5304 37.892 43.5304 37.4419C43.5304 36.9918 43.8952 36.6269 44.3454 36.6269C44.7955 36.6269 45.1604 36.9918 45.1604 37.4419Z" fill="white"/>
<path d="M46.5027 35.0448C46.5027 35.4949 46.1378 35.8598 45.6877 35.8598C45.2376 35.8598 44.8727 35.4949 44.8727 35.0448C44.8727 34.5947 45.2376 34.2298 45.6877 34.2298C46.1378 34.2298 46.5027 34.5947 46.5027 35.0448Z" fill="white"/>
<path d="M47.6533 32.5519C47.6533 33.002 47.2884 33.3669 46.8383 33.3669C46.3882 33.3669 46.0233 33.002 46.0233 32.5519C46.0233 32.1018 46.3882 31.7369 46.8383 31.7369C47.2884 31.7369 47.6533 32.1018 47.6533 32.5519Z" fill="white"/>
<path d="M48.4203 29.9631C48.4203 30.4132 48.0555 30.7781 47.6053 30.7781C47.1552 30.7781 46.7903 30.4132 46.7903 29.9631C46.7903 29.513 47.1552 29.1481 47.6053 29.1481C48.0555 29.1481 48.4203 29.513 48.4203 29.9631Z" fill="white"/>
<path d="M48.8997 27.1825C48.8997 27.6326 48.5349 27.9975 48.0848 27.9975C47.6346 27.9975 47.2698 27.6326 47.2698 27.1825C47.2698 26.7324 47.6346 26.3675 48.0848 26.3675C48.5349 26.3675 48.8997 26.7324 48.8997 27.1825Z" fill="white"/>
<path d="M48.8997 24.4019C48.8997 24.852 48.5349 25.2169 48.0848 25.2169C47.6346 25.2169 47.2698 24.852 47.2698 24.4019C47.2698 23.9518 47.6346 23.5869 48.0848 23.5869C48.5349 23.5869 48.8997 23.9518 48.8997 24.4019Z" fill="white"/>
<path d="M48.8997 21.6214C48.8997 22.0715 48.5349 22.4364 48.0848 22.4364C47.6346 22.4364 47.2698 22.0715 47.2698 21.6214C47.2698 21.1713 47.6346 20.8064 48.0848 20.8064C48.5349 20.8064 48.8997 21.1713 48.8997 21.6214Z" fill="white"/>
<path d="M48.4203 19.0325C48.4203 19.4827 48.0555 19.8475 47.6053 19.8475C47.1552 19.8475 46.7903 19.4827 46.7903 19.0325C46.7903 18.5824 47.1552 18.2176 47.6053 18.2176C48.0555 18.2176 48.4203 18.5824 48.4203 19.0325Z" fill="white"/>
<path d="M47.6533 16.252C47.6533 16.7021 47.2884 17.067 46.8383 17.067C46.3882 17.067 46.0233 16.7021 46.0233 16.252C46.0233 15.8019 46.3882 15.437 46.8383 15.437C47.2884 15.437 47.6533 15.8019 47.6533 16.252Z" fill="white"/>
<path d="M46.5027 13.8549C46.5027 14.305 46.1378 14.6699 45.6877 14.6699C45.2376 14.6699 44.8727 14.305 44.8727 13.8549C44.8727 13.4048 45.2376 13.0399 45.6877 13.0399C46.1378 13.0399 46.5027 13.4048 46.5027 13.8549Z" fill="white"/>
<path d="M45.1604 11.4579C45.1604 11.908 44.7955 12.2729 44.3454 12.2729C43.8952 12.2729 43.5304 11.908 43.5304 11.4579C43.5304 11.0078 43.8952 10.6429 44.3454 10.6429C44.7955 10.6429 45.1604 11.0078 45.1604 11.4579Z" fill="white"/>
<path d="M43.5304 9.34848C43.5304 9.79859 43.1655 10.1635 42.7154 10.1635C42.2653 10.1635 41.9004 9.79859 41.9004 9.34848C41.9004 8.89837 42.2653 8.53349 42.7154 8.53349C43.1655 8.53349 43.5304 8.89837 43.5304 9.34848Z" fill="white"/>
<path d="M41.5168 7.1432C41.5168 7.59331 41.152 7.95819 40.7019 7.95819C40.2517 7.95819 39.8869 7.59331 39.8869 7.1432C39.8869 6.69309 40.2517 6.3282 40.7019 6.3282C41.152 6.3282 41.5168 6.69309 41.5168 7.1432Z" fill="white"/>
<path d="M39.5033 5.51321C39.5033 5.96332 39.1384 6.3282 38.6883 6.3282C38.2382 6.3282 37.8733 5.96332 37.8733 5.51321C37.8733 5.0631 38.2382 4.69821 38.6883 4.69821C39.1384 4.69821 39.5033 5.0631 39.5033 5.51321Z" fill="white"/>
<path d="M37.2022 3.88322C37.2022 4.33333 36.8373 4.69821 36.3872 4.69821C35.9371 4.69821 35.5722 4.33333 35.5722 3.88322C35.5722 3.43311 35.9371 3.06822 36.3872 3.06822C36.8373 3.06822 37.2022 3.43311 37.2022 3.88322Z" fill="white"/>
<path d="M34.8051 2.73263C34.8051 3.18274 34.4402 3.54763 33.9901 3.54763C33.54 3.54763 33.1751 3.18274 33.1751 2.73263C33.1751 2.28252 33.54 1.91764 33.9901 1.91764C34.4402 1.91764 34.8051 2.28252 34.8051 2.73263Z" fill="white"/>
<path d="M32.1204 1.67793C32.1204 2.12804 31.7555 2.49293 31.3054 2.49293C30.8553 2.49293 30.4904 2.12804 30.4904 1.67793C30.4904 1.22782 30.8553 0.862937 31.3054 0.862937C31.7555 0.862937 32.1204 1.22782 32.1204 1.67793Z" fill="white"/>
<path d="M29.5316 1.10264C29.5316 1.55275 29.1667 1.91764 28.7166 1.91764C28.2665 1.91764 27.9016 1.55275 27.9016 1.10264C27.9016 0.652532 28.2665 0.287646 28.7166 0.287646C29.1667 0.287646 29.5316 0.652532 29.5316 1.10264Z" fill="white"/>
<path d="M26.6552 0.814996C26.6552 1.26511 26.2903 1.62999 25.8402 1.62999C25.3901 1.62999 25.0252 1.26511 25.0252 0.814996C25.0252 0.364886 25.3901 0 25.8402 0C26.2903 0 26.6552 0.364886 26.6552 0.814996Z" fill="white"/>
<path d="M24.0663 0.814996C24.0663 1.26511 23.7015 1.62999 23.2514 1.62999C22.8012 1.62999 22.4364 1.26511 22.4364 0.814996C22.4364 0.364886 22.8012 0 23.2514 0C23.7015 0 24.0663 0.364886 24.0663 0.814996Z" fill="white"/>
<path d="M21.1899 1.10264C21.1899 1.55275 20.825 1.91764 20.3749 1.91764C19.9248 1.91764 19.5599 1.55275 19.5599 1.10264C19.5599 0.652532 19.9248 0.287646 20.3749 0.287646C20.825 0.287646 21.1899 0.652532 21.1899 1.10264Z" fill="white"/>
<path d="M18.5052 1.67793C18.5052 2.12804 18.1403 2.49293 17.6902 2.49293C17.2401 2.49293 16.8752 2.12804 16.8752 1.67793C16.8752 1.22782 17.2401 0.862937 17.6902 0.862937C18.1403 0.862937 18.5052 1.22782 18.5052 1.67793Z" fill="white"/>
<path d="M16.0123 2.73263C16.0123 3.18274 15.6474 3.54763 15.1973 3.54763C14.7472 3.54763 14.3823 3.18274 14.3823 2.73263C14.3823 2.28252 14.7472 1.91764 15.1973 1.91764C15.6474 1.91764 16.0123 2.28252 16.0123 2.73263Z" fill="white"/>
<path d="M13.4235 3.9791C13.4235 4.42921 13.0586 4.79409 12.6085 4.79409C12.1584 4.79409 11.7935 4.42921 11.7935 3.9791C11.7935 3.52899 12.1584 3.1641 12.6085 3.1641C13.0586 3.1641 13.4235 3.52899 13.4235 3.9791Z" fill="white"/>
<path d="M11.1223 5.41733C11.1223 5.86743 10.7574 6.23232 10.3073 6.23232C9.85719 6.23232 9.4923 5.86743 9.4923 5.41733C9.4923 4.96722 9.85719 4.60233 10.3073 4.60233C10.7574 4.60233 11.1223 4.96722 11.1223 5.41733Z" fill="white"/>
<path d="M9.01289 7.23908C9.01289 7.68919 8.64801 8.05408 8.1979 8.05408C7.74779 8.05408 7.3829 7.68919 7.3829 7.23908C7.3829 6.78897 7.74779 6.42408 8.1979 6.42408C8.64801 6.42408 9.01289 6.78897 9.01289 7.23908Z" fill="white"/>
<path d="M7.19114 9.2526C7.19114 9.70271 6.82625 10.0676 6.37614 10.0676C5.92603 10.0676 5.56115 9.70271 5.56115 9.2526C5.56115 8.80249 5.92603 8.4376 6.37614 8.4376C6.82625 8.4376 7.19114 8.80249 7.19114 9.2526Z" fill="white"/>
<path d="M5.56115 11.4579C5.56115 11.908 5.19626 12.2729 4.74615 12.2729C4.29604 12.2729 3.93116 11.908 3.93116 11.4579C3.93116 11.0078 4.29604 10.6429 4.74615 10.6429C5.19626 10.6429 5.56115 11.0078 5.56115 11.4579Z" fill="white"/>
<path d="M4.12292 13.8549C4.12292 14.305 3.75803 14.6699 3.30792 14.6699C2.85781 14.6699 2.49293 14.305 2.49293 13.8549C2.49293 13.4048 2.85781 13.0399 3.30792 13.0399C3.75803 13.0399 4.12292 13.4048 4.12292 13.8549Z" fill="white"/>
<path d="M2.97234 16.3479C2.97234 16.798 2.60745 17.1629 2.15734 17.1629C1.70723 17.1629 1.34235 16.798 1.34235 16.3479C1.34235 15.8977 1.70723 15.5329 2.15734 15.5329C2.60745 15.5329 2.97234 15.8977 2.97234 16.3479Z" fill="white"/>
<path d="M2.20528 18.9367C2.20528 19.3868 1.8404 19.7517 1.39029 19.7517C0.940177 19.7517 0.575291 19.3868 0.575291 18.9367C0.575291 18.4866 0.940177 18.1217 1.39029 18.1217C1.8404 18.1217 2.20528 18.4866 2.20528 18.9367Z" fill="white"/>
<path d="M1.82176 21.8131C1.82176 22.2632 1.45687 22.6281 1.00676 22.6281C0.55665 22.6281 0.191764 22.2632 0.191764 21.8131C0.191764 21.363 0.55665 20.9981 1.00676 20.9981C1.45687 20.9981 1.82176 21.363 1.82176 21.8131Z" fill="white"/>
<path d="M1.62999 24.5937C1.62999 25.0438 1.26511 25.4087 0.814996 25.4087C0.364886 25.4087 0 25.0438 0 24.5937C0 24.1436 0.364886 23.7787 0.814996 23.7787C1.26511 23.7787 1.62999 24.1436 1.62999 24.5937Z" fill="white"/>
<path d="M1.82176 27.1825C1.82176 27.6326 1.45687 27.9975 1.00676 27.9975C0.55665 27.9975 0.191764 27.6326 0.191764 27.1825C0.191764 26.7324 0.55665 26.3675 1.00676 26.3675C1.45687 26.3675 1.82176 26.7324 1.82176 27.1825Z" fill="white"/>
<path d="M2.20528 29.9631C2.20528 30.4132 1.8404 30.7781 1.39029 30.7781C0.940177 30.7781 0.575291 30.4132 0.575291 29.9631C0.575291 29.513 0.940177 29.1481 1.39029 29.1481C1.8404 29.1481 2.20528 29.513 2.20528 29.9631Z" fill="white"/>
<path d="M3.06822 32.5519C3.06822 33.002 2.70333 33.3669 2.25322 33.3669C1.80311 33.3669 1.43823 33.002 1.43823 32.5519C1.43823 32.1018 1.80311 31.7369 2.25322 31.7369C2.70333 31.7369 3.06822 32.1018 3.06822 32.5519Z" fill="white"/>
<path d="M4.12292 35.0448C4.12292 35.4949 3.75803 35.8598 3.30792 35.8598C2.85781 35.8598 2.49293 35.4949 2.49293 35.0448C2.49293 34.5947 2.85781 34.2298 3.30792 34.2298C3.75803 34.2298 4.12292 34.5947 4.12292 35.0448Z" fill="white"/>
<path d="M5.56115 37.4419C5.56115 37.892 5.19626 38.2569 4.74615 38.2569C4.29604 38.2569 3.93116 37.892 3.93116 37.4419C3.93116 36.9918 4.29604 36.6269 4.74615 36.6269C5.19626 36.6269 5.56115 36.9918 5.56115 37.4419Z" fill="white"/>
<path d="M7.19114 39.6472C7.19114 40.0973 6.82625 40.4621 6.37614 40.4621C5.92603 40.4621 5.56115 40.0973 5.56115 39.6472C5.56115 39.197 5.92603 38.8322 6.37614 38.8322C6.82625 38.8322 7.19114 39.197 7.19114 39.6472Z" fill="white"/>
<path d="M9.10878 41.7566C9.10878 42.2067 8.74389 42.5715 8.29378 42.5715C7.84367 42.5715 7.47879 42.2067 7.47879 41.7566C7.47879 41.3064 7.84367 40.9416 8.29378 40.9416C8.74389 40.9416 9.10878 41.3064 9.10878 41.7566Z" fill="white"/>
<path d="M11.1223 43.3865C11.1223 43.8367 10.7574 44.2015 10.3073 44.2015C9.85719 44.2015 9.4923 43.8367 9.4923 43.3865C9.4923 42.9364 9.85719 42.5715 10.3073 42.5715C10.7574 42.5715 11.1223 42.9364 11.1223 43.3865Z" fill="white"/>
<path d="M13.4235 45.0165C13.4235 45.4666 13.0586 45.8315 12.6085 45.8315C12.1584 45.8315 11.7935 45.4666 11.7935 45.0165C11.7935 44.5664 12.1584 44.2015 12.6085 44.2015C13.0586 44.2015 13.4235 44.5664 13.4235 45.0165Z" fill="white"/>
<path d="M16.0123 46.1671C16.0123 46.6172 15.6474 46.9821 15.1973 46.9821C14.7472 46.9821 14.3823 46.6172 14.3823 46.1671C14.3823 45.717 14.7472 45.3521 15.1973 45.3521C15.6474 45.3521 16.0123 45.717 16.0123 46.1671Z" fill="white"/>
<path d="M13.7111 22.0049C13.7111 22.2432 13.5179 22.4364 13.2796 22.4364C13.0413 22.4364 12.8482 22.2432 12.8482 22.0049C12.8482 21.7666 13.0413 21.5734 13.2796 21.5734C13.5179 21.5734 13.7111 21.7666 13.7111 22.0049Z" fill="white"/>
<path d="M14.2864 20.6625C14.2864 20.9008 14.0932 21.094 13.8549 21.094C13.6166 21.094 13.4235 20.9008 13.4235 20.6625C13.4235 20.4242 13.6166 20.2311 13.8549 20.2311C14.0932 20.2311 14.2864 20.4242 14.2864 20.6625Z" fill="white"/>
<path d="M15.1493 19.4161C15.1493 19.6544 14.9562 19.8475 14.7179 19.8475C14.4796 19.8475 14.2864 19.6544 14.2864 19.4161C14.2864 19.1778 14.4796 18.9846 14.7179 18.9846C14.9562 18.9846 15.1493 19.1778 15.1493 19.4161Z" fill="white"/>
<path d="M16.0123 18.2655C16.0123 18.5038 15.8191 18.697 15.5808 18.697C15.3425 18.697 15.1493 18.5038 15.1493 18.2655C15.1493 18.0272 15.3425 17.834 15.5808 17.834C15.8191 17.834 16.0123 18.0272 16.0123 18.2655Z" fill="white"/>
<path d="M17.067 17.3067C17.067 17.545 16.8738 17.7381 16.6355 17.7381C16.3972 17.7381 16.204 17.545 16.204 17.3067C16.204 17.0684 16.3972 16.8752 16.6355 16.8752C16.8738 16.8752 17.067 17.0684 17.067 17.3067Z" fill="white"/>
<path d="M18.2176 16.4437C18.2176 16.682 18.0244 16.8752 17.7861 16.8752C17.5478 16.8752 17.3546 16.682 17.3546 16.4437C17.3546 16.2054 17.5478 16.0123 17.7861 16.0123C18.0244 16.0123 18.2176 16.2054 18.2176 16.4437Z" fill="white"/>
<path d="M19.5599 15.6767C19.5599 15.915 19.3667 16.1082 19.1284 16.1082C18.8901 16.1082 18.697 15.915 18.697 15.6767C18.697 15.4384 18.8901 15.2452 19.1284 15.2452C19.3667 15.2452 19.5599 15.4384 19.5599 15.6767Z" fill="white"/>
<path d="M20.9022 15.1973C20.9022 15.4356 20.7091 15.6287 20.4708 15.6287C20.2325 15.6287 20.0393 15.4356 20.0393 15.1973C20.0393 14.959 20.2325 14.7658 20.4708 14.7658C20.7091 14.7658 20.9022 14.959 20.9022 15.1973Z" fill="white"/>
<path d="M22.2446 14.8137C22.2446 15.052 22.0514 15.2452 21.8131 15.2452C21.5748 15.2452 21.3817 15.052 21.3817 14.8137C21.3817 14.5755 21.5748 14.3823 21.8131 14.3823C22.0514 14.3823 22.2446 14.5755 22.2446 14.8137Z" fill="white"/>
<path d="M23.7787 14.622C23.7787 14.8603 23.5855 15.0535 23.3472 15.0535C23.1089 15.0535 22.9158 14.8603 22.9158 14.622C22.9158 14.3837 23.1089 14.1905 23.3472 14.1905C23.5855 14.1905 23.7787 14.3837 23.7787 14.622Z" fill="white"/>
<path d="M25.2169 14.5261C25.2169 14.7644 25.0238 14.9576 24.7855 14.9576C24.5472 14.9576 24.354 14.7644 24.354 14.5261C24.354 14.2878 24.5472 14.0946 24.7855 14.0946C25.0238 14.0946 25.2169 14.2878 25.2169 14.5261Z" fill="white"/>
<path d="M26.6552 14.7179C26.6552 14.9562 26.462 15.1493 26.2237 15.1493C25.9854 15.1493 25.7922 14.9562 25.7922 14.7179C25.7922 14.4796 25.9854 14.2864 26.2237 14.2864C26.462 14.2864 26.6552 14.4796 26.6552 14.7179Z" fill="white"/>
<path d="M28.0934 15.0055C28.0934 15.2438 27.9002 15.437 27.6619 15.437C27.4236 15.437 27.2304 15.2438 27.2304 15.0055C27.2304 14.7672 27.4236 14.574 27.6619 14.574C27.9002 14.574 28.0934 14.7672 28.0934 15.0055Z" fill="white"/>
<path d="M29.5316 15.4849C29.5316 15.7232 29.3384 15.9164 29.1001 15.9164C28.8619 15.9164 28.6687 15.7232 28.6687 15.4849C28.6687 15.2466 28.8619 15.0535 29.1001 15.0535C29.3384 15.0535 29.5316 15.2466 29.5316 15.4849Z" fill="white"/>
<path d="M30.874 16.252C30.874 16.4903 30.6808 16.6834 30.4425 16.6834C30.2042 16.6834 30.011 16.4903 30.011 16.252C30.011 16.0137 30.2042 15.8205 30.4425 15.8205C30.6808 15.8205 30.874 16.0137 30.874 16.252Z" fill="white"/>
<path d="M32.1204 17.019C32.1204 17.2573 31.9272 17.4505 31.689 17.4505C31.4507 17.4505 31.2575 17.2573 31.2575 17.019C31.2575 16.7807 31.4507 16.5876 31.689 16.5876C31.9272 16.5876 32.1204 16.7807 32.1204 17.019Z" fill="white"/>
<path d="M33.3669 17.9778C33.3669 18.2161 33.1737 18.4093 32.9354 18.4093C32.6971 18.4093 32.504 18.2161 32.504 17.9778C32.504 17.7396 32.6971 17.5464 32.9354 17.5464C33.1737 17.5464 33.3669 17.7396 33.3669 17.9778Z" fill="white"/>
<path d="M34.4216 19.0325C34.4216 19.2708 34.2284 19.464 33.9901 19.464C33.7518 19.464 33.5587 19.2708 33.5587 19.0325C33.5587 18.7943 33.7518 18.6011 33.9901 18.6011C34.2284 18.6011 34.4216 18.7943 34.4216 19.0325Z" fill="white"/>
<path d="M35.3804 20.279C35.3804 20.5173 35.1872 20.7105 34.9489 20.7105C34.7106 20.7105 34.5175 20.5173 34.5175 20.279C34.5175 20.0407 34.7106 19.8475 34.9489 19.8475C35.1872 19.8475 35.3804 20.0407 35.3804 20.279Z" fill="white"/>
<path d="M36.2433 21.6214C36.2433 21.8597 36.0502 22.0528 35.8119 22.0528C35.5736 22.0528 35.3804 21.8597 35.3804 21.6214C35.3804 21.3831 35.5736 21.1899 35.8119 21.1899C36.0502 21.1899 36.2433 21.3831 36.2433 21.6214Z" fill="white"/>
<path d="M36.9145 22.9637C36.9145 23.202 36.7213 23.3952 36.483 23.3952C36.2448 23.3952 36.0516 23.202 36.0516 22.9637C36.0516 22.7254 36.2448 22.5322 36.483 22.5322C36.7213 22.5322 36.9145 22.7254 36.9145 22.9637Z" fill="white"/>
<path d="M37.3939 24.4019C37.3939 24.6402 37.2007 24.8334 36.9625 24.8334C36.7242 24.8334 36.531 24.6402 36.531 24.4019C36.531 24.1636 36.7242 23.9705 36.9625 23.9705C37.2007 23.9705 37.3939 24.1636 37.3939 24.4019Z" fill="white"/>
<path d="M37.7775 25.936C37.7775 26.1743 37.5843 26.3675 37.346 26.3675C37.1077 26.3675 36.9145 26.1743 36.9145 25.936C36.9145 25.6978 37.1077 25.5046 37.346 25.5046C37.5843 25.5046 37.7775 25.6978 37.7775 25.936Z" fill="white"/>
<path d="M37.9692 27.4702C37.9692 27.7084 37.776 27.9016 37.5377 27.9016C37.2995 27.9016 37.1063 27.7084 37.1063 27.4702C37.1063 27.2319 37.2995 27.0387 37.5377 27.0387C37.776 27.0387 37.9692 27.2319 37.9692 27.4702Z" fill="white"/>
<path d="M37.9692 29.0043C37.9692 29.2426 37.776 29.4357 37.5377 29.4357C37.2995 29.4357 37.1063 29.2426 37.1063 29.0043C37.1063 28.766 37.2995 28.5728 37.5377 28.5728C37.776 28.5728 37.9692 28.766 37.9692 29.0043Z" fill="white"/>
<path d="M37.8733 30.5384C37.8733 30.7767 37.6802 30.9698 37.4419 30.9698C37.2036 30.9698 37.0104 30.7767 37.0104 30.5384C37.0104 30.3001 37.2036 30.1069 37.4419 30.1069C37.6802 30.1069 37.8733 30.3001 37.8733 30.5384Z" fill="white"/>
<path d="M37.4898 31.9766C37.4898 32.2149 37.2966 32.4081 37.0583 32.4081C36.82 32.4081 36.6269 32.2149 36.6269 31.9766C36.6269 31.7383 36.82 31.5451 37.0583 31.5451C37.2966 31.5451 37.4898 31.7383 37.4898 31.9766Z" fill="white"/>
<path d="M37.0104 33.4148C37.0104 33.6531 36.8172 33.8463 36.5789 33.8463C36.3406 33.8463 36.1475 33.6531 36.1475 33.4148C36.1475 33.1765 36.3406 32.9834 36.5789 32.9834C36.8172 32.9834 37.0104 33.1765 37.0104 33.4148Z" fill="white"/>
<path d="M36.3392 34.7572C36.3392 34.9955 36.146 35.1886 35.9078 35.1886C35.6695 35.1886 35.4763 34.9955 35.4763 34.7572C35.4763 34.5189 35.6695 34.3257 35.9078 34.3257C36.146 34.3257 36.3392 34.5189 36.3392 34.7572Z" fill="white"/>
<path d="M35.5722 36.0036C35.5722 36.2419 35.379 36.4351 35.1407 36.4351C34.9024 36.4351 34.7092 36.2419 34.7092 36.0036C34.7092 35.7653 34.9024 35.5722 35.1407 35.5722C35.379 35.5722 35.5722 35.7653 35.5722 36.0036Z" fill="white"/>
<path d="M34.7092 37.1542C34.7092 37.3925 34.5161 37.5857 34.2778 37.5857C34.0395 37.5857 33.8463 37.3925 33.8463 37.1542C33.8463 36.9159 34.0395 36.7228 34.2778 36.7228C34.5161 36.7228 34.7092 36.9159 34.7092 37.1542Z" fill="white"/>
<path d="M33.6545 38.113C33.6545 38.3513 33.4614 38.5445 33.2231 38.5445C32.9848 38.5445 32.7916 38.3513 32.7916 38.113C32.7916 37.8747 32.9848 37.6816 33.2231 37.6816C33.4614 37.6816 33.6545 37.8747 33.6545 38.113Z" fill="white"/>
<path d="M32.504 38.976C32.504 39.2143 32.3108 39.4074 32.0725 39.4074C31.8342 39.4074 31.641 39.2143 31.641 38.976C31.641 38.7377 31.8342 38.5445 32.0725 38.5445C32.3108 38.5445 32.504 38.7377 32.504 38.976Z" fill="white"/>
<path d="M31.1616 39.743C31.1616 39.9813 30.9684 40.1745 30.7301 40.1745C30.4918 40.1745 30.2987 39.9813 30.2987 39.743C30.2987 39.5047 30.4918 39.3116 30.7301 39.3116C30.9684 39.3116 31.1616 39.5047 31.1616 39.743Z" fill="white"/>
<path d="M29.8193 40.2224C29.8193 40.4607 29.6261 40.6539 29.3878 40.6539C29.1495 40.6539 28.9563 40.4607 28.9563 40.2224C28.9563 39.9841 29.1495 39.791 29.3878 39.791C29.6261 39.791 29.8193 39.9841 29.8193 40.2224Z" fill="white"/>
<path d="M28.4769 40.606C28.4769 40.8443 28.2837 41.0374 28.0454 41.0374C27.8072 41.0374 27.614 40.8443 27.614 40.606C27.614 40.3677 27.8072 40.1745 28.0454 40.1745C28.2837 40.1745 28.4769 40.3677 28.4769 40.606Z" fill="white"/>
<path d="M25.5046 40.8936C25.5046 41.1319 25.3114 41.3251 25.0731 41.3251C24.8348 41.3251 24.6416 41.1319 24.6416 40.8936C24.6416 40.6553 24.8348 40.4621 25.0731 40.4621C25.3114 40.4621 25.5046 40.6553 25.5046 40.8936Z" fill="white"/>
<path d="M24.0663 40.7019C24.0663 40.9401 23.8732 41.1333 23.6349 41.1333C23.3966 41.1333 23.2034 40.9401 23.2034 40.7019C23.2034 40.4636 23.3966 40.2704 23.6349 40.2704C23.8732 40.2704 24.0663 40.4636 24.0663 40.7019Z" fill="white"/>
<path d="M22.6281 40.4142C22.6281 40.6525 22.4349 40.8457 22.1967 40.8457C21.9584 40.8457 21.7652 40.6525 21.7652 40.4142C21.7652 40.1759 21.9584 39.9827 22.1967 39.9827C22.4349 39.9827 22.6281 40.1759 22.6281 40.4142Z" fill="white"/>
<path d="M21.1899 39.8389C21.1899 40.0772 20.9967 40.2704 20.7584 40.2704C20.5201 40.2704 20.327 40.0772 20.327 39.8389C20.327 39.6006 20.5201 39.4074 20.7584 39.4074C20.9967 39.4074 21.1899 39.6006 21.1899 39.8389Z" fill="white"/>
<path d="M19.8475 39.1677C19.8475 39.406 19.6544 39.5992 19.4161 39.5992C19.1778 39.5992 18.9846 39.406 18.9846 39.1677C18.9846 38.9294 19.1778 38.7363 19.4161 38.7363C19.6544 38.7363 19.8475 38.9294 19.8475 39.1677Z" fill="white"/>
<path d="M18.5052 38.4007C18.5052 38.639 18.312 38.8322 18.0737 38.8322C17.8354 38.8322 17.6423 38.639 17.6423 38.4007C17.6423 38.1624 17.8354 37.9692 18.0737 37.9692C18.312 37.9692 18.5052 38.1624 18.5052 38.4007Z" fill="white"/>
<path d="M17.3546 37.4419C17.3546 37.6802 17.1614 37.8733 16.9231 37.8733C16.6849 37.8733 16.4917 37.6802 16.4917 37.4419C16.4917 37.2036 16.6849 37.0104 16.9231 37.0104C17.1614 37.0104 17.3546 37.2036 17.3546 37.4419Z" fill="white"/>
<path d="M16.2999 36.2913C16.2999 36.5296 16.1067 36.7228 15.8684 36.7228C15.6302 36.7228 15.437 36.5296 15.437 36.2913C15.437 36.053 15.6302 35.8598 15.8684 35.8598C16.1067 35.8598 16.2999 36.053 16.2999 36.2913Z" fill="white"/>
<path d="M15.3411 35.1407C15.3411 35.379 15.1479 35.5722 14.9096 35.5722C14.6713 35.5722 14.4782 35.379 14.4782 35.1407C14.4782 34.9024 14.6713 34.7092 14.9096 34.7092C15.1479 34.7092 15.3411 34.9024 15.3411 35.1407Z" fill="white"/>
<path d="M14.4782 33.7984C14.4782 34.0366 14.285 34.2298 14.0467 34.2298C13.8084 34.2298 13.6152 34.0366 13.6152 33.7984C13.6152 33.5601 13.8084 33.3669 14.0467 33.3669C14.285 33.3669 14.4782 33.5601 14.4782 33.7984Z" fill="white"/>
<path d="M13.807 32.3601C13.807 32.5984 13.6138 32.7916 13.3755 32.7916C13.1372 32.7916 12.9441 32.5984 12.9441 32.3601C12.9441 32.1218 13.1372 31.9287 13.3755 31.9287C13.6138 31.9287 13.807 32.1218 13.807 32.3601Z" fill="white"/>
<path d="M13.3276 30.9219C13.3276 31.1602 13.1344 31.3534 12.8961 31.3534C12.6578 31.3534 12.4646 31.1602 12.4646 30.9219C12.4646 30.6836 12.6578 30.4904 12.8961 30.4904C13.1344 30.4904 13.3276 30.6836 13.3276 30.9219Z" fill="white"/>
<path d="M12.9441 29.3878C12.9441 29.6261 12.7509 29.8193 12.5126 29.8193C12.2743 29.8193 12.0811 29.6261 12.0811 29.3878C12.0811 29.1495 12.2743 28.9563 12.5126 28.9563C12.7509 28.9563 12.9441 29.1495 12.9441 29.3878Z" fill="white"/>
<path d="M12.7523 27.9496C12.7523 28.1879 12.5591 28.381 12.3208 28.381C12.0825 28.381 11.8894 28.1879 11.8894 27.9496C11.8894 27.7113 12.0825 27.5181 12.3208 27.5181C12.5591 27.5181 12.7523 27.7113 12.7523 27.9496Z" fill="white"/>
<path d="M12.7523 26.4155C12.7523 26.6537 12.5591 26.8469 12.3208 26.8469C12.0825 26.8469 11.8894 26.6537 11.8894 26.4155C11.8894 26.1772 12.0825 25.984 12.3208 25.984C12.5591 25.984 12.7523 26.1772 12.7523 26.4155Z" fill="white"/>
<path d="M12.8482 24.8813C12.8482 25.1196 12.655 25.3128 12.4167 25.3128C12.1784 25.3128 11.9852 25.1196 11.9852 24.8813C11.9852 24.6431 12.1784 24.4499 12.4167 24.4499C12.655 24.4499 12.8482 24.6431 12.8482 24.8813Z" fill="white"/>
<path d="M13.2317 23.3472C13.2317 23.5855 13.0385 23.7787 12.8002 23.7787C12.5619 23.7787 12.3688 23.5855 12.3688 23.3472C12.3688 23.1089 12.5619 22.9158 12.8002 22.9158C13.0385 22.9158 13.2317 23.1089 13.2317 23.3472Z" fill="white"/>
<path d="M27.0387 40.7977C27.0387 41.036 26.8455 41.2292 26.6072 41.2292C26.3689 41.2292 26.1757 41.036 26.1757 40.7977C26.1757 40.5594 26.3689 40.3663 26.6072 40.3663C26.8455 40.3663 27.0387 40.5594 27.0387 40.7977Z" fill="white"/>
<path d="M59.6302 4.17188H58.4375V44.7229H59.6302V4.17188Z" fill="white"/>
<path d="M76.007 5.21228C75.7101 5.63656 75.3197 5.98871 74.836 6.26874C74.3524 6.54876 73.8644 6.68878 73.3723 6.68878C73.211 6.89243 73.0922 7.0876 73.0159 7.27429C72.948 7.46097 72.914 7.67735 72.914 7.92344V12.0347C72.914 12.6457 72.7783 13.1591 72.5067 13.5749C72.2437 13.9907 71.8321 14.3725 71.2721 14.7204L71.0048 14.4149C71.2254 14.1349 71.3357 13.7234 71.3357 13.1803V8.66168C71.3357 8.30529 71.446 7.96162 71.6666 7.63068C71.8958 7.29126 72.1758 6.97729 72.5067 6.68878L70.8138 6.67605C70.5253 6.67605 70.2623 6.73969 70.0247 6.86697C69.7871 6.99426 69.5622 7.18943 69.3501 7.45248L69.07 7.18519C69.4689 6.65908 69.8762 6.24328 70.292 5.9378C70.7163 5.63232 71.1957 5.47957 71.7303 5.47957H73.6141C74.0214 5.47957 74.433 5.44563 74.8488 5.37775C75.2646 5.30138 75.5785 5.16985 75.7907 4.98317L76.007 5.21228ZM77.8832 11.2965H77.9341C78.1208 10.4734 78.4263 9.7139 78.8506 9.01808C79.2748 8.32226 79.7967 7.97435 80.4162 7.97435C80.7047 7.97435 80.9168 8.06345 81.0526 8.24165C81.1968 8.41984 81.2859 8.63199 81.3199 8.87807C81.3538 9.11567 81.3708 9.40842 81.3708 9.75633V13.2821C81.3708 13.3839 81.4005 13.4815 81.4599 13.5749C81.5278 13.6597 81.6211 13.7021 81.7399 13.7021C81.9436 13.7021 82.1557 13.5536 82.3763 13.2567L82.5927 13.4985C82.4485 13.787 82.2406 14.0331 81.969 14.2367C81.6975 14.4404 81.4005 14.5422 81.078 14.5422C80.2719 14.5422 79.8688 14.0967 79.8688 13.2057V9.87089C79.8688 9.76057 79.8476 9.66299 79.8052 9.57813C79.7713 9.48479 79.7076 9.43812 79.6143 9.43812C79.2579 9.43812 78.9481 9.73512 78.6851 10.3291C78.4305 10.9231 78.2311 11.6104 78.0869 12.3911C77.9511 13.1718 77.8832 13.804 77.8832 14.2877L76.3558 14.6186V3.22664L77.8832 2.69205V11.2965ZM87.0223 7.97435C87.5145 7.97435 87.926 8.10163 88.257 8.3562C88.5879 8.60229 88.7534 8.96292 88.7534 9.43812C88.7534 9.81997 88.5455 10.2485 88.1297 10.7237C87.7224 11.1904 87.2345 11.6274 86.6659 12.0347C86.1059 12.4335 85.6264 12.7221 85.2276 12.9003C85.584 13.4688 86.1059 13.7531 86.7932 13.7531C87.1751 13.7531 87.5569 13.647 87.9388 13.4348C88.3291 13.2142 88.66 12.9257 88.9316 12.5693L89.1862 12.8748C88.7449 13.4264 88.2782 13.8549 87.786 14.1604C87.3023 14.4574 86.7253 14.6059 86.055 14.6059C85.5119 14.6059 85.024 14.4828 84.5912 14.2367C84.1669 13.9907 83.8317 13.6555 83.5856 13.2312C83.348 12.7984 83.2292 12.3147 83.2292 11.7802C83.2292 11.1352 83.4032 10.52 83.7511 9.93453C84.1075 9.34054 84.5785 8.86534 85.164 8.50894C85.7495 8.15255 86.3689 7.97435 87.0223 7.97435ZM86.2968 8.8017C85.9743 8.8017 85.6858 8.9205 85.4313 9.15809C85.1767 9.38721 84.9773 9.6842 84.833 10.0491C84.6888 10.414 84.6166 10.7916 84.6166 11.1819C84.6166 11.6911 84.727 12.1281 84.9476 12.4929C85.2616 12.3147 85.5925 12.0687 85.9404 11.7547C86.2968 11.4322 86.5938 11.0886 86.8314 10.7237C87.069 10.3588 87.1878 10.0279 87.1878 9.73087C87.1878 9.43388 87.1072 9.20476 86.9459 9.04354C86.7932 8.88231 86.5768 8.8017 86.2968 8.8017ZM74.8615 19.1614C75.43 19.1614 75.8882 19.3141 76.2362 19.6196C76.5841 19.9251 76.758 20.3281 76.758 20.8288C76.758 21.2361 76.6435 21.6477 76.4144 22.0634C76.1852 22.4708 75.8755 22.8314 75.4852 23.1454C75.1033 23.4593 74.679 23.68 74.2123 23.8072L74.0214 23.4763C74.3863 23.3066 74.679 23.0478 74.8997 22.6999C75.1288 22.3435 75.2433 21.9616 75.2433 21.5543C75.2433 21.0706 75.1118 20.6845 74.8488 20.396C74.5857 20.099 74.242 19.9505 73.8178 19.9505C73.368 19.9505 72.9437 20.133 72.5449 20.4979C72.1546 20.8542 71.8406 21.3379 71.603 21.9489C71.3739 22.5514 71.2593 23.2005 71.2593 23.8963C71.2593 24.6091 71.3697 25.2413 71.5903 25.7929C71.8109 26.336 72.1164 26.7602 72.5067 27.0657C72.9056 27.3712 73.3595 27.5239 73.8687 27.5239C74.2336 27.5239 74.5984 27.4348 74.9633 27.2567C75.3367 27.07 75.6973 26.8027 76.0452 26.4548L76.3889 26.773C75.9901 27.2906 75.4937 27.7234 74.8997 28.0713C74.3142 28.4107 73.699 28.5804 73.054 28.5804C72.3582 28.5804 71.7473 28.4192 71.2212 28.0967C70.7035 27.7743 70.3047 27.3288 70.0247 26.7602C69.7447 26.1832 69.6046 25.5256 69.6046 24.7873C69.6046 23.7521 69.838 22.8059 70.3047 21.9489C70.7799 21.0834 71.4163 20.4045 72.214 19.9123C73.0201 19.4117 73.9026 19.1614 74.8615 19.1614ZM80.5106 22.2416C79.9506 22.6405 79.5093 23.0945 79.1869 23.6036C78.8729 24.1042 78.7159 24.694 78.7159 25.3728C78.7159 25.7462 78.788 26.1238 78.9323 26.5057C79.0766 26.8875 79.2887 27.2057 79.5687 27.4603C79.8487 27.7064 80.1839 27.8294 80.5743 27.8294C81.0664 27.8294 81.461 27.6512 81.758 27.2948C82.0635 26.9384 82.2162 26.4972 82.2162 25.9711C82.2162 25.5723 82.1102 25.1692 81.898 24.7619C81.6944 24.3461 81.4186 23.9982 81.0707 23.7181C80.7228 23.4296 80.3494 23.2684 79.9506 23.2345C80.1288 23.0393 80.3197 22.8611 80.5234 22.6999C80.7355 22.5386 80.9986 22.3435 81.3125 22.1144C81.9235 22.318 82.4072 22.6956 82.7636 23.2472C83.1284 23.7988 83.3109 24.4055 83.3109 25.0674C83.3109 25.6529 83.1794 26.2214 82.9163 26.773C82.6617 27.3245 82.2884 27.7743 81.7962 28.1222C81.3125 28.4616 80.7482 28.6313 80.1033 28.6313C79.5687 28.6313 79.0766 28.5083 78.6268 28.2622C78.1856 28.0076 77.8334 27.664 77.5704 27.2312C77.3073 26.7899 77.1758 26.3063 77.1758 25.7802C77.1758 24.8722 77.46 24.0745 78.0286 23.3872C78.6056 22.6999 79.3523 22.2204 80.2688 21.9489L80.5106 22.2416ZM87.6082 22.2416C87.0482 22.6405 86.6069 23.0945 86.2845 23.6036C85.9705 24.1042 85.8135 24.694 85.8135 25.3728C85.8135 25.7462 85.8856 26.1238 86.0299 26.5057C86.1742 26.8875 86.3863 27.2057 86.6663 27.4603C86.9463 27.7064 87.2815 27.8294 87.6719 27.8294C88.164 27.8294 88.5586 27.6512 88.8556 27.2948C89.1611 26.9384 89.3138 26.4972 89.3138 25.9711C89.3138 25.5723 89.2078 25.1692 88.9956 24.7619C88.792 24.3461 88.5162 23.9982 88.1683 23.7181C87.8204 23.4296 87.447 23.2684 87.0482 23.2345C87.2264 23.0393 87.4173 22.8611 87.621 22.6999C87.8331 22.5386 88.0961 22.3435 88.4101 22.1144C89.0211 22.318 89.5048 22.6956 89.8612 23.2472C90.226 23.7988 90.4085 24.4055 90.4085 25.0674C90.4085 25.6529 90.277 26.2214 90.0139 26.773C89.7593 27.3245 89.386 27.7743 88.8938 28.1222C88.4101 28.4616 87.8458 28.6313 87.2009 28.6313C86.6663 28.6313 86.1742 28.5083 85.7244 28.2622C85.2832 28.0076 84.931 27.664 84.668 27.2312C84.4049 26.7899 84.2734 26.3063 84.2734 25.7802C84.2734 24.8722 84.5576 24.0745 85.1262 23.3872C85.7032 22.6999 86.4499 22.2204 87.3664 21.9489L87.6082 22.2416ZM93.3948 25.3092C93.6578 24.7067 93.9676 24.2061 94.324 23.8072L94.2858 23.7563C93.9973 23.926 93.6494 24.0109 93.2421 24.0109C92.979 24.0109 92.7372 23.9685 92.5165 23.8836L91.6892 25.6529L91.1673 25.4238L92.0201 23.6672C91.9947 23.6418 91.914 23.5696 91.7783 23.4508C91.6425 23.332 91.5577 23.2133 91.5237 23.0945L92.7456 21.7198C92.839 22.0677 93.0172 22.3732 93.2802 22.6362C93.5518 22.8908 93.853 23.0181 94.184 23.0181C94.7016 23.0181 95.2447 22.8314 95.8132 22.458L96.0423 22.6999C95.5501 23.1581 95.1301 23.7012 94.7822 24.3291C94.4343 24.957 94.2603 25.5892 94.2603 26.2256C94.2603 26.616 94.3579 26.9427 94.5531 27.2057C94.7567 27.4688 95.0495 27.6003 95.4313 27.6003C95.6859 27.6003 95.9575 27.507 96.246 27.3203L96.4369 27.5494C96.1908 27.8634 95.8938 28.1137 95.5459 28.3004C95.2065 28.4871 94.8501 28.5804 94.4767 28.5804C94.01 28.5804 93.6494 28.4277 93.3948 28.1222C93.1402 27.8082 93.0129 27.4136 93.0129 26.9384C93.0129 26.4463 93.1402 25.9032 93.3948 25.3092ZM102.879 27.2312C102.879 27.35 102.905 27.4561 102.956 27.5494C103.015 27.6343 103.1 27.6767 103.21 27.6767C103.321 27.6767 103.431 27.63 103.541 27.5367C103.66 27.4433 103.749 27.3415 103.809 27.2312L104.089 27.473C103.936 27.77 103.724 28.0246 103.452 28.2367C103.189 28.4404 102.905 28.5422 102.599 28.5422C102.158 28.5422 101.84 28.4234 101.645 28.1858C101.45 27.9397 101.356 27.5664 101.365 27.0657H101.301C101.106 27.507 100.851 27.8761 100.537 28.1731C100.223 28.4616 99.8458 28.6059 99.4045 28.6059C98.9378 28.6059 98.539 28.4871 98.208 28.2495C97.8771 28.0119 97.6268 27.6937 97.4571 27.2948C97.2873 26.8875 97.2025 26.4378 97.2025 25.9456C97.2025 25.3177 97.3298 24.7025 97.5843 24.1C97.8474 23.489 98.225 22.9884 98.7172 22.598C99.2093 22.2077 99.7821 22.0125 100.436 22.0125C100.766 22.0125 101.068 22.0931 101.339 22.2544V17.2266L102.879 16.692V27.2312ZM100.41 22.8272C100.003 22.8272 99.6633 22.9672 99.3918 23.2472C99.1287 23.5187 98.9336 23.8582 98.8063 24.2655C98.679 24.6643 98.6153 25.0589 98.6153 25.4492C98.6153 25.9753 98.7172 26.476 98.9208 26.9512C99.133 27.4264 99.4639 27.664 99.9136 27.664C100.457 27.664 100.83 27.3882 101.034 26.8366C101.237 26.2766 101.339 25.6698 101.339 25.0164V23.2472C101.059 22.9672 100.749 22.8272 100.41 22.8272ZM106.414 20.7524L105.612 21.007L105.09 18.3467L106.86 17.7485L106.414 20.7524ZM106.821 27.2821C106.821 27.4094 106.851 27.5112 106.911 27.5876C106.97 27.664 107.051 27.7021 107.152 27.7021C107.364 27.7021 107.581 27.5536 107.801 27.2567L108.031 27.4985C107.844 27.8379 107.602 28.0967 107.305 28.2749C107.017 28.4531 106.728 28.5422 106.44 28.5422C105.667 28.5422 105.281 28.0967 105.281 27.2057V22.6235L106.821 22.0889V27.2821ZM113.778 21.9743C114.075 21.9743 114.291 22.0634 114.427 22.2416C114.563 22.4114 114.648 22.615 114.682 22.8526C114.715 23.0817 114.732 23.3787 114.732 23.7436V27.2821C114.732 27.3839 114.762 27.4815 114.822 27.5749C114.889 27.6597 114.97 27.7021 115.063 27.7021C115.191 27.7021 115.301 27.664 115.394 27.5876C115.496 27.5027 115.602 27.3924 115.713 27.2567L115.929 27.4985C115.776 27.7955 115.564 28.0458 115.292 28.2495C115.029 28.4446 114.745 28.5422 114.44 28.5422C114.032 28.5422 113.727 28.4277 113.523 28.1986C113.32 27.961 113.218 27.63 113.218 27.2057V23.8709C113.218 23.7521 113.205 23.6503 113.18 23.5654C113.154 23.4805 113.095 23.4381 113.001 23.4381C112.713 23.4381 112.42 23.7478 112.123 24.3673C111.826 24.9783 111.576 25.6826 111.372 26.4802C111.168 27.2779 111.067 27.8803 111.067 28.2877L109.577 28.6186V23.2727C109.577 23.1454 109.548 23.0393 109.488 22.9544C109.429 22.8696 109.344 22.8272 109.234 22.8272C109.115 22.8272 108.996 22.8781 108.877 22.9799C108.767 23.0732 108.674 23.1836 108.597 23.3108L108.368 23.0563C108.495 22.7593 108.695 22.5047 108.966 22.2926C109.238 22.0804 109.531 21.9743 109.845 21.9743C110.269 21.9743 110.579 22.0931 110.774 22.3307C110.969 22.5599 111.067 22.8823 111.067 23.2981V25.7547H111.118C111.347 24.8128 111.686 23.9473 112.136 23.1581C112.594 22.3689 113.141 21.9743 113.778 21.9743ZM120.131 22.0889C120.581 22.0889 120.997 22.178 121.378 22.3562C121.769 22.5344 122.057 22.8102 122.244 23.1836L121.009 23.6927C120.891 23.4721 120.725 23.2896 120.513 23.1454C120.301 23.0011 120.076 22.929 119.838 22.929C119.27 22.929 118.82 23.1666 118.489 23.6418C118.158 24.117 117.993 24.711 117.993 25.4238C117.993 26.0771 118.09 26.616 118.285 27.0403C118.481 27.4561 118.79 27.664 119.215 27.664C119.809 27.664 120.216 27.3882 120.437 26.8366C120.657 26.2766 120.767 25.6698 120.767 25.0164V24.4564L122.257 23.9218V27.2312C122.257 27.35 122.282 27.4561 122.333 27.5494C122.392 27.6343 122.477 27.6767 122.588 27.6767C122.8 27.6767 123.016 27.5282 123.237 27.2312L123.479 27.473C123.351 27.77 123.148 28.0246 122.868 28.2367C122.596 28.4404 122.303 28.5422 121.989 28.5422C121.582 28.5422 121.285 28.4065 121.098 28.1349C120.912 27.8549 120.818 27.4985 120.818 27.0657H120.767C120.564 27.5239 120.292 27.8973 119.953 28.1858C119.613 28.4659 119.219 28.6059 118.769 28.6059C118.09 28.6059 117.564 28.3598 117.191 27.8676C116.826 27.367 116.643 26.7178 116.643 25.9202C116.643 25.2413 116.788 24.6091 117.076 24.0236C117.373 23.4381 117.785 22.9714 118.311 22.6235C118.846 22.2671 119.452 22.0889 120.131 22.0889ZM126.214 22.929V27.2821C126.214 27.4009 126.248 27.5027 126.316 27.5876C126.384 27.664 126.473 27.7021 126.583 27.7021C126.787 27.7021 127.016 27.5536 127.271 27.2567L127.5 27.4985C127.347 27.804 127.156 28.0331 126.927 28.1858C126.698 28.3386 126.477 28.4404 126.265 28.4913C126.053 28.5422 125.947 28.5592 125.947 28.5422C125.098 28.5422 124.674 28.0967 124.674 27.2057V22.929H123.77L124.165 22.0889H124.674V19.1995L126.214 18.6777V22.0889H127.882L127.5 22.929H126.214ZM132.156 21.9743C132.648 21.9743 133.06 22.1016 133.391 22.3562C133.722 22.6023 133.887 22.9629 133.887 23.4381C133.887 23.82 133.679 24.2485 133.263 24.7237C132.856 25.1904 132.368 25.6274 131.8 26.0347C131.24 26.4335 130.76 26.7221 130.361 26.9003C130.718 27.4688 131.24 27.7531 131.927 27.7531C132.309 27.7531 132.691 27.647 133.073 27.4348C133.463 27.2142 133.794 26.9257 134.065 26.5693L134.32 26.8748C133.879 27.4264 133.412 27.8549 132.92 28.1604C132.436 28.4574 131.859 28.6059 131.189 28.6059C130.646 28.6059 130.158 28.4828 129.725 28.2367C129.301 27.9907 128.965 27.6555 128.719 27.2312C128.482 26.7984 128.363 26.3147 128.363 25.7802C128.363 25.1352 128.537 24.52 128.885 23.9345C129.241 23.3405 129.712 22.8653 130.298 22.5089C130.883 22.1525 131.503 21.9743 132.156 21.9743ZM131.431 22.8017C131.108 22.8017 130.82 22.9205 130.565 23.1581C130.31 23.3872 130.111 23.6842 129.967 24.0491C129.823 24.414 129.75 24.7916 129.75 25.1819C129.75 25.6911 129.861 26.1281 130.081 26.4929C130.395 26.3147 130.726 26.0687 131.074 25.7547C131.431 25.4322 131.728 25.0886 131.965 24.7237C132.203 24.3588 132.322 24.0279 132.322 23.7309C132.322 23.4339 132.241 23.2048 132.08 23.0435C131.927 22.8823 131.711 22.8017 131.431 22.8017ZM140.878 27.2312C140.878 27.35 140.904 27.4561 140.955 27.5494C141.014 27.6343 141.099 27.6767 141.209 27.6767C141.319 27.6767 141.43 27.63 141.54 27.5367C141.659 27.4433 141.748 27.3415 141.807 27.2312L142.087 27.473C141.935 27.77 141.723 28.0246 141.451 28.2367C141.188 28.4404 140.904 28.5422 140.598 28.5422C140.157 28.5422 139.839 28.4234 139.644 28.1858C139.448 27.9397 139.355 27.5664 139.364 27.0657H139.3C139.105 27.507 138.85 27.8761 138.536 28.1731C138.222 28.4616 137.845 28.6059 137.403 28.6059C136.937 28.6059 136.538 28.4871 136.207 28.2495C135.876 28.0119 135.626 27.6937 135.456 27.2948C135.286 26.8875 135.201 26.4378 135.201 25.9456C135.201 25.3177 135.329 24.7025 135.583 24.1C135.846 23.489 136.224 22.9884 136.716 22.598C137.208 22.2077 137.781 22.0125 138.434 22.0125C138.765 22.0125 139.067 22.0931 139.338 22.2544V17.2266L140.878 16.692V27.2312ZM138.409 22.8272C138.002 22.8272 137.662 22.9672 137.391 23.2472C137.128 23.5187 136.932 23.8582 136.805 24.2655C136.678 24.6643 136.614 25.0589 136.614 25.4492C136.614 25.9753 136.716 26.476 136.92 26.9512C137.132 27.4264 137.463 27.664 137.913 27.664C138.456 27.664 138.829 27.3882 139.033 26.8366C139.236 26.2766 139.338 25.6698 139.338 25.0164V23.2472C139.058 22.9672 138.748 22.8272 138.409 22.8272ZM74.2633 32.1614C74.7469 32.1614 75.1458 32.2717 75.4597 32.4923C75.7822 32.7129 75.9434 33.0354 75.9434 33.4597C75.9434 33.833 75.8119 34.1852 75.5488 34.5161C75.2943 34.8386 74.9463 35.1186 74.5051 35.3562C74.0723 35.5938 73.5929 35.7678 73.0668 35.8781L72.9268 35.5344C73.385 35.3223 73.7371 35.0677 73.9832 34.7707C74.2293 34.4737 74.3523 34.1428 74.3523 33.7779C74.3523 33.5148 74.276 33.3069 74.1232 33.1542C73.979 32.993 73.7711 32.9123 73.4995 32.9123C73.1177 32.9123 72.7952 33.0227 72.5322 33.2433C72.2691 33.4554 72.074 33.7312 71.9467 34.0706C71.8194 34.4016 71.7557 34.7452 71.7557 35.1016V38.9456C71.7557 39.1917 71.7176 39.4038 71.6412 39.582C71.5733 39.7518 71.4588 39.9257 71.2975 40.1039L71.3739 40.1548C71.7557 39.9172 72.1588 39.7984 72.5831 39.7984C72.8631 39.7984 73.1983 39.8324 73.5886 39.9003C73.648 39.9087 73.7668 39.9257 73.945 39.9512C74.1317 39.9766 74.3227 39.9894 74.5178 39.9894C74.8148 39.9894 75.0779 39.913 75.307 39.7602C75.5446 39.6075 75.7652 39.3996 75.9689 39.1365L76.2743 39.3529L75.2433 41.5804C74.8106 41.5465 74.259 41.4616 73.5886 41.3258C73.1813 41.2495 72.8249 41.1901 72.5195 41.1476C72.214 41.1052 71.883 41.084 71.5266 41.084C70.9581 41.084 70.4405 41.2452 69.9738 41.5677L69.5919 41.2113C69.7871 41.0501 69.9271 40.8634 70.012 40.6512C70.1053 40.4306 70.152 40.1463 70.152 39.7984V36.349C70.152 35.5683 70.3217 34.8598 70.6611 34.2234C71.009 33.5869 71.4927 33.0863 72.1121 32.7214C72.7401 32.348 73.4571 32.1614 74.2633 32.1614ZM78.4712 33.7524L77.6693 34.007L77.1474 31.3467L78.9167 30.7485L78.4712 33.7524ZM78.8785 40.2821C78.8785 40.4094 78.9082 40.5112 78.9676 40.5876C79.027 40.664 79.1076 40.7021 79.2094 40.7021C79.4216 40.7021 79.638 40.5536 79.8586 40.2567L80.0877 40.4985C79.901 40.8379 79.6592 41.0967 79.3622 41.2749C79.0737 41.4531 78.7852 41.5422 78.4967 41.5422C77.7245 41.5422 77.3384 41.0967 77.3384 40.2057V35.6235L78.8785 35.0889V40.2821ZM85.5421 34.618C85.8985 34.7537 86.1743 34.9531 86.3695 35.2162C86.5647 35.4792 86.6622 35.7762 86.6622 36.1072C86.6622 36.2854 86.6368 36.4805 86.5859 36.6927C86.535 36.8963 86.4713 37.0745 86.3949 37.2273L84.2438 41.504C84.2184 41.555 84.1675 41.5974 84.0911 41.6313C84.0147 41.6653 83.9341 41.6822 83.8493 41.6822C83.7474 41.6822 83.6541 41.6653 83.5692 41.6313C83.4929 41.5974 83.4419 41.5465 83.4165 41.4786L81.2908 36.7945C81.1042 36.4466 80.9047 36.2727 80.6926 36.2727C80.5738 36.2727 80.4423 36.3575 80.298 36.5272L80.0944 36.349C80.1962 36.0181 80.3998 35.7296 80.7053 35.4835C81.0108 35.2289 81.346 35.1016 81.7109 35.1016C81.94 35.1016 82.1309 35.2247 82.2837 35.4708C82.4449 35.7084 82.5976 35.9969 82.7419 36.3363L84.3966 40.0657L85.313 38.1819C85.4743 37.8425 85.5549 37.5582 85.5549 37.3291C85.5549 37.0067 85.47 36.7266 85.3003 36.489C85.1306 36.2514 84.893 36.0605 84.5875 35.9163L85.5421 34.618ZM89.0244 33.7524L88.2225 34.007L87.7006 31.3467L89.4699 30.7485L89.0244 33.7524ZM89.4317 40.2821C89.4317 40.4094 89.4614 40.5112 89.5208 40.5876C89.5802 40.664 89.6608 40.7021 89.7626 40.7021C89.9748 40.7021 90.1911 40.5536 90.4118 40.2567L90.6409 40.4985C90.4542 40.8379 90.2124 41.0967 89.9154 41.2749C89.6268 41.4531 89.3383 41.5422 89.0498 41.5422C88.2776 41.5422 87.8915 41.0967 87.8915 40.2057V35.6235L89.4317 35.0889V40.2821ZM96.3881 34.9743C96.6851 34.9743 96.9014 35.0634 97.0372 35.2416C97.173 35.4114 97.2578 35.615 97.2918 35.8526C97.3257 36.0817 97.3427 36.3787 97.3427 36.7436V40.2821C97.3427 40.3839 97.3724 40.4815 97.4318 40.5749C97.4997 40.6597 97.5803 40.7021 97.6736 40.7021C97.8009 40.7021 97.9112 40.664 98.0046 40.5876C98.1064 40.5027 98.2125 40.3924 98.3228 40.2567L98.5392 40.4985C98.3864 40.7955 98.1743 41.0458 97.9027 41.2495C97.6397 41.4446 97.3554 41.5422 97.0499 41.5422C96.6426 41.5422 96.3371 41.4277 96.1335 41.1986C95.9298 40.961 95.828 40.63 95.828 40.2057V36.8709C95.828 36.7521 95.8153 36.6503 95.7898 36.5654C95.7644 36.4805 95.705 36.4381 95.6116 36.4381C95.3231 36.4381 95.0304 36.7478 94.7334 37.3673C94.4364 37.9783 94.186 38.6826 93.9824 39.4802C93.7787 40.2779 93.6769 40.8803 93.6769 41.2877L92.1877 41.6186V36.2727C92.1877 36.1454 92.158 36.0393 92.0986 35.9544C92.0392 35.8696 91.9543 35.8272 91.844 35.8272C91.7252 35.8272 91.6064 35.8781 91.4876 35.9799C91.3773 36.0732 91.284 36.1836 91.2076 36.3108L90.9785 36.0563C91.1058 35.7593 91.3052 35.5047 91.5767 35.2926C91.8483 35.0804 92.141 34.9743 92.455 34.9743C92.8793 34.9743 93.189 35.0931 93.3842 35.3307C93.5793 35.5599 93.6769 35.8823 93.6769 36.2981V38.7547H93.7278C93.9569 37.8128 94.2964 36.9473 94.7461 36.1581C95.2043 35.3689 95.7516 34.9743 96.3881 34.9743ZM102.716 34.9743C103.157 34.9743 103.573 35.0804 103.963 35.2926C104.362 35.5047 104.659 35.8017 104.854 36.1836L103.62 36.6927C103.492 36.4042 103.323 36.1836 103.11 36.0308C102.907 35.8696 102.682 35.789 102.436 35.789C102.071 35.789 101.749 35.929 101.468 36.209C101.188 36.4805 100.972 36.82 100.819 37.2273C100.675 37.6346 100.603 38.0334 100.603 38.4238C100.603 39.0262 100.709 39.5523 100.921 40.0021C101.133 40.4433 101.473 40.664 101.939 40.664C102.474 40.664 102.843 40.3839 103.047 39.8239C103.259 39.2638 103.365 38.6614 103.365 38.0164V37.4564L104.867 36.9218V40.8294C104.867 41.4828 104.697 42.1489 104.358 42.8278C104.018 43.5151 103.56 44.0794 102.983 44.5207C102.406 44.9704 101.782 45.1953 101.112 45.1953C100.637 45.1953 100.247 45.0383 99.9411 44.7243L101.023 43.6933C101.295 44.0497 101.613 44.2279 101.978 44.2279C102.546 44.2279 102.92 44.0115 103.098 43.5788C103.284 43.1545 103.378 42.5902 103.378 41.8859L103.365 40.9949C103.365 40.613 103.399 40.3033 103.467 40.0657H103.365C103.119 40.5239 102.843 40.8973 102.538 41.1858C102.232 41.4659 101.863 41.6059 101.43 41.6059C100.734 41.6059 100.196 41.364 99.8138 40.8803C99.4319 40.3967 99.241 39.7857 99.241 39.0474C99.241 38.3516 99.3853 37.6897 99.6738 37.0618C99.9708 36.4339 100.382 35.929 100.908 35.5471C101.443 35.1653 102.046 34.9743 102.716 34.9743Z" fill="white"/>
</svg>
