<svg width="39" height="38" viewBox="0 0 39 38" fill="none" xmlns="http://www.w3.org/2000/svg">
<path d="M30.3684 28.3011C30.3273 28.5664 30.1053 28.7523 29.8726 28.7163C29.6398 28.6802 29.4844 28.4359 29.5255 28.1706C29.5666 27.9052 29.7886 27.7194 30.0213 27.7554C30.2541 27.7914 30.4095 28.0357 30.3684 28.3011Z" fill="white"/>
<path d="M31.2498 26.7586C31.2087 27.024 30.9867 27.2099 30.754 27.1738C30.5212 27.1378 30.3658 26.8935 30.4069 26.6282C30.448 26.3628 30.6699 26.1769 30.9027 26.213C31.1355 26.249 31.2908 26.4933 31.2498 26.7586Z" fill="white"/>
<path d="M31.9843 25.2162C31.9432 25.4816 31.7212 25.6675 31.4885 25.6314C31.2557 25.5954 31.1003 25.3511 31.1414 25.0857C31.1824 24.8204 31.4044 24.6345 31.6372 24.6705C31.8699 24.7066 32.0253 24.9509 31.9843 25.2162Z" fill="white"/>
<path d="M32.4984 23.5269C32.4573 23.7922 32.2354 23.9781 32.0026 23.9421C31.7698 23.9061 31.6144 23.6618 31.6555 23.3964C31.6966 23.1311 31.9186 22.9452 32.1513 22.9812C32.3841 23.0172 32.5395 23.2616 32.4984 23.5269Z" fill="white"/>
<path d="M32.8656 21.8376C32.8246 22.1029 32.6026 22.2888 32.3698 22.2528C32.1371 22.2168 31.9817 21.9724 32.0228 21.7071C32.0638 21.4418 32.2858 21.2559 32.5186 21.2919C32.7513 21.3279 32.9067 21.5722 32.8656 21.8376Z" fill="white"/>
<path d="M33.0125 20.1483C32.9715 20.4136 32.7495 20.5995 32.5167 20.5635C32.284 20.5274 32.1286 20.2831 32.1697 20.0178C32.2107 19.7524 32.4327 19.5665 32.6655 19.6026C32.8982 19.6386 33.0536 19.8829 33.0125 20.1483Z" fill="white"/>
<path d="M33.086 18.3855C33.0449 18.6508 32.8229 18.8367 32.5902 18.8007C32.3574 18.7647 32.202 18.5204 32.2431 18.255C32.2842 17.9897 32.5062 17.8038 32.7389 17.8398C32.9717 17.8758 33.1271 18.1201 33.086 18.3855Z" fill="white"/>
<path d="M32.9391 16.6962C32.898 16.9615 32.676 17.1474 32.4433 17.1114C32.2105 17.0753 32.0551 16.831 32.0962 16.5657C32.1373 16.3004 32.3593 16.1145 32.592 16.1505C32.8248 16.1865 32.9802 16.4308 32.9391 16.6962Z" fill="white"/>
<path d="M32.5719 15.0803C32.5308 15.3456 32.3088 15.5315 32.076 15.4955C31.8433 15.4595 31.6879 15.2152 31.729 14.9498C31.77 14.6845 31.992 14.4986 32.2248 14.5346C32.4575 14.5706 32.6129 14.815 32.5719 15.0803Z" fill="white"/>
<path d="M32.0577 13.4644C32.0166 13.7298 31.7947 13.9157 31.5619 13.8796C31.3291 13.8436 31.1737 13.5993 31.2148 13.334C31.2559 13.0686 31.4779 12.8827 31.7106 12.9187C31.9434 12.9548 32.0988 13.1991 32.0577 13.4644Z" fill="white"/>
<path d="M31.3967 11.9955C31.3556 12.2608 31.1336 12.4467 30.9009 12.4107C30.6681 12.3746 30.5127 12.1303 30.5538 11.865C30.5949 11.5996 30.8168 11.4137 31.0496 11.4498C31.2824 11.4858 31.4377 11.7301 31.3967 11.9955Z" fill="white"/>
<path d="M30.5887 10.5999C30.5477 10.8653 30.3257 11.0512 30.0929 11.0151C29.8602 10.9791 29.7048 10.7348 29.7458 10.4695C29.7869 10.2041 30.0089 10.0182 30.2417 10.0543C30.4744 10.0903 30.6298 10.3346 30.5887 10.5999Z" fill="white"/>
<path d="M29.6339 9.3513C29.5928 9.61664 29.3709 9.80254 29.1381 9.76651C28.9053 9.73048 28.7499 9.48617 28.791 9.22083C28.8321 8.95549 29.0541 8.7696 29.2868 8.80562C29.5196 8.84165 29.675 9.08596 29.6339 9.3513Z" fill="white"/>
<path d="M28.5322 8.24957C28.4911 8.51491 28.2691 8.70081 28.0364 8.66478C27.8036 8.62875 27.6482 8.38445 27.6893 8.1191C27.7304 7.85376 27.9523 7.66787 28.1851 7.70389C28.4179 7.73992 28.5733 7.98423 28.5322 8.24957Z" fill="white"/>
<path d="M27.2836 7.29474C27.2425 7.56008 27.0205 7.74598 26.7877 7.70995C26.555 7.67392 26.3996 7.42961 26.4407 7.16427C26.4817 6.89893 26.7037 6.71303 26.9365 6.74906C27.1692 6.78509 27.3246 7.0294 27.2836 7.29474Z" fill="white"/>
<path d="M25.9615 6.4868C25.9204 6.75215 25.6984 6.93804 25.4657 6.90201C25.2329 6.86598 25.0775 6.62168 25.1186 6.35634C25.1597 6.09099 25.3816 5.9051 25.6144 5.94113C25.8472 5.97715 26.0025 6.22146 25.9615 6.4868Z" fill="white"/>
<path d="M24.5659 5.89921C24.5249 6.16456 24.3029 6.35045 24.0701 6.31442C23.8374 6.2784 23.682 6.03409 23.7231 5.76875C23.7641 5.5034 23.9861 5.31751 24.2189 5.35354C24.4516 5.38956 24.607 5.63387 24.5659 5.89921Z" fill="white"/>
<path d="M23.097 5.53197C23.0559 5.79731 22.8339 5.98321 22.6012 5.94718C22.3684 5.91115 22.213 5.66684 22.2541 5.4015C22.2952 5.13616 22.5171 4.95027 22.7499 4.98629C22.9827 5.02232 23.138 5.26663 23.097 5.53197Z" fill="white"/>
<path d="M21.5546 5.31162C21.5135 5.57697 21.2915 5.76286 21.0587 5.72683C20.826 5.69081 20.6706 5.4465 20.7117 5.18116C20.7527 4.91581 20.9747 4.72992 21.2075 4.76595C21.4402 4.80198 21.5956 5.04628 21.5546 5.31162Z" fill="white"/>
<path d="M20.0121 5.31162C19.9711 5.57697 19.7491 5.76286 19.5163 5.72683C19.2836 5.69081 19.1282 5.4465 19.1692 5.18116C19.2103 4.91581 19.4323 4.72992 19.6651 4.76595C19.8978 4.80198 20.0532 5.04628 20.0121 5.31162Z" fill="white"/>
<path d="M18.5432 5.45852C18.5021 5.72386 18.2801 5.90976 18.0473 5.87373C17.8146 5.8377 17.6592 5.5934 17.7003 5.32805C17.7413 5.06271 17.9633 4.87682 18.1961 4.91284C18.4288 4.94887 18.5842 5.19318 18.5432 5.45852Z" fill="white"/>
<path d="M17.0007 5.82577C16.9597 6.09111 16.7377 6.277 16.5049 6.24097C16.2722 6.20495 16.1168 5.96064 16.1578 5.6953C16.1989 5.42996 16.4209 5.24406 16.6537 5.28009C16.8864 5.31612 17.0418 5.56042 17.0007 5.82577Z" fill="white"/>
<path d="M15.5318 6.41336C15.4907 6.6787 15.2687 6.86459 15.036 6.82856C14.8032 6.79254 14.6478 6.54823 14.6889 6.28289C14.7299 6.01754 14.9519 5.83165 15.1847 5.86768C15.4174 5.90371 15.5728 6.14801 15.5318 6.41336Z" fill="white"/>
<path d="M14.1362 7.14784C14.0952 7.41318 13.8732 7.59908 13.6404 7.56305C13.4077 7.52702 13.2523 7.28272 13.2933 7.01737C13.3344 6.75203 13.5564 6.56614 13.7892 6.60216C14.0219 6.63819 14.1773 6.8825 14.1362 7.14784Z" fill="white"/>
<path d="M12.7407 8.10267C12.6996 8.36802 12.4777 8.55391 12.2449 8.51788C12.0121 8.48186 11.8568 8.23755 11.8978 7.97221C11.9389 7.70686 12.1609 7.52097 12.3936 7.557C12.6264 7.59302 12.7818 7.83733 12.7407 8.10267Z" fill="white"/>
<path d="M11.5655 9.2044C11.5245 9.46975 11.3025 9.65564 11.0697 9.61961C10.837 9.58359 10.6816 9.33928 10.7226 9.07394C10.7637 8.80859 10.9857 8.6227 11.2185 8.65873C11.4512 8.69475 11.6066 8.93906 11.5655 9.2044Z" fill="white"/>
<path d="M10.3904 10.453C10.3493 10.7184 10.1273 10.9043 9.89454 10.8682C9.66179 10.8322 9.50639 10.5879 9.54746 10.3226C9.58853 10.0572 9.81052 9.87133 10.0433 9.90735C10.276 9.94338 10.4314 10.1877 10.3904 10.453Z" fill="white"/>
<path d="M9.36208 11.8486C9.321 12.1139 9.09902 12.2998 8.86626 12.2638C8.6335 12.2277 8.47811 11.9834 8.51918 11.7181C8.56025 11.4527 8.78224 11.2669 9.015 11.3029C9.24775 11.3389 9.40315 11.5832 9.36208 11.8486Z" fill="white"/>
<path d="M8.55414 13.391C8.51307 13.6563 8.29109 13.8422 8.05833 13.8062C7.82557 13.7702 7.67018 13.5259 7.71125 13.2605C7.75232 12.9952 7.9743 12.8093 8.20706 12.8453C8.43982 12.8813 8.59521 13.1256 8.55414 13.391Z" fill="white"/>
<path d="M7.8931 14.9334C7.85203 15.1987 7.63005 15.3846 7.39729 15.3486C7.16453 15.3126 7.00914 15.0683 7.05021 14.8029C7.09128 14.5376 7.31326 14.3517 7.54602 14.3877C7.77878 14.4238 7.93417 14.6681 7.8931 14.9334Z" fill="white"/>
<path d="M7.30551 16.5493C7.26444 16.8146 7.04246 17.0005 6.8097 16.9645C6.57694 16.9285 6.42155 16.6841 6.46262 16.4188C6.50369 16.1535 6.72567 15.9676 6.95843 16.0036C7.19119 16.0396 7.34658 16.2839 7.30551 16.5493Z" fill="white"/>
<path d="M6.93827 18.2386C6.8972 18.5039 6.67522 18.6898 6.44246 18.6538C6.2097 18.6178 6.0543 18.3735 6.09538 18.1081C6.13645 17.8428 6.35843 17.6569 6.59119 17.6929C6.82395 17.7289 6.97934 17.9732 6.93827 18.2386Z" fill="white"/>
<path d="M6.71792 20.0014C6.67685 20.2667 6.45487 20.4526 6.22211 20.4166C5.98935 20.3805 5.83396 20.1362 5.87503 19.8709C5.9161 19.6055 6.13808 19.4197 6.37084 19.4557C6.6036 19.4917 6.759 19.736 6.71792 20.0014Z" fill="white"/>
<path d="M6.71792 21.7641C6.67685 22.0295 6.45487 22.2154 6.22211 22.1793C5.98935 22.1433 5.83396 21.899 5.87503 21.6337C5.9161 21.3683 6.13808 21.1824 6.37084 21.2184C6.6036 21.2545 6.759 21.4988 6.71792 21.7641Z" fill="white"/>
<path d="M6.86482 23.4534C6.82375 23.7188 6.60177 23.9047 6.36901 23.8687C6.13625 23.8326 5.98086 23.5883 6.02193 23.323C6.063 23.0576 6.28498 22.8717 6.51774 22.9078C6.7505 22.9438 6.90589 23.1881 6.86482 23.4534Z" fill="white"/>
<path d="M7.23207 25.1428C7.19099 25.4081 6.96901 25.594 6.73625 25.558C6.50349 25.5219 6.3481 25.2776 6.38917 25.0123C6.43024 24.747 6.65223 24.5611 6.88498 24.5971C7.11774 24.6331 7.27314 24.8774 7.23207 25.1428Z" fill="white"/>
<path d="M7.74621 26.6117C7.70513 26.8771 7.48315 27.063 7.25039 27.0269C7.01763 26.9909 6.86224 26.7466 6.90331 26.4813C6.94438 26.2159 7.16637 26.03 7.39913 26.0661C7.63188 26.1021 7.78728 26.3464 7.74621 26.6117Z" fill="white"/>
<path d="M8.40724 28.1542C8.36617 28.4195 8.14419 28.6054 7.91143 28.5694C7.67867 28.5333 7.52328 28.289 7.56435 28.0237C7.60542 27.7584 7.8274 27.5725 8.06016 27.6085C8.29292 27.6445 8.44831 27.8888 8.40724 28.1542Z" fill="white"/>
<path d="M9.21518 29.5497C9.17411 29.815 8.95212 30.0009 8.71937 29.9649C8.48661 29.9289 8.33121 29.6846 8.37228 29.4192C8.41336 29.1539 8.63534 28.968 8.8681 29.004C9.10086 29.04 9.25625 29.2843 9.21518 29.5497Z" fill="white"/>
<path d="M10.17 30.7983C10.1289 31.0637 9.90696 31.2496 9.6742 31.2135C9.44144 31.1775 9.28605 30.9332 9.32712 30.6678C9.36819 30.4025 9.59017 30.2166 9.82293 30.2526C10.0557 30.2887 10.2111 30.533 10.17 30.7983Z" fill="white"/>
<path d="M11.3452 31.9C11.3041 32.1654 11.0821 32.3513 10.8494 32.3153C10.6166 32.2792 10.4612 32.0349 10.5023 31.7696C10.5434 31.5042 10.7654 31.3183 10.9981 31.3544C11.2309 31.3904 11.3863 31.6347 11.3452 31.9Z" fill="white"/>
<path d="M12.5204 32.8549C12.4793 33.1202 12.2573 33.3061 12.0246 33.2701C11.7918 33.2341 11.6364 32.9897 11.6775 32.7244C11.7185 32.4591 11.9405 32.2732 12.1733 32.3092C12.406 32.3452 12.5614 32.5895 12.5204 32.8549Z" fill="white"/>
<path d="M13.8424 33.6628C13.8014 33.9282 13.5794 34.114 13.3466 34.078C13.1139 34.042 12.9585 33.7977 12.9996 33.5323C13.0406 33.267 13.2626 33.0811 13.4954 33.1171C13.7281 33.1532 13.8835 33.3975 13.8424 33.6628Z" fill="white"/>
<path d="M15.238 34.2504C15.1969 34.5157 14.9749 34.7016 14.7422 34.6656C14.5094 34.6296 14.354 34.3853 14.3951 34.1199C14.4361 33.8546 14.6581 33.6687 14.8909 33.7047C15.1236 33.7408 15.279 33.9851 15.238 34.2504Z" fill="white"/>
<path d="M16.7069 34.6176C16.6659 34.883 16.4439 35.0689 16.2111 35.0329C15.9784 34.9968 15.823 34.7525 15.864 34.4872C15.9051 34.2218 16.1271 34.0359 16.3599 34.072C16.5926 34.108 16.748 34.3523 16.7069 34.6176Z" fill="white"/>
<path d="M18.2494 34.838C18.2083 35.1033 17.9863 35.2892 17.7536 35.2532C17.5208 35.2172 17.3654 34.9729 17.4065 34.7075C17.4475 34.4422 17.6695 34.2563 17.9023 34.2923C18.135 34.3283 18.2904 34.5726 18.2494 34.838Z" fill="white"/>
<path d="M19.7183 34.838C19.6773 35.1033 19.4553 35.2892 19.2225 35.2532C18.9898 35.2172 18.8344 34.9729 18.8754 34.7075C18.9165 34.4422 19.1385 34.2563 19.3713 34.2923C19.604 34.3283 19.7594 34.5726 19.7183 34.838Z" fill="white"/>
<path d="M21.2608 34.6911C21.2197 34.9564 20.9977 35.1423 20.7649 35.1063C20.5322 35.0703 20.3768 34.826 20.4179 34.5606C20.4589 34.2953 20.6809 34.1094 20.9137 34.1454C21.1464 34.1814 21.3018 34.4257 21.2608 34.6911Z" fill="white"/>
<path d="M22.8032 34.3238C22.7621 34.5892 22.5401 34.7751 22.3074 34.7391C22.0746 34.703 21.9192 34.4587 21.9603 34.1934C22.0014 33.928 22.2233 33.7421 22.4561 33.7782C22.6889 33.8142 22.8443 34.0585 22.8032 34.3238Z" fill="white"/>
<path d="M24.2722 33.7363C24.2311 34.0016 24.0091 34.1875 23.7763 34.1515C23.5436 34.1154 23.3882 33.8711 23.4293 33.6058C23.4703 33.3404 23.6923 33.1546 23.9251 33.1906C24.1578 33.2266 24.3132 33.4709 24.2722 33.7363Z" fill="white"/>
<path d="M25.6677 32.9283C25.6266 33.1937 25.4046 33.3796 25.1719 33.3435C24.9391 33.3075 24.7837 33.0632 24.8248 32.7979C24.8659 32.5325 25.0878 32.3466 25.3206 32.3826C25.5534 32.4187 25.7088 32.663 25.6677 32.9283Z" fill="white"/>
<path d="M26.9898 31.9735C26.9487 32.2388 26.7267 32.4247 26.4939 32.3887C26.2612 32.3527 26.1058 32.1084 26.1469 31.843C26.1879 31.5777 26.4099 31.3918 26.6427 31.4278C26.8754 31.4638 27.0308 31.7081 26.9898 31.9735Z" fill="white"/>
<path d="M28.2384 30.8718C28.1973 31.1371 27.9753 31.323 27.7426 31.287C27.5098 31.2509 27.3544 31.0066 27.3955 30.7413C27.4366 30.476 27.6585 30.2901 27.8913 30.3261C28.1241 30.3621 28.2795 30.6064 28.2384 30.8718Z" fill="white"/>
<path d="M29.4136 29.6966C29.3725 29.9619 29.1505 30.1478 28.9178 30.1118C28.685 30.0758 28.5296 29.8315 28.5707 29.5661C28.6117 29.3008 28.8337 29.1149 29.0665 29.1509C29.2992 29.1869 29.4546 29.4312 29.4136 29.6966Z" fill="white"/>
<path d="M15.1287 36.1735C15.1287 36.5183 14.8492 36.7978 14.5044 36.7978C14.1596 36.7978 13.8801 36.5183 13.8801 36.1735C13.8801 35.8287 14.1596 35.5492 14.5044 35.5492C14.8492 35.5492 15.1287 35.8287 15.1287 36.1735Z" fill="white"/>
<path d="M17.1853 36.6142C17.1853 36.959 16.9058 37.2385 16.561 37.2385C16.2162 37.2385 15.9367 36.959 15.9367 36.6142C15.9367 36.2694 16.2162 35.9898 16.561 35.9898C16.9058 35.9898 17.1853 36.2694 17.1853 36.6142Z" fill="white"/>
<path d="M19.2418 36.8345C19.2418 37.1793 18.9623 37.4588 18.6175 37.4588C18.2727 37.4588 17.9932 37.1793 17.9932 36.8345C17.9932 36.4897 18.2727 36.2102 18.6175 36.2102C18.9623 36.2102 19.2418 36.4897 19.2418 36.8345Z" fill="white"/>
<path d="M21.4453 36.8345C21.4453 37.1793 21.1658 37.4588 20.821 37.4588C20.4762 37.4588 20.1967 37.1793 20.1967 36.8345C20.1967 36.4897 20.4762 36.2102 20.821 36.2102C21.1658 36.2102 21.4453 36.4897 21.4453 36.8345Z" fill="white"/>
<path d="M23.5019 36.6142C23.5019 36.959 23.2224 37.2385 22.8776 37.2385C22.5328 37.2385 22.2532 36.959 22.2532 36.6142C22.2532 36.2694 22.5328 35.9898 22.8776 35.9898C23.2224 35.9898 23.5019 36.2694 23.5019 36.6142Z" fill="white"/>
<path d="M25.5584 36.1735C25.5584 36.5183 25.2789 36.7978 24.9341 36.7978C24.5893 36.7978 24.3098 36.5183 24.3098 36.1735C24.3098 35.8287 24.5893 35.5492 24.9341 35.5492C25.2789 35.5492 25.5584 35.8287 25.5584 36.1735Z" fill="white"/>
<path d="M27.5415 35.3655C27.5415 35.7103 27.262 35.9898 26.9172 35.9898C26.5724 35.9898 26.2929 35.7103 26.2929 35.3655C26.2929 35.0207 26.5724 34.7412 26.9172 34.7412C27.262 34.7412 27.5415 35.0207 27.5415 35.3655Z" fill="white"/>
<path d="M29.4512 34.4841C29.4512 34.8289 29.1717 35.1085 28.8269 35.1085C28.4821 35.1085 28.2026 34.8289 28.2026 34.4841C28.2026 34.1394 28.4821 33.8598 28.8269 33.8598C29.1717 33.8598 29.4512 34.1394 29.4512 34.4841Z" fill="white"/>
<path d="M31.214 33.2355C31.214 33.5803 30.9345 33.8598 30.5897 33.8598C30.2449 33.8598 29.9653 33.5803 29.9653 33.2355C29.9653 32.8907 30.2449 32.6112 30.5897 32.6112C30.9345 32.6112 31.214 32.8907 31.214 33.2355Z" fill="white"/>
<path d="M32.8298 31.9869C32.8298 32.3317 32.5503 32.6112 32.2055 32.6112C31.8607 32.6112 31.5812 32.3317 31.5812 31.9869C31.5812 31.6421 31.8607 31.3626 32.2055 31.3626C32.5503 31.3626 32.8298 31.6421 32.8298 31.9869Z" fill="white"/>
<path d="M34.2988 30.371C34.2988 30.7158 34.0193 30.9953 33.6745 30.9953C33.3297 30.9953 33.0502 30.7158 33.0502 30.371C33.0502 30.0262 33.3297 29.7467 33.6745 29.7467C34.0193 29.7467 34.2988 30.0262 34.2988 30.371Z" fill="white"/>
<path d="M35.5474 28.6817C35.5474 29.0265 35.2679 29.306 34.9231 29.306C34.5783 29.306 34.2988 29.0265 34.2988 28.6817C34.2988 28.3369 34.5783 28.0574 34.9231 28.0574C35.2679 28.0574 35.5474 28.3369 35.5474 28.6817Z" fill="white"/>
<path d="M36.5757 26.8455C36.5757 27.1903 36.2962 27.4698 35.9514 27.4698C35.6066 27.4698 35.3271 27.1903 35.3271 26.8455C35.3271 26.5007 35.6066 26.2212 35.9514 26.2212C36.2962 26.2212 36.5757 26.5007 36.5757 26.8455Z" fill="white"/>
<path d="M37.4571 24.9358C37.4571 25.2806 37.1776 25.5601 36.8328 25.5601C36.488 25.5601 36.2085 25.2806 36.2085 24.9358C36.2085 24.591 36.488 24.3115 36.8328 24.3115C37.1776 24.3115 37.4571 24.591 37.4571 24.9358Z" fill="white"/>
<path d="M38.0447 22.9527C38.0447 23.2975 37.7652 23.577 37.4204 23.577C37.0756 23.577 36.7961 23.2975 36.7961 22.9527C36.7961 22.6079 37.0756 22.3284 37.4204 22.3284C37.7652 22.3284 38.0447 22.6079 38.0447 22.9527Z" fill="white"/>
<path d="M38.4119 20.8227C38.4119 21.1675 38.1324 21.447 37.7876 21.447C37.4428 21.447 37.1633 21.1675 37.1633 20.8227C37.1633 20.4779 37.4428 20.1984 37.7876 20.1984C38.1324 20.1984 38.4119 20.4779 38.4119 20.8227Z" fill="white"/>
<path d="M38.4119 18.6927C38.4119 19.0375 38.1324 19.317 37.7876 19.317C37.4428 19.317 37.1633 19.0375 37.1633 18.6927C37.1633 18.3479 37.4428 18.0684 37.7876 18.0684C38.1324 18.0684 38.4119 18.3479 38.4119 18.6927Z" fill="white"/>
<path d="M38.4119 16.5627C38.4119 16.9075 38.1324 17.187 37.7876 17.187C37.4428 17.187 37.1633 16.9075 37.1633 16.5627C37.1633 16.2179 37.4428 15.9384 37.7876 15.9384C38.1324 15.9384 38.4119 16.2179 38.4119 16.5627Z" fill="white"/>
<path d="M38.0447 14.5796C38.0447 14.9244 37.7652 15.2039 37.4204 15.2039C37.0756 15.2039 36.7961 14.9244 36.7961 14.5796C36.7961 14.2348 37.0756 13.9552 37.4204 13.9552C37.7652 13.9552 38.0447 14.2348 38.0447 14.5796Z" fill="white"/>
<path d="M37.4571 12.4495C37.4571 12.7943 37.1776 13.0739 36.8328 13.0739C36.488 13.0739 36.2085 12.7943 36.2085 12.4495C36.2085 12.1048 36.488 11.8252 36.8328 11.8252C37.1776 11.8252 37.4571 12.1048 37.4571 12.4495Z" fill="white"/>
<path d="M36.5757 10.6133C36.5757 10.9581 36.2962 11.2376 35.9514 11.2376C35.6066 11.2376 35.3271 10.9581 35.3271 10.6133C35.3271 10.2685 35.6066 9.98902 35.9514 9.98902C36.2962 9.98902 36.5757 10.2685 36.5757 10.6133Z" fill="white"/>
<path d="M35.5474 8.77712C35.5474 9.12192 35.2679 9.40143 34.9231 9.40143C34.5783 9.40143 34.2988 9.12192 34.2988 8.77712C34.2988 8.43232 34.5783 8.1528 34.9231 8.1528C35.2679 8.1528 35.5474 8.43232 35.5474 8.77712Z" fill="white"/>
<path d="M34.2988 7.16124C34.2988 7.50604 34.0193 7.78556 33.6745 7.78556C33.3297 7.78556 33.0502 7.50604 33.0502 7.16124C33.0502 6.81645 33.3297 6.53693 33.6745 6.53693C34.0193 6.53693 34.2988 6.81645 34.2988 7.16124Z" fill="white"/>
<path d="M32.7564 5.47193C32.7564 5.81672 32.4769 6.09624 32.1321 6.09624C31.7873 6.09624 31.5078 5.81672 31.5078 5.47193C31.5078 5.12713 31.7873 4.84761 32.1321 4.84761C32.4769 4.84761 32.7564 5.12713 32.7564 5.47193Z" fill="white"/>
<path d="M31.214 4.2233C31.214 4.5681 30.9345 4.84761 30.5897 4.84761C30.2449 4.84761 29.9653 4.5681 29.9653 4.2233C29.9653 3.8785 30.2449 3.59898 30.5897 3.59898C30.9345 3.59898 31.214 3.8785 31.214 4.2233Z" fill="white"/>
<path d="M29.4512 2.97467C29.4512 3.31947 29.1717 3.59898 28.8269 3.59898C28.4821 3.59898 28.2026 3.31947 28.2026 2.97467C28.2026 2.62987 28.4821 2.35036 28.8269 2.35036C29.1717 2.35036 29.4512 2.62987 29.4512 2.97467Z" fill="white"/>
<path d="M27.615 2.09329C27.615 2.43809 27.3355 2.7176 26.9907 2.7176C26.6459 2.7176 26.3664 2.43809 26.3664 2.09329C26.3664 1.74849 26.6459 1.46897 26.9907 1.46897C27.3355 1.46897 27.615 1.74849 27.615 2.09329Z" fill="white"/>
<path d="M25.5584 1.28535C25.5584 1.63015 25.2789 1.90967 24.9341 1.90967C24.5893 1.90967 24.3098 1.63015 24.3098 1.28535C24.3098 0.940553 24.5893 0.661038 24.9341 0.661038C25.2789 0.661038 25.5584 0.940553 25.5584 1.28535Z" fill="white"/>
<path d="M23.5753 0.84466C23.5753 1.18946 23.2958 1.46897 22.951 1.46897C22.6062 1.46897 22.3267 1.18946 22.3267 0.84466C22.3267 0.499861 22.6062 0.220346 22.951 0.220346C23.2958 0.220346 23.5753 0.499861 23.5753 0.84466Z" fill="white"/>
<path d="M21.3719 0.624314C21.3719 0.969113 21.0923 1.24863 20.7475 1.24863C20.4027 1.24863 20.1232 0.969113 20.1232 0.624314C20.1232 0.279515 20.4027 0 20.7475 0C21.0923 0 21.3719 0.279515 21.3719 0.624314Z" fill="white"/>
<path d="M19.3887 0.624314C19.3887 0.969113 19.1092 1.24863 18.7644 1.24863C18.4196 1.24863 18.1401 0.969113 18.1401 0.624314C18.1401 0.279515 18.4196 0 18.7644 0C19.1092 0 19.3887 0.279515 19.3887 0.624314Z" fill="white"/>
<path d="M17.1853 0.84466C17.1853 1.18946 16.9058 1.46897 16.561 1.46897C16.2162 1.46897 15.9367 1.18946 15.9367 0.84466C15.9367 0.499861 16.2162 0.220346 16.561 0.220346C16.9058 0.220346 17.1853 0.499861 17.1853 0.84466Z" fill="white"/>
<path d="M15.1287 1.28535C15.1287 1.63015 14.8492 1.90967 14.5044 1.90967C14.1596 1.90967 13.8801 1.63015 13.8801 1.28535C13.8801 0.940553 14.1596 0.661038 14.5044 0.661038C14.8492 0.661038 15.1287 0.940553 15.1287 1.28535Z" fill="white"/>
<path d="M13.2191 2.09329C13.2191 2.43809 12.9395 2.7176 12.5947 2.7176C12.2499 2.7176 11.9704 2.43809 11.9704 2.09329C11.9704 1.74849 12.2499 1.46897 12.5947 1.46897C12.9395 1.46897 13.2191 1.74849 13.2191 2.09329Z" fill="white"/>
<path d="M11.2359 3.04812C11.2359 3.39292 10.9564 3.67243 10.6116 3.67243C10.2668 3.67243 9.98731 3.39292 9.98731 3.04812C9.98731 2.70332 10.2668 2.42381 10.6116 2.42381C10.9564 2.42381 11.2359 2.70332 11.2359 3.04812Z" fill="white"/>
<path d="M9.47317 4.14985C9.47317 4.49465 9.19366 4.77416 8.84886 4.77416C8.50406 4.77416 8.22454 4.49465 8.22454 4.14985C8.22454 3.80505 8.50406 3.52554 8.84886 3.52554C9.19366 3.52554 9.47317 3.80505 9.47317 4.14985Z" fill="white"/>
<path d="M7.8573 5.54537C7.8573 5.89017 7.57779 6.16969 7.23299 6.16969C6.88819 6.16969 6.60867 5.89017 6.60867 5.54537C6.60867 5.20058 6.88819 4.92106 7.23299 4.92106C7.57779 4.92106 7.8573 5.20058 7.8573 5.54537Z" fill="white"/>
<path d="M6.46178 7.0878C6.46178 7.4326 6.18226 7.71211 5.83746 7.71211C5.49266 7.71211 5.21315 7.4326 5.21315 7.0878C5.21315 6.743 5.49266 6.46348 5.83746 6.46348C6.18226 6.46348 6.46178 6.743 6.46178 7.0878Z" fill="white"/>
<path d="M5.21315 8.77712C5.21315 9.12192 4.93363 9.40143 4.58883 9.40143C4.24404 9.40143 3.96452 9.12192 3.96452 8.77712C3.96452 8.43232 4.24404 8.1528 4.58883 8.1528C4.93363 8.1528 5.21315 8.43232 5.21315 8.77712Z" fill="white"/>
<path d="M4.11142 10.6133C4.11142 10.9581 3.8319 11.2376 3.4871 11.2376C3.14231 11.2376 2.86279 10.9581 2.86279 10.6133C2.86279 10.2685 3.14231 9.98902 3.4871 9.98902C3.8319 9.98902 4.11142 10.2685 4.11142 10.6133Z" fill="white"/>
<path d="M3.23003 12.523C3.23003 12.8678 2.95052 13.1473 2.60572 13.1473C2.26092 13.1473 1.98141 12.8678 1.98141 12.523C1.98141 12.1782 2.26092 11.8987 2.60572 11.8987C2.95052 11.8987 3.23003 12.1782 3.23003 12.523Z" fill="white"/>
<path d="M2.64244 14.5061C2.64244 14.8509 2.36293 15.1304 2.01813 15.1304C1.67333 15.1304 1.39382 14.8509 1.39382 14.5061C1.39382 14.1613 1.67333 13.8818 2.01813 13.8818C2.36293 13.8818 2.64244 14.1613 2.64244 14.5061Z" fill="white"/>
<path d="M2.34865 16.7096C2.34865 17.0544 2.06913 17.3339 1.72434 17.3339C1.37954 17.3339 1.10002 17.0544 1.10002 16.7096C1.10002 16.3648 1.37954 16.0853 1.72434 16.0853C2.06913 16.0853 2.34865 16.3648 2.34865 16.7096Z" fill="white"/>
<path d="M2.20175 18.8396C2.20175 19.1844 1.92224 19.4639 1.57744 19.4639C1.23264 19.4639 0.953125 19.1844 0.953125 18.8396C0.953125 18.4948 1.23264 18.2153 1.57744 18.2153C1.92224 18.2153 2.20175 18.4948 2.20175 18.8396Z" fill="white"/>
<path d="M2.34865 20.8227C2.34865 21.1675 2.06913 21.447 1.72434 21.447C1.37954 21.447 1.10002 21.1675 1.10002 20.8227C1.10002 20.4779 1.37954 20.1984 1.72434 20.1984C2.06913 20.1984 2.34865 20.4779 2.34865 20.8227Z" fill="white"/>
<path d="M2.64244 22.9527C2.64244 23.2975 2.36293 23.577 2.01813 23.577C1.67333 23.577 1.39382 23.2975 1.39382 22.9527C1.39382 22.6079 1.67333 22.3284 2.01813 22.3284C2.36293 22.3284 2.64244 22.6079 2.64244 22.9527Z" fill="white"/>
<path d="M3.30348 24.9358C3.30348 25.2806 3.02397 25.5601 2.67917 25.5601C2.33437 25.5601 2.05485 25.2806 2.05485 24.9358C2.05485 24.591 2.33437 24.3115 2.67917 24.3115C3.02397 24.3115 3.30348 24.591 3.30348 24.9358Z" fill="white"/>
<path d="M4.11142 26.8455C4.11142 27.1903 3.8319 27.4698 3.4871 27.4698C3.14231 27.4698 2.86279 27.1903 2.86279 26.8455C2.86279 26.5007 3.14231 26.2212 3.4871 26.2212C3.8319 26.2212 4.11142 26.5007 4.11142 26.8455Z" fill="white"/>
<path d="M5.21315 28.6817C5.21315 29.0265 4.93363 29.306 4.58883 29.306C4.24404 29.306 3.96452 29.0265 3.96452 28.6817C3.96452 28.3369 4.24404 28.0574 4.58883 28.0574C4.93363 28.0574 5.21315 28.3369 5.21315 28.6817Z" fill="white"/>
<path d="M6.46178 30.371C6.46178 30.7158 6.18226 30.9953 5.83746 30.9953C5.49266 30.9953 5.21315 30.7158 5.21315 30.371C5.21315 30.0262 5.49266 29.7467 5.83746 29.7467C6.18226 29.7467 6.46178 30.0262 6.46178 30.371Z" fill="white"/>
<path d="M7.93075 31.9869C7.93075 32.3317 7.65123 32.6112 7.30643 32.6112C6.96164 32.6112 6.68212 32.3317 6.68212 31.9869C6.68212 31.6421 6.96164 31.3626 7.30643 31.3626C7.65123 31.3626 7.93075 31.6421 7.93075 31.9869Z" fill="white"/>
<path d="M9.47317 33.2355C9.47317 33.5803 9.19366 33.8598 8.84886 33.8598C8.50406 33.8598 8.22454 33.5803 8.22454 33.2355C8.22454 32.8907 8.50406 32.6112 8.84886 32.6112C9.19366 32.6112 9.47317 32.8907 9.47317 33.2355Z" fill="white"/>
<path d="M11.2359 34.4841C11.2359 34.8289 10.9564 35.1085 10.6116 35.1085C10.2668 35.1085 9.98731 34.8289 9.98731 34.4841C9.98731 34.1394 10.2668 33.8598 10.6116 33.8598C10.9564 33.8598 11.2359 34.1394 11.2359 34.4841Z" fill="white"/>
<path d="M13.2191 35.3655C13.2191 35.7103 12.9395 35.9898 12.5947 35.9898C12.2499 35.9898 11.9704 35.7103 11.9704 35.3655C11.9704 35.0207 12.2499 34.7412 12.5947 34.7412C12.9395 34.7412 13.2191 35.0207 13.2191 35.3655Z" fill="white"/>
<path d="M11.4563 16.8565C11.4563 17.039 11.3083 17.187 11.1258 17.187C10.9432 17.187 10.7952 17.039 10.7952 16.8565C10.7952 16.6739 10.9432 16.5259 11.1258 16.5259C11.3083 16.5259 11.4563 16.6739 11.4563 16.8565Z" fill="white"/>
<path d="M11.897 15.8282C11.897 16.0107 11.749 16.1587 11.5665 16.1587C11.3839 16.1587 11.2359 16.0107 11.2359 15.8282C11.2359 15.6456 11.3839 15.4977 11.5665 15.4977C11.749 15.4977 11.897 15.6456 11.897 15.8282Z" fill="white"/>
<path d="M12.558 14.8734C12.558 15.0559 12.41 15.2039 12.2275 15.2039C12.045 15.2039 11.897 15.0559 11.897 14.8734C11.897 14.6908 12.045 14.5428 12.2275 14.5428C12.41 14.5428 12.558 14.6908 12.558 14.8734Z" fill="white"/>
<path d="M13.2191 13.992C13.2191 14.1745 13.0711 14.3225 12.8885 14.3225C12.706 14.3225 12.558 14.1745 12.558 13.992C12.558 13.8094 12.706 13.6615 12.8885 13.6615C13.0711 13.6615 13.2191 13.8094 13.2191 13.992Z" fill="white"/>
<path d="M14.027 13.2575C14.027 13.44 13.879 13.588 13.6965 13.588C13.5139 13.588 13.3659 13.44 13.3659 13.2575C13.3659 13.0749 13.5139 12.927 13.6965 12.927C13.879 12.927 14.027 13.0749 14.027 13.2575Z" fill="white"/>
<path d="M14.9084 12.5964C14.9084 12.779 14.7604 12.927 14.5779 12.927C14.3953 12.927 14.2473 12.779 14.2473 12.5964C14.2473 12.4139 14.3953 12.2659 14.5779 12.2659C14.7604 12.2659 14.9084 12.4139 14.9084 12.5964Z" fill="white"/>
<path d="M15.9367 12.0089C15.9367 12.1914 15.7887 12.3394 15.6061 12.3394C15.4236 12.3394 15.2756 12.1914 15.2756 12.0089C15.2756 11.8263 15.4236 11.6783 15.6061 11.6783C15.7887 11.6783 15.9367 11.8263 15.9367 12.0089Z" fill="white"/>
<path d="M16.9649 11.6416C16.9649 11.8242 16.817 11.9721 16.6344 11.9721C16.4519 11.9721 16.3039 11.8242 16.3039 11.6416C16.3039 11.4591 16.4519 11.3111 16.6344 11.3111C16.817 11.3111 16.9649 11.4591 16.9649 11.6416Z" fill="white"/>
<path d="M17.9932 11.3478C17.9932 11.5304 17.8452 11.6783 17.6627 11.6783C17.4802 11.6783 17.3322 11.5304 17.3322 11.3478C17.3322 11.1653 17.4802 11.0173 17.6627 11.0173C17.8452 11.0173 17.9932 11.1653 17.9932 11.3478Z" fill="white"/>
<path d="M19.1684 11.2009C19.1684 11.3835 19.0204 11.5314 18.8379 11.5314C18.6553 11.5314 18.5074 11.3835 18.5074 11.2009C18.5074 11.0184 18.6553 10.8704 18.8379 10.8704C19.0204 10.8704 19.1684 11.0184 19.1684 11.2009Z" fill="white"/>
<path d="M20.2701 11.1275C20.2701 11.31 20.1221 11.458 19.9396 11.458C19.7571 11.458 19.6091 11.31 19.6091 11.1275C19.6091 10.9449 19.7571 10.797 19.9396 10.797C20.1221 10.797 20.2701 10.9449 20.2701 11.1275Z" fill="white"/>
<path d="M21.3719 11.2744C21.3719 11.4569 21.2239 11.6049 21.0413 11.6049C20.8588 11.6049 20.7108 11.4569 20.7108 11.2744C20.7108 11.0918 20.8588 10.9439 21.0413 10.9439C21.2239 10.9439 21.3719 11.0918 21.3719 11.2744Z" fill="white"/>
<path d="M22.4736 11.4947C22.4736 11.6773 22.3256 11.8252 22.1431 11.8252C21.9605 11.8252 21.8125 11.6773 21.8125 11.4947C21.8125 11.3122 21.9605 11.1642 22.1431 11.1642C22.3256 11.1642 22.4736 11.3122 22.4736 11.4947Z" fill="white"/>
<path d="M23.5753 11.862C23.5753 12.0445 23.4273 12.1925 23.2448 12.1925C23.0623 12.1925 22.9143 12.0445 22.9143 11.862C22.9143 11.6794 23.0623 11.5314 23.2448 11.5314C23.4273 11.5314 23.5753 11.6794 23.5753 11.862Z" fill="white"/>
<path d="M24.6036 12.4495C24.6036 12.6321 24.4556 12.7801 24.2731 12.7801C24.0905 12.7801 23.9426 12.6321 23.9426 12.4495C23.9426 12.267 24.0905 12.119 24.2731 12.119C24.4556 12.119 24.6036 12.267 24.6036 12.4495Z" fill="white"/>
<path d="M25.5584 13.0371C25.5584 13.2197 25.4104 13.3677 25.2279 13.3677C25.0454 13.3677 24.8974 13.2197 24.8974 13.0371C24.8974 12.8546 25.0454 12.7066 25.2279 12.7066C25.4104 12.7066 25.5584 12.8546 25.5584 13.0371Z" fill="white"/>
<path d="M26.5133 13.7716C26.5133 13.9542 26.3653 14.1021 26.1827 14.1021C26.0002 14.1021 25.8522 13.9542 25.8522 13.7716C25.8522 13.5891 26.0002 13.4411 26.1827 13.4411C26.3653 13.4411 26.5133 13.5891 26.5133 13.7716Z" fill="white"/>
<path d="M27.3212 14.5796C27.3212 14.7621 27.1732 14.9101 26.9907 14.9101C26.8081 14.9101 26.6602 14.7621 26.6602 14.5796C26.6602 14.397 26.8081 14.249 26.9907 14.249C27.1732 14.249 27.3212 14.397 27.3212 14.5796Z" fill="white"/>
<path d="M28.0557 15.5344C28.0557 15.7169 27.9077 15.8649 27.7252 15.8649C27.5426 15.8649 27.3946 15.7169 27.3946 15.5344C27.3946 15.3519 27.5426 15.2039 27.7252 15.2039C27.9077 15.2039 28.0557 15.3519 28.0557 15.5344Z" fill="white"/>
<path d="M28.7167 16.5627C28.7167 16.7452 28.5687 16.8932 28.3862 16.8932C28.2037 16.8932 28.0557 16.7452 28.0557 16.5627C28.0557 16.3801 28.2037 16.2322 28.3862 16.2322C28.5687 16.2322 28.7167 16.3801 28.7167 16.5627Z" fill="white"/>
<path d="M29.2309 17.591C29.2309 17.7735 29.0829 17.9215 28.9003 17.9215C28.7178 17.9215 28.5698 17.7735 28.5698 17.591C28.5698 17.4084 28.7178 17.2604 28.9003 17.2604C29.0829 17.2604 29.2309 17.4084 29.2309 17.591Z" fill="white"/>
<path d="M29.5981 18.6927C29.5981 18.8752 29.4501 19.0232 29.2676 19.0232C29.085 19.0232 28.9371 18.8752 28.9371 18.6927C28.9371 18.5101 29.085 18.3622 29.2676 18.3622C29.4501 18.3622 29.5981 18.5101 29.5981 18.6927Z" fill="white"/>
<path d="M29.8919 19.8679C29.8919 20.0504 29.7439 20.1984 29.5614 20.1984C29.3788 20.1984 29.2309 20.0504 29.2309 19.8679C29.2309 19.6853 29.3788 19.5373 29.5614 19.5373C29.7439 19.5373 29.8919 19.6853 29.8919 19.8679Z" fill="white"/>
<path d="M30.0388 21.043C30.0388 21.2256 29.8908 21.3736 29.7083 21.3736C29.5257 21.3736 29.3778 21.2256 29.3778 21.043C29.3778 20.8605 29.5257 20.7125 29.7083 20.7125C29.8908 20.7125 30.0388 20.8605 30.0388 21.043Z" fill="white"/>
<path d="M30.0388 22.2182C30.0388 22.4008 29.8908 22.5487 29.7083 22.5487C29.5257 22.5487 29.3778 22.4008 29.3778 22.2182C29.3778 22.0357 29.5257 21.8877 29.7083 21.8877C29.8908 21.8877 30.0388 22.0357 30.0388 22.2182Z" fill="white"/>
<path d="M29.9653 23.3934C29.9653 23.5759 29.8174 23.7239 29.6348 23.7239C29.4523 23.7239 29.3043 23.5759 29.3043 23.3934C29.3043 23.2109 29.4523 23.0629 29.6348 23.0629C29.8174 23.0629 29.9653 23.2109 29.9653 23.3934Z" fill="white"/>
<path d="M29.6716 24.4951C29.6716 24.6777 29.5236 24.8256 29.341 24.8256C29.1585 24.8256 29.0105 24.6777 29.0105 24.4951C29.0105 24.3126 29.1585 24.1646 29.341 24.1646C29.5236 24.1646 29.6716 24.3126 29.6716 24.4951Z" fill="white"/>
<path d="M29.3043 25.5969C29.3043 25.7794 29.1563 25.9274 28.9738 25.9274C28.7913 25.9274 28.6433 25.7794 28.6433 25.5969C28.6433 25.4143 28.7913 25.2663 28.9738 25.2663C29.1563 25.2663 29.3043 25.4143 29.3043 25.5969Z" fill="white"/>
<path d="M28.7902 26.6251C28.7902 26.8077 28.6422 26.9557 28.4597 26.9557C28.2771 26.9557 28.1291 26.8077 28.1291 26.6251C28.1291 26.4426 28.2771 26.2946 28.4597 26.2946C28.6422 26.2946 28.7902 26.4426 28.7902 26.6251Z" fill="white"/>
<path d="M28.2026 27.58C28.2026 27.7625 28.0546 27.9105 27.8721 27.9105C27.6895 27.9105 27.5415 27.7625 27.5415 27.58C27.5415 27.3974 27.6895 27.2495 27.8721 27.2495C28.0546 27.2495 28.2026 27.3974 28.2026 27.58Z" fill="white"/>
<path d="M27.5415 28.4614C27.5415 28.6439 27.3936 28.7919 27.211 28.7919C27.0285 28.7919 26.8805 28.6439 26.8805 28.4614C26.8805 28.2788 27.0285 28.1308 27.211 28.1308C27.3936 28.1308 27.5415 28.2788 27.5415 28.4614Z" fill="white"/>
<path d="M26.7336 29.1958C26.7336 29.3784 26.5856 29.5264 26.4031 29.5264C26.2205 29.5264 26.0726 29.3784 26.0726 29.1958C26.0726 29.0133 26.2205 28.8653 26.4031 28.8653C26.5856 28.8653 26.7336 29.0133 26.7336 29.1958Z" fill="white"/>
<path d="M25.8522 29.8569C25.8522 30.0394 25.7042 30.1874 25.5217 30.1874C25.3392 30.1874 25.1912 30.0394 25.1912 29.8569C25.1912 29.6743 25.3392 29.5264 25.5217 29.5264C25.7042 29.5264 25.8522 29.6743 25.8522 29.8569Z" fill="white"/>
<path d="M24.8239 30.4445C24.8239 30.627 24.676 30.775 24.4934 30.775C24.3109 30.775 24.1629 30.627 24.1629 30.4445C24.1629 30.2619 24.3109 30.114 24.4934 30.114C24.676 30.114 24.8239 30.2619 24.8239 30.4445Z" fill="white"/>
<path d="M23.7957 30.8117C23.7957 30.9943 23.6477 31.1422 23.4651 31.1422C23.2826 31.1422 23.1346 30.9943 23.1346 30.8117C23.1346 30.6292 23.2826 30.4812 23.4651 30.4812C23.6477 30.4812 23.7957 30.6292 23.7957 30.8117Z" fill="white"/>
<path d="M22.7674 31.1055C22.7674 31.2881 22.6194 31.436 22.4369 31.436C22.2543 31.436 22.1063 31.2881 22.1063 31.1055C22.1063 30.923 22.2543 30.775 22.4369 30.775C22.6194 30.775 22.7674 30.923 22.7674 31.1055Z" fill="white"/>
<path d="M20.4905 31.3259C20.4905 31.5084 20.3425 31.6564 20.16 31.6564C19.9774 31.6564 19.8294 31.5084 19.8294 31.3259C19.8294 31.1433 19.9774 30.9953 20.16 30.9953C20.3425 30.9953 20.4905 31.1433 20.4905 31.3259Z" fill="white"/>
<path d="M19.3887 31.179C19.3887 31.3615 19.2408 31.5095 19.0582 31.5095C18.8757 31.5095 18.7277 31.3615 18.7277 31.179C18.7277 30.9964 18.8757 30.8484 19.0582 30.8484C19.2408 30.8484 19.3887 30.9964 19.3887 31.179Z" fill="white"/>
<path d="M18.287 30.9586C18.287 31.1412 18.139 31.2891 17.9565 31.2891C17.774 31.2891 17.626 31.1412 17.626 30.9586C17.626 30.7761 17.774 30.6281 17.9565 30.6281C18.139 30.6281 18.287 30.7761 18.287 30.9586Z" fill="white"/>
<path d="M17.1853 30.5179C17.1853 30.7005 17.0373 30.8484 16.8548 30.8484C16.6722 30.8484 16.5242 30.7005 16.5242 30.5179C16.5242 30.3354 16.6722 30.1874 16.8548 30.1874C17.0373 30.1874 17.1853 30.3354 17.1853 30.5179Z" fill="white"/>
<path d="M16.157 30.0038C16.157 30.1863 16.009 30.3343 15.8265 30.3343C15.6439 30.3343 15.496 30.1863 15.496 30.0038C15.496 29.8212 15.6439 29.6733 15.8265 29.6733C16.009 29.6733 16.157 29.8212 16.157 30.0038Z" fill="white"/>
<path d="M15.1287 29.4162C15.1287 29.5987 14.9807 29.7467 14.7982 29.7467C14.6157 29.7467 14.4677 29.5987 14.4677 29.4162C14.4677 29.2337 14.6157 29.0857 14.7982 29.0857C14.9807 29.0857 15.1287 29.2337 15.1287 29.4162Z" fill="white"/>
<path d="M14.2473 28.6817C14.2473 28.8642 14.0994 29.0122 13.9168 29.0122C13.7343 29.0122 13.5863 28.8642 13.5863 28.6817C13.5863 28.4992 13.7343 28.3512 13.9168 28.3512C14.0994 28.3512 14.2473 28.4992 14.2473 28.6817Z" fill="white"/>
<path d="M13.4394 27.8003C13.4394 27.9829 13.2914 28.1308 13.1089 28.1308C12.9263 28.1308 12.7784 27.9829 12.7784 27.8003C12.7784 27.6178 12.9263 27.4698 13.1089 27.4698C13.2914 27.4698 13.4394 27.6178 13.4394 27.8003Z" fill="white"/>
<path d="M12.7049 26.9189C12.7049 27.1015 12.5569 27.2495 12.3744 27.2495C12.1919 27.2495 12.0439 27.1015 12.0439 26.9189C12.0439 26.7364 12.1919 26.5884 12.3744 26.5884C12.5569 26.5884 12.7049 26.7364 12.7049 26.9189Z" fill="white"/>
<path d="M12.0439 25.8907C12.0439 26.0732 11.8959 26.2212 11.7134 26.2212C11.5308 26.2212 11.3828 26.0732 11.3828 25.8907C11.3828 25.7081 11.5308 25.5601 11.7134 25.5601C11.8959 25.5601 12.0439 25.7081 12.0439 25.8907Z" fill="white"/>
<path d="M11.5297 24.7889C11.5297 24.9715 11.3818 25.1194 11.1992 25.1194C11.0167 25.1194 10.8687 24.9715 10.8687 24.7889C10.8687 24.6064 11.0167 24.4584 11.1992 24.4584C11.3818 24.4584 11.5297 24.6064 11.5297 24.7889Z" fill="white"/>
<path d="M11.1625 23.6872C11.1625 23.8697 11.0145 24.0177 10.832 24.0177C10.6494 24.0177 10.5015 23.8697 10.5015 23.6872C10.5015 23.5047 10.6494 23.3567 10.832 23.3567C11.0145 23.3567 11.1625 23.5047 11.1625 23.6872Z" fill="white"/>
<path d="M10.8687 22.512C10.8687 22.6946 10.7207 22.8425 10.5382 22.8425C10.3556 22.8425 10.2077 22.6946 10.2077 22.512C10.2077 22.3295 10.3556 22.1815 10.5382 22.1815C10.7207 22.1815 10.8687 22.3295 10.8687 22.512Z" fill="white"/>
<path d="M10.7218 21.4103C10.7218 21.5928 10.5738 21.7408 10.3913 21.7408C10.2087 21.7408 10.0608 21.5928 10.0608 21.4103C10.0608 21.2277 10.2087 21.0798 10.3913 21.0798C10.5738 21.0798 10.7218 21.2277 10.7218 21.4103Z" fill="white"/>
<path d="M10.7218 20.2351C10.7218 20.4176 10.5738 20.5656 10.3913 20.5656C10.2087 20.5656 10.0608 20.4176 10.0608 20.2351C10.0608 20.0526 10.2087 19.9046 10.3913 19.9046C10.5738 19.9046 10.7218 20.0526 10.7218 20.2351Z" fill="white"/>
<path d="M10.7952 19.0599C10.7952 19.2425 10.6473 19.3904 10.4647 19.3904C10.2822 19.3904 10.1342 19.2425 10.1342 19.0599C10.1342 18.8774 10.2822 18.7294 10.4647 18.7294C10.6473 18.7294 10.7952 18.8774 10.7952 19.0599Z" fill="white"/>
<path d="M11.089 17.8848C11.089 18.0673 10.9411 18.2153 10.7585 18.2153C10.576 18.2153 10.428 18.0673 10.428 17.8848C10.428 17.7022 10.576 17.5542 10.7585 17.5542C10.9411 17.5542 11.089 17.7022 11.089 17.8848Z" fill="white"/>
<path d="M21.6656 31.2524C21.6656 31.4349 21.5177 31.5829 21.3351 31.5829C21.1526 31.5829 21.0046 31.4349 21.0046 31.2524C21.0046 31.0699 21.1526 30.9219 21.3351 30.9219C21.5177 30.9219 21.6656 31.0699 21.6656 31.2524Z" fill="white"/>
</svg>
