<svg width="301" height="138" viewBox="0 0 301 138" fill="none" xmlns="http://www.w3.org/2000/svg">
<g filter="url(#filter0_d_1800_1315)">
<path d="M297.114 1L11 1.01834V120.419L22.3486 118.021L37.3736 124.575L52.0789 118.021L61.5095 120.419L87.8831 113.066L112.339 120.419L129.441 110.669L150.221 116.743L178.512 113.066L216.714 120.419L229.661 110.669L255.395 116.743L268.662 114.505L297.114 118.003V1Z" fill="#A9A6A1"/>
</g>
<path d="M32.5084 51.1117V61.4688H31.2542V51.1117H32.5084ZM42.0221 61.6306C41.2939 61.6306 40.6668 61.4586 40.1409 61.1147C39.6149 60.7709 39.2103 60.2972 38.9271 59.6937C38.6439 59.0902 38.5023 58.4007 38.5023 57.6253C38.5023 56.8364 38.6473 56.1402 38.9373 55.5367C39.2306 54.9298 39.6385 54.4562 40.1611 54.1156C40.687 53.7718 41.3006 53.5998 42.0019 53.5998C42.5481 53.5998 43.0403 53.701 43.4786 53.9032C43.9169 54.1055 44.2759 54.3887 44.5558 54.7528C44.8356 55.117 45.0092 55.5418 45.0767 56.0272H43.8832C43.7921 55.6732 43.5898 55.3597 43.2763 55.0866C42.9661 54.8102 42.5481 54.6719 42.0221 54.6719C41.5569 54.6719 41.1489 54.7933 40.7983 55.036C40.451 55.2754 40.1796 55.6142 39.9841 56.0525C39.7919 56.4874 39.6958 56.9982 39.6958 57.5849C39.6958 58.185 39.7902 58.7075 39.979 59.1526C40.1712 59.5976 40.4409 59.9432 40.7882 60.1893C41.1388 60.4354 41.5501 60.5585 42.0221 60.5585C42.3323 60.5585 42.6138 60.5045 42.8667 60.3966C43.1195 60.2887 43.3336 60.1337 43.5089 59.9314C43.6842 59.7291 43.809 59.4863 43.8832 59.2031H45.0767C45.0092 59.6617 44.8423 60.0747 44.576 60.4421C44.313 60.8063 43.9641 61.0962 43.5292 61.312C43.0976 61.5244 42.5953 61.6306 42.0221 61.6306ZM49.1072 61.6508C48.615 61.6508 48.1683 61.5581 47.7671 61.3727C47.3659 61.1839 47.0473 60.9125 46.8113 60.5585C46.5753 60.2011 46.4573 59.7695 46.4573 59.2638C46.4573 58.8188 46.5449 58.4581 46.7202 58.1816C46.8955 57.9018 47.1299 57.6826 47.4232 57.5242C47.7165 57.3657 48.0401 57.2477 48.3941 57.1702C48.7515 57.0893 49.1106 57.0252 49.4713 56.978C49.9433 56.9173 50.326 56.8718 50.6193 56.8415C50.916 56.8077 51.1318 56.7521 51.2666 56.6746C51.4048 56.597 51.474 56.4622 51.474 56.27V56.2295C51.474 55.7306 51.3374 55.3428 51.0643 55.0664C50.7946 54.7899 50.385 54.6517 49.8354 54.6517C49.2657 54.6517 48.8189 54.7764 48.4953 55.0259C48.1716 55.2754 47.9441 55.5418 47.8126 55.825L46.6798 55.4204C46.8821 54.9484 47.1518 54.5809 47.4889 54.3179C47.8294 54.0516 48.2003 53.8662 48.6015 53.7616C49.0061 53.6538 49.4039 53.5998 49.795 53.5998C50.0445 53.5998 50.331 53.6302 50.6547 53.6908C50.9817 53.7482 51.297 53.8678 51.6004 54.0499C51.9072 54.232 52.1617 54.5067 52.364 54.8742C52.5663 55.2417 52.6674 55.7339 52.6674 56.3509V61.4688H51.474V60.4169H51.4133C51.3324 60.5854 51.1975 60.7658 51.0087 60.958C50.8199 61.1501 50.5687 61.3137 50.2552 61.4485C49.9416 61.5834 49.559 61.6508 49.1072 61.6508ZM49.2893 60.5787C49.7613 60.5787 50.1591 60.486 50.4828 60.3005C50.8098 60.1151 51.0559 59.8757 51.2211 59.5824C51.3897 59.2891 51.474 58.9806 51.474 58.657V57.5646C51.4234 57.6253 51.3121 57.6809 51.1402 57.7315C50.9716 57.7787 50.7761 57.8209 50.5536 57.8579C50.3344 57.8917 50.1203 57.922 49.9113 57.949C49.7056 57.9726 49.5387 57.9928 49.4106 58.0097C49.1005 58.0501 48.8105 58.1159 48.5408 58.2069C48.2745 58.2945 48.0587 58.4277 47.8935 58.6064C47.7317 58.7817 47.6507 59.0211 47.6507 59.3245C47.6507 59.7392 47.8041 60.0527 48.1109 60.2651C48.4211 60.4742 48.8139 60.5787 49.2893 60.5787ZM56.0393 56.7959V61.4688H54.8458V53.701H55.9988V54.9147H56.1C56.282 54.5202 56.5585 54.2033 56.9294 53.9639C57.3002 53.7212 57.779 53.5998 58.3656 53.5998C58.8915 53.5998 59.3517 53.7077 59.7462 53.9235C60.1407 54.1359 60.4475 54.4595 60.6666 54.8944C60.8857 55.326 60.9953 55.8722 60.9953 56.533V61.4688H59.8018V56.6139C59.8018 56.0036 59.6434 55.5283 59.3265 55.1878C59.0095 54.8439 58.5746 54.6719 58.0217 54.6719C57.6407 54.6719 57.3002 54.7545 57.0002 54.9197C56.7035 55.0849 56.4692 55.326 56.2972 55.6429C56.1253 55.9598 56.0393 56.3442 56.0393 56.7959ZM70.1146 61.6306C69.4673 61.6306 68.8959 61.4671 68.4003 61.14C67.9047 60.8096 67.5169 60.3444 67.2371 59.7443C66.9573 59.1408 66.8174 58.4277 66.8174 57.6051C66.8174 56.7892 66.9573 56.0812 67.2371 55.4811C67.5169 54.881 67.9063 54.4174 68.4053 54.0904C68.9043 53.7633 69.4808 53.5998 70.1349 53.5998C70.6406 53.5998 71.0401 53.6841 71.3334 53.8527C71.6301 54.0179 71.856 54.2067 72.0111 54.4191C72.1695 54.6281 72.2926 54.8 72.3802 54.9349H72.4814V51.1117H73.6749V61.4688H72.5218V60.2753H72.3802C72.2926 60.4169 72.1678 60.5955 72.006 60.8113C71.8442 61.0237 71.6132 61.2142 71.3132 61.3828C71.0131 61.548 70.6136 61.6306 70.1146 61.6306ZM70.2765 60.5585C70.7552 60.5585 71.1598 60.4337 71.4902 60.1842C71.8206 59.9314 72.0718 59.5824 72.2437 59.1374C72.4156 58.689 72.5016 58.1715 72.5016 57.5849C72.5016 57.005 72.4173 56.4976 72.2488 56.0626C72.0802 55.6244 71.8307 55.2838 71.5003 55.0411C71.1699 54.795 70.762 54.6719 70.2765 54.6719C69.7707 54.6719 69.3493 54.8017 69.0122 55.0613C68.6784 55.3176 68.4272 55.6665 68.2587 56.1082C68.0935 56.5464 68.0109 57.0387 68.0109 57.5849C68.0109 58.1378 68.0951 58.6401 68.2637 59.0919C68.4357 59.5403 68.6885 59.8977 69.0223 60.164C69.3594 60.427 69.7775 60.5585 70.2765 60.5585ZM79.1821 61.6306C78.4809 61.6306 77.8656 61.4637 77.3363 61.1299C76.8103 60.7961 76.399 60.3292 76.1023 59.7291C75.809 59.129 75.6623 58.4277 75.6623 57.6253C75.6623 56.8162 75.809 56.1098 76.1023 55.5064C76.399 54.9029 76.8103 54.4342 77.3363 54.1005C77.8656 53.7667 78.4809 53.5998 79.1821 53.5998C79.8834 53.5998 80.497 53.7667 81.0229 54.1005C81.5522 54.4342 81.9636 54.9029 82.2569 55.5064C82.5536 56.1098 82.7019 56.8162 82.7019 57.6253C82.7019 58.4277 82.5536 59.129 82.2569 59.7291C81.9636 60.3292 81.5522 60.7961 81.0229 61.1299C80.497 61.4637 79.8834 61.6306 79.1821 61.6306ZM79.1821 60.5585C79.7148 60.5585 80.1531 60.4219 80.497 60.1488C80.8409 59.8757 81.0954 59.5167 81.2606 59.0717C81.4258 58.6266 81.5084 58.1445 81.5084 57.6253C81.5084 57.1061 81.4258 56.6223 81.2606 56.1739C81.0954 55.7255 80.8409 55.3631 80.497 55.0866C80.1531 54.8102 79.7148 54.6719 79.1821 54.6719C78.6494 54.6719 78.2111 54.8102 77.8673 55.0866C77.5234 55.3631 77.2688 55.7255 77.1036 56.1739C76.9384 56.6223 76.8558 57.1061 76.8558 57.6253C76.8558 58.1445 76.9384 58.6266 77.1036 59.0717C77.2688 59.5167 77.5234 59.8757 77.8673 60.1488C78.2111 60.4219 78.6494 60.5585 79.1821 60.5585ZM90.8148 61.6508C90.3226 61.6508 89.8759 61.5581 89.4747 61.3727C89.0735 61.1839 88.7549 60.9125 88.5189 60.5585C88.2829 60.2011 88.1649 59.7695 88.1649 59.2638C88.1649 58.8188 88.2526 58.4581 88.4279 58.1816C88.6032 57.9018 88.8375 57.6826 89.1308 57.5242C89.4241 57.3657 89.7478 57.2477 90.1018 57.1702C90.4592 57.0893 90.8182 57.0252 91.179 56.978C91.651 56.9173 92.0336 56.8718 92.3269 56.8415C92.6236 56.8077 92.8394 56.7521 92.9743 56.6746C93.1125 56.597 93.1816 56.4622 93.1816 56.27V56.2295C93.1816 55.7306 93.0451 55.3428 92.772 55.0664C92.5023 54.7899 92.0926 54.6517 91.5431 54.6517C90.9733 54.6517 90.5266 54.7764 90.2029 55.0259C89.8793 55.2754 89.6517 55.5418 89.5202 55.825L88.3874 55.4204C88.5897 54.9484 88.8594 54.5809 89.1966 54.3179C89.5371 54.0516 89.9079 53.8662 90.3091 53.7616C90.7137 53.6538 91.1115 53.5998 91.5026 53.5998C91.7521 53.5998 92.0387 53.6302 92.3623 53.6908C92.6894 53.7482 93.0046 53.8678 93.308 54.0499C93.6148 54.232 93.8694 54.5067 94.0717 54.8742C94.2739 55.2417 94.3751 55.7339 94.3751 56.3509V61.4688H93.1816V60.4169H93.1209C93.04 60.5854 92.9051 60.7658 92.7163 60.958C92.5275 61.1501 92.2764 61.3137 91.9628 61.4485C91.6493 61.5834 91.2666 61.6508 90.8148 61.6508ZM90.9969 60.5787C91.4689 60.5787 91.8667 60.486 92.1904 60.3005C92.5174 60.1151 92.7635 59.8757 92.9287 59.5824C93.0973 59.2891 93.1816 58.9806 93.1816 58.657V57.5646C93.131 57.6253 93.0198 57.6809 92.8478 57.7315C92.6793 57.7787 92.4837 57.8209 92.2612 57.8579C92.042 57.8917 91.828 57.922 91.6189 57.949C91.4133 57.9726 91.2464 57.9928 91.1183 58.0097C90.8081 58.0501 90.5182 58.1159 90.2484 58.2069C89.9821 58.2945 89.7663 58.4277 89.6011 58.6064C89.4393 58.7817 89.3584 59.0211 89.3584 59.3245C89.3584 59.7392 89.5118 60.0527 89.8186 60.2651C90.1288 60.4742 90.5215 60.5787 90.9969 60.5787ZM97.7469 51.1117V61.4688H96.5535V51.1117H97.7469ZM101.126 51.1117V61.4688H99.9329V51.1117H101.126ZM110.696 53.701V54.7124H106.67V53.701H110.696ZM107.844 51.8399H109.037V59.2436C109.037 59.5807 109.086 59.8336 109.184 60.0022C109.285 60.1674 109.413 60.2786 109.568 60.3359C109.727 60.3899 109.893 60.4169 110.069 60.4169C110.2 60.4169 110.308 60.4101 110.392 60.3966C110.477 60.3798 110.544 60.3663 110.595 60.3562L110.837 61.4283C110.756 61.4586 110.644 61.489 110.499 61.5193C110.354 61.553 110.17 61.5699 109.947 61.5699C109.61 61.5699 109.28 61.4974 108.956 61.3524C108.636 61.2075 108.37 60.9866 108.157 60.6899C107.948 60.3933 107.844 60.019 107.844 59.5673V51.8399ZM113.851 56.7959V61.4688H112.658V51.1117H113.851V54.9147H113.953C114.135 54.5135 114.408 54.1949 114.772 53.9589C115.139 53.7195 115.628 53.5998 116.238 53.5998C116.768 53.5998 117.231 53.706 117.629 53.9184C118.027 54.1274 118.335 54.4494 118.555 54.8843C118.777 55.3159 118.888 55.8654 118.888 56.533V61.4688H117.695V56.6139C117.695 55.9969 117.535 55.5198 117.214 55.1827C116.898 54.8422 116.458 54.6719 115.895 54.6719C115.503 54.6719 115.153 54.7545 114.843 54.9197C114.536 55.0849 114.293 55.326 114.114 55.6429C113.939 55.9598 113.851 56.3442 113.851 56.7959ZM121.072 61.4688V53.701H122.265V61.4688H121.072ZM121.679 52.4063C121.446 52.4063 121.245 52.3271 121.077 52.1686C120.912 52.0102 120.829 51.8197 120.829 51.5972C120.829 51.3747 120.912 51.1842 121.077 51.0257C121.245 50.8673 121.446 50.788 121.679 50.788C121.911 50.788 122.11 50.8673 122.275 51.0257C122.444 51.1842 122.528 51.3747 122.528 51.5972C122.528 51.8197 122.444 52.0102 122.275 52.1686C122.11 52.3271 121.911 52.4063 121.679 52.4063ZM125.645 56.7959V61.4688H124.451V53.701H125.604V54.9147H125.705C125.887 54.5202 126.164 54.2033 126.535 53.9639C126.906 53.7212 127.384 53.5998 127.971 53.5998C128.497 53.5998 128.957 53.7077 129.352 53.9235C129.746 54.1359 130.053 54.4595 130.272 54.8944C130.491 55.326 130.601 55.8722 130.601 56.533V61.4688H129.407V56.6139C129.407 56.0036 129.249 55.5283 128.932 55.1878C128.615 54.8439 128.18 54.6719 127.627 54.6719C127.246 54.6719 126.906 54.7545 126.606 54.9197C126.309 55.0849 126.075 55.326 125.903 55.6429C125.731 55.9598 125.645 56.3442 125.645 56.7959ZM135.917 64.5435C135.341 64.5435 134.845 64.4693 134.43 64.321C134.016 64.176 133.67 63.9838 133.394 63.7445C133.12 63.5085 132.903 63.2556 132.741 62.9859L133.692 62.3184C133.8 62.46 133.936 62.6218 134.102 62.8038C134.267 62.9893 134.493 63.1494 134.779 63.2843C135.069 63.4225 135.448 63.4916 135.917 63.4916C136.544 63.4916 137.062 63.3399 137.47 63.0365C137.878 62.733 138.082 62.2577 138.082 61.6104V60.0325H137.98C137.893 60.1741 137.768 60.3494 137.606 60.5585C137.448 60.7641 137.218 60.9479 136.918 61.1097C136.622 61.2681 136.221 61.3474 135.715 61.3474C135.088 61.3474 134.525 61.199 134.026 60.9023C133.53 60.6057 133.137 60.1741 132.847 59.6077C132.561 59.0413 132.418 58.3535 132.418 57.5444C132.418 56.7487 132.557 56.0559 132.837 55.4659C133.117 54.8725 133.507 54.414 134.006 54.0904C134.504 53.7633 135.081 53.5998 135.735 53.5998C136.241 53.5998 136.642 53.6841 136.939 53.8527C137.239 54.0179 137.468 54.2067 137.626 54.4191C137.788 54.6281 137.913 54.8 138.001 54.9349H138.122V53.701H139.275V61.6913C139.275 62.3588 139.123 62.9016 138.82 63.3197C138.52 63.7411 138.115 64.0496 137.606 64.2451C137.1 64.444 136.537 64.5435 135.917 64.5435ZM135.877 60.2753C136.355 60.2753 136.76 60.1657 137.09 59.9465C137.421 59.7274 137.672 59.4122 137.844 59.0009C138.016 58.5895 138.102 58.0973 138.102 57.5242C138.102 56.9645 138.018 56.4706 137.849 56.0424C137.68 55.6142 137.431 55.2788 137.1 55.036C136.77 54.7933 136.362 54.6719 135.877 54.6719C135.371 54.6719 134.95 54.8 134.612 55.0563C134.279 55.3125 134.027 55.6564 133.859 56.0879C133.694 56.5195 133.611 56.9982 133.611 57.5242C133.611 58.0636 133.695 58.5407 133.864 58.9553C134.036 59.3667 134.289 59.6903 134.622 59.9263C134.96 60.1589 135.378 60.2753 135.877 60.2753ZM146.962 55.4406L145.89 55.744C145.822 55.5654 145.723 55.3917 145.591 55.2232C145.463 55.0512 145.288 54.9096 145.066 54.7984C144.843 54.6871 144.558 54.6315 144.211 54.6315C143.735 54.6315 143.339 54.741 143.022 54.9602C142.709 55.176 142.552 55.4507 142.552 55.7845C142.552 56.0812 142.66 56.3155 142.876 56.4874C143.092 56.6594 143.429 56.8027 143.887 56.9173L145.04 57.2005C145.735 57.3691 146.252 57.627 146.593 57.9743C146.933 58.3181 147.104 58.7615 147.104 59.3043C147.104 59.7493 146.975 60.1471 146.719 60.4978C146.466 60.8484 146.112 61.1249 145.657 61.3271C145.202 61.5294 144.673 61.6306 144.069 61.6306C143.277 61.6306 142.621 61.4586 142.102 61.1147C141.583 60.7709 141.254 60.2685 141.116 59.6077L142.249 59.3245C142.357 59.7426 142.561 60.0561 142.861 60.2651C143.164 60.4742 143.56 60.5787 144.049 60.5787C144.605 60.5787 145.047 60.4607 145.374 60.2247C145.704 59.9853 145.87 59.6987 145.87 59.365C145.87 59.0953 145.775 58.8694 145.586 58.6873C145.398 58.5019 145.108 58.3637 144.717 58.2726L143.422 57.9692C142.711 57.8006 142.188 57.5393 141.854 57.1853C141.524 56.828 141.359 56.3812 141.359 55.8452C141.359 55.4069 141.482 55.0192 141.728 54.682C141.977 54.3449 142.316 54.0802 142.744 53.8881C143.176 53.6959 143.665 53.5998 144.211 53.5998C144.98 53.5998 145.583 53.7684 146.021 54.1055C146.463 54.4427 146.777 54.8877 146.962 55.4406ZM156.284 53.701V54.7124H152.258V53.701H156.284ZM153.431 51.8399H154.625V59.2436C154.625 59.5807 154.674 59.8336 154.771 60.0022C154.873 60.1674 155.001 60.2786 155.156 60.3359C155.314 60.3899 155.481 60.4169 155.656 60.4169C155.788 60.4169 155.896 60.4101 155.98 60.3966C156.064 60.3798 156.132 60.3663 156.182 60.3562L156.425 61.4283C156.344 61.4586 156.231 61.489 156.086 61.5193C155.941 61.553 155.758 61.5699 155.535 61.5699C155.198 61.5699 154.868 61.4974 154.544 61.3524C154.224 61.2075 153.957 60.9866 153.745 60.6899C153.536 60.3933 153.431 60.019 153.431 59.5673V51.8399ZM159.439 56.7959V61.4688H158.246V51.1117H159.439V54.9147H159.54C159.722 54.5135 159.995 54.1949 160.36 53.9589C160.727 53.7195 161.216 53.5998 161.826 53.5998C162.356 53.5998 162.819 53.706 163.217 53.9184C163.615 54.1274 163.923 54.4494 164.142 54.8843C164.365 55.3159 164.476 55.8654 164.476 56.533V61.4688H163.283V56.6139C163.283 55.9969 163.123 55.5198 162.802 55.1827C162.485 54.8422 162.045 54.6719 161.482 54.6719C161.091 54.6719 160.741 54.7545 160.43 54.9197C160.124 55.0849 159.881 55.326 159.702 55.6429C159.527 55.9598 159.439 56.3442 159.439 56.7959ZM166.66 61.4688V53.701H167.813V54.8742H167.894C168.035 54.4899 168.291 54.178 168.662 53.9386C169.033 53.6993 169.451 53.5796 169.916 53.5796C170.004 53.5796 170.114 53.5813 170.245 53.5846C170.377 53.588 170.476 53.5931 170.543 53.5998V54.8135C170.503 54.8034 170.41 54.7882 170.265 54.768C170.124 54.7444 169.974 54.7326 169.815 54.7326C169.438 54.7326 169.1 54.8118 168.804 54.9703C168.51 55.1254 168.278 55.3412 168.106 55.6176C167.937 55.8907 167.853 56.2026 167.853 56.5532V61.4688H166.66ZM174.877 61.6306C174.176 61.6306 173.561 61.4637 173.032 61.1299C172.506 60.7961 172.094 60.3292 171.798 59.7291C171.504 59.129 171.358 58.4277 171.358 57.6253C171.358 56.8162 171.504 56.1098 171.798 55.5064C172.094 54.9029 172.506 54.4342 173.032 54.1005C173.561 53.7667 174.176 53.5998 174.877 53.5998C175.579 53.5998 176.192 53.7667 176.718 54.1005C177.248 54.4342 177.659 54.9029 177.952 55.5064C178.249 56.1098 178.397 56.8162 178.397 57.6253C178.397 58.4277 178.249 59.129 177.952 59.7291C177.659 60.3292 177.248 60.7961 176.718 61.1299C176.192 61.4637 175.579 61.6306 174.877 61.6306ZM174.877 60.5585C175.41 60.5585 175.848 60.4219 176.192 60.1488C176.536 59.8757 176.791 59.5167 176.956 59.0717C177.121 58.6266 177.204 58.1445 177.204 57.6253C177.204 57.1061 177.121 56.6223 176.956 56.1739C176.791 55.7255 176.536 55.3631 176.192 55.0866C175.848 54.8102 175.41 54.6719 174.877 54.6719C174.345 54.6719 173.906 54.8102 173.563 55.0866C173.219 55.3631 172.964 55.7255 172.799 56.1739C172.634 56.6223 172.551 57.1061 172.551 57.6253C172.551 58.1445 172.634 58.6266 172.799 59.0717C172.964 59.5167 173.219 59.8757 173.563 60.1488C173.906 60.4219 174.345 60.5585 174.877 60.5585ZM185.114 58.2929V53.701H186.308V61.4688H185.114V60.1539H185.033C184.851 60.5483 184.568 60.8838 184.184 61.1603C183.8 61.4333 183.314 61.5699 182.727 61.5699C182.242 61.5699 181.81 61.4637 181.433 61.2513C181.055 61.0355 180.759 60.7119 180.543 60.2803C180.327 59.8454 180.219 59.2975 180.219 58.6367V53.701H181.413V58.5558C181.413 59.1222 181.571 59.574 181.888 59.9111C182.208 60.2483 182.616 60.4169 183.112 60.4169C183.408 60.4169 183.71 60.341 184.017 60.1893C184.327 60.0376 184.587 59.8049 184.796 59.4914C185.008 59.1779 185.114 58.7783 185.114 58.2929ZM191.629 64.5435C191.053 64.5435 190.557 64.4693 190.142 64.321C189.728 64.176 189.382 63.9838 189.106 63.7445C188.833 63.5085 188.615 63.2556 188.453 62.9859L189.404 62.3184C189.512 62.46 189.649 62.6218 189.814 62.8038C189.979 62.9893 190.205 63.1494 190.491 63.2843C190.781 63.4225 191.161 63.4916 191.629 63.4916C192.256 63.4916 192.774 63.3399 193.182 63.0365C193.59 62.733 193.794 62.2577 193.794 61.6104V60.0325H193.693C193.605 60.1741 193.48 60.3494 193.318 60.5585C193.16 60.7641 192.931 60.9479 192.631 61.1097C192.334 61.2681 191.933 61.3474 191.427 61.3474C190.8 61.3474 190.237 61.199 189.738 60.9023C189.242 60.6057 188.85 60.1741 188.56 59.6077C188.273 59.0413 188.13 58.3535 188.13 57.5444C188.13 56.7487 188.27 56.0559 188.549 55.4659C188.829 54.8725 189.219 54.414 189.718 54.0904C190.217 53.7633 190.793 53.5998 191.447 53.5998C191.953 53.5998 192.354 53.6841 192.651 53.8527C192.951 54.0179 193.18 54.2067 193.339 54.4191C193.5 54.6281 193.625 54.8 193.713 54.9349H193.834V53.701H194.987V61.6913C194.987 62.3588 194.836 62.9016 194.532 63.3197C194.232 63.7411 193.827 64.0496 193.318 64.2451C192.813 64.444 192.25 64.5435 191.629 64.5435ZM191.589 60.2753C192.068 60.2753 192.472 60.1657 192.803 59.9465C193.133 59.7274 193.384 59.4122 193.556 59.0009C193.728 58.5895 193.814 58.0973 193.814 57.5242C193.814 56.9645 193.73 56.4706 193.561 56.0424C193.393 55.6142 193.143 55.2788 192.813 55.036C192.482 54.7933 192.074 54.6719 191.589 54.6719C191.083 54.6719 190.662 54.8 190.325 55.0563C189.991 55.3125 189.74 55.6564 189.571 56.0879C189.406 56.5195 189.323 56.9982 189.323 57.5242C189.323 58.0636 189.407 58.5407 189.576 58.9553C189.748 59.3667 190.001 59.6903 190.335 59.9263C190.672 60.1589 191.09 60.2753 191.589 60.2753ZM198.365 56.7959V61.4688H197.172V51.1117H198.365V54.9147H198.467C198.649 54.5135 198.922 54.1949 199.286 53.9589C199.653 53.7195 200.142 53.5998 200.752 53.5998C201.282 53.5998 201.745 53.706 202.143 53.9184C202.541 54.1274 202.849 54.4494 203.069 54.8843C203.291 55.3159 203.402 55.8654 203.402 56.533V61.4688H202.209V56.6139C202.209 55.9969 202.049 55.5198 201.728 55.1827C201.412 54.8422 200.972 54.6719 200.409 54.6719C200.017 54.6719 199.667 54.7545 199.357 54.9197C199.05 55.0849 198.807 55.326 198.628 55.6429C198.453 55.9598 198.365 56.3442 198.365 56.7959ZM218.087 54.3483H216.833C216.759 53.9875 216.629 53.6706 216.443 53.3975C216.261 53.1244 216.039 52.8952 215.776 52.7098C215.516 52.521 215.228 52.3794 214.911 52.285C214.594 52.1906 214.264 52.1434 213.92 52.1434C213.293 52.1434 212.725 52.3018 212.216 52.6187C211.71 52.9356 211.307 53.4026 211.007 54.0196C210.71 54.6365 210.562 55.3934 210.562 56.2902C210.562 57.187 210.71 57.9439 211.007 58.5609C211.307 59.1779 211.71 59.6448 212.216 59.9617C212.725 60.2786 213.293 60.4371 213.92 60.4371C214.264 60.4371 214.594 60.3899 214.911 60.2955C215.228 60.2011 215.516 60.0612 215.776 59.8757C216.039 59.6869 216.261 59.456 216.443 59.1829C216.629 58.9065 216.759 58.5895 216.833 58.2322H218.087C217.993 58.7615 217.821 59.2352 217.571 59.6532C217.322 60.0713 217.012 60.427 216.641 60.7203C216.27 61.0102 215.853 61.2311 215.392 61.3828C214.933 61.5345 214.443 61.6104 213.92 61.6104C213.037 61.6104 212.251 61.3946 211.563 60.963C210.876 60.5315 210.334 59.9179 209.94 59.1222C209.546 58.3266 209.348 57.3826 209.348 56.2902C209.348 55.1979 209.546 54.2539 209.94 53.4582C210.334 52.6626 210.876 52.049 211.563 51.6174C212.251 51.1859 213.037 50.9701 213.92 50.9701C214.443 50.9701 214.933 51.0459 215.392 51.1977C215.853 51.3494 216.27 51.5719 216.641 51.8652C217.012 52.1552 217.322 52.5092 217.571 52.9272C217.821 53.3419 217.993 53.8156 218.087 54.3483ZM221.145 56.7959V61.4688H219.952V51.1117H221.145V54.9147H221.247C221.429 54.5135 221.702 54.1949 222.066 53.9589C222.433 53.7195 222.922 53.5998 223.532 53.5998C224.062 53.5998 224.525 53.706 224.923 53.9184C225.321 54.1274 225.629 54.4494 225.849 54.8843C226.071 55.3159 226.182 55.8654 226.182 56.533V61.4688H224.989V56.6139C224.989 55.9969 224.829 55.5198 224.508 55.1827C224.191 54.8422 223.751 54.6719 223.188 54.6719C222.797 54.6719 222.447 54.7545 222.137 54.9197C221.83 55.0849 221.587 55.326 221.408 55.6429C221.233 55.9598 221.145 56.3442 221.145 56.7959ZM228.366 61.4688V53.701H229.519V54.8742H229.6C229.741 54.4899 229.998 54.178 230.368 53.9386C230.739 53.6993 231.157 53.5796 231.623 53.5796C231.71 53.5796 231.82 53.5813 231.951 53.5846C232.083 53.588 232.182 53.5931 232.25 53.5998V54.8135C232.209 54.8034 232.116 54.7882 231.971 54.768C231.83 54.7444 231.68 54.7326 231.521 54.7326C231.144 54.7326 230.807 54.8118 230.51 54.9703C230.217 55.1254 229.984 55.3412 229.812 55.6176C229.644 55.8907 229.559 56.2026 229.559 56.5532V61.4688H228.366ZM233.664 61.4688V53.701H234.858V61.4688H233.664ZM234.271 52.4063C234.039 52.4063 233.838 52.3271 233.669 52.1686C233.504 52.0102 233.422 51.8197 233.422 51.5972C233.422 51.3747 233.504 51.1842 233.669 51.0257C233.838 50.8673 234.039 50.788 234.271 50.788C234.504 50.788 234.703 50.8673 234.868 51.0257C235.037 51.1842 235.121 51.3747 235.121 51.5972C235.121 51.8197 235.037 52.0102 234.868 52.1686C234.703 52.3271 234.504 52.4063 234.271 52.4063ZM242.546 55.4406L241.474 55.744C241.406 55.5654 241.307 55.3917 241.176 55.2232C241.047 55.0512 240.872 54.9096 240.65 54.7984C240.427 54.6871 240.142 54.6315 239.795 54.6315C239.32 54.6315 238.923 54.741 238.606 54.9602C238.293 55.176 238.136 55.4507 238.136 55.7845C238.136 56.0812 238.244 56.3155 238.46 56.4874C238.676 56.6594 239.013 56.8027 239.471 56.9173L240.624 57.2005C241.319 57.3691 241.836 57.627 242.177 57.9743C242.517 58.3181 242.688 58.7615 242.688 59.3043C242.688 59.7493 242.559 60.1471 242.303 60.4978C242.05 60.8484 241.696 61.1249 241.241 61.3271C240.786 61.5294 240.257 61.6306 239.653 61.6306C238.861 61.6306 238.205 61.4586 237.686 61.1147C237.167 60.7709 236.838 60.2685 236.7 59.6077L237.833 59.3245C237.941 59.7426 238.145 60.0561 238.445 60.2651C238.748 60.4742 239.144 60.5787 239.633 60.5787C240.189 60.5787 240.631 60.4607 240.958 60.2247C241.288 59.9853 241.454 59.6987 241.454 59.365C241.454 59.0953 241.359 58.8694 241.17 58.6873C240.982 58.5019 240.692 58.3637 240.301 58.2726L239.006 57.9692C238.295 57.8006 237.772 57.5393 237.438 57.1853C237.108 56.828 236.943 56.3812 236.943 55.8452C236.943 55.4069 237.066 55.0192 237.312 54.682C237.561 54.3449 237.9 54.0802 238.328 53.8881C238.76 53.6959 239.249 53.5998 239.795 53.5998C240.564 53.5998 241.167 53.7684 241.605 54.1055C242.047 54.4427 242.361 54.8877 242.546 55.4406ZM247.862 53.701V54.7124H243.837V53.701H247.862ZM245.01 51.8399H246.204V59.2436C246.204 59.5807 246.252 59.8336 246.35 60.0022C246.451 60.1674 246.58 60.2786 246.735 60.3359C246.893 60.3899 247.06 60.4169 247.235 60.4169C247.367 60.4169 247.475 60.4101 247.559 60.3966C247.643 60.3798 247.711 60.3663 247.761 60.3562L248.004 61.4283C247.923 61.4586 247.81 61.489 247.665 61.5193C247.52 61.553 247.336 61.5699 247.114 61.5699C246.777 61.5699 246.446 61.4974 246.123 61.3524C245.802 61.2075 245.536 60.9866 245.324 60.6899C245.115 60.3933 245.01 60.019 245.01 59.5673V51.8399ZM32.8522 78.4688L30.4855 70.701H31.7397L33.4186 76.6482H33.4996L35.1583 70.701H36.4327L38.0712 76.6279H38.1521L39.8311 70.701H41.0853L38.7185 78.4688H37.5453L35.8461 72.5013H35.7247L34.0255 78.4688H32.8522ZM43.8566 73.7959V78.4688H42.6631V68.1117H43.8566V71.9147H43.9578C44.1398 71.5135 44.4129 71.1949 44.777 70.9589C45.1445 70.7195 45.6334 70.5998 46.2436 70.5998C46.7729 70.5998 47.2365 70.706 47.6343 70.9184C48.0321 71.1274 48.3406 71.4494 48.5598 71.8843C48.7823 72.3159 48.8935 72.8654 48.8935 73.533V78.4688H47.7001V73.6139C47.7001 72.9969 47.5399 72.5198 47.2196 72.1827C46.9027 71.8422 46.4627 71.6719 45.8997 71.6719C45.5086 71.6719 45.158 71.7545 44.8478 71.9197C44.541 72.0849 44.2983 72.326 44.1196 72.6429C43.9443 72.9598 43.8566 73.3442 43.8566 73.7959ZM54.2326 78.6306C53.5314 78.6306 52.9161 78.4637 52.3868 78.1299C51.8608 77.7961 51.4495 77.3292 51.1528 76.7291C50.8595 76.129 50.7129 75.4277 50.7129 74.6253C50.7129 73.8162 50.8595 73.1098 51.1528 72.5064C51.4495 71.9029 51.8608 71.4342 52.3868 71.1005C52.9161 70.7667 53.5314 70.5998 54.2326 70.5998C54.9339 70.5998 55.5475 70.7667 56.0734 71.1005C56.6028 71.4342 57.0141 71.9029 57.3074 72.5064C57.6041 73.1098 57.7524 73.8162 57.7524 74.6253C57.7524 75.4277 57.6041 76.129 57.3074 76.7291C57.0141 77.3292 56.6028 77.7961 56.0734 78.1299C55.5475 78.4637 54.9339 78.6306 54.2326 78.6306ZM54.2326 77.5585C54.7653 77.5585 55.2036 77.4219 55.5475 77.1488C55.8914 76.8757 56.1459 76.5167 56.3111 76.0717C56.4763 75.6266 56.5589 75.1445 56.5589 74.6253C56.5589 74.1061 56.4763 73.6223 56.3111 73.1739C56.1459 72.7255 55.8914 72.3631 55.5475 72.0866C55.2036 71.8102 54.7653 71.6719 54.2326 71.6719C53.6999 71.6719 53.2617 71.8102 52.9178 72.0866C52.5739 72.3631 52.3193 72.7255 52.1541 73.1739C51.9889 73.6223 51.9063 74.1061 51.9063 74.6253C51.9063 75.1445 51.9889 75.6266 52.1541 76.0717C52.3193 76.5167 52.5739 76.8757 52.9178 77.1488C53.2617 77.4219 53.6999 77.5585 54.2326 77.5585ZM69.0817 72.4406L68.0096 72.744C67.9422 72.5654 67.8427 72.3917 67.7112 72.2232C67.5831 72.0512 67.4078 71.9096 67.1853 71.7984C66.9628 71.6871 66.6779 71.6315 66.3306 71.6315C65.8552 71.6315 65.4591 71.741 65.1422 71.9602C64.8286 72.176 64.6719 72.4507 64.6719 72.7845C64.6719 73.0812 64.7798 73.3155 64.9955 73.4874C65.2113 73.6594 65.5484 73.8027 66.007 73.9173L67.16 74.2005C67.8545 74.3691 68.372 74.627 68.7125 74.9743C69.0531 75.3181 69.2233 75.7615 69.2233 76.3043C69.2233 76.7493 69.0952 77.1471 68.839 77.4978C68.5861 77.8484 68.2321 78.1249 67.777 78.3271C67.3218 78.5294 66.7925 78.6306 66.189 78.6306C65.3967 78.6306 64.741 78.4586 64.2218 78.1147C63.7026 77.7709 63.3739 77.2685 63.2356 76.6077L64.3684 76.3245C64.4763 76.7426 64.6803 77.0561 64.9804 77.2651C65.2838 77.4742 65.6799 77.5787 66.1688 77.5787C66.7251 77.5787 67.1667 77.4607 67.4938 77.2247C67.8242 76.9853 67.9894 76.6987 67.9894 76.365C67.9894 76.0953 67.895 75.8694 67.7062 75.6873C67.5174 75.5019 67.2274 75.3637 66.8363 75.2726L65.5417 74.9692C64.8303 74.8006 64.3078 74.5393 63.974 74.1853C63.6436 73.828 63.4784 73.3812 63.4784 72.8452C63.4784 72.4069 63.6014 72.0192 63.8476 71.682C64.097 71.3449 64.4359 71.0802 64.864 70.8881C65.2956 70.6959 65.7844 70.5998 66.3306 70.5998C67.0993 70.5998 67.7028 70.7684 68.1411 71.1055C68.5827 71.4427 68.8963 71.8877 69.0817 72.4406ZM74.398 70.701V71.7124H70.3726V70.701H74.398ZM71.5458 68.8399H72.7393V76.2436C72.7393 76.5807 72.7882 76.8336 72.886 77.0022C72.9871 77.1674 73.1152 77.2786 73.2703 77.3359C73.4288 77.3899 73.5956 77.4169 73.771 77.4169C73.9024 77.4169 74.0103 77.4101 74.0946 77.3966C74.1789 77.3798 74.2463 77.3663 74.2969 77.3562L74.5396 78.4283C74.4587 78.4586 74.3458 78.489 74.2008 78.5193C74.0558 78.553 73.8721 78.5699 73.6496 78.5699C73.3124 78.5699 72.982 78.4974 72.6584 78.3524C72.3381 78.2075 72.0718 77.9866 71.8594 77.6899C71.6503 77.3933 71.5458 77.019 71.5458 76.5673V68.8399ZM76.1933 78.4688V70.701H77.3464V71.8742H77.4273C77.5689 71.4899 77.8251 71.178 78.196 70.9386C78.5668 70.6993 78.9849 70.5796 79.4501 70.5796C79.5378 70.5796 79.6474 70.5813 79.7789 70.5846C79.9104 70.588 80.0098 70.5931 80.0772 70.5998V71.8135C80.0368 71.8034 79.9441 71.7882 79.7991 71.768C79.6575 71.7444 79.5075 71.7326 79.349 71.7326C78.9714 71.7326 78.6343 71.8118 78.3376 71.9703C78.0443 72.1254 77.8116 72.3412 77.6397 72.6176C77.4711 72.8907 77.3868 73.2026 77.3868 73.5532V78.4688H76.1933ZM84.5124 78.6306C83.7639 78.6306 83.1183 78.4654 82.5755 78.135C82.036 77.8012 81.6197 77.3359 81.3264 76.7392C81.0364 76.1391 80.8914 75.4412 80.8914 74.6455C80.8914 73.8499 81.0364 73.1486 81.3264 72.5418C81.6197 71.9315 82.0276 71.4562 82.5502 71.1156C83.0761 70.7718 83.6897 70.5998 84.391 70.5998C84.7956 70.5998 85.1951 70.6672 85.5895 70.8021C85.984 70.937 86.3431 71.1561 86.6667 71.4595C86.9904 71.7596 87.2483 72.1574 87.4405 72.653C87.6326 73.1486 87.7287 73.7589 87.7287 74.4837V74.9894H81.741V73.9578H86.515C86.515 73.5195 86.4273 73.1284 86.252 72.7845C86.0801 72.4406 85.834 72.1692 85.5137 71.9703C85.1968 71.7714 84.8225 71.6719 84.391 71.6719C83.9156 71.6719 83.5043 71.7899 83.157 72.0259C82.8132 72.2586 82.5485 72.562 82.3631 72.9362C82.1776 73.3104 82.0849 73.7117 82.0849 74.1398V74.8276C82.0849 75.4142 82.1861 75.9115 82.3884 76.3195C82.594 76.724 82.8789 77.0325 83.243 77.2449C83.6071 77.4539 84.0302 77.5585 84.5124 77.5585C84.8259 77.5585 85.1091 77.5146 85.362 77.427C85.6182 77.3359 85.839 77.2011 86.0245 77.0224C86.2099 76.8403 86.3532 76.6145 86.4543 76.3447L87.6073 76.6684C87.486 77.0595 87.282 77.4034 86.9954 77.7001C86.7089 77.9934 86.3549 78.2226 85.9334 78.3878C85.512 78.5497 85.0383 78.6306 84.5124 78.6306ZM90.7377 73.7959V78.4688H89.5442V70.701H90.6973V71.9147H90.7984C90.9805 71.5202 91.2569 71.2033 91.6278 70.9639C91.9986 70.7212 92.4774 70.5998 93.064 70.5998C93.59 70.5998 94.0502 70.7077 94.4446 70.9235C94.8391 71.1359 95.1459 71.4595 95.365 71.8944C95.5842 72.326 95.6937 72.8722 95.6937 73.533V78.4688H94.5002V73.6139C94.5002 73.0036 94.3418 72.5283 94.0249 72.1878C93.708 71.8439 93.273 71.6719 92.7201 71.6719C92.3392 71.6719 91.9986 71.7545 91.6986 71.9197C91.4019 72.0849 91.1676 72.326 90.9956 72.6429C90.8237 72.9598 90.7377 73.3442 90.7377 73.7959ZM101.01 81.5435C100.434 81.5435 99.938 81.4693 99.5233 81.321C99.1086 81.176 98.763 80.9838 98.4866 80.7445C98.2135 80.5085 97.996 80.2556 97.8342 79.9859L98.7849 79.3184C98.8928 79.46 99.0294 79.6218 99.1946 79.8038C99.3598 79.9893 99.5856 80.1494 99.8722 80.2843C100.162 80.4225 100.541 80.4916 101.01 80.4916C101.637 80.4916 102.155 80.3399 102.563 80.0365C102.971 79.733 103.175 79.2577 103.175 78.6104V77.0325H103.073C102.986 77.1741 102.861 77.3494 102.699 77.5585C102.541 77.7641 102.311 77.9479 102.011 78.1097C101.715 78.2681 101.314 78.3474 100.808 78.3474C100.181 78.3474 99.6177 78.199 99.1187 77.9023C98.6231 77.6057 98.2303 77.1741 97.9404 76.6077C97.6538 76.0413 97.5105 75.3535 97.5105 74.5444C97.5105 73.7487 97.6504 73.0559 97.9303 72.4659C98.2101 71.8725 98.5995 71.414 99.0985 71.0904C99.5974 70.7633 100.174 70.5998 100.828 70.5998C101.334 70.5998 101.735 70.6841 102.032 70.8527C102.332 71.0179 102.561 71.2067 102.719 71.4191C102.881 71.6281 103.006 71.8 103.094 71.9349H103.215V70.701H104.368V78.6913C104.368 79.3588 104.216 79.9016 103.913 80.3197C103.613 80.7411 103.208 81.0496 102.699 81.2451C102.193 81.444 101.63 81.5435 101.01 81.5435ZM100.97 77.2753C101.448 77.2753 101.853 77.1657 102.183 76.9465C102.514 76.7274 102.765 76.4122 102.937 76.0009C103.109 75.5895 103.195 75.0973 103.195 74.5242C103.195 73.9645 103.11 73.4706 102.942 73.0424C102.773 72.6142 102.524 72.2788 102.193 72.036C101.863 71.7933 101.455 71.6719 100.97 71.6719C100.464 71.6719 100.042 71.8 99.7053 72.0563C99.3716 72.3125 99.1204 72.6564 98.9518 73.0879C98.7866 73.5195 98.704 73.9982 98.704 74.5242C98.704 75.0636 98.7883 75.5407 98.9569 75.9553C99.1288 76.3667 99.3817 76.6903 99.7154 76.9263C100.053 77.1589 100.471 77.2753 100.97 77.2753ZM109.931 70.701V71.7124H105.905V70.701H109.931ZM107.079 68.8399H108.272V76.2436C108.272 76.5807 108.321 76.8336 108.419 77.0022C108.52 77.1674 108.648 77.2786 108.803 77.3359C108.962 77.3899 109.128 77.4169 109.304 77.4169C109.435 77.4169 109.543 77.4101 109.627 77.3966C109.712 77.3798 109.779 77.3663 109.83 77.3562L110.073 78.4283C109.992 78.4586 109.879 78.489 109.734 78.5193C109.589 78.553 109.405 78.5699 109.182 78.5699C108.845 78.5699 108.515 78.4974 108.191 78.3524C107.871 78.2075 107.605 77.9866 107.392 77.6899C107.183 77.3933 107.079 77.019 107.079 76.5673V68.8399ZM113.087 73.7959V78.4688H111.893V68.1117H113.087V71.9147H113.188C113.37 71.5135 113.643 71.1949 114.007 70.9589C114.374 70.7195 114.863 70.5998 115.474 70.5998C116.003 70.5998 116.466 70.706 116.864 70.9184C117.262 71.1274 117.571 71.4494 117.79 71.8843C118.012 72.3159 118.123 72.8654 118.123 73.533V78.4688H116.93V73.6139C116.93 72.9969 116.77 72.5198 116.45 72.1827C116.133 71.8422 115.693 71.6719 115.13 71.6719C114.739 71.6719 114.388 71.7545 114.078 71.9197C113.771 72.0849 113.528 72.326 113.35 72.6429C113.174 72.9598 113.087 73.3442 113.087 73.7959ZM123.564 78.6306C122.815 78.6306 122.17 78.4654 121.627 78.135C121.087 77.8012 120.671 77.3359 120.378 76.7392C120.088 76.1391 119.943 75.4412 119.943 74.6455C119.943 73.8499 120.088 73.1486 120.378 72.5418C120.671 71.9315 121.079 71.4562 121.602 71.1156C122.127 70.7718 122.741 70.5998 123.442 70.5998C123.847 70.5998 124.246 70.6672 124.641 70.8021C125.035 70.937 125.394 71.1561 125.718 71.4595C126.042 71.7596 126.3 72.1574 126.492 72.653C126.684 73.1486 126.78 73.7589 126.78 74.4837V74.9894H120.792V73.9578H125.566C125.566 73.5195 125.479 73.1284 125.303 72.7845C125.131 72.4406 124.885 72.1692 124.565 71.9703C124.248 71.7714 123.874 71.6719 123.442 71.6719C122.967 71.6719 122.556 71.7899 122.208 72.0259C121.865 72.2586 121.6 72.562 121.414 72.9362C121.229 73.3104 121.136 73.7117 121.136 74.1398V74.8276C121.136 75.4142 121.237 75.9115 121.44 76.3195C121.645 76.724 121.93 77.0325 122.294 77.2449C122.659 77.4539 123.082 77.5585 123.564 77.5585C123.877 77.5585 124.16 77.5146 124.413 77.427C124.67 77.3359 124.89 77.2011 125.076 77.0224C125.261 76.8403 125.405 76.6145 125.506 76.3447L126.659 76.6684C126.537 77.0595 126.333 77.4034 126.047 77.7001C125.76 77.9934 125.406 78.2226 124.985 78.3878C124.563 78.5497 124.09 78.6306 123.564 78.6306ZM129.789 73.7959V78.4688H128.596V70.701H129.749V71.9147H129.85C130.032 71.5202 130.308 71.2033 130.679 70.9639C131.05 70.7212 131.529 70.5998 132.115 70.5998C132.641 70.5998 133.102 70.7077 133.496 70.9235C133.89 71.1359 134.197 71.4595 134.416 71.8944C134.636 72.326 134.745 72.8722 134.745 73.533V78.4688H133.552V73.6139C133.552 73.0036 133.393 72.5283 133.076 72.1878C132.759 71.8439 132.324 71.6719 131.771 71.6719C131.391 71.6719 131.05 71.7545 130.75 71.9197C130.453 72.0849 130.219 72.326 130.047 72.6429C129.875 72.9598 129.789 73.3442 129.789 73.7959ZM142.428 72.4406L141.356 72.744C141.289 72.5654 141.189 72.3917 141.058 72.2232C140.93 72.0512 140.754 71.9096 140.532 71.7984C140.309 71.6871 140.024 71.6315 139.677 71.6315C139.202 71.6315 138.806 71.741 138.489 71.9602C138.175 72.176 138.018 72.4507 138.018 72.7845C138.018 73.0812 138.126 73.3155 138.342 73.4874C138.558 73.6594 138.895 73.8027 139.353 73.9173L140.506 74.2005C141.201 74.3691 141.719 74.627 142.059 74.9743C142.4 75.3181 142.57 75.7615 142.57 76.3043C142.57 76.7493 142.442 77.1471 142.185 77.4978C141.933 77.8484 141.579 78.1249 141.123 78.3271C140.668 78.5294 140.139 78.6306 139.536 78.6306C138.743 78.6306 138.087 78.4586 137.568 78.1147C137.049 77.7709 136.72 77.2685 136.582 76.6077L137.715 76.3245C137.823 76.7426 138.027 77.0561 138.327 77.2651C138.63 77.4742 139.026 77.5787 139.515 77.5787C140.072 77.5787 140.513 77.4607 140.84 77.2247C141.171 76.9853 141.336 76.6987 141.336 76.365C141.336 76.0953 141.241 75.8694 141.053 75.6873C140.864 75.5019 140.574 75.3637 140.183 75.2726L138.888 74.9692C138.177 74.8006 137.654 74.5393 137.32 74.1853C136.99 73.828 136.825 73.3812 136.825 72.8452C136.825 72.4069 136.948 72.0192 137.194 71.682C137.444 71.3449 137.782 71.0802 138.211 70.8881C138.642 70.6959 139.131 70.5998 139.677 70.5998C140.446 70.5998 141.049 70.7684 141.488 71.1055C141.929 71.4427 142.243 71.8877 142.428 72.4406ZM148.372 78.4688V70.701H149.525V71.9147H149.626C149.788 71.5 150.049 71.178 150.41 70.9488C150.77 70.7161 151.204 70.5998 151.709 70.5998C152.222 70.5998 152.648 70.7161 152.989 70.9488C153.333 71.178 153.601 71.5 153.793 71.9147H153.874C154.073 71.5135 154.371 71.1949 154.769 70.9589C155.167 70.7195 155.644 70.5998 156.2 70.5998C156.895 70.5998 157.463 70.8173 157.904 71.2522C158.346 71.6837 158.567 72.3563 158.567 73.27V78.4688H157.373V73.27C157.373 72.6968 157.217 72.2872 156.903 72.0411C156.59 71.795 156.22 71.6719 155.796 71.6719C155.249 71.6719 154.826 71.8371 154.526 72.1675C154.226 72.4946 154.076 72.9092 154.076 73.4116V78.4688H152.862V73.1486C152.862 72.707 152.719 72.3513 152.433 72.0816C152.146 71.8085 151.777 71.6719 151.325 71.6719C151.015 71.6719 150.725 71.7545 150.455 71.9197C150.189 72.0849 149.973 72.3142 149.808 72.6075C149.646 72.8974 149.565 73.2329 149.565 73.6139V78.4688H148.372ZM164.006 78.6306C163.257 78.6306 162.612 78.4654 162.069 78.135C161.529 77.8012 161.113 77.3359 160.82 76.7392C160.53 76.1391 160.385 75.4412 160.385 74.6455C160.385 73.8499 160.53 73.1486 160.82 72.5418C161.113 71.9315 161.521 71.4562 162.044 71.1156C162.57 70.7718 163.183 70.5998 163.884 70.5998C164.289 70.5998 164.689 70.6672 165.083 70.8021C165.477 70.937 165.837 71.1561 166.16 71.4595C166.484 71.7596 166.742 72.1574 166.934 72.653C167.126 73.1486 167.222 73.7589 167.222 74.4837V74.9894H161.234V73.9578H166.008C166.008 73.5195 165.921 73.1284 165.745 72.7845C165.574 72.4406 165.327 72.1692 165.007 71.9703C164.69 71.7714 164.316 71.6719 163.884 71.6719C163.409 71.6719 162.998 71.7899 162.65 72.0259C162.307 72.2586 162.042 72.562 161.857 72.9362C161.671 73.3104 161.578 73.7117 161.578 74.1398V74.8276C161.578 75.4142 161.68 75.9115 161.882 76.3195C162.087 76.724 162.372 77.0325 162.736 77.2449C163.101 77.4539 163.524 77.5585 164.006 77.5585C164.319 77.5585 164.603 77.5146 164.855 77.427C165.112 77.3359 165.332 77.2011 165.518 77.0224C165.703 76.8403 165.847 76.6145 165.948 76.3447L167.101 76.6684C166.979 77.0595 166.775 77.4034 166.489 77.7001C166.202 77.9934 165.848 78.2226 165.427 78.3878C165.005 78.5497 164.532 78.6306 164.006 78.6306Z" fill="black"/>
<path d="M30.8083 39V29.7002H34.4773C35.1827 29.7002 35.7836 29.8349 36.2801 30.1044C36.7766 30.3708 37.155 30.7416 37.4153 31.2169C37.6787 31.6891 37.8104 32.234 37.8104 32.8516C37.8104 33.4692 37.6772 34.0141 37.4108 34.4863C37.1444 34.9586 36.7584 35.3264 36.2528 35.5898C35.7503 35.8531 35.1418 35.9848 34.4274 35.9848H32.0888V34.4091H34.1095C34.4879 34.4091 34.7997 34.3441 35.045 34.2139C35.2932 34.0807 35.4779 33.8975 35.5989 33.6644C35.7231 33.4283 35.7851 33.1574 35.7851 32.8516C35.7851 32.5428 35.7231 32.2734 35.5989 32.0433C35.4779 31.8102 35.2932 31.6301 35.045 31.503C34.7967 31.3728 34.4819 31.3077 34.1004 31.3077H32.7745V39H30.8083ZM40.9856 34.9677V39H39.0512V29.7002H40.9311V33.2557H41.0128C41.1703 32.844 41.4246 32.5216 41.7757 32.2885C42.1269 32.0524 42.5673 31.9343 43.0971 31.9343C43.5815 31.9343 44.0038 32.0403 44.364 32.2522C44.7273 32.4611 45.0088 32.7623 45.2086 33.1558C45.4115 33.5464 45.5114 34.0141 45.5083 34.559V39H43.5739V34.9041C43.5769 34.4742 43.468 34.1397 43.247 33.9006C43.029 33.6614 42.7233 33.5418 42.3297 33.5418C42.0663 33.5418 41.8332 33.5978 41.6304 33.7098C41.4306 33.8218 41.2732 33.9853 41.1582 34.2003C41.0461 34.4122 40.9886 34.668 40.9856 34.9677ZM47.0307 39V32.0252H48.9651V39H47.0307ZM48.0024 31.1261C47.7149 31.1261 47.4681 31.0307 47.2623 30.84C47.0594 30.6462 46.958 30.4147 46.958 30.1452C46.958 29.8788 47.0594 29.6503 47.2623 29.4595C47.4681 29.2658 47.7149 29.1689 48.0024 29.1689C48.29 29.1689 48.5352 29.2658 48.7381 29.4595C48.9439 29.6503 49.0469 29.8788 49.0469 30.1452C49.0469 30.4147 48.9439 30.6462 48.7381 30.84C48.5352 31.0307 48.29 31.1261 48.0024 31.1261ZM52.4491 29.7002V39H50.5147V29.7002H52.4491ZM53.9987 39V32.0252H55.9331V39H53.9987ZM54.9705 31.1261C54.6829 31.1261 54.4362 31.0307 54.2303 30.84C54.0275 30.6462 53.9261 30.4147 53.9261 30.1452C53.9261 29.8788 54.0275 29.6503 54.2303 29.4595C54.4362 29.2658 54.6829 29.1689 54.9705 29.1689C55.2581 29.1689 55.5033 29.2658 55.7061 29.4595C55.912 29.6503 56.0149 29.8788 56.0149 30.1452C56.0149 30.4147 55.912 30.6462 55.7061 30.84C55.5033 31.0307 55.2581 31.1261 54.9705 31.1261ZM57.4827 41.6156V32.0252H59.3899V33.1967H59.4762C59.561 33.009 59.6836 32.8183 59.844 32.6246C60.0075 32.4278 60.2194 32.2643 60.4797 32.1341C60.7431 32.0009 61.07 31.9343 61.4606 31.9343C61.9691 31.9343 62.4384 32.0675 62.8682 32.3339C63.2981 32.5973 63.6417 32.9954 63.899 33.5282C64.1564 34.058 64.285 34.7225 64.285 35.5217C64.285 36.2997 64.1594 36.9566 63.9081 37.4924C63.6599 38.0252 63.3208 38.4294 62.891 38.7048C62.4641 38.9773 61.9858 39.1135 61.456 39.1135C61.0806 39.1135 60.7613 39.0515 60.4979 38.9273C60.2375 38.8032 60.0241 38.6473 59.8576 38.4596C59.6911 38.2689 59.564 38.0767 59.4762 37.8829H59.4172V41.6156H57.4827ZM59.3763 35.5126C59.3763 35.9273 59.4338 36.2891 59.5488 36.5979C59.6639 36.9066 59.8304 37.1473 60.0483 37.3199C60.2663 37.4894 60.5312 37.5742 60.843 37.5742C61.1578 37.5742 61.4242 37.4879 61.6422 37.3153C61.8602 37.1397 62.0252 36.8976 62.1372 36.5888C62.2522 36.277 62.3097 35.9182 62.3097 35.5126C62.3097 35.11 62.2537 34.7558 62.1417 34.45C62.0297 34.1443 61.8647 33.9051 61.6467 33.7325C61.4288 33.56 61.1609 33.4737 60.843 33.4737C60.5282 33.4737 60.2618 33.557 60.0438 33.7235C59.8289 33.89 59.6639 34.1261 59.5488 34.4318C59.4338 34.7376 59.3763 35.0978 59.3763 35.5126ZM65.5746 41.6156V32.0252H67.4818V33.1967H67.5681C67.6529 33.009 67.7755 32.8183 67.9359 32.6246C68.0994 32.4278 68.3113 32.2643 68.5716 32.1341C68.835 32.0009 69.162 31.9343 69.5525 31.9343C70.0611 31.9343 70.5303 32.0675 70.9602 32.3339C71.39 32.5973 71.7336 32.9954 71.9909 33.5282C72.2483 34.058 72.3769 34.7225 72.3769 35.5217C72.3769 36.2997 72.2513 36.9566 72 37.4924C71.7518 38.0252 71.4127 38.4294 70.9829 38.7048C70.556 38.9773 70.0777 39.1135 69.5479 39.1135C69.1725 39.1135 68.8532 39.0515 68.5898 38.9273C68.3295 38.8032 68.116 38.6473 67.9495 38.4596C67.783 38.2689 67.6559 38.0767 67.5681 37.8829H67.5091V41.6156H65.5746ZM67.4682 35.5126C67.4682 35.9273 67.5257 36.2891 67.6407 36.5979C67.7558 36.9066 67.9223 37.1473 68.1402 37.3199C68.3582 37.4894 68.6231 37.5742 68.9349 37.5742C69.2497 37.5742 69.5161 37.4879 69.7341 37.3153C69.9521 37.1397 70.1171 36.8976 70.2291 36.5888C70.3441 36.277 70.4016 35.9182 70.4016 35.5126C70.4016 35.11 70.3456 34.7558 70.2336 34.45C70.1216 34.1443 69.9566 33.9051 69.7386 33.7325C69.5207 33.56 69.2528 33.4737 68.9349 33.4737C68.6201 33.4737 68.3537 33.557 68.1357 33.7235C67.9208 33.89 67.7558 34.1261 67.6407 34.4318C67.5257 34.7376 67.4682 35.0978 67.4682 35.5126ZM73.6665 39V32.0252H75.601V39H73.6665ZM74.6383 31.1261C74.3507 31.1261 74.104 31.0307 73.8981 30.84C73.6953 30.6462 73.5939 30.4147 73.5939 30.1452C73.5939 29.8788 73.6953 29.6503 73.8981 29.4595C74.104 29.2658 74.3507 29.1689 74.6383 29.1689C74.9259 29.1689 75.1711 29.2658 75.3739 29.4595C75.5798 29.6503 75.6827 29.8788 75.6827 30.1452C75.6827 30.4147 75.5798 30.6462 75.3739 30.84C75.1711 31.0307 74.9259 31.1261 74.6383 31.1261ZM79.1395 39.1317C78.6945 39.1317 78.2979 39.0545 77.9497 38.9001C77.6016 38.7427 77.3261 38.5111 77.1233 38.2053C76.9235 37.8966 76.8236 37.5121 76.8236 37.0519C76.8236 36.6645 76.8947 36.339 77.037 36.0757C77.1793 35.8123 77.3731 35.6004 77.6183 35.4399C77.8635 35.2795 78.142 35.1584 78.4538 35.0767C78.7686 34.9949 79.0986 34.9374 79.4437 34.9041C79.8494 34.8617 80.1763 34.8224 80.4245 34.786C80.6728 34.7467 80.8529 34.6892 80.9649 34.6135C81.0769 34.5378 81.1329 34.4258 81.1329 34.2775V34.2502C81.1329 33.9626 81.0421 33.7401 80.8605 33.5827C80.6819 33.4253 80.4276 33.3466 80.0976 33.3466C79.7495 33.3466 79.4725 33.4238 79.2666 33.5782C79.0608 33.7295 78.9245 33.9202 78.8579 34.1503L77.0688 34.005C77.1596 33.5812 77.3382 33.2149 77.6046 32.9061C77.871 32.5943 78.2146 32.3551 78.6354 32.1886C79.0592 32.0191 79.5497 31.9343 80.1067 31.9343C80.4942 31.9343 80.865 31.9798 81.2192 32.0706C81.5764 32.1614 81.8928 32.3022 82.1683 32.4929C82.4468 32.6836 82.6662 32.9288 82.8267 33.2285C82.9871 33.5252 83.0674 33.8809 83.0674 34.2956V39H81.2328V38.0328H81.1783C81.0663 38.2507 80.9165 38.443 80.7288 38.6095C80.5411 38.773 80.3156 38.9016 80.0522 38.9955C79.7888 39.0863 79.4846 39.1317 79.1395 39.1317ZM79.6935 37.7967C79.978 37.7967 80.2293 37.7407 80.4472 37.6286C80.6652 37.5136 80.8363 37.3592 80.9604 37.1655C81.0845 36.9717 81.1466 36.7522 81.1466 36.507V35.7669C81.086 35.8062 81.0028 35.8426 80.8968 35.8759C80.7939 35.9061 80.6773 35.9349 80.5472 35.9621C80.417 35.9863 80.2868 36.0091 80.1566 36.0302C80.0265 36.0484 79.9084 36.0651 79.8024 36.0802C79.5754 36.1135 79.3771 36.1665 79.2076 36.2391C79.0381 36.3118 78.9064 36.4102 78.8125 36.5343C78.7187 36.6554 78.6718 36.8067 78.6718 36.9884C78.6718 37.2517 78.7671 37.4531 78.9578 37.5923C79.1516 37.7285 79.3968 37.7967 79.6935 37.7967ZM86.5026 34.9677V39H84.5681V32.0252H86.4117V33.2557H86.4935C86.6479 32.8501 86.9067 32.5292 87.27 32.2931C87.6332 32.0539 88.0737 31.9343 88.5914 31.9343C89.0757 31.9343 89.498 32.0403 89.8583 32.2522C90.2185 32.4641 90.4986 32.7668 90.6984 33.1604C90.8982 33.5509 90.9981 34.0171 90.9981 34.559V39H89.0636V34.9041C89.0667 34.4773 88.9577 34.1443 88.7367 33.9051C88.5157 33.6629 88.2115 33.5418 87.824 33.5418C87.5636 33.5418 87.3335 33.5978 87.1337 33.7098C86.937 33.8218 86.7826 33.9853 86.6706 34.2003C86.5616 34.4122 86.5056 34.668 86.5026 34.9677ZM98.326 34.0141L96.555 34.1231C96.5247 33.9717 96.4596 33.8355 96.3597 33.7144C96.2598 33.5903 96.1282 33.4919 95.9647 33.4192C95.8042 33.3435 95.612 33.3057 95.388 33.3057C95.0883 33.3057 94.8355 33.3693 94.6297 33.4964C94.4238 33.6205 94.3209 33.787 94.3209 33.9959C94.3209 34.1624 94.3875 34.3032 94.5207 34.4182C94.6539 34.5333 94.8824 34.6256 95.2063 34.6952L96.4687 34.9495C97.1468 35.0888 97.6524 35.3128 97.9854 35.6216C98.3184 35.9303 98.4849 36.336 98.4849 36.8385C98.4849 37.2956 98.3502 37.6968 98.0807 38.0419C97.8143 38.387 97.448 38.6564 96.9818 38.8501C96.5187 39.0409 95.9844 39.1362 95.3789 39.1362C94.4556 39.1362 93.72 38.944 93.172 38.5595C92.6271 38.172 92.3077 37.6453 92.2139 36.9793L94.1165 36.8794C94.174 37.1609 94.3133 37.3759 94.5343 37.5242C94.7553 37.6695 95.0383 37.7422 95.3834 37.7422C95.7225 37.7422 95.995 37.6771 96.2008 37.5469C96.4097 37.4137 96.5156 37.2427 96.5187 37.0338C96.5156 36.8582 96.4415 36.7144 96.2962 36.6024C96.1509 36.4874 95.9268 36.3996 95.6241 36.339L94.4162 36.0984C93.7351 35.9621 93.228 35.726 92.895 35.39C92.5651 35.0539 92.4001 34.6256 92.4001 34.1049C92.4001 33.6569 92.5212 33.2709 92.7633 32.947C93.0085 32.623 93.3521 32.3733 93.7941 32.1977C94.2391 32.0221 94.7598 31.9343 95.3562 31.9343C96.2371 31.9343 96.9304 32.1205 97.4359 32.4929C97.9445 32.8652 98.2412 33.3723 98.326 34.0141ZM102.504 37.3653V35.8168L106.386 29.7002H107.721V31.8435H106.931L104.483 35.7169V35.7896H110.001V37.3653H102.504ZM106.967 39V36.893L107.004 36.2073V29.7002H108.847V39H106.967ZM112.46 37.9193C112.16 37.9193 111.903 37.8133 111.688 37.6014C111.476 37.3895 111.37 37.1322 111.37 36.8294C111.37 36.5328 111.476 36.2785 111.688 36.0666C111.903 35.8547 112.16 35.7487 112.46 35.7487C112.75 35.7487 113.004 35.8547 113.222 36.0666C113.44 36.2785 113.549 36.5328 113.549 36.8294C113.549 37.0292 113.498 37.2124 113.395 37.3789C113.295 37.5424 113.163 37.6741 113 37.774C112.836 37.8708 112.656 37.9193 112.46 37.9193ZM112.46 33.3556C112.16 33.3556 111.903 33.2497 111.688 33.0378C111.476 32.8259 111.37 32.5686 111.37 32.2658C111.37 31.9692 111.476 31.7164 111.688 31.5075C111.903 31.2956 112.16 31.1896 112.46 31.1896C112.75 31.1896 113.004 31.2956 113.222 31.5075C113.44 31.7164 113.549 31.9692 113.549 32.2658C113.549 32.4687 113.498 32.6533 113.395 32.8198C113.295 32.9833 113.163 33.1135 113 33.2103C112.836 33.3072 112.656 33.3556 112.46 33.3556ZM119.165 29.7002V39H117.199V31.5665H117.145L115.015 32.9016V31.1578L117.317 29.7002H119.165ZM124.813 39.1271C124.135 39.1271 123.531 39.0106 123.001 38.7775C122.475 38.5414 122.058 38.2174 121.753 37.8057C121.45 37.391 121.294 36.9127 121.285 36.3708H123.265C123.277 36.5979 123.351 36.7977 123.487 36.9702C123.626 37.1397 123.811 37.2714 124.041 37.3653C124.271 37.4591 124.53 37.506 124.818 37.506C125.117 37.506 125.382 37.4531 125.612 37.3471C125.842 37.2412 126.022 37.0943 126.153 36.9066C126.283 36.7189 126.348 36.5025 126.348 36.2573C126.348 36.0091 126.278 35.7896 126.139 35.5989C126.003 35.4051 125.806 35.2537 125.549 35.1448C125.294 35.0358 124.992 34.9813 124.641 34.9813H123.773V33.5373H124.641C124.937 33.5373 125.199 33.4858 125.426 33.3829C125.656 33.28 125.835 33.1377 125.962 32.956C126.089 32.7714 126.153 32.5564 126.153 32.3112C126.153 32.0781 126.097 31.8738 125.985 31.6982C125.876 31.5196 125.721 31.3804 125.521 31.2805C125.325 31.1806 125.095 31.1306 124.831 31.1306C124.565 31.1306 124.321 31.179 124.1 31.2759C123.879 31.3698 123.702 31.5045 123.569 31.6801C123.436 31.8556 123.365 32.0615 123.355 32.2976H121.471C121.48 31.7618 121.633 31.2895 121.93 30.8809C122.226 30.4722 122.626 30.1528 123.128 29.9227C123.634 29.6896 124.205 29.5731 124.84 29.5731C125.482 29.5731 126.044 29.6896 126.525 29.9227C127.006 30.1558 127.38 30.4707 127.647 30.8672C127.916 31.2608 128.049 31.7028 128.046 32.1932C128.049 32.7139 127.887 33.1483 127.56 33.4964C127.236 33.8446 126.814 34.0655 126.293 34.1594V34.232C126.978 34.3198 127.498 34.5575 127.855 34.945C128.216 35.3294 128.394 35.8108 128.391 36.389C128.394 36.9187 128.241 37.3895 127.933 37.8012C127.627 38.2129 127.205 38.5368 126.666 38.773C126.127 39.0091 125.509 39.1271 124.813 39.1271Z" fill="black"/>
<defs>
<filter id="filter0_d_1800_1315" x="0.450555" y="0.36064" width="300.179" height="137.644" filterUnits="userSpaceOnUse" color-interpolation-filters="sRGB">
<feFlood flood-opacity="0" result="BackgroundImageFix"/>
<feColorMatrix in="SourceAlpha" type="matrix" values="0 0 0 0 0 0 0 0 0 0 0 0 0 0 0 0 0 0 127 0" result="hardAlpha"/>
<feOffset dx="-3.51648" dy="6.3936"/>
<feGaussianBlur stdDeviation="3.51648"/>
<feComposite in2="hardAlpha" operator="out"/>
<feColorMatrix type="matrix" values="0 0 0 0 0 0 0 0 0 0 0 0 0 0 0 0 0 0 0.25 0"/>
<feBlend mode="normal" in2="BackgroundImageFix" result="effect1_dropShadow_1800_1315"/>
<feBlend mode="normal" in="SourceGraphic" in2="effect1_dropShadow_1800_1315" result="shape"/>
</filter>
</defs>
</svg>
