<svg width="70" height="70" viewBox="0 0 70 70" fill="none" xmlns="http://www.w3.org/2000/svg">
<g clip-path="url(#clip0_2293_3284)">
<path d="M61.8003 7.77778C55.3797 1.3125 45.7567 0 35 0C24.2414 0 14.6183 1.3125 8.19972 7.77778C3.08194 12.9306 0 21.3558 0 35C0 48.6442 3.08389 57.0694 8.19972 62.2222C14.6203 68.6875 24.2433 70 35 70C45.7567 70 55.3797 68.6875 61.7983 62.2222C66.9181 57.0694 70 48.6442 70 35C70 21.3558 66.9181 12.9306 61.8003 7.77778Z" fill="url(#paint0_linear_2293_3284)"/>
<path d="M36.386 11.2032L36.8021 11.2149C37.4185 11.2499 38.0038 11.3937 38.5404 11.6271C35.4935 16.3812 33.3488 21.8276 32.3688 27.696L32.3377 27.8262C32.2249 28.501 32.1257 29.2282 32.0441 30.0118C31.9099 31.194 31.8243 32.3899 31.7854 33.5993L31.7777 34.064C31.766 34.3693 31.7582 34.6785 31.7504 34.9935C31.7641 36.6793 31.8593 38.3399 32.0441 39.9732C32.1257 40.7587 32.2249 41.4879 32.3377 42.1626L32.3688 42.2949C33.3468 48.1418 35.4779 53.5687 38.5074 58.3093C38.2157 58.4435 37.9066 58.5543 37.5838 58.636L37.1949 58.7196L36.8021 58.774C33.1291 59.1357 29.2752 56.1315 27.9102 52.3399C27.3288 50.5704 26.9613 49.3765 26.8038 48.7582C25.7771 44.7235 25.186 39.5396 25.2035 34.9293C25.1977 30.354 25.7868 25.2285 26.8038 21.2307C26.9613 20.6124 27.3288 19.4185 27.9102 17.649C29.2285 13.9896 32.5302 11.1876 36.386 11.2032Z" fill="white"/>
<path d="M32.3671 42.2928L32.3359 42.1606C32.4973 43.0919 33.1876 43.8211 34.0704 43.9903L38.1168 44.3772C38.9373 44.5347 39.5965 45.1744 39.8123 46.0222L41.3912 52.225C42.027 54.7236 40.7632 57.2592 38.5057 58.3072C35.4762 53.5686 33.3451 48.1397 32.3671 42.2928ZM41.5934 16.5794C41.5759 16.9061 41.5254 17.2308 41.4457 17.5478L39.8123 23.9625C39.5965 24.8103 38.9373 25.45 38.1168 25.6094L34.0704 25.9944C33.2304 26.1558 32.5634 26.8247 32.3632 27.6919C33.347 21.8256 35.4918 16.3792 38.5387 11.625C40.4384 12.4494 41.7179 14.3919 41.5934 16.5794Z" fill="white" fill-opacity="0.75"/>
</g>
<defs>
<linearGradient id="paint0_linear_2293_3284" x1="35" y1="0" x2="35" y2="70" gradientUnits="userSpaceOnUse">
<stop stop-color="#20EE56"/>
<stop offset="1" stop-color="#00954E"/>
</linearGradient>
<clipPath id="clip0_2293_3284">
<rect width="70" height="70" fill="white"/>
</clipPath>
</defs>
</svg>
