<svg width="28" height="28" viewBox="0 0 28 28" fill="none" xmlns="http://www.w3.org/2000/svg">
<path d="M21.4289 20.6794C21.3997 20.8682 21.2419 21.0004 21.0763 20.9748C20.9108 20.9491 20.8002 20.7754 20.8294 20.5867C20.8587 20.3979 21.0165 20.2657 21.1821 20.2913C21.3476 20.317 21.4582 20.4907 21.4289 20.6794Z" fill="#35B2C2"/>
<path d="M22.0558 19.5824C22.0266 19.7711 21.8687 19.9034 21.7032 19.8777C21.5376 19.8521 21.4271 19.6784 21.4563 19.4896C21.4855 19.3009 21.6434 19.1687 21.809 19.1943C21.9745 19.2199 22.085 19.3937 22.0558 19.5824Z" fill="#35B2C2"/>
<path d="M22.5782 18.4854C22.549 18.6741 22.3911 18.8063 22.2256 18.7807C22.06 18.7551 21.9495 18.5813 21.9787 18.3926C22.0079 18.2039 22.1658 18.0717 22.3313 18.0973C22.4969 18.1229 22.6074 18.2967 22.5782 18.4854Z" fill="#35B2C2"/>
<path d="M22.9439 17.2839C22.9147 17.4726 22.7568 17.6048 22.5912 17.5792C22.4257 17.5536 22.3152 17.3798 22.3444 17.1911C22.3736 17.0024 22.5315 16.8702 22.697 16.8958C22.8626 16.9214 22.9731 17.0952 22.9439 17.2839Z" fill="#35B2C2"/>
<path d="M23.2051 16.0824C23.1759 16.2711 23.018 16.4033 22.8524 16.3777C22.6869 16.3521 22.5764 16.1783 22.6056 15.9896C22.6348 15.8009 22.7927 15.6687 22.9582 15.6943C23.1238 15.7199 23.2343 15.8937 23.2051 16.0824Z" fill="#35B2C2"/>
<path d="M23.3096 14.8809C23.2803 15.0696 23.1225 15.2018 22.9569 15.1762C22.7914 15.1506 22.6808 14.9768 22.7101 14.7881C22.7393 14.5994 22.8972 14.4672 23.0627 14.4928C23.2282 14.5184 23.3388 14.6922 23.3096 14.8809Z" fill="#35B2C2"/>
<path d="M23.3618 13.6272C23.3326 13.8159 23.1747 13.9481 23.0092 13.9225C22.8436 13.8968 22.7331 13.7231 22.7623 13.5344C22.7915 13.3456 22.9494 13.2134 23.1149 13.2391C23.2805 13.2647 23.391 13.4384 23.3618 13.6272Z" fill="#35B2C2"/>
<path d="M23.2573 12.4257C23.2281 12.6144 23.0702 12.7466 22.9047 12.721C22.7391 12.6953 22.6286 12.5216 22.6578 12.3329C22.687 12.1441 22.8449 12.0119 23.0105 12.0376C23.176 12.0632 23.2865 12.2369 23.2573 12.4257Z" fill="#35B2C2"/>
<path d="M22.9961 11.2764C22.9669 11.4651 22.809 11.5973 22.6435 11.5717C22.4779 11.5461 22.3674 11.3723 22.3966 11.1836C22.4258 10.9949 22.5837 10.8627 22.7493 10.8883C22.9148 10.9139 23.0253 11.0877 22.9961 11.2764Z" fill="#35B2C2"/>
<path d="M22.6304 10.1271C22.6012 10.3159 22.4434 10.4481 22.2778 10.4224C22.1123 10.3968 22.0017 10.2231 22.0309 10.0343C22.0602 9.84562 22.218 9.71341 22.3836 9.73903C22.5491 9.76465 22.6597 9.93841 22.6304 10.1271Z" fill="#35B2C2"/>
<path d="M22.1603 9.08235C22.1311 9.27107 21.9732 9.40329 21.8077 9.37766C21.6421 9.35204 21.5316 9.17828 21.5608 8.98956C21.59 8.80084 21.7479 8.66862 21.9134 8.69425C22.079 8.71987 22.1895 8.89363 22.1603 9.08235Z" fill="#35B2C2"/>
<path d="M21.5857 8.08981C21.5564 8.27853 21.3986 8.41074 21.233 8.38512C21.0675 8.35949 20.957 8.18573 20.9862 7.99701C21.0154 7.80829 21.1733 7.67608 21.3388 7.7017C21.5044 7.72733 21.6149 7.90109 21.5857 8.08981Z" fill="#35B2C2"/>
<path d="M20.9065 7.20174C20.8773 7.39046 20.7195 7.52268 20.5539 7.49705C20.3884 7.47143 20.2778 7.29767 20.3071 7.10895C20.3363 6.92023 20.4942 6.78801 20.6597 6.81364C20.8252 6.83926 20.9358 7.01302 20.9065 7.20174Z" fill="#35B2C2"/>
<path d="M20.123 6.41815C20.0938 6.60687 19.9359 6.73909 19.7703 6.71346C19.6048 6.68784 19.4943 6.51408 19.5235 6.32536C19.5527 6.13664 19.7106 6.00443 19.8761 6.03005C20.0417 6.05567 20.1522 6.22943 20.123 6.41815Z" fill="#35B2C2"/>
<path d="M19.2349 5.73905C19.2057 5.92777 19.0478 6.05998 18.8823 6.03436C18.7167 6.00873 18.6062 5.83497 18.6354 5.64625C18.6646 5.45753 18.8225 5.32532 18.988 5.35094C19.1536 5.37657 19.2641 5.55033 19.2349 5.73905Z" fill="#35B2C2"/>
<path d="M18.2946 5.16441C18.2654 5.35313 18.1075 5.48535 17.942 5.45973C17.7764 5.4341 17.6659 5.26034 17.6951 5.07162C17.7243 4.8829 17.8822 4.75069 18.0477 4.77631C18.2133 4.80193 18.3238 4.97569 18.2946 5.16441Z" fill="#35B2C2"/>
<path d="M17.302 4.7465C17.2728 4.93522 17.115 5.06744 16.9494 5.04181C16.7839 5.01619 16.6733 4.84243 16.7026 4.65371C16.7318 4.46499 16.8896 4.33277 17.0552 4.3584C17.2207 4.38402 17.3313 4.55778 17.302 4.7465Z" fill="#35B2C2"/>
<path d="M16.2573 4.48531C16.2281 4.67403 16.0702 4.80624 15.9046 4.78062C15.7391 4.75499 15.6286 4.58123 15.6578 4.39251C15.687 4.20379 15.8449 4.07158 16.0104 4.0972C16.176 4.12283 16.2865 4.29659 16.2573 4.48531Z" fill="#35B2C2"/>
<path d="M15.1602 4.32859C15.131 4.51731 14.9732 4.64952 14.8076 4.6239C14.6421 4.59827 14.5315 4.42451 14.5607 4.23579C14.59 4.04707 14.7478 3.91486 14.9134 3.94048C15.0789 3.96611 15.1895 4.13987 15.1602 4.32859Z" fill="#35B2C2"/>
<path d="M14.0632 4.32859C14.034 4.51731 13.8761 4.64952 13.7106 4.6239C13.545 4.59827 13.4345 4.42451 13.4637 4.23579C13.4929 4.04707 13.6508 3.91486 13.8164 3.94048C13.9819 3.96611 14.0924 4.13987 14.0632 4.32859Z" fill="#35B2C2"/>
<path d="M13.0184 4.43307C12.9892 4.62179 12.8313 4.754 12.6658 4.72838C12.5003 4.70275 12.3897 4.52899 12.4189 4.34027C12.4482 4.15155 12.606 4.01934 12.7716 4.04496C12.9371 4.07059 13.0476 4.24435 13.0184 4.43307Z" fill="#35B2C2"/>
<path d="M11.9214 4.69426C11.8922 4.88298 11.7343 5.0152 11.5688 4.98957C11.4032 4.96395 11.2927 4.79019 11.3219 4.60147C11.3511 4.41275 11.509 4.28053 11.6746 4.30616C11.8401 4.33178 11.9506 4.50554 11.9214 4.69426Z" fill="#35B2C2"/>
<path d="M10.8766 5.11218C10.8474 5.3009 10.6895 5.43311 10.524 5.40749C10.3584 5.38186 10.2479 5.2081 10.2771 5.01938C10.3063 4.83066 10.4642 4.69845 10.6298 4.72407C10.7953 4.74969 10.9058 4.92346 10.8766 5.11218Z" fill="#35B2C2"/>
<path d="M9.88409 5.63457C9.85488 5.82329 9.69699 5.9555 9.53145 5.92988C9.3659 5.90425 9.25538 5.73049 9.28459 5.54177C9.3138 5.35305 9.47169 5.22084 9.63723 5.24646C9.80278 5.27209 9.9133 5.44585 9.88409 5.63457Z" fill="#35B2C2"/>
<path d="M8.89154 6.31368C8.86233 6.5024 8.70445 6.63461 8.5389 6.60899C8.37336 6.58336 8.26284 6.4096 8.29205 6.22088C8.32126 6.03216 8.47914 5.89995 8.64469 5.92557C8.81023 5.9512 8.92075 6.12496 8.89154 6.31368Z" fill="#35B2C2"/>
<path d="M8.05572 7.09726C8.02651 7.28598 7.86862 7.4182 7.70308 7.39257C7.53753 7.36695 7.42701 7.19319 7.45622 7.00447C7.48543 6.81575 7.64331 6.68353 7.80886 6.70916C7.97441 6.73478 8.08493 6.90854 8.05572 7.09726Z" fill="#35B2C2"/>
<path d="M7.21989 7.98533C7.19068 8.17405 7.0328 8.30626 6.86725 8.28064C6.7017 8.25502 6.59118 8.08126 6.62039 7.89254C6.64961 7.70382 6.80749 7.5716 6.97303 7.59723C7.13858 7.62285 7.2491 7.79661 7.21989 7.98533Z" fill="#35B2C2"/>
<path d="M6.48854 8.97787C6.45933 9.16659 6.30145 9.29881 6.1359 9.27318C5.97036 9.24756 5.85984 9.0738 5.88905 8.88508C5.91826 8.69636 6.07614 8.56414 6.24169 8.58977C6.40723 8.61539 6.51775 8.78915 6.48854 8.97787Z" fill="#35B2C2"/>
<path d="M5.91391 10.0749C5.8847 10.2636 5.72682 10.3958 5.56127 10.3702C5.39573 10.3446 5.28521 10.1708 5.31442 9.9821C5.34363 9.79338 5.50151 9.66117 5.66706 9.68679C5.8326 9.71242 5.94312 9.88618 5.91391 10.0749Z" fill="#35B2C2"/>
<path d="M5.44376 11.1719C5.41455 11.3606 5.25667 11.4929 5.09112 11.4672C4.92557 11.4416 4.81505 11.2678 4.84426 11.0791C4.87348 10.8904 5.03136 10.7582 5.1969 10.7838C5.36245 10.8094 5.47297 10.9832 5.44376 11.1719Z" fill="#35B2C2"/>
<path d="M5.02584 12.3212C4.99663 12.5099 4.83875 12.6421 4.67321 12.6165C4.50766 12.5909 4.39714 12.4171 4.42635 12.2284C4.45556 12.0397 4.61344 11.9075 4.77899 11.9331C4.94454 11.9587 5.05506 12.1325 5.02584 12.3212Z" fill="#35B2C2"/>
<path d="M4.76465 13.5227C4.73544 13.7114 4.57756 13.8436 4.41201 13.818C4.24646 13.7924 4.13594 13.6186 4.16515 13.4299C4.19437 13.2412 4.35225 13.109 4.51779 13.1346C4.68334 13.1602 4.79386 13.334 4.76465 13.5227Z" fill="#35B2C2"/>
<path d="M4.60793 14.7764C4.57872 14.9651 4.42084 15.0974 4.25529 15.0717C4.08975 15.0461 3.97923 14.8723 4.00844 14.6836C4.03765 14.4949 4.19553 14.3627 4.36108 14.3883C4.52662 14.4139 4.63714 14.5877 4.60793 14.7764Z" fill="#35B2C2"/>
<path d="M4.60793 16.0302C4.57872 16.2189 4.42084 16.3511 4.25529 16.3255C4.08975 16.2998 3.97923 16.1261 4.00844 15.9374C4.03765 15.7486 4.19553 15.6164 4.36108 15.6421C4.52662 15.6677 4.63714 15.8414 4.60793 16.0302Z" fill="#35B2C2"/>
<path d="M4.71241 17.2317C4.6832 17.4204 4.52532 17.5526 4.35977 17.527C4.19423 17.5013 4.0837 17.3276 4.11292 17.1389C4.14213 16.9501 4.30001 16.8179 4.46555 16.8436C4.6311 16.8692 4.74162 17.0429 4.71241 17.2317Z" fill="#35B2C2"/>
<path d="M4.97361 18.4332C4.94439 18.6219 4.78651 18.7541 4.62097 18.7285C4.45542 18.7028 4.3449 18.5291 4.37411 18.3404C4.40332 18.1516 4.5612 18.0194 4.72675 18.0451C4.8923 18.0707 5.00282 18.2444 4.97361 18.4332Z" fill="#35B2C2"/>
<path d="M5.33928 19.4779C5.31007 19.6667 5.15219 19.7989 4.98664 19.7733C4.8211 19.7476 4.71057 19.5739 4.73979 19.3852C4.769 19.1964 4.92688 19.0642 5.09242 19.0898C5.25797 19.1155 5.36849 19.2892 5.33928 19.4779Z" fill="#35B2C2"/>
<path d="M5.80943 20.575C5.78022 20.7637 5.62234 20.8959 5.45679 20.8703C5.29125 20.8447 5.18073 20.6709 5.20994 20.4822C5.23915 20.2935 5.39703 20.1612 5.56258 20.1869C5.72812 20.2125 5.83864 20.3862 5.80943 20.575Z" fill="#35B2C2"/>
<path d="M6.38406 21.5675C6.35485 21.7562 6.19697 21.8884 6.03142 21.8628C5.86588 21.8372 5.75536 21.6634 5.78457 21.4747C5.81378 21.286 5.97166 21.1538 6.13721 21.1794C6.30275 21.205 6.41327 21.3788 6.38406 21.5675Z" fill="#35B2C2"/>
<path d="M7.06317 22.4556C7.03396 22.6443 6.87608 22.7765 6.71053 22.7509C6.54499 22.7253 6.43447 22.5515 6.46368 22.3628C6.49289 22.1741 6.65077 22.0418 6.81632 22.0675C6.98186 22.0931 7.09238 22.2669 7.06317 22.4556Z" fill="#35B2C2"/>
<path d="M7.899 23.2392C7.86979 23.4279 7.71191 23.5601 7.54636 23.5345C7.38081 23.5089 7.27029 23.3351 7.2995 23.1464C7.32872 22.9577 7.4866 22.8254 7.65214 22.8511C7.81769 22.8767 7.92821 23.0504 7.899 23.2392Z" fill="#35B2C2"/>
<path d="M8.73483 23.9183C8.70561 24.107 8.54773 24.2392 8.38219 24.2136C8.21664 24.188 8.10612 24.0142 8.13533 23.8255C8.16454 23.6368 8.32242 23.5045 8.48797 23.5302C8.65352 23.5558 8.76404 23.7296 8.73483 23.9183Z" fill="#35B2C2"/>
<path d="M9.67513 24.4929C9.64592 24.6816 9.48804 24.8138 9.32249 24.7882C9.15695 24.7626 9.04643 24.5888 9.07564 24.4001C9.10485 24.2114 9.26273 24.0792 9.42827 24.1048C9.59382 24.1304 9.70434 24.3042 9.67513 24.4929Z" fill="#35B2C2"/>
<path d="M10.6677 24.9108C10.6385 25.0995 10.4806 25.2318 10.315 25.2061C10.1495 25.1805 10.039 25.0067 10.0682 24.818C10.0974 24.6293 10.2553 24.4971 10.4208 24.5227C10.5864 24.5483 10.6969 24.7221 10.6677 24.9108Z" fill="#35B2C2"/>
<path d="M11.7125 25.172C11.6832 25.3607 11.5254 25.493 11.3598 25.4673C11.1943 25.4417 11.0838 25.2679 11.113 25.0792C11.1422 24.8905 11.3001 24.7583 11.4656 24.7839C11.6311 24.8095 11.7417 24.9833 11.7125 25.172Z" fill="#35B2C2"/>
<path d="M12.8095 25.3287C12.7803 25.5175 12.6224 25.6497 12.4568 25.624C12.2913 25.5984 12.1808 25.4247 12.21 25.2359C12.2392 25.0472 12.3971 24.915 12.5626 24.9406C12.7282 24.9663 12.8387 25.14 12.8095 25.3287Z" fill="#35B2C2"/>
<path d="M13.8543 25.3287C13.8251 25.5175 13.6672 25.6497 13.5016 25.624C13.3361 25.5984 13.2256 25.4247 13.2548 25.2359C13.284 25.0472 13.4419 24.915 13.6074 24.9406C13.773 24.9663 13.8835 25.14 13.8543 25.3287Z" fill="#35B2C2"/>
<path d="M14.9513 25.2243C14.9221 25.413 14.7642 25.5452 14.5986 25.5196C14.4331 25.4939 14.3226 25.3202 14.3518 25.1315C14.381 24.9427 14.5389 24.8105 14.7044 24.8361C14.87 24.8618 14.9805 25.0355 14.9513 25.2243Z" fill="#35B2C2"/>
<path d="M16.0483 24.9631C16.0191 25.1518 15.8612 25.284 15.6957 25.2584C15.5301 25.2327 15.4196 25.059 15.4488 24.8703C15.478 24.6815 15.6359 24.5493 15.8015 24.575C15.967 24.6006 16.0775 24.7743 16.0483 24.9631Z" fill="#35B2C2"/>
<path d="M17.0931 24.5451C17.0639 24.7339 16.906 24.8661 16.7405 24.8405C16.5749 24.8148 16.4644 24.6411 16.4936 24.4524C16.5228 24.2636 16.6807 24.1314 16.8462 24.157C17.0118 24.1827 17.1223 24.3564 17.0931 24.5451Z" fill="#35B2C2"/>
<path d="M18.0856 23.9705C18.0564 24.1592 17.8985 24.2915 17.733 24.2658C17.5675 24.2402 17.4569 24.0664 17.4861 23.8777C17.5154 23.689 17.6732 23.5568 17.8388 23.5824C18.0043 23.608 18.1148 23.7818 18.0856 23.9705Z" fill="#35B2C2"/>
<path d="M19.0259 23.2914C18.9967 23.4801 18.8388 23.6123 18.6733 23.5867C18.5078 23.5611 18.3972 23.3873 18.4264 23.1986C18.4557 23.0099 18.6135 22.8777 18.7791 22.9033C18.9446 22.9289 19.0552 23.1027 19.0259 23.2914Z" fill="#35B2C2"/>
<path d="M19.914 22.5078C19.8848 22.6965 19.7269 22.8288 19.5614 22.8031C19.3958 22.7775 19.2853 22.6037 19.3145 22.415C19.3437 22.2263 19.5016 22.0941 19.6672 22.1197C19.8327 22.1453 19.9432 22.3191 19.914 22.5078Z" fill="#35B2C2"/>
<path d="M20.7498 21.672C20.7206 21.8607 20.5627 21.9929 20.3972 21.9673C20.2316 21.9417 20.1211 21.7679 20.1503 21.5792C20.1796 21.3905 20.3374 21.2583 20.503 21.2839C20.6685 21.3095 20.779 21.4833 20.7498 21.672Z" fill="#35B2C2"/>
<path d="M10.59 26.2786C10.59 26.5238 10.3912 26.7226 10.1459 26.7226C9.90071 26.7226 9.70191 26.5238 9.70191 26.2786C9.70191 26.0333 9.90071 25.8345 10.1459 25.8345C10.3912 25.8345 10.59 26.0333 10.59 26.2786Z" fill="#35B2C2"/>
<path d="M12.0527 26.592C12.0527 26.8372 11.8539 27.036 11.6086 27.036C11.3634 27.036 11.1646 26.8372 11.1646 26.592C11.1646 26.3468 11.3634 26.148 11.6086 26.148C11.8539 26.148 12.0527 26.3468 12.0527 26.592Z" fill="#35B2C2"/>
<path d="M13.5154 26.7487C13.5154 26.994 13.3166 27.1928 13.0713 27.1928C12.8261 27.1928 12.6273 26.994 12.6273 26.7487C12.6273 26.5035 12.8261 26.3047 13.0713 26.3047C13.3166 26.3047 13.5154 26.5035 13.5154 26.7487Z" fill="#35B2C2"/>
<path d="M15.0825 26.7487C15.0825 26.994 14.8837 27.1928 14.6385 27.1928C14.3933 27.1928 14.1945 26.994 14.1945 26.7487C14.1945 26.5035 14.3933 26.3047 14.6385 26.3047C14.8837 26.3047 15.0825 26.5035 15.0825 26.7487Z" fill="#35B2C2"/>
<path d="M16.5452 26.592C16.5452 26.8372 16.3464 27.036 16.1012 27.036C15.856 27.036 15.6572 26.8372 15.6572 26.592C15.6572 26.3468 15.856 26.148 16.1012 26.148C16.3464 26.148 16.5452 26.3468 16.5452 26.592Z" fill="#35B2C2"/>
<path d="M18.0079 26.2786C18.0079 26.5238 17.8091 26.7226 17.5639 26.7226C17.3187 26.7226 17.1199 26.5238 17.1199 26.2786C17.1199 26.0333 17.3187 25.8345 17.5639 25.8345C17.8091 25.8345 18.0079 26.0333 18.0079 26.2786Z" fill="#35B2C2"/>
<path d="M19.4184 25.7039C19.4184 25.9492 19.2196 26.148 18.9744 26.148C18.7291 26.148 18.5303 25.9492 18.5303 25.7039C18.5303 25.4587 18.7291 25.2599 18.9744 25.2599C19.2196 25.2599 19.4184 25.4587 19.4184 25.7039Z" fill="#35B2C2"/>
<path d="M20.7766 25.0771C20.7766 25.3223 20.5778 25.5211 20.3326 25.5211C20.0873 25.5211 19.8885 25.3223 19.8885 25.0771C19.8885 24.8318 20.0873 24.633 20.3326 24.633C20.5778 24.633 20.7766 24.8318 20.7766 25.0771Z" fill="#35B2C2"/>
<path d="M22.0303 24.189C22.0303 24.4342 21.8315 24.633 21.5863 24.633C21.3411 24.633 21.1423 24.4342 21.1423 24.189C21.1423 23.9438 21.3411 23.745 21.5863 23.745C21.8315 23.745 22.0303 23.9438 22.0303 24.189Z" fill="#35B2C2"/>
<path d="M23.1796 23.3009C23.1796 23.5462 22.9808 23.745 22.7356 23.745C22.4903 23.745 22.2915 23.5462 22.2915 23.3009C22.2915 23.0557 22.4903 22.8569 22.7356 22.8569C22.9808 22.8569 23.1796 23.0557 23.1796 23.3009Z" fill="#35B2C2"/>
<path d="M24.2244 22.1517C24.2244 22.3969 24.0256 22.5957 23.7804 22.5957C23.5351 22.5957 23.3363 22.3969 23.3363 22.1517C23.3363 21.9064 23.5351 21.7076 23.7804 21.7076C24.0256 21.7076 24.2244 21.9064 24.2244 22.1517Z" fill="#35B2C2"/>
<path d="M25.1125 20.9502C25.1125 21.1954 24.9137 21.3942 24.6684 21.3942C24.4232 21.3942 24.2244 21.1954 24.2244 20.9502C24.2244 20.7049 24.4232 20.5061 24.6684 20.5061C24.9137 20.5061 25.1125 20.7049 25.1125 20.9502Z" fill="#35B2C2"/>
<path d="M25.8438 19.6442C25.8438 19.8894 25.645 20.0882 25.3998 20.0882C25.1545 20.0882 24.9557 19.8894 24.9557 19.6442C24.9557 19.399 25.1545 19.2002 25.3998 19.2002C25.645 19.2002 25.8438 19.399 25.8438 19.6442Z" fill="#35B2C2"/>
<path d="M26.4707 18.286C26.4707 18.5312 26.2719 18.73 26.0266 18.73C25.7814 18.73 25.5826 18.5312 25.5826 18.286C25.5826 18.0407 25.7814 17.8419 26.0266 17.8419C26.2719 17.8419 26.4707 18.0407 26.4707 18.286Z" fill="#35B2C2"/>
<path d="M26.8886 16.8755C26.8886 17.1208 26.6898 17.3196 26.4446 17.3196C26.1993 17.3196 26.0005 17.1208 26.0005 16.8755C26.0005 16.6303 26.1993 16.4315 26.4446 16.4315C26.6898 16.4315 26.8886 16.6303 26.8886 16.8755Z" fill="#35B2C2"/>
<path d="M27.1498 15.3606C27.1498 15.6058 26.951 15.8046 26.7058 15.8046C26.4605 15.8046 26.2617 15.6058 26.2617 15.3606C26.2617 15.1154 26.4605 14.9166 26.7058 14.9166C26.951 14.9166 27.1498 15.1154 27.1498 15.3606Z" fill="#35B2C2"/>
<path d="M27.1498 13.8456C27.1498 14.0909 26.951 14.2897 26.7058 14.2897C26.4605 14.2897 26.2617 14.0909 26.2617 13.8456C26.2617 13.6004 26.4605 13.4016 26.7058 13.4016C26.951 13.4016 27.1498 13.6004 27.1498 13.8456Z" fill="#35B2C2"/>
<path d="M27.1498 12.3307C27.1498 12.5759 26.951 12.7747 26.7058 12.7747C26.4605 12.7747 26.2617 12.5759 26.2617 12.3307C26.2617 12.0855 26.4605 11.8867 26.7058 11.8867C26.951 11.8867 27.1498 12.0855 27.1498 12.3307Z" fill="#35B2C2"/>
<path d="M26.8886 10.9203C26.8886 11.1655 26.6898 11.3643 26.4446 11.3643C26.1993 11.3643 26.0005 11.1655 26.0005 10.9203C26.0005 10.675 26.1993 10.4762 26.4446 10.4762C26.6898 10.4762 26.8886 10.675 26.8886 10.9203Z" fill="#35B2C2"/>
<path d="M26.4707 9.40532C26.4707 9.65055 26.2719 9.84935 26.0266 9.84935C25.7814 9.84935 25.5826 9.65055 25.5826 9.40532C25.5826 9.16009 25.7814 8.96129 26.0266 8.96129C26.2719 8.96129 26.4707 9.16009 26.4707 9.40532Z" fill="#35B2C2"/>
<path d="M25.8438 8.09934C25.8438 8.34457 25.645 8.54337 25.3998 8.54337C25.1545 8.54337 24.9557 8.34457 24.9557 8.09934C24.9557 7.85411 25.1545 7.65531 25.3998 7.65531C25.645 7.65531 25.8438 7.85411 25.8438 8.09934Z" fill="#35B2C2"/>
<path d="M25.1125 6.79336C25.1125 7.03859 24.9137 7.23739 24.6684 7.23739C24.4232 7.23739 24.2244 7.03859 24.2244 6.79336C24.2244 6.54813 24.4232 6.34933 24.6684 6.34933C24.9137 6.34933 25.1125 6.54813 25.1125 6.79336Z" fill="#35B2C2"/>
<path d="M24.2244 5.6441C24.2244 5.88933 24.0256 6.08813 23.7804 6.08813C23.5351 6.08813 23.3363 5.88933 23.3363 5.6441C23.3363 5.39887 23.5351 5.20007 23.7804 5.20007C24.0256 5.20007 24.2244 5.39887 24.2244 5.6441Z" fill="#35B2C2"/>
<path d="M23.1274 4.4426C23.1274 4.68783 22.9286 4.88663 22.6833 4.88663C22.4381 4.88663 22.2393 4.68783 22.2393 4.4426C22.2393 4.19737 22.4381 3.99857 22.6833 3.99857C22.9286 3.99857 23.1274 4.19737 23.1274 4.4426Z" fill="#35B2C2"/>
<path d="M22.0303 3.55453C22.0303 3.79977 21.8315 3.99857 21.5863 3.99857C21.3411 3.99857 21.1423 3.79977 21.1423 3.55453C21.1423 3.3093 21.3411 3.1105 21.5863 3.1105C21.8315 3.1105 22.0303 3.3093 22.0303 3.55453Z" fill="#35B2C2"/>
<path d="M20.7766 2.66647C20.7766 2.9117 20.5778 3.1105 20.3326 3.1105C20.0873 3.1105 19.8885 2.9117 19.8885 2.66647C19.8885 2.42123 20.0873 2.22243 20.3326 2.22243C20.5778 2.22243 20.7766 2.42123 20.7766 2.66647Z" fill="#35B2C2"/>
<path d="M19.4706 2.0396C19.4706 2.28483 19.2718 2.48363 19.0266 2.48363C18.7814 2.48363 18.5826 2.28483 18.5826 2.0396C18.5826 1.79436 18.7814 1.59556 19.0266 1.59556C19.2718 1.59556 19.4706 1.79436 19.4706 2.0396Z" fill="#35B2C2"/>
<path d="M18.0079 1.46497C18.0079 1.7102 17.8091 1.909 17.5639 1.909C17.3187 1.909 17.1199 1.7102 17.1199 1.46497C17.1199 1.21973 17.3187 1.02093 17.5639 1.02093C17.8091 1.02093 18.0079 1.21973 18.0079 1.46497Z" fill="#35B2C2"/>
<path d="M16.5975 1.15153C16.5975 1.39676 16.3987 1.59556 16.1534 1.59556C15.9082 1.59556 15.7094 1.39676 15.7094 1.15153C15.7094 0.906299 15.9082 0.707499 16.1534 0.707499C16.3987 0.707499 16.5975 0.906299 16.5975 1.15153Z" fill="#35B2C2"/>
<path d="M15.0303 0.994814C15.0303 1.24005 14.8315 1.43885 14.5863 1.43885C14.341 1.43885 14.1422 1.24005 14.1422 0.994814C14.1422 0.749582 14.341 0.550781 14.5863 0.550781C14.8315 0.550781 15.0303 0.749582 15.0303 0.994814Z" fill="#35B2C2"/>
<path d="M13.6198 0.994814C13.6198 1.24005 13.421 1.43885 13.1758 1.43885C12.9306 1.43885 12.7318 1.24005 12.7318 0.994814C12.7318 0.749582 12.9306 0.550781 13.1758 0.550781C13.421 0.550781 13.6198 0.749582 13.6198 0.994814Z" fill="#35B2C2"/>
<path d="M12.0527 1.15153C12.0527 1.39676 11.8539 1.59556 11.6086 1.59556C11.3634 1.59556 11.1646 1.39676 11.1646 1.15153C11.1646 0.906299 11.3634 0.707499 11.6086 0.707499C11.8539 0.707499 12.0527 0.906299 12.0527 1.15153Z" fill="#35B2C2"/>
<path d="M10.59 1.46497C10.59 1.7102 10.3912 1.909 10.1459 1.909C9.90071 1.909 9.70191 1.7102 9.70191 1.46497C9.70191 1.21973 9.90071 1.02093 10.1459 1.02093C10.3912 1.02093 10.59 1.21973 10.59 1.46497Z" fill="#35B2C2"/>
<path d="M9.23175 2.0396C9.23175 2.28483 9.03295 2.48363 8.78772 2.48363C8.54249 2.48363 8.34369 2.28483 8.34369 2.0396C8.34369 1.79436 8.54249 1.59556 8.78772 1.59556C9.03295 1.59556 9.23175 1.79436 9.23175 2.0396Z" fill="#35B2C2"/>
<path d="M7.8213 2.71871C7.8213 2.96394 7.6225 3.16274 7.37726 3.16274C7.13203 3.16274 6.93323 2.96394 6.93323 2.71871C6.93323 2.47347 7.13203 2.27467 7.37726 2.27467C7.6225 2.27467 7.8213 2.47347 7.8213 2.71871Z" fill="#35B2C2"/>
<path d="M6.56756 3.50229C6.56756 3.74753 6.36876 3.94633 6.12352 3.94633C5.87829 3.94633 5.67949 3.74753 5.67949 3.50229C5.67949 3.25706 5.87829 3.05826 6.12352 3.05826C6.36876 3.05826 6.56756 3.25706 6.56756 3.50229Z" fill="#35B2C2"/>
<path d="M5.41829 4.49484C5.41829 4.74007 5.21949 4.93887 4.97426 4.93887C4.72903 4.93887 4.53023 4.74007 4.53023 4.49484C4.53023 4.24961 4.72903 4.05081 4.97426 4.05081C5.21949 4.05081 5.41829 4.24961 5.41829 4.49484Z" fill="#35B2C2"/>
<path d="M4.42575 5.59186C4.42575 5.83709 4.22695 6.03589 3.98172 6.03589C3.73648 6.03589 3.53768 5.83709 3.53768 5.59186C3.53768 5.34663 3.73648 5.14783 3.98172 5.14783C4.22695 5.14783 4.42575 5.34663 4.42575 5.59186Z" fill="#35B2C2"/>
<path d="M3.53768 6.79336C3.53768 7.03859 3.33888 7.23739 3.09365 7.23739C2.84842 7.23739 2.64962 7.03859 2.64962 6.79336C2.64962 6.54813 2.84842 6.34933 3.09365 6.34933C3.33888 6.34933 3.53768 6.54813 3.53768 6.79336Z" fill="#35B2C2"/>
<path d="M2.7541 8.09934C2.7541 8.34457 2.5553 8.54337 2.31006 8.54337C2.06483 8.54337 1.86603 8.34457 1.86603 8.09934C1.86603 7.85411 2.06483 7.65531 2.31006 7.65531C2.5553 7.65531 2.7541 7.85411 2.7541 8.09934Z" fill="#35B2C2"/>
<path d="M2.12723 9.45756C2.12723 9.70279 1.92843 9.90159 1.68319 9.90159C1.43796 9.90159 1.23916 9.70279 1.23916 9.45756C1.23916 9.21233 1.43796 9.01353 1.68319 9.01353C1.92843 9.01353 2.12723 9.21233 2.12723 9.45756Z" fill="#35B2C2"/>
<path d="M1.70931 10.868C1.70931 11.1132 1.51051 11.312 1.26528 11.312C1.02005 11.312 0.821247 11.1132 0.821247 10.868C0.821247 10.6228 1.02005 10.424 1.26528 10.424C1.51051 10.424 1.70931 10.6228 1.70931 10.868Z" fill="#35B2C2"/>
<path d="M1.50036 12.4352C1.50036 12.6804 1.30156 12.8792 1.05632 12.8792C0.811091 12.8792 0.612291 12.6804 0.612291 12.4352C0.612291 12.19 0.811091 11.9912 1.05632 11.9912C1.30156 11.9912 1.50036 12.19 1.50036 12.4352Z" fill="#35B2C2"/>
<path d="M1.39588 13.9501C1.39588 14.1954 1.19708 14.3942 0.951845 14.3942C0.706613 14.3942 0.507812 14.1954 0.507812 13.9501C0.507812 13.7049 0.706613 13.5061 0.951845 13.5061C1.19708 13.5061 1.39588 13.7049 1.39588 13.9501Z" fill="#35B2C2"/>
<path d="M1.50036 15.3606C1.50036 15.6058 1.30156 15.8046 1.05632 15.8046C0.811091 15.8046 0.612291 15.6058 0.612291 15.3606C0.612291 15.1154 0.811091 14.9166 1.05632 14.9166C1.30156 14.9166 1.50036 15.1154 1.50036 15.3606Z" fill="#35B2C2"/>
<path d="M1.70931 16.8755C1.70931 17.1208 1.51051 17.3196 1.26528 17.3196C1.02005 17.3196 0.821247 17.1208 0.821247 16.8755C0.821247 16.6303 1.02005 16.4315 1.26528 16.4315C1.51051 16.4315 1.70931 16.6303 1.70931 16.8755Z" fill="#35B2C2"/>
<path d="M2.17947 18.286C2.17947 18.5312 1.98067 18.73 1.73543 18.73C1.4902 18.73 1.2914 18.5312 1.2914 18.286C1.2914 18.0407 1.4902 17.8419 1.73543 17.8419C1.98067 17.8419 2.17947 18.0407 2.17947 18.286Z" fill="#35B2C2"/>
<path d="M2.7541 19.6442C2.7541 19.8894 2.5553 20.0882 2.31006 20.0882C2.06483 20.0882 1.86603 19.8894 1.86603 19.6442C1.86603 19.399 2.06483 19.2002 2.31006 19.2002C2.5553 19.2002 2.7541 19.399 2.7541 19.6442Z" fill="#35B2C2"/>
<path d="M3.53768 20.9502C3.53768 21.1954 3.33888 21.3942 3.09365 21.3942C2.84842 21.3942 2.64962 21.1954 2.64962 20.9502C2.64962 20.7049 2.84842 20.5061 3.09365 20.5061C3.33888 20.5061 3.53768 20.7049 3.53768 20.9502Z" fill="#35B2C2"/>
<path d="M4.42575 22.1517C4.42575 22.3969 4.22695 22.5957 3.98172 22.5957C3.73648 22.5957 3.53768 22.3969 3.53768 22.1517C3.53768 21.9064 3.73648 21.7076 3.98172 21.7076C4.22695 21.7076 4.42575 21.9064 4.42575 22.1517Z" fill="#35B2C2"/>
<path d="M5.47053 23.3009C5.47053 23.5462 5.27173 23.745 5.0265 23.745C4.78127 23.745 4.58247 23.5462 4.58247 23.3009C4.58247 23.0557 4.78127 22.8569 5.0265 22.8569C5.27173 22.8569 5.47053 23.0557 5.47053 23.3009Z" fill="#35B2C2"/>
<path d="M6.56756 24.189C6.56756 24.4342 6.36876 24.633 6.12352 24.633C5.87829 24.633 5.67949 24.4342 5.67949 24.189C5.67949 23.9438 5.87829 23.745 6.12352 23.745C6.36876 23.745 6.56756 23.9438 6.56756 24.189Z" fill="#35B2C2"/>
<path d="M7.8213 25.0771C7.8213 25.3223 7.6225 25.5211 7.37726 25.5211C7.13203 25.5211 6.93323 25.3223 6.93323 25.0771C6.93323 24.8318 7.13203 24.633 7.37726 24.633C7.6225 24.633 7.8213 24.8318 7.8213 25.0771Z" fill="#35B2C2"/>
<path d="M9.23175 25.7039C9.23175 25.9492 9.03295 26.148 8.78772 26.148C8.54249 26.148 8.34369 25.9492 8.34369 25.7039C8.34369 25.4587 8.54249 25.2599 8.78772 25.2599C9.03295 25.2599 9.23175 25.4587 9.23175 25.7039Z" fill="#35B2C2"/>
<path d="M7.97801 12.5397C7.97801 12.6695 7.87277 12.7747 7.74294 12.7747C7.61311 12.7747 7.50786 12.6695 7.50786 12.5397C7.50786 12.4098 7.61311 12.3046 7.74294 12.3046C7.87277 12.3046 7.97801 12.4098 7.97801 12.5397Z" fill="#35B2C2"/>
<path d="M8.29145 11.8083C8.29145 11.9381 8.1862 12.0434 8.05637 12.0434C7.92654 12.0434 7.8213 11.9381 7.8213 11.8083C7.8213 11.6785 7.92654 11.5732 8.05637 11.5732C8.1862 11.5732 8.29145 11.6785 8.29145 11.8083Z" fill="#35B2C2"/>
<path d="M8.7616 11.1292C8.7616 11.259 8.65635 11.3643 8.52652 11.3643C8.3967 11.3643 8.29145 11.259 8.29145 11.1292C8.29145 10.9994 8.3967 10.8941 8.52652 10.8941C8.65635 10.8941 8.7616 10.9994 8.7616 11.1292Z" fill="#35B2C2"/>
<path d="M9.23175 10.5023C9.23175 10.6322 9.12651 10.7374 8.99668 10.7374C8.86685 10.7374 8.7616 10.6322 8.7616 10.5023C8.7616 10.3725 8.86685 10.2673 8.99668 10.2673C9.12651 10.2673 9.23175 10.3725 9.23175 10.5023Z" fill="#35B2C2"/>
<path d="M9.80638 9.97995C9.80638 10.1098 9.70114 10.215 9.57131 10.215C9.44148 10.215 9.33623 10.1098 9.33623 9.97995C9.33623 9.85012 9.44148 9.74487 9.57131 9.74487C9.70114 9.74487 9.80638 9.85012 9.80638 9.97995Z" fill="#35B2C2"/>
<path d="M10.4333 9.5098C10.4333 9.63963 10.328 9.74487 10.1982 9.74487C10.0683 9.74487 9.9631 9.63963 9.9631 9.5098C9.9631 9.37997 10.0683 9.27472 10.1982 9.27472C10.328 9.27472 10.4333 9.37997 10.4333 9.5098Z" fill="#35B2C2"/>
<path d="M11.1646 9.09188C11.1646 9.22171 11.0594 9.32696 10.9295 9.32696C10.7997 9.32696 10.6944 9.22171 10.6944 9.09188C10.6944 8.96206 10.7997 8.85681 10.9295 8.85681C11.0594 8.85681 11.1646 8.96206 11.1646 9.09188Z" fill="#35B2C2"/>
<path d="M11.896 8.83069C11.896 8.96052 11.7907 9.06576 11.6609 9.06576C11.531 9.06576 11.4258 8.96052 11.4258 8.83069C11.4258 8.70086 11.531 8.59561 11.6609 8.59561C11.7907 8.59561 11.896 8.70086 11.896 8.83069Z" fill="#35B2C2"/>
<path d="M12.6273 8.62173C12.6273 8.75156 12.5221 8.85681 12.3922 8.85681C12.2624 8.85681 12.1571 8.75156 12.1571 8.62173C12.1571 8.4919 12.2624 8.38666 12.3922 8.38666C12.5221 8.38666 12.6273 8.4919 12.6273 8.62173Z" fill="#35B2C2"/>
<path d="M13.4631 8.51725C13.4631 8.64708 13.3579 8.75233 13.228 8.75233C13.0982 8.75233 12.993 8.64708 12.993 8.51725C12.993 8.38742 13.0982 8.28218 13.228 8.28218C13.3579 8.28218 13.4631 8.38742 13.4631 8.51725Z" fill="#35B2C2"/>
<path d="M14.2467 8.46501C14.2467 8.59484 14.1415 8.70009 14.0116 8.70009C13.8818 8.70009 13.7766 8.59484 13.7766 8.46501C13.7766 8.33519 13.8818 8.22994 14.0116 8.22994C14.1415 8.22994 14.2467 8.33519 14.2467 8.46501Z" fill="#35B2C2"/>
<path d="M15.0303 8.56949C15.0303 8.69932 14.9251 8.80457 14.7952 8.80457C14.6654 8.80457 14.5601 8.69932 14.5601 8.56949C14.5601 8.43966 14.6654 8.33442 14.7952 8.33442C14.9251 8.33442 15.0303 8.43966 15.0303 8.56949Z" fill="#35B2C2"/>
<path d="M15.8139 8.72621C15.8139 8.85604 15.7086 8.96129 15.5788 8.96129C15.449 8.96129 15.3437 8.85604 15.3437 8.72621C15.3437 8.59638 15.449 8.49113 15.5788 8.49113C15.7086 8.49113 15.8139 8.59638 15.8139 8.72621Z" fill="#35B2C2"/>
<path d="M16.5975 8.98741C16.5975 9.11724 16.4922 9.22248 16.3624 9.22248C16.2326 9.22248 16.1273 9.11724 16.1273 8.98741C16.1273 8.85758 16.2326 8.75233 16.3624 8.75233C16.4922 8.75233 16.5975 8.85758 16.5975 8.98741Z" fill="#35B2C2"/>
<path d="M17.3288 9.40532C17.3288 9.53515 17.2236 9.6404 17.0937 9.6404C16.9639 9.6404 16.8587 9.53515 16.8587 9.40532C16.8587 9.27549 16.9639 9.17024 17.0937 9.17024C17.2236 9.17024 17.3288 9.27549 17.3288 9.40532Z" fill="#35B2C2"/>
<path d="M18.0079 9.82323C18.0079 9.95306 17.9027 10.0583 17.7729 10.0583C17.643 10.0583 17.5378 9.95306 17.5378 9.82323C17.5378 9.6934 17.643 9.58816 17.7729 9.58816C17.9027 9.58816 18.0079 9.6934 18.0079 9.82323Z" fill="#35B2C2"/>
<path d="M18.687 10.3456C18.687 10.4755 18.5818 10.5807 18.452 10.5807C18.3221 10.5807 18.2169 10.4755 18.2169 10.3456C18.2169 10.2158 18.3221 10.1105 18.452 10.1105C18.5818 10.1105 18.687 10.2158 18.687 10.3456Z" fill="#35B2C2"/>
<path d="M19.2617 10.9203C19.2617 11.0501 19.1564 11.1553 19.0266 11.1553C18.8968 11.1553 18.7915 11.0501 18.7915 10.9203C18.7915 10.7904 18.8968 10.6852 19.0266 10.6852C19.1564 10.6852 19.2617 10.7904 19.2617 10.9203Z" fill="#35B2C2"/>
<path d="M19.7841 11.5994C19.7841 11.7292 19.6788 11.8344 19.549 11.8344C19.4192 11.8344 19.3139 11.7292 19.3139 11.5994C19.3139 11.4695 19.4192 11.3643 19.549 11.3643C19.6788 11.3643 19.7841 11.4695 19.7841 11.5994Z" fill="#35B2C2"/>
<path d="M20.2542 12.3307C20.2542 12.4605 20.149 12.5658 20.0191 12.5658C19.8893 12.5658 19.7841 12.4605 19.7841 12.3307C19.7841 12.2009 19.8893 12.0956 20.0191 12.0956C20.149 12.0956 20.2542 12.2009 20.2542 12.3307Z" fill="#35B2C2"/>
<path d="M20.6199 13.0621C20.6199 13.1919 20.5146 13.2971 20.3848 13.2971C20.255 13.2971 20.1497 13.1919 20.1497 13.0621C20.1497 12.9322 20.255 12.827 20.3848 12.827C20.5146 12.827 20.6199 12.9322 20.6199 13.0621Z" fill="#35B2C2"/>
<path d="M20.8811 13.8456C20.8811 13.9755 20.7758 14.0807 20.646 14.0807C20.5162 14.0807 20.4109 13.9755 20.4109 13.8456C20.4109 13.7158 20.5162 13.6106 20.646 13.6106C20.7758 13.6106 20.8811 13.7158 20.8811 13.8456Z" fill="#35B2C2"/>
<path d="M21.09 14.6815C21.09 14.8113 20.9848 14.9166 20.855 14.9166C20.7251 14.9166 20.6199 14.8113 20.6199 14.6815C20.6199 14.5516 20.7251 14.4464 20.855 14.4464C20.9848 14.4464 21.09 14.5516 21.09 14.6815Z" fill="#35B2C2"/>
<path d="M21.1945 15.5173C21.1945 15.6471 21.0893 15.7524 20.9594 15.7524C20.8296 15.7524 20.7244 15.6471 20.7244 15.5173C20.7244 15.3875 20.8296 15.2822 20.9594 15.2822C21.0893 15.2822 21.1945 15.3875 21.1945 15.5173Z" fill="#35B2C2"/>
<path d="M21.1945 16.3531C21.1945 16.483 21.0893 16.5882 20.9594 16.5882C20.8296 16.5882 20.7244 16.483 20.7244 16.3531C20.7244 16.2233 20.8296 16.1181 20.9594 16.1181C21.0893 16.1181 21.1945 16.2233 21.1945 16.3531Z" fill="#35B2C2"/>
<path d="M21.1423 17.189C21.1423 17.3188 21.037 17.424 20.9072 17.424C20.7774 17.424 20.6721 17.3188 20.6721 17.189C20.6721 17.0591 20.7774 16.9539 20.9072 16.9539C21.037 16.9539 21.1423 17.0591 21.1423 17.189Z" fill="#35B2C2"/>
<path d="M20.9333 17.9725C20.9333 18.1024 20.8281 18.2076 20.6982 18.2076C20.5684 18.2076 20.4632 18.1024 20.4632 17.9725C20.4632 17.8427 20.5684 17.7375 20.6982 17.7375C20.8281 17.7375 20.9333 17.8427 20.9333 17.9725Z" fill="#35B2C2"/>
<path d="M20.6721 18.7561C20.6721 18.886 20.5669 18.9912 20.4371 18.9912C20.3072 18.9912 20.202 18.886 20.202 18.7561C20.202 18.6263 20.3072 18.5211 20.4371 18.5211C20.5669 18.5211 20.6721 18.6263 20.6721 18.7561Z" fill="#35B2C2"/>
<path d="M20.3065 19.4875C20.3065 19.6173 20.2012 19.7226 20.0714 19.7226C19.9415 19.7226 19.8363 19.6173 19.8363 19.4875C19.8363 19.3577 19.9415 19.2524 20.0714 19.2524C20.2012 19.2524 20.3065 19.3577 20.3065 19.4875Z" fill="#35B2C2"/>
<path d="M19.8885 20.1666C19.8885 20.2964 19.7833 20.4017 19.6535 20.4017C19.5236 20.4017 19.4184 20.2964 19.4184 20.1666C19.4184 20.0368 19.5236 19.9315 19.6535 19.9315C19.7833 19.9315 19.8885 20.0368 19.8885 20.1666Z" fill="#35B2C2"/>
<path d="M19.4184 20.7935C19.4184 20.9233 19.3131 21.0285 19.1833 21.0285C19.0535 21.0285 18.9482 20.9233 18.9482 20.7935C18.9482 20.6636 19.0535 20.5584 19.1833 20.5584C19.3131 20.5584 19.4184 20.6636 19.4184 20.7935Z" fill="#35B2C2"/>
<path d="M18.8438 21.3158C18.8438 21.4457 18.7385 21.5509 18.6087 21.5509C18.4789 21.5509 18.3736 21.4457 18.3736 21.3158C18.3736 21.186 18.4789 21.0808 18.6087 21.0808C18.7385 21.0808 18.8438 21.186 18.8438 21.3158Z" fill="#35B2C2"/>
<path d="M18.2169 21.786C18.2169 21.9158 18.1116 22.0211 17.9818 22.0211C17.852 22.0211 17.7467 21.9158 17.7467 21.786C17.7467 21.6562 17.852 21.5509 17.9818 21.5509C18.1116 21.5509 18.2169 21.6562 18.2169 21.786Z" fill="#35B2C2"/>
<path d="M17.4855 22.2039C17.4855 22.3337 17.3803 22.439 17.2505 22.439C17.1206 22.439 17.0154 22.3337 17.0154 22.2039C17.0154 22.0741 17.1206 21.9688 17.2505 21.9688C17.3803 21.9688 17.4855 22.0741 17.4855 22.2039Z" fill="#35B2C2"/>
<path d="M16.7542 22.4651C16.7542 22.5949 16.6489 22.7002 16.5191 22.7002C16.3893 22.7002 16.284 22.5949 16.284 22.4651C16.284 22.3353 16.3893 22.23 16.5191 22.23C16.6489 22.23 16.7542 22.3353 16.7542 22.4651Z" fill="#35B2C2"/>
<path d="M16.0228 22.6741C16.0228 22.8039 15.9176 22.9091 15.7878 22.9091C15.6579 22.9091 15.5527 22.8039 15.5527 22.6741C15.5527 22.5442 15.6579 22.439 15.7878 22.439C15.9176 22.439 16.0228 22.5442 16.0228 22.6741Z" fill="#35B2C2"/>
<path d="M14.4034 22.8308C14.4034 22.9606 14.2982 23.0659 14.1684 23.0659C14.0385 23.0659 13.9333 22.9606 13.9333 22.8308C13.9333 22.701 14.0385 22.5957 14.1684 22.5957C14.2982 22.5957 14.4034 22.701 14.4034 22.8308Z" fill="#35B2C2"/>
<path d="M13.6198 22.7263C13.6198 22.8561 13.5146 22.9614 13.3848 22.9614C13.2549 22.9614 13.1497 22.8561 13.1497 22.7263C13.1497 22.5965 13.2549 22.4912 13.3848 22.4912C13.5146 22.4912 13.6198 22.5965 13.6198 22.7263Z" fill="#35B2C2"/>
<path d="M12.8363 22.5696C12.8363 22.6994 12.731 22.8047 12.6012 22.8047C12.4713 22.8047 12.3661 22.6994 12.3661 22.5696C12.3661 22.4398 12.4713 22.3345 12.6012 22.3345C12.731 22.3345 12.8363 22.4398 12.8363 22.5696Z" fill="#35B2C2"/>
<path d="M12.0527 22.2562C12.0527 22.386 11.9474 22.4912 11.8176 22.4912C11.6878 22.4912 11.5825 22.386 11.5825 22.2562C11.5825 22.1263 11.6878 22.0211 11.8176 22.0211C11.9474 22.0211 12.0527 22.1263 12.0527 22.2562Z" fill="#35B2C2"/>
<path d="M11.3213 21.8905C11.3213 22.0203 11.2161 22.1256 11.0862 22.1256C10.9564 22.1256 10.8512 22.0203 10.8512 21.8905C10.8512 21.7607 10.9564 21.6554 11.0862 21.6554C11.2161 21.6554 11.3213 21.7607 11.3213 21.8905Z" fill="#35B2C2"/>
<path d="M10.59 21.4726C10.59 21.6024 10.4847 21.7076 10.3549 21.7076C10.2251 21.7076 10.1198 21.6024 10.1198 21.4726C10.1198 21.3427 10.2251 21.2375 10.3549 21.2375C10.4847 21.2375 10.59 21.3427 10.59 21.4726Z" fill="#35B2C2"/>
<path d="M9.9631 20.9502C9.9631 21.08 9.85785 21.1853 9.72803 21.1853C9.5982 21.1853 9.49295 21.08 9.49295 20.9502C9.49295 20.8203 9.5982 20.7151 9.72803 20.7151C9.85785 20.7151 9.9631 20.8203 9.9631 20.9502Z" fill="#35B2C2"/>
<path d="M9.38847 20.3233C9.38847 20.4531 9.28322 20.5584 9.15339 20.5584C9.02357 20.5584 8.91832 20.4531 8.91832 20.3233C8.91832 20.1935 9.02357 20.0882 9.15339 20.0882C9.28322 20.0882 9.38847 20.1935 9.38847 20.3233Z" fill="#35B2C2"/>
<path d="M8.86608 19.6964C8.86608 19.8263 8.76083 19.9315 8.631 19.9315C8.50117 19.9315 8.39593 19.8263 8.39593 19.6964C8.39593 19.5666 8.50117 19.4614 8.631 19.4614C8.76083 19.4614 8.86608 19.5666 8.86608 19.6964Z" fill="#35B2C2"/>
<path d="M8.39593 18.9651C8.39593 19.0949 8.29068 19.2002 8.16085 19.2002C8.03102 19.2002 7.92577 19.0949 7.92577 18.9651C7.92577 18.8353 8.03102 18.73 8.16085 18.73C8.29068 18.73 8.39593 18.8353 8.39593 18.9651Z" fill="#35B2C2"/>
<path d="M8.03025 18.1815C8.03025 18.3113 7.92501 18.4166 7.79518 18.4166C7.66535 18.4166 7.5601 18.3113 7.5601 18.1815C7.5601 18.0517 7.66535 17.9464 7.79518 17.9464C7.92501 17.9464 8.03025 18.0517 8.03025 18.1815Z" fill="#35B2C2"/>
<path d="M7.76906 17.3979C7.76906 17.5277 7.66381 17.633 7.53398 17.633C7.40415 17.633 7.2989 17.5277 7.2989 17.3979C7.2989 17.2681 7.40415 17.1628 7.53398 17.1628C7.66381 17.1628 7.76906 17.2681 7.76906 17.3979Z" fill="#35B2C2"/>
<path d="M7.5601 16.5621C7.5601 16.6919 7.45485 16.7972 7.32502 16.7972C7.19519 16.7972 7.08995 16.6919 7.08995 16.5621C7.08995 16.4323 7.19519 16.327 7.32502 16.327C7.45485 16.327 7.5601 16.4323 7.5601 16.5621Z" fill="#35B2C2"/>
<path d="M7.45562 15.7785C7.45562 15.9083 7.35037 16.0136 7.22055 16.0136C7.09072 16.0136 6.98547 15.9083 6.98547 15.7785C6.98547 15.6487 7.09072 15.5434 7.22055 15.5434C7.35037 15.5434 7.45562 15.6487 7.45562 15.7785Z" fill="#35B2C2"/>
<path d="M7.45562 14.9427C7.45562 15.0725 7.35037 15.1777 7.22055 15.1777C7.09072 15.1777 6.98547 15.0725 6.98547 14.9427C6.98547 14.8128 7.09072 14.7076 7.22055 14.7076C7.35037 14.7076 7.45562 14.8128 7.45562 14.9427Z" fill="#35B2C2"/>
<path d="M7.50786 14.1068C7.50786 14.2367 7.40261 14.3419 7.27278 14.3419C7.14296 14.3419 7.03771 14.2367 7.03771 14.1068C7.03771 13.977 7.14296 13.8718 7.27278 13.8718C7.40261 13.8718 7.50786 13.977 7.50786 14.1068Z" fill="#35B2C2"/>
<path d="M7.71682 13.271C7.71682 13.4008 7.61157 13.5061 7.48174 13.5061C7.35191 13.5061 7.24666 13.4008 7.24666 13.271C7.24666 13.1412 7.35191 13.0359 7.48174 13.0359C7.61157 13.0359 7.71682 13.1412 7.71682 13.271Z" fill="#35B2C2"/>
<path d="M15.2393 22.7785C15.2393 22.9084 15.134 23.0136 15.0042 23.0136C14.8744 23.0136 14.7691 22.9084 14.7691 22.7785C14.7691 22.6487 14.8744 22.5435 15.0042 22.5435C15.134 22.5435 15.2393 22.6487 15.2393 22.7785Z" fill="#35B2C2"/>
</svg>
