<svg width="324" height="325" viewBox="0 0 324 325" fill="none" xmlns="http://www.w3.org/2000/svg">
<path d="M254.427 245.29C254.072 247.585 252.152 249.193 250.139 248.881C248.126 248.57 246.781 246.457 247.137 244.161C247.492 241.866 249.412 240.258 251.425 240.57C253.438 240.882 254.783 242.995 254.427 245.29Z" fill="white"/>
<path d="M262.051 231.949C261.696 234.244 259.776 235.852 257.762 235.54C255.749 235.229 254.405 233.115 254.76 230.82C255.115 228.525 257.036 226.917 259.049 227.229C261.062 227.541 262.406 229.654 262.051 231.949Z" fill="white"/>
<path d="M268.404 218.608C268.049 220.903 266.129 222.511 264.115 222.199C262.102 221.887 260.758 219.774 261.113 217.479C261.468 215.184 263.388 213.576 265.402 213.888C267.415 214.199 268.759 216.313 268.404 218.608Z" fill="white"/>
<path d="M272.851 203.996C272.496 206.291 270.576 207.899 268.562 207.587C266.549 207.276 265.205 205.162 265.56 202.867C265.916 200.572 267.836 198.964 269.849 199.276C271.862 199.588 273.206 201.701 272.851 203.996Z" fill="white"/>
<path d="M276.027 189.384C275.672 191.679 273.752 193.287 271.739 192.975C269.726 192.664 268.381 190.551 268.737 188.256C269.092 185.961 271.012 184.353 273.025 184.664C275.039 184.976 276.383 187.089 276.027 189.384Z" fill="white"/>
<path d="M277.298 174.772C276.943 177.067 275.023 178.675 273.009 178.364C270.996 178.052 269.652 175.939 270.007 173.644C270.363 171.349 272.283 169.741 274.296 170.052C276.309 170.364 277.653 172.477 277.298 174.772Z" fill="white"/>
<path d="M277.933 159.525C277.578 161.82 275.658 163.428 273.645 163.117C271.631 162.805 270.287 160.692 270.643 158.397C270.998 156.102 272.918 154.494 274.931 154.805C276.944 155.117 278.288 157.23 277.933 159.525Z" fill="white"/>
<path d="M276.663 144.913C276.307 147.209 274.387 148.816 272.374 148.505C270.361 148.193 269.017 146.08 269.372 143.785C269.727 141.49 271.647 139.882 273.661 140.194C275.674 140.505 277.018 142.618 276.663 144.913Z" fill="white"/>
<path d="M273.486 130.937C273.131 133.232 271.211 134.84 269.198 134.528C267.184 134.217 265.84 132.104 266.196 129.809C266.551 127.513 268.471 125.906 270.484 126.217C272.497 126.529 273.841 128.642 273.486 130.937Z" fill="white"/>
<path d="M269.039 116.961C268.684 119.256 266.764 120.864 264.751 120.552C262.737 120.24 261.393 118.127 261.748 115.832C262.104 113.537 264.024 111.929 266.037 112.241C268.05 112.552 269.394 114.665 269.039 116.961Z" fill="white"/>
<path d="M263.321 104.255C262.966 106.55 261.046 108.158 259.033 107.846C257.02 107.534 255.676 105.421 256.031 103.126C256.386 100.831 258.306 99.2232 260.319 99.5348C262.333 99.8464 263.677 101.96 263.321 104.255Z" fill="white"/>
<path d="M256.333 92.1841C255.978 94.4791 254.058 96.087 252.045 95.7754C250.031 95.4638 248.687 93.3507 249.043 91.0556C249.398 88.7605 251.318 87.1526 253.331 87.4642C255.344 87.7759 256.688 89.889 256.333 92.1841Z" fill="white"/>
<path d="M248.074 81.3841C247.719 83.6791 245.799 85.287 243.786 84.9754C241.773 84.6638 240.429 82.5507 240.784 80.2556C241.139 77.9605 243.059 76.3526 245.072 76.6642C247.086 76.9759 248.43 79.089 248.074 81.3841Z" fill="white"/>
<path d="M238.545 71.8547C238.19 74.1497 236.27 75.7576 234.256 75.446C232.243 75.1344 230.899 73.0212 231.254 70.7262C231.61 68.4311 233.53 66.8232 235.543 67.1348C237.556 67.4464 238.9 69.5596 238.545 71.8547Z" fill="white"/>
<path d="M227.745 63.5958C227.39 65.8909 225.47 67.4988 223.456 67.1872C221.443 66.8756 220.099 64.7624 220.454 62.4673C220.81 60.1723 222.73 58.5644 224.743 58.876C226.756 59.1876 228.1 61.3008 227.745 63.5958Z" fill="white"/>
<path d="M216.31 56.6076C215.954 58.9027 214.034 60.5106 212.021 60.1989C210.008 59.8873 208.664 57.7742 209.019 55.4791C209.374 53.184 211.294 51.5761 213.308 51.8878C215.321 52.1994 216.665 54.3125 216.31 56.6076Z" fill="white"/>
<path d="M204.239 51.5252C203.884 53.8203 201.964 55.4282 199.951 55.1166C197.937 54.805 196.593 52.6918 196.948 50.3968C197.304 48.1017 199.224 46.4938 201.237 46.8054C203.25 47.117 204.594 49.2302 204.239 51.5252Z" fill="white"/>
<path d="M191.533 48.3488C191.178 50.6438 189.258 52.2518 187.245 51.9401C185.231 51.6285 183.887 49.5154 184.243 47.2203C184.598 44.9252 186.518 43.3173 188.531 43.6289C190.544 43.9406 191.888 46.0537 191.533 48.3488Z" fill="white"/>
<path d="M178.192 46.4429C177.837 48.738 175.917 50.3459 173.904 50.0342C171.89 49.7226 170.546 47.6095 170.901 45.3144C171.257 43.0193 173.177 41.4114 175.19 41.7231C177.203 42.0347 178.547 44.1478 178.192 46.4429Z" fill="white"/>
<path d="M164.851 46.4429C164.496 48.738 162.576 50.3459 160.562 50.0342C158.549 49.7226 157.205 47.6095 157.56 45.3144C157.915 43.0193 159.836 41.4114 161.849 41.7231C163.862 42.0347 165.206 44.1478 164.851 46.4429Z" fill="white"/>
<path d="M152.145 47.7135C151.79 50.0086 149.87 51.6165 147.856 51.3048C145.843 50.9932 144.499 48.8801 144.854 46.585C145.21 44.2899 147.13 42.682 149.143 42.9936C151.156 43.3053 152.5 45.4184 152.145 47.7135Z" fill="white"/>
<path d="M138.804 50.89C138.449 53.185 136.529 54.7929 134.515 54.4813C132.502 54.1697 131.158 52.0565 131.513 49.7615C131.868 47.4664 133.788 45.8585 135.802 46.1701C137.815 46.4817 139.159 48.5949 138.804 50.89Z" fill="white"/>
<path d="M126.098 55.9723C125.743 58.2674 123.823 59.8753 121.809 59.5637C119.796 59.252 118.452 57.1389 118.807 54.8438C119.163 52.5487 121.083 50.9408 123.096 51.2525C125.109 51.5641 126.453 53.6772 126.098 55.9723Z" fill="white"/>
<path d="M114.027 62.3252C113.672 64.6203 111.752 66.2282 109.739 65.9166C107.726 65.605 106.381 63.4918 106.737 61.1968C107.092 58.9017 109.012 57.2938 111.025 57.6054C113.038 57.917 114.383 60.0302 114.027 62.3252Z" fill="white"/>
<path d="M101.957 70.5841C101.601 72.8791 99.6815 74.487 97.6682 74.1754C95.655 73.8638 94.3109 71.7507 94.6661 69.4556C95.0214 67.1605 96.9414 65.5526 98.9547 65.8642C100.968 66.1759 102.312 68.289 101.957 70.5841Z" fill="white"/>
<path d="M91.792 80.1135C91.4368 82.4086 89.5167 84.0165 87.5035 83.7048C85.4903 83.3932 84.1462 81.2801 84.5014 78.985C84.8567 76.6899 86.7767 75.082 88.79 75.3936C90.8032 75.7053 92.1473 77.8184 91.792 80.1135Z" fill="white"/>
<path d="M81.6273 90.9135C81.2721 93.2086 79.352 94.8165 77.3388 94.5048C75.3255 94.1932 73.9815 92.0801 74.3367 89.785C74.692 87.4899 76.612 85.882 78.6253 86.1936C80.6385 86.5053 81.9826 88.6184 81.6273 90.9135Z" fill="white"/>
<path d="M72.7332 102.984C72.378 105.279 70.4579 106.887 68.4447 106.575C66.4314 106.264 65.0873 104.151 65.4426 101.856C65.7978 99.5605 67.7179 97.9526 69.7311 98.2642C71.7444 98.5759 73.0885 100.689 72.7332 102.984Z" fill="white"/>
<path d="M65.745 116.325C65.3897 118.62 63.4697 120.228 61.4564 119.917C59.4432 119.605 58.0991 117.492 58.4544 115.197C58.8096 112.902 60.7297 111.294 62.7429 111.605C64.7561 111.917 66.1002 114.03 65.745 116.325Z" fill="white"/>
<path d="M60.0273 129.666C59.6721 131.962 57.752 133.569 55.7388 133.258C53.7255 132.946 52.3815 130.833 52.7367 128.538C53.092 126.243 55.012 124.635 57.0253 124.947C59.0385 125.258 60.3826 127.371 60.0273 129.666Z" fill="white"/>
<path d="M54.945 143.643C54.5897 145.938 52.6697 147.546 50.6564 147.234C48.6432 146.923 47.2991 144.809 47.6544 142.514C48.0096 140.219 49.9297 138.611 51.9429 138.923C53.9561 139.235 55.3002 141.348 54.945 143.643Z" fill="white"/>
<path d="M51.7685 158.255C51.4133 160.55 49.4932 162.158 47.48 161.846C45.4667 161.534 44.1226 159.421 44.4779 157.126C44.8331 154.831 46.7532 153.223 48.7664 153.535C50.7797 153.846 52.1238 155.96 51.7685 158.255Z" fill="white"/>
<path d="M49.8626 173.502C49.5074 175.797 47.5873 177.405 45.5741 177.093C43.5608 176.781 42.2168 174.668 42.572 172.373C42.9273 170.078 44.8473 168.47 46.8605 168.782C48.8738 169.094 50.2179 171.207 49.8626 173.502Z" fill="white"/>
<path d="M49.8626 188.749C49.5074 191.044 47.5873 192.652 45.5741 192.34C43.5608 192.029 42.2168 189.915 42.572 187.62C42.9273 185.325 44.8473 183.717 46.8605 184.029C48.8738 184.341 50.2179 186.454 49.8626 188.749Z" fill="white"/>
<path d="M51.1332 203.361C50.778 205.656 48.8579 207.264 46.8447 206.952C44.8314 206.64 43.4874 204.527 43.8426 202.232C44.1978 199.937 46.1179 198.329 48.1311 198.641C50.1444 198.952 51.4885 201.065 51.1332 203.361Z" fill="white"/>
<path d="M54.3097 217.972C53.9544 220.267 52.0344 221.875 50.0211 221.564C48.0079 221.252 46.6638 219.139 47.0191 216.844C47.3743 214.549 49.2944 212.941 51.3076 213.252C53.3209 213.564 54.6649 215.677 54.3097 217.972Z" fill="white"/>
<path d="M58.7567 230.678C58.4015 232.973 56.4815 234.581 54.4682 234.27C52.455 233.958 51.1109 231.845 51.4661 229.55C51.8214 227.255 53.7414 225.647 55.7547 225.958C57.7679 226.27 59.112 228.383 58.7567 230.678Z" fill="white"/>
<path d="M64.4744 244.019C64.1191 246.314 62.1991 247.922 60.1859 247.611C58.1726 247.299 56.8285 245.186 57.1838 242.891C57.539 240.596 59.4591 238.988 61.4723 239.3C63.4856 239.611 64.8296 241.724 64.4744 244.019Z" fill="white"/>
<path d="M71.4626 256.09C71.1074 258.385 69.1873 259.993 67.1741 259.681C65.1608 259.37 63.8168 257.257 64.172 254.961C64.5273 252.666 66.4473 251.058 68.4605 251.37C70.4738 251.682 71.8179 253.795 71.4626 256.09Z" fill="white"/>
<path d="M79.7214 266.89C79.3662 269.185 77.4462 270.793 75.4329 270.481C73.4197 270.17 72.0756 268.057 72.4308 265.761C72.7861 263.466 74.7061 261.858 76.7194 262.17C78.7326 262.482 80.0767 264.595 79.7214 266.89Z" fill="white"/>
<path d="M89.8862 276.419C89.5309 278.714 87.6109 280.322 85.5976 280.011C83.5844 279.699 82.2403 277.586 82.5955 275.291C82.9508 272.996 84.8708 271.388 86.8841 271.7C88.8973 272.011 90.2414 274.124 89.8862 276.419Z" fill="white"/>
<path d="M100.051 284.678C99.6956 286.973 97.7756 288.581 95.7623 288.27C93.7491 287.958 92.405 285.845 92.7603 283.55C93.1155 281.255 95.0355 279.647 97.0488 279.958C99.062 280.27 100.406 282.383 100.051 284.678Z" fill="white"/>
<path d="M111.486 291.666C111.131 293.961 109.211 295.569 107.198 295.258C105.184 294.946 103.84 292.833 104.196 290.538C104.551 288.243 106.471 286.635 108.484 286.947C110.497 287.258 111.841 289.371 111.486 291.666Z" fill="white"/>
<path d="M123.557 296.749C123.201 299.044 121.281 300.652 119.268 300.34C117.255 300.029 115.911 297.915 116.266 295.62C116.621 293.325 118.541 291.717 120.555 292.029C122.568 292.341 123.912 294.454 123.557 296.749Z" fill="white"/>
<path d="M136.263 299.925C135.907 302.22 133.987 303.828 131.974 303.517C129.961 303.205 128.617 301.092 128.972 298.797C129.327 296.502 131.247 294.894 133.261 295.205C135.274 295.517 136.618 297.63 136.263 299.925Z" fill="white"/>
<path d="M149.604 301.831C149.249 304.126 147.329 305.734 145.315 305.422C143.302 305.111 141.958 302.998 142.313 300.703C142.668 298.408 144.588 296.8 146.602 297.111C148.615 297.423 149.959 299.536 149.604 301.831Z" fill="white"/>
<path d="M162.31 301.831C161.954 304.126 160.034 305.734 158.021 305.422C156.008 305.111 154.664 302.998 155.019 300.703C155.374 298.408 157.294 296.8 159.308 297.111C161.321 297.423 162.665 299.536 162.31 301.831Z" fill="white"/>
<path d="M175.651 300.561C175.296 302.856 173.376 304.464 171.362 304.152C169.349 303.84 168.005 301.727 168.36 299.432C168.715 297.137 170.636 295.529 172.649 295.841C174.662 296.152 176.006 298.265 175.651 300.561Z" fill="white"/>
<path d="M188.992 297.384C188.637 299.679 186.717 301.287 184.704 300.975C182.69 300.664 181.346 298.551 181.701 296.256C182.057 293.961 183.977 292.353 185.99 292.664C188.003 292.976 189.347 295.089 188.992 297.384Z" fill="white"/>
<path d="M201.698 292.302C201.343 294.597 199.423 296.205 197.409 295.893C195.396 295.581 194.052 293.468 194.407 291.173C194.763 288.878 196.683 287.27 198.696 287.582C200.709 287.893 202.053 290.007 201.698 292.302Z" fill="white"/>
<path d="M213.769 285.313C213.413 287.609 211.493 289.216 209.48 288.905C207.467 288.593 206.123 286.48 206.478 284.185C206.833 281.89 208.753 280.282 210.766 280.594C212.78 280.905 214.124 283.018 213.769 285.313Z" fill="white"/>
<path d="M225.204 277.055C224.849 279.35 222.929 280.958 220.915 280.646C218.902 280.334 217.558 278.221 217.913 275.926C218.268 273.631 220.188 272.023 222.202 272.335C224.215 272.646 225.559 274.76 225.204 277.055Z" fill="white"/>
<path d="M236.004 267.525C235.649 269.82 233.729 271.428 231.715 271.117C229.702 270.805 228.358 268.692 228.713 266.397C229.068 264.102 230.988 262.494 233.002 262.805C235.015 263.117 236.359 265.23 236.004 267.525Z" fill="white"/>
<path d="M246.169 257.361C245.813 259.656 243.893 261.264 241.88 260.952C239.867 260.64 238.523 258.527 238.878 256.232C239.233 253.937 241.153 252.329 243.166 252.641C245.18 252.952 246.524 255.065 246.169 257.361Z" fill="white"/>
<path d="M122.612 313.382C122.612 316.365 120.194 318.782 117.212 318.782C114.229 318.782 111.812 316.365 111.812 313.382C111.812 310.4 114.229 307.982 117.212 307.982C120.194 307.982 122.612 310.4 122.612 313.382Z" fill="white"/>
<path d="M140.4 317.194C140.4 320.176 137.982 322.594 135 322.594C132.018 322.594 129.6 320.176 129.6 317.194C129.6 314.212 132.018 311.794 135 311.794C137.982 311.794 140.4 314.212 140.4 317.194Z" fill="white"/>
<path d="M158.188 319.1C158.188 322.082 155.771 324.5 152.788 324.5C149.806 324.5 147.388 322.082 147.388 319.1C147.388 316.118 149.806 313.7 152.788 313.7C155.771 313.7 158.188 316.118 158.188 319.1Z" fill="white"/>
<path d="M177.247 319.1C177.247 322.082 174.829 324.5 171.847 324.5C168.865 324.5 166.447 322.082 166.447 319.1C166.447 316.118 168.865 313.7 171.847 313.7C174.829 313.7 177.247 316.118 177.247 319.1Z" fill="white"/>
<path d="M195.035 317.194C195.035 320.176 192.618 322.594 189.635 322.594C186.653 322.594 184.235 320.176 184.235 317.194C184.235 314.212 186.653 311.794 189.635 311.794C192.618 311.794 195.035 314.212 195.035 317.194Z" fill="white"/>
<path d="M212.824 313.382C212.824 316.365 210.406 318.782 207.424 318.782C204.441 318.782 202.024 316.365 202.024 313.382C202.024 310.4 204.441 307.982 207.424 307.982C210.406 307.982 212.824 310.4 212.824 313.382Z" fill="white"/>
<path d="M229.976 306.394C229.976 309.376 227.559 311.794 224.576 311.794C221.594 311.794 219.176 309.376 219.176 306.394C219.176 303.412 221.594 300.994 224.576 300.994C227.559 300.994 229.976 303.412 229.976 306.394Z" fill="white"/>
<path d="M246.494 298.771C246.494 301.753 244.076 304.171 241.094 304.171C238.112 304.171 235.694 301.753 235.694 298.771C235.694 295.788 238.112 293.371 241.094 293.371C244.076 293.371 246.494 295.788 246.494 298.771Z" fill="white"/>
<path d="M261.741 287.971C261.741 290.953 259.324 293.371 256.341 293.371C253.359 293.371 250.941 290.953 250.941 287.971C250.941 284.988 253.359 282.571 256.341 282.571C259.324 282.571 261.741 284.988 261.741 287.971Z" fill="white"/>
<path d="M275.718 277.171C275.718 280.153 273.3 282.571 270.318 282.571C267.335 282.571 264.918 280.153 264.918 277.171C264.918 274.188 267.335 271.771 270.318 271.771C273.3 271.771 275.718 274.188 275.718 277.171Z" fill="white"/>
<path d="M288.424 263.194C288.424 266.176 286.006 268.594 283.024 268.594C280.041 268.594 277.624 266.176 277.624 263.194C277.624 260.212 280.041 257.794 283.024 257.794C286.006 257.794 288.424 260.212 288.424 263.194Z" fill="white"/>
<path d="M299.224 248.582C299.224 251.565 296.806 253.982 293.824 253.982C290.841 253.982 288.424 251.565 288.424 248.582C288.424 245.6 290.841 243.182 293.824 243.182C296.806 243.182 299.224 245.6 299.224 248.582Z" fill="white"/>
<path d="M308.118 232.7C308.118 235.682 305.7 238.1 302.718 238.1C299.735 238.1 297.318 235.682 297.318 232.7C297.318 229.718 299.735 227.3 302.718 227.3C305.7 227.3 308.118 229.718 308.118 232.7Z" fill="white"/>
<path d="M315.741 216.182C315.741 219.165 313.324 221.582 310.341 221.582C307.359 221.582 304.941 219.165 304.941 216.182C304.941 213.2 307.359 210.782 310.341 210.782C313.324 210.782 315.741 213.2 315.741 216.182Z" fill="white"/>
<path d="M320.824 199.029C320.824 202.012 318.406 204.429 315.424 204.429C312.441 204.429 310.024 202.012 310.024 199.029C310.024 196.047 312.441 193.629 315.424 193.629C318.406 193.629 320.824 196.047 320.824 199.029Z" fill="white"/>
<path d="M324 180.606C324 183.588 321.582 186.006 318.6 186.006C315.618 186.006 313.2 183.588 313.2 180.606C313.2 177.624 315.618 175.206 318.6 175.206C321.582 175.206 324 177.624 324 180.606Z" fill="white"/>
<path d="M324 162.182C324 165.165 321.582 167.582 318.6 167.582C315.618 167.582 313.2 165.165 313.2 162.182C313.2 159.2 315.618 156.782 318.6 156.782C321.582 156.782 324 159.2 324 162.182Z" fill="white"/>
<path d="M324 143.759C324 146.741 321.582 149.159 318.6 149.159C315.618 149.159 313.2 146.741 313.2 143.759C313.2 140.776 315.618 138.359 318.6 138.359C321.582 138.359 324 140.776 324 143.759Z" fill="white"/>
<path d="M320.824 126.606C320.824 129.588 318.406 132.006 315.424 132.006C312.441 132.006 310.024 129.588 310.024 126.606C310.024 123.624 312.441 121.206 315.424 121.206C318.406 121.206 320.824 123.624 320.824 126.606Z" fill="white"/>
<path d="M315.741 108.182C315.741 111.165 313.324 113.582 310.341 113.582C307.359 113.582 304.941 111.165 304.941 108.182C304.941 105.2 307.359 102.782 310.341 102.782C313.324 102.782 315.741 105.2 315.741 108.182Z" fill="white"/>
<path d="M308.118 92.3C308.118 95.2823 305.7 97.7 302.718 97.7C299.735 97.7 297.318 95.2823 297.318 92.3C297.318 89.3177 299.735 86.9 302.718 86.9C305.7 86.9 308.118 89.3177 308.118 92.3Z" fill="white"/>
<path d="M299.224 76.4177C299.224 79.4 296.806 81.8176 293.824 81.8176C290.841 81.8176 288.424 79.4 288.424 76.4177C288.424 73.4353 290.841 71.0176 293.824 71.0176C296.806 71.0176 299.224 73.4353 299.224 76.4177Z" fill="white"/>
<path d="M288.424 62.4412C288.424 65.4235 286.006 67.8412 283.024 67.8412C280.041 67.8412 277.624 65.4235 277.624 62.4412C277.624 59.4588 280.041 57.0412 283.024 57.0412C286.006 57.0412 288.424 59.4588 288.424 62.4412Z" fill="white"/>
<path d="M275.082 47.8294C275.082 50.8118 272.665 53.2294 269.682 53.2294C266.7 53.2294 264.282 50.8118 264.282 47.8294C264.282 44.8471 266.7 42.4294 269.682 42.4294C272.665 42.4294 275.082 44.8471 275.082 47.8294Z" fill="white"/>
<path d="M261.741 37.0294C261.741 40.0118 259.324 42.4294 256.341 42.4294C253.359 42.4294 250.941 40.0118 250.941 37.0294C250.941 34.0471 253.359 31.6294 256.341 31.6294C259.324 31.6294 261.741 34.0471 261.741 37.0294Z" fill="white"/>
<path d="M246.494 26.2294C246.494 29.2118 244.076 31.6294 241.094 31.6294C238.112 31.6294 235.694 29.2118 235.694 26.2294C235.694 23.2471 238.112 20.8294 241.094 20.8294C244.076 20.8294 246.494 23.2471 246.494 26.2294Z" fill="white"/>
<path d="M230.612 18.6059C230.612 21.5882 228.194 24.0059 225.212 24.0059C222.229 24.0059 219.812 21.5882 219.812 18.6059C219.812 15.6235 222.229 13.2059 225.212 13.2059C228.194 13.2059 230.612 15.6235 230.612 18.6059Z" fill="white"/>
<path d="M212.824 11.6176C212.824 14.6 210.406 17.0176 207.424 17.0176C204.441 17.0176 202.024 14.6 202.024 11.6176C202.024 8.63531 204.441 6.21765 207.424 6.21765C210.406 6.21765 212.824 8.63531 212.824 11.6176Z" fill="white"/>
<path d="M195.671 7.80588C195.671 10.7882 193.253 13.2059 190.271 13.2059C187.288 13.2059 184.871 10.7882 184.871 7.80588C184.871 4.82354 187.288 2.40588 190.271 2.40588C193.253 2.40588 195.671 4.82354 195.671 7.80588Z" fill="white"/>
<path d="M176.612 5.9C176.612 8.88234 174.194 11.3 171.212 11.3C168.229 11.3 165.812 8.88234 165.812 5.9C165.812 2.91766 168.229 0.5 171.212 0.5C174.194 0.5 176.612 2.91766 176.612 5.9Z" fill="white"/>
<path d="M159.459 5.9C159.459 8.88234 157.041 11.3 154.059 11.3C151.076 11.3 148.659 8.88234 148.659 5.9C148.659 2.91766 151.076 0.5 154.059 0.5C157.041 0.5 159.459 2.91766 159.459 5.9Z" fill="white"/>
<path d="M140.4 7.80588C140.4 10.7882 137.982 13.2059 135 13.2059C132.018 13.2059 129.6 10.7882 129.6 7.80588C129.6 4.82354 132.018 2.40588 135 2.40588C137.982 2.40588 140.4 4.82354 140.4 7.80588Z" fill="white"/>
<path d="M122.612 11.6176C122.612 14.6 120.194 17.0176 117.212 17.0176C114.229 17.0176 111.812 14.6 111.812 11.6176C111.812 8.63531 114.229 6.21765 117.212 6.21765C120.194 6.21765 122.612 8.63531 122.612 11.6176Z" fill="white"/>
<path d="M106.094 18.6059C106.094 21.5882 103.676 24.0059 100.694 24.0059C97.7118 24.0059 95.2941 21.5882 95.2941 18.6059C95.2941 15.6235 97.7118 13.2059 100.694 13.2059C103.676 13.2059 106.094 15.6235 106.094 18.6059Z" fill="white"/>
<path d="M88.9412 26.8647C88.9412 29.847 86.5235 32.2647 83.5412 32.2647C80.5588 32.2647 78.1412 29.847 78.1412 26.8647C78.1412 23.8824 80.5588 21.4647 83.5412 21.4647C86.5235 21.4647 88.9412 23.8824 88.9412 26.8647Z" fill="white"/>
<path d="M73.6941 36.3941C73.6941 39.3765 71.2765 41.7941 68.2941 41.7941C65.3118 41.7941 62.8941 39.3765 62.8941 36.3941C62.8941 33.4118 65.3118 30.9941 68.2941 30.9941C71.2765 30.9941 73.6941 33.4118 73.6941 36.3941Z" fill="white"/>
<path d="M59.7176 48.4647C59.7176 51.447 57.3 53.8647 54.3176 53.8647C51.3353 53.8647 48.9176 51.447 48.9176 48.4647C48.9176 45.4824 51.3353 43.0647 54.3176 43.0647C57.3 43.0647 59.7176 45.4824 59.7176 48.4647Z" fill="white"/>
<path d="M47.6471 61.8059C47.6471 64.7882 45.2294 67.2059 42.2471 67.2059C39.2647 67.2059 36.8471 64.7882 36.8471 61.8059C36.8471 58.8235 39.2647 56.4059 42.2471 56.4059C45.2294 56.4059 47.6471 58.8235 47.6471 61.8059Z" fill="white"/>
<path d="M36.8471 76.4177C36.8471 79.4 34.4294 81.8176 31.4471 81.8176C28.4647 81.8176 26.0471 79.4 26.0471 76.4177C26.0471 73.4353 28.4647 71.0176 31.4471 71.0176C34.4294 71.0176 36.8471 73.4353 36.8471 76.4177Z" fill="white"/>
<path d="M27.3176 92.3C27.3176 95.2823 24.9 97.7 21.9176 97.7C18.9353 97.7 16.5176 95.2823 16.5176 92.3C16.5176 89.3177 18.9353 86.9 21.9176 86.9C24.9 86.9 27.3176 89.3177 27.3176 92.3Z" fill="white"/>
<path d="M19.6941 108.818C19.6941 111.8 17.2765 114.218 14.2941 114.218C11.3118 114.218 8.89412 111.8 8.89412 108.818C8.89412 105.835 11.3118 103.418 14.2941 103.418C17.2765 103.418 19.6941 105.835 19.6941 108.818Z" fill="white"/>
<path d="M14.6118 125.971C14.6118 128.953 12.1941 131.371 9.21176 131.371C6.22943 131.371 3.81176 128.953 3.81176 125.971C3.81176 122.988 6.22943 120.571 9.21176 120.571C12.1941 120.571 14.6118 122.988 14.6118 125.971Z" fill="white"/>
<path d="M12.0706 145.029C12.0706 148.012 9.65293 150.429 6.67059 150.429C3.68825 150.429 1.27059 148.012 1.27059 145.029C1.27059 142.047 3.68825 139.629 6.67059 139.629C9.65293 139.629 12.0706 142.047 12.0706 145.029Z" fill="white"/>
<path d="M10.8 163.453C10.8 166.435 8.38234 168.853 5.4 168.853C2.41766 168.853 0 166.435 0 163.453C0 160.471 2.41766 158.053 5.4 158.053C8.38234 158.053 10.8 160.471 10.8 163.453Z" fill="white"/>
<path d="M12.0706 180.606C12.0706 183.588 9.65293 186.006 6.67059 186.006C3.68825 186.006 1.27059 183.588 1.27059 180.606C1.27059 177.624 3.68825 175.206 6.67059 175.206C9.65293 175.206 12.0706 177.624 12.0706 180.606Z" fill="white"/>
<path d="M14.6118 199.029C14.6118 202.012 12.1941 204.429 9.21176 204.429C6.22943 204.429 3.81176 202.012 3.81176 199.029C3.81176 196.047 6.22943 193.629 9.21176 193.629C12.1941 193.629 14.6118 196.047 14.6118 199.029Z" fill="white"/>
<path d="M20.3294 216.182C20.3294 219.165 17.9117 221.582 14.9294 221.582C11.9471 221.582 9.52941 219.165 9.52941 216.182C9.52941 213.2 11.9471 210.782 14.9294 210.782C17.9117 210.782 20.3294 213.2 20.3294 216.182Z" fill="white"/>
<path d="M27.3176 232.7C27.3176 235.682 24.9 238.1 21.9176 238.1C18.9353 238.1 16.5176 235.682 16.5176 232.7C16.5176 229.718 18.9353 227.3 21.9176 227.3C24.9 227.3 27.3176 229.718 27.3176 232.7Z" fill="white"/>
<path d="M36.8471 248.582C36.8471 251.565 34.4294 253.982 31.4471 253.982C28.4647 253.982 26.0471 251.565 26.0471 248.582C26.0471 245.6 28.4647 243.182 31.4471 243.182C34.4294 243.182 36.8471 245.6 36.8471 248.582Z" fill="white"/>
<path d="M47.6471 263.194C47.6471 266.176 45.2294 268.594 42.2471 268.594C39.2647 268.594 36.8471 266.176 36.8471 263.194C36.8471 260.212 39.2647 257.794 42.2471 257.794C45.2294 257.794 47.6471 260.212 47.6471 263.194Z" fill="white"/>
<path d="M60.3529 277.171C60.3529 280.153 57.9353 282.571 54.9529 282.571C51.9706 282.571 49.5529 280.153 49.5529 277.171C49.5529 274.188 51.9706 271.771 54.9529 271.771C57.9353 271.771 60.3529 274.188 60.3529 277.171Z" fill="white"/>
<path d="M73.6941 287.971C73.6941 290.953 71.2765 293.371 68.2941 293.371C65.3118 293.371 62.8941 290.953 62.8941 287.971C62.8941 284.988 65.3118 282.571 68.2941 282.571C71.2765 282.571 73.6941 284.988 73.6941 287.971Z" fill="white"/>
<path d="M88.9412 298.771C88.9412 301.753 86.5235 304.171 83.5412 304.171C80.5588 304.171 78.1412 301.753 78.1412 298.771C78.1412 295.788 80.5588 293.371 83.5412 293.371C86.5235 293.371 88.9412 295.788 88.9412 298.771Z" fill="white"/>
<path d="M106.094 306.394C106.094 309.376 103.676 311.794 100.694 311.794C97.7118 311.794 95.2941 309.376 95.2941 306.394C95.2941 303.412 97.7118 300.994 100.694 300.994C103.676 300.994 106.094 303.412 106.094 306.394Z" fill="white"/>
<path d="M90.8471 146.3C90.8471 147.879 89.5671 149.159 87.9882 149.159C86.4094 149.159 85.1294 147.879 85.1294 146.3C85.1294 144.721 86.4094 143.441 87.9882 143.441C89.5671 143.441 90.8471 144.721 90.8471 146.3Z" fill="white"/>
<path d="M94.6588 137.406C94.6588 138.985 93.3789 140.265 91.8 140.265C90.2211 140.265 88.9412 138.985 88.9412 137.406C88.9412 135.827 90.2211 134.547 91.8 134.547C93.3789 134.547 94.6588 135.827 94.6588 137.406Z" fill="white"/>
<path d="M100.376 129.147C100.376 130.726 99.0965 132.006 97.5176 132.006C95.9388 132.006 94.6588 130.726 94.6588 129.147C94.6588 127.568 95.9388 126.288 97.5176 126.288C99.0965 126.288 100.376 127.568 100.376 129.147Z" fill="white"/>
<path d="M106.094 121.524C106.094 123.102 104.814 124.382 103.235 124.382C101.656 124.382 100.376 123.102 100.376 121.524C100.376 119.945 101.656 118.665 103.235 118.665C104.814 118.665 106.094 119.945 106.094 121.524Z" fill="white"/>
<path d="M113.082 115.171C113.082 116.749 111.802 118.029 110.224 118.029C108.645 118.029 107.365 116.749 107.365 115.171C107.365 113.592 108.645 112.312 110.224 112.312C111.802 112.312 113.082 113.592 113.082 115.171Z" fill="white"/>
<path d="M120.706 109.453C120.706 111.032 119.426 112.312 117.847 112.312C116.268 112.312 114.988 111.032 114.988 109.453C114.988 107.874 116.268 106.594 117.847 106.594C119.426 106.594 120.706 107.874 120.706 109.453Z" fill="white"/>
<path d="M129.6 104.371C129.6 105.949 128.32 107.229 126.741 107.229C125.162 107.229 123.882 105.949 123.882 104.371C123.882 102.792 125.162 101.512 126.741 101.512C128.32 101.512 129.6 102.792 129.6 104.371Z" fill="white"/>
<path d="M138.494 101.194C138.494 102.773 137.214 104.053 135.635 104.053C134.056 104.053 132.776 102.773 132.776 101.194C132.776 99.6152 134.056 98.3353 135.635 98.3353C137.214 98.3353 138.494 99.6152 138.494 101.194Z" fill="white"/>
<path d="M147.388 98.6529C147.388 100.232 146.108 101.512 144.529 101.512C142.951 101.512 141.671 100.232 141.671 98.6529C141.671 97.0741 142.951 95.7941 144.529 95.7941C146.108 95.7941 147.388 97.0741 147.388 98.6529Z" fill="white"/>
<path d="M157.553 97.3824C157.553 98.9612 156.273 100.241 154.694 100.241C153.115 100.241 151.835 98.9612 151.835 97.3824C151.835 95.8035 153.115 94.5235 154.694 94.5235C156.273 94.5235 157.553 95.8035 157.553 97.3824Z" fill="white"/>
<path d="M167.082 96.7471C167.082 98.3259 165.802 99.6059 164.224 99.6059C162.645 99.6059 161.365 98.3259 161.365 96.7471C161.365 95.1682 162.645 93.8882 164.224 93.8882C165.802 93.8882 167.082 95.1682 167.082 96.7471Z" fill="white"/>
<path d="M176.612 98.0176C176.612 99.5965 175.332 100.876 173.753 100.876C172.174 100.876 170.894 99.5965 170.894 98.0176C170.894 96.4388 172.174 95.1588 173.753 95.1588C175.332 95.1588 176.612 96.4388 176.612 98.0176Z" fill="white"/>
<path d="M186.141 99.9235C186.141 101.502 184.861 102.782 183.282 102.782C181.703 102.782 180.424 101.502 180.424 99.9235C180.424 98.3446 181.703 97.0647 183.282 97.0647C184.861 97.0647 186.141 98.3446 186.141 99.9235Z" fill="white"/>
<path d="M195.671 103.1C195.671 104.679 194.391 105.959 192.812 105.959C191.233 105.959 189.953 104.679 189.953 103.1C189.953 101.521 191.233 100.241 192.812 100.241C194.391 100.241 195.671 101.521 195.671 103.1Z" fill="white"/>
<path d="M204.565 108.182C204.565 109.761 203.285 111.041 201.706 111.041C200.127 111.041 198.847 109.761 198.847 108.182C198.847 106.603 200.127 105.324 201.706 105.324C203.285 105.324 204.565 106.603 204.565 108.182Z" fill="white"/>
<path d="M212.824 113.265C212.824 114.844 211.544 116.124 209.965 116.124C208.386 116.124 207.106 114.844 207.106 113.265C207.106 111.686 208.386 110.406 209.965 110.406C211.544 110.406 212.824 111.686 212.824 113.265Z" fill="white"/>
<path d="M221.082 119.618C221.082 121.197 219.802 122.476 218.224 122.476C216.645 122.476 215.365 121.197 215.365 119.618C215.365 118.039 216.645 116.759 218.224 116.759C219.802 116.759 221.082 118.039 221.082 119.618Z" fill="white"/>
<path d="M228.071 126.606C228.071 128.185 226.791 129.465 225.212 129.465C223.633 129.465 222.353 128.185 222.353 126.606C222.353 125.027 223.633 123.747 225.212 123.747C226.791 123.747 228.071 125.027 228.071 126.606Z" fill="white"/>
<path d="M234.424 134.865C234.424 136.444 233.144 137.724 231.565 137.724C229.986 137.724 228.706 136.444 228.706 134.865C228.706 133.286 229.986 132.006 231.565 132.006C233.144 132.006 234.424 133.286 234.424 134.865Z" fill="white"/>
<path d="M240.141 143.759C240.141 145.338 238.861 146.618 237.282 146.618C235.703 146.618 234.424 145.338 234.424 143.759C234.424 142.18 235.703 140.9 237.282 140.9C238.861 140.9 240.141 142.18 240.141 143.759Z" fill="white"/>
<path d="M244.588 152.653C244.588 154.232 243.308 155.512 241.729 155.512C240.151 155.512 238.871 154.232 238.871 152.653C238.871 151.074 240.151 149.794 241.729 149.794C243.308 149.794 244.588 151.074 244.588 152.653Z" fill="white"/>
<path d="M247.765 162.182C247.765 163.761 246.485 165.041 244.906 165.041C243.327 165.041 242.047 163.761 242.047 162.182C242.047 160.603 243.327 159.324 244.906 159.324C246.485 159.324 247.765 160.603 247.765 162.182Z" fill="white"/>
<path d="M250.306 172.347C250.306 173.926 249.026 175.206 247.447 175.206C245.868 175.206 244.588 173.926 244.588 172.347C244.588 170.768 245.868 169.488 247.447 169.488C249.026 169.488 250.306 170.768 250.306 172.347Z" fill="white"/>
<path d="M251.576 182.512C251.576 184.091 250.297 185.371 248.718 185.371C247.139 185.371 245.859 184.091 245.859 182.512C245.859 180.933 247.139 179.653 248.718 179.653C250.297 179.653 251.576 180.933 251.576 182.512Z" fill="white"/>
<path d="M251.576 192.676C251.576 194.255 250.297 195.535 248.718 195.535C247.139 195.535 245.859 194.255 245.859 192.676C245.859 191.098 247.139 189.818 248.718 189.818C250.297 189.818 251.576 191.098 251.576 192.676Z" fill="white"/>
<path d="M250.941 202.841C250.941 204.42 249.661 205.7 248.082 205.7C246.503 205.7 245.224 204.42 245.224 202.841C245.224 201.262 246.503 199.982 248.082 199.982C249.661 199.982 250.941 201.262 250.941 202.841Z" fill="white"/>
<path d="M248.4 212.371C248.4 213.949 247.12 215.229 245.541 215.229C243.962 215.229 242.682 213.949 242.682 212.371C242.682 210.792 243.962 209.512 245.541 209.512C247.12 209.512 248.4 210.792 248.4 212.371Z" fill="white"/>
<path d="M245.224 221.9C245.224 223.479 243.944 224.759 242.365 224.759C240.786 224.759 239.506 223.479 239.506 221.9C239.506 220.321 240.786 219.041 242.365 219.041C243.944 219.041 245.224 220.321 245.224 221.9Z" fill="white"/>
<path d="M240.776 230.794C240.776 232.373 239.497 233.653 237.918 233.653C236.339 233.653 235.059 232.373 235.059 230.794C235.059 229.215 236.339 227.935 237.918 227.935C239.497 227.935 240.776 229.215 240.776 230.794Z" fill="white"/>
<path d="M235.694 239.053C235.694 240.632 234.414 241.912 232.835 241.912C231.256 241.912 229.976 240.632 229.976 239.053C229.976 237.474 231.256 236.194 232.835 236.194C234.414 236.194 235.694 237.474 235.694 239.053Z" fill="white"/>
<path d="M229.976 246.676C229.976 248.255 228.697 249.535 227.118 249.535C225.539 249.535 224.259 248.255 224.259 246.676C224.259 245.098 225.539 243.818 227.118 243.818C228.697 243.818 229.976 245.098 229.976 246.676Z" fill="white"/>
<path d="M222.988 253.029C222.988 254.608 221.708 255.888 220.129 255.888C218.551 255.888 217.271 254.608 217.271 253.029C217.271 251.451 218.551 250.171 220.129 250.171C221.708 250.171 222.988 251.451 222.988 253.029Z" fill="white"/>
<path d="M215.365 258.747C215.365 260.326 214.085 261.606 212.506 261.606C210.927 261.606 209.647 260.326 209.647 258.747C209.647 257.168 210.927 255.888 212.506 255.888C214.085 255.888 215.365 257.168 215.365 258.747Z" fill="white"/>
<path d="M206.471 263.829C206.471 265.408 205.191 266.688 203.612 266.688C202.033 266.688 200.753 265.408 200.753 263.829C200.753 262.251 202.033 260.971 203.612 260.971C205.191 260.971 206.471 262.251 206.471 263.829Z" fill="white"/>
<path d="M197.576 267.006C197.576 268.585 196.297 269.865 194.718 269.865C193.139 269.865 191.859 268.585 191.859 267.006C191.859 265.427 193.139 264.147 194.718 264.147C196.297 264.147 197.576 265.427 197.576 267.006Z" fill="white"/>
<path d="M188.682 269.547C188.682 271.126 187.402 272.406 185.824 272.406C184.245 272.406 182.965 271.126 182.965 269.547C182.965 267.968 184.245 266.688 185.824 266.688C187.402 266.688 188.682 267.968 188.682 269.547Z" fill="white"/>
<path d="M168.988 271.453C168.988 273.032 167.708 274.312 166.129 274.312C164.551 274.312 163.271 273.032 163.271 271.453C163.271 269.874 164.551 268.594 166.129 268.594C167.708 268.594 168.988 269.874 168.988 271.453Z" fill="white"/>
<path d="M159.459 270.182C159.459 271.761 158.179 273.041 156.6 273.041C155.021 273.041 153.741 271.761 153.741 270.182C153.741 268.603 155.021 267.324 156.6 267.324C158.179 267.324 159.459 268.603 159.459 270.182Z" fill="white"/>
<path d="M149.929 268.276C149.929 269.855 148.649 271.135 147.071 271.135C145.492 271.135 144.212 269.855 144.212 268.276C144.212 266.698 145.492 265.418 147.071 265.418C148.649 265.418 149.929 266.698 149.929 268.276Z" fill="white"/>
<path d="M140.4 264.465C140.4 266.044 139.12 267.324 137.541 267.324C135.962 267.324 134.682 266.044 134.682 264.465C134.682 262.886 135.962 261.606 137.541 261.606C139.12 261.606 140.4 262.886 140.4 264.465Z" fill="white"/>
<path d="M131.506 260.018C131.506 261.597 130.226 262.876 128.647 262.876C127.068 262.876 125.788 261.597 125.788 260.018C125.788 258.439 127.068 257.159 128.647 257.159C130.226 257.159 131.506 258.439 131.506 260.018Z" fill="white"/>
<path d="M122.612 254.935C122.612 256.514 121.332 257.794 119.753 257.794C118.174 257.794 116.894 256.514 116.894 254.935C116.894 253.356 118.174 252.076 119.753 252.076C121.332 252.076 122.612 253.356 122.612 254.935Z" fill="white"/>
<path d="M114.988 248.582C114.988 250.161 113.708 251.441 112.129 251.441C110.551 251.441 109.271 250.161 109.271 248.582C109.271 247.003 110.551 245.724 112.129 245.724C113.708 245.724 114.988 247.003 114.988 248.582Z" fill="white"/>
<path d="M108 240.959C108 242.538 106.72 243.818 105.141 243.818C103.562 243.818 102.282 242.538 102.282 240.959C102.282 239.38 103.562 238.1 105.141 238.1C106.72 238.1 108 239.38 108 240.959Z" fill="white"/>
<path d="M101.647 233.335C101.647 234.914 100.367 236.194 98.7882 236.194C97.2094 236.194 95.9294 234.914 95.9294 233.335C95.9294 231.756 97.2094 230.476 98.7882 230.476C100.367 230.476 101.647 231.756 101.647 233.335Z" fill="white"/>
<path d="M95.9294 224.441C95.9294 226.02 94.6495 227.3 93.0706 227.3C91.4917 227.3 90.2118 226.02 90.2118 224.441C90.2118 222.862 91.4917 221.582 93.0706 221.582C94.6495 221.582 95.9294 222.862 95.9294 224.441Z" fill="white"/>
<path d="M91.4824 214.912C91.4824 216.491 90.2024 217.771 88.6235 217.771C87.0446 217.771 85.7647 216.491 85.7647 214.912C85.7647 213.333 87.0446 212.053 88.6235 212.053C90.2024 212.053 91.4824 213.333 91.4824 214.912Z" fill="white"/>
<path d="M88.3059 205.382C88.3059 206.961 87.0259 208.241 85.4471 208.241C83.8682 208.241 82.5882 206.961 82.5882 205.382C82.5882 203.803 83.8682 202.524 85.4471 202.524C87.0259 202.524 88.3059 203.803 88.3059 205.382Z" fill="white"/>
<path d="M85.7647 195.218C85.7647 196.797 84.4848 198.076 82.9059 198.076C81.327 198.076 80.0471 196.797 80.0471 195.218C80.0471 193.639 81.327 192.359 82.9059 192.359C84.4848 192.359 85.7647 193.639 85.7647 195.218Z" fill="white"/>
<path d="M84.4941 185.688C84.4941 187.267 83.2142 188.547 81.6353 188.547C80.0564 188.547 78.7765 187.267 78.7765 185.688C78.7765 184.109 80.0564 182.829 81.6353 182.829C83.2142 182.829 84.4941 184.109 84.4941 185.688Z" fill="white"/>
<path d="M84.4941 175.524C84.4941 177.102 83.2142 178.382 81.6353 178.382C80.0564 178.382 78.7765 177.102 78.7765 175.524C78.7765 173.945 80.0564 172.665 81.6353 172.665C83.2142 172.665 84.4941 173.945 84.4941 175.524Z" fill="white"/>
<path d="M85.1294 165.359C85.1294 166.938 83.8495 168.218 82.2706 168.218C80.6917 168.218 79.4118 166.938 79.4118 165.359C79.4118 163.78 80.6917 162.5 82.2706 162.5C83.8495 162.5 85.1294 163.78 85.1294 165.359Z" fill="white"/>
<path d="M87.6706 155.194C87.6706 156.773 86.3907 158.053 84.8118 158.053C83.2329 158.053 81.9529 156.773 81.9529 155.194C81.9529 153.615 83.2329 152.335 84.8118 152.335C86.3907 152.335 87.6706 153.615 87.6706 155.194Z" fill="white"/>
<path d="M179.153 270.818C179.153 272.397 177.873 273.676 176.294 273.676C174.715 273.676 173.435 272.397 173.435 270.818C173.435 269.239 174.715 267.959 176.294 267.959C177.873 267.959 179.153 269.239 179.153 270.818Z" fill="white"/>
</svg>
