<svg width="132" height="132" viewBox="0 0 132 132" fill="none" xmlns="http://www.w3.org/2000/svg">
<path d="M52.7614 25.3438C57.0804 25.3438 61.2805 26.1733 65.1764 27.7944C65.4378 27.899 65.6993 28.0107 65.9727 28.1343L66.0155 28.1581L66.1604 28.0892L66.7547 27.8301C70.7385 26.1804 74.9505 25.3438 79.2553 25.3438H79.5334C83.9047 25.3913 88.1309 26.2732 92.0815 27.9656C96.0225 29.6556 99.5761 32.1015 102.576 35.1773C105.048 37.6613 107.095 40.5279 108.666 43.7012C110.246 46.9054 111.29 50.3353 111.763 53.8794C112.671 60.6158 111.428 67.6089 108.226 73.6892L108.031 74.0482C105.519 78.6928 103.006 82.0705 97.5486 87.925C94.7604 90.9176 91.6917 93.877 88.661 96.4941C85.8086 98.9542 82.9824 101.127 80.4271 102.669C78.2546 103.989 75.9061 105.001 73.4721 105.669C71.1093 106.323 68.5398 106.665 66.0155 106.665C63.503 106.665 60.9335 106.325 58.5612 105.672C56.1414 105.006 53.831 104.015 51.6442 102.7L51.542 102.636C49.0557 101.143 46.2603 98.9899 43.377 96.5012C40.3582 93.8913 37.2872 90.9367 34.4918 87.9464C29.0366 82.1109 26.5289 78.7427 24.026 74.1171L23.9642 74.003C20.6435 67.9108 19.329 60.7703 20.2608 53.8723C20.7386 50.3235 21.7773 46.9054 23.3533 43.7107C24.9197 40.5398 27.0043 37.6328 29.4883 35.1369C32.4643 32.0754 35.987 29.6604 39.9375 27.9703C43.9142 26.2636 48.1334 25.3794 52.5284 25.3438H52.7614ZM52.5617 32.8788C49.1959 32.9073 45.9632 33.5824 42.904 34.8945C39.8638 36.1971 37.1707 38.044 34.8603 40.421C32.9183 42.3701 31.3138 44.6116 30.111 47.0456C28.8964 49.5058 28.0954 52.1371 27.7269 54.8778C27.0115 60.1903 28.0264 65.7121 30.5888 70.4138L30.6554 70.5397C32.8279 74.5521 34.9553 77.4092 39.9969 82.8002C42.6093 85.5956 45.4878 88.3671 48.3021 90.7988C50.8859 93.0284 53.3865 94.9561 55.4379 96.1874L55.5448 96.2516C57.1279 97.2048 58.8037 97.925 60.5579 98.4075C62.2765 98.8782 64.1733 99.1325 66.0155 99.1325C67.8671 99.1325 69.7592 98.8782 71.4706 98.4052C73.2391 97.9202 74.941 97.1858 76.5241 96.2255C78.6468 94.9419 81.1806 92.9951 83.7383 90.7917C86.5574 88.3529 89.4311 85.5837 92.0363 82.7883C97.0827 77.3759 99.2172 74.5045 101.406 70.4589L101.58 70.138C104.033 65.4815 104.993 60.0667 104.294 54.8801C103.931 52.1442 103.127 49.5058 101.91 47.0408C100.703 44.5973 99.1293 42.3986 97.2087 40.4661C94.8697 38.0678 92.1409 36.1899 89.1126 34.8921C86.0796 33.5919 82.835 32.9145 79.493 32.8788H79.2553C75.9394 32.8788 72.7067 33.5206 69.6546 34.7851C69.1222 35.0086 68.5137 35.3033 67.7982 35.686C66.6881 36.2803 65.3547 36.2803 64.2446 35.686C63.4388 35.2558 62.8778 34.9919 62.3145 34.7637C59.31 33.5158 56.0915 32.8788 52.7614 32.8788H52.5617Z" fill="black"/>
<path d="M52.9808 34.9701C56.0423 34.9701 59.035 35.5619 61.7923 36.7076C62.7264 37.0856 63.9886 37.7559 65.6216 38.7328L66.0043 38.9634L66.3537 38.7566C67.7846 37.9009 68.9327 37.2757 69.8312 36.8693L70.1569 36.7267C72.9736 35.5619 75.9567 34.9701 79.0135 34.9701H79.2346C82.3199 35.0033 85.3102 35.6285 88.1079 36.8289C90.9008 38.0245 93.4371 39.7787 95.5835 41.9798C97.3472 43.753 98.8067 45.7901 99.9239 48.0458C101.046 50.323 101.787 52.7618 102.125 55.2814C102.772 60.0829 101.897 65.0437 99.6291 69.3484L99.4532 69.674C97.352 73.5557 95.2697 76.3296 90.4706 81.4758C87.9462 84.1832 85.1747 86.8596 82.4316 89.2271C79.9738 91.345 77.6111 93.1706 75.5479 94.4185C74.1169 95.2884 72.5648 95.9564 70.9627 96.3961C69.3962 96.8311 67.6896 97.0569 66.0043 97.0569C64.3214 97.0569 62.6171 96.8311 61.0411 96.3985C59.4533 95.9611 57.9392 95.3146 56.5177 94.4589L56.3917 94.3828C54.5591 93.2823 52.1702 91.4663 49.5864 89.2343C46.8529 86.8763 44.0742 84.1998 41.538 81.4877C36.7912 76.408 34.64 73.5438 32.5863 69.7525L32.5079 69.6075C30.1451 65.2719 29.2134 60.1946 29.8742 55.2814C30.2164 52.7523 30.9533 50.3206 32.0752 48.0506C33.19 45.7972 34.6899 43.715 36.4679 41.9275C38.5882 39.7454 41.0912 38.0269 43.8864 36.8313C46.7079 35.6214 49.6839 34.9962 52.7859 34.9701H52.9808ZM52.8168 42.5051C50.7464 42.5217 48.7592 42.9401 46.8553 43.7554C44.9727 44.5635 43.2969 45.7116 41.8399 47.2115C40.5991 48.4594 39.577 49.8761 38.8306 51.3879C38.0748 52.9187 37.5732 54.5635 37.3426 56.2868C36.8934 59.6146 37.5304 63.0755 39.123 65.9992L39.2062 66.1513C40.9319 69.3413 42.7051 71.7016 47.0431 76.3415C49.3963 78.8587 51.9824 81.3498 54.5092 83.5319C56.7958 85.5071 58.8709 87.0807 60.2829 87.9317L60.4089 88.0077C61.2313 88.5021 62.1108 88.8777 63.0378 89.1321C63.9553 89.384 64.9893 89.5219 66.0043 89.5219C67.0169 89.5219 68.0461 89.384 68.9613 89.1321C69.9002 88.873 70.8034 88.4855 71.6425 87.9745C73.2707 86.9904 75.3506 85.3835 77.5089 83.5224C80.0404 81.3355 82.6194 78.8492 84.9584 76.3367C89.351 71.6279 91.0577 69.3531 92.8214 66.0967L92.9759 65.8091C94.4972 62.9186 95.0938 59.5386 94.6565 56.2845C94.4259 54.5707 93.9244 52.9187 93.1685 51.3855C92.415 49.8642 91.4333 48.4903 90.2163 47.2662C88.7283 45.7425 87.0145 44.5564 85.1414 43.753C83.2588 42.9472 81.2503 42.5265 79.1942 42.5051H79.0135C76.9456 42.5051 74.9418 42.902 73.0592 43.6817C72.2177 44.0359 70.4778 45.0271 68.02 46.5816C66.7887 47.3613 65.2175 47.3589 63.9886 46.5792C61.5094 45.008 59.7647 44.0168 58.9351 43.6793C57.0644 42.902 55.0535 42.5051 52.9808 42.5051H52.8168Z" fill="black"/>
<path d="M53.4935 44.478C55.3238 44.478 57.0994 44.8298 58.7585 45.5191C59.8472 45.9588 62.98 47.8794 65.9846 49.8666L66.025 49.8927L66.0654 49.8666C68.8797 48.0102 71.801 46.2108 73.0751 45.6118L73.2938 45.5143C74.9553 44.8274 76.7285 44.478 78.5469 44.478H78.6681C80.5079 44.497 82.2907 44.8678 83.9498 45.5785C85.6208 46.294 87.1326 47.3494 88.4423 48.6924C89.5096 49.7644 90.3891 50.9885 91.0522 52.3268C91.7202 53.684 92.1623 55.1435 92.3643 56.6553C92.7518 59.5314 92.2336 62.5098 90.8882 65.0651L90.7718 65.2814L90.7028 65.4121C89.0556 68.4523 87.4678 70.5321 83.3579 74.9414C81.1236 77.3374 78.6824 79.6907 76.2864 81.7586C74.1923 83.5675 72.2289 85.0674 70.8098 85.9207C70.0991 86.3534 69.3313 86.6838 68.5398 86.9001C67.753 87.1187 66.8807 87.2305 66.0273 87.2305C65.1716 87.2305 64.2945 87.1187 63.5006 86.9024C62.7257 86.6885 61.9793 86.37 61.271 85.9445L61.1712 85.8851C59.8234 85.0722 57.8505 83.5604 55.7801 81.7729C53.3818 79.7025 50.9335 77.3422 48.6896 74.9438C44.6677 70.6415 42.9563 68.3928 41.3281 65.3836L41.252 65.2433C39.8377 62.6477 39.2839 59.6099 39.6808 56.6553C39.8852 55.1411 40.325 53.6864 40.9929 52.3339C41.6608 50.9814 42.5641 49.7359 43.667 48.6282C44.9411 47.3185 46.4338 46.2892 48.093 45.5809C49.7545 44.8678 51.523 44.4922 53.3366 44.478H53.4935ZM78.5897 52.013H78.6301H78.5469C77.7126 52.013 76.9187 52.1699 76.1913 52.4694C75.7064 52.6738 72.7209 54.5017 70.2132 56.1561L68.0953 57.5538C66.8355 58.3833 65.2025 58.3833 63.9427 57.5514L61.8272 56.1514C59.3551 54.516 56.3411 52.6691 55.899 52.4908C55.1312 52.1699 54.3349 52.013 53.4935 52.013H53.3675C52.5902 52.0202 51.8082 52.1842 51.0595 52.5051C50.3178 52.8236 49.6499 53.2847 49.0366 53.9122C48.4709 54.4827 48.0478 55.0651 47.7507 55.6688C47.4464 56.2821 47.2444 56.9524 47.1469 57.6631C46.9639 59.0323 47.223 60.4537 47.8719 61.647L47.9551 61.7967C49.2387 64.1713 50.5769 65.9279 54.1947 69.7976C56.2555 72.0035 58.5113 74.176 60.7053 76.0681C62.4809 77.6013 64.1495 78.8825 65.0789 79.4411L65.174 79.5005C65.2643 79.5552 65.3808 79.6027 65.4996 79.636C65.6209 79.6693 65.83 79.6954 66.0273 79.6954C66.2175 79.6954 66.4148 79.6716 66.5384 79.636C66.6667 79.6027 66.7832 79.5504 66.9044 79.4767C67.9075 78.873 69.5643 77.6084 71.3637 76.0562C73.5505 74.1665 75.7967 72.0011 77.8457 69.8048C81.5562 65.8233 82.7756 64.226 84.0449 61.8823L84.1091 61.7587L84.2374 61.5257C84.8341 60.3919 85.0765 58.9942 84.8982 57.6584C84.8032 56.9524 84.5987 56.2797 84.2969 55.6665C83.9974 55.0627 83.5956 54.5041 83.0751 53.9788C82.4167 53.3061 81.7226 52.8212 80.9833 52.5051C80.2441 52.1889 79.443 52.0225 78.5897 52.013Z" fill="black"/>
</svg>
