<svg width="475" height="46" viewBox="0 0 475 46" fill="none" xmlns="http://www.w3.org/2000/svg">
<path d="M0.507812 8.80859H474.325" stroke="black" stroke-width="0.490352"/>
<path d="M106.281 28.7746V34.4805H105.623V28.7746H106.281ZM109.279 34.5696C108.867 34.5696 108.511 34.4786 108.212 34.2966C107.915 34.1127 107.686 33.8564 107.524 33.5276C107.364 33.197 107.284 32.8125 107.284 32.3742C107.284 31.9358 107.364 31.5495 107.524 31.2152C107.686 30.879 107.91 30.6171 108.198 30.4295C108.488 30.24 108.826 30.1453 109.212 30.1453C109.435 30.1453 109.655 30.1825 109.873 30.2568C110.09 30.3311 110.288 30.4518 110.466 30.6189C110.645 30.7843 110.787 31.0034 110.892 31.2765C110.998 31.5495 111.051 31.8857 111.051 32.285V32.5636H107.753V31.9953H110.383C110.383 31.7538 110.334 31.5384 110.238 31.3489C110.143 31.1594 110.007 31.0099 109.831 30.9003C109.656 30.7908 109.45 30.736 109.212 30.736C108.951 30.736 108.724 30.801 108.533 30.931C108.343 31.0591 108.197 31.2263 108.095 31.4325C107.993 31.6387 107.942 31.8597 107.942 32.0956V32.4745C107.942 32.7977 107.998 33.0716 108.109 33.2964C108.222 33.5193 108.379 33.6892 108.58 33.8062C108.781 33.9214 109.014 33.979 109.279 33.979C109.452 33.979 109.608 33.9548 109.747 33.9065C109.889 33.8564 110.01 33.7821 110.112 33.6836C110.215 33.5833 110.293 33.4589 110.349 33.3103L110.984 33.4886C110.918 33.7041 110.805 33.8935 110.647 34.057C110.489 34.2186 110.294 34.3449 110.062 34.4359C109.83 34.525 109.569 34.5696 109.279 34.5696ZM113.913 30.201V30.7583H111.695V30.201H113.913ZM112.341 29.1758H112.999V33.2546C112.999 33.4403 113.026 33.5796 113.08 33.6725C113.135 33.7635 113.206 33.8248 113.291 33.8564C113.379 33.8861 113.471 33.901 113.567 33.901C113.64 33.901 113.699 33.8972 113.745 33.8898C113.792 33.8805 113.829 33.8731 113.857 33.8675L113.991 34.4582C113.946 34.4749 113.884 34.4916 113.804 34.5083C113.724 34.5269 113.623 34.5362 113.5 34.5362C113.315 34.5362 113.132 34.4963 112.954 34.4164C112.778 34.3365 112.631 34.2149 112.514 34.0514C112.399 33.888 112.341 33.6818 112.341 33.4329V29.1758ZM117.856 31.1594L117.266 31.3266C117.229 31.2282 117.174 31.1325 117.101 31.0396C117.031 30.9449 116.934 30.8669 116.812 30.8056C116.689 30.7443 116.532 30.7137 116.341 30.7137C116.079 30.7137 115.861 30.774 115.686 30.8948C115.513 31.0136 115.427 31.165 115.427 31.3489C115.427 31.5124 115.486 31.6414 115.605 31.7362C115.724 31.8309 115.91 31.9098 116.162 31.973L116.798 32.129C117.18 32.2219 117.465 32.364 117.653 32.5553C117.841 32.7447 117.934 32.989 117.934 33.288C117.934 33.5332 117.864 33.7524 117.723 33.9455C117.583 34.1387 117.388 34.291 117.137 34.4025C116.887 34.5139 116.595 34.5696 116.263 34.5696C115.826 34.5696 115.465 34.4749 115.179 34.2854C114.893 34.096 114.712 33.8192 114.636 33.4552L115.26 33.2992C115.319 33.5295 115.431 33.7022 115.597 33.8174C115.764 33.9325 115.982 33.9901 116.252 33.9901C116.558 33.9901 116.801 33.9251 116.981 33.7951C117.164 33.6632 117.255 33.5053 117.255 33.3215C117.255 33.1729 117.203 33.0484 117.098 32.9481C116.994 32.846 116.835 32.7698 116.619 32.7197L115.906 32.5525C115.514 32.4596 115.226 32.3157 115.042 32.1206C114.86 31.9238 114.769 31.6777 114.769 31.3823C114.769 31.1409 114.837 30.9273 114.973 30.7415C115.11 30.5558 115.297 30.41 115.533 30.3041C115.77 30.1982 116.04 30.1453 116.341 30.1453C116.764 30.1453 117.097 30.2382 117.338 30.4239C117.581 30.6097 117.754 30.8548 117.856 31.1594ZM120.785 30.201V30.7583H118.567V30.201H120.785ZM119.214 29.1758H119.871V33.2546C119.871 33.4403 119.898 33.5796 119.952 33.6725C120.008 33.7635 120.078 33.8248 120.164 33.8564C120.251 33.8861 120.343 33.901 120.44 33.901C120.512 33.901 120.572 33.8972 120.618 33.8898C120.664 33.8805 120.702 33.8731 120.729 33.8675L120.863 34.4582C120.819 34.4749 120.756 34.4916 120.677 34.5083C120.597 34.5269 120.495 34.5362 120.373 34.5362C120.187 34.5362 120.005 34.4963 119.827 34.4164C119.65 34.3365 119.504 34.2149 119.387 34.0514C119.271 33.888 119.214 33.6818 119.214 33.4329V29.1758ZM123.034 34.5808C122.762 34.5808 122.516 34.5297 122.295 34.4275C122.074 34.3235 121.899 34.174 121.769 33.979C121.639 33.7821 121.574 33.5443 121.574 33.2657C121.574 33.0206 121.622 32.8218 121.719 32.6695C121.815 32.5153 121.944 32.3946 122.106 32.3073C122.267 32.22 122.446 32.155 122.641 32.1123C122.838 32.0677 123.035 32.0324 123.234 32.0064C123.494 31.973 123.705 31.9479 123.867 31.9312C124.03 31.9126 124.149 31.882 124.223 31.8393C124.299 31.7965 124.337 31.7222 124.337 31.6164V31.5941C124.337 31.3192 124.262 31.1056 124.112 30.9533C123.963 30.801 123.738 30.7248 123.435 30.7248C123.121 30.7248 122.875 30.7935 122.696 30.931C122.518 31.0684 122.393 31.2152 122.32 31.3712L121.696 31.1483C121.808 30.8883 121.956 30.6858 122.142 30.5409C122.33 30.3942 122.534 30.292 122.755 30.2345C122.978 30.175 123.197 30.1453 123.412 30.1453C123.55 30.1453 123.708 30.162 123.886 30.1955C124.066 30.227 124.24 30.293 124.407 30.3933C124.576 30.4936 124.716 30.645 124.828 30.8474C124.939 31.0499 124.995 31.321 124.995 31.6609V34.4805H124.337V33.901H124.304C124.259 33.9938 124.185 34.0932 124.081 34.1991C123.977 34.3049 123.839 34.395 123.666 34.4693C123.493 34.5436 123.282 34.5808 123.034 34.5808ZM123.134 33.9901C123.394 33.9901 123.613 33.939 123.791 33.8369C123.972 33.7347 124.107 33.6029 124.198 33.4413C124.291 33.2797 124.337 33.1097 124.337 32.9314V32.3296C124.31 32.363 124.248 32.3937 124.154 32.4215C124.061 32.4476 123.953 32.4708 123.83 32.4912C123.71 32.5098 123.592 32.5265 123.477 32.5413C123.363 32.5544 123.271 32.5655 123.201 32.5748C123.03 32.5971 122.87 32.6333 122.722 32.6834C122.575 32.7317 122.456 32.8051 122.365 32.9035C122.276 33.0001 122.231 33.132 122.231 33.2992C122.231 33.5276 122.316 33.7004 122.485 33.8174C122.656 33.9325 122.872 33.9901 123.134 33.9901ZM126.853 28.7746V34.4805H126.195V28.7746H126.853ZM128.67 32.9203L128.659 32.1067H128.792L130.665 30.201H131.478L129.483 32.2182H129.428L128.67 32.9203ZM128.057 34.4805V28.7746H128.714V34.4805H128.057ZM130.776 34.4805L129.104 32.363L129.573 31.9061L131.612 34.4805H130.776ZM135.612 35.985C135.044 35.985 134.541 35.9069 134.105 35.7509C133.668 35.5968 133.301 35.3692 133.004 35.0683C132.707 34.7674 132.482 34.3987 132.33 33.9623C132.178 33.5258 132.102 33.0261 132.102 32.4633C132.102 31.9191 132.179 31.4325 132.333 31.0034C132.489 30.5744 132.715 30.2103 133.01 29.9113C133.307 29.6104 133.667 29.381 134.091 29.2231C134.516 29.0652 134.997 28.9863 135.534 28.9863C136.056 28.9863 136.513 29.0717 136.905 29.2426C137.299 29.4116 137.627 29.641 137.891 29.9308C138.157 30.2187 138.355 30.5428 138.487 30.9031C138.621 31.2635 138.688 31.6349 138.688 32.0176C138.688 32.2869 138.675 32.5599 138.649 32.8367C138.623 33.1134 138.568 33.3679 138.485 33.6001C138.401 33.8304 138.272 34.0161 138.097 34.1573C137.925 34.2984 137.69 34.369 137.395 34.369C137.265 34.369 137.122 34.3486 136.966 34.3077C136.81 34.2669 136.672 34.1991 136.551 34.1043C136.43 34.0096 136.359 33.8824 136.336 33.7227H136.303C136.258 33.8304 136.19 33.9325 136.097 34.0291C136.006 34.1257 135.886 34.2028 135.737 34.2604C135.591 34.3179 135.411 34.343 135.2 34.3356C134.958 34.3263 134.746 34.2724 134.562 34.174C134.378 34.0737 134.224 33.9381 134.099 33.7672C133.977 33.5945 133.884 33.3948 133.821 33.1682C133.759 32.9398 133.729 32.6937 133.729 32.4299C133.729 32.1792 133.766 31.9498 133.84 31.7417C133.914 31.5337 134.017 31.3517 134.149 31.1957C134.283 31.0396 134.439 30.9152 134.617 30.8223C134.798 30.7276 134.992 30.6691 135.2 30.6468C135.385 30.6282 135.554 30.6366 135.707 30.6719C135.859 30.7053 135.984 30.7564 136.083 30.8251C136.181 30.892 136.244 30.9663 136.27 31.048H136.303V30.736H136.894V33.2546C136.894 33.4106 136.937 33.5481 137.025 33.6669C137.112 33.7858 137.239 33.8452 137.406 33.8452C137.596 33.8452 137.741 33.7802 137.841 33.6502C137.943 33.5202 138.013 33.3196 138.05 33.0484C138.089 32.7772 138.108 32.4299 138.108 32.0064C138.108 31.7575 138.074 31.5124 138.005 31.2709C137.938 31.0276 137.836 30.8 137.699 30.5883C137.563 30.3766 137.391 30.1899 137.183 30.0283C136.975 29.8667 136.731 29.7404 136.451 29.6494C136.172 29.5565 135.855 29.5101 135.501 29.5101C135.064 29.5101 134.673 29.5779 134.328 29.7135C133.984 29.8472 133.692 30.0432 133.45 30.3013C133.21 30.5577 133.028 30.8697 132.901 31.2375C132.777 31.6034 132.715 32.0194 132.715 32.4856C132.715 32.9593 132.777 33.38 132.901 33.7477C133.028 34.1155 133.213 34.4257 133.458 34.6783C133.705 34.9309 134.011 35.1222 134.375 35.2522C134.739 35.3841 135.159 35.45 135.634 35.45C135.839 35.45 136.04 35.4305 136.239 35.3915C136.438 35.3525 136.613 35.3098 136.766 35.2634C136.918 35.2169 137.027 35.1826 137.094 35.1603L137.25 35.6729C137.135 35.7212 136.985 35.7695 136.799 35.8178C136.615 35.8661 136.418 35.906 136.208 35.9376C136 35.9692 135.802 35.985 135.612 35.985ZM135.289 33.7672C135.538 33.7672 135.739 33.7171 135.893 33.6168C136.048 33.5165 136.16 33.3651 136.231 33.1626C136.301 32.9602 136.336 32.7048 136.336 32.3965C136.336 32.0844 136.297 31.8411 136.219 31.6665C136.141 31.4919 136.026 31.3693 135.874 31.2988C135.722 31.2282 135.534 31.1929 135.311 31.1929C135.099 31.1929 134.918 31.2486 134.768 31.36C134.619 31.4696 134.505 31.6164 134.425 31.8002C134.347 31.9823 134.308 32.181 134.308 32.3965C134.308 32.6342 134.34 32.858 134.403 33.0679C134.466 33.2759 134.569 33.445 134.712 33.575C134.855 33.7031 135.047 33.7672 135.289 33.7672ZM141.533 30.201V30.7583H139.315V30.201H141.533ZM139.962 29.1758H140.619V33.2546C140.619 33.4403 140.646 33.5796 140.7 33.6725C140.756 33.7635 140.826 33.8248 140.912 33.8564C140.999 33.8861 141.091 33.901 141.188 33.901C141.26 33.901 141.32 33.8972 141.366 33.8898C141.412 33.8805 141.45 33.8731 141.477 33.8675L141.611 34.4582C141.567 34.4749 141.504 34.4916 141.425 34.5083C141.345 34.5269 141.243 34.5362 141.121 34.5362C140.935 34.5362 140.753 34.4963 140.575 34.4164C140.398 34.3365 140.252 34.2149 140.135 34.0514C140.019 33.888 139.962 33.6818 139.962 33.4329V29.1758ZM143.272 31.9061V34.4805H142.614V28.7746H143.272V30.8697H143.327C143.428 30.6487 143.578 30.4731 143.779 30.3431C143.981 30.2112 144.251 30.1453 144.587 30.1453C144.878 30.1453 145.134 30.2038 145.353 30.3208C145.572 30.436 145.742 30.6134 145.863 30.853C145.985 31.0907 146.047 31.3935 146.047 31.7612V34.4805H145.389V31.8058C145.389 31.4659 145.301 31.2031 145.124 31.0174C144.95 30.8298 144.707 30.736 144.397 30.736C144.182 30.736 143.989 30.7815 143.818 30.8725C143.649 30.9635 143.515 31.0963 143.417 31.2709C143.32 31.4455 143.272 31.6572 143.272 31.9061ZM149.044 34.5696C148.631 34.5696 148.276 34.4786 147.977 34.2966C147.68 34.1127 147.45 33.8564 147.289 33.5276C147.129 33.197 147.049 32.8125 147.049 32.3742C147.049 31.9358 147.129 31.5495 147.289 31.2152C147.45 30.879 147.675 30.6171 147.963 30.4295C148.253 30.24 148.591 30.1453 148.977 30.1453C149.2 30.1453 149.42 30.1825 149.637 30.2568C149.855 30.3311 150.052 30.4518 150.231 30.6189C150.409 30.7843 150.551 31.0034 150.657 31.2765C150.763 31.5495 150.816 31.8857 150.816 32.285V32.5636H147.517V31.9953H150.147C150.147 31.7538 150.099 31.5384 150.002 31.3489C149.908 31.1594 149.772 31.0099 149.595 30.9003C149.421 30.7908 149.215 30.736 148.977 30.736C148.715 30.736 148.488 30.801 148.297 30.931C148.108 31.0591 147.962 31.2263 147.86 31.4325C147.758 31.6387 147.706 31.8597 147.706 32.0956V32.4745C147.706 32.7977 147.762 33.0716 147.874 33.2964C147.987 33.5193 148.144 33.6892 148.345 33.8062C148.545 33.9214 148.778 33.979 149.044 33.979C149.217 33.979 149.373 33.9548 149.512 33.9065C149.653 33.8564 149.775 33.7821 149.877 33.6836C149.979 33.5833 150.058 33.4589 150.114 33.3103L150.749 33.4886C150.682 33.7041 150.57 33.8935 150.412 34.057C150.254 34.2186 150.059 34.3449 149.827 34.4359C149.595 34.525 149.334 34.5696 149.044 34.5696ZM153.554 34.5696C153.153 34.5696 152.808 34.4749 152.518 34.2854C152.228 34.096 152.005 33.835 151.849 33.5026C151.693 33.1701 151.615 32.7902 151.615 32.363C151.615 31.9284 151.695 31.5449 151.855 31.2124C152.017 30.8781 152.241 30.6171 152.529 30.4295C152.819 30.24 153.157 30.1453 153.543 30.1453C153.844 30.1453 154.115 30.201 154.357 30.3125C154.598 30.4239 154.796 30.5799 154.95 30.7805C155.104 30.9811 155.2 31.2152 155.237 31.4826H154.58C154.53 31.2876 154.418 31.1149 154.245 30.9644C154.075 30.8121 153.844 30.736 153.554 30.736C153.298 30.736 153.073 30.8028 152.88 30.9366C152.689 31.0684 152.539 31.2551 152.432 31.4966C152.326 31.7362 152.273 32.0176 152.273 32.3408C152.273 32.6714 152.325 32.9593 152.429 33.2044C152.535 33.4496 152.683 33.64 152.875 33.7756C153.068 33.9112 153.294 33.979 153.554 33.979C153.725 33.979 153.88 33.9493 154.02 33.8898C154.159 33.8304 154.277 33.7449 154.374 33.6335C154.47 33.5221 154.539 33.3883 154.58 33.2323H155.237C155.2 33.4849 155.108 33.7124 154.961 33.9149C154.817 34.1155 154.624 34.2752 154.385 34.3941C154.147 34.5111 153.87 34.5696 153.554 34.5696ZM157.937 34.5696C157.551 34.5696 157.212 34.4777 156.92 34.2938C156.63 34.1099 156.404 33.8527 156.24 33.5221C156.079 33.1914 155.998 32.8051 155.998 32.363C155.998 31.9173 156.079 31.5281 156.24 31.1957C156.404 30.8632 156.63 30.605 156.92 30.4211C157.212 30.2373 157.551 30.1453 157.937 30.1453C158.323 30.1453 158.661 30.2373 158.951 30.4211C159.243 30.605 159.469 30.8632 159.631 31.1957C159.794 31.5281 159.876 31.9173 159.876 32.363C159.876 32.8051 159.794 33.1914 159.631 33.5221C159.469 33.8527 159.243 34.1099 158.951 34.2938C158.661 34.4777 158.323 34.5696 157.937 34.5696ZM157.937 33.979C158.23 33.979 158.472 33.9037 158.661 33.7533C158.851 33.6029 158.991 33.405 159.082 33.1599C159.173 32.9147 159.219 32.6491 159.219 32.363C159.219 32.077 159.173 31.8105 159.082 31.5634C158.991 31.3164 158.851 31.1167 158.661 30.9644C158.472 30.8121 158.23 30.736 157.937 30.736C157.644 30.736 157.402 30.8121 157.213 30.9644C157.023 31.1167 156.883 31.3164 156.792 31.5634C156.701 31.8105 156.655 32.077 156.655 32.363C156.655 32.6491 156.701 32.9147 156.792 33.1599C156.883 33.405 157.023 33.6029 157.213 33.7533C157.402 33.9037 157.644 33.979 157.937 33.979ZM162.618 34.5696C162.232 34.5696 161.893 34.4777 161.601 34.2938C161.312 34.1099 161.085 33.8527 160.922 33.5221C160.76 33.1914 160.679 32.8051 160.679 32.363C160.679 31.9173 160.76 31.5281 160.922 31.1957C161.085 30.8632 161.312 30.605 161.601 30.4211C161.893 30.2373 162.232 30.1453 162.618 30.1453C163.005 30.1453 163.343 30.2373 163.632 30.4211C163.924 30.605 164.151 30.8632 164.312 31.1957C164.476 31.5281 164.557 31.9173 164.557 32.363C164.557 32.8051 164.476 33.1914 164.312 33.5221C164.151 33.8527 163.924 34.1099 163.632 34.2938C163.343 34.4777 163.005 34.5696 162.618 34.5696ZM162.618 33.979C162.912 33.979 163.153 33.9037 163.343 33.7533C163.532 33.6029 163.672 33.405 163.763 33.1599C163.854 32.9147 163.9 32.6491 163.9 32.363C163.9 32.077 163.854 31.8105 163.763 31.5634C163.672 31.3164 163.532 31.1167 163.343 30.9644C163.153 30.8121 162.912 30.736 162.618 30.736C162.325 30.736 162.083 30.8121 161.894 30.9644C161.705 31.1167 161.564 31.3164 161.473 31.5634C161.382 31.8105 161.337 32.077 161.337 32.363C161.337 32.6491 161.382 32.9147 161.473 33.1599C161.564 33.405 161.705 33.6029 161.894 33.7533C162.083 33.9037 162.325 33.979 162.618 33.979ZM165.561 34.4805V30.201H166.196V30.8474H166.241C166.319 30.6357 166.46 30.4639 166.664 30.332C166.869 30.2001 167.099 30.1342 167.355 30.1342C167.404 30.1342 167.464 30.1351 167.536 30.137C167.609 30.1388 167.664 30.1416 167.701 30.1453V30.814C167.679 30.8084 167.628 30.8 167.548 30.7889C167.47 30.7759 167.387 30.7694 167.3 30.7694C167.092 30.7694 166.906 30.813 166.742 30.9003C166.581 30.9858 166.453 31.1047 166.358 31.257C166.265 31.4074 166.219 31.5792 166.219 31.7724V34.4805H165.561ZM169.966 34.5696C169.609 34.5696 169.295 34.4795 169.021 34.2994C168.748 34.1173 168.535 33.861 168.381 33.5304C168.227 33.1979 168.149 32.8051 168.149 32.3519C168.149 31.9024 168.227 31.5124 168.381 31.1817C168.535 30.8511 168.749 30.5957 169.024 30.4156C169.299 30.2354 169.617 30.1453 169.977 30.1453C170.256 30.1453 170.476 30.1917 170.637 30.2846C170.801 30.3756 170.925 30.4796 171.011 30.5967C171.098 30.7118 171.166 30.8065 171.214 30.8808H171.27V28.7746H171.927V34.4805H171.292V33.823H171.214C171.166 33.901 171.097 33.9994 171.008 34.1183C170.919 34.2353 170.792 34.3402 170.626 34.4331C170.461 34.5241 170.241 34.5696 169.966 34.5696ZM170.055 33.979C170.319 33.979 170.542 33.9102 170.724 33.7728C170.906 33.6335 171.044 33.4413 171.139 33.1961C171.234 32.949 171.281 32.6639 171.281 32.3408C171.281 32.0213 171.235 31.7417 171.142 31.5021C171.049 31.2607 170.911 31.0731 170.729 30.9393C170.547 30.8038 170.323 30.736 170.055 30.736C169.777 30.736 169.544 30.8075 169.359 30.9505C169.175 31.0917 169.036 31.2839 168.943 31.5272C168.852 31.7687 168.807 32.0399 168.807 32.3408C168.807 32.6454 168.853 32.9221 168.946 33.171C169.041 33.418 169.18 33.6149 169.364 33.7617C169.55 33.9065 169.78 33.979 170.055 33.979ZM173.223 34.4805V30.201H173.88V34.4805H173.223ZM173.557 29.4878C173.429 29.4878 173.319 29.4441 173.226 29.3568C173.135 29.2695 173.089 29.1646 173.089 29.042C173.089 28.9194 173.135 28.8145 173.226 28.7272C173.319 28.6399 173.429 28.5962 173.557 28.5962C173.685 28.5962 173.795 28.6399 173.886 28.7272C173.979 28.8145 174.025 28.9194 174.025 29.042C174.025 29.1646 173.979 29.2695 173.886 29.3568C173.795 29.4441 173.685 29.4878 173.557 29.4878ZM175.742 31.9061V34.4805H175.085V30.201H175.72V30.8697H175.776C175.876 30.6524 176.028 30.4778 176.233 30.3459C176.437 30.2122 176.701 30.1453 177.024 30.1453C177.314 30.1453 177.567 30.2047 177.784 30.3236C178.002 30.4406 178.171 30.6189 178.292 30.8586C178.412 31.0963 178.473 31.3972 178.473 31.7612V34.4805H177.815V31.8058C177.815 31.4696 177.728 31.2077 177.553 31.0201C177.379 30.8307 177.139 30.736 176.834 30.736C176.624 30.736 176.437 30.7815 176.272 30.8725C176.108 30.9635 175.979 31.0963 175.884 31.2709C175.79 31.4455 175.742 31.6572 175.742 31.9061ZM180.933 34.5808C180.662 34.5808 180.416 34.5297 180.195 34.4275C179.974 34.3235 179.799 34.174 179.669 33.979C179.539 33.7821 179.474 33.5443 179.474 33.2657C179.474 33.0206 179.522 32.8218 179.618 32.6695C179.715 32.5153 179.844 32.3946 180.006 32.3073C180.167 32.22 180.346 32.155 180.541 32.1123C180.737 32.0677 180.935 32.0324 181.134 32.0064C181.394 31.973 181.605 31.9479 181.766 31.9312C181.93 31.9126 182.049 31.882 182.123 31.8393C182.199 31.7965 182.237 31.7222 182.237 31.6164V31.5941C182.237 31.3192 182.162 31.1056 182.012 30.9533C181.863 30.801 181.637 30.7248 181.335 30.7248C181.021 30.7248 180.775 30.7935 180.596 30.931C180.418 31.0684 180.293 31.2152 180.22 31.3712L179.596 31.1483C179.708 30.8883 179.856 30.6858 180.042 30.5409C180.229 30.3942 180.434 30.292 180.655 30.2345C180.878 30.175 181.097 30.1453 181.312 30.1453C181.45 30.1453 181.608 30.162 181.786 30.1955C181.966 30.227 182.14 30.293 182.307 30.3933C182.476 30.4936 182.616 30.645 182.728 30.8474C182.839 31.0499 182.895 31.321 182.895 31.6609V34.4805H182.237V33.901H182.204C182.159 33.9938 182.085 34.0932 181.981 34.1991C181.877 34.3049 181.739 34.395 181.566 34.4693C181.393 34.5436 181.182 34.5808 180.933 34.5808ZM181.034 33.9901C181.294 33.9901 181.513 33.939 181.691 33.8369C181.871 33.7347 182.007 33.6029 182.098 33.4413C182.191 33.2797 182.237 33.1097 182.237 32.9314V32.3296C182.209 32.363 182.148 32.3937 182.053 32.4215C181.961 32.4476 181.853 32.4708 181.73 32.4912C181.61 32.5098 181.492 32.5265 181.376 32.5413C181.263 32.5544 181.171 32.5655 181.101 32.5748C180.93 32.5971 180.77 32.6333 180.621 32.6834C180.475 32.7317 180.356 32.8051 180.265 32.9035C180.176 33.0001 180.131 33.132 180.131 33.2992C180.131 33.5276 180.216 33.7004 180.385 33.8174C180.555 33.9325 180.772 33.9901 181.034 33.9901ZM185.956 30.201V30.7583H183.738V30.201H185.956ZM184.385 29.1758H185.042V33.2546C185.042 33.4403 185.069 33.5796 185.123 33.6725C185.179 33.7635 185.249 33.8248 185.335 33.8564C185.422 33.8861 185.514 33.901 185.611 33.901C185.683 33.901 185.742 33.8972 185.789 33.8898C185.835 33.8805 185.872 33.8731 185.9 33.8675L186.034 34.4582C185.989 34.4749 185.927 34.4916 185.847 34.5083C185.768 34.5269 185.666 34.5362 185.544 34.5362C185.358 34.5362 185.176 34.4963 184.998 34.4164C184.821 34.3365 184.674 34.2149 184.557 34.0514C184.442 33.888 184.385 33.6818 184.385 33.4329V29.1758ZM188.693 34.5696C188.281 34.5696 187.925 34.4786 187.626 34.2966C187.329 34.1127 187.1 33.8564 186.938 33.5276C186.778 33.197 186.699 32.8125 186.699 32.3742C186.699 31.9358 186.778 31.5495 186.938 31.2152C187.1 30.879 187.324 30.6171 187.612 30.4295C187.902 30.24 188.24 30.1453 188.627 30.1453C188.849 30.1453 189.069 30.1825 189.287 30.2568C189.504 30.3311 189.702 30.4518 189.88 30.6189C190.059 30.7843 190.201 31.0034 190.307 31.2765C190.412 31.5495 190.465 31.8857 190.465 32.285V32.5636H187.167V31.9953H189.797C189.797 31.7538 189.748 31.5384 189.652 31.3489C189.557 31.1594 189.421 31.0099 189.245 30.9003C189.07 30.7908 188.864 30.736 188.627 30.736C188.365 30.736 188.138 30.801 187.947 30.931C187.757 31.0591 187.611 31.2263 187.509 31.4325C187.407 31.6387 187.356 31.8597 187.356 32.0956V32.4745C187.356 32.7977 187.412 33.0716 187.523 33.2964C187.637 33.5193 187.793 33.6892 187.994 33.8062C188.195 33.9214 188.428 33.979 188.693 33.979C188.866 33.979 189.022 33.9548 189.161 33.9065C189.303 33.8564 189.424 33.7821 189.526 33.6836C189.629 33.5833 189.708 33.4589 189.763 33.3103L190.398 33.4886C190.332 33.7041 190.219 33.8935 190.061 34.057C189.903 34.2186 189.708 34.3449 189.476 34.4359C189.244 34.525 188.983 34.5696 188.693 34.5696ZM193.081 34.5696C192.725 34.5696 192.41 34.4795 192.137 34.2994C191.864 34.1173 191.65 33.861 191.496 33.5304C191.342 33.1979 191.265 32.8051 191.265 32.3519C191.265 31.9024 191.342 31.5124 191.496 31.1817C191.65 30.8511 191.865 30.5957 192.14 30.4156C192.415 30.2354 192.732 30.1453 193.093 30.1453C193.371 30.1453 193.591 30.1917 193.753 30.2846C193.916 30.3756 194.041 30.4796 194.126 30.5967C194.214 30.7118 194.281 30.8065 194.33 30.8808H194.385V28.7746H195.043V34.4805H194.408V33.823H194.33C194.281 33.901 194.213 33.9994 194.123 34.1183C194.034 34.2353 193.907 34.3402 193.742 34.4331C193.576 34.5241 193.356 34.5696 193.081 34.5696ZM193.171 33.979C193.434 33.979 193.657 33.9102 193.839 33.7728C194.021 33.6335 194.16 33.4413 194.254 33.1961C194.349 32.949 194.397 32.6639 194.397 32.3408C194.397 32.0213 194.35 31.7417 194.257 31.5021C194.164 31.2607 194.027 31.0731 193.845 30.9393C193.663 30.8038 193.438 30.736 193.171 30.736C192.892 30.736 192.66 30.8075 192.474 30.9505C192.29 31.0917 192.152 31.2839 192.059 31.5272C191.968 31.7687 191.922 32.0399 191.922 32.3408C191.922 32.6454 191.969 32.9221 192.062 33.171C192.156 33.418 192.296 33.6149 192.48 33.7617C192.665 33.9065 192.896 33.979 193.171 33.979ZM196.996 28.7746V34.4805H196.338V28.7746H196.996ZM198.2 34.4805V30.201H198.858V34.4805H198.2ZM198.535 29.4878C198.406 29.4878 198.296 29.4441 198.203 29.3568C198.112 29.2695 198.066 29.1646 198.066 29.042C198.066 28.9194 198.112 28.8145 198.203 28.7272C198.296 28.6399 198.406 28.5962 198.535 28.5962C198.663 28.5962 198.772 28.6399 198.863 28.7272C198.956 28.8145 199.003 28.9194 199.003 29.042C199.003 29.1646 198.956 29.2695 198.863 29.3568C198.772 29.4441 198.663 29.4878 198.535 29.4878ZM203.561 30.201L201.979 34.4805H201.31L199.728 30.201H200.441L201.622 33.6112H201.667L202.848 30.201H203.561ZM204.429 34.4805V30.201H205.087V34.4805H204.429ZM204.764 29.4878C204.635 29.4878 204.525 29.4441 204.432 29.3568C204.341 29.2695 204.295 29.1646 204.295 29.042C204.295 28.9194 204.341 28.8145 204.432 28.7272C204.525 28.6399 204.635 28.5962 204.764 28.5962C204.892 28.5962 205.001 28.6399 205.092 28.7272C205.185 28.8145 205.232 28.9194 205.232 29.042C205.232 29.1646 205.185 29.2695 205.092 29.3568C205.001 29.4441 204.892 29.4878 204.764 29.4878ZM206.949 31.9061V34.4805H206.291V30.201H206.926V30.8697H206.982C207.082 30.6524 207.235 30.4778 207.439 30.3459C207.643 30.2122 207.907 30.1453 208.23 30.1453C208.52 30.1453 208.773 30.2047 208.991 30.3236C209.208 30.4406 209.377 30.6189 209.498 30.8586C209.619 31.0963 209.679 31.3972 209.679 31.7612V34.4805H209.021V31.8058C209.021 31.4696 208.934 31.2077 208.759 31.0201C208.585 30.8307 208.345 30.736 208.041 30.736C207.831 30.736 207.643 30.7815 207.478 30.8725C207.314 30.9635 207.185 31.0963 207.091 31.2709C206.996 31.4455 206.949 31.6572 206.949 31.9061ZM212.608 36.1744C212.29 36.1744 212.017 36.1335 211.789 36.0518C211.56 35.972 211.37 35.8661 211.218 35.7342C211.067 35.6042 210.947 35.4649 210.858 35.3163L211.382 34.9485C211.441 35.0265 211.517 35.1157 211.608 35.216C211.699 35.3182 211.823 35.4064 211.981 35.4807C212.141 35.5568 212.35 35.5949 212.608 35.5949C212.953 35.5949 213.238 35.5113 213.463 35.3442C213.688 35.177 213.8 34.9151 213.8 34.5585V33.6892H213.745C213.696 33.7672 213.627 33.8638 213.538 33.979C213.451 34.0923 213.325 34.1935 213.159 34.2827C212.996 34.37 212.775 34.4136 212.496 34.4136C212.151 34.4136 211.841 34.3319 211.566 34.1684C211.293 34.005 211.076 33.7672 210.917 33.4552C210.759 33.1431 210.68 32.7642 210.68 32.3185C210.68 31.8801 210.757 31.4984 210.911 31.1734C211.065 30.8465 211.28 30.5939 211.555 30.4156C211.83 30.2354 212.147 30.1453 212.507 30.1453C212.786 30.1453 213.007 30.1917 213.171 30.2846C213.336 30.3756 213.462 30.4796 213.549 30.5967C213.639 30.7118 213.707 30.8065 213.756 30.8808H213.823V30.201H214.458V34.6031C214.458 34.9708 214.374 35.2699 214.207 35.5002C214.042 35.7324 213.819 35.9023 213.538 36.01C213.26 36.1196 212.95 36.1744 212.608 36.1744ZM212.585 33.823C212.849 33.823 213.072 33.7626 213.254 33.6419C213.436 33.5211 213.575 33.3475 213.669 33.1209C213.764 32.8943 213.811 32.6231 213.811 32.3073C213.811 31.999 213.765 31.7269 213.672 31.491C213.579 31.2551 213.442 31.0703 213.26 30.9366C213.078 30.8028 212.853 30.736 212.585 30.736C212.307 30.736 212.075 30.8065 211.889 30.9477C211.705 31.0889 211.567 31.2783 211.474 31.5161C211.383 31.7538 211.337 32.0176 211.337 32.3073C211.337 32.6045 211.384 32.8673 211.477 33.0958C211.571 33.3224 211.711 33.5007 211.895 33.6307C212.08 33.7589 212.311 33.823 212.585 33.823ZM216.141 34.525C216.003 34.525 215.885 34.4758 215.787 34.3774C215.688 34.2789 215.639 34.161 215.639 34.0235C215.639 33.8861 215.688 33.7682 215.787 33.6697C215.885 33.5713 216.003 33.5221 216.141 33.5221C216.278 33.5221 216.396 33.5713 216.494 33.6697C216.593 33.7682 216.642 33.8861 216.642 34.0235C216.642 34.1146 216.619 34.1981 216.572 34.2743C216.528 34.3505 216.467 34.4117 216.391 34.4582C216.317 34.5028 216.233 34.525 216.141 34.525ZM219.56 34.5696C219.159 34.5696 218.814 34.4749 218.524 34.2854C218.234 34.096 218.011 33.835 217.855 33.5026C217.699 33.1701 217.621 32.7902 217.621 32.363C217.621 31.9284 217.701 31.5449 217.861 31.2124C218.023 30.8781 218.247 30.6171 218.535 30.4295C218.825 30.24 219.163 30.1453 219.549 30.1453C219.85 30.1453 220.121 30.201 220.363 30.3125C220.604 30.4239 220.802 30.5799 220.956 30.7805C221.11 30.9811 221.206 31.2152 221.243 31.4826H220.586C220.536 31.2876 220.424 31.1149 220.251 30.9644C220.081 30.8121 219.85 30.736 219.56 30.736C219.304 30.736 219.079 30.8028 218.886 30.9366C218.695 31.0684 218.545 31.2551 218.438 31.4966C218.332 31.7362 218.279 32.0176 218.279 32.3408C218.279 32.6714 218.331 32.9593 218.435 33.2044C218.541 33.4496 218.689 33.64 218.881 33.7756C219.074 33.9112 219.3 33.979 219.56 33.979C219.731 33.979 219.886 33.9493 220.026 33.8898C220.165 33.8304 220.283 33.7449 220.38 33.6335C220.476 33.5221 220.545 33.3883 220.586 33.2323H221.243C221.206 33.4849 221.114 33.7124 220.967 33.9149C220.823 34.1155 220.63 34.2752 220.391 34.3941C220.153 34.5111 219.876 34.5696 219.56 34.5696ZM223.943 34.5696C223.557 34.5696 223.218 34.4777 222.926 34.2938C222.636 34.1099 222.41 33.8527 222.246 33.5221C222.085 33.1914 222.004 32.8051 222.004 32.363C222.004 31.9173 222.085 31.5281 222.246 31.1957C222.41 30.8632 222.636 30.605 222.926 30.4211C223.218 30.2373 223.557 30.1453 223.943 30.1453C224.329 30.1453 224.667 30.2373 224.957 30.4211C225.249 30.605 225.475 30.8632 225.637 31.1957C225.8 31.5281 225.882 31.9173 225.882 32.363C225.882 32.8051 225.8 33.1914 225.637 33.5221C225.475 33.8527 225.249 34.1099 224.957 34.2938C224.667 34.4777 224.329 34.5696 223.943 34.5696ZM223.943 33.979C224.236 33.979 224.478 33.9037 224.667 33.7533C224.857 33.6029 224.997 33.405 225.088 33.1599C225.179 32.9147 225.225 32.6491 225.225 32.363C225.225 32.077 225.179 31.8105 225.088 31.5634C224.997 31.3164 224.857 31.1167 224.667 30.9644C224.478 30.8121 224.236 30.736 223.943 30.736C223.65 30.736 223.408 30.8121 223.219 30.9644C223.029 31.1167 222.889 31.3164 222.798 31.5634C222.707 31.8105 222.661 32.077 222.661 32.363C222.661 32.6491 222.707 32.9147 222.798 33.1599C222.889 33.405 223.029 33.6029 223.219 33.7533C223.408 33.9037 223.65 33.979 223.943 33.979ZM226.886 34.4805V30.201H227.521V30.8697H227.577C227.666 30.6412 227.81 30.4639 228.009 30.3376C228.207 30.2094 228.446 30.1453 228.725 30.1453C229.007 30.1453 229.242 30.2094 229.43 30.3376C229.619 30.4639 229.767 30.6412 229.872 30.8697H229.917C230.027 30.6487 230.191 30.4731 230.41 30.3431C230.629 30.2112 230.892 30.1453 231.199 30.1453C231.581 30.1453 231.894 30.2651 232.138 30.5047C232.381 30.7425 232.503 31.113 232.503 31.6164V34.4805H231.845V31.6164C231.845 31.3006 231.759 31.0749 231.586 30.9393C231.413 30.8038 231.21 30.736 230.976 30.736C230.675 30.736 230.442 30.827 230.276 31.009C230.111 31.1892 230.029 31.4176 230.029 31.6944V34.4805H229.36V31.5495C229.36 31.3062 229.281 31.1102 229.123 30.9616C228.965 30.8112 228.762 30.736 228.513 30.736C228.342 30.736 228.182 30.7815 228.034 30.8725C227.887 30.9635 227.768 31.0898 227.677 31.2514C227.588 31.4111 227.543 31.5959 227.543 31.8058V34.4805H226.886Z" fill="black"/>
<path d="M255.206 34.4805L253.902 30.201H254.593L255.518 33.4775H255.563L256.477 30.201H257.179L258.081 33.4663H258.126L259.051 30.201H259.742L258.438 34.4805H257.792L256.855 31.1929H256.789L255.852 34.4805H255.206ZM261.581 34.4805L260.277 30.201H260.968L261.893 33.4775H261.937L262.851 30.201H263.553L264.456 33.4663H264.501L265.426 30.201H266.116L264.813 34.4805H264.166L263.23 31.1929H263.163L262.227 34.4805H261.581ZM267.955 34.4805L266.651 30.201H267.342L268.267 33.4775H268.312L269.226 30.201H269.928L270.831 33.4663H270.875L271.8 30.201H272.491L271.187 34.4805H270.541L269.605 31.1929H269.538L268.602 34.4805H267.955ZM273.257 34.525C273.12 34.525 273.002 34.4758 272.903 34.3774C272.805 34.2789 272.756 34.161 272.756 34.0235C272.756 33.8861 272.805 33.7682 272.903 33.6697C273.002 33.5713 273.12 33.5221 273.257 33.5221C273.395 33.5221 273.513 33.5713 273.611 33.6697C273.709 33.7682 273.759 33.8861 273.759 34.0235C273.759 34.1146 273.735 34.1981 273.689 34.2743C273.644 34.3505 273.584 34.4117 273.508 34.4582C273.434 34.5028 273.35 34.525 273.257 34.525ZM276.8 30.201V30.7583H274.582V30.201H276.8ZM275.228 29.1758H275.886V33.2546C275.886 33.4403 275.913 33.5796 275.967 33.6725C276.022 33.7635 276.093 33.8248 276.178 33.8564C276.266 33.8861 276.358 33.901 276.454 33.901C276.527 33.901 276.586 33.8972 276.633 33.8898C276.679 33.8805 276.716 33.8731 276.744 33.8675L276.878 34.4582C276.833 34.4749 276.771 34.4916 276.691 34.5083C276.611 34.5269 276.51 34.5362 276.387 34.5362C276.202 34.5362 276.02 34.4963 275.841 34.4164C275.665 34.3365 275.518 34.2149 275.401 34.0514C275.286 33.888 275.228 33.6818 275.228 33.4329V29.1758ZM278.538 31.9061V34.4805H277.881V28.7746H278.538V30.8697H278.594C278.694 30.6487 278.845 30.4731 279.045 30.3431C279.248 30.2112 279.517 30.1453 279.853 30.1453C280.145 30.1453 280.4 30.2038 280.619 30.3208C280.839 30.436 281.009 30.6134 281.129 30.853C281.252 31.0907 281.313 31.3935 281.313 31.7612V34.4805H280.656V31.8058C280.656 31.4659 280.567 31.2031 280.391 31.0174C280.216 30.8298 279.974 30.736 279.664 30.736C279.448 30.736 279.255 30.7815 279.084 30.8725C278.915 30.9635 278.782 31.0963 278.683 31.2709C278.587 31.4455 278.538 31.6572 278.538 31.9061ZM284.31 34.5696C283.898 34.5696 283.542 34.4786 283.243 34.2966C282.946 34.1127 282.717 33.8564 282.555 33.5276C282.395 33.197 282.315 32.8125 282.315 32.3742C282.315 31.9358 282.395 31.5495 282.555 31.2152C282.717 30.879 282.941 30.6171 283.229 30.4295C283.519 30.24 283.857 30.1453 284.243 30.1453C284.466 30.1453 284.686 30.1825 284.904 30.2568C285.121 30.3311 285.319 30.4518 285.497 30.6189C285.676 30.7843 285.818 31.0034 285.923 31.2765C286.029 31.5495 286.082 31.8857 286.082 32.285V32.5636H282.784V31.9953H285.414C285.414 31.7538 285.365 31.5384 285.269 31.3489C285.174 31.1594 285.038 31.0099 284.862 30.9003C284.687 30.7908 284.481 30.736 284.243 30.736C283.982 30.736 283.755 30.801 283.564 30.931C283.374 31.0591 283.228 31.2263 283.126 31.4325C283.024 31.6387 282.973 31.8597 282.973 32.0956V32.4745C282.973 32.7977 283.029 33.0716 283.14 33.2964C283.253 33.5193 283.41 33.6892 283.611 33.8062C283.812 33.9214 284.045 33.979 284.31 33.979C284.483 33.979 284.639 33.9548 284.778 33.9065C284.92 33.8564 285.041 33.7821 285.143 33.6836C285.246 33.5833 285.324 33.4589 285.38 33.3103L286.015 33.4886C285.949 33.7041 285.836 33.8935 285.678 34.057C285.52 34.2186 285.325 34.3449 285.093 34.4359C284.861 34.525 284.6 34.5696 284.31 34.5696ZM288.821 34.5696C288.42 34.5696 288.074 34.4749 287.785 34.2854C287.495 34.096 287.272 33.835 287.116 33.5026C286.96 33.1701 286.882 32.7902 286.882 32.363C286.882 31.9284 286.962 31.5449 287.121 31.2124C287.283 30.8781 287.508 30.6171 287.796 30.4295C288.085 30.24 288.424 30.1453 288.81 30.1453C289.111 30.1453 289.382 30.201 289.623 30.3125C289.865 30.4239 290.063 30.5799 290.217 30.7805C290.371 30.9811 290.467 31.2152 290.504 31.4826H289.846C289.796 31.2876 289.685 31.1149 289.512 30.9644C289.341 30.8121 289.111 30.736 288.821 30.736C288.565 30.736 288.34 30.8028 288.147 30.9366C287.955 31.0684 287.806 31.2551 287.698 31.4966C287.592 31.7362 287.539 32.0176 287.539 32.3408C287.539 32.6714 287.591 32.9593 287.695 33.2044C287.801 33.4496 287.95 33.64 288.141 33.7756C288.334 33.9112 288.561 33.979 288.821 33.979C288.992 33.979 289.147 33.9493 289.286 33.8898C289.426 33.8304 289.544 33.7449 289.64 33.6335C289.737 33.5221 289.805 33.3883 289.846 33.2323H290.504C290.467 33.4849 290.375 33.7124 290.228 33.9149C290.083 34.1155 289.891 34.2752 289.651 34.3941C289.414 34.5111 289.137 34.5696 288.821 34.5696ZM293.204 34.5696C292.817 34.5696 292.478 34.4777 292.187 34.2938C291.897 34.1099 291.67 33.8527 291.507 33.5221C291.345 33.1914 291.264 32.8051 291.264 32.363C291.264 31.9173 291.345 31.5281 291.507 31.1957C291.67 30.8632 291.897 30.605 292.187 30.4211C292.478 30.2373 292.817 30.1453 293.204 30.1453C293.59 30.1453 293.928 30.2373 294.218 30.4211C294.509 30.605 294.736 30.8632 294.897 31.1957C295.061 31.5281 295.143 31.9173 295.143 32.363C295.143 32.8051 295.061 33.1914 294.897 33.5221C294.736 33.8527 294.509 34.1099 294.218 34.2938C293.928 34.4777 293.59 34.5696 293.204 34.5696ZM293.204 33.979C293.497 33.979 293.738 33.9037 293.928 33.7533C294.117 33.6029 294.258 33.405 294.349 33.1599C294.44 32.9147 294.485 32.6491 294.485 32.363C294.485 32.077 294.44 31.8105 294.349 31.5634C294.258 31.3164 294.117 31.1167 293.928 30.9644C293.738 30.8121 293.497 30.736 293.204 30.736C292.91 30.736 292.669 30.8121 292.479 30.9644C292.29 31.1167 292.149 31.3164 292.058 31.5634C291.967 31.8105 291.922 32.077 291.922 32.363C291.922 32.6491 291.967 32.9147 292.058 33.1599C292.149 33.405 292.29 33.6029 292.479 33.7533C292.669 33.9037 292.91 33.979 293.204 33.979ZM297.885 34.5696C297.499 34.5696 297.16 34.4777 296.868 34.2938C296.578 34.1099 296.352 33.8527 296.188 33.5221C296.027 33.1914 295.946 32.8051 295.946 32.363C295.946 31.9173 296.027 31.5281 296.188 31.1957C296.352 30.8632 296.578 30.605 296.868 30.4211C297.16 30.2373 297.499 30.1453 297.885 30.1453C298.271 30.1453 298.609 30.2373 298.899 30.4211C299.191 30.605 299.417 30.8632 299.579 31.1957C299.742 31.5281 299.824 31.9173 299.824 32.363C299.824 32.8051 299.742 33.1914 299.579 33.5221C299.417 33.8527 299.191 34.1099 298.899 34.2938C298.609 34.4777 298.271 34.5696 297.885 34.5696ZM297.885 33.979C298.178 33.979 298.42 33.9037 298.609 33.7533C298.799 33.6029 298.939 33.405 299.03 33.1599C299.121 32.9147 299.166 32.6491 299.166 32.363C299.166 32.077 299.121 31.8105 299.03 31.5634C298.939 31.3164 298.799 31.1167 298.609 30.9644C298.42 30.8121 298.178 30.736 297.885 30.736C297.591 30.736 297.35 30.8121 297.16 30.9644C296.971 31.1167 296.831 31.3164 296.74 31.5634C296.649 31.8105 296.603 32.077 296.603 32.363C296.603 32.6491 296.649 32.9147 296.74 33.1599C296.831 33.405 296.971 33.6029 297.16 33.7533C297.35 33.9037 297.591 33.979 297.885 33.979ZM300.828 34.4805V30.201H301.463V30.8474H301.507C301.585 30.6357 301.727 30.4639 301.931 30.332C302.135 30.2001 302.366 30.1342 302.622 30.1342C302.67 30.1342 302.731 30.1351 302.803 30.137C302.875 30.1388 302.93 30.1416 302.967 30.1453V30.814C302.945 30.8084 302.894 30.8 302.814 30.7889C302.736 30.7759 302.653 30.7694 302.566 30.7694C302.358 30.7694 302.172 30.813 302.009 30.9003C301.847 30.9858 301.719 31.1047 301.624 31.257C301.532 31.4074 301.485 31.5792 301.485 31.7724V34.4805H300.828ZM305.232 34.5696C304.876 34.5696 304.561 34.4795 304.288 34.2994C304.015 34.1173 303.801 33.861 303.647 33.5304C303.493 33.1979 303.416 32.8051 303.416 32.3519C303.416 31.9024 303.493 31.5124 303.647 31.1817C303.801 30.8511 304.016 30.5957 304.291 30.4156C304.566 30.2354 304.883 30.1453 305.244 30.1453C305.522 30.1453 305.742 30.1917 305.904 30.2846C306.067 30.3756 306.192 30.4796 306.277 30.5967C306.365 30.7118 306.432 30.8065 306.481 30.8808H306.536V28.7746H307.194V34.4805H306.559V33.823H306.481C306.432 33.901 306.364 33.9994 306.274 34.1183C306.185 34.2353 306.058 34.3402 305.893 34.4331C305.727 34.5241 305.507 34.5696 305.232 34.5696ZM305.322 33.979C305.585 33.979 305.808 33.9102 305.99 33.7728C306.172 33.6335 306.311 33.4413 306.405 33.1961C306.5 32.949 306.548 32.6639 306.548 32.3408C306.548 32.0213 306.501 31.7417 306.408 31.5021C306.315 31.2607 306.178 31.0731 305.996 30.9393C305.814 30.8038 305.589 30.736 305.322 30.736C305.043 30.736 304.811 30.8075 304.625 30.9505C304.441 31.0917 304.303 31.2839 304.21 31.5272C304.119 31.7687 304.073 32.0399 304.073 32.3408C304.073 32.6454 304.12 32.9221 304.213 33.171C304.307 33.418 304.447 33.6149 304.631 33.7617C304.816 33.9065 305.047 33.979 305.322 33.979ZM308.489 34.4805V30.201H309.147V34.4805H308.489ZM308.824 29.4878C308.696 29.4878 308.585 29.4441 308.492 29.3568C308.401 29.2695 308.356 29.1646 308.356 29.042C308.356 28.9194 308.401 28.8145 308.492 28.7272C308.585 28.6399 308.696 28.5962 308.824 28.5962C308.952 28.5962 309.061 28.6399 309.153 28.7272C309.245 28.8145 309.292 28.9194 309.292 29.042C309.292 29.1646 309.245 29.2695 309.153 29.3568C309.061 29.4441 308.952 29.4878 308.824 29.4878ZM311.009 31.9061V34.4805H310.351V30.201H310.986V30.8697H311.042C311.142 30.6524 311.295 30.4778 311.499 30.3459C311.703 30.2122 311.967 30.1453 312.29 30.1453C312.58 30.1453 312.834 30.2047 313.051 30.3236C313.268 30.4406 313.437 30.6189 313.558 30.8586C313.679 31.0963 313.739 31.3972 313.739 31.7612V34.4805H313.082V31.8058C313.082 31.4696 312.994 31.2077 312.82 31.0201C312.645 30.8307 312.406 30.736 312.101 30.736C311.891 30.736 311.703 30.7815 311.538 30.8725C311.375 30.9635 311.246 31.0963 311.151 31.2709C311.056 31.4455 311.009 31.6572 311.009 31.9061ZM316.2 34.5808C315.929 34.5808 315.683 34.5297 315.462 34.4275C315.241 34.3235 315.065 34.174 314.935 33.979C314.805 33.7821 314.74 33.5443 314.74 33.2657C314.74 33.0206 314.788 32.8218 314.885 32.6695C314.981 32.5153 315.111 32.3946 315.272 32.3073C315.434 32.22 315.612 32.155 315.807 32.1123C316.004 32.0677 316.202 32.0324 316.401 32.0064C316.661 31.973 316.871 31.9479 317.033 31.9312C317.196 31.9126 317.315 31.882 317.39 31.8393C317.466 31.7965 317.504 31.7222 317.504 31.6164V31.5941C317.504 31.3192 317.429 31.1056 317.278 30.9533C317.13 30.801 316.904 30.7248 316.601 30.7248C316.287 30.7248 316.041 30.7935 315.863 30.931C315.684 31.0684 315.559 31.2152 315.487 31.3712L314.863 31.1483C314.974 30.8883 315.123 30.6858 315.308 30.5409C315.496 30.3942 315.7 30.292 315.921 30.2345C316.144 30.175 316.363 30.1453 316.579 30.1453C316.716 30.1453 316.874 30.162 317.052 30.1955C317.233 30.227 317.406 30.293 317.573 30.3933C317.742 30.4936 317.883 30.645 317.994 30.8474C318.106 31.0499 318.161 31.321 318.161 31.6609V34.4805H317.504V33.901H317.47C317.426 33.9938 317.352 34.0932 317.247 34.1991C317.143 34.3049 317.005 34.395 316.832 34.4693C316.66 34.5436 316.449 34.5808 316.2 34.5808ZM316.3 33.9901C316.56 33.9901 316.779 33.939 316.958 33.8369C317.138 33.7347 317.273 33.6029 317.365 33.4413C317.457 33.2797 317.504 33.1097 317.504 32.9314V32.3296C317.476 32.363 317.415 32.3937 317.32 32.4215C317.227 32.4476 317.119 32.4708 316.997 32.4912C316.876 32.5098 316.758 32.5265 316.643 32.5413C316.53 32.5544 316.438 32.5655 316.367 32.5748C316.196 32.5971 316.036 32.6333 315.888 32.6834C315.741 32.7317 315.622 32.8051 315.531 32.9035C315.442 33.0001 315.398 33.132 315.398 33.2992C315.398 33.5276 315.482 33.7004 315.651 33.8174C315.822 33.9325 316.038 33.9901 316.3 33.9901ZM321.223 30.201V30.7583H319.005V30.201H321.223ZM319.651 29.1758H320.309V33.2546C320.309 33.4403 320.336 33.5796 320.39 33.6725C320.445 33.7635 320.516 33.8248 320.601 33.8564C320.689 33.8861 320.78 33.901 320.877 33.901C320.95 33.901 321.009 33.8972 321.055 33.8898C321.102 33.8805 321.139 33.8731 321.167 33.8675L321.301 34.4582C321.256 34.4749 321.194 34.4916 321.114 34.5083C321.034 34.5269 320.933 34.5362 320.81 34.5362C320.624 34.5362 320.442 34.4963 320.264 34.4164C320.088 34.3365 319.941 34.2149 319.824 34.0514C319.709 33.888 319.651 33.6818 319.651 33.4329V29.1758ZM323.96 34.5696C323.548 34.5696 323.192 34.4786 322.893 34.2966C322.596 34.1127 322.366 33.8564 322.205 33.5276C322.045 33.197 321.965 32.8125 321.965 32.3742C321.965 31.9358 322.045 31.5495 322.205 31.2152C322.366 30.879 322.591 30.6171 322.879 30.4295C323.169 30.24 323.507 30.1453 323.893 30.1453C324.116 30.1453 324.336 30.1825 324.553 30.2568C324.771 30.3311 324.968 30.4518 325.147 30.6189C325.325 30.7843 325.467 31.0034 325.573 31.2765C325.679 31.5495 325.732 31.8857 325.732 32.285V32.5636H322.433V31.9953H325.063C325.063 31.7538 325.015 31.5384 324.918 31.3489C324.824 31.1594 324.688 31.0099 324.512 30.9003C324.337 30.7908 324.131 30.736 323.893 30.736C323.631 30.736 323.405 30.801 323.213 30.931C323.024 31.0591 322.878 31.2263 322.776 31.4325C322.674 31.6387 322.623 31.8597 322.623 32.0956V32.4745C322.623 32.7977 322.678 33.0716 322.79 33.2964C322.903 33.5193 323.06 33.6892 323.261 33.8062C323.461 33.9214 323.694 33.979 323.96 33.979C324.133 33.979 324.289 33.9548 324.428 33.9065C324.569 33.8564 324.691 33.7821 324.793 33.6836C324.895 33.5833 324.974 33.4589 325.03 33.3103L325.665 33.4886C325.598 33.7041 325.486 33.8935 325.328 34.057C325.17 34.2186 324.975 34.3449 324.743 34.4359C324.511 34.525 324.25 34.5696 323.96 34.5696ZM328.348 34.5696C327.991 34.5696 327.677 34.4795 327.403 34.2994C327.13 34.1173 326.917 33.861 326.763 33.5304C326.609 33.1979 326.531 32.8051 326.531 32.3519C326.531 31.9024 326.609 31.5124 326.763 31.1817C326.917 30.8511 327.131 30.5957 327.406 30.4156C327.681 30.2354 327.999 30.1453 328.359 30.1453C328.638 30.1453 328.858 30.1917 329.019 30.2846C329.183 30.3756 329.307 30.4796 329.393 30.5967C329.48 30.7118 329.548 30.8065 329.596 30.8808H329.652V28.7746H330.309V34.4805H329.674V33.823H329.596C329.548 33.901 329.479 33.9994 329.39 34.1183C329.301 34.2353 329.174 34.3402 329.008 34.4331C328.843 34.5241 328.623 34.5696 328.348 34.5696ZM328.437 33.979C328.701 33.979 328.924 33.9102 329.106 33.7728C329.288 33.6335 329.426 33.4413 329.521 33.1961C329.616 32.949 329.663 32.6639 329.663 32.3408C329.663 32.0213 329.617 31.7417 329.524 31.5021C329.431 31.2607 329.293 31.0731 329.111 30.9393C328.929 30.8038 328.705 30.736 328.437 30.736C328.159 30.736 327.926 30.8075 327.741 30.9505C327.557 31.0917 327.418 31.2839 327.325 31.5272C327.234 31.7687 327.189 32.0399 327.189 32.3408C327.189 32.6454 327.235 32.9221 327.328 33.171C327.423 33.418 327.562 33.6149 327.746 33.7617C327.932 33.9065 328.162 33.979 328.437 33.979ZM332.262 28.7746V34.4805H331.605V28.7746H332.262ZM333.467 34.4805V30.201H334.124V34.4805H333.467ZM333.801 29.4878C333.673 29.4878 333.562 29.4441 333.47 29.3568C333.378 29.2695 333.333 29.1646 333.333 29.042C333.333 28.9194 333.378 28.8145 333.47 28.7272C333.562 28.6399 333.673 28.5962 333.801 28.5962C333.929 28.5962 334.039 28.6399 334.13 28.7272C334.223 28.8145 334.269 28.9194 334.269 29.042C334.269 29.1646 334.223 29.2695 334.13 29.3568C334.039 29.4441 333.929 29.4878 333.801 29.4878ZM338.828 30.201L337.245 34.4805H336.577L334.994 30.201H335.707L336.889 33.6112H336.933L338.115 30.201H338.828ZM339.696 34.4805V30.201H340.353V34.4805H339.696ZM340.03 29.4878C339.902 29.4878 339.791 29.4441 339.699 29.3568C339.608 29.2695 339.562 29.1646 339.562 29.042C339.562 28.9194 339.608 28.8145 339.699 28.7272C339.791 28.6399 339.902 28.5962 340.03 28.5962C340.158 28.5962 340.268 28.6399 340.359 28.7272C340.452 28.8145 340.498 28.9194 340.498 29.042C340.498 29.1646 340.452 29.2695 340.359 29.3568C340.268 29.4441 340.158 29.4878 340.03 29.4878ZM342.215 31.9061V34.4805H341.558V30.201H342.193V30.8697H342.248C342.349 30.6524 342.501 30.4778 342.705 30.3459C342.91 30.2122 343.173 30.1453 343.497 30.1453C343.786 30.1453 344.04 30.2047 344.257 30.3236C344.475 30.4406 344.644 30.6189 344.764 30.8586C344.885 31.0963 344.945 31.3972 344.945 31.7612V34.4805H344.288V31.8058C344.288 31.4696 344.201 31.2077 344.026 31.0201C343.851 30.8307 343.612 30.736 343.307 30.736C343.097 30.736 342.91 30.7815 342.744 30.8725C342.581 30.9635 342.452 31.0963 342.357 31.2709C342.262 31.4455 342.215 31.6572 342.215 31.9061ZM347.874 36.1744C347.557 36.1744 347.284 36.1335 347.055 36.0518C346.827 35.972 346.636 35.8661 346.484 35.7342C346.334 35.6042 346.214 35.4649 346.125 35.3163L346.648 34.9485C346.708 35.0265 346.783 35.1157 346.874 35.216C346.965 35.3182 347.09 35.4064 347.247 35.4807C347.407 35.5568 347.616 35.5949 347.874 35.5949C348.22 35.5949 348.505 35.5113 348.73 35.3442C348.954 35.177 349.067 34.9151 349.067 34.5585V33.6892H349.011C348.963 33.7672 348.894 33.8638 348.805 33.979C348.718 34.0923 348.591 34.1935 348.426 34.2827C348.262 34.37 348.041 34.4136 347.763 34.4136C347.417 34.4136 347.107 34.3319 346.832 34.1684C346.559 34.005 346.343 33.7672 346.183 33.4552C346.025 33.1431 345.946 32.7642 345.946 32.3185C345.946 31.8801 346.023 31.4984 346.178 31.1734C346.332 30.8465 346.546 30.5939 346.821 30.4156C347.096 30.2354 347.414 30.1453 347.774 30.1453C348.053 30.1453 348.274 30.1917 348.437 30.2846C348.602 30.3756 348.729 30.4796 348.816 30.5967C348.905 30.7118 348.974 30.8065 349.022 30.8808H349.089V30.201H349.724V34.6031C349.724 34.9708 349.641 35.2699 349.474 35.5002C349.308 35.7324 349.085 35.9023 348.805 36.01C348.526 36.1196 348.216 36.1744 347.874 36.1744ZM347.852 33.823C348.116 33.823 348.339 33.7626 348.521 33.6419C348.703 33.5211 348.841 33.3475 348.936 33.1209C349.031 32.8943 349.078 32.6231 349.078 32.3073C349.078 31.999 349.031 31.7269 348.939 31.491C348.846 31.2551 348.708 31.0703 348.526 30.9366C348.344 30.8028 348.119 30.736 347.852 30.736C347.573 30.736 347.341 30.8065 347.155 30.9477C346.972 31.0889 346.833 31.2783 346.74 31.5161C346.649 31.7538 346.604 32.0176 346.604 32.3073C346.604 32.6045 346.65 32.8673 346.743 33.0958C346.838 33.3224 346.977 33.5007 347.161 33.6307C347.347 33.7589 347.577 33.823 347.852 33.823ZM351.407 34.525C351.27 34.525 351.152 34.4758 351.053 34.3774C350.955 34.2789 350.906 34.161 350.906 34.0235C350.906 33.8861 350.955 33.7682 351.053 33.6697C351.152 33.5713 351.27 33.5221 351.407 33.5221C351.545 33.5221 351.662 33.5713 351.761 33.6697C351.859 33.7682 351.909 33.8861 351.909 34.0235C351.909 34.1146 351.885 34.1981 351.839 34.2743C351.794 34.3505 351.734 34.4117 351.658 34.4582C351.584 34.5028 351.5 34.525 351.407 34.525ZM354.827 34.5696C354.426 34.5696 354.08 34.4749 353.791 34.2854C353.501 34.096 353.278 33.835 353.122 33.5026C352.966 33.1701 352.888 32.7902 352.888 32.363C352.888 31.9284 352.968 31.5449 353.127 31.2124C353.289 30.8781 353.514 30.6171 353.802 30.4295C354.091 30.24 354.43 30.1453 354.816 30.1453C355.117 30.1453 355.388 30.201 355.629 30.3125C355.871 30.4239 356.069 30.5799 356.223 30.7805C356.377 30.9811 356.473 31.2152 356.51 31.4826H355.852C355.802 31.2876 355.691 31.1149 355.518 30.9644C355.347 30.8121 355.117 30.736 354.827 30.736C354.571 30.736 354.346 30.8028 354.153 30.9366C353.961 31.0684 353.812 31.2551 353.704 31.4966C353.598 31.7362 353.545 32.0176 353.545 32.3408C353.545 32.6714 353.597 32.9593 353.701 33.2044C353.807 33.4496 353.956 33.64 354.147 33.7756C354.34 33.9112 354.567 33.979 354.827 33.979C354.998 33.979 355.153 33.9493 355.292 33.8898C355.432 33.8304 355.55 33.7449 355.646 33.6335C355.743 33.5221 355.811 33.3883 355.852 33.2323H356.51C356.473 33.4849 356.381 33.7124 356.234 33.9149C356.089 34.1155 355.897 34.2752 355.657 34.3941C355.419 34.5111 355.143 34.5696 354.827 34.5696ZM359.21 34.5696C358.823 34.5696 358.484 34.4777 358.193 34.2938C357.903 34.1099 357.676 33.8527 357.513 33.5221C357.351 33.1914 357.27 32.8051 357.27 32.363C357.27 31.9173 357.351 31.5281 357.513 31.1957C357.676 30.8632 357.903 30.605 358.193 30.4211C358.484 30.2373 358.823 30.1453 359.21 30.1453C359.596 30.1453 359.934 30.2373 360.224 30.4211C360.515 30.605 360.742 30.8632 360.903 31.1957C361.067 31.5281 361.149 31.9173 361.149 32.363C361.149 32.8051 361.067 33.1914 360.903 33.5221C360.742 33.8527 360.515 34.1099 360.224 34.2938C359.934 34.4777 359.596 34.5696 359.21 34.5696ZM359.21 33.979C359.503 33.979 359.744 33.9037 359.934 33.7533C360.123 33.6029 360.264 33.405 360.355 33.1599C360.446 32.9147 360.491 32.6491 360.491 32.363C360.491 32.077 360.446 31.8105 360.355 31.5634C360.264 31.3164 360.123 31.1167 359.934 30.9644C359.744 30.8121 359.503 30.736 359.21 30.736C358.916 30.736 358.675 30.8121 358.485 30.9644C358.296 31.1167 358.155 31.3164 358.064 31.5634C357.973 31.8105 357.928 32.077 357.928 32.363C357.928 32.6491 357.973 32.9147 358.064 33.1599C358.155 33.405 358.296 33.6029 358.485 33.7533C358.675 33.9037 358.916 33.979 359.21 33.979ZM362.152 34.4805V30.201H362.788V30.8697H362.843C362.932 30.6412 363.076 30.4639 363.275 30.3376C363.474 30.2094 363.713 30.1453 363.991 30.1453C364.273 30.1453 364.508 30.2094 364.696 30.3376C364.885 30.4639 365.033 30.6412 365.139 30.8697H365.184C365.293 30.6487 365.458 30.4731 365.677 30.3431C365.896 30.2112 366.159 30.1453 366.465 30.1453C366.848 30.1453 367.161 30.2651 367.404 30.5047C367.647 30.7425 367.769 31.113 367.769 31.6164V34.4805H367.112V31.6164C367.112 31.3006 367.025 31.0749 366.852 30.9393C366.68 30.8038 366.476 30.736 366.242 30.736C365.941 30.736 365.708 30.827 365.543 31.009C365.378 31.1892 365.295 31.4176 365.295 31.6944V34.4805H364.626V31.5495C364.626 31.3062 364.547 31.1102 364.39 30.9616C364.232 30.8112 364.028 30.736 363.779 30.736C363.609 30.736 363.449 30.7815 363.3 30.8725C363.153 30.9635 363.035 31.0898 362.944 31.2514C362.854 31.4111 362.81 31.5959 362.81 31.8058V34.4805H362.152Z" fill="black"/>
</svg>
