<svg width="24" height="24" viewBox="0 0 24 24" fill="none" xmlns="http://www.w3.org/2000/svg">
<g clip-path="url(#clip0_2159_2793)">
<path d="M13.4947 6.74625V0.443325C14.3862 0.779997 15.196 1.30233 15.8703 1.97569L19.228 5.33532C19.9022 6.00887 20.4249 6.81843 20.7614 7.71H14.4584C14.2028 7.71 13.9577 7.60846 13.777 7.42772C13.5962 7.24699 13.4947 7.00185 13.4947 6.74625ZM21.2047 10.1049V18.3112C21.2032 19.5888 20.695 20.8136 19.7916 21.7169C18.8883 22.6203 17.6635 23.1285 16.3859 23.13H6.74844C5.4709 23.1285 4.24612 22.6203 3.34276 21.7169C2.4394 20.8136 1.93122 19.5888 1.92969 18.3112V4.81875C1.93122 3.54121 2.4394 2.31643 3.34276 1.41307C4.24612 0.50971 5.4709 0.0015303 6.74844 0L11.0998 0C11.2569 0 11.412 0.0125287 11.5672 0.02313V6.74625C11.5672 7.51306 11.8718 8.24846 12.414 8.79067C12.9562 9.33289 13.6916 9.6375 14.4584 9.6375H21.1816C21.1922 9.79266 21.2047 9.94783 21.2047 10.1049ZM13.4947 18.3112C13.4947 18.0556 13.3931 17.8105 13.2124 17.6298C13.0317 17.449 12.7865 17.3475 12.5309 17.3475H7.71219C7.45659 17.3475 7.21145 17.449 7.03071 17.6298C6.84998 17.8105 6.74844 18.0556 6.74844 18.3112C6.74844 18.5669 6.84998 18.812 7.03071 18.9927C7.21145 19.1735 7.45659 19.275 7.71219 19.275H12.5309C12.7865 19.275 13.0317 19.1735 13.2124 18.9927C13.3931 18.812 13.4947 18.5669 13.4947 18.3112ZM16.3859 14.4562C16.3859 14.2006 16.2844 13.9555 16.1037 13.7748C15.9229 13.594 15.6778 13.4925 15.4222 13.4925H7.71219C7.45659 13.4925 7.21145 13.594 7.03071 13.7748C6.84998 13.9555 6.74844 14.2006 6.74844 14.4562C6.74844 14.7119 6.84998 14.957 7.03071 15.1377C7.21145 15.3185 7.45659 15.42 7.71219 15.42H15.4222C15.6778 15.42 15.9229 15.3185 16.1037 15.1377C16.2844 14.957 16.3859 14.7119 16.3859 14.4562Z" fill="#7D7D7D"/>
</g>
<defs>
<clipPath id="clip0_2159_2793">
<rect width="23.13" height="23.13" fill="white"/>
</clipPath>
</defs>
</svg>
