<svg width="115" height="40" viewBox="0 0 115 40" fill="none" xmlns="http://www.w3.org/2000/svg">
<path d="M30.6079 29.8469C30.5651 30.123 30.3342 30.3165 30.092 30.279C29.8498 30.2415 29.6881 29.9873 29.7308 29.7112C29.7735 29.4351 30.0045 29.2416 30.2467 29.2791C30.4889 29.3166 30.6506 29.5708 30.6079 29.8469Z" fill="#35B2C2"/>
<path d="M31.525 28.242C31.4823 28.5181 31.2513 28.7115 31.0091 28.674C30.7669 28.6365 30.6052 28.3823 30.6479 28.1062C30.6907 27.8301 30.9217 27.6367 31.1638 27.6742C31.406 27.7117 31.5677 27.9659 31.525 28.242Z" fill="#35B2C2"/>
<path d="M32.2893 26.637C32.2465 26.9131 32.0155 27.1065 31.7734 27.0691C31.5312 27.0316 31.3695 26.7774 31.4122 26.5013C31.4549 26.2252 31.6859 26.0317 31.9281 26.0692C32.1703 26.1067 32.332 26.3609 32.2893 26.637Z" fill="#35B2C2"/>
<path d="M32.8243 24.8792C32.7815 25.1553 32.5505 25.3487 32.3083 25.3112C32.0661 25.2738 31.9044 25.0195 31.9472 24.7434C31.9899 24.4673 32.2209 24.2739 32.4631 24.3114C32.7053 24.3489 32.867 24.6031 32.8243 24.8792Z" fill="#35B2C2"/>
<path d="M33.2064 23.1214C33.1636 23.3975 32.9327 23.5909 32.6905 23.5534C32.4483 23.5159 32.2866 23.2617 32.3293 22.9856C32.3721 22.7095 32.603 22.5161 32.8452 22.5536C33.0874 22.5911 33.2491 22.8453 33.2064 23.1214Z" fill="#35B2C2"/>
<path d="M33.3592 21.3636C33.3165 21.6397 33.0855 21.8331 32.8433 21.7956C32.6011 21.7581 32.4394 21.5039 32.4822 21.2278C32.5249 20.9517 32.7559 20.7583 32.9981 20.7958C33.2403 20.8333 33.402 21.0875 33.3592 21.3636Z" fill="#35B2C2"/>
<path d="M33.4357 19.5293C33.3929 19.8054 33.1619 19.9989 32.9197 19.9614C32.6776 19.9239 32.5159 19.6697 32.5586 19.3936C32.6013 19.1175 32.8323 18.9241 33.0745 18.9615C33.3167 18.999 33.4784 19.2532 33.4357 19.5293Z" fill="#35B2C2"/>
<path d="M33.2828 17.7715C33.2401 18.0476 33.0091 18.2411 32.7669 18.2036C32.5247 18.1661 32.363 17.9119 32.4057 17.6358C32.4485 17.3597 32.6795 17.1662 32.9217 17.2037C33.1639 17.2412 33.3255 17.4954 33.2828 17.7715Z" fill="#35B2C2"/>
<path d="M32.9007 16.0901C32.8579 16.3662 32.627 16.5597 32.3848 16.5222C32.1426 16.4847 31.9809 16.2305 32.0236 15.9544C32.0663 15.6783 32.2973 15.4849 32.5395 15.5223C32.7817 15.5598 32.9434 15.814 32.9007 16.0901Z" fill="#35B2C2"/>
<path d="M32.3657 14.4088C32.323 14.6849 32.092 14.8783 31.8498 14.8408C31.6076 14.8033 31.4459 14.5491 31.4886 14.273C31.5314 13.9969 31.7623 13.8035 32.0045 13.841C32.2467 13.8785 32.4084 14.1327 32.3657 14.4088Z" fill="#35B2C2"/>
<path d="M31.6779 12.8802C31.6351 13.1563 31.4041 13.3498 31.1619 13.3123C30.9197 13.2748 30.758 13.0206 30.8008 12.7445C30.8435 12.4684 31.0745 12.2749 31.3167 12.3124C31.5589 12.3499 31.7206 12.6041 31.6779 12.8802Z" fill="#35B2C2"/>
<path d="M30.8372 11.4281C30.7944 11.7042 30.5634 11.8977 30.3212 11.8602C30.079 11.8227 29.9174 11.5685 29.9601 11.2924C30.0028 11.0163 30.2338 10.8228 30.476 10.8603C30.7182 10.8978 30.8799 11.152 30.8372 11.4281Z" fill="#35B2C2"/>
<path d="M29.8436 10.1289C29.8009 10.405 29.5699 10.5984 29.3277 10.5609C29.0855 10.5234 28.9238 10.2692 28.9665 9.99312C29.0093 9.71702 29.2403 9.52359 29.4825 9.56108C29.7247 9.59856 29.8863 9.85278 29.8436 10.1289Z" fill="#35B2C2"/>
<path d="M28.6972 8.98248C28.6545 9.25858 28.4235 9.45201 28.1813 9.41452C27.9391 9.37703 27.7774 9.12282 27.8201 8.84672C27.8629 8.57062 28.0939 8.37719 28.3361 8.41468C28.5783 8.45217 28.74 8.70638 28.6972 8.98248Z" fill="#35B2C2"/>
<path d="M27.398 7.98893C27.3552 8.26503 27.1242 8.45847 26.882 8.42098C26.6399 8.38349 26.4782 8.12928 26.5209 7.85318C26.5636 7.57708 26.7946 7.38364 27.0368 7.42113C27.279 7.45862 27.4407 7.71283 27.398 7.98893Z" fill="#35B2C2"/>
<path d="M26.0223 7.14824C25.9795 7.42434 25.7486 7.61777 25.5064 7.58028C25.2642 7.5428 25.1025 7.28858 25.1452 7.01248C25.188 6.73638 25.4189 6.54295 25.6611 6.58044C25.9033 6.61793 26.065 6.87214 26.0223 7.14824Z" fill="#35B2C2"/>
<path d="M24.5702 6.53683C24.5274 6.81293 24.2965 7.00636 24.0543 6.96887C23.8121 6.93138 23.6504 6.67717 23.6931 6.40107C23.7358 6.12497 23.9668 5.93154 24.209 5.96903C24.4512 6.00652 24.6129 6.26073 24.5702 6.53683Z" fill="#35B2C2"/>
<path d="M23.0417 6.1547C22.9989 6.4308 22.7679 6.62423 22.5257 6.58674C22.2835 6.54925 22.1218 6.29504 22.1646 6.01894C22.2073 5.74284 22.4383 5.54941 22.6805 5.58689C22.9227 5.62438 23.0844 5.8786 23.0417 6.1547Z" fill="#35B2C2"/>
<path d="M21.4367 5.92542C21.394 6.20152 21.163 6.39495 20.9208 6.35746C20.6786 6.31997 20.5169 6.06576 20.5596 5.78966C20.6024 5.51356 20.8333 5.32013 21.0755 5.35761C21.3177 5.3951 21.4794 5.64932 21.4367 5.92542Z" fill="#35B2C2"/>
<path d="M19.8317 5.92542C19.789 6.20152 19.558 6.39495 19.3158 6.35746C19.0736 6.31997 18.9119 6.06576 18.9547 5.78966C18.9974 5.51356 19.2284 5.32013 19.4706 5.35761C19.7128 5.3951 19.8745 5.64932 19.8317 5.92542Z" fill="#35B2C2"/>
<path d="M18.3032 6.07827C18.2605 6.35437 18.0295 6.5478 17.7873 6.51031C17.5451 6.47282 17.3834 6.21861 17.4261 5.94251C17.4689 5.66641 17.6999 5.47298 17.9421 5.51047C18.1842 5.54796 18.3459 5.80217 18.3032 6.07827Z" fill="#35B2C2"/>
<path d="M16.6982 6.4604C16.6555 6.7365 16.4245 6.92993 16.1823 6.89245C15.9401 6.85496 15.7784 6.60074 15.8212 6.32464C15.8639 6.04854 16.0949 5.85511 16.3371 5.8926C16.5793 5.93009 16.741 6.1843 16.6982 6.4604Z" fill="#35B2C2"/>
<path d="M15.1697 7.07182C15.127 7.34792 14.896 7.54135 14.6538 7.50386C14.4116 7.46637 14.2499 7.21216 14.2926 6.93606C14.3354 6.65996 14.5664 6.46652 14.8086 6.50401C15.0508 6.5415 15.2124 6.79572 15.1697 7.07182Z" fill="#35B2C2"/>
<path d="M13.7176 7.83608C13.6749 8.11218 13.4439 8.30561 13.2017 8.26812C12.9595 8.23063 12.7978 7.97642 12.8405 7.70032C12.8833 7.42422 13.1143 7.23079 13.3565 7.26828C13.5987 7.30577 13.7603 7.55998 13.7176 7.83608Z" fill="#35B2C2"/>
<path d="M12.2655 8.82963C12.2228 9.10573 11.9918 9.29916 11.7496 9.26167C11.5074 9.22418 11.3457 8.96997 11.3884 8.69387C11.4312 8.41777 11.6622 8.22434 11.9044 8.26182C12.1465 8.29931 12.3082 8.55353 12.2655 8.82963Z" fill="#35B2C2"/>
<path d="M11.0427 9.97602C10.9999 10.2521 10.769 10.4456 10.5268 10.4081C10.2846 10.3706 10.1229 10.1164 10.1656 9.84027C10.2083 9.56417 10.4393 9.37073 10.6815 9.40822C10.9237 9.44571 11.0854 9.69992 11.0427 9.97602Z" fill="#35B2C2"/>
<path d="M9.81986 11.2753C9.77712 11.5514 9.54613 11.7448 9.30394 11.7073C9.06174 11.6698 8.90005 11.4156 8.94279 11.1395C8.98552 10.8634 9.21651 10.67 9.4587 10.7075C9.7009 10.745 9.86259 10.9992 9.81986 11.2753Z" fill="#35B2C2"/>
<path d="M8.74988 12.7274C8.70715 13.0035 8.47616 13.1969 8.23397 13.1594C7.99177 13.1219 7.83008 12.8677 7.87281 12.5916C7.91555 12.3155 8.14653 12.1221 8.38873 12.1596C8.63093 12.1971 8.79262 12.4513 8.74988 12.7274Z" fill="#35B2C2"/>
<path d="M7.90919 14.3323C7.86645 14.6084 7.63547 14.8019 7.39328 14.7644C7.15108 14.7269 6.98939 14.4727 7.03212 14.1966C7.07486 13.9205 7.30584 13.727 7.54804 13.7645C7.79023 13.802 7.95193 14.0562 7.90919 14.3323Z" fill="#35B2C2"/>
<path d="M7.22135 15.9373C7.17862 16.2134 6.94763 16.4068 6.70544 16.3693C6.46324 16.3319 6.30155 16.0776 6.34428 15.8015C6.38702 15.5254 6.618 15.332 6.8602 15.3695C7.1024 15.407 7.26409 15.6612 7.22135 15.9373Z" fill="#35B2C2"/>
<path d="M6.60994 17.6187C6.5672 17.8948 6.33622 18.0882 6.09402 18.0507C5.85183 18.0132 5.69013 17.759 5.73287 17.4829C5.77561 17.2068 6.00659 17.0134 6.24879 17.0509C6.49098 17.0884 6.65268 17.3426 6.60994 17.6187Z" fill="#35B2C2"/>
<path d="M6.22781 19.3765C6.18507 19.6526 5.95409 19.846 5.71189 19.8085C5.4697 19.771 5.308 19.5168 5.35074 19.2407C5.39347 18.9646 5.62446 18.7712 5.86665 18.8087C6.10885 18.8462 6.27054 19.1004 6.22781 19.3765Z" fill="#35B2C2"/>
<path d="M5.99853 21.2107C5.95579 21.4868 5.72481 21.6803 5.48261 21.6428C5.24042 21.6053 5.07872 21.3511 5.12146 21.075C5.16419 20.7989 5.39518 20.6054 5.63737 20.6429C5.87957 20.6804 6.04126 20.9346 5.99853 21.2107Z" fill="#35B2C2"/>
<path d="M5.99853 23.045C5.95579 23.3211 5.72481 23.5145 5.48261 23.477C5.24042 23.4395 5.07872 23.1853 5.12146 22.9092C5.16419 22.6331 5.39518 22.4397 5.63737 22.4772C5.87957 22.5147 6.04126 22.7689 5.99853 23.045Z" fill="#35B2C2"/>
<path d="M6.15138 24.8028C6.10864 25.0789 5.87766 25.2723 5.63546 25.2348C5.39327 25.1973 5.23157 24.9431 5.27431 24.667C5.31705 24.3909 5.54803 24.1975 5.79023 24.235C6.03242 24.2725 6.19412 24.5267 6.15138 24.8028Z" fill="#35B2C2"/>
<path d="M6.53351 26.5606C6.49078 26.8367 6.25979 27.0301 6.0176 26.9926C5.7754 26.9551 5.61371 26.7009 5.65644 26.4248C5.69918 26.1487 5.93016 25.9553 6.17236 25.9928C6.41456 26.0303 6.57625 26.2845 6.53351 26.5606Z" fill="#35B2C2"/>
<path d="M7.0685 28.0891C7.02576 28.3652 6.79478 28.5587 6.55258 28.5212C6.31039 28.4837 6.14869 28.2295 6.19143 27.9534C6.23417 27.6773 6.46515 27.4838 6.70735 27.5213C6.94954 27.5588 7.11123 27.813 7.0685 28.0891Z" fill="#35B2C2"/>
<path d="M7.75634 29.6941C7.7136 29.9702 7.48262 30.1636 7.24042 30.1261C6.99823 30.0886 6.83653 29.8344 6.87927 29.5583C6.92201 29.2822 7.15299 29.0888 7.39518 29.1263C7.63738 29.1638 7.79907 29.418 7.75634 29.6941Z" fill="#35B2C2"/>
<path d="M8.59703 31.1462C8.55429 31.4223 8.32331 31.6157 8.08111 31.5782C7.83892 31.5407 7.67722 31.2865 7.71996 31.0104C7.7627 30.7343 7.99368 30.5409 8.23588 30.5784C8.47807 30.6159 8.63977 30.8701 8.59703 31.1462Z" fill="#35B2C2"/>
<path d="M9.59057 32.4454C9.54784 32.7215 9.31686 32.915 9.07466 32.8775C8.83246 32.84 8.67077 32.5858 8.71351 32.3097C8.75624 32.0336 8.98723 31.8401 9.22942 31.8776C9.47162 31.9151 9.63331 32.1693 9.59057 32.4454Z" fill="#35B2C2"/>
<path d="M10.8134 33.5918C10.7707 33.8679 10.5397 34.0614 10.2975 34.0239C10.0553 33.9864 9.89359 33.7322 9.93633 33.4561C9.97907 33.18 10.2101 32.9865 10.4522 33.024C10.6944 33.0615 10.8561 33.3157 10.8134 33.5918Z" fill="#35B2C2"/>
<path d="M12.0362 34.5854C11.9935 34.8615 11.7625 35.0549 11.5203 35.0174C11.2781 34.9799 11.1164 34.7257 11.1592 34.4496C11.2019 34.1735 11.4329 33.9801 11.6751 34.0176C11.9173 34.0551 12.079 34.3093 12.0362 34.5854Z" fill="#35B2C2"/>
<path d="M13.4119 35.4261C13.3692 35.7022 13.1382 35.8956 12.896 35.8581C12.6538 35.8206 12.4921 35.5664 12.5348 35.2903C12.5776 35.0142 12.8086 34.8208 13.0507 34.8583C13.2929 34.8958 13.4546 35.15 13.4119 35.4261Z" fill="#35B2C2"/>
<path d="M14.864 36.0375C14.8213 36.3136 14.5903 36.507 14.3481 36.4695C14.1059 36.432 13.9442 36.1778 13.9869 35.9017C14.0297 35.6256 14.2607 35.4322 14.5029 35.4697C14.7451 35.5072 14.9067 35.7614 14.864 36.0375Z" fill="#35B2C2"/>
<path d="M16.3925 36.4196C16.3498 36.6957 16.1188 36.8891 15.8766 36.8517C15.6344 36.8142 15.4727 36.56 15.5155 36.2839C15.5582 36.0078 15.7892 35.8143 16.0314 35.8518C16.2736 35.8893 16.4353 36.1435 16.3925 36.4196Z" fill="#35B2C2"/>
<path d="M17.9975 36.6489C17.9548 36.925 17.7238 37.1184 17.4816 37.0809C17.2394 37.0434 17.0777 36.7892 17.1204 36.5131C17.1632 36.237 17.3941 36.0436 17.6363 36.0811C17.8785 36.1186 18.0402 36.3728 17.9975 36.6489Z" fill="#35B2C2"/>
<path d="M19.526 36.6489C19.4833 36.925 19.2523 37.1184 19.0101 37.0809C18.7679 37.0434 18.6062 36.7892 18.649 36.5131C18.6917 36.237 18.9227 36.0436 19.1649 36.0811C19.4071 36.1186 19.5688 36.3728 19.526 36.6489Z" fill="#35B2C2"/>
<path d="M21.131 36.496C21.0882 36.7721 20.8573 36.9656 20.6151 36.9281C20.3729 36.8906 20.2112 36.6364 20.2539 36.3603C20.2967 36.0842 20.5276 35.8908 20.7698 35.9282C21.012 35.9657 21.1737 36.2199 21.131 36.496Z" fill="#35B2C2"/>
<path d="M22.7359 36.1139C22.6932 36.39 22.4622 36.5834 22.22 36.546C21.9778 36.5085 21.8161 36.2542 21.8589 35.9782C21.9016 35.7021 22.1326 35.5086 22.3748 35.5461C22.617 35.5836 22.7787 35.8378 22.7359 36.1139Z" fill="#35B2C2"/>
<path d="M24.2645 35.5025C24.2217 35.7786 23.9908 35.972 23.7486 35.9345C23.5064 35.8971 23.3447 35.6428 23.3874 35.3667C23.4301 35.0906 23.6611 34.8972 23.9033 34.9347C24.1455 34.9722 24.3072 35.2264 24.2645 35.5025Z" fill="#35B2C2"/>
<path d="M25.7166 34.6618C25.6738 34.9379 25.4429 35.1313 25.2007 35.0938C24.9585 35.0564 24.7968 34.8021 24.8395 34.526C24.8822 34.2499 25.1132 34.0565 25.3554 34.094C25.5976 34.1315 25.7593 34.3857 25.7166 34.6618Z" fill="#35B2C2"/>
<path d="M27.0923 33.6683C27.0495 33.9444 26.8185 34.1378 26.5763 34.1003C26.3341 34.0628 26.1725 33.8086 26.2152 33.5325C26.2579 33.2564 26.4889 33.063 26.7311 33.1005C26.9733 33.1379 27.135 33.3922 27.0923 33.6683Z" fill="#35B2C2"/>
<path d="M28.3915 32.5219C28.3488 32.798 28.1178 32.9914 27.8756 32.9539C27.6334 32.9164 27.4717 32.6622 27.5144 32.3861C27.5572 32.11 27.7882 31.9166 28.0304 31.9541C28.2726 31.9915 28.4342 32.2458 28.3915 32.5219Z" fill="#35B2C2"/>
<path d="M29.6143 31.299C29.5716 31.5751 29.3406 31.7686 29.0984 31.7311C28.8562 31.6936 28.6945 31.4394 28.7373 31.1633C28.78 30.8872 29.011 30.6937 29.2532 30.7312C29.4954 30.7687 29.6571 31.0229 29.6143 31.299Z" fill="#35B2C2"/>
<path d="M14.7503 38.0385C14.7503 38.3973 14.4595 38.6881 14.1007 38.6881C13.7419 38.6881 13.4511 38.3973 13.4511 38.0385C13.4511 37.6797 13.7419 37.3889 14.1007 37.3889C14.4595 37.3889 14.7503 37.6797 14.7503 38.0385Z" fill="#35B2C2"/>
<path d="M16.8903 38.4971C16.8903 38.8559 16.5994 39.1467 16.2406 39.1467C15.8819 39.1467 15.591 38.8559 15.591 38.4971C15.591 38.1383 15.8819 37.8475 16.2406 37.8475C16.5994 37.8475 16.8903 38.1383 16.8903 38.4971Z" fill="#35B2C2"/>
<path d="M19.0302 38.7264C19.0302 39.0851 18.7394 39.376 18.3806 39.376C18.0218 39.376 17.731 39.0851 17.731 38.7264C17.731 38.3676 18.0218 38.0767 18.3806 38.0767C18.7394 38.0767 19.0302 38.3676 19.0302 38.7264Z" fill="#35B2C2"/>
<path d="M21.323 38.7264C21.323 39.0851 21.0322 39.376 20.6734 39.376C20.3146 39.376 20.0238 39.0851 20.0238 38.7264C20.0238 38.3676 20.3146 38.0767 20.6734 38.0767C21.0322 38.0767 21.323 38.3676 21.323 38.7264Z" fill="#35B2C2"/>
<path d="M23.463 38.4971C23.463 38.8559 23.1721 39.1467 22.8133 39.1467C22.4546 39.1467 22.1637 38.8559 22.1637 38.4971C22.1637 38.1383 22.4546 37.8475 22.8133 37.8475C23.1721 37.8475 23.463 38.1383 23.463 38.4971Z" fill="#35B2C2"/>
<path d="M25.6029 38.0385C25.6029 38.3973 25.3121 38.6881 24.9533 38.6881C24.5945 38.6881 24.3036 38.3973 24.3036 38.0385C24.3036 37.6797 24.5945 37.3889 24.9533 37.3889C25.3121 37.3889 25.6029 37.6797 25.6029 38.0385Z" fill="#35B2C2"/>
<path d="M27.6664 37.1978C27.6664 37.5566 27.3756 37.8475 27.0168 37.8475C26.658 37.8475 26.3672 37.5566 26.3672 37.1978C26.3672 36.839 26.658 36.5482 27.0168 36.5482C27.3756 36.5482 27.6664 36.839 27.6664 37.1978Z" fill="#35B2C2"/>
<path d="M29.6535 36.2807C29.6535 36.6395 29.3627 36.9303 29.0039 36.9303C28.6451 36.9303 28.3543 36.6395 28.3543 36.2807C28.3543 35.9219 28.6451 35.6311 29.0039 35.6311C29.3627 35.6311 29.6535 35.9219 29.6535 36.2807Z" fill="#35B2C2"/>
<path d="M31.4877 34.9815C31.4877 35.3402 31.1969 35.6311 30.8381 35.6311C30.4793 35.6311 30.1885 35.3402 30.1885 34.9815C30.1885 34.6227 30.4793 34.3318 30.8381 34.3318C31.1969 34.3318 31.4877 34.6227 31.4877 34.9815Z" fill="#35B2C2"/>
<path d="M33.1691 33.6822C33.1691 34.041 32.8783 34.3318 32.5195 34.3318C32.1607 34.3318 31.8699 34.041 31.8699 33.6822C31.8699 33.3234 32.1607 33.0326 32.5195 33.0326C32.8783 33.0326 33.1691 33.3234 33.1691 33.6822Z" fill="#35B2C2"/>
<path d="M34.6977 32.0008C34.6977 32.3596 34.4068 32.6504 34.048 32.6504C33.6893 32.6504 33.3984 32.3596 33.3984 32.0008C33.3984 31.642 33.6893 31.3512 34.048 31.3512C34.4068 31.3512 34.6977 31.642 34.6977 32.0008Z" fill="#35B2C2"/>
<path d="M35.9969 30.243C35.9969 30.6018 35.7061 30.8926 35.3473 30.8926C34.9885 30.8926 34.6977 30.6018 34.6977 30.243C34.6977 29.8842 34.9885 29.5934 35.3473 29.5934C35.7061 29.5934 35.9969 29.8842 35.9969 30.243Z" fill="#35B2C2"/>
<path d="M37.0669 28.3323C37.0669 28.6911 36.776 28.982 36.4173 28.982C36.0585 28.982 35.7676 28.6911 35.7676 28.3323C35.7676 27.9736 36.0585 27.6827 36.4173 27.6827C36.776 27.6827 37.0669 27.9736 37.0669 28.3323Z" fill="#35B2C2"/>
<path d="M37.984 26.3453C37.984 26.704 37.6932 26.9949 37.3344 26.9949C36.9756 26.9949 36.6847 26.704 36.6847 26.3453C36.6847 25.9865 36.9756 25.6956 37.3344 25.6956C37.6932 25.6956 37.984 25.9865 37.984 26.3453Z" fill="#35B2C2"/>
<path d="M38.5954 24.2817C38.5954 24.6405 38.3046 24.9314 37.9458 24.9314C37.587 24.9314 37.2962 24.6405 37.2962 24.2817C37.2962 23.923 37.587 23.6321 37.9458 23.6321C38.3046 23.6321 38.5954 23.923 38.5954 24.2817Z" fill="#35B2C2"/>
<path d="M38.9775 22.0654C38.9775 22.4241 38.6867 22.715 38.3279 22.715C37.9691 22.715 37.6783 22.4241 37.6783 22.0654C37.6783 21.7066 37.9691 21.4157 38.3279 21.4157C38.6867 21.4157 38.9775 21.7066 38.9775 22.0654Z" fill="#35B2C2"/>
<path d="M38.9775 19.849C38.9775 20.2078 38.6867 20.4986 38.3279 20.4986C37.9691 20.4986 37.6783 20.2078 37.6783 19.849C37.6783 19.4902 37.9691 19.1994 38.3279 19.1994C38.6867 19.1994 38.9775 19.4902 38.9775 19.849Z" fill="#35B2C2"/>
<path d="M38.9775 17.6326C38.9775 17.9914 38.6867 18.2823 38.3279 18.2823C37.9691 18.2823 37.6783 17.9914 37.6783 17.6326C37.6783 17.2738 37.9691 16.983 38.3279 16.983C38.6867 16.983 38.9775 17.2738 38.9775 17.6326Z" fill="#35B2C2"/>
<path d="M38.5954 15.5691C38.5954 15.9279 38.3046 16.2187 37.9458 16.2187C37.587 16.2187 37.2962 15.9279 37.2962 15.5691C37.2962 15.2103 37.587 14.9195 37.9458 14.9195C38.3046 14.9195 38.5954 15.2103 38.5954 15.5691Z" fill="#35B2C2"/>
<path d="M37.984 13.3527C37.984 13.7115 37.6932 14.0024 37.3344 14.0024C36.9756 14.0024 36.6847 13.7115 36.6847 13.3527C36.6847 12.994 36.9756 12.7031 37.3344 12.7031C37.6932 12.7031 37.984 12.994 37.984 13.3527Z" fill="#35B2C2"/>
<path d="M37.0669 11.4421C37.0669 11.8009 36.776 12.0917 36.4173 12.0917C36.0585 12.0917 35.7676 11.8009 35.7676 11.4421C35.7676 11.0833 36.0585 10.7925 36.4173 10.7925C36.776 10.7925 37.0669 11.0833 37.0669 11.4421Z" fill="#35B2C2"/>
<path d="M35.9969 9.53141C35.9969 9.89019 35.7061 10.181 35.3473 10.181C34.9885 10.181 34.6977 9.89019 34.6977 9.53141C34.6977 9.17263 34.9885 8.88179 35.3473 8.88179C35.7061 8.88179 35.9969 9.17263 35.9969 9.53141Z" fill="#35B2C2"/>
<path d="M34.6977 7.85003C34.6977 8.20881 34.4068 8.49965 34.048 8.49965C33.6893 8.49965 33.3984 8.20881 33.3984 7.85003C33.3984 7.49125 33.6893 7.2004 34.048 7.2004C34.4068 7.2004 34.6977 7.49125 34.6977 7.85003Z" fill="#35B2C2"/>
<path d="M33.0927 6.09222C33.0927 6.45099 32.8019 6.74184 32.4431 6.74184C32.0843 6.74184 31.7935 6.45099 31.7935 6.09222C31.7935 5.73344 32.0843 5.44259 32.4431 5.44259C32.8019 5.44259 33.0927 5.73344 33.0927 6.09222Z" fill="#35B2C2"/>
<path d="M31.4877 4.79296C31.4877 5.15174 31.1969 5.44259 30.8381 5.44259C30.4793 5.44259 30.1885 5.15174 30.1885 4.79296C30.1885 4.43419 30.4793 4.14334 30.8381 4.14334C31.1969 4.14334 31.4877 4.43419 31.4877 4.79296Z" fill="#35B2C2"/>
<path d="M29.6535 3.49371C29.6535 3.85249 29.3627 4.14334 29.0039 4.14334C28.6451 4.14334 28.3543 3.85249 28.3543 3.49371C28.3543 3.13493 28.6451 2.84409 29.0039 2.84409C29.3627 2.84409 29.6535 3.13493 29.6535 3.49371Z" fill="#35B2C2"/>
<path d="M27.7428 2.57659C27.7428 2.93537 27.452 3.22622 27.0932 3.22622C26.7344 3.22622 26.4436 2.93537 26.4436 2.57659C26.4436 2.21782 26.7344 1.92697 27.0932 1.92697C27.452 1.92697 27.7428 2.21782 27.7428 2.57659Z" fill="#35B2C2"/>
<path d="M25.6029 1.7359C25.6029 2.09468 25.3121 2.38553 24.9533 2.38553C24.5945 2.38553 24.3036 2.09468 24.3036 1.7359C24.3036 1.37712 24.5945 1.08628 24.9533 1.08628C25.3121 1.08628 25.6029 1.37712 25.6029 1.7359Z" fill="#35B2C2"/>
<path d="M23.5394 1.27734C23.5394 1.63612 23.2485 1.92697 22.8898 1.92697C22.531 1.92697 22.2401 1.63612 22.2401 1.27734C22.2401 0.918565 22.531 0.627717 22.8898 0.627717C23.2485 0.627717 23.5394 0.918565 23.5394 1.27734Z" fill="#35B2C2"/>
<path d="M21.2466 1.04806C21.2466 1.40684 20.9557 1.69769 20.597 1.69769C20.2382 1.69769 19.9473 1.40684 19.9473 1.04806C19.9473 0.689285 20.2382 0.398438 20.597 0.398438C20.9557 0.398438 21.2466 0.689285 21.2466 1.04806Z" fill="#35B2C2"/>
<path d="M19.1831 1.04806C19.1831 1.40684 18.8922 1.69769 18.5334 1.69769C18.1747 1.69769 17.8838 1.40684 17.8838 1.04806C17.8838 0.689285 18.1747 0.398438 18.5334 0.398438C18.8922 0.398438 19.1831 0.689285 19.1831 1.04806Z" fill="#35B2C2"/>
<path d="M16.8903 1.27734C16.8903 1.63612 16.5994 1.92697 16.2406 1.92697C15.8819 1.92697 15.591 1.63612 15.591 1.27734C15.591 0.918565 15.8819 0.627717 16.2406 0.627717C16.5994 0.627717 16.8903 0.918565 16.8903 1.27734Z" fill="#35B2C2"/>
<path d="M14.7503 1.7359C14.7503 2.09468 14.4595 2.38553 14.1007 2.38553C13.7419 2.38553 13.4511 2.09468 13.4511 1.7359C13.4511 1.37712 13.7419 1.08628 14.1007 1.08628C14.4595 1.08628 14.7503 1.37712 14.7503 1.7359Z" fill="#35B2C2"/>
<path d="M12.7632 2.57659C12.7632 2.93537 12.4724 3.22622 12.1136 3.22622C11.7548 3.22622 11.464 2.93537 11.464 2.57659C11.464 2.21782 11.7548 1.92697 12.1136 1.92697C12.4724 1.92697 12.7632 2.21782 12.7632 2.57659Z" fill="#35B2C2"/>
<path d="M10.6997 3.57014C10.6997 3.92892 10.4089 4.21977 10.0501 4.21977C9.69131 4.21977 9.40047 3.92892 9.40047 3.57014C9.40047 3.21136 9.69131 2.92051 10.0501 2.92051C10.4089 2.92051 10.6997 3.21136 10.6997 3.57014Z" fill="#35B2C2"/>
<path d="M8.86548 4.71654C8.86548 5.07532 8.57463 5.36616 8.21586 5.36616C7.85708 5.36616 7.56623 5.07532 7.56623 4.71654C7.56623 4.35776 7.85708 4.06691 8.21586 4.06691C8.57463 4.06691 8.86548 4.35776 8.86548 4.71654Z" fill="#35B2C2"/>
<path d="M7.1841 6.16864C7.1841 6.52742 6.89325 6.81827 6.53447 6.81827C6.17569 6.81827 5.88485 6.52742 5.88485 6.16864C5.88485 5.80986 6.17569 5.51902 6.53447 5.51902C6.89325 5.51902 7.1841 5.80986 7.1841 6.16864Z" fill="#35B2C2"/>
<path d="M5.73199 7.7736C5.73199 8.13238 5.44114 8.42323 5.08237 8.42323C4.72359 8.42323 4.43274 8.13238 4.43274 7.7736C4.43274 7.41482 4.72359 7.12398 5.08237 7.12398C5.44114 7.12398 5.73199 7.41482 5.73199 7.7736Z" fill="#35B2C2"/>
<path d="M4.43274 9.53141C4.43274 9.89019 4.14189 10.181 3.78311 10.181C3.42434 10.181 3.13349 9.89019 3.13349 9.53141C3.13349 9.17263 3.42434 8.88179 3.78311 8.88179C4.14189 8.88179 4.43274 9.17263 4.43274 9.53141Z" fill="#35B2C2"/>
<path d="M3.28634 11.4421C3.28634 11.8009 2.99549 12.0917 2.63672 12.0917C2.27794 12.0917 1.98709 11.8009 1.98709 11.4421C1.98709 11.0833 2.27794 10.7925 2.63672 10.7925C2.99549 10.7925 3.28634 11.0833 3.28634 11.4421Z" fill="#35B2C2"/>
<path d="M2.36922 13.4292C2.36922 13.7879 2.07838 14.0788 1.7196 14.0788C1.36082 14.0788 1.06997 13.7879 1.06997 13.4292C1.06997 13.0704 1.36082 12.7795 1.7196 12.7795C2.07838 12.7795 2.36922 13.0704 2.36922 13.4292Z" fill="#35B2C2"/>
<path d="M1.75781 15.4927C1.75781 15.8515 1.46696 16.1423 1.10819 16.1423C0.749407 16.1423 0.458559 15.8515 0.458559 15.4927C0.458559 15.1339 0.749407 14.8431 1.10819 14.8431C1.46696 14.8431 1.75781 15.1339 1.75781 15.4927Z" fill="#35B2C2"/>
<path d="M1.4521 17.7855C1.4521 18.1443 1.16126 18.4351 0.802479 18.4351C0.4437 18.4351 0.152853 18.1443 0.152853 17.7855C0.152853 17.4267 0.4437 17.1359 0.802479 17.1359C1.16126 17.1359 1.4521 17.4267 1.4521 17.7855Z" fill="#35B2C2"/>
<path d="M1.29925 20.0019C1.29925 20.3606 1.0084 20.6515 0.649626 20.6515C0.290847 20.6515 0 20.3606 0 20.0019C0 19.6431 0.290847 19.3522 0.649626 19.3522C1.0084 19.3522 1.29925 19.6431 1.29925 20.0019Z" fill="#35B2C2"/>
<path d="M1.4521 22.0654C1.4521 22.4241 1.16126 22.715 0.802479 22.715C0.4437 22.715 0.152853 22.4241 0.152853 22.0654C0.152853 21.7066 0.4437 21.4157 0.802479 21.4157C1.16126 21.4157 1.4521 21.7066 1.4521 22.0654Z" fill="#35B2C2"/>
<path d="M1.75781 24.2817C1.75781 24.6405 1.46696 24.9314 1.10819 24.9314C0.749407 24.9314 0.458559 24.6405 0.458559 24.2817C0.458559 23.923 0.749407 23.6321 1.10819 23.6321C1.46696 23.6321 1.75781 23.923 1.75781 24.2817Z" fill="#35B2C2"/>
<path d="M2.44565 26.3453C2.44565 26.704 2.1548 26.9949 1.79602 26.9949C1.43725 26.9949 1.1464 26.704 1.1464 26.3453C1.1464 25.9865 1.43725 25.6956 1.79602 25.6956C2.1548 25.6956 2.44565 25.9865 2.44565 26.3453Z" fill="#35B2C2"/>
<path d="M3.28634 28.3323C3.28634 28.6911 2.99549 28.982 2.63672 28.982C2.27794 28.982 1.98709 28.6911 1.98709 28.3323C1.98709 27.9736 2.27794 27.6827 2.63672 27.6827C2.99549 27.6827 3.28634 27.9736 3.28634 28.3323Z" fill="#35B2C2"/>
<path d="M4.43274 30.243C4.43274 30.6018 4.14189 30.8926 3.78311 30.8926C3.42434 30.8926 3.13349 30.6018 3.13349 30.243C3.13349 29.8842 3.42434 29.5934 3.78311 29.5934C4.14189 29.5934 4.43274 29.8842 4.43274 30.243Z" fill="#35B2C2"/>
<path d="M5.73199 32.0008C5.73199 32.3596 5.44114 32.6504 5.08237 32.6504C4.72359 32.6504 4.43274 32.3596 4.43274 32.0008C4.43274 31.642 4.72359 31.3512 5.08237 31.3512C5.44114 31.3512 5.73199 31.642 5.73199 32.0008Z" fill="#35B2C2"/>
<path d="M7.26052 33.6822C7.26052 34.041 6.96968 34.3318 6.6109 34.3318C6.25212 34.3318 5.96127 34.041 5.96127 33.6822C5.96127 33.3234 6.25212 33.0326 6.6109 33.0326C6.96968 33.0326 7.26052 33.3234 7.26052 33.6822Z" fill="#35B2C2"/>
<path d="M8.86548 34.9815C8.86548 35.3402 8.57463 35.6311 8.21586 35.6311C7.85708 35.6311 7.56623 35.3402 7.56623 34.9815C7.56623 34.6227 7.85708 34.3318 8.21586 34.3318C8.57463 34.3318 8.86548 34.6227 8.86548 34.9815Z" fill="#35B2C2"/>
<path d="M10.6997 36.2807C10.6997 36.6395 10.4089 36.9303 10.0501 36.9303C9.69131 36.9303 9.40047 36.6395 9.40047 36.2807C9.40047 35.9219 9.69131 35.6311 10.0501 35.6311C10.4089 35.6311 10.6997 35.9219 10.6997 36.2807Z" fill="#35B2C2"/>
<path d="M12.7632 37.1978C12.7632 37.5566 12.4724 37.8475 12.1136 37.8475C11.7548 37.8475 11.464 37.5566 11.464 37.1978C11.464 36.839 11.7548 36.5482 12.1136 36.5482C12.4724 36.5482 12.7632 36.839 12.7632 37.1978Z" fill="#35B2C2"/>
<path d="M10.929 17.9383C10.929 18.1283 10.775 18.2823 10.5851 18.2823C10.3951 18.2823 10.2412 18.1283 10.2412 17.9383C10.2412 17.7484 10.3951 17.5944 10.5851 17.5944C10.775 17.5944 10.929 17.7484 10.929 17.9383Z" fill="#35B2C2"/>
<path d="M11.3876 16.8684C11.3876 17.0583 11.2336 17.2123 11.0436 17.2123C10.8537 17.2123 10.6997 17.0583 10.6997 16.8684C10.6997 16.6784 10.8537 16.5244 11.0436 16.5244C11.2336 16.5244 11.3876 16.6784 11.3876 16.8684Z" fill="#35B2C2"/>
<path d="M12.0754 15.8748C12.0754 16.0648 11.9214 16.2187 11.7315 16.2187C11.5415 16.2187 11.3876 16.0648 11.3876 15.8748C11.3876 15.6849 11.5415 15.5309 11.7315 15.5309C11.9214 15.5309 12.0754 15.6849 12.0754 15.8748Z" fill="#35B2C2"/>
<path d="M12.7632 14.9577C12.7632 15.1476 12.6093 15.3016 12.4193 15.3016C12.2294 15.3016 12.0754 15.1476 12.0754 14.9577C12.0754 14.7678 12.2294 14.6138 12.4193 14.6138C12.6093 14.6138 12.7632 14.7678 12.7632 14.9577Z" fill="#35B2C2"/>
<path d="M13.6039 14.1934C13.6039 14.3834 13.4499 14.5374 13.26 14.5374C13.0701 14.5374 12.9161 14.3834 12.9161 14.1934C12.9161 14.0035 13.0701 13.8495 13.26 13.8495C13.4499 13.8495 13.6039 14.0035 13.6039 14.1934Z" fill="#35B2C2"/>
<path d="M14.521 13.5056C14.521 13.6955 14.3671 13.8495 14.1771 13.8495C13.9872 13.8495 13.8332 13.6955 13.8332 13.5056C13.8332 13.3157 13.9872 13.1617 14.1771 13.1617C14.3671 13.1617 14.521 13.3157 14.521 13.5056Z" fill="#35B2C2"/>
<path d="M15.591 12.8942C15.591 13.0841 15.437 13.2381 15.2471 13.2381C15.0572 13.2381 14.9032 13.0841 14.9032 12.8942C14.9032 12.7042 15.0572 12.5503 15.2471 12.5503C15.437 12.5503 15.591 12.7042 15.591 12.8942Z" fill="#35B2C2"/>
<path d="M16.661 12.512C16.661 12.702 16.507 12.856 16.3171 12.856C16.1271 12.856 15.9732 12.702 15.9732 12.512C15.9732 12.3221 16.1271 12.1681 16.3171 12.1681C16.507 12.1681 16.661 12.3221 16.661 12.512Z" fill="#35B2C2"/>
<path d="M17.731 12.2063C17.731 12.3963 17.577 12.5503 17.387 12.5503C17.1971 12.5503 17.0431 12.3963 17.0431 12.2063C17.0431 12.0164 17.1971 11.8624 17.387 11.8624C17.577 11.8624 17.731 12.0164 17.731 12.2063Z" fill="#35B2C2"/>
<path d="M18.9538 12.0535C18.9538 12.2434 18.7998 12.3974 18.6099 12.3974C18.4199 12.3974 18.2659 12.2434 18.2659 12.0535C18.2659 11.8635 18.4199 11.7096 18.6099 11.7096C18.7998 11.7096 18.9538 11.8635 18.9538 12.0535Z" fill="#35B2C2"/>
<path d="M20.1002 11.9771C20.1002 12.167 19.9462 12.321 19.7563 12.321C19.5663 12.321 19.4123 12.167 19.4123 11.9771C19.4123 11.7871 19.5663 11.6331 19.7563 11.6331C19.9462 11.6331 20.1002 11.7871 20.1002 11.9771Z" fill="#35B2C2"/>
<path d="M21.2466 12.1299C21.2466 12.3199 21.0926 12.4738 20.9027 12.4738C20.7127 12.4738 20.5587 12.3199 20.5587 12.1299C20.5587 11.94 20.7127 11.786 20.9027 11.786C21.0926 11.786 21.2466 11.94 21.2466 12.1299Z" fill="#35B2C2"/>
<path d="M22.393 12.3592C22.393 12.5491 22.239 12.7031 22.0491 12.7031C21.8591 12.7031 21.7051 12.5491 21.7051 12.3592C21.7051 12.1693 21.8591 12.0153 22.0491 12.0153C22.239 12.0153 22.393 12.1693 22.393 12.3592Z" fill="#35B2C2"/>
<path d="M23.5394 12.7413C23.5394 12.9313 23.3854 13.0852 23.1955 13.0852C23.0055 13.0852 22.8515 12.9313 22.8515 12.7413C22.8515 12.5514 23.0055 12.3974 23.1955 12.3974C23.3854 12.3974 23.5394 12.5514 23.5394 12.7413Z" fill="#35B2C2"/>
<path d="M24.6094 13.3527C24.6094 13.5427 24.4554 13.6967 24.2654 13.6967C24.0755 13.6967 23.9215 13.5427 23.9215 13.3527C23.9215 13.1628 24.0755 13.0088 24.2654 13.0088C24.4554 13.0088 24.6094 13.1628 24.6094 13.3527Z" fill="#35B2C2"/>
<path d="M25.6029 13.9642C25.6029 14.1541 25.4489 14.3081 25.259 14.3081C25.069 14.3081 24.9151 14.1541 24.9151 13.9642C24.9151 13.7742 25.069 13.6202 25.259 13.6202C25.4489 13.6202 25.6029 13.7742 25.6029 13.9642Z" fill="#35B2C2"/>
<path d="M26.5964 14.7284C26.5964 14.9184 26.4425 15.0723 26.2525 15.0723C26.0626 15.0723 25.9086 14.9184 25.9086 14.7284C25.9086 14.5385 26.0626 14.3845 26.2525 14.3845C26.4425 14.3845 26.5964 14.5385 26.5964 14.7284Z" fill="#35B2C2"/>
<path d="M27.4371 15.5691C27.4371 15.7591 27.2832 15.913 27.0932 15.913C26.9033 15.913 26.7493 15.7591 26.7493 15.5691C26.7493 15.3792 26.9033 15.2252 27.0932 15.2252C27.2832 15.2252 27.4371 15.3792 27.4371 15.5691Z" fill="#35B2C2"/>
<path d="M28.2014 16.5627C28.2014 16.7526 28.0474 16.9066 27.8575 16.9066C27.6675 16.9066 27.5136 16.7526 27.5136 16.5627C27.5136 16.3727 27.6675 16.2187 27.8575 16.2187C28.0474 16.2187 28.2014 16.3727 28.2014 16.5627Z" fill="#35B2C2"/>
<path d="M28.8892 17.6326C28.8892 17.8226 28.7353 17.9765 28.5453 17.9765C28.3554 17.9765 28.2014 17.8226 28.2014 17.6326C28.2014 17.4427 28.3554 17.2887 28.5453 17.2887C28.7353 17.2887 28.8892 17.4427 28.8892 17.6326Z" fill="#35B2C2"/>
<path d="M29.4242 18.7026C29.4242 18.8925 29.2702 19.0465 29.0803 19.0465C28.8904 19.0465 28.7364 18.8925 28.7364 18.7026C28.7364 18.5127 28.8904 18.3587 29.0803 18.3587C29.2702 18.3587 29.4242 18.5127 29.4242 18.7026Z" fill="#35B2C2"/>
<path d="M29.8064 19.849C29.8064 20.0389 29.6524 20.1929 29.4624 20.1929C29.2725 20.1929 29.1185 20.0389 29.1185 19.849C29.1185 19.6591 29.2725 19.5051 29.4624 19.5051C29.6524 19.5051 29.8064 19.6591 29.8064 19.849Z" fill="#35B2C2"/>
<path d="M30.1121 21.0718C30.1121 21.2618 29.9581 21.4157 29.7681 21.4157C29.5782 21.4157 29.4242 21.2618 29.4242 21.0718C29.4242 20.8819 29.5782 20.7279 29.7681 20.7279C29.9581 20.7279 30.1121 20.8819 30.1121 21.0718Z" fill="#35B2C2"/>
<path d="M30.2649 22.2946C30.2649 22.4846 30.1109 22.6386 29.921 22.6386C29.7311 22.6386 29.5771 22.4846 29.5771 22.2946C29.5771 22.1047 29.7311 21.9507 29.921 21.9507C30.1109 21.9507 30.2649 22.1047 30.2649 22.2946Z" fill="#35B2C2"/>
<path d="M30.2649 23.5175C30.2649 23.7074 30.1109 23.8614 29.921 23.8614C29.7311 23.8614 29.5771 23.7074 29.5771 23.5175C29.5771 23.3275 29.7311 23.1736 29.921 23.1736C30.1109 23.1736 30.2649 23.3275 30.2649 23.5175Z" fill="#35B2C2"/>
<path d="M30.1885 24.7403C30.1885 24.9302 30.0345 25.0842 29.8446 25.0842C29.6546 25.0842 29.5007 24.9302 29.5007 24.7403C29.5007 24.5504 29.6546 24.3964 29.8446 24.3964C30.0345 24.3964 30.1885 24.5504 30.1885 24.7403Z" fill="#35B2C2"/>
<path d="M29.8828 25.8867C29.8828 26.0766 29.7288 26.2306 29.5389 26.2306C29.3489 26.2306 29.1949 26.0766 29.1949 25.8867C29.1949 25.6968 29.3489 25.5428 29.5389 25.5428C29.7288 25.5428 29.8828 25.6968 29.8828 25.8867Z" fill="#35B2C2"/>
<path d="M29.5007 27.0331C29.5007 27.223 29.3467 27.377 29.1567 27.377C28.9668 27.377 28.8128 27.223 28.8128 27.0331C28.8128 26.8432 28.9668 26.6892 29.1567 26.6892C29.3467 26.6892 29.5007 26.8432 29.5007 27.0331Z" fill="#35B2C2"/>
<path d="M28.9657 28.1031C28.9657 28.293 28.8117 28.447 28.6217 28.447C28.4318 28.447 28.2778 28.293 28.2778 28.1031C28.2778 27.9131 28.4318 27.7591 28.6217 27.7591C28.8117 27.7591 28.9657 27.9131 28.9657 28.1031Z" fill="#35B2C2"/>
<path d="M28.3543 29.0966C28.3543 29.2866 28.2003 29.4405 28.0103 29.4405C27.8204 29.4405 27.6664 29.2866 27.6664 29.0966C27.6664 28.9067 27.8204 28.7527 28.0103 28.7527C28.2003 28.7527 28.3543 28.9067 28.3543 29.0966Z" fill="#35B2C2"/>
<path d="M27.6664 30.0137C27.6664 30.2037 27.5124 30.3576 27.3225 30.3576C27.1326 30.3576 26.9786 30.2037 26.9786 30.0137C26.9786 29.8238 27.1326 29.6698 27.3225 29.6698C27.5124 29.6698 27.6664 29.8238 27.6664 30.0137Z" fill="#35B2C2"/>
<path d="M26.8257 30.778C26.8257 30.9679 26.6717 31.1219 26.4818 31.1219C26.2919 31.1219 26.1379 30.9679 26.1379 30.778C26.1379 30.5881 26.2919 30.4341 26.4818 30.4341C26.6717 30.4341 26.8257 30.5881 26.8257 30.778Z" fill="#35B2C2"/>
<path d="M25.9086 31.4658C25.9086 31.6558 25.7546 31.8098 25.5647 31.8098C25.3747 31.8098 25.2208 31.6558 25.2208 31.4658C25.2208 31.2759 25.3747 31.1219 25.5647 31.1219C25.7546 31.1219 25.9086 31.2759 25.9086 31.4658Z" fill="#35B2C2"/>
<path d="M24.8386 32.0772C24.8386 32.2672 24.6847 32.4212 24.4947 32.4212C24.3048 32.4212 24.1508 32.2672 24.1508 32.0772C24.1508 31.8873 24.3048 31.7333 24.4947 31.7333C24.6847 31.7333 24.8386 31.8873 24.8386 32.0772Z" fill="#35B2C2"/>
<path d="M23.7687 32.4594C23.7687 32.6493 23.6147 32.8033 23.4247 32.8033C23.2348 32.8033 23.0808 32.6493 23.0808 32.4594C23.0808 32.2694 23.2348 32.1155 23.4247 32.1155C23.6147 32.1155 23.7687 32.2694 23.7687 32.4594Z" fill="#35B2C2"/>
<path d="M22.6987 32.7651C22.6987 32.955 22.5447 33.109 22.3548 33.109C22.1648 33.109 22.0108 32.955 22.0108 32.7651C22.0108 32.5751 22.1648 32.4212 22.3548 32.4212C22.5447 32.4212 22.6987 32.5751 22.6987 32.7651Z" fill="#35B2C2"/>
<path d="M20.3295 32.9944C20.3295 33.1843 20.1755 33.3383 19.9855 33.3383C19.7956 33.3383 19.6416 33.1843 19.6416 32.9944C19.6416 32.8044 19.7956 32.6504 19.9855 32.6504C20.1755 32.6504 20.3295 32.8044 20.3295 32.9944Z" fill="#35B2C2"/>
<path d="M19.1831 32.8415C19.1831 33.0315 19.0291 33.1854 18.8391 33.1854C18.6492 33.1854 18.4952 33.0315 18.4952 32.8415C18.4952 32.6516 18.6492 32.4976 18.8391 32.4976C19.0291 32.4976 19.1831 32.6516 19.1831 32.8415Z" fill="#35B2C2"/>
<path d="M18.0367 32.6122C18.0367 32.8022 17.8827 32.9562 17.6927 32.9562C17.5028 32.9562 17.3488 32.8022 17.3488 32.6122C17.3488 32.4223 17.5028 32.2683 17.6927 32.2683C17.8827 32.2683 18.0367 32.4223 18.0367 32.6122Z" fill="#35B2C2"/>
<path d="M16.8903 32.1537C16.8903 32.3436 16.7363 32.4976 16.5464 32.4976C16.3564 32.4976 16.2024 32.3436 16.2024 32.1537C16.2024 31.9637 16.3564 31.8098 16.5464 31.8098C16.7363 31.8098 16.8903 31.9637 16.8903 32.1537Z" fill="#35B2C2"/>
<path d="M15.8203 31.6187C15.8203 31.8086 15.6663 31.9626 15.4764 31.9626C15.2864 31.9626 15.1325 31.8086 15.1325 31.6187C15.1325 31.4287 15.2864 31.2748 15.4764 31.2748C15.6663 31.2748 15.8203 31.4287 15.8203 31.6187Z" fill="#35B2C2"/>
<path d="M14.7503 31.0073C14.7503 31.1972 14.5963 31.3512 14.4064 31.3512C14.2165 31.3512 14.0625 31.1972 14.0625 31.0073C14.0625 30.8173 14.2165 30.6634 14.4064 30.6634C14.5963 30.6634 14.7503 30.8173 14.7503 31.0073Z" fill="#35B2C2"/>
<path d="M13.8332 30.243C13.8332 30.433 13.6792 30.5869 13.4893 30.5869C13.2993 30.5869 13.1454 30.433 13.1454 30.243C13.1454 30.0531 13.2993 29.8991 13.4893 29.8991C13.6792 29.8991 13.8332 30.0531 13.8332 30.243Z" fill="#35B2C2"/>
<path d="M12.9925 29.3259C12.9925 29.5158 12.8385 29.6698 12.6486 29.6698C12.4587 29.6698 12.3047 29.5158 12.3047 29.3259C12.3047 29.136 12.4587 28.982 12.6486 28.982C12.8385 28.982 12.9925 29.136 12.9925 29.3259Z" fill="#35B2C2"/>
<path d="M12.2283 28.4088C12.2283 28.5987 12.0743 28.7527 11.8843 28.7527C11.6944 28.7527 11.5404 28.5987 11.5404 28.4088C11.5404 28.2188 11.6944 28.0649 11.8843 28.0649C12.0743 28.0649 12.2283 28.2188 12.2283 28.4088Z" fill="#35B2C2"/>
<path d="M11.5404 27.3388C11.5404 27.5287 11.3864 27.6827 11.1965 27.6827C11.0065 27.6827 10.8526 27.5287 10.8526 27.3388C10.8526 27.1489 11.0065 26.9949 11.1965 26.9949C11.3864 26.9949 11.5404 27.1489 11.5404 27.3388Z" fill="#35B2C2"/>
<path d="M11.0054 26.1924C11.0054 26.3823 10.8514 26.5363 10.6615 26.5363C10.4716 26.5363 10.3176 26.3823 10.3176 26.1924C10.3176 26.0025 10.4716 25.8485 10.6615 25.8485C10.8514 25.8485 11.0054 26.0025 11.0054 26.1924Z" fill="#35B2C2"/>
<path d="M10.6233 25.046C10.6233 25.2359 10.4693 25.3899 10.2794 25.3899C10.0894 25.3899 9.93545 25.2359 9.93545 25.046C9.93545 24.8561 10.0894 24.7021 10.2794 24.7021C10.4693 24.7021 10.6233 24.8561 10.6233 25.046Z" fill="#35B2C2"/>
<path d="M10.3176 23.8232C10.3176 24.0131 10.1636 24.1671 9.97367 24.1671C9.78373 24.1671 9.62975 24.0131 9.62975 23.8232C9.62975 23.6332 9.78373 23.4793 9.97367 23.4793C10.1636 23.4793 10.3176 23.6332 10.3176 23.8232Z" fill="#35B2C2"/>
<path d="M10.1647 22.6768C10.1647 22.8667 10.0108 23.0207 9.82081 23.0207C9.63087 23.0207 9.47689 22.8667 9.47689 22.6768C9.47689 22.4868 9.63087 22.3329 9.82081 22.3329C10.0108 22.3329 10.1647 22.4868 10.1647 22.6768Z" fill="#35B2C2"/>
<path d="M10.1647 21.454C10.1647 21.6439 10.0108 21.7979 9.82081 21.7979C9.63087 21.7979 9.47689 21.6439 9.47689 21.454C9.47689 21.264 9.63087 21.11 9.82081 21.11C10.0108 21.11 10.1647 21.264 10.1647 21.454Z" fill="#35B2C2"/>
<path d="M10.2412 20.2311C10.2412 20.4211 10.0872 20.5751 9.89724 20.5751C9.7073 20.5751 9.55332 20.4211 9.55332 20.2311C9.55332 20.0412 9.7073 19.8872 9.89724 19.8872C10.0872 19.8872 10.2412 20.0412 10.2412 20.2311Z" fill="#35B2C2"/>
<path d="M10.5469 19.0083C10.5469 19.1982 10.3929 19.3522 10.2029 19.3522C10.013 19.3522 9.85903 19.1982 9.85903 19.0083C9.85903 18.8184 10.013 18.6644 10.2029 18.6644C10.3929 18.6644 10.5469 18.8184 10.5469 19.0083Z" fill="#35B2C2"/>
<path d="M21.5523 32.9179C21.5523 33.1079 21.3983 33.2619 21.2084 33.2619C21.0184 33.2619 20.8645 33.1079 20.8645 32.9179C20.8645 32.728 21.0184 32.574 21.2084 32.574C21.3983 32.574 21.5523 32.728 21.5523 32.9179Z" fill="#35B2C2"/>
<path d="M47.5327 3.72656H46.582V36.0494H47.5327V3.72656Z" fill="white"/>
<path d="M60.5869 5.02483C60.3502 5.36302 60.0391 5.64372 59.6535 5.86692C59.268 6.09013 58.8791 6.20173 58.4868 6.20173C58.3582 6.36406 58.2636 6.51963 58.2027 6.66844C58.1486 6.81724 58.1215 6.98972 58.1215 7.18587V10.4629C58.1215 10.9499 58.0133 11.3591 57.7969 11.6906C57.5872 12.022 57.2591 12.3264 56.8127 12.6037L56.5997 12.3602C56.7755 12.137 56.8634 11.8089 56.8634 11.3761V7.77432C56.8634 7.49024 56.9514 7.2163 57.1272 6.95252C57.3099 6.68196 57.5331 6.4317 57.7969 6.20173L56.4475 6.19159C56.2175 6.19159 56.0078 6.24231 55.8184 6.34377C55.629 6.44523 55.4498 6.6008 55.2807 6.81048L55.0575 6.59741C55.3754 6.17806 55.7001 5.84663 56.0315 5.60313C56.3697 5.35964 56.7518 5.23789 57.178 5.23789H58.6795C59.0042 5.23789 59.3322 5.21083 59.6637 5.15672C59.9951 5.09585 60.2454 4.99101 60.4144 4.8422L60.5869 5.02483ZM62.0824 9.87448H62.123C62.2718 9.21839 62.5153 8.61303 62.8535 8.0584C63.1917 7.50377 63.6076 7.22645 64.1014 7.22645C64.3314 7.22645 64.5005 7.29747 64.6087 7.43951C64.7237 7.58155 64.7947 7.75065 64.8217 7.9468C64.8488 8.13618 64.8623 8.36954 64.8623 8.64685V11.4572C64.8623 11.5384 64.886 11.6162 64.9333 11.6906C64.9875 11.7582 65.0619 11.792 65.1565 11.792C65.3189 11.792 65.488 11.6737 65.6638 11.4369L65.8363 11.6297C65.7213 11.8597 65.5556 12.0558 65.3392 12.2181C65.1227 12.3805 64.886 12.4616 64.629 12.4616C63.9864 12.4616 63.6651 12.1065 63.6651 11.3963V8.73816C63.6651 8.65023 63.6482 8.57245 63.6144 8.50481C63.5873 8.43041 63.5366 8.39321 63.4622 8.39321C63.1781 8.39321 62.9313 8.62994 62.7216 9.10341C62.5187 9.57688 62.3597 10.1247 62.2447 10.747C62.1365 11.3693 62.0824 11.8732 62.0824 12.2587L60.8649 12.5225V3.44209L62.0824 3.01597V9.87448ZM69.3671 7.22645C69.7594 7.22645 70.0874 7.32791 70.3512 7.53082C70.615 7.72697 70.7469 8.01443 70.7469 8.39321C70.7469 8.69758 70.5812 9.03915 70.2498 9.41793C69.9251 9.78994 69.5362 10.1383 69.083 10.4629C68.6366 10.7808 68.2545 11.0108 67.9366 11.1528C68.2206 11.606 68.6366 11.8326 69.1845 11.8326C69.4889 11.8326 69.7932 11.7481 70.0976 11.579C70.4087 11.4031 70.6725 11.1731 70.889 10.8891L71.0919 11.1326C70.7402 11.5722 70.3681 11.9138 69.9758 12.1573C69.5903 12.394 69.1304 12.5124 68.596 12.5124C68.1631 12.5124 67.7742 12.4143 67.4293 12.2181C67.0911 12.022 66.8239 11.7548 66.6278 11.4166C66.4384 11.0717 66.3437 10.6861 66.3437 10.26C66.3437 9.74597 66.4823 9.2556 66.7596 8.78889C67.0437 8.31542 67.4191 7.93665 67.8858 7.65257C68.3525 7.36849 68.8463 7.22645 69.3671 7.22645ZM68.7888 7.88592C68.5318 7.88592 68.3018 7.98062 68.0989 8.17C67.896 8.35263 67.737 8.58936 67.622 8.8802C67.5071 9.17105 67.4496 9.47204 67.4496 9.78317C67.4496 10.189 67.5375 10.5373 67.7133 10.8282C67.9636 10.6861 68.2274 10.49 68.5047 10.2397C68.7888 9.98271 69.0255 9.70877 69.2149 9.41793C69.4043 9.12708 69.499 8.86329 69.499 8.62656C69.499 8.38983 69.4347 8.2072 69.3062 8.07869C69.1845 7.95018 69.012 7.88592 68.7888 7.88592ZM59.6738 15.9842C60.127 15.9842 60.4922 16.106 60.7695 16.3495C61.0469 16.593 61.1855 16.9143 61.1855 17.3133C61.1855 17.638 61.0942 17.966 60.9116 18.2975C60.729 18.6221 60.4821 18.9096 60.171 19.1599C59.8666 19.4101 59.5284 19.586 59.1564 19.6874L59.0042 19.4236C59.295 19.2884 59.5284 19.0821 59.7042 18.8048C59.8869 18.5207 59.9782 18.2163 59.9782 17.8916C59.9782 17.5061 59.8733 17.1983 59.6637 16.9684C59.454 16.7316 59.1801 16.6133 58.8419 16.6133C58.4834 16.6133 58.1452 16.7587 57.8273 17.0495C57.5162 17.3336 57.2659 17.7192 57.0765 18.2062C56.8939 18.6864 56.8026 19.2038 56.8026 19.7585C56.8026 20.3266 56.8905 20.8305 57.0664 21.2702C57.2422 21.7031 57.4857 22.0412 57.7969 22.2847C58.1148 22.5282 58.4766 22.65 58.8824 22.65C59.1733 22.65 59.4641 22.579 59.755 22.4369C60.0526 22.2881 60.34 22.0751 60.6174 21.7977L60.8913 22.0514C60.5734 22.464 60.1777 22.8089 59.7042 23.0863C59.2375 23.3568 58.7472 23.4921 58.2331 23.4921C57.6785 23.4921 57.1915 23.3636 56.7721 23.1065C56.3595 22.8495 56.0416 22.4944 55.8184 22.0412C55.5952 21.5813 55.4836 21.0571 55.4836 20.4687C55.4836 19.6435 55.6696 18.8893 56.0416 18.2062C56.4204 17.5162 56.9277 16.9751 57.5635 16.5828C58.2061 16.1838 58.9095 15.9842 59.6738 15.9842ZM64.1767 18.4395C63.7303 18.7574 63.3786 19.1193 63.1215 19.5251C62.8713 19.9242 62.7461 20.3943 62.7461 20.9354C62.7461 21.233 62.8036 21.534 62.9186 21.8383C63.0336 22.1427 63.2027 22.3963 63.4259 22.5993C63.6491 22.7954 63.9163 22.8935 64.2274 22.8935C64.6197 22.8935 64.9342 22.7514 65.171 22.4674C65.4145 22.1833 65.5362 21.8316 65.5362 21.4122C65.5362 21.0943 65.4517 20.773 65.2826 20.4484C65.1202 20.1169 64.9004 19.8396 64.6231 19.6164C64.3458 19.3864 64.0482 19.2579 63.7303 19.2309C63.8723 19.0753 64.0245 18.9333 64.1868 18.8048C64.3559 18.6762 64.5656 18.5207 64.8159 18.3381C65.3029 18.5004 65.6884 18.8014 65.9725 19.241C66.2633 19.6807 66.4088 20.1643 66.4088 20.6919C66.4088 21.1586 66.3039 21.6117 66.0942 22.0514C65.8913 22.491 65.5937 22.8495 65.2014 23.1268C64.8159 23.3974 64.3661 23.5327 63.852 23.5327C63.4259 23.5327 63.0336 23.4346 62.6751 23.2384C62.3234 23.0355 62.0427 22.7616 61.833 22.4166C61.6233 22.0649 61.5185 21.6794 61.5185 21.26C61.5185 20.5363 61.7451 19.9005 62.1983 19.3526C62.6582 18.8048 63.2534 18.4226 63.9839 18.2062L64.1767 18.4395ZM69.8341 18.4395C69.3877 18.7574 69.036 19.1193 68.779 19.5251C68.5287 19.9242 68.4036 20.3943 68.4036 20.9354C68.4036 21.233 68.4611 21.534 68.5761 21.8383C68.691 22.1427 68.8601 22.3963 69.0833 22.5993C69.3065 22.7954 69.5737 22.8935 69.8849 22.8935C70.2772 22.8935 70.5917 22.7514 70.8284 22.4674C71.0719 22.1833 71.1936 21.8316 71.1936 21.4122C71.1936 21.0943 71.1091 20.773 70.94 20.4484C70.7777 20.1169 70.5579 19.8396 70.2805 19.6164C70.0032 19.3864 69.7056 19.2579 69.3877 19.2309C69.5298 19.0753 69.6819 18.9333 69.8443 18.8048C70.0134 18.6762 70.223 18.5207 70.4733 18.3381C70.9603 18.5004 71.3458 18.8014 71.6299 19.241C71.9208 19.6807 72.0662 20.1643 72.0662 20.6919C72.0662 21.1586 71.9613 21.6117 71.7517 22.0514C71.5488 22.491 71.2511 22.8495 70.8588 23.1268C70.4733 23.3974 70.0235 23.5327 69.5095 23.5327C69.0833 23.5327 68.691 23.4346 68.3326 23.2384C67.9808 23.0355 67.7001 22.7616 67.4905 22.4166C67.2808 22.0649 67.1759 21.6794 67.1759 21.26C67.1759 20.5363 67.4025 19.9005 67.8557 19.3526C68.3156 18.8048 68.9109 18.4226 69.6414 18.2062L69.8341 18.4395ZM74.4465 20.8846C74.6562 20.4044 74.9031 20.0053 75.1872 19.6874L75.1567 19.6469C74.9268 19.7821 74.6495 19.8498 74.3248 19.8498C74.1151 19.8498 73.9223 19.8159 73.7465 19.7483L73.087 21.1586L72.671 20.9759L73.3508 19.5758C73.3305 19.5555 73.2663 19.498 73.158 19.4034C73.0498 19.3087 72.9822 19.214 72.9551 19.1193L73.9291 18.0235C74.0035 18.3009 74.1456 18.5443 74.3552 18.754C74.5717 18.9569 74.8118 19.0584 75.0756 19.0584C75.4882 19.0584 75.9211 18.9096 76.3742 18.612L76.5569 18.8048C76.1646 19.17 75.8297 19.6029 75.5524 20.1034C75.2751 20.6039 75.1365 21.1078 75.1365 21.6151C75.1365 21.9263 75.2142 22.1867 75.3698 22.3963C75.5321 22.606 75.7655 22.7109 76.0699 22.7109C76.2728 22.7109 76.4892 22.6365 76.7192 22.4877L76.8714 22.6703C76.6752 22.9205 76.4385 23.1201 76.1612 23.2689C75.8906 23.4177 75.6065 23.4921 75.3089 23.4921C74.9369 23.4921 74.6495 23.3703 74.4465 23.1268C74.2436 22.8766 74.1422 22.5621 74.1422 22.1833C74.1422 21.791 74.2436 21.3581 74.4465 20.8846ZM82.0066 22.4166C82.0066 22.5113 82.0269 22.5959 82.0675 22.6703C82.1148 22.7379 82.1825 22.7717 82.2704 22.7717C82.3583 22.7717 82.4463 22.7345 82.5342 22.6601C82.6289 22.5857 82.6999 22.5046 82.7473 22.4166L82.9705 22.6094C82.8487 22.8461 82.6796 23.0491 82.4632 23.2181C82.2535 23.3805 82.0269 23.4616 81.7834 23.4616C81.4317 23.4616 81.178 23.367 81.0225 23.1776C80.8669 22.9814 80.7925 22.6838 80.7993 22.2847H80.7485C80.593 22.6365 80.3901 22.9307 80.1398 23.1674C79.8895 23.3974 79.5886 23.5124 79.2368 23.5124C78.8648 23.5124 78.5469 23.4177 78.2831 23.2283C78.0193 23.0389 77.8198 22.7853 77.6845 22.4674C77.5493 22.1427 77.4816 21.7842 77.4816 21.3919C77.4816 20.8914 77.5831 20.401 77.786 19.9208C77.9957 19.4338 78.2967 19.0347 78.689 18.7236C79.0813 18.4125 79.5378 18.2569 80.0586 18.2569C80.3224 18.2569 80.5625 18.3211 80.779 18.4497V14.4421L82.0066 14.016V22.4166ZM80.0383 18.9062C79.7137 18.9062 79.4431 19.0178 79.2267 19.241C79.017 19.4575 78.8614 19.728 78.76 20.0527C78.6585 20.3706 78.6078 20.6851 78.6078 20.9962C78.6078 21.4156 78.689 21.8147 78.8513 22.1934C79.0204 22.5722 79.2842 22.7616 79.6427 22.7616C80.0755 22.7616 80.3732 22.5418 80.5355 22.1021C80.6978 21.6557 80.779 21.1721 80.779 20.6513V19.241C80.5558 19.0178 80.3089 18.9062 80.0383 18.9062ZM84.8241 17.2525L84.1849 17.4554L83.769 15.3349L85.1792 14.8581L84.8241 17.2525ZM85.1488 22.4572C85.1488 22.5587 85.1725 22.6398 85.2198 22.7007C85.2671 22.7616 85.3314 22.792 85.4126 22.792C85.5817 22.792 85.7541 22.6737 85.93 22.4369L86.1126 22.6297C85.9638 22.9002 85.771 23.1065 85.5343 23.2486C85.3043 23.3906 85.0744 23.4616 84.8444 23.4616C84.2289 23.4616 83.9211 23.1065 83.9211 22.3963V18.7439L85.1488 18.3178V22.4572ZM90.6937 18.2265C90.9304 18.2265 91.1029 18.2975 91.2111 18.4395C91.3193 18.5748 91.3869 18.7371 91.414 18.9265C91.4411 19.1091 91.4546 19.3459 91.4546 19.6367V22.4572C91.4546 22.5384 91.4783 22.6162 91.5256 22.6906C91.5797 22.7582 91.644 22.792 91.7184 22.792C91.8198 22.792 91.9078 22.7616 91.9822 22.7007C92.0633 22.6331 92.1479 22.5451 92.2358 22.4369L92.4083 22.6297C92.2865 22.8664 92.1174 23.066 91.901 23.2283C91.6913 23.3839 91.4647 23.4616 91.2212 23.4616C90.8966 23.4616 90.6531 23.3703 90.4907 23.1877C90.3284 22.9983 90.2472 22.7345 90.2472 22.3963V19.7382C90.2472 19.6435 90.2371 19.5623 90.2168 19.4947C90.1965 19.427 90.1492 19.3932 90.0748 19.3932C89.8448 19.3932 89.6114 19.6401 89.3747 20.1338C89.138 20.6208 88.9384 21.1822 88.7761 21.818C88.6138 22.4538 88.5326 22.9341 88.5326 23.2587L87.3456 23.5225V19.2613C87.3456 19.1599 87.3219 19.0753 87.2745 19.0077C87.2272 18.94 87.1596 18.9062 87.0716 18.9062C86.9769 18.9062 86.8822 18.9468 86.7876 19.028C86.6996 19.1024 86.6252 19.1903 86.5643 19.2918L86.3817 19.0888C86.4832 18.8521 86.6421 18.6492 86.8586 18.4801C87.075 18.311 87.3084 18.2265 87.5586 18.2265C87.8968 18.2265 88.1437 18.3211 88.2993 18.5105C88.4548 18.6932 88.5326 18.9502 88.5326 19.2816V21.2397H88.5732C88.7558 20.4889 89.0264 19.799 89.3849 19.17C89.7501 18.541 90.1864 18.2265 90.6937 18.2265ZM95.7578 18.3178C96.1163 18.3178 96.4477 18.3888 96.7521 18.5308C97.0632 18.6729 97.2932 18.8927 97.442 19.1903L96.4579 19.5961C96.3632 19.4203 96.2313 19.2748 96.0622 19.1599C95.8931 19.0449 95.7138 18.9874 95.5244 18.9874C95.0713 18.9874 94.7128 19.1768 94.449 19.5555C94.1852 19.9343 94.0533 20.4078 94.0533 20.9759C94.0533 21.4968 94.1311 21.9263 94.2867 22.2644C94.4422 22.5959 94.6891 22.7616 95.0273 22.7616C95.5008 22.7616 95.8254 22.5418 96.0013 22.1021C96.1772 21.6557 96.2651 21.1721 96.2651 20.6513V20.2049L97.4521 19.7787V22.4166C97.4521 22.5113 97.4724 22.5959 97.513 22.6703C97.5604 22.7379 97.628 22.7717 97.7159 22.7717C97.885 22.7717 98.0575 22.6534 98.2334 22.4166L98.4261 22.6094C98.3247 22.8461 98.1623 23.0491 97.9391 23.2181C97.7227 23.3805 97.4893 23.4616 97.2391 23.4616C96.9144 23.4616 96.6777 23.3534 96.5289 23.137C96.3801 22.9138 96.3057 22.6297 96.3057 22.2847H96.2651C96.1028 22.65 95.8863 22.9476 95.6158 23.1776C95.3452 23.4008 95.0307 23.5124 94.6722 23.5124C94.1311 23.5124 93.7117 23.3162 93.4141 22.9239C93.1233 22.5249 92.9779 22.0074 92.9779 21.3716C92.9779 20.8305 93.0929 20.3266 93.3228 19.8599C93.5596 19.3932 93.8876 19.0212 94.307 18.7439C94.7331 18.4598 95.2167 18.3178 95.7578 18.3178ZM100.607 18.9874V22.4572C100.607 22.5519 100.634 22.6331 100.688 22.7007C100.742 22.7616 100.813 22.792 100.901 22.792C101.063 22.792 101.246 22.6737 101.449 22.4369L101.631 22.6297C101.51 22.8732 101.357 23.0558 101.175 23.1776C100.992 23.2993 100.816 23.3805 100.647 23.4211C100.478 23.4616 100.394 23.4752 100.394 23.4616C99.7171 23.4616 99.379 23.1065 99.379 22.3963V18.9874H98.6586L98.9731 18.3178H99.379V16.0147L100.607 15.5987V18.3178H101.936L101.631 18.9874H100.607ZM105.343 18.2265C105.735 18.2265 106.063 18.3279 106.327 18.5308C106.591 18.727 106.723 19.0144 106.723 19.3932C106.723 19.6976 106.557 20.0392 106.225 20.4179C105.901 20.7899 105.512 21.1383 105.059 21.4629C104.612 21.7808 104.23 22.0108 103.912 22.1528C104.196 22.606 104.612 22.8326 105.16 22.8326C105.465 22.8326 105.769 22.7481 106.073 22.579C106.384 22.4031 106.648 22.1731 106.865 21.8891L107.068 22.1326C106.716 22.5722 106.344 22.9138 105.952 23.1573C105.566 23.394 105.106 23.5124 104.572 23.5124C104.139 23.5124 103.75 23.4143 103.405 23.2181C103.067 23.022 102.8 22.7548 102.603 22.4166C102.414 22.0717 102.319 21.6861 102.319 21.26C102.319 20.746 102.458 20.2556 102.735 19.7889C103.019 19.3154 103.395 18.9367 103.862 18.6526C104.328 18.3685 104.822 18.2265 105.343 18.2265ZM104.765 18.8859C104.507 18.8859 104.278 18.9806 104.075 19.17C103.872 19.3526 103.713 19.5894 103.598 19.8802C103.483 20.171 103.425 20.472 103.425 20.7832C103.425 21.189 103.513 21.5373 103.689 21.8282C103.939 21.6861 104.203 21.49 104.48 21.2397C104.765 20.9827 105.001 20.7088 105.191 20.4179C105.38 20.1271 105.475 19.8633 105.475 19.6266C105.475 19.3898 105.41 19.2072 105.282 19.0787C105.16 18.9502 104.988 18.8859 104.765 18.8859ZM112.295 22.4166C112.295 22.5113 112.315 22.5959 112.356 22.6703C112.403 22.7379 112.471 22.7717 112.559 22.7717C112.647 22.7717 112.735 22.7345 112.823 22.6601C112.917 22.5857 112.988 22.5046 113.036 22.4166L113.259 22.6094C113.137 22.8461 112.968 23.0491 112.752 23.2181C112.542 23.3805 112.315 23.4616 112.072 23.4616C111.72 23.4616 111.467 23.367 111.311 23.1776C111.155 22.9814 111.081 22.6838 111.088 22.2847H111.037C110.882 22.6365 110.679 22.9307 110.428 23.1674C110.178 23.3974 109.877 23.5124 109.525 23.5124C109.153 23.5124 108.835 23.4177 108.572 23.2283C108.308 23.0389 108.108 22.7853 107.973 22.4674C107.838 22.1427 107.77 21.7842 107.77 21.3919C107.77 20.8914 107.872 20.401 108.075 19.9208C108.284 19.4338 108.585 19.0347 108.978 18.7236C109.37 18.4125 109.826 18.2569 110.347 18.2569C110.611 18.2569 110.851 18.3211 111.068 18.4497V14.4421L112.295 14.016V22.4166ZM110.327 18.9062C110.002 18.9062 109.732 19.0178 109.515 19.241C109.306 19.4575 109.15 19.728 109.049 20.0527C108.947 20.3706 108.896 20.6851 108.896 20.9962C108.896 21.4156 108.978 21.8147 109.14 22.1934C109.309 22.5722 109.573 22.7616 109.931 22.7616C110.364 22.7616 110.662 22.5418 110.824 22.1021C110.986 21.6557 111.068 21.1721 111.068 20.6513V19.241C110.844 19.0178 110.597 18.9062 110.327 18.9062ZM59.197 26.9842C59.5825 26.9842 59.9004 27.0722 60.1507 27.248C60.4077 27.4239 60.5362 27.6809 60.5362 28.0191C60.5362 28.3167 60.4314 28.5974 60.2217 28.8612C60.0188 29.1182 59.7414 29.3414 59.3897 29.5308C59.0448 29.7202 58.6626 29.8589 58.2433 29.9468L58.1317 29.6729C58.4969 29.5038 58.7776 29.3009 58.9738 29.0641C59.1699 28.8274 59.268 28.5636 59.268 28.2728C59.268 28.0631 59.2071 27.8974 59.0854 27.7756C58.9704 27.6471 58.8047 27.5828 58.5882 27.5828C58.2838 27.5828 58.0268 27.6708 57.8171 27.8466C57.6075 28.0157 57.4519 28.2356 57.3504 28.5061C57.249 28.7699 57.1983 29.0438 57.1983 29.3279V32.3919C57.1983 32.5881 57.1678 32.7572 57.1069 32.8992C57.0528 33.0345 56.9615 33.1731 56.833 33.3152L56.8939 33.3558C57.1983 33.1664 57.5195 33.0717 57.8577 33.0717C58.0809 33.0717 58.3481 33.0987 58.6592 33.1528C58.7066 33.1596 58.8013 33.1731 58.9433 33.1934C59.0921 33.2137 59.2443 33.2239 59.3999 33.2239C59.6366 33.2239 59.8463 33.163 60.0289 33.0412C60.2183 32.9195 60.3942 32.7538 60.5565 32.5441L60.8 32.7166L59.9782 34.4921C59.6332 34.465 59.1936 34.3974 58.6592 34.2892C58.3346 34.2283 58.0505 34.1809 57.807 34.1471C57.5635 34.1133 57.2997 34.0964 57.0156 34.0964C56.5625 34.0964 56.1499 34.2249 55.7779 34.4819L55.4735 34.1979C55.629 34.0693 55.7407 33.9205 55.8083 33.7514C55.8827 33.5756 55.9199 33.349 55.9199 33.0717V30.3222C55.9199 29.6999 56.0552 29.1351 56.3257 28.6279C56.603 28.1206 56.9886 27.7215 57.4823 27.4307C57.9829 27.133 58.5544 26.9842 59.197 26.9842ZM62.5511 28.2525L61.9119 28.4554L61.4959 26.3349L62.9062 25.8581L62.5511 28.2525ZM62.8757 33.4572C62.8757 33.5587 62.8994 33.6398 62.9468 33.7007C62.9941 33.7616 63.0584 33.792 63.1395 33.792C63.3086 33.792 63.4811 33.6737 63.657 33.4369L63.8396 33.6297C63.6908 33.9002 63.498 34.1065 63.2613 34.2486C63.0313 34.3906 62.8013 34.4616 62.5714 34.4616C61.9559 34.4616 61.6481 34.1065 61.6481 33.3963V29.7439L62.8757 29.3178V33.4572ZM68.1873 28.9424C68.4713 29.0506 68.6912 29.2095 68.8467 29.4192C69.0023 29.6289 69.0801 29.8656 69.0801 30.1294C69.0801 30.2715 69.0598 30.427 69.0192 30.5961C68.9786 30.7585 68.9279 30.9005 68.867 31.0222L67.1524 34.4312C67.1321 34.4718 67.0915 34.5056 67.0307 34.5327C66.9698 34.5597 66.9055 34.5732 66.8379 34.5732C66.7567 34.5732 66.6823 34.5597 66.6147 34.5327C66.5538 34.5056 66.5132 34.465 66.4929 34.4109L64.7986 30.6773C64.6498 30.4 64.4908 30.2613 64.3217 30.2613C64.227 30.2613 64.1222 30.329 64.0072 30.4642L63.8449 30.3222C63.9261 30.0584 64.0884 29.8284 64.3319 29.6323C64.5754 29.4294 64.8426 29.3279 65.1334 29.3279C65.316 29.3279 65.4682 29.426 65.59 29.6221C65.7185 29.8115 65.8402 30.0415 65.9552 30.312L67.2741 33.2847L68.0046 31.7832C68.1332 31.5126 68.1974 31.286 68.1974 31.1034C68.1974 30.8464 68.1298 30.6232 67.9945 30.4338C67.8592 30.2444 67.6698 30.0922 67.4263 29.9772L68.1873 28.9424ZM70.9629 28.2525L70.3237 28.4554L69.9078 26.3349L71.318 25.8581L70.9629 28.2525ZM71.2876 33.4572C71.2876 33.5587 71.3113 33.6398 71.3586 33.7007C71.4059 33.7616 71.4702 33.792 71.5514 33.792C71.7205 33.792 71.8929 33.6737 72.0688 33.4369L72.2514 33.6297C72.1026 33.9002 71.9098 34.1065 71.6731 34.2486C71.4431 34.3906 71.2132 34.4616 70.9832 34.4616C70.3677 34.4616 70.0599 34.1065 70.0599 33.3963V29.7439L71.2876 29.3178V33.4572ZM76.8325 29.2265C77.0692 29.2265 77.2417 29.2975 77.3499 29.4395C77.4581 29.5748 77.5257 29.7371 77.5528 29.9265C77.5799 30.1091 77.5934 30.3459 77.5934 30.6367V33.4572C77.5934 33.5384 77.6171 33.6162 77.6644 33.6906C77.7185 33.7582 77.7828 33.792 77.8572 33.792C77.9586 33.792 78.0466 33.7616 78.121 33.7007C78.2021 33.6331 78.2867 33.5451 78.3746 33.4369L78.5471 33.6297C78.4253 33.8664 78.2562 34.066 78.0398 34.2283C77.8301 34.3839 77.6035 34.4616 77.36 34.4616C77.0354 34.4616 76.7919 34.3703 76.6295 34.1877C76.4672 33.9983 76.386 33.7345 76.386 33.3963V30.7382C76.386 30.6435 76.3759 30.5623 76.3556 30.4947C76.3353 30.427 76.288 30.3932 76.2136 30.3932C75.9836 30.3932 75.7502 30.6401 75.5135 31.1338C75.2768 31.6208 75.0772 32.1822 74.9149 32.818C74.7526 33.4538 74.6714 33.9341 74.6714 34.2587L73.4844 34.5225V30.2613C73.4844 30.1599 73.4607 30.0753 73.4133 30.0077C73.366 29.94 73.2984 29.9062 73.2104 29.9062C73.1157 29.9062 73.021 29.9468 72.9263 30.028C72.8384 30.1024 72.764 30.1903 72.7031 30.2918L72.5205 30.0888C72.622 29.8521 72.7809 29.6492 72.9974 29.4801C73.2138 29.311 73.4472 29.2265 73.6974 29.2265C74.0356 29.2265 74.2825 29.3211 74.4381 29.5105C74.5936 29.6932 74.6714 29.9502 74.6714 30.2816V32.2397H74.712C74.8946 31.4889 75.1652 30.799 75.5237 30.17C75.8889 29.541 76.3252 29.2265 76.8325 29.2265ZM81.8763 29.2265C82.228 29.2265 82.5595 29.311 82.8706 29.4801C83.1885 29.6492 83.4252 29.8859 83.5808 30.1903L82.5967 30.5961C82.4952 30.3662 82.3599 30.1903 82.1908 30.0685C82.0285 29.94 81.8493 29.8758 81.6531 29.8758C81.3623 29.8758 81.1052 29.9874 80.882 30.2106C80.6588 30.427 80.4863 30.6976 80.3646 31.0222C80.2496 31.3469 80.1921 31.6648 80.1921 31.9759C80.1921 32.4562 80.2767 32.8755 80.4458 33.234C80.6149 33.5857 80.8854 33.7616 81.2574 33.7616C81.6835 33.7616 81.9778 33.5384 82.1401 33.092C82.3092 32.6456 82.3937 32.1653 82.3937 31.6513V31.2049L83.5909 30.7787V33.8935C83.5909 34.4143 83.4557 34.9453 83.1851 35.4864C82.9146 36.0342 82.5493 36.484 82.0894 36.8357C81.6294 37.1942 81.1323 37.3735 80.5979 37.3735C80.2192 37.3735 79.908 37.2483 79.6645 36.9981L80.5269 36.1763C80.7434 36.4604 80.997 36.6024 81.2879 36.6024C81.741 36.6024 82.0386 36.4299 82.1807 36.085C82.3295 35.7468 82.4039 35.297 82.4039 34.7356L82.3937 34.0254C82.3937 33.721 82.4208 33.4741 82.4749 33.2847H82.3937C82.1976 33.65 81.9778 33.9476 81.7343 34.1776C81.4908 34.4008 81.1965 34.5124 80.8516 34.5124C80.297 34.5124 79.8675 34.3196 79.5631 33.9341C79.2587 33.5485 79.1065 33.0615 79.1065 32.4731C79.1065 31.9184 79.2215 31.3909 79.4515 30.8903C79.6882 30.3898 80.0163 29.9874 80.4356 29.683C80.8617 29.3786 81.342 29.2265 81.8763 29.2265Z" fill="white"/>
</svg>
