<svg width="117" height="30" viewBox="0 0 117 30" fill="none" xmlns="http://www.w3.org/2000/svg">
<rect x="0.335938" y="0.617188" width="115.77" height="28.4917" rx="14.2458" fill="#5C3262"/>
<g clip-path="url(#clip0_1970_2358)">
<path d="M23.2881 18.0032C23.6038 18.3189 23.6038 18.8306 23.2881 19.1457C22.9725 19.4613 22.4608 19.4613 22.1457 19.1457L19.6497 16.6497C19.4391 16.439 19.0981 16.439 18.888 16.6497C18.6774 16.8603 18.6774 17.2012 18.888 17.4113L21.1562 19.6795C21.4719 19.9951 21.4719 20.5068 21.1562 20.8219C20.8406 21.1375 20.3289 21.1375 20.0138 20.8219L17.4968 18.3049C15.9046 16.7515 14.2773 14.6804 14.2773 12.7079C14.2773 10.6288 15.848 8.9375 17.7785 8.9375C18.7335 8.9375 19.4649 9.29408 20.0219 9.68997L18.0618 11.6334C17.7052 11.9894 17.5091 12.4634 17.5091 12.967C17.5091 13.4706 17.7052 13.9441 18.0607 14.2996C18.4167 14.6562 18.8902 14.8522 19.3944 14.8522C19.6238 14.8522 19.8452 14.8064 20.0542 14.7289L23.2887 18.0038L23.2881 18.0032ZM22.045 12.9907L20.9182 14.11L24.2092 17.3515C24.5248 17.6671 25.0365 17.6671 25.3516 17.3515C25.8343 16.8689 25.4211 16.3346 25.4211 16.3346L22.045 12.9907ZM23.6803 8.96874C22.8001 8.97413 21.9642 9.35656 21.32 9.95659L18.8223 12.4375C18.5067 12.7532 18.5067 13.2649 18.8223 13.58C19.138 13.8956 19.6497 13.8956 19.9648 13.58L21.3097 12.2442C21.7299 11.8267 22.4075 11.8267 22.8281 12.2442L26.2345 15.6257C26.876 14.5905 27.2035 13.6209 27.2035 12.7392C27.2035 10.66 25.6102 8.96874 23.6797 8.96874H23.6803Z" fill="white"/>
</g>
<path d="M30.7063 17.8594V11.6209H33.1675C33.6407 11.6209 34.0438 11.7113 34.3769 11.892C34.7099 12.0707 34.9637 12.3195 35.1384 12.6383C35.3151 12.9551 35.4034 13.3206 35.4034 13.7349C35.4034 14.1492 35.3141 14.5147 35.1353 14.8315C34.9566 15.1483 34.6977 15.3951 34.3586 15.5717C34.0215 15.7484 33.6133 15.8367 33.134 15.8367H31.5653V14.7797H32.9208C33.1747 14.7797 33.3838 14.7361 33.5483 14.6488C33.7148 14.5594 33.8387 14.4365 33.9199 14.2802C34.0032 14.1218 34.0448 13.94 34.0448 13.7349C34.0448 13.5278 34.0032 13.347 33.9199 13.1927C33.8387 13.0363 33.7148 12.9155 33.5483 12.8302C33.3818 12.7429 33.1706 12.6992 32.9147 12.6992H32.0252V17.8594H30.7063ZM38.2744 17.9508C37.8012 17.9508 37.392 17.8502 37.0468 17.6492C36.7036 17.4461 36.4386 17.1638 36.2518 16.8024C36.0649 16.4389 35.9715 16.0175 35.9715 15.5382C35.9715 15.0549 36.0649 14.6325 36.2518 14.271C36.4386 13.9075 36.7036 13.6253 37.0468 13.4242C37.392 13.2211 37.8012 13.1196 38.2744 13.1196C38.7475 13.1196 39.1557 13.2211 39.4989 13.4242C39.8442 13.6253 40.1102 13.9075 40.297 14.271C40.4838 14.6325 40.5773 15.0549 40.5773 15.5382C40.5773 16.0175 40.4838 16.4389 40.297 16.8024C40.1102 17.1638 39.8442 17.4461 39.4989 17.6492C39.1557 17.8502 38.7475 17.9508 38.2744 17.9508ZM38.2805 16.9455C38.4957 16.9455 38.6755 16.8846 38.8196 16.7628C38.9638 16.6389 39.0725 16.4703 39.1456 16.2571C39.2207 16.0439 39.2583 15.8012 39.2583 15.5291C39.2583 15.257 39.2207 15.0143 39.1456 14.8011C39.0725 14.5878 38.9638 14.4193 38.8196 14.2954C38.6755 14.1715 38.4957 14.1096 38.2805 14.1096C38.0632 14.1096 37.8804 14.1715 37.7322 14.2954C37.586 14.4193 37.4753 14.5878 37.4001 14.8011C37.327 15.0143 37.2905 15.257 37.2905 15.5291C37.2905 15.8012 37.327 16.0439 37.4001 16.2571C37.4753 16.4703 37.586 16.6389 37.7322 16.7628C37.8804 16.8846 38.0632 16.9455 38.2805 16.9455ZM44.4215 15.8672V13.1805H45.7191V17.8594H44.4733V17.0095H44.4245C44.3189 17.2837 44.1433 17.504 43.8975 17.6705C43.6538 17.837 43.3563 17.9203 43.005 17.9203C42.6923 17.9203 42.4171 17.8492 42.1795 17.7071C41.9419 17.5649 41.7561 17.3629 41.6221 17.1009C41.4901 16.8389 41.4231 16.5252 41.421 16.1596V13.1805H42.7187V15.9281C42.7207 16.2043 42.7948 16.4226 42.9411 16.583C43.0873 16.7435 43.2832 16.8237 43.529 16.8237C43.6853 16.8237 43.8315 16.7882 43.9676 16.7171C44.1037 16.644 44.2133 16.5363 44.2966 16.3942C44.3819 16.252 44.4235 16.0764 44.4215 15.8672ZM46.7571 17.8594V13.1805H48.0151V13.9969H48.0639C48.1492 13.7065 48.2923 13.4872 48.4934 13.3389C48.6944 13.1886 48.9259 13.1135 49.1879 13.1135C49.2529 13.1135 49.323 13.1176 49.3981 13.1257C49.4732 13.1338 49.5392 13.145 49.5961 13.1592V14.3106C49.5352 14.2924 49.4509 14.2761 49.3433 14.2619C49.2356 14.2477 49.1371 14.2406 49.0478 14.2406C48.8569 14.2406 48.6863 14.2822 48.536 14.3655C48.3878 14.4467 48.27 14.5604 48.1827 14.7066C48.0974 14.8528 48.0547 15.0214 48.0547 15.2123V17.8594H46.7571ZM53.5957 11.6209V17.8594H52.2767V11.6209H53.5957ZM55.9541 15.1544V17.8594H54.6565V13.1805H55.8932V14.006H55.948C56.0516 13.7339 56.2252 13.5186 56.4689 13.3602C56.7126 13.1998 57.0081 13.1196 57.3553 13.1196C57.6803 13.1196 57.9636 13.1907 58.2052 13.3328C58.4469 13.475 58.6347 13.6781 58.7687 13.9421C58.9028 14.204 58.9698 14.5168 58.9698 14.8803V17.8594H57.6721V15.1118C57.6742 14.8254 57.6011 14.602 57.4528 14.4416C57.3046 14.2792 57.1005 14.1979 56.8405 14.1979C56.6659 14.1979 56.5116 14.2355 56.3775 14.3106C56.2455 14.3858 56.142 14.4954 56.0668 14.6396C55.9937 14.7818 55.9562 14.9534 55.9541 15.1544ZM62.4812 13.1805V14.1553H59.6635V13.1805H62.4812ZM60.3032 12.0595H61.6009V16.4216C61.6009 16.5414 61.6192 16.6348 61.6557 16.7018C61.6923 16.7668 61.743 16.8125 61.808 16.8389C61.875 16.8653 61.9522 16.8785 62.0395 16.8785C62.1004 16.8785 62.1614 16.8734 62.2223 16.8633C62.2832 16.8511 62.3299 16.842 62.3624 16.8359L62.5665 17.8015C62.5015 17.8218 62.4101 17.8452 62.2924 17.8716C62.1746 17.9 62.0314 17.9173 61.8629 17.9233C61.5501 17.9355 61.276 17.8939 61.0404 17.7985C60.8069 17.703 60.6251 17.5548 60.4951 17.3537C60.3652 17.1527 60.3012 16.8988 60.3032 16.5922V12.0595ZM65.3903 17.9508C64.9171 17.9508 64.5079 17.8502 64.1627 17.6492C63.8195 17.4461 63.5545 17.1638 63.3676 16.8024C63.1808 16.4389 63.0874 16.0175 63.0874 15.5382C63.0874 15.0549 63.1808 14.6325 63.3676 14.271C63.5545 13.9075 63.8195 13.6253 64.1627 13.4242C64.5079 13.2211 64.9171 13.1196 65.3903 13.1196C65.8634 13.1196 66.2716 13.2211 66.6148 13.4242C66.96 13.6253 67.2261 13.9075 67.4129 14.271C67.5997 14.6325 67.6931 15.0549 67.6931 15.5382C67.6931 16.0175 67.5997 16.4389 67.4129 16.8024C67.2261 17.1638 66.96 17.4461 66.6148 17.6492C66.2716 17.8502 65.8634 17.9508 65.3903 17.9508ZM65.3964 16.9455C65.6116 16.9455 65.7913 16.8846 65.9355 16.7628C66.0797 16.6389 66.1884 16.4703 66.2615 16.2571C66.3366 16.0439 66.3742 15.8012 66.3742 15.5291C66.3742 15.257 66.3366 15.0143 66.2615 14.8011C66.1884 14.5878 66.0797 14.4193 65.9355 14.2954C65.7913 14.1715 65.6116 14.1096 65.3964 14.1096C65.1791 14.1096 64.9963 14.1715 64.8481 14.2954C64.7018 14.4193 64.5912 14.5878 64.516 14.8011C64.4429 15.0143 64.4064 15.257 64.4064 15.5291C64.4064 15.8012 64.4429 16.0439 64.516 16.2571C64.5912 16.4703 64.7018 16.6389 64.8481 16.7628C64.9963 16.8846 65.1791 16.9455 65.3964 16.9455ZM70.5466 11.6209H72.1732L73.8913 15.8124H73.9644L75.6824 11.6209H77.309V17.8594H76.0296V13.7989H75.9779L74.3634 17.8289H73.4922L71.8778 13.7837H71.826V17.8594H70.5466V11.6209ZM79.1725 19.6139C79.008 19.6139 78.8537 19.6007 78.7095 19.5743C78.5673 19.55 78.4495 19.5185 78.3561 19.4799L78.6486 18.5112C78.8009 18.558 78.9379 18.5833 79.0598 18.5874C79.1837 18.5915 79.2903 18.563 79.3796 18.5021C79.471 18.4412 79.5451 18.3376 79.602 18.1914L79.6781 17.9934L77.9997 13.1805H79.3644L80.3331 16.6166H80.3818L81.3596 13.1805H82.7334L80.9149 18.365C80.8276 18.6168 80.7088 18.8362 80.5585 19.023C80.4102 19.2119 80.2224 19.3571 79.9949 19.4586C79.7675 19.5622 79.4933 19.6139 79.1725 19.6139ZM90.9115 13.805H89.5773C89.5529 13.6324 89.5032 13.479 89.428 13.345C89.3529 13.2089 89.2564 13.0932 89.1387 12.9978C89.0209 12.9023 88.8848 12.8292 88.7305 12.7784C88.5782 12.7277 88.4127 12.7023 88.234 12.7023C87.9111 12.7023 87.6298 12.7825 87.3902 12.9429C87.1506 13.1013 86.9647 13.3328 86.8327 13.6374C86.7007 13.94 86.6347 14.3076 86.6347 14.7401C86.6347 15.1849 86.7007 15.5585 86.8327 15.8611C86.9668 16.1637 87.1536 16.3922 87.3932 16.5465C87.6329 16.7008 87.9101 16.778 88.2248 16.778C88.4015 16.778 88.565 16.7546 88.7152 16.7079C88.8676 16.6612 89.0026 16.5932 89.1204 16.5038C89.2382 16.4125 89.3356 16.3018 89.4128 16.1718C89.492 16.0419 89.5468 15.8936 89.5773 15.7271L90.9115 15.7332C90.877 16.0195 90.7907 16.2957 90.6526 16.5617C90.5165 16.8257 90.3327 17.0623 90.1012 17.2715C89.8718 17.4786 89.5976 17.6431 89.2788 17.7649C88.962 17.8848 88.6036 17.9447 88.2035 17.9447C87.6471 17.9447 87.1495 17.8188 86.7109 17.5669C86.2743 17.3151 85.9291 16.9506 85.6752 16.4734C85.4234 15.9962 85.2975 15.4184 85.2975 14.7401C85.2975 14.0598 85.4254 13.4811 85.6813 13.0038C85.9372 12.5266 86.2844 12.1631 86.7231 11.9133C87.1617 11.6615 87.6552 11.5356 88.2035 11.5356C88.565 11.5356 88.9 11.5864 89.2087 11.6879C89.5194 11.7895 89.7946 11.9377 90.0342 12.1327C90.2739 12.3256 90.4688 12.5622 90.6191 12.8424C90.7714 13.1226 90.8689 13.4435 90.9115 13.805ZM94.8334 15.8672V13.1805H96.1311V17.8594H94.8852V17.0095H94.8364C94.7308 17.2837 94.5552 17.504 94.3095 17.6705C94.0658 17.837 93.7683 17.9203 93.417 17.9203C93.1042 17.9203 92.829 17.8492 92.5914 17.7071C92.3539 17.5649 92.168 17.3629 92.034 17.1009C91.902 16.8389 91.835 16.5252 91.833 16.1596V13.1805H93.1306V15.9281C93.1326 16.2043 93.2068 16.4226 93.353 16.583C93.4992 16.7435 93.6952 16.8237 93.9409 16.8237C94.0973 16.8237 94.2435 16.7882 94.3795 16.7171C94.5156 16.644 94.6252 16.5363 94.7085 16.3942C94.7938 16.252 94.8354 16.0764 94.8334 15.8672ZM97.169 19.6139V13.1805H98.4484V13.9664H98.5063C98.5631 13.8405 98.6454 13.7126 98.753 13.5826C98.8627 13.4506 99.0048 13.3409 99.1795 13.2536C99.3561 13.1643 99.5755 13.1196 99.8374 13.1196C100.179 13.1196 100.493 13.209 100.782 13.3877C101.07 13.5643 101.301 13.8314 101.473 14.1888C101.646 14.5442 101.732 14.9899 101.732 15.526C101.732 16.0479 101.648 16.4886 101.479 16.8481C101.313 17.2055 101.085 17.4766 100.797 17.6614C100.511 17.8441 100.19 17.9355 99.8344 17.9355C99.5826 17.9355 99.3683 17.8939 99.1916 17.8106C99.017 17.7274 98.8738 17.6228 98.7621 17.4969C98.6505 17.3689 98.5652 17.24 98.5063 17.11H98.4667V19.6139H97.169ZM98.4393 15.5199C98.4393 15.7982 98.4778 16.0408 98.555 16.248C98.6322 16.4551 98.7439 16.6166 98.8901 16.7323C99.0363 16.846 99.214 16.9029 99.4232 16.9029C99.6344 16.9029 99.8131 16.845 99.9593 16.7293C100.105 16.6115 100.216 16.449 100.291 16.2419C100.368 16.0327 100.407 15.7921 100.407 15.5199C100.407 15.2499 100.369 15.0123 100.294 14.8072C100.219 14.602 100.109 14.4416 99.9623 14.3259C99.8161 14.2101 99.6364 14.1522 99.4232 14.1522C99.212 14.1522 99.0333 14.2081 98.887 14.3198C98.7429 14.4315 98.6322 14.5899 98.555 14.795C98.4778 15.0001 98.4393 15.2417 98.4393 15.5199Z" fill="white"/>
<defs>
<clipPath id="clip0_1970_2358">
<rect width="12.9272" height="12.9272" fill="white" transform="translate(14.2773 8.39844)"/>
</clipPath>
</defs>
</svg>
