<svg width="321" height="79" viewBox="0 0 321 79" fill="none" xmlns="http://www.w3.org/2000/svg">
<rect width="321" height="79" rx="39.5" fill="white"/>
<g clip-path="url(#clip0_1705_1235)">
<path d="M63.4572 48.2072C64.3324 49.0824 64.3324 50.5012 63.4572 51.3749C62.5821 52.2501 61.1632 52.2501 60.2896 51.3749L53.3687 44.4541C52.7848 43.8701 51.8394 43.8701 51.2569 44.4541C50.673 45.038 50.673 45.9834 51.2569 46.5659L57.546 52.855C58.4212 53.7302 58.4212 55.149 57.546 56.0227C56.6708 56.8978 55.252 56.8978 54.3783 56.0227L47.3992 49.0436C42.9845 44.7364 38.4727 38.9939 38.4727 33.5247C38.4727 27.7599 42.8277 23.0703 48.1803 23.0703C50.8283 23.0703 52.8565 24.059 54.4007 25.1567L48.9659 30.5452C47.9772 31.5324 47.4336 32.8467 47.4336 34.2431C47.4336 35.6395 47.9772 36.9523 48.9629 37.938C49.9501 38.9267 51.2629 39.4703 52.6608 39.4703C53.297 39.4703 53.9109 39.3434 54.4903 39.1283L63.4587 48.2087L63.4572 48.2072ZM60.0103 34.3088L56.8859 37.4123L66.0111 46.4001C66.8863 47.2753 68.3051 47.2753 69.1788 46.4001C70.517 45.0619 69.3715 43.5804 69.3715 43.5804L60.0103 34.3088ZM64.5445 23.1569C62.1041 23.1719 59.7862 24.2322 58 25.896L51.0747 32.775C50.1995 33.6502 50.1995 35.069 51.0747 35.9427C51.9499 36.8179 53.3687 36.8179 54.2424 35.9427L57.9717 32.2388C59.1366 31.0814 61.0154 31.0814 62.1818 32.2388L71.6266 41.615C73.4054 38.7445 74.3134 36.0562 74.3134 33.6114C74.3134 27.8465 69.8957 23.1569 64.543 23.1569H64.5445Z" fill="#5C3C6E"/>
</g>
<path d="M84.0308 48.5V31.2023H90.8552C92.1672 31.2023 93.2849 31.4529 94.2083 31.954C95.1318 32.4496 95.8356 33.1393 96.3199 34.0233C96.8097 34.9017 97.0547 35.9153 97.0547 37.0639C97.0547 38.2126 96.8069 39.2262 96.3114 40.1046C95.8159 40.9829 95.098 41.6671 94.1577 42.157C93.223 42.6468 92.0912 42.8918 90.7623 42.8918H86.4126V39.961H90.1711C90.8749 39.961 91.4549 39.8399 91.911 39.5978C92.3727 39.35 92.7162 39.0094 92.9414 38.5758C93.1723 38.1366 93.2877 37.6327 93.2877 37.0639C93.2877 36.4896 93.1723 35.9885 92.9414 35.5605C92.7162 35.127 92.3727 34.7919 91.911 34.5555C91.4493 34.3133 90.8637 34.1923 90.1542 34.1923H87.6879V48.5H84.0308ZM105.015 48.7534C103.703 48.7534 102.569 48.4747 101.611 47.9172C100.66 47.3541 99.9249 46.5715 99.4069 45.5692C98.8889 44.5613 98.6299 43.3929 98.6299 42.0641C98.6299 40.7239 98.8889 39.5527 99.4069 38.5505C99.9249 37.5426 100.66 36.7599 101.611 36.2024C102.569 35.6394 103.703 35.3578 105.015 35.3578C106.327 35.3578 107.459 35.6394 108.41 36.2024C109.368 36.7599 110.105 37.5426 110.623 38.5505C111.141 39.5527 111.4 40.7239 111.4 42.0641C111.4 43.3929 111.141 44.5613 110.623 45.5692C110.105 46.5715 109.368 47.3541 108.41 47.9172C107.459 48.4747 106.327 48.7534 105.015 48.7534ZM105.032 45.9662C105.629 45.9662 106.127 45.7972 106.527 45.4594C106.927 45.1159 107.228 44.6486 107.431 44.0573C107.639 43.4661 107.743 42.7932 107.743 42.0387C107.743 41.2842 107.639 40.6113 107.431 40.0201C107.228 39.4289 106.927 38.9615 106.527 38.618C106.127 38.2746 105.629 38.1028 105.032 38.1028C104.43 38.1028 103.923 38.2746 103.512 38.618C103.106 38.9615 102.799 39.4289 102.591 40.0201C102.388 40.6113 102.287 41.2842 102.287 42.0387C102.287 42.7932 102.388 43.4661 102.591 44.0573C102.799 44.6486 103.106 45.1159 103.512 45.4594C103.923 45.7972 104.43 45.9662 105.032 45.9662ZM122.059 42.9762V35.5268H125.657V48.5H122.203V46.1435H122.068C121.775 46.9037 121.288 47.5146 120.607 47.9763C119.931 48.4381 119.106 48.6689 118.132 48.6689C117.265 48.6689 116.502 48.4718 115.843 48.0777C115.184 47.6835 114.669 47.1233 114.297 46.3969C113.931 45.6705 113.746 44.8006 113.74 43.7871V35.5268H117.338V43.1452C117.344 43.9109 117.549 44.5162 117.955 44.9611C118.36 45.4059 118.903 45.6283 119.585 45.6283C120.018 45.6283 120.424 45.5298 120.801 45.3327C121.178 45.13 121.482 44.8316 121.713 44.4374C121.95 44.0433 122.065 43.5562 122.059 42.9762ZM128.535 48.5V35.5268H132.024V37.7903H132.159C132.395 36.9851 132.792 36.377 133.35 35.966C133.907 35.5493 134.549 35.3409 135.275 35.3409C135.456 35.3409 135.65 35.3522 135.858 35.3747C136.067 35.3972 136.25 35.4282 136.407 35.4676V38.6603C136.238 38.6096 136.005 38.5645 135.706 38.5251C135.408 38.4857 135.135 38.466 134.887 38.466C134.358 38.466 133.885 38.5814 133.468 38.8123C133.057 39.0375 132.73 39.3528 132.488 39.7583C132.252 40.1637 132.134 40.631 132.134 41.1603V48.5H128.535ZM147.497 31.2023V48.5H143.84V31.2023H147.497ZM154.036 40.9998V48.5H150.438V35.5268H153.868V37.8157H154.02C154.307 37.0611 154.788 36.4643 155.464 36.0251C156.14 35.5802 156.959 35.3578 157.922 35.3578C158.823 35.3578 159.608 35.5549 160.278 35.9491C160.948 36.3432 161.469 36.9063 161.841 37.6383C162.212 38.3647 162.398 39.2318 162.398 40.2397V48.5H158.8V40.8816C158.806 40.0877 158.603 39.4683 158.192 39.0234C157.781 38.573 157.215 38.3478 156.494 38.3478C156.01 38.3478 155.582 38.4519 155.21 38.6603C154.844 38.8686 154.557 39.1727 154.349 39.5724C154.146 39.9666 154.042 40.4424 154.036 40.9998ZM172.134 35.5268V38.2295H164.322V35.5268H172.134ZM166.095 32.4186H169.693V44.5134C169.693 44.8456 169.744 45.1047 169.845 45.2905C169.947 45.4707 170.088 45.5973 170.268 45.6705C170.454 45.7437 170.668 45.7803 170.91 45.7803C171.079 45.7803 171.248 45.7663 171.416 45.7381C171.585 45.7043 171.715 45.679 171.805 45.6621L172.371 48.3395C172.191 48.3958 171.937 48.4606 171.611 48.5338C171.284 48.6126 170.887 48.6605 170.42 48.6774C169.553 48.7112 168.793 48.5957 168.139 48.3311C167.492 48.0664 166.988 47.6554 166.628 47.0979C166.267 46.5405 166.09 45.8367 166.095 44.9864V32.4186ZM180.2 48.7534C178.888 48.7534 177.754 48.4747 176.797 47.9172C175.845 47.3541 175.11 46.5715 174.592 45.5692C174.074 44.5613 173.815 43.3929 173.815 42.0641C173.815 40.7239 174.074 39.5527 174.592 38.5505C175.11 37.5426 175.845 36.7599 176.797 36.2024C177.754 35.6394 178.888 35.3578 180.2 35.3578C181.512 35.3578 182.644 35.6394 183.596 36.2024C184.553 36.7599 185.291 37.5426 185.809 38.5505C186.327 39.5527 186.586 40.7239 186.586 42.0641C186.586 43.3929 186.327 44.5613 185.809 45.5692C185.291 46.5715 184.553 47.3541 183.596 47.9172C182.644 48.4747 181.512 48.7534 180.2 48.7534ZM180.217 45.9662C180.814 45.9662 181.312 45.7972 181.712 45.4594C182.112 45.1159 182.413 44.6486 182.616 44.0573C182.824 43.4661 182.929 42.7932 182.929 42.0387C182.929 41.2842 182.824 40.6113 182.616 40.0201C182.413 39.4289 182.112 38.9615 181.712 38.618C181.312 38.2746 180.814 38.1028 180.217 38.1028C179.615 38.1028 179.108 38.2746 178.697 38.618C178.292 38.9615 177.985 39.4289 177.776 40.0201C177.574 40.6113 177.472 41.2842 177.472 42.0387C177.472 42.7932 177.574 43.4661 177.776 44.0573C177.985 44.6486 178.292 45.1159 178.697 45.4594C179.108 45.7972 179.615 45.9662 180.217 45.9662ZM194.498 31.2023H199.008L203.771 42.8242H203.974L208.738 31.2023H213.248V48.5H209.701V37.2413H209.557L205.081 48.4155H202.665L198.189 37.1991H198.045V48.5H194.498V31.2023ZM218.415 53.365C217.959 53.365 217.531 53.3284 217.131 53.2552C216.737 53.1876 216.41 53.1003 216.151 52.9933L216.962 50.3075C217.384 50.437 217.765 50.5074 218.102 50.5186C218.446 50.5299 218.741 50.4511 218.989 50.2821C219.243 50.1132 219.448 49.826 219.606 49.4206L219.817 48.8716L215.163 35.5268H218.947L221.633 45.054H221.768L224.479 35.5268H228.288L223.246 49.9021C223.004 50.6003 222.675 51.2084 222.258 51.7264C221.847 52.2501 221.326 52.6527 220.695 52.9342C220.065 53.2214 219.305 53.365 218.415 53.365ZM250.964 37.2582H247.265C247.197 36.7796 247.059 36.3545 246.851 35.9828C246.643 35.6056 246.375 35.2846 246.049 35.02C245.722 34.7553 245.345 34.5526 244.917 34.4119C244.494 34.2711 244.036 34.2007 243.54 34.2007C242.645 34.2007 241.865 34.4231 241.2 34.868C240.536 35.3072 240.021 35.9491 239.655 36.7937C239.289 37.6327 239.106 38.6518 239.106 39.8512C239.106 41.0843 239.289 42.1204 239.655 42.9593C240.026 43.7983 240.544 44.4318 241.209 44.8597C241.873 45.2877 242.642 45.5016 243.515 45.5016C244.005 45.5016 244.458 45.4369 244.874 45.3074C245.297 45.1779 245.671 44.9892 245.998 44.7415C246.324 44.4881 246.595 44.1812 246.809 43.8208C247.028 43.4605 247.18 43.0494 247.265 42.5877L250.964 42.6046C250.868 43.3985 250.629 44.1643 250.246 44.902C249.869 45.6339 249.359 46.2899 248.717 46.8699C248.081 47.4442 247.321 47.9003 246.437 48.2382C245.559 48.5704 244.565 48.7365 243.456 48.7365C241.913 48.7365 240.533 48.3874 239.317 47.6892C238.106 46.991 237.149 45.9802 236.445 44.657C235.747 43.3338 235.398 41.7318 235.398 39.8512C235.398 37.9649 235.753 36.3601 236.462 35.0369C237.172 33.7137 238.134 32.7057 239.351 32.0132C240.567 31.315 241.935 30.9658 243.456 30.9658C244.458 30.9658 245.387 31.1066 246.243 31.3882C247.104 31.6697 247.867 32.0807 248.532 32.6213C249.196 33.1562 249.737 33.8122 250.153 34.5892C250.576 35.3663 250.846 36.2559 250.964 37.2582ZM261.839 42.9762V35.5268H265.437V48.5H261.982V46.1435H261.847C261.554 46.9037 261.067 47.5146 260.386 47.9763C259.71 48.4381 258.885 48.6689 257.911 48.6689C257.044 48.6689 256.281 48.4718 255.622 48.0777C254.963 47.6835 254.448 47.1233 254.077 46.3969C253.711 45.6705 253.525 44.8006 253.519 43.7871V35.5268H257.117V43.1452C257.123 43.9109 257.328 44.5162 257.734 44.9611C258.139 45.4059 258.683 45.6283 259.364 45.6283C259.797 45.6283 260.203 45.5298 260.58 45.3327C260.957 45.13 261.261 44.8316 261.492 44.4374C261.729 44.0433 261.844 43.5562 261.839 42.9762ZM268.315 53.365V35.5268H271.862V37.7059H272.022C272.18 37.3567 272.408 37.002 272.707 36.6416C273.011 36.2756 273.405 35.9716 273.889 35.7295C274.379 35.4817 274.987 35.3578 275.713 35.3578C276.659 35.3578 277.532 35.6056 278.332 36.1011C279.131 36.591 279.77 37.3314 280.249 38.3224C280.728 39.3078 280.967 40.5438 280.967 42.0303C280.967 43.4774 280.733 44.6992 280.266 45.6959C279.804 46.6869 279.173 47.4386 278.374 47.951C277.58 48.4578 276.69 48.7112 275.705 48.7112C275.007 48.7112 274.413 48.5957 273.923 48.3649C273.439 48.134 273.042 47.844 272.732 47.4949C272.422 47.1402 272.186 46.7826 272.022 46.4223H271.913V53.365H268.315ZM271.837 42.0134C271.837 42.7848 271.944 43.4577 272.158 44.032C272.372 44.6063 272.681 45.054 273.087 45.3749C273.492 45.6903 273.985 45.8479 274.565 45.8479C275.15 45.8479 275.646 45.6874 276.051 45.3665C276.457 45.0399 276.764 44.5894 276.972 44.0151C277.186 43.4351 277.293 42.7679 277.293 42.0134C277.293 41.2645 277.189 40.6057 276.98 40.037C276.772 39.4683 276.465 39.0234 276.06 38.7025C275.654 38.3815 275.156 38.2211 274.565 38.2211C273.979 38.2211 273.484 38.3759 273.078 38.6856C272.678 38.9953 272.372 39.4345 272.158 40.0032C271.944 40.5719 271.837 41.242 271.837 42.0134Z" fill="#5C3C6E"/>
<defs>
<clipPath id="clip0_1705_1235">
<rect width="35.8438" height="35.8438" fill="white" transform="translate(38.4727 21.5781)"/>
</clipPath>
</defs>
</svg>
