<svg width="19" height="19" viewBox="0 0 19 19" fill="none" xmlns="http://www.w3.org/2000/svg">
<g clip-path="url(#clip0_2176_2821)">
<path d="M13.1539 14.0153C13.6146 14.4761 13.6146 15.2231 13.1539 15.6831C12.6931 16.1438 11.9461 16.1438 11.4862 15.6831L7.84248 12.0394C7.53504 11.7319 7.03731 11.7319 6.73066 12.0394C6.42322 12.3468 6.42322 12.8445 6.73066 13.1512L10.0417 16.4623C10.5025 16.923 10.5025 17.67 10.0417 18.13C9.58097 18.5908 8.83399 18.5908 8.37401 18.13L4.69967 14.4557C2.37539 12.188 0 9.1647 0 6.28529C0 3.25021 2.29283 0.78125 5.1109 0.78125C6.50499 0.78125 7.57278 1.30178 8.3858 1.8797L5.52449 4.71664C5.00396 5.23638 4.71775 5.92832 4.71775 6.6635C4.71775 7.39868 5.00396 8.08983 5.52291 8.60879C6.04265 9.12931 6.7338 9.41552 7.46977 9.41552C7.80473 9.41552 8.1279 9.34869 8.43298 9.23546L13.1547 14.0161L13.1539 14.0153ZM11.3391 6.6981L9.69419 8.33201L14.4984 13.0639C14.9592 13.5247 15.7062 13.5247 16.1662 13.0639C16.8707 12.3594 16.2676 11.5794 16.2676 11.5794L11.3391 6.6981ZM13.7263 0.826855C12.4415 0.834718 11.2212 1.39299 10.2808 2.26891L6.63473 5.89058C6.17396 6.35134 6.17396 7.09832 6.63473 7.5583C7.0955 8.01907 7.84248 8.01907 8.30246 7.5583L10.2658 5.6083C10.8791 4.99892 11.8683 4.99892 12.4824 5.6083L17.4549 10.5446C18.3914 9.03338 18.8694 7.61806 18.8694 6.3309C18.8694 3.29581 16.5436 0.826855 13.7255 0.826855H13.7263Z" fill="#2481C2"/>
</g>
<defs>
<clipPath id="clip0_2176_2821">
<rect width="18.871" height="18.871" fill="white"/>
</clipPath>
</defs>
</svg>
