<svg width="70" height="70" viewBox="0 0 70 70" fill="none" xmlns="http://www.w3.org/2000/svg">
<path d="M1.96139e-09 35C0.000152588 13.125 6.25015 1.70805e-05 35 0C63.7498 -1.70804e-05 70 11.5625 70 35C70 60 59.3752 70 35 70C13.4375 70 -0.000187461 61.875 1.96139e-09 35Z" fill="#2481C2"/>
<path d="M35.4817 13.875C27.1773 13.9294 22.5235 18.7969 22.3754 27.5756C22.3492 29.13 23.6148 30.435 25.1879 30.435C26.7198 30.435 27.9723 29.2069 28.0004 27.6694C28.096 21.975 30.3442 19.5319 35.4817 19.4981C40.5892 19.5338 42.9085 22.0537 43.0004 27.5737C42.901 33.345 40.7223 35.7112 35.4835 35.745C33.9367 35.7544 32.6879 37.0106 32.6879 38.5575V43.1569C32.6879 44.7113 33.946 45.9694 35.5004 45.9694C37.0548 45.9694 38.3129 44.7113 38.3129 43.1569V41.1506C44.8567 40.1081 48.4923 35.4019 48.6254 27.5775C48.4848 18.9262 43.7073 13.9312 35.4817 13.875Z" fill="white"/>
<path d="M35.5 55.125C37.0533 55.125 38.3125 53.8658 38.3125 52.3125C38.3125 50.7592 37.0533 49.5 35.5 49.5C33.9467 49.5 32.6875 50.7592 32.6875 52.3125C32.6875 53.8658 33.9467 55.125 35.5 55.125Z" fill="white"/>
</svg>
