<svg width="2658" height="1219" viewBox="0 0 2658 1219" fill="none" xmlns="http://www.w3.org/2000/svg">
<g filter="url(#filter0_d_1907_2105)">
<path d="M2626.07 6.19141L94 6.35372L94 1063.04L194.434 1041.82L327.403 1099.81L457.544 1041.82L541.003 1063.04L774.407 997.965L990.835 1063.04L1142.19 976.746L1326.09 1030.5L1576.47 997.965L1914.55 1063.04L2029.13 976.746L2256.87 1030.5L2374.28 1010.7L2626.07 1041.65V6.19141Z" fill="#D0B3D6"/>
</g>
<path d="M287.138 517.455V607.055H275.262V517.455H287.138ZM364.923 598.932C367.631 598.932 370.133 598.378 372.431 597.27C374.728 596.162 376.615 594.644 378.092 592.716C379.569 590.747 380.41 588.511 380.615 586.009H391.446C391.241 589.947 389.908 593.619 387.446 597.024C385.026 600.388 381.846 603.116 377.908 605.209C373.969 607.26 369.641 608.285 364.923 608.285C359.918 608.285 355.549 607.403 351.815 605.639C348.123 603.875 345.046 601.455 342.585 598.378C340.164 595.301 338.339 591.773 337.108 587.793C335.918 583.773 335.323 579.526 335.323 575.055V572.47C335.323 567.998 335.918 563.773 337.108 559.793C338.339 555.773 340.164 552.224 342.585 549.147C345.046 546.07 348.123 543.65 351.815 541.885C355.549 540.121 359.918 539.239 364.923 539.239C370.133 539.239 374.687 540.306 378.585 542.439C382.482 544.532 385.539 547.403 387.754 551.055C390.01 554.665 391.241 558.767 391.446 563.362H380.615C380.41 560.614 379.631 558.132 378.277 555.916C376.964 553.701 375.159 551.937 372.862 550.624C370.605 549.27 367.959 548.593 364.923 548.593C361.436 548.593 358.503 549.291 356.123 550.685C353.785 552.039 351.918 553.885 350.523 556.224C349.169 558.521 348.185 561.085 347.569 563.916C346.995 566.706 346.708 569.557 346.708 572.47V575.055C346.708 577.967 346.995 580.839 347.569 583.67C348.144 586.501 349.108 589.065 350.462 591.362C351.856 593.66 353.723 595.506 356.062 596.901C358.441 598.255 361.395 598.932 364.923 598.932ZM443.508 595.67V561.393C443.508 558.767 442.974 556.491 441.908 554.562C440.882 552.593 439.323 551.075 437.231 550.008C435.139 548.942 432.554 548.408 429.477 548.408C426.605 548.408 424.082 548.901 421.908 549.885C419.774 550.87 418.092 552.162 416.862 553.762C415.672 555.362 415.077 557.085 415.077 558.932H403.692C403.692 556.552 404.308 554.193 405.539 551.855C406.769 549.516 408.533 547.403 410.831 545.516C413.169 543.588 415.959 542.07 419.2 540.962C422.482 539.814 426.133 539.239 430.154 539.239C434.995 539.239 439.262 540.06 442.954 541.701C446.687 543.342 449.6 545.824 451.692 549.147C453.826 552.429 454.892 556.552 454.892 561.516V592.532C454.892 594.747 455.077 597.106 455.446 599.609C455.857 602.111 456.451 604.265 457.231 606.07V607.055H445.354C444.78 605.742 444.328 603.998 444 601.824C443.672 599.609 443.508 597.557 443.508 595.67ZM445.477 566.685L445.6 574.685H434.092C430.851 574.685 427.959 574.952 425.415 575.485C422.872 575.978 420.739 576.737 419.015 577.762C417.292 578.788 415.98 580.08 415.077 581.639C414.174 583.157 413.723 584.942 413.723 586.993C413.723 589.085 414.195 590.993 415.139 592.716C416.082 594.439 417.498 595.814 419.385 596.839C421.313 597.824 423.672 598.316 426.462 598.316C429.949 598.316 433.026 597.578 435.692 596.101C438.359 594.624 440.472 592.819 442.031 590.685C443.631 588.552 444.492 586.48 444.615 584.47L449.477 589.947C449.19 591.67 448.41 593.578 447.139 595.67C445.867 597.762 444.164 599.773 442.031 601.701C439.939 603.588 437.436 605.168 434.523 606.439C431.651 607.67 428.41 608.285 424.8 608.285C420.287 608.285 416.328 607.403 412.923 605.639C409.559 603.875 406.933 601.516 405.046 598.562C403.2 595.568 402.277 592.224 402.277 588.532C402.277 584.962 402.974 581.824 404.369 579.116C405.764 576.367 407.774 574.091 410.4 572.285C413.026 570.439 416.185 569.044 419.877 568.101C423.569 567.157 427.692 566.685 432.246 566.685H445.477ZM484.185 554.685V607.055H472.8V540.47H483.569L484.185 554.685ZM481.477 571.239L476.739 571.055C476.78 566.501 477.457 562.296 478.769 558.439C480.082 554.542 481.928 551.157 484.308 548.285C486.687 545.414 489.518 543.198 492.8 541.639C496.123 540.039 499.795 539.239 503.816 539.239C507.098 539.239 510.051 539.691 512.677 540.593C515.303 541.455 517.539 542.85 519.385 544.778C521.272 546.706 522.708 549.208 523.692 552.285C524.677 555.321 525.169 559.034 525.169 563.424V607.055H513.723V563.301C513.723 559.814 513.21 557.024 512.185 554.932C511.159 552.798 509.662 551.26 507.692 550.316C505.723 549.332 503.303 548.839 500.431 548.839C497.6 548.839 495.016 549.434 492.677 550.624C490.38 551.814 488.39 553.455 486.708 555.547C485.067 557.639 483.774 560.039 482.831 562.747C481.928 565.414 481.477 568.244 481.477 571.239ZM615.693 594.132V512.532H627.139V607.055H616.677L615.693 594.132ZM570.892 574.501V573.209C570.892 568.121 571.508 563.506 572.739 559.362C574.01 555.178 575.795 551.588 578.092 548.593C580.431 545.598 583.2 543.301 586.4 541.701C589.641 540.06 593.251 539.239 597.231 539.239C601.416 539.239 605.067 539.978 608.185 541.455C611.344 542.891 614.01 545.003 616.185 547.793C618.4 550.542 620.144 553.865 621.416 557.762C622.687 561.66 623.569 566.07 624.062 570.993V576.655C623.61 581.537 622.728 585.926 621.416 589.824C620.144 593.721 618.4 597.044 616.185 599.793C614.01 602.542 611.344 604.655 608.185 606.132C605.026 607.568 601.334 608.285 597.108 608.285C593.21 608.285 589.641 607.444 586.4 605.762C583.2 604.08 580.431 601.721 578.092 598.685C575.795 595.65 574.01 592.08 572.739 587.978C571.508 583.834 570.892 579.342 570.892 574.501ZM582.339 573.209V574.501C582.339 577.824 582.667 580.942 583.323 583.855C584.021 586.767 585.087 589.332 586.523 591.547C587.959 593.762 589.785 595.506 592 596.778C594.216 598.009 596.862 598.624 599.939 598.624C603.713 598.624 606.81 597.824 609.231 596.224C611.693 594.624 613.662 592.511 615.139 589.885C616.616 587.26 617.764 584.409 618.585 581.332V566.501C618.093 564.244 617.375 562.07 616.431 559.978C615.528 557.844 614.339 555.957 612.862 554.316C611.426 552.634 609.641 551.301 607.508 550.316C605.416 549.332 602.934 548.839 600.062 548.839C596.944 548.839 594.257 549.496 592 550.808C589.785 552.08 587.959 553.844 586.523 556.101C585.087 558.316 584.021 560.901 583.323 563.855C582.667 566.767 582.339 569.885 582.339 573.209ZM641.846 574.501V573.085C641.846 568.285 642.544 563.834 643.939 559.732C645.334 555.588 647.344 551.998 649.969 548.962C652.595 545.885 655.775 543.506 659.508 541.824C663.241 540.101 667.426 539.239 672.062 539.239C676.739 539.239 680.944 540.101 684.677 541.824C688.452 543.506 691.652 545.885 694.277 548.962C696.944 551.998 698.975 555.588 700.369 559.732C701.764 563.834 702.462 568.285 702.462 573.085V574.501C702.462 579.301 701.764 583.752 700.369 587.855C698.975 591.957 696.944 595.547 694.277 598.624C691.652 601.66 688.472 604.039 684.739 605.762C681.046 607.444 676.862 608.285 672.185 608.285C667.508 608.285 663.303 607.444 659.569 605.762C655.836 604.039 652.636 601.66 649.969 598.624C647.344 595.547 645.334 591.957 643.939 587.855C642.544 583.752 641.846 579.301 641.846 574.501ZM653.231 573.085V574.501C653.231 577.824 653.621 580.962 654.4 583.916C655.18 586.829 656.349 589.414 657.908 591.67C659.508 593.926 661.498 595.711 663.877 597.024C666.257 598.296 669.026 598.932 672.185 598.932C675.303 598.932 678.031 598.296 680.369 597.024C682.749 595.711 684.718 593.926 686.277 591.67C687.836 589.414 689.005 586.829 689.785 583.916C690.605 580.962 691.016 577.824 691.016 574.501V573.085C691.016 569.803 690.605 566.706 689.785 563.793C689.005 560.839 687.816 558.234 686.216 555.978C684.657 553.68 682.687 551.875 680.308 550.562C677.969 549.25 675.221 548.593 672.062 548.593C668.944 548.593 666.195 549.25 663.816 550.562C661.477 551.875 659.508 553.68 657.908 555.978C656.349 558.234 655.18 560.839 654.4 563.793C653.621 566.706 653.231 569.803 653.231 573.085ZM787.262 595.67V561.393C787.262 558.767 786.729 556.491 785.662 554.562C784.636 552.593 783.077 551.075 780.985 550.008C778.893 548.942 776.308 548.408 773.231 548.408C770.359 548.408 767.836 548.901 765.662 549.885C763.529 550.87 761.846 552.162 760.616 553.762C759.426 555.362 758.831 557.085 758.831 558.932H747.446C747.446 556.552 748.062 554.193 749.293 551.855C750.523 549.516 752.287 547.403 754.585 545.516C756.923 543.588 759.713 542.07 762.954 540.962C766.236 539.814 769.887 539.239 773.908 539.239C778.749 539.239 783.016 540.06 786.708 541.701C790.441 543.342 793.354 545.824 795.446 549.147C797.58 552.429 798.646 556.552 798.646 561.516V592.532C798.646 594.747 798.831 597.106 799.2 599.609C799.611 602.111 800.205 604.265 800.985 606.07V607.055H789.108C788.534 605.742 788.082 603.998 787.754 601.824C787.426 599.609 787.262 597.557 787.262 595.67ZM789.231 566.685L789.354 574.685H777.846C774.605 574.685 771.713 574.952 769.17 575.485C766.626 575.978 764.493 576.737 762.77 577.762C761.046 578.788 759.734 580.08 758.831 581.639C757.929 583.157 757.477 584.942 757.477 586.993C757.477 589.085 757.949 590.993 758.893 592.716C759.836 594.439 761.252 595.814 763.139 596.839C765.067 597.824 767.426 598.316 770.216 598.316C773.703 598.316 776.78 597.578 779.446 596.101C782.113 594.624 784.226 592.819 785.785 590.685C787.385 588.552 788.246 586.48 788.37 584.47L793.231 589.947C792.944 591.67 792.164 593.578 790.893 595.67C789.621 597.762 787.918 599.773 785.785 601.701C783.693 603.588 781.19 605.168 778.277 606.439C775.405 607.67 772.164 608.285 768.554 608.285C764.041 608.285 760.082 607.403 756.677 605.639C753.313 603.875 750.687 601.516 748.8 598.562C746.954 595.568 746.031 592.224 746.031 588.532C746.031 584.962 746.728 581.824 748.123 579.116C749.518 576.367 751.528 574.091 754.154 572.285C756.78 570.439 759.939 569.044 763.631 568.101C767.323 567.157 771.446 566.685 776 566.685H789.231ZM828.923 512.532V607.055H817.477V512.532H828.923ZM859.57 512.532V607.055H848.123V512.532H859.57ZM936.985 540.47V549.208H900.985V540.47H936.985ZM913.17 524.285H924.554V590.562C924.554 592.819 924.903 594.521 925.6 595.67C926.298 596.819 927.2 597.578 928.308 597.947C929.416 598.316 930.606 598.501 931.877 598.501C932.821 598.501 933.806 598.419 934.831 598.255C935.898 598.05 936.698 597.885 937.231 597.762L937.293 607.055C936.39 607.342 935.2 607.609 933.723 607.855C932.288 608.142 930.544 608.285 928.493 608.285C925.703 608.285 923.139 607.732 920.8 606.624C918.462 605.516 916.595 603.67 915.2 601.085C913.847 598.46 913.17 594.932 913.17 590.501V524.285ZM961.723 512.532V607.055H950.339V512.532H961.723ZM959.016 571.239L954.277 571.055C954.318 566.501 954.995 562.296 956.308 558.439C957.621 554.542 959.467 551.157 961.847 548.285C964.226 545.414 967.057 543.198 970.339 541.639C973.662 540.039 977.334 539.239 981.354 539.239C984.636 539.239 987.59 539.691 990.216 540.593C992.841 541.455 995.077 542.85 996.923 544.778C998.811 546.706 1000.25 549.208 1001.23 552.285C1002.22 555.321 1002.71 559.034 1002.71 563.424V607.055H991.262V563.301C991.262 559.814 990.749 557.024 989.723 554.932C988.698 552.798 987.2 551.26 985.231 550.316C983.262 549.332 980.841 548.839 977.97 548.839C975.139 548.839 972.554 549.434 970.216 550.624C967.918 551.814 965.929 553.455 964.247 555.547C962.606 557.639 961.313 560.039 960.37 562.747C959.467 565.414 959.016 568.244 959.016 571.239ZM1032.12 540.47V607.055H1020.68V540.47H1032.12ZM1019.82 522.808C1019.82 520.962 1020.37 519.403 1021.48 518.132C1022.63 516.86 1024.31 516.224 1026.52 516.224C1028.7 516.224 1030.36 516.86 1031.51 518.132C1032.7 519.403 1033.29 520.962 1033.29 522.808C1033.29 524.573 1032.7 526.091 1031.51 527.362C1030.36 528.593 1028.7 529.208 1026.52 529.208C1024.31 529.208 1022.63 528.593 1021.48 527.362C1020.37 526.091 1019.82 524.573 1019.82 522.808ZM1061.79 554.685V607.055H1050.4V540.47H1061.17L1061.79 554.685ZM1059.08 571.239L1054.34 571.055C1054.38 566.501 1055.06 562.296 1056.37 558.439C1057.68 554.542 1059.53 551.157 1061.91 548.285C1064.29 545.414 1067.12 543.198 1070.4 541.639C1073.72 540.039 1077.4 539.239 1081.42 539.239C1084.7 539.239 1087.65 539.691 1090.28 540.593C1092.9 541.455 1095.14 542.85 1096.99 544.778C1098.87 546.706 1100.31 549.208 1101.29 552.285C1102.28 555.321 1102.77 559.034 1102.77 563.424V607.055H1091.32V563.301C1091.32 559.814 1090.81 557.024 1089.79 554.932C1088.76 552.798 1087.26 551.26 1085.29 550.316C1083.32 549.332 1080.9 548.839 1078.03 548.839C1075.2 548.839 1072.62 549.434 1070.28 550.624C1067.98 551.814 1065.99 553.455 1064.31 555.547C1062.67 557.639 1061.37 560.039 1060.43 562.747C1059.53 565.414 1059.08 568.244 1059.08 571.239ZM1163.2 540.47H1173.54V605.639C1173.54 611.506 1172.35 616.511 1169.97 620.655C1167.59 624.798 1164.27 627.937 1160 630.07C1155.77 632.244 1150.89 633.332 1145.35 633.332C1143.06 633.332 1140.35 632.962 1137.23 632.224C1134.15 631.526 1131.12 630.316 1128.12 628.593C1125.17 626.911 1122.69 624.634 1120.68 621.762L1126.65 614.993C1129.44 618.357 1132.35 620.696 1135.39 622.009C1138.46 623.321 1141.5 623.978 1144.49 623.978C1148.1 623.978 1151.22 623.301 1153.85 621.947C1156.47 620.593 1158.5 618.583 1159.94 615.916C1161.42 613.291 1162.15 610.05 1162.15 606.193V555.116L1163.2 540.47ZM1117.35 574.501V573.209C1117.35 568.121 1117.95 563.506 1119.14 559.362C1120.37 555.178 1122.11 551.588 1124.37 548.593C1126.67 545.598 1129.44 543.301 1132.68 541.701C1135.92 540.06 1139.57 539.239 1143.63 539.239C1147.82 539.239 1151.47 539.978 1154.59 541.455C1157.74 542.891 1160.41 545.003 1162.59 547.793C1164.8 550.542 1166.54 553.865 1167.82 557.762C1169.09 561.66 1169.97 566.07 1170.46 570.993V576.655C1170.01 581.537 1169.13 585.926 1167.82 589.824C1166.54 593.721 1164.8 597.044 1162.59 599.793C1160.41 602.542 1157.74 604.655 1154.59 606.132C1151.43 607.568 1147.73 608.285 1143.51 608.285C1139.53 608.285 1135.92 607.444 1132.68 605.762C1129.48 604.08 1126.73 601.721 1124.43 598.685C1122.13 595.65 1120.37 592.08 1119.14 587.978C1117.95 583.834 1117.35 579.342 1117.35 574.501ZM1128.74 573.209V574.501C1128.74 577.824 1129.07 580.942 1129.72 583.855C1130.42 586.767 1131.47 589.332 1132.86 591.547C1134.3 593.762 1136.12 595.506 1138.34 596.778C1140.55 598.009 1143.2 598.624 1146.28 598.624C1150.05 598.624 1153.17 597.824 1155.63 596.224C1158.09 594.624 1160.04 592.511 1161.48 589.885C1162.95 587.26 1164.1 584.409 1164.92 581.332V566.501C1164.47 564.244 1163.77 562.07 1162.83 559.978C1161.93 557.844 1160.74 555.957 1159.26 554.316C1157.83 552.634 1156.04 551.301 1153.91 550.316C1151.77 549.332 1149.27 548.839 1146.4 548.839C1143.28 548.839 1140.6 549.496 1138.34 550.808C1136.12 552.08 1134.3 553.844 1132.86 556.101C1131.47 558.316 1130.42 560.901 1129.72 563.855C1129.07 566.767 1128.74 569.885 1128.74 573.209ZM1229.6 589.393C1229.6 587.752 1229.23 586.234 1228.49 584.839C1227.8 583.403 1226.34 582.111 1224.12 580.962C1221.95 579.773 1218.67 578.747 1214.28 577.885C1210.59 577.106 1207.24 576.183 1204.25 575.116C1201.29 574.05 1198.77 572.757 1196.68 571.239C1194.63 569.721 1193.05 567.937 1191.94 565.885C1190.83 563.834 1190.28 561.434 1190.28 558.685C1190.28 556.06 1190.85 553.578 1192 551.239C1193.19 548.901 1194.85 546.829 1196.99 545.024C1199.16 543.219 1201.76 541.803 1204.8 540.778C1207.84 539.752 1211.22 539.239 1214.95 539.239C1220.29 539.239 1224.84 540.183 1228.62 542.07C1232.39 543.957 1235.28 546.48 1237.29 549.639C1239.3 552.757 1240.31 556.224 1240.31 560.039H1228.92C1228.92 558.193 1228.37 556.409 1227.26 554.685C1226.2 552.921 1224.62 551.465 1222.52 550.316C1220.47 549.167 1217.95 548.593 1214.95 548.593C1211.8 548.593 1209.23 549.085 1207.26 550.07C1205.33 551.014 1203.92 552.224 1203.02 553.701C1202.15 555.178 1201.72 556.737 1201.72 558.378C1201.72 559.609 1201.93 560.716 1202.34 561.701C1202.79 562.644 1203.57 563.526 1204.68 564.347C1205.79 565.126 1207.34 565.865 1209.35 566.562C1211.36 567.26 1213.93 567.957 1217.05 568.655C1222.5 569.885 1227 571.362 1230.52 573.085C1234.05 574.809 1236.68 576.921 1238.4 579.424C1240.12 581.926 1240.99 584.962 1240.99 588.532C1240.99 591.444 1240.37 594.111 1239.14 596.532C1237.95 598.952 1236.21 601.044 1233.91 602.809C1231.65 604.532 1228.94 605.885 1225.79 606.87C1222.67 607.814 1219.16 608.285 1215.26 608.285C1209.4 608.285 1204.43 607.239 1200.37 605.147C1196.31 603.055 1193.23 600.347 1191.14 597.024C1189.05 593.701 1188 590.193 1188 586.501H1199.45C1199.61 589.619 1200.51 592.101 1202.15 593.947C1203.8 595.752 1205.81 597.044 1208.19 597.824C1210.56 598.562 1212.92 598.932 1215.26 598.932C1218.38 598.932 1220.99 598.521 1223.08 597.701C1225.21 596.88 1226.83 595.752 1227.94 594.316C1229.05 592.88 1229.6 591.239 1229.6 589.393ZM1315.08 540.47V549.208H1279.08V540.47H1315.08ZM1291.26 524.285H1302.65V590.562C1302.65 592.819 1303 594.521 1303.69 595.67C1304.39 596.819 1305.29 597.578 1306.4 597.947C1307.51 598.316 1308.7 598.501 1309.97 598.501C1310.91 598.501 1311.9 598.419 1312.92 598.255C1313.99 598.05 1314.79 597.885 1315.32 597.762L1315.39 607.055C1314.48 607.342 1313.29 607.609 1311.82 607.855C1310.38 608.142 1308.64 608.285 1306.59 608.285C1303.8 608.285 1301.23 607.732 1298.89 606.624C1296.55 605.516 1294.69 603.67 1293.29 601.085C1291.94 598.46 1291.26 594.932 1291.26 590.501V524.285ZM1339.82 512.532V607.055H1328.43V512.532H1339.82ZM1337.11 571.239L1332.37 571.055C1332.41 566.501 1333.09 562.296 1334.4 558.439C1335.71 554.542 1337.56 551.157 1339.94 548.285C1342.32 545.414 1345.15 543.198 1348.43 541.639C1351.75 540.039 1355.43 539.239 1359.45 539.239C1362.73 539.239 1365.68 539.691 1368.31 540.593C1370.93 541.455 1373.17 542.85 1375.02 544.778C1376.9 546.706 1378.34 549.208 1379.32 552.285C1380.31 555.321 1380.8 559.034 1380.8 563.424V607.055H1369.35V563.301C1369.35 559.814 1368.84 557.024 1367.82 554.932C1366.79 552.798 1365.29 551.26 1363.32 550.316C1361.35 549.332 1358.93 548.839 1356.06 548.839C1353.23 548.839 1350.65 549.434 1348.31 550.624C1346.01 551.814 1344.02 553.455 1342.34 555.547C1340.7 557.639 1339.41 560.039 1338.46 562.747C1337.56 565.414 1337.11 568.244 1337.11 571.239ZM1409.23 550.932V607.055H1397.85V540.47H1408.92L1409.23 550.932ZM1430.03 540.101L1429.97 550.685C1429.03 550.48 1428.12 550.357 1427.26 550.316C1426.44 550.234 1425.5 550.193 1424.43 550.193C1421.81 550.193 1419.49 550.603 1417.48 551.424C1415.47 552.244 1413.76 553.393 1412.37 554.87C1410.98 556.347 1409.87 558.111 1409.05 560.162C1408.27 562.173 1407.75 564.388 1407.51 566.809L1404.31 568.655C1404.31 564.634 1404.7 560.86 1405.48 557.332C1406.3 553.803 1407.55 550.685 1409.23 547.978C1410.91 545.229 1413.05 543.096 1415.63 541.578C1418.26 540.019 1421.38 539.239 1424.99 539.239C1425.81 539.239 1426.75 539.342 1427.82 539.547C1428.88 539.711 1429.62 539.896 1430.03 540.101ZM1436.31 574.501V573.085C1436.31 568.285 1437.01 563.834 1438.4 559.732C1439.8 555.588 1441.81 551.998 1444.43 548.962C1447.06 545.885 1450.24 543.506 1453.97 541.824C1457.7 540.101 1461.89 539.239 1466.52 539.239C1471.2 539.239 1475.41 540.101 1479.14 541.824C1482.91 543.506 1486.11 545.885 1488.74 548.962C1491.41 551.998 1493.44 555.588 1494.83 559.732C1496.23 563.834 1496.92 568.285 1496.92 573.085V574.501C1496.92 579.301 1496.23 583.752 1494.83 587.855C1493.44 591.957 1491.41 595.547 1488.74 598.624C1486.11 601.66 1482.93 604.039 1479.2 605.762C1475.51 607.444 1471.32 608.285 1466.65 608.285C1461.97 608.285 1457.76 607.444 1454.03 605.762C1450.3 604.039 1447.1 601.66 1444.43 598.624C1441.81 595.547 1439.8 591.957 1438.4 587.855C1437.01 583.752 1436.31 579.301 1436.31 574.501ZM1447.69 573.085V574.501C1447.69 577.824 1448.08 580.962 1448.86 583.916C1449.64 586.829 1450.81 589.414 1452.37 591.67C1453.97 593.926 1455.96 595.711 1458.34 597.024C1460.72 598.296 1463.49 598.932 1466.65 598.932C1469.76 598.932 1472.49 598.296 1474.83 597.024C1477.21 595.711 1479.18 593.926 1480.74 591.67C1482.3 589.414 1483.47 586.829 1484.25 583.916C1485.07 580.962 1485.48 577.824 1485.48 574.501V573.085C1485.48 569.803 1485.07 566.706 1484.25 563.793C1483.47 560.839 1482.28 558.234 1480.68 555.978C1479.12 553.68 1477.15 551.875 1474.77 550.562C1472.43 549.25 1469.68 548.593 1466.52 548.593C1463.41 548.593 1460.66 549.25 1458.28 550.562C1455.94 551.875 1453.97 553.68 1452.37 555.978C1450.81 558.234 1449.64 560.839 1448.86 563.793C1448.08 566.706 1447.69 569.803 1447.69 573.085ZM1551.94 591.67V540.47H1563.39V607.055H1552.49L1551.94 591.67ZM1554.09 577.639L1558.83 577.516C1558.83 581.947 1558.36 586.05 1557.42 589.824C1556.51 593.557 1555.04 596.798 1552.99 599.547C1550.93 602.296 1548.25 604.45 1544.92 606.009C1541.6 607.526 1537.56 608.285 1532.8 608.285C1529.56 608.285 1526.59 607.814 1523.88 606.87C1521.21 605.926 1518.91 604.47 1516.99 602.501C1515.06 600.532 1513.56 597.968 1512.49 594.809C1511.47 591.65 1510.95 587.855 1510.95 583.424V540.47H1522.34V583.547C1522.34 586.542 1522.67 589.024 1523.32 590.993C1524.02 592.921 1524.94 594.46 1526.09 595.609C1527.28 596.716 1528.6 597.496 1530.03 597.947C1531.51 598.398 1533.03 598.624 1534.59 598.624C1539.43 598.624 1543.26 597.701 1546.09 595.855C1548.92 593.968 1550.95 591.444 1552.19 588.285C1553.46 585.085 1554.09 581.537 1554.09 577.639ZM1623.88 540.47H1634.22V605.639C1634.22 611.506 1633.03 616.511 1630.65 620.655C1628.27 624.798 1624.94 627.937 1620.68 630.07C1616.45 632.244 1611.57 633.332 1606.03 633.332C1603.73 633.332 1601.03 632.962 1597.91 632.224C1594.83 631.526 1591.8 630.316 1588.8 628.593C1585.85 626.911 1583.36 624.634 1581.35 621.762L1587.32 614.993C1590.11 618.357 1593.03 620.696 1596.06 622.009C1599.14 623.321 1602.18 623.978 1605.17 623.978C1608.78 623.978 1611.9 623.301 1614.52 621.947C1617.15 620.593 1619.18 618.583 1620.62 615.916C1622.09 613.291 1622.83 610.05 1622.83 606.193V555.116L1623.88 540.47ZM1578.03 574.501V573.209C1578.03 568.121 1578.63 563.506 1579.82 559.362C1581.05 555.178 1582.79 551.588 1585.05 548.593C1587.34 545.598 1590.11 543.301 1593.35 541.701C1596.6 540.06 1600.25 539.239 1604.31 539.239C1608.49 539.239 1612.14 539.978 1615.26 541.455C1618.42 542.891 1621.09 545.003 1623.26 547.793C1625.48 550.542 1627.22 553.865 1628.49 557.762C1629.76 561.66 1630.65 566.07 1631.14 570.993V576.655C1630.69 581.537 1629.81 585.926 1628.49 589.824C1627.22 593.721 1625.48 597.044 1623.26 599.793C1621.09 602.542 1618.42 604.655 1615.26 606.132C1612.1 607.568 1608.41 608.285 1604.19 608.285C1600.21 608.285 1596.6 607.444 1593.35 605.762C1590.15 604.08 1587.41 601.721 1585.11 598.685C1582.81 595.65 1581.05 592.08 1579.82 587.978C1578.63 583.834 1578.03 579.342 1578.03 574.501ZM1589.42 573.209V574.501C1589.42 577.824 1589.74 580.942 1590.4 583.855C1591.1 586.767 1592.14 589.332 1593.54 591.547C1594.98 593.762 1596.8 595.506 1599.02 596.778C1601.23 598.009 1603.88 598.624 1606.95 598.624C1610.73 598.624 1613.85 597.824 1616.31 596.224C1618.77 594.624 1620.72 592.511 1622.15 589.885C1623.63 587.26 1624.78 584.409 1625.6 581.332V566.501C1625.15 564.244 1624.45 562.07 1623.51 559.978C1622.61 557.844 1621.42 555.957 1619.94 554.316C1618.5 552.634 1616.72 551.301 1614.59 550.316C1612.45 549.332 1609.95 548.839 1607.08 548.839C1603.96 548.839 1601.27 549.496 1599.02 550.808C1596.8 552.08 1594.98 553.844 1593.54 556.101C1592.14 558.316 1591.1 560.901 1590.4 563.855C1589.74 566.767 1589.42 569.885 1589.42 573.209ZM1662.89 512.532V607.055H1651.51V512.532H1662.89ZM1660.19 571.239L1655.45 571.055C1655.49 566.501 1656.16 562.296 1657.48 558.439C1658.79 554.542 1660.64 551.157 1663.02 548.285C1665.4 545.414 1668.23 543.198 1671.51 541.639C1674.83 540.039 1678.5 539.239 1682.52 539.239C1685.81 539.239 1688.76 539.691 1691.39 540.593C1694.01 541.455 1696.25 542.85 1698.09 544.778C1699.98 546.706 1701.42 549.208 1702.4 552.285C1703.39 555.321 1703.88 559.034 1703.88 563.424V607.055H1692.43V563.301C1692.43 559.814 1691.92 557.024 1690.89 554.932C1689.87 552.798 1688.37 551.26 1686.4 550.316C1684.43 549.332 1682.01 548.839 1679.14 548.839C1676.31 548.839 1673.72 549.434 1671.39 550.624C1669.09 551.814 1667.1 553.455 1665.42 555.547C1663.78 557.639 1662.48 560.039 1661.54 562.747C1660.64 565.414 1660.19 568.244 1660.19 571.239ZM1808 578.562H1819.82C1819.2 584.224 1817.58 589.291 1814.95 593.762C1812.33 598.234 1808.62 601.783 1803.82 604.409C1799.02 606.993 1793.03 608.285 1785.85 608.285C1780.6 608.285 1775.82 607.301 1771.51 605.332C1767.24 603.362 1763.57 600.573 1760.49 596.962C1757.42 593.311 1755.04 588.942 1753.35 583.855C1751.71 578.726 1750.89 573.024 1750.89 566.747V557.824C1750.89 551.547 1751.71 545.865 1753.35 540.778C1755.04 535.65 1757.44 531.26 1760.55 527.608C1763.71 523.957 1767.51 521.147 1771.94 519.178C1776.37 517.208 1781.35 516.224 1786.89 516.224C1793.66 516.224 1799.39 517.496 1804.06 520.039C1808.74 522.583 1812.37 526.111 1814.95 530.624C1817.58 535.096 1819.2 540.285 1819.82 546.193H1808C1807.43 542.008 1806.36 538.419 1804.8 535.424C1803.24 532.388 1801.03 530.05 1798.15 528.408C1795.28 526.767 1791.53 525.947 1786.89 525.947C1782.91 525.947 1779.41 526.706 1776.37 528.224C1773.38 529.742 1770.85 531.896 1768.8 534.685C1766.79 537.475 1765.27 540.819 1764.25 544.716C1763.22 548.614 1762.71 552.942 1762.71 557.701V566.747C1762.71 571.137 1763.16 575.26 1764.06 579.116C1765.01 582.973 1766.42 586.357 1768.31 589.27C1770.2 592.183 1772.6 594.48 1775.51 596.162C1778.42 597.803 1781.87 598.624 1785.85 598.624C1790.89 598.624 1794.91 597.824 1797.91 596.224C1800.9 594.624 1803.16 592.326 1804.68 589.332C1806.24 586.337 1807.34 582.747 1808 578.562ZM1845.66 512.532V607.055H1834.28V512.532H1845.66ZM1842.95 571.239L1838.22 571.055C1838.26 566.501 1838.93 562.296 1840.25 558.439C1841.56 554.542 1843.41 551.157 1845.79 548.285C1848.17 545.414 1851 543.198 1854.28 541.639C1857.6 540.039 1861.27 539.239 1865.29 539.239C1868.58 539.239 1871.53 539.691 1874.15 540.593C1876.78 541.455 1879.02 542.85 1880.86 544.778C1882.75 546.706 1884.19 549.208 1885.17 552.285C1886.15 555.321 1886.65 559.034 1886.65 563.424V607.055H1875.2V563.301C1875.2 559.814 1874.69 557.024 1873.66 554.932C1872.64 552.798 1871.14 551.26 1869.17 550.316C1867.2 549.332 1864.78 548.839 1861.91 548.839C1859.08 548.839 1856.49 549.434 1854.15 550.624C1851.86 551.814 1849.87 553.455 1848.19 555.547C1846.54 557.639 1845.25 560.039 1844.31 562.747C1843.41 565.414 1842.95 568.244 1842.95 571.239ZM1915.08 550.932V607.055H1903.69V540.47H1914.77L1915.08 550.932ZM1935.88 540.101L1935.82 550.685C1934.87 550.48 1933.97 550.357 1933.11 550.316C1932.29 550.234 1931.34 550.193 1930.28 550.193C1927.65 550.193 1925.33 550.603 1923.32 551.424C1921.31 552.244 1919.61 553.393 1918.22 554.87C1916.82 556.347 1915.71 558.111 1914.89 560.162C1914.11 562.173 1913.6 564.388 1913.35 566.809L1910.15 568.655C1910.15 564.634 1910.54 560.86 1911.32 557.332C1912.14 553.803 1913.4 550.685 1915.08 547.978C1916.76 545.229 1918.89 543.096 1921.48 541.578C1924.1 540.019 1927.22 539.239 1930.83 539.239C1931.65 539.239 1932.6 539.342 1933.66 539.547C1934.73 539.711 1935.47 539.896 1935.88 540.101ZM1958.77 540.47V607.055H1947.32V540.47H1958.77ZM1946.46 522.808C1946.46 520.962 1947.02 519.403 1948.12 518.132C1949.27 516.86 1950.95 516.224 1953.17 516.224C1955.34 516.224 1957.01 516.86 1958.15 518.132C1959.34 519.403 1959.94 520.962 1959.94 522.808C1959.94 524.573 1959.34 526.091 1958.15 527.362C1957.01 528.593 1955.34 529.208 1953.17 529.208C1950.95 529.208 1949.27 528.593 1948.12 527.362C1947.02 526.091 1946.46 524.573 1946.46 522.808ZM2015.82 589.393C2015.82 587.752 2015.45 586.234 2014.71 584.839C2014.01 583.403 2012.55 582.111 2010.34 580.962C2008.17 579.773 2004.88 578.747 2000.49 577.885C1996.8 577.106 1993.46 576.183 1990.46 575.116C1987.51 574.05 1984.99 572.757 1982.89 571.239C1980.84 569.721 1979.26 567.937 1978.15 565.885C1977.05 563.834 1976.49 561.434 1976.49 558.685C1976.49 556.06 1977.07 553.578 1978.22 551.239C1979.41 548.901 1981.07 546.829 1983.2 545.024C1985.38 543.219 1987.98 541.803 1991.02 540.778C1994.05 539.752 1997.44 539.239 2001.17 539.239C2006.5 539.239 2011.06 540.183 2014.83 542.07C2018.61 543.957 2021.5 546.48 2023.51 549.639C2025.52 552.757 2026.52 556.224 2026.52 560.039H2015.14C2015.14 558.193 2014.59 556.409 2013.48 554.685C2012.41 552.921 2010.83 551.465 2008.74 550.316C2006.69 549.167 2004.17 548.593 2001.17 548.593C1998.01 548.593 1995.45 549.085 1993.48 550.07C1991.55 551.014 1990.13 552.224 1989.23 553.701C1988.37 555.178 1987.94 556.737 1987.94 558.378C1987.94 559.609 1988.14 560.716 1988.55 561.701C1989.01 562.644 1989.79 563.526 1990.89 564.347C1992 565.126 1993.56 565.865 1995.57 566.562C1997.58 567.26 2000.14 567.957 2003.26 568.655C2008.72 569.885 2013.21 571.362 2016.74 573.085C2020.27 574.809 2022.89 576.921 2024.62 579.424C2026.34 581.926 2027.2 584.962 2027.2 588.532C2027.2 591.444 2026.59 594.111 2025.35 596.532C2024.17 598.952 2022.42 601.044 2020.12 602.809C2017.87 604.532 2015.16 605.885 2012 606.87C2008.88 607.814 2005.38 608.285 2001.48 608.285C1995.61 608.285 1990.65 607.239 1986.59 605.147C1982.52 603.055 1979.45 600.347 1977.35 597.024C1975.26 593.701 1974.22 590.193 1974.22 586.501H1985.66C1985.83 589.619 1986.73 592.101 1988.37 593.947C1990.01 595.752 1992.02 597.044 1994.4 597.824C1996.78 598.562 1999.14 598.932 2001.48 598.932C2004.6 598.932 2007.2 598.521 2009.29 597.701C2011.43 596.88 2013.05 595.752 2014.15 594.316C2015.26 592.88 2015.82 591.239 2015.82 589.393ZM2070.03 540.47V549.208H2034.03V540.47H2070.03ZM2046.22 524.285H2057.6V590.562C2057.6 592.819 2057.95 594.521 2058.65 595.67C2059.34 596.819 2060.25 597.578 2061.35 597.947C2062.46 598.316 2063.65 598.501 2064.92 598.501C2065.87 598.501 2066.85 598.419 2067.88 598.255C2068.94 598.05 2069.74 597.885 2070.28 597.762L2070.34 607.055C2069.44 607.342 2068.25 607.609 2066.77 607.855C2065.33 608.142 2063.59 608.285 2061.54 608.285C2058.75 608.285 2056.19 607.732 2053.85 606.624C2051.51 605.516 2049.64 603.67 2048.25 601.085C2046.89 598.46 2046.22 594.932 2046.22 590.501V524.285ZM2131.51 595.239L2148.62 540.47H2156.12L2154.65 551.362L2137.23 607.055H2129.91L2131.51 595.239ZM2120 540.47L2134.59 595.855L2135.63 607.055H2127.94L2108.62 540.47H2120ZM2172.49 595.424L2186.4 540.47H2197.72L2178.4 607.055H2170.77L2172.49 595.424ZM2157.79 540.47L2174.52 594.316L2176.43 607.055H2169.17L2151.26 551.239L2149.79 540.47H2157.79ZM2220.8 512.532V607.055H2209.42V512.532H2220.8ZM2218.09 571.239L2213.36 571.055C2213.4 566.501 2214.07 562.296 2215.39 558.439C2216.7 554.542 2218.54 551.157 2220.92 548.285C2223.3 545.414 2226.13 543.198 2229.42 541.639C2232.74 540.039 2236.41 539.239 2240.43 539.239C2243.71 539.239 2246.67 539.691 2249.29 540.593C2251.92 541.455 2254.16 542.85 2256 544.778C2257.89 546.706 2259.32 549.208 2260.31 552.285C2261.29 555.321 2261.79 559.034 2261.79 563.424V607.055H2250.34V563.301C2250.34 559.814 2249.83 557.024 2248.8 554.932C2247.78 552.798 2246.28 551.26 2244.31 550.316C2242.34 549.332 2239.92 548.839 2237.05 548.839C2234.22 548.839 2231.63 549.434 2229.29 550.624C2227 551.814 2225.01 553.455 2223.32 555.547C2221.68 557.639 2220.39 560.039 2219.45 562.747C2218.54 565.414 2218.09 568.244 2218.09 571.239ZM2275.82 574.501V573.085C2275.82 568.285 2276.51 563.834 2277.91 559.732C2279.3 555.588 2281.31 551.998 2283.94 548.962C2286.57 545.885 2289.74 543.506 2293.48 541.824C2297.21 540.101 2301.4 539.239 2306.03 539.239C2310.71 539.239 2314.91 540.101 2318.65 541.824C2322.42 543.506 2325.62 545.885 2328.25 548.962C2330.91 551.998 2332.94 555.588 2334.34 559.732C2335.73 563.834 2336.43 568.285 2336.43 573.085V574.501C2336.43 579.301 2335.73 583.752 2334.34 587.855C2332.94 591.957 2330.91 595.547 2328.25 598.624C2325.62 601.66 2322.44 604.039 2318.71 605.762C2315.02 607.444 2310.83 608.285 2306.16 608.285C2301.48 608.285 2297.27 607.444 2293.54 605.762C2289.81 604.039 2286.61 601.66 2283.94 598.624C2281.31 595.547 2279.3 591.957 2277.91 587.855C2276.51 583.752 2275.82 579.301 2275.82 574.501ZM2287.2 573.085V574.501C2287.2 577.824 2287.59 580.962 2288.37 583.916C2289.15 586.829 2290.32 589.414 2291.88 591.67C2293.48 593.926 2295.47 595.711 2297.85 597.024C2300.23 598.296 2303 598.932 2306.16 598.932C2309.27 598.932 2312 598.296 2314.34 597.024C2316.72 595.711 2318.69 593.926 2320.25 591.67C2321.81 589.414 2322.98 586.829 2323.76 583.916C2324.58 580.962 2324.99 577.824 2324.99 574.501V573.085C2324.99 569.803 2324.58 566.706 2323.76 563.793C2322.98 560.839 2321.79 558.234 2320.19 555.978C2318.63 553.68 2316.66 551.875 2314.28 550.562C2311.94 549.25 2309.19 548.593 2306.03 548.593C2302.91 548.593 2300.17 549.25 2297.79 550.562C2295.45 551.875 2293.48 553.68 2291.88 555.978C2290.32 558.234 2289.15 560.839 2288.37 563.793C2287.59 566.706 2287.2 569.803 2287.2 573.085ZM311.446 737.393C311.446 735.752 311.077 734.234 310.338 732.839C309.641 731.403 308.185 730.111 305.969 728.962C303.795 727.773 300.513 726.747 296.123 725.885C292.431 725.106 289.087 724.183 286.092 723.116C283.138 722.05 280.615 720.757 278.523 719.239C276.472 717.721 274.892 715.937 273.785 713.885C272.677 711.834 272.123 709.434 272.123 706.685C272.123 704.06 272.697 701.578 273.846 699.239C275.036 696.901 276.697 694.829 278.831 693.024C281.005 691.219 283.61 689.803 286.646 688.778C289.682 687.752 293.067 687.239 296.8 687.239C302.133 687.239 306.687 688.183 310.462 690.07C314.236 691.957 317.128 694.48 319.138 697.639C321.149 700.757 322.154 704.224 322.154 708.039H310.769C310.769 706.193 310.215 704.409 309.108 702.685C308.041 700.921 306.462 699.465 304.369 698.316C302.318 697.167 299.795 696.593 296.8 696.593C293.641 696.593 291.077 697.085 289.108 698.07C287.18 699.014 285.764 700.224 284.862 701.701C284 703.178 283.569 704.737 283.569 706.378C283.569 707.609 283.774 708.716 284.185 709.701C284.636 710.644 285.415 711.526 286.523 712.347C287.631 713.126 289.19 713.865 291.2 714.562C293.21 715.26 295.774 715.957 298.892 716.655C304.349 717.885 308.841 719.362 312.369 721.085C315.897 722.809 318.523 724.921 320.246 727.424C321.969 729.926 322.831 732.962 322.831 736.532C322.831 739.444 322.215 742.111 320.985 744.532C319.795 746.952 318.051 749.044 315.754 750.809C313.497 752.532 310.79 753.885 307.631 754.87C304.513 755.814 301.005 756.285 297.108 756.285C291.241 756.285 286.277 755.239 282.215 753.147C278.154 751.055 275.077 748.347 272.985 745.024C270.892 741.701 269.846 738.193 269.846 734.501H281.292C281.456 737.619 282.359 740.101 284 741.947C285.641 743.752 287.651 745.044 290.031 745.824C292.41 746.562 294.769 746.932 297.108 746.932C300.226 746.932 302.831 746.521 304.923 745.701C307.056 744.88 308.677 743.752 309.785 742.316C310.892 740.88 311.446 739.239 311.446 737.393ZM365.662 688.47V697.208H329.662V688.47H365.662ZM341.846 672.285H353.231V738.562C353.231 740.819 353.58 742.521 354.277 743.67C354.974 744.819 355.877 745.578 356.985 745.947C358.092 746.316 359.282 746.501 360.554 746.501C361.497 746.501 362.482 746.419 363.508 746.255C364.574 746.05 365.374 745.885 365.908 745.762L365.969 755.055C365.067 755.342 363.877 755.609 362.4 755.855C360.964 756.142 359.221 756.285 357.169 756.285C354.38 756.285 351.815 755.732 349.477 754.624C347.139 753.516 345.272 751.67 343.877 749.085C342.523 746.46 341.846 742.932 341.846 738.501V672.285ZM390.4 698.932V755.055H379.015V688.47H390.092L390.4 698.932ZM411.2 688.101L411.139 698.685C410.195 698.48 409.292 698.357 408.431 698.316C407.61 698.234 406.667 698.193 405.6 698.193C402.974 698.193 400.656 698.603 398.646 699.424C396.636 700.244 394.933 701.393 393.539 702.87C392.144 704.347 391.036 706.111 390.215 708.162C389.436 710.173 388.923 712.388 388.677 714.809L385.477 716.655C385.477 712.634 385.867 708.86 386.646 705.332C387.467 701.803 388.718 698.685 390.4 695.978C392.082 693.229 394.215 691.096 396.8 689.578C399.426 688.019 402.544 687.239 406.154 687.239C406.974 687.239 407.918 687.342 408.985 687.547C410.051 687.711 410.79 687.896 411.2 688.101ZM448.123 756.285C443.487 756.285 439.282 755.506 435.508 753.947C431.774 752.347 428.554 750.111 425.846 747.239C423.18 744.368 421.128 740.962 419.692 737.024C418.257 733.085 417.539 728.778 417.539 724.101V721.516C417.539 716.101 418.339 711.28 419.939 707.055C421.539 702.788 423.713 699.178 426.462 696.224C429.21 693.27 432.328 691.034 435.815 689.516C439.303 687.998 442.913 687.239 446.646 687.239C451.405 687.239 455.508 688.06 458.954 689.701C462.441 691.342 465.292 693.639 467.508 696.593C469.723 699.506 471.364 702.952 472.431 706.932C473.498 710.87 474.031 715.178 474.031 719.855V724.962H424.308V715.67H462.646V714.809C462.482 711.855 461.867 708.983 460.8 706.193C459.774 703.403 458.133 701.106 455.877 699.301C453.621 697.496 450.544 696.593 446.646 696.593C444.062 696.593 441.682 697.147 439.508 698.255C437.333 699.321 435.467 700.921 433.908 703.055C432.349 705.188 431.139 707.793 430.277 710.87C429.415 713.947 428.985 717.496 428.985 721.516V724.101C428.985 727.26 429.415 730.234 430.277 733.024C431.18 735.773 432.472 738.193 434.154 740.285C435.877 742.378 437.949 744.019 440.369 745.209C442.831 746.398 445.621 746.993 448.739 746.993C452.759 746.993 456.164 746.173 458.954 744.532C461.744 742.891 464.185 740.696 466.277 737.947L473.169 743.424C471.733 745.598 469.908 747.67 467.692 749.639C465.477 751.609 462.749 753.209 459.508 754.439C456.308 755.67 452.513 756.285 448.123 756.285ZM498.708 702.685V755.055H487.323V688.47H498.092L498.708 702.685ZM496 719.239L491.262 719.055C491.303 714.501 491.98 710.296 493.292 706.439C494.605 702.542 496.451 699.157 498.831 696.285C501.21 693.414 504.041 691.198 507.323 689.639C510.646 688.039 514.318 687.239 518.339 687.239C521.621 687.239 524.575 687.691 527.2 688.593C529.826 689.455 532.062 690.85 533.908 692.778C535.795 694.706 537.231 697.208 538.216 700.285C539.2 703.321 539.692 707.034 539.692 711.424V755.055H528.246V711.301C528.246 707.814 527.733 705.024 526.708 702.932C525.682 700.798 524.185 699.26 522.216 698.316C520.246 697.332 517.826 696.839 514.954 696.839C512.123 696.839 509.539 697.434 507.2 698.624C504.903 699.814 502.913 701.455 501.231 703.547C499.59 705.639 498.298 708.039 497.354 710.747C496.451 713.414 496 716.244 496 719.239ZM600.123 688.47H610.462V753.639C610.462 759.506 609.272 764.511 606.893 768.655C604.513 772.798 601.19 775.937 596.923 778.07C592.698 780.244 587.816 781.332 582.277 781.332C579.98 781.332 577.272 780.962 574.154 780.224C571.077 779.526 568.041 778.316 565.046 776.593C562.092 774.911 559.61 772.634 557.6 769.762L563.569 762.993C566.359 766.357 569.272 768.696 572.308 770.009C575.385 771.321 578.421 771.978 581.416 771.978C585.026 771.978 588.144 771.301 590.769 769.947C593.395 768.593 595.426 766.583 596.862 763.916C598.339 761.291 599.077 758.05 599.077 754.193V703.116L600.123 688.47ZM554.277 722.501V721.209C554.277 716.121 554.872 711.506 556.062 707.362C557.292 703.178 559.036 699.588 561.292 696.593C563.59 693.598 566.359 691.301 569.6 689.701C572.841 688.06 576.492 687.239 580.554 687.239C584.739 687.239 588.39 687.978 591.508 689.455C594.667 690.891 597.334 693.003 599.508 695.793C601.723 698.542 603.467 701.865 604.739 705.762C606.01 709.66 606.893 714.07 607.385 718.993V724.655C606.934 729.537 606.051 733.926 604.739 737.824C603.467 741.721 601.723 745.044 599.508 747.793C597.334 750.542 594.667 752.655 591.508 754.132C588.349 755.568 584.657 756.285 580.431 756.285C576.451 756.285 572.841 755.444 569.6 753.762C566.4 752.08 563.651 749.721 561.354 746.685C559.057 743.65 557.292 740.08 556.062 735.978C554.872 731.834 554.277 727.342 554.277 722.501ZM565.662 721.209V722.501C565.662 725.824 565.99 728.942 566.646 731.855C567.344 734.767 568.39 737.332 569.785 739.547C571.221 741.762 573.046 743.506 575.262 744.778C577.477 746.009 580.123 746.624 583.2 746.624C586.975 746.624 590.093 745.824 592.554 744.224C595.016 742.624 596.964 740.511 598.4 737.885C599.877 735.26 601.026 732.409 601.846 729.332V714.501C601.395 712.244 600.698 710.07 599.754 707.978C598.851 705.844 597.662 703.957 596.185 702.316C594.749 700.634 592.964 699.301 590.831 698.316C588.698 697.332 586.195 696.839 583.323 696.839C580.205 696.839 577.518 697.496 575.262 698.808C573.046 700.08 571.221 701.844 569.785 704.101C568.39 706.316 567.344 708.901 566.646 711.855C565.99 714.767 565.662 717.885 565.662 721.209ZM655.631 688.47V697.208H619.631V688.47H655.631ZM631.816 672.285H643.2V738.562C643.2 740.819 643.549 742.521 644.246 743.67C644.944 744.819 645.846 745.578 646.954 745.947C648.062 746.316 649.252 746.501 650.523 746.501C651.467 746.501 652.452 746.419 653.477 746.255C654.544 746.05 655.344 745.885 655.877 745.762L655.939 755.055C655.036 755.342 653.846 755.609 652.369 755.855C650.934 756.142 649.19 756.285 647.139 756.285C644.349 756.285 641.785 755.732 639.446 754.624C637.108 753.516 635.241 751.67 633.846 749.085C632.493 746.46 631.816 742.932 631.816 738.501V672.285ZM680.369 660.532V755.055H668.985V660.532H680.369ZM677.662 719.239L672.923 719.055C672.964 714.501 673.641 710.296 674.954 706.439C676.267 702.542 678.113 699.157 680.493 696.285C682.872 693.414 685.703 691.198 688.985 689.639C692.308 688.039 695.98 687.239 700 687.239C703.282 687.239 706.236 687.691 708.862 688.593C711.487 689.455 713.723 690.85 715.569 692.778C717.457 694.706 718.893 697.208 719.877 700.285C720.862 703.321 721.354 707.034 721.354 711.424V755.055H709.908V711.301C709.908 707.814 709.395 705.024 708.369 702.932C707.344 700.798 705.846 699.26 703.877 698.316C701.908 697.332 699.487 696.839 696.616 696.839C693.785 696.839 691.2 697.434 688.862 698.624C686.564 699.814 684.575 701.455 682.893 703.547C681.252 705.639 679.959 708.039 679.016 710.747C678.113 713.414 677.662 716.244 677.662 719.239ZM766.031 756.285C761.395 756.285 757.19 755.506 753.416 753.947C749.682 752.347 746.462 750.111 743.754 747.239C741.087 744.368 739.036 740.962 737.6 737.024C736.164 733.085 735.446 728.778 735.446 724.101V721.516C735.446 716.101 736.246 711.28 737.846 707.055C739.446 702.788 741.621 699.178 744.37 696.224C747.118 693.27 750.236 691.034 753.723 689.516C757.211 687.998 760.821 687.239 764.554 687.239C769.313 687.239 773.416 688.06 776.862 689.701C780.349 691.342 783.2 693.639 785.416 696.593C787.631 699.506 789.272 702.952 790.339 706.932C791.405 710.87 791.939 715.178 791.939 719.855V724.962H742.216V715.67H780.554V714.809C780.39 711.855 779.775 708.983 778.708 706.193C777.682 703.403 776.041 701.106 773.785 699.301C771.529 697.496 768.452 696.593 764.554 696.593C761.97 696.593 759.59 697.147 757.416 698.255C755.241 699.321 753.375 700.921 751.816 703.055C750.257 705.188 749.046 707.793 748.185 710.87C747.323 713.947 746.893 717.496 746.893 721.516V724.101C746.893 727.26 747.323 730.234 748.185 733.024C749.087 735.773 750.38 738.193 752.062 740.285C753.785 742.378 755.857 744.019 758.277 745.209C760.739 746.398 763.529 746.993 766.646 746.993C770.667 746.993 774.072 746.173 776.862 744.532C779.652 742.891 782.093 740.696 784.185 737.947L791.077 743.424C789.641 745.598 787.816 747.67 785.6 749.639C783.385 751.609 780.657 753.209 777.416 754.439C774.216 755.67 770.421 756.285 766.031 756.285ZM816.616 702.685V755.055H805.231V688.47H816L816.616 702.685ZM813.908 719.239L809.17 719.055C809.211 714.501 809.888 710.296 811.2 706.439C812.513 702.542 814.359 699.157 816.739 696.285C819.118 693.414 821.949 691.198 825.231 689.639C828.554 688.039 832.226 687.239 836.247 687.239C839.529 687.239 842.482 687.691 845.108 688.593C847.734 689.455 849.97 690.85 851.816 692.778C853.703 694.706 855.139 697.208 856.123 700.285C857.108 703.321 857.6 707.034 857.6 711.424V755.055H846.154V711.301C846.154 707.814 845.641 705.024 844.616 702.932C843.59 700.798 842.093 699.26 840.123 698.316C838.154 697.332 835.734 696.839 832.862 696.839C830.031 696.839 827.447 697.434 825.108 698.624C822.811 699.814 820.821 701.455 819.139 703.547C817.498 705.639 816.205 708.039 815.262 710.747C814.359 713.414 813.908 716.244 813.908 719.239ZM913.662 737.393C913.662 735.752 913.293 734.234 912.554 732.839C911.857 731.403 910.4 730.111 908.185 728.962C906.011 727.773 902.729 726.747 898.339 725.885C894.647 725.106 891.303 724.183 888.308 723.116C885.354 722.05 882.831 720.757 880.739 719.239C878.688 717.721 877.108 715.937 876 713.885C874.893 711.834 874.339 709.434 874.339 706.685C874.339 704.06 874.913 701.578 876.062 699.239C877.252 696.901 878.913 694.829 881.047 693.024C883.221 691.219 885.826 689.803 888.862 688.778C891.898 687.752 895.282 687.239 899.016 687.239C904.349 687.239 908.903 688.183 912.677 690.07C916.452 691.957 919.344 694.48 921.354 697.639C923.365 700.757 924.37 704.224 924.37 708.039H912.985C912.985 706.193 912.431 704.409 911.323 702.685C910.257 700.921 908.677 699.465 906.585 698.316C904.534 697.167 902.011 696.593 899.016 696.593C895.857 696.593 893.293 697.085 891.323 698.07C889.395 699.014 887.98 700.224 887.077 701.701C886.216 703.178 885.785 704.737 885.785 706.378C885.785 707.609 885.99 708.716 886.4 709.701C886.852 710.644 887.631 711.526 888.739 712.347C889.847 713.126 891.406 713.865 893.416 714.562C895.426 715.26 897.99 715.957 901.108 716.655C906.565 717.885 911.057 719.362 914.585 721.085C918.113 722.809 920.739 724.921 922.462 727.424C924.185 729.926 925.047 732.962 925.047 736.532C925.047 739.444 924.431 742.111 923.2 744.532C922.011 746.952 920.267 749.044 917.97 750.809C915.713 752.532 913.006 753.885 909.847 754.87C906.729 755.814 903.221 756.285 899.323 756.285C893.457 756.285 888.493 755.239 884.431 753.147C880.37 751.055 877.293 748.347 875.2 745.024C873.108 741.701 872.062 738.193 872.062 734.501H883.508C883.672 737.619 884.575 740.101 886.216 741.947C887.857 743.752 889.867 745.044 892.247 745.824C894.626 746.562 896.985 746.932 899.323 746.932C902.441 746.932 905.047 746.521 907.139 745.701C909.272 744.88 910.893 743.752 912 742.316C913.108 740.88 913.662 739.239 913.662 737.393ZM982.585 701.701V755.055H971.139V688.47H981.97L982.585 701.701ZM980.247 719.239L974.954 719.055C974.995 714.501 975.59 710.296 976.739 706.439C977.888 702.542 979.59 699.157 981.847 696.285C984.103 693.414 986.913 691.198 990.277 689.639C993.641 688.039 997.539 687.239 1001.97 687.239C1005.09 687.239 1007.96 687.691 1010.59 688.593C1013.21 689.455 1015.49 690.829 1017.42 692.716C1019.34 694.603 1020.84 697.024 1021.91 699.978C1022.97 702.932 1023.51 706.501 1023.51 710.685V755.055H1012.12V711.239C1012.12 707.752 1011.53 704.962 1010.34 702.87C1009.19 700.778 1007.55 699.26 1005.42 698.316C1003.28 697.332 1000.78 696.839 997.908 696.839C994.544 696.839 991.734 697.434 989.477 698.624C987.221 699.814 985.416 701.455 984.062 703.547C982.708 705.639 981.723 708.039 981.108 710.747C980.534 713.414 980.247 716.244 980.247 719.239ZM1023.39 712.962L1015.75 715.301C1015.8 711.65 1016.39 708.142 1017.54 704.778C1018.73 701.414 1020.43 698.419 1022.65 695.793C1024.9 693.167 1027.67 691.096 1030.95 689.578C1034.24 688.019 1037.99 687.239 1042.22 687.239C1045.79 687.239 1048.94 687.711 1051.69 688.655C1054.48 689.598 1056.82 691.055 1058.71 693.024C1060.64 694.952 1062.09 697.434 1063.08 700.47C1064.06 703.506 1064.55 707.116 1064.55 711.301V755.055H1053.11V711.178C1053.11 707.444 1052.51 704.552 1051.32 702.501C1050.17 700.409 1048.53 698.952 1046.4 698.132C1044.31 697.27 1041.81 696.839 1038.89 696.839C1036.39 696.839 1034.17 697.27 1032.25 698.132C1030.32 698.993 1028.7 700.183 1027.39 701.701C1026.07 703.178 1025.07 704.88 1024.37 706.809C1023.71 708.737 1023.39 710.788 1023.39 712.962ZM1109.42 756.285C1104.78 756.285 1100.57 755.506 1096.8 753.947C1093.07 752.347 1089.85 750.111 1087.14 747.239C1084.47 744.368 1082.42 740.962 1080.99 737.024C1079.55 733.085 1078.83 728.778 1078.83 724.101V721.516C1078.83 716.101 1079.63 711.28 1081.23 707.055C1082.83 702.788 1085.01 699.178 1087.75 696.224C1090.5 693.27 1093.62 691.034 1097.11 689.516C1100.6 687.998 1104.21 687.239 1107.94 687.239C1112.7 687.239 1116.8 688.06 1120.25 689.701C1123.73 691.342 1126.59 693.639 1128.8 696.593C1131.02 699.506 1132.66 702.952 1133.72 706.932C1134.79 710.87 1135.32 715.178 1135.32 719.855V724.962H1085.6V715.67H1123.94V714.809C1123.77 711.855 1123.16 708.983 1122.09 706.193C1121.07 703.403 1119.43 701.106 1117.17 699.301C1114.91 697.496 1111.84 696.593 1107.94 696.593C1105.35 696.593 1102.97 697.147 1100.8 698.255C1098.63 699.321 1096.76 700.921 1095.2 703.055C1093.64 705.188 1092.43 707.793 1091.57 710.87C1090.71 713.947 1090.28 717.496 1090.28 721.516V724.101C1090.28 727.26 1090.71 730.234 1091.57 733.024C1092.47 735.773 1093.76 738.193 1095.45 740.285C1097.17 742.378 1099.24 744.019 1101.66 745.209C1104.12 746.398 1106.91 746.993 1110.03 746.993C1114.05 746.993 1117.46 746.173 1120.25 744.532C1123.04 742.891 1125.48 740.696 1127.57 737.947L1134.46 743.424C1133.03 745.598 1131.2 747.67 1128.99 749.639C1126.77 751.609 1124.04 753.209 1120.8 754.439C1117.6 755.67 1113.81 756.285 1109.42 756.285Z" fill="black"/>
<path d="M302.514 385.322H282.014V372.392H302.514C305.682 372.392 308.26 371.876 310.25 370.845C312.239 369.776 313.694 368.303 314.615 366.424C315.536 364.545 315.996 362.427 315.996 360.07C315.996 357.675 315.536 355.447 314.615 353.384C313.694 351.321 312.239 349.663 310.25 348.411C308.26 347.158 305.682 346.532 302.514 346.532H287.76V414H271.183V333.547H302.514C308.813 333.547 314.21 334.688 318.704 336.972C323.235 339.22 326.698 342.332 329.092 346.311C331.487 350.289 332.684 354.839 332.684 359.959C332.684 365.153 331.487 369.647 329.092 373.442C326.698 377.236 323.235 380.165 318.704 382.228C314.21 384.29 308.813 385.322 302.514 385.322ZM358.654 329.126V414H342.741V329.126H358.654ZM356.389 382.006H352.024C352.06 377.844 352.613 374.013 353.681 370.513C354.75 366.977 356.278 363.919 358.268 361.341C360.257 358.725 362.633 356.699 365.396 355.262C368.195 353.826 371.29 353.107 374.679 353.107C377.626 353.107 380.297 353.531 382.691 354.378C385.122 355.189 387.204 356.515 388.935 358.357C390.703 360.162 392.066 362.538 393.024 365.485C393.982 368.432 394.461 372.005 394.461 376.205V414H378.436V376.094C378.436 373.442 378.049 371.36 377.276 369.85C376.539 368.303 375.452 367.216 374.016 366.59C372.616 365.927 370.884 365.595 368.822 365.595C366.538 365.595 364.585 366.019 362.964 366.866C361.38 367.713 360.109 368.892 359.152 370.403C358.194 371.876 357.494 373.607 357.052 375.597C356.61 377.586 356.389 379.723 356.389 382.006ZM423.36 354.212V414H407.391V354.212H423.36ZM406.396 338.63C406.396 336.309 407.206 334.394 408.827 332.883C410.448 331.373 412.622 330.618 415.348 330.618C418.037 330.618 420.192 331.373 421.813 332.883C423.47 334.394 424.299 336.309 424.299 338.63C424.299 340.951 423.47 342.866 421.813 344.377C420.192 345.887 418.037 346.642 415.348 346.642C412.622 346.642 410.448 345.887 408.827 344.377C407.206 342.866 406.396 340.951 406.396 338.63ZM453.309 329.126V414H437.34V329.126H453.309ZM483.258 354.212V414H467.289V354.212H483.258ZM466.294 338.63C466.294 336.309 467.104 334.394 468.725 332.883C470.346 331.373 472.52 330.618 475.246 330.618C477.935 330.618 480.09 331.373 481.711 332.883C483.368 334.394 484.197 336.309 484.197 338.63C484.197 340.951 483.368 342.866 481.711 344.377C480.09 345.887 477.935 346.642 475.246 346.642C472.52 346.642 470.346 345.887 468.725 344.377C467.104 342.866 466.294 340.951 466.294 338.63ZM512.323 365.706V436.987H496.409V354.212H511.162L512.323 365.706ZM550.173 383.443V384.604C550.173 388.95 549.658 392.984 548.626 396.705C547.632 400.425 546.158 403.667 544.206 406.43C542.253 409.156 539.822 411.292 536.912 412.84C534.039 414.35 530.723 415.105 526.966 415.105C523.319 415.105 520.151 414.368 517.462 412.895C514.772 411.421 512.507 409.358 510.665 406.706C508.86 404.017 507.405 400.904 506.3 397.368C505.195 393.831 504.347 390.037 503.758 385.985V382.946C504.347 378.599 505.195 374.621 506.3 371.01C507.405 367.364 508.86 364.214 510.665 361.562C512.507 358.872 514.754 356.791 517.406 355.318C520.095 353.844 523.245 353.107 526.855 353.107C530.649 353.107 533.983 353.826 536.857 355.262C539.767 356.699 542.198 358.762 544.15 361.451C546.14 364.14 547.632 367.345 548.626 371.066C549.658 374.786 550.173 378.912 550.173 383.443ZM534.204 384.604V383.443C534.204 380.901 533.983 378.562 533.541 376.426C533.136 374.252 532.473 372.355 531.552 370.734C530.668 369.113 529.489 367.861 528.016 366.977C526.579 366.056 524.829 365.595 522.766 365.595C520.593 365.595 518.732 365.945 517.185 366.645C515.675 367.345 514.441 368.358 513.483 369.684C512.525 371.01 511.807 372.594 511.328 374.436C510.849 376.278 510.555 378.36 510.444 380.68V388.361C510.628 391.087 511.144 393.537 511.991 395.71C512.838 397.847 514.146 399.541 515.914 400.794C517.683 402.046 520.003 402.672 522.877 402.672C524.976 402.672 526.745 402.212 528.181 401.291C529.618 400.333 530.778 399.025 531.663 397.368C532.583 395.71 533.228 393.795 533.596 391.621C534.002 389.448 534.204 387.109 534.204 384.604ZM575.978 365.706V436.987H560.064V354.212H574.818L575.978 365.706ZM613.829 383.443V384.604C613.829 388.95 613.313 392.984 612.282 396.705C611.287 400.425 609.814 403.667 607.861 406.43C605.909 409.156 603.478 411.292 600.567 412.84C597.694 414.35 594.379 415.105 590.621 415.105C586.974 415.105 583.806 414.368 581.117 412.895C578.428 411.421 576.162 409.358 574.321 406.706C572.515 404.017 571.06 400.904 569.955 397.368C568.85 393.831 568.003 390.037 567.413 385.985V382.946C568.003 378.599 568.85 374.621 569.955 371.01C571.06 367.364 572.515 364.214 574.321 361.562C576.162 358.872 578.409 356.791 581.062 355.318C583.751 353.844 586.901 353.107 590.511 353.107C594.305 353.107 597.639 353.826 600.512 355.262C603.422 356.699 605.854 358.762 607.806 361.451C609.795 364.14 611.287 367.345 612.282 371.066C613.313 374.786 613.829 378.912 613.829 383.443ZM597.86 384.604V383.443C597.86 380.901 597.639 378.562 597.197 376.426C596.791 374.252 596.128 372.355 595.207 370.734C594.323 369.113 593.145 367.861 591.671 366.977C590.234 366.056 588.485 365.595 586.422 365.595C584.248 365.595 582.388 365.945 580.841 366.645C579.33 367.345 578.096 368.358 577.139 369.684C576.181 371.01 575.462 372.594 574.984 374.436C574.505 376.278 574.21 378.36 574.099 380.68V388.361C574.284 391.087 574.799 393.537 575.647 395.71C576.494 397.847 577.802 399.541 579.57 400.794C581.338 402.046 583.659 402.672 586.532 402.672C588.632 402.672 590.4 402.212 591.837 401.291C593.273 400.333 594.434 399.025 595.318 397.368C596.239 395.71 596.884 393.795 597.252 391.621C597.657 389.448 597.86 387.109 597.86 384.604ZM640.518 354.212V414H624.549V354.212H640.518ZM623.554 338.63C623.554 336.309 624.365 334.394 625.985 332.883C627.606 331.373 629.78 330.618 632.506 330.618C635.195 330.618 637.35 331.373 638.971 332.883C640.628 334.394 641.457 336.309 641.457 338.63C641.457 340.951 640.628 342.866 638.971 344.377C637.35 345.887 635.195 346.642 632.506 346.642C629.78 346.642 627.606 345.887 625.985 344.377C624.365 342.866 623.554 340.951 623.554 338.63ZM685.939 400.517V373.884C685.939 371.968 685.626 370.329 684.999 368.966C684.373 367.566 683.397 366.479 682.071 365.706C680.781 364.932 679.105 364.545 677.042 364.545C675.274 364.545 673.745 364.859 672.456 365.485C671.167 366.074 670.172 366.94 669.472 368.082C668.772 369.187 668.422 370.495 668.422 372.005H652.508C652.508 369.463 653.098 367.05 654.277 364.766C655.455 362.483 657.168 360.475 659.416 358.743C661.663 356.975 664.333 355.594 667.428 354.599C670.559 353.605 674.059 353.107 677.926 353.107C682.568 353.107 686.694 353.881 690.304 355.428C693.914 356.975 696.751 359.296 698.813 362.39C700.913 365.485 701.963 369.353 701.963 373.994V399.578C701.963 402.857 702.166 405.546 702.571 407.646C702.976 409.708 703.565 411.513 704.339 413.061V414H688.259C687.486 412.379 686.896 410.353 686.491 407.922C686.123 405.454 685.939 402.986 685.939 400.517ZM688.038 377.586L688.149 386.593H679.253C677.153 386.593 675.329 386.832 673.782 387.311C672.235 387.79 670.964 388.471 669.97 389.356C668.975 390.203 668.238 391.197 667.759 392.339C667.317 393.481 667.096 394.734 667.096 396.097C667.096 397.46 667.409 398.694 668.036 399.799C668.662 400.867 669.564 401.715 670.743 402.341C671.922 402.93 673.303 403.225 674.887 403.225C677.282 403.225 679.363 402.746 681.131 401.788C682.9 400.831 684.263 399.652 685.22 398.252C686.215 396.852 686.731 395.526 686.768 394.273L690.967 401.015C690.378 402.525 689.567 404.091 688.536 405.712C687.541 407.332 686.27 408.861 684.723 410.298C683.176 411.698 681.316 412.858 679.142 413.779C676.969 414.663 674.39 415.105 671.406 415.105C667.612 415.105 664.168 414.35 661.073 412.84C658.016 411.292 655.584 409.174 653.779 406.485C652.011 403.759 651.127 400.665 651.127 397.202C651.127 394.071 651.716 391.29 652.895 388.858C654.074 386.427 655.805 384.383 658.089 382.725C660.41 381.03 663.302 379.759 666.765 378.912C670.227 378.028 674.243 377.586 678.811 377.586H688.038ZM729.812 366.977V414H713.898V354.212H728.818L729.812 366.977ZM727.492 382.006H723.182C723.182 377.586 723.753 373.607 724.894 370.071C726.036 366.498 727.639 363.459 729.702 360.954C731.765 358.412 734.214 356.478 737.051 355.152C739.924 353.789 743.129 353.107 746.666 353.107C749.465 353.107 752.025 353.513 754.346 354.323C756.667 355.133 758.656 356.423 760.314 358.191C762.008 359.959 763.298 362.298 764.182 365.209C765.103 368.119 765.563 371.674 765.563 375.873V414H749.539V375.818C749.539 373.165 749.171 371.103 748.434 369.629C747.697 368.156 746.61 367.124 745.174 366.535C743.774 365.908 742.042 365.595 739.98 365.595C737.843 365.595 735.983 366.019 734.399 366.866C732.851 367.713 731.562 368.892 730.531 370.403C729.536 371.876 728.781 373.607 728.265 375.597C727.749 377.586 727.492 379.723 727.492 382.006ZM809.99 397.478C809.99 396.336 809.658 395.305 808.995 394.384C808.332 393.463 807.098 392.616 805.293 391.842C803.525 391.032 800.964 390.295 797.612 389.632C794.591 388.969 791.773 388.14 789.158 387.145C786.579 386.114 784.332 384.88 782.417 383.443C780.538 382.006 779.064 380.312 777.996 378.36C776.928 376.37 776.394 374.105 776.394 371.563C776.394 369.058 776.928 366.7 777.996 364.49C779.101 362.28 780.667 360.328 782.693 358.633C784.756 356.902 787.261 355.557 790.208 354.599C793.192 353.605 796.544 353.107 800.264 353.107C805.458 353.107 809.916 353.936 813.636 355.594C817.394 357.252 820.267 359.536 822.256 362.446C824.283 365.319 825.296 368.598 825.296 372.281H809.382C809.382 370.734 809.05 369.353 808.387 368.137C807.761 366.885 806.766 365.908 805.403 365.209C804.077 364.472 802.346 364.103 800.209 364.103C798.441 364.103 796.912 364.416 795.623 365.043C794.334 365.632 793.339 366.443 792.639 367.474C791.976 368.469 791.644 369.574 791.644 370.789C791.644 371.71 791.829 372.539 792.197 373.276C792.602 373.976 793.247 374.621 794.131 375.21C795.015 375.799 796.157 376.352 797.557 376.868C798.993 377.347 800.762 377.789 802.861 378.194C807.171 379.078 811.021 380.238 814.41 381.675C817.799 383.075 820.488 384.99 822.477 387.422C824.467 389.816 825.461 392.966 825.461 396.87C825.461 399.523 824.872 401.954 823.693 404.164C822.514 406.375 820.82 408.309 818.61 409.966C816.399 411.587 813.747 412.858 810.653 413.779C807.595 414.663 804.151 415.105 800.32 415.105C794.757 415.105 790.042 414.111 786.174 412.121C782.343 410.132 779.433 407.609 777.443 404.551C775.491 401.457 774.515 398.289 774.515 395.047H789.6C789.674 397.22 790.226 398.97 791.258 400.296C792.326 401.623 793.67 402.58 795.291 403.17C796.949 403.759 798.736 404.054 800.651 404.054C802.714 404.054 804.427 403.778 805.79 403.225C807.153 402.636 808.184 401.862 808.884 400.904C809.621 399.91 809.99 398.768 809.99 397.478ZM919.674 383.94V396.428H861.71L860.936 386.759L894.477 333.547H907.13L893.427 356.478L876.739 383.94H919.674ZM910.556 333.547V414H894.642V333.547H910.556ZM929.565 406.319C929.565 403.962 930.375 401.991 931.996 400.407C933.654 398.823 935.845 398.031 938.571 398.031C941.297 398.031 943.471 398.823 945.092 400.407C946.749 401.991 947.578 403.962 947.578 406.319C947.578 408.677 946.749 410.648 945.092 412.232C943.471 413.816 941.297 414.608 938.571 414.608C935.845 414.608 933.654 413.816 931.996 412.232C930.375 410.648 929.565 408.677 929.565 406.319ZM929.565 360.733C929.565 358.375 930.375 356.404 931.996 354.82C933.654 353.236 935.845 352.444 938.571 352.444C941.297 352.444 943.471 353.236 945.092 354.82C946.749 356.404 947.578 358.375 947.578 360.733C947.578 363.09 946.749 365.061 945.092 366.645C943.471 368.229 941.297 369.021 938.571 369.021C935.845 369.021 933.654 368.229 931.996 366.645C930.375 365.061 929.565 363.09 929.565 360.733ZM999.022 333.381V414H983.108V351.726L963.989 357.804V345.261L997.309 333.381H999.022ZM1041.51 366.866H1050.02C1052.75 366.866 1055 366.406 1056.77 365.485C1058.53 364.527 1059.84 363.201 1060.69 361.506C1061.57 359.775 1062.01 357.767 1062.01 355.483C1062.01 353.42 1061.61 351.597 1060.8 350.013C1060.03 348.392 1058.83 347.14 1057.21 346.256C1055.59 345.335 1053.54 344.874 1051.07 344.874C1049.12 344.874 1047.32 345.261 1045.66 346.034C1044 346.808 1042.67 347.895 1041.68 349.295C1040.69 350.694 1040.19 352.389 1040.19 354.378H1024.22C1024.22 349.958 1025.4 346.108 1027.76 342.83C1030.15 339.551 1033.35 336.991 1037.37 335.149C1041.39 333.307 1045.81 332.386 1050.63 332.386C1056.08 332.386 1060.85 333.27 1064.94 335.038C1069.03 336.77 1072.22 339.33 1074.5 342.719C1076.79 346.108 1077.93 350.308 1077.93 355.318C1077.93 357.859 1077.34 360.328 1076.16 362.722C1074.98 365.08 1073.29 367.216 1071.08 369.132C1068.9 371.01 1066.25 372.521 1063.12 373.663C1059.99 374.768 1056.47 375.32 1052.57 375.32H1041.51V366.866ZM1041.51 378.967V370.734H1052.57C1056.95 370.734 1060.8 371.231 1064.11 372.226C1067.43 373.221 1070.21 374.657 1072.46 376.536C1074.71 378.378 1076.4 380.57 1077.54 383.112C1078.68 385.617 1079.25 388.398 1079.25 391.455C1079.25 395.213 1078.54 398.565 1077.1 401.512C1075.66 404.422 1073.64 406.89 1071.02 408.916C1068.44 410.942 1065.42 412.49 1061.96 413.558C1058.5 414.589 1054.72 415.105 1050.63 415.105C1047.24 415.105 1043.91 414.645 1040.63 413.724C1037.39 412.766 1034.44 411.348 1031.79 409.469C1029.17 407.553 1027.07 405.159 1025.49 402.286C1023.94 399.375 1023.17 395.931 1023.17 391.953H1039.14C1039.14 394.016 1039.65 395.857 1040.69 397.478C1041.72 399.099 1043.14 400.37 1044.94 401.291C1046.78 402.212 1048.83 402.672 1051.07 402.672C1053.62 402.672 1055.79 402.212 1057.59 401.291C1059.44 400.333 1060.84 399.007 1061.79 397.313C1062.79 395.581 1063.29 393.574 1063.29 391.29C1063.29 388.343 1062.75 385.985 1061.68 384.217C1060.61 382.412 1059.09 381.086 1057.1 380.238C1055.11 379.391 1052.75 378.967 1050.02 378.967H1041.51Z" fill="black"/>
<defs>
<filter id="filter0_d_1907_2105" x="0.638607" y="0.533138" width="2656.56" height="1218.1" filterUnits="userSpaceOnUse" color-interpolation-filters="sRGB">
<feFlood flood-opacity="0" result="BackgroundImageFix"/>
<feColorMatrix in="SourceAlpha" type="matrix" values="0 0 0 0 0 0 0 0 0 0 0 0 0 0 0 0 0 0 127 0" result="hardAlpha"/>
<feOffset dx="-31.1205" dy="56.5827"/>
<feGaussianBlur stdDeviation="31.1205"/>
<feComposite in2="hardAlpha" operator="out"/>
<feColorMatrix type="matrix" values="0 0 0 0 0 0 0 0 0 0 0 0 0 0 0 0 0 0 0.25 0"/>
<feBlend mode="normal" in2="BackgroundImageFix" result="effect1_dropShadow_1907_2105"/>
<feBlend mode="normal" in="SourceGraphic" in2="effect1_dropShadow_1907_2105" result="shape"/>
</filter>
</defs>
</svg>
