<svg width="2658" height="1219" viewBox="0 0 2658 1219" fill="none" xmlns="http://www.w3.org/2000/svg">
<g filter="url(#filter0_d_1907_2105)">
<path d="M2626.07 6.19141L94 6.35372L94 1063.04L194.434 1041.82L327.403 1099.81L457.544 1041.82L541.003 1063.04L774.407 997.965L990.835 1063.04L1142.19 976.746L1326.09 1030.5L1576.47 997.965L1914.55 1063.04L2029.13 976.746L2256.87 1030.5L2374.28 1010.7L2626.07 1041.65V6.19141Z" fill="#D0B3D6"/>
</g>
<path d="M286.199 520.396V612.055H275.099V520.396H286.199ZM370.394 613.487C363.95 613.487 358.4 611.965 353.746 608.922C349.091 605.878 345.511 601.686 343.004 596.346C340.498 591.005 339.245 584.903 339.245 578.041C339.245 571.059 340.528 564.898 343.094 559.557C345.69 554.186 349.3 549.994 353.925 546.981C358.579 543.937 364.009 542.415 370.215 542.415C375.049 542.415 379.405 543.311 383.284 545.101C387.163 546.891 390.34 549.397 392.817 552.62C395.293 555.842 396.83 559.602 397.427 563.898H386.864C386.059 560.765 384.269 557.99 381.494 555.574C378.749 553.127 375.049 551.904 370.394 551.904C366.277 551.904 362.667 552.978 359.564 555.126C356.49 557.244 354.089 560.243 352.358 564.122C350.657 567.971 349.807 572.491 349.807 577.683C349.807 582.994 350.642 587.618 352.313 591.557C354.014 595.495 356.401 598.554 359.474 600.732C362.577 602.91 366.217 603.999 370.394 603.999C373.139 603.999 375.631 603.521 377.869 602.567C380.106 601.612 382.001 600.239 383.553 598.449C385.104 596.659 386.208 594.511 386.864 592.004H397.427C396.83 596.062 395.353 599.717 392.996 602.969C390.669 606.192 387.58 608.758 383.732 610.667C379.912 612.547 375.467 613.487 370.394 613.487ZM433.097 613.666C428.74 613.666 424.787 612.845 421.236 611.204C417.686 609.533 414.866 607.132 412.778 603.999C410.689 600.836 409.645 597.017 409.645 592.541C409.645 588.603 410.421 585.41 411.972 582.964C413.524 580.487 415.597 578.548 418.193 577.146C420.789 575.743 423.653 574.699 426.786 574.013C429.949 573.297 433.126 572.73 436.319 572.312C440.496 571.775 443.883 571.372 446.478 571.104C449.104 570.805 451.014 570.313 452.207 569.627C453.43 568.94 454.042 567.747 454.042 566.046V565.688C454.042 561.272 452.834 557.841 450.417 555.395C448.03 552.948 444.405 551.725 439.541 551.725C434.499 551.725 430.546 552.829 427.681 555.036C424.817 557.244 422.803 559.602 421.639 562.108L411.614 558.527C413.404 554.35 415.791 551.098 418.775 548.771C421.788 546.414 425.07 544.773 428.621 543.848C432.201 542.893 435.722 542.415 439.183 542.415C441.391 542.415 443.927 542.684 446.792 543.221C449.686 543.728 452.476 544.788 455.161 546.399C457.876 548.01 460.129 550.442 461.919 553.694C463.709 556.946 464.604 561.302 464.604 566.762V612.055H454.042V602.746H453.505C452.789 604.237 451.595 605.834 449.925 607.534C448.254 609.235 446.031 610.682 443.256 611.876C440.481 613.069 437.095 613.666 433.097 613.666ZM434.708 604.178C438.885 604.178 442.406 603.357 445.27 601.716C448.164 600.075 450.342 597.957 451.804 595.361C453.296 592.765 454.042 590.035 454.042 587.171V577.504C453.595 578.041 452.61 578.533 451.088 578.981C449.596 579.398 447.866 579.771 445.897 580.099C443.957 580.398 442.063 580.666 440.213 580.905C438.393 581.114 436.916 581.293 435.782 581.442C433.037 581.8 430.471 582.382 428.084 583.188C425.727 583.963 423.817 585.142 422.355 586.723C420.923 588.275 420.207 590.393 420.207 593.078C420.207 596.748 421.565 599.523 424.28 601.403C427.025 603.253 430.501 604.178 434.708 604.178ZM494.445 570.701V612.055H483.883V543.311H494.087V554.052H494.982C496.593 550.561 499.04 547.756 502.322 545.638C505.604 543.49 509.841 542.415 515.032 542.415C519.687 542.415 523.76 543.37 527.251 545.28C530.741 547.16 533.457 550.024 535.396 553.873C537.335 557.692 538.305 562.526 538.305 568.374V612.055H527.743V569.09C527.743 563.689 526.34 559.482 523.536 556.469C520.731 553.425 516.882 551.904 511.989 551.904C508.617 551.904 505.604 552.635 502.948 554.097C500.323 555.559 498.249 557.692 496.727 560.497C495.206 563.301 494.445 566.703 494.445 570.701ZM619.01 613.487C613.281 613.487 608.224 612.04 603.838 609.146C599.452 606.222 596.021 602.104 593.544 596.793C591.068 591.452 589.83 585.142 589.83 577.862C589.83 570.641 591.068 564.375 593.544 559.064C596.021 553.753 599.467 549.651 603.883 546.757C608.299 543.863 613.401 542.415 619.189 542.415C623.665 542.415 627.2 543.161 629.796 544.653C632.422 546.115 634.421 547.786 635.793 549.666C637.196 551.516 638.285 553.037 639.06 554.231H639.955V520.396H650.518V612.055H640.314V601.492H639.06C638.285 602.746 637.181 604.327 635.748 606.237C634.316 608.116 632.272 609.802 629.617 611.294C626.962 612.756 623.426 613.487 619.01 613.487ZM620.442 603.999C624.679 603.999 628.259 602.895 631.183 600.687C634.107 598.449 636.33 595.361 637.852 591.423C639.374 587.454 640.134 582.874 640.134 577.683C640.134 572.551 639.389 568.06 637.897 564.211C636.405 560.333 634.197 557.319 631.273 555.171C628.349 552.993 624.739 551.904 620.442 551.904C615.967 551.904 612.237 553.052 609.253 555.35C606.299 557.617 604.077 560.705 602.585 564.614C601.123 568.493 600.392 572.849 600.392 577.683C600.392 582.576 601.138 587.022 602.63 591.02C604.151 594.988 606.389 598.151 609.343 600.508C612.327 602.835 616.026 603.999 620.442 603.999ZM699.256 613.487C693.05 613.487 687.605 612.01 682.921 609.056C678.266 606.102 674.626 601.97 672 596.659C669.404 591.348 668.107 585.142 668.107 578.041C668.107 570.88 669.404 564.629 672 559.288C674.626 553.947 678.266 549.8 682.921 546.846C687.605 543.892 693.05 542.415 699.256 542.415C705.462 542.415 710.893 543.892 715.547 546.846C720.232 549.8 723.872 553.947 726.467 559.288C729.093 564.629 730.406 570.88 730.406 578.041C730.406 585.142 729.093 591.348 726.467 596.659C723.872 601.97 720.232 606.102 715.547 609.056C710.893 612.01 705.462 613.487 699.256 613.487ZM699.256 603.999C703.97 603.999 707.849 602.79 710.893 600.374C713.936 597.957 716.189 594.779 717.651 590.841C719.113 586.902 719.844 582.636 719.844 578.041C719.844 573.446 719.113 569.164 717.651 565.196C716.189 561.228 713.936 558.02 710.893 555.574C707.849 553.127 703.97 551.904 699.256 551.904C694.542 551.904 690.663 553.127 687.62 555.574C684.576 558.02 682.324 561.228 680.862 565.196C679.4 569.164 678.669 573.446 678.669 578.041C678.669 582.636 679.4 586.902 680.862 590.841C682.324 594.779 684.576 597.957 687.62 600.374C690.663 602.79 694.542 603.999 699.256 603.999ZM802.205 613.666C797.848 613.666 793.895 612.845 790.344 611.204C786.794 609.533 783.974 607.132 781.886 603.999C779.797 600.836 778.753 597.017 778.753 592.541C778.753 588.603 779.529 585.41 781.08 582.964C782.632 580.487 784.705 578.548 787.301 577.146C789.897 575.743 792.761 574.699 795.894 574.013C799.057 573.297 802.234 572.73 805.427 572.312C809.604 571.775 812.991 571.372 815.586 571.104C818.212 570.805 820.122 570.313 821.315 569.627C822.538 568.94 823.15 567.747 823.15 566.046V565.688C823.15 561.272 821.942 557.841 819.525 555.395C817.138 552.948 813.513 551.725 808.649 551.725C803.607 551.725 799.653 552.829 796.789 555.036C793.925 557.244 791.911 559.602 790.747 562.108L780.722 558.527C782.512 554.35 784.899 551.098 787.883 548.771C790.896 546.414 794.178 544.773 797.729 543.848C801.309 542.893 804.83 542.415 808.291 542.415C810.499 542.415 813.035 542.684 815.9 543.221C818.794 543.728 821.584 544.788 824.269 546.399C826.984 548.01 829.237 550.442 831.027 553.694C832.817 556.946 833.712 561.302 833.712 566.762V612.055H823.15V602.746H822.613C821.897 604.237 820.703 605.834 819.032 607.534C817.362 609.235 815.139 610.682 812.364 611.876C809.589 613.069 806.203 613.666 802.205 613.666ZM803.816 604.178C807.993 604.178 811.514 603.357 814.378 601.716C817.272 600.075 819.45 597.957 820.912 595.361C822.404 592.765 823.15 590.035 823.15 587.171V577.504C822.702 578.041 821.718 578.533 820.196 578.981C818.704 579.398 816.974 579.771 815.005 580.099C813.065 580.398 811.17 580.666 809.321 580.905C807.501 581.114 806.024 581.293 804.89 581.442C802.145 581.8 799.579 582.382 797.192 583.188C794.835 583.963 792.925 585.142 791.463 586.723C790.031 588.275 789.315 590.393 789.315 593.078C789.315 596.748 790.673 599.523 793.388 601.403C796.133 603.253 799.609 604.178 803.816 604.178ZM863.553 520.396V612.055H852.991V520.396H863.553ZM893.461 520.396V612.055H882.898V520.396H893.461ZM978.149 543.311V552.262H942.523V543.311H978.149ZM952.907 526.841H963.469V592.362C963.469 595.346 963.902 597.584 964.767 599.076C965.662 600.538 966.796 601.522 968.168 602.03C969.571 602.507 971.048 602.746 972.599 602.746C973.763 602.746 974.717 602.686 975.463 602.567C976.209 602.417 976.806 602.298 977.254 602.209L979.402 611.697C978.686 611.965 977.686 612.234 976.403 612.502C975.12 612.801 973.494 612.95 971.525 612.95C968.541 612.95 965.617 612.308 962.753 611.025C959.918 609.742 957.561 607.788 955.682 605.162C953.832 602.537 952.907 599.225 952.907 595.227V526.841ZM1006.08 570.701V612.055H995.514V520.396H1006.08V554.052H1006.97C1008.58 550.501 1011 547.682 1014.22 545.593C1017.47 543.475 1021.8 542.415 1027.2 542.415C1031.88 542.415 1035.99 543.355 1039.51 545.235C1043.03 547.085 1045.76 549.934 1047.7 553.783C1049.67 557.602 1050.65 562.466 1050.65 568.374V612.055H1040.09V569.09C1040.09 563.629 1038.67 559.408 1035.84 556.424C1033.03 553.41 1029.14 551.904 1024.16 551.904C1020.7 551.904 1017.59 552.635 1014.85 554.097C1012.13 555.559 1009.98 557.692 1008.4 560.497C1006.85 563.301 1006.08 566.703 1006.08 570.701ZM1069.98 612.055V543.311H1080.54V612.055H1069.98ZM1075.35 531.853C1073.29 531.853 1071.51 531.152 1070.02 529.75C1068.56 528.347 1067.83 526.662 1067.83 524.692C1067.83 522.723 1068.56 521.037 1070.02 519.635C1071.51 518.233 1073.29 517.532 1075.35 517.532C1077.4 517.532 1079.17 518.233 1080.63 519.635C1082.12 521.037 1082.86 522.723 1082.86 524.692C1082.86 526.662 1082.12 528.347 1080.63 529.75C1079.17 531.152 1077.4 531.853 1075.35 531.853ZM1110.45 570.701V612.055H1099.88V543.311H1110.09V554.052H1110.98C1112.59 550.561 1115.04 547.756 1118.32 545.638C1121.6 543.49 1125.84 542.415 1131.03 542.415C1135.69 542.415 1139.76 543.37 1143.25 545.28C1146.74 547.16 1149.46 550.024 1151.4 553.873C1153.34 557.692 1154.31 562.526 1154.31 568.374V612.055H1143.74V569.09C1143.74 563.689 1142.34 559.482 1139.54 556.469C1136.73 553.425 1132.88 551.904 1127.99 551.904C1124.62 551.904 1121.6 552.635 1118.95 554.097C1116.32 555.559 1114.25 557.692 1112.73 560.497C1111.21 563.301 1110.45 566.703 1110.45 570.701ZM1201.35 639.266C1196.25 639.266 1191.87 638.609 1188.2 637.297C1184.53 636.014 1181.47 634.313 1179.02 632.195C1176.6 630.106 1174.68 627.868 1173.25 625.481L1181.66 619.574C1182.62 620.827 1183.83 622.259 1185.29 623.87C1186.75 625.511 1188.75 626.928 1191.28 628.122C1193.85 629.345 1197.21 629.957 1201.35 629.957C1206.9 629.957 1211.48 628.614 1215.09 625.929C1218.7 623.244 1220.51 619.037 1220.51 613.308V599.344H1219.61C1218.84 600.597 1217.73 602.149 1216.3 603.999C1214.9 605.819 1212.87 607.445 1210.22 608.877C1207.59 610.279 1204.04 610.981 1199.56 610.981C1194.01 610.981 1189.03 609.668 1184.62 607.042C1180.23 604.416 1176.75 600.597 1174.19 595.585C1171.65 590.572 1170.38 584.485 1170.38 577.325C1170.38 570.283 1171.62 564.152 1174.1 558.93C1176.57 553.679 1180.02 549.621 1184.44 546.757C1188.85 543.863 1193.95 542.415 1199.74 542.415C1204.22 542.415 1207.77 543.161 1210.39 544.653C1213.05 546.115 1215.08 547.786 1216.48 549.666C1217.91 551.516 1219.02 553.037 1219.79 554.231H1220.87V543.311H1231.07V614.024C1231.07 619.932 1229.73 624.735 1227.04 628.435C1224.39 632.165 1220.81 634.895 1216.3 636.625C1211.83 638.386 1206.84 639.266 1201.35 639.266ZM1201 601.492C1205.23 601.492 1208.81 600.523 1211.74 598.583C1214.66 596.644 1216.88 593.854 1218.41 590.214C1219.93 586.574 1220.69 582.218 1220.69 577.146C1220.69 572.193 1219.94 567.822 1218.45 564.032C1216.96 560.243 1214.75 557.274 1211.83 555.126C1208.9 552.978 1205.29 551.904 1201 551.904C1196.52 551.904 1192.79 553.037 1189.81 555.305C1186.85 557.573 1184.63 560.616 1183.14 564.435C1181.68 568.254 1180.95 572.491 1180.95 577.146C1180.95 581.919 1181.69 586.141 1183.18 589.811C1184.71 593.451 1186.94 596.316 1189.9 598.404C1192.88 600.463 1196.58 601.492 1201 601.492ZM1299.1 558.706L1289.61 561.392C1289.02 559.81 1288.13 558.274 1286.97 556.782C1285.84 555.26 1284.29 554.007 1282.32 553.022C1280.35 552.038 1277.83 551.546 1274.75 551.546C1270.55 551.546 1267.04 552.515 1264.24 554.455C1261.46 556.364 1260.07 558.796 1260.07 561.75C1260.07 564.375 1261.03 566.449 1262.94 567.971C1264.85 569.492 1267.83 570.76 1271.89 571.775L1282.09 574.281C1288.24 575.773 1292.82 578.056 1295.83 581.129C1298.85 584.172 1300.35 588.096 1300.35 592.899C1300.35 596.838 1299.22 600.359 1296.95 603.462C1294.71 606.565 1291.58 609.011 1287.55 610.802C1283.53 612.592 1278.84 613.487 1273.5 613.487C1266.49 613.487 1260.69 611.965 1256.09 608.922C1251.5 605.878 1248.59 601.433 1247.36 595.585L1257.39 593.078C1258.34 596.778 1260.15 599.553 1262.8 601.403C1265.49 603.253 1268.99 604.178 1273.32 604.178C1278.24 604.178 1282.15 603.133 1285.05 601.045C1287.97 598.926 1289.43 596.39 1289.43 593.436C1289.43 591.05 1288.6 589.05 1286.93 587.439C1285.26 585.798 1282.69 584.575 1279.23 583.769L1267.77 581.084C1261.48 579.592 1256.85 577.28 1253.9 574.147C1250.97 570.984 1249.51 567.031 1249.51 562.287C1249.51 558.408 1250.6 554.977 1252.78 551.993C1254.99 549.009 1257.98 546.667 1261.77 544.967C1265.59 543.266 1269.92 542.415 1274.75 542.415C1281.56 542.415 1286.9 543.907 1290.78 546.891C1294.68 549.875 1297.46 553.813 1299.1 558.706ZM1381.6 543.311V552.262H1345.97V543.311H1381.6ZM1356.35 526.841H1366.92V592.362C1366.92 595.346 1367.35 597.584 1368.21 599.076C1369.11 600.538 1370.24 601.522 1371.61 602.03C1373.02 602.507 1374.49 602.746 1376.05 602.746C1377.21 602.746 1378.16 602.686 1378.91 602.567C1379.66 602.417 1380.25 602.298 1380.7 602.209L1382.85 611.697C1382.13 611.965 1381.13 612.234 1379.85 612.502C1378.57 612.801 1376.94 612.95 1374.97 612.95C1371.99 612.95 1369.06 612.308 1366.2 611.025C1363.36 609.742 1361.01 607.788 1359.13 605.162C1357.28 602.537 1356.35 599.225 1356.35 595.227V526.841ZM1409.52 570.701V612.055H1398.96V520.396H1409.52V554.052H1410.42C1412.03 550.501 1414.45 547.682 1417.67 545.593C1420.92 543.475 1425.25 542.415 1430.65 542.415C1435.33 542.415 1439.43 543.355 1442.95 545.235C1446.48 547.085 1449.21 549.934 1451.14 553.783C1453.11 557.602 1454.1 562.466 1454.1 568.374V612.055H1443.54V569.09C1443.54 563.629 1442.12 559.408 1439.28 556.424C1436.48 553.41 1432.59 551.904 1427.6 551.904C1424.14 551.904 1421.04 552.635 1418.29 554.097C1415.58 555.559 1413.43 557.692 1411.85 560.497C1410.3 563.301 1409.52 566.703 1409.52 570.701ZM1473.42 612.055V543.311H1483.63V553.694H1484.34C1485.6 550.292 1487.86 547.533 1491.14 545.414C1494.43 543.296 1498.13 542.236 1502.24 542.236C1503.02 542.236 1503.99 542.251 1505.15 542.281C1506.32 542.311 1507.2 542.356 1507.79 542.415V553.157C1507.44 553.067 1506.62 552.933 1505.33 552.754C1504.08 552.545 1502.75 552.441 1501.35 552.441C1498.01 552.441 1495.02 553.142 1492.4 554.544C1489.8 555.917 1487.74 557.826 1486.22 560.273C1484.73 562.69 1483.98 565.45 1483.98 568.553V612.055H1473.42ZM1546.15 613.487C1539.94 613.487 1534.5 612.01 1529.81 609.056C1525.16 606.102 1521.52 601.97 1518.89 596.659C1516.3 591.348 1515 585.142 1515 578.041C1515 570.88 1516.3 564.629 1518.89 559.288C1521.52 553.947 1525.16 549.8 1529.81 546.846C1534.5 543.892 1539.94 542.415 1546.15 542.415C1552.36 542.415 1557.79 543.892 1562.44 546.846C1567.12 549.8 1570.76 553.947 1573.36 559.288C1575.99 564.629 1577.3 570.88 1577.3 578.041C1577.3 585.142 1575.99 591.348 1573.36 596.659C1570.76 601.97 1567.12 606.102 1562.44 609.056C1557.79 612.01 1552.36 613.487 1546.15 613.487ZM1546.15 603.999C1550.86 603.999 1554.74 602.79 1557.79 600.374C1560.83 597.957 1563.08 594.779 1564.54 590.841C1566.01 586.902 1566.74 582.636 1566.74 578.041C1566.74 573.446 1566.01 569.164 1564.54 565.196C1563.08 561.228 1560.83 558.02 1557.79 555.574C1554.74 553.127 1550.86 551.904 1546.15 551.904C1541.43 551.904 1537.56 553.127 1534.51 555.574C1531.47 558.02 1529.22 561.228 1527.75 565.196C1526.29 569.164 1525.56 573.446 1525.56 578.041C1525.56 582.636 1526.29 586.902 1527.75 590.841C1529.22 594.779 1531.47 597.957 1534.51 600.374C1537.56 602.79 1541.43 603.999 1546.15 603.999ZM1636.74 583.948V543.311H1647.31V612.055H1636.74V600.418H1636.03C1634.42 603.909 1631.91 606.878 1628.51 609.325C1625.11 611.741 1620.81 612.95 1615.62 612.95C1611.32 612.95 1607.5 612.01 1604.16 610.13C1600.82 608.221 1598.2 605.356 1596.29 601.537C1594.38 597.688 1593.42 592.84 1593.42 586.992V543.311H1603.98V586.276C1603.98 591.288 1605.39 595.286 1608.19 598.27C1611.03 601.254 1614.64 602.746 1619.02 602.746C1621.65 602.746 1624.32 602.074 1627.03 600.732C1629.78 599.389 1632.08 597.33 1633.93 594.555C1635.81 591.781 1636.74 588.245 1636.74 583.948ZM1694.4 639.266C1689.3 639.266 1684.91 638.609 1681.24 637.297C1677.57 636.014 1674.51 634.313 1672.07 632.195C1669.65 630.106 1667.73 627.868 1666.29 625.481L1674.71 619.574C1675.66 620.827 1676.87 622.259 1678.33 623.87C1679.8 625.511 1681.79 626.928 1684.33 628.122C1686.9 629.345 1690.25 629.957 1694.4 629.957C1699.95 629.957 1704.53 628.614 1708.14 625.929C1711.75 623.244 1713.56 619.037 1713.56 613.308V599.344H1712.66C1711.89 600.597 1710.78 602.149 1709.35 603.999C1707.95 605.819 1705.92 607.445 1703.26 608.877C1700.64 610.279 1697.09 610.981 1692.61 610.981C1687.06 610.981 1682.08 609.668 1677.66 607.042C1673.28 604.416 1669.8 600.597 1667.23 595.585C1664.7 590.572 1663.43 584.485 1663.43 577.325C1663.43 570.283 1664.67 564.152 1667.14 558.93C1669.62 553.679 1673.07 549.621 1677.48 546.757C1681.9 543.863 1687 542.415 1692.79 542.415C1697.27 542.415 1700.82 543.161 1703.44 544.653C1706.1 546.115 1708.13 547.786 1709.53 549.666C1710.96 551.516 1712.06 553.037 1712.84 554.231H1713.91V543.311H1724.12V614.024C1724.12 619.932 1722.78 624.735 1720.09 628.435C1717.43 632.165 1713.85 634.895 1709.35 636.625C1704.87 638.386 1699.89 639.266 1694.4 639.266ZM1694.04 601.492C1698.28 601.492 1701.86 600.523 1704.78 598.583C1707.71 596.644 1709.93 593.854 1711.45 590.214C1712.97 586.574 1713.74 582.218 1713.74 577.146C1713.74 572.193 1712.99 567.822 1711.5 564.032C1710.01 560.243 1707.8 557.274 1704.87 555.126C1701.95 552.978 1698.34 551.904 1694.04 551.904C1689.57 551.904 1685.84 553.037 1682.85 555.305C1679.9 557.573 1677.68 560.616 1676.19 564.435C1674.72 568.254 1673.99 572.491 1673.99 577.146C1673.99 581.919 1674.74 586.141 1676.23 589.811C1677.75 593.451 1679.99 596.316 1682.94 598.404C1685.93 600.463 1689.63 601.492 1694.04 601.492ZM1754.01 570.701V612.055H1743.45V520.396H1754.01V554.052H1754.91C1756.52 550.501 1758.94 547.682 1762.16 545.593C1765.41 543.475 1769.74 542.415 1775.14 542.415C1779.82 542.415 1783.93 543.355 1787.45 545.235C1790.97 547.085 1793.7 549.934 1795.64 553.783C1797.61 557.602 1798.59 562.466 1798.59 568.374V612.055H1788.03V569.09C1788.03 563.629 1786.61 559.408 1783.78 556.424C1780.97 553.41 1777.08 551.904 1772.1 551.904C1768.63 551.904 1765.53 552.635 1762.79 554.097C1760.07 555.559 1757.92 557.692 1756.34 560.497C1754.79 563.301 1754.01 566.703 1754.01 570.701ZM1928.55 549.039H1917.45C1916.79 545.847 1915.64 543.042 1914 540.625C1912.39 538.208 1910.42 536.18 1908.1 534.539C1905.8 532.868 1903.25 531.615 1900.44 530.779C1897.64 529.944 1894.71 529.526 1891.67 529.526C1886.12 529.526 1881.09 530.928 1876.59 533.733C1872.11 536.538 1868.55 540.67 1865.89 546.13C1863.27 551.59 1861.95 558.289 1861.95 566.225C1861.95 574.162 1863.27 580.86 1865.89 586.32C1868.55 591.781 1872.11 595.913 1876.59 598.718C1881.09 601.522 1886.12 602.925 1891.67 602.925C1894.71 602.925 1897.64 602.507 1900.44 601.671C1903.25 600.836 1905.8 599.598 1908.1 597.957C1910.42 596.286 1912.39 594.242 1914 591.825C1915.64 589.379 1916.79 586.574 1917.45 583.411H1928.55C1927.71 588.096 1926.19 592.288 1923.98 595.988C1921.78 599.687 1919.03 602.835 1915.75 605.431C1912.47 607.997 1908.78 609.951 1904.69 611.294C1900.64 612.637 1896.3 613.308 1891.67 613.308C1883.85 613.308 1876.9 611.398 1870.81 607.579C1864.73 603.76 1859.94 598.33 1856.45 591.288C1852.96 584.247 1851.21 575.892 1851.21 566.225C1851.21 556.558 1852.96 548.204 1856.45 541.162C1859.94 534.121 1864.73 528.691 1870.81 524.871C1876.9 521.052 1883.85 519.143 1891.67 519.143C1896.3 519.143 1900.64 519.814 1904.69 521.157C1908.78 522.499 1912.47 524.469 1915.75 527.064C1919.03 529.63 1921.78 532.763 1923.98 536.463C1926.19 540.133 1927.71 544.325 1928.55 549.039ZM1955.62 570.701V612.055H1945.05V520.396H1955.62V554.052H1956.51C1958.12 550.501 1960.54 547.682 1963.76 545.593C1967.01 543.475 1971.34 542.415 1976.74 542.415C1981.42 542.415 1985.53 543.355 1989.05 545.235C1992.57 547.085 1995.3 549.934 1997.24 553.783C1999.21 557.602 2000.19 562.466 2000.19 568.374V612.055H1989.63V569.09C1989.63 563.629 1988.21 559.408 1985.38 556.424C1982.57 553.41 1978.68 551.904 1973.7 551.904C1970.24 551.904 1967.13 552.635 1964.39 554.097C1961.67 555.559 1959.52 557.692 1957.94 560.497C1956.39 563.301 1955.62 566.703 1955.62 570.701ZM2019.51 612.055V543.311H2029.72V553.694H2030.43C2031.69 550.292 2033.96 547.533 2037.24 545.414C2040.52 543.296 2044.22 542.236 2048.34 542.236C2049.11 542.236 2050.08 542.251 2051.25 542.281C2052.41 542.311 2053.29 542.356 2053.89 542.415V553.157C2053.53 553.067 2052.71 552.933 2051.42 552.754C2050.17 552.545 2048.84 552.441 2047.44 552.441C2044.1 552.441 2041.12 553.142 2038.49 554.544C2035.89 555.917 2033.84 557.826 2032.31 560.273C2030.82 562.69 2030.08 565.45 2030.08 568.553V612.055H2019.51ZM2066.41 612.055V543.311H2076.97V612.055H2066.41ZM2071.78 531.853C2069.72 531.853 2067.94 531.152 2066.45 529.75C2064.99 528.347 2064.26 526.662 2064.26 524.692C2064.26 522.723 2064.99 521.037 2066.45 519.635C2067.94 518.233 2069.72 517.532 2071.78 517.532C2073.84 517.532 2075.6 518.233 2077.06 519.635C2078.55 521.037 2079.3 522.723 2079.3 524.692C2079.3 526.662 2078.55 528.347 2077.06 529.75C2075.6 531.152 2073.84 531.853 2071.78 531.853ZM2145.01 558.706L2135.52 561.392C2134.92 559.81 2134.04 558.274 2132.88 556.782C2131.75 555.26 2130.19 554.007 2128.22 553.022C2126.26 552.038 2123.73 551.546 2120.66 551.546C2116.45 551.546 2112.95 552.515 2110.14 554.455C2107.37 556.364 2105.98 558.796 2105.98 561.75C2105.98 564.375 2106.94 566.449 2108.85 567.971C2110.76 569.492 2113.74 570.76 2117.8 571.775L2128 574.281C2134.15 575.773 2138.73 578.056 2141.74 581.129C2144.75 584.172 2146.26 588.096 2146.26 592.899C2146.26 596.838 2145.13 600.359 2142.86 603.462C2140.62 606.565 2137.49 609.011 2133.46 610.802C2129.43 612.592 2124.75 613.487 2119.41 613.487C2112.4 613.487 2106.59 611.965 2102 608.922C2097.4 605.878 2094.49 601.433 2093.27 595.585L2103.3 593.078C2104.25 596.778 2106.06 599.553 2108.71 601.403C2111.4 603.253 2114.9 604.178 2119.23 604.178C2124.15 604.178 2128.06 603.133 2130.95 601.045C2133.88 598.926 2135.34 596.39 2135.34 593.436C2135.34 591.05 2134.51 589.05 2132.83 587.439C2131.16 585.798 2128.6 584.575 2125.14 583.769L2113.68 581.084C2107.38 579.592 2102.76 577.28 2099.81 574.147C2096.88 570.984 2095.42 567.031 2095.42 562.287C2095.42 558.408 2096.51 554.977 2098.69 551.993C2100.89 549.009 2103.89 546.667 2107.68 544.967C2111.5 543.266 2115.83 542.415 2120.66 542.415C2127.46 542.415 2132.8 543.907 2136.68 546.891C2140.59 549.875 2143.37 553.813 2145.01 558.706ZM2192.06 543.311V552.262H2156.43V543.311H2192.06ZM2166.82 526.841H2177.38V592.362C2177.38 595.346 2177.81 597.584 2178.68 599.076C2179.57 600.538 2180.7 601.522 2182.08 602.03C2183.48 602.507 2184.96 602.746 2186.51 602.746C2187.67 602.746 2188.63 602.686 2189.37 602.567C2190.12 602.417 2190.71 602.298 2191.16 602.209L2193.31 611.697C2192.59 611.965 2191.59 612.234 2190.31 612.502C2189.03 612.801 2187.4 612.95 2185.43 612.95C2182.45 612.95 2179.53 612.308 2176.66 611.025C2173.83 609.742 2171.47 607.788 2169.59 605.162C2167.74 602.537 2166.82 599.225 2166.82 595.227V526.841ZM289.242 765.055L268.297 696.311H279.396L294.255 748.943H294.971L309.65 696.311H320.929L335.429 748.764H336.145L351.004 696.311H362.104L341.158 765.055H330.775L315.737 712.243H314.663L299.625 765.055H289.242ZM386.629 723.701V765.055H376.067V673.396H386.629V707.052H387.525C389.136 703.501 391.553 700.682 394.775 698.593C398.027 696.475 402.353 695.415 407.754 695.415C412.438 695.415 416.541 696.355 420.062 698.235C423.582 700.085 426.312 702.934 428.252 706.783C430.221 710.602 431.206 715.466 431.206 721.374V765.055H420.643V722.09C420.643 716.629 419.226 712.408 416.392 709.424C413.587 706.41 409.693 704.904 404.711 704.904C401.25 704.904 398.146 705.635 395.401 707.097C392.686 708.559 390.538 710.692 388.957 713.497C387.405 716.301 386.629 719.703 386.629 723.701ZM478.456 766.487C472.25 766.487 466.805 765.01 462.12 762.056C457.466 759.102 453.826 754.97 451.2 749.659C448.604 744.348 447.306 738.142 447.306 731.041C447.306 723.88 448.604 717.629 451.2 712.288C453.826 706.947 457.466 702.8 462.12 699.846C466.805 696.892 472.25 695.415 478.456 695.415C484.662 695.415 490.092 696.892 494.747 699.846C499.431 702.8 503.071 706.947 505.667 712.288C508.293 717.629 509.606 723.88 509.606 731.041C509.606 738.142 508.293 744.348 505.667 749.659C503.071 754.97 499.431 759.102 494.747 762.056C490.092 765.01 484.662 766.487 478.456 766.487ZM478.456 756.999C483.17 756.999 487.049 755.79 490.092 753.374C493.136 750.957 495.388 747.779 496.85 743.841C498.313 739.902 499.044 735.636 499.044 731.041C499.044 726.446 498.313 722.164 496.85 718.196C495.388 714.228 493.136 711.02 490.092 708.574C487.049 706.127 483.17 704.904 478.456 704.904C473.742 704.904 469.863 706.127 466.82 708.574C463.776 711.02 461.524 714.228 460.062 718.196C458.6 722.164 457.869 726.446 457.869 731.041C457.869 735.636 458.6 739.902 460.062 743.841C461.524 747.779 463.776 750.957 466.82 753.374C469.863 755.79 473.742 756.999 478.456 756.999ZM609.869 711.706L600.381 714.392C599.784 712.81 598.904 711.274 597.74 709.782C596.606 708.26 595.055 707.007 593.086 706.022C591.116 705.038 588.595 704.546 585.522 704.546C581.315 704.546 577.809 705.515 575.004 707.455C572.23 709.364 570.842 711.796 570.842 714.75C570.842 717.375 571.797 719.449 573.706 720.971C575.616 722.492 578.6 723.76 582.658 724.775L592.862 727.281C599.008 728.773 603.588 731.056 606.602 734.129C609.615 737.172 611.122 741.096 611.122 745.899C611.122 749.838 609.988 753.359 607.72 756.462C605.483 759.565 602.35 762.011 598.322 763.802C594.294 765.592 589.61 766.487 584.269 766.487C577.257 766.487 571.454 764.965 566.859 761.922C562.264 758.878 559.355 754.433 558.132 748.585L568.157 746.078C569.112 749.778 570.917 752.553 573.572 754.403C576.258 756.253 579.763 757.178 584.09 757.178C589.013 757.178 592.921 756.133 595.816 754.045C598.74 751.926 600.202 749.39 600.202 746.436C600.202 744.05 599.366 742.05 597.695 740.439C596.024 738.798 593.458 737.575 589.997 736.769L578.54 734.084C572.244 732.592 567.62 730.28 564.666 727.147C561.742 723.984 560.28 720.031 560.28 715.287C560.28 711.408 561.369 707.977 563.547 704.993C565.755 702.009 568.754 699.667 572.543 697.967C576.362 696.266 580.688 695.415 585.522 695.415C592.325 695.415 597.665 696.907 601.544 699.891C605.453 702.875 608.228 706.813 609.869 711.706ZM656.918 696.311V705.262H621.293V696.311H656.918ZM631.676 679.841H642.238V745.362C642.238 748.346 642.671 750.584 643.536 752.076C644.431 753.538 645.565 754.522 646.937 755.03C648.34 755.507 649.817 755.746 651.368 755.746C652.532 755.746 653.486 755.686 654.232 755.567C654.978 755.417 655.575 755.298 656.023 755.209L658.171 764.697C657.455 764.965 656.455 765.234 655.172 765.502C653.889 765.801 652.263 765.95 650.294 765.95C647.31 765.95 644.386 765.308 641.522 764.025C638.687 762.742 636.33 760.788 634.451 758.162C632.601 755.537 631.676 752.225 631.676 748.227V679.841ZM672.806 765.055V696.311H683.01V706.694H683.726C684.979 703.292 687.247 700.533 690.529 698.414C693.811 696.296 697.511 695.236 701.628 695.236C702.404 695.236 703.374 695.251 704.537 695.281C705.701 695.311 706.581 695.356 707.178 695.415V706.157C706.82 706.067 705.999 705.933 704.716 705.754C703.463 705.545 702.135 705.441 700.733 705.441C697.391 705.441 694.408 706.142 691.782 707.544C689.186 708.917 687.128 710.826 685.606 713.273C684.114 715.69 683.368 718.45 683.368 721.553V765.055H672.806ZM746.428 766.487C739.804 766.487 734.091 765.025 729.287 762.101C724.513 759.147 720.828 755.03 718.232 749.748C715.666 744.437 714.383 738.261 714.383 731.22C714.383 724.178 715.666 717.972 718.232 712.602C720.828 707.201 724.438 702.994 729.063 699.981C733.718 696.937 739.148 695.415 745.354 695.415C748.935 695.415 752.47 696.012 755.961 697.206C759.452 698.399 762.63 700.339 765.494 703.024C768.358 705.679 770.641 709.2 772.342 713.586C774.042 717.972 774.893 723.373 774.893 729.788V734.263H721.902V725.133H764.151C764.151 721.254 763.376 717.793 761.824 714.75C760.302 711.706 758.124 709.305 755.29 707.544C752.485 705.784 749.173 704.904 745.354 704.904C741.147 704.904 737.507 705.948 734.434 708.036C731.39 710.095 729.048 712.781 727.407 716.092C725.766 719.404 724.946 722.955 724.946 726.744V732.831C724.946 738.023 725.841 742.423 727.631 746.034C729.451 749.614 731.972 752.344 735.195 754.224C738.417 756.074 742.162 756.999 746.428 756.999C749.203 756.999 751.709 756.611 753.947 755.835C756.215 755.03 758.169 753.836 759.81 752.255C761.451 750.643 762.719 748.644 763.614 746.257L773.818 749.122C772.744 752.583 770.939 755.626 768.403 758.252C765.867 760.848 762.734 762.877 759.004 764.339C755.275 765.771 751.083 766.487 746.428 766.487ZM801.522 723.701V765.055H790.96V696.311H801.164V707.052H802.059C803.67 703.561 806.117 700.756 809.399 698.638C812.681 696.49 816.918 695.415 822.109 695.415C826.764 695.415 830.837 696.37 834.328 698.28C837.819 700.16 840.534 703.024 842.473 706.873C844.412 710.692 845.382 715.526 845.382 721.374V765.055H834.82V722.09C834.82 716.689 833.418 712.482 830.613 709.469C827.808 706.425 823.959 704.904 819.066 704.904C815.694 704.904 812.681 705.635 810.025 707.097C807.4 708.559 805.326 710.692 803.805 713.497C802.283 716.301 801.522 719.703 801.522 723.701ZM892.431 792.266C887.329 792.266 882.943 791.609 879.273 790.297C875.603 789.014 872.545 787.313 870.098 785.195C867.681 783.106 865.757 780.868 864.325 778.481L872.739 772.574C873.694 773.827 874.902 775.259 876.364 776.87C877.826 778.511 879.825 779.928 882.361 781.122C884.927 782.345 888.284 782.957 892.431 782.957C897.981 782.957 902.561 781.614 906.171 778.929C909.781 776.244 911.586 772.037 911.586 766.308V752.344H910.691C909.916 753.597 908.812 755.149 907.379 756.999C905.977 758.819 903.948 760.445 901.293 761.877C898.667 763.279 895.116 763.981 890.641 763.981C885.091 763.981 880.109 762.668 875.693 760.042C871.307 757.416 867.831 753.597 865.265 748.585C862.729 743.572 861.461 737.485 861.461 730.325C861.461 723.283 862.699 717.152 865.175 711.93C867.652 706.679 871.098 702.621 875.514 699.757C879.93 696.863 885.032 695.415 890.82 695.415C895.295 695.415 898.846 696.161 901.472 697.653C904.127 699.115 906.156 700.786 907.558 702.666C908.991 704.516 910.095 706.037 910.87 707.231H911.944V696.311H922.149V767.024C922.149 772.932 920.806 777.735 918.121 781.435C915.465 785.165 911.885 787.895 907.379 789.625C902.904 791.386 897.921 792.266 892.431 792.266ZM892.073 754.492C896.31 754.492 899.89 753.523 902.814 751.583C905.738 749.644 907.961 746.854 909.483 743.214C911.005 739.574 911.765 735.218 911.765 730.146C911.765 725.193 911.02 720.822 909.528 717.032C908.036 713.243 905.828 710.274 902.904 708.126C899.98 705.978 896.37 704.904 892.073 704.904C887.598 704.904 883.868 706.037 880.884 708.305C877.93 710.573 875.708 713.616 874.216 717.435C872.754 721.254 872.023 725.491 872.023 730.146C872.023 734.919 872.769 739.141 874.261 742.811C875.782 746.451 878.02 749.316 880.974 751.404C883.957 753.463 887.657 754.492 892.073 754.492ZM971.379 696.311V705.262H935.754V696.311H971.379ZM946.137 679.841H956.7V745.362C956.7 748.346 957.132 750.584 957.998 752.076C958.893 753.538 960.027 754.522 961.399 755.03C962.801 755.507 964.278 755.746 965.83 755.746C966.993 755.746 967.948 755.686 968.694 755.567C969.44 755.417 970.037 755.298 970.484 755.209L972.633 764.697C971.917 764.965 970.917 765.234 969.634 765.502C968.351 765.801 966.725 765.95 964.756 765.95C961.772 765.95 958.848 765.308 955.984 764.025C953.149 762.742 950.792 760.788 948.912 758.162C947.062 755.537 946.137 752.225 946.137 748.227V679.841ZM999.307 723.701V765.055H988.744V673.396H999.307V707.052H1000.2C1001.81 703.501 1004.23 700.682 1007.45 698.593C1010.7 696.475 1015.03 695.415 1020.43 695.415C1025.12 695.415 1029.22 696.355 1032.74 698.235C1036.26 700.085 1038.99 702.934 1040.93 706.783C1042.9 710.602 1043.88 715.466 1043.88 721.374V765.055H1033.32V722.09C1033.32 716.629 1031.9 712.408 1029.07 709.424C1026.26 706.41 1022.37 704.904 1017.39 704.904C1013.93 704.904 1010.82 705.635 1008.08 707.097C1005.36 708.559 1003.22 710.692 1001.63 713.497C1000.08 716.301 999.307 719.703 999.307 723.701ZM1092.03 766.487C1085.4 766.487 1079.69 765.025 1074.89 762.101C1070.11 759.147 1066.43 755.03 1063.83 749.748C1061.27 744.437 1059.98 738.261 1059.98 731.22C1059.98 724.178 1061.27 717.972 1063.83 712.602C1066.43 707.201 1070.04 702.994 1074.66 699.981C1079.32 696.937 1084.75 695.415 1090.95 695.415C1094.53 695.415 1098.07 696.012 1101.56 697.206C1105.05 698.399 1108.23 700.339 1111.09 703.024C1113.96 705.679 1116.24 709.2 1117.94 713.586C1119.64 717.972 1120.49 723.373 1120.49 729.788V734.263H1067.5V725.133H1109.75C1109.75 721.254 1108.98 717.793 1107.42 714.75C1105.9 711.706 1103.72 709.305 1100.89 707.544C1098.09 705.784 1094.77 704.904 1090.95 704.904C1086.75 704.904 1083.11 705.948 1080.03 708.036C1076.99 710.095 1074.65 712.781 1073.01 716.092C1071.37 719.404 1070.55 722.955 1070.55 726.744V732.831C1070.55 738.023 1071.44 742.423 1073.23 746.034C1075.05 749.614 1077.57 752.344 1080.79 754.224C1084.02 756.074 1087.76 756.999 1092.03 756.999C1094.8 756.999 1097.31 756.611 1099.55 755.835C1101.81 755.03 1103.77 753.836 1105.41 752.255C1107.05 750.643 1108.32 748.644 1109.21 746.257L1119.42 749.122C1118.34 752.583 1116.54 755.626 1114 758.252C1111.47 760.848 1108.33 762.877 1104.6 764.339C1100.88 765.771 1096.68 766.487 1092.03 766.487ZM1147.12 723.701V765.055H1136.56V696.311H1146.76V707.052H1147.66C1149.27 703.561 1151.72 700.756 1155 698.638C1158.28 696.49 1162.52 695.415 1167.71 695.415C1172.36 695.415 1176.44 696.37 1179.93 698.28C1183.42 700.16 1186.13 703.024 1188.07 706.873C1190.01 710.692 1190.98 715.526 1190.98 721.374V765.055H1180.42V722.09C1180.42 716.689 1179.02 712.482 1176.21 709.469C1173.41 706.425 1169.56 704.904 1164.67 704.904C1161.29 704.904 1158.28 705.635 1155.63 707.097C1153 708.559 1150.93 710.692 1149.4 713.497C1147.88 716.301 1147.12 719.703 1147.12 723.701ZM1258.98 711.706L1249.49 714.392C1248.89 712.81 1248.01 711.274 1246.85 709.782C1245.71 708.26 1244.16 707.007 1242.19 706.022C1240.22 705.038 1237.7 704.546 1234.63 704.546C1230.42 704.546 1226.92 705.515 1224.11 707.455C1221.34 709.364 1219.95 711.796 1219.95 714.75C1219.95 717.375 1220.91 719.449 1222.81 720.971C1224.72 722.492 1227.71 723.76 1231.77 724.775L1241.97 727.281C1248.12 728.773 1252.7 731.056 1255.71 734.129C1258.72 737.172 1260.23 741.096 1260.23 745.899C1260.23 749.838 1259.1 753.359 1256.83 756.462C1254.59 759.565 1251.46 762.011 1247.43 763.802C1243.4 765.592 1238.72 766.487 1233.38 766.487C1226.37 766.487 1220.56 764.965 1215.97 761.922C1211.37 758.878 1208.46 754.433 1207.24 748.585L1217.26 746.078C1218.22 749.778 1220.02 752.553 1222.68 754.403C1225.37 756.253 1228.87 757.178 1233.2 757.178C1238.12 757.178 1242.03 756.133 1244.92 754.045C1247.85 751.926 1249.31 749.39 1249.31 746.436C1249.31 744.05 1248.47 742.05 1246.8 740.439C1245.13 738.798 1242.57 737.575 1239.11 736.769L1227.65 734.084C1221.35 732.592 1216.73 730.28 1213.77 727.147C1210.85 723.984 1209.39 720.031 1209.39 715.287C1209.39 711.408 1210.48 707.977 1212.66 704.993C1214.86 702.009 1217.86 699.667 1221.65 697.967C1225.47 696.266 1229.8 695.415 1234.63 695.415C1241.43 695.415 1246.77 696.907 1250.65 699.891C1254.56 702.875 1257.34 706.813 1258.98 711.706ZM1311.58 765.055V696.311H1321.78V707.052H1322.67C1324.11 703.382 1326.42 700.533 1329.61 698.504C1332.8 696.445 1336.64 695.415 1341.11 695.415C1345.65 695.415 1349.42 696.445 1352.44 698.504C1355.48 700.533 1357.85 703.382 1359.55 707.052H1360.27C1362.03 703.501 1364.67 700.682 1368.19 698.593C1371.71 696.475 1375.93 695.415 1380.86 695.415C1387 695.415 1392.03 697.34 1395.94 701.189C1399.85 705.008 1401.8 710.96 1401.8 719.046V765.055H1391.24V719.046C1391.24 713.974 1389.85 710.349 1387.08 708.171C1384.3 705.993 1381.04 704.904 1377.28 704.904C1372.44 704.904 1368.7 706.366 1366.04 709.29C1363.39 712.184 1362.06 715.854 1362.06 720.299V765.055H1351.32V717.972C1351.32 714.064 1350.05 710.916 1347.51 708.529C1344.98 706.112 1341.71 704.904 1337.71 704.904C1334.97 704.904 1332.4 705.635 1330.01 707.097C1327.66 708.559 1325.75 710.588 1324.29 713.183C1322.85 715.749 1322.14 718.718 1322.14 722.09V765.055H1311.58ZM1449.94 766.487C1443.31 766.487 1437.6 765.025 1432.8 762.101C1428.02 759.147 1424.34 755.03 1421.74 749.748C1419.17 744.437 1417.89 738.261 1417.89 731.22C1417.89 724.178 1419.17 717.972 1421.74 712.602C1424.34 707.201 1427.95 702.994 1432.57 699.981C1437.23 696.937 1442.66 695.415 1448.86 695.415C1452.44 695.415 1455.98 696.012 1459.47 697.206C1462.96 698.399 1466.14 700.339 1469 703.024C1471.87 705.679 1474.15 709.2 1475.85 713.586C1477.55 717.972 1478.4 723.373 1478.4 729.788V734.263H1425.41V725.133H1467.66C1467.66 721.254 1466.88 717.793 1465.33 714.75C1463.81 711.706 1461.63 709.305 1458.8 707.544C1455.99 705.784 1452.68 704.904 1448.86 704.904C1444.66 704.904 1441.02 705.948 1437.94 708.036C1434.9 710.095 1432.56 712.781 1430.92 716.092C1429.27 719.404 1428.45 722.955 1428.45 726.744V732.831C1428.45 738.023 1429.35 742.423 1431.14 746.034C1432.96 749.614 1435.48 752.344 1438.7 754.224C1441.93 756.074 1445.67 756.999 1449.94 756.999C1452.71 756.999 1455.22 756.611 1457.46 755.835C1459.72 755.03 1461.68 753.836 1463.32 752.255C1464.96 750.643 1466.23 748.644 1467.12 746.257L1477.33 749.122C1476.25 752.583 1474.45 755.626 1471.91 758.252C1469.38 760.848 1466.24 762.877 1462.51 764.339C1458.78 765.771 1454.59 766.487 1449.94 766.487Z" fill="black"/>
<path d="M271.153 419V336.698H303.624C309.866 336.698 315.184 337.89 319.578 340.275C323.972 342.632 327.321 345.914 329.625 350.12C331.955 354.3 333.121 359.122 333.121 364.587C333.121 370.053 331.942 374.875 329.584 379.055C327.227 383.234 323.811 386.489 319.337 388.82C314.89 391.151 309.505 392.316 303.182 392.316H282.486V378.371H300.369C303.718 378.371 306.477 377.795 308.647 376.643C310.844 375.465 312.478 373.844 313.55 371.781C314.648 369.691 315.198 367.293 315.198 364.587C315.198 361.855 314.648 359.47 313.55 357.434C312.478 355.371 310.844 353.777 308.647 352.652C306.45 351.5 303.664 350.924 300.288 350.924H288.554V419H271.153ZM361.221 383.314V419H344.102V336.698H360.739V368.164H361.462C362.856 364.52 365.106 361.667 368.214 359.604C371.322 357.515 375.22 356.47 379.908 356.47C384.195 356.47 387.932 357.407 391.12 359.283C394.335 361.131 396.827 363.797 398.595 367.28C400.39 370.736 401.274 374.875 401.247 379.698V419H384.128V382.752C384.154 378.947 383.19 375.987 381.234 373.871C379.305 371.754 376.599 370.696 373.117 370.696C370.786 370.696 368.723 371.191 366.928 372.183C365.16 373.174 363.766 374.621 362.748 376.523C361.757 378.398 361.248 380.662 361.221 383.314ZM414.72 419V357.273H431.839V419H414.72ZM423.32 349.317C420.774 349.317 418.591 348.473 416.769 346.785C414.974 345.07 414.077 343.021 414.077 340.636C414.077 338.279 414.974 336.256 416.769 334.568C418.591 332.853 420.774 331.996 423.32 331.996C425.865 331.996 428.035 332.853 429.83 334.568C431.652 336.256 432.562 338.279 432.562 340.636C432.562 343.021 431.652 345.07 429.83 346.785C428.035 348.473 425.865 349.317 423.32 349.317ZM462.672 336.698V419H445.553V336.698H462.672ZM476.386 419V357.273H493.505V419H476.386ZM484.986 349.317C482.441 349.317 480.257 348.473 478.435 346.785C476.64 345.07 475.743 343.021 475.743 340.636C475.743 338.279 476.64 336.256 478.435 334.568C480.257 332.853 482.441 331.996 484.986 331.996C487.531 331.996 489.701 332.853 491.496 334.568C493.318 336.256 494.229 338.279 494.229 340.636C494.229 343.021 493.318 345.07 491.496 346.785C489.701 348.473 487.531 349.317 484.986 349.317ZM507.219 442.147V357.273H524.097V367.642H524.861C525.611 365.981 526.696 364.293 528.116 362.578C529.563 360.837 531.438 359.39 533.742 358.238C536.073 357.059 538.966 356.47 542.422 356.47C546.923 356.47 551.076 357.649 554.88 360.006C558.685 362.337 561.725 365.86 564.003 370.575C566.28 375.264 567.418 381.144 567.418 388.217C567.418 395.102 566.307 400.916 564.083 405.658C561.886 410.373 558.886 413.95 555.081 416.388C551.304 418.799 547.071 420.005 542.382 420.005C539.06 420.005 536.234 419.455 533.903 418.357C531.599 417.259 529.71 415.879 528.237 414.218C526.763 412.53 525.638 410.829 524.861 409.114H524.339V442.147H507.219ZM523.977 388.137C523.977 391.807 524.486 395.009 525.504 397.741C526.522 400.474 527.995 402.604 529.924 404.131C531.853 405.631 534.198 406.381 536.957 406.381C539.743 406.381 542.101 405.618 544.03 404.091C545.959 402.537 547.419 400.394 548.41 397.661C549.428 394.901 549.937 391.727 549.937 388.137C549.937 384.574 549.442 381.439 548.45 378.733C547.459 376.027 545.999 373.911 544.07 372.384C542.141 370.857 539.77 370.093 536.957 370.093C534.171 370.093 531.813 370.83 529.884 372.303C527.982 373.777 526.522 375.866 525.504 378.572C524.486 381.278 523.977 384.466 523.977 388.137ZM578.831 442.147V357.273H595.71V367.642H596.473C597.224 365.981 598.309 364.293 599.728 362.578C601.175 360.837 603.051 359.39 605.355 358.238C607.685 357.059 610.579 356.47 614.035 356.47C618.536 356.47 622.688 357.649 626.493 360.006C630.297 362.337 633.338 365.86 635.615 370.575C637.892 375.264 639.031 381.144 639.031 388.217C639.031 395.102 637.919 400.916 635.695 405.658C633.499 410.373 630.498 413.95 626.694 416.388C622.916 418.799 618.683 420.005 613.995 420.005C610.673 420.005 607.846 419.455 605.515 418.357C603.211 417.259 601.323 415.879 599.849 414.218C598.376 412.53 597.25 410.829 596.473 409.114H595.951V442.147H578.831ZM595.589 388.137C595.589 391.807 596.098 395.009 597.116 397.741C598.134 400.474 599.608 402.604 601.537 404.131C603.466 405.631 605.81 406.381 608.57 406.381C611.356 406.381 613.713 405.618 615.642 404.091C617.571 402.537 619.031 400.394 620.023 397.661C621.041 394.901 621.55 391.727 621.55 388.137C621.55 384.574 621.054 381.439 620.063 378.733C619.072 376.027 617.611 373.911 615.683 372.384C613.754 370.857 611.383 370.093 608.57 370.093C605.783 370.093 603.426 370.83 601.497 372.303C599.595 373.777 598.134 375.866 597.116 378.572C596.098 381.278 595.589 384.466 595.589 388.137ZM650.444 419V357.273H667.563V419H650.444ZM659.044 349.317C656.499 349.317 654.315 348.473 652.493 346.785C650.698 345.07 649.801 343.021 649.801 340.636C649.801 338.279 650.698 336.256 652.493 334.568C654.315 332.853 656.499 331.996 659.044 331.996C661.589 331.996 663.759 332.853 665.554 334.568C667.376 336.256 668.287 338.279 668.287 340.636C668.287 343.021 667.376 345.07 665.554 346.785C663.759 348.473 661.589 349.317 659.044 349.317ZM698.879 420.165C694.94 420.165 691.431 419.482 688.35 418.116C685.269 416.723 682.831 414.673 681.036 411.967C679.268 409.235 678.384 405.832 678.384 401.76C678.384 398.331 679.013 395.451 680.272 393.12C681.532 390.789 683.246 388.914 685.416 387.494C687.586 386.074 690.051 385.002 692.811 384.279C695.597 383.555 698.517 383.046 701.571 382.752C705.161 382.377 708.055 382.028 710.252 381.707C712.448 381.359 714.042 380.85 715.034 380.18C716.025 379.51 716.521 378.519 716.521 377.206V376.965C716.521 374.42 715.717 372.451 714.109 371.057C712.529 369.664 710.278 368.968 707.358 368.968C704.277 368.968 701.826 369.651 700.004 371.017C698.182 372.357 696.977 374.045 696.387 376.081L680.554 374.795C681.357 371.044 682.938 367.802 685.296 365.07C687.653 362.31 690.694 360.194 694.418 358.72C698.169 357.22 702.509 356.47 707.438 356.47C710.868 356.47 714.15 356.872 717.284 357.675C720.446 358.479 723.245 359.725 725.683 361.413C728.148 363.101 730.09 365.271 731.51 367.923C732.93 370.548 733.64 373.696 733.64 377.367V419H717.405V410.44H716.922C715.931 412.369 714.605 414.07 712.944 415.544C711.283 416.991 709.287 418.129 706.956 418.96C704.625 419.764 701.933 420.165 698.879 420.165ZM703.781 408.351C706.3 408.351 708.524 407.855 710.452 406.864C712.381 405.846 713.895 404.479 714.994 402.765C716.092 401.05 716.641 399.108 716.641 396.938V390.387C716.105 390.735 715.369 391.057 714.431 391.352C713.52 391.62 712.489 391.874 711.337 392.115C710.185 392.33 709.033 392.53 707.881 392.718C706.729 392.879 705.684 393.026 704.746 393.16C702.737 393.455 700.982 393.924 699.482 394.567C697.981 395.21 696.816 396.08 695.985 397.179C695.155 398.25 694.74 399.59 694.74 401.197C694.74 403.528 695.583 405.31 697.271 406.542C698.986 407.748 701.156 408.351 703.781 408.351ZM764.041 383.314V419H746.922V357.273H763.237V368.164H763.961C765.327 364.574 767.618 361.734 770.833 359.644C774.048 357.528 777.946 356.47 782.527 356.47C786.814 356.47 790.551 357.407 793.739 359.283C796.927 361.158 799.405 363.837 801.174 367.32C802.942 370.776 803.826 374.902 803.826 379.698V419H786.706V382.752C786.733 378.974 785.769 376.027 783.813 373.911C781.857 371.767 779.165 370.696 775.735 370.696C773.431 370.696 771.395 371.191 769.627 372.183C767.886 373.174 766.519 374.621 765.528 376.523C764.564 378.398 764.068 380.662 764.041 383.314ZM868.677 374.875L853.004 375.84C852.736 374.5 852.16 373.294 851.276 372.223C850.392 371.124 849.227 370.254 847.78 369.611C846.36 368.941 844.659 368.606 842.676 368.606C840.024 368.606 837.787 369.169 835.965 370.294C834.143 371.392 833.232 372.866 833.232 374.714C833.232 376.188 833.822 377.434 835.001 378.452C836.179 379.47 838.202 380.287 841.069 380.903L852.241 383.154C858.242 384.386 862.716 386.369 865.663 389.101C868.61 391.834 870.083 395.424 870.083 399.871C870.083 403.917 868.891 407.466 866.507 410.521C864.149 413.575 860.908 415.959 856.782 417.674C852.683 419.362 847.954 420.206 842.596 420.206C834.425 420.206 827.914 418.504 823.065 415.102C818.243 411.673 815.416 407.011 814.586 401.117L831.424 400.233C831.933 402.724 833.165 404.627 835.121 405.939C837.077 407.225 839.582 407.868 842.636 407.868C845.637 407.868 848.048 407.292 849.87 406.14C851.718 404.961 852.656 403.448 852.683 401.599C852.656 400.045 852 398.773 850.714 397.782C849.428 396.763 847.445 395.987 844.766 395.451L834.076 393.321C828.048 392.115 823.561 390.025 820.614 387.052C817.694 384.078 816.233 380.287 816.233 375.679C816.233 371.714 817.305 368.298 819.448 365.431C821.618 362.565 824.659 360.354 828.571 358.801C832.509 357.247 837.117 356.47 842.395 356.47C850.191 356.47 856.326 358.117 860.8 361.413C865.301 364.708 867.927 369.195 868.677 374.875ZM905.649 404.533V390.829L940.008 336.698H951.823V355.666H944.83L923.17 389.945V390.588H971.997V404.533H905.649ZM945.152 419V400.353L945.473 394.285V336.698H961.789V419H945.152ZM993.758 409.436C991.105 409.436 988.828 408.498 986.926 406.623C985.051 404.747 984.113 402.47 984.113 399.791C984.113 397.165 985.051 394.915 986.926 393.039C988.828 391.164 991.105 390.226 993.758 390.226C996.33 390.226 998.58 391.164 1000.51 393.039C1002.44 394.915 1003.4 397.165 1003.4 399.791C1003.4 401.559 1002.95 403.18 1002.04 404.653C1001.15 406.1 999.987 407.266 998.54 408.15C997.093 409.007 995.499 409.436 993.758 409.436ZM993.758 369.048C991.105 369.048 988.828 368.11 986.926 366.235C985.051 364.36 984.113 362.082 984.113 359.403C984.113 356.778 985.051 354.541 986.926 352.692C988.828 350.817 991.105 349.879 993.758 349.879C996.33 349.879 998.58 350.817 1000.51 352.692C1002.44 354.541 1003.4 356.778 1003.4 359.403C1003.4 361.198 1002.95 362.833 1002.04 364.306C1001.15 365.753 999.987 366.905 998.54 367.762C997.093 368.619 995.499 369.048 993.758 369.048ZM1053.1 336.698V419H1035.7V353.215H1035.22L1016.37 365.029V349.598L1036.75 336.698H1053.1ZM1103.09 420.125C1097.08 420.125 1091.74 419.094 1087.05 417.031C1082.39 414.941 1078.71 412.075 1076 408.431C1073.32 404.761 1071.94 400.528 1071.86 395.732H1089.38C1089.49 397.741 1090.15 399.51 1091.35 401.037C1092.58 402.537 1094.22 403.702 1096.25 404.533C1098.29 405.363 1100.58 405.779 1103.13 405.779C1105.78 405.779 1108.12 405.31 1110.16 404.372C1112.19 403.434 1113.79 402.135 1114.94 400.474C1116.09 398.813 1116.67 396.897 1116.67 394.727C1116.67 392.53 1116.05 390.588 1114.82 388.9C1113.61 387.186 1111.87 385.846 1109.6 384.882C1107.34 383.917 1104.67 383.435 1101.56 383.435H1093.88V370.656H1101.56C1104.18 370.656 1106.5 370.2 1108.51 369.289C1110.55 368.378 1112.13 367.119 1113.25 365.512C1114.38 363.877 1114.94 361.975 1114.94 359.805C1114.94 357.742 1114.44 355.934 1113.45 354.38C1112.49 352.799 1111.12 351.567 1109.35 350.683C1107.61 349.799 1105.58 349.357 1103.25 349.357C1100.89 349.357 1098.73 349.785 1096.78 350.643C1094.82 351.473 1093.25 352.665 1092.07 354.219C1090.9 355.773 1090.27 357.595 1090.19 359.685H1073.51C1073.59 354.943 1074.94 350.763 1077.57 347.146C1080.19 343.53 1083.73 340.703 1088.18 338.667C1092.65 336.604 1097.7 335.573 1103.33 335.573C1109.01 335.573 1113.98 336.604 1118.24 338.667C1122.5 340.73 1125.8 343.516 1128.16 347.026C1130.55 350.509 1131.72 354.42 1131.7 358.76C1131.72 363.368 1130.29 367.213 1127.4 370.294C1124.53 373.375 1120.79 375.331 1116.19 376.161V376.804C1122.24 377.581 1126.85 379.684 1130.01 383.113C1133.2 386.516 1134.78 390.776 1134.75 395.893C1134.78 400.581 1133.43 404.747 1130.69 408.391C1127.99 412.034 1124.25 414.901 1119.48 416.991C1114.71 419.08 1109.25 420.125 1103.09 420.125Z" fill="black"/>
<defs>
<filter id="filter0_d_1907_2105" x="0.638607" y="0.533138" width="2656.56" height="1218.1" filterUnits="userSpaceOnUse" color-interpolation-filters="sRGB">
<feFlood flood-opacity="0" result="BackgroundImageFix"/>
<feColorMatrix in="SourceAlpha" type="matrix" values="0 0 0 0 0 0 0 0 0 0 0 0 0 0 0 0 0 0 127 0" result="hardAlpha"/>
<feOffset dx="-31.1205" dy="56.5827"/>
<feGaussianBlur stdDeviation="31.1205"/>
<feComposite in2="hardAlpha" operator="out"/>
<feColorMatrix type="matrix" values="0 0 0 0 0 0 0 0 0 0 0 0 0 0 0 0 0 0 0.25 0"/>
<feBlend mode="normal" in2="BackgroundImageFix" result="effect1_dropShadow_1907_2105"/>
<feBlend mode="normal" in="SourceGraphic" in2="effect1_dropShadow_1907_2105" result="shape"/>
</filter>
</defs>
</svg>
