<svg width="2658" height="1219" viewBox="0 0 2658 1219" fill="none" xmlns="http://www.w3.org/2000/svg">
<g filter="url(#filter0_d_1907_2125)">
<path d="M2626.07 6.19531L94 6.35763L94 1063.04L194.434 1041.82L327.403 1099.82L457.544 1041.82L541.003 1063.04L774.407 997.969L990.835 1063.04L1142.19 976.75L1326.09 1030.5L1576.47 997.969L1914.55 1063.04L2029.13 976.75L2256.87 1030.5L2374.28 1010.7L2626.07 1041.66V6.19531Z" fill="#A9A6A1"/>
</g>
<path d="M287.138 517.486V607.086H275.262V517.486H287.138ZM364.923 598.963C367.631 598.963 370.133 598.409 372.431 597.301C374.728 596.194 376.615 594.676 378.092 592.747C379.569 590.778 380.41 588.542 380.615 586.04H391.446C391.241 589.978 389.908 593.65 387.446 597.055C385.026 600.419 381.846 603.147 377.908 605.24C373.969 607.291 369.641 608.317 364.923 608.317C359.918 608.317 355.549 607.435 351.815 605.671C348.123 603.906 345.046 601.486 342.585 598.409C340.164 595.332 338.339 591.804 337.108 587.824C335.918 583.804 335.323 579.558 335.323 575.086V572.501C335.323 568.03 335.918 563.804 337.108 559.824C338.339 555.804 340.164 552.255 342.585 549.178C345.046 546.101 348.123 543.681 351.815 541.917C355.549 540.153 359.918 539.271 364.923 539.271C370.133 539.271 374.687 540.337 378.585 542.471C382.482 544.563 385.539 547.435 387.754 551.086C390.01 554.696 391.241 558.799 391.446 563.394H380.615C380.41 560.645 379.631 558.163 378.277 555.947C376.964 553.732 375.159 551.968 372.862 550.655C370.605 549.301 367.959 548.624 364.923 548.624C361.436 548.624 358.503 549.322 356.123 550.717C353.785 552.071 351.918 553.917 350.523 556.255C349.169 558.553 348.185 561.117 347.569 563.947C346.995 566.737 346.708 569.588 346.708 572.501V575.086C346.708 577.999 346.995 580.871 347.569 583.701C348.144 586.532 349.108 589.096 350.462 591.394C351.856 593.691 353.723 595.537 356.062 596.932C358.441 598.286 361.395 598.963 364.923 598.963ZM443.508 595.701V561.424C443.508 558.799 442.974 556.522 441.908 554.594C440.882 552.624 439.323 551.106 437.231 550.04C435.139 548.973 432.554 548.44 429.477 548.44C426.605 548.44 424.082 548.932 421.908 549.917C419.774 550.901 418.092 552.194 416.862 553.794C415.672 555.394 415.077 557.117 415.077 558.963H403.692C403.692 556.583 404.308 554.224 405.539 551.886C406.769 549.547 408.533 547.435 410.831 545.547C413.169 543.619 415.959 542.101 419.2 540.994C422.482 539.845 426.133 539.271 430.154 539.271C434.995 539.271 439.262 540.091 442.954 541.732C446.687 543.373 449.6 545.855 451.692 549.178C453.826 552.46 454.892 556.583 454.892 561.547V592.563C454.892 594.778 455.077 597.137 455.446 599.64C455.857 602.142 456.451 604.296 457.231 606.101V607.086H445.354C444.78 605.773 444.328 604.03 444 601.855C443.672 599.64 443.508 597.588 443.508 595.701ZM445.477 566.717L445.6 574.717H434.092C430.851 574.717 427.959 574.983 425.415 575.517C422.872 576.009 420.739 576.768 419.015 577.794C417.292 578.819 415.98 580.112 415.077 581.671C414.174 583.188 413.723 584.973 413.723 587.024C413.723 589.117 414.195 591.024 415.139 592.747C416.082 594.471 417.498 595.845 419.385 596.871C421.313 597.855 423.672 598.347 426.462 598.347C429.949 598.347 433.026 597.609 435.692 596.132C438.359 594.655 440.472 592.85 442.031 590.717C443.631 588.583 444.492 586.512 444.615 584.501L449.477 589.978C449.19 591.701 448.41 593.609 447.139 595.701C445.867 597.794 444.164 599.804 442.031 601.732C439.939 603.619 437.436 605.199 434.523 606.471C431.651 607.701 428.41 608.317 424.8 608.317C420.287 608.317 416.328 607.435 412.923 605.671C409.559 603.906 406.933 601.547 405.046 598.594C403.2 595.599 402.277 592.255 402.277 588.563C402.277 584.994 402.974 581.855 404.369 579.147C405.764 576.399 407.774 574.122 410.4 572.317C413.026 570.471 416.185 569.076 419.877 568.132C423.569 567.188 427.692 566.717 432.246 566.717H445.477ZM484.185 554.717V607.086H472.8V540.501H483.569L484.185 554.717ZM481.477 571.271L476.739 571.086C476.78 566.532 477.457 562.327 478.769 558.471C480.082 554.573 481.928 551.188 484.308 548.317C486.687 545.445 489.518 543.229 492.8 541.671C496.123 540.071 499.795 539.271 503.816 539.271C507.098 539.271 510.051 539.722 512.677 540.624C515.303 541.486 517.539 542.881 519.385 544.809C521.272 546.737 522.708 549.24 523.692 552.317C524.677 555.353 525.169 559.065 525.169 563.455V607.086H513.723V563.332C513.723 559.845 513.21 557.055 512.185 554.963C511.159 552.829 509.662 551.291 507.692 550.347C505.723 549.363 503.303 548.871 500.431 548.871C497.6 548.871 495.016 549.465 492.677 550.655C490.38 551.845 488.39 553.486 486.708 555.578C485.067 557.671 483.774 560.071 482.831 562.778C481.928 565.445 481.477 568.276 481.477 571.271ZM615.693 594.163V512.563H627.139V607.086H616.677L615.693 594.163ZM570.892 574.532V573.24C570.892 568.153 571.508 563.537 572.739 559.394C574.01 555.209 575.795 551.619 578.092 548.624C580.431 545.629 583.2 543.332 586.4 541.732C589.641 540.091 593.251 539.271 597.231 539.271C601.416 539.271 605.067 540.009 608.185 541.486C611.344 542.922 614.01 545.035 616.185 547.824C618.4 550.573 620.144 553.896 621.416 557.794C622.687 561.691 623.569 566.101 624.062 571.024V576.686C623.61 581.568 622.728 585.958 621.416 589.855C620.144 593.753 618.4 597.076 616.185 599.824C614.01 602.573 611.344 604.686 608.185 606.163C605.026 607.599 601.334 608.317 597.108 608.317C593.21 608.317 589.641 607.476 586.4 605.794C583.2 604.112 580.431 601.753 578.092 598.717C575.795 595.681 574.01 592.112 572.739 588.009C571.508 583.865 570.892 579.373 570.892 574.532ZM582.339 573.24V574.532C582.339 577.855 582.667 580.973 583.323 583.886C584.021 586.799 585.087 589.363 586.523 591.578C587.959 593.794 589.785 595.537 592 596.809C594.216 598.04 596.862 598.655 599.939 598.655C603.713 598.655 606.81 597.855 609.231 596.255C611.693 594.655 613.662 592.542 615.139 589.917C616.616 587.291 617.764 584.44 618.585 581.363V566.532C618.093 564.276 617.375 562.101 616.431 560.009C615.528 557.876 614.339 555.988 612.862 554.347C611.426 552.665 609.641 551.332 607.508 550.347C605.416 549.363 602.934 548.871 600.062 548.871C596.944 548.871 594.257 549.527 592 550.84C589.785 552.112 587.959 553.876 586.523 556.132C585.087 558.347 584.021 560.932 583.323 563.886C582.667 566.799 582.339 569.917 582.339 573.24ZM641.846 574.532V573.117C641.846 568.317 642.544 563.865 643.939 559.763C645.334 555.619 647.344 552.029 649.969 548.994C652.595 545.917 655.775 543.537 659.508 541.855C663.241 540.132 667.426 539.271 672.062 539.271C676.739 539.271 680.944 540.132 684.677 541.855C688.452 543.537 691.652 545.917 694.277 548.994C696.944 552.029 698.975 555.619 700.369 559.763C701.764 563.865 702.462 568.317 702.462 573.117V574.532C702.462 579.332 701.764 583.783 700.369 587.886C698.975 591.988 696.944 595.578 694.277 598.655C691.652 601.691 688.472 604.071 684.739 605.794C681.046 607.476 676.862 608.317 672.185 608.317C667.508 608.317 663.303 607.476 659.569 605.794C655.836 604.071 652.636 601.691 649.969 598.655C647.344 595.578 645.334 591.988 643.939 587.886C642.544 583.783 641.846 579.332 641.846 574.532ZM653.231 573.117V574.532C653.231 577.855 653.621 580.994 654.4 583.947C655.18 586.86 656.349 589.445 657.908 591.701C659.508 593.958 661.498 595.742 663.877 597.055C666.257 598.327 669.026 598.963 672.185 598.963C675.303 598.963 678.031 598.327 680.369 597.055C682.749 595.742 684.718 593.958 686.277 591.701C687.836 589.445 689.005 586.86 689.785 583.947C690.605 580.994 691.016 577.855 691.016 574.532V573.117C691.016 569.835 690.605 566.737 689.785 563.824C689.005 560.871 687.816 558.265 686.216 556.009C684.657 553.712 682.687 551.906 680.308 550.594C677.969 549.281 675.221 548.624 672.062 548.624C668.944 548.624 666.195 549.281 663.816 550.594C661.477 551.906 659.508 553.712 657.908 556.009C656.349 558.265 655.18 560.871 654.4 563.824C653.621 566.737 653.231 569.835 653.231 573.117ZM787.262 595.701V561.424C787.262 558.799 786.729 556.522 785.662 554.594C784.636 552.624 783.077 551.106 780.985 550.04C778.893 548.973 776.308 548.44 773.231 548.44C770.359 548.44 767.836 548.932 765.662 549.917C763.529 550.901 761.846 552.194 760.616 553.794C759.426 555.394 758.831 557.117 758.831 558.963H747.446C747.446 556.583 748.062 554.224 749.293 551.886C750.523 549.547 752.287 547.435 754.585 545.547C756.923 543.619 759.713 542.101 762.954 540.994C766.236 539.845 769.887 539.271 773.908 539.271C778.749 539.271 783.016 540.091 786.708 541.732C790.441 543.373 793.354 545.855 795.446 549.178C797.58 552.46 798.646 556.583 798.646 561.547V592.563C798.646 594.778 798.831 597.137 799.2 599.64C799.611 602.142 800.205 604.296 800.985 606.101V607.086H789.108C788.534 605.773 788.082 604.03 787.754 601.855C787.426 599.64 787.262 597.588 787.262 595.701ZM789.231 566.717L789.354 574.717H777.846C774.605 574.717 771.713 574.983 769.17 575.517C766.626 576.009 764.493 576.768 762.77 577.794C761.046 578.819 759.734 580.112 758.831 581.671C757.929 583.188 757.477 584.973 757.477 587.024C757.477 589.117 757.949 591.024 758.893 592.747C759.836 594.471 761.252 595.845 763.139 596.871C765.067 597.855 767.426 598.347 770.216 598.347C773.703 598.347 776.78 597.609 779.446 596.132C782.113 594.655 784.226 592.85 785.785 590.717C787.385 588.583 788.246 586.512 788.37 584.501L793.231 589.978C792.944 591.701 792.164 593.609 790.893 595.701C789.621 597.794 787.918 599.804 785.785 601.732C783.693 603.619 781.19 605.199 778.277 606.471C775.405 607.701 772.164 608.317 768.554 608.317C764.041 608.317 760.082 607.435 756.677 605.671C753.313 603.906 750.687 601.547 748.8 598.594C746.954 595.599 746.031 592.255 746.031 588.563C746.031 584.994 746.728 581.855 748.123 579.147C749.518 576.399 751.528 574.122 754.154 572.317C756.78 570.471 759.939 569.076 763.631 568.132C767.323 567.188 771.446 566.717 776 566.717H789.231ZM828.923 512.563V607.086H817.477V512.563H828.923ZM859.57 512.563V607.086H848.123V512.563H859.57ZM936.985 540.501V549.24H900.985V540.501H936.985ZM913.17 524.317H924.554V590.594C924.554 592.85 924.903 594.553 925.6 595.701C926.298 596.85 927.2 597.609 928.308 597.978C929.416 598.347 930.606 598.532 931.877 598.532C932.821 598.532 933.806 598.45 934.831 598.286C935.898 598.081 936.698 597.917 937.231 597.794L937.293 607.086C936.39 607.373 935.2 607.64 933.723 607.886C932.288 608.173 930.544 608.317 928.493 608.317C925.703 608.317 923.139 607.763 920.8 606.655C918.462 605.547 916.595 603.701 915.2 601.117C913.847 598.491 913.17 594.963 913.17 590.532V524.317ZM961.723 512.563V607.086H950.339V512.563H961.723ZM959.016 571.271L954.277 571.086C954.318 566.532 954.995 562.327 956.308 558.471C957.621 554.573 959.467 551.188 961.847 548.317C964.226 545.445 967.057 543.229 970.339 541.671C973.662 540.071 977.334 539.271 981.354 539.271C984.636 539.271 987.59 539.722 990.216 540.624C992.841 541.486 995.077 542.881 996.923 544.809C998.811 546.737 1000.25 549.24 1001.23 552.317C1002.22 555.353 1002.71 559.065 1002.71 563.455V607.086H991.262V563.332C991.262 559.845 990.749 557.055 989.723 554.963C988.698 552.829 987.2 551.291 985.231 550.347C983.262 549.363 980.841 548.871 977.97 548.871C975.139 548.871 972.554 549.465 970.216 550.655C967.918 551.845 965.929 553.486 964.247 555.578C962.606 557.671 961.313 560.071 960.37 562.778C959.467 565.445 959.016 568.276 959.016 571.271ZM1032.12 540.501V607.086H1020.68V540.501H1032.12ZM1019.82 522.84C1019.82 520.994 1020.37 519.435 1021.48 518.163C1022.63 516.891 1024.31 516.255 1026.52 516.255C1028.7 516.255 1030.36 516.891 1031.51 518.163C1032.7 519.435 1033.29 520.994 1033.29 522.84C1033.29 524.604 1032.7 526.122 1031.51 527.394C1030.36 528.624 1028.7 529.24 1026.52 529.24C1024.31 529.24 1022.63 528.624 1021.48 527.394C1020.37 526.122 1019.82 524.604 1019.82 522.84ZM1061.79 554.717V607.086H1050.4V540.501H1061.17L1061.79 554.717ZM1059.08 571.271L1054.34 571.086C1054.38 566.532 1055.06 562.327 1056.37 558.471C1057.68 554.573 1059.53 551.188 1061.91 548.317C1064.29 545.445 1067.12 543.229 1070.4 541.671C1073.72 540.071 1077.4 539.271 1081.42 539.271C1084.7 539.271 1087.65 539.722 1090.28 540.624C1092.9 541.486 1095.14 542.881 1096.99 544.809C1098.87 546.737 1100.31 549.24 1101.29 552.317C1102.28 555.353 1102.77 559.065 1102.77 563.455V607.086H1091.32V563.332C1091.32 559.845 1090.81 557.055 1089.79 554.963C1088.76 552.829 1087.26 551.291 1085.29 550.347C1083.32 549.363 1080.9 548.871 1078.03 548.871C1075.2 548.871 1072.62 549.465 1070.28 550.655C1067.98 551.845 1065.99 553.486 1064.31 555.578C1062.67 557.671 1061.37 560.071 1060.43 562.778C1059.53 565.445 1059.08 568.276 1059.08 571.271ZM1163.2 540.501H1173.54V605.671C1173.54 611.537 1172.35 616.542 1169.97 620.686C1167.59 624.83 1164.27 627.968 1160 630.101C1155.77 632.276 1150.89 633.363 1145.35 633.363C1143.06 633.363 1140.35 632.994 1137.23 632.255C1134.15 631.558 1131.12 630.347 1128.12 628.624C1125.17 626.942 1122.69 624.665 1120.68 621.794L1126.65 615.024C1129.44 618.389 1132.35 620.727 1135.39 622.04C1138.46 623.353 1141.5 624.009 1144.49 624.009C1148.1 624.009 1151.22 623.332 1153.85 621.978C1156.47 620.624 1158.5 618.614 1159.94 615.947C1161.42 613.322 1162.15 610.081 1162.15 606.224V555.147L1163.2 540.501ZM1117.35 574.532V573.24C1117.35 568.153 1117.95 563.537 1119.14 559.394C1120.37 555.209 1122.11 551.619 1124.37 548.624C1126.67 545.629 1129.44 543.332 1132.68 541.732C1135.92 540.091 1139.57 539.271 1143.63 539.271C1147.82 539.271 1151.47 540.009 1154.59 541.486C1157.74 542.922 1160.41 545.035 1162.59 547.824C1164.8 550.573 1166.54 553.896 1167.82 557.794C1169.09 561.691 1169.97 566.101 1170.46 571.024V576.686C1170.01 581.568 1169.13 585.958 1167.82 589.855C1166.54 593.753 1164.8 597.076 1162.59 599.824C1160.41 602.573 1157.74 604.686 1154.59 606.163C1151.43 607.599 1147.73 608.317 1143.51 608.317C1139.53 608.317 1135.92 607.476 1132.68 605.794C1129.48 604.112 1126.73 601.753 1124.43 598.717C1122.13 595.681 1120.37 592.112 1119.14 588.009C1117.95 583.865 1117.35 579.373 1117.35 574.532ZM1128.74 573.24V574.532C1128.74 577.855 1129.07 580.973 1129.72 583.886C1130.42 586.799 1131.47 589.363 1132.86 591.578C1134.3 593.794 1136.12 595.537 1138.34 596.809C1140.55 598.04 1143.2 598.655 1146.28 598.655C1150.05 598.655 1153.17 597.855 1155.63 596.255C1158.09 594.655 1160.04 592.542 1161.48 589.917C1162.95 587.291 1164.1 584.44 1164.92 581.363V566.532C1164.47 564.276 1163.77 562.101 1162.83 560.009C1161.93 557.876 1160.74 555.988 1159.26 554.347C1157.83 552.665 1156.04 551.332 1153.91 550.347C1151.77 549.363 1149.27 548.871 1146.4 548.871C1143.28 548.871 1140.6 549.527 1138.34 550.84C1136.12 552.112 1134.3 553.876 1132.86 556.132C1131.47 558.347 1130.42 560.932 1129.72 563.886C1129.07 566.799 1128.74 569.917 1128.74 573.24ZM1229.6 589.424C1229.6 587.783 1229.23 586.265 1228.49 584.871C1227.8 583.435 1226.34 582.142 1224.12 580.994C1221.95 579.804 1218.67 578.778 1214.28 577.917C1210.59 577.137 1207.24 576.214 1204.25 575.147C1201.29 574.081 1198.77 572.788 1196.68 571.271C1194.63 569.753 1193.05 567.968 1191.94 565.917C1190.83 563.865 1190.28 561.465 1190.28 558.717C1190.28 556.091 1190.85 553.609 1192 551.271C1193.19 548.932 1194.85 546.86 1196.99 545.055C1199.16 543.25 1201.76 541.835 1204.8 540.809C1207.84 539.783 1211.22 539.271 1214.95 539.271C1220.29 539.271 1224.84 540.214 1228.62 542.101C1232.39 543.988 1235.28 546.512 1237.29 549.671C1239.3 552.788 1240.31 556.255 1240.31 560.071H1228.92C1228.92 558.224 1228.37 556.44 1227.26 554.717C1226.2 552.953 1224.62 551.496 1222.52 550.347C1220.47 549.199 1217.95 548.624 1214.95 548.624C1211.8 548.624 1209.23 549.117 1207.26 550.101C1205.33 551.045 1203.92 552.255 1203.02 553.732C1202.15 555.209 1201.72 556.768 1201.72 558.409C1201.72 559.64 1201.93 560.747 1202.34 561.732C1202.79 562.676 1203.57 563.558 1204.68 564.378C1205.79 565.158 1207.34 565.896 1209.35 566.594C1211.36 567.291 1213.93 567.988 1217.05 568.686C1222.5 569.917 1227 571.394 1230.52 573.117C1234.05 574.84 1236.68 576.953 1238.4 579.455C1240.12 581.958 1240.99 584.994 1240.99 588.563C1240.99 591.476 1240.37 594.142 1239.14 596.563C1237.95 598.983 1236.21 601.076 1233.91 602.84C1231.65 604.563 1228.94 605.917 1225.79 606.901C1222.67 607.845 1219.16 608.317 1215.26 608.317C1209.4 608.317 1204.43 607.271 1200.37 605.178C1196.31 603.086 1193.23 600.378 1191.14 597.055C1189.05 593.732 1188 590.224 1188 586.532H1199.45C1199.61 589.65 1200.51 592.132 1202.15 593.978C1203.8 595.783 1205.81 597.076 1208.19 597.855C1210.56 598.594 1212.92 598.963 1215.26 598.963C1218.38 598.963 1220.99 598.553 1223.08 597.732C1225.21 596.912 1226.83 595.783 1227.94 594.347C1229.05 592.912 1229.6 591.271 1229.6 589.424ZM1315.08 540.501V549.24H1279.08V540.501H1315.08ZM1291.26 524.317H1302.65V590.594C1302.65 592.85 1303 594.553 1303.69 595.701C1304.39 596.85 1305.29 597.609 1306.4 597.978C1307.51 598.347 1308.7 598.532 1309.97 598.532C1310.91 598.532 1311.9 598.45 1312.92 598.286C1313.99 598.081 1314.79 597.917 1315.32 597.794L1315.39 607.086C1314.48 607.373 1313.29 607.64 1311.82 607.886C1310.38 608.173 1308.64 608.317 1306.59 608.317C1303.8 608.317 1301.23 607.763 1298.89 606.655C1296.55 605.547 1294.69 603.701 1293.29 601.117C1291.94 598.491 1291.26 594.963 1291.26 590.532V524.317ZM1339.82 512.563V607.086H1328.43V512.563H1339.82ZM1337.11 571.271L1332.37 571.086C1332.41 566.532 1333.09 562.327 1334.4 558.471C1335.71 554.573 1337.56 551.188 1339.94 548.317C1342.32 545.445 1345.15 543.229 1348.43 541.671C1351.75 540.071 1355.43 539.271 1359.45 539.271C1362.73 539.271 1365.68 539.722 1368.31 540.624C1370.93 541.486 1373.17 542.881 1375.02 544.809C1376.9 546.737 1378.34 549.24 1379.32 552.317C1380.31 555.353 1380.8 559.065 1380.8 563.455V607.086H1369.35V563.332C1369.35 559.845 1368.84 557.055 1367.82 554.963C1366.79 552.829 1365.29 551.291 1363.32 550.347C1361.35 549.363 1358.93 548.871 1356.06 548.871C1353.23 548.871 1350.65 549.465 1348.31 550.655C1346.01 551.845 1344.02 553.486 1342.34 555.578C1340.7 557.671 1339.41 560.071 1338.46 562.778C1337.56 565.445 1337.11 568.276 1337.11 571.271ZM1409.23 550.963V607.086H1397.85V540.501H1408.92L1409.23 550.963ZM1430.03 540.132L1429.97 550.717C1429.03 550.512 1428.12 550.388 1427.26 550.347C1426.44 550.265 1425.5 550.224 1424.43 550.224C1421.81 550.224 1419.49 550.635 1417.48 551.455C1415.47 552.276 1413.76 553.424 1412.37 554.901C1410.98 556.378 1409.87 558.142 1409.05 560.194C1408.27 562.204 1407.75 564.419 1407.51 566.84L1404.31 568.686C1404.31 564.665 1404.7 560.891 1405.48 557.363C1406.3 553.835 1407.55 550.717 1409.23 548.009C1410.91 545.26 1413.05 543.127 1415.63 541.609C1418.26 540.05 1421.38 539.271 1424.99 539.271C1425.81 539.271 1426.75 539.373 1427.82 539.578C1428.88 539.742 1429.62 539.927 1430.03 540.132ZM1436.31 574.532V573.117C1436.31 568.317 1437.01 563.865 1438.4 559.763C1439.8 555.619 1441.81 552.029 1444.43 548.994C1447.06 545.917 1450.24 543.537 1453.97 541.855C1457.7 540.132 1461.89 539.271 1466.52 539.271C1471.2 539.271 1475.41 540.132 1479.14 541.855C1482.91 543.537 1486.11 545.917 1488.74 548.994C1491.41 552.029 1493.44 555.619 1494.83 559.763C1496.23 563.865 1496.92 568.317 1496.92 573.117V574.532C1496.92 579.332 1496.23 583.783 1494.83 587.886C1493.44 591.988 1491.41 595.578 1488.74 598.655C1486.11 601.691 1482.93 604.071 1479.2 605.794C1475.51 607.476 1471.32 608.317 1466.65 608.317C1461.97 608.317 1457.76 607.476 1454.03 605.794C1450.3 604.071 1447.1 601.691 1444.43 598.655C1441.81 595.578 1439.8 591.988 1438.4 587.886C1437.01 583.783 1436.31 579.332 1436.31 574.532ZM1447.69 573.117V574.532C1447.69 577.855 1448.08 580.994 1448.86 583.947C1449.64 586.86 1450.81 589.445 1452.37 591.701C1453.97 593.958 1455.96 595.742 1458.34 597.055C1460.72 598.327 1463.49 598.963 1466.65 598.963C1469.76 598.963 1472.49 598.327 1474.83 597.055C1477.21 595.742 1479.18 593.958 1480.74 591.701C1482.3 589.445 1483.47 586.86 1484.25 583.947C1485.07 580.994 1485.48 577.855 1485.48 574.532V573.117C1485.48 569.835 1485.07 566.737 1484.25 563.824C1483.47 560.871 1482.28 558.265 1480.68 556.009C1479.12 553.712 1477.15 551.906 1474.77 550.594C1472.43 549.281 1469.68 548.624 1466.52 548.624C1463.41 548.624 1460.66 549.281 1458.28 550.594C1455.94 551.906 1453.97 553.712 1452.37 556.009C1450.81 558.265 1449.64 560.871 1448.86 563.824C1448.08 566.737 1447.69 569.835 1447.69 573.117ZM1551.94 591.701V540.501H1563.39V607.086H1552.49L1551.94 591.701ZM1554.09 577.671L1558.83 577.547C1558.83 581.978 1558.36 586.081 1557.42 589.855C1556.51 593.588 1555.04 596.83 1552.99 599.578C1550.93 602.327 1548.25 604.481 1544.92 606.04C1541.6 607.558 1537.56 608.317 1532.8 608.317C1529.56 608.317 1526.59 607.845 1523.88 606.901C1521.21 605.958 1518.91 604.501 1516.99 602.532C1515.06 600.563 1513.56 597.999 1512.49 594.84C1511.47 591.681 1510.95 587.886 1510.95 583.455V540.501H1522.34V583.578C1522.34 586.573 1522.67 589.055 1523.32 591.024C1524.02 592.953 1524.94 594.491 1526.09 595.64C1527.28 596.747 1528.6 597.527 1530.03 597.978C1531.51 598.43 1533.03 598.655 1534.59 598.655C1539.43 598.655 1543.26 597.732 1546.09 595.886C1548.92 593.999 1550.95 591.476 1552.19 588.317C1553.46 585.117 1554.09 581.568 1554.09 577.671ZM1623.88 540.501H1634.22V605.671C1634.22 611.537 1633.03 616.542 1630.65 620.686C1628.27 624.83 1624.94 627.968 1620.68 630.101C1616.45 632.276 1611.57 633.363 1606.03 633.363C1603.73 633.363 1601.03 632.994 1597.91 632.255C1594.83 631.558 1591.8 630.347 1588.8 628.624C1585.85 626.942 1583.36 624.665 1581.35 621.794L1587.32 615.024C1590.11 618.389 1593.03 620.727 1596.06 622.04C1599.14 623.353 1602.18 624.009 1605.17 624.009C1608.78 624.009 1611.9 623.332 1614.52 621.978C1617.15 620.624 1619.18 618.614 1620.62 615.947C1622.09 613.322 1622.83 610.081 1622.83 606.224V555.147L1623.88 540.501ZM1578.03 574.532V573.24C1578.03 568.153 1578.63 563.537 1579.82 559.394C1581.05 555.209 1582.79 551.619 1585.05 548.624C1587.34 545.629 1590.11 543.332 1593.35 541.732C1596.6 540.091 1600.25 539.271 1604.31 539.271C1608.49 539.271 1612.14 540.009 1615.26 541.486C1618.42 542.922 1621.09 545.035 1623.26 547.824C1625.48 550.573 1627.22 553.896 1628.49 557.794C1629.76 561.691 1630.65 566.101 1631.14 571.024V576.686C1630.69 581.568 1629.81 585.958 1628.49 589.855C1627.22 593.753 1625.48 597.076 1623.26 599.824C1621.09 602.573 1618.42 604.686 1615.26 606.163C1612.1 607.599 1608.41 608.317 1604.19 608.317C1600.21 608.317 1596.6 607.476 1593.35 605.794C1590.15 604.112 1587.41 601.753 1585.11 598.717C1582.81 595.681 1581.05 592.112 1579.82 588.009C1578.63 583.865 1578.03 579.373 1578.03 574.532ZM1589.42 573.24V574.532C1589.42 577.855 1589.74 580.973 1590.4 583.886C1591.1 586.799 1592.14 589.363 1593.54 591.578C1594.98 593.794 1596.8 595.537 1599.02 596.809C1601.23 598.04 1603.88 598.655 1606.95 598.655C1610.73 598.655 1613.85 597.855 1616.31 596.255C1618.77 594.655 1620.72 592.542 1622.15 589.917C1623.63 587.291 1624.78 584.44 1625.6 581.363V566.532C1625.15 564.276 1624.45 562.101 1623.51 560.009C1622.61 557.876 1621.42 555.988 1619.94 554.347C1618.5 552.665 1616.72 551.332 1614.59 550.347C1612.45 549.363 1609.95 548.871 1607.08 548.871C1603.96 548.871 1601.27 549.527 1599.02 550.84C1596.8 552.112 1594.98 553.876 1593.54 556.132C1592.14 558.347 1591.1 560.932 1590.4 563.886C1589.74 566.799 1589.42 569.917 1589.42 573.24ZM1662.89 512.563V607.086H1651.51V512.563H1662.89ZM1660.19 571.271L1655.45 571.086C1655.49 566.532 1656.16 562.327 1657.48 558.471C1658.79 554.573 1660.64 551.188 1663.02 548.317C1665.4 545.445 1668.23 543.229 1671.51 541.671C1674.83 540.071 1678.5 539.271 1682.52 539.271C1685.81 539.271 1688.76 539.722 1691.39 540.624C1694.01 541.486 1696.25 542.881 1698.09 544.809C1699.98 546.737 1701.42 549.24 1702.4 552.317C1703.39 555.353 1703.88 559.065 1703.88 563.455V607.086H1692.43V563.332C1692.43 559.845 1691.92 557.055 1690.89 554.963C1689.87 552.829 1688.37 551.291 1686.4 550.347C1684.43 549.363 1682.01 548.871 1679.14 548.871C1676.31 548.871 1673.72 549.465 1671.39 550.655C1669.09 551.845 1667.1 553.486 1665.42 555.578C1663.78 557.671 1662.48 560.071 1661.54 562.778C1660.64 565.445 1660.19 568.276 1660.19 571.271ZM1808 578.594H1819.82C1819.2 584.255 1817.58 589.322 1814.95 593.794C1812.33 598.265 1808.62 601.814 1803.82 604.44C1799.02 607.024 1793.03 608.317 1785.85 608.317C1780.6 608.317 1775.82 607.332 1771.51 605.363C1767.24 603.394 1763.57 600.604 1760.49 596.994C1757.42 593.342 1755.04 588.973 1753.35 583.886C1751.71 578.758 1750.89 573.055 1750.89 566.778V557.855C1750.89 551.578 1751.71 545.896 1753.35 540.809C1755.04 535.681 1757.44 531.291 1760.55 527.64C1763.71 523.988 1767.51 521.178 1771.94 519.209C1776.37 517.24 1781.35 516.255 1786.89 516.255C1793.66 516.255 1799.39 517.527 1804.06 520.071C1808.74 522.614 1812.37 526.142 1814.95 530.655C1817.58 535.127 1819.2 540.317 1819.82 546.224H1808C1807.43 542.04 1806.36 538.45 1804.8 535.455C1803.24 532.419 1801.03 530.081 1798.15 528.44C1795.28 526.799 1791.53 525.978 1786.89 525.978C1782.91 525.978 1779.41 526.737 1776.37 528.255C1773.38 529.773 1770.85 531.927 1768.8 534.717C1766.79 537.506 1765.27 540.85 1764.25 544.747C1763.22 548.645 1762.71 552.973 1762.71 557.732V566.778C1762.71 571.168 1763.16 575.291 1764.06 579.147C1765.01 583.004 1766.42 586.388 1768.31 589.301C1770.2 592.214 1772.6 594.512 1775.51 596.194C1778.42 597.835 1781.87 598.655 1785.85 598.655C1790.89 598.655 1794.91 597.855 1797.91 596.255C1800.9 594.655 1803.16 592.358 1804.68 589.363C1806.24 586.368 1807.34 582.778 1808 578.594ZM1845.66 512.563V607.086H1834.28V512.563H1845.66ZM1842.95 571.271L1838.22 571.086C1838.26 566.532 1838.93 562.327 1840.25 558.471C1841.56 554.573 1843.41 551.188 1845.79 548.317C1848.17 545.445 1851 543.229 1854.28 541.671C1857.6 540.071 1861.27 539.271 1865.29 539.271C1868.58 539.271 1871.53 539.722 1874.15 540.624C1876.78 541.486 1879.02 542.881 1880.86 544.809C1882.75 546.737 1884.19 549.24 1885.17 552.317C1886.15 555.353 1886.65 559.065 1886.65 563.455V607.086H1875.2V563.332C1875.2 559.845 1874.69 557.055 1873.66 554.963C1872.64 552.829 1871.14 551.291 1869.17 550.347C1867.2 549.363 1864.78 548.871 1861.91 548.871C1859.08 548.871 1856.49 549.465 1854.15 550.655C1851.86 551.845 1849.87 553.486 1848.19 555.578C1846.54 557.671 1845.25 560.071 1844.31 562.778C1843.41 565.445 1842.95 568.276 1842.95 571.271ZM1915.08 550.963V607.086H1903.69V540.501H1914.77L1915.08 550.963ZM1935.88 540.132L1935.82 550.717C1934.87 550.512 1933.97 550.388 1933.11 550.347C1932.29 550.265 1931.34 550.224 1930.28 550.224C1927.65 550.224 1925.33 550.635 1923.32 551.455C1921.31 552.276 1919.61 553.424 1918.22 554.901C1916.82 556.378 1915.71 558.142 1914.89 560.194C1914.11 562.204 1913.6 564.419 1913.35 566.84L1910.15 568.686C1910.15 564.665 1910.54 560.891 1911.32 557.363C1912.14 553.835 1913.4 550.717 1915.08 548.009C1916.76 545.26 1918.89 543.127 1921.48 541.609C1924.1 540.05 1927.22 539.271 1930.83 539.271C1931.65 539.271 1932.6 539.373 1933.66 539.578C1934.73 539.742 1935.47 539.927 1935.88 540.132ZM1958.77 540.501V607.086H1947.32V540.501H1958.77ZM1946.46 522.84C1946.46 520.994 1947.02 519.435 1948.12 518.163C1949.27 516.891 1950.95 516.255 1953.17 516.255C1955.34 516.255 1957.01 516.891 1958.15 518.163C1959.34 519.435 1959.94 520.994 1959.94 522.84C1959.94 524.604 1959.34 526.122 1958.15 527.394C1957.01 528.624 1955.34 529.24 1953.17 529.24C1950.95 529.24 1949.27 528.624 1948.12 527.394C1947.02 526.122 1946.46 524.604 1946.46 522.84ZM2015.82 589.424C2015.82 587.783 2015.45 586.265 2014.71 584.871C2014.01 583.435 2012.55 582.142 2010.34 580.994C2008.17 579.804 2004.88 578.778 2000.49 577.917C1996.8 577.137 1993.46 576.214 1990.46 575.147C1987.51 574.081 1984.99 572.788 1982.89 571.271C1980.84 569.753 1979.26 567.968 1978.15 565.917C1977.05 563.865 1976.49 561.465 1976.49 558.717C1976.49 556.091 1977.07 553.609 1978.22 551.271C1979.41 548.932 1981.07 546.86 1983.2 545.055C1985.38 543.25 1987.98 541.835 1991.02 540.809C1994.05 539.783 1997.44 539.271 2001.17 539.271C2006.5 539.271 2011.06 540.214 2014.83 542.101C2018.61 543.988 2021.5 546.512 2023.51 549.671C2025.52 552.788 2026.52 556.255 2026.52 560.071H2015.14C2015.14 558.224 2014.59 556.44 2013.48 554.717C2012.41 552.953 2010.83 551.496 2008.74 550.347C2006.69 549.199 2004.17 548.624 2001.17 548.624C1998.01 548.624 1995.45 549.117 1993.48 550.101C1991.55 551.045 1990.13 552.255 1989.23 553.732C1988.37 555.209 1987.94 556.768 1987.94 558.409C1987.94 559.64 1988.14 560.747 1988.55 561.732C1989.01 562.676 1989.79 563.558 1990.89 564.378C1992 565.158 1993.56 565.896 1995.57 566.594C1997.58 567.291 2000.14 567.988 2003.26 568.686C2008.72 569.917 2013.21 571.394 2016.74 573.117C2020.27 574.84 2022.89 576.953 2024.62 579.455C2026.34 581.958 2027.2 584.994 2027.2 588.563C2027.2 591.476 2026.59 594.142 2025.35 596.563C2024.17 598.983 2022.42 601.076 2020.12 602.84C2017.87 604.563 2015.16 605.917 2012 606.901C2008.88 607.845 2005.38 608.317 2001.48 608.317C1995.61 608.317 1990.65 607.271 1986.59 605.178C1982.52 603.086 1979.45 600.378 1977.35 597.055C1975.26 593.732 1974.22 590.224 1974.22 586.532H1985.66C1985.83 589.65 1986.73 592.132 1988.37 593.978C1990.01 595.783 1992.02 597.076 1994.4 597.855C1996.78 598.594 1999.14 598.963 2001.48 598.963C2004.6 598.963 2007.2 598.553 2009.29 597.732C2011.43 596.912 2013.05 595.783 2014.15 594.347C2015.26 592.912 2015.82 591.271 2015.82 589.424ZM2070.03 540.501V549.24H2034.03V540.501H2070.03ZM2046.22 524.317H2057.6V590.594C2057.6 592.85 2057.95 594.553 2058.65 595.701C2059.34 596.85 2060.25 597.609 2061.35 597.978C2062.46 598.347 2063.65 598.532 2064.92 598.532C2065.87 598.532 2066.85 598.45 2067.88 598.286C2068.94 598.081 2069.74 597.917 2070.28 597.794L2070.34 607.086C2069.44 607.373 2068.25 607.64 2066.77 607.886C2065.33 608.173 2063.59 608.317 2061.54 608.317C2058.75 608.317 2056.19 607.763 2053.85 606.655C2051.51 605.547 2049.64 603.701 2048.25 601.117C2046.89 598.491 2046.22 594.963 2046.22 590.532V524.317ZM2131.51 595.271L2148.62 540.501H2156.12L2154.65 551.394L2137.23 607.086H2129.91L2131.51 595.271ZM2120 540.501L2134.59 595.886L2135.63 607.086H2127.94L2108.62 540.501H2120ZM2172.49 595.455L2186.4 540.501H2197.72L2178.4 607.086H2170.77L2172.49 595.455ZM2157.79 540.501L2174.52 594.347L2176.43 607.086H2169.17L2151.26 551.271L2149.79 540.501H2157.79ZM2220.8 512.563V607.086H2209.42V512.563H2220.8ZM2218.09 571.271L2213.36 571.086C2213.4 566.532 2214.07 562.327 2215.39 558.471C2216.7 554.573 2218.54 551.188 2220.92 548.317C2223.3 545.445 2226.13 543.229 2229.42 541.671C2232.74 540.071 2236.41 539.271 2240.43 539.271C2243.71 539.271 2246.67 539.722 2249.29 540.624C2251.92 541.486 2254.16 542.881 2256 544.809C2257.89 546.737 2259.32 549.24 2260.31 552.317C2261.29 555.353 2261.79 559.065 2261.79 563.455V607.086H2250.34V563.332C2250.34 559.845 2249.83 557.055 2248.8 554.963C2247.78 552.829 2246.28 551.291 2244.31 550.347C2242.34 549.363 2239.92 548.871 2237.05 548.871C2234.22 548.871 2231.63 549.465 2229.29 550.655C2227 551.845 2225.01 553.486 2223.32 555.578C2221.68 557.671 2220.39 560.071 2219.45 562.778C2218.54 565.445 2218.09 568.276 2218.09 571.271ZM2275.82 574.532V573.117C2275.82 568.317 2276.51 563.865 2277.91 559.763C2279.3 555.619 2281.31 552.029 2283.94 548.994C2286.57 545.917 2289.74 543.537 2293.48 541.855C2297.21 540.132 2301.4 539.271 2306.03 539.271C2310.71 539.271 2314.91 540.132 2318.65 541.855C2322.42 543.537 2325.62 545.917 2328.25 548.994C2330.91 552.029 2332.94 555.619 2334.34 559.763C2335.73 563.865 2336.43 568.317 2336.43 573.117V574.532C2336.43 579.332 2335.73 583.783 2334.34 587.886C2332.94 591.988 2330.91 595.578 2328.25 598.655C2325.62 601.691 2322.44 604.071 2318.71 605.794C2315.02 607.476 2310.83 608.317 2306.16 608.317C2301.48 608.317 2297.27 607.476 2293.54 605.794C2289.81 604.071 2286.61 601.691 2283.94 598.655C2281.31 595.578 2279.3 591.988 2277.91 587.886C2276.51 583.783 2275.82 579.332 2275.82 574.532ZM2287.2 573.117V574.532C2287.2 577.855 2287.59 580.994 2288.37 583.947C2289.15 586.86 2290.32 589.445 2291.88 591.701C2293.48 593.958 2295.47 595.742 2297.85 597.055C2300.23 598.327 2303 598.963 2306.16 598.963C2309.27 598.963 2312 598.327 2314.34 597.055C2316.72 595.742 2318.69 593.958 2320.25 591.701C2321.81 589.445 2322.98 586.86 2323.76 583.947C2324.58 580.994 2324.99 577.855 2324.99 574.532V573.117C2324.99 569.835 2324.58 566.737 2323.76 563.824C2322.98 560.871 2321.79 558.265 2320.19 556.009C2318.63 553.712 2316.66 551.906 2314.28 550.594C2311.94 549.281 2309.19 548.624 2306.03 548.624C2302.91 548.624 2300.17 549.281 2297.79 550.594C2295.45 551.906 2293.48 553.712 2291.88 556.009C2290.32 558.265 2289.15 560.871 2288.37 563.824C2287.59 566.737 2287.2 569.835 2287.2 573.117ZM311.446 737.424C311.446 735.783 311.077 734.265 310.338 732.871C309.641 731.435 308.185 730.142 305.969 728.994C303.795 727.804 300.513 726.778 296.123 725.917C292.431 725.137 289.087 724.214 286.092 723.147C283.138 722.081 280.615 720.788 278.523 719.271C276.472 717.753 274.892 715.968 273.785 713.917C272.677 711.865 272.123 709.465 272.123 706.717C272.123 704.091 272.697 701.609 273.846 699.271C275.036 696.932 276.697 694.86 278.831 693.055C281.005 691.25 283.61 689.835 286.646 688.809C289.682 687.783 293.067 687.271 296.8 687.271C302.133 687.271 306.687 688.214 310.462 690.101C314.236 691.988 317.128 694.512 319.138 697.671C321.149 700.788 322.154 704.255 322.154 708.071H310.769C310.769 706.224 310.215 704.44 309.108 702.717C308.041 700.953 306.462 699.496 304.369 698.347C302.318 697.199 299.795 696.624 296.8 696.624C293.641 696.624 291.077 697.117 289.108 698.101C287.18 699.045 285.764 700.255 284.862 701.732C284 703.209 283.569 704.768 283.569 706.409C283.569 707.64 283.774 708.747 284.185 709.732C284.636 710.676 285.415 711.558 286.523 712.378C287.631 713.158 289.19 713.896 291.2 714.594C293.21 715.291 295.774 715.988 298.892 716.686C304.349 717.917 308.841 719.394 312.369 721.117C315.897 722.84 318.523 724.953 320.246 727.455C321.969 729.958 322.831 732.994 322.831 736.563C322.831 739.476 322.215 742.142 320.985 744.563C319.795 746.983 318.051 749.076 315.754 750.84C313.497 752.563 310.79 753.917 307.631 754.901C304.513 755.845 301.005 756.317 297.108 756.317C291.241 756.317 286.277 755.271 282.215 753.178C278.154 751.086 275.077 748.378 272.985 745.055C270.892 741.732 269.846 738.224 269.846 734.532H281.292C281.456 737.65 282.359 740.132 284 741.978C285.641 743.783 287.651 745.076 290.031 745.855C292.41 746.594 294.769 746.963 297.108 746.963C300.226 746.963 302.831 746.553 304.923 745.732C307.056 744.912 308.677 743.783 309.785 742.347C310.892 740.912 311.446 739.271 311.446 737.424ZM365.662 688.501V697.24H329.662V688.501H365.662ZM341.846 672.317H353.231V738.594C353.231 740.85 353.58 742.553 354.277 743.701C354.974 744.85 355.877 745.609 356.985 745.978C358.092 746.347 359.282 746.532 360.554 746.532C361.497 746.532 362.482 746.45 363.508 746.286C364.574 746.081 365.374 745.917 365.908 745.794L365.969 755.086C365.067 755.373 363.877 755.64 362.4 755.886C360.964 756.173 359.221 756.317 357.169 756.317C354.38 756.317 351.815 755.763 349.477 754.655C347.139 753.547 345.272 751.701 343.877 749.117C342.523 746.491 341.846 742.963 341.846 738.532V672.317ZM390.4 698.963V755.086H379.015V688.501H390.092L390.4 698.963ZM411.2 688.132L411.139 698.717C410.195 698.512 409.292 698.388 408.431 698.347C407.61 698.265 406.667 698.224 405.6 698.224C402.974 698.224 400.656 698.635 398.646 699.455C396.636 700.276 394.933 701.424 393.539 702.901C392.144 704.378 391.036 706.142 390.215 708.194C389.436 710.204 388.923 712.419 388.677 714.84L385.477 716.686C385.477 712.665 385.867 708.891 386.646 705.363C387.467 701.835 388.718 698.717 390.4 696.009C392.082 693.26 394.215 691.127 396.8 689.609C399.426 688.05 402.544 687.271 406.154 687.271C406.974 687.271 407.918 687.373 408.985 687.578C410.051 687.742 410.79 687.927 411.2 688.132ZM448.123 756.317C443.487 756.317 439.282 755.537 435.508 753.978C431.774 752.378 428.554 750.142 425.846 747.271C423.18 744.399 421.128 740.994 419.692 737.055C418.257 733.117 417.539 728.809 417.539 724.132V721.547C417.539 716.132 418.339 711.312 419.939 707.086C421.539 702.819 423.713 699.209 426.462 696.255C429.21 693.301 432.328 691.065 435.815 689.547C439.303 688.029 442.913 687.271 446.646 687.271C451.405 687.271 455.508 688.091 458.954 689.732C462.441 691.373 465.292 693.671 467.508 696.624C469.723 699.537 471.364 702.983 472.431 706.963C473.498 710.901 474.031 715.209 474.031 719.886V724.994H424.308V715.701H462.646V714.84C462.482 711.886 461.867 709.014 460.8 706.224C459.774 703.435 458.133 701.137 455.877 699.332C453.621 697.527 450.544 696.624 446.646 696.624C444.062 696.624 441.682 697.178 439.508 698.286C437.333 699.353 435.467 700.953 433.908 703.086C432.349 705.219 431.139 707.824 430.277 710.901C429.415 713.978 428.985 717.527 428.985 721.547V724.132C428.985 727.291 429.415 730.265 430.277 733.055C431.18 735.804 432.472 738.224 434.154 740.317C435.877 742.409 437.949 744.05 440.369 745.24C442.831 746.43 445.621 747.024 448.739 747.024C452.759 747.024 456.164 746.204 458.954 744.563C461.744 742.922 464.185 740.727 466.277 737.978L473.169 743.455C471.733 745.63 469.908 747.701 467.692 749.671C465.477 751.64 462.749 753.24 459.508 754.471C456.308 755.701 452.513 756.317 448.123 756.317ZM498.708 702.717V755.086H487.323V688.501H498.092L498.708 702.717ZM496 719.271L491.262 719.086C491.303 714.532 491.98 710.327 493.292 706.471C494.605 702.573 496.451 699.188 498.831 696.317C501.21 693.445 504.041 691.229 507.323 689.671C510.646 688.071 514.318 687.271 518.339 687.271C521.621 687.271 524.575 687.722 527.2 688.624C529.826 689.486 532.062 690.881 533.908 692.809C535.795 694.737 537.231 697.24 538.216 700.317C539.2 703.353 539.692 707.065 539.692 711.455V755.086H528.246V711.332C528.246 707.845 527.733 705.055 526.708 702.963C525.682 700.829 524.185 699.291 522.216 698.347C520.246 697.363 517.826 696.871 514.954 696.871C512.123 696.871 509.539 697.465 507.2 698.655C504.903 699.845 502.913 701.486 501.231 703.578C499.59 705.671 498.298 708.071 497.354 710.778C496.451 713.445 496 716.276 496 719.271ZM600.123 688.501H610.462V753.671C610.462 759.537 609.272 764.542 606.893 768.686C604.513 772.83 601.19 775.968 596.923 778.101C592.698 780.276 587.816 781.363 582.277 781.363C579.98 781.363 577.272 780.994 574.154 780.255C571.077 779.558 568.041 778.347 565.046 776.624C562.092 774.942 559.61 772.665 557.6 769.794L563.569 763.024C566.359 766.389 569.272 768.727 572.308 770.04C575.385 771.353 578.421 772.009 581.416 772.009C585.026 772.009 588.144 771.332 590.769 769.978C593.395 768.624 595.426 766.614 596.862 763.947C598.339 761.322 599.077 758.081 599.077 754.224V703.147L600.123 688.501ZM554.277 722.532V721.24C554.277 716.153 554.872 711.537 556.062 707.394C557.292 703.209 559.036 699.619 561.292 696.624C563.59 693.629 566.359 691.332 569.6 689.732C572.841 688.091 576.492 687.271 580.554 687.271C584.739 687.271 588.39 688.009 591.508 689.486C594.667 690.922 597.334 693.035 599.508 695.824C601.723 698.573 603.467 701.896 604.739 705.794C606.01 709.691 606.893 714.101 607.385 719.024V724.686C606.934 729.568 606.051 733.958 604.739 737.855C603.467 741.753 601.723 745.076 599.508 747.824C597.334 750.573 594.667 752.686 591.508 754.163C588.349 755.599 584.657 756.317 580.431 756.317C576.451 756.317 572.841 755.476 569.6 753.794C566.4 752.112 563.651 749.753 561.354 746.717C559.057 743.681 557.292 740.112 556.062 736.009C554.872 731.865 554.277 727.373 554.277 722.532ZM565.662 721.24V722.532C565.662 725.855 565.99 728.973 566.646 731.886C567.344 734.799 568.39 737.363 569.785 739.578C571.221 741.794 573.046 743.537 575.262 744.809C577.477 746.04 580.123 746.655 583.2 746.655C586.975 746.655 590.093 745.855 592.554 744.255C595.016 742.655 596.964 740.542 598.4 737.917C599.877 735.291 601.026 732.44 601.846 729.363V714.532C601.395 712.276 600.698 710.101 599.754 708.009C598.851 705.876 597.662 703.988 596.185 702.347C594.749 700.665 592.964 699.332 590.831 698.347C588.698 697.363 586.195 696.871 583.323 696.871C580.205 696.871 577.518 697.527 575.262 698.84C573.046 700.112 571.221 701.876 569.785 704.132C568.39 706.347 567.344 708.932 566.646 711.886C565.99 714.799 565.662 717.917 565.662 721.24ZM655.631 688.501V697.24H619.631V688.501H655.631ZM631.816 672.317H643.2V738.594C643.2 740.85 643.549 742.553 644.246 743.701C644.944 744.85 645.846 745.609 646.954 745.978C648.062 746.347 649.252 746.532 650.523 746.532C651.467 746.532 652.452 746.45 653.477 746.286C654.544 746.081 655.344 745.917 655.877 745.794L655.939 755.086C655.036 755.373 653.846 755.64 652.369 755.886C650.934 756.173 649.19 756.317 647.139 756.317C644.349 756.317 641.785 755.763 639.446 754.655C637.108 753.547 635.241 751.701 633.846 749.117C632.493 746.491 631.816 742.963 631.816 738.532V672.317ZM680.369 660.563V755.086H668.985V660.563H680.369ZM677.662 719.271L672.923 719.086C672.964 714.532 673.641 710.327 674.954 706.471C676.267 702.573 678.113 699.188 680.493 696.317C682.872 693.445 685.703 691.229 688.985 689.671C692.308 688.071 695.98 687.271 700 687.271C703.282 687.271 706.236 687.722 708.862 688.624C711.487 689.486 713.723 690.881 715.569 692.809C717.457 694.737 718.893 697.24 719.877 700.317C720.862 703.353 721.354 707.065 721.354 711.455V755.086H709.908V711.332C709.908 707.845 709.395 705.055 708.369 702.963C707.344 700.829 705.846 699.291 703.877 698.347C701.908 697.363 699.487 696.871 696.616 696.871C693.785 696.871 691.2 697.465 688.862 698.655C686.564 699.845 684.575 701.486 682.893 703.578C681.252 705.671 679.959 708.071 679.016 710.778C678.113 713.445 677.662 716.276 677.662 719.271ZM766.031 756.317C761.395 756.317 757.19 755.537 753.416 753.978C749.682 752.378 746.462 750.142 743.754 747.271C741.087 744.399 739.036 740.994 737.6 737.055C736.164 733.117 735.446 728.809 735.446 724.132V721.547C735.446 716.132 736.246 711.312 737.846 707.086C739.446 702.819 741.621 699.209 744.37 696.255C747.118 693.301 750.236 691.065 753.723 689.547C757.211 688.029 760.821 687.271 764.554 687.271C769.313 687.271 773.416 688.091 776.862 689.732C780.349 691.373 783.2 693.671 785.416 696.624C787.631 699.537 789.272 702.983 790.339 706.963C791.405 710.901 791.939 715.209 791.939 719.886V724.994H742.216V715.701H780.554V714.84C780.39 711.886 779.775 709.014 778.708 706.224C777.682 703.435 776.041 701.137 773.785 699.332C771.529 697.527 768.452 696.624 764.554 696.624C761.97 696.624 759.59 697.178 757.416 698.286C755.241 699.353 753.375 700.953 751.816 703.086C750.257 705.219 749.046 707.824 748.185 710.901C747.323 713.978 746.893 717.527 746.893 721.547V724.132C746.893 727.291 747.323 730.265 748.185 733.055C749.087 735.804 750.38 738.224 752.062 740.317C753.785 742.409 755.857 744.05 758.277 745.24C760.739 746.43 763.529 747.024 766.646 747.024C770.667 747.024 774.072 746.204 776.862 744.563C779.652 742.922 782.093 740.727 784.185 737.978L791.077 743.455C789.641 745.63 787.816 747.701 785.6 749.671C783.385 751.64 780.657 753.24 777.416 754.471C774.216 755.701 770.421 756.317 766.031 756.317ZM816.616 702.717V755.086H805.231V688.501H816L816.616 702.717ZM813.908 719.271L809.17 719.086C809.211 714.532 809.888 710.327 811.2 706.471C812.513 702.573 814.359 699.188 816.739 696.317C819.118 693.445 821.949 691.229 825.231 689.671C828.554 688.071 832.226 687.271 836.247 687.271C839.529 687.271 842.482 687.722 845.108 688.624C847.734 689.486 849.97 690.881 851.816 692.809C853.703 694.737 855.139 697.24 856.123 700.317C857.108 703.353 857.6 707.065 857.6 711.455V755.086H846.154V711.332C846.154 707.845 845.641 705.055 844.616 702.963C843.59 700.829 842.093 699.291 840.123 698.347C838.154 697.363 835.734 696.871 832.862 696.871C830.031 696.871 827.447 697.465 825.108 698.655C822.811 699.845 820.821 701.486 819.139 703.578C817.498 705.671 816.205 708.071 815.262 710.778C814.359 713.445 813.908 716.276 813.908 719.271ZM913.662 737.424C913.662 735.783 913.293 734.265 912.554 732.871C911.857 731.435 910.4 730.142 908.185 728.994C906.011 727.804 902.729 726.778 898.339 725.917C894.647 725.137 891.303 724.214 888.308 723.147C885.354 722.081 882.831 720.788 880.739 719.271C878.688 717.753 877.108 715.968 876 713.917C874.893 711.865 874.339 709.465 874.339 706.717C874.339 704.091 874.913 701.609 876.062 699.271C877.252 696.932 878.913 694.86 881.047 693.055C883.221 691.25 885.826 689.835 888.862 688.809C891.898 687.783 895.282 687.271 899.016 687.271C904.349 687.271 908.903 688.214 912.677 690.101C916.452 691.988 919.344 694.512 921.354 697.671C923.365 700.788 924.37 704.255 924.37 708.071H912.985C912.985 706.224 912.431 704.44 911.323 702.717C910.257 700.953 908.677 699.496 906.585 698.347C904.534 697.199 902.011 696.624 899.016 696.624C895.857 696.624 893.293 697.117 891.323 698.101C889.395 699.045 887.98 700.255 887.077 701.732C886.216 703.209 885.785 704.768 885.785 706.409C885.785 707.64 885.99 708.747 886.4 709.732C886.852 710.676 887.631 711.558 888.739 712.378C889.847 713.158 891.406 713.896 893.416 714.594C895.426 715.291 897.99 715.988 901.108 716.686C906.565 717.917 911.057 719.394 914.585 721.117C918.113 722.84 920.739 724.953 922.462 727.455C924.185 729.958 925.047 732.994 925.047 736.563C925.047 739.476 924.431 742.142 923.2 744.563C922.011 746.983 920.267 749.076 917.97 750.84C915.713 752.563 913.006 753.917 909.847 754.901C906.729 755.845 903.221 756.317 899.323 756.317C893.457 756.317 888.493 755.271 884.431 753.178C880.37 751.086 877.293 748.378 875.2 745.055C873.108 741.732 872.062 738.224 872.062 734.532H883.508C883.672 737.65 884.575 740.132 886.216 741.978C887.857 743.783 889.867 745.076 892.247 745.855C894.626 746.594 896.985 746.963 899.323 746.963C902.441 746.963 905.047 746.553 907.139 745.732C909.272 744.912 910.893 743.783 912 742.347C913.108 740.912 913.662 739.271 913.662 737.424ZM982.585 701.732V755.086H971.139V688.501H981.97L982.585 701.732ZM980.247 719.271L974.954 719.086C974.995 714.532 975.59 710.327 976.739 706.471C977.888 702.573 979.59 699.188 981.847 696.317C984.103 693.445 986.913 691.229 990.277 689.671C993.641 688.071 997.539 687.271 1001.97 687.271C1005.09 687.271 1007.96 687.722 1010.59 688.624C1013.21 689.486 1015.49 690.86 1017.42 692.747C1019.34 694.635 1020.84 697.055 1021.91 700.009C1022.97 702.963 1023.51 706.532 1023.51 710.717V755.086H1012.12V711.271C1012.12 707.783 1011.53 704.994 1010.34 702.901C1009.19 700.809 1007.55 699.291 1005.42 698.347C1003.28 697.363 1000.78 696.871 997.908 696.871C994.544 696.871 991.734 697.465 989.477 698.655C987.221 699.845 985.416 701.486 984.062 703.578C982.708 705.671 981.723 708.071 981.108 710.778C980.534 713.445 980.247 716.276 980.247 719.271ZM1023.39 712.994L1015.75 715.332C1015.8 711.681 1016.39 708.173 1017.54 704.809C1018.73 701.445 1020.43 698.45 1022.65 695.824C1024.9 693.199 1027.67 691.127 1030.95 689.609C1034.24 688.05 1037.99 687.271 1042.22 687.271C1045.79 687.271 1048.94 687.742 1051.69 688.686C1054.48 689.629 1056.82 691.086 1058.71 693.055C1060.64 694.983 1062.09 697.465 1063.08 700.501C1064.06 703.537 1064.55 707.147 1064.55 711.332V755.086H1053.11V711.209C1053.11 707.476 1052.51 704.583 1051.32 702.532C1050.17 700.44 1048.53 698.983 1046.4 698.163C1044.31 697.301 1041.81 696.871 1038.89 696.871C1036.39 696.871 1034.17 697.301 1032.25 698.163C1030.32 699.024 1028.7 700.214 1027.39 701.732C1026.07 703.209 1025.07 704.912 1024.37 706.84C1023.71 708.768 1023.39 710.819 1023.39 712.994ZM1109.42 756.317C1104.78 756.317 1100.57 755.537 1096.8 753.978C1093.07 752.378 1089.85 750.142 1087.14 747.271C1084.47 744.399 1082.42 740.994 1080.99 737.055C1079.55 733.117 1078.83 728.809 1078.83 724.132V721.547C1078.83 716.132 1079.63 711.312 1081.23 707.086C1082.83 702.819 1085.01 699.209 1087.75 696.255C1090.5 693.301 1093.62 691.065 1097.11 689.547C1100.6 688.029 1104.21 687.271 1107.94 687.271C1112.7 687.271 1116.8 688.091 1120.25 689.732C1123.73 691.373 1126.59 693.671 1128.8 696.624C1131.02 699.537 1132.66 702.983 1133.72 706.963C1134.79 710.901 1135.32 715.209 1135.32 719.886V724.994H1085.6V715.701H1123.94V714.84C1123.77 711.886 1123.16 709.014 1122.09 706.224C1121.07 703.435 1119.43 701.137 1117.17 699.332C1114.91 697.527 1111.84 696.624 1107.94 696.624C1105.35 696.624 1102.97 697.178 1100.8 698.286C1098.63 699.353 1096.76 700.953 1095.2 703.086C1093.64 705.219 1092.43 707.824 1091.57 710.901C1090.71 713.978 1090.28 717.527 1090.28 721.547V724.132C1090.28 727.291 1090.71 730.265 1091.57 733.055C1092.47 735.804 1093.76 738.224 1095.45 740.317C1097.17 742.409 1099.24 744.05 1101.66 745.24C1104.12 746.43 1106.91 747.024 1110.03 747.024C1114.05 747.024 1117.46 746.204 1120.25 744.563C1123.04 742.922 1125.48 740.727 1127.57 737.978L1134.46 743.455C1133.03 745.63 1131.2 747.701 1128.99 749.671C1126.77 751.64 1124.04 753.24 1120.8 754.471C1117.6 755.701 1113.81 756.317 1109.42 756.317Z" fill="black"/>
<path d="M302.514 385.322H282.014V372.392H302.514C305.682 372.392 308.26 371.876 310.25 370.845C312.239 369.776 313.694 368.303 314.615 366.424C315.536 364.545 315.996 362.427 315.996 360.07C315.996 357.675 315.536 355.447 314.615 353.384C313.694 351.321 312.239 349.663 310.25 348.411C308.26 347.158 305.682 346.532 302.514 346.532H287.76V414H271.183V333.547H302.514C308.813 333.547 314.21 334.688 318.704 336.972C323.235 339.22 326.698 342.332 329.092 346.311C331.487 350.289 332.684 354.839 332.684 359.959C332.684 365.153 331.487 369.647 329.092 373.442C326.698 377.236 323.235 380.165 318.704 382.228C314.21 384.29 308.813 385.322 302.514 385.322ZM358.654 329.126V414H342.741V329.126H358.654ZM356.389 382.006H352.024C352.06 377.844 352.613 374.013 353.681 370.513C354.75 366.977 356.278 363.919 358.268 361.341C360.257 358.725 362.633 356.699 365.396 355.262C368.195 353.826 371.29 353.107 374.679 353.107C377.626 353.107 380.297 353.531 382.691 354.378C385.122 355.189 387.204 356.515 388.935 358.357C390.703 360.162 392.066 362.538 393.024 365.485C393.982 368.432 394.461 372.005 394.461 376.205V414H378.436V376.094C378.436 373.442 378.049 371.36 377.276 369.85C376.539 368.303 375.452 367.216 374.016 366.59C372.616 365.927 370.884 365.595 368.822 365.595C366.538 365.595 364.585 366.019 362.964 366.866C361.38 367.713 360.109 368.892 359.152 370.403C358.194 371.876 357.494 373.607 357.052 375.597C356.61 377.586 356.389 379.723 356.389 382.006ZM423.36 354.212V414H407.391V354.212H423.36ZM406.396 338.63C406.396 336.309 407.206 334.394 408.827 332.883C410.448 331.373 412.622 330.618 415.348 330.618C418.037 330.618 420.192 331.373 421.813 332.883C423.47 334.394 424.299 336.309 424.299 338.63C424.299 340.951 423.47 342.866 421.813 344.377C420.192 345.887 418.037 346.642 415.348 346.642C412.622 346.642 410.448 345.887 408.827 344.377C407.206 342.866 406.396 340.951 406.396 338.63ZM453.309 329.126V414H437.34V329.126H453.309ZM483.258 354.212V414H467.289V354.212H483.258ZM466.294 338.63C466.294 336.309 467.104 334.394 468.725 332.883C470.346 331.373 472.52 330.618 475.246 330.618C477.935 330.618 480.09 331.373 481.711 332.883C483.368 334.394 484.197 336.309 484.197 338.63C484.197 340.951 483.368 342.866 481.711 344.377C480.09 345.887 477.935 346.642 475.246 346.642C472.52 346.642 470.346 345.887 468.725 344.377C467.104 342.866 466.294 340.951 466.294 338.63ZM512.323 365.706V436.987H496.409V354.212H511.162L512.323 365.706ZM550.173 383.443V384.604C550.173 388.95 549.658 392.984 548.626 396.705C547.632 400.425 546.158 403.667 544.206 406.43C542.253 409.156 539.822 411.292 536.912 412.84C534.039 414.35 530.723 415.105 526.966 415.105C523.319 415.105 520.151 414.368 517.462 412.895C514.772 411.421 512.507 409.358 510.665 406.706C508.86 404.017 507.405 400.904 506.3 397.368C505.195 393.831 504.347 390.037 503.758 385.985V382.946C504.347 378.599 505.195 374.621 506.3 371.01C507.405 367.364 508.86 364.214 510.665 361.562C512.507 358.872 514.754 356.791 517.406 355.318C520.095 353.844 523.245 353.107 526.855 353.107C530.649 353.107 533.983 353.826 536.857 355.262C539.767 356.699 542.198 358.762 544.15 361.451C546.14 364.14 547.632 367.345 548.626 371.066C549.658 374.786 550.173 378.912 550.173 383.443ZM534.204 384.604V383.443C534.204 380.901 533.983 378.562 533.541 376.426C533.136 374.252 532.473 372.355 531.552 370.734C530.668 369.113 529.489 367.861 528.016 366.977C526.579 366.056 524.829 365.595 522.766 365.595C520.593 365.595 518.732 365.945 517.185 366.645C515.675 367.345 514.441 368.358 513.483 369.684C512.525 371.01 511.807 372.594 511.328 374.436C510.849 376.278 510.555 378.36 510.444 380.68V388.361C510.628 391.087 511.144 393.537 511.991 395.71C512.838 397.847 514.146 399.541 515.914 400.794C517.683 402.046 520.003 402.672 522.877 402.672C524.976 402.672 526.745 402.212 528.181 401.291C529.618 400.333 530.778 399.025 531.663 397.368C532.583 395.71 533.228 393.795 533.596 391.621C534.002 389.448 534.204 387.109 534.204 384.604ZM575.978 365.706V436.987H560.064V354.212H574.818L575.978 365.706ZM613.829 383.443V384.604C613.829 388.95 613.313 392.984 612.282 396.705C611.287 400.425 609.814 403.667 607.861 406.43C605.909 409.156 603.478 411.292 600.567 412.84C597.694 414.35 594.379 415.105 590.621 415.105C586.974 415.105 583.806 414.368 581.117 412.895C578.428 411.421 576.162 409.358 574.321 406.706C572.515 404.017 571.06 400.904 569.955 397.368C568.85 393.831 568.003 390.037 567.413 385.985V382.946C568.003 378.599 568.85 374.621 569.955 371.01C571.06 367.364 572.515 364.214 574.321 361.562C576.162 358.872 578.409 356.791 581.062 355.318C583.751 353.844 586.901 353.107 590.511 353.107C594.305 353.107 597.639 353.826 600.512 355.262C603.422 356.699 605.854 358.762 607.806 361.451C609.795 364.14 611.287 367.345 612.282 371.066C613.313 374.786 613.829 378.912 613.829 383.443ZM597.86 384.604V383.443C597.86 380.901 597.639 378.562 597.197 376.426C596.791 374.252 596.128 372.355 595.207 370.734C594.323 369.113 593.145 367.861 591.671 366.977C590.234 366.056 588.485 365.595 586.422 365.595C584.248 365.595 582.388 365.945 580.841 366.645C579.33 367.345 578.096 368.358 577.139 369.684C576.181 371.01 575.462 372.594 574.984 374.436C574.505 376.278 574.21 378.36 574.099 380.68V388.361C574.284 391.087 574.799 393.537 575.647 395.71C576.494 397.847 577.802 399.541 579.57 400.794C581.338 402.046 583.659 402.672 586.532 402.672C588.632 402.672 590.4 402.212 591.837 401.291C593.273 400.333 594.434 399.025 595.318 397.368C596.239 395.71 596.884 393.795 597.252 391.621C597.657 389.448 597.86 387.109 597.86 384.604ZM640.518 354.212V414H624.549V354.212H640.518ZM623.554 338.63C623.554 336.309 624.365 334.394 625.985 332.883C627.606 331.373 629.78 330.618 632.506 330.618C635.195 330.618 637.35 331.373 638.971 332.883C640.628 334.394 641.457 336.309 641.457 338.63C641.457 340.951 640.628 342.866 638.971 344.377C637.35 345.887 635.195 346.642 632.506 346.642C629.78 346.642 627.606 345.887 625.985 344.377C624.365 342.866 623.554 340.951 623.554 338.63ZM685.939 400.517V373.884C685.939 371.968 685.626 370.329 684.999 368.966C684.373 367.566 683.397 366.479 682.071 365.706C680.781 364.932 679.105 364.545 677.042 364.545C675.274 364.545 673.745 364.859 672.456 365.485C671.167 366.074 670.172 366.94 669.472 368.082C668.772 369.187 668.422 370.495 668.422 372.005H652.508C652.508 369.463 653.098 367.05 654.277 364.766C655.455 362.483 657.168 360.475 659.416 358.743C661.663 356.975 664.333 355.594 667.428 354.599C670.559 353.605 674.059 353.107 677.926 353.107C682.568 353.107 686.694 353.881 690.304 355.428C693.914 356.975 696.751 359.296 698.813 362.39C700.913 365.485 701.963 369.353 701.963 373.994V399.578C701.963 402.857 702.166 405.546 702.571 407.646C702.976 409.708 703.565 411.513 704.339 413.061V414H688.259C687.486 412.379 686.896 410.353 686.491 407.922C686.123 405.454 685.939 402.986 685.939 400.517ZM688.038 377.586L688.149 386.593H679.253C677.153 386.593 675.329 386.832 673.782 387.311C672.235 387.79 670.964 388.471 669.97 389.356C668.975 390.203 668.238 391.197 667.759 392.339C667.317 393.481 667.096 394.734 667.096 396.097C667.096 397.46 667.409 398.694 668.036 399.799C668.662 400.867 669.564 401.715 670.743 402.341C671.922 402.93 673.303 403.225 674.887 403.225C677.282 403.225 679.363 402.746 681.131 401.788C682.9 400.831 684.263 399.652 685.22 398.252C686.215 396.852 686.731 395.526 686.768 394.273L690.967 401.015C690.378 402.525 689.567 404.091 688.536 405.712C687.541 407.332 686.27 408.861 684.723 410.298C683.176 411.698 681.316 412.858 679.142 413.779C676.969 414.663 674.39 415.105 671.406 415.105C667.612 415.105 664.168 414.35 661.073 412.84C658.016 411.292 655.584 409.174 653.779 406.485C652.011 403.759 651.127 400.665 651.127 397.202C651.127 394.071 651.716 391.29 652.895 388.858C654.074 386.427 655.805 384.383 658.089 382.725C660.41 381.03 663.302 379.759 666.765 378.912C670.227 378.028 674.243 377.586 678.811 377.586H688.038ZM729.812 366.977V414H713.898V354.212H728.818L729.812 366.977ZM727.492 382.006H723.182C723.182 377.586 723.753 373.607 724.894 370.071C726.036 366.498 727.639 363.459 729.702 360.954C731.765 358.412 734.214 356.478 737.051 355.152C739.924 353.789 743.129 353.107 746.666 353.107C749.465 353.107 752.025 353.513 754.346 354.323C756.667 355.133 758.656 356.423 760.314 358.191C762.008 359.959 763.298 362.298 764.182 365.209C765.103 368.119 765.563 371.674 765.563 375.873V414H749.539V375.818C749.539 373.165 749.171 371.103 748.434 369.629C747.697 368.156 746.61 367.124 745.174 366.535C743.774 365.908 742.042 365.595 739.98 365.595C737.843 365.595 735.983 366.019 734.399 366.866C732.851 367.713 731.562 368.892 730.531 370.403C729.536 371.876 728.781 373.607 728.265 375.597C727.749 377.586 727.492 379.723 727.492 382.006ZM809.99 397.478C809.99 396.336 809.658 395.305 808.995 394.384C808.332 393.463 807.098 392.616 805.293 391.842C803.525 391.032 800.964 390.295 797.612 389.632C794.591 388.969 791.773 388.14 789.158 387.145C786.579 386.114 784.332 384.88 782.417 383.443C780.538 382.006 779.064 380.312 777.996 378.36C776.928 376.37 776.394 374.105 776.394 371.563C776.394 369.058 776.928 366.7 777.996 364.49C779.101 362.28 780.667 360.328 782.693 358.633C784.756 356.902 787.261 355.557 790.208 354.599C793.192 353.605 796.544 353.107 800.264 353.107C805.458 353.107 809.916 353.936 813.636 355.594C817.394 357.252 820.267 359.536 822.256 362.446C824.283 365.319 825.296 368.598 825.296 372.281H809.382C809.382 370.734 809.05 369.353 808.387 368.137C807.761 366.885 806.766 365.908 805.403 365.209C804.077 364.472 802.346 364.103 800.209 364.103C798.441 364.103 796.912 364.416 795.623 365.043C794.334 365.632 793.339 366.443 792.639 367.474C791.976 368.469 791.644 369.574 791.644 370.789C791.644 371.71 791.829 372.539 792.197 373.276C792.602 373.976 793.247 374.621 794.131 375.21C795.015 375.799 796.157 376.352 797.557 376.868C798.993 377.347 800.762 377.789 802.861 378.194C807.171 379.078 811.021 380.238 814.41 381.675C817.799 383.075 820.488 384.99 822.477 387.422C824.467 389.816 825.461 392.966 825.461 396.87C825.461 399.523 824.872 401.954 823.693 404.164C822.514 406.375 820.82 408.309 818.61 409.966C816.399 411.587 813.747 412.858 810.653 413.779C807.595 414.663 804.151 415.105 800.32 415.105C794.757 415.105 790.042 414.111 786.174 412.121C782.343 410.132 779.433 407.609 777.443 404.551C775.491 401.457 774.515 398.289 774.515 395.047H789.6C789.674 397.22 790.226 398.97 791.258 400.296C792.326 401.623 793.67 402.58 795.291 403.17C796.949 403.759 798.736 404.054 800.651 404.054C802.714 404.054 804.427 403.778 805.79 403.225C807.153 402.636 808.184 401.862 808.884 400.904C809.621 399.91 809.99 398.768 809.99 397.478ZM919.674 383.94V396.428H861.71L860.936 386.759L894.477 333.547H907.13L893.427 356.478L876.739 383.94H919.674ZM910.556 333.547V414H894.642V333.547H910.556ZM929.565 406.319C929.565 403.962 930.375 401.991 931.996 400.407C933.654 398.823 935.845 398.031 938.571 398.031C941.297 398.031 943.471 398.823 945.092 400.407C946.749 401.991 947.578 403.962 947.578 406.319C947.578 408.677 946.749 410.648 945.092 412.232C943.471 413.816 941.297 414.608 938.571 414.608C935.845 414.608 933.654 413.816 931.996 412.232C930.375 410.648 929.565 408.677 929.565 406.319ZM929.565 360.733C929.565 358.375 930.375 356.404 931.996 354.82C933.654 353.236 935.845 352.444 938.571 352.444C941.297 352.444 943.471 353.236 945.092 354.82C946.749 356.404 947.578 358.375 947.578 360.733C947.578 363.09 946.749 365.061 945.092 366.645C943.471 368.229 941.297 369.021 938.571 369.021C935.845 369.021 933.654 368.229 931.996 366.645C930.375 365.061 929.565 363.09 929.565 360.733ZM999.022 333.381V414H983.108V351.726L963.989 357.804V345.261L997.309 333.381H999.022ZM1041.51 366.866H1050.02C1052.75 366.866 1055 366.406 1056.77 365.485C1058.53 364.527 1059.84 363.201 1060.69 361.506C1061.57 359.775 1062.01 357.767 1062.01 355.483C1062.01 353.42 1061.61 351.597 1060.8 350.013C1060.03 348.392 1058.83 347.14 1057.21 346.256C1055.59 345.335 1053.54 344.874 1051.07 344.874C1049.12 344.874 1047.32 345.261 1045.66 346.034C1044 346.808 1042.67 347.895 1041.68 349.295C1040.69 350.694 1040.19 352.389 1040.19 354.378H1024.22C1024.22 349.958 1025.4 346.108 1027.76 342.83C1030.15 339.551 1033.35 336.991 1037.37 335.149C1041.39 333.307 1045.81 332.386 1050.63 332.386C1056.08 332.386 1060.85 333.27 1064.94 335.038C1069.03 336.77 1072.22 339.33 1074.5 342.719C1076.79 346.108 1077.93 350.308 1077.93 355.318C1077.93 357.859 1077.34 360.328 1076.16 362.722C1074.98 365.08 1073.29 367.216 1071.08 369.132C1068.9 371.01 1066.25 372.521 1063.12 373.663C1059.99 374.768 1056.47 375.32 1052.57 375.32H1041.51V366.866ZM1041.51 378.967V370.734H1052.57C1056.95 370.734 1060.8 371.231 1064.11 372.226C1067.43 373.221 1070.21 374.657 1072.46 376.536C1074.71 378.378 1076.4 380.57 1077.54 383.112C1078.68 385.617 1079.25 388.398 1079.25 391.455C1079.25 395.213 1078.54 398.565 1077.1 401.512C1075.66 404.422 1073.64 406.89 1071.02 408.916C1068.44 410.942 1065.42 412.49 1061.96 413.558C1058.5 414.589 1054.72 415.105 1050.63 415.105C1047.24 415.105 1043.91 414.645 1040.63 413.724C1037.39 412.766 1034.44 411.348 1031.79 409.469C1029.17 407.553 1027.07 405.159 1025.49 402.286C1023.94 399.375 1023.17 395.931 1023.17 391.953H1039.14C1039.14 394.016 1039.65 395.857 1040.69 397.478C1041.72 399.099 1043.14 400.37 1044.94 401.291C1046.78 402.212 1048.83 402.672 1051.07 402.672C1053.62 402.672 1055.79 402.212 1057.59 401.291C1059.44 400.333 1060.84 399.007 1061.79 397.313C1062.79 395.581 1063.29 393.574 1063.29 391.29C1063.29 388.343 1062.75 385.985 1061.68 384.217C1060.61 382.412 1059.09 381.086 1057.1 380.238C1055.11 379.391 1052.75 378.967 1050.02 378.967H1041.51Z" fill="black"/>
<defs>
<filter id="filter0_d_1907_2125" x="0.638607" y="0.537045" width="2656.56" height="1218.11" filterUnits="userSpaceOnUse" color-interpolation-filters="sRGB">
<feFlood flood-opacity="0" result="BackgroundImageFix"/>
<feColorMatrix in="SourceAlpha" type="matrix" values="0 0 0 0 0 0 0 0 0 0 0 0 0 0 0 0 0 0 127 0" result="hardAlpha"/>
<feOffset dx="-31.1205" dy="56.5827"/>
<feGaussianBlur stdDeviation="31.1205"/>
<feComposite in2="hardAlpha" operator="out"/>
<feColorMatrix type="matrix" values="0 0 0 0 0 0 0 0 0 0 0 0 0 0 0 0 0 0 0.25 0"/>
<feBlend mode="normal" in2="BackgroundImageFix" result="effect1_dropShadow_1907_2125"/>
<feBlend mode="normal" in="SourceGraphic" in2="effect1_dropShadow_1907_2125" result="shape"/>
</filter>
</defs>
</svg>
