<svg width="2658" height="1219" viewBox="0 0 2658 1219" fill="none" xmlns="http://www.w3.org/2000/svg">
<g filter="url(#filter0_d_1837_1504)">
<path d="M2626.07 6L94 6.16232L94 1062.84L194.434 1041.63L327.403 1099.62L457.544 1041.63L541.003 1062.84L774.407 997.773L990.835 1062.84L1142.19 976.555L1326.09 1030.31L1576.47 997.773L1914.55 1062.84L2029.13 976.555L2256.87 1030.31L2374.28 1010.5L2626.07 1041.46V6Z" fill="#A9A6A1"/>
</g>
<path d="M271.153 364V281.698H303.624C309.866 281.698 315.184 282.89 319.578 285.275C323.972 287.632 327.321 290.914 329.625 295.12C331.955 299.3 333.121 304.122 333.121 309.587C333.121 315.053 331.942 319.875 329.584 324.055C327.227 328.234 323.811 331.489 319.337 333.82C314.89 336.151 309.505 337.316 303.182 337.316H282.486V323.371H300.369C303.718 323.371 306.477 322.795 308.647 321.643C310.844 320.465 312.478 318.844 313.55 316.781C314.648 314.691 315.198 312.293 315.198 309.587C315.198 306.855 314.648 304.47 313.55 302.434C312.478 300.371 310.844 298.777 308.647 297.652C306.45 296.5 303.664 295.924 300.288 295.924H288.554V364H271.153ZM361.221 328.314V364H344.102V281.698H360.739V313.164H361.462C362.856 309.52 365.106 306.667 368.214 304.604C371.322 302.515 375.22 301.47 379.908 301.47C384.195 301.47 387.932 302.407 391.12 304.283C394.335 306.131 396.827 308.797 398.595 312.28C400.39 315.736 401.274 319.875 401.247 324.698V364H384.128V327.752C384.154 323.947 383.19 320.987 381.234 318.871C379.305 316.754 376.599 315.696 373.117 315.696C370.786 315.696 368.723 316.191 366.928 317.183C365.16 318.174 363.766 319.621 362.748 321.523C361.757 323.398 361.248 325.662 361.221 328.314ZM414.72 364V302.273H431.839V364H414.72ZM423.32 294.317C420.774 294.317 418.591 293.473 416.769 291.785C414.974 290.07 414.077 288.021 414.077 285.636C414.077 283.279 414.974 281.256 416.769 279.568C418.591 277.853 420.774 276.996 423.32 276.996C425.865 276.996 428.035 277.853 429.83 279.568C431.652 281.256 432.562 283.279 432.562 285.636C432.562 288.021 431.652 290.07 429.83 291.785C428.035 293.473 425.865 294.317 423.32 294.317ZM462.672 281.698V364H445.553V281.698H462.672ZM476.386 364V302.273H493.505V364H476.386ZM484.986 294.317C482.441 294.317 480.257 293.473 478.435 291.785C476.64 290.07 475.743 288.021 475.743 285.636C475.743 283.279 476.64 281.256 478.435 279.568C480.257 277.853 482.441 276.996 484.986 276.996C487.531 276.996 489.701 277.853 491.496 279.568C493.318 281.256 494.229 283.279 494.229 285.636C494.229 288.021 493.318 290.07 491.496 291.785C489.701 293.473 487.531 294.317 484.986 294.317ZM507.219 387.147V302.273H524.097V312.642H524.861C525.611 310.981 526.696 309.293 528.116 307.578C529.563 305.837 531.438 304.39 533.742 303.238C536.073 302.059 538.966 301.47 542.422 301.47C546.923 301.47 551.076 302.649 554.88 305.006C558.685 307.337 561.725 310.86 564.003 315.575C566.28 320.264 567.418 326.144 567.418 333.217C567.418 340.102 566.307 345.916 564.083 350.658C561.886 355.373 558.886 358.95 555.081 361.388C551.304 363.799 547.071 365.005 542.382 365.005C539.06 365.005 536.234 364.455 533.903 363.357C531.599 362.259 529.71 360.879 528.237 359.218C526.763 357.53 525.638 355.829 524.861 354.114H524.339V387.147H507.219ZM523.977 333.137C523.977 336.807 524.486 340.009 525.504 342.741C526.522 345.474 527.995 347.604 529.924 349.131C531.853 350.631 534.198 351.381 536.957 351.381C539.743 351.381 542.101 350.618 544.03 349.091C545.959 347.537 547.419 345.394 548.41 342.661C549.428 339.901 549.937 336.727 549.937 333.137C549.937 329.574 549.442 326.439 548.45 323.733C547.459 321.027 545.999 318.911 544.07 317.384C542.141 315.857 539.77 315.093 536.957 315.093C534.171 315.093 531.813 315.83 529.884 317.303C527.982 318.777 526.522 320.866 525.504 323.572C524.486 326.278 523.977 329.466 523.977 333.137ZM578.831 387.147V302.273H595.71V312.642H596.473C597.224 310.981 598.309 309.293 599.728 307.578C601.175 305.837 603.051 304.39 605.355 303.238C607.685 302.059 610.579 301.47 614.035 301.47C618.536 301.47 622.688 302.649 626.493 305.006C630.297 307.337 633.338 310.86 635.615 315.575C637.892 320.264 639.031 326.144 639.031 333.217C639.031 340.102 637.919 345.916 635.695 350.658C633.499 355.373 630.498 358.95 626.694 361.388C622.916 363.799 618.683 365.005 613.995 365.005C610.673 365.005 607.846 364.455 605.515 363.357C603.211 362.259 601.323 360.879 599.849 359.218C598.376 357.53 597.25 355.829 596.473 354.114H595.951V387.147H578.831ZM595.589 333.137C595.589 336.807 596.098 340.009 597.116 342.741C598.134 345.474 599.608 347.604 601.537 349.131C603.466 350.631 605.81 351.381 608.57 351.381C611.356 351.381 613.713 350.618 615.642 349.091C617.571 347.537 619.031 345.394 620.023 342.661C621.041 339.901 621.55 336.727 621.55 333.137C621.55 329.574 621.054 326.439 620.063 323.733C619.072 321.027 617.611 318.911 615.683 317.384C613.754 315.857 611.383 315.093 608.57 315.093C605.783 315.093 603.426 315.83 601.497 317.303C599.595 318.777 598.134 320.866 597.116 323.572C596.098 326.278 595.589 329.466 595.589 333.137ZM650.444 364V302.273H667.563V364H650.444ZM659.044 294.317C656.499 294.317 654.315 293.473 652.493 291.785C650.698 290.07 649.801 288.021 649.801 285.636C649.801 283.279 650.698 281.256 652.493 279.568C654.315 277.853 656.499 276.996 659.044 276.996C661.589 276.996 663.759 277.853 665.554 279.568C667.376 281.256 668.287 283.279 668.287 285.636C668.287 288.021 667.376 290.07 665.554 291.785C663.759 293.473 661.589 294.317 659.044 294.317ZM698.879 365.165C694.94 365.165 691.431 364.482 688.35 363.116C685.269 361.723 682.831 359.673 681.036 356.967C679.268 354.235 678.384 350.832 678.384 346.76C678.384 343.331 679.013 340.451 680.272 338.12C681.532 335.789 683.246 333.914 685.416 332.494C687.586 331.074 690.051 330.002 692.811 329.279C695.597 328.555 698.517 328.046 701.571 327.752C705.161 327.377 708.055 327.028 710.252 326.707C712.448 326.359 714.042 325.85 715.034 325.18C716.025 324.51 716.521 323.519 716.521 322.206V321.965C716.521 319.42 715.717 317.451 714.109 316.057C712.529 314.664 710.278 313.968 707.358 313.968C704.277 313.968 701.826 314.651 700.004 316.017C698.182 317.357 696.977 319.045 696.387 321.081L680.554 319.795C681.357 316.044 682.938 312.802 685.296 310.07C687.653 307.31 690.694 305.194 694.418 303.72C698.169 302.22 702.509 301.47 707.438 301.47C710.868 301.47 714.15 301.872 717.284 302.675C720.446 303.479 723.245 304.725 725.683 306.413C728.148 308.101 730.09 310.271 731.51 312.923C732.93 315.548 733.64 318.696 733.64 322.367V364H717.405V355.44H716.922C715.931 357.369 714.605 359.07 712.944 360.544C711.283 361.991 709.287 363.129 706.956 363.96C704.625 364.764 701.933 365.165 698.879 365.165ZM703.781 353.351C706.3 353.351 708.524 352.855 710.452 351.864C712.381 350.846 713.895 349.479 714.994 347.765C716.092 346.05 716.641 344.108 716.641 341.938V335.387C716.105 335.735 715.369 336.057 714.431 336.352C713.52 336.62 712.489 336.874 711.337 337.115C710.185 337.33 709.033 337.53 707.881 337.718C706.729 337.879 705.684 338.026 704.746 338.16C702.737 338.455 700.982 338.924 699.482 339.567C697.981 340.21 696.816 341.08 695.985 342.179C695.155 343.25 694.74 344.59 694.74 346.197C694.74 348.528 695.583 350.31 697.271 351.542C698.986 352.748 701.156 353.351 703.781 353.351ZM764.041 328.314V364H746.922V302.273H763.237V313.164H763.961C765.327 309.574 767.618 306.734 770.833 304.644C774.048 302.528 777.946 301.47 782.527 301.47C786.814 301.47 790.551 302.407 793.739 304.283C796.927 306.158 799.405 308.837 801.174 312.32C802.942 315.776 803.826 319.902 803.826 324.698V364H786.706V327.752C786.733 323.974 785.769 321.027 783.813 318.911C781.857 316.767 779.165 315.696 775.735 315.696C773.431 315.696 771.395 316.191 769.627 317.183C767.886 318.174 766.519 319.621 765.528 321.523C764.564 323.398 764.068 325.662 764.041 328.314ZM868.677 319.875L853.004 320.84C852.736 319.5 852.16 318.294 851.276 317.223C850.392 316.124 849.227 315.254 847.78 314.611C846.36 313.941 844.659 313.606 842.676 313.606C840.024 313.606 837.787 314.169 835.965 315.294C834.143 316.392 833.232 317.866 833.232 319.714C833.232 321.188 833.822 322.434 835.001 323.452C836.179 324.47 838.202 325.287 841.069 325.903L852.241 328.154C858.242 329.386 862.716 331.369 865.663 334.101C868.61 336.834 870.083 340.424 870.083 344.871C870.083 348.917 868.891 352.466 866.507 355.521C864.149 358.575 860.908 360.959 856.782 362.674C852.683 364.362 847.954 365.206 842.596 365.206C834.425 365.206 827.914 363.504 823.065 360.102C818.243 356.673 815.416 352.011 814.586 346.117L831.424 345.233C831.933 347.724 833.165 349.627 835.121 350.939C837.077 352.225 839.582 352.868 842.636 352.868C845.637 352.868 848.048 352.292 849.87 351.14C851.718 349.961 852.656 348.448 852.683 346.599C852.656 345.045 852 343.773 850.714 342.782C849.428 341.763 847.445 340.987 844.766 340.451L834.076 338.321C828.048 337.115 823.561 335.025 820.614 332.052C817.694 329.078 816.233 325.287 816.233 320.679C816.233 316.714 817.305 313.298 819.448 310.431C821.618 307.565 824.659 305.354 828.571 303.801C832.509 302.247 837.117 301.47 842.395 301.47C850.191 301.47 856.326 303.117 860.8 306.413C865.301 309.708 867.927 314.195 868.677 319.875ZM905.649 349.533V335.829L940.008 281.698H951.823V300.666H944.83L923.17 334.945V335.588H971.997V349.533H905.649ZM945.152 364V345.353L945.473 339.285V281.698H961.789V364H945.152ZM993.758 354.436C991.105 354.436 988.828 353.498 986.926 351.623C985.051 349.747 984.113 347.47 984.113 344.791C984.113 342.165 985.051 339.915 986.926 338.039C988.828 336.164 991.105 335.226 993.758 335.226C996.33 335.226 998.58 336.164 1000.51 338.039C1002.44 339.915 1003.4 342.165 1003.4 344.791C1003.4 346.559 1002.95 348.18 1002.04 349.653C1001.15 351.1 999.987 352.266 998.54 353.15C997.093 354.007 995.499 354.436 993.758 354.436ZM993.758 314.048C991.105 314.048 988.828 313.11 986.926 311.235C985.051 309.36 984.113 307.082 984.113 304.403C984.113 301.778 985.051 299.541 986.926 297.692C988.828 295.817 991.105 294.879 993.758 294.879C996.33 294.879 998.58 295.817 1000.51 297.692C1002.44 299.541 1003.4 301.778 1003.4 304.403C1003.4 306.198 1002.95 307.833 1002.04 309.306C1001.15 310.753 999.987 311.905 998.54 312.762C997.093 313.619 995.499 314.048 993.758 314.048ZM1053.1 281.698V364H1035.7V298.215H1035.22L1016.37 310.029V294.598L1036.75 281.698H1053.1ZM1103.09 365.125C1097.08 365.125 1091.74 364.094 1087.05 362.031C1082.39 359.941 1078.71 357.075 1076 353.431C1073.32 349.761 1071.94 345.528 1071.86 340.732H1089.38C1089.49 342.741 1090.15 344.51 1091.35 346.037C1092.58 347.537 1094.22 348.702 1096.25 349.533C1098.29 350.363 1100.58 350.779 1103.13 350.779C1105.78 350.779 1108.12 350.31 1110.16 349.372C1112.19 348.434 1113.79 347.135 1114.94 345.474C1116.09 343.813 1116.67 341.897 1116.67 339.727C1116.67 337.53 1116.05 335.588 1114.82 333.9C1113.61 332.186 1111.87 330.846 1109.6 329.882C1107.34 328.917 1104.67 328.435 1101.56 328.435H1093.88V315.656H1101.56C1104.18 315.656 1106.5 315.2 1108.51 314.289C1110.55 313.378 1112.13 312.119 1113.25 310.512C1114.38 308.877 1114.94 306.975 1114.94 304.805C1114.94 302.742 1114.44 300.934 1113.45 299.38C1112.49 297.799 1111.12 296.567 1109.35 295.683C1107.61 294.799 1105.58 294.357 1103.25 294.357C1100.89 294.357 1098.73 294.785 1096.78 295.643C1094.82 296.473 1093.25 297.665 1092.07 299.219C1090.9 300.773 1090.27 302.595 1090.19 304.685H1073.51C1073.59 299.943 1074.94 295.763 1077.57 292.146C1080.19 288.53 1083.73 285.703 1088.18 283.667C1092.65 281.604 1097.7 280.573 1103.33 280.573C1109.01 280.573 1113.98 281.604 1118.24 283.667C1122.5 285.73 1125.8 288.516 1128.16 292.026C1130.55 295.509 1131.72 299.42 1131.7 303.76C1131.72 308.368 1130.29 312.213 1127.4 315.294C1124.53 318.375 1120.79 320.331 1116.19 321.161V321.804C1122.24 322.581 1126.85 324.684 1130.01 328.113C1133.2 331.516 1134.78 335.776 1134.75 340.893C1134.78 345.581 1133.43 349.747 1130.69 353.391C1127.99 357.034 1124.25 359.901 1119.48 361.991C1114.71 364.08 1109.25 365.125 1103.09 365.125Z" fill="black"/>
<path d="M286.199 465.341V557H275.099V465.341H286.199ZM370.394 558.432C363.95 558.432 358.4 556.91 353.746 553.867C349.091 550.824 345.511 546.632 343.004 541.291C340.498 535.95 339.245 529.848 339.245 522.986C339.245 516.004 340.528 509.843 343.094 504.502C345.69 499.131 349.3 494.939 353.925 491.926C358.579 488.882 364.009 487.361 370.215 487.361C375.049 487.361 379.405 488.256 383.284 490.046C387.163 491.836 390.34 494.343 392.817 497.565C395.293 500.787 396.83 504.547 397.427 508.843H386.864C386.059 505.71 384.269 502.936 381.494 500.519C378.749 498.072 375.049 496.849 370.394 496.849C366.277 496.849 362.667 497.923 359.564 500.071C356.49 502.19 354.089 505.188 352.358 509.067C350.657 512.916 349.807 517.436 349.807 522.628C349.807 527.939 350.642 532.564 352.313 536.502C354.014 540.441 356.401 543.499 359.474 545.677C362.577 547.855 366.217 548.944 370.394 548.944C373.139 548.944 375.631 548.467 377.869 547.512C380.106 546.557 382.001 545.185 383.553 543.394C385.104 541.604 386.208 539.456 386.864 536.95H397.427C396.83 541.007 395.353 544.662 392.996 547.915C390.669 551.137 387.58 553.703 383.732 555.613C379.912 557.492 375.467 558.432 370.394 558.432ZM433.097 558.611C428.74 558.611 424.787 557.791 421.236 556.15C417.686 554.479 414.866 552.077 412.778 548.944C410.689 545.781 409.645 541.962 409.645 537.487C409.645 533.548 410.421 530.356 411.972 527.909C413.524 525.433 415.597 523.493 418.193 522.091C420.789 520.689 423.653 519.644 426.786 518.958C429.949 518.242 433.126 517.675 436.319 517.257C440.496 516.72 443.883 516.317 446.478 516.049C449.104 515.751 451.014 515.258 452.207 514.572C453.43 513.886 454.042 512.692 454.042 510.992V510.634C454.042 506.218 452.834 502.786 450.417 500.34C448.03 497.893 444.405 496.67 439.541 496.67C434.499 496.67 430.546 497.774 427.681 499.982C424.817 502.19 422.803 504.547 421.639 507.053L411.614 503.473C413.404 499.296 415.791 496.043 418.775 493.716C421.788 491.359 425.07 489.718 428.621 488.793C432.201 487.838 435.722 487.361 439.183 487.361C441.391 487.361 443.927 487.629 446.792 488.166C449.686 488.674 452.476 489.733 455.161 491.344C457.876 492.955 460.129 495.387 461.919 498.639C463.709 501.891 464.604 506.248 464.604 511.708V557H454.042V547.691H453.505C452.789 549.183 451.595 550.779 449.925 552.48C448.254 554.18 446.031 555.628 443.256 556.821C440.481 558.014 437.095 558.611 433.097 558.611ZM434.708 549.123C438.885 549.123 442.406 548.303 445.27 546.662C448.164 545.021 450.342 542.902 451.804 540.306C453.296 537.71 454.042 534.98 454.042 532.116V522.449C453.595 522.986 452.61 523.478 451.088 523.926C449.596 524.344 447.866 524.717 445.897 525.045C443.957 525.343 442.063 525.612 440.213 525.85C438.393 526.059 436.916 526.238 435.782 526.387C433.037 526.745 430.471 527.327 428.084 528.133C425.727 528.909 423.817 530.087 422.355 531.669C420.923 533.22 420.207 535.338 420.207 538.024C420.207 541.694 421.565 544.469 424.28 546.348C427.025 548.198 430.501 549.123 434.708 549.123ZM494.445 515.646V557H483.883V488.256H494.087V498.997H494.982C496.593 495.506 499.04 492.702 502.322 490.583C505.604 488.435 509.841 487.361 515.032 487.361C519.687 487.361 523.76 488.316 527.251 490.225C530.741 492.105 533.457 494.969 535.396 498.818C537.335 502.637 538.305 507.471 538.305 513.319V557H527.743V514.035C527.743 508.634 526.34 504.427 523.536 501.414C520.731 498.371 516.882 496.849 511.989 496.849C508.617 496.849 505.604 497.58 502.948 499.042C500.323 500.504 498.249 502.637 496.727 505.442C495.206 508.247 494.445 511.648 494.445 515.646ZM619.01 558.432C613.281 558.432 608.224 556.985 603.838 554.091C599.452 551.167 596.021 547.049 593.544 541.738C591.068 536.398 589.83 530.087 589.83 522.807C589.83 515.586 591.068 509.321 593.544 504.01C596.021 498.699 599.467 494.596 603.883 491.702C608.299 488.808 613.401 487.361 619.189 487.361C623.665 487.361 627.2 488.107 629.796 489.599C632.422 491.061 634.421 492.731 635.793 494.611C637.196 496.461 638.285 497.983 639.06 499.176H639.955V465.341H650.518V557H640.314V546.438H639.06C638.285 547.691 637.181 549.272 635.748 551.182C634.316 553.062 632.272 554.747 629.617 556.239C626.962 557.701 623.426 558.432 619.01 558.432ZM620.442 548.944C624.679 548.944 628.259 547.84 631.183 545.632C634.107 543.394 636.33 540.306 637.852 536.368C639.374 532.4 640.134 527.82 640.134 522.628C640.134 517.496 639.389 513.006 637.897 509.157C636.405 505.278 634.197 502.264 631.273 500.116C628.349 497.938 624.739 496.849 620.442 496.849C615.967 496.849 612.237 497.998 609.253 500.295C606.299 502.563 604.077 505.651 602.585 509.559C601.123 513.438 600.392 517.794 600.392 522.628C600.392 527.521 601.138 531.967 602.63 535.965C604.151 539.933 606.389 543.096 609.343 545.453C612.327 547.78 616.026 548.944 620.442 548.944ZM699.256 558.432C693.05 558.432 687.605 556.955 682.921 554.001C678.266 551.048 674.626 546.915 672 541.604C669.404 536.293 668.107 530.087 668.107 522.986C668.107 515.825 669.404 509.574 672 504.234C674.626 498.893 678.266 494.745 682.921 491.792C687.605 488.838 693.05 487.361 699.256 487.361C705.462 487.361 710.893 488.838 715.547 491.792C720.232 494.745 723.872 498.893 726.467 504.234C729.093 509.574 730.406 515.825 730.406 522.986C730.406 530.087 729.093 536.293 726.467 541.604C723.872 546.915 720.232 551.048 715.547 554.001C710.893 556.955 705.462 558.432 699.256 558.432ZM699.256 548.944C703.97 548.944 707.849 547.736 710.893 545.319C713.936 542.902 716.189 539.724 717.651 535.786C719.113 531.848 719.844 527.581 719.844 522.986C719.844 518.391 719.113 514.11 717.651 510.141C716.189 506.173 713.936 502.965 710.893 500.519C707.849 498.072 703.97 496.849 699.256 496.849C694.542 496.849 690.663 498.072 687.62 500.519C684.576 502.965 682.324 506.173 680.862 510.141C679.4 514.11 678.669 518.391 678.669 522.986C678.669 527.581 679.4 531.848 680.862 535.786C682.324 539.724 684.576 542.902 687.62 545.319C690.663 547.736 694.542 548.944 699.256 548.944ZM802.205 558.611C797.848 558.611 793.895 557.791 790.344 556.15C786.794 554.479 783.974 552.077 781.886 548.944C779.797 545.781 778.753 541.962 778.753 537.487C778.753 533.548 779.529 530.356 781.08 527.909C782.632 525.433 784.705 523.493 787.301 522.091C789.897 520.689 792.761 519.644 795.894 518.958C799.057 518.242 802.234 517.675 805.427 517.257C809.604 516.72 812.991 516.317 815.586 516.049C818.212 515.751 820.122 515.258 821.315 514.572C822.538 513.886 823.15 512.692 823.15 510.992V510.634C823.15 506.218 821.942 502.786 819.525 500.34C817.138 497.893 813.513 496.67 808.649 496.67C803.607 496.67 799.653 497.774 796.789 499.982C793.925 502.19 791.911 504.547 790.747 507.053L780.722 503.473C782.512 499.296 784.899 496.043 787.883 493.716C790.896 491.359 794.178 489.718 797.729 488.793C801.309 487.838 804.83 487.361 808.291 487.361C810.499 487.361 813.035 487.629 815.9 488.166C818.794 488.674 821.584 489.733 824.269 491.344C826.984 492.955 829.237 495.387 831.027 498.639C832.817 501.891 833.712 506.248 833.712 511.708V557H823.15V547.691H822.613C821.897 549.183 820.703 550.779 819.032 552.48C817.362 554.18 815.139 555.628 812.364 556.821C809.589 558.014 806.203 558.611 802.205 558.611ZM803.816 549.123C807.993 549.123 811.514 548.303 814.378 546.662C817.272 545.021 819.45 542.902 820.912 540.306C822.404 537.71 823.15 534.98 823.15 532.116V522.449C822.702 522.986 821.718 523.478 820.196 523.926C818.704 524.344 816.974 524.717 815.005 525.045C813.065 525.343 811.17 525.612 809.321 525.85C807.501 526.059 806.024 526.238 804.89 526.387C802.145 526.745 799.579 527.327 797.192 528.133C794.835 528.909 792.925 530.087 791.463 531.669C790.031 533.22 789.315 535.338 789.315 538.024C789.315 541.694 790.673 544.469 793.388 546.348C796.133 548.198 799.609 549.123 803.816 549.123ZM863.553 465.341V557H852.991V465.341H863.553ZM893.461 465.341V557H882.898V465.341H893.461ZM978.149 488.256V497.207H942.523V488.256H978.149ZM952.907 471.786H963.469V537.308C963.469 540.291 963.902 542.529 964.767 544.021C965.662 545.483 966.796 546.468 968.168 546.975C969.571 547.452 971.048 547.691 972.599 547.691C973.763 547.691 974.717 547.631 975.463 547.512C976.209 547.363 976.806 547.243 977.254 547.154L979.402 556.642C978.686 556.91 977.686 557.179 976.403 557.448C975.12 557.746 973.494 557.895 971.525 557.895C968.541 557.895 965.617 557.254 962.753 555.971C959.918 554.688 957.561 552.733 955.682 550.108C953.832 547.482 952.907 544.17 952.907 540.172V471.786ZM1006.08 515.646V557H995.514V465.341H1006.08V498.997H1006.97C1008.58 495.447 1011 492.627 1014.22 490.538C1017.47 488.42 1021.8 487.361 1027.2 487.361C1031.88 487.361 1035.99 488.301 1039.51 490.18C1043.03 492.03 1045.76 494.88 1047.7 498.729C1049.67 502.548 1050.65 507.411 1050.65 513.319V557H1040.09V514.035C1040.09 508.575 1038.67 504.353 1035.84 501.369C1033.03 498.356 1029.14 496.849 1024.16 496.849C1020.7 496.849 1017.59 497.58 1014.85 499.042C1012.13 500.504 1009.98 502.637 1008.4 505.442C1006.85 508.247 1006.08 511.648 1006.08 515.646ZM1069.98 557V488.256H1080.54V557H1069.98ZM1075.35 476.799C1073.29 476.799 1071.51 476.097 1070.02 474.695C1068.56 473.293 1067.83 471.607 1067.83 469.638C1067.83 467.668 1068.56 465.983 1070.02 464.58C1071.51 463.178 1073.29 462.477 1075.35 462.477C1077.4 462.477 1079.17 463.178 1080.63 464.58C1082.12 465.983 1082.86 467.668 1082.86 469.638C1082.86 471.607 1082.12 473.293 1080.63 474.695C1079.17 476.097 1077.4 476.799 1075.35 476.799ZM1110.45 515.646V557H1099.88V488.256H1110.09V498.997H1110.98C1112.59 495.506 1115.04 492.702 1118.32 490.583C1121.6 488.435 1125.84 487.361 1131.03 487.361C1135.69 487.361 1139.76 488.316 1143.25 490.225C1146.74 492.105 1149.46 494.969 1151.4 498.818C1153.34 502.637 1154.31 507.471 1154.31 513.319V557H1143.74V514.035C1143.74 508.634 1142.34 504.427 1139.54 501.414C1136.73 498.371 1132.88 496.849 1127.99 496.849C1124.62 496.849 1121.6 497.58 1118.95 499.042C1116.32 500.504 1114.25 502.637 1112.73 505.442C1111.21 508.247 1110.45 511.648 1110.45 515.646ZM1201.35 584.211C1196.25 584.211 1191.87 583.555 1188.2 582.242C1184.53 580.959 1181.47 579.258 1179.02 577.14C1176.6 575.051 1174.68 572.814 1173.25 570.427L1181.66 564.519C1182.62 565.772 1183.83 567.204 1185.29 568.815C1186.75 570.456 1188.75 571.874 1191.28 573.067C1193.85 574.29 1197.21 574.902 1201.35 574.902C1206.9 574.902 1211.48 573.559 1215.09 570.874C1218.7 568.189 1220.51 563.982 1220.51 558.253V544.29H1219.61C1218.84 545.543 1217.73 547.094 1216.3 548.944C1214.9 550.764 1212.87 552.39 1210.22 553.822C1207.59 555.225 1204.04 555.926 1199.56 555.926C1194.01 555.926 1189.03 554.613 1184.62 551.987C1180.23 549.362 1176.75 545.543 1174.19 540.53C1171.65 535.517 1170.38 529.431 1170.38 522.27C1170.38 515.228 1171.62 509.097 1174.1 503.875C1176.57 498.624 1180.02 494.566 1184.44 491.702C1188.85 488.808 1193.95 487.361 1199.74 487.361C1204.22 487.361 1207.77 488.107 1210.39 489.599C1213.05 491.061 1215.08 492.731 1216.48 494.611C1217.91 496.461 1219.02 497.983 1219.79 499.176H1220.87V488.256H1231.07V558.969C1231.07 564.877 1229.73 569.681 1227.04 573.38C1224.39 577.11 1220.81 579.84 1216.3 581.571C1211.83 583.331 1206.84 584.211 1201.35 584.211ZM1201 546.438C1205.23 546.438 1208.81 545.468 1211.74 543.529C1214.66 541.589 1216.88 538.8 1218.41 535.159C1219.93 531.519 1220.69 527.163 1220.69 522.091C1220.69 517.138 1219.94 512.767 1218.45 508.978C1216.96 505.188 1214.75 502.22 1211.83 500.071C1208.9 497.923 1205.29 496.849 1201 496.849C1196.52 496.849 1192.79 497.983 1189.81 500.25C1186.85 502.518 1184.63 505.561 1183.14 509.38C1181.68 513.2 1180.95 517.436 1180.95 522.091C1180.95 526.865 1181.69 531.087 1183.18 534.757C1184.71 538.397 1186.94 541.261 1189.9 543.35C1192.88 545.408 1196.58 546.438 1201 546.438ZM1299.1 503.652L1289.61 506.337C1289.02 504.756 1288.13 503.219 1286.97 501.727C1285.84 500.206 1284.29 498.952 1282.32 497.968C1280.35 496.983 1277.83 496.491 1274.75 496.491C1270.55 496.491 1267.04 497.461 1264.24 499.4C1261.46 501.31 1260.07 503.741 1260.07 506.695C1260.07 509.321 1261.03 511.394 1262.94 512.916C1264.85 514.438 1267.83 515.706 1271.89 516.72L1282.09 519.227C1288.24 520.718 1292.82 523.001 1295.83 526.074C1298.85 529.117 1300.35 533.041 1300.35 537.845C1300.35 541.783 1299.22 545.304 1296.95 548.407C1294.71 551.51 1291.58 553.957 1287.55 555.747C1283.53 557.537 1278.84 558.432 1273.5 558.432C1266.49 558.432 1260.69 556.91 1256.09 553.867C1251.5 550.824 1248.59 546.378 1247.36 540.53L1257.39 538.024C1258.34 541.724 1260.15 544.498 1262.8 546.348C1265.49 548.198 1268.99 549.123 1273.32 549.123C1278.24 549.123 1282.15 548.079 1285.05 545.99C1287.97 543.872 1289.43 541.336 1289.43 538.382C1289.43 535.995 1288.6 533.996 1286.93 532.385C1285.26 530.744 1282.69 529.52 1279.23 528.715L1267.77 526.029C1261.48 524.538 1256.85 522.225 1253.9 519.092C1250.97 515.93 1249.51 511.976 1249.51 507.232C1249.51 503.353 1250.6 499.922 1252.78 496.938C1254.99 493.955 1257.98 491.613 1261.77 489.912C1265.59 488.211 1269.92 487.361 1274.75 487.361C1281.56 487.361 1286.9 488.853 1290.78 491.836C1294.68 494.82 1297.46 498.758 1299.1 503.652ZM1381.6 488.256V497.207H1345.97V488.256H1381.6ZM1356.35 471.786H1366.92V537.308C1366.92 540.291 1367.35 542.529 1368.21 544.021C1369.11 545.483 1370.24 546.468 1371.61 546.975C1373.02 547.452 1374.49 547.691 1376.05 547.691C1377.21 547.691 1378.16 547.631 1378.91 547.512C1379.66 547.363 1380.25 547.243 1380.7 547.154L1382.85 556.642C1382.13 556.91 1381.13 557.179 1379.85 557.448C1378.57 557.746 1376.94 557.895 1374.97 557.895C1371.99 557.895 1369.06 557.254 1366.2 555.971C1363.36 554.688 1361.01 552.733 1359.13 550.108C1357.28 547.482 1356.35 544.17 1356.35 540.172V471.786ZM1409.52 515.646V557H1398.96V465.341H1409.52V498.997H1410.42C1412.03 495.447 1414.45 492.627 1417.67 490.538C1420.92 488.42 1425.25 487.361 1430.65 487.361C1435.33 487.361 1439.43 488.301 1442.95 490.18C1446.48 492.03 1449.21 494.88 1451.14 498.729C1453.11 502.548 1454.1 507.411 1454.1 513.319V557H1443.54V514.035C1443.54 508.575 1442.12 504.353 1439.28 501.369C1436.48 498.356 1432.59 496.849 1427.6 496.849C1424.14 496.849 1421.04 497.58 1418.29 499.042C1415.58 500.504 1413.43 502.637 1411.85 505.442C1410.3 508.247 1409.52 511.648 1409.52 515.646ZM1473.42 557V488.256H1483.63V498.639H1484.34C1485.6 495.238 1487.86 492.478 1491.14 490.359C1494.43 488.241 1498.13 487.182 1502.24 487.182C1503.02 487.182 1503.99 487.197 1505.15 487.227C1506.32 487.256 1507.2 487.301 1507.79 487.361V498.102C1507.44 498.013 1506.62 497.878 1505.33 497.699C1504.08 497.49 1502.75 497.386 1501.35 497.386C1498.01 497.386 1495.02 498.087 1492.4 499.489C1489.8 500.862 1487.74 502.772 1486.22 505.218C1484.73 507.635 1483.98 510.395 1483.98 513.498V557H1473.42ZM1546.15 558.432C1539.94 558.432 1534.5 556.955 1529.81 554.001C1525.16 551.048 1521.52 546.915 1518.89 541.604C1516.3 536.293 1515 530.087 1515 522.986C1515 515.825 1516.3 509.574 1518.89 504.234C1521.52 498.893 1525.16 494.745 1529.81 491.792C1534.5 488.838 1539.94 487.361 1546.15 487.361C1552.36 487.361 1557.79 488.838 1562.44 491.792C1567.12 494.745 1570.76 498.893 1573.36 504.234C1575.99 509.574 1577.3 515.825 1577.3 522.986C1577.3 530.087 1575.99 536.293 1573.36 541.604C1570.76 546.915 1567.12 551.048 1562.44 554.001C1557.79 556.955 1552.36 558.432 1546.15 558.432ZM1546.15 548.944C1550.86 548.944 1554.74 547.736 1557.79 545.319C1560.83 542.902 1563.08 539.724 1564.54 535.786C1566.01 531.848 1566.74 527.581 1566.74 522.986C1566.74 518.391 1566.01 514.11 1564.54 510.141C1563.08 506.173 1560.83 502.965 1557.79 500.519C1554.74 498.072 1550.86 496.849 1546.15 496.849C1541.43 496.849 1537.56 498.072 1534.51 500.519C1531.47 502.965 1529.22 506.173 1527.75 510.141C1526.29 514.11 1525.56 518.391 1525.56 522.986C1525.56 527.581 1526.29 531.848 1527.75 535.786C1529.22 539.724 1531.47 542.902 1534.51 545.319C1537.56 547.736 1541.43 548.944 1546.15 548.944ZM1636.74 528.894V488.256H1647.31V557H1636.74V545.364H1636.03C1634.42 548.855 1631.91 551.823 1628.51 554.27C1625.11 556.687 1620.81 557.895 1615.62 557.895C1611.32 557.895 1607.5 556.955 1604.16 555.076C1600.82 553.166 1598.2 550.302 1596.29 546.483C1594.38 542.634 1593.42 537.785 1593.42 531.937V488.256H1603.98V531.221C1603.98 536.234 1605.39 540.232 1608.19 543.215C1611.03 546.199 1614.64 547.691 1619.02 547.691C1621.65 547.691 1624.32 547.02 1627.03 545.677C1629.78 544.334 1632.08 542.276 1633.93 539.501C1635.81 536.726 1636.74 533.19 1636.74 528.894ZM1694.4 584.211C1689.3 584.211 1684.91 583.555 1681.24 582.242C1677.57 580.959 1674.51 579.258 1672.07 577.14C1669.65 575.051 1667.73 572.814 1666.29 570.427L1674.71 564.519C1675.66 565.772 1676.87 567.204 1678.33 568.815C1679.8 570.456 1681.79 571.874 1684.33 573.067C1686.9 574.29 1690.25 574.902 1694.4 574.902C1699.95 574.902 1704.53 573.559 1708.14 570.874C1711.75 568.189 1713.56 563.982 1713.56 558.253V544.29H1712.66C1711.89 545.543 1710.78 547.094 1709.35 548.944C1707.95 550.764 1705.92 552.39 1703.26 553.822C1700.64 555.225 1697.09 555.926 1692.61 555.926C1687.06 555.926 1682.08 554.613 1677.66 551.987C1673.28 549.362 1669.8 545.543 1667.23 540.53C1664.7 535.517 1663.43 529.431 1663.43 522.27C1663.43 515.228 1664.67 509.097 1667.14 503.875C1669.62 498.624 1673.07 494.566 1677.48 491.702C1681.9 488.808 1687 487.361 1692.79 487.361C1697.27 487.361 1700.82 488.107 1703.44 489.599C1706.1 491.061 1708.13 492.731 1709.53 494.611C1710.96 496.461 1712.06 497.983 1712.84 499.176H1713.91V488.256H1724.12V558.969C1724.12 564.877 1722.78 569.681 1720.09 573.38C1717.43 577.11 1713.85 579.84 1709.35 581.571C1704.87 583.331 1699.89 584.211 1694.4 584.211ZM1694.04 546.438C1698.28 546.438 1701.86 545.468 1704.78 543.529C1707.71 541.589 1709.93 538.8 1711.45 535.159C1712.97 531.519 1713.74 527.163 1713.74 522.091C1713.74 517.138 1712.99 512.767 1711.5 508.978C1710.01 505.188 1707.8 502.22 1704.87 500.071C1701.95 497.923 1698.34 496.849 1694.04 496.849C1689.57 496.849 1685.84 497.983 1682.85 500.25C1679.9 502.518 1677.68 505.561 1676.19 509.38C1674.72 513.2 1673.99 517.436 1673.99 522.091C1673.99 526.865 1674.74 531.087 1676.23 534.757C1677.75 538.397 1679.99 541.261 1682.94 543.35C1685.93 545.408 1689.63 546.438 1694.04 546.438ZM1754.01 515.646V557H1743.45V465.341H1754.01V498.997H1754.91C1756.52 495.447 1758.94 492.627 1762.16 490.538C1765.41 488.42 1769.74 487.361 1775.14 487.361C1779.82 487.361 1783.93 488.301 1787.45 490.18C1790.97 492.03 1793.7 494.88 1795.64 498.729C1797.61 502.548 1798.59 507.411 1798.59 513.319V557H1788.03V514.035C1788.03 508.575 1786.61 504.353 1783.78 501.369C1780.97 498.356 1777.08 496.849 1772.1 496.849C1768.63 496.849 1765.53 497.58 1762.79 499.042C1760.07 500.504 1757.92 502.637 1756.34 505.442C1754.79 508.247 1754.01 511.648 1754.01 515.646ZM1928.55 493.985H1917.45C1916.79 490.792 1915.64 487.987 1914 485.571C1912.39 483.154 1910.42 481.125 1908.1 479.484C1905.8 477.813 1903.25 476.56 1900.44 475.724C1897.64 474.889 1894.71 474.471 1891.67 474.471C1886.12 474.471 1881.09 475.874 1876.59 478.678C1872.11 481.483 1868.55 485.615 1865.89 491.075C1863.27 496.536 1861.95 503.234 1861.95 511.171C1861.95 519.107 1863.27 525.806 1865.89 531.266C1868.55 536.726 1872.11 540.858 1876.59 543.663C1881.09 546.468 1886.12 547.87 1891.67 547.87C1894.71 547.87 1897.64 547.452 1900.44 546.617C1903.25 545.781 1905.8 544.543 1908.1 542.902C1910.42 541.231 1912.39 539.187 1914 536.771C1915.64 534.324 1916.79 531.519 1917.45 528.357H1928.55C1927.71 533.041 1926.19 537.233 1923.98 540.933C1921.78 544.633 1919.03 547.78 1915.75 550.376C1912.47 552.942 1908.78 554.897 1904.69 556.239C1900.64 557.582 1896.3 558.253 1891.67 558.253C1883.85 558.253 1876.9 556.344 1870.81 552.524C1864.73 548.705 1859.94 543.275 1856.45 536.234C1852.96 529.192 1851.21 520.838 1851.21 511.171C1851.21 501.503 1852.96 493.149 1856.45 486.108C1859.94 479.066 1864.73 473.636 1870.81 469.817C1876.9 465.998 1883.85 464.088 1891.67 464.088C1896.3 464.088 1900.64 464.759 1904.69 466.102C1908.78 467.445 1912.47 469.414 1915.75 472.01C1919.03 474.576 1921.78 477.709 1923.98 481.408C1926.19 485.078 1927.71 489.27 1928.55 493.985ZM1955.62 515.646V557H1945.05V465.341H1955.62V498.997H1956.51C1958.12 495.447 1960.54 492.627 1963.76 490.538C1967.01 488.42 1971.34 487.361 1976.74 487.361C1981.42 487.361 1985.53 488.301 1989.05 490.18C1992.57 492.03 1995.3 494.88 1997.24 498.729C1999.21 502.548 2000.19 507.411 2000.19 513.319V557H1989.63V514.035C1989.63 508.575 1988.21 504.353 1985.38 501.369C1982.57 498.356 1978.68 496.849 1973.7 496.849C1970.24 496.849 1967.13 497.58 1964.39 499.042C1961.67 500.504 1959.52 502.637 1957.94 505.442C1956.39 508.247 1955.62 511.648 1955.62 515.646ZM2019.51 557V488.256H2029.72V498.639H2030.43C2031.69 495.238 2033.96 492.478 2037.24 490.359C2040.52 488.241 2044.22 487.182 2048.34 487.182C2049.11 487.182 2050.08 487.197 2051.25 487.227C2052.41 487.256 2053.29 487.301 2053.89 487.361V498.102C2053.53 498.013 2052.71 497.878 2051.42 497.699C2050.17 497.49 2048.84 497.386 2047.44 497.386C2044.1 497.386 2041.12 498.087 2038.49 499.489C2035.89 500.862 2033.84 502.772 2032.31 505.218C2030.82 507.635 2030.08 510.395 2030.08 513.498V557H2019.51ZM2066.41 557V488.256H2076.97V557H2066.41ZM2071.78 476.799C2069.72 476.799 2067.94 476.097 2066.45 474.695C2064.99 473.293 2064.26 471.607 2064.26 469.638C2064.26 467.668 2064.99 465.983 2066.45 464.58C2067.94 463.178 2069.72 462.477 2071.78 462.477C2073.84 462.477 2075.6 463.178 2077.06 464.58C2078.55 465.983 2079.3 467.668 2079.3 469.638C2079.3 471.607 2078.55 473.293 2077.06 474.695C2075.6 476.097 2073.84 476.799 2071.78 476.799ZM2145.01 503.652L2135.52 506.337C2134.92 504.756 2134.04 503.219 2132.88 501.727C2131.75 500.206 2130.19 498.952 2128.22 497.968C2126.26 496.983 2123.73 496.491 2120.66 496.491C2116.45 496.491 2112.95 497.461 2110.14 499.4C2107.37 501.31 2105.98 503.741 2105.98 506.695C2105.98 509.321 2106.94 511.394 2108.85 512.916C2110.76 514.438 2113.74 515.706 2117.8 516.72L2128 519.227C2134.15 520.718 2138.73 523.001 2141.74 526.074C2144.75 529.117 2146.26 533.041 2146.26 537.845C2146.26 541.783 2145.13 545.304 2142.86 548.407C2140.62 551.51 2137.49 553.957 2133.46 555.747C2129.43 557.537 2124.75 558.432 2119.41 558.432C2112.4 558.432 2106.59 556.91 2102 553.867C2097.4 550.824 2094.49 546.378 2093.27 540.53L2103.3 538.024C2104.25 541.724 2106.06 544.498 2108.71 546.348C2111.4 548.198 2114.9 549.123 2119.23 549.123C2124.15 549.123 2128.06 548.079 2130.95 545.99C2133.88 543.872 2135.34 541.336 2135.34 538.382C2135.34 535.995 2134.51 533.996 2132.83 532.385C2131.16 530.744 2128.6 529.52 2125.14 528.715L2113.68 526.029C2107.38 524.538 2102.76 522.225 2099.81 519.092C2096.88 515.93 2095.42 511.976 2095.42 507.232C2095.42 503.353 2096.51 499.922 2098.69 496.938C2100.89 493.955 2103.89 491.613 2107.68 489.912C2111.5 488.211 2115.83 487.361 2120.66 487.361C2127.46 487.361 2132.8 488.853 2136.68 491.836C2140.59 494.82 2143.37 498.758 2145.01 503.652ZM2192.06 488.256V497.207H2156.43V488.256H2192.06ZM2166.82 471.786H2177.38V537.308C2177.38 540.291 2177.81 542.529 2178.68 544.021C2179.57 545.483 2180.7 546.468 2182.08 546.975C2183.48 547.452 2184.96 547.691 2186.51 547.691C2187.67 547.691 2188.63 547.631 2189.37 547.512C2190.12 547.363 2190.71 547.243 2191.16 547.154L2193.31 556.642C2192.59 556.91 2191.59 557.179 2190.31 557.448C2189.03 557.746 2187.4 557.895 2185.43 557.895C2182.45 557.895 2179.53 557.254 2176.66 555.971C2173.83 554.688 2171.47 552.733 2169.59 550.108C2167.74 547.482 2166.82 544.17 2166.82 540.172V471.786ZM289.242 710L268.297 641.256H279.396L294.255 693.888H294.971L309.65 641.256H320.929L335.429 693.709H336.145L351.004 641.256H362.104L341.158 710H330.775L315.737 657.189H314.663L299.625 710H289.242ZM386.629 668.646V710H376.067V618.341H386.629V651.997H387.525C389.136 648.447 391.553 645.627 394.775 643.538C398.027 641.42 402.353 640.361 407.754 640.361C412.438 640.361 416.541 641.301 420.062 643.18C423.582 645.03 426.312 647.88 428.252 651.729C430.221 655.548 431.206 660.411 431.206 666.319V710H420.643V667.035C420.643 661.575 419.226 657.353 416.392 654.369C413.587 651.356 409.693 649.849 404.711 649.849C401.25 649.849 398.146 650.58 395.401 652.042C392.686 653.504 390.538 655.637 388.957 658.442C387.405 661.247 386.629 664.648 386.629 668.646ZM478.456 711.432C472.25 711.432 466.805 709.955 462.12 707.001C457.466 704.048 453.826 699.915 451.2 694.604C448.604 689.293 447.306 683.087 447.306 675.986C447.306 668.825 448.604 662.574 451.2 657.234C453.826 651.893 457.466 647.745 462.12 644.792C466.805 641.838 472.25 640.361 478.456 640.361C484.662 640.361 490.092 641.838 494.747 644.792C499.431 647.745 503.071 651.893 505.667 657.234C508.293 662.574 509.606 668.825 509.606 675.986C509.606 683.087 508.293 689.293 505.667 694.604C503.071 699.915 499.431 704.048 494.747 707.001C490.092 709.955 484.662 711.432 478.456 711.432ZM478.456 701.944C483.17 701.944 487.049 700.736 490.092 698.319C493.136 695.902 495.388 692.724 496.85 688.786C498.313 684.848 499.044 680.581 499.044 675.986C499.044 671.391 498.313 667.11 496.85 663.141C495.388 659.173 493.136 655.965 490.092 653.519C487.049 651.072 483.17 649.849 478.456 649.849C473.742 649.849 469.863 651.072 466.82 653.519C463.776 655.965 461.524 659.173 460.062 663.141C458.6 667.11 457.869 671.391 457.869 675.986C457.869 680.581 458.6 684.848 460.062 688.786C461.524 692.724 463.776 695.902 466.82 698.319C469.863 700.736 473.742 701.944 478.456 701.944ZM609.869 656.652L600.381 659.337C599.784 657.756 598.904 656.219 597.74 654.727C596.606 653.206 595.055 651.952 593.086 650.968C591.116 649.983 588.595 649.491 585.522 649.491C581.315 649.491 577.809 650.461 575.004 652.4C572.23 654.31 570.842 656.741 570.842 659.695C570.842 662.321 571.797 664.394 573.706 665.916C575.616 667.438 578.6 668.706 582.658 669.72L592.862 672.227C599.008 673.718 603.588 676.001 606.602 679.074C609.615 682.117 611.122 686.041 611.122 690.845C611.122 694.783 609.988 698.304 607.72 701.407C605.483 704.51 602.35 706.957 598.322 708.747C594.294 710.537 589.61 711.432 584.269 711.432C577.257 711.432 571.454 709.91 566.859 706.867C562.264 703.824 559.355 699.378 558.132 693.53L568.157 691.024C569.112 694.724 570.917 697.498 573.572 699.348C576.258 701.198 579.763 702.123 584.09 702.123C589.013 702.123 592.921 701.079 595.816 698.99C598.74 696.872 600.202 694.336 600.202 691.382C600.202 688.995 599.366 686.996 597.695 685.385C596.024 683.744 593.458 682.52 589.997 681.715L578.54 679.029C572.244 677.538 567.62 675.225 564.666 672.092C561.742 668.93 560.28 664.976 560.28 660.232C560.28 656.353 561.369 652.922 563.547 649.938C565.755 646.955 568.754 644.613 572.543 642.912C576.362 641.211 580.688 640.361 585.522 640.361C592.325 640.361 597.665 641.853 601.544 644.836C605.453 647.82 608.228 651.758 609.869 656.652ZM656.918 641.256V650.207H621.293V641.256H656.918ZM631.676 624.786H642.238V690.308C642.238 693.291 642.671 695.529 643.536 697.021C644.431 698.483 645.565 699.468 646.937 699.975C648.34 700.452 649.817 700.691 651.368 700.691C652.532 700.691 653.486 700.631 654.232 700.512C654.978 700.363 655.575 700.243 656.023 700.154L658.171 709.642C657.455 709.91 656.455 710.179 655.172 710.448C653.889 710.746 652.263 710.895 650.294 710.895C647.31 710.895 644.386 710.254 641.522 708.971C638.687 707.688 636.33 705.733 634.451 703.108C632.601 700.482 631.676 697.17 631.676 693.172V624.786ZM672.806 710V641.256H683.01V651.639H683.726C684.979 648.238 687.247 645.478 690.529 643.359C693.811 641.241 697.511 640.182 701.628 640.182C702.404 640.182 703.374 640.197 704.537 640.227C705.701 640.256 706.581 640.301 707.178 640.361V651.102C706.82 651.013 705.999 650.878 704.716 650.699C703.463 650.49 702.135 650.386 700.733 650.386C697.391 650.386 694.408 651.087 691.782 652.489C689.186 653.862 687.128 655.772 685.606 658.218C684.114 660.635 683.368 663.395 683.368 666.498V710H672.806ZM746.428 711.432C739.804 711.432 734.091 709.97 729.287 707.046C724.513 704.092 720.828 699.975 718.232 694.694C715.666 689.383 714.383 683.207 714.383 676.165C714.383 669.124 715.666 662.917 718.232 657.547C720.828 652.146 724.438 647.939 729.063 644.926C733.718 641.882 739.148 640.361 745.354 640.361C748.935 640.361 752.47 640.958 755.961 642.151C759.452 643.344 762.63 645.284 765.494 647.969C768.358 650.625 770.641 654.145 772.342 658.531C774.042 662.917 774.893 668.318 774.893 674.733V679.208H721.902V670.078H764.151C764.151 666.2 763.376 662.738 761.824 659.695C760.302 656.652 758.124 654.25 755.29 652.489C752.485 650.729 749.173 649.849 745.354 649.849C741.147 649.849 737.507 650.893 734.434 652.982C731.39 655.041 729.048 657.726 727.407 661.038C725.766 664.35 724.946 667.9 724.946 671.689V677.776C724.946 682.968 725.841 687.369 727.631 690.979C729.451 694.559 731.972 697.29 735.195 699.169C738.417 701.019 742.162 701.944 746.428 701.944C749.203 701.944 751.709 701.556 753.947 700.78C756.215 699.975 758.169 698.781 759.81 697.2C761.451 695.589 762.719 693.59 763.614 691.203L773.818 694.067C772.744 697.528 770.939 700.572 768.403 703.197C765.867 705.793 762.734 707.822 759.004 709.284C755.275 710.716 751.083 711.432 746.428 711.432ZM801.522 668.646V710H790.96V641.256H801.164V651.997H802.059C803.67 648.506 806.117 645.702 809.399 643.583C812.681 641.435 816.918 640.361 822.109 640.361C826.764 640.361 830.837 641.316 834.328 643.225C837.819 645.105 840.534 647.969 842.473 651.818C844.412 655.637 845.382 660.471 845.382 666.319V710H834.82V667.035C834.82 661.634 833.418 657.427 830.613 654.414C827.808 651.371 823.959 649.849 819.066 649.849C815.694 649.849 812.681 650.58 810.025 652.042C807.4 653.504 805.326 655.637 803.805 658.442C802.283 661.247 801.522 664.648 801.522 668.646ZM892.431 737.211C887.329 737.211 882.943 736.555 879.273 735.242C875.603 733.959 872.545 732.258 870.098 730.14C867.681 728.051 865.757 725.814 864.325 723.427L872.739 717.519C873.694 718.772 874.902 720.204 876.364 721.815C877.826 723.456 879.825 724.874 882.361 726.067C884.927 727.29 888.284 727.902 892.431 727.902C897.981 727.902 902.561 726.559 906.171 723.874C909.781 721.189 911.586 716.982 911.586 711.253V697.29H910.691C909.916 698.543 908.812 700.094 907.379 701.944C905.977 703.764 903.948 705.39 901.293 706.822C898.667 708.225 895.116 708.926 890.641 708.926C885.091 708.926 880.109 707.613 875.693 704.987C871.307 702.362 867.831 698.543 865.265 693.53C862.729 688.517 861.461 682.431 861.461 675.27C861.461 668.228 862.699 662.097 865.175 656.875C867.652 651.624 871.098 647.566 875.514 644.702C879.93 641.808 885.032 640.361 890.82 640.361C895.295 640.361 898.846 641.107 901.472 642.599C904.127 644.061 906.156 645.731 907.558 647.611C908.991 649.461 910.095 650.983 910.87 652.176H911.944V641.256H922.149V711.969C922.149 717.877 920.806 722.681 918.121 726.38C915.465 730.11 911.885 732.84 907.379 734.571C902.904 736.331 897.921 737.211 892.431 737.211ZM892.073 699.438C896.31 699.438 899.89 698.468 902.814 696.529C905.738 694.589 907.961 691.8 909.483 688.159C911.005 684.519 911.765 680.163 911.765 675.091C911.765 670.138 911.02 665.767 909.528 661.978C908.036 658.188 905.828 655.22 902.904 653.071C899.98 650.923 896.37 649.849 892.073 649.849C887.598 649.849 883.868 650.983 880.884 653.25C877.93 655.518 875.708 658.561 874.216 662.38C872.754 666.2 872.023 670.436 872.023 675.091C872.023 679.865 872.769 684.087 874.261 687.757C875.782 691.397 878.02 694.261 880.974 696.35C883.957 698.408 887.657 699.438 892.073 699.438ZM971.379 641.256V650.207H935.754V641.256H971.379ZM946.137 624.786H956.7V690.308C956.7 693.291 957.132 695.529 957.998 697.021C958.893 698.483 960.027 699.468 961.399 699.975C962.801 700.452 964.278 700.691 965.83 700.691C966.993 700.691 967.948 700.631 968.694 700.512C969.44 700.363 970.037 700.243 970.484 700.154L972.633 709.642C971.917 709.91 970.917 710.179 969.634 710.448C968.351 710.746 966.725 710.895 964.756 710.895C961.772 710.895 958.848 710.254 955.984 708.971C953.149 707.688 950.792 705.733 948.912 703.108C947.062 700.482 946.137 697.17 946.137 693.172V624.786ZM999.307 668.646V710H988.744V618.341H999.307V651.997H1000.2C1001.81 648.447 1004.23 645.627 1007.45 643.538C1010.7 641.42 1015.03 640.361 1020.43 640.361C1025.12 640.361 1029.22 641.301 1032.74 643.18C1036.26 645.03 1038.99 647.88 1040.93 651.729C1042.9 655.548 1043.88 660.411 1043.88 666.319V710H1033.32V667.035C1033.32 661.575 1031.9 657.353 1029.07 654.369C1026.26 651.356 1022.37 649.849 1017.39 649.849C1013.93 649.849 1010.82 650.58 1008.08 652.042C1005.36 653.504 1003.22 655.637 1001.63 658.442C1000.08 661.247 999.307 664.648 999.307 668.646ZM1092.03 711.432C1085.4 711.432 1079.69 709.97 1074.89 707.046C1070.11 704.092 1066.43 699.975 1063.83 694.694C1061.27 689.383 1059.98 683.207 1059.98 676.165C1059.98 669.124 1061.27 662.917 1063.83 657.547C1066.43 652.146 1070.04 647.939 1074.66 644.926C1079.32 641.882 1084.75 640.361 1090.95 640.361C1094.53 640.361 1098.07 640.958 1101.56 642.151C1105.05 643.344 1108.23 645.284 1111.09 647.969C1113.96 650.625 1116.24 654.145 1117.94 658.531C1119.64 662.917 1120.49 668.318 1120.49 674.733V679.208H1067.5V670.078H1109.75C1109.75 666.2 1108.98 662.738 1107.42 659.695C1105.9 656.652 1103.72 654.25 1100.89 652.489C1098.09 650.729 1094.77 649.849 1090.95 649.849C1086.75 649.849 1083.11 650.893 1080.03 652.982C1076.99 655.041 1074.65 657.726 1073.01 661.038C1071.37 664.35 1070.55 667.9 1070.55 671.689V677.776C1070.55 682.968 1071.44 687.369 1073.23 690.979C1075.05 694.559 1077.57 697.29 1080.79 699.169C1084.02 701.019 1087.76 701.944 1092.03 701.944C1094.8 701.944 1097.31 701.556 1099.55 700.78C1101.81 699.975 1103.77 698.781 1105.41 697.2C1107.05 695.589 1108.32 693.59 1109.21 691.203L1119.42 694.067C1118.34 697.528 1116.54 700.572 1114 703.197C1111.47 705.793 1108.33 707.822 1104.6 709.284C1100.88 710.716 1096.68 711.432 1092.03 711.432ZM1147.12 668.646V710H1136.56V641.256H1146.76V651.997H1147.66C1149.27 648.506 1151.72 645.702 1155 643.583C1158.28 641.435 1162.52 640.361 1167.71 640.361C1172.36 640.361 1176.44 641.316 1179.93 643.225C1183.42 645.105 1186.13 647.969 1188.07 651.818C1190.01 655.637 1190.98 660.471 1190.98 666.319V710H1180.42V667.035C1180.42 661.634 1179.02 657.427 1176.21 654.414C1173.41 651.371 1169.56 649.849 1164.67 649.849C1161.29 649.849 1158.28 650.58 1155.63 652.042C1153 653.504 1150.93 655.637 1149.4 658.442C1147.88 661.247 1147.12 664.648 1147.12 668.646ZM1258.98 656.652L1249.49 659.337C1248.89 657.756 1248.01 656.219 1246.85 654.727C1245.71 653.206 1244.16 651.952 1242.19 650.968C1240.22 649.983 1237.7 649.491 1234.63 649.491C1230.42 649.491 1226.92 650.461 1224.11 652.4C1221.34 654.31 1219.95 656.741 1219.95 659.695C1219.95 662.321 1220.91 664.394 1222.81 665.916C1224.72 667.438 1227.71 668.706 1231.77 669.72L1241.97 672.227C1248.12 673.718 1252.7 676.001 1255.71 679.074C1258.72 682.117 1260.23 686.041 1260.23 690.845C1260.23 694.783 1259.1 698.304 1256.83 701.407C1254.59 704.51 1251.46 706.957 1247.43 708.747C1243.4 710.537 1238.72 711.432 1233.38 711.432C1226.37 711.432 1220.56 709.91 1215.97 706.867C1211.37 703.824 1208.46 699.378 1207.24 693.53L1217.26 691.024C1218.22 694.724 1220.02 697.498 1222.68 699.348C1225.37 701.198 1228.87 702.123 1233.2 702.123C1238.12 702.123 1242.03 701.079 1244.92 698.99C1247.85 696.872 1249.31 694.336 1249.31 691.382C1249.31 688.995 1248.47 686.996 1246.8 685.385C1245.13 683.744 1242.57 682.52 1239.11 681.715L1227.65 679.029C1221.35 677.538 1216.73 675.225 1213.77 672.092C1210.85 668.93 1209.39 664.976 1209.39 660.232C1209.39 656.353 1210.48 652.922 1212.66 649.938C1214.86 646.955 1217.86 644.613 1221.65 642.912C1225.47 641.211 1229.8 640.361 1234.63 640.361C1241.43 640.361 1246.77 641.853 1250.65 644.836C1254.56 647.82 1257.34 651.758 1258.98 656.652ZM1311.58 710V641.256H1321.78V651.997H1322.67C1324.11 648.327 1326.42 645.478 1329.61 643.449C1332.8 641.39 1336.64 640.361 1341.11 640.361C1345.65 640.361 1349.42 641.39 1352.44 643.449C1355.48 645.478 1357.85 648.327 1359.55 651.997H1360.27C1362.03 648.447 1364.67 645.627 1368.19 643.538C1371.71 641.42 1375.93 640.361 1380.86 640.361C1387 640.361 1392.03 642.285 1395.94 646.134C1399.85 649.953 1401.8 655.906 1401.8 663.992V710H1391.24V663.992C1391.24 658.919 1389.85 655.294 1387.08 653.116C1384.3 650.938 1381.04 649.849 1377.28 649.849C1372.44 649.849 1368.7 651.311 1366.04 654.235C1363.39 657.129 1362.06 660.799 1362.06 665.245V710H1351.32V662.917C1351.32 659.009 1350.05 655.861 1347.51 653.474C1344.98 651.057 1341.71 649.849 1337.71 649.849C1334.97 649.849 1332.4 650.58 1330.01 652.042C1327.66 653.504 1325.75 655.533 1324.29 658.129C1322.85 660.695 1322.14 663.663 1322.14 667.035V710H1311.58ZM1449.94 711.432C1443.31 711.432 1437.6 709.97 1432.8 707.046C1428.02 704.092 1424.34 699.975 1421.74 694.694C1419.17 689.383 1417.89 683.207 1417.89 676.165C1417.89 669.124 1419.17 662.917 1421.74 657.547C1424.34 652.146 1427.95 647.939 1432.57 644.926C1437.23 641.882 1442.66 640.361 1448.86 640.361C1452.44 640.361 1455.98 640.958 1459.47 642.151C1462.96 643.344 1466.14 645.284 1469 647.969C1471.87 650.625 1474.15 654.145 1475.85 658.531C1477.55 662.917 1478.4 668.318 1478.4 674.733V679.208H1425.41V670.078H1467.66C1467.66 666.2 1466.88 662.738 1465.33 659.695C1463.81 656.652 1461.63 654.25 1458.8 652.489C1455.99 650.729 1452.68 649.849 1448.86 649.849C1444.66 649.849 1441.02 650.893 1437.94 652.982C1434.9 655.041 1432.56 657.726 1430.92 661.038C1429.27 664.35 1428.45 667.9 1428.45 671.689V677.776C1428.45 682.968 1429.35 687.369 1431.14 690.979C1432.96 694.559 1435.48 697.29 1438.7 699.169C1441.93 701.019 1445.67 701.944 1449.94 701.944C1452.71 701.944 1455.22 701.556 1457.46 700.78C1459.72 699.975 1461.68 698.781 1463.32 697.2C1464.96 695.589 1466.23 693.59 1467.12 691.203L1477.33 694.067C1476.25 697.528 1474.45 700.572 1471.91 703.197C1469.38 705.793 1466.24 707.822 1462.51 709.284C1458.78 710.716 1454.59 711.432 1449.94 711.432Z" fill="black"/>
<defs>
<filter id="filter0_d_1837_1504" x="0.638607" y="0.341732" width="2656.56" height="1218.11" filterUnits="userSpaceOnUse" color-interpolation-filters="sRGB">
<feFlood flood-opacity="0" result="BackgroundImageFix"/>
<feColorMatrix in="SourceAlpha" type="matrix" values="0 0 0 0 0 0 0 0 0 0 0 0 0 0 0 0 0 0 127 0" result="hardAlpha"/>
<feOffset dx="-31.1205" dy="56.5827"/>
<feGaussianBlur stdDeviation="31.1205"/>
<feComposite in2="hardAlpha" operator="out"/>
<feColorMatrix type="matrix" values="0 0 0 0 0 0 0 0 0 0 0 0 0 0 0 0 0 0 0.25 0"/>
<feBlend mode="normal" in2="BackgroundImageFix" result="effect1_dropShadow_1837_1504"/>
<feBlend mode="normal" in="SourceGraphic" in2="effect1_dropShadow_1837_1504" result="shape"/>
</filter>
</defs>
</svg>
