<svg width="2658" height="1219" viewBox="0 0 2658 1219" fill="none" xmlns="http://www.w3.org/2000/svg">
<g filter="url(#filter0_d_1907_2125)">
<path d="M2626.07 6.19531L94 6.35763L94 1063.04L194.434 1041.82L327.403 1099.82L457.544 1041.82L541.003 1063.04L774.407 997.969L990.835 1063.04L1142.19 976.75L1326.09 1030.5L1576.47 997.969L1914.55 1063.04L2029.13 976.75L2256.87 1030.5L2374.28 1010.7L2626.07 1041.66V6.19531Z" fill="#A9A6A1"/>
</g>
<path d="M286.199 520.427V612.086H275.099V520.427H286.199ZM370.394 613.518C363.95 613.518 358.4 611.996 353.746 608.953C349.091 605.91 345.511 601.718 343.004 596.377C340.498 591.036 339.245 584.934 339.245 578.072C339.245 571.09 340.528 564.929 343.094 559.588C345.69 554.217 349.3 550.025 353.925 547.012C358.579 543.968 364.009 542.447 370.215 542.447C375.049 542.447 379.405 543.342 383.284 545.132C387.163 546.922 390.34 549.429 392.817 552.651C395.293 555.873 396.83 559.633 397.427 563.929H386.864C386.059 560.796 384.269 558.022 381.494 555.605C378.749 553.158 375.049 551.935 370.394 551.935C366.277 551.935 362.667 553.009 359.564 555.157C356.49 557.276 354.089 560.274 352.358 564.153C350.657 568.002 349.807 572.522 349.807 577.714C349.807 583.025 350.642 587.65 352.313 591.588C354.014 595.526 356.401 598.585 359.474 600.763C362.577 602.941 366.217 604.03 370.394 604.03C373.139 604.03 375.631 603.553 377.869 602.598C380.106 601.643 382.001 600.271 383.553 598.48C385.104 596.69 386.208 594.542 386.864 592.036H397.427C396.83 596.093 395.353 599.748 392.996 603.001C390.669 606.223 387.58 608.789 383.732 610.699C379.912 612.578 375.467 613.518 370.394 613.518ZM433.097 613.697C428.74 613.697 424.787 612.877 421.236 611.236C417.686 609.565 414.866 607.163 412.778 604.03C410.689 600.867 409.645 597.048 409.645 592.573C409.645 588.634 410.421 585.442 411.972 582.995C413.524 580.519 415.597 578.579 418.193 577.177C420.789 575.774 423.653 574.73 426.786 574.044C429.949 573.328 433.126 572.761 436.319 572.343C440.496 571.806 443.883 571.403 446.478 571.135C449.104 570.836 451.014 570.344 452.207 569.658C453.43 568.972 454.042 567.778 454.042 566.078V565.719C454.042 561.304 452.834 557.872 450.417 555.426C448.03 552.979 444.405 551.756 439.541 551.756C434.499 551.756 430.546 552.86 427.681 555.068C424.817 557.276 422.803 559.633 421.639 562.139L411.614 558.559C413.404 554.381 415.791 551.129 418.775 548.802C421.788 546.445 425.07 544.804 428.621 543.879C432.201 542.924 435.722 542.447 439.183 542.447C441.391 542.447 443.927 542.715 446.792 543.252C449.686 543.76 452.476 544.819 455.161 546.43C457.876 548.041 460.129 550.473 461.919 553.725C463.709 556.977 464.604 561.333 464.604 566.794V612.086H454.042V602.777H453.505C452.789 604.269 451.595 605.865 449.925 607.566C448.254 609.266 446.031 610.713 443.256 611.907C440.481 613.1 437.095 613.697 433.097 613.697ZM434.708 604.209C438.885 604.209 442.406 603.388 445.27 601.747C448.164 600.106 450.342 597.988 451.804 595.392C453.296 592.796 454.042 590.066 454.042 587.202V577.535C453.595 578.072 452.61 578.564 451.088 579.012C449.596 579.43 447.866 579.802 445.897 580.131C443.957 580.429 442.063 580.698 440.213 580.936C438.393 581.145 436.916 581.324 435.782 581.473C433.037 581.831 430.471 582.413 428.084 583.219C425.727 583.995 423.817 585.173 422.355 586.754C420.923 588.306 420.207 590.424 420.207 593.11C420.207 596.78 421.565 599.554 424.28 601.434C427.025 603.284 430.501 604.209 434.708 604.209ZM494.445 570.732V612.086H483.883V543.342H494.087V554.083H494.982C496.593 550.592 499.04 547.788 502.322 545.669C505.604 543.521 509.841 542.447 515.032 542.447C519.687 542.447 523.76 543.402 527.251 545.311C530.741 547.191 533.457 550.055 535.396 553.904C537.335 557.723 538.305 562.557 538.305 568.405V612.086H527.743V569.121C527.743 563.72 526.34 559.513 523.536 556.5C520.731 553.457 516.882 551.935 511.989 551.935C508.617 551.935 505.604 552.666 502.948 554.128C500.323 555.59 498.249 557.723 496.727 560.528C495.206 563.333 494.445 566.734 494.445 570.732ZM619.01 613.518C613.281 613.518 608.224 612.071 603.838 609.177C599.452 606.253 596.021 602.135 593.544 596.824C591.068 591.484 589.83 585.173 589.83 577.893C589.83 570.672 591.068 564.407 593.544 559.096C596.021 553.785 599.467 549.682 603.883 546.788C608.299 543.894 613.401 542.447 619.189 542.447C623.665 542.447 627.2 543.193 629.796 544.684C632.422 546.147 634.421 547.817 635.793 549.697C637.196 551.547 638.285 553.069 639.06 554.262H639.955V520.427H650.518V612.086H640.314V601.524H639.06C638.285 602.777 637.181 604.358 635.748 606.268C634.316 608.147 632.272 609.833 629.617 611.325C626.962 612.787 623.426 613.518 619.01 613.518ZM620.442 604.03C624.679 604.03 628.259 602.926 631.183 600.718C634.107 598.48 636.33 595.392 637.852 591.454C639.374 587.485 640.134 582.905 640.134 577.714C640.134 572.582 639.389 568.092 637.897 564.243C636.405 560.364 634.197 557.35 631.273 555.202C628.349 553.024 624.739 551.935 620.442 551.935C615.967 551.935 612.237 553.084 609.253 555.381C606.299 557.649 604.077 560.737 602.585 564.645C601.123 568.524 600.392 572.88 600.392 577.714C600.392 582.607 601.138 587.053 602.63 591.051C604.151 595.019 606.389 598.182 609.343 600.539C612.327 602.866 616.026 604.03 620.442 604.03ZM699.256 613.518C693.05 613.518 687.605 612.041 682.921 609.087C678.266 606.133 674.626 602.001 672 596.69C669.404 591.379 668.107 585.173 668.107 578.072C668.107 570.911 669.404 564.66 672 559.319C674.626 553.979 678.266 549.831 682.921 546.878C687.605 543.924 693.05 542.447 699.256 542.447C705.462 542.447 710.893 543.924 715.547 546.878C720.232 549.831 723.872 553.979 726.467 559.319C729.093 564.66 730.406 570.911 730.406 578.072C730.406 585.173 729.093 591.379 726.467 596.69C723.872 602.001 720.232 606.133 715.547 609.087C710.893 612.041 705.462 613.518 699.256 613.518ZM699.256 604.03C703.97 604.03 707.849 602.822 710.893 600.405C713.936 597.988 716.189 594.81 717.651 590.872C719.113 586.933 719.844 582.667 719.844 578.072C719.844 573.477 719.113 569.195 717.651 565.227C716.189 561.259 713.936 558.051 710.893 555.605C707.849 553.158 703.97 551.935 699.256 551.935C694.542 551.935 690.663 553.158 687.62 555.605C684.576 558.051 682.324 561.259 680.862 565.227C679.4 569.195 678.669 573.477 678.669 578.072C678.669 582.667 679.4 586.933 680.862 590.872C682.324 594.81 684.576 597.988 687.62 600.405C690.663 602.822 694.542 604.03 699.256 604.03ZM802.205 613.697C797.848 613.697 793.895 612.877 790.344 611.236C786.794 609.565 783.974 607.163 781.886 604.03C779.797 600.867 778.753 597.048 778.753 592.573C778.753 588.634 779.529 585.442 781.08 582.995C782.632 580.519 784.705 578.579 787.301 577.177C789.897 575.774 792.761 574.73 795.894 574.044C799.057 573.328 802.234 572.761 805.427 572.343C809.604 571.806 812.991 571.403 815.586 571.135C818.212 570.836 820.122 570.344 821.315 569.658C822.538 568.972 823.15 567.778 823.15 566.078V565.719C823.15 561.304 821.942 557.872 819.525 555.426C817.138 552.979 813.513 551.756 808.649 551.756C803.607 551.756 799.653 552.86 796.789 555.068C793.925 557.276 791.911 559.633 790.747 562.139L780.722 558.559C782.512 554.381 784.899 551.129 787.883 548.802C790.896 546.445 794.178 544.804 797.729 543.879C801.309 542.924 804.83 542.447 808.291 542.447C810.499 542.447 813.035 542.715 815.9 543.252C818.794 543.76 821.584 544.819 824.269 546.43C826.984 548.041 829.237 550.473 831.027 553.725C832.817 556.977 833.712 561.333 833.712 566.794V612.086H823.15V602.777H822.613C821.897 604.269 820.703 605.865 819.032 607.566C817.362 609.266 815.139 610.713 812.364 611.907C809.589 613.1 806.203 613.697 802.205 613.697ZM803.816 604.209C807.993 604.209 811.514 603.388 814.378 601.747C817.272 600.106 819.45 597.988 820.912 595.392C822.404 592.796 823.15 590.066 823.15 587.202V577.535C822.702 578.072 821.718 578.564 820.196 579.012C818.704 579.43 816.974 579.802 815.005 580.131C813.065 580.429 811.17 580.698 809.321 580.936C807.501 581.145 806.024 581.324 804.89 581.473C802.145 581.831 799.579 582.413 797.192 583.219C794.835 583.995 792.925 585.173 791.463 586.754C790.031 588.306 789.315 590.424 789.315 593.11C789.315 596.78 790.673 599.554 793.388 601.434C796.133 603.284 799.609 604.209 803.816 604.209ZM863.553 520.427V612.086H852.991V520.427H863.553ZM893.461 520.427V612.086H882.898V520.427H893.461ZM978.149 543.342V552.293H942.523V543.342H978.149ZM952.907 526.872H963.469V592.394C963.469 595.377 963.902 597.615 964.767 599.107C965.662 600.569 966.796 601.554 968.168 602.061C969.571 602.538 971.048 602.777 972.599 602.777C973.763 602.777 974.717 602.717 975.463 602.598C976.209 602.449 976.806 602.329 977.254 602.24L979.402 611.728C978.686 611.996 977.686 612.265 976.403 612.533C975.12 612.832 973.494 612.981 971.525 612.981C968.541 612.981 965.617 612.34 962.753 611.057C959.918 609.774 957.561 607.819 955.682 605.194C953.832 602.568 952.907 599.256 952.907 595.258V526.872ZM1006.08 570.732V612.086H995.514V520.427H1006.08V554.083H1006.97C1008.58 550.533 1011 547.713 1014.22 545.624C1017.47 543.506 1021.8 542.447 1027.2 542.447C1031.88 542.447 1035.99 543.387 1039.51 545.266C1043.03 547.116 1045.76 549.966 1047.7 553.815C1049.67 557.634 1050.65 562.497 1050.65 568.405V612.086H1040.09V569.121C1040.09 563.661 1038.67 559.439 1035.84 556.455C1033.03 553.442 1029.14 551.935 1024.16 551.935C1020.7 551.935 1017.59 552.666 1014.85 554.128C1012.13 555.59 1009.98 557.723 1008.4 560.528C1006.85 563.333 1006.08 566.734 1006.08 570.732ZM1069.98 612.086V543.342H1080.54V612.086H1069.98ZM1075.35 531.884C1073.29 531.884 1071.51 531.183 1070.02 529.781C1068.56 528.379 1067.83 526.693 1067.83 524.724C1067.83 522.754 1068.56 521.069 1070.02 519.666C1071.51 518.264 1073.29 517.563 1075.35 517.563C1077.4 517.563 1079.17 518.264 1080.63 519.666C1082.12 521.069 1082.86 522.754 1082.86 524.724C1082.86 526.693 1082.12 528.379 1080.63 529.781C1079.17 531.183 1077.4 531.884 1075.35 531.884ZM1110.45 570.732V612.086H1099.88V543.342H1110.09V554.083H1110.98C1112.59 550.592 1115.04 547.788 1118.32 545.669C1121.6 543.521 1125.84 542.447 1131.03 542.447C1135.69 542.447 1139.76 543.402 1143.25 545.311C1146.74 547.191 1149.46 550.055 1151.4 553.904C1153.34 557.723 1154.31 562.557 1154.31 568.405V612.086H1143.74V569.121C1143.74 563.72 1142.34 559.513 1139.54 556.5C1136.73 553.457 1132.88 551.935 1127.99 551.935C1124.62 551.935 1121.6 552.666 1118.95 554.128C1116.32 555.59 1114.25 557.723 1112.73 560.528C1111.21 563.333 1110.45 566.734 1110.45 570.732ZM1201.35 639.297C1196.25 639.297 1191.87 638.641 1188.2 637.328C1184.53 636.045 1181.47 634.344 1179.02 632.226C1176.6 630.137 1174.68 627.899 1173.25 625.513L1181.66 619.605C1182.62 620.858 1183.83 622.29 1185.29 623.901C1186.75 625.542 1188.75 626.96 1191.28 628.153C1193.85 629.376 1197.21 629.988 1201.35 629.988C1206.9 629.988 1211.48 628.645 1215.09 625.96C1218.7 623.275 1220.51 619.068 1220.51 613.339V599.375H1219.61C1218.84 600.629 1217.73 602.18 1216.3 604.03C1214.9 605.85 1212.87 607.476 1210.22 608.908C1207.59 610.311 1204.04 611.012 1199.56 611.012C1194.01 611.012 1189.03 609.699 1184.62 607.073C1180.23 604.448 1176.75 600.629 1174.19 595.616C1171.65 590.603 1170.38 584.517 1170.38 577.356C1170.38 570.314 1171.62 564.183 1174.1 558.961C1176.57 553.71 1180.02 549.652 1184.44 546.788C1188.85 543.894 1193.95 542.447 1199.74 542.447C1204.22 542.447 1207.77 543.193 1210.39 544.684C1213.05 546.147 1215.08 547.817 1216.48 549.697C1217.91 551.547 1219.02 553.069 1219.79 554.262H1220.87V543.342H1231.07V614.055C1231.07 619.963 1229.73 624.767 1227.04 628.466C1224.39 632.196 1220.81 634.926 1216.3 636.657C1211.83 638.417 1206.84 639.297 1201.35 639.297ZM1201 601.524C1205.23 601.524 1208.81 600.554 1211.74 598.615C1214.66 596.675 1216.88 593.885 1218.41 590.245C1219.93 586.605 1220.69 582.249 1220.69 577.177C1220.69 572.224 1219.94 567.853 1218.45 564.064C1216.96 560.274 1214.75 557.305 1211.83 555.157C1208.9 553.009 1205.29 551.935 1201 551.935C1196.52 551.935 1192.79 553.069 1189.81 555.336C1186.85 557.604 1184.63 560.647 1183.14 564.466C1181.68 568.285 1180.95 572.522 1180.95 577.177C1180.95 581.951 1181.69 586.173 1183.18 589.843C1184.71 593.483 1186.94 596.347 1189.9 598.436C1192.88 600.494 1196.58 601.524 1201 601.524ZM1299.1 558.738L1289.61 561.423C1289.02 559.842 1288.13 558.305 1286.97 556.813C1285.84 555.291 1284.29 554.038 1282.32 553.054C1280.35 552.069 1277.83 551.577 1274.75 551.577C1270.55 551.577 1267.04 552.547 1264.24 554.486C1261.46 556.395 1260.07 558.827 1260.07 561.781C1260.07 564.407 1261.03 566.48 1262.94 568.002C1264.85 569.524 1267.83 570.792 1271.89 571.806L1282.09 574.312C1288.24 575.804 1292.82 578.087 1295.83 581.16C1298.85 584.203 1300.35 588.127 1300.35 592.931C1300.35 596.869 1299.22 600.39 1296.95 603.493C1294.71 606.596 1291.58 609.043 1287.55 610.833C1283.53 612.623 1278.84 613.518 1273.5 613.518C1266.49 613.518 1260.69 611.996 1256.09 608.953C1251.5 605.91 1248.59 601.464 1247.36 595.616L1257.39 593.11C1258.34 596.809 1260.15 599.584 1262.8 601.434C1265.49 603.284 1268.99 604.209 1273.32 604.209C1278.24 604.209 1282.15 603.165 1285.05 601.076C1287.97 598.958 1289.43 596.422 1289.43 593.468C1289.43 591.081 1288.6 589.082 1286.93 587.471C1285.26 585.83 1282.69 584.606 1279.23 583.801L1267.77 581.115C1261.48 579.623 1256.85 577.311 1253.9 574.178C1250.97 571.016 1249.51 567.062 1249.51 562.318C1249.51 558.439 1250.6 555.008 1252.78 552.024C1254.99 549.041 1257.98 546.698 1261.77 544.998C1265.59 543.297 1269.92 542.447 1274.75 542.447C1281.56 542.447 1286.9 543.939 1290.78 546.922C1294.68 549.906 1297.46 553.844 1299.1 558.738ZM1381.6 543.342V552.293H1345.97V543.342H1381.6ZM1356.35 526.872H1366.92V592.394C1366.92 595.377 1367.35 597.615 1368.21 599.107C1369.11 600.569 1370.24 601.554 1371.61 602.061C1373.02 602.538 1374.49 602.777 1376.05 602.777C1377.21 602.777 1378.16 602.717 1378.91 602.598C1379.66 602.449 1380.25 602.329 1380.7 602.24L1382.85 611.728C1382.13 611.996 1381.13 612.265 1379.85 612.533C1378.57 612.832 1376.94 612.981 1374.97 612.981C1371.99 612.981 1369.06 612.34 1366.2 611.057C1363.36 609.774 1361.01 607.819 1359.13 605.194C1357.28 602.568 1356.35 599.256 1356.35 595.258V526.872ZM1409.52 570.732V612.086H1398.96V520.427H1409.52V554.083H1410.42C1412.03 550.533 1414.45 547.713 1417.67 545.624C1420.92 543.506 1425.25 542.447 1430.65 542.447C1435.33 542.447 1439.43 543.387 1442.95 545.266C1446.48 547.116 1449.21 549.966 1451.14 553.815C1453.11 557.634 1454.1 562.497 1454.1 568.405V612.086H1443.54V569.121C1443.54 563.661 1442.12 559.439 1439.28 556.455C1436.48 553.442 1432.59 551.935 1427.6 551.935C1424.14 551.935 1421.04 552.666 1418.29 554.128C1415.58 555.59 1413.43 557.723 1411.85 560.528C1410.3 563.333 1409.52 566.734 1409.52 570.732ZM1473.42 612.086V543.342H1483.63V553.725H1484.34C1485.6 550.324 1487.86 547.564 1491.14 545.445C1494.43 543.327 1498.13 542.268 1502.24 542.268C1503.02 542.268 1503.99 542.283 1505.15 542.312C1506.32 542.342 1507.2 542.387 1507.79 542.447V553.188C1507.44 553.098 1506.62 552.964 1505.33 552.785C1504.08 552.576 1502.75 552.472 1501.35 552.472C1498.01 552.472 1495.02 553.173 1492.4 554.575C1489.8 555.948 1487.74 557.857 1486.22 560.304C1484.73 562.721 1483.98 565.481 1483.98 568.584V612.086H1473.42ZM1546.15 613.518C1539.94 613.518 1534.5 612.041 1529.81 609.087C1525.16 606.133 1521.52 602.001 1518.89 596.69C1516.3 591.379 1515 585.173 1515 578.072C1515 570.911 1516.3 564.66 1518.89 559.319C1521.52 553.979 1525.16 549.831 1529.81 546.878C1534.5 543.924 1539.94 542.447 1546.15 542.447C1552.36 542.447 1557.79 543.924 1562.44 546.878C1567.12 549.831 1570.76 553.979 1573.36 559.319C1575.99 564.66 1577.3 570.911 1577.3 578.072C1577.3 585.173 1575.99 591.379 1573.36 596.69C1570.76 602.001 1567.12 606.133 1562.44 609.087C1557.79 612.041 1552.36 613.518 1546.15 613.518ZM1546.15 604.03C1550.86 604.03 1554.74 602.822 1557.79 600.405C1560.83 597.988 1563.08 594.81 1564.54 590.872C1566.01 586.933 1566.74 582.667 1566.74 578.072C1566.74 573.477 1566.01 569.195 1564.54 565.227C1563.08 561.259 1560.83 558.051 1557.79 555.605C1554.74 553.158 1550.86 551.935 1546.15 551.935C1541.43 551.935 1537.56 553.158 1534.51 555.605C1531.47 558.051 1529.22 561.259 1527.75 565.227C1526.29 569.195 1525.56 573.477 1525.56 578.072C1525.56 582.667 1526.29 586.933 1527.75 590.872C1529.22 594.81 1531.47 597.988 1534.51 600.405C1537.56 602.822 1541.43 604.03 1546.15 604.03ZM1636.74 583.98V543.342H1647.31V612.086H1636.74V600.45H1636.03C1634.42 603.94 1631.91 606.909 1628.51 609.356C1625.11 611.773 1620.81 612.981 1615.62 612.981C1611.32 612.981 1607.5 612.041 1604.16 610.161C1600.82 608.252 1598.2 605.388 1596.29 601.568C1594.38 597.719 1593.42 592.871 1593.42 587.023V543.342H1603.98V586.307C1603.98 591.319 1605.39 595.318 1608.19 598.301C1611.03 601.285 1614.64 602.777 1619.02 602.777C1621.65 602.777 1624.32 602.106 1627.03 600.763C1629.78 599.42 1632.08 597.361 1633.93 594.587C1635.81 591.812 1636.74 588.276 1636.74 583.98ZM1694.4 639.297C1689.3 639.297 1684.91 638.641 1681.24 637.328C1677.57 636.045 1674.51 634.344 1672.07 632.226C1669.65 630.137 1667.73 627.899 1666.29 625.513L1674.71 619.605C1675.66 620.858 1676.87 622.29 1678.33 623.901C1679.8 625.542 1681.79 626.96 1684.33 628.153C1686.9 629.376 1690.25 629.988 1694.4 629.988C1699.95 629.988 1704.53 628.645 1708.14 625.96C1711.75 623.275 1713.56 619.068 1713.56 613.339V599.375H1712.66C1711.89 600.629 1710.78 602.18 1709.35 604.03C1707.95 605.85 1705.92 607.476 1703.26 608.908C1700.64 610.311 1697.09 611.012 1692.61 611.012C1687.06 611.012 1682.08 609.699 1677.66 607.073C1673.28 604.448 1669.8 600.629 1667.23 595.616C1664.7 590.603 1663.43 584.517 1663.43 577.356C1663.43 570.314 1664.67 564.183 1667.14 558.961C1669.62 553.71 1673.07 549.652 1677.48 546.788C1681.9 543.894 1687 542.447 1692.79 542.447C1697.27 542.447 1700.82 543.193 1703.44 544.684C1706.1 546.147 1708.13 547.817 1709.53 549.697C1710.96 551.547 1712.06 553.069 1712.84 554.262H1713.91V543.342H1724.12V614.055C1724.12 619.963 1722.78 624.767 1720.09 628.466C1717.43 632.196 1713.85 634.926 1709.35 636.657C1704.87 638.417 1699.89 639.297 1694.4 639.297ZM1694.04 601.524C1698.28 601.524 1701.86 600.554 1704.78 598.615C1707.71 596.675 1709.93 593.885 1711.45 590.245C1712.97 586.605 1713.74 582.249 1713.74 577.177C1713.74 572.224 1712.99 567.853 1711.5 564.064C1710.01 560.274 1707.8 557.305 1704.87 555.157C1701.95 553.009 1698.34 551.935 1694.04 551.935C1689.57 551.935 1685.84 553.069 1682.85 555.336C1679.9 557.604 1677.68 560.647 1676.19 564.466C1674.72 568.285 1673.99 572.522 1673.99 577.177C1673.99 581.951 1674.74 586.173 1676.23 589.843C1677.75 593.483 1679.99 596.347 1682.94 598.436C1685.93 600.494 1689.63 601.524 1694.04 601.524ZM1754.01 570.732V612.086H1743.45V520.427H1754.01V554.083H1754.91C1756.52 550.533 1758.94 547.713 1762.16 545.624C1765.41 543.506 1769.74 542.447 1775.14 542.447C1779.82 542.447 1783.93 543.387 1787.45 545.266C1790.97 547.116 1793.7 549.966 1795.64 553.815C1797.61 557.634 1798.59 562.497 1798.59 568.405V612.086H1788.03V569.121C1788.03 563.661 1786.61 559.439 1783.78 556.455C1780.97 553.442 1777.08 551.935 1772.1 551.935C1768.63 551.935 1765.53 552.666 1762.79 554.128C1760.07 555.59 1757.92 557.723 1756.34 560.528C1754.79 563.333 1754.01 566.734 1754.01 570.732ZM1928.55 549.071H1917.45C1916.79 545.878 1915.64 543.073 1914 540.657C1912.39 538.24 1910.42 536.211 1908.1 534.57C1905.8 532.899 1903.25 531.646 1900.44 530.81C1897.64 529.975 1894.71 529.557 1891.67 529.557C1886.12 529.557 1881.09 530.96 1876.59 533.764C1872.11 536.569 1868.55 540.701 1865.89 546.161C1863.27 551.622 1861.95 558.32 1861.95 566.257C1861.95 574.193 1863.27 580.892 1865.89 586.352C1868.55 591.812 1872.11 595.944 1876.59 598.749C1881.09 601.554 1886.12 602.956 1891.67 602.956C1894.71 602.956 1897.64 602.538 1900.44 601.703C1903.25 600.867 1905.8 599.629 1908.1 597.988C1910.42 596.317 1912.39 594.273 1914 591.857C1915.64 589.41 1916.79 586.605 1917.45 583.443H1928.55C1927.71 588.127 1926.19 592.319 1923.98 596.019C1921.78 599.719 1919.03 602.866 1915.75 605.462C1912.47 608.028 1908.78 609.982 1904.69 611.325C1900.64 612.668 1896.3 613.339 1891.67 613.339C1883.85 613.339 1876.9 611.43 1870.81 607.61C1864.73 603.791 1859.94 598.361 1856.45 591.319C1852.96 584.278 1851.21 575.924 1851.21 566.257C1851.21 556.589 1852.96 548.235 1856.45 541.194C1859.94 534.152 1864.73 528.722 1870.81 524.903C1876.9 521.084 1883.85 519.174 1891.67 519.174C1896.3 519.174 1900.64 519.845 1904.69 521.188C1908.78 522.531 1912.47 524.5 1915.75 527.096C1919.03 529.662 1921.78 532.795 1923.98 536.494C1926.19 540.164 1927.71 544.356 1928.55 549.071ZM1955.62 570.732V612.086H1945.05V520.427H1955.62V554.083H1956.51C1958.12 550.533 1960.54 547.713 1963.76 545.624C1967.01 543.506 1971.34 542.447 1976.74 542.447C1981.42 542.447 1985.53 543.387 1989.05 545.266C1992.57 547.116 1995.3 549.966 1997.24 553.815C1999.21 557.634 2000.19 562.497 2000.19 568.405V612.086H1989.63V569.121C1989.63 563.661 1988.21 559.439 1985.38 556.455C1982.57 553.442 1978.68 551.935 1973.7 551.935C1970.24 551.935 1967.13 552.666 1964.39 554.128C1961.67 555.59 1959.52 557.723 1957.94 560.528C1956.39 563.333 1955.62 566.734 1955.62 570.732ZM2019.51 612.086V543.342H2029.72V553.725H2030.43C2031.69 550.324 2033.96 547.564 2037.24 545.445C2040.52 543.327 2044.22 542.268 2048.34 542.268C2049.11 542.268 2050.08 542.283 2051.25 542.312C2052.41 542.342 2053.29 542.387 2053.89 542.447V553.188C2053.53 553.098 2052.71 552.964 2051.42 552.785C2050.17 552.576 2048.84 552.472 2047.44 552.472C2044.1 552.472 2041.12 553.173 2038.49 554.575C2035.89 555.948 2033.84 557.857 2032.31 560.304C2030.82 562.721 2030.08 565.481 2030.08 568.584V612.086H2019.51ZM2066.41 612.086V543.342H2076.97V612.086H2066.41ZM2071.78 531.884C2069.72 531.884 2067.94 531.183 2066.45 529.781C2064.99 528.379 2064.26 526.693 2064.26 524.724C2064.26 522.754 2064.99 521.069 2066.45 519.666C2067.94 518.264 2069.72 517.563 2071.78 517.563C2073.84 517.563 2075.6 518.264 2077.06 519.666C2078.55 521.069 2079.3 522.754 2079.3 524.724C2079.3 526.693 2078.55 528.379 2077.06 529.781C2075.6 531.183 2073.84 531.884 2071.78 531.884ZM2145.01 558.738L2135.52 561.423C2134.92 559.842 2134.04 558.305 2132.88 556.813C2131.75 555.291 2130.19 554.038 2128.22 553.054C2126.26 552.069 2123.73 551.577 2120.66 551.577C2116.45 551.577 2112.95 552.547 2110.14 554.486C2107.37 556.395 2105.98 558.827 2105.98 561.781C2105.98 564.407 2106.94 566.48 2108.85 568.002C2110.76 569.524 2113.74 570.792 2117.8 571.806L2128 574.312C2134.15 575.804 2138.73 578.087 2141.74 581.16C2144.75 584.203 2146.26 588.127 2146.26 592.931C2146.26 596.869 2145.13 600.39 2142.86 603.493C2140.62 606.596 2137.49 609.043 2133.46 610.833C2129.43 612.623 2124.75 613.518 2119.41 613.518C2112.4 613.518 2106.59 611.996 2102 608.953C2097.4 605.91 2094.49 601.464 2093.27 595.616L2103.3 593.11C2104.25 596.809 2106.06 599.584 2108.71 601.434C2111.4 603.284 2114.9 604.209 2119.23 604.209C2124.15 604.209 2128.06 603.165 2130.95 601.076C2133.88 598.958 2135.34 596.422 2135.34 593.468C2135.34 591.081 2134.51 589.082 2132.83 587.471C2131.16 585.83 2128.6 584.606 2125.14 583.801L2113.68 581.115C2107.38 579.623 2102.76 577.311 2099.81 574.178C2096.88 571.016 2095.42 567.062 2095.42 562.318C2095.42 558.439 2096.51 555.008 2098.69 552.024C2100.89 549.041 2103.89 546.698 2107.68 544.998C2111.5 543.297 2115.83 542.447 2120.66 542.447C2127.46 542.447 2132.8 543.939 2136.68 546.922C2140.59 549.906 2143.37 553.844 2145.01 558.738ZM2192.06 543.342V552.293H2156.43V543.342H2192.06ZM2166.82 526.872H2177.38V592.394C2177.38 595.377 2177.81 597.615 2178.68 599.107C2179.57 600.569 2180.7 601.554 2182.08 602.061C2183.48 602.538 2184.96 602.777 2186.51 602.777C2187.67 602.777 2188.63 602.717 2189.37 602.598C2190.12 602.449 2190.71 602.329 2191.16 602.24L2193.31 611.728C2192.59 611.996 2191.59 612.265 2190.31 612.533C2189.03 612.832 2187.4 612.981 2185.43 612.981C2182.45 612.981 2179.53 612.34 2176.66 611.057C2173.83 609.774 2171.47 607.819 2169.59 605.194C2167.74 602.568 2166.82 599.256 2166.82 595.258V526.872ZM289.242 765.086L268.297 696.342H279.396L294.255 748.974H294.971L309.65 696.342H320.929L335.429 748.795H336.145L351.004 696.342H362.104L341.158 765.086H330.775L315.737 712.275H314.663L299.625 765.086H289.242ZM386.629 723.732V765.086H376.067V673.427H386.629V707.083H387.525C389.136 703.533 391.553 700.713 394.775 698.624C398.027 696.506 402.353 695.447 407.754 695.447C412.438 695.447 416.541 696.387 420.062 698.266C423.582 700.116 426.312 702.966 428.252 706.815C430.221 710.634 431.206 715.497 431.206 721.405V765.086H420.643V722.121C420.643 716.661 419.226 712.439 416.392 709.455C413.587 706.442 409.693 704.935 404.711 704.935C401.25 704.935 398.146 705.666 395.401 707.128C392.686 708.59 390.538 710.723 388.957 713.528C387.405 716.333 386.629 719.734 386.629 723.732ZM478.456 766.518C472.25 766.518 466.805 765.041 462.12 762.087C457.466 759.133 453.826 755.001 451.2 749.69C448.604 744.379 447.306 738.173 447.306 731.072C447.306 723.911 448.604 717.66 451.2 712.319C453.826 706.979 457.466 702.831 462.12 699.878C466.805 696.924 472.25 695.447 478.456 695.447C484.662 695.447 490.092 696.924 494.747 699.878C499.431 702.831 503.071 706.979 505.667 712.319C508.293 717.66 509.606 723.911 509.606 731.072C509.606 738.173 508.293 744.379 505.667 749.69C503.071 755.001 499.431 759.133 494.747 762.087C490.092 765.041 484.662 766.518 478.456 766.518ZM478.456 757.03C483.17 757.03 487.049 755.822 490.092 753.405C493.136 750.988 495.388 747.81 496.85 743.872C498.313 739.933 499.044 735.667 499.044 731.072C499.044 726.477 498.313 722.195 496.85 718.227C495.388 714.259 493.136 711.051 490.092 708.605C487.049 706.158 483.17 704.935 478.456 704.935C473.742 704.935 469.863 706.158 466.82 708.605C463.776 711.051 461.524 714.259 460.062 718.227C458.6 722.195 457.869 726.477 457.869 731.072C457.869 735.667 458.6 739.933 460.062 743.872C461.524 747.81 463.776 750.988 466.82 753.405C469.863 755.822 473.742 757.03 478.456 757.03ZM609.869 711.738L600.381 714.423C599.784 712.842 598.904 711.305 597.74 709.813C596.606 708.291 595.055 707.038 593.086 706.054C591.116 705.069 588.595 704.577 585.522 704.577C581.315 704.577 577.809 705.547 575.004 707.486C572.23 709.395 570.842 711.827 570.842 714.781C570.842 717.407 571.797 719.48 573.706 721.002C575.616 722.524 578.6 723.792 582.658 724.806L592.862 727.312C599.008 728.804 603.588 731.087 606.602 734.16C609.615 737.203 611.122 741.127 611.122 745.931C611.122 749.869 609.988 753.39 607.72 756.493C605.483 759.596 602.35 762.043 598.322 763.833C594.294 765.623 589.61 766.518 584.269 766.518C577.257 766.518 571.454 764.996 566.859 761.953C562.264 758.91 559.355 754.464 558.132 748.616L568.157 746.11C569.112 749.809 570.917 752.584 573.572 754.434C576.258 756.284 579.763 757.209 584.09 757.209C589.013 757.209 592.921 756.165 595.816 754.076C598.74 751.958 600.202 749.422 600.202 746.468C600.202 744.081 599.366 742.082 597.695 740.471C596.024 738.83 593.458 737.606 589.997 736.801L578.54 734.115C572.244 732.623 567.62 730.311 564.666 727.178C561.742 724.016 560.28 720.062 560.28 715.318C560.28 711.439 561.369 708.008 563.547 705.024C565.755 702.041 568.754 699.698 572.543 697.998C576.362 696.297 580.688 695.447 585.522 695.447C592.325 695.447 597.665 696.939 601.544 699.922C605.453 702.906 608.228 706.844 609.869 711.738ZM656.918 696.342V705.293H621.293V696.342H656.918ZM631.676 679.872H642.238V745.394C642.238 748.377 642.671 750.615 643.536 752.107C644.431 753.569 645.565 754.554 646.937 755.061C648.34 755.538 649.817 755.777 651.368 755.777C652.532 755.777 653.486 755.717 654.232 755.598C654.978 755.449 655.575 755.329 656.023 755.24L658.171 764.728C657.455 764.996 656.455 765.265 655.172 765.533C653.889 765.832 652.263 765.981 650.294 765.981C647.31 765.981 644.386 765.34 641.522 764.057C638.687 762.774 636.33 760.819 634.451 758.194C632.601 755.568 631.676 752.256 631.676 748.258V679.872ZM672.806 765.086V696.342H683.01V706.725H683.726C684.979 703.324 687.247 700.564 690.529 698.445C693.811 696.327 697.511 695.268 701.628 695.268C702.404 695.268 703.374 695.283 704.537 695.312C705.701 695.342 706.581 695.387 707.178 695.447V706.188C706.82 706.098 705.999 705.964 704.716 705.785C703.463 705.576 702.135 705.472 700.733 705.472C697.391 705.472 694.408 706.173 691.782 707.575C689.186 708.948 687.128 710.857 685.606 713.304C684.114 715.721 683.368 718.481 683.368 721.584V765.086H672.806ZM746.428 766.518C739.804 766.518 734.091 765.056 729.287 762.132C724.513 759.178 720.828 755.061 718.232 749.78C715.666 744.469 714.383 738.292 714.383 731.251C714.383 724.209 715.666 718.003 718.232 712.633C720.828 707.232 724.438 703.025 729.063 700.012C733.718 696.968 739.148 695.447 745.354 695.447C748.935 695.447 752.47 696.043 755.961 697.237C759.452 698.43 762.63 700.37 765.494 703.055C768.358 705.711 770.641 709.231 772.342 713.617C774.042 718.003 774.893 723.404 774.893 729.819V734.294H721.902V725.164H764.151C764.151 721.285 763.376 717.824 761.824 714.781C760.302 711.738 758.124 709.336 755.29 707.575C752.485 705.815 749.173 704.935 745.354 704.935C741.147 704.935 737.507 705.979 734.434 708.068C731.39 710.126 729.048 712.812 727.407 716.124C725.766 719.436 724.946 722.986 724.946 726.775V732.862C724.946 738.054 725.841 742.455 727.631 746.065C729.451 749.645 731.972 752.375 735.195 754.255C738.417 756.105 742.162 757.03 746.428 757.03C749.203 757.03 751.709 756.642 753.947 755.866C756.215 755.061 758.169 753.867 759.81 752.286C761.451 750.675 762.719 748.676 763.614 746.289L773.818 749.153C772.744 752.614 770.939 755.657 768.403 758.283C765.867 760.879 762.734 762.908 759.004 764.37C755.275 765.802 751.083 766.518 746.428 766.518ZM801.522 723.732V765.086H790.96V696.342H801.164V707.083H802.059C803.67 703.592 806.117 700.788 809.399 698.669C812.681 696.521 816.918 695.447 822.109 695.447C826.764 695.447 830.837 696.402 834.328 698.311C837.819 700.191 840.534 703.055 842.473 706.904C844.412 710.723 845.382 715.557 845.382 721.405V765.086H834.82V722.121C834.82 716.72 833.418 712.513 830.613 709.5C827.808 706.457 823.959 704.935 819.066 704.935C815.694 704.935 812.681 705.666 810.025 707.128C807.4 708.59 805.326 710.723 803.805 713.528C802.283 716.333 801.522 719.734 801.522 723.732ZM892.431 792.297C887.329 792.297 882.943 791.641 879.273 790.328C875.603 789.045 872.545 787.344 870.098 785.226C867.681 783.137 865.757 780.899 864.325 778.513L872.739 772.605C873.694 773.858 874.902 775.29 876.364 776.901C877.826 778.542 879.825 779.96 882.361 781.153C884.927 782.376 888.284 782.988 892.431 782.988C897.981 782.988 902.561 781.645 906.171 778.96C909.781 776.275 911.586 772.068 911.586 766.339V752.375H910.691C909.916 753.629 908.812 755.18 907.379 757.03C905.977 758.85 903.948 760.476 901.293 761.908C898.667 763.311 895.116 764.012 890.641 764.012C885.091 764.012 880.109 762.699 875.693 760.073C871.307 757.448 867.831 753.629 865.265 748.616C862.729 743.603 861.461 737.517 861.461 730.356C861.461 723.314 862.699 717.183 865.175 711.961C867.652 706.71 871.098 702.652 875.514 699.788C879.93 696.894 885.032 695.447 890.82 695.447C895.295 695.447 898.846 696.193 901.472 697.684C904.127 699.147 906.156 700.817 907.558 702.697C908.991 704.547 910.095 706.069 910.87 707.262H911.944V696.342H922.149V767.055C922.149 772.963 920.806 777.767 918.121 781.466C915.465 785.196 911.885 787.926 907.379 789.657C902.904 791.417 897.921 792.297 892.431 792.297ZM892.073 754.524C896.31 754.524 899.89 753.554 902.814 751.615C905.738 749.675 907.961 746.885 909.483 743.245C911.005 739.605 911.765 735.249 911.765 730.177C911.765 725.224 911.02 720.853 909.528 717.064C908.036 713.274 905.828 710.305 902.904 708.157C899.98 706.009 896.37 704.935 892.073 704.935C887.598 704.935 883.868 706.069 880.884 708.336C877.93 710.604 875.708 713.647 874.216 717.466C872.754 721.285 872.023 725.522 872.023 730.177C872.023 734.951 872.769 739.173 874.261 742.843C875.782 746.483 878.02 749.347 880.974 751.436C883.957 753.494 887.657 754.524 892.073 754.524ZM971.379 696.342V705.293H935.754V696.342H971.379ZM946.137 679.872H956.7V745.394C956.7 748.377 957.132 750.615 957.998 752.107C958.893 753.569 960.027 754.554 961.399 755.061C962.801 755.538 964.278 755.777 965.83 755.777C966.993 755.777 967.948 755.717 968.694 755.598C969.44 755.449 970.037 755.329 970.484 755.24L972.633 764.728C971.917 764.996 970.917 765.265 969.634 765.533C968.351 765.832 966.725 765.981 964.756 765.981C961.772 765.981 958.848 765.34 955.984 764.057C953.149 762.774 950.792 760.819 948.912 758.194C947.062 755.568 946.137 752.256 946.137 748.258V679.872ZM999.307 723.732V765.086H988.744V673.427H999.307V707.083H1000.2C1001.81 703.533 1004.23 700.713 1007.45 698.624C1010.7 696.506 1015.03 695.447 1020.43 695.447C1025.12 695.447 1029.22 696.387 1032.74 698.266C1036.26 700.116 1038.99 702.966 1040.93 706.815C1042.9 710.634 1043.88 715.497 1043.88 721.405V765.086H1033.32V722.121C1033.32 716.661 1031.9 712.439 1029.07 709.455C1026.26 706.442 1022.37 704.935 1017.39 704.935C1013.93 704.935 1010.82 705.666 1008.08 707.128C1005.36 708.59 1003.22 710.723 1001.63 713.528C1000.08 716.333 999.307 719.734 999.307 723.732ZM1092.03 766.518C1085.4 766.518 1079.69 765.056 1074.89 762.132C1070.11 759.178 1066.43 755.061 1063.83 749.78C1061.27 744.469 1059.98 738.292 1059.98 731.251C1059.98 724.209 1061.27 718.003 1063.83 712.633C1066.43 707.232 1070.04 703.025 1074.66 700.012C1079.32 696.968 1084.75 695.447 1090.95 695.447C1094.53 695.447 1098.07 696.043 1101.56 697.237C1105.05 698.43 1108.23 700.37 1111.09 703.055C1113.96 705.711 1116.24 709.231 1117.94 713.617C1119.64 718.003 1120.49 723.404 1120.49 729.819V734.294H1067.5V725.164H1109.75C1109.75 721.285 1108.98 717.824 1107.42 714.781C1105.9 711.738 1103.72 709.336 1100.89 707.575C1098.09 705.815 1094.77 704.935 1090.95 704.935C1086.75 704.935 1083.11 705.979 1080.03 708.068C1076.99 710.126 1074.65 712.812 1073.01 716.124C1071.37 719.436 1070.55 722.986 1070.55 726.775V732.862C1070.55 738.054 1071.44 742.455 1073.23 746.065C1075.05 749.645 1077.57 752.375 1080.79 754.255C1084.02 756.105 1087.76 757.03 1092.03 757.03C1094.8 757.03 1097.31 756.642 1099.55 755.866C1101.81 755.061 1103.77 753.867 1105.41 752.286C1107.05 750.675 1108.32 748.676 1109.21 746.289L1119.42 749.153C1118.34 752.614 1116.54 755.657 1114 758.283C1111.47 760.879 1108.33 762.908 1104.6 764.37C1100.88 765.802 1096.68 766.518 1092.03 766.518ZM1147.12 723.732V765.086H1136.56V696.342H1146.76V707.083H1147.66C1149.27 703.592 1151.72 700.788 1155 698.669C1158.28 696.521 1162.52 695.447 1167.71 695.447C1172.36 695.447 1176.44 696.402 1179.93 698.311C1183.42 700.191 1186.13 703.055 1188.07 706.904C1190.01 710.723 1190.98 715.557 1190.98 721.405V765.086H1180.42V722.121C1180.42 716.72 1179.02 712.513 1176.21 709.5C1173.41 706.457 1169.56 704.935 1164.67 704.935C1161.29 704.935 1158.28 705.666 1155.63 707.128C1153 708.59 1150.93 710.723 1149.4 713.528C1147.88 716.333 1147.12 719.734 1147.12 723.732ZM1258.98 711.738L1249.49 714.423C1248.89 712.842 1248.01 711.305 1246.85 709.813C1245.71 708.291 1244.16 707.038 1242.19 706.054C1240.22 705.069 1237.7 704.577 1234.63 704.577C1230.42 704.577 1226.92 705.547 1224.11 707.486C1221.34 709.395 1219.95 711.827 1219.95 714.781C1219.95 717.407 1220.91 719.48 1222.81 721.002C1224.72 722.524 1227.71 723.792 1231.77 724.806L1241.97 727.312C1248.12 728.804 1252.7 731.087 1255.71 734.16C1258.72 737.203 1260.23 741.127 1260.23 745.931C1260.23 749.869 1259.1 753.39 1256.83 756.493C1254.59 759.596 1251.46 762.043 1247.43 763.833C1243.4 765.623 1238.72 766.518 1233.38 766.518C1226.37 766.518 1220.56 764.996 1215.97 761.953C1211.37 758.91 1208.46 754.464 1207.24 748.616L1217.26 746.11C1218.22 749.809 1220.02 752.584 1222.68 754.434C1225.37 756.284 1228.87 757.209 1233.2 757.209C1238.12 757.209 1242.03 756.165 1244.92 754.076C1247.85 751.958 1249.31 749.422 1249.31 746.468C1249.31 744.081 1248.47 742.082 1246.8 740.471C1245.13 738.83 1242.57 737.606 1239.11 736.801L1227.65 734.115C1221.35 732.623 1216.73 730.311 1213.77 727.178C1210.85 724.016 1209.39 720.062 1209.39 715.318C1209.39 711.439 1210.48 708.008 1212.66 705.024C1214.86 702.041 1217.86 699.698 1221.65 697.998C1225.47 696.297 1229.8 695.447 1234.63 695.447C1241.43 695.447 1246.77 696.939 1250.65 699.922C1254.56 702.906 1257.34 706.844 1258.98 711.738ZM1311.58 765.086V696.342H1321.78V707.083H1322.67C1324.11 703.413 1326.42 700.564 1329.61 698.535C1332.8 696.476 1336.64 695.447 1341.11 695.447C1345.65 695.447 1349.42 696.476 1352.44 698.535C1355.48 700.564 1357.85 703.413 1359.55 707.083H1360.27C1362.03 703.533 1364.67 700.713 1368.19 698.624C1371.71 696.506 1375.93 695.447 1380.86 695.447C1387 695.447 1392.03 697.371 1395.94 701.22C1399.85 705.039 1401.8 710.992 1401.8 719.078V765.086H1391.24V719.078C1391.24 714.005 1389.85 710.38 1387.08 708.202C1384.3 706.024 1381.04 704.935 1377.28 704.935C1372.44 704.935 1368.7 706.397 1366.04 709.321C1363.39 712.215 1362.06 715.885 1362.06 720.331V765.086H1351.32V718.003C1351.32 714.095 1350.05 710.947 1347.51 708.56C1344.98 706.143 1341.71 704.935 1337.71 704.935C1334.97 704.935 1332.4 705.666 1330.01 707.128C1327.66 708.59 1325.75 710.619 1324.29 713.215C1322.85 715.781 1322.14 718.749 1322.14 722.121V765.086H1311.58ZM1449.94 766.518C1443.31 766.518 1437.6 765.056 1432.8 762.132C1428.02 759.178 1424.34 755.061 1421.74 749.78C1419.17 744.469 1417.89 738.292 1417.89 731.251C1417.89 724.209 1419.17 718.003 1421.74 712.633C1424.34 707.232 1427.95 703.025 1432.57 700.012C1437.23 696.968 1442.66 695.447 1448.86 695.447C1452.44 695.447 1455.98 696.043 1459.47 697.237C1462.96 698.43 1466.14 700.37 1469 703.055C1471.87 705.711 1474.15 709.231 1475.85 713.617C1477.55 718.003 1478.4 723.404 1478.4 729.819V734.294H1425.41V725.164H1467.66C1467.66 721.285 1466.88 717.824 1465.33 714.781C1463.81 711.738 1461.63 709.336 1458.8 707.575C1455.99 705.815 1452.68 704.935 1448.86 704.935C1444.66 704.935 1441.02 705.979 1437.94 708.068C1434.9 710.126 1432.56 712.812 1430.92 716.124C1429.27 719.436 1428.45 722.986 1428.45 726.775V732.862C1428.45 738.054 1429.35 742.455 1431.14 746.065C1432.96 749.645 1435.48 752.375 1438.7 754.255C1441.93 756.105 1445.67 757.03 1449.94 757.03C1452.71 757.03 1455.22 756.642 1457.46 755.866C1459.72 755.061 1461.68 753.867 1463.32 752.286C1464.96 750.675 1466.23 748.676 1467.12 746.289L1477.33 749.153C1476.25 752.614 1474.45 755.657 1471.91 758.283C1469.38 760.879 1466.24 762.908 1462.51 764.37C1458.78 765.802 1454.59 766.518 1449.94 766.518Z" fill="black"/>
<path d="M271.153 419V336.698H303.624C309.866 336.698 315.184 337.89 319.578 340.275C323.972 342.632 327.321 345.914 329.625 350.12C331.955 354.3 333.121 359.122 333.121 364.587C333.121 370.053 331.942 374.875 329.584 379.055C327.227 383.234 323.811 386.489 319.337 388.82C314.89 391.151 309.505 392.316 303.182 392.316H282.486V378.371H300.369C303.718 378.371 306.477 377.795 308.647 376.643C310.844 375.465 312.478 373.844 313.55 371.781C314.648 369.691 315.198 367.293 315.198 364.587C315.198 361.855 314.648 359.47 313.55 357.434C312.478 355.371 310.844 353.777 308.647 352.652C306.45 351.5 303.664 350.924 300.288 350.924H288.554V419H271.153ZM361.221 383.314V419H344.102V336.698H360.739V368.164H361.462C362.856 364.52 365.106 361.667 368.214 359.604C371.322 357.515 375.22 356.47 379.908 356.47C384.195 356.47 387.932 357.407 391.12 359.283C394.335 361.131 396.827 363.797 398.595 367.28C400.39 370.736 401.274 374.875 401.247 379.698V419H384.128V382.752C384.154 378.947 383.19 375.987 381.234 373.871C379.305 371.754 376.599 370.696 373.117 370.696C370.786 370.696 368.723 371.191 366.928 372.183C365.16 373.174 363.766 374.621 362.748 376.523C361.757 378.398 361.248 380.662 361.221 383.314ZM414.72 419V357.273H431.839V419H414.72ZM423.32 349.317C420.774 349.317 418.591 348.473 416.769 346.785C414.974 345.07 414.077 343.021 414.077 340.636C414.077 338.279 414.974 336.256 416.769 334.568C418.591 332.853 420.774 331.996 423.32 331.996C425.865 331.996 428.035 332.853 429.83 334.568C431.652 336.256 432.562 338.279 432.562 340.636C432.562 343.021 431.652 345.07 429.83 346.785C428.035 348.473 425.865 349.317 423.32 349.317ZM462.672 336.698V419H445.553V336.698H462.672ZM476.386 419V357.273H493.505V419H476.386ZM484.986 349.317C482.441 349.317 480.257 348.473 478.435 346.785C476.64 345.07 475.743 343.021 475.743 340.636C475.743 338.279 476.64 336.256 478.435 334.568C480.257 332.853 482.441 331.996 484.986 331.996C487.531 331.996 489.701 332.853 491.496 334.568C493.318 336.256 494.229 338.279 494.229 340.636C494.229 343.021 493.318 345.07 491.496 346.785C489.701 348.473 487.531 349.317 484.986 349.317ZM507.219 442.147V357.273H524.097V367.642H524.861C525.611 365.981 526.696 364.293 528.116 362.578C529.563 360.837 531.438 359.39 533.742 358.238C536.073 357.059 538.966 356.47 542.422 356.47C546.923 356.47 551.076 357.649 554.88 360.006C558.685 362.337 561.725 365.86 564.003 370.575C566.28 375.264 567.418 381.144 567.418 388.217C567.418 395.102 566.307 400.916 564.083 405.658C561.886 410.373 558.886 413.95 555.081 416.388C551.304 418.799 547.071 420.005 542.382 420.005C539.06 420.005 536.234 419.455 533.903 418.357C531.599 417.259 529.71 415.879 528.237 414.218C526.763 412.53 525.638 410.829 524.861 409.114H524.339V442.147H507.219ZM523.977 388.137C523.977 391.807 524.486 395.009 525.504 397.741C526.522 400.474 527.995 402.604 529.924 404.131C531.853 405.631 534.198 406.381 536.957 406.381C539.743 406.381 542.101 405.618 544.03 404.091C545.959 402.537 547.419 400.394 548.41 397.661C549.428 394.901 549.937 391.727 549.937 388.137C549.937 384.574 549.442 381.439 548.45 378.733C547.459 376.027 545.999 373.911 544.07 372.384C542.141 370.857 539.77 370.093 536.957 370.093C534.171 370.093 531.813 370.83 529.884 372.303C527.982 373.777 526.522 375.866 525.504 378.572C524.486 381.278 523.977 384.466 523.977 388.137ZM578.831 442.147V357.273H595.71V367.642H596.473C597.224 365.981 598.309 364.293 599.728 362.578C601.175 360.837 603.051 359.39 605.355 358.238C607.685 357.059 610.579 356.47 614.035 356.47C618.536 356.47 622.688 357.649 626.493 360.006C630.297 362.337 633.338 365.86 635.615 370.575C637.892 375.264 639.031 381.144 639.031 388.217C639.031 395.102 637.919 400.916 635.695 405.658C633.499 410.373 630.498 413.95 626.694 416.388C622.916 418.799 618.683 420.005 613.995 420.005C610.673 420.005 607.846 419.455 605.515 418.357C603.211 417.259 601.323 415.879 599.849 414.218C598.376 412.53 597.25 410.829 596.473 409.114H595.951V442.147H578.831ZM595.589 388.137C595.589 391.807 596.098 395.009 597.116 397.741C598.134 400.474 599.608 402.604 601.537 404.131C603.466 405.631 605.81 406.381 608.57 406.381C611.356 406.381 613.713 405.618 615.642 404.091C617.571 402.537 619.031 400.394 620.023 397.661C621.041 394.901 621.55 391.727 621.55 388.137C621.55 384.574 621.054 381.439 620.063 378.733C619.072 376.027 617.611 373.911 615.683 372.384C613.754 370.857 611.383 370.093 608.57 370.093C605.783 370.093 603.426 370.83 601.497 372.303C599.595 373.777 598.134 375.866 597.116 378.572C596.098 381.278 595.589 384.466 595.589 388.137ZM650.444 419V357.273H667.563V419H650.444ZM659.044 349.317C656.499 349.317 654.315 348.473 652.493 346.785C650.698 345.07 649.801 343.021 649.801 340.636C649.801 338.279 650.698 336.256 652.493 334.568C654.315 332.853 656.499 331.996 659.044 331.996C661.589 331.996 663.759 332.853 665.554 334.568C667.376 336.256 668.287 338.279 668.287 340.636C668.287 343.021 667.376 345.07 665.554 346.785C663.759 348.473 661.589 349.317 659.044 349.317ZM698.879 420.165C694.94 420.165 691.431 419.482 688.35 418.116C685.269 416.723 682.831 414.673 681.036 411.967C679.268 409.235 678.384 405.832 678.384 401.76C678.384 398.331 679.013 395.451 680.272 393.12C681.532 390.789 683.246 388.914 685.416 387.494C687.586 386.074 690.051 385.002 692.811 384.279C695.597 383.555 698.517 383.046 701.571 382.752C705.161 382.377 708.055 382.028 710.252 381.707C712.448 381.359 714.042 380.85 715.034 380.18C716.025 379.51 716.521 378.519 716.521 377.206V376.965C716.521 374.42 715.717 372.451 714.109 371.057C712.529 369.664 710.278 368.968 707.358 368.968C704.277 368.968 701.826 369.651 700.004 371.017C698.182 372.357 696.977 374.045 696.387 376.081L680.554 374.795C681.357 371.044 682.938 367.802 685.296 365.07C687.653 362.31 690.694 360.194 694.418 358.72C698.169 357.22 702.509 356.47 707.438 356.47C710.868 356.47 714.15 356.872 717.284 357.675C720.446 358.479 723.245 359.725 725.683 361.413C728.148 363.101 730.09 365.271 731.51 367.923C732.93 370.548 733.64 373.696 733.64 377.367V419H717.405V410.44H716.922C715.931 412.369 714.605 414.07 712.944 415.544C711.283 416.991 709.287 418.129 706.956 418.96C704.625 419.764 701.933 420.165 698.879 420.165ZM703.781 408.351C706.3 408.351 708.524 407.855 710.452 406.864C712.381 405.846 713.895 404.479 714.994 402.765C716.092 401.05 716.641 399.108 716.641 396.938V390.387C716.105 390.735 715.369 391.057 714.431 391.352C713.52 391.62 712.489 391.874 711.337 392.115C710.185 392.33 709.033 392.53 707.881 392.718C706.729 392.879 705.684 393.026 704.746 393.16C702.737 393.455 700.982 393.924 699.482 394.567C697.981 395.21 696.816 396.08 695.985 397.179C695.155 398.25 694.74 399.59 694.74 401.197C694.74 403.528 695.583 405.31 697.271 406.542C698.986 407.748 701.156 408.351 703.781 408.351ZM764.041 383.314V419H746.922V357.273H763.237V368.164H763.961C765.327 364.574 767.618 361.734 770.833 359.644C774.048 357.528 777.946 356.47 782.527 356.47C786.814 356.47 790.551 357.407 793.739 359.283C796.927 361.158 799.405 363.837 801.174 367.32C802.942 370.776 803.826 374.902 803.826 379.698V419H786.706V382.752C786.733 378.974 785.769 376.027 783.813 373.911C781.857 371.767 779.165 370.696 775.735 370.696C773.431 370.696 771.395 371.191 769.627 372.183C767.886 373.174 766.519 374.621 765.528 376.523C764.564 378.398 764.068 380.662 764.041 383.314ZM868.677 374.875L853.004 375.84C852.736 374.5 852.16 373.294 851.276 372.223C850.392 371.124 849.227 370.254 847.78 369.611C846.36 368.941 844.659 368.606 842.676 368.606C840.024 368.606 837.787 369.169 835.965 370.294C834.143 371.392 833.232 372.866 833.232 374.714C833.232 376.188 833.822 377.434 835.001 378.452C836.179 379.47 838.202 380.287 841.069 380.903L852.241 383.154C858.242 384.386 862.716 386.369 865.663 389.101C868.61 391.834 870.083 395.424 870.083 399.871C870.083 403.917 868.891 407.466 866.507 410.521C864.149 413.575 860.908 415.959 856.782 417.674C852.683 419.362 847.954 420.206 842.596 420.206C834.425 420.206 827.914 418.504 823.065 415.102C818.243 411.673 815.416 407.011 814.586 401.117L831.424 400.233C831.933 402.724 833.165 404.627 835.121 405.939C837.077 407.225 839.582 407.868 842.636 407.868C845.637 407.868 848.048 407.292 849.87 406.14C851.718 404.961 852.656 403.448 852.683 401.599C852.656 400.045 852 398.773 850.714 397.782C849.428 396.763 847.445 395.987 844.766 395.451L834.076 393.321C828.048 392.115 823.561 390.025 820.614 387.052C817.694 384.078 816.233 380.287 816.233 375.679C816.233 371.714 817.305 368.298 819.448 365.431C821.618 362.565 824.659 360.354 828.571 358.801C832.509 357.247 837.117 356.47 842.395 356.47C850.191 356.47 856.326 358.117 860.8 361.413C865.301 364.708 867.927 369.195 868.677 374.875ZM905.649 404.533V390.829L940.008 336.698H951.823V355.666H944.83L923.17 389.945V390.588H971.997V404.533H905.649ZM945.152 419V400.353L945.473 394.285V336.698H961.789V419H945.152ZM993.758 409.436C991.105 409.436 988.828 408.498 986.926 406.623C985.051 404.747 984.113 402.47 984.113 399.791C984.113 397.165 985.051 394.915 986.926 393.039C988.828 391.164 991.105 390.226 993.758 390.226C996.33 390.226 998.58 391.164 1000.51 393.039C1002.44 394.915 1003.4 397.165 1003.4 399.791C1003.4 401.559 1002.95 403.18 1002.04 404.653C1001.15 406.1 999.987 407.266 998.54 408.15C997.093 409.007 995.499 409.436 993.758 409.436ZM993.758 369.048C991.105 369.048 988.828 368.11 986.926 366.235C985.051 364.36 984.113 362.082 984.113 359.403C984.113 356.778 985.051 354.541 986.926 352.692C988.828 350.817 991.105 349.879 993.758 349.879C996.33 349.879 998.58 350.817 1000.51 352.692C1002.44 354.541 1003.4 356.778 1003.4 359.403C1003.4 361.198 1002.95 362.833 1002.04 364.306C1001.15 365.753 999.987 366.905 998.54 367.762C997.093 368.619 995.499 369.048 993.758 369.048ZM1053.1 336.698V419H1035.7V353.215H1035.22L1016.37 365.029V349.598L1036.75 336.698H1053.1ZM1103.09 420.125C1097.08 420.125 1091.74 419.094 1087.05 417.031C1082.39 414.941 1078.71 412.075 1076 408.431C1073.32 404.761 1071.94 400.528 1071.86 395.732H1089.38C1089.49 397.741 1090.15 399.51 1091.35 401.037C1092.58 402.537 1094.22 403.702 1096.25 404.533C1098.29 405.363 1100.58 405.779 1103.13 405.779C1105.78 405.779 1108.12 405.31 1110.16 404.372C1112.19 403.434 1113.79 402.135 1114.94 400.474C1116.09 398.813 1116.67 396.897 1116.67 394.727C1116.67 392.53 1116.05 390.588 1114.82 388.9C1113.61 387.186 1111.87 385.846 1109.6 384.882C1107.34 383.917 1104.67 383.435 1101.56 383.435H1093.88V370.656H1101.56C1104.18 370.656 1106.5 370.2 1108.51 369.289C1110.55 368.378 1112.13 367.119 1113.25 365.512C1114.38 363.877 1114.94 361.975 1114.94 359.805C1114.94 357.742 1114.44 355.934 1113.45 354.38C1112.49 352.799 1111.12 351.567 1109.35 350.683C1107.61 349.799 1105.58 349.357 1103.25 349.357C1100.89 349.357 1098.73 349.785 1096.78 350.643C1094.82 351.473 1093.25 352.665 1092.07 354.219C1090.9 355.773 1090.27 357.595 1090.19 359.685H1073.51C1073.59 354.943 1074.94 350.763 1077.57 347.146C1080.19 343.53 1083.73 340.703 1088.18 338.667C1092.65 336.604 1097.7 335.573 1103.33 335.573C1109.01 335.573 1113.98 336.604 1118.24 338.667C1122.5 340.73 1125.8 343.516 1128.16 347.026C1130.55 350.509 1131.72 354.42 1131.7 358.76C1131.72 363.368 1130.29 367.213 1127.4 370.294C1124.53 373.375 1120.79 375.331 1116.19 376.161V376.804C1122.24 377.581 1126.85 379.684 1130.01 383.113C1133.2 386.516 1134.78 390.776 1134.75 395.893C1134.78 400.581 1133.43 404.747 1130.69 408.391C1127.99 412.034 1124.25 414.901 1119.48 416.991C1114.71 419.08 1109.25 420.125 1103.09 420.125Z" fill="black"/>
<defs>
<filter id="filter0_d_1907_2125" x="0.638607" y="0.537045" width="2656.56" height="1218.11" filterUnits="userSpaceOnUse" color-interpolation-filters="sRGB">
<feFlood flood-opacity="0" result="BackgroundImageFix"/>
<feColorMatrix in="SourceAlpha" type="matrix" values="0 0 0 0 0 0 0 0 0 0 0 0 0 0 0 0 0 0 127 0" result="hardAlpha"/>
<feOffset dx="-31.1205" dy="56.5827"/>
<feGaussianBlur stdDeviation="31.1205"/>
<feComposite in2="hardAlpha" operator="out"/>
<feColorMatrix type="matrix" values="0 0 0 0 0 0 0 0 0 0 0 0 0 0 0 0 0 0 0.25 0"/>
<feBlend mode="normal" in2="BackgroundImageFix" result="effect1_dropShadow_1907_2125"/>
<feBlend mode="normal" in="SourceGraphic" in2="effect1_dropShadow_1907_2125" result="shape"/>
</filter>
</defs>
</svg>
