<svg width="69" height="19" viewBox="0 0 69 19" fill="none" xmlns="http://www.w3.org/2000/svg">
<g clip-path="url(#clip0_2281_3175)">
<path d="M10.934 15.2273C10.934 15.9302 10.3642 16.5 9.66126 16.5C8.95835 16.5 8.38853 15.9302 8.38853 15.2273C8.38853 14.5244 8.95835 13.9545 9.66126 13.9545C10.3642 13.9545 10.934 14.5244 10.934 15.2273Z" fill="white" fill-opacity="0.8"/>
<path d="M13.3396 12.9453C13.732 12.6357 13.8035 12.0599 13.4337 11.7236C13.0504 11.375 12.6184 11.0813 12.1501 10.8525C11.4098 10.4908 10.5976 10.3005 9.77363 10.2956C8.94971 10.2906 8.13524 10.4713 7.39066 10.8241C6.91963 11.0472 6.48421 11.3357 6.09671 11.6797C5.72297 12.0116 5.78755 12.5882 6.17622 12.9024C6.56489 13.2166 7.1299 13.1447 7.5293 12.8443C7.72726 12.6954 7.94037 12.5664 8.16563 12.4596C8.66468 12.2232 9.21057 12.1021 9.7628 12.1054C10.315 12.1087 10.8594 12.2363 11.3556 12.4787C11.5796 12.5881 11.7911 12.7197 11.9873 12.871C12.3831 13.1762 12.9472 13.2548 13.3396 12.9453Z" fill="white" fill-opacity="0.8"/>
<path d="M15.8514 10.3276C16.2362 10.024 16.3052 9.46213 15.9638 9.1103C15.2672 8.39219 14.4498 7.79843 13.5468 7.35728C12.3773 6.78593 11.0942 6.48521 9.79266 6.47743C8.4911 6.46964 7.20449 6.75499 6.02825 7.31231C5.12005 7.74263 4.29566 8.32656 3.59042 9.03629C3.2449 9.38401 3.30712 9.94663 3.68833 10.2548C4.06954 10.563 4.62485 10.4988 4.97942 10.1603C5.51073 9.6531 6.12111 9.23268 6.78836 8.91652C7.72377 8.47331 8.74696 8.24638 9.78204 8.25258C10.8171 8.25877 11.8375 8.49792 12.7676 8.95229C13.431 9.2764 14.0363 9.70409 14.5615 10.2177C14.912 10.5604 15.4665 10.6312 15.8514 10.3276Z" fill="white" fill-opacity="0.8"/>
<path d="M18.4561 7.75244C18.8573 7.43597 18.9286 6.85118 18.5802 6.47743C17.6463 5.47578 15.8993 4.24178 14.6642 3.63836C13.1514 2.89928 11.4916 2.51027 9.80789 2.5002C8.12422 2.49013 6.45988 2.85925 4.93833 3.58018C3.69607 4.16879 2.08281 5.0455 1.13705 6.03591C0.784149 6.40546 0.848509 6.99106 1.24589 7.31231C1.64327 7.63356 2.22277 7.56809 2.58165 7.20433C3.34859 6.42696 4.73953 5.72204 5.73067 5.25242C7.00118 4.65043 8.39093 4.34221 9.79682 4.35062C11.2027 4.35903 12.5887 4.68385 13.8519 5.301C14.8373 5.78244 16.3641 6.842 17.1217 7.62849C17.4762 7.99651 18.0549 8.06891 18.4561 7.75244Z" fill="white" fill-opacity="0.6"/>
</g>
<path d="M24.7812 12.5C24.7812 11.9477 25.229 11.5 25.7812 11.5C26.3335 11.5 26.7812 11.9477 26.7812 12.5V15.5C26.7812 16.0523 26.3335 16.5 25.7812 16.5C25.229 16.5 24.7812 16.0523 24.7812 15.5V12.5Z" fill="white" fill-opacity="0.8"/>
<path d="M28.7812 9.5C28.7812 8.94772 29.229 8.5 29.7812 8.5C30.3335 8.5 30.7812 8.94772 30.7812 9.5V15.5C30.7812 16.0523 30.3335 16.5 29.7812 16.5C29.229 16.5 28.7812 16.0523 28.7812 15.5V9.5Z" fill="white" fill-opacity="0.8"/>
<path d="M32.7812 6.5C32.7812 5.94772 33.229 5.5 33.7812 5.5C34.3335 5.5 34.7812 5.94772 34.7812 6.5V15.5C34.7812 16.0523 34.3335 16.5 33.7812 16.5C33.229 16.5 32.7812 16.0523 32.7812 15.5V6.5Z" fill="white" fill-opacity="0.6"/>
<path d="M36.7812 3.5C36.7812 2.94772 37.229 2.5 37.7812 2.5C38.3335 2.5 38.7812 2.94772 38.7812 3.5V15.5C38.7812 16.0523 38.3335 16.5 37.7812 16.5C37.229 16.5 36.7812 16.0523 36.7812 15.5V3.5Z" fill="white" fill-opacity="0.6"/>
<path d="M60.1953 4.67969C59.8031 4.74971 59.4527 4.87971 59.1436 5.06738C58.6591 5.36684 58.2935 5.76752 58.0469 6.26953C57.8003 6.76276 57.6768 7.31317 57.6768 7.9209C57.6768 8.5022 57.7954 9.02635 58.0332 9.49316C58.2798 9.95992 58.6144 10.3256 59.0371 10.5898C59.382 10.8054 59.7683 10.932 60.1953 10.9717V12.6055C60.0983 12.5747 60.0026 12.5375 59.9092 12.4922C59.6275 12.3425 59.3851 12.105 59.1826 11.7793L57.7158 12.6113C58.0417 13.1486 58.4608 13.5803 58.9717 13.9062C59.3265 14.1264 59.7343 14.2697 60.1953 14.3369V17.7578H53.0391C48.4785 17.7578 44.7813 14.0606 44.7812 9.5C44.7812 4.93939 48.4784 1.24219 53.0391 1.24219H60.1953V4.67969ZM53.4561 4.61816C52.2934 4.61816 51.3726 5.04113 50.6943 5.88672C50.025 6.7235 49.6904 7.94778 49.6904 9.55957C49.6905 11.0921 50.0074 12.2814 50.6416 13.127C51.2846 13.9635 52.1832 14.3818 53.3369 14.3818C54.059 14.3818 54.6621 14.232 55.1465 13.9326C55.6309 13.6332 55.9965 13.2324 56.2432 12.7305C56.4897 12.2285 56.6132 11.6779 56.6133 11.0791C56.6133 10.489 56.4897 9.96482 56.2432 9.50684C56.0054 9.04017 55.6755 8.67438 55.2529 8.41016C54.8301 8.14591 54.3449 8.01367 53.7988 8.01367C53.4379 8.01371 53.0768 8.09254 52.7158 8.25098C52.3635 8.4095 52.0591 8.6517 51.8037 8.97754C51.6424 9.18488 51.5195 9.43233 51.4336 9.71875V9.37402C51.4424 8.34383 51.6234 7.57332 51.9756 7.0625C52.3279 6.55162 52.8219 6.2959 53.4561 6.2959C53.7818 6.29597 54.0855 6.37085 54.3672 6.52051C54.6579 6.66144 54.9048 6.8948 55.1074 7.2207L56.5605 6.38867C56.2435 5.85137 55.8292 5.42354 55.3184 5.10645C54.8076 4.78072 54.1868 4.61824 53.4561 4.61816ZM53.376 9.63867C53.8426 9.63867 54.1997 9.78377 54.4463 10.0742C54.6929 10.3561 54.8164 10.7353 54.8164 11.2109C54.8164 11.6601 54.6928 12.0297 54.4463 12.3203C54.1997 12.6021 53.8388 12.7431 53.3633 12.7432C52.9053 12.7432 52.5484 12.6022 52.293 12.3203C52.0377 12.0297 51.9102 11.66 51.9102 11.2109C51.9102 10.8938 51.9714 10.6206 52.0947 10.3916C52.218 10.1538 52.3902 9.96902 52.6104 9.83691C52.8304 9.70493 53.0855 9.63872 53.376 9.63867ZM60.1953 9.20605C60.0624 9.13867 59.9449 9.05006 59.8438 8.93848C59.5971 8.64784 59.4737 8.26463 59.4736 7.78906C59.4736 7.33103 59.601 6.96057 59.8564 6.67871C59.9544 6.57064 60.0676 6.48361 60.1953 6.41699V9.20605Z" fill="white" fill-opacity="0.8"/>
<path d="M60.7461 1.24219C65.3066 1.24233 69.0039 4.93947 69.0039 9.5C69.0039 14.0605 65.3066 17.7577 60.7461 17.7578H60.1953V14.3369C60.198 14.3373 60.2005 14.3385 60.2031 14.3389C60.4033 14.3676 60.6139 14.3818 60.834 14.3818C61.9965 14.3818 62.9127 13.9635 63.582 13.127C64.2602 12.2814 64.5996 11.0522 64.5996 9.44043C64.5996 7.89916 64.2777 6.70978 63.6348 5.87305C63.0006 5.03639 62.1021 4.61816 60.9395 4.61816C60.6797 4.61817 60.4341 4.63899 60.2031 4.67969C60.2005 4.68014 60.1979 4.6802 60.1953 4.68066V1.24219H60.7461ZM62.8555 9.62598C62.8378 10.6472 62.6529 11.4179 62.3008 11.9375C61.9573 12.4482 61.468 12.704 60.834 12.7041C60.6185 12.7041 60.4101 12.673 60.21 12.6113C60.205 12.6098 60.2003 12.607 60.1953 12.6055V10.9727C60.1979 10.9729 60.2005 10.9734 60.2031 10.9736C60.2968 10.9821 60.3926 10.9863 60.4902 10.9863C60.8599 10.9863 61.2211 10.9074 61.5732 10.749C61.9254 10.5905 62.2251 10.3521 62.4717 10.0352C62.6399 9.82057 62.7675 9.56732 62.8555 9.27637V9.62598ZM60.9258 6.25684C61.3838 6.25684 61.7407 6.39782 61.9961 6.67969C62.2515 6.96152 62.3799 7.33112 62.3799 7.78906C62.3799 8.10597 62.3175 8.38338 62.1943 8.62109C62.0711 8.84989 61.8997 9.03103 61.6797 9.16309C61.4595 9.29512 61.2036 9.36132 60.9131 9.36133C60.6407 9.36131 60.4039 9.31163 60.2031 9.21191C60.2004 9.21055 60.198 9.20859 60.1953 9.20703V6.41699C60.1979 6.41565 60.2005 6.41441 60.2031 6.41309C60.4066 6.30899 60.6476 6.25691 60.9258 6.25684Z" fill="white" fill-opacity="0.6"/>
<defs>
<clipPath id="clip0_2281_3175">
<rect width="18" height="18" fill="white" transform="translate(0.78125 0.5)"/>
</clipPath>
</defs>
</svg>
