<svg width="24" height="24" viewBox="0 0 24 24" fill="none" xmlns="http://www.w3.org/2000/svg">
<g clip-path="url(#clip0_2159_2810)">
<path d="M12.5287 0H4.81875C2.16169 0 0 2.16169 0 4.81875V18.3112C0 20.9683 2.16169 23.13 4.81875 23.13H12.2647C10.6581 21.7162 9.6375 19.6509 9.6375 17.3475C9.6375 15.0441 10.6581 12.9788 12.2647 11.565H4.81875C4.28676 11.565 3.855 11.1332 3.855 10.6012C3.855 10.0693 4.28676 9.6375 4.81875 9.6375H12.5287C13.0607 9.6375 13.4925 10.0693 13.4925 10.6012C13.4925 10.6331 13.4771 10.66 13.4742 10.6918C14.6143 10.0259 15.9346 9.6375 17.3475 9.6375V4.81875C17.3475 2.16169 15.1858 0 12.5287 0ZM4.81875 14.4562H6.74625C7.27824 14.4562 7.71 14.888 7.71 15.42C7.71 15.952 7.27824 16.3837 6.74625 16.3837H4.81875C4.28676 16.3837 3.855 15.952 3.855 15.42C3.855 14.888 4.28676 14.4562 4.81875 14.4562ZM12.5287 6.74625H4.81875C4.28676 6.74625 3.855 6.31449 3.855 5.7825C3.855 5.25051 4.28676 4.81875 4.81875 4.81875H12.5287C13.0607 4.81875 13.4925 5.25051 13.4925 5.7825C13.4925 6.31449 13.0607 6.74625 12.5287 6.74625ZM17.3475 11.565C14.1575 11.565 11.565 14.1575 11.565 17.3475C11.565 20.5375 14.1575 23.13 17.3475 23.13C20.5375 23.13 23.13 20.5375 23.13 17.3475C23.13 14.1575 20.5375 11.565 17.3475 11.565ZM18.3112 20.2387C18.3112 20.7688 17.8776 21.2025 17.3475 21.2025C16.8174 21.2025 16.3837 20.7688 16.3837 20.2387V18.3112C16.3837 17.7812 16.8174 17.3475 17.3475 17.3475C17.8776 17.3475 18.3112 17.7812 18.3112 18.3112V20.2387ZM17.3475 16.3837C16.5476 16.3837 15.9019 15.738 15.9019 14.9381C15.9019 14.1382 16.5476 13.4925 17.3475 13.4925C18.1474 13.4925 18.7931 14.1382 18.7931 14.9381C18.7931 15.738 18.1474 16.3837 17.3475 16.3837Z" fill="#7D7D7D"/>
</g>
<defs>
<clipPath id="clip0_2159_2810">
<rect width="23.13" height="23.13" fill="white"/>
</clipPath>
</defs>
</svg>
