<svg width="107" height="107" viewBox="0 0 107 107" fill="none" xmlns="http://www.w3.org/2000/svg">
<path d="M62.418 31.2083V2.05083C66.5422 3.60829 70.2882 6.0246 73.4078 9.13958L88.9406 24.6813C92.0591 27.7972 94.4773 31.5422 96.0338 35.6667H66.8763C65.6939 35.6667 64.5599 35.197 63.7238 34.3609C62.8877 33.5248 62.418 32.3908 62.418 31.2083ZM98.0846 46.7456V84.7083C98.0776 90.6183 95.7267 96.2841 91.5477 100.463C87.3688 104.642 81.7029 106.993 75.793 107H31.2096C25.2997 106.993 19.6338 104.642 15.4549 100.463C11.2759 96.2841 8.92505 90.6183 8.91797 84.7083V22.2917C8.92505 16.3817 11.2759 10.7159 15.4549 6.5369C19.6338 2.35793 25.2997 0.0070792 31.2096 0L51.339 0C52.0657 0 52.7835 0.0579583 53.5013 0.107V31.2083C53.5013 34.7556 54.9104 38.1576 57.4187 40.6659C59.927 43.1742 63.329 44.5833 66.8763 44.5833H97.9776C98.0267 45.3011 98.0846 46.0189 98.0846 46.7456ZM62.418 84.7083C62.418 83.5259 61.9483 82.3919 61.1122 81.5558C60.2761 80.7197 59.1421 80.25 57.9596 80.25H35.668C34.4855 80.25 33.3516 80.7197 32.5155 81.5558C31.6794 82.3919 31.2096 83.5259 31.2096 84.7083C31.2096 85.8908 31.6794 87.0248 32.5155 87.8609C33.3516 88.697 34.4855 89.1667 35.668 89.1667H57.9596C59.1421 89.1667 60.2761 88.697 61.1122 87.8609C61.9483 87.0248 62.418 85.8908 62.418 84.7083ZM75.793 66.875C75.793 65.6926 75.3233 64.5586 74.4872 63.7225C73.6511 62.8864 72.5171 62.4167 71.3346 62.4167H35.668C34.4855 62.4167 33.3516 62.8864 32.5155 63.7225C31.6794 64.5586 31.2096 65.6926 31.2096 66.875C31.2096 68.0574 31.6794 69.1914 32.5155 70.0275C33.3516 70.8636 34.4855 71.3333 35.668 71.3333H71.3346C72.5171 71.3333 73.6511 70.8636 74.4872 70.0275C75.3233 69.1914 75.793 68.0574 75.793 66.875Z" fill="#35B2C2"/>
</svg>
