<svg width="41" height="41" viewBox="0 0 41 41" fill="none" xmlns="http://www.w3.org/2000/svg">
<g clip-path="url(#clip0_2315_2908)">
<path d="M27.2236 40.1206C25.6476 40.1239 24.1694 39.4849 23.0867 38.3361L19.1286 34.1396C18.5012 33.4741 18.5327 32.4262 19.1981 31.7988C19.8636 31.1714 20.9115 31.2029 21.5389 31.8684L25.497 36.0649C26.3711 37.03 27.9983 37.0548 28.9005 36.1145L37.3547 27.3805C37.9921 26.725 39.04 26.7084 39.6955 27.3441C40.3527 27.9798 40.3693 29.0277 39.7336 29.6849L31.2595 38.4387C30.1653 39.533 28.7416 40.1206 27.2236 40.1206ZM20.2179 40.1206H8.74583C4.18185 40.1206 0.46875 36.4075 0.46875 31.8435V8.66771C0.46875 4.10372 4.18185 0.390625 8.74583 0.390625H21.9892C26.5531 0.390625 30.2662 4.10372 30.2662 8.66771V29.9431L27.2302 33.0801L23.9492 29.5988C23.0387 28.6337 21.8071 28.0791 20.4811 28.041C19.1369 27.9947 17.8937 28.4814 16.9286 29.3919C15.9634 30.3023 15.4105 31.5323 15.3725 32.86C15.3344 34.186 15.8128 35.4474 16.7233 36.4125L20.2212 40.1223L20.2179 40.1206ZM7.09042 10.3231C7.09042 11.2369 7.83204 11.9785 8.74583 11.9785H21.9892C22.9046 11.9785 23.6446 11.2369 23.6446 10.3231C23.6446 9.40934 22.9046 8.66771 21.9892 8.66771H8.74583C7.83204 8.66771 7.09042 9.40934 7.09042 10.3231ZM7.09042 18.6002C7.09042 19.514 7.83204 20.2556 8.74583 20.2556H21.9892C22.9046 20.2556 23.6446 19.514 23.6446 18.6002C23.6446 17.6864 22.9046 16.9448 21.9892 16.9448H8.74583C7.83204 16.9448 7.09042 17.6864 7.09042 18.6002ZM8.74583 28.5327H13.7121C14.6259 28.5327 15.3675 27.7911 15.3675 26.8773C15.3675 25.9635 14.6259 25.2219 13.7121 25.2219H8.74583C7.83204 25.2219 7.09042 25.9635 7.09042 26.8773C7.09042 27.7911 7.83204 28.5327 8.74583 28.5327Z" fill="white"/>
</g>
<defs>
<clipPath id="clip0_2315_2908">
<rect width="39.73" height="39.73" fill="white" transform="translate(0.46875 0.390625)"/>
</clipPath>
</defs>
</svg>
