<svg width="24" height="25" viewBox="0 0 24 25" fill="none" xmlns="http://www.w3.org/2000/svg">
<path d="M18.8465 18.6326C18.8202 18.8026 18.6779 18.9217 18.5288 18.8986C18.3797 18.8755 18.2801 18.719 18.3064 18.549C18.3327 18.379 18.475 18.2599 18.6241 18.283C18.7732 18.3061 18.8728 18.4626 18.8465 18.6326Z" fill="white"/>
<path d="M19.4112 17.6444C19.3849 17.8144 19.2426 17.9335 19.0935 17.9104C18.9444 17.8873 18.8448 17.7308 18.8711 17.5608C18.8974 17.3908 19.0397 17.2717 19.1888 17.2947C19.3379 17.3178 19.4375 17.4743 19.4112 17.6444Z" fill="white"/>
<path d="M19.8818 16.6561C19.8554 16.8261 19.7132 16.9452 19.5641 16.9221C19.415 16.8991 19.3154 16.7425 19.3417 16.5725C19.368 16.4025 19.5103 16.2834 19.6594 16.3065C19.8085 16.3296 19.9081 16.4861 19.8818 16.6561Z" fill="white"/>
<path d="M20.2112 15.5738C20.1849 15.7438 20.0426 15.8629 19.8935 15.8398C19.7444 15.8167 19.6448 15.6602 19.6711 15.4902C19.6974 15.3202 19.8397 15.2011 19.9888 15.2241C20.1379 15.2472 20.2375 15.4038 20.2112 15.5738Z" fill="white"/>
<path d="M20.4465 14.4914C20.4202 14.6614 20.2779 14.7805 20.1288 14.7574C19.9797 14.7344 19.8801 14.5778 19.9064 14.4078C19.9327 14.2378 20.075 14.1187 20.2241 14.1418C20.3732 14.1649 20.4728 14.3214 20.4465 14.4914Z" fill="white"/>
<path d="M20.5406 13.4091C20.5143 13.5791 20.372 13.6982 20.2229 13.6751C20.0738 13.652 19.9742 13.4955 20.0005 13.3255C20.0269 13.1555 20.1691 13.0364 20.3182 13.0594C20.4673 13.0825 20.5669 13.2391 20.5406 13.4091Z" fill="white"/>
<path d="M20.5876 12.2796C20.5613 12.4497 20.4191 12.5688 20.27 12.5457C20.1208 12.5226 20.0213 12.3661 20.0476 12.1961C20.0739 12.0261 20.2161 11.9069 20.3653 11.93C20.5144 11.9531 20.614 12.1096 20.5876 12.2796Z" fill="white"/>
<path d="M20.4935 11.1973C20.4672 11.3673 20.325 11.4864 20.1759 11.4633C20.0267 11.4402 19.9272 11.2837 19.9535 11.1137C19.9798 10.9437 20.122 10.8246 20.2712 10.8477C20.4203 10.8708 20.5198 11.0273 20.4935 11.1973Z" fill="white"/>
<path d="M20.2582 10.162C20.2319 10.332 20.0897 10.4511 19.9406 10.428C19.7914 10.4049 19.6919 10.2484 19.7182 10.0784C19.7445 9.9084 19.8867 9.7893 20.0359 9.81238C20.185 9.83547 20.2845 9.992 20.2582 10.162Z" fill="white"/>
<path d="M19.9288 9.12671C19.9025 9.29671 19.7603 9.41582 19.6112 9.39273C19.462 9.36965 19.3625 9.21312 19.3888 9.04312C19.4151 8.87311 19.5573 8.75401 19.7064 8.77709C19.8556 8.80017 19.9551 8.9567 19.9288 9.12671Z" fill="white"/>
<path d="M19.5053 8.18553C19.479 8.35553 19.3368 8.47464 19.1876 8.45156C19.0385 8.42847 18.9389 8.27194 18.9652 8.10194C18.9916 7.93193 19.1338 7.81283 19.2829 7.83591C19.432 7.859 19.5316 8.01552 19.5053 8.18553Z" fill="white"/>
<path d="M18.9876 7.29141C18.9613 7.46142 18.8191 7.58052 18.67 7.55744C18.5208 7.53436 18.4213 7.37783 18.4476 7.20782C18.4739 7.03782 18.6161 6.91871 18.7653 6.94179C18.9144 6.96488 19.014 7.12141 18.9876 7.29141Z" fill="white"/>
<path d="M18.3759 6.49141C18.3496 6.66142 18.2073 6.78052 18.0582 6.75744C17.9091 6.73435 17.8095 6.57783 17.8358 6.40782C17.8621 6.23782 18.0044 6.11871 18.1535 6.14179C18.3026 6.16488 18.4022 6.32141 18.3759 6.49141Z" fill="white"/>
<path d="M17.67 5.78553C17.6437 5.95554 17.5015 6.07464 17.3523 6.05156C17.2032 6.02847 17.1036 5.87194 17.13 5.70194C17.1563 5.53193 17.2985 5.41283 17.4476 5.43591C17.5968 5.459 17.6963 5.61552 17.67 5.78553Z" fill="white"/>
<path d="M16.87 5.17377C16.8437 5.34377 16.7015 5.46287 16.5523 5.43979C16.4032 5.41671 16.3036 5.26018 16.33 5.09017C16.3563 4.92017 16.4985 4.80106 16.6476 4.82415C16.7968 4.84723 16.8963 5.00376 16.87 5.17377Z" fill="white"/>
<path d="M16.0229 4.65612C15.9966 4.82612 15.8544 4.94523 15.7053 4.92214C15.5561 4.89906 15.4566 4.74253 15.4829 4.57253C15.5092 4.40252 15.6514 4.28342 15.8006 4.3065C15.9497 4.32958 16.0493 4.48611 16.0229 4.65612Z" fill="white"/>
<path d="M15.1288 4.27965C15.1025 4.44965 14.9603 4.56876 14.8112 4.54567C14.662 4.52259 14.5625 4.36606 14.5888 4.19606C14.6151 4.02605 14.7573 3.90695 14.9064 3.93003C15.0556 3.95311 15.1551 4.10964 15.1288 4.27965Z" fill="white"/>
<path d="M14.1876 4.04435C14.1613 4.21436 14.0191 4.33346 13.87 4.31038C13.7208 4.2873 13.6213 4.13077 13.6476 3.96076C13.6739 3.79076 13.8161 3.67165 13.9653 3.69474C14.1144 3.71782 14.214 3.87435 14.1876 4.04435Z" fill="white"/>
<path d="M13.1994 3.90318C13.1731 4.07318 13.0309 4.19229 12.8817 4.1692C12.7326 4.14612 12.633 3.98959 12.6594 3.81959C12.6857 3.64958 12.8279 3.53048 12.977 3.55356C13.1262 3.57664 13.2257 3.73317 13.1994 3.90318Z" fill="white"/>
<path d="M12.2112 3.90318C12.1849 4.07318 12.0426 4.19229 11.8935 4.1692C11.7444 4.14612 11.6448 3.98959 11.6711 3.81959C11.6974 3.64958 11.8397 3.53048 11.9888 3.55356C12.1379 3.57664 12.2375 3.73317 12.2112 3.90318Z" fill="white"/>
<path d="M11.27 3.99729C11.2437 4.1673 11.1015 4.2864 10.9523 4.26332C10.8032 4.24024 10.7036 4.08371 10.73 3.9137C10.7563 3.7437 10.8985 3.62459 11.0476 3.64768C11.1968 3.67076 11.2963 3.82729 11.27 3.99729Z" fill="white"/>
<path d="M10.2818 4.23259C10.2554 4.40259 10.1132 4.5217 9.96409 4.49861C9.81496 4.47553 9.7154 4.319 9.74172 4.149C9.76803 3.97899 9.91026 3.85989 10.0594 3.88297C10.2085 3.90605 10.3081 4.06258 10.2818 4.23259Z" fill="white"/>
<path d="M9.34059 4.60906C9.31427 4.77907 9.17205 4.89817 9.02292 4.87509C8.87379 4.852 8.77423 4.69547 8.80054 4.52547C8.82686 4.35546 8.96908 4.23636 9.11821 4.25944C9.26734 4.28252 9.3669 4.43905 9.34059 4.60906Z" fill="white"/>
<path d="M8.44647 5.07965C8.42015 5.24965 8.27793 5.36876 8.1288 5.34567C7.97967 5.32259 7.88011 5.16606 7.90642 4.99606C7.93274 4.82605 8.07496 4.70695 8.22409 4.73003C8.37322 4.75311 8.47278 4.90964 8.44647 5.07965Z" fill="white"/>
<path d="M7.55235 5.69141C7.52604 5.86142 7.38381 5.98052 7.23468 5.95744C7.08555 5.93435 6.98599 5.77783 7.01231 5.60782C7.03862 5.43782 7.18085 5.31871 7.32997 5.34179C7.4791 5.36488 7.57867 5.52141 7.55235 5.69141Z" fill="white"/>
<path d="M6.79941 6.39729C6.7731 6.5673 6.63087 6.6864 6.48174 6.66332C6.33261 6.64024 6.23305 6.48371 6.25936 6.3137C6.28568 6.1437 6.4279 6.02459 6.57703 6.04768C6.72616 6.07076 6.82572 6.22729 6.79941 6.39729Z" fill="white"/>
<path d="M6.04647 7.19729C6.02015 7.3673 5.87793 7.4864 5.7288 7.46332C5.57967 7.44024 5.48011 7.28371 5.50642 7.1137C5.53274 6.9437 5.67496 6.82459 5.82409 6.84768C5.97322 6.87076 6.07278 7.02729 6.04647 7.19729Z" fill="white"/>
<path d="M5.38764 8.09141C5.36133 8.26142 5.21911 8.38052 5.06998 8.35744C4.92085 8.33436 4.82128 8.17783 4.8476 8.00782C4.87391 7.83782 5.01614 7.71871 5.16527 7.74179C5.3144 7.76488 5.41396 7.92141 5.38764 8.09141Z" fill="white"/>
<path d="M4.87 9.07965C4.84368 9.24965 4.70146 9.36876 4.55233 9.34567C4.4032 9.32259 4.30364 9.16606 4.32995 8.99606C4.35627 8.82605 4.49849 8.70695 4.64762 8.73003C4.79675 8.75311 4.89631 8.90964 4.87 9.07965Z" fill="white"/>
<path d="M4.44647 10.0679C4.42015 10.2379 4.27793 10.357 4.1288 10.3339C3.97967 10.3108 3.88011 10.1543 3.90642 9.98429C3.93274 9.81429 4.07496 9.69518 4.22409 9.71827C4.37322 9.74135 4.47278 9.89788 4.44647 10.0679Z" fill="white"/>
<path d="M4.07 11.1032C4.04368 11.2732 3.90146 11.3923 3.75233 11.3692C3.6032 11.3461 3.50364 11.1896 3.52995 11.0196C3.55627 10.8496 3.69849 10.7305 3.84762 10.7536C3.99675 10.7766 4.09631 10.9332 4.07 11.1032Z" fill="white"/>
<path d="M3.8347 12.1855C3.80839 12.3555 3.66616 12.4746 3.51703 12.4516C3.36791 12.4285 3.26834 12.2719 3.29466 12.1019C3.32097 11.9319 3.4632 11.8128 3.61233 11.8359C3.76146 11.859 3.86102 12.0155 3.8347 12.1855Z" fill="white"/>
<path d="M3.69353 13.3149C3.66721 13.4849 3.52499 13.6041 3.37586 13.581C3.22673 13.5579 3.12717 13.4014 3.15348 13.2314C3.1798 13.0613 3.32202 12.9422 3.47115 12.9653C3.62028 12.9884 3.71984 13.1449 3.69353 13.3149Z" fill="white"/>
<path d="M3.69353 14.4444C3.66721 14.6144 3.52499 14.7335 3.37586 14.7104C3.22673 14.6873 3.12717 14.5308 3.15348 14.3608C3.1798 14.1908 3.32202 14.0717 3.47115 14.0947C3.62028 14.1178 3.71984 14.2743 3.69353 14.4444Z" fill="white"/>
<path d="M3.78765 15.5267C3.76133 15.6967 3.61911 15.8158 3.46998 15.7927C3.32085 15.7696 3.22129 15.6131 3.2476 15.4431C3.27391 15.2731 3.41614 15.154 3.56527 15.1771C3.7144 15.2002 3.81396 15.3567 3.78765 15.5267Z" fill="white"/>
<path d="M4.02294 16.6091C3.99662 16.7791 3.8544 16.8982 3.70527 16.8751C3.55614 16.852 3.45658 16.6955 3.48289 16.5255C3.50921 16.3555 3.65143 16.2364 3.80056 16.2594C3.94969 16.2825 4.04925 16.4391 4.02294 16.6091Z" fill="white"/>
<path d="M4.35235 17.5502C4.32604 17.7202 4.18381 17.8393 4.03468 17.8163C3.88555 17.7932 3.78599 17.6367 3.81231 17.4666C3.83862 17.2966 3.98085 17.1775 4.12998 17.2006C4.2791 17.2237 4.37867 17.3802 4.35235 17.5502Z" fill="white"/>
<path d="M4.77588 18.5385C4.74957 18.7085 4.60734 18.8276 4.45821 18.8045C4.30908 18.7814 4.20952 18.6249 4.23584 18.4549C4.26215 18.2849 4.40438 18.1658 4.5535 18.1889C4.70263 18.2119 4.80219 18.3685 4.77588 18.5385Z" fill="white"/>
<path d="M5.29353 19.4326C5.26721 19.6026 5.12499 19.7217 4.97586 19.6986C4.82673 19.6755 4.72717 19.519 4.75348 19.349C4.7798 19.179 4.92202 19.0599 5.07115 19.083C5.22028 19.1061 5.31984 19.2626 5.29353 19.4326Z" fill="white"/>
<path d="M5.90529 20.2326C5.87898 20.4026 5.73675 20.5217 5.58762 20.4986C5.43849 20.4755 5.33893 20.319 5.36525 20.149C5.39156 19.979 5.53379 19.8599 5.68292 19.883C5.83205 19.9061 5.93161 20.0626 5.90529 20.2326Z" fill="white"/>
<path d="M6.65823 20.9385C6.63192 21.1085 6.48969 21.2276 6.34056 21.2045C6.19143 21.1814 6.09187 21.0249 6.11819 20.8549C6.1445 20.6849 6.28673 20.5658 6.43586 20.5889C6.58499 20.6119 6.68455 20.7685 6.65823 20.9385Z" fill="white"/>
<path d="M7.41117 21.5502C7.38486 21.7202 7.24263 21.8393 7.09351 21.8163C6.94438 21.7932 6.84481 21.6367 6.87113 21.4666C6.89744 21.2966 7.03967 21.1775 7.1888 21.2006C7.33793 21.2237 7.43749 21.3802 7.41117 21.5502Z" fill="white"/>
<path d="M8.25823 22.0679C8.23192 22.2379 8.08969 22.357 7.94056 22.3339C7.79143 22.3108 7.69187 22.1543 7.71819 21.9843C7.7445 21.8143 7.88673 21.6952 8.03586 21.7183C8.18499 21.7413 8.28455 21.8979 8.25823 22.0679Z" fill="white"/>
<path d="M9.15235 22.4444C9.12604 22.6144 8.98381 22.7335 8.83468 22.7104C8.68555 22.6873 8.58599 22.5308 8.61231 22.3608C8.63862 22.1908 8.78085 22.0717 8.92997 22.0947C9.0791 22.1178 9.17866 22.2743 9.15235 22.4444Z" fill="white"/>
<path d="M10.0935 22.6796C10.0672 22.8497 9.92499 22.9688 9.77586 22.9457C9.62673 22.9226 9.52717 22.7661 9.55348 22.5961C9.5798 22.4261 9.72202 22.3069 9.87115 22.33C10.0203 22.3531 10.1198 22.5096 10.0935 22.6796Z" fill="white"/>
<path d="M11.0818 22.8208C11.0554 22.9908 10.9132 23.1099 10.7641 23.0869C10.615 23.0638 10.5154 22.9072 10.5417 22.7372C10.568 22.5672 10.7103 22.4481 10.8594 22.4712C11.0085 22.4943 11.1081 22.6508 11.0818 22.8208Z" fill="white"/>
<path d="M12.0229 22.8208C11.9966 22.9908 11.8544 23.1099 11.7053 23.0869C11.5561 23.0638 11.4566 22.9072 11.4829 22.7372C11.5092 22.5672 11.6514 22.4481 11.8006 22.4712C11.9497 22.4943 12.0493 22.6508 12.0229 22.8208Z" fill="white"/>
<path d="M13.0112 22.7267C12.9849 22.8967 12.8426 23.0158 12.6935 22.9927C12.5444 22.9696 12.4448 22.8131 12.4711 22.6431C12.4974 22.4731 12.6397 22.354 12.7888 22.3771C12.9379 22.4002 13.0375 22.5567 13.0112 22.7267Z" fill="white"/>
<path d="M13.9994 22.4914C13.9731 22.6614 13.8309 22.7805 13.6817 22.7574C13.5326 22.7344 13.433 22.5778 13.4594 22.4078C13.4857 22.2378 13.6279 22.1187 13.777 22.1418C13.9262 22.1649 14.0257 22.3214 13.9994 22.4914Z" fill="white"/>
<path d="M14.9406 22.1149C14.9143 22.2849 14.772 22.4041 14.6229 22.381C14.4738 22.3579 14.3742 22.2014 14.4005 22.0313C14.4269 21.8613 14.5691 21.7422 14.7182 21.7653C14.8673 21.7884 14.9669 21.9449 14.9406 22.1149Z" fill="white"/>
<path d="M15.8347 21.5973C15.8084 21.7673 15.6662 21.8864 15.517 21.8633C15.3679 21.8402 15.2683 21.6837 15.2947 21.5137C15.321 21.3437 15.4632 21.2246 15.6123 21.2477C15.7615 21.2708 15.861 21.4273 15.8347 21.5973Z" fill="white"/>
<path d="M16.6818 20.9855C16.6554 21.1555 16.5132 21.2746 16.3641 21.2516C16.215 21.2285 16.1154 21.0719 16.1417 20.9019C16.168 20.7319 16.3103 20.6128 16.4594 20.6359C16.6085 20.659 16.7081 20.8155 16.6818 20.9855Z" fill="white"/>
<path d="M17.4818 20.2796C17.4554 20.4497 17.3132 20.5688 17.1641 20.5457C17.015 20.5226 16.9154 20.3661 16.9417 20.1961C16.968 20.0261 17.1103 19.9069 17.2594 19.93C17.4085 19.9531 17.5081 20.1096 17.4818 20.2796Z" fill="white"/>
<path d="M18.2347 19.5267C18.2084 19.6967 18.0662 19.8158 17.917 19.7927C17.7679 19.7697 17.6683 19.6131 17.6947 19.4431C17.721 19.2731 17.8632 19.154 18.0123 19.1771C18.1615 19.2002 18.261 19.3567 18.2347 19.5267Z" fill="white"/>
<path d="M9.08235 23.6765C9.08235 23.8974 8.90327 24.0765 8.68235 24.0765C8.46144 24.0765 8.28235 23.8974 8.28235 23.6765C8.28235 23.4556 8.46144 23.2765 8.68235 23.2765C8.90327 23.2765 9.08235 23.4556 9.08235 23.6765Z" fill="white"/>
<path d="M10.4 23.9588C10.4 24.1797 10.2209 24.3588 10 24.3588C9.77909 24.3588 9.6 24.1797 9.6 23.9588C9.6 23.7379 9.77909 23.5588 10 23.5588C10.2209 23.5588 10.4 23.7379 10.4 23.9588Z" fill="white"/>
<path d="M11.7176 24.1C11.7176 24.3209 11.5386 24.5 11.3176 24.5C11.0967 24.5 10.9176 24.3209 10.9176 24.1C10.9176 23.8791 11.0967 23.7 11.3176 23.7C11.5386 23.7 11.7176 23.8791 11.7176 24.1Z" fill="white"/>
<path d="M13.1294 24.1C13.1294 24.3209 12.9503 24.5 12.7294 24.5C12.5085 24.5 12.3294 24.3209 12.3294 24.1C12.3294 23.8791 12.5085 23.7 12.7294 23.7C12.9503 23.7 13.1294 23.8791 13.1294 24.1Z" fill="white"/>
<path d="M14.4471 23.9588C14.4471 24.1797 14.268 24.3588 14.0471 24.3588C13.8261 24.3588 13.6471 24.1797 13.6471 23.9588C13.6471 23.7379 13.8261 23.5588 14.0471 23.5588C14.268 23.5588 14.4471 23.7379 14.4471 23.9588Z" fill="white"/>
<path d="M15.7647 23.6765C15.7647 23.8974 15.5856 24.0765 15.3647 24.0765C15.1438 24.0765 14.9647 23.8974 14.9647 23.6765C14.9647 23.4556 15.1438 23.2765 15.3647 23.2765C15.5856 23.2765 15.7647 23.4556 15.7647 23.6765Z" fill="white"/>
<path d="M17.0353 23.1588C17.0353 23.3797 16.8562 23.5588 16.6353 23.5588C16.4144 23.5588 16.2353 23.3797 16.2353 23.1588C16.2353 22.9379 16.4144 22.7588 16.6353 22.7588C16.8562 22.7588 17.0353 22.9379 17.0353 23.1588Z" fill="white"/>
<path d="M18.2588 22.5941C18.2588 22.815 18.0797 22.9941 17.8588 22.9941C17.6379 22.9941 17.4588 22.815 17.4588 22.5941C17.4588 22.3732 17.6379 22.1941 17.8588 22.1941C18.0797 22.1941 18.2588 22.3732 18.2588 22.5941Z" fill="white"/>
<path d="M19.3882 21.7941C19.3882 22.015 19.2091 22.1941 18.9882 22.1941C18.7673 22.1941 18.5882 22.015 18.5882 21.7941C18.5882 21.5732 18.7673 21.3941 18.9882 21.3941C19.2091 21.3941 19.3882 21.5732 19.3882 21.7941Z" fill="white"/>
<path d="M20.4235 20.9941C20.4235 21.215 20.2444 21.3941 20.0235 21.3941C19.8026 21.3941 19.6235 21.215 19.6235 20.9941C19.6235 20.7732 19.8026 20.5941 20.0235 20.5941C20.2444 20.5941 20.4235 20.7732 20.4235 20.9941Z" fill="white"/>
<path d="M21.3647 19.9588C21.3647 20.1797 21.1856 20.3588 20.9647 20.3588C20.7438 20.3588 20.5647 20.1797 20.5647 19.9588C20.5647 19.7379 20.7438 19.5588 20.9647 19.5588C21.1856 19.5588 21.3647 19.7379 21.3647 19.9588Z" fill="white"/>
<path d="M22.1647 18.8765C22.1647 19.0974 21.9856 19.2765 21.7647 19.2765C21.5438 19.2765 21.3647 19.0974 21.3647 18.8765C21.3647 18.6556 21.5438 18.4765 21.7647 18.4765C21.9856 18.4765 22.1647 18.6556 22.1647 18.8765Z" fill="white"/>
<path d="M22.8235 17.7C22.8235 17.9209 22.6444 18.1 22.4235 18.1C22.2026 18.1 22.0235 17.9209 22.0235 17.7C22.0235 17.4791 22.2026 17.3 22.4235 17.3C22.6444 17.3 22.8235 17.4791 22.8235 17.7Z" fill="white"/>
<path d="M23.3882 16.4765C23.3882 16.6974 23.2091 16.8765 22.9882 16.8765C22.7673 16.8765 22.5882 16.6974 22.5882 16.4765C22.5882 16.2556 22.7673 16.0765 22.9882 16.0765C23.2091 16.0765 23.3882 16.2556 23.3882 16.4765Z" fill="white"/>
<path d="M23.7647 15.2059C23.7647 15.4268 23.5856 15.6059 23.3647 15.6059C23.1438 15.6059 22.9647 15.4268 22.9647 15.2059C22.9647 14.985 23.1438 14.8059 23.3647 14.8059C23.5856 14.8059 23.7647 14.985 23.7647 15.2059Z" fill="white"/>
<path d="M24 13.8412C24 14.0621 23.8209 14.2412 23.6 14.2412C23.3791 14.2412 23.2 14.0621 23.2 13.8412C23.2 13.6203 23.3791 13.4412 23.6 13.4412C23.8209 13.4412 24 13.6203 24 13.8412Z" fill="white"/>
<path d="M24 12.4765C24 12.6974 23.8209 12.8765 23.6 12.8765C23.3791 12.8765 23.2 12.6974 23.2 12.4765C23.2 12.2556 23.3791 12.0765 23.6 12.0765C23.8209 12.0765 24 12.2556 24 12.4765Z" fill="white"/>
<path d="M24 11.1118C24 11.3327 23.8209 11.5118 23.6 11.5118C23.3791 11.5118 23.2 11.3327 23.2 11.1118C23.2 10.8909 23.3791 10.7118 23.6 10.7118C23.8209 10.7118 24 10.8909 24 11.1118Z" fill="white"/>
<path d="M23.7647 9.84118C23.7647 10.0621 23.5856 10.2412 23.3647 10.2412C23.1438 10.2412 22.9647 10.0621 22.9647 9.84118C22.9647 9.62026 23.1438 9.44118 23.3647 9.44118C23.5856 9.44118 23.7647 9.62026 23.7647 9.84118Z" fill="white"/>
<path d="M23.3882 8.47647C23.3882 8.69738 23.2091 8.87647 22.9882 8.87647C22.7673 8.87647 22.5882 8.69738 22.5882 8.47647C22.5882 8.25556 22.7673 8.07647 22.9882 8.07647C23.2091 8.07647 23.3882 8.25556 23.3882 8.47647Z" fill="white"/>
<path d="M22.8235 7.3C22.8235 7.52091 22.6444 7.7 22.4235 7.7C22.2026 7.7 22.0235 7.52091 22.0235 7.3C22.0235 7.07909 22.2026 6.9 22.4235 6.9C22.6444 6.9 22.8235 7.07909 22.8235 7.3Z" fill="white"/>
<path d="M22.1647 6.12353C22.1647 6.34444 21.9856 6.52353 21.7647 6.52353C21.5438 6.52353 21.3647 6.34444 21.3647 6.12353C21.3647 5.90262 21.5438 5.72353 21.7647 5.72353C21.9856 5.72353 22.1647 5.90262 22.1647 6.12353Z" fill="white"/>
<path d="M21.3647 5.08824C21.3647 5.30915 21.1856 5.48824 20.9647 5.48824C20.7438 5.48824 20.5647 5.30915 20.5647 5.08824C20.5647 4.86732 20.7438 4.68824 20.9647 4.68824C21.1856 4.68824 21.3647 4.86732 21.3647 5.08824Z" fill="white"/>
<path d="M20.3765 4.00588C20.3765 4.2268 20.1974 4.40588 19.9765 4.40588C19.7556 4.40588 19.5765 4.2268 19.5765 4.00588C19.5765 3.78497 19.7556 3.60588 19.9765 3.60588C20.1974 3.60588 20.3765 3.78497 20.3765 4.00588Z" fill="white"/>
<path d="M19.3882 3.20588C19.3882 3.4268 19.2091 3.60588 18.9882 3.60588C18.7673 3.60588 18.5882 3.4268 18.5882 3.20588C18.5882 2.98497 18.7673 2.80588 18.9882 2.80588C19.2091 2.80588 19.3882 2.98497 19.3882 3.20588Z" fill="white"/>
<path d="M18.2588 2.40588C18.2588 2.6268 18.0797 2.80588 17.8588 2.80588C17.6379 2.80588 17.4588 2.6268 17.4588 2.40588C17.4588 2.18497 17.6379 2.00588 17.8588 2.00588C18.0797 2.00588 18.2588 2.18497 18.2588 2.40588Z" fill="white"/>
<path d="M17.0824 1.84118C17.0824 2.06209 16.9033 2.24118 16.6824 2.24118C16.4614 2.24118 16.2824 2.06209 16.2824 1.84118C16.2824 1.62026 16.4614 1.44118 16.6824 1.44118C16.9033 1.44118 17.0824 1.62026 17.0824 1.84118Z" fill="white"/>
<path d="M15.7647 1.32353C15.7647 1.54444 15.5856 1.72353 15.3647 1.72353C15.1438 1.72353 14.9647 1.54444 14.9647 1.32353C14.9647 1.10262 15.1438 0.923529 15.3647 0.923529C15.5856 0.923529 15.7647 1.10262 15.7647 1.32353Z" fill="white"/>
<path d="M14.4941 1.04118C14.4941 1.26209 14.315 1.44118 14.0941 1.44118C13.8732 1.44118 13.6941 1.26209 13.6941 1.04118C13.6941 0.820263 13.8732 0.641176 14.0941 0.641176C14.315 0.641176 14.4941 0.820263 14.4941 1.04118Z" fill="white"/>
<path d="M13.0824 0.9C13.0824 1.12091 12.9033 1.3 12.6824 1.3C12.4614 1.3 12.2824 1.12091 12.2824 0.9C12.2824 0.679086 12.4614 0.5 12.6824 0.5C12.9033 0.5 13.0824 0.679086 13.0824 0.9Z" fill="white"/>
<path d="M11.8118 0.9C11.8118 1.12091 11.6327 1.3 11.4118 1.3C11.1909 1.3 11.0118 1.12091 11.0118 0.9C11.0118 0.679086 11.1909 0.5 11.4118 0.5C11.6327 0.5 11.8118 0.679086 11.8118 0.9Z" fill="white"/>
<path d="M10.4 1.04118C10.4 1.26209 10.2209 1.44118 10 1.44118C9.77909 1.44118 9.6 1.26209 9.6 1.04118C9.6 0.820263 9.77909 0.641176 10 0.641176C10.2209 0.641176 10.4 0.820263 10.4 1.04118Z" fill="white"/>
<path d="M9.08235 1.32353C9.08235 1.54444 8.90327 1.72353 8.68235 1.72353C8.46144 1.72353 8.28235 1.54444 8.28235 1.32353C8.28235 1.10262 8.46144 0.923529 8.68235 0.923529C8.90327 0.923529 9.08235 1.10262 9.08235 1.32353Z" fill="white"/>
<path d="M7.85882 1.84118C7.85882 2.06209 7.67974 2.24118 7.45882 2.24118C7.23791 2.24118 7.05882 2.06209 7.05882 1.84118C7.05882 1.62026 7.23791 1.44118 7.45882 1.44118C7.67974 1.44118 7.85882 1.62026 7.85882 1.84118Z" fill="white"/>
<path d="M6.58824 2.45294C6.58824 2.67386 6.40915 2.85294 6.18824 2.85294C5.96732 2.85294 5.78824 2.67386 5.78824 2.45294C5.78824 2.23203 5.96732 2.05294 6.18824 2.05294C6.40915 2.05294 6.58824 2.23203 6.58824 2.45294Z" fill="white"/>
<path d="M5.45882 3.15882C5.45882 3.37974 5.27974 3.55882 5.05882 3.55882C4.83791 3.55882 4.65882 3.37974 4.65882 3.15882C4.65882 2.93791 4.83791 2.75882 5.05882 2.75882C5.27974 2.75882 5.45882 2.93791 5.45882 3.15882Z" fill="white"/>
<path d="M4.42353 4.05294C4.42353 4.27386 4.24444 4.45294 4.02353 4.45294C3.80262 4.45294 3.62353 4.27386 3.62353 4.05294C3.62353 3.83203 3.80262 3.65294 4.02353 3.65294C4.24444 3.65294 4.42353 3.83203 4.42353 4.05294Z" fill="white"/>
<path d="M3.52941 5.04118C3.52941 5.26209 3.35033 5.44118 3.12941 5.44118C2.9085 5.44118 2.72941 5.26209 2.72941 5.04118C2.72941 4.82026 2.9085 4.64118 3.12941 4.64118C3.35033 4.64118 3.52941 4.82026 3.52941 5.04118Z" fill="white"/>
<path d="M2.72941 6.12353C2.72941 6.34444 2.55033 6.52353 2.32941 6.52353C2.1085 6.52353 1.92941 6.34444 1.92941 6.12353C1.92941 5.90262 2.1085 5.72353 2.32941 5.72353C2.55033 5.72353 2.72941 5.90262 2.72941 6.12353Z" fill="white"/>
<path d="M2.02353 7.3C2.02353 7.52091 1.84444 7.7 1.62353 7.7C1.40262 7.7 1.22353 7.52091 1.22353 7.3C1.22353 7.07909 1.40262 6.9 1.62353 6.9C1.84444 6.9 2.02353 7.07909 2.02353 7.3Z" fill="white"/>
<path d="M1.45882 8.52353C1.45882 8.74444 1.27974 8.92353 1.05882 8.92353C0.83791 8.92353 0.658824 8.74444 0.658824 8.52353C0.658824 8.30262 0.83791 8.12353 1.05882 8.12353C1.27974 8.12353 1.45882 8.30262 1.45882 8.52353Z" fill="white"/>
<path d="M1.08235 9.79412C1.08235 10.015 0.903267 10.1941 0.682353 10.1941C0.461439 10.1941 0.282353 10.015 0.282353 9.79412C0.282353 9.5732 0.461439 9.39412 0.682353 9.39412C0.903267 9.39412 1.08235 9.5732 1.08235 9.79412Z" fill="white"/>
<path d="M0.894118 11.2059C0.894118 11.4268 0.715032 11.6059 0.494118 11.6059C0.273204 11.6059 0.0941176 11.4268 0.0941176 11.2059C0.0941176 10.985 0.273204 10.8059 0.494118 10.8059C0.715032 10.8059 0.894118 10.985 0.894118 11.2059Z" fill="white"/>
<path d="M0.8 12.5706C0.8 12.7915 0.620914 12.9706 0.4 12.9706C0.179086 12.9706 0 12.7915 0 12.5706C0 12.3497 0.179086 12.1706 0.4 12.1706C0.620914 12.1706 0.8 12.3497 0.8 12.5706Z" fill="white"/>
<path d="M0.894118 13.8412C0.894118 14.0621 0.715032 14.2412 0.494118 14.2412C0.273204 14.2412 0.0941176 14.0621 0.0941176 13.8412C0.0941176 13.6203 0.273204 13.4412 0.494118 13.4412C0.715032 13.4412 0.894118 13.6203 0.894118 13.8412Z" fill="white"/>
<path d="M1.08235 15.2059C1.08235 15.4268 0.903267 15.6059 0.682353 15.6059C0.461439 15.6059 0.282353 15.4268 0.282353 15.2059C0.282353 14.985 0.461439 14.8059 0.682353 14.8059C0.903267 14.8059 1.08235 14.985 1.08235 15.2059Z" fill="white"/>
<path d="M1.50588 16.4765C1.50588 16.6974 1.3268 16.8765 1.10588 16.8765C0.884968 16.8765 0.705882 16.6974 0.705882 16.4765C0.705882 16.2556 0.884968 16.0765 1.10588 16.0765C1.3268 16.0765 1.50588 16.2556 1.50588 16.4765Z" fill="white"/>
<path d="M2.02353 17.7C2.02353 17.9209 1.84444 18.1 1.62353 18.1C1.40262 18.1 1.22353 17.9209 1.22353 17.7C1.22353 17.4791 1.40262 17.3 1.62353 17.3C1.84444 17.3 2.02353 17.4791 2.02353 17.7Z" fill="white"/>
<path d="M2.72941 18.8765C2.72941 19.0974 2.55033 19.2765 2.32941 19.2765C2.1085 19.2765 1.92941 19.0974 1.92941 18.8765C1.92941 18.6556 2.1085 18.4765 2.32941 18.4765C2.55033 18.4765 2.72941 18.6556 2.72941 18.8765Z" fill="white"/>
<path d="M3.52941 19.9588C3.52941 20.1797 3.35033 20.3588 3.12941 20.3588C2.9085 20.3588 2.72941 20.1797 2.72941 19.9588C2.72941 19.7379 2.9085 19.5588 3.12941 19.5588C3.35033 19.5588 3.52941 19.7379 3.52941 19.9588Z" fill="white"/>
<path d="M4.47059 20.9941C4.47059 21.215 4.2915 21.3941 4.07059 21.3941C3.84967 21.3941 3.67059 21.215 3.67059 20.9941C3.67059 20.7732 3.84967 20.5941 4.07059 20.5941C4.2915 20.5941 4.47059 20.7732 4.47059 20.9941Z" fill="white"/>
<path d="M5.45882 21.7941C5.45882 22.015 5.27974 22.1941 5.05882 22.1941C4.83791 22.1941 4.65882 22.015 4.65882 21.7941C4.65882 21.5732 4.83791 21.3941 5.05882 21.3941C5.27974 21.3941 5.45882 21.5732 5.45882 21.7941Z" fill="white"/>
<path d="M6.58824 22.5941C6.58824 22.815 6.40915 22.9941 6.18824 22.9941C5.96732 22.9941 5.78824 22.815 5.78824 22.5941C5.78824 22.3732 5.96732 22.1941 6.18824 22.1941C6.40915 22.1941 6.58824 22.3732 6.58824 22.5941Z" fill="white"/>
<path d="M7.85882 23.1588C7.85882 23.3797 7.67974 23.5588 7.45882 23.5588C7.23791 23.5588 7.05882 23.3797 7.05882 23.1588C7.05882 22.9379 7.23791 22.7588 7.45882 22.7588C7.67974 22.7588 7.85882 22.9379 7.85882 23.1588Z" fill="white"/>
<path d="M6.72941 11.3C6.72941 11.417 6.6346 11.5118 6.51765 11.5118C6.40069 11.5118 6.30588 11.417 6.30588 11.3C6.30588 11.183 6.40069 11.0882 6.51765 11.0882C6.6346 11.0882 6.72941 11.183 6.72941 11.3Z" fill="white"/>
<path d="M7.01176 10.6412C7.01176 10.7581 6.91695 10.8529 6.8 10.8529C6.68305 10.8529 6.58824 10.7581 6.58824 10.6412C6.58824 10.5242 6.68305 10.4294 6.8 10.4294C6.91695 10.4294 7.01176 10.5242 7.01176 10.6412Z" fill="white"/>
<path d="M7.43529 10.0294C7.43529 10.1464 7.34048 10.2412 7.22353 10.2412C7.10657 10.2412 7.01176 10.1464 7.01176 10.0294C7.01176 9.91246 7.10657 9.81765 7.22353 9.81765C7.34048 9.81765 7.43529 9.91246 7.43529 10.0294Z" fill="white"/>
<path d="M7.85882 9.46471C7.85882 9.58166 7.76401 9.67647 7.64706 9.67647C7.5301 9.67647 7.43529 9.58166 7.43529 9.46471C7.43529 9.34775 7.5301 9.25294 7.64706 9.25294C7.76401 9.25294 7.85882 9.34775 7.85882 9.46471Z" fill="white"/>
<path d="M8.37647 8.99412C8.37647 9.11107 8.28166 9.20588 8.16471 9.20588C8.04775 9.20588 7.95294 9.11107 7.95294 8.99412C7.95294 8.87716 8.04775 8.78235 8.16471 8.78235C8.28166 8.78235 8.37647 8.87716 8.37647 8.99412Z" fill="white"/>
<path d="M8.94118 8.57059C8.94118 8.68754 8.84637 8.78235 8.72941 8.78235C8.61246 8.78235 8.51765 8.68754 8.51765 8.57059C8.51765 8.45363 8.61246 8.35882 8.72941 8.35882C8.84637 8.35882 8.94118 8.45363 8.94118 8.57059Z" fill="white"/>
<path d="M9.6 8.19412C9.6 8.31107 9.50519 8.40588 9.38824 8.40588C9.27128 8.40588 9.17647 8.31107 9.17647 8.19412C9.17647 8.07716 9.27128 7.98235 9.38824 7.98235C9.50519 7.98235 9.6 8.07716 9.6 8.19412Z" fill="white"/>
<path d="M10.2588 7.95882C10.2588 8.07578 10.164 8.17059 10.0471 8.17059C9.9301 8.17059 9.83529 8.07578 9.83529 7.95882C9.83529 7.84187 9.9301 7.74706 10.0471 7.74706C10.164 7.74706 10.2588 7.84187 10.2588 7.95882Z" fill="white"/>
<path d="M10.9176 7.77059C10.9176 7.88754 10.8228 7.98235 10.7059 7.98235C10.5889 7.98235 10.4941 7.88754 10.4941 7.77059C10.4941 7.65363 10.5889 7.55882 10.7059 7.55882C10.8228 7.55882 10.9176 7.65363 10.9176 7.77059Z" fill="white"/>
<path d="M11.6706 7.67647C11.6706 7.79343 11.5758 7.88824 11.4588 7.88824C11.3419 7.88824 11.2471 7.79343 11.2471 7.67647C11.2471 7.55952 11.3419 7.46471 11.4588 7.46471C11.5758 7.46471 11.6706 7.55952 11.6706 7.67647Z" fill="white"/>
<path d="M12.3765 7.62941C12.3765 7.74637 12.2817 7.84118 12.1647 7.84118C12.0478 7.84118 11.9529 7.74637 11.9529 7.62941C11.9529 7.51246 12.0478 7.41765 12.1647 7.41765C12.2817 7.41765 12.3765 7.51246 12.3765 7.62941Z" fill="white"/>
<path d="M13.0824 7.72353C13.0824 7.84048 12.9875 7.93529 12.8706 7.93529C12.7536 7.93529 12.6588 7.84048 12.6588 7.72353C12.6588 7.60657 12.7536 7.51176 12.8706 7.51176C12.9875 7.51176 13.0824 7.60657 13.0824 7.72353Z" fill="white"/>
<path d="M13.7882 7.86471C13.7882 7.98166 13.6934 8.07647 13.5765 8.07647C13.4595 8.07647 13.3647 7.98166 13.3647 7.86471C13.3647 7.74775 13.4595 7.65294 13.5765 7.65294C13.6934 7.65294 13.7882 7.74775 13.7882 7.86471Z" fill="white"/>
<path d="M14.4941 8.1C14.4941 8.21695 14.3993 8.31176 14.2824 8.31176C14.1654 8.31176 14.0706 8.21695 14.0706 8.1C14.0706 7.98305 14.1654 7.88824 14.2824 7.88824C14.3993 7.88824 14.4941 7.98305 14.4941 8.1Z" fill="white"/>
<path d="M15.1529 8.47647C15.1529 8.59343 15.0581 8.68824 14.9412 8.68824C14.8242 8.68824 14.7294 8.59343 14.7294 8.47647C14.7294 8.35952 14.8242 8.26471 14.9412 8.26471C15.0581 8.26471 15.1529 8.35952 15.1529 8.47647Z" fill="white"/>
<path d="M15.7647 8.85294C15.7647 8.9699 15.6699 9.06471 15.5529 9.06471C15.436 9.06471 15.3412 8.9699 15.3412 8.85294C15.3412 8.73599 15.436 8.64118 15.5529 8.64118C15.6699 8.64118 15.7647 8.73599 15.7647 8.85294Z" fill="white"/>
<path d="M16.3765 9.32353C16.3765 9.44048 16.2817 9.53529 16.1647 9.53529C16.0478 9.53529 15.9529 9.44048 15.9529 9.32353C15.9529 9.20657 16.0478 9.11176 16.1647 9.11176C16.2817 9.11176 16.3765 9.20657 16.3765 9.32353Z" fill="white"/>
<path d="M16.8941 9.84118C16.8941 9.95813 16.7993 10.0529 16.6824 10.0529C16.5654 10.0529 16.4706 9.95813 16.4706 9.84118C16.4706 9.72422 16.5654 9.62941 16.6824 9.62941C16.7993 9.62941 16.8941 9.72422 16.8941 9.84118Z" fill="white"/>
<path d="M17.3647 10.4529C17.3647 10.5699 17.2699 10.6647 17.1529 10.6647C17.036 10.6647 16.9412 10.5699 16.9412 10.4529C16.9412 10.336 17.036 10.2412 17.1529 10.2412C17.2699 10.2412 17.3647 10.336 17.3647 10.4529Z" fill="white"/>
<path d="M17.7882 11.1118C17.7882 11.2287 17.6934 11.3235 17.5765 11.3235C17.4595 11.3235 17.3647 11.2287 17.3647 11.1118C17.3647 10.9948 17.4595 10.9 17.5765 10.9C17.6934 10.9 17.7882 10.9948 17.7882 11.1118Z" fill="white"/>
<path d="M18.1176 11.7706C18.1176 11.8875 18.0228 11.9824 17.9059 11.9824C17.7889 11.9824 17.6941 11.8875 17.6941 11.7706C17.6941 11.6536 17.7889 11.5588 17.9059 11.5588C18.0228 11.5588 18.1176 11.6536 18.1176 11.7706Z" fill="white"/>
<path d="M18.3529 12.4765C18.3529 12.5934 18.2581 12.6882 18.1412 12.6882C18.0242 12.6882 17.9294 12.5934 17.9294 12.4765C17.9294 12.3595 18.0242 12.2647 18.1412 12.2647C18.2581 12.2647 18.3529 12.3595 18.3529 12.4765Z" fill="white"/>
<path d="M18.5412 13.2294C18.5412 13.3464 18.4464 13.4412 18.3294 13.4412C18.2125 13.4412 18.1176 13.3464 18.1176 13.2294C18.1176 13.1125 18.2125 13.0176 18.3294 13.0176C18.4464 13.0176 18.5412 13.1125 18.5412 13.2294Z" fill="white"/>
<path d="M18.6353 13.9824C18.6353 14.0993 18.5405 14.1941 18.4235 14.1941C18.3066 14.1941 18.2118 14.0993 18.2118 13.9824C18.2118 13.8654 18.3066 13.7706 18.4235 13.7706C18.5405 13.7706 18.6353 13.8654 18.6353 13.9824Z" fill="white"/>
<path d="M18.6353 14.7353C18.6353 14.8522 18.5405 14.9471 18.4235 14.9471C18.3066 14.9471 18.2118 14.8522 18.2118 14.7353C18.2118 14.6183 18.3066 14.5235 18.4235 14.5235C18.5405 14.5235 18.6353 14.6183 18.6353 14.7353Z" fill="white"/>
<path d="M18.5882 15.4882C18.5882 15.6052 18.4934 15.7 18.3765 15.7C18.2595 15.7 18.1647 15.6052 18.1647 15.4882C18.1647 15.3713 18.2595 15.2765 18.3765 15.2765C18.4934 15.2765 18.5882 15.3713 18.5882 15.4882Z" fill="white"/>
<path d="M18.4 16.1941C18.4 16.3111 18.3052 16.4059 18.1882 16.4059C18.0713 16.4059 17.9765 16.3111 17.9765 16.1941C17.9765 16.0772 18.0713 15.9824 18.1882 15.9824C18.3052 15.9824 18.4 16.0772 18.4 16.1941Z" fill="white"/>
<path d="M18.1647 16.9C18.1647 17.017 18.0699 17.1118 17.9529 17.1118C17.836 17.1118 17.7412 17.017 17.7412 16.9C17.7412 16.783 17.836 16.6882 17.9529 16.6882C18.0699 16.6882 18.1647 16.783 18.1647 16.9Z" fill="white"/>
<path d="M17.8353 17.5588C17.8353 17.6758 17.7405 17.7706 17.6235 17.7706C17.5066 17.7706 17.4118 17.6758 17.4118 17.5588C17.4118 17.4419 17.5066 17.3471 17.6235 17.3471C17.7405 17.3471 17.8353 17.4419 17.8353 17.5588Z" fill="white"/>
<path d="M17.4588 18.1706C17.4588 18.2875 17.364 18.3824 17.2471 18.3824C17.1301 18.3824 17.0353 18.2875 17.0353 18.1706C17.0353 18.0536 17.1301 17.9588 17.2471 17.9588C17.364 17.9588 17.4588 18.0536 17.4588 18.1706Z" fill="white"/>
<path d="M17.0353 18.7353C17.0353 18.8522 16.9405 18.9471 16.8235 18.9471C16.7066 18.9471 16.6118 18.8522 16.6118 18.7353C16.6118 18.6183 16.7066 18.5235 16.8235 18.5235C16.9405 18.5235 17.0353 18.6183 17.0353 18.7353Z" fill="white"/>
<path d="M16.5176 19.2059C16.5176 19.3228 16.4228 19.4176 16.3059 19.4176C16.1889 19.4176 16.0941 19.3228 16.0941 19.2059C16.0941 19.0889 16.1889 18.9941 16.3059 18.9941C16.4228 18.9941 16.5176 19.0889 16.5176 19.2059Z" fill="white"/>
<path d="M15.9529 19.6294C15.9529 19.7464 15.8581 19.8412 15.7412 19.8412C15.6242 19.8412 15.5294 19.7464 15.5294 19.6294C15.5294 19.5125 15.6242 19.4176 15.7412 19.4176C15.8581 19.4176 15.9529 19.5125 15.9529 19.6294Z" fill="white"/>
<path d="M15.2941 20.0059C15.2941 20.1228 15.1993 20.2176 15.0824 20.2176C14.9654 20.2176 14.8706 20.1228 14.8706 20.0059C14.8706 19.8889 14.9654 19.7941 15.0824 19.7941C15.1993 19.7941 15.2941 19.8889 15.2941 20.0059Z" fill="white"/>
<path d="M14.6353 20.2412C14.6353 20.3581 14.5405 20.4529 14.4235 20.4529C14.3066 20.4529 14.2118 20.3581 14.2118 20.2412C14.2118 20.1242 14.3066 20.0294 14.4235 20.0294C14.5405 20.0294 14.6353 20.1242 14.6353 20.2412Z" fill="white"/>
<path d="M13.9765 20.4294C13.9765 20.5464 13.8817 20.6412 13.7647 20.6412C13.6478 20.6412 13.5529 20.5464 13.5529 20.4294C13.5529 20.3125 13.6478 20.2176 13.7647 20.2176C13.8817 20.2176 13.9765 20.3125 13.9765 20.4294Z" fill="white"/>
<path d="M12.5176 20.5706C12.5176 20.6875 12.4228 20.7824 12.3059 20.7824C12.1889 20.7824 12.0941 20.6875 12.0941 20.5706C12.0941 20.4536 12.1889 20.3588 12.3059 20.3588C12.4228 20.3588 12.5176 20.4536 12.5176 20.5706Z" fill="white"/>
<path d="M11.8118 20.4765C11.8118 20.5934 11.717 20.6882 11.6 20.6882C11.483 20.6882 11.3882 20.5934 11.3882 20.4765C11.3882 20.3595 11.483 20.2647 11.6 20.2647C11.717 20.2647 11.8118 20.3595 11.8118 20.4765Z" fill="white"/>
<path d="M11.1059 20.3353C11.1059 20.4522 11.0111 20.5471 10.8941 20.5471C10.7772 20.5471 10.6824 20.4522 10.6824 20.3353C10.6824 20.2183 10.7772 20.1235 10.8941 20.1235C11.0111 20.1235 11.1059 20.2183 11.1059 20.3353Z" fill="white"/>
<path d="M10.4 20.0529C10.4 20.1699 10.3052 20.2647 10.1882 20.2647C10.0713 20.2647 9.97647 20.1699 9.97647 20.0529C9.97647 19.936 10.0713 19.8412 10.1882 19.8412C10.3052 19.8412 10.4 19.936 10.4 20.0529Z" fill="white"/>
<path d="M9.74118 19.7235C9.74118 19.8405 9.64637 19.9353 9.52941 19.9353C9.41246 19.9353 9.31765 19.8405 9.31765 19.7235C9.31765 19.6066 9.41246 19.5118 9.52941 19.5118C9.64637 19.5118 9.74118 19.6066 9.74118 19.7235Z" fill="white"/>
<path d="M9.08235 19.3471C9.08235 19.464 8.98754 19.5588 8.87059 19.5588C8.75363 19.5588 8.65882 19.464 8.65882 19.3471C8.65882 19.2301 8.75363 19.1353 8.87059 19.1353C8.98754 19.1353 9.08235 19.2301 9.08235 19.3471Z" fill="white"/>
<path d="M8.51765 18.8765C8.51765 18.9934 8.42284 19.0882 8.30588 19.0882C8.18893 19.0882 8.09412 18.9934 8.09412 18.8765C8.09412 18.7595 8.18893 18.6647 8.30588 18.6647C8.42284 18.6647 8.51765 18.7595 8.51765 18.8765Z" fill="white"/>
<path d="M8 18.3118C8 18.4287 7.90519 18.5235 7.78824 18.5235C7.67128 18.5235 7.57647 18.4287 7.57647 18.3118C7.57647 18.1948 7.67128 18.1 7.78824 18.1C7.90519 18.1 8 18.1948 8 18.3118Z" fill="white"/>
<path d="M7.52941 17.7471C7.52941 17.864 7.4346 17.9588 7.31765 17.9588C7.20069 17.9588 7.10588 17.864 7.10588 17.7471C7.10588 17.6301 7.20069 17.5353 7.31765 17.5353C7.4346 17.5353 7.52941 17.6301 7.52941 17.7471Z" fill="white"/>
<path d="M7.10588 17.0882C7.10588 17.2052 7.01107 17.3 6.89412 17.3C6.77716 17.3 6.68235 17.2052 6.68235 17.0882C6.68235 16.9713 6.77716 16.8765 6.89412 16.8765C7.01107 16.8765 7.10588 16.9713 7.10588 17.0882Z" fill="white"/>
<path d="M6.77647 16.3824C6.77647 16.4993 6.68166 16.5941 6.56471 16.5941C6.44775 16.5941 6.35294 16.4993 6.35294 16.3824C6.35294 16.2654 6.44775 16.1706 6.56471 16.1706C6.68166 16.1706 6.77647 16.2654 6.77647 16.3824Z" fill="white"/>
<path d="M6.54118 15.6765C6.54118 15.7934 6.44637 15.8882 6.32941 15.8882C6.21246 15.8882 6.11765 15.7934 6.11765 15.6765C6.11765 15.5595 6.21246 15.4647 6.32941 15.4647C6.44637 15.4647 6.54118 15.5595 6.54118 15.6765Z" fill="white"/>
<path d="M6.35294 14.9235C6.35294 15.0405 6.25813 15.1353 6.14118 15.1353C6.02422 15.1353 5.92941 15.0405 5.92941 14.9235C5.92941 14.8066 6.02422 14.7118 6.14118 14.7118C6.25813 14.7118 6.35294 14.8066 6.35294 14.9235Z" fill="white"/>
<path d="M6.25882 14.2176C6.25882 14.3346 6.16401 14.4294 6.04706 14.4294C5.9301 14.4294 5.83529 14.3346 5.83529 14.2176C5.83529 14.1007 5.9301 14.0059 6.04706 14.0059C6.16401 14.0059 6.25882 14.1007 6.25882 14.2176Z" fill="white"/>
<path d="M6.25882 13.4647C6.25882 13.5817 6.16401 13.6765 6.04706 13.6765C5.9301 13.6765 5.83529 13.5817 5.83529 13.4647C5.83529 13.3478 5.9301 13.2529 6.04706 13.2529C6.16401 13.2529 6.25882 13.3478 6.25882 13.4647Z" fill="white"/>
<path d="M6.30588 12.7118C6.30588 12.8287 6.21107 12.9235 6.09412 12.9235C5.97716 12.9235 5.88235 12.8287 5.88235 12.7118C5.88235 12.5948 5.97716 12.5 6.09412 12.5C6.21107 12.5 6.30588 12.5948 6.30588 12.7118Z" fill="white"/>
<path d="M6.49412 11.9588C6.49412 12.0758 6.39931 12.1706 6.28235 12.1706C6.1654 12.1706 6.07059 12.0758 6.07059 11.9588C6.07059 11.8419 6.1654 11.7471 6.28235 11.7471C6.39931 11.7471 6.49412 11.8419 6.49412 11.9588Z" fill="white"/>
<path d="M13.2706 20.5235C13.2706 20.6405 13.1758 20.7353 13.0588 20.7353C12.9419 20.7353 12.8471 20.6405 12.8471 20.5235C12.8471 20.4066 12.9419 20.3118 13.0588 20.3118C13.1758 20.3118 13.2706 20.4066 13.2706 20.5235Z" fill="white"/>
</svg>
