<svg width="502" height="502" viewBox="0 0 502 502" fill="none" xmlns="http://www.w3.org/2000/svg">
<g opacity="0.77">
<path d="M393.814 378.956C393.266 382.5 390.3 384.983 387.191 384.502C384.082 384.021 382.006 380.757 382.555 377.213C383.103 373.668 386.069 371.185 389.178 371.666C392.287 372.147 394.363 375.411 393.814 378.956Z" fill="#5D3D6E"/>
<path d="M405.588 358.351C405.04 361.896 402.074 364.379 398.965 363.898C395.856 363.417 393.78 360.153 394.328 356.608C394.877 353.064 397.842 350.581 400.952 351.062C404.061 351.543 406.137 354.807 405.588 358.351Z" fill="#5D3D6E"/>
<path d="M415.4 337.747C414.851 341.292 411.886 343.775 408.777 343.294C405.667 342.812 403.591 339.549 404.14 336.004C404.689 332.46 407.654 329.976 410.763 330.458C413.873 330.939 415.948 334.202 415.4 337.747Z" fill="#5D3D6E"/>
<path d="M422.268 315.18C421.719 318.725 418.754 321.208 415.645 320.727C412.535 320.246 410.46 316.982 411.008 313.438C411.557 309.893 414.522 307.41 417.631 307.891C420.741 308.372 422.817 311.636 422.268 315.18Z" fill="#5D3D6E"/>
<path d="M427.174 292.614C426.625 296.158 423.66 298.642 420.55 298.16C417.441 297.679 415.365 294.415 415.914 290.871C416.463 287.326 419.428 284.843 422.537 285.324C425.647 285.806 427.722 289.069 427.174 292.614Z" fill="#5D3D6E"/>
<path d="M429.136 270.047C428.587 273.592 425.622 276.075 422.513 275.594C419.403 275.112 417.328 271.849 417.876 268.304C418.425 264.76 421.39 262.276 424.5 262.758C427.609 263.239 429.685 266.503 429.136 270.047Z" fill="#5D3D6E"/>
<path d="M430.117 246.499C429.569 250.044 426.603 252.527 423.494 252.046C420.385 251.565 418.309 248.301 418.857 244.756C419.406 241.212 422.371 238.729 425.481 239.21C428.59 239.691 430.666 242.955 430.117 246.499Z" fill="#5D3D6E"/>
<path d="M428.155 223.933C427.606 227.477 424.641 229.961 421.532 229.479C418.422 228.998 416.346 225.734 416.895 222.19C417.444 218.645 420.409 216.162 423.518 216.643C426.628 217.125 428.703 220.388 428.155 223.933Z" fill="#5D3D6E"/>
<path d="M423.249 202.347C422.7 205.892 419.735 208.375 416.626 207.894C413.516 207.413 411.441 204.149 411.989 200.604C412.538 197.06 415.503 194.577 418.613 195.058C421.722 195.539 423.798 198.803 423.249 202.347Z" fill="#5D3D6E"/>
<path d="M416.381 180.762C415.832 184.306 412.867 186.79 409.758 186.308C406.648 185.827 404.573 182.563 405.121 179.019C405.67 175.474 408.635 172.991 411.744 173.472C414.854 173.954 416.93 177.217 416.381 180.762Z" fill="#5D3D6E"/>
<path d="M407.551 161.139C407.002 164.683 404.037 167.166 400.927 166.685C397.818 166.204 395.742 162.94 396.291 159.396C396.839 155.851 399.805 153.368 402.914 153.849C406.023 154.331 408.099 157.594 407.551 161.139Z" fill="#5D3D6E"/>
<path d="M396.758 142.497C396.209 146.041 393.244 148.524 390.135 148.043C387.025 147.562 384.949 144.298 385.498 140.754C386.047 137.209 389.012 134.726 392.121 135.207C395.231 135.689 397.306 138.952 396.758 142.497Z" fill="#5D3D6E"/>
<path d="M384.003 125.817C383.454 129.362 380.489 131.845 377.379 131.363C374.27 130.882 372.194 127.619 372.743 124.074C373.292 120.53 376.257 118.046 379.366 118.528C382.476 119.009 384.551 122.272 384.003 125.817Z" fill="#5D3D6E"/>
<path d="M369.285 111.1C368.737 114.644 365.771 117.127 362.662 116.646C359.553 116.165 357.477 112.901 358.026 109.357C358.574 105.812 361.54 103.329 364.649 103.81C367.758 104.291 369.834 107.555 369.285 111.1Z" fill="#5D3D6E"/>
<path d="M352.606 98.3446C352.057 101.889 349.092 104.372 345.982 103.891C342.873 103.41 340.797 100.146 341.346 96.6017C341.895 93.0572 344.86 90.5739 347.969 91.0552C351.079 91.5364 353.154 94.8 352.606 98.3446Z" fill="#5D3D6E"/>
<path d="M334.945 87.5518C334.396 91.0964 331.431 93.5796 328.322 93.0984C325.212 92.6171 323.136 89.3535 323.685 85.809C324.234 82.2644 327.199 79.7812 330.308 80.2624C333.418 80.7437 335.494 84.0073 334.945 87.5518Z" fill="#5D3D6E"/>
<path d="M316.303 79.7026C315.754 83.2471 312.789 85.7304 309.68 85.2491C306.57 84.7678 304.494 81.5043 305.043 77.9597C305.592 74.4152 308.557 71.9319 311.666 72.4132C314.776 72.8945 316.852 76.158 316.303 79.7026Z" fill="#5D3D6E"/>
<path d="M296.68 74.7968C296.131 78.3413 293.166 80.8246 290.056 80.3433C286.947 79.862 284.871 76.5985 285.42 73.0539C285.969 69.5094 288.934 67.0261 292.043 67.5074C295.153 67.9887 297.228 71.2522 296.68 74.7968Z" fill="#5D3D6E"/>
<path d="M276.075 71.8533C275.527 75.3978 272.561 77.8811 269.452 77.3998C266.343 76.9186 264.267 73.655 264.816 70.1105C265.364 66.5659 268.33 64.0826 271.439 64.5639C274.548 65.0452 276.624 68.3088 276.075 71.8533Z" fill="#5D3D6E"/>
<path d="M255.471 71.8533C254.922 75.3978 251.957 77.8811 248.848 77.3998C245.739 76.9186 243.663 73.655 244.211 70.1105C244.76 66.5659 247.725 64.0826 250.835 64.5639C253.944 65.0452 256.02 68.3088 255.471 71.8533Z" fill="#5D3D6E"/>
<path d="M235.848 73.8156C235.299 77.3602 232.334 79.8434 229.225 79.3622C226.115 78.8809 224.04 75.6173 224.588 72.0728C225.137 68.5282 228.102 66.045 231.212 66.5262C234.321 67.0075 236.397 70.2711 235.848 73.8156Z" fill="#5D3D6E"/>
<path d="M215.244 78.7214C214.695 82.266 211.73 84.7492 208.62 84.2679C205.511 83.7867 203.435 80.5231 203.984 76.9786C204.533 73.434 207.498 70.9507 210.607 71.432C213.716 71.9133 215.792 75.1769 215.244 78.7214Z" fill="#5D3D6E"/>
<path d="M195.62 86.5707C195.072 90.1152 192.107 92.5985 188.997 92.1172C185.888 91.6359 183.812 88.3724 184.361 84.8278C184.909 81.2833 187.875 78.8 190.984 79.2813C194.093 79.7626 196.169 83.0261 195.62 86.5707Z" fill="#5D3D6E"/>
<path d="M176.979 96.3822C176.43 99.9268 173.465 102.41 170.355 101.929C167.246 101.447 165.17 98.1839 165.719 94.6394C166.267 91.0949 169.233 88.6116 172.342 89.0929C175.451 89.5741 177.527 92.8377 176.979 96.3822Z" fill="#5D3D6E"/>
<path d="M158.337 109.137C157.788 112.682 154.823 115.165 151.713 114.684C148.604 114.203 146.528 110.939 147.077 107.394C147.625 103.85 150.591 101.367 153.7 101.848C156.809 102.329 158.885 105.593 158.337 109.137Z" fill="#5D3D6E"/>
<path d="M142.638 123.855C142.089 127.399 139.124 129.882 136.015 129.401C132.905 128.92 130.83 125.656 131.378 122.112C131.927 118.567 134.892 116.084 138.002 116.565C141.111 117.047 143.187 120.31 142.638 123.855Z" fill="#5D3D6E"/>
<path d="M126.939 140.534C126.391 144.079 123.425 146.562 120.316 146.081C117.207 145.6 115.131 142.336 115.68 138.791C116.228 135.247 119.194 132.764 122.303 133.245C125.412 133.726 127.488 136.99 126.939 140.534Z" fill="#5D3D6E"/>
<path d="M113.203 159.176C112.655 162.721 109.689 165.204 106.58 164.723C103.471 164.242 101.395 160.978 101.944 157.433C102.492 153.889 105.458 151.406 108.567 151.887C111.676 152.368 113.752 155.632 113.203 159.176Z" fill="#5D3D6E"/>
<path d="M102.411 179.781C101.862 183.325 98.8966 185.808 95.7873 185.327C92.678 184.846 90.6022 181.582 91.1508 178.038C91.6995 174.493 94.6648 172.01 97.7741 172.491C100.883 172.973 102.959 176.236 102.411 179.781Z" fill="#5D3D6E"/>
<path d="M93.5801 200.385C93.0315 203.929 90.0661 206.413 86.9568 205.931C83.8476 205.45 81.7718 202.187 82.3204 198.642C82.869 195.098 85.8344 192.614 88.9437 193.096C92.053 193.577 94.1288 196.84 93.5801 200.385Z" fill="#5D3D6E"/>
<path d="M85.7309 221.97C85.1822 225.515 82.2169 227.998 79.1076 227.517C75.9983 227.036 73.9225 223.772 74.4711 220.228C75.0198 216.683 77.9851 214.2 81.0944 214.681C84.2037 215.162 86.2795 218.426 85.7309 221.97Z" fill="#5D3D6E"/>
<path d="M80.8251 244.537C80.2764 248.082 77.3111 250.565 74.2018 250.084C71.0925 249.602 69.0167 246.339 69.5654 242.794C70.114 239.25 73.0793 236.766 76.1886 237.248C79.2979 237.729 81.3737 240.992 80.8251 244.537Z" fill="#5D3D6E"/>
<path d="M77.8816 268.085C77.333 271.629 74.3676 274.113 71.2583 273.631C68.149 273.15 66.0732 269.886 66.6219 266.342C67.1705 262.797 70.1359 260.314 73.2452 260.795C76.3544 261.277 78.4302 264.54 77.8816 268.085Z" fill="#5D3D6E"/>
<path d="M77.8816 291.633C77.333 295.177 74.3676 297.66 71.2583 297.179C68.149 296.698 66.0732 293.434 66.6219 289.89C67.1705 286.345 70.1359 283.862 73.2452 284.343C76.3544 284.824 78.4302 288.088 77.8816 291.633Z" fill="#5D3D6E"/>
<path d="M79.8439 314.199C79.2953 317.744 76.3299 320.227 73.2206 319.746C70.1114 319.264 68.0355 316.001 68.5842 312.456C69.1328 308.912 72.0982 306.429 75.2075 306.91C78.3168 307.391 80.3926 310.655 79.8439 314.199Z" fill="#5D3D6E"/>
<path d="M84.7497 336.766C84.2011 340.31 81.2357 342.794 78.1264 342.312C75.0171 341.831 72.9413 338.568 73.49 335.023C74.0386 331.478 77.004 328.995 80.1133 329.476C83.2225 329.958 85.2984 333.221 84.7497 336.766Z" fill="#5D3D6E"/>
<path d="M91.6178 356.389C91.0692 359.934 88.1038 362.417 84.9945 361.936C81.8852 361.454 79.8094 358.191 80.3581 354.646C80.9067 351.102 83.8721 348.618 86.9814 349.1C90.0907 349.581 92.1665 352.844 91.6178 356.389Z" fill="#5D3D6E"/>
<path d="M100.448 376.993C99.8996 380.538 96.9342 383.021 93.8249 382.54C90.7157 382.059 88.6399 378.795 89.1885 375.25C89.7372 371.706 92.7025 369.223 95.8118 369.704C98.9211 370.185 100.997 373.449 100.448 376.993Z" fill="#5D3D6E"/>
<path d="M111.241 395.635C110.692 399.18 107.727 401.663 104.618 401.182C101.508 400.701 99.4326 397.437 99.9812 393.892C100.53 390.348 103.495 387.865 106.605 388.346C109.714 388.827 111.79 392.091 111.241 395.635Z" fill="#5D3D6E"/>
<path d="M123.996 412.315C123.447 415.859 120.482 418.343 117.373 417.861C114.263 417.38 112.188 414.117 112.736 410.572C113.285 407.028 116.25 404.544 119.36 405.026C122.469 405.507 124.545 408.77 123.996 412.315Z" fill="#5D3D6E"/>
<path d="M139.695 427.032C139.146 430.577 136.181 433.06 133.071 432.579C129.962 432.098 127.886 428.834 128.435 425.289C128.983 421.745 131.949 419.262 135.058 419.743C138.167 420.224 140.243 423.488 139.695 427.032Z" fill="#5D3D6E"/>
<path d="M155.393 439.787C154.844 443.332 151.879 445.815 148.77 445.334C145.66 444.853 143.585 441.589 144.133 438.045C144.682 434.5 147.647 432.017 150.757 432.498C153.866 432.979 155.942 436.243 155.393 439.787Z" fill="#5D3D6E"/>
<path d="M173.054 450.58C172.505 454.125 169.54 456.608 166.431 456.127C163.321 455.645 161.246 452.382 161.794 448.837C162.343 445.293 165.308 442.809 168.417 443.291C171.527 443.772 173.603 447.036 173.054 450.58Z" fill="#5D3D6E"/>
<path d="M191.696 458.429C191.147 461.974 188.182 464.457 185.073 463.976C181.963 463.495 179.888 460.231 180.436 456.687C180.985 453.142 183.95 450.659 187.059 451.14C190.169 451.621 192.245 454.885 191.696 458.429Z" fill="#5D3D6E"/>
<path d="M211.319 463.335C210.77 466.88 207.805 469.363 204.696 468.882C201.586 468.4 199.511 465.137 200.059 461.592C200.608 458.048 203.573 455.564 206.683 456.046C209.792 456.527 211.868 459.791 211.319 463.335Z" fill="#5D3D6E"/>
<path d="M231.923 466.279C231.375 469.823 228.409 472.306 225.3 471.825C222.191 471.344 220.115 468.08 220.664 464.536C221.212 460.991 224.178 458.508 227.287 458.989C230.396 459.471 232.472 462.734 231.923 466.279Z" fill="#5D3D6E"/>
<path d="M251.546 466.279C250.998 469.823 248.032 472.306 244.923 471.825C241.814 471.344 239.738 468.08 240.287 464.536C240.835 460.991 243.801 458.508 246.91 458.989C250.019 459.471 252.095 462.734 251.546 466.279Z" fill="#5D3D6E"/>
<path d="M272.151 464.316C271.602 467.861 268.637 470.344 265.528 469.863C262.418 469.382 260.342 466.118 260.891 462.573C261.44 459.029 264.405 456.546 267.514 457.027C270.624 457.508 272.699 460.772 272.151 464.316Z" fill="#5D3D6E"/>
<path d="M292.755 459.41C292.206 462.955 289.241 465.438 286.132 464.957C283.023 464.476 280.947 461.212 281.495 457.668C282.044 454.123 285.009 451.64 288.119 452.121C291.228 452.602 293.304 455.866 292.755 459.41Z" fill="#5D3D6E"/>
<path d="M312.378 451.561C311.83 455.106 308.864 457.589 305.755 457.108C302.646 456.627 300.57 453.363 301.118 449.818C301.667 446.274 304.632 443.791 307.742 444.272C310.851 444.753 312.927 448.017 312.378 451.561Z" fill="#5D3D6E"/>
<path d="M331.02 440.768C330.472 444.313 327.506 446.796 324.397 446.315C321.288 445.834 319.212 442.57 319.761 439.026C320.309 435.481 323.274 432.998 326.384 433.479C329.493 433.96 331.569 437.224 331.02 440.768Z" fill="#5D3D6E"/>
<path d="M348.681 428.013C348.132 431.558 345.167 434.041 342.058 433.56C338.949 433.079 336.873 429.815 337.421 426.271C337.97 422.726 340.935 420.243 344.045 420.724C347.154 421.205 349.23 424.469 348.681 428.013Z" fill="#5D3D6E"/>
<path d="M365.361 413.296C364.812 416.841 361.847 419.324 358.737 418.843C355.628 418.361 353.552 415.098 354.101 411.553C354.65 408.009 357.615 405.525 360.724 406.007C363.834 406.488 365.909 409.752 365.361 413.296Z" fill="#5D3D6E"/>
<path d="M381.059 397.598C380.511 401.142 377.545 403.625 374.436 403.144C371.327 402.663 369.251 399.399 369.8 395.855C370.348 392.31 373.313 389.827 376.423 390.308C379.532 390.789 381.608 394.053 381.059 397.598Z" fill="#5D3D6E"/>
<path d="M190.236 484.118C190.236 488.724 186.503 492.458 181.897 492.458C177.291 492.458 173.557 488.724 173.557 484.118C173.557 479.513 177.291 475.779 181.897 475.779C186.503 475.779 190.236 479.513 190.236 484.118Z" fill="#5D3D6E"/>
<path d="M217.709 490.005C217.709 494.611 213.975 498.345 209.369 498.345C204.763 498.345 201.029 494.611 201.029 490.005C201.029 485.399 204.763 481.666 209.369 481.666C213.975 481.666 217.709 485.399 217.709 490.005Z" fill="#5D3D6E"/>
<path d="M245.181 492.949C245.181 497.555 241.447 501.289 236.841 501.289C232.235 501.289 228.502 497.555 228.502 492.949C228.502 488.343 232.235 484.609 236.841 484.609C241.447 484.609 245.181 488.343 245.181 492.949Z" fill="#5D3D6E"/>
<path d="M274.616 492.949C274.616 497.555 270.882 501.289 266.276 501.289C261.67 501.289 257.936 497.555 257.936 492.949C257.936 488.343 261.67 484.609 266.276 484.609C270.882 484.609 274.616 488.343 274.616 492.949Z" fill="#5D3D6E"/>
<path d="M302.088 490.005C302.088 494.611 298.355 498.345 293.749 498.345C289.143 498.345 285.409 494.611 285.409 490.005C285.409 485.399 289.143 481.666 293.749 481.666C298.355 481.666 302.088 485.399 302.088 490.005Z" fill="#5D3D6E"/>
<path d="M329.561 484.118C329.561 488.724 325.827 492.458 321.221 492.458C316.615 492.458 312.881 488.724 312.881 484.118C312.881 479.513 316.615 475.779 321.221 475.779C325.827 475.779 329.561 479.513 329.561 484.118Z" fill="#5D3D6E"/>
<path d="M356.052 473.326C356.052 477.932 352.318 481.666 347.712 481.666C343.106 481.666 339.372 477.932 339.372 473.326C339.372 468.72 343.106 464.986 347.712 464.986C352.318 464.986 356.052 468.72 356.052 473.326Z" fill="#5D3D6E"/>
<path d="M381.562 461.552C381.562 466.158 377.828 469.892 373.222 469.892C368.616 469.892 364.882 466.158 364.882 461.552C364.882 456.946 368.616 453.212 373.222 453.212C377.828 453.212 381.562 456.946 381.562 461.552Z" fill="#5D3D6E"/>
<path d="M405.11 444.872C405.11 449.478 401.376 453.212 396.77 453.212C392.164 453.212 388.43 449.478 388.43 444.872C388.43 440.266 392.164 436.532 396.77 436.532C401.376 436.532 405.11 440.266 405.11 444.872Z" fill="#5D3D6E"/>
<path d="M426.695 428.193C426.695 432.798 422.962 436.532 418.356 436.532C413.75 436.532 410.016 432.798 410.016 428.193C410.016 423.587 413.75 419.853 418.356 419.853C422.962 419.853 426.695 423.587 426.695 428.193Z" fill="#5D3D6E"/>
<path d="M446.319 406.607C446.319 411.213 442.585 414.947 437.979 414.947C433.373 414.947 429.639 411.213 429.639 406.607C429.639 402.001 433.373 398.267 437.979 398.267C442.585 398.267 446.319 402.001 446.319 406.607Z" fill="#5D3D6E"/>
<path d="M462.998 384.04C462.998 388.646 459.264 392.38 454.658 392.38C450.052 392.38 446.319 388.646 446.319 384.04C446.319 379.434 450.052 375.701 454.658 375.701C459.264 375.701 462.998 379.434 462.998 384.04Z" fill="#5D3D6E"/>
<path d="M476.734 359.511C476.734 364.117 473.001 367.851 468.395 367.851C463.789 367.851 460.055 364.117 460.055 359.511C460.055 354.906 463.789 351.172 468.395 351.172C473.001 351.172 476.734 354.906 476.734 359.511Z" fill="#5D3D6E"/>
<path d="M488.508 334.001C488.508 338.607 484.774 342.341 480.168 342.341C475.563 342.341 471.829 338.607 471.829 334.001C471.829 329.395 475.563 325.662 480.168 325.662C484.774 325.662 488.508 329.395 488.508 334.001Z" fill="#5D3D6E"/>
<path d="M496.358 307.51C496.358 312.116 492.624 315.85 488.018 315.85C483.412 315.85 479.678 312.116 479.678 307.51C479.678 302.904 483.412 299.17 488.018 299.17C492.624 299.17 496.358 302.904 496.358 307.51Z" fill="#5D3D6E"/>
<path d="M501.263 279.057C501.263 283.663 497.529 287.396 492.924 287.396C488.318 287.396 484.584 283.663 484.584 279.057C484.584 274.451 488.318 270.717 492.924 270.717C497.529 270.717 501.263 274.451 501.263 279.057Z" fill="#5D3D6E"/>
<path d="M501.263 250.603C501.263 255.209 497.529 258.943 492.924 258.943C488.318 258.943 484.584 255.209 484.584 250.603C484.584 245.997 488.318 242.263 492.924 242.263C497.529 242.263 501.263 245.997 501.263 250.603Z" fill="#5D3D6E"/>
<path d="M501.263 222.149C501.263 226.755 497.529 230.489 492.924 230.489C488.318 230.489 484.584 226.755 484.584 222.149C484.584 217.543 488.318 213.81 492.924 213.81C497.529 213.81 501.263 217.543 501.263 222.149Z" fill="#5D3D6E"/>
<path d="M496.358 195.658C496.358 200.264 492.624 203.998 488.018 203.998C483.412 203.998 479.678 200.264 479.678 195.658C479.678 191.052 483.412 187.318 488.018 187.318C492.624 187.318 496.358 191.052 496.358 195.658Z" fill="#5D3D6E"/>
<path d="M488.508 167.205C488.508 171.811 484.774 175.544 480.168 175.544C475.563 175.544 471.829 171.811 471.829 167.205C471.829 162.599 475.563 158.865 480.168 158.865C484.774 158.865 488.508 162.599 488.508 167.205Z" fill="#5D3D6E"/>
<path d="M476.734 142.676C476.734 147.282 473.001 151.016 468.395 151.016C463.789 151.016 460.055 147.282 460.055 142.676C460.055 138.07 463.789 134.336 468.395 134.336C473.001 134.336 476.734 138.07 476.734 142.676Z" fill="#5D3D6E"/>
<path d="M462.998 118.147C462.998 122.753 459.264 126.487 454.658 126.487C450.052 126.487 446.319 122.753 446.319 118.147C446.319 113.541 450.052 109.807 454.658 109.807C459.264 109.807 462.998 113.541 462.998 118.147Z" fill="#5D3D6E"/>
<path d="M446.319 96.5613C446.319 101.167 442.585 104.901 437.979 104.901C433.373 104.901 429.639 101.167 429.639 96.5613C429.639 91.9553 433.373 88.2215 437.979 88.2215C442.585 88.2215 446.319 91.9553 446.319 96.5613Z" fill="#5D3D6E"/>
<path d="M425.714 73.9947C425.714 78.6006 421.98 82.3345 417.374 82.3345C412.768 82.3345 409.035 78.6006 409.035 73.9947C409.035 69.3887 412.768 65.6548 417.374 65.6548C421.98 65.6548 425.714 69.3887 425.714 73.9947Z" fill="#5D3D6E"/>
<path d="M405.11 57.315C405.11 61.921 401.376 65.6548 396.77 65.6548C392.164 65.6548 388.43 61.921 388.43 57.315C388.43 52.709 392.164 48.9752 396.77 48.9752C401.376 48.9752 405.11 52.709 405.11 57.315Z" fill="#5D3D6E"/>
<path d="M381.562 40.6353C381.562 45.2413 377.828 48.9752 373.222 48.9752C368.616 48.9752 364.882 45.2413 364.882 40.6353C364.882 36.0294 368.616 32.2955 373.222 32.2955C377.828 32.2955 381.562 36.0294 381.562 40.6353Z" fill="#5D3D6E"/>
<path d="M357.033 28.8614C357.033 33.4674 353.299 37.2013 348.693 37.2013C344.087 37.2013 340.354 33.4674 340.354 28.8614C340.354 24.2555 344.087 20.5216 348.693 20.5216C353.299 20.5216 357.033 24.2555 357.033 28.8614Z" fill="#5D3D6E"/>
<path d="M329.561 18.0687C329.561 22.6747 325.827 26.4085 321.221 26.4085C316.615 26.4085 312.881 22.6747 312.881 18.0687C312.881 13.4627 316.615 9.72885 321.221 9.72885C325.827 9.72885 329.561 13.4627 329.561 18.0687Z" fill="#5D3D6E"/>
<path d="M303.07 12.1817C303.07 16.7877 299.336 20.5216 294.73 20.5216C290.124 20.5216 286.39 16.7877 286.39 12.1817C286.39 7.57578 290.124 3.84191 294.73 3.84191C299.336 3.84191 303.07 7.57578 303.07 12.1817Z" fill="#5D3D6E"/>
<path d="M273.635 9.23828C273.635 13.8442 269.901 17.5781 265.295 17.5781C260.689 17.5781 256.955 13.8442 256.955 9.23828C256.955 4.63231 260.689 0.898438 265.295 0.898438C269.901 0.898438 273.635 4.63231 273.635 9.23828Z" fill="#5D3D6E"/>
<path d="M247.144 9.23828C247.144 13.8442 243.41 17.5781 238.804 17.5781C234.198 17.5781 230.464 13.8442 230.464 9.23828C230.464 4.63231 234.198 0.898438 238.804 0.898438C243.41 0.898438 247.144 4.63231 247.144 9.23828Z" fill="#5D3D6E"/>
<path d="M217.709 12.1817C217.709 16.7877 213.975 20.5216 209.369 20.5216C204.763 20.5216 201.029 16.7877 201.029 12.1817C201.029 7.57578 204.763 3.84191 209.369 3.84191C213.975 3.84191 217.709 7.57578 217.709 12.1817Z" fill="#5D3D6E"/>
<path d="M190.236 18.0687C190.236 22.6747 186.503 26.4085 181.897 26.4085C177.291 26.4085 173.557 22.6747 173.557 18.0687C173.557 13.4627 177.291 9.72885 181.897 9.72885C186.503 9.72885 190.236 13.4627 190.236 18.0687Z" fill="#5D3D6E"/>
<path d="M164.726 28.8614C164.726 33.4674 160.992 37.2013 156.387 37.2013C151.781 37.2013 148.047 33.4674 148.047 28.8614C148.047 24.2555 151.781 20.5216 156.387 20.5216C160.992 20.5216 164.726 24.2555 164.726 28.8614Z" fill="#5D3D6E"/>
<path d="M138.235 41.6165C138.235 46.2224 134.501 49.9563 129.895 49.9563C125.289 49.9563 121.555 46.2224 121.555 41.6165C121.555 37.0105 125.289 33.2766 129.895 33.2766C134.501 33.2766 138.235 37.0105 138.235 41.6165Z" fill="#5D3D6E"/>
<path d="M114.687 56.3338C114.687 60.9398 110.953 64.6737 106.347 64.6737C101.742 64.6737 98.0076 60.9398 98.0076 56.3338C98.0076 51.7279 101.742 47.994 106.347 47.994C110.953 47.994 114.687 51.7279 114.687 56.3338Z" fill="#5D3D6E"/>
<path d="M93.1018 74.9758C93.1018 79.5818 89.368 83.3157 84.762 83.3157C80.156 83.3157 76.4222 79.5818 76.4222 74.9758C76.4222 70.3699 80.156 66.636 84.762 66.636C89.368 66.636 93.1018 70.3699 93.1018 74.9758Z" fill="#5D3D6E"/>
<path d="M74.4599 95.5801C74.4599 100.186 70.726 103.92 66.12 103.92C61.5141 103.92 57.7802 100.186 57.7802 95.5801C57.7802 90.9742 61.5141 87.2403 66.12 87.2403C70.726 87.2403 74.4599 90.9742 74.4599 95.5801Z" fill="#5D3D6E"/>
<path d="M57.7802 118.147C57.7802 122.753 54.0463 126.487 49.4403 126.487C44.8344 126.487 41.1005 122.753 41.1005 118.147C41.1005 113.541 44.8344 109.807 49.4403 109.807C54.0463 109.807 57.7802 113.541 57.7802 118.147Z" fill="#5D3D6E"/>
<path d="M43.0628 142.676C43.0628 147.282 39.3289 151.016 34.723 151.016C30.117 151.016 26.3831 147.282 26.3831 142.676C26.3831 138.07 30.117 134.336 34.723 134.336C39.3289 134.336 43.0628 138.07 43.0628 142.676Z" fill="#5D3D6E"/>
<path d="M31.2889 168.186C31.2889 172.792 27.5551 176.526 22.9491 176.526C18.3431 176.526 14.6093 172.792 14.6093 168.186C14.6093 163.58 18.3431 159.846 22.9491 159.846C27.5551 159.846 31.2889 163.58 31.2889 168.186Z" fill="#5D3D6E"/>
<path d="M23.4397 194.677C23.4397 199.283 19.7058 203.017 15.0998 203.017C10.4939 203.017 6.75999 199.283 6.75999 194.677C6.75999 190.071 10.4939 186.337 15.0998 186.337C19.7058 186.337 23.4397 190.071 23.4397 194.677Z" fill="#5D3D6E"/>
<path d="M19.515 224.112C19.515 228.718 15.7812 232.452 11.1752 232.452C6.56923 232.452 2.83536 228.718 2.83536 224.112C2.83536 219.506 6.56923 215.772 11.1752 215.772C15.7812 215.772 19.515 219.506 19.515 224.112Z" fill="#5D3D6E"/>
<path d="M17.5527 252.565C17.5527 257.171 13.8189 260.905 9.21289 260.905C4.60692 260.905 0.873047 257.171 0.873047 252.565C0.873047 247.959 4.60692 244.225 9.21289 244.225C13.8189 244.225 17.5527 247.959 17.5527 252.565Z" fill="#5D3D6E"/>
<path d="M19.515 279.057C19.515 283.663 15.7812 287.396 11.1752 287.396C6.56923 287.396 2.83536 283.663 2.83536 279.057C2.83536 274.451 6.56923 270.717 11.1752 270.717C15.7812 270.717 19.515 274.451 19.515 279.057Z" fill="#5D3D6E"/>
<path d="M23.4397 307.51C23.4397 312.116 19.7058 315.85 15.0998 315.85C10.4939 315.85 6.75999 312.116 6.75999 307.51C6.75999 302.904 10.4939 299.17 15.0998 299.17C19.7058 299.17 23.4397 302.904 23.4397 307.51Z" fill="#5D3D6E"/>
<path d="M32.2701 334.001C32.2701 338.607 28.5362 342.341 23.9302 342.341C19.3243 342.341 15.5904 338.607 15.5904 334.001C15.5904 329.395 19.3243 325.662 23.9302 325.662C28.5362 325.662 32.2701 329.395 32.2701 334.001Z" fill="#5D3D6E"/>
<path d="M43.0628 359.511C43.0628 364.117 39.3289 367.851 34.723 367.851C30.117 367.851 26.3831 364.117 26.3831 359.511C26.3831 354.906 30.117 351.172 34.723 351.172C39.3289 351.172 43.0628 354.906 43.0628 359.511Z" fill="#5D3D6E"/>
<path d="M57.7802 384.04C57.7802 388.646 54.0463 392.38 49.4403 392.38C44.8344 392.38 41.1005 388.646 41.1005 384.04C41.1005 379.434 44.8344 375.701 49.4403 375.701C54.0463 375.701 57.7802 379.434 57.7802 384.04Z" fill="#5D3D6E"/>
<path d="M74.4599 406.607C74.4599 411.213 70.726 414.947 66.12 414.947C61.5141 414.947 57.7802 411.213 57.7802 406.607C57.7802 402.001 61.5141 398.267 66.12 398.267C70.726 398.267 74.4599 402.001 74.4599 406.607Z" fill="#5D3D6E"/>
<path d="M94.083 428.193C94.083 432.798 90.3491 436.532 85.7432 436.532C81.1372 436.532 77.4033 432.798 77.4033 428.193C77.4033 423.587 81.1372 419.853 85.7432 419.853C90.3491 419.853 94.083 423.587 94.083 428.193Z" fill="#5D3D6E"/>
<path d="M114.687 444.872C114.687 449.478 110.953 453.212 106.347 453.212C101.742 453.212 98.0076 449.478 98.0076 444.872C98.0076 440.266 101.742 436.532 106.347 436.532C110.953 436.532 114.687 440.266 114.687 444.872Z" fill="#5D3D6E"/>
<path d="M138.235 461.552C138.235 466.158 134.501 469.892 129.895 469.892C125.289 469.892 121.555 466.158 121.555 461.552C121.555 456.946 125.289 453.212 129.895 453.212C134.501 453.212 138.235 456.946 138.235 461.552Z" fill="#5D3D6E"/>
<path d="M164.726 473.326C164.726 477.932 160.992 481.666 156.387 481.666C151.781 481.666 148.047 477.932 148.047 473.326C148.047 468.72 151.781 464.986 156.387 464.986C160.992 464.986 164.726 468.72 164.726 473.326Z" fill="#5D3D6E"/>
<path d="M141.179 226.074C141.179 228.513 139.202 230.489 136.763 230.489C134.325 230.489 132.348 228.513 132.348 226.074C132.348 223.636 134.325 221.659 136.763 221.659C139.202 221.659 141.179 223.636 141.179 226.074Z" fill="#5D3D6E"/>
<path d="M147.066 212.338C147.066 214.776 145.089 216.753 142.65 216.753C140.212 216.753 138.235 214.776 138.235 212.338C138.235 209.899 140.212 207.923 142.65 207.923C145.089 207.923 147.066 209.899 147.066 212.338Z" fill="#5D3D6E"/>
<path d="M155.896 199.583C155.896 202.021 153.919 203.998 151.481 203.998C149.042 203.998 147.066 202.021 147.066 199.583C147.066 197.144 149.042 195.168 151.481 195.168C153.919 195.168 155.896 197.144 155.896 199.583Z" fill="#5D3D6E"/>
<path d="M164.726 187.809C164.726 190.247 162.75 192.224 160.311 192.224C157.873 192.224 155.896 190.247 155.896 187.809C155.896 185.37 157.873 183.394 160.311 183.394C162.75 183.394 164.726 185.37 164.726 187.809Z" fill="#5D3D6E"/>
<path d="M175.519 177.997C175.519 180.436 173.542 182.413 171.104 182.413C168.665 182.413 166.689 180.436 166.689 177.997C166.689 175.559 168.665 173.582 171.104 173.582C173.542 173.582 175.519 175.559 175.519 177.997Z" fill="#5D3D6E"/>
<path d="M187.293 169.167C187.293 171.605 185.316 173.582 182.878 173.582C180.439 173.582 178.463 171.605 178.463 169.167C178.463 166.728 180.439 164.752 182.878 164.752C185.316 164.752 187.293 166.728 187.293 169.167Z" fill="#5D3D6E"/>
<path d="M201.029 161.318C201.029 163.756 199.052 165.733 196.614 165.733C194.176 165.733 192.199 163.756 192.199 161.318C192.199 158.879 194.176 156.902 196.614 156.902C199.052 156.902 201.029 158.879 201.029 161.318Z" fill="#5D3D6E"/>
<path d="M214.765 156.412C214.765 158.85 212.789 160.827 210.35 160.827C207.912 160.827 205.935 158.85 205.935 156.412C205.935 153.973 207.912 151.997 210.35 151.997C212.789 151.997 214.765 153.973 214.765 156.412Z" fill="#5D3D6E"/>
<path d="M228.502 152.487C228.502 154.926 226.525 156.902 224.086 156.902C221.648 156.902 219.671 154.926 219.671 152.487C219.671 150.049 221.648 148.072 224.086 148.072C226.525 148.072 228.502 150.049 228.502 152.487Z" fill="#5D3D6E"/>
<path d="M244.2 150.525C244.2 152.963 242.223 154.94 239.785 154.94C237.346 154.94 235.37 152.963 235.37 150.525C235.37 148.087 237.346 146.11 239.785 146.11C242.223 146.11 244.2 148.087 244.2 150.525Z" fill="#5D3D6E"/>
<path d="M258.917 149.544C258.917 151.982 256.941 153.959 254.502 153.959C252.064 153.959 250.087 151.982 250.087 149.544C250.087 147.105 252.064 145.129 254.502 145.129C256.941 145.129 258.917 147.105 258.917 149.544Z" fill="#5D3D6E"/>
<path d="M273.635 151.506C273.635 153.945 271.658 155.921 269.22 155.921C266.781 155.921 264.804 153.945 264.804 151.506C264.804 149.068 266.781 147.091 269.22 147.091C271.658 147.091 273.635 149.068 273.635 151.506Z" fill="#5D3D6E"/>
<path d="M288.352 154.45C288.352 156.888 286.375 158.865 283.937 158.865C281.499 158.865 279.522 156.888 279.522 154.45C279.522 152.011 281.499 150.034 283.937 150.034C286.375 150.034 288.352 152.011 288.352 154.45Z" fill="#5D3D6E"/>
<path d="M303.07 159.355C303.07 161.794 301.093 163.771 298.654 163.771C296.216 163.771 294.239 161.794 294.239 159.355C294.239 156.917 296.216 154.94 298.654 154.94C301.093 154.94 303.07 156.917 303.07 159.355Z" fill="#5D3D6E"/>
<path d="M316.806 167.205C316.806 169.643 314.829 171.62 312.391 171.62C309.952 171.62 307.975 169.643 307.975 167.205C307.975 164.766 309.952 162.789 312.391 162.789C314.829 162.789 316.806 164.766 316.806 167.205Z" fill="#5D3D6E"/>
<path d="M329.561 175.054C329.561 177.492 327.584 179.469 325.146 179.469C322.707 179.469 320.73 177.492 320.73 175.054C320.73 172.615 322.707 170.639 325.146 170.639C327.584 170.639 329.561 172.615 329.561 175.054Z" fill="#5D3D6E"/>
<path d="M342.316 184.865C342.316 187.304 340.339 189.281 337.901 189.281C335.462 189.281 333.485 187.304 333.485 184.865C333.485 182.427 335.462 180.45 337.901 180.45C340.339 180.45 342.316 182.427 342.316 184.865Z" fill="#5D3D6E"/>
<path d="M353.109 195.658C353.109 198.097 351.132 200.073 348.693 200.073C346.255 200.073 344.278 198.097 344.278 195.658C344.278 193.22 346.255 191.243 348.693 191.243C351.132 191.243 353.109 193.22 353.109 195.658Z" fill="#5D3D6E"/>
<path d="M362.92 208.413C362.92 210.852 360.943 212.828 358.505 212.828C356.067 212.828 354.09 210.852 354.09 208.413C354.09 205.975 356.067 203.998 358.505 203.998C360.943 203.998 362.92 205.975 362.92 208.413Z" fill="#5D3D6E"/>
<path d="M371.751 222.149C371.751 224.588 369.774 226.565 367.335 226.565C364.897 226.565 362.92 224.588 362.92 222.149C362.92 219.711 364.897 217.734 367.335 217.734C369.774 217.734 371.751 219.711 371.751 222.149Z" fill="#5D3D6E"/>
<path d="M378.619 235.886C378.619 238.324 376.642 240.301 374.203 240.301C371.765 240.301 369.788 238.324 369.788 235.886C369.788 233.447 371.765 231.47 374.203 231.47C376.642 231.47 378.619 233.447 378.619 235.886Z" fill="#5D3D6E"/>
<path d="M383.524 250.603C383.524 253.041 381.548 255.018 379.109 255.018C376.671 255.018 374.694 253.041 374.694 250.603C374.694 248.165 376.671 246.188 379.109 246.188C381.548 246.188 383.524 248.165 383.524 250.603Z" fill="#5D3D6E"/>
<path d="M387.449 266.302C387.449 268.74 385.472 270.717 383.034 270.717C380.595 270.717 378.619 268.74 378.619 266.302C378.619 263.863 380.595 261.886 383.034 261.886C385.472 261.886 387.449 263.863 387.449 266.302Z" fill="#5D3D6E"/>
<path d="M389.411 282C389.411 284.438 387.435 286.415 384.996 286.415C382.558 286.415 380.581 284.438 380.581 282C380.581 279.562 382.558 277.585 384.996 277.585C387.435 277.585 389.411 279.562 389.411 282Z" fill="#5D3D6E"/>
<path d="M389.411 297.699C389.411 300.137 387.435 302.114 384.996 302.114C382.558 302.114 380.581 300.137 380.581 297.699C380.581 295.26 382.558 293.283 384.996 293.283C387.435 293.283 389.411 295.26 389.411 297.699Z" fill="#5D3D6E"/>
<path d="M388.43 313.397C388.43 315.836 386.453 317.812 384.015 317.812C381.577 317.812 379.6 315.836 379.6 313.397C379.6 310.959 381.577 308.982 384.015 308.982C386.453 308.982 388.43 310.959 388.43 313.397Z" fill="#5D3D6E"/>
<path d="M384.506 328.114C384.506 330.553 382.529 332.53 380.09 332.53C377.652 332.53 375.675 330.553 375.675 328.114C375.675 325.676 377.652 323.699 380.09 323.699C382.529 323.699 384.506 325.676 384.506 328.114Z" fill="#5D3D6E"/>
<path d="M379.6 342.832C379.6 345.27 377.623 347.247 375.185 347.247C372.746 347.247 370.769 345.27 370.769 342.832C370.769 340.393 372.746 338.417 375.185 338.417C377.623 338.417 379.6 340.393 379.6 342.832Z" fill="#5D3D6E"/>
<path d="M372.732 356.568C372.732 359.006 370.755 360.983 368.317 360.983C365.878 360.983 363.901 359.006 363.901 356.568C363.901 354.13 365.878 352.153 368.317 352.153C370.755 352.153 372.732 354.13 372.732 356.568Z" fill="#5D3D6E"/>
<path d="M364.882 369.323C364.882 371.762 362.906 373.738 360.467 373.738C358.029 373.738 356.052 371.762 356.052 369.323C356.052 366.885 358.029 364.908 360.467 364.908C362.906 364.908 364.882 366.885 364.882 369.323Z" fill="#5D3D6E"/>
<path d="M356.052 381.097C356.052 383.535 354.075 385.512 351.637 385.512C349.198 385.512 347.222 383.535 347.222 381.097C347.222 378.659 349.198 376.682 351.637 376.682C354.075 376.682 356.052 378.659 356.052 381.097Z" fill="#5D3D6E"/>
<path d="M345.259 390.909C345.259 393.347 343.283 395.324 340.844 395.324C338.406 395.324 336.429 393.347 336.429 390.909C336.429 388.47 338.406 386.493 340.844 386.493C343.283 386.493 345.259 388.47 345.259 390.909Z" fill="#5D3D6E"/>
<path d="M333.485 399.739C333.485 402.177 331.509 404.154 329.07 404.154C326.632 404.154 324.655 402.177 324.655 399.739C324.655 397.3 326.632 395.324 329.07 395.324C331.509 395.324 333.485 397.3 333.485 399.739Z" fill="#5D3D6E"/>
<path d="M319.749 407.588C319.749 410.027 317.772 412.003 315.334 412.003C312.896 412.003 310.919 410.027 310.919 407.588C310.919 405.15 312.896 403.173 315.334 403.173C317.772 403.173 319.749 405.15 319.749 407.588Z" fill="#5D3D6E"/>
<path d="M306.013 412.494C306.013 414.932 304.036 416.909 301.598 416.909C299.159 416.909 297.183 414.932 297.183 412.494C297.183 410.056 299.159 408.079 301.598 408.079C304.036 408.079 306.013 410.056 306.013 412.494Z" fill="#5D3D6E"/>
<path d="M292.277 416.419C292.277 418.857 290.3 420.834 287.862 420.834C285.423 420.834 283.446 418.857 283.446 416.419C283.446 413.98 285.423 412.003 287.862 412.003C290.3 412.003 292.277 413.98 292.277 416.419Z" fill="#5D3D6E"/>
<path d="M261.861 419.362C261.861 421.801 259.884 423.777 257.446 423.777C255.007 423.777 253.031 421.801 253.031 419.362C253.031 416.924 255.007 414.947 257.446 414.947C259.884 414.947 261.861 416.924 261.861 419.362Z" fill="#5D3D6E"/>
<path d="M247.144 417.4C247.144 419.838 245.167 421.815 242.728 421.815C240.29 421.815 238.313 419.838 238.313 417.4C238.313 414.961 240.29 412.985 242.728 412.985C245.167 412.985 247.144 414.961 247.144 417.4Z" fill="#5D3D6E"/>
<path d="M232.426 414.456C232.426 416.895 230.449 418.872 228.011 418.872C225.573 418.872 223.596 416.895 223.596 414.456C223.596 412.018 225.573 410.041 228.011 410.041C230.449 410.041 232.426 412.018 232.426 414.456Z" fill="#5D3D6E"/>
<path d="M217.709 408.569C217.709 411.008 215.732 412.985 213.294 412.985C210.855 412.985 208.878 411.008 208.878 408.569C208.878 406.131 210.855 404.154 213.294 404.154C215.732 404.154 217.709 406.131 217.709 408.569Z" fill="#5D3D6E"/>
<path d="M203.973 401.701C203.973 404.14 201.996 406.116 199.557 406.116C197.119 406.116 195.142 404.14 195.142 401.701C195.142 399.263 197.119 397.286 199.557 397.286C201.996 397.286 203.973 399.263 203.973 401.701Z" fill="#5D3D6E"/>
<path d="M190.236 393.852C190.236 396.29 188.26 398.267 185.821 398.267C183.383 398.267 181.406 396.29 181.406 393.852C181.406 391.414 183.383 389.437 185.821 389.437C188.26 389.437 190.236 391.414 190.236 393.852Z" fill="#5D3D6E"/>
<path d="M178.463 384.04C178.463 386.479 176.486 388.456 174.047 388.456C171.609 388.456 169.632 386.479 169.632 384.04C169.632 381.602 171.609 379.625 174.047 379.625C176.486 379.625 178.463 381.602 178.463 384.04Z" fill="#5D3D6E"/>
<path d="M167.67 372.267C167.67 374.705 165.693 376.682 163.255 376.682C160.816 376.682 158.839 374.705 158.839 372.267C158.839 369.828 160.816 367.851 163.255 367.851C165.693 367.851 167.67 369.828 167.67 372.267Z" fill="#5D3D6E"/>
<path d="M157.858 360.493C157.858 362.931 155.881 364.908 153.443 364.908C151.005 364.908 149.028 362.931 149.028 360.493C149.028 358.054 151.005 356.077 153.443 356.077C155.881 356.077 157.858 358.054 157.858 360.493Z" fill="#5D3D6E"/>
<path d="M149.028 346.756C149.028 349.195 147.051 351.172 144.613 351.172C142.174 351.172 140.197 349.195 140.197 346.756C140.197 344.318 142.174 342.341 144.613 342.341C147.051 342.341 149.028 344.318 149.028 346.756Z" fill="#5D3D6E"/>
<path d="M142.16 332.039C142.16 334.478 140.183 336.454 137.745 336.454C135.306 336.454 133.329 334.478 133.329 332.039C133.329 329.601 135.306 327.624 137.745 327.624C140.183 327.624 142.16 329.601 142.16 332.039Z" fill="#5D3D6E"/>
<path d="M137.254 317.322C137.254 319.76 135.277 321.737 132.839 321.737C130.4 321.737 128.424 319.76 128.424 317.322C128.424 314.883 130.4 312.907 132.839 312.907C135.277 312.907 137.254 314.883 137.254 317.322Z" fill="#5D3D6E"/>
<path d="M133.329 301.623C133.329 304.062 131.353 306.038 128.914 306.038C126.476 306.038 124.499 304.062 124.499 301.623C124.499 299.185 126.476 297.208 128.914 297.208C131.353 297.208 133.329 299.185 133.329 301.623Z" fill="#5D3D6E"/>
<path d="M131.367 286.906C131.367 289.344 129.39 291.321 126.952 291.321C124.513 291.321 122.537 289.344 122.537 286.906C122.537 284.467 124.513 282.491 126.952 282.491C129.39 282.491 131.367 284.467 131.367 286.906Z" fill="#5D3D6E"/>
<path d="M131.367 271.207C131.367 273.646 129.39 275.623 126.952 275.623C124.513 275.623 122.537 273.646 122.537 271.207C122.537 268.769 124.513 266.792 126.952 266.792C129.39 266.792 131.367 268.769 131.367 271.207Z" fill="#5D3D6E"/>
<path d="M132.348 255.509C132.348 257.947 130.371 259.924 127.933 259.924C125.494 259.924 123.518 257.947 123.518 255.509C123.518 253.07 125.494 251.094 127.933 251.094C130.371 251.094 132.348 253.07 132.348 255.509Z" fill="#5D3D6E"/>
<path d="M136.273 239.81C136.273 242.249 134.296 244.225 131.858 244.225C129.419 244.225 127.442 242.249 127.442 239.81C127.442 237.372 129.419 235.395 131.858 235.395C134.296 235.395 136.273 237.372 136.273 239.81Z" fill="#5D3D6E"/>
<path d="M277.559 418.381C277.559 420.819 275.583 422.796 273.144 422.796C270.706 422.796 268.729 420.819 268.729 418.381C268.729 415.942 270.706 413.966 273.144 413.966C275.583 413.966 277.559 415.942 277.559 418.381Z" fill="#5D3D6E"/>
</g>
</svg>
