<svg width="116" height="116" viewBox="0 0 116 116" fill="none" xmlns="http://www.w3.org/2000/svg">
<path d="M91.0913 87.6408C90.9641 88.4625 90.2767 89.0382 89.5559 88.9267C88.8351 88.8151 88.3539 88.0585 88.481 87.2368C88.6082 86.4151 89.2957 85.8395 90.0164 85.951C90.7372 86.0626 91.2185 86.8191 91.0913 87.6408Z" fill="#22B5CB"/>
<path d="M93.8207 82.8644C93.6935 83.6861 93.0061 84.2617 92.2853 84.1502C91.5645 84.0386 91.0833 83.2821 91.2105 82.4604C91.3376 81.6387 92.0251 81.063 92.7459 81.1746C93.4667 81.2861 93.9479 82.0427 93.8207 82.8644Z" fill="#22B5CB"/>
<path d="M96.0952 78.0879C95.968 78.9096 95.2806 79.4853 94.5598 79.3737C93.839 79.2621 93.3578 78.5056 93.485 77.6839C93.6122 76.8622 94.2996 76.2865 95.0204 76.3981C95.7412 76.5097 96.2224 77.2662 96.0952 78.0879Z" fill="#22B5CB"/>
<path d="M97.6873 72.8565C97.5602 73.6782 96.8727 74.2539 96.1519 74.1423C95.4312 74.0308 94.9499 73.2742 95.0771 72.4525C95.2043 71.6308 95.8917 71.0551 96.6125 71.1667C97.3333 71.2783 97.8145 72.0348 97.6873 72.8565Z" fill="#22B5CB"/>
<path d="M98.8246 67.6252C98.6974 68.4469 98.01 69.0225 97.2892 68.911C96.5684 68.7994 96.0872 68.0428 96.2144 67.2211C96.3416 66.3994 97.029 65.8238 97.7498 65.9353C98.4706 66.0469 98.9518 66.8035 98.8246 67.6252Z" fill="#22B5CB"/>
<path d="M99.2795 62.3938C99.1523 63.2155 98.4649 63.7912 97.7441 63.6796C97.0233 63.568 96.5421 62.8115 96.6693 61.9898C96.7965 61.1681 97.4839 60.5924 98.2047 60.704C98.9255 60.8155 99.4067 61.5721 99.2795 62.3938Z" fill="#22B5CB"/>
<path d="M99.507 56.935C99.3798 57.7567 98.6923 58.3323 97.9715 58.2208C97.2508 58.1092 96.7696 57.3526 96.8967 56.5309C97.0239 55.7092 97.7113 55.1336 98.4321 55.2451C99.1529 55.3567 99.6341 56.1133 99.507 56.935Z" fill="#22B5CB"/>
<path d="M99.0521 51.7036C98.9249 52.5253 98.2374 53.101 97.5167 52.9894C96.7959 52.8778 96.3146 52.1213 96.4418 51.2996C96.569 50.4779 97.2564 49.9022 97.9772 50.0138C98.698 50.1253 99.1792 50.8819 99.0521 51.7036Z" fill="#22B5CB"/>
<path d="M97.9148 46.6997C97.7876 47.5214 97.1002 48.097 96.3794 47.9855C95.6586 47.8739 95.1774 47.1173 95.3046 46.2956C95.4318 45.474 96.1192 44.8983 96.84 45.0098C97.5608 45.1214 98.042 45.878 97.9148 46.6997Z" fill="#22B5CB"/>
<path d="M96.3226 41.6957C96.1955 42.5174 95.508 43.0931 94.7872 42.9815C94.0664 42.87 93.5852 42.1134 93.7124 41.2917C93.8396 40.47 94.527 39.8944 95.2478 40.0059C95.9686 40.1175 96.4498 40.8741 96.3226 41.6957Z" fill="#22B5CB"/>
<path d="M94.2756 37.1467C94.1484 37.9684 93.461 38.5441 92.7402 38.4325C92.0194 38.321 91.5382 37.5644 91.6654 36.7427C91.7925 35.921 92.48 35.3453 93.2008 35.4569C93.9216 35.5685 94.4028 36.325 94.2756 37.1467Z" fill="#22B5CB"/>
<path d="M91.7736 32.8252C91.6464 33.6469 90.959 34.2225 90.2382 34.111C89.5174 33.9994 89.0362 33.2428 89.1634 32.4211C89.2906 31.5994 89.978 31.0238 90.6988 31.1353C91.4196 31.2469 91.9008 32.0035 91.7736 32.8252Z" fill="#22B5CB"/>
<path d="M88.8168 28.9585C88.6896 29.7802 88.0021 30.3559 87.2814 30.2443C86.5606 30.1327 86.0793 29.3762 86.2065 28.5545C86.3337 27.7328 87.0212 27.1571 87.7419 27.2687C88.4627 27.3802 88.9439 28.1368 88.8168 28.9585Z" fill="#22B5CB"/>
<path d="M85.405 25.5467C85.2778 26.3684 84.5904 26.9441 83.8696 26.8325C83.1488 26.721 82.6676 25.9644 82.7948 25.1427C82.922 24.321 83.6094 23.7453 84.3302 23.8569C85.051 23.9685 85.5322 24.725 85.405 25.5467Z" fill="#22B5CB"/>
<path d="M81.5383 22.5899C81.4111 23.4116 80.7237 23.9872 80.0029 23.8757C79.2821 23.7641 78.8009 23.0075 78.9281 22.1858C79.0553 21.3641 79.7427 20.7885 80.4635 20.9C81.1843 21.0116 81.6655 21.7682 81.5383 22.5899Z" fill="#22B5CB"/>
<path d="M77.4442 20.0879C77.317 20.9096 76.6296 21.4853 75.9088 21.3737C75.188 21.2621 74.7068 20.5056 74.834 19.6839C74.9612 18.8622 75.6486 18.2865 76.3694 18.3981C77.0902 18.5097 77.5714 19.2662 77.4442 20.0879Z" fill="#22B5CB"/>
<path d="M73.1226 18.2683C72.9954 19.09 72.308 19.6657 71.5872 19.5541C70.8664 19.4425 70.3852 18.686 70.5124 17.8643C70.6396 17.0426 71.327 16.4669 72.0478 16.5785C72.7686 16.69 73.2498 17.4466 73.1226 18.2683Z" fill="#22B5CB"/>
<path d="M68.5736 17.131C68.4464 17.9527 67.759 18.5284 67.0382 18.4168C66.3174 18.3053 65.8362 17.5487 65.9634 16.727C66.0906 15.9053 66.778 15.3297 67.4988 15.4412C68.2196 15.5528 68.7008 16.3093 68.5736 17.131Z" fill="#22B5CB"/>
<path d="M63.7971 16.4487C63.67 17.2704 62.9825 17.8461 62.2617 17.7345C61.541 17.6229 61.0597 16.8664 61.1869 16.0447C61.3141 15.223 62.0015 14.6473 62.7223 14.7589C63.4431 14.8704 63.9243 15.627 63.7971 16.4487Z" fill="#22B5CB"/>
<path d="M59.0207 16.4487C58.8935 17.2704 58.2061 17.8461 57.4853 17.7345C56.7645 17.6229 56.2833 16.8664 56.4105 16.0447C56.5376 15.223 57.2251 14.6473 57.9459 14.7589C58.6667 14.8704 59.1479 15.627 59.0207 16.4487Z" fill="#22B5CB"/>
<path d="M54.4717 16.9036C54.3445 17.7253 53.657 18.301 52.9363 18.1894C52.2155 18.0778 51.7343 17.3213 51.8614 16.4996C51.9886 15.6779 52.676 15.1022 53.3968 15.2138C54.1176 15.3253 54.5988 16.0819 54.4717 16.9036Z" fill="#22B5CB"/>
<path d="M49.6952 18.0408C49.568 18.8625 48.8806 19.4382 48.1598 19.3266C47.439 19.2151 46.9578 18.4585 47.085 17.6368C47.2122 16.8151 47.8996 16.2395 48.6204 16.351C49.3412 16.4626 49.8224 17.2192 49.6952 18.0408Z" fill="#22B5CB"/>
<path d="M45.1462 19.8605C45.019 20.6821 44.3316 21.2578 43.6108 21.1462C42.89 21.0347 42.4088 20.2781 42.536 19.4564C42.6631 18.6347 43.3506 18.0591 44.0714 18.1706C44.7921 18.2822 45.2734 19.0388 45.1462 19.8605Z" fill="#22B5CB"/>
<path d="M40.8246 22.135C40.6974 22.9567 40.01 23.5323 39.2892 23.4208C38.5684 23.3092 38.0872 22.5526 38.2144 21.7309C38.3416 20.9092 39.029 20.3336 39.7498 20.4451C40.4706 20.5567 40.9518 21.3133 40.8246 22.135Z" fill="#22B5CB"/>
<path d="M36.503 25.0918C36.3758 25.9135 35.6884 26.4892 34.9676 26.3776C34.2468 26.266 33.7656 25.5095 33.8928 24.6878C34.02 23.8661 34.7074 23.2904 35.4282 23.402C36.149 23.5136 36.6302 24.2701 36.503 25.0918Z" fill="#22B5CB"/>
<path d="M32.8638 28.5036C32.7366 29.3253 32.0492 29.901 31.3284 29.7894C30.6076 29.6778 30.1264 28.9213 30.2536 28.0996C30.3808 27.2779 31.0682 26.7022 31.789 26.8138C32.5098 26.9253 32.991 27.6819 32.8638 28.5036Z" fill="#22B5CB"/>
<path d="M29.2246 32.3703C29.0974 33.192 28.41 33.7676 27.6892 33.6561C26.9684 33.5445 26.4872 32.7879 26.6144 31.9662C26.7416 31.1445 27.429 30.5689 28.1498 30.6804C28.8706 30.792 29.3518 31.5486 29.2246 32.3703Z" fill="#22B5CB"/>
<path d="M26.0403 36.6918C25.9131 37.5135 25.2257 38.0892 24.5049 37.9776C23.7841 37.8661 23.3029 37.1095 23.4301 36.2878C23.5573 35.4661 24.2447 34.8904 24.9655 35.002C25.6863 35.1136 26.1675 35.8701 26.0403 36.6918Z" fill="#22B5CB"/>
<path d="M23.5383 41.4683C23.4111 42.29 22.7237 42.8657 22.0029 42.7541C21.2821 42.6425 20.8009 41.886 20.9281 41.0643C21.0553 40.2426 21.7427 39.6669 22.4635 39.7785C23.1843 39.89 23.6655 40.6466 23.5383 41.4683Z" fill="#22B5CB"/>
<path d="M21.4913 46.2448C21.3641 47.0665 20.6767 47.6421 19.9559 47.5306C19.2351 47.419 18.7539 46.6624 18.881 45.8407C19.0082 45.019 19.6957 44.4434 20.4165 44.555C21.1372 44.6665 21.6185 45.4231 21.4913 46.2448Z" fill="#22B5CB"/>
<path d="M19.6717 51.2487C19.5445 52.0704 18.857 52.6461 18.1363 52.5345C17.4155 52.4229 16.9343 51.6664 17.0614 50.8447C17.1886 50.023 17.876 49.4473 18.5968 49.5589C19.3176 49.6704 19.7988 50.427 19.6717 51.2487Z" fill="#22B5CB"/>
<path d="M18.5344 56.4801C18.4072 57.3018 17.7198 57.8774 16.999 57.7659C16.2782 57.6543 15.797 56.8977 15.9242 56.076C16.0514 55.2543 16.7388 54.6787 17.4596 54.7902C18.1804 54.9018 18.6616 55.6584 18.5344 56.4801Z" fill="#22B5CB"/>
<path d="M17.852 61.9389C17.7249 62.7606 17.0374 63.3363 16.3166 63.2247C15.5959 63.1131 15.1146 62.3566 15.2418 61.5349C15.369 60.7132 16.0564 60.1375 16.7772 60.2491C17.498 60.3606 17.9792 61.1172 17.852 61.9389Z" fill="#22B5CB"/>
<path d="M17.852 67.3977C17.7249 68.2194 17.0374 68.7951 16.3166 68.6835C15.5959 68.5719 15.1146 67.8154 15.2418 66.9937C15.369 66.172 16.0564 65.5963 16.7772 65.7079C17.498 65.8195 17.9792 66.576 17.852 67.3977Z" fill="#22B5CB"/>
<path d="M18.307 72.6291C18.1798 73.4508 17.4923 74.0264 16.7715 73.9149C16.0508 73.8033 15.5695 73.0468 15.6967 72.2251C15.8239 71.4034 16.5113 70.8277 17.2321 70.9393C17.9529 71.0508 18.4341 71.8074 18.307 72.6291Z" fill="#22B5CB"/>
<path d="M19.4442 77.8605C19.317 78.6821 18.6296 79.2578 17.9088 79.1463C17.188 79.0347 16.7068 78.2781 16.834 77.4564C16.9612 76.6347 17.6486 76.0591 18.3694 76.1706C19.0902 76.2822 19.5714 77.0388 19.4442 77.8605Z" fill="#22B5CB"/>
<path d="M21.0364 82.4095C20.9092 83.2312 20.2218 83.8068 19.501 83.6953C18.7802 83.5837 18.299 82.8271 18.4261 82.0055C18.5533 81.1838 19.2408 80.6081 19.9615 80.7197C20.6823 80.8312 21.1636 81.5878 21.0364 82.4095Z" fill="#22B5CB"/>
<path d="M23.0834 87.1859C22.9562 88.0076 22.2688 88.5833 21.548 88.4717C20.8272 88.3602 20.346 87.6036 20.4732 86.7819C20.6004 85.9602 21.2878 85.3846 22.0086 85.4961C22.7294 85.6077 23.2106 86.3643 23.0834 87.1859Z" fill="#22B5CB"/>
<path d="M25.5854 91.5075C25.4582 92.3292 24.7708 92.9049 24.05 92.7933C23.3292 92.6817 22.848 91.9252 22.9752 91.1035C23.1023 90.2818 23.7898 89.7061 24.5106 89.8177C25.2314 89.9293 25.7126 90.6858 25.5854 91.5075Z" fill="#22B5CB"/>
<path d="M28.5422 95.3742C28.4151 96.1959 27.7276 96.7715 27.0068 96.66C26.2861 96.5484 25.8048 95.7919 25.932 94.9702C26.0592 94.1485 26.7466 93.5728 27.4674 93.6844C28.1882 93.7959 28.6694 94.5525 28.5422 95.3742Z" fill="#22B5CB"/>
<path d="M32.1815 98.7859C32.0543 99.6076 31.3669 100.183 30.6461 100.072C29.9253 99.9602 29.4441 99.2036 29.5712 98.3819C29.6984 97.5602 30.3859 96.9846 31.1066 97.0961C31.8274 97.2077 32.3086 97.9642 32.1815 98.7859Z" fill="#22B5CB"/>
<path d="M35.8207 101.743C35.6935 102.564 35.0061 103.14 34.2853 103.029C33.5645 102.917 33.0833 102.16 33.2105 101.339C33.3376 100.517 34.0251 99.9414 34.7459 100.053C35.4667 100.165 35.9479 100.921 35.8207 101.743Z" fill="#22B5CB"/>
<path d="M39.9148 104.245C39.7876 105.066 39.1002 105.642 38.3794 105.531C37.6586 105.419 37.1774 104.662 37.3046 103.841C37.4318 103.019 38.1192 102.443 38.84 102.555C39.5608 102.667 40.042 103.423 39.9148 104.245Z" fill="#22B5CB"/>
<path d="M44.2364 106.064C44.1092 106.886 43.4218 107.462 42.701 107.35C41.9802 107.239 41.499 106.482 41.6261 105.66C41.7533 104.839 42.4408 104.263 43.1615 104.375C43.8823 104.486 44.3635 105.243 44.2364 106.064Z" fill="#22B5CB"/>
<path d="M48.7854 107.202C48.6582 108.023 47.9708 108.599 47.25 108.487C46.5292 108.376 46.048 107.619 46.1752 106.798C46.3024 105.976 46.9898 105.4 47.7106 105.512C48.4314 105.623 48.9126 106.38 48.7854 107.202Z" fill="#22B5CB"/>
<path d="M53.5619 107.884C53.4347 108.706 52.7472 109.281 52.0265 109.17C51.3057 109.058 50.8244 108.302 50.9516 107.48C51.0788 106.658 51.7662 106.083 52.487 106.194C53.2078 106.306 53.689 107.062 53.5619 107.884Z" fill="#22B5CB"/>
<path d="M58.1109 107.884C57.9837 108.706 57.2963 109.281 56.5755 109.17C55.8547 109.058 55.3735 108.302 55.5007 107.48C55.6278 106.658 56.3153 106.083 57.0361 106.194C57.7568 106.306 58.2381 107.062 58.1109 107.884Z" fill="#22B5CB"/>
<path d="M62.8873 107.429C62.7602 108.251 62.0727 108.826 61.3519 108.715C60.6312 108.603 60.1499 107.847 60.2771 107.025C60.4043 106.203 61.0917 105.628 61.8125 105.739C62.5333 105.851 63.0145 106.607 62.8873 107.429Z" fill="#22B5CB"/>
<path d="M67.6638 106.292C67.5366 107.114 66.8492 107.689 66.1284 107.578C65.4076 107.466 64.9264 106.709 65.0536 105.888C65.1808 105.066 65.8682 104.49 66.589 104.602C67.3098 104.714 67.791 105.47 67.6638 106.292Z" fill="#22B5CB"/>
<path d="M72.2128 104.472C72.0857 105.294 71.3982 105.87 70.6774 105.758C69.9566 105.646 69.4754 104.89 69.6026 104.068C69.7298 103.246 70.4172 102.671 71.138 102.782C71.8588 102.894 72.34 103.651 72.2128 104.472Z" fill="#22B5CB"/>
<path d="M76.5344 101.97C76.4072 102.792 75.7198 103.368 74.999 103.256C74.2782 103.144 73.797 102.388 73.9242 101.566C74.0514 100.745 74.7388 100.169 75.4596 100.28C76.1804 100.392 76.6616 101.149 76.5344 101.97Z" fill="#22B5CB"/>
<path d="M80.6285 99.0134C80.5013 99.8351 79.8139 100.411 79.0931 100.299C78.3723 100.188 77.8911 99.4311 78.0183 98.6094C78.1455 97.7877 78.8329 97.212 79.5537 97.3236C80.2745 97.4351 80.7557 98.1917 80.6285 99.0134Z" fill="#22B5CB"/>
<path d="M84.4952 95.6016C84.368 96.4233 83.6806 96.999 82.9598 96.8874C82.239 96.7759 81.7578 96.0193 81.885 95.1976C82.0122 94.3759 82.6996 93.8002 83.4204 93.9118C84.1412 94.0234 84.6224 94.7799 84.4952 95.6016Z" fill="#22B5CB"/>
<path d="M88.1344 91.9624C88.0072 92.7841 87.3198 93.3598 86.599 93.2482C85.8782 93.1366 85.397 92.3801 85.5242 91.5584C85.6514 90.7367 86.3388 90.161 87.0596 90.2726C87.7804 90.3842 88.2616 91.1407 88.1344 91.9624Z" fill="#22B5CB"/>
<path d="M43.898 112.02C43.898 113.087 43.0325 113.953 41.9647 113.953C40.897 113.953 40.0314 113.087 40.0314 112.02C40.0314 110.952 40.897 110.086 41.9647 110.086C43.0325 110.086 43.898 110.952 43.898 112.02Z" fill="#22B5CB"/>
<path d="M50.2667 113.384C50.2667 114.452 49.4011 115.318 48.3333 115.318C47.2656 115.318 46.4 114.452 46.4 113.384C46.4 112.317 47.2656 111.451 48.3333 111.451C49.4011 111.451 50.2667 112.317 50.2667 113.384Z" fill="#22B5CB"/>
<path d="M56.6353 114.067C56.6353 115.134 55.7697 116 54.702 116C53.6342 116 52.7686 115.134 52.7686 114.067C52.7686 112.999 53.6342 112.133 54.702 112.133C55.7697 112.133 56.6353 112.999 56.6353 114.067Z" fill="#22B5CB"/>
<path d="M63.4588 114.067C63.4588 115.134 62.5932 116 61.5255 116C60.4577 116 59.5922 115.134 59.5922 114.067C59.5922 112.999 60.4577 112.133 61.5255 112.133C62.5932 112.133 63.4588 112.999 63.4588 114.067Z" fill="#22B5CB"/>
<path d="M69.8275 113.384C69.8275 114.452 68.9619 115.318 67.8941 115.318C66.8264 115.318 65.9608 114.452 65.9608 113.384C65.9608 112.317 66.8264 111.451 67.8941 111.451C68.9619 111.451 69.8275 112.317 69.8275 113.384Z" fill="#22B5CB"/>
<path d="M76.1961 112.02C76.1961 113.087 75.3305 113.953 74.2627 113.953C73.195 113.953 72.3294 113.087 72.3294 112.02C72.3294 110.952 73.195 110.086 74.2627 110.086C75.3305 110.086 76.1961 110.952 76.1961 112.02Z" fill="#22B5CB"/>
<path d="M82.3373 109.518C82.3373 110.585 81.4717 111.451 80.4039 111.451C79.3362 111.451 78.4706 110.585 78.4706 109.518C78.4706 108.45 79.3362 107.584 80.4039 107.584C81.4717 107.584 82.3373 108.45 82.3373 109.518Z" fill="#22B5CB"/>
<path d="M88.251 106.788C88.251 107.856 87.3854 108.722 86.3176 108.722C85.2499 108.722 84.3843 107.856 84.3843 106.788C84.3843 105.72 85.2499 104.855 86.3176 104.855C87.3854 104.855 88.251 105.72 88.251 106.788Z" fill="#22B5CB"/>
<path d="M93.7098 102.922C93.7098 103.989 92.8442 104.855 91.7765 104.855C90.7087 104.855 89.8431 103.989 89.8431 102.922C89.8431 101.854 90.7087 100.988 91.7765 100.988C92.8442 100.988 93.7098 101.854 93.7098 102.922Z" fill="#22B5CB"/>
<path d="M98.7137 99.0549C98.7137 100.123 97.8481 100.988 96.7804 100.988C95.7126 100.988 94.8471 100.123 94.8471 99.0549C94.8471 97.9872 95.7126 97.1216 96.7804 97.1216C97.8481 97.1216 98.7137 97.9872 98.7137 99.0549Z" fill="#22B5CB"/>
<path d="M103.263 94.051C103.263 95.1187 102.397 95.9843 101.329 95.9843C100.262 95.9843 99.3961 95.1187 99.3961 94.051C99.3961 92.9832 100.262 92.1177 101.329 92.1177C102.397 92.1177 103.263 92.9832 103.263 94.051Z" fill="#22B5CB"/>
<path d="M107.129 88.8196C107.129 89.8874 106.264 90.7529 105.196 90.7529C104.128 90.7529 103.263 89.8874 103.263 88.8196C103.263 87.7519 104.128 86.8863 105.196 86.8863C106.264 86.8863 107.129 87.7519 107.129 88.8196Z" fill="#22B5CB"/>
<path d="M110.314 83.1333C110.314 84.2011 109.448 85.0667 108.38 85.0667C107.313 85.0667 106.447 84.2011 106.447 83.1333C106.447 82.0656 107.313 81.2 108.38 81.2C109.448 81.2 110.314 82.0656 110.314 83.1333Z" fill="#22B5CB"/>
<path d="M113.043 77.2196C113.043 78.2874 112.178 79.1529 111.11 79.1529C110.042 79.1529 109.176 78.2874 109.176 77.2196C109.176 76.1519 110.042 75.2863 111.11 75.2863C112.178 75.2863 113.043 76.1519 113.043 77.2196Z" fill="#22B5CB"/>
<path d="M114.863 71.0784C114.863 72.1462 113.997 73.0118 112.929 73.0118C111.862 73.0118 110.996 72.1462 110.996 71.0784C110.996 70.0107 111.862 69.1451 112.929 69.1451C113.997 69.1451 114.863 70.0107 114.863 71.0784Z" fill="#22B5CB"/>
<path d="M116 64.4824C116 65.5501 115.134 66.4157 114.067 66.4157C112.999 66.4157 112.133 65.5501 112.133 64.4824C112.133 63.4146 112.999 62.549 114.067 62.549C115.134 62.549 116 63.4146 116 64.4824Z" fill="#22B5CB"/>
<path d="M116 57.8863C116 58.954 115.134 59.8196 114.067 59.8196C112.999 59.8196 112.133 58.954 112.133 57.8863C112.133 56.8185 112.999 55.9529 114.067 55.9529C115.134 55.9529 116 56.8185 116 57.8863Z" fill="#22B5CB"/>
<path d="M116 51.2902C116 52.3579 115.134 53.2235 114.067 53.2235C112.999 53.2235 112.133 52.3579 112.133 51.2902C112.133 50.2224 112.999 49.3569 114.067 49.3569C115.134 49.3569 116 50.2224 116 51.2902Z" fill="#22B5CB"/>
<path d="M114.863 45.149C114.863 46.2168 113.997 47.0824 112.929 47.0824C111.862 47.0824 110.996 46.2168 110.996 45.149C110.996 44.0813 111.862 43.2157 112.929 43.2157C113.997 43.2157 114.863 44.0813 114.863 45.149Z" fill="#22B5CB"/>
<path d="M113.043 38.5529C113.043 39.6207 112.178 40.4863 111.11 40.4863C110.042 40.4863 109.176 39.6207 109.176 38.5529C109.176 37.4852 110.042 36.6196 111.11 36.6196C112.178 36.6196 113.043 37.4852 113.043 38.5529Z" fill="#22B5CB"/>
<path d="M110.314 32.8667C110.314 33.9344 109.448 34.8 108.38 34.8C107.313 34.8 106.447 33.9344 106.447 32.8667C106.447 31.7989 107.313 30.9333 108.38 30.9333C109.448 30.9333 110.314 31.7989 110.314 32.8667Z" fill="#22B5CB"/>
<path d="M107.129 27.1804C107.129 28.2481 106.264 29.1137 105.196 29.1137C104.128 29.1137 103.263 28.2481 103.263 27.1804C103.263 26.1126 104.128 25.2471 105.196 25.2471C106.264 25.2471 107.129 26.1126 107.129 27.1804Z" fill="#22B5CB"/>
<path d="M103.263 22.1765C103.263 23.2442 102.397 24.1098 101.329 24.1098C100.262 24.1098 99.3961 23.2442 99.3961 22.1765C99.3961 21.1087 100.262 20.2431 101.329 20.2431C102.397 20.2431 103.263 21.1087 103.263 22.1765Z" fill="#22B5CB"/>
<path d="M98.4863 16.9451C98.4863 18.0128 97.6207 18.8784 96.5529 18.8784C95.4852 18.8784 94.6196 18.0128 94.6196 16.9451C94.6196 15.8773 95.4852 15.0118 96.5529 15.0118C97.6207 15.0118 98.4863 15.8773 98.4863 16.9451Z" fill="#22B5CB"/>
<path d="M93.7098 13.0784C93.7098 14.1462 92.8442 15.0118 91.7765 15.0118C90.7087 15.0118 89.8431 14.1462 89.8431 13.0784C89.8431 12.0107 90.7087 11.1451 91.7765 11.1451C92.8442 11.1451 93.7098 12.0107 93.7098 13.0784Z" fill="#22B5CB"/>
<path d="M88.251 9.21177C88.251 10.2795 87.3854 11.1451 86.3176 11.1451C85.2499 11.1451 84.3843 10.2795 84.3843 9.21177C84.3843 8.14401 85.2499 7.27843 86.3176 7.27843C87.3854 7.27843 88.251 8.14401 88.251 9.21177Z" fill="#22B5CB"/>
<path d="M82.5647 6.48235C82.5647 7.5501 81.6991 8.41569 80.6314 8.41569C79.5636 8.41569 78.698 7.5501 78.698 6.48235C78.698 5.4146 79.5636 4.54902 80.6314 4.54902C81.6991 4.54902 82.5647 5.4146 82.5647 6.48235Z" fill="#22B5CB"/>
<path d="M76.1961 3.98039C76.1961 5.04814 75.3305 5.91373 74.2627 5.91373C73.195 5.91373 72.3294 5.04814 72.3294 3.98039C72.3294 2.91264 73.195 2.04706 74.2627 2.04706C75.3305 2.04706 76.1961 2.91264 76.1961 3.98039Z" fill="#22B5CB"/>
<path d="M70.0549 2.61569C70.0549 3.68344 69.1893 4.54902 68.1216 4.54902C67.0538 4.54902 66.1882 3.68344 66.1882 2.61569C66.1882 1.54794 67.0538 0.682353 68.1216 0.682353C69.1893 0.682353 70.0549 1.54794 70.0549 2.61569Z" fill="#22B5CB"/>
<path d="M63.2314 1.93333C63.2314 3.00108 62.3658 3.86667 61.298 3.86667C60.2303 3.86667 59.3647 3.00108 59.3647 1.93333C59.3647 0.865583 60.2303 0 61.298 0C62.3658 0 63.2314 0.865583 63.2314 1.93333Z" fill="#22B5CB"/>
<path d="M57.0902 1.93333C57.0902 3.00108 56.2246 3.86667 55.1569 3.86667C54.0891 3.86667 53.2235 3.00108 53.2235 1.93333C53.2235 0.865583 54.0891 0 55.1569 0C56.2246 0 57.0902 0.865583 57.0902 1.93333Z" fill="#22B5CB"/>
<path d="M50.2667 2.61569C50.2667 3.68344 49.4011 4.54902 48.3333 4.54902C47.2656 4.54902 46.4 3.68344 46.4 2.61569C46.4 1.54794 47.2656 0.682353 48.3333 0.682353C49.4011 0.682353 50.2667 1.54794 50.2667 2.61569Z" fill="#22B5CB"/>
<path d="M43.898 3.98039C43.898 5.04814 43.0325 5.91373 41.9647 5.91373C40.897 5.91373 40.0314 5.04814 40.0314 3.98039C40.0314 2.91264 40.897 2.04706 41.9647 2.04706C43.0325 2.04706 43.898 2.91264 43.898 3.98039Z" fill="#22B5CB"/>
<path d="M37.9843 6.48235C37.9843 7.5501 37.1187 8.41569 36.051 8.41569C34.9832 8.41569 34.1176 7.5501 34.1176 6.48235C34.1176 5.4146 34.9832 4.54902 36.051 4.54902C37.1187 4.54902 37.9843 5.4146 37.9843 6.48235Z" fill="#22B5CB"/>
<path d="M31.8431 9.43922C31.8431 10.507 30.9776 11.3725 29.9098 11.3725C28.8421 11.3725 27.9765 10.507 27.9765 9.43922C27.9765 8.37147 28.8421 7.50588 29.9098 7.50588C30.9776 7.50588 31.8431 8.37147 31.8431 9.43922Z" fill="#22B5CB"/>
<path d="M26.3843 12.851C26.3843 13.9187 25.5187 14.7843 24.451 14.7843C23.3832 14.7843 22.5176 13.9187 22.5176 12.851C22.5176 11.7832 23.3832 10.9176 24.451 10.9176C25.5187 10.9176 26.3843 11.7832 26.3843 12.851Z" fill="#22B5CB"/>
<path d="M21.3804 17.1726C21.3804 18.2403 20.5148 19.1059 19.4471 19.1059C18.3793 19.1059 17.5137 18.2403 17.5137 17.1726C17.5137 16.1048 18.3793 15.2392 19.4471 15.2392C20.5148 15.2392 21.3804 16.1048 21.3804 17.1726Z" fill="#22B5CB"/>
<path d="M17.0588 21.949C17.0588 23.0168 16.1932 23.8824 15.1255 23.8824C14.0577 23.8824 13.1922 23.0168 13.1922 21.949C13.1922 20.8813 14.0577 20.0157 15.1255 20.0157C16.1932 20.0157 17.0588 20.8813 17.0588 21.949Z" fill="#22B5CB"/>
<path d="M13.1922 27.1804C13.1922 28.2481 12.3266 29.1137 11.2588 29.1137C10.1911 29.1137 9.32549 28.2481 9.32549 27.1804C9.32549 26.1126 10.1911 25.2471 11.2588 25.2471C12.3266 25.2471 13.1922 26.1126 13.1922 27.1804Z" fill="#22B5CB"/>
<path d="M9.78039 32.8667C9.78039 33.9344 8.91481 34.8 7.84706 34.8C6.77931 34.8 5.91373 33.9344 5.91373 32.8667C5.91373 31.7989 6.77931 30.9333 7.84706 30.9333C8.91481 30.9333 9.78039 31.7989 9.78039 32.8667Z" fill="#22B5CB"/>
<path d="M7.05098 38.7804C7.05098 39.8481 6.1854 40.7137 5.11765 40.7137C4.0499 40.7137 3.18431 39.8481 3.18431 38.7804C3.18431 37.7126 4.0499 36.8471 5.11765 36.8471C6.1854 36.8471 7.05098 37.7126 7.05098 38.7804Z" fill="#22B5CB"/>
<path d="M5.23137 44.9216C5.23137 45.9893 4.36579 46.8549 3.29804 46.8549C2.23029 46.8549 1.36471 45.9893 1.36471 44.9216C1.36471 43.8538 2.23029 42.9882 3.29804 42.9882C4.36579 42.9882 5.23137 43.8538 5.23137 44.9216Z" fill="#22B5CB"/>
<path d="M4.32157 51.7451C4.32157 52.8128 3.45599 53.6784 2.38824 53.6784C1.32048 53.6784 0.454902 52.8128 0.454902 51.7451C0.454902 50.6773 1.32048 49.8118 2.38824 49.8118C3.45599 49.8118 4.32157 50.6773 4.32157 51.7451Z" fill="#22B5CB"/>
<path d="M3.86667 58.3412C3.86667 59.4089 3.00108 60.2745 1.93333 60.2745C0.865583 60.2745 0 59.4089 0 58.3412C0 57.2734 0.865583 56.4078 1.93333 56.4078C3.00108 56.4078 3.86667 57.2734 3.86667 58.3412Z" fill="#22B5CB"/>
<path d="M4.32157 64.4824C4.32157 65.5501 3.45599 66.4157 2.38824 66.4157C1.32048 66.4157 0.454902 65.5501 0.454902 64.4824C0.454902 63.4146 1.32048 62.549 2.38824 62.549C3.45599 62.549 4.32157 63.4146 4.32157 64.4824Z" fill="#22B5CB"/>
<path d="M5.23137 71.0784C5.23137 72.1462 4.36579 73.0118 3.29804 73.0118C2.23029 73.0118 1.36471 72.1462 1.36471 71.0784C1.36471 70.0107 2.23029 69.1451 3.29804 69.1451C4.36579 69.1451 5.23137 70.0107 5.23137 71.0784Z" fill="#22B5CB"/>
<path d="M7.27843 77.2196C7.27843 78.2874 6.41285 79.1529 5.3451 79.1529C4.27735 79.1529 3.41176 78.2874 3.41176 77.2196C3.41176 76.1519 4.27735 75.2863 5.3451 75.2863C6.41285 75.2863 7.27843 76.1519 7.27843 77.2196Z" fill="#22B5CB"/>
<path d="M9.78039 83.1333C9.78039 84.2011 8.91481 85.0667 7.84706 85.0667C6.77931 85.0667 5.91373 84.2011 5.91373 83.1333C5.91373 82.0656 6.77931 81.2 7.84706 81.2C8.91481 81.2 9.78039 82.0656 9.78039 83.1333Z" fill="#22B5CB"/>
<path d="M13.1922 88.8196C13.1922 89.8874 12.3266 90.7529 11.2588 90.7529C10.1911 90.7529 9.32549 89.8874 9.32549 88.8196C9.32549 87.7519 10.1911 86.8863 11.2588 86.8863C12.3266 86.8863 13.1922 87.7519 13.1922 88.8196Z" fill="#22B5CB"/>
<path d="M17.0588 94.051C17.0588 95.1187 16.1932 95.9843 15.1255 95.9843C14.0577 95.9843 13.1922 95.1187 13.1922 94.051C13.1922 92.9832 14.0577 92.1177 15.1255 92.1177C16.1932 92.1177 17.0588 92.9832 17.0588 94.051Z" fill="#22B5CB"/>
<path d="M21.6078 99.0549C21.6078 100.123 20.7423 100.988 19.6745 100.988C18.6068 100.988 17.7412 100.123 17.7412 99.0549C17.7412 97.9872 18.6068 97.1216 19.6745 97.1216C20.7423 97.1216 21.6078 97.9872 21.6078 99.0549Z" fill="#22B5CB"/>
<path d="M26.3843 102.922C26.3843 103.989 25.5187 104.855 24.451 104.855C23.3832 104.855 22.5176 103.989 22.5176 102.922C22.5176 101.854 23.3832 100.988 24.451 100.988C25.5187 100.988 26.3843 101.854 26.3843 102.922Z" fill="#22B5CB"/>
<path d="M31.8431 106.788C31.8431 107.856 30.9776 108.722 29.9098 108.722C28.8421 108.722 27.9765 107.856 27.9765 106.788C27.9765 105.72 28.8421 104.855 29.9098 104.855C30.9776 104.855 31.8431 105.72 31.8431 106.788Z" fill="#22B5CB"/>
<path d="M37.9843 109.518C37.9843 110.585 37.1187 111.451 36.051 111.451C34.9832 111.451 34.1176 110.585 34.1176 109.518C34.1176 108.45 34.9832 107.584 36.051 107.584C37.1187 107.584 37.9843 108.45 37.9843 109.518Z" fill="#22B5CB"/>
<path d="M32.5255 52.2C32.5255 52.7653 32.0672 53.2235 31.502 53.2235C30.9367 53.2235 30.4784 52.7653 30.4784 52.2C30.4784 51.6347 30.9367 51.1765 31.502 51.1765C32.0672 51.1765 32.5255 51.6347 32.5255 52.2Z" fill="#22B5CB"/>
<path d="M33.8902 49.0157C33.8902 49.581 33.4319 50.0392 32.8667 50.0392C32.3014 50.0392 31.8431 49.581 31.8431 49.0157C31.8431 48.4504 32.3014 47.9922 32.8667 47.9922C33.4319 47.9922 33.8902 48.4504 33.8902 49.0157Z" fill="#22B5CB"/>
<path d="M35.9373 46.0588C35.9373 46.6241 35.479 47.0824 34.9137 47.0824C34.3484 47.0824 33.8902 46.6241 33.8902 46.0588C33.8902 45.4935 34.3484 45.0353 34.9137 45.0353C35.479 45.0353 35.9373 45.4935 35.9373 46.0588Z" fill="#22B5CB"/>
<path d="M37.9843 43.3294C37.9843 43.8947 37.5261 44.3529 36.9608 44.3529C36.3955 44.3529 35.9373 43.8947 35.9373 43.3294C35.9373 42.7641 36.3955 42.3059 36.9608 42.3059C37.5261 42.3059 37.9843 42.7641 37.9843 43.3294Z" fill="#22B5CB"/>
<path d="M40.4863 41.0549C40.4863 41.6202 40.028 42.0784 39.4627 42.0784C38.8975 42.0784 38.4392 41.6202 38.4392 41.0549C38.4392 40.4896 38.8975 40.0314 39.4627 40.0314C40.028 40.0314 40.4863 40.4896 40.4863 41.0549Z" fill="#22B5CB"/>
<path d="M43.2157 39.0078C43.2157 39.5731 42.7574 40.0314 42.1922 40.0314C41.6269 40.0314 41.1686 39.5731 41.1686 39.0078C41.1686 38.4426 41.6269 37.9843 42.1922 37.9843C42.7574 37.9843 43.2157 38.4426 43.2157 39.0078Z" fill="#22B5CB"/>
<path d="M46.4 37.1882C46.4 37.7535 45.9418 38.2118 45.3765 38.2118C44.8112 38.2118 44.3529 37.7535 44.3529 37.1882C44.3529 36.623 44.8112 36.1647 45.3765 36.1647C45.9418 36.1647 46.4 36.623 46.4 37.1882Z" fill="#22B5CB"/>
<path d="M49.5843 36.051C49.5843 36.6163 49.1261 37.0745 48.5608 37.0745C47.9955 37.0745 47.5373 36.6163 47.5373 36.051C47.5373 35.4857 47.9955 35.0275 48.5608 35.0275C49.1261 35.0275 49.5843 35.4857 49.5843 36.051Z" fill="#22B5CB"/>
<path d="M52.7686 35.1412C52.7686 35.7065 52.3104 36.1647 51.7451 36.1647C51.1798 36.1647 50.7216 35.7065 50.7216 35.1412C50.7216 34.5759 51.1798 34.1176 51.7451 34.1176C52.3104 34.1176 52.7686 34.5759 52.7686 35.1412Z" fill="#22B5CB"/>
<path d="M56.4078 34.6863C56.4078 35.2516 55.9496 35.7098 55.3843 35.7098C54.819 35.7098 54.3608 35.2516 54.3608 34.6863C54.3608 34.121 54.819 33.6627 55.3843 33.6627C55.9496 33.6627 56.4078 34.121 56.4078 34.6863Z" fill="#22B5CB"/>
<path d="M59.8196 34.4588C59.8196 35.0241 59.3614 35.4824 58.7961 35.4824C58.2308 35.4824 57.7726 35.0241 57.7726 34.4588C57.7726 33.8935 58.2308 33.4353 58.7961 33.4353C59.3614 33.4353 59.8196 33.8935 59.8196 34.4588Z" fill="#22B5CB"/>
<path d="M63.2314 34.9137C63.2314 35.479 62.7731 35.9373 62.2078 35.9373C61.6426 35.9373 61.1843 35.479 61.1843 34.9137C61.1843 34.3484 61.6426 33.8902 62.2078 33.8902C62.7731 33.8902 63.2314 34.3484 63.2314 34.9137Z" fill="#22B5CB"/>
<path d="M66.6431 35.5961C66.6431 36.1614 66.1849 36.6196 65.6196 36.6196C65.0543 36.6196 64.5961 36.1614 64.5961 35.5961C64.5961 35.0308 65.0543 34.5725 65.6196 34.5725C66.1849 34.5725 66.6431 35.0308 66.6431 35.5961Z" fill="#22B5CB"/>
<path d="M70.0549 36.7333C70.0549 37.2986 69.5967 37.7569 69.0314 37.7569C68.4661 37.7569 68.0078 37.2986 68.0078 36.7333C68.0078 36.1681 68.4661 35.7098 69.0314 35.7098C69.5967 35.7098 70.0549 36.1681 70.0549 36.7333Z" fill="#22B5CB"/>
<path d="M73.2392 38.5529C73.2392 39.1182 72.781 39.5765 72.2157 39.5765C71.6504 39.5765 71.1922 39.1182 71.1922 38.5529C71.1922 37.9877 71.6504 37.5294 72.2157 37.5294C72.781 37.5294 73.2392 37.9877 73.2392 38.5529Z" fill="#22B5CB"/>
<path d="M76.1961 40.3726C76.1961 40.9378 75.7378 41.3961 75.1725 41.3961C74.6073 41.3961 74.149 40.9378 74.149 40.3726C74.149 39.8073 74.6073 39.349 75.1725 39.349C75.7378 39.349 76.1961 39.8073 76.1961 40.3726Z" fill="#22B5CB"/>
<path d="M79.1529 42.6471C79.1529 43.2123 78.6947 43.6706 78.1294 43.6706C77.5641 43.6706 77.1059 43.2123 77.1059 42.6471C77.1059 42.0818 77.5641 41.6235 78.1294 41.6235C78.6947 41.6235 79.1529 42.0818 79.1529 42.6471Z" fill="#22B5CB"/>
<path d="M81.6549 45.149C81.6549 45.7143 81.1967 46.1726 80.6314 46.1726C80.0661 46.1726 79.6078 45.7143 79.6078 45.149C79.6078 44.5837 80.0661 44.1255 80.6314 44.1255C81.1967 44.1255 81.6549 44.5837 81.6549 45.149Z" fill="#22B5CB"/>
<path d="M83.9294 48.1059C83.9294 48.6712 83.4712 49.1294 82.9059 49.1294C82.3406 49.1294 81.8823 48.6712 81.8823 48.1059C81.8823 47.5406 82.3406 47.0824 82.9059 47.0824C83.4712 47.0824 83.9294 47.5406 83.9294 48.1059Z" fill="#22B5CB"/>
<path d="M85.9765 51.2902C85.9765 51.8555 85.5182 52.3137 84.9529 52.3137C84.3877 52.3137 83.9294 51.8555 83.9294 51.2902C83.9294 50.7249 84.3877 50.2667 84.9529 50.2667C85.5182 50.2667 85.9765 50.7249 85.9765 51.2902Z" fill="#22B5CB"/>
<path d="M87.5686 54.4745C87.5686 55.0398 87.1104 55.498 86.5451 55.498C85.9798 55.498 85.5216 55.0398 85.5216 54.4745C85.5216 53.9092 85.9798 53.451 86.5451 53.451C87.1104 53.451 87.5686 53.9092 87.5686 54.4745Z" fill="#22B5CB"/>
<path d="M88.7059 57.8863C88.7059 58.4516 88.2476 58.9098 87.6824 58.9098C87.1171 58.9098 86.6588 58.4516 86.6588 57.8863C86.6588 57.321 87.1171 56.8627 87.6824 56.8627C88.2476 56.8627 88.7059 57.321 88.7059 57.8863Z" fill="#22B5CB"/>
<path d="M89.6157 61.5255C89.6157 62.0908 89.1574 62.549 88.5922 62.549C88.0269 62.549 87.5686 62.0908 87.5686 61.5255C87.5686 60.9602 88.0269 60.502 88.5922 60.502C89.1574 60.502 89.6157 60.9602 89.6157 61.5255Z" fill="#22B5CB"/>
<path d="M90.0706 65.1647C90.0706 65.73 89.6123 66.1882 89.0471 66.1882C88.4818 66.1882 88.0235 65.73 88.0235 65.1647C88.0235 64.5994 88.4818 64.1412 89.0471 64.1412C89.6123 64.1412 90.0706 64.5994 90.0706 65.1647Z" fill="#22B5CB"/>
<path d="M90.0706 68.8039C90.0706 69.3692 89.6123 69.8275 89.0471 69.8275C88.4818 69.8275 88.0235 69.3692 88.0235 68.8039C88.0235 68.2386 88.4818 67.7804 89.0471 67.7804C89.6123 67.7804 90.0706 68.2386 90.0706 68.8039Z" fill="#22B5CB"/>
<path d="M89.8431 72.4431C89.8431 73.0084 89.3849 73.4667 88.8196 73.4667C88.2543 73.4667 87.7961 73.0084 87.7961 72.4431C87.7961 71.8779 88.2543 71.4196 88.8196 71.4196C89.3849 71.4196 89.8431 71.8779 89.8431 72.4431Z" fill="#22B5CB"/>
<path d="M88.9333 75.8549C88.9333 76.4202 88.4751 76.8784 87.9098 76.8784C87.3445 76.8784 86.8863 76.4202 86.8863 75.8549C86.8863 75.2896 87.3445 74.8314 87.9098 74.8314C88.4751 74.8314 88.9333 75.2896 88.9333 75.8549Z" fill="#22B5CB"/>
<path d="M87.7961 79.2667C87.7961 79.8319 87.3378 80.2902 86.7726 80.2902C86.2073 80.2902 85.749 79.8319 85.749 79.2667C85.749 78.7014 86.2073 78.2431 86.7726 78.2431C87.3378 78.2431 87.7961 78.7014 87.7961 79.2667Z" fill="#22B5CB"/>
<path d="M86.2039 82.451C86.2039 83.0163 85.7457 83.4745 85.1804 83.4745C84.6151 83.4745 84.1569 83.0163 84.1569 82.451C84.1569 81.8857 84.6151 81.4275 85.1804 81.4275C85.7457 81.4275 86.2039 81.8857 86.2039 82.451Z" fill="#22B5CB"/>
<path d="M84.3843 85.4079C84.3843 85.9731 83.9261 86.4314 83.3608 86.4314C82.7955 86.4314 82.3373 85.9731 82.3373 85.4079C82.3373 84.8426 82.7955 84.3843 83.3608 84.3843C83.9261 84.3843 84.3843 84.8426 84.3843 85.4079Z" fill="#22B5CB"/>
<path d="M82.3373 88.1373C82.3373 88.7025 81.879 89.1608 81.3137 89.1608C80.7484 89.1608 80.2902 88.7025 80.2902 88.1373C80.2902 87.572 80.7484 87.1137 81.3137 87.1137C81.879 87.1137 82.3373 87.572 82.3373 88.1373Z" fill="#22B5CB"/>
<path d="M79.8353 90.4118C79.8353 90.9771 79.377 91.4353 78.8118 91.4353C78.2465 91.4353 77.7882 90.9771 77.7882 90.4118C77.7882 89.8465 78.2465 89.3882 78.8118 89.3882C79.377 89.3882 79.8353 89.8465 79.8353 90.4118Z" fill="#22B5CB"/>
<path d="M77.1059 92.4588C77.1059 93.0241 76.6476 93.4824 76.0824 93.4824C75.5171 93.4824 75.0588 93.0241 75.0588 92.4588C75.0588 91.8935 75.5171 91.4353 76.0824 91.4353C76.6476 91.4353 77.1059 91.8935 77.1059 92.4588Z" fill="#22B5CB"/>
<path d="M73.9216 94.2784C73.9216 94.8437 73.4633 95.302 72.898 95.302C72.3328 95.302 71.8745 94.8437 71.8745 94.2784C71.8745 93.7132 72.3328 93.2549 72.898 93.2549C73.4633 93.2549 73.9216 93.7132 73.9216 94.2784Z" fill="#22B5CB"/>
<path d="M70.7373 95.4157C70.7373 95.981 70.279 96.4392 69.7137 96.4392C69.1485 96.4392 68.6902 95.981 68.6902 95.4157C68.6902 94.8504 69.1485 94.3922 69.7137 94.3922C70.279 94.3922 70.7373 94.8504 70.7373 95.4157Z" fill="#22B5CB"/>
<path d="M67.5529 96.3255C67.5529 96.8908 67.0947 97.349 66.5294 97.349C65.9641 97.349 65.5059 96.8908 65.5059 96.3255C65.5059 95.7602 65.9641 95.302 66.5294 95.302C67.0947 95.302 67.5529 95.7602 67.5529 96.3255Z" fill="#22B5CB"/>
<path d="M60.502 97.0078C60.502 97.5731 60.0437 98.0314 59.4784 98.0314C58.9132 98.0314 58.4549 97.5731 58.4549 97.0078C58.4549 96.4426 58.9132 95.9843 59.4784 95.9843C60.0437 95.9843 60.502 96.4426 60.502 97.0078Z" fill="#22B5CB"/>
<path d="M57.0902 96.5529C57.0902 97.1182 56.6319 97.5765 56.0667 97.5765C55.5014 97.5765 55.0431 97.1182 55.0431 96.5529C55.0431 95.9877 55.5014 95.5294 56.0667 95.5294C56.6319 95.5294 57.0902 95.9877 57.0902 96.5529Z" fill="#22B5CB"/>
<path d="M53.6784 95.8706C53.6784 96.4359 53.2202 96.8941 52.6549 96.8941C52.0896 96.8941 51.6314 96.4359 51.6314 95.8706C51.6314 95.3053 52.0896 94.8471 52.6549 94.8471C53.2202 94.8471 53.6784 95.3053 53.6784 95.8706Z" fill="#22B5CB"/>
<path d="M50.2667 94.5059C50.2667 95.0712 49.8084 95.5294 49.2431 95.5294C48.6779 95.5294 48.2196 95.0712 48.2196 94.5059C48.2196 93.9406 48.6779 93.4824 49.2431 93.4824C49.8084 93.4824 50.2667 93.9406 50.2667 94.5059Z" fill="#22B5CB"/>
<path d="M47.0824 92.9137C47.0824 93.479 46.6241 93.9373 46.0588 93.9373C45.4935 93.9373 45.0353 93.479 45.0353 92.9137C45.0353 92.3484 45.4935 91.8902 46.0588 91.8902C46.6241 91.8902 47.0824 92.3484 47.0824 92.9137Z" fill="#22B5CB"/>
<path d="M43.898 91.0941C43.898 91.6594 43.4398 92.1177 42.8745 92.1177C42.3092 92.1177 41.851 91.6594 41.851 91.0941C41.851 90.5288 42.3092 90.0706 42.8745 90.0706C43.4398 90.0706 43.898 90.5288 43.898 91.0941Z" fill="#22B5CB"/>
<path d="M41.1686 88.8196C41.1686 89.3849 40.7104 89.8431 40.1451 89.8431C39.5798 89.8431 39.1216 89.3849 39.1216 88.8196C39.1216 88.2543 39.5798 87.7961 40.1451 87.7961C40.7104 87.7961 41.1686 88.2543 41.1686 88.8196Z" fill="#22B5CB"/>
<path d="M38.6667 86.0902C38.6667 86.6555 38.2084 87.1137 37.6431 87.1137C37.0779 87.1137 36.6196 86.6555 36.6196 86.0902C36.6196 85.5249 37.0779 85.0667 37.6431 85.0667C38.2084 85.0667 38.6667 85.5249 38.6667 86.0902Z" fill="#22B5CB"/>
<path d="M36.3922 83.3608C36.3922 83.9261 35.9339 84.3843 35.3686 84.3843C34.8033 84.3843 34.3451 83.9261 34.3451 83.3608C34.3451 82.7955 34.8033 82.3373 35.3686 82.3373C35.9339 82.3373 36.3922 82.7955 36.3922 83.3608Z" fill="#22B5CB"/>
<path d="M34.3451 80.1765C34.3451 80.7417 33.8868 81.2 33.3216 81.2C32.7563 81.2 32.298 80.7417 32.298 80.1765C32.298 79.6112 32.7563 79.1529 33.3216 79.1529C33.8868 79.1529 34.3451 79.6112 34.3451 80.1765Z" fill="#22B5CB"/>
<path d="M32.7529 76.7647C32.7529 77.33 32.2947 77.7882 31.7294 77.7882C31.1641 77.7882 30.7059 77.33 30.7059 76.7647C30.7059 76.1994 31.1641 75.7412 31.7294 75.7412C32.2947 75.7412 32.7529 76.1994 32.7529 76.7647Z" fill="#22B5CB"/>
<path d="M31.6157 73.3529C31.6157 73.9182 31.1574 74.3765 30.5922 74.3765C30.0269 74.3765 29.5686 73.9182 29.5686 73.3529C29.5686 72.7877 30.0269 72.3294 30.5922 72.3294C31.1574 72.3294 31.6157 72.7877 31.6157 73.3529Z" fill="#22B5CB"/>
<path d="M30.7059 69.7137C30.7059 70.279 30.2476 70.7373 29.6824 70.7373C29.1171 70.7373 28.6588 70.279 28.6588 69.7137C28.6588 69.1485 29.1171 68.6902 29.6824 68.6902C30.2476 68.6902 30.7059 69.1485 30.7059 69.7137Z" fill="#22B5CB"/>
<path d="M30.251 66.302C30.251 66.8672 29.7927 67.3255 29.2275 67.3255C28.6622 67.3255 28.2039 66.8672 28.2039 66.302C28.2039 65.7367 28.6622 65.2784 29.2275 65.2784C29.7927 65.2784 30.251 65.7367 30.251 66.302Z" fill="#22B5CB"/>
<path d="M30.251 62.6627C30.251 63.228 29.7927 63.6863 29.2275 63.6863C28.6622 63.6863 28.2039 63.228 28.2039 62.6627C28.2039 62.0975 28.6622 61.6392 29.2275 61.6392C29.7927 61.6392 30.251 62.0975 30.251 62.6627Z" fill="#22B5CB"/>
<path d="M30.4784 59.0235C30.4784 59.5888 30.0202 60.0471 29.4549 60.0471C28.8896 60.0471 28.4314 59.5888 28.4314 59.0235C28.4314 58.4583 28.8896 58 29.4549 58C30.0202 58 30.4784 58.4583 30.4784 59.0235Z" fill="#22B5CB"/>
<path d="M31.3882 55.3843C31.3882 55.9496 30.93 56.4078 30.3647 56.4078C29.7994 56.4078 29.3412 55.9496 29.3412 55.3843C29.3412 54.819 29.7994 54.3608 30.3647 54.3608C30.93 54.3608 31.3882 54.819 31.3882 55.3843Z" fill="#22B5CB"/>
<path d="M64.1412 96.7804C64.1412 97.3457 63.6829 97.8039 63.1176 97.8039C62.5524 97.8039 62.0941 97.3457 62.0941 96.7804C62.0941 96.2151 62.5524 95.7569 63.1176 95.7569C63.6829 95.7569 64.1412 96.2151 64.1412 96.7804Z" fill="#22B5CB"/>
</svg>
