<svg width="64" height="64" viewBox="0 0 64 64" fill="none" xmlns="http://www.w3.org/2000/svg">
<path fill-rule="evenodd" clip-rule="evenodd" d="M34.1913 7.89672C40.1348 8.18882 45.673 10.6397 49.903 14.8726C54.415 19.3874 56.8985 25.3889 56.8961 31.7711C56.8907 44.9414 46.1689 55.6574 32.9978 55.6574C28.0448 55.6574 24.1088 54.1356 21.5674 52.7501L8.89844 56.0717L12.2889 43.6937C10.1976 40.0713 9.0971 35.9622 9.09882 31.7521C9.10411 18.5821 19.8249 7.86719 32.9975 7.86719L34.1913 7.89672ZM22.1543 48.4258L22.8797 48.856C25.9295 50.6649 29.4253 51.622 32.9896 51.6234H32.9977C43.9459 51.6234 52.8566 42.7169 52.861 31.7697C52.863 26.4649 50.7989 21.4767 47.0487 17.7241C43.2983 13.9712 38.3111 11.9033 33.0056 11.9016C22.049 11.9016 13.1382 20.8071 13.1338 31.7535C13.1323 35.505 14.1825 39.1585 16.1708 42.3193L16.6431 43.0706L14.6365 50.3968L22.1543 48.4258ZM45.0376 37.4512C44.8883 37.2021 44.4903 37.0528 43.8932 36.7541C43.296 36.4553 40.3602 35.0115 39.8129 34.8121C39.2655 34.6132 38.8674 34.5137 38.4693 35.111C38.0713 35.7084 36.9269 37.0528 36.5785 37.4512C36.2302 37.8495 35.8819 37.8994 35.2849 37.6006C34.6877 37.302 32.7636 36.6716 30.4828 34.6382C28.7076 33.0556 27.5091 31.1012 27.1608 30.5036C26.8126 29.9062 27.1237 29.5831 27.4226 29.2856C27.6913 29.0181 28.0198 28.5884 28.3184 28.2399C28.617 27.8915 28.7164 27.6424 28.9155 27.2442C29.1146 26.8458 29.015 26.4974 28.8658 26.1986C28.7164 25.8997 27.5223 22.9619 27.0247 21.7669C26.5399 20.6032 26.0476 20.7607 25.681 20.7423C25.3332 20.7251 24.9347 20.7213 24.5367 20.7213C24.1385 20.7213 23.4916 20.8706 22.9442 21.4682C22.3969 22.0656 20.8543 23.5097 20.8543 26.4473C20.8543 29.3852 22.994 32.223 23.2926 32.6214C23.5912 33.0199 27.5033 39.0481 33.4934 41.6336C34.9181 42.2486 36.0304 42.6158 36.8976 42.8909C38.3282 43.3451 39.6298 43.2811 40.6588 43.1274C41.806 42.956 44.1917 41.6835 44.6893 40.2895C45.1869 38.8951 45.1869 37.7001 45.0376 37.4512Z" fill="white"/>
<mask id="mask0_2309_2973" style="mask-type:alpha" maskUnits="userSpaceOnUse" x="13" y="11" width="40" height="41">
<path fill-rule="evenodd" clip-rule="evenodd" d="M22.1533 48.4226L22.8787 48.8528C25.9285 50.6618 29.4243 51.6188 32.9886 51.6202H32.9967C43.9449 51.6202 52.8556 42.7137 52.8599 31.7666C52.862 26.4617 50.7979 21.4736 47.0477 17.721C43.2973 13.9681 38.3101 11.9002 33.0046 11.8984C22.048 11.8984 13.1372 20.804 13.1328 31.7504C13.1313 35.5018 14.1814 39.1553 16.1698 42.3162L16.6421 43.0674L14.6354 50.3937L22.1533 48.4226ZM45.0365 37.4481C44.8873 37.199 44.4893 37.0497 43.8921 36.7509C43.295 36.4522 40.3592 35.0083 39.8118 34.8089C39.2645 34.61 38.8663 34.5105 38.4683 35.1078C38.0703 35.7052 36.9259 37.0497 36.5774 37.4481C36.2292 37.8464 35.8809 37.8962 35.2838 37.5975C34.6867 37.2988 32.7626 36.6684 30.4818 34.6351C28.7065 33.0524 27.5081 31.098 27.1598 30.5005C26.8115 29.9031 27.1226 29.5799 27.4215 29.2824C27.6902 29.0149 28.0188 28.5853 28.3174 28.2368C28.6159 27.8883 28.7154 27.6392 28.9145 27.2411C29.1135 26.8427 29.014 26.4942 28.8647 26.1955C28.7154 25.8966 27.5212 22.9588 27.0236 21.7637C26.5388 20.6 26.0465 20.7576 25.68 20.7392C25.3321 20.722 24.9337 20.7182 24.5356 20.7182C24.1375 20.7182 23.4906 20.8674 22.9432 21.4651C22.3959 22.0625 20.8532 23.5066 20.8532 26.4441C20.8532 29.3821 22.993 32.2199 23.2916 32.6183C23.5901 33.0168 27.5023 39.045 33.4924 41.6305C34.9171 42.2455 36.0294 42.6126 36.8966 42.8877C38.3271 43.342 39.6288 43.278 40.6578 43.1242C41.805 42.9529 44.1907 41.6804 44.6883 40.2864C45.1859 38.8919 45.1859 37.697 45.0365 37.4481Z" fill="black"/>
</mask>
<g mask="url(#mask0_2309_2973)">
<path d="M65.8106 -1.33594H-1.33594V65.8107H65.8106V-1.33594Z" fill="url(#paint0_linear_2309_2973)"/>
</g>
<defs>
<linearGradient id="paint0_linear_2309_2973" x1="32.2375" y1="65.8107" x2="32.2375" y2="-1.33594" gradientUnits="userSpaceOnUse">
<stop stop-color="#25CF43"/>
<stop offset="1" stop-color="#61FD7D"/>
</linearGradient>
</defs>
</svg>
