<svg width="28" height="28" viewBox="0 0 28 28" fill="none" xmlns="http://www.w3.org/2000/svg">
<path d="M13.883 3.78906C8.18618 3.78906 3.54999 8.25451 3.54798 13.7424C3.54664 15.4974 4.02339 17.2102 4.92732 18.7187L3.46094 23.8765L8.94013 22.4925C10.4642 23.2898 12.1589 23.7056 13.879 23.7044H13.883C19.5798 23.7044 24.216 19.2383 24.218 13.7504C24.2193 11.0922 23.1453 8.58997 21.1935 6.70911C19.2423 4.82758 16.6477 3.78973 13.883 3.78906ZM13.883 22.0231H13.8796C12.3383 22.0231 10.8263 21.6241 9.50726 20.8701L9.19256 20.6907L5.94241 21.5116L6.81019 18.4583L6.60597 18.1456C5.74817 16.8373 5.29153 15.3068 5.29224 13.7424C5.29425 9.18054 9.14837 5.47038 13.8863 5.47038C16.1803 5.47105 18.337 6.33281 19.9594 7.89628C21.5818 9.45975 22.4744 11.5388 22.4731 13.7498C22.471 18.3116 18.6176 22.0231 13.8823 22.0231H13.883ZM18.5948 15.8261C18.3364 15.7023 17.0668 15.1003 16.8298 15.0166C16.5935 14.9343 16.4214 14.8914 16.2493 15.1405C16.0779 15.3896 15.5824 15.95 15.4324 16.1154C15.2811 16.2815 15.1304 16.3015 14.872 16.1777C14.6135 16.0531 13.7812 15.7907 12.7956 14.943C12.0276 14.2841 11.5093 13.4699 11.3587 13.2201C11.208 12.9717 11.3426 12.8371 11.4718 12.7133C11.5877 12.6028 11.7303 12.4233 11.8588 12.278C11.9874 12.1327 12.0303 12.0289 12.1173 11.8629C12.203 11.6975 12.1601 11.5515 12.0952 11.4277C12.0303 11.3024 11.5147 10.0784 11.2984 9.58095C11.0895 9.09617 10.8766 9.16112 10.7179 9.15309C10.5672 9.14639 10.3958 9.14438 10.2224 9.14438C10.0516 9.14438 9.77108 9.20665 9.53405 9.45574C9.29769 9.70482 8.63011 10.3061 8.63011 11.5301C8.63011 12.7548 9.55547 13.9373 9.6847 14.1033C9.81393 14.2687 11.506 16.7816 14.0966 17.8597C14.7126 18.1148 15.1934 18.2681 15.569 18.3833C16.1877 18.5728 16.7508 18.5453 17.1954 18.4817C17.6909 18.4101 18.7234 17.8804 18.9377 17.2999C19.1533 16.7194 19.1533 16.2212 19.089 16.1174C19.026 16.0136 18.8533 15.9514 18.5948 15.8261V15.8261Z" fill="#2481C2"/>
</svg>
