<svg width="22" height="22" viewBox="0 0 22 22" fill="none" xmlns="http://www.w3.org/2000/svg">
<g clip-path="url(#clip0_2309_3021)">
<path d="M15.6917 2.17188C14.7064 2.1872 13.7426 2.46225 12.8977 2.96924C12.0527 3.47623 11.3564 4.19721 10.8792 5.05937C10.402 4.19721 9.7058 3.47623 8.86082 2.96924C8.01583 2.46225 7.05203 2.1872 6.06674 2.17188C4.49606 2.24012 3.01623 2.92722 1.95055 4.08308C0.884863 5.23893 0.319954 6.76958 0.379236 8.34063C0.379236 12.3193 4.56699 16.6645 8.07924 19.6106C8.86343 20.2696 9.85492 20.6309 10.8792 20.6309C11.9036 20.6309 12.895 20.2696 13.6792 19.6106C17.1915 16.6645 21.3792 12.3193 21.3792 8.34063C21.4385 6.76958 20.8736 5.23893 19.8079 4.08308C18.7422 2.92722 17.2624 2.24012 15.6917 2.17188Z" fill="white"/>
</g>
<defs>
<clipPath id="clip0_2309_3021">
<rect width="21" height="21" fill="white" transform="translate(0.375 0.5)"/>
</clipPath>
</defs>
</svg>
