<svg width="1536" height="44" viewBox="0 0 1536 44" fill="none" xmlns="http://www.w3.org/2000/svg">
<rect width="1536" height="44" fill="white"/>
<path d="M35.0005 22.9988H23.8305L28.7105 18.1188C29.1005 17.7288 29.1005 17.0887 28.7105 16.6987C28.3205 16.3088 27.6905 16.3088 27.3005 16.6987L20.7105 23.2888C20.3205 23.6788 20.3205 24.3087 20.7105 24.6987L27.3005 31.2888C27.6905 31.6788 28.3205 31.6788 28.7105 31.2888C29.1005 30.8988 29.1005 30.2687 28.7105 29.8787L23.8305 24.9987H35.0005C35.5505 24.9987 36.0005 24.5488 36.0005 23.9988C36.0005 23.4488 35.5505 22.9988 35.0005 22.9988Z" fill="#535353"/>
<path d="M72.7617 24.9987H83.9317L79.0517 29.8787C78.6617 30.2687 78.6617 30.9087 79.0517 31.2987C79.4417 31.6887 80.0717 31.6887 80.4617 31.2987L87.0517 24.7087C87.4417 24.3187 87.4417 23.6888 87.0517 23.2988L80.4717 16.6987C80.0817 16.3088 79.4517 16.3088 79.0617 16.6987C78.6717 17.0887 78.6717 17.7188 79.0617 18.1088L83.9317 22.9988H72.7617C72.2117 22.9988 71.7617 23.4488 71.7617 23.9988C71.7617 24.5488 72.2117 24.9987 72.7617 24.9987V24.9987Z" fill="#535353"/>
<path d="M138.335 17.6466C136.502 15.8131 133.903 14.7558 131.046 15.0483C126.918 15.4645 123.522 18.8163 123.06 22.9443C122.442 28.3996 126.66 33 131.98 33C135.568 33 138.65 30.8966 140.09 27.8709C140.45 27.1173 139.91 26.2512 139.077 26.2512C138.661 26.2512 138.268 26.4762 138.088 26.8474C136.817 29.5806 133.768 31.3128 130.439 30.5704C127.942 30.0193 125.929 27.9834 125.4 25.4864C124.455 21.1222 127.773 17.2529 131.98 17.2529C133.847 17.2529 135.512 18.029 136.727 19.255L135.028 20.9535C134.32 21.6621 134.814 22.8768 135.816 22.8768H139.854C140.472 22.8768 140.978 22.3707 140.978 21.7521V17.714C140.978 16.713 139.764 16.2068 139.055 16.9154L138.335 17.6466V17.6466Z" fill="#535353"/>
<rect x="160" y="8" width="1284" height="32" rx="16" fill="#F1F3F4"/>
<path d="M180.211 20.5137C181.586 20.6532 182.659 21.8153 182.659 23.2275V24.1367L182.658 24.1396C183.169 24.1847 183.569 24.6134 183.569 25.1357V29.499C183.569 30.0513 183.122 30.499 182.569 30.499H177.297C176.745 30.499 176.297 30.0513 176.297 29.499V25.1357C176.297 24.6143 176.696 24.1858 177.205 24.1396V23.2275C177.205 21.7214 178.427 20.5002 179.933 20.5L180.211 20.5137ZM179.933 21.5C179.038 21.5002 178.302 22.1798 178.214 23.0508L178.205 23.2275V24.1357H181.659V23.2275C181.659 22.2737 180.886 21.5001 179.933 21.5Z" fill="#202124"/>
<path d="M197.547 17.5V29.5H196.102V17.5H197.547ZM197.203 24.9531L196.602 24.9297C196.607 24.3516 196.693 23.8177 196.859 23.3281C197.026 22.8333 197.26 22.4036 197.562 22.0391C197.865 21.6745 198.224 21.3932 198.641 21.1953C199.062 20.9922 199.529 20.8906 200.039 20.8906C200.456 20.8906 200.831 20.9479 201.164 21.0625C201.497 21.1719 201.781 21.349 202.016 21.5938C202.255 21.8385 202.438 22.1562 202.562 22.5469C202.688 22.9323 202.75 23.4036 202.75 23.9609V29.5H201.297V23.9453C201.297 23.5026 201.232 23.1484 201.102 22.8828C200.971 22.612 200.781 22.4167 200.531 22.2969C200.281 22.1719 199.974 22.1094 199.609 22.1094C199.25 22.1094 198.922 22.1849 198.625 22.3359C198.333 22.487 198.081 22.6953 197.867 22.9609C197.659 23.2266 197.495 23.5312 197.375 23.875C197.26 24.2135 197.203 24.5729 197.203 24.9531ZM208.453 21.0469V22.1562H203.883V21.0469H208.453ZM205.43 18.9922H206.875V27.4062C206.875 27.6927 206.919 27.9089 207.008 28.0547C207.096 28.2005 207.211 28.2969 207.352 28.3438C207.492 28.3906 207.643 28.4141 207.805 28.4141C207.924 28.4141 208.049 28.4036 208.18 28.3828C208.315 28.3568 208.417 28.3359 208.484 28.3203L208.492 29.5C208.378 29.5365 208.227 29.5703 208.039 29.6016C207.857 29.638 207.635 29.6562 207.375 29.6562C207.021 29.6562 206.695 29.5859 206.398 29.4453C206.102 29.3047 205.865 29.0703 205.688 28.7422C205.516 28.4089 205.43 27.9609 205.43 27.3984V18.9922ZM213.688 21.0469V22.1562H209.117V21.0469H213.688ZM210.664 18.9922H212.109V27.4062C212.109 27.6927 212.154 27.9089 212.242 28.0547C212.331 28.2005 212.445 28.2969 212.586 28.3438C212.727 28.3906 212.878 28.4141 213.039 28.4141C213.159 28.4141 213.284 28.4036 213.414 28.3828C213.549 28.3568 213.651 28.3359 213.719 28.3203L213.727 29.5C213.612 29.5365 213.461 29.5703 213.273 29.6016C213.091 29.638 212.87 29.6562 212.609 29.6562C212.255 29.6562 211.93 29.5859 211.633 29.4453C211.336 29.3047 211.099 29.0703 210.922 28.7422C210.75 28.4089 210.664 27.9609 210.664 27.3984V18.9922ZM216.828 22.6719V32.75H215.375V21.0469H216.703L216.828 22.6719ZM222.523 25.2031V25.3672C222.523 25.9818 222.451 26.5521 222.305 27.0781C222.159 27.599 221.945 28.0521 221.664 28.4375C221.388 28.8229 221.047 29.1224 220.641 29.3359C220.234 29.5495 219.768 29.6562 219.242 29.6562C218.706 29.6562 218.232 29.5677 217.82 29.3906C217.409 29.2135 217.06 28.9557 216.773 28.6172C216.487 28.2786 216.258 27.8724 216.086 27.3984C215.919 26.9245 215.805 26.3906 215.742 25.7969V24.9219C215.805 24.2969 215.922 23.737 216.094 23.2422C216.266 22.7474 216.492 22.3255 216.773 21.9766C217.06 21.6224 217.406 21.3542 217.812 21.1719C218.219 20.9844 218.688 20.8906 219.219 20.8906C219.75 20.8906 220.221 20.9948 220.633 21.2031C221.044 21.4062 221.391 21.6979 221.672 22.0781C221.953 22.4583 222.164 22.9141 222.305 23.4453C222.451 23.9714 222.523 24.5573 222.523 25.2031ZM221.07 25.3672V25.2031C221.07 24.7812 221.026 24.3854 220.938 24.0156C220.849 23.6406 220.711 23.3125 220.523 23.0312C220.341 22.7448 220.107 22.5208 219.82 22.3594C219.534 22.1927 219.193 22.1094 218.797 22.1094C218.432 22.1094 218.115 22.1719 217.844 22.2969C217.578 22.4219 217.352 22.5911 217.164 22.8047C216.977 23.013 216.823 23.2526 216.703 23.5234C216.589 23.7891 216.503 24.0651 216.445 24.3516V26.375C216.549 26.7396 216.695 27.0833 216.883 27.4062C217.07 27.724 217.32 27.9818 217.633 28.1797C217.945 28.3724 218.339 28.4688 218.812 28.4688C219.203 28.4688 219.539 28.388 219.82 28.2266C220.107 28.0599 220.341 27.8333 220.523 27.5469C220.711 27.2604 220.849 26.9323 220.938 26.5625C221.026 26.1875 221.07 25.7891 221.07 25.3672ZM229.289 27.2578C229.289 27.0495 229.242 26.8568 229.148 26.6797C229.06 26.4974 228.875 26.3333 228.594 26.1875C228.318 26.0365 227.901 25.9062 227.344 25.7969C226.875 25.6979 226.451 25.5807 226.07 25.4453C225.695 25.3099 225.375 25.1458 225.109 24.9531C224.849 24.7604 224.648 24.5339 224.508 24.2734C224.367 24.013 224.297 23.7083 224.297 23.3594C224.297 23.026 224.37 22.7109 224.516 22.4141C224.667 22.1172 224.878 21.8542 225.148 21.625C225.424 21.3958 225.755 21.2161 226.141 21.0859C226.526 20.9557 226.956 20.8906 227.43 20.8906C228.107 20.8906 228.685 21.0104 229.164 21.25C229.643 21.4896 230.01 21.8099 230.266 22.2109C230.521 22.6068 230.648 23.0469 230.648 23.5312H229.203C229.203 23.2969 229.133 23.0703 228.992 22.8516C228.857 22.6276 228.656 22.4427 228.391 22.2969C228.13 22.151 227.81 22.0781 227.43 22.0781C227.029 22.0781 226.703 22.1406 226.453 22.2656C226.208 22.3854 226.029 22.5391 225.914 22.7266C225.805 22.9141 225.75 23.112 225.75 23.3203C225.75 23.4766 225.776 23.6172 225.828 23.7422C225.885 23.862 225.984 23.974 226.125 24.0781C226.266 24.1771 226.464 24.2708 226.719 24.3594C226.974 24.4479 227.299 24.5365 227.695 24.625C228.388 24.7812 228.958 24.9688 229.406 25.1875C229.854 25.4062 230.188 25.6745 230.406 25.9922C230.625 26.3099 230.734 26.6953 230.734 27.1484C230.734 27.5182 230.656 27.8568 230.5 28.1641C230.349 28.4714 230.128 28.737 229.836 28.9609C229.549 29.1797 229.206 29.3516 228.805 29.4766C228.409 29.5964 227.964 29.6562 227.469 29.6562C226.724 29.6562 226.094 29.5234 225.578 29.2578C225.062 28.9922 224.672 28.6484 224.406 28.2266C224.141 27.8047 224.008 27.3594 224.008 26.8906H225.461C225.482 27.2865 225.596 27.6016 225.805 27.8359C226.013 28.0651 226.268 28.2292 226.57 28.3281C226.872 28.4219 227.172 28.4688 227.469 28.4688C227.865 28.4688 228.195 28.4167 228.461 28.3125C228.732 28.2083 228.938 28.0651 229.078 27.8828C229.219 27.7005 229.289 27.4922 229.289 27.2578ZM237.664 18.125L232.922 30.4766H231.68L236.43 18.125H237.664ZM242.523 18.125L237.781 30.4766H236.539L241.289 18.125H242.523ZM244.039 28.7344C244.039 28.4896 244.115 28.2839 244.266 28.1172C244.422 27.9453 244.646 27.8594 244.938 27.8594C245.229 27.8594 245.451 27.9453 245.602 28.1172C245.758 28.2839 245.836 28.4896 245.836 28.7344C245.836 28.974 245.758 29.1771 245.602 29.3438C245.451 29.5104 245.229 29.5938 244.938 29.5938C244.646 29.5938 244.422 29.5104 244.266 29.3438C244.115 29.1771 244.039 28.974 244.039 28.7344ZM244.047 21.8359C244.047 21.5911 244.122 21.3854 244.273 21.2188C244.43 21.0469 244.654 20.9609 244.945 20.9609C245.237 20.9609 245.458 21.0469 245.609 21.2188C245.766 21.3854 245.844 21.5911 245.844 21.8359C245.844 22.0755 245.766 22.2786 245.609 22.4453C245.458 22.612 245.237 22.6953 244.945 22.6953C244.654 22.6953 244.43 22.612 244.273 22.4453C244.122 22.2786 244.047 22.0755 244.047 21.8359ZM251.516 21.0469V22.1562H246.945V21.0469H251.516ZM248.492 18.9922H249.938V27.4062C249.938 27.6927 249.982 27.9089 250.07 28.0547C250.159 28.2005 250.273 28.2969 250.414 28.3438C250.555 28.3906 250.706 28.4141 250.867 28.4141C250.987 28.4141 251.112 28.4036 251.242 28.3828C251.378 28.3568 251.479 28.3359 251.547 28.3203L251.555 29.5C251.44 29.5365 251.289 29.5703 251.102 29.6016C250.919 29.638 250.698 29.6562 250.438 29.6562C250.083 29.6562 249.758 29.5859 249.461 29.4453C249.164 29.3047 248.927 29.0703 248.75 28.7422C248.578 28.4089 248.492 27.9609 248.492 27.3984V18.9922ZM254.656 17.5V29.5H253.211V17.5H254.656ZM254.312 24.9531L253.711 24.9297C253.716 24.3516 253.802 23.8177 253.969 23.3281C254.135 22.8333 254.37 22.4036 254.672 22.0391C254.974 21.6745 255.333 21.3932 255.75 21.1953C256.172 20.9922 256.638 20.8906 257.148 20.8906C257.565 20.8906 257.94 20.9479 258.273 21.0625C258.607 21.1719 258.891 21.349 259.125 21.5938C259.365 21.8385 259.547 22.1562 259.672 22.5469C259.797 22.9323 259.859 23.4036 259.859 23.9609V29.5H258.406V23.9453C258.406 23.5026 258.341 23.1484 258.211 22.8828C258.081 22.612 257.891 22.4167 257.641 22.2969C257.391 22.1719 257.083 22.1094 256.719 22.1094C256.359 22.1094 256.031 22.1849 255.734 22.3359C255.443 22.487 255.19 22.6953 254.977 22.9609C254.768 23.2266 254.604 23.5312 254.484 23.875C254.37 24.2135 254.312 24.5729 254.312 24.9531ZM265.531 29.6562C264.943 29.6562 264.409 29.5573 263.93 29.3594C263.456 29.1562 263.047 28.8724 262.703 28.5078C262.365 28.1432 262.104 27.7109 261.922 27.2109C261.74 26.7109 261.648 26.1641 261.648 25.5703V25.2422C261.648 24.5547 261.75 23.9427 261.953 23.4062C262.156 22.8646 262.432 22.4062 262.781 22.0312C263.13 21.6562 263.526 21.3724 263.969 21.1797C264.411 20.987 264.87 20.8906 265.344 20.8906C265.948 20.8906 266.469 20.9948 266.906 21.2031C267.349 21.4115 267.711 21.7031 267.992 22.0781C268.273 22.4479 268.482 22.8854 268.617 23.3906C268.753 23.8906 268.82 24.4375 268.82 25.0312V25.6797H262.508V24.5H267.375V24.3906C267.354 24.0156 267.276 23.651 267.141 23.2969C267.01 22.9427 266.802 22.651 266.516 22.4219C266.229 22.1927 265.839 22.0781 265.344 22.0781C265.016 22.0781 264.714 22.1484 264.438 22.2891C264.161 22.4245 263.924 22.6276 263.727 22.8984C263.529 23.1693 263.375 23.5 263.266 23.8906C263.156 24.2812 263.102 24.7318 263.102 25.2422V25.5703C263.102 25.9714 263.156 26.349 263.266 26.7031C263.38 27.0521 263.544 27.3594 263.758 27.625C263.977 27.8906 264.24 28.099 264.547 28.25C264.859 28.401 265.214 28.4766 265.609 28.4766C266.12 28.4766 266.552 28.3724 266.906 28.1641C267.26 27.9557 267.57 27.6771 267.836 27.3281L268.711 28.0234C268.529 28.2995 268.297 28.5625 268.016 28.8125C267.734 29.0625 267.388 29.2656 266.977 29.4219C266.57 29.5781 266.089 29.6562 265.531 29.6562ZM273.891 28.4688C274.234 28.4688 274.552 28.3984 274.844 28.2578C275.135 28.1172 275.375 27.9245 275.562 27.6797C275.75 27.4297 275.857 27.1458 275.883 26.8281H277.258C277.232 27.3281 277.062 27.7943 276.75 28.2266C276.443 28.6536 276.039 29 275.539 29.2656C275.039 29.526 274.49 29.6562 273.891 29.6562C273.255 29.6562 272.701 29.5443 272.227 29.3203C271.758 29.0964 271.367 28.7891 271.055 28.3984C270.747 28.0078 270.516 27.5599 270.359 27.0547C270.208 26.5443 270.133 26.0052 270.133 25.4375V25.1094C270.133 24.5417 270.208 24.0052 270.359 23.5C270.516 22.9896 270.747 22.5391 271.055 22.1484C271.367 21.7578 271.758 21.4505 272.227 21.2266C272.701 21.0026 273.255 20.8906 273.891 20.8906C274.552 20.8906 275.13 21.026 275.625 21.2969C276.12 21.5625 276.508 21.9271 276.789 22.3906C277.076 22.849 277.232 23.3698 277.258 23.9531H275.883C275.857 23.6042 275.758 23.2891 275.586 23.0078C275.419 22.7266 275.19 22.5026 274.898 22.3359C274.612 22.1641 274.276 22.0781 273.891 22.0781C273.448 22.0781 273.076 22.1667 272.773 22.3438C272.477 22.5156 272.24 22.75 272.062 23.0469C271.891 23.3385 271.766 23.6641 271.688 24.0234C271.615 24.3776 271.578 24.7396 271.578 25.1094V25.4375C271.578 25.8073 271.615 26.1719 271.688 26.5312C271.76 26.8906 271.883 27.2161 272.055 27.5078C272.232 27.7995 272.469 28.0339 272.766 28.2109C273.068 28.3828 273.443 28.4688 273.891 28.4688ZM278.5 25.3672V25.1875C278.5 24.5781 278.589 24.013 278.766 23.4922C278.943 22.9661 279.198 22.5104 279.531 22.125C279.865 21.7344 280.268 21.4323 280.742 21.2188C281.216 21 281.747 20.8906 282.336 20.8906C282.93 20.8906 283.464 21 283.938 21.2188C284.417 21.4323 284.823 21.7344 285.156 22.125C285.495 22.5104 285.753 22.9661 285.93 23.4922C286.107 24.013 286.195 24.5781 286.195 25.1875V25.3672C286.195 25.9766 286.107 26.5417 285.93 27.0625C285.753 27.5833 285.495 28.0391 285.156 28.4297C284.823 28.8151 284.419 29.1172 283.945 29.3359C283.477 29.5495 282.945 29.6562 282.352 29.6562C281.758 29.6562 281.224 29.5495 280.75 29.3359C280.276 29.1172 279.87 28.8151 279.531 28.4297C279.198 28.0391 278.943 27.5833 278.766 27.0625C278.589 26.5417 278.5 25.9766 278.5 25.3672ZM279.945 25.1875V25.3672C279.945 25.7891 279.995 26.1875 280.094 26.5625C280.193 26.9323 280.341 27.2604 280.539 27.5469C280.742 27.8333 280.995 28.0599 281.297 28.2266C281.599 28.388 281.951 28.4688 282.352 28.4688C282.747 28.4688 283.094 28.388 283.391 28.2266C283.693 28.0599 283.943 27.8333 284.141 27.5469C284.339 27.2604 284.487 26.9323 284.586 26.5625C284.69 26.1875 284.742 25.7891 284.742 25.3672V25.1875C284.742 24.7708 284.69 24.3776 284.586 24.0078C284.487 23.6328 284.336 23.3021 284.133 23.0156C283.935 22.724 283.685 22.4948 283.383 22.3281C283.086 22.1615 282.737 22.0781 282.336 22.0781C281.94 22.0781 281.591 22.1615 281.289 22.3281C280.992 22.4948 280.742 22.724 280.539 23.0156C280.341 23.3021 280.193 23.6328 280.094 24.0078C279.995 24.3776 279.945 24.7708 279.945 25.1875ZM287.625 25.3672V25.1875C287.625 24.5781 287.714 24.013 287.891 23.4922C288.068 22.9661 288.323 22.5104 288.656 22.125C288.99 21.7344 289.393 21.4323 289.867 21.2188C290.341 21 290.872 20.8906 291.461 20.8906C292.055 20.8906 292.589 21 293.062 21.2188C293.542 21.4323 293.948 21.7344 294.281 22.125C294.62 22.5104 294.878 22.9661 295.055 23.4922C295.232 24.013 295.32 24.5781 295.32 25.1875V25.3672C295.32 25.9766 295.232 26.5417 295.055 27.0625C294.878 27.5833 294.62 28.0391 294.281 28.4297C293.948 28.8151 293.544 29.1172 293.07 29.3359C292.602 29.5495 292.07 29.6562 291.477 29.6562C290.883 29.6562 290.349 29.5495 289.875 29.3359C289.401 29.1172 288.995 28.8151 288.656 28.4297C288.323 28.0391 288.068 27.5833 287.891 27.0625C287.714 26.5417 287.625 25.9766 287.625 25.3672ZM289.07 25.1875V25.3672C289.07 25.7891 289.12 26.1875 289.219 26.5625C289.318 26.9323 289.466 27.2604 289.664 27.5469C289.867 27.8333 290.12 28.0599 290.422 28.2266C290.724 28.388 291.076 28.4688 291.477 28.4688C291.872 28.4688 292.219 28.388 292.516 28.2266C292.818 28.0599 293.068 27.8333 293.266 27.5469C293.464 27.2604 293.612 26.9323 293.711 26.5625C293.815 26.1875 293.867 25.7891 293.867 25.3672V25.1875C293.867 24.7708 293.815 24.3776 293.711 24.0078C293.612 23.6328 293.461 23.3021 293.258 23.0156C293.06 22.724 292.81 22.4948 292.508 22.3281C292.211 22.1615 291.862 22.0781 291.461 22.0781C291.065 22.0781 290.716 22.1615 290.414 22.3281C290.117 22.4948 289.867 22.724 289.664 23.0156C289.466 23.3021 289.318 23.6328 289.219 24.0078C289.12 24.3776 289.07 24.7708 289.07 25.1875ZM298.578 22.375V29.5H297.133V21.0469H298.539L298.578 22.375ZM301.219 21L301.211 22.3438C301.091 22.3177 300.977 22.3021 300.867 22.2969C300.763 22.2865 300.643 22.2812 300.508 22.2812C300.174 22.2812 299.88 22.3333 299.625 22.4375C299.37 22.5417 299.154 22.6875 298.977 22.875C298.799 23.0625 298.659 23.2865 298.555 23.5469C298.456 23.8021 298.391 24.0833 298.359 24.3906L297.953 24.625C297.953 24.1146 298.003 23.6354 298.102 23.1875C298.206 22.7396 298.365 22.3438 298.578 22C298.792 21.651 299.062 21.3802 299.391 21.1875C299.724 20.9896 300.12 20.8906 300.578 20.8906C300.682 20.8906 300.802 20.9036 300.938 20.9297C301.073 20.9505 301.167 20.974 301.219 21ZM307.727 27.8594V17.5H309.18V29.5H307.852L307.727 27.8594ZM302.039 25.3672V25.2031C302.039 24.5573 302.117 23.9714 302.273 23.4453C302.435 22.9141 302.661 22.4583 302.953 22.0781C303.25 21.6979 303.602 21.4062 304.008 21.2031C304.419 20.9948 304.878 20.8906 305.383 20.8906C305.914 20.8906 306.378 20.9844 306.773 21.1719C307.174 21.3542 307.513 21.6224 307.789 21.9766C308.07 22.3255 308.292 22.7474 308.453 23.2422C308.615 23.737 308.727 24.2969 308.789 24.9219V25.6406C308.732 26.2604 308.62 26.8177 308.453 27.3125C308.292 27.8073 308.07 28.2292 307.789 28.5781C307.513 28.9271 307.174 29.1953 306.773 29.3828C306.372 29.5651 305.904 29.6562 305.367 29.6562C304.872 29.6562 304.419 29.5495 304.008 29.3359C303.602 29.1224 303.25 28.8229 302.953 28.4375C302.661 28.0521 302.435 27.599 302.273 27.0781C302.117 26.5521 302.039 25.9818 302.039 25.3672ZM303.492 25.2031V25.3672C303.492 25.7891 303.534 26.1849 303.617 26.5547C303.706 26.9245 303.841 27.25 304.023 27.5312C304.206 27.8125 304.438 28.0339 304.719 28.1953C305 28.3516 305.336 28.4297 305.727 28.4297C306.206 28.4297 306.599 28.3281 306.906 28.125C307.219 27.9219 307.469 27.6536 307.656 27.3203C307.844 26.987 307.99 26.625 308.094 26.2344V24.3516C308.031 24.0651 307.94 23.7891 307.82 23.5234C307.706 23.2526 307.555 23.013 307.367 22.8047C307.185 22.5911 306.958 22.4219 306.688 22.2969C306.422 22.1719 306.107 22.1094 305.742 22.1094C305.346 22.1094 305.005 22.1927 304.719 22.3594C304.438 22.5208 304.206 22.7448 304.023 23.0312C303.841 23.3125 303.706 23.6406 303.617 24.0156C303.534 24.3854 303.492 24.7812 303.492 25.2031ZM313 21.0469V29.5H311.547V21.0469H313ZM311.438 18.8047C311.438 18.5703 311.508 18.3724 311.648 18.2109C311.794 18.0495 312.008 17.9688 312.289 17.9688C312.565 17.9688 312.776 18.0495 312.922 18.2109C313.073 18.3724 313.148 18.5703 313.148 18.8047C313.148 19.0286 313.073 19.2214 312.922 19.3828C312.776 19.5391 312.565 19.6172 312.289 19.6172C312.008 19.6172 311.794 19.5391 311.648 19.3828C311.508 19.2214 311.438 19.0286 311.438 18.8047ZM316.766 22.8516V29.5H315.32V21.0469H316.688L316.766 22.8516ZM316.422 24.9531L315.82 24.9297C315.826 24.3516 315.911 23.8177 316.078 23.3281C316.245 22.8333 316.479 22.4036 316.781 22.0391C317.083 21.6745 317.443 21.3932 317.859 21.1953C318.281 20.9922 318.747 20.8906 319.258 20.8906C319.674 20.8906 320.049 20.9479 320.383 21.0625C320.716 21.1719 321 21.349 321.234 21.5938C321.474 21.8385 321.656 22.1562 321.781 22.5469C321.906 22.9323 321.969 23.4036 321.969 23.9609V29.5H320.516V23.9453C320.516 23.5026 320.451 23.1484 320.32 22.8828C320.19 22.612 320 22.4167 319.75 22.2969C319.5 22.1719 319.193 22.1094 318.828 22.1094C318.469 22.1094 318.141 22.1849 317.844 22.3359C317.552 22.487 317.299 22.6953 317.086 22.9609C316.878 23.2266 316.714 23.5312 316.594 23.875C316.479 24.2135 316.422 24.5729 316.422 24.9531ZM329.148 28.0547V23.7031C329.148 23.3698 329.081 23.0807 328.945 22.8359C328.815 22.5859 328.617 22.3932 328.352 22.2578C328.086 22.1224 327.758 22.0547 327.367 22.0547C327.003 22.0547 326.682 22.1172 326.406 22.2422C326.135 22.3672 325.922 22.5312 325.766 22.7344C325.615 22.9375 325.539 23.1562 325.539 23.3906H324.094C324.094 23.0885 324.172 22.7891 324.328 22.4922C324.484 22.1953 324.708 21.9271 325 21.6875C325.297 21.4427 325.651 21.25 326.062 21.1094C326.479 20.9635 326.943 20.8906 327.453 20.8906C328.068 20.8906 328.609 20.9948 329.078 21.2031C329.552 21.4115 329.922 21.7266 330.188 22.1484C330.458 22.5651 330.594 23.0885 330.594 23.7188V27.6562C330.594 27.9375 330.617 28.237 330.664 28.5547C330.716 28.8724 330.792 29.1458 330.891 29.375V29.5H329.383C329.31 29.3333 329.253 29.112 329.211 28.8359C329.169 28.5547 329.148 28.2943 329.148 28.0547ZM329.398 24.375L329.414 25.3906H327.953C327.542 25.3906 327.174 25.4245 326.852 25.4922C326.529 25.5547 326.258 25.651 326.039 25.7812C325.82 25.9115 325.654 26.0755 325.539 26.2734C325.424 26.4661 325.367 26.6927 325.367 26.9531C325.367 27.2188 325.427 27.4609 325.547 27.6797C325.667 27.8984 325.846 28.0729 326.086 28.2031C326.331 28.3281 326.63 28.3906 326.984 28.3906C327.427 28.3906 327.818 28.2969 328.156 28.1094C328.495 27.9219 328.763 27.6927 328.961 27.4219C329.164 27.151 329.273 26.888 329.289 26.6328L329.906 27.3281C329.87 27.5469 329.771 27.7891 329.609 28.0547C329.448 28.3203 329.232 28.5755 328.961 28.8203C328.695 29.0599 328.378 29.2604 328.008 29.4219C327.643 29.5781 327.232 29.6562 326.773 29.6562C326.201 29.6562 325.698 29.5443 325.266 29.3203C324.839 29.0964 324.505 28.7969 324.266 28.4219C324.031 28.0417 323.914 27.6172 323.914 27.1484C323.914 26.6953 324.003 26.2969 324.18 25.9531C324.357 25.6042 324.612 25.3151 324.945 25.0859C325.279 24.8516 325.68 24.6745 326.148 24.5547C326.617 24.4349 327.141 24.375 327.719 24.375H329.398ZM336.406 21.0469V22.1562H331.836V21.0469H336.406ZM333.383 18.9922H334.828V27.4062C334.828 27.6927 334.872 27.9089 334.961 28.0547C335.049 28.2005 335.164 28.2969 335.305 28.3438C335.445 28.3906 335.596 28.4141 335.758 28.4141C335.878 28.4141 336.003 28.4036 336.133 28.3828C336.268 28.3568 336.37 28.3359 336.438 28.3203L336.445 29.5C336.331 29.5365 336.18 29.5703 335.992 29.6016C335.81 29.638 335.589 29.6562 335.328 29.6562C334.974 29.6562 334.648 29.5859 334.352 29.4453C334.055 29.3047 333.818 29.0703 333.641 28.7422C333.469 28.4089 333.383 27.9609 333.383 27.3984V18.9922ZM341.609 29.6562C341.021 29.6562 340.487 29.5573 340.008 29.3594C339.534 29.1562 339.125 28.8724 338.781 28.5078C338.443 28.1432 338.182 27.7109 338 27.2109C337.818 26.7109 337.727 26.1641 337.727 25.5703V25.2422C337.727 24.5547 337.828 23.9427 338.031 23.4062C338.234 22.8646 338.51 22.4062 338.859 22.0312C339.208 21.6562 339.604 21.3724 340.047 21.1797C340.49 20.987 340.948 20.8906 341.422 20.8906C342.026 20.8906 342.547 20.9948 342.984 21.2031C343.427 21.4115 343.789 21.7031 344.07 22.0781C344.352 22.4479 344.56 22.8854 344.695 23.3906C344.831 23.8906 344.898 24.4375 344.898 25.0312V25.6797H338.586V24.5H343.453V24.3906C343.432 24.0156 343.354 23.651 343.219 23.2969C343.089 22.9427 342.88 22.651 342.594 22.4219C342.307 22.1927 341.917 22.0781 341.422 22.0781C341.094 22.0781 340.792 22.1484 340.516 22.2891C340.24 22.4245 340.003 22.6276 339.805 22.8984C339.607 23.1693 339.453 23.5 339.344 23.8906C339.234 24.2812 339.18 24.7318 339.18 25.2422V25.5703C339.18 25.9714 339.234 26.349 339.344 26.7031C339.458 27.0521 339.622 27.3594 339.836 27.625C340.055 27.8906 340.318 28.099 340.625 28.25C340.938 28.401 341.292 28.4766 341.688 28.4766C342.198 28.4766 342.63 28.3724 342.984 28.1641C343.339 27.9557 343.648 27.6771 343.914 27.3281L344.789 28.0234C344.607 28.2995 344.375 28.5625 344.094 28.8125C343.812 29.0625 343.466 29.2656 343.055 29.4219C342.648 29.5781 342.167 29.6562 341.609 29.6562ZM351.914 27.8594V17.5H353.367V29.5H352.039L351.914 27.8594ZM346.227 25.3672V25.2031C346.227 24.5573 346.305 23.9714 346.461 23.4453C346.622 22.9141 346.849 22.4583 347.141 22.0781C347.438 21.6979 347.789 21.4062 348.195 21.2031C348.607 20.9948 349.065 20.8906 349.57 20.8906C350.102 20.8906 350.565 20.9844 350.961 21.1719C351.362 21.3542 351.701 21.6224 351.977 21.9766C352.258 22.3255 352.479 22.7474 352.641 23.2422C352.802 23.737 352.914 24.2969 352.977 24.9219V25.6406C352.919 26.2604 352.807 26.8177 352.641 27.3125C352.479 27.8073 352.258 28.2292 351.977 28.5781C351.701 28.9271 351.362 29.1953 350.961 29.3828C350.56 29.5651 350.091 29.6562 349.555 29.6562C349.06 29.6562 348.607 29.5495 348.195 29.3359C347.789 29.1224 347.438 28.8229 347.141 28.4375C346.849 28.0521 346.622 27.599 346.461 27.0781C346.305 26.5521 346.227 25.9818 346.227 25.3672ZM347.68 25.2031V25.3672C347.68 25.7891 347.721 26.1849 347.805 26.5547C347.893 26.9245 348.029 27.25 348.211 27.5312C348.393 27.8125 348.625 28.0339 348.906 28.1953C349.188 28.3516 349.523 28.4297 349.914 28.4297C350.393 28.4297 350.786 28.3281 351.094 28.125C351.406 27.9219 351.656 27.6536 351.844 27.3203C352.031 26.987 352.177 26.625 352.281 26.2344V24.3516C352.219 24.0651 352.128 23.7891 352.008 23.5234C351.893 23.2526 351.742 23.013 351.555 22.8047C351.372 22.5911 351.146 22.4219 350.875 22.2969C350.609 22.1719 350.294 22.1094 349.93 22.1094C349.534 22.1094 349.193 22.1927 348.906 22.3594C348.625 22.5208 348.393 22.7448 348.211 23.0312C348.029 23.3125 347.893 23.6406 347.805 24.0156C347.721 24.3854 347.68 24.7812 347.68 25.2031ZM357.188 17.5V29.5H355.734V17.5H357.188ZM361.078 21.0469V29.5H359.625V21.0469H361.078ZM359.516 18.8047C359.516 18.5703 359.586 18.3724 359.727 18.2109C359.872 18.0495 360.086 17.9688 360.367 17.9688C360.643 17.9688 360.854 18.0495 361 18.2109C361.151 18.3724 361.227 18.5703 361.227 18.8047C361.227 19.0286 361.151 19.2214 361 19.3828C360.854 19.5391 360.643 19.6172 360.367 19.6172C360.086 19.6172 359.872 19.5391 359.727 19.3828C359.586 19.2214 359.516 19.0286 359.516 18.8047ZM365.969 28.1953L368.281 21.0469H369.758L366.719 29.5H365.75L365.969 28.1953ZM364.039 21.0469L366.422 28.2344L366.586 29.5H365.617L362.555 21.0469H364.039ZM372.719 21.0469V29.5H371.266V21.0469H372.719ZM371.156 18.8047C371.156 18.5703 371.227 18.3724 371.367 18.2109C371.513 18.0495 371.727 17.9688 372.008 17.9688C372.284 17.9688 372.495 18.0495 372.641 18.2109C372.792 18.3724 372.867 18.5703 372.867 18.8047C372.867 19.0286 372.792 19.2214 372.641 19.3828C372.495 19.5391 372.284 19.6172 372.008 19.6172C371.727 19.6172 371.513 19.5391 371.367 19.3828C371.227 19.2214 371.156 19.0286 371.156 18.8047ZM376.484 22.8516V29.5H375.039V21.0469H376.406L376.484 22.8516ZM376.141 24.9531L375.539 24.9297C375.544 24.3516 375.63 23.8177 375.797 23.3281C375.964 22.8333 376.198 22.4036 376.5 22.0391C376.802 21.6745 377.161 21.3932 377.578 21.1953C378 20.9922 378.466 20.8906 378.977 20.8906C379.393 20.8906 379.768 20.9479 380.102 21.0625C380.435 21.1719 380.719 21.349 380.953 21.5938C381.193 21.8385 381.375 22.1562 381.5 22.5469C381.625 22.9323 381.688 23.4036 381.688 23.9609V29.5H380.234V23.9453C380.234 23.5026 380.169 23.1484 380.039 22.8828C379.909 22.612 379.719 22.4167 379.469 22.2969C379.219 22.1719 378.911 22.1094 378.547 22.1094C378.188 22.1094 377.859 22.1849 377.562 22.3359C377.271 22.487 377.018 22.6953 376.805 22.9609C376.596 23.2266 376.432 23.5312 376.312 23.875C376.198 24.2135 376.141 24.5729 376.141 24.9531ZM389.359 21.0469H390.672V29.3203C390.672 30.0651 390.521 30.7005 390.219 31.2266C389.917 31.7526 389.495 32.151 388.953 32.4219C388.417 32.6979 387.797 32.8359 387.094 32.8359C386.802 32.8359 386.458 32.7891 386.062 32.6953C385.672 32.6068 385.286 32.4531 384.906 32.2344C384.531 32.0208 384.216 31.7318 383.961 31.3672L384.719 30.5078C385.073 30.9349 385.443 31.2318 385.828 31.3984C386.219 31.5651 386.604 31.6484 386.984 31.6484C387.443 31.6484 387.839 31.5625 388.172 31.3906C388.505 31.2188 388.763 30.9635 388.945 30.625C389.133 30.2917 389.227 29.8802 389.227 29.3906V22.9062L389.359 21.0469ZM383.539 25.3672V25.2031C383.539 24.5573 383.615 23.9714 383.766 23.4453C383.922 22.9141 384.143 22.4583 384.43 22.0781C384.721 21.6979 385.073 21.4062 385.484 21.2031C385.896 20.9948 386.359 20.8906 386.875 20.8906C387.406 20.8906 387.87 20.9844 388.266 21.1719C388.667 21.3542 389.005 21.6224 389.281 21.9766C389.562 22.3255 389.784 22.7474 389.945 23.2422C390.107 23.737 390.219 24.2969 390.281 24.9219V25.6406C390.224 26.2604 390.112 26.8177 389.945 27.3125C389.784 27.8073 389.562 28.2292 389.281 28.5781C389.005 28.9271 388.667 29.1953 388.266 29.3828C387.865 29.5651 387.396 29.6562 386.859 29.6562C386.354 29.6562 385.896 29.5495 385.484 29.3359C385.078 29.1224 384.729 28.8229 384.438 28.4375C384.146 28.0521 383.922 27.599 383.766 27.0781C383.615 26.5521 383.539 25.9818 383.539 25.3672ZM384.984 25.2031V25.3672C384.984 25.7891 385.026 26.1849 385.109 26.5547C385.198 26.9245 385.331 27.25 385.508 27.5312C385.69 27.8125 385.922 28.0339 386.203 28.1953C386.484 28.3516 386.82 28.4297 387.211 28.4297C387.69 28.4297 388.086 28.3281 388.398 28.125C388.711 27.9219 388.958 27.6536 389.141 27.3203C389.328 26.987 389.474 26.625 389.578 26.2344V24.3516C389.521 24.0651 389.432 23.7891 389.312 23.5234C389.198 23.2526 389.047 23.013 388.859 22.8047C388.677 22.5911 388.451 22.4219 388.18 22.2969C387.909 22.1719 387.591 22.1094 387.227 22.1094C386.831 22.1094 386.49 22.1927 386.203 22.3594C385.922 22.5208 385.69 22.7448 385.508 23.0312C385.331 23.3125 385.198 23.6406 385.109 24.0156C385.026 24.3854 384.984 24.7812 384.984 25.2031ZM397.898 18.125L393.156 30.4766H391.914L396.664 18.125H397.898ZM404.461 28.0547V23.7031C404.461 23.3698 404.393 23.0807 404.258 22.8359C404.128 22.5859 403.93 22.3932 403.664 22.2578C403.398 22.1224 403.07 22.0547 402.68 22.0547C402.315 22.0547 401.995 22.1172 401.719 22.2422C401.448 22.3672 401.234 22.5312 401.078 22.7344C400.927 22.9375 400.852 23.1562 400.852 23.3906H399.406C399.406 23.0885 399.484 22.7891 399.641 22.4922C399.797 22.1953 400.021 21.9271 400.312 21.6875C400.609 21.4427 400.964 21.25 401.375 21.1094C401.792 20.9635 402.255 20.8906 402.766 20.8906C403.38 20.8906 403.922 20.9948 404.391 21.2031C404.865 21.4115 405.234 21.7266 405.5 22.1484C405.771 22.5651 405.906 23.0885 405.906 23.7188V27.6562C405.906 27.9375 405.93 28.237 405.977 28.5547C406.029 28.8724 406.104 29.1458 406.203 29.375V29.5H404.695C404.622 29.3333 404.565 29.112 404.523 28.8359C404.482 28.5547 404.461 28.2943 404.461 28.0547ZM404.711 24.375L404.727 25.3906H403.266C402.854 25.3906 402.487 25.4245 402.164 25.4922C401.841 25.5547 401.57 25.651 401.352 25.7812C401.133 25.9115 400.966 26.0755 400.852 26.2734C400.737 26.4661 400.68 26.6927 400.68 26.9531C400.68 27.2188 400.74 27.4609 400.859 27.6797C400.979 27.8984 401.159 28.0729 401.398 28.2031C401.643 28.3281 401.943 28.3906 402.297 28.3906C402.74 28.3906 403.13 28.2969 403.469 28.1094C403.807 27.9219 404.076 27.6927 404.273 27.4219C404.477 27.151 404.586 26.888 404.602 26.6328L405.219 27.3281C405.182 27.5469 405.083 27.7891 404.922 28.0547C404.76 28.3203 404.544 28.5755 404.273 28.8203C404.008 29.0599 403.69 29.2604 403.32 29.4219C402.956 29.5781 402.544 29.6562 402.086 29.6562C401.513 29.6562 401.01 29.5443 400.578 29.3203C400.151 29.0964 399.818 28.7969 399.578 28.4219C399.344 28.0417 399.227 27.6172 399.227 27.1484C399.227 26.6953 399.315 26.2969 399.492 25.9531C399.669 25.6042 399.924 25.3151 400.258 25.0859C400.591 24.8516 400.992 24.6745 401.461 24.5547C401.93 24.4349 402.453 24.375 403.031 24.375H404.711ZM413.102 27.2578C413.102 27.0495 413.055 26.8568 412.961 26.6797C412.872 26.4974 412.688 26.3333 412.406 26.1875C412.13 26.0365 411.714 25.9062 411.156 25.7969C410.688 25.6979 410.263 25.5807 409.883 25.4453C409.508 25.3099 409.188 25.1458 408.922 24.9531C408.661 24.7604 408.461 24.5339 408.32 24.2734C408.18 24.013 408.109 23.7083 408.109 23.3594C408.109 23.026 408.182 22.7109 408.328 22.4141C408.479 22.1172 408.69 21.8542 408.961 21.625C409.237 21.3958 409.568 21.2161 409.953 21.0859C410.339 20.9557 410.768 20.8906 411.242 20.8906C411.919 20.8906 412.497 21.0104 412.977 21.25C413.456 21.4896 413.823 21.8099 414.078 22.2109C414.333 22.6068 414.461 23.0469 414.461 23.5312H413.016C413.016 23.2969 412.945 23.0703 412.805 22.8516C412.669 22.6276 412.469 22.4427 412.203 22.2969C411.943 22.151 411.622 22.0781 411.242 22.0781C410.841 22.0781 410.516 22.1406 410.266 22.2656C410.021 22.3854 409.841 22.5391 409.727 22.7266C409.617 22.9141 409.562 23.112 409.562 23.3203C409.562 23.4766 409.589 23.6172 409.641 23.7422C409.698 23.862 409.797 23.974 409.938 24.0781C410.078 24.1771 410.276 24.2708 410.531 24.3594C410.786 24.4479 411.112 24.5365 411.508 24.625C412.201 24.7812 412.771 24.9688 413.219 25.1875C413.667 25.4062 414 25.6745 414.219 25.9922C414.438 26.3099 414.547 26.6953 414.547 27.1484C414.547 27.5182 414.469 27.8568 414.312 28.1641C414.161 28.4714 413.94 28.737 413.648 28.9609C413.362 29.1797 413.018 29.3516 412.617 29.4766C412.221 29.5964 411.776 29.6562 411.281 29.6562C410.536 29.6562 409.906 29.5234 409.391 29.2578C408.875 28.9922 408.484 28.6484 408.219 28.2266C407.953 27.8047 407.82 27.3594 407.82 26.8906H409.273C409.294 27.2865 409.409 27.6016 409.617 27.8359C409.826 28.0651 410.081 28.2292 410.383 28.3281C410.685 28.4219 410.984 28.4688 411.281 28.4688C411.677 28.4688 412.008 28.4167 412.273 28.3125C412.544 28.2083 412.75 28.0651 412.891 27.8828C413.031 27.7005 413.102 27.4922 413.102 27.2578ZM417.898 17.5V29.5H416.445V17.5H417.898ZM423.062 21.0469L419.375 24.9922L417.312 27.1328L417.195 25.5938L418.672 23.8281L421.297 21.0469H423.062ZM421.742 29.5L418.727 25.4688L419.477 24.1797L423.445 29.5H421.742ZM425.992 22.7266V29.5H424.539V21.0469H425.914L425.992 22.7266ZM425.695 24.9531L425.023 24.9297C425.029 24.3516 425.104 23.8177 425.25 23.3281C425.396 22.8333 425.612 22.4036 425.898 22.0391C426.185 21.6745 426.542 21.3932 426.969 21.1953C427.396 20.9922 427.891 20.8906 428.453 20.8906C428.849 20.8906 429.214 20.9479 429.547 21.0625C429.88 21.1719 430.169 21.3464 430.414 21.5859C430.659 21.8255 430.849 22.1328 430.984 22.5078C431.12 22.8828 431.188 23.3359 431.188 23.8672V29.5H429.742V23.9375C429.742 23.4948 429.667 23.1406 429.516 22.875C429.37 22.6094 429.161 22.4167 428.891 22.2969C428.62 22.1719 428.302 22.1094 427.938 22.1094C427.51 22.1094 427.154 22.1849 426.867 22.3359C426.581 22.487 426.352 22.6953 426.18 22.9609C426.008 23.2266 425.883 23.5312 425.805 23.875C425.732 24.2135 425.695 24.5729 425.695 24.9531ZM431.172 24.1562L430.203 24.4531C430.208 23.9896 430.284 23.5443 430.43 23.1172C430.581 22.6901 430.797 22.3099 431.078 21.9766C431.365 21.6432 431.716 21.3802 432.133 21.1875C432.549 20.9896 433.026 20.8906 433.562 20.8906C434.016 20.8906 434.417 20.9505 434.766 21.0703C435.12 21.1901 435.417 21.375 435.656 21.625C435.901 21.8698 436.086 22.1849 436.211 22.5703C436.336 22.9557 436.398 23.4141 436.398 23.9453V29.5H434.945V23.9297C434.945 23.4557 434.87 23.0885 434.719 22.8281C434.573 22.5625 434.365 22.3776 434.094 22.2734C433.828 22.1641 433.51 22.1094 433.141 22.1094C432.823 22.1094 432.542 22.1641 432.297 22.2734C432.052 22.3828 431.846 22.5339 431.68 22.7266C431.513 22.9141 431.385 23.1302 431.297 23.375C431.214 23.6198 431.172 23.8802 431.172 24.1562ZM442.094 29.6562C441.505 29.6562 440.971 29.5573 440.492 29.3594C440.018 29.1562 439.609 28.8724 439.266 28.5078C438.927 28.1432 438.667 27.7109 438.484 27.2109C438.302 26.7109 438.211 26.1641 438.211 25.5703V25.2422C438.211 24.5547 438.312 23.9427 438.516 23.4062C438.719 22.8646 438.995 22.4062 439.344 22.0312C439.693 21.6562 440.089 21.3724 440.531 21.1797C440.974 20.987 441.432 20.8906 441.906 20.8906C442.51 20.8906 443.031 20.9948 443.469 21.2031C443.911 21.4115 444.273 21.7031 444.555 22.0781C444.836 22.4479 445.044 22.8854 445.18 23.3906C445.315 23.8906 445.383 24.4375 445.383 25.0312V25.6797H439.07V24.5H443.938V24.3906C443.917 24.0156 443.839 23.651 443.703 23.2969C443.573 22.9427 443.365 22.651 443.078 22.4219C442.792 22.1927 442.401 22.0781 441.906 22.0781C441.578 22.0781 441.276 22.1484 441 22.2891C440.724 22.4245 440.487 22.6276 440.289 22.8984C440.091 23.1693 439.938 23.5 439.828 23.8906C439.719 24.2812 439.664 24.7318 439.664 25.2422V25.5703C439.664 25.9714 439.719 26.349 439.828 26.7031C439.943 27.0521 440.107 27.3594 440.32 27.625C440.539 27.8906 440.802 28.099 441.109 28.25C441.422 28.401 441.776 28.4766 442.172 28.4766C442.682 28.4766 443.115 28.3724 443.469 28.1641C443.823 27.9557 444.133 27.6771 444.398 27.3281L445.273 28.0234C445.091 28.2995 444.859 28.5625 444.578 28.8125C444.297 29.0625 443.951 29.2656 443.539 29.4219C443.133 29.5781 442.651 29.6562 442.094 29.6562ZM452.055 28.0547V23.7031C452.055 23.3698 451.987 23.0807 451.852 22.8359C451.721 22.5859 451.523 22.3932 451.258 22.2578C450.992 22.1224 450.664 22.0547 450.273 22.0547C449.909 22.0547 449.589 22.1172 449.312 22.2422C449.042 22.3672 448.828 22.5312 448.672 22.7344C448.521 22.9375 448.445 23.1562 448.445 23.3906H447C447 23.0885 447.078 22.7891 447.234 22.4922C447.391 22.1953 447.615 21.9271 447.906 21.6875C448.203 21.4427 448.557 21.25 448.969 21.1094C449.385 20.9635 449.849 20.8906 450.359 20.8906C450.974 20.8906 451.516 20.9948 451.984 21.2031C452.458 21.4115 452.828 21.7266 453.094 22.1484C453.365 22.5651 453.5 23.0885 453.5 23.7188V27.6562C453.5 27.9375 453.523 28.237 453.57 28.5547C453.622 28.8724 453.698 29.1458 453.797 29.375V29.5H452.289C452.216 29.3333 452.159 29.112 452.117 28.8359C452.076 28.5547 452.055 28.2943 452.055 28.0547ZM452.305 24.375L452.32 25.3906H450.859C450.448 25.3906 450.081 25.4245 449.758 25.4922C449.435 25.5547 449.164 25.651 448.945 25.7812C448.727 25.9115 448.56 26.0755 448.445 26.2734C448.331 26.4661 448.273 26.6927 448.273 26.9531C448.273 27.2188 448.333 27.4609 448.453 27.6797C448.573 27.8984 448.753 28.0729 448.992 28.2031C449.237 28.3281 449.536 28.3906 449.891 28.3906C450.333 28.3906 450.724 28.2969 451.062 28.1094C451.401 27.9219 451.669 27.6927 451.867 27.4219C452.07 27.151 452.18 26.888 452.195 26.6328L452.812 27.3281C452.776 27.5469 452.677 27.7891 452.516 28.0547C452.354 28.3203 452.138 28.5755 451.867 28.8203C451.602 29.0599 451.284 29.2604 450.914 29.4219C450.549 29.5781 450.138 29.6562 449.68 29.6562C449.107 29.6562 448.604 29.5443 448.172 29.3203C447.745 29.0964 447.411 28.7969 447.172 28.4219C446.938 28.0417 446.82 27.6172 446.82 27.1484C446.82 26.6953 446.909 26.2969 447.086 25.9531C447.263 25.6042 447.518 25.3151 447.852 25.0859C448.185 24.8516 448.586 24.6745 449.055 24.5547C449.523 24.4349 450.047 24.375 450.625 24.375H452.305ZM461.094 32.75V22.6719L461.219 21.0469H462.547V32.75H461.094ZM455.414 25.3672V25.2031C455.414 24.5573 455.49 23.9714 455.641 23.4453C455.792 22.9141 456.013 22.4583 456.305 22.0781C456.596 21.6979 456.948 21.4062 457.359 21.2031C457.776 20.9948 458.25 20.8906 458.781 20.8906C459.312 20.8906 459.779 20.9844 460.18 21.1719C460.586 21.3542 460.93 21.6224 461.211 21.9766C461.497 22.3255 461.724 22.7474 461.891 23.2422C462.057 23.737 462.172 24.2969 462.234 24.9219V25.6406C462.177 26.2604 462.065 26.8177 461.898 27.3125C461.732 27.8073 461.505 28.2292 461.219 28.5781C460.938 28.9271 460.591 29.1953 460.18 29.3828C459.773 29.5651 459.302 29.6562 458.766 29.6562C458.245 29.6562 457.776 29.5495 457.359 29.3359C456.948 29.1224 456.596 28.8229 456.305 28.4375C456.018 28.0521 455.797 27.599 455.641 27.0781C455.49 26.5521 455.414 25.9818 455.414 25.3672ZM456.867 25.2031V25.3672C456.867 25.7891 456.911 26.1875 457 26.5625C457.089 26.9323 457.224 27.2604 457.406 27.5469C457.594 27.8333 457.828 28.0599 458.109 28.2266C458.396 28.388 458.734 28.4688 459.125 28.4688C459.604 28.4688 460.003 28.3646 460.32 28.1562C460.643 27.9479 460.901 27.6745 461.094 27.3359C461.286 26.9922 461.435 26.625 461.539 26.2344V24.3516C461.482 24.0651 461.391 23.7865 461.266 23.5156C461.146 23.2448 460.99 23.0026 460.797 22.7891C460.604 22.5703 460.37 22.3984 460.094 22.2734C459.823 22.1432 459.505 22.0781 459.141 22.0781C458.745 22.0781 458.404 22.1615 458.117 22.3281C457.831 22.4948 457.594 22.724 457.406 23.0156C457.224 23.3021 457.089 23.6328 457 24.0078C456.911 24.3828 456.867 24.7812 456.867 25.2031ZM470.039 27.5469V21.0469H471.492V29.5H470.109L470.039 27.5469ZM470.312 25.7656L470.914 25.75C470.914 26.3125 470.854 26.8333 470.734 27.3125C470.62 27.7865 470.432 28.1979 470.172 28.5469C469.911 28.8958 469.57 29.1693 469.148 29.3672C468.727 29.5599 468.214 29.6562 467.609 29.6562C467.198 29.6562 466.82 29.5964 466.477 29.4766C466.138 29.3568 465.846 29.1719 465.602 28.9219C465.357 28.6719 465.167 28.3464 465.031 27.9453C464.901 27.5443 464.836 27.0625 464.836 26.5V21.0469H466.281V26.5156C466.281 26.8958 466.323 27.2109 466.406 27.4609C466.495 27.7057 466.612 27.901 466.758 28.0469C466.909 28.1875 467.076 28.2865 467.258 28.3438C467.445 28.401 467.638 28.4297 467.836 28.4297C468.451 28.4297 468.938 28.3125 469.297 28.0781C469.656 27.8385 469.914 27.5182 470.07 27.1172C470.232 26.7109 470.312 26.2604 470.312 25.7656ZM477.203 29.6562C476.615 29.6562 476.081 29.5573 475.602 29.3594C475.128 29.1562 474.719 28.8724 474.375 28.5078C474.036 28.1432 473.776 27.7109 473.594 27.2109C473.411 26.7109 473.32 26.1641 473.32 25.5703V25.2422C473.32 24.5547 473.422 23.9427 473.625 23.4062C473.828 22.8646 474.104 22.4062 474.453 22.0312C474.802 21.6562 475.198 21.3724 475.641 21.1797C476.083 20.987 476.542 20.8906 477.016 20.8906C477.62 20.8906 478.141 20.9948 478.578 21.2031C479.021 21.4115 479.383 21.7031 479.664 22.0781C479.945 22.4479 480.154 22.8854 480.289 23.3906C480.424 23.8906 480.492 24.4375 480.492 25.0312V25.6797H474.18V24.5H479.047V24.3906C479.026 24.0156 478.948 23.651 478.812 23.2969C478.682 22.9427 478.474 22.651 478.188 22.4219C477.901 22.1927 477.51 22.0781 477.016 22.0781C476.688 22.0781 476.385 22.1484 476.109 22.2891C475.833 22.4245 475.596 22.6276 475.398 22.8984C475.201 23.1693 475.047 23.5 474.938 23.8906C474.828 24.2812 474.773 24.7318 474.773 25.2422V25.5703C474.773 25.9714 474.828 26.349 474.938 26.7031C475.052 27.0521 475.216 27.3594 475.43 27.625C475.648 27.8906 475.911 28.099 476.219 28.25C476.531 28.401 476.885 28.4766 477.281 28.4766C477.792 28.4766 478.224 28.3724 478.578 28.1641C478.932 27.9557 479.242 27.6771 479.508 27.3281L480.383 28.0234C480.201 28.2995 479.969 28.5625 479.688 28.8125C479.406 29.0625 479.06 29.2656 478.648 29.4219C478.242 29.5781 477.76 29.6562 477.203 29.6562ZM487.102 27.2578C487.102 27.0495 487.055 26.8568 486.961 26.6797C486.872 26.4974 486.688 26.3333 486.406 26.1875C486.13 26.0365 485.714 25.9062 485.156 25.7969C484.688 25.6979 484.263 25.5807 483.883 25.4453C483.508 25.3099 483.188 25.1458 482.922 24.9531C482.661 24.7604 482.461 24.5339 482.32 24.2734C482.18 24.013 482.109 23.7083 482.109 23.3594C482.109 23.026 482.182 22.7109 482.328 22.4141C482.479 22.1172 482.69 21.8542 482.961 21.625C483.237 21.3958 483.568 21.2161 483.953 21.0859C484.339 20.9557 484.768 20.8906 485.242 20.8906C485.919 20.8906 486.497 21.0104 486.977 21.25C487.456 21.4896 487.823 21.8099 488.078 22.2109C488.333 22.6068 488.461 23.0469 488.461 23.5312H487.016C487.016 23.2969 486.945 23.0703 486.805 22.8516C486.669 22.6276 486.469 22.4427 486.203 22.2969C485.943 22.151 485.622 22.0781 485.242 22.0781C484.841 22.0781 484.516 22.1406 484.266 22.2656C484.021 22.3854 483.841 22.5391 483.727 22.7266C483.617 22.9141 483.562 23.112 483.562 23.3203C483.562 23.4766 483.589 23.6172 483.641 23.7422C483.698 23.862 483.797 23.974 483.938 24.0781C484.078 24.1771 484.276 24.2708 484.531 24.3594C484.786 24.4479 485.112 24.5365 485.508 24.625C486.201 24.7812 486.771 24.9688 487.219 25.1875C487.667 25.4062 488 25.6745 488.219 25.9922C488.438 26.3099 488.547 26.6953 488.547 27.1484C488.547 27.5182 488.469 27.8568 488.312 28.1641C488.161 28.4714 487.94 28.737 487.648 28.9609C487.362 29.1797 487.018 29.3516 486.617 29.4766C486.221 29.5964 485.776 29.6562 485.281 29.6562C484.536 29.6562 483.906 29.5234 483.391 29.2578C482.875 28.9922 482.484 28.6484 482.219 28.2266C481.953 27.8047 481.82 27.3594 481.82 26.8906H483.273C483.294 27.2865 483.409 27.6016 483.617 27.8359C483.826 28.0651 484.081 28.2292 484.383 28.3281C484.685 28.4219 484.984 28.4688 485.281 28.4688C485.677 28.4688 486.008 28.4167 486.273 28.3125C486.544 28.2083 486.75 28.0651 486.891 27.8828C487.031 27.7005 487.102 27.4922 487.102 27.2578ZM493.984 21.0469V22.1562H489.414V21.0469H493.984ZM490.961 18.9922H492.406V27.4062C492.406 27.6927 492.451 27.9089 492.539 28.0547C492.628 28.2005 492.742 28.2969 492.883 28.3438C493.023 28.3906 493.174 28.4141 493.336 28.4141C493.456 28.4141 493.581 28.4036 493.711 28.3828C493.846 28.3568 493.948 28.3359 494.016 28.3203L494.023 29.5C493.909 29.5365 493.758 29.5703 493.57 29.6016C493.388 29.638 493.167 29.6562 492.906 29.6562C492.552 29.6562 492.227 29.5859 491.93 29.4453C491.633 29.3047 491.396 29.0703 491.219 28.7422C491.047 28.4089 490.961 27.9609 490.961 27.3984V18.9922ZM497.25 21.0469V29.5H495.797V21.0469H497.25ZM495.688 18.8047C495.688 18.5703 495.758 18.3724 495.898 18.2109C496.044 18.0495 496.258 17.9688 496.539 17.9688C496.815 17.9688 497.026 18.0495 497.172 18.2109C497.323 18.3724 497.398 18.5703 497.398 18.8047C497.398 19.0286 497.323 19.2214 497.172 19.3828C497.026 19.5391 496.815 19.6172 496.539 19.6172C496.258 19.6172 496.044 19.5391 495.898 19.3828C495.758 19.2214 495.688 19.0286 495.688 18.8047ZM499.188 25.3672V25.1875C499.188 24.5781 499.276 24.013 499.453 23.4922C499.63 22.9661 499.885 22.5104 500.219 22.125C500.552 21.7344 500.956 21.4323 501.43 21.2188C501.904 21 502.435 20.8906 503.023 20.8906C503.617 20.8906 504.151 21 504.625 21.2188C505.104 21.4323 505.51 21.7344 505.844 22.125C506.182 22.5104 506.44 22.9661 506.617 23.4922C506.794 24.013 506.883 24.5781 506.883 25.1875V25.3672C506.883 25.9766 506.794 26.5417 506.617 27.0625C506.44 27.5833 506.182 28.0391 505.844 28.4297C505.51 28.8151 505.107 29.1172 504.633 29.3359C504.164 29.5495 503.633 29.6562 503.039 29.6562C502.445 29.6562 501.911 29.5495 501.438 29.3359C500.964 29.1172 500.557 28.8151 500.219 28.4297C499.885 28.0391 499.63 27.5833 499.453 27.0625C499.276 26.5417 499.188 25.9766 499.188 25.3672ZM500.633 25.1875V25.3672C500.633 25.7891 500.682 26.1875 500.781 26.5625C500.88 26.9323 501.029 27.2604 501.227 27.5469C501.43 27.8333 501.682 28.0599 501.984 28.2266C502.286 28.388 502.638 28.4688 503.039 28.4688C503.435 28.4688 503.781 28.388 504.078 28.2266C504.38 28.0599 504.63 27.8333 504.828 27.5469C505.026 27.2604 505.174 26.9323 505.273 26.5625C505.378 26.1875 505.43 25.7891 505.43 25.3672V25.1875C505.43 24.7708 505.378 24.3776 505.273 24.0078C505.174 23.6328 505.023 23.3021 504.82 23.0156C504.622 22.724 504.372 22.4948 504.07 22.3281C503.773 22.1615 503.424 22.0781 503.023 22.0781C502.628 22.0781 502.279 22.1615 501.977 22.3281C501.68 22.4948 501.43 22.724 501.227 23.0156C501.029 23.3021 500.88 23.6328 500.781 24.0078C500.682 24.3776 500.633 24.7708 500.633 25.1875ZM510.141 22.8516V29.5H508.695V21.0469H510.062L510.141 22.8516ZM509.797 24.9531L509.195 24.9297C509.201 24.3516 509.286 23.8177 509.453 23.3281C509.62 22.8333 509.854 22.4036 510.156 22.0391C510.458 21.6745 510.818 21.3932 511.234 21.1953C511.656 20.9922 512.122 20.8906 512.633 20.8906C513.049 20.8906 513.424 20.9479 513.758 21.0625C514.091 21.1719 514.375 21.349 514.609 21.5938C514.849 21.8385 515.031 22.1562 515.156 22.5469C515.281 22.9323 515.344 23.4036 515.344 23.9609V29.5H513.891V23.9453C513.891 23.5026 513.826 23.1484 513.695 22.8828C513.565 22.612 513.375 22.4167 513.125 22.2969C512.875 22.1719 512.568 22.1094 512.203 22.1094C511.844 22.1094 511.516 22.1849 511.219 22.3359C510.927 22.487 510.674 22.6953 510.461 22.9609C510.253 23.2266 510.089 23.5312 509.969 23.875C509.854 24.2135 509.797 24.5729 509.797 24.9531ZM522.57 18.125L517.828 30.4766H516.586L521.336 18.125H522.57ZM525.586 22.7266V29.5H524.133V21.0469H525.508L525.586 22.7266ZM525.289 24.9531L524.617 24.9297C524.622 24.3516 524.698 23.8177 524.844 23.3281C524.99 22.8333 525.206 22.4036 525.492 22.0391C525.779 21.6745 526.135 21.3932 526.562 21.1953C526.99 20.9922 527.484 20.8906 528.047 20.8906C528.443 20.8906 528.807 20.9479 529.141 21.0625C529.474 21.1719 529.763 21.3464 530.008 21.5859C530.253 21.8255 530.443 22.1328 530.578 22.5078C530.714 22.8828 530.781 23.3359 530.781 23.8672V29.5H529.336V23.9375C529.336 23.4948 529.26 23.1406 529.109 22.875C528.964 22.6094 528.755 22.4167 528.484 22.2969C528.214 22.1719 527.896 22.1094 527.531 22.1094C527.104 22.1094 526.747 22.1849 526.461 22.3359C526.174 22.487 525.945 22.6953 525.773 22.9609C525.602 23.2266 525.477 23.5312 525.398 23.875C525.326 24.2135 525.289 24.5729 525.289 24.9531ZM530.766 24.1562L529.797 24.4531C529.802 23.9896 529.878 23.5443 530.023 23.1172C530.174 22.6901 530.391 22.3099 530.672 21.9766C530.958 21.6432 531.31 21.3802 531.727 21.1875C532.143 20.9896 532.62 20.8906 533.156 20.8906C533.609 20.8906 534.01 20.9505 534.359 21.0703C534.714 21.1901 535.01 21.375 535.25 21.625C535.495 21.8698 535.68 22.1849 535.805 22.5703C535.93 22.9557 535.992 23.4141 535.992 23.9453V29.5H534.539V23.9297C534.539 23.4557 534.464 23.0885 534.312 22.8281C534.167 22.5625 533.958 22.3776 533.688 22.2734C533.422 22.1641 533.104 22.1094 532.734 22.1094C532.417 22.1094 532.135 22.1641 531.891 22.2734C531.646 22.3828 531.44 22.5339 531.273 22.7266C531.107 22.9141 530.979 23.1302 530.891 23.375C530.807 23.6198 530.766 23.8802 530.766 24.1562ZM543.164 28.0547V23.7031C543.164 23.3698 543.096 23.0807 542.961 22.8359C542.831 22.5859 542.633 22.3932 542.367 22.2578C542.102 22.1224 541.773 22.0547 541.383 22.0547C541.018 22.0547 540.698 22.1172 540.422 22.2422C540.151 22.3672 539.938 22.5312 539.781 22.7344C539.63 22.9375 539.555 23.1562 539.555 23.3906H538.109C538.109 23.0885 538.188 22.7891 538.344 22.4922C538.5 22.1953 538.724 21.9271 539.016 21.6875C539.312 21.4427 539.667 21.25 540.078 21.1094C540.495 20.9635 540.958 20.8906 541.469 20.8906C542.083 20.8906 542.625 20.9948 543.094 21.2031C543.568 21.4115 543.938 21.7266 544.203 22.1484C544.474 22.5651 544.609 23.0885 544.609 23.7188V27.6562C544.609 27.9375 544.633 28.237 544.68 28.5547C544.732 28.8724 544.807 29.1458 544.906 29.375V29.5H543.398C543.326 29.3333 543.268 29.112 543.227 28.8359C543.185 28.5547 543.164 28.2943 543.164 28.0547ZM543.414 24.375L543.43 25.3906H541.969C541.557 25.3906 541.19 25.4245 540.867 25.4922C540.544 25.5547 540.273 25.651 540.055 25.7812C539.836 25.9115 539.669 26.0755 539.555 26.2734C539.44 26.4661 539.383 26.6927 539.383 26.9531C539.383 27.2188 539.443 27.4609 539.562 27.6797C539.682 27.8984 539.862 28.0729 540.102 28.2031C540.346 28.3281 540.646 28.3906 541 28.3906C541.443 28.3906 541.833 28.2969 542.172 28.1094C542.51 27.9219 542.779 27.6927 542.977 27.4219C543.18 27.151 543.289 26.888 543.305 26.6328L543.922 27.3281C543.885 27.5469 543.786 27.7891 543.625 28.0547C543.464 28.3203 543.247 28.5755 542.977 28.8203C542.711 29.0599 542.393 29.2604 542.023 29.4219C541.659 29.5781 541.247 29.6562 540.789 29.6562C540.216 29.6562 539.714 29.5443 539.281 29.3203C538.854 29.0964 538.521 28.7969 538.281 28.4219C538.047 28.0417 537.93 27.6172 537.93 27.1484C537.93 26.6953 538.018 26.2969 538.195 25.9531C538.372 25.6042 538.628 25.3151 538.961 25.0859C539.294 24.8516 539.695 24.6745 540.164 24.5547C540.633 24.4349 541.156 24.375 541.734 24.375H543.414ZM548.453 21.0469V29.5H547V21.0469H548.453ZM546.891 18.8047C546.891 18.5703 546.961 18.3724 547.102 18.2109C547.247 18.0495 547.461 17.9688 547.742 17.9688C548.018 17.9688 548.229 18.0495 548.375 18.2109C548.526 18.3724 548.602 18.5703 548.602 18.8047C548.602 19.0286 548.526 19.2214 548.375 19.3828C548.229 19.5391 548.018 19.6172 547.742 19.6172C547.461 19.6172 547.247 19.5391 547.102 19.3828C546.961 19.2214 546.891 19.0286 546.891 18.8047ZM552.344 17.5V29.5H550.891V17.5H552.344Z" fill="#202124"/>
<path d="M1428.89 21.4657L1424.46 21.0807L1422.73 17.0021C1422.41 16.2597 1421.35 16.2597 1421.04 17.0021L1419.31 21.0899L1414.88 21.4657C1414.07 21.5298 1413.74 22.538 1414.36 23.0696L1417.72 25.9843L1416.71 30.3103C1416.53 31.0986 1417.38 31.7218 1418.08 31.3002L1421.88 29.0088L1425.69 31.3094C1426.38 31.731 1427.23 31.1077 1427.05 30.3195L1426.04 25.9843L1429.41 23.0696C1430.02 22.538 1429.7 21.5298 1428.89 21.4657V21.4657ZM1421.88 27.2949L1418.44 29.3755L1419.35 25.4527L1416.31 22.813L1420.32 22.4647L1421.88 18.771L1423.45 22.4739L1427.46 22.8222L1424.42 25.4618L1425.34 29.3846L1421.88 27.2949Z" fill="#535353"/>
<path d="M1478.92 22.8584H1477.86V18.1448H1473.14V17.0763C1473.14 16.0472 1472.4 15.1123 1471.38 15.0102C1470.2 14.8924 1469.21 15.8115 1469.21 16.9663V18.1448H1464.51V22.7012H1465.6C1466.63 22.7012 1467.56 23.3926 1467.76 24.3982C1468.02 25.7494 1466.99 26.9435 1465.68 26.9435H1464.5V31.5H1469.06V30.4002C1469.06 29.371 1469.75 28.4361 1470.75 28.2397C1472.1 27.9805 1473.3 29.0096 1473.3 30.3216V31.5H1477.86V26.7864H1479.03C1480.19 26.7864 1481.11 25.7965 1480.99 24.6181C1480.89 23.5968 1479.94 22.8584 1478.92 22.8584V22.8584Z" fill="#535353"/>
<path d="M1508.38 20C1509.48 20 1510.38 19.1 1510.38 18C1510.38 16.9 1509.48 16 1508.38 16C1507.27 16 1506.38 16.9 1506.38 18C1506.38 19.1 1507.27 20 1508.38 20ZM1508.38 22C1507.27 22 1506.38 22.9 1506.38 24C1506.38 25.1 1507.27 26 1508.38 26C1509.48 26 1510.38 25.1 1510.38 24C1510.38 22.9 1509.48 22 1508.38 22ZM1508.38 28C1507.27 28 1506.38 28.9 1506.38 30C1506.38 31.1 1507.27 32 1508.38 32C1509.48 32 1510.38 31.1 1510.38 30C1510.38 28.9 1509.48 28 1508.38 28Z" fill="#535353"/>
</svg>
