<svg width="229" height="64" viewBox="0 0 229 64" fill="none" xmlns="http://www.w3.org/2000/svg">
<rect width="229" height="64" rx="12.8" fill="#D0B3D6"/>
<rect x="13" y="17.6016" width="28.8" height="28.8" rx="6.4" fill="#5C3262"/>
<path d="M33.6899 37.2684C33.6669 37.4171 33.5424 37.5213 33.4119 37.5011C33.2814 37.4809 33.1943 37.344 33.2173 37.1952C33.2404 37.0465 33.3648 36.9422 33.4953 36.9624C33.6258 36.9826 33.7129 37.1196 33.6899 37.2684Z" fill="white"/>
<path d="M34.184 36.4037C34.161 36.5524 34.0365 36.6566 33.906 36.6364C33.7755 36.6162 33.6884 36.4793 33.7115 36.3305C33.7345 36.1818 33.8589 36.0775 33.9894 36.0977C34.1199 36.1179 34.207 36.2549 34.184 36.4037Z" fill="white"/>
<path d="M34.5958 35.5389C34.5727 35.6877 34.4483 35.7919 34.3178 35.7717C34.1873 35.7515 34.1002 35.6146 34.1232 35.4658C34.1462 35.317 34.2707 35.2128 34.4012 35.233C34.5317 35.2532 34.6188 35.3902 34.5958 35.5389Z" fill="white"/>
<path d="M34.884 34.5919C34.861 34.7406 34.7365 34.8449 34.606 34.8247C34.4755 34.8045 34.3884 34.6675 34.4115 34.5187C34.4345 34.37 34.5589 34.2658 34.6894 34.286C34.8199 34.3062 34.907 34.4431 34.884 34.5919Z" fill="white"/>
<path d="M35.0899 33.6448C35.0669 33.7936 34.9424 33.8978 34.8119 33.8776C34.6814 33.8574 34.5943 33.7204 34.6173 33.5717C34.6404 33.4229 34.7648 33.3187 34.8953 33.3389C35.0258 33.3591 35.1129 33.4961 35.0899 33.6448Z" fill="white"/>
<path d="M35.1722 32.6978C35.1492 32.8465 35.0248 32.9507 34.8943 32.9305C34.7638 32.9103 34.6767 32.7734 34.6997 32.6246C34.7227 32.4759 34.8472 32.3717 34.9777 32.3919C35.1081 32.4121 35.1953 32.549 35.1722 32.6978Z" fill="white"/>
<path d="M35.2134 31.7095C35.1904 31.8583 35.0659 31.9625 34.9354 31.9423C34.805 31.9221 34.7178 31.7851 34.7409 31.6364C34.7639 31.4876 34.8883 31.3834 35.0188 31.4036C35.1493 31.4238 35.2364 31.5608 35.2134 31.7095Z" fill="white"/>
<path d="M35.1311 30.7625C35.108 30.9112 34.9836 31.0154 34.8531 30.9952C34.7226 30.9751 34.6355 30.8381 34.6585 30.6893C34.6815 30.5406 34.806 30.4364 34.9365 30.4566C35.067 30.4768 35.1541 30.6137 35.1311 30.7625Z" fill="white"/>
<path d="M34.9252 29.8566C34.9021 30.0053 34.7777 30.1096 34.6472 30.0894C34.5167 30.0692 34.4296 29.9322 34.4526 29.7835C34.4757 29.6347 34.6001 29.5305 34.7306 29.5507C34.8611 29.5709 34.9482 29.7078 34.9252 29.8566Z" fill="white"/>
<path d="M34.6369 28.9507C34.6139 29.0995 34.4895 29.2037 34.359 29.1835C34.2285 29.1633 34.1414 29.0263 34.1644 28.8776C34.1874 28.7288 34.3119 28.6246 34.4424 28.6448C34.5728 28.665 34.66 28.802 34.6369 28.9507Z" fill="white"/>
<path d="M34.2663 28.1272C34.2433 28.2759 34.1189 28.3802 33.9884 28.36C33.8579 28.3398 33.7708 28.2028 33.7938 28.054C33.8168 27.9053 33.9413 27.8011 34.0718 27.8213C34.2023 27.8415 34.2894 27.9784 34.2663 28.1272Z" fill="white"/>
<path d="M33.8134 27.3448C33.7904 27.4936 33.6659 27.5978 33.5354 27.5776C33.405 27.5574 33.3178 27.4204 33.3409 27.2717C33.3639 27.1229 33.4883 27.0187 33.6188 27.0389C33.7493 27.0591 33.8364 27.1961 33.8134 27.3448Z" fill="white"/>
<path d="M33.2781 26.6448C33.2551 26.7936 33.1306 26.8978 33.0002 26.8776C32.8697 26.8574 32.7825 26.7204 32.8056 26.5717C32.8286 26.4229 32.953 26.3187 33.0835 26.3389C33.214 26.3591 33.3011 26.4961 33.2781 26.6448Z" fill="white"/>
<path d="M32.6605 26.0272C32.6374 26.1759 32.513 26.2802 32.3825 26.26C32.252 26.2398 32.1649 26.1028 32.1879 25.954C32.211 25.8053 32.3354 25.7011 32.4659 25.7213C32.5964 25.7415 32.6835 25.8784 32.6605 26.0272Z" fill="white"/>
<path d="M31.9605 25.4919C31.9374 25.6406 31.813 25.7449 31.6825 25.7247C31.552 25.7045 31.4649 25.5675 31.4879 25.4187C31.511 25.27 31.6354 25.1658 31.7659 25.186C31.8964 25.2062 31.9835 25.3431 31.9605 25.4919Z" fill="white"/>
<path d="M31.2193 25.0389C31.1963 25.1877 31.0718 25.2919 30.9413 25.2717C30.8108 25.2515 30.7237 25.1146 30.7468 24.9658C30.7698 24.817 30.8942 24.7128 31.0247 24.733C31.1552 24.7532 31.2423 24.8902 31.2193 25.0389Z" fill="white"/>
<path d="M30.4369 24.7095C30.4139 24.8583 30.2895 24.9625 30.159 24.9423C30.0285 24.9221 29.9414 24.7851 29.9644 24.6364C29.9874 24.4876 30.1119 24.3834 30.2424 24.4036C30.3728 24.4238 30.46 24.5608 30.4369 24.7095Z" fill="white"/>
<path d="M29.6134 24.5037C29.5904 24.6524 29.4659 24.7566 29.3354 24.7364C29.205 24.7162 29.1178 24.5793 29.1409 24.4305C29.1639 24.2818 29.2883 24.1775 29.4188 24.1977C29.5493 24.2179 29.6364 24.3549 29.6134 24.5037Z" fill="white"/>
<path d="M28.7487 24.3801C28.7257 24.5289 28.6012 24.6331 28.4707 24.6129C28.3403 24.5927 28.2531 24.4557 28.2762 24.307C28.2992 24.1582 28.4236 24.054 28.5541 24.0742C28.6846 24.0944 28.7717 24.2314 28.7487 24.3801Z" fill="white"/>
<path d="M27.884 24.3801C27.861 24.5289 27.7365 24.6331 27.606 24.6129C27.4755 24.5927 27.3884 24.4557 27.4115 24.307C27.4345 24.1582 27.5589 24.054 27.6894 24.0742C27.8199 24.0944 27.907 24.2314 27.884 24.3801Z" fill="white"/>
<path d="M27.0605 24.4625C27.0374 24.6112 26.913 24.7154 26.7825 24.6952C26.652 24.6751 26.5649 24.5381 26.5879 24.3893C26.611 24.2406 26.7354 24.1364 26.8659 24.1566C26.9964 24.1768 27.0835 24.3137 27.0605 24.4625Z" fill="white"/>
<path d="M26.1958 24.6684C26.1727 24.8171 26.0483 24.9213 25.9178 24.9011C25.7873 24.8809 25.7002 24.744 25.7232 24.5952C25.7462 24.4465 25.8707 24.3422 26.0012 24.3624C26.1317 24.3826 26.2188 24.5196 26.1958 24.6684Z" fill="white"/>
<path d="M25.3722 24.9978C25.3492 25.1465 25.2248 25.2507 25.0943 25.2305C24.9638 25.2103 24.8767 25.0734 24.8997 24.9246C24.9227 24.7759 25.0472 24.6717 25.1777 24.6919C25.3081 24.7121 25.3953 24.849 25.3722 24.9978Z" fill="white"/>
<path d="M24.5899 25.4095C24.5669 25.5583 24.4424 25.6625 24.3119 25.6423C24.1814 25.6221 24.0943 25.4851 24.1173 25.3364C24.1404 25.1876 24.2648 25.0834 24.3953 25.1036C24.5258 25.1238 24.6129 25.2608 24.5899 25.4095Z" fill="white"/>
<path d="M23.8075 25.9448C23.7845 26.0936 23.6601 26.1978 23.5296 26.1776C23.3991 26.1574 23.312 26.0204 23.335 25.8717C23.358 25.7229 23.4825 25.6187 23.6129 25.6389C23.7434 25.6591 23.8306 25.7961 23.8075 25.9448Z" fill="white"/>
<path d="M23.1487 26.5625C23.1257 26.7112 23.0012 26.8154 22.8707 26.7952C22.7403 26.7751 22.6531 26.6381 22.6762 26.4893C22.6992 26.3406 22.8236 26.2364 22.9541 26.2566C23.0846 26.2768 23.1717 26.4137 23.1487 26.5625Z" fill="white"/>
<path d="M22.4899 27.2625C22.4669 27.4112 22.3424 27.5154 22.2119 27.4952C22.0814 27.4751 21.9943 27.3381 22.0173 27.1893C22.0404 27.0406 22.1648 26.9364 22.2953 26.9566C22.4258 26.9768 22.5129 27.1137 22.4899 27.2625Z" fill="white"/>
<path d="M21.9134 28.0448C21.8904 28.1936 21.7659 28.2978 21.6354 28.2776C21.505 28.2574 21.4178 28.1204 21.4409 27.9717C21.4639 27.8229 21.5883 27.7187 21.7188 27.7389C21.8493 27.7591 21.9364 27.8961 21.9134 28.0448Z" fill="white"/>
<path d="M21.4605 28.9095C21.4374 29.0583 21.313 29.1625 21.1825 29.1423C21.052 29.1221 20.9649 28.9851 20.9879 28.8364C21.011 28.6876 21.1354 28.5834 21.2659 28.6036C21.3964 28.6238 21.4835 28.7608 21.4605 28.9095Z" fill="white"/>
<path d="M21.0899 29.7742C21.0669 29.923 20.9424 30.0272 20.8119 30.007C20.6814 29.9868 20.5943 29.8499 20.6173 29.7011C20.6404 29.5523 20.7648 29.4481 20.8953 29.4683C21.0258 29.4885 21.1129 29.6255 21.0899 29.7742Z" fill="white"/>
<path d="M20.7605 30.6801C20.7374 30.8289 20.613 30.9331 20.4825 30.9129C20.352 30.8927 20.2649 30.7557 20.2879 30.607C20.311 30.4582 20.4354 30.354 20.5659 30.3742C20.6964 30.3944 20.7835 30.5314 20.7605 30.6801Z" fill="white"/>
<path d="M20.5546 31.6272C20.5316 31.7759 20.4071 31.8802 20.2766 31.86C20.1461 31.8398 20.059 31.7028 20.082 31.554C20.1051 31.4053 20.2295 31.3011 20.36 31.3213C20.4905 31.3415 20.5776 31.4784 20.5546 31.6272Z" fill="white"/>
<path d="M20.4311 32.6154C20.408 32.7642 20.2836 32.8684 20.1531 32.8482C20.0226 32.828 19.9355 32.691 19.9585 32.5423C19.9815 32.3935 20.106 32.2893 20.2365 32.3095C20.367 32.3297 20.4541 32.4667 20.4311 32.6154Z" fill="white"/>
<path d="M20.4311 33.6037C20.408 33.7524 20.2836 33.8566 20.1531 33.8364C20.0226 33.8162 19.9355 33.6793 19.9585 33.5305C19.9815 33.3818 20.106 33.2775 20.2365 33.2977C20.367 33.3179 20.4541 33.4549 20.4311 33.6037Z" fill="white"/>
<path d="M20.5134 34.5507C20.4904 34.6995 20.3659 34.8037 20.2354 34.7835C20.105 34.7633 20.0178 34.6263 20.0409 34.4776C20.0639 34.3288 20.1883 34.2246 20.3188 34.2448C20.4493 34.265 20.5364 34.402 20.5134 34.5507Z" fill="white"/>
<path d="M20.7193 35.4978C20.6963 35.6465 20.5718 35.7507 20.4413 35.7305C20.3108 35.7103 20.2237 35.5734 20.2468 35.4246C20.2698 35.2759 20.3942 35.1717 20.5247 35.1919C20.6552 35.2121 20.7423 35.349 20.7193 35.4978Z" fill="white"/>
<path d="M21.0075 36.3213C20.9845 36.4701 20.8601 36.5743 20.7296 36.5541C20.5991 36.5339 20.512 36.3969 20.535 36.2482C20.558 36.0994 20.6825 35.9952 20.8129 36.0154C20.9434 36.0356 21.0306 36.1725 21.0075 36.3213Z" fill="white"/>
<path d="M21.3781 37.186C21.3551 37.3348 21.2306 37.439 21.1002 37.4188C20.9697 37.3986 20.8825 37.2616 20.9056 37.1129C20.9286 36.9641 21.053 36.8599 21.1835 36.8801C21.314 36.9003 21.4011 37.0373 21.3781 37.186Z" fill="white"/>
<path d="M21.8311 37.9684C21.808 38.1171 21.6836 38.2213 21.5531 38.2011C21.4226 38.1809 21.3355 38.044 21.3585 37.8952C21.3815 37.7465 21.506 37.6422 21.6365 37.6624C21.767 37.6826 21.8541 37.8196 21.8311 37.9684Z" fill="white"/>
<path d="M22.3663 38.6684C22.3433 38.8171 22.2189 38.9213 22.0884 38.9011C21.9579 38.8809 21.8708 38.744 21.8938 38.5952C21.9168 38.4465 22.0413 38.3422 22.1718 38.3624C22.3023 38.3826 22.3894 38.5196 22.3663 38.6684Z" fill="white"/>
<path d="M23.0252 39.286C23.0021 39.4348 22.8777 39.539 22.7472 39.5188C22.6167 39.4986 22.5296 39.3616 22.5526 39.2129C22.5757 39.0641 22.7001 38.9599 22.8306 38.9801C22.9611 39.0003 23.0482 39.1373 23.0252 39.286Z" fill="white"/>
<path d="M23.684 39.8213C23.661 39.9701 23.5365 40.0743 23.406 40.0541C23.2755 40.0339 23.1884 39.8969 23.2115 39.7482C23.2345 39.5994 23.3589 39.4952 23.4894 39.5154C23.6199 39.5356 23.707 39.6725 23.684 39.8213Z" fill="white"/>
<path d="M24.4252 40.2742C24.4021 40.423 24.2777 40.5272 24.1472 40.507C24.0167 40.4868 23.9296 40.3499 23.9526 40.2011C23.9757 40.0523 24.1001 39.9481 24.2306 39.9683C24.3611 39.9885 24.4482 40.1255 24.4252 40.2742Z" fill="white"/>
<path d="M25.2075 40.6037C25.1845 40.7524 25.0601 40.8566 24.9296 40.8364C24.7991 40.8162 24.712 40.6793 24.735 40.5305C24.758 40.3818 24.8825 40.2775 25.0129 40.2977C25.1434 40.3179 25.2306 40.4549 25.2075 40.6037Z" fill="white"/>
<path d="M26.0311 40.8095C26.008 40.9583 25.8836 41.0625 25.7531 41.0423C25.6226 41.0221 25.5355 40.8851 25.5585 40.7364C25.5815 40.5876 25.706 40.4834 25.8365 40.5036C25.967 40.5238 26.0541 40.6608 26.0311 40.8095Z" fill="white"/>
<path d="M26.8958 40.9331C26.8727 41.0818 26.7483 41.186 26.6178 41.1658C26.4873 41.1456 26.4002 41.0087 26.4232 40.8599C26.4462 40.7112 26.5707 40.607 26.7012 40.6271C26.8317 40.6473 26.9188 40.7843 26.8958 40.9331Z" fill="white"/>
<path d="M27.7193 40.9331C27.6963 41.0818 27.5718 41.186 27.4413 41.1658C27.3108 41.1456 27.2237 41.0087 27.2468 40.8599C27.2698 40.7112 27.3942 40.607 27.5247 40.6271C27.6552 40.6473 27.7423 40.7843 27.7193 40.9331Z" fill="white"/>
<path d="M28.584 40.8507C28.561 40.9995 28.4365 41.1037 28.306 41.0835C28.1755 41.0633 28.0884 40.9263 28.1115 40.7776C28.1345 40.6288 28.2589 40.5246 28.3894 40.5448C28.5199 40.565 28.607 40.702 28.584 40.8507Z" fill="white"/>
<path d="M29.4487 40.6448C29.4257 40.7936 29.3012 40.8978 29.1707 40.8776C29.0403 40.8574 28.9531 40.7204 28.9762 40.5717C28.9992 40.4229 29.1236 40.3187 29.2541 40.3389C29.3846 40.3591 29.4717 40.4961 29.4487 40.6448Z" fill="white"/>
<path d="M30.2722 40.3154C30.2492 40.4642 30.1248 40.5684 29.9943 40.5482C29.8638 40.528 29.7767 40.391 29.7997 40.2423C29.8227 40.0935 29.9472 39.9893 30.0777 40.0095C30.2081 40.0297 30.2953 40.1667 30.2722 40.3154Z" fill="white"/>
<path d="M31.0546 39.8625C31.0316 40.0112 30.9071 40.1154 30.7766 40.0953C30.6461 40.0751 30.559 39.9381 30.582 39.7893C30.6051 39.6406 30.7295 39.5364 30.86 39.5566C30.9905 39.5768 31.0776 39.7137 31.0546 39.8625Z" fill="white"/>
<path d="M31.7958 39.3272C31.7727 39.4759 31.6483 39.5802 31.5178 39.56C31.3873 39.5398 31.3002 39.4028 31.3232 39.254C31.3462 39.1053 31.4707 39.0011 31.6012 39.0213C31.7317 39.0415 31.8188 39.1784 31.7958 39.3272Z" fill="white"/>
<path d="M32.4958 38.7095C32.4727 38.8583 32.3483 38.9625 32.2178 38.9423C32.0873 38.9221 32.0002 38.7851 32.0232 38.6364C32.0462 38.4876 32.1707 38.3834 32.3012 38.4036C32.4317 38.4238 32.5188 38.5608 32.4958 38.7095Z" fill="white"/>
<path d="M33.1546 38.0507C33.1316 38.1995 33.0071 38.3037 32.8766 38.2835C32.7461 38.2633 32.659 38.1263 32.682 37.9776C32.7051 37.8288 32.8295 37.7246 32.96 37.7448C33.0905 37.765 33.1776 37.902 33.1546 38.0507Z" fill="white"/>
<path d="M25.1463 41.6818C25.1463 41.8751 24.9896 42.0318 24.7963 42.0318C24.603 42.0318 24.4463 41.8751 24.4463 41.6818C24.4463 41.4885 24.603 41.3318 24.7963 41.3318C24.9896 41.3318 25.1463 41.4885 25.1463 41.6818Z" fill="white"/>
<path d="M26.2992 41.9288C26.2992 42.1221 26.1425 42.2788 25.9492 42.2788C25.7559 42.2788 25.5992 42.1221 25.5992 41.9288C25.5992 41.7355 25.7559 41.5788 25.9492 41.5788C26.1425 41.5788 26.2992 41.7355 26.2992 41.9288Z" fill="white"/>
<path d="M27.4522 42.0523C27.4522 42.2456 27.2955 42.4023 27.1022 42.4023C26.9089 42.4023 26.7522 42.2456 26.7522 42.0523C26.7522 41.859 26.9089 41.7023 27.1022 41.7023C27.2955 41.7023 27.4522 41.859 27.4522 42.0523Z" fill="white"/>
<path d="M28.6875 42.0523C28.6875 42.2456 28.5308 42.4023 28.3375 42.4023C28.1442 42.4023 27.9875 42.2456 27.9875 42.0523C27.9875 41.859 28.1442 41.7023 28.3375 41.7023C28.5308 41.7023 28.6875 41.859 28.6875 42.0523Z" fill="white"/>
<path d="M29.8404 41.9288C29.8404 42.1221 29.6837 42.2788 29.4904 42.2788C29.2971 42.2788 29.1404 42.1221 29.1404 41.9288C29.1404 41.7355 29.2971 41.5788 29.4904 41.5788C29.6837 41.5788 29.8404 41.7355 29.8404 41.9288Z" fill="white"/>
<path d="M30.9933 41.6818C30.9933 41.8751 30.8366 42.0318 30.6433 42.0318C30.45 42.0318 30.2933 41.8751 30.2933 41.6818C30.2933 41.4885 30.45 41.3318 30.6433 41.3318C30.8366 41.3318 30.9933 41.4885 30.9933 41.6818Z" fill="white"/>
<path d="M32.1051 41.2288C32.1051 41.4221 31.9484 41.5788 31.7551 41.5788C31.5618 41.5788 31.4051 41.4221 31.4051 41.2288C31.4051 41.0355 31.5618 40.8788 31.7551 40.8788C31.9484 40.8788 32.1051 41.0355 32.1051 41.2288Z" fill="white"/>
<path d="M33.1757 40.7347C33.1757 40.928 33.019 41.0847 32.8257 41.0847C32.6324 41.0847 32.4757 40.928 32.4757 40.7347C32.4757 40.5414 32.6324 40.3847 32.8257 40.3847C33.019 40.3847 33.1757 40.5414 33.1757 40.7347Z" fill="white"/>
<path d="M34.1639 40.0347C34.1639 40.228 34.0072 40.3847 33.8139 40.3847C33.6206 40.3847 33.4639 40.228 33.4639 40.0347C33.4639 39.8414 33.6206 39.6847 33.8139 39.6847C34.0072 39.6847 34.1639 39.8414 34.1639 40.0347Z" fill="white"/>
<path d="M35.0698 39.3347C35.0698 39.528 34.9131 39.6847 34.7198 39.6847C34.5265 39.6847 34.3698 39.528 34.3698 39.3347C34.3698 39.1414 34.5265 38.9847 34.7198 38.9847C34.9131 38.9847 35.0698 39.1414 35.0698 39.3347Z" fill="white"/>
<path d="M35.8933 38.4288C35.8933 38.6221 35.7366 38.7788 35.5433 38.7788C35.35 38.7788 35.1933 38.6221 35.1933 38.4288C35.1933 38.2355 35.35 38.0788 35.5433 38.0788C35.7366 38.0788 35.8933 38.2355 35.8933 38.4288Z" fill="white"/>
<path d="M36.5933 37.4818C36.5933 37.6751 36.4366 37.8318 36.2433 37.8318C36.05 37.8318 35.8933 37.6751 35.8933 37.4818C35.8933 37.2885 36.05 37.1318 36.2433 37.1318C36.4366 37.1318 36.5933 37.2885 36.5933 37.4818Z" fill="white"/>
<path d="M37.1698 36.4523C37.1698 36.6456 37.0131 36.8023 36.8198 36.8023C36.6265 36.8023 36.4698 36.6456 36.4698 36.4523C36.4698 36.259 36.6265 36.1023 36.8198 36.1023C37.0131 36.1023 37.1698 36.259 37.1698 36.4523Z" fill="white"/>
<path d="M37.6639 35.3818C37.6639 35.5751 37.5072 35.7318 37.3139 35.7318C37.1206 35.7318 36.9639 35.5751 36.9639 35.3818C36.9639 35.1885 37.1206 35.0318 37.3139 35.0318C37.5072 35.0318 37.6639 35.1885 37.6639 35.3818Z" fill="white"/>
<path d="M37.9933 34.27C37.9933 34.4633 37.8366 34.62 37.6433 34.62C37.45 34.62 37.2933 34.4633 37.2933 34.27C37.2933 34.0767 37.45 33.92 37.6433 33.92C37.8366 33.92 37.9933 34.0767 37.9933 34.27Z" fill="white"/>
<path d="M38.1992 33.0759C38.1992 33.2692 38.0425 33.4259 37.8492 33.4259C37.6559 33.4259 37.4992 33.2692 37.4992 33.0759C37.4992 32.8826 37.6559 32.7259 37.8492 32.7259C38.0425 32.7259 38.1992 32.8826 38.1992 33.0759Z" fill="white"/>
<path d="M38.1992 31.8818C38.1992 32.0751 38.0425 32.2318 37.8492 32.2318C37.6559 32.2318 37.4992 32.0751 37.4992 31.8818C37.4992 31.6885 37.6559 31.5318 37.8492 31.5318C38.0425 31.5318 38.1992 31.6885 38.1992 31.8818Z" fill="white"/>
<path d="M38.1992 30.6876C38.1992 30.8809 38.0425 31.0376 37.8492 31.0376C37.6559 31.0376 37.4992 30.8809 37.4992 30.6876C37.4992 30.4943 37.6559 30.3376 37.8492 30.3376C38.0425 30.3376 38.1992 30.4943 38.1992 30.6876Z" fill="white"/>
<path d="M37.9933 29.5759C37.9933 29.7692 37.8366 29.9259 37.6433 29.9259C37.45 29.9259 37.2933 29.7692 37.2933 29.5759C37.2933 29.3826 37.45 29.2259 37.6433 29.2259C37.8366 29.2259 37.9933 29.3826 37.9933 29.5759Z" fill="white"/>
<path d="M37.6639 28.3818C37.6639 28.5751 37.5072 28.7318 37.3139 28.7318C37.1206 28.7318 36.9639 28.5751 36.9639 28.3818C36.9639 28.1885 37.1206 28.0318 37.3139 28.0318C37.5072 28.0318 37.6639 28.1885 37.6639 28.3818Z" fill="white"/>
<path d="M37.1698 27.3523C37.1698 27.5456 37.0131 27.7023 36.8198 27.7023C36.6265 27.7023 36.4698 27.5456 36.4698 27.3523C36.4698 27.159 36.6265 27.0023 36.8198 27.0023C37.0131 27.0023 37.1698 27.159 37.1698 27.3523Z" fill="white"/>
<path d="M36.5933 26.3229C36.5933 26.5162 36.4366 26.6729 36.2433 26.6729C36.05 26.6729 35.8933 26.5162 35.8933 26.3229C35.8933 26.1296 36.05 25.9729 36.2433 25.9729C36.4366 25.9729 36.5933 26.1296 36.5933 26.3229Z" fill="white"/>
<path d="M35.8933 25.417C35.8933 25.6103 35.7366 25.767 35.5433 25.767C35.35 25.767 35.1933 25.6103 35.1933 25.417C35.1933 25.2237 35.35 25.067 35.5433 25.067C35.7366 25.067 35.8933 25.2237 35.8933 25.417Z" fill="white"/>
<path d="M35.0286 24.47C35.0286 24.6633 34.8719 24.82 34.6786 24.82C34.4853 24.82 34.3286 24.6633 34.3286 24.47C34.3286 24.2767 34.4853 24.12 34.6786 24.12C34.8719 24.12 35.0286 24.2767 35.0286 24.47Z" fill="white"/>
<path d="M34.1639 23.77C34.1639 23.9633 34.0072 24.12 33.8139 24.12C33.6206 24.12 33.4639 23.9633 33.4639 23.77C33.4639 23.5767 33.6206 23.42 33.8139 23.42C34.0072 23.42 34.1639 23.5767 34.1639 23.77Z" fill="white"/>
<path d="M33.1757 23.07C33.1757 23.2633 33.019 23.42 32.8257 23.42C32.6324 23.42 32.4757 23.2633 32.4757 23.07C32.4757 22.8767 32.6324 22.72 32.8257 22.72C33.019 22.72 33.1757 22.8767 33.1757 23.07Z" fill="white"/>
<path d="M32.1463 22.5759C32.1463 22.7692 31.9896 22.9259 31.7963 22.9259C31.603 22.9259 31.4463 22.7692 31.4463 22.5759C31.4463 22.3826 31.603 22.2259 31.7963 22.2259C31.9896 22.2259 32.1463 22.3826 32.1463 22.5759Z" fill="white"/>
<path d="M30.9933 22.1229C30.9933 22.3162 30.8366 22.4729 30.6433 22.4729C30.45 22.4729 30.2933 22.3162 30.2933 22.1229C30.2933 21.9296 30.45 21.7729 30.6433 21.7729C30.8366 21.7729 30.9933 21.9296 30.9933 22.1229Z" fill="white"/>
<path d="M29.8816 21.8759C29.8816 22.0692 29.7249 22.2259 29.5316 22.2259C29.3383 22.2259 29.1816 22.0692 29.1816 21.8759C29.1816 21.6826 29.3383 21.5259 29.5316 21.5259C29.7249 21.5259 29.8816 21.6826 29.8816 21.8759Z" fill="white"/>
<path d="M28.6463 21.7523C28.6463 21.9456 28.4896 22.1023 28.2963 22.1023C28.103 22.1023 27.9463 21.9456 27.9463 21.7523C27.9463 21.559 28.103 21.4023 28.2963 21.4023C28.4896 21.4023 28.6463 21.559 28.6463 21.7523Z" fill="white"/>
<path d="M27.5345 21.7523C27.5345 21.9456 27.3778 22.1023 27.1845 22.1023C26.9912 22.1023 26.8345 21.9456 26.8345 21.7523C26.8345 21.559 26.9912 21.4023 27.1845 21.4023C27.3778 21.4023 27.5345 21.559 27.5345 21.7523Z" fill="white"/>
<path d="M26.2992 21.8759C26.2992 22.0692 26.1425 22.2259 25.9492 22.2259C25.7559 22.2259 25.5992 22.0692 25.5992 21.8759C25.5992 21.6826 25.7559 21.5259 25.9492 21.5259C26.1425 21.5259 26.2992 21.6826 26.2992 21.8759Z" fill="white"/>
<path d="M25.1463 22.1229C25.1463 22.3162 24.9896 22.4729 24.7963 22.4729C24.603 22.4729 24.4463 22.3162 24.4463 22.1229C24.4463 21.9296 24.603 21.7729 24.7963 21.7729C24.9896 21.7729 25.1463 21.9296 25.1463 22.1229Z" fill="white"/>
<path d="M24.0757 22.5759C24.0757 22.7692 23.919 22.9259 23.7257 22.9259C23.5324 22.9259 23.3757 22.7692 23.3757 22.5759C23.3757 22.3826 23.5324 22.2259 23.7257 22.2259C23.919 22.2259 24.0757 22.3826 24.0757 22.5759Z" fill="white"/>
<path d="M22.9639 23.1112C22.9639 23.3045 22.8072 23.4612 22.6139 23.4612C22.4206 23.4612 22.2639 23.3045 22.2639 23.1112C22.2639 22.9179 22.4206 22.7612 22.6139 22.7612C22.8072 22.7612 22.9639 22.9179 22.9639 23.1112Z" fill="white"/>
<path d="M21.9757 23.7288C21.9757 23.9221 21.819 24.0788 21.6257 24.0788C21.4324 24.0788 21.2757 23.9221 21.2757 23.7288C21.2757 23.5355 21.4324 23.3788 21.6257 23.3788C21.819 23.3788 21.9757 23.5355 21.9757 23.7288Z" fill="white"/>
<path d="M21.0698 24.5112C21.0698 24.7045 20.9131 24.8612 20.7198 24.8612C20.5265 24.8612 20.3698 24.7045 20.3698 24.5112C20.3698 24.3179 20.5265 24.1612 20.7198 24.1612C20.9131 24.1612 21.0698 24.3179 21.0698 24.5112Z" fill="white"/>
<path d="M20.2875 25.3759C20.2875 25.5692 20.1308 25.7259 19.9375 25.7259C19.7442 25.7259 19.5875 25.5692 19.5875 25.3759C19.5875 25.1826 19.7442 25.0259 19.9375 25.0259C20.1308 25.0259 20.2875 25.1826 20.2875 25.3759Z" fill="white"/>
<path d="M19.5875 26.3229C19.5875 26.5162 19.4308 26.6729 19.2375 26.6729C19.0442 26.6729 18.8875 26.5162 18.8875 26.3229C18.8875 26.1296 19.0442 25.9729 19.2375 25.9729C19.4308 25.9729 19.5875 26.1296 19.5875 26.3229Z" fill="white"/>
<path d="M18.9698 27.3523C18.9698 27.5456 18.8131 27.7023 18.6198 27.7023C18.4265 27.7023 18.2698 27.5456 18.2698 27.3523C18.2698 27.159 18.4265 27.0023 18.6198 27.0023C18.8131 27.0023 18.9698 27.159 18.9698 27.3523Z" fill="white"/>
<path d="M18.4757 28.4229C18.4757 28.6162 18.319 28.7729 18.1257 28.7729C17.9324 28.7729 17.7757 28.6162 17.7757 28.4229C17.7757 28.2296 17.9324 28.0729 18.1257 28.0729C18.319 28.0729 18.4757 28.2296 18.4757 28.4229Z" fill="white"/>
<path d="M18.1463 29.5347C18.1463 29.728 17.9896 29.8847 17.7963 29.8847C17.603 29.8847 17.4463 29.728 17.4463 29.5347C17.4463 29.3414 17.603 29.1847 17.7963 29.1847C17.9896 29.1847 18.1463 29.3414 18.1463 29.5347Z" fill="white"/>
<path d="M17.9816 30.77C17.9816 30.9633 17.8249 31.12 17.6316 31.12C17.4383 31.12 17.2816 30.9633 17.2816 30.77C17.2816 30.5767 17.4383 30.42 17.6316 30.42C17.8249 30.42 17.9816 30.5767 17.9816 30.77Z" fill="white"/>
<path d="M17.8992 31.9641C17.8992 32.1574 17.7425 32.3141 17.5492 32.3141C17.3559 32.3141 17.1992 32.1574 17.1992 31.9641C17.1992 31.7708 17.3559 31.6141 17.5492 31.6141C17.7425 31.6141 17.8992 31.7708 17.8992 31.9641Z" fill="white"/>
<path d="M17.9816 33.0759C17.9816 33.2692 17.8249 33.4259 17.6316 33.4259C17.4383 33.4259 17.2816 33.2692 17.2816 33.0759C17.2816 32.8826 17.4383 32.7259 17.6316 32.7259C17.8249 32.7259 17.9816 32.8826 17.9816 33.0759Z" fill="white"/>
<path d="M18.1463 34.27C18.1463 34.4633 17.9896 34.62 17.7963 34.62C17.603 34.62 17.4463 34.4633 17.4463 34.27C17.4463 34.0767 17.603 33.92 17.7963 33.92C17.9896 33.92 18.1463 34.0767 18.1463 34.27Z" fill="white"/>
<path d="M18.5169 35.3818C18.5169 35.5751 18.3602 35.7318 18.1669 35.7318C17.9736 35.7318 17.8169 35.5751 17.8169 35.3818C17.8169 35.1885 17.9736 35.0318 18.1669 35.0318C18.3602 35.0318 18.5169 35.1885 18.5169 35.3818Z" fill="white"/>
<path d="M18.9698 36.4523C18.9698 36.6456 18.8131 36.8023 18.6198 36.8023C18.4265 36.8023 18.2698 36.6456 18.2698 36.4523C18.2698 36.259 18.4265 36.1023 18.6198 36.1023C18.8131 36.1023 18.9698 36.259 18.9698 36.4523Z" fill="white"/>
<path d="M19.5875 37.4818C19.5875 37.6751 19.4308 37.8318 19.2375 37.8318C19.0442 37.8318 18.8875 37.6751 18.8875 37.4818C18.8875 37.2885 19.0442 37.1318 19.2375 37.1318C19.4308 37.1318 19.5875 37.2885 19.5875 37.4818Z" fill="white"/>
<path d="M20.2875 38.4288C20.2875 38.6221 20.1308 38.7788 19.9375 38.7788C19.7442 38.7788 19.5875 38.6221 19.5875 38.4288C19.5875 38.2355 19.7442 38.0788 19.9375 38.0788C20.1308 38.0788 20.2875 38.2355 20.2875 38.4288Z" fill="white"/>
<path d="M21.111 39.3347C21.111 39.528 20.9543 39.6847 20.761 39.6847C20.5677 39.6847 20.411 39.528 20.411 39.3347C20.411 39.1414 20.5677 38.9847 20.761 38.9847C20.9543 38.9847 21.111 39.1414 21.111 39.3347Z" fill="white"/>
<path d="M21.9757 40.0347C21.9757 40.228 21.819 40.3847 21.6257 40.3847C21.4324 40.3847 21.2757 40.228 21.2757 40.0347C21.2757 39.8414 21.4324 39.6847 21.6257 39.6847C21.819 39.6847 21.9757 39.8414 21.9757 40.0347Z" fill="white"/>
<path d="M22.9639 40.7347C22.9639 40.928 22.8072 41.0847 22.6139 41.0847C22.4206 41.0847 22.2639 40.928 22.2639 40.7347C22.2639 40.5414 22.4206 40.3847 22.6139 40.3847C22.8072 40.3847 22.9639 40.5414 22.9639 40.7347Z" fill="white"/>
<path d="M24.0757 41.2288C24.0757 41.4221 23.919 41.5788 23.7257 41.5788C23.5324 41.5788 23.3757 41.4221 23.3757 41.2288C23.3757 41.0355 23.5324 40.8788 23.7257 40.8788C23.919 40.8788 24.0757 41.0355 24.0757 41.2288Z" fill="white"/>
<path d="M23.0875 30.8523C23.0875 30.9547 23.0045 31.0376 22.9022 31.0376C22.7998 31.0376 22.7169 30.9547 22.7169 30.8523C22.7169 30.75 22.7998 30.667 22.9022 30.667C23.0045 30.667 23.0875 30.75 23.0875 30.8523Z" fill="white"/>
<path d="M23.3345 30.2759C23.3345 30.3782 23.2516 30.4612 23.1492 30.4612C23.0469 30.4612 22.9639 30.3782 22.9639 30.2759C22.9639 30.1735 23.0469 30.0906 23.1492 30.0906C23.2516 30.0906 23.3345 30.1735 23.3345 30.2759Z" fill="white"/>
<path d="M23.7051 29.7406C23.7051 29.8429 23.6221 29.9259 23.5198 29.9259C23.4175 29.9259 23.3345 29.8429 23.3345 29.7406C23.3345 29.6382 23.4175 29.5553 23.5198 29.5553C23.6221 29.5553 23.7051 29.6382 23.7051 29.7406Z" fill="white"/>
<path d="M24.0757 29.2465C24.0757 29.3488 23.9927 29.4318 23.8904 29.4318C23.7881 29.4318 23.7051 29.3488 23.7051 29.2465C23.7051 29.1441 23.7881 29.0612 23.8904 29.0612C23.9927 29.0612 24.0757 29.1441 24.0757 29.2465Z" fill="white"/>
<path d="M24.5286 28.8347C24.5286 28.937 24.4457 29.02 24.3433 29.02C24.241 29.02 24.158 28.937 24.158 28.8347C24.158 28.7324 24.241 28.6494 24.3433 28.6494C24.4457 28.6494 24.5286 28.7324 24.5286 28.8347Z" fill="white"/>
<path d="M25.0227 28.4641C25.0227 28.5664 24.9398 28.6494 24.8375 28.6494C24.7351 28.6494 24.6522 28.5664 24.6522 28.4641C24.6522 28.3618 24.7351 28.2788 24.8375 28.2788C24.9398 28.2788 25.0227 28.3618 25.0227 28.4641Z" fill="white"/>
<path d="M25.5992 28.1347C25.5992 28.237 25.5163 28.32 25.4139 28.32C25.3116 28.32 25.2286 28.237 25.2286 28.1347C25.2286 28.0324 25.3116 27.9494 25.4139 27.9494C25.5163 27.9494 25.5992 28.0324 25.5992 28.1347Z" fill="white"/>
<path d="M26.1757 27.9288C26.1757 28.0311 26.0927 28.1141 25.9904 28.1141C25.8881 28.1141 25.8051 28.0311 25.8051 27.9288C25.8051 27.8265 25.8881 27.7435 25.9904 27.7435C26.0927 27.7435 26.1757 27.8265 26.1757 27.9288Z" fill="white"/>
<path d="M26.7522 27.7641C26.7522 27.8664 26.6692 27.9494 26.5669 27.9494C26.4645 27.9494 26.3816 27.8664 26.3816 27.7641C26.3816 27.6618 26.4645 27.5788 26.5669 27.5788C26.6692 27.5788 26.7522 27.6618 26.7522 27.7641Z" fill="white"/>
<path d="M27.411 27.6818C27.411 27.7841 27.328 27.867 27.2257 27.867C27.1234 27.867 27.0404 27.7841 27.0404 27.6818C27.0404 27.5794 27.1234 27.4965 27.2257 27.4965C27.328 27.4965 27.411 27.5794 27.411 27.6818Z" fill="white"/>
<path d="M28.0286 27.6406C28.0286 27.7429 27.9457 27.8259 27.8433 27.8259C27.741 27.8259 27.658 27.7429 27.658 27.6406C27.658 27.5382 27.741 27.4553 27.8433 27.4553C27.9457 27.4553 28.0286 27.5382 28.0286 27.6406Z" fill="white"/>
<path d="M28.6463 27.7229C28.6463 27.8253 28.5633 27.9082 28.461 27.9082C28.3586 27.9082 28.2757 27.8253 28.2757 27.7229C28.2757 27.6206 28.3586 27.5376 28.461 27.5376C28.5633 27.5376 28.6463 27.6206 28.6463 27.7229Z" fill="white"/>
<path d="M29.2639 27.8465C29.2639 27.9488 29.181 28.0318 29.0786 28.0318C28.9763 28.0318 28.8933 27.9488 28.8933 27.8465C28.8933 27.7441 28.9763 27.6612 29.0786 27.6612C29.181 27.6612 29.2639 27.7441 29.2639 27.8465Z" fill="white"/>
<path d="M29.8816 28.0523C29.8816 28.1547 29.7986 28.2376 29.6963 28.2376C29.5939 28.2376 29.511 28.1547 29.511 28.0523C29.511 27.95 29.5939 27.867 29.6963 27.867C29.7986 27.867 29.8816 27.95 29.8816 28.0523Z" fill="white"/>
<path d="M30.458 28.3818C30.458 28.4841 30.3751 28.567 30.2727 28.567C30.1704 28.567 30.0875 28.4841 30.0875 28.3818C30.0875 28.2794 30.1704 28.1965 30.2727 28.1965C30.3751 28.1965 30.458 28.2794 30.458 28.3818Z" fill="white"/>
<path d="M30.9933 28.7112C30.9933 28.8135 30.9104 28.8965 30.808 28.8965C30.7057 28.8965 30.6227 28.8135 30.6227 28.7112C30.6227 28.6088 30.7057 28.5259 30.808 28.5259C30.9104 28.5259 30.9933 28.6088 30.9933 28.7112Z" fill="white"/>
<path d="M31.5286 29.1229C31.5286 29.2253 31.4457 29.3082 31.3433 29.3082C31.241 29.3082 31.158 29.2253 31.158 29.1229C31.158 29.0206 31.241 28.9376 31.3433 28.9376C31.4457 28.9376 31.5286 29.0206 31.5286 29.1229Z" fill="white"/>
<path d="M31.9816 29.5759C31.9816 29.6782 31.8986 29.7612 31.7963 29.7612C31.6939 29.7612 31.611 29.6782 31.611 29.5759C31.611 29.4735 31.6939 29.3906 31.7963 29.3906C31.8986 29.3906 31.9816 29.4735 31.9816 29.5759Z" fill="white"/>
<path d="M32.3933 30.1112C32.3933 30.2135 32.3104 30.2965 32.208 30.2965C32.1057 30.2965 32.0227 30.2135 32.0227 30.1112C32.0227 30.0088 32.1057 29.9259 32.208 29.9259C32.3104 29.9259 32.3933 30.0088 32.3933 30.1112Z" fill="white"/>
<path d="M32.7639 30.6876C32.7639 30.79 32.681 30.8729 32.5786 30.8729C32.4763 30.8729 32.3933 30.79 32.3933 30.6876C32.3933 30.5853 32.4763 30.5023 32.5786 30.5023C32.681 30.5023 32.7639 30.5853 32.7639 30.6876Z" fill="white"/>
<path d="M33.0522 31.2641C33.0522 31.3664 32.9692 31.4494 32.8669 31.4494C32.7645 31.4494 32.6816 31.3664 32.6816 31.2641C32.6816 31.1618 32.7645 31.0788 32.8669 31.0788C32.9692 31.0788 33.0522 31.1618 33.0522 31.2641Z" fill="white"/>
<path d="M33.258 31.8818C33.258 31.9841 33.1751 32.067 33.0727 32.067C32.9704 32.067 32.8875 31.9841 32.8875 31.8818C32.8875 31.7794 32.9704 31.6965 33.0727 31.6965C33.1751 31.6965 33.258 31.7794 33.258 31.8818Z" fill="white"/>
<path d="M33.4227 32.5406C33.4227 32.6429 33.3398 32.7259 33.2375 32.7259C33.1351 32.7259 33.0522 32.6429 33.0522 32.5406C33.0522 32.4382 33.1351 32.3553 33.2375 32.3553C33.3398 32.3553 33.4227 32.4382 33.4227 32.5406Z" fill="white"/>
<path d="M33.5051 33.1994C33.5051 33.3017 33.4221 33.3847 33.3198 33.3847C33.2175 33.3847 33.1345 33.3017 33.1345 33.1994C33.1345 33.0971 33.2175 33.0141 33.3198 33.0141C33.4221 33.0141 33.5051 33.0971 33.5051 33.1994Z" fill="white"/>
<path d="M33.5051 33.8582C33.5051 33.9606 33.4221 34.0435 33.3198 34.0435C33.2175 34.0435 33.1345 33.9606 33.1345 33.8582C33.1345 33.7559 33.2175 33.6729 33.3198 33.6729C33.4221 33.6729 33.5051 33.7559 33.5051 33.8582Z" fill="white"/>
<path d="M33.4639 34.517C33.4639 34.6194 33.381 34.7023 33.2786 34.7023C33.1763 34.7023 33.0933 34.6194 33.0933 34.517C33.0933 34.4147 33.1763 34.3318 33.2786 34.3318C33.381 34.3318 33.4639 34.4147 33.4639 34.517Z" fill="white"/>
<path d="M33.2992 35.1347C33.2992 35.237 33.2163 35.32 33.1139 35.32C33.0116 35.32 32.9286 35.237 32.9286 35.1347C32.9286 35.0324 33.0116 34.9494 33.1139 34.9494C33.2163 34.9494 33.2992 35.0324 33.2992 35.1347Z" fill="white"/>
<path d="M33.0933 35.7523C33.0933 35.8547 33.0104 35.9376 32.908 35.9376C32.8057 35.9376 32.7227 35.8547 32.7227 35.7523C32.7227 35.65 32.8057 35.567 32.908 35.567C33.0104 35.567 33.0933 35.65 33.0933 35.7523Z" fill="white"/>
<path d="M32.8051 36.3288C32.8051 36.4311 32.7221 36.5141 32.6198 36.5141C32.5175 36.5141 32.4345 36.4311 32.4345 36.3288C32.4345 36.2265 32.5175 36.1435 32.6198 36.1435C32.7221 36.1435 32.8051 36.2265 32.8051 36.3288Z" fill="white"/>
<path d="M32.4757 36.8641C32.4757 36.9664 32.3927 37.0494 32.2904 37.0494C32.1881 37.0494 32.1051 36.9664 32.1051 36.8641C32.1051 36.7618 32.1881 36.6788 32.2904 36.6788C32.3927 36.6788 32.4757 36.7618 32.4757 36.8641Z" fill="white"/>
<path d="M32.1051 37.3582C32.1051 37.4606 32.0221 37.5435 31.9198 37.5435C31.8175 37.5435 31.7345 37.4606 31.7345 37.3582C31.7345 37.2559 31.8175 37.1729 31.9198 37.1729C32.0221 37.1729 32.1051 37.2559 32.1051 37.3582Z" fill="white"/>
<path d="M31.6522 37.77C31.6522 37.8723 31.5692 37.9553 31.4669 37.9553C31.3645 37.9553 31.2816 37.8723 31.2816 37.77C31.2816 37.6677 31.3645 37.5847 31.4669 37.5847C31.5692 37.5847 31.6522 37.6677 31.6522 37.77Z" fill="white"/>
<path d="M31.158 38.1406C31.158 38.2429 31.0751 38.3259 30.9727 38.3259C30.8704 38.3259 30.7875 38.2429 30.7875 38.1406C30.7875 38.0382 30.8704 37.9553 30.9727 37.9553C31.0751 37.9553 31.158 38.0382 31.158 38.1406Z" fill="white"/>
<path d="M30.5816 38.47C30.5816 38.5723 30.4986 38.6553 30.3963 38.6553C30.2939 38.6553 30.211 38.5723 30.211 38.47C30.211 38.3677 30.2939 38.2847 30.3963 38.2847C30.4986 38.2847 30.5816 38.3677 30.5816 38.47Z" fill="white"/>
<path d="M30.0051 38.6759C30.0051 38.7782 29.9221 38.8612 29.8198 38.8612C29.7175 38.8612 29.6345 38.7782 29.6345 38.6759C29.6345 38.5735 29.7175 38.4906 29.8198 38.4906C29.9221 38.4906 30.0051 38.5735 30.0051 38.6759Z" fill="white"/>
<path d="M29.4286 38.8406C29.4286 38.9429 29.3457 39.0259 29.2433 39.0259C29.141 39.0259 29.058 38.9429 29.058 38.8406C29.058 38.7382 29.141 38.6553 29.2433 38.6553C29.3457 38.6553 29.4286 38.7382 29.4286 38.8406Z" fill="white"/>
<path d="M28.1522 38.9641C28.1522 39.0664 28.0692 39.1494 27.9669 39.1494C27.8645 39.1494 27.7816 39.0664 27.7816 38.9641C27.7816 38.8618 27.8645 38.7788 27.9669 38.7788C28.0692 38.7788 28.1522 38.8618 28.1522 38.9641Z" fill="white"/>
<path d="M27.5345 38.8818C27.5345 38.9841 27.4516 39.067 27.3492 39.067C27.2469 39.067 27.1639 38.9841 27.1639 38.8818C27.1639 38.7794 27.2469 38.6965 27.3492 38.6965C27.4516 38.6965 27.5345 38.7794 27.5345 38.8818Z" fill="white"/>
<path d="M26.9169 38.7582C26.9169 38.8606 26.8339 38.9435 26.7316 38.9435C26.6292 38.9435 26.5463 38.8606 26.5463 38.7582C26.5463 38.6559 26.6292 38.5729 26.7316 38.5729C26.8339 38.5729 26.9169 38.6559 26.9169 38.7582Z" fill="white"/>
<path d="M26.2992 38.5112C26.2992 38.6135 26.2163 38.6965 26.1139 38.6965C26.0116 38.6965 25.9286 38.6135 25.9286 38.5112C25.9286 38.4088 26.0116 38.3259 26.1139 38.3259C26.2163 38.3259 26.2992 38.4088 26.2992 38.5112Z" fill="white"/>
<path d="M25.7227 38.2229C25.7227 38.3253 25.6398 38.4082 25.5375 38.4082C25.4351 38.4082 25.3522 38.3253 25.3522 38.2229C25.3522 38.1206 25.4351 38.0376 25.5375 38.0376C25.6398 38.0376 25.7227 38.1206 25.7227 38.2229Z" fill="white"/>
<path d="M25.1463 37.8935C25.1463 37.9959 25.0633 38.0788 24.961 38.0788C24.8586 38.0788 24.7757 37.9959 24.7757 37.8935C24.7757 37.7912 24.8586 37.7082 24.961 37.7082C25.0633 37.7082 25.1463 37.7912 25.1463 37.8935Z" fill="white"/>
<path d="M24.6522 37.4818C24.6522 37.5841 24.5692 37.667 24.4669 37.667C24.3645 37.667 24.2816 37.5841 24.2816 37.4818C24.2816 37.3794 24.3645 37.2965 24.4669 37.2965C24.5692 37.2965 24.6522 37.3794 24.6522 37.4818Z" fill="white"/>
<path d="M24.1992 36.9876C24.1992 37.09 24.1163 37.1729 24.0139 37.1729C23.9116 37.1729 23.8286 37.09 23.8286 36.9876C23.8286 36.8853 23.9116 36.8023 24.0139 36.8023C24.1163 36.8023 24.1992 36.8853 24.1992 36.9876Z" fill="white"/>
<path d="M23.7875 36.4935C23.7875 36.5959 23.7045 36.6788 23.6022 36.6788C23.4998 36.6788 23.4169 36.5959 23.4169 36.4935C23.4169 36.3912 23.4998 36.3082 23.6022 36.3082C23.7045 36.3082 23.7875 36.3912 23.7875 36.4935Z" fill="white"/>
<path d="M23.4169 35.917C23.4169 36.0194 23.3339 36.1023 23.2316 36.1023C23.1292 36.1023 23.0463 36.0194 23.0463 35.917C23.0463 35.8147 23.1292 35.7318 23.2316 35.7318C23.3339 35.7318 23.4169 35.8147 23.4169 35.917Z" fill="white"/>
<path d="M23.1286 35.2994C23.1286 35.4017 23.0457 35.4847 22.9433 35.4847C22.841 35.4847 22.758 35.4017 22.758 35.2994C22.758 35.1971 22.841 35.1141 22.9433 35.1141C23.0457 35.1141 23.1286 35.1971 23.1286 35.2994Z" fill="white"/>
<path d="M22.9227 34.6818C22.9227 34.7841 22.8398 34.867 22.7375 34.867C22.6351 34.867 22.5522 34.7841 22.5522 34.6818C22.5522 34.5794 22.6351 34.4965 22.7375 34.4965C22.8398 34.4965 22.9227 34.5794 22.9227 34.6818Z" fill="white"/>
<path d="M22.758 34.0229C22.758 34.1253 22.6751 34.2082 22.5727 34.2082C22.4704 34.2082 22.3875 34.1253 22.3875 34.0229C22.3875 33.9206 22.4704 33.8376 22.5727 33.8376C22.6751 33.8376 22.758 33.9206 22.758 34.0229Z" fill="white"/>
<path d="M22.6757 33.4053C22.6757 33.5076 22.5927 33.5906 22.4904 33.5906C22.3881 33.5906 22.3051 33.5076 22.3051 33.4053C22.3051 33.3029 22.3881 33.22 22.4904 33.22C22.5927 33.22 22.6757 33.3029 22.6757 33.4053Z" fill="white"/>
<path d="M22.6757 32.7465C22.6757 32.8488 22.5927 32.9318 22.4904 32.9318C22.3881 32.9318 22.3051 32.8488 22.3051 32.7465C22.3051 32.6441 22.3881 32.5612 22.4904 32.5612C22.5927 32.5612 22.6757 32.6441 22.6757 32.7465Z" fill="white"/>
<path d="M22.7169 32.0876C22.7169 32.19 22.6339 32.2729 22.5316 32.2729C22.4292 32.2729 22.3463 32.19 22.3463 32.0876C22.3463 31.9853 22.4292 31.9023 22.5316 31.9023C22.6339 31.9023 22.7169 31.9853 22.7169 32.0876Z" fill="white"/>
<path d="M22.8816 31.4288C22.8816 31.5311 22.7986 31.6141 22.6963 31.6141C22.5939 31.6141 22.511 31.5311 22.511 31.4288C22.511 31.3265 22.5939 31.2435 22.6963 31.2435C22.7986 31.2435 22.8816 31.3265 22.8816 31.4288Z" fill="white"/>
<path d="M28.811 38.9229C28.811 39.0253 28.728 39.1082 28.6257 39.1082C28.5234 39.1082 28.4404 39.0253 28.4404 38.9229C28.4404 38.8206 28.5234 38.7376 28.6257 38.7376C28.728 38.7376 28.811 38.8206 28.811 38.9229Z" fill="white"/>
<g clip-path="url(#clip0_1539_1107)">
<path d="M50.3258 14.1984H51.6758V20.2359L51.5398 21.3984H50.3258V14.1984ZM54.8867 18.8109V18.9094C54.8867 19.2875 54.8461 19.6344 54.7648 19.95C54.6867 20.2656 54.5648 20.5391 54.3992 20.7703C54.2336 20.9984 54.0273 21.1766 53.7805 21.3047C53.5367 21.4297 53.2492 21.4922 52.918 21.4922C52.6086 21.4922 52.3398 21.4297 52.1117 21.3047C51.8867 21.1797 51.6977 21.0031 51.5445 20.775C51.3914 20.5469 51.268 20.2797 51.1742 19.9734C51.0805 19.6672 51.0102 19.3328 50.9633 18.9703V18.7547C51.0102 18.3922 51.0805 18.0578 51.1742 17.7516C51.268 17.4453 51.3914 17.1781 51.5445 16.95C51.6977 16.7219 51.8867 16.5453 52.1117 16.4203C52.3367 16.2953 52.6023 16.2328 52.9086 16.2328C53.243 16.2328 53.5336 16.2969 53.7805 16.425C54.0305 16.55 54.2367 16.7281 54.3992 16.9594C54.5648 17.1875 54.6867 17.4594 54.7648 17.775C54.8461 18.0875 54.8867 18.4328 54.8867 18.8109ZM53.5367 18.9094V18.8109C53.5367 18.6047 53.5211 18.4109 53.4898 18.2297C53.4617 18.0453 53.4117 17.8844 53.3398 17.7469C53.268 17.6062 53.1695 17.4953 53.0445 17.4141C52.9227 17.3328 52.7648 17.2922 52.5711 17.2922C52.3867 17.2922 52.2305 17.3234 52.1023 17.3859C51.9742 17.4484 51.868 17.5359 51.7836 17.6484C51.7023 17.7609 51.6414 17.8953 51.6008 18.0516C51.5602 18.2047 51.5352 18.3734 51.5258 18.5578V19.1719C51.5352 19.4187 51.5758 19.6375 51.6477 19.8281C51.7227 20.0156 51.8352 20.1641 51.9852 20.2734C52.1383 20.3797 52.3367 20.4328 52.5805 20.4328C52.7711 20.4328 52.9289 20.3953 53.0539 20.3203C53.1789 20.2453 53.2758 20.1391 53.3445 20.0016C53.4164 19.8641 53.4664 19.7031 53.4945 19.5187C53.5227 19.3312 53.5367 19.1281 53.5367 18.9094ZM58.1402 21.4922C57.7464 21.4922 57.3933 21.4297 57.0808 21.3047C56.7683 21.1766 56.5027 21 56.2839 20.775C56.0683 20.55 55.9027 20.2891 55.787 19.9922C55.6714 19.6922 55.6136 19.3734 55.6136 19.0359V18.8484C55.6136 18.4641 55.6683 18.1125 55.7777 17.7937C55.887 17.475 56.0433 17.1984 56.2464 16.9641C56.4527 16.7297 56.7027 16.55 56.9964 16.425C57.2902 16.2969 57.6214 16.2328 57.9902 16.2328C58.3495 16.2328 58.6683 16.2922 58.9464 16.4109C59.2245 16.5297 59.4573 16.6984 59.6448 16.9172C59.8355 17.1359 59.9792 17.3984 60.0761 17.7047C60.173 18.0078 60.2214 18.3453 60.2214 18.7172V19.2797H56.1902V18.3797H58.8948V18.2766C58.8948 18.0891 58.8605 17.9219 58.7917 17.775C58.7261 17.625 58.6261 17.5062 58.4917 17.4187C58.3573 17.3312 58.1855 17.2875 57.9761 17.2875C57.798 17.2875 57.6448 17.3266 57.5167 17.4047C57.3886 17.4828 57.2839 17.5922 57.2027 17.7328C57.1245 17.8734 57.0652 18.0391 57.0245 18.2297C56.987 18.4172 56.9683 18.6234 56.9683 18.8484V19.0359C56.9683 19.2391 56.9964 19.4266 57.0527 19.5984C57.112 19.7703 57.1948 19.9187 57.3011 20.0437C57.4105 20.1687 57.5417 20.2656 57.6948 20.3344C57.8511 20.4031 58.0277 20.4375 58.2245 20.4375C58.4683 20.4375 58.6948 20.3906 58.9042 20.2969C59.1167 20.2 59.2995 20.0547 59.4527 19.8609L60.1089 20.5734C60.0027 20.7266 59.8573 20.8734 59.673 21.0141C59.4917 21.1547 59.273 21.2703 59.0167 21.3609C58.7605 21.4484 58.4683 21.4922 58.1402 21.4922ZM64.858 14.1984V21.3984H63.508V14.1984H64.858ZM64.6658 18.6844H64.2955C64.2986 18.3312 64.3455 18.0062 64.4361 17.7094C64.5267 17.4094 64.6564 17.15 64.8252 16.9312C64.9939 16.7094 65.1955 16.5375 65.4298 16.4156C65.6673 16.2937 65.9298 16.2328 66.2173 16.2328C66.4673 16.2328 66.6939 16.2687 66.897 16.3406C67.1033 16.4094 67.2798 16.5219 67.4267 16.6781C67.5767 16.8312 67.6923 17.0328 67.7736 17.2828C67.8548 17.5328 67.8955 17.8359 67.8955 18.1922V21.3984H66.5361V18.1828C66.5361 17.9578 66.5033 17.7812 66.4377 17.6531C66.3752 17.5219 66.283 17.4297 66.1611 17.3766C66.0423 17.3203 65.8955 17.2922 65.7205 17.2922C65.5267 17.2922 65.3611 17.3281 65.2236 17.4C65.0892 17.4719 64.9814 17.5719 64.9002 17.7C64.8189 17.825 64.7595 17.9719 64.722 18.1406C64.6845 18.3094 64.6658 18.4906 64.6658 18.6844ZM68.7864 18.9141V18.8156C68.7864 18.4437 68.8395 18.1016 68.9458 17.7891C69.052 17.4734 69.2067 17.2 69.4098 16.9687C69.613 16.7375 69.863 16.5578 70.1598 16.4297C70.4567 16.2984 70.7973 16.2328 71.1817 16.2328C71.5661 16.2328 71.9083 16.2984 72.2083 16.4297C72.5083 16.5578 72.7598 16.7375 72.963 16.9687C73.1692 17.2 73.3255 17.4734 73.4317 17.7891C73.538 18.1016 73.5911 18.4437 73.5911 18.8156V18.9141C73.5911 19.2828 73.538 19.625 73.4317 19.9406C73.3255 20.2531 73.1692 20.5266 72.963 20.7609C72.7598 20.9922 72.5098 21.1719 72.213 21.3C71.9161 21.4281 71.5755 21.4922 71.1911 21.4922C70.8067 21.4922 70.4645 21.4281 70.1645 21.3C69.8677 21.1719 69.6161 20.9922 69.4098 20.7609C69.2067 20.5266 69.052 20.2531 68.9458 19.9406C68.8395 19.625 68.7864 19.2828 68.7864 18.9141ZM70.1364 18.8156V18.9141C70.1364 19.1266 70.1552 19.325 70.1927 19.5094C70.2302 19.6937 70.2895 19.8562 70.3708 19.9969C70.4552 20.1344 70.5645 20.2422 70.6989 20.3203C70.8333 20.3984 70.9973 20.4375 71.1911 20.4375C71.3786 20.4375 71.5395 20.3984 71.6739 20.3203C71.8083 20.2422 71.9161 20.1344 71.9973 19.9969C72.0786 19.8562 72.138 19.6937 72.1755 19.5094C72.2161 19.325 72.2364 19.1266 72.2364 18.9141V18.8156C72.2364 18.6094 72.2161 18.4156 72.1755 18.2344C72.138 18.05 72.077 17.8875 71.9927 17.7469C71.9114 17.6031 71.8036 17.4906 71.6692 17.4094C71.5348 17.3281 71.3723 17.2875 71.1817 17.2875C70.9911 17.2875 70.8286 17.3281 70.6942 17.4094C70.563 17.4906 70.4552 17.6031 70.3708 17.7469C70.2895 17.8875 70.2302 18.05 70.1927 18.2344C70.1552 18.4156 70.1364 18.6094 70.1364 18.8156ZM75.8227 17.4094V21.3984H74.4727V16.3266H75.7383L75.8227 17.4094ZM75.6258 18.6844H75.2602C75.2602 18.3094 75.3086 17.9719 75.4055 17.6719C75.5023 17.3687 75.6383 17.1109 75.8133 16.8984C75.9883 16.6828 76.1961 16.5187 76.4367 16.4062C76.6805 16.2906 76.9523 16.2328 77.2523 16.2328C77.4898 16.2328 77.707 16.2672 77.9039 16.3359C78.1008 16.4047 78.2695 16.5141 78.4102 16.6641C78.5539 16.8141 78.6633 17.0125 78.7383 17.2594C78.8164 17.5062 78.8555 17.8078 78.8555 18.1641V21.3984H77.4961V18.1594C77.4961 17.9344 77.4648 17.7594 77.4023 17.6344C77.3398 17.5094 77.2477 17.4219 77.1258 17.3719C77.007 17.3187 76.8602 17.2922 76.6852 17.2922C76.5039 17.2922 76.3461 17.3281 76.2117 17.4C76.0805 17.4719 75.9711 17.5719 75.8836 17.7C75.7992 17.825 75.7352 17.9719 75.6914 18.1406C75.6477 18.3094 75.6258 18.4906 75.6258 18.6844ZM82.2964 21.4922C81.9027 21.4922 81.5495 21.4297 81.237 21.3047C80.9245 21.1766 80.6589 21 80.4402 20.775C80.2245 20.55 80.0589 20.2891 79.9433 19.9922C79.8277 19.6922 79.7698 19.3734 79.7698 19.0359V18.8484C79.7698 18.4641 79.8245 18.1125 79.9339 17.7937C80.0433 17.475 80.1995 17.1984 80.4027 16.9641C80.6089 16.7297 80.8589 16.55 81.1527 16.425C81.4464 16.2969 81.7777 16.2328 82.1464 16.2328C82.5058 16.2328 82.8245 16.2922 83.1027 16.4109C83.3808 16.5297 83.6136 16.6984 83.8011 16.9172C83.9917 17.1359 84.1355 17.3984 84.2323 17.7047C84.3292 18.0078 84.3777 18.3453 84.3777 18.7172V19.2797H80.3464V18.3797H83.0511V18.2766C83.0511 18.0891 83.0167 17.9219 82.948 17.775C82.8823 17.625 82.7823 17.5062 82.648 17.4187C82.5136 17.3312 82.3417 17.2875 82.1323 17.2875C81.9542 17.2875 81.8011 17.3266 81.673 17.4047C81.5448 17.4828 81.4402 17.5922 81.3589 17.7328C81.2808 17.8734 81.2214 18.0391 81.1808 18.2297C81.1433 18.4172 81.1245 18.6234 81.1245 18.8484V19.0359C81.1245 19.2391 81.1527 19.4266 81.2089 19.5984C81.2683 19.7703 81.3511 19.9187 81.4573 20.0437C81.5667 20.1687 81.698 20.2656 81.8511 20.3344C82.0073 20.4031 82.1839 20.4375 82.3808 20.4375C82.6245 20.4375 82.8511 20.3906 83.0605 20.2969C83.273 20.2 83.4558 20.0547 83.6089 19.8609L84.2652 20.5734C84.1589 20.7266 84.0136 20.8734 83.8292 21.0141C83.648 21.1547 83.4292 21.2703 83.173 21.3609C82.9167 21.4484 82.6245 21.4922 82.2964 21.4922ZM87.9686 19.9969C87.9686 19.9 87.9405 19.8125 87.8842 19.7344C87.828 19.6562 87.7233 19.5844 87.5702 19.5187C87.4202 19.45 87.203 19.3875 86.9186 19.3312C86.6623 19.275 86.4233 19.2047 86.2014 19.1203C85.9827 19.0328 85.792 18.9281 85.6295 18.8062C85.4702 18.6844 85.3452 18.5406 85.2545 18.375C85.1639 18.2062 85.1186 18.0141 85.1186 17.7984C85.1186 17.5859 85.1639 17.3859 85.2545 17.1984C85.3483 17.0109 85.4811 16.8453 85.653 16.7016C85.828 16.5547 86.0405 16.4406 86.2905 16.3594C86.5436 16.275 86.828 16.2328 87.1436 16.2328C87.5842 16.2328 87.9623 16.3031 88.278 16.4437C88.5967 16.5844 88.8405 16.7781 89.0092 17.025C89.1811 17.2687 89.267 17.5469 89.267 17.8594H87.917C87.917 17.7281 87.8889 17.6109 87.8327 17.5078C87.7795 17.4016 87.6952 17.3187 87.5795 17.2594C87.467 17.1969 87.3202 17.1656 87.1389 17.1656C86.9889 17.1656 86.8592 17.1922 86.7498 17.2453C86.6405 17.2953 86.5561 17.3641 86.4967 17.4516C86.4405 17.5359 86.4123 17.6297 86.4123 17.7328C86.4123 17.8109 86.428 17.8812 86.4592 17.9437C86.4936 18.0031 86.5483 18.0578 86.6233 18.1078C86.6983 18.1578 86.7952 18.2047 86.9139 18.2484C87.0358 18.2891 87.1858 18.3266 87.3639 18.3609C87.7295 18.4359 88.0561 18.5344 88.3436 18.6562C88.6311 18.775 88.8592 18.9375 89.028 19.1437C89.1967 19.3469 89.2811 19.6141 89.2811 19.9453C89.2811 20.1703 89.2311 20.3766 89.1311 20.5641C89.0311 20.7516 88.8873 20.9156 88.6998 21.0562C88.5123 21.1937 88.2873 21.3016 88.0248 21.3797C87.7655 21.4547 87.4733 21.4922 87.1483 21.4922C86.6764 21.4922 86.2764 21.4078 85.9483 21.2391C85.6233 21.0703 85.3764 20.8562 85.2077 20.5969C85.042 20.3344 84.9592 20.0656 84.9592 19.7906H86.2389C86.2452 19.975 86.292 20.1234 86.3795 20.2359C86.4702 20.3484 86.5842 20.4297 86.7217 20.4797C86.8623 20.5297 87.0139 20.5547 87.1764 20.5547C87.3514 20.5547 87.4967 20.5312 87.6123 20.4844C87.728 20.4344 87.8155 20.3687 87.8748 20.2875C87.9373 20.2031 87.9686 20.1062 87.9686 19.9969ZM92.722 16.3266V17.2828H89.7689V16.3266H92.722ZM90.5002 15.075H91.8502V19.8703C91.8502 20.0172 91.8689 20.1297 91.9064 20.2078C91.947 20.2859 92.0064 20.3406 92.0845 20.3719C92.1627 20.4 92.2611 20.4141 92.3798 20.4141C92.4642 20.4141 92.5392 20.4109 92.6048 20.4047C92.6736 20.3953 92.7314 20.3859 92.7783 20.3766L92.783 21.3703C92.6673 21.4078 92.5423 21.4375 92.408 21.4594C92.2736 21.4813 92.1252 21.4922 91.9627 21.4922C91.6658 21.4922 91.4064 21.4438 91.1845 21.3469C90.9658 21.2469 90.797 21.0875 90.6783 20.8687C90.5595 20.65 90.5002 20.3625 90.5002 20.0062V15.075ZM98.7789 20.2547V17.9953C98.7789 17.8328 98.7523 17.6937 98.6992 17.5781C98.6461 17.4594 98.5633 17.3672 98.4508 17.3016C98.3414 17.2359 98.1992 17.2031 98.0242 17.2031C97.8742 17.2031 97.7445 17.2297 97.6352 17.2828C97.5258 17.3328 97.4414 17.4062 97.382 17.5031C97.3227 17.5969 97.293 17.7078 97.293 17.8359H95.943C95.943 17.6203 95.993 17.4156 96.093 17.2219C96.193 17.0281 96.3383 16.8578 96.5289 16.7109C96.7195 16.5609 96.9461 16.4437 97.2086 16.3594C97.4742 16.275 97.7711 16.2328 98.0992 16.2328C98.493 16.2328 98.843 16.2984 99.1492 16.4297C99.4555 16.5609 99.6961 16.7578 99.8711 17.0203C100.049 17.2828 100.138 17.6109 100.138 18.0047V20.175C100.138 20.4531 100.155 20.6812 100.19 20.8594C100.224 21.0344 100.274 21.1875 100.34 21.3187V21.3984H98.9758C98.9102 21.2609 98.8602 21.0891 98.8258 20.8828C98.7945 20.6734 98.7789 20.4641 98.7789 20.2547ZM98.957 18.3094L98.9664 19.0734H98.2117C98.0336 19.0734 97.8789 19.0937 97.7477 19.1344C97.6164 19.175 97.5086 19.2328 97.4242 19.3078C97.3398 19.3797 97.2773 19.4641 97.2367 19.5609C97.1992 19.6578 97.1805 19.7641 97.1805 19.8797C97.1805 19.9953 97.207 20.1 97.2602 20.1937C97.3133 20.2844 97.3898 20.3562 97.4898 20.4094C97.5898 20.4594 97.707 20.4844 97.8414 20.4844C98.0445 20.4844 98.2211 20.4437 98.3711 20.3625C98.5211 20.2812 98.6367 20.1812 98.718 20.0625C98.8023 19.9437 98.8461 19.8312 98.8492 19.725L99.2055 20.2969C99.1555 20.425 99.0867 20.5578 98.9992 20.6953C98.9148 20.8328 98.807 20.9625 98.6758 21.0844C98.5445 21.2031 98.3867 21.3016 98.2023 21.3797C98.018 21.4547 97.7992 21.4922 97.5461 21.4922C97.2242 21.4922 96.932 21.4281 96.6695 21.3C96.4102 21.1687 96.2039 20.9891 96.0508 20.7609C95.9008 20.5297 95.8258 20.2672 95.8258 19.9734C95.8258 19.7078 95.8758 19.4719 95.9758 19.2656C96.0758 19.0594 96.2227 18.8859 96.4164 18.7453C96.6133 18.6016 96.8586 18.4937 97.1523 18.4219C97.4461 18.3469 97.7867 18.3094 98.1742 18.3094H98.957ZM102.581 17.4094V21.3984H101.231V16.3266H102.496L102.581 17.4094ZM102.384 18.6844H102.018C102.018 18.3094 102.067 17.9719 102.164 17.6719C102.26 17.3687 102.396 17.1109 102.571 16.8984C102.746 16.6828 102.954 16.5187 103.195 16.4062C103.439 16.2906 103.71 16.2328 104.01 16.2328C104.248 16.2328 104.465 16.2672 104.662 16.3359C104.859 16.4047 105.028 16.5141 105.168 16.6641C105.312 16.8141 105.421 17.0125 105.496 17.2594C105.575 17.5062 105.614 17.8078 105.614 18.1641V21.3984H104.254V18.1594C104.254 17.9344 104.223 17.7594 104.16 17.6344C104.098 17.5094 104.006 17.4219 103.884 17.3719C103.765 17.3187 103.618 17.2922 103.443 17.2922C103.262 17.2922 103.104 17.3281 102.97 17.4C102.839 17.4719 102.729 17.5719 102.642 17.7C102.557 17.825 102.493 17.9719 102.45 18.1406C102.406 18.3094 102.384 18.4906 102.384 18.6844ZM109.715 20.2922V14.1984H111.075V21.3984H109.851L109.715 20.2922ZM106.509 18.9234V18.825C106.509 18.4375 106.553 18.0859 106.64 17.7703C106.728 17.4516 106.856 17.1781 107.025 16.95C107.194 16.7219 107.401 16.5453 107.648 16.4203C107.895 16.2953 108.176 16.2328 108.492 16.2328C108.789 16.2328 109.048 16.2953 109.27 16.4203C109.495 16.5453 109.686 16.7234 109.842 16.9547C110.001 17.1828 110.13 17.4531 110.226 17.7656C110.323 18.075 110.394 18.4141 110.437 18.7828V18.9984C110.394 19.3516 110.323 19.6797 110.226 19.9828C110.13 20.2859 110.001 20.5516 109.842 20.7797C109.686 21.0047 109.495 21.1797 109.27 21.3047C109.045 21.4297 108.783 21.4922 108.483 21.4922C108.167 21.4922 107.886 21.4281 107.639 21.3C107.395 21.1719 107.189 20.9922 107.02 20.7609C106.855 20.5297 106.728 20.2578 106.64 19.9453C106.553 19.6328 106.509 19.2922 106.509 18.9234ZM107.859 18.825V18.9234C107.859 19.1328 107.875 19.3281 107.906 19.5094C107.94 19.6906 107.995 19.8516 108.07 19.9922C108.148 20.1297 108.248 20.2375 108.37 20.3156C108.495 20.3906 108.647 20.4281 108.825 20.4281C109.056 20.4281 109.247 20.3766 109.397 20.2734C109.547 20.1672 109.661 20.0219 109.739 19.8375C109.82 19.6531 109.867 19.4406 109.88 19.2V18.5859C109.87 18.3891 109.842 18.2125 109.795 18.0562C109.751 17.8969 109.686 17.7609 109.598 17.6484C109.514 17.5359 109.408 17.4484 109.28 17.3859C109.155 17.3234 109.006 17.2922 108.834 17.2922C108.659 17.2922 108.509 17.3328 108.384 17.4141C108.259 17.4922 108.158 17.6 108.08 17.7375C108.005 17.875 107.948 18.0375 107.911 18.225C107.876 18.4094 107.859 18.6094 107.859 18.825ZM114.465 18.9141V18.8156C114.465 18.4437 114.518 18.1016 114.624 17.7891C114.73 17.4734 114.885 17.2 115.088 16.9687C115.291 16.7375 115.541 16.5578 115.838 16.4297C116.135 16.2984 116.475 16.2328 116.86 16.2328C117.244 16.2328 117.586 16.2984 117.886 16.4297C118.186 16.5578 118.438 16.7375 118.641 16.9687C118.847 17.2 119.004 17.4734 119.11 17.7891C119.216 18.1016 119.269 18.4437 119.269 18.8156V18.9141C119.269 19.2828 119.216 19.625 119.11 19.9406C119.004 20.2531 118.847 20.5266 118.641 20.7609C118.438 20.9922 118.188 21.1719 117.891 21.3C117.594 21.4281 117.254 21.4922 116.869 21.4922C116.485 21.4922 116.143 21.4281 115.843 21.3C115.546 21.1719 115.294 20.9922 115.088 20.7609C114.885 20.5266 114.73 20.2531 114.624 19.9406C114.518 19.625 114.465 19.2828 114.465 18.9141ZM115.815 18.8156V18.9141C115.815 19.1266 115.833 19.325 115.871 19.5094C115.908 19.6937 115.968 19.8562 116.049 19.9969C116.133 20.1344 116.243 20.2422 116.377 20.3203C116.511 20.3984 116.675 20.4375 116.869 20.4375C117.057 20.4375 117.218 20.3984 117.352 20.3203C117.486 20.2422 117.594 20.1344 117.675 19.9969C117.757 19.8562 117.816 19.6937 117.854 19.5094C117.894 19.325 117.915 19.1266 117.915 18.9141V18.8156C117.915 18.6094 117.894 18.4156 117.854 18.2344C117.816 18.05 117.755 17.8875 117.671 17.7469C117.59 17.6031 117.482 17.4906 117.347 17.4094C117.213 17.3281 117.05 17.2875 116.86 17.2875C116.669 17.2875 116.507 17.3281 116.372 17.4094C116.241 17.4906 116.133 17.6031 116.049 17.7469C115.968 17.8875 115.908 18.05 115.871 18.2344C115.833 18.4156 115.815 18.6094 115.815 18.8156ZM121.529 17.3016V23.3484H120.179V16.3266H121.43L121.529 17.3016ZM124.74 18.8062V18.9047C124.74 19.2734 124.696 19.6156 124.609 19.9312C124.524 20.2469 124.399 20.5219 124.234 20.7562C124.068 20.9875 123.862 21.1687 123.615 21.3C123.371 21.4281 123.09 21.4922 122.771 21.4922C122.462 21.4922 122.193 21.4297 121.965 21.3047C121.737 21.1797 121.545 21.0047 121.388 20.7797C121.235 20.5516 121.112 20.2875 121.018 19.9875C120.924 19.6875 120.852 19.3656 120.802 19.0219V18.7641C120.852 18.3953 120.924 18.0578 121.018 17.7516C121.112 17.4422 121.235 17.175 121.388 16.95C121.545 16.7219 121.735 16.5453 121.96 16.4203C122.188 16.2953 122.455 16.2328 122.762 16.2328C123.084 16.2328 123.366 16.2937 123.61 16.4156C123.857 16.5375 124.063 16.7125 124.229 16.9406C124.398 17.1687 124.524 17.4406 124.609 17.7562C124.696 18.0719 124.74 18.4219 124.74 18.8062ZM123.385 18.9047V18.8062C123.385 18.5906 123.366 18.3922 123.329 18.2109C123.295 18.0266 123.238 17.8656 123.16 17.7281C123.085 17.5906 122.985 17.4844 122.86 17.4094C122.738 17.3312 122.59 17.2922 122.415 17.2922C122.23 17.2922 122.073 17.3219 121.941 17.3812C121.813 17.4406 121.709 17.5266 121.627 17.6391C121.546 17.7516 121.485 17.8859 121.445 18.0422C121.404 18.1984 121.379 18.375 121.37 18.5719V19.2234C121.385 19.4547 121.429 19.6625 121.501 19.8469C121.573 20.0281 121.684 20.1719 121.834 20.2781C121.984 20.3844 122.18 20.4375 122.424 20.4375C122.602 20.4375 122.752 20.3984 122.874 20.3203C122.996 20.2391 123.095 20.1281 123.17 19.9875C123.248 19.8469 123.302 19.6844 123.334 19.5C123.368 19.3156 123.385 19.1172 123.385 18.9047ZM127.993 21.4922C127.6 21.4922 127.246 21.4297 126.934 21.3047C126.621 21.1766 126.356 21 126.137 20.775C125.921 20.55 125.756 20.2891 125.64 19.9922C125.525 19.6922 125.467 19.3734 125.467 19.0359V18.8484C125.467 18.4641 125.521 18.1125 125.631 17.7937C125.74 17.475 125.896 17.1984 126.1 16.9641C126.306 16.7297 126.556 16.55 126.85 16.425C127.143 16.2969 127.475 16.2328 127.843 16.2328C128.203 16.2328 128.521 16.2922 128.8 16.4109C129.078 16.5297 129.31 16.6984 129.498 16.9172C129.689 17.1359 129.832 17.3984 129.929 17.7047C130.026 18.0078 130.075 18.3453 130.075 18.7172V19.2797H126.043V18.3797H128.748V18.2766C128.748 18.0891 128.714 17.9219 128.645 17.775C128.579 17.625 128.479 17.5062 128.345 17.4187C128.21 17.3312 128.039 17.2875 127.829 17.2875C127.651 17.2875 127.498 17.3266 127.37 17.4047C127.242 17.4828 127.137 17.5922 127.056 17.7328C126.978 17.8734 126.918 18.0391 126.878 18.2297C126.84 18.4172 126.821 18.6234 126.821 18.8484V19.0359C126.821 19.2391 126.85 19.4266 126.906 19.5984C126.965 19.7703 127.048 19.9187 127.154 20.0437C127.264 20.1687 127.395 20.2656 127.548 20.3344C127.704 20.4031 127.881 20.4375 128.078 20.4375C128.321 20.4375 128.548 20.3906 128.757 20.2969C128.97 20.2 129.153 20.0547 129.306 19.8609L129.962 20.5734C129.856 20.7266 129.71 20.8734 129.526 21.0141C129.345 21.1547 129.126 21.2703 128.87 21.3609C128.614 21.4484 128.321 21.4922 127.993 21.4922ZM132.245 17.4094V21.3984H130.895V16.3266H132.161L132.245 17.4094ZM132.048 18.6844H131.683C131.683 18.3094 131.731 17.9719 131.828 17.6719C131.925 17.3687 132.061 17.1109 132.236 16.8984C132.411 16.6828 132.619 16.5187 132.859 16.4062C133.103 16.2906 133.375 16.2328 133.675 16.2328C133.912 16.2328 134.13 16.2672 134.326 16.3359C134.523 16.4047 134.692 16.5141 134.833 16.6641C134.976 16.8141 135.086 17.0125 135.161 17.2594C135.239 17.5062 135.278 17.8078 135.278 18.1641V21.3984H133.919V18.1594C133.919 17.9344 133.887 17.7594 133.825 17.6344C133.762 17.5094 133.67 17.4219 133.548 17.3719C133.43 17.3187 133.283 17.2922 133.108 17.2922C132.926 17.2922 132.769 17.3281 132.634 17.4C132.503 17.4719 132.394 17.5719 132.306 17.7C132.222 17.825 132.158 17.9719 132.114 18.1406C132.07 18.3094 132.048 18.4906 132.048 18.6844Z" fill="#1F1F1F"/>
</g>
<path d="M52.7508 29.175V36H51.5742V29.175H52.7508ZM57.767 28.8V36H56.642V28.8H57.767ZM57.5702 33.2766L57.2045 33.2719C57.2077 32.9219 57.2561 32.5984 57.3498 32.3016C57.4467 32.0047 57.5811 31.7469 57.753 31.5281C57.928 31.3062 58.1373 31.1359 58.3811 31.0172C58.6248 30.8953 58.8952 30.8344 59.192 30.8344C59.442 30.8344 59.667 30.8687 59.867 30.9375C60.0702 31.0062 60.2452 31.1172 60.392 31.2703C60.5389 31.4203 60.6498 31.6172 60.7248 31.8609C60.803 32.1016 60.842 32.3953 60.842 32.7422V36H59.7077V32.7328C59.7077 32.4891 59.6717 32.2953 59.5998 32.1516C59.5311 32.0078 59.4295 31.9047 59.2952 31.8422C59.1608 31.7766 58.9967 31.7437 58.803 31.7437C58.5998 31.7437 58.4202 31.7844 58.2639 31.8656C58.1108 31.9469 57.9827 32.0578 57.8795 32.1984C57.7764 32.3391 57.6983 32.5016 57.6452 32.6859C57.5952 32.8703 57.5702 33.0672 57.5702 33.2766ZM64.9252 34.9828V32.5641C64.9252 32.3828 64.8923 32.2266 64.8267 32.0953C64.7611 31.9641 64.6611 31.8625 64.5267 31.7906C64.3955 31.7187 64.2298 31.6828 64.0298 31.6828C63.8455 31.6828 63.6861 31.7141 63.5517 31.7766C63.4173 31.8391 63.3127 31.9234 63.2377 32.0297C63.1627 32.1359 63.1252 32.2562 63.1252 32.3906H62.0002C62.0002 32.1906 62.0486 31.9969 62.1455 31.8094C62.2423 31.6219 62.383 31.4547 62.5673 31.3078C62.7517 31.1609 62.972 31.0453 63.2283 30.9609C63.4845 30.8766 63.772 30.8344 64.0908 30.8344C64.472 30.8344 64.8095 30.8984 65.1033 31.0266C65.4002 31.1547 65.633 31.3484 65.8017 31.6078C65.9736 31.8641 66.0595 32.1859 66.0595 32.5734V34.8281C66.0595 35.0594 66.0752 35.2672 66.1064 35.4516C66.1408 35.6328 66.1892 35.7906 66.2517 35.925V36H65.0939C65.0408 35.8781 64.9986 35.7234 64.9673 35.5359C64.9392 35.3453 64.9252 35.1609 64.9252 34.9828ZM65.0892 32.9156L65.0986 33.6141H64.2877C64.0783 33.6141 63.8939 33.6344 63.7345 33.675C63.5752 33.7125 63.4423 33.7687 63.3361 33.8437C63.2298 33.9187 63.1502 34.0094 63.097 34.1156C63.0439 34.2219 63.0173 34.3422 63.0173 34.4766C63.0173 34.6109 63.0486 34.7344 63.1111 34.8469C63.1736 34.9562 63.2642 35.0422 63.383 35.1047C63.5048 35.1672 63.6517 35.1984 63.8236 35.1984C64.0548 35.1984 64.2564 35.1516 64.4283 35.0578C64.6033 34.9609 64.7408 34.8437 64.8408 34.7062C64.9408 34.5656 64.9939 34.4328 65.0002 34.3078L65.3658 34.8094C65.3283 34.9375 65.2642 35.075 65.1736 35.2219C65.083 35.3687 64.9642 35.5094 64.8173 35.6437C64.6736 35.775 64.5002 35.8828 64.297 35.9672C64.097 36.0516 63.8658 36.0938 63.6033 36.0938C63.272 36.0938 62.9767 36.0281 62.7173 35.8969C62.458 35.7625 62.2548 35.5828 62.108 35.3578C61.9611 35.1297 61.8877 34.8719 61.8877 34.5844C61.8877 34.3156 61.9377 34.0781 62.0377 33.8719C62.1408 33.6625 62.2908 33.4875 62.4877 33.3469C62.6877 33.2062 62.9314 33.1 63.2189 33.0281C63.5064 32.9531 63.8345 32.9156 64.2033 32.9156H65.0892ZM68.8958 35.1047L70.138 30.9281H71.3098L69.5473 36H68.8161L68.8958 35.1047ZM67.9442 30.9281L69.2098 35.1234L69.2708 36H68.5395L66.7677 30.9281H67.9442ZM74.2586 36.0938C73.8836 36.0938 73.5445 36.0328 73.2414 35.9109C72.9414 35.7859 72.6852 35.6125 72.4727 35.3906C72.2633 35.1687 72.1023 34.9078 71.9898 34.6078C71.8773 34.3078 71.8211 33.9844 71.8211 33.6375V33.45C71.8211 33.0531 71.8789 32.6937 71.9945 32.3719C72.1102 32.05 72.2711 31.775 72.4773 31.5469C72.6836 31.3156 72.9273 31.1391 73.2086 31.0172C73.4898 30.8953 73.7945 30.8344 74.1227 30.8344C74.4852 30.8344 74.8023 30.8953 75.0742 31.0172C75.3461 31.1391 75.5711 31.3109 75.7492 31.5328C75.9305 31.7516 76.0648 32.0125 76.1523 32.3156C76.243 32.6187 76.2883 32.9531 76.2883 33.3187V33.8016H72.3695V32.9906H75.1727V32.9016C75.1664 32.6984 75.1258 32.5078 75.0508 32.3297C74.9789 32.1516 74.868 32.0078 74.718 31.8984C74.568 31.7891 74.368 31.7344 74.118 31.7344C73.9305 31.7344 73.7633 31.775 73.6164 31.8562C73.4727 31.9344 73.3523 32.0484 73.2555 32.1984C73.1586 32.3484 73.0836 32.5297 73.0305 32.7422C72.9805 32.9516 72.9555 33.1875 72.9555 33.45V33.6375C72.9555 33.8594 72.9852 34.0656 73.0445 34.2562C73.107 34.4437 73.1977 34.6078 73.3164 34.7484C73.4352 34.8891 73.5789 35 73.7477 35.0812C73.9164 35.1594 74.1086 35.1984 74.3242 35.1984C74.5961 35.1984 74.8383 35.1437 75.0508 35.0344C75.2633 34.925 75.4477 34.7703 75.6039 34.5703L76.1992 35.1469C76.0898 35.3062 75.9477 35.4594 75.7727 35.6062C75.5977 35.75 75.3836 35.8672 75.1305 35.9578C74.8805 36.0484 74.5898 36.0938 74.2586 36.0938ZM82.0452 30.9281V31.7531H79.1858V30.9281H82.0452ZM80.0108 29.6859H81.1405V34.5984C81.1405 34.7547 81.1623 34.875 81.2061 34.9594C81.253 35.0406 81.317 35.0953 81.3983 35.1234C81.4795 35.1516 81.5748 35.1656 81.6842 35.1656C81.7623 35.1656 81.8373 35.1609 81.9092 35.1516C81.9811 35.1422 82.0389 35.1328 82.0827 35.1234L82.0873 35.9859C81.9936 36.0141 81.8842 36.0391 81.7592 36.0609C81.6373 36.0828 81.4967 36.0938 81.3373 36.0938C81.078 36.0938 80.8483 36.0484 80.6483 35.9578C80.4483 35.8641 80.292 35.7125 80.1795 35.5031C80.067 35.2937 80.0108 35.0156 80.0108 34.6687V29.6859ZM84.1127 28.8V36H82.9877V28.8H84.1127ZM83.9158 33.2766L83.5502 33.2719C83.5533 32.9219 83.6017 32.5984 83.6955 32.3016C83.7923 32.0047 83.9267 31.7469 84.0986 31.5281C84.2736 31.3062 84.483 31.1359 84.7267 31.0172C84.9705 30.8953 85.2408 30.8344 85.5377 30.8344C85.7877 30.8344 86.0127 30.8687 86.2127 30.9375C86.4158 31.0062 86.5908 31.1172 86.7377 31.2703C86.8845 31.4203 86.9955 31.6172 87.0705 31.8609C87.1486 32.1016 87.1877 32.3953 87.1877 32.7422V36H86.0533V32.7328C86.0533 32.4891 86.0173 32.2953 85.9455 32.1516C85.8767 32.0078 85.7752 31.9047 85.6408 31.8422C85.5064 31.7766 85.3423 31.7437 85.1486 31.7437C84.9455 31.7437 84.7658 31.7844 84.6095 31.8656C84.4564 31.9469 84.3283 32.0578 84.2252 32.1984C84.122 32.3391 84.0439 32.5016 83.9908 32.6859C83.9408 32.8703 83.9158 33.0672 83.9158 33.2766ZM89.6208 30.9281V36H88.4864V30.9281H89.6208ZM88.4114 29.5969C88.4114 29.425 88.4677 29.2828 88.5802 29.1703C88.6958 29.0547 88.8552 28.9969 89.0583 28.9969C89.2583 28.9969 89.4161 29.0547 89.5317 29.1703C89.6473 29.2828 89.7052 29.425 89.7052 29.5969C89.7052 29.7656 89.6473 29.9062 89.5317 30.0187C89.4161 30.1312 89.2583 30.1875 89.0583 30.1875C88.8552 30.1875 88.6958 30.1312 88.5802 30.0187C88.4677 29.9062 88.4114 29.7656 88.4114 29.5969ZM93.7836 34.6266C93.7836 34.5141 93.7555 34.4125 93.6992 34.3219C93.643 34.2281 93.5352 34.1437 93.3758 34.0687C93.2195 33.9937 92.9883 33.925 92.682 33.8625C92.4133 33.8031 92.1664 33.7328 91.9414 33.6516C91.7195 33.5672 91.5289 33.4656 91.3695 33.3469C91.2102 33.2281 91.0867 33.0875 90.9992 32.925C90.9117 32.7625 90.868 32.575 90.868 32.3625C90.868 32.1562 90.9133 31.9609 91.0039 31.7766C91.0945 31.5922 91.2242 31.4297 91.393 31.2891C91.5617 31.1484 91.7664 31.0375 92.007 30.9562C92.2508 30.875 92.5227 30.8344 92.8227 30.8344C93.2477 30.8344 93.6117 30.9062 93.9148 31.05C94.2211 31.1906 94.4555 31.3828 94.618 31.6266C94.7805 31.8672 94.8617 32.1391 94.8617 32.4422H93.732C93.732 32.3078 93.6977 32.1828 93.6289 32.0672C93.5633 31.9484 93.4633 31.8531 93.3289 31.7812C93.1945 31.7062 93.0258 31.6687 92.8227 31.6687C92.6289 31.6687 92.468 31.7 92.3398 31.7625C92.2148 31.8219 92.1211 31.9 92.0586 31.9969C91.9992 32.0937 91.9695 32.2 91.9695 32.3156C91.9695 32.4 91.9852 32.4766 92.0164 32.5453C92.0508 32.6109 92.107 32.6719 92.1852 32.7281C92.2633 32.7812 92.3695 32.8312 92.5039 32.8781C92.6414 32.925 92.8133 32.9703 93.0195 33.0141C93.407 33.0953 93.7398 33.2 94.018 33.3281C94.2992 33.4531 94.5148 33.6156 94.6648 33.8156C94.8148 34.0125 94.8898 34.2625 94.8898 34.5656C94.8898 34.7906 94.8414 34.9969 94.7445 35.1844C94.6508 35.3687 94.5133 35.5297 94.332 35.6672C94.1508 35.8016 93.9336 35.9062 93.6805 35.9812C93.4305 36.0563 93.1492 36.0938 92.8367 36.0938C92.3773 36.0938 91.9883 36.0125 91.6695 35.85C91.3508 35.6844 91.1086 35.4734 90.943 35.2172C90.7805 34.9578 90.6992 34.6891 90.6992 34.4109H91.7914C91.8039 34.6203 91.8617 34.7875 91.9648 34.9125C92.0711 35.0344 92.2023 35.1234 92.3586 35.1797C92.518 35.2328 92.682 35.2594 92.8508 35.2594C93.0539 35.2594 93.2242 35.2328 93.3617 35.1797C93.4992 35.1234 93.6039 35.0484 93.6758 34.9547C93.7477 34.8578 93.7836 34.7484 93.7836 34.6266ZM99.9577 36H98.828V30.4406C98.828 30.0625 98.8983 29.7453 99.0389 29.4891C99.1827 29.2297 99.3873 29.0344 99.653 28.9031C99.9186 28.7687 100.233 28.7016 100.595 28.7016C100.708 28.7016 100.819 28.7094 100.928 28.725C101.037 28.7375 101.144 28.7578 101.247 28.7859L101.219 29.6578C101.156 29.6422 101.087 29.6312 101.012 29.625C100.94 29.6187 100.862 29.6156 100.778 29.6156C100.606 29.6156 100.458 29.6484 100.333 29.7141C100.211 29.7766 100.117 29.8687 100.051 29.9906C99.9889 30.1125 99.9577 30.2625 99.9577 30.4406V36ZM101.003 30.9281V31.7531H98.0498V30.9281H101.003ZM104.027 36.0938C103.652 36.0938 103.313 36.0328 103.01 35.9109C102.71 35.7859 102.453 35.6125 102.241 35.3906C102.031 35.1687 101.87 34.9078 101.758 34.6078C101.645 34.3078 101.589 33.9844 101.589 33.6375V33.45C101.589 33.0531 101.647 32.6937 101.763 32.3719C101.878 32.05 102.039 31.775 102.245 31.5469C102.452 31.3156 102.695 31.1391 102.977 31.0172C103.258 30.8953 103.563 30.8344 103.891 30.8344C104.253 30.8344 104.57 30.8953 104.842 31.0172C105.114 31.1391 105.339 31.3109 105.517 31.5328C105.699 31.7516 105.833 32.0125 105.92 32.3156C106.011 32.6187 106.056 32.9531 106.056 33.3187V33.8016H102.138V32.9906H104.941V32.9016C104.935 32.6984 104.894 32.5078 104.819 32.3297C104.747 32.1516 104.636 32.0078 104.486 31.8984C104.336 31.7891 104.136 31.7344 103.886 31.7344C103.699 31.7344 103.531 31.775 103.385 31.8562C103.241 31.9344 103.12 32.0484 103.024 32.1984C102.927 32.3484 102.852 32.5297 102.799 32.7422C102.749 32.9516 102.724 33.1875 102.724 33.45V33.6375C102.724 33.8594 102.753 34.0656 102.813 34.2562C102.875 34.4437 102.966 34.6078 103.085 34.7484C103.203 34.8891 103.347 35 103.516 35.0812C103.685 35.1594 103.877 35.1984 104.092 35.1984C104.364 35.1984 104.606 35.1437 104.819 35.0344C105.031 34.925 105.216 34.7703 105.372 34.5703L105.967 35.1469C105.858 35.3062 105.716 35.4594 105.541 35.6062C105.366 35.75 105.152 35.8672 104.899 35.9578C104.649 36.0484 104.358 36.0938 104.027 36.0938ZM109.254 36.0938C108.879 36.0938 108.54 36.0328 108.236 35.9109C107.936 35.7859 107.68 35.6125 107.468 35.3906C107.258 35.1687 107.097 34.9078 106.985 34.6078C106.872 34.3078 106.816 33.9844 106.816 33.6375V33.45C106.816 33.0531 106.874 32.6937 106.99 32.3719C107.105 32.05 107.266 31.775 107.472 31.5469C107.679 31.3156 107.922 31.1391 108.204 31.0172C108.485 30.8953 108.79 30.8344 109.118 30.8344C109.48 30.8344 109.797 30.8953 110.069 31.0172C110.341 31.1391 110.566 31.3109 110.744 31.5328C110.925 31.7516 111.06 32.0125 111.147 32.3156C111.238 32.6187 111.283 32.9531 111.283 33.3187V33.8016H107.365V32.9906H110.168V32.9016C110.161 32.6984 110.121 32.5078 110.046 32.3297C109.974 32.1516 109.863 32.0078 109.713 31.8984C109.563 31.7891 109.363 31.7344 109.113 31.7344C108.925 31.7344 108.758 31.775 108.611 31.8562C108.468 31.9344 108.347 32.0484 108.25 32.1984C108.154 32.3484 108.079 32.5297 108.025 32.7422C107.975 32.9516 107.95 33.1875 107.95 33.45V33.6375C107.95 33.8594 107.98 34.0656 108.04 34.2562C108.102 34.4437 108.193 34.6078 108.311 34.7484C108.43 34.8891 108.574 35 108.743 35.0812C108.911 35.1594 109.104 35.1984 109.319 35.1984C109.591 35.1984 109.833 35.1437 110.046 35.0344C110.258 34.925 110.443 34.7703 110.599 34.5703L111.194 35.1469C111.085 35.3062 110.943 35.4594 110.768 35.6062C110.593 35.75 110.379 35.8672 110.125 35.9578C109.875 36.0484 109.585 36.0938 109.254 36.0938ZM113.454 28.8V36H112.32V28.8H113.454ZM115.981 30.9281V36H114.846V30.9281H115.981ZM114.771 29.5969C114.771 29.425 114.828 29.2828 114.94 29.1703C115.056 29.0547 115.215 28.9969 115.418 28.9969C115.618 28.9969 115.776 29.0547 115.892 29.1703C116.007 29.2828 116.065 29.425 116.065 29.5969C116.065 29.7656 116.007 29.9062 115.892 30.0187C115.776 30.1312 115.618 30.1875 115.418 30.1875C115.215 30.1875 115.056 30.1312 114.94 30.0187C114.828 29.9062 114.771 29.7656 114.771 29.5969ZM118.419 32.0109V36H117.289V30.9281H118.353L118.419 32.0109ZM118.217 33.2766L117.851 33.2719C117.855 32.9125 117.905 32.5828 118.001 32.2828C118.101 31.9828 118.239 31.725 118.414 31.5094C118.592 31.2937 118.805 31.1281 119.051 31.0125C119.298 30.8937 119.573 30.8344 119.876 30.8344C120.12 30.8344 120.34 30.8687 120.537 30.9375C120.737 31.0031 120.908 31.1109 121.048 31.2609C121.192 31.4109 121.301 31.6062 121.376 31.8469C121.451 32.0844 121.489 32.3766 121.489 32.7234V36H120.355V32.7187C120.355 32.475 120.319 32.2828 120.247 32.1422C120.178 31.9984 120.076 31.8969 119.942 31.8375C119.811 31.775 119.647 31.7437 119.45 31.7437C119.256 31.7437 119.083 31.7844 118.93 31.8656C118.776 31.9469 118.647 32.0578 118.54 32.1984C118.437 32.3391 118.358 32.5016 118.301 32.6859C118.245 32.8703 118.217 33.0672 118.217 33.2766ZM125.97 30.9281H126.997V35.8594C126.997 36.3156 126.9 36.7031 126.706 37.0219C126.513 37.3406 126.242 37.5828 125.895 37.7484C125.549 37.9172 125.147 38.0016 124.691 38.0016C124.497 38.0016 124.281 37.9734 124.044 37.9172C123.81 37.8609 123.581 37.7703 123.36 37.6453C123.141 37.5234 122.958 37.3625 122.811 37.1625L123.341 36.4969C123.522 36.7125 123.722 36.8703 123.941 36.9703C124.16 37.0703 124.389 37.1203 124.63 37.1203C124.889 37.1203 125.11 37.0719 125.291 36.975C125.475 36.8813 125.617 36.7422 125.717 36.5578C125.817 36.3734 125.867 36.1484 125.867 35.8828V32.0766L125.97 30.9281ZM122.525 33.5203V33.4219C122.525 33.0375 122.572 32.6875 122.666 32.3719C122.76 32.0531 122.894 31.7797 123.069 31.5516C123.244 31.3203 123.456 31.1437 123.706 31.0219C123.956 30.8969 124.239 30.8344 124.555 30.8344C124.883 30.8344 125.163 30.8937 125.394 31.0125C125.628 31.1312 125.824 31.3016 125.98 31.5234C126.136 31.7422 126.258 32.0047 126.345 32.3109C126.436 32.6141 126.503 32.9516 126.547 33.3234V33.6375C126.506 34 126.438 34.3312 126.341 34.6312C126.244 34.9312 126.116 35.1906 125.956 35.4094C125.797 35.6281 125.6 35.7969 125.366 35.9156C125.135 36.0344 124.861 36.0938 124.545 36.0938C124.236 36.0938 123.956 36.0297 123.706 35.9016C123.46 35.7734 123.247 35.5937 123.069 35.3625C122.894 35.1312 122.76 34.8594 122.666 34.5469C122.572 34.2312 122.525 33.8891 122.525 33.5203ZM123.655 33.4219V33.5203C123.655 33.7516 123.677 33.9672 123.72 34.1672C123.767 34.3672 123.838 34.5437 123.931 34.6969C124.028 34.8469 124.15 34.9656 124.297 35.0531C124.447 35.1375 124.624 35.1797 124.827 35.1797C125.092 35.1797 125.31 35.1234 125.478 35.0109C125.65 34.8984 125.781 34.7469 125.872 34.5562C125.966 34.3625 126.031 34.1469 126.069 33.9094V33.0609C126.05 32.8766 126.011 32.7047 125.952 32.5453C125.895 32.3859 125.819 32.2469 125.722 32.1281C125.625 32.0062 125.503 31.9125 125.356 31.8469C125.21 31.7781 125.036 31.7437 124.836 31.7437C124.633 31.7437 124.456 31.7875 124.306 31.875C124.156 31.9625 124.033 32.0828 123.936 32.2359C123.842 32.3891 123.772 32.5672 123.725 32.7703C123.678 32.9734 123.655 33.1906 123.655 33.4219ZM129.308 34.9125L129.304 35.7187C129.304 36.0375 129.224 36.3656 129.065 36.7031C128.905 37.0406 128.694 37.3188 128.432 37.5375L127.827 37.1859C127.915 37.0453 127.994 36.9031 128.066 36.7594C128.138 36.6156 128.196 36.4625 128.24 36.3C128.283 36.1375 128.305 35.9578 128.305 35.7609V34.9125H129.308ZM135.806 34.9828V32.5641C135.806 32.3828 135.773 32.2266 135.707 32.0953C135.642 31.9641 135.542 31.8625 135.407 31.7906C135.276 31.7187 135.11 31.6828 134.91 31.6828C134.726 31.6828 134.567 31.7141 134.432 31.7766C134.298 31.8391 134.193 31.9234 134.118 32.0297C134.043 32.1359 134.006 32.2562 134.006 32.3906H132.881C132.881 32.1906 132.929 31.9969 133.026 31.8094C133.123 31.6219 133.264 31.4547 133.448 31.3078C133.632 31.1609 133.853 31.0453 134.109 30.9609C134.365 30.8766 134.653 30.8344 134.971 30.8344C135.353 30.8344 135.69 30.8984 135.984 31.0266C136.281 31.1547 136.514 31.3484 136.682 31.6078C136.854 31.8641 136.94 32.1859 136.94 32.5734V34.8281C136.94 35.0594 136.956 35.2672 136.987 35.4516C137.021 35.6328 137.07 35.7906 137.132 35.925V36H135.975C135.921 35.8781 135.879 35.7234 135.848 35.5359C135.82 35.3453 135.806 35.1609 135.806 34.9828ZM135.97 32.9156L135.979 33.6141H135.168C134.959 33.6141 134.775 33.6344 134.615 33.675C134.456 33.7125 134.323 33.7687 134.217 33.8437C134.11 33.9187 134.031 34.0094 133.978 34.1156C133.925 34.2219 133.898 34.3422 133.898 34.4766C133.898 34.6109 133.929 34.7344 133.992 34.8469C134.054 34.9562 134.145 35.0422 134.264 35.1047C134.385 35.1672 134.532 35.1984 134.704 35.1984C134.935 35.1984 135.137 35.1516 135.309 35.0578C135.484 34.9609 135.621 34.8437 135.721 34.7062C135.821 34.5656 135.875 34.4328 135.881 34.3078L136.246 34.8094C136.209 34.9375 136.145 35.075 136.054 35.2219C135.964 35.3687 135.845 35.5094 135.698 35.6437C135.554 35.775 135.381 35.8828 135.178 35.9672C134.978 36.0516 134.746 36.0938 134.484 36.0938C134.153 36.0938 133.857 36.0281 133.598 35.8969C133.339 35.7625 133.135 35.5828 132.989 35.3578C132.842 35.1297 132.768 34.8719 132.768 34.5844C132.768 34.3156 132.818 34.0781 132.918 33.8719C133.021 33.6625 133.171 33.4875 133.368 33.3469C133.568 33.2062 133.812 33.1 134.1 33.0281C134.387 32.9531 134.715 32.9156 135.084 32.9156H135.97ZM139.322 32.0109V36H138.192V30.9281H139.256L139.322 32.0109ZM139.12 33.2766L138.755 33.2719C138.758 32.9125 138.808 32.5828 138.905 32.2828C139.005 31.9828 139.142 31.725 139.317 31.5094C139.495 31.2937 139.708 31.1281 139.955 31.0125C140.201 30.8937 140.476 30.8344 140.78 30.8344C141.023 30.8344 141.244 30.8687 141.44 30.9375C141.64 31.0031 141.811 31.1109 141.951 31.2609C142.095 31.4109 142.205 31.6062 142.28 31.8469C142.355 32.0844 142.392 32.3766 142.392 32.7234V36H141.258V32.7187C141.258 32.475 141.222 32.2828 141.15 32.1422C141.081 31.9984 140.98 31.8969 140.845 31.8375C140.714 31.775 140.55 31.7437 140.353 31.7437C140.159 31.7437 139.986 31.7844 139.833 31.8656C139.68 31.9469 139.55 32.0578 139.444 32.1984C139.34 32.3391 139.261 32.5016 139.205 32.6859C139.148 32.8703 139.12 33.0672 139.12 33.2766ZM146.719 34.95V28.8H147.853V36H146.827L146.719 34.95ZM143.419 33.5203V33.4219C143.419 33.0375 143.464 32.6875 143.555 32.3719C143.645 32.0531 143.777 31.7797 143.949 31.5516C144.12 31.3203 144.33 31.1437 144.577 31.0219C144.824 30.8969 145.102 30.8344 145.411 30.8344C145.717 30.8344 145.986 30.8937 146.217 31.0125C146.449 31.1312 146.645 31.3016 146.808 31.5234C146.97 31.7422 147.1 32.0047 147.197 32.3109C147.294 32.6141 147.363 32.9516 147.403 33.3234V33.6375C147.363 34 147.294 34.3312 147.197 34.6312C147.1 34.9312 146.97 35.1906 146.808 35.4094C146.645 35.6281 146.447 35.7969 146.213 35.9156C145.981 36.0344 145.711 36.0938 145.402 36.0938C145.095 36.0938 144.819 36.0297 144.572 35.9016C144.328 35.7734 144.12 35.5937 143.949 35.3625C143.777 35.1312 143.645 34.8594 143.555 34.5469C143.464 34.2312 143.419 33.8891 143.419 33.5203ZM144.549 33.4219V33.5203C144.549 33.7516 144.569 33.9672 144.61 34.1672C144.653 34.3672 144.72 34.5437 144.811 34.6969C144.902 34.8469 145.019 34.9656 145.163 35.0531C145.31 35.1375 145.485 35.1797 145.688 35.1797C145.944 35.1797 146.155 35.1234 146.32 35.0109C146.486 34.8984 146.616 34.7469 146.71 34.5562C146.806 34.3625 146.872 34.1469 146.906 33.9094V33.0609C146.888 32.8766 146.849 32.7047 146.789 32.5453C146.733 32.3859 146.656 32.2469 146.56 32.1281C146.463 32.0062 146.342 31.9125 146.199 31.8469C146.058 31.7781 145.891 31.7437 145.697 31.7437C145.491 31.7437 145.316 31.7875 145.172 31.875C145.028 31.9625 144.91 32.0828 144.816 32.2359C144.725 32.3891 144.658 32.5672 144.614 32.7703C144.57 32.9734 144.549 33.1906 144.549 33.4219ZM152.954 29.175V36H151.777V29.175H152.954ZM159.948 34.95V28.8H161.083V36H160.056L159.948 34.95ZM156.648 33.5203V33.4219C156.648 33.0375 156.694 32.6875 156.784 32.3719C156.875 32.0531 157.006 31.7797 157.178 31.5516C157.35 31.3203 157.559 31.1437 157.806 31.0219C158.053 30.8969 158.331 30.8344 158.64 30.8344C158.947 30.8344 159.215 30.8937 159.447 31.0125C159.678 31.1312 159.875 31.3016 160.037 31.5234C160.2 31.7422 160.33 32.0047 160.426 32.3109C160.523 32.6141 160.592 32.9516 160.633 33.3234V33.6375C160.592 34 160.523 34.3312 160.426 34.6312C160.33 34.9312 160.2 35.1906 160.037 35.4094C159.875 35.6281 159.676 35.7969 159.442 35.9156C159.211 36.0344 158.94 36.0938 158.631 36.0938C158.325 36.0938 158.048 36.0297 157.801 35.9016C157.558 35.7734 157.35 35.5937 157.178 35.3625C157.006 35.1312 156.875 34.8594 156.784 34.5469C156.694 34.2312 156.648 33.8891 156.648 33.5203ZM157.778 33.4219V33.5203C157.778 33.7516 157.798 33.9672 157.839 34.1672C157.883 34.3672 157.95 34.5437 158.04 34.6969C158.131 34.8469 158.248 34.9656 158.392 35.0531C158.539 35.1375 158.714 35.1797 158.917 35.1797C159.173 35.1797 159.384 35.1234 159.55 35.0109C159.715 34.8984 159.845 34.7469 159.939 34.5562C160.036 34.3625 160.101 34.1469 160.136 33.9094V33.0609C160.117 32.8766 160.078 32.7047 160.019 32.5453C159.962 32.3859 159.886 32.2469 159.789 32.1281C159.692 32.0062 159.572 31.9125 159.428 31.8469C159.287 31.7781 159.12 31.7437 158.926 31.7437C158.72 31.7437 158.545 31.7875 158.401 31.875C158.258 31.9625 158.139 32.0828 158.045 32.2359C157.955 32.3891 157.887 32.5672 157.844 32.7703C157.8 32.9734 157.778 33.1906 157.778 33.4219ZM162.128 33.5203V33.4125C162.128 33.0469 162.181 32.7078 162.288 32.3953C162.394 32.0797 162.547 31.8062 162.747 31.575C162.95 31.3406 163.197 31.1594 163.488 31.0312C163.781 30.9 164.113 30.8344 164.481 30.8344C164.853 30.8344 165.185 30.9 165.475 31.0312C165.769 31.1594 166.017 31.3406 166.22 31.575C166.424 31.8062 166.578 32.0797 166.685 32.3953C166.791 32.7078 166.844 33.0469 166.844 33.4125V33.5203C166.844 33.8859 166.791 34.225 166.685 34.5375C166.578 34.85 166.424 35.1234 166.22 35.3578C166.017 35.5891 165.77 35.7703 165.48 35.9016C165.189 36.0297 164.86 36.0938 164.491 36.0938C164.119 36.0938 163.786 36.0297 163.492 35.9016C163.202 35.7703 162.955 35.5891 162.752 35.3578C162.549 35.1234 162.394 34.85 162.288 34.5375C162.181 34.225 162.128 33.8859 162.128 33.5203ZM163.258 33.4125V33.5203C163.258 33.7484 163.281 33.9641 163.328 34.1672C163.375 34.3703 163.449 34.5484 163.549 34.7016C163.649 34.8547 163.777 34.975 163.933 35.0625C164.089 35.15 164.275 35.1937 164.491 35.1937C164.7 35.1937 164.881 35.15 165.035 35.0625C165.191 34.975 165.319 34.8547 165.419 34.7016C165.519 34.5484 165.592 34.3703 165.639 34.1672C165.689 33.9641 165.714 33.7484 165.714 33.5203V33.4125C165.714 33.1875 165.689 32.975 165.639 32.775C165.592 32.5719 165.517 32.3922 165.414 32.2359C165.314 32.0797 165.186 31.9578 165.03 31.8703C164.877 31.7797 164.694 31.7344 164.481 31.7344C164.269 31.7344 164.085 31.7797 163.928 31.8703C163.775 31.9578 163.649 32.0797 163.549 32.2359C163.449 32.3922 163.375 32.5719 163.328 32.775C163.281 32.975 163.258 33.1875 163.258 33.4125ZM168.991 32.0109V36H167.861V30.9281H168.925L168.991 32.0109ZM168.79 33.2766L168.424 33.2719C168.427 32.9125 168.477 32.5828 168.574 32.2828C168.674 31.9828 168.811 31.725 168.986 31.5094C169.165 31.2937 169.377 31.1281 169.624 31.0125C169.871 30.8937 170.146 30.8344 170.449 30.8344C170.693 30.8344 170.913 30.8687 171.11 30.9375C171.31 31.0031 171.48 31.1109 171.621 31.2609C171.765 31.4109 171.874 31.6062 171.949 31.8469C172.024 32.0844 172.061 32.3766 172.061 32.7234V36H170.927V32.7187C170.927 32.475 170.891 32.2828 170.819 32.1422C170.75 31.9984 170.649 31.8969 170.515 31.8375C170.383 31.775 170.219 31.7437 170.022 31.7437C169.829 31.7437 169.655 31.7844 169.502 31.8656C169.349 31.9469 169.219 32.0578 169.113 32.1984C169.01 32.3391 168.93 32.5016 168.874 32.6859C168.818 32.8703 168.79 33.0672 168.79 33.2766ZM173.505 28.8V29.4047L173.384 31.2094H172.648L172.652 29.4797V28.8H173.505ZM176.862 30.9281V31.7531H174.003V30.9281H176.862ZM174.828 29.6859H175.957V34.5984C175.957 34.7547 175.979 34.875 176.023 34.9594C176.07 35.0406 176.134 35.0953 176.215 35.1234C176.296 35.1516 176.392 35.1656 176.501 35.1656C176.579 35.1656 176.654 35.1609 176.726 35.1516C176.798 35.1422 176.856 35.1328 176.9 35.1234L176.904 35.9859C176.81 36.0141 176.701 36.0391 176.576 36.0609C176.454 36.0828 176.314 36.0938 176.154 36.0938C175.895 36.0938 175.665 36.0484 175.465 35.9578C175.265 35.8641 175.109 35.7125 174.996 35.5031C174.884 35.2937 174.828 35.0156 174.828 34.6687V29.6859ZM181.424 28.8V36H180.289V28.8H181.424ZM184.574 30.9281L182.366 33.375L181.156 34.6125L180.861 33.6562L181.775 32.5266L183.21 30.9281H184.574ZM183.453 36L181.808 33.6187L182.52 32.8266L184.761 36H183.453ZM186.491 32.0109V36H185.361V30.9281H186.425L186.491 32.0109ZM186.29 33.2766L185.924 33.2719C185.927 32.9125 185.977 32.5828 186.074 32.2828C186.174 31.9828 186.311 31.725 186.486 31.5094C186.665 31.2937 186.877 31.1281 187.124 31.0125C187.371 30.8937 187.646 30.8344 187.949 30.8344C188.193 30.8344 188.413 30.8687 188.61 30.9375C188.81 31.0031 188.98 31.1109 189.121 31.2609C189.265 31.4109 189.374 31.6062 189.449 31.8469C189.524 32.0844 189.561 32.3766 189.561 32.7234V36H188.427V32.7187C188.427 32.475 188.391 32.2828 188.319 32.1422C188.25 31.9984 188.149 31.8969 188.015 31.8375C187.883 31.775 187.719 31.7437 187.522 31.7437C187.329 31.7437 187.155 31.7844 187.002 31.8656C186.849 31.9469 186.719 32.0578 186.613 32.1984C186.51 32.3391 186.43 32.5016 186.374 32.6859C186.318 32.8703 186.29 33.0672 186.29 33.2766ZM190.579 33.5203V33.4125C190.579 33.0469 190.632 32.7078 190.738 32.3953C190.845 32.0797 190.998 31.8062 191.198 31.575C191.401 31.3406 191.648 31.1594 191.938 31.0312C192.232 30.9 192.563 30.8344 192.932 30.8344C193.304 30.8344 193.635 30.9 193.926 31.0312C194.22 31.1594 194.468 31.3406 194.671 31.575C194.874 31.8062 195.029 32.0797 195.135 32.3953C195.241 32.7078 195.295 33.0469 195.295 33.4125V33.5203C195.295 33.8859 195.241 34.225 195.135 34.5375C195.029 34.85 194.874 35.1234 194.671 35.3578C194.468 35.5891 194.221 35.7703 193.93 35.9016C193.64 36.0297 193.31 36.0938 192.941 36.0938C192.57 36.0938 192.237 36.0297 191.943 35.9016C191.652 35.7703 191.405 35.5891 191.202 35.3578C190.999 35.1234 190.845 34.85 190.738 34.5375C190.632 34.225 190.579 33.8859 190.579 33.5203ZM191.709 33.4125V33.5203C191.709 33.7484 191.732 33.9641 191.779 34.1672C191.826 34.3703 191.899 34.5484 191.999 34.7016C192.099 34.8547 192.227 34.975 192.384 35.0625C192.54 35.15 192.726 35.1937 192.941 35.1937C193.151 35.1937 193.332 35.15 193.485 35.0625C193.641 34.975 193.77 34.8547 193.87 34.7016C193.97 34.5484 194.043 34.3703 194.09 34.1672C194.14 33.9641 194.165 33.7484 194.165 33.5203V33.4125C194.165 33.1875 194.14 32.975 194.09 32.775C194.043 32.5719 193.968 32.3922 193.865 32.2359C193.765 32.0797 193.637 31.9578 193.48 31.8703C193.327 31.7797 193.145 31.7344 192.932 31.7344C192.72 31.7344 192.535 31.7797 192.379 31.8703C192.226 31.9578 192.099 32.0797 191.999 32.2359C191.899 32.3922 191.826 32.5719 191.779 32.775C191.732 32.975 191.709 33.1875 191.709 33.4125ZM197.7 34.875L198.871 30.9281H199.593L199.396 32.1094L198.215 36H197.568L197.7 34.875ZM197.01 30.9281L197.925 34.8937L198 36H197.278L195.904 30.9281H197.01ZM200.69 34.8469L201.576 30.9281H202.678L201.309 36H200.587L200.69 34.8469ZM199.715 30.9281L200.873 34.8281L201.018 36H200.371L199.176 32.1047L198.979 30.9281H199.715ZM207.206 30.9281V36H206.072V30.9281H207.206ZM205.997 29.5969C205.997 29.425 206.053 29.2828 206.166 29.1703C206.281 29.0547 206.441 28.9969 206.644 28.9969C206.844 28.9969 207.002 29.0547 207.117 29.1703C207.233 29.2828 207.291 29.425 207.291 29.5969C207.291 29.7656 207.233 29.9062 207.117 30.0187C207.002 30.1312 206.844 30.1875 206.644 30.1875C206.441 30.1875 206.281 30.1312 206.166 30.0187C206.053 29.9062 205.997 29.7656 205.997 29.5969ZM210.052 36H208.922V30.4406C208.922 30.0625 208.993 29.7453 209.133 29.4891C209.277 29.2297 209.482 29.0344 209.747 28.9031C210.013 28.7687 210.327 28.7016 210.69 28.7016C210.802 28.7016 210.913 28.7094 211.022 28.725C211.132 28.7375 211.238 28.7578 211.341 28.7859L211.313 29.6578C211.25 29.6422 211.182 29.6312 211.107 29.625C211.035 29.6187 210.957 29.6156 210.872 29.6156C210.7 29.6156 210.552 29.6484 210.427 29.7141C210.305 29.7766 210.211 29.8687 210.146 29.9906C210.083 30.1125 210.052 30.2625 210.052 30.4406V36ZM211.097 30.9281V31.7531H208.144V30.9281H211.097ZM52.5914 43.9281V49H51.457V43.9281H52.5914ZM51.382 42.5969C51.382 42.425 51.4383 42.2828 51.5508 42.1703C51.6664 42.0547 51.8258 41.9969 52.0289 41.9969C52.2289 41.9969 52.3867 42.0547 52.5023 42.1703C52.618 42.2828 52.6758 42.425 52.6758 42.5969C52.6758 42.7656 52.618 42.9062 52.5023 43.0187C52.3867 43.1312 52.2289 43.1875 52.0289 43.1875C51.8258 43.1875 51.6664 43.1312 51.5508 43.0187C51.4383 42.9062 51.382 42.7656 51.382 42.5969ZM56.2339 43.9281V44.7531H53.3745V43.9281H56.2339ZM54.1995 42.6859H55.3292V47.5984C55.3292 47.7547 55.3511 47.875 55.3948 47.9594C55.4417 48.0406 55.5058 48.0953 55.587 48.1234C55.6683 48.1516 55.7636 48.1656 55.873 48.1656C55.9511 48.1656 56.0261 48.1609 56.098 48.1516C56.1698 48.1422 56.2277 48.1328 56.2714 48.1234L56.2761 48.9859C56.1823 49.0141 56.073 49.0391 55.948 49.0609C55.8261 49.0828 55.6855 49.0938 55.5261 49.0938C55.2667 49.0938 55.037 49.0484 54.837 48.9578C54.637 48.8641 54.4808 48.7125 54.3683 48.5031C54.2558 48.2937 54.1995 48.0156 54.1995 47.6687V42.6859ZM57.8467 41.8V42.4047L57.7248 44.2094H56.9889L56.9936 42.4797V41.8H57.8467ZM61.3298 47.6266C61.3298 47.5141 61.3017 47.4125 61.2455 47.3219C61.1892 47.2281 61.0814 47.1437 60.922 47.0687C60.7658 46.9937 60.5345 46.925 60.2283 46.8625C59.9595 46.8031 59.7127 46.7328 59.4877 46.6516C59.2658 46.5672 59.0752 46.4656 58.9158 46.3469C58.7564 46.2281 58.633 46.0875 58.5455 45.925C58.458 45.7625 58.4142 45.575 58.4142 45.3625C58.4142 45.1562 58.4595 44.9609 58.5502 44.7766C58.6408 44.5922 58.7705 44.4297 58.9392 44.2891C59.108 44.1484 59.3127 44.0375 59.5533 43.9562C59.797 43.875 60.0689 43.8344 60.3689 43.8344C60.7939 43.8344 61.158 43.9062 61.4611 44.05C61.7673 44.1906 62.0017 44.3828 62.1642 44.6266C62.3267 44.8672 62.408 45.1391 62.408 45.4422H61.2783C61.2783 45.3078 61.2439 45.1828 61.1752 45.0672C61.1095 44.9484 61.0095 44.8531 60.8752 44.7812C60.7408 44.7062 60.572 44.6687 60.3689 44.6687C60.1752 44.6687 60.0142 44.7 59.8861 44.7625C59.7611 44.8219 59.6673 44.9 59.6048 44.9969C59.5455 45.0937 59.5158 45.2 59.5158 45.3156C59.5158 45.4 59.5314 45.4766 59.5627 45.5453C59.597 45.6109 59.6533 45.6719 59.7314 45.7281C59.8095 45.7812 59.9158 45.8312 60.0502 45.8781C60.1877 45.925 60.3595 45.9703 60.5658 46.0141C60.9533 46.0953 61.2861 46.2 61.5642 46.3281C61.8455 46.4531 62.0611 46.6156 62.2111 46.8156C62.3611 47.0125 62.4361 47.2625 62.4361 47.5656C62.4361 47.7906 62.3877 47.9969 62.2908 48.1844C62.197 48.3687 62.0595 48.5297 61.8783 48.6672C61.697 48.8016 61.4798 48.9062 61.2267 48.9812C60.9767 49.0563 60.6955 49.0938 60.383 49.0938C59.9236 49.0938 59.5345 49.0125 59.2158 48.85C58.897 48.6844 58.6548 48.4734 58.4892 48.2172C58.3267 47.9578 58.2455 47.6891 58.2455 47.4109H59.3377C59.3502 47.6203 59.408 47.7875 59.5111 47.9125C59.6173 48.0344 59.7486 48.1234 59.9048 48.1797C60.0642 48.2328 60.2283 48.2594 60.397 48.2594C60.6002 48.2594 60.7705 48.2328 60.908 48.1797C61.0455 48.1234 61.1502 48.0484 61.222 47.9547C61.2939 47.8578 61.3298 47.7484 61.3298 47.6266ZM67.5039 49H66.3742V43.4406C66.3742 43.0625 66.4445 42.7453 66.5852 42.4891C66.7289 42.2297 66.9336 42.0344 67.1992 41.9031C67.4648 41.7687 67.7789 41.7016 68.1414 41.7016C68.2539 41.7016 68.3648 41.7094 68.4742 41.725C68.5836 41.7375 68.6898 41.7578 68.793 41.7859L68.7648 42.6578C68.7023 42.6422 68.6336 42.6312 68.5586 42.625C68.4867 42.6187 68.4086 42.6156 68.3242 42.6156C68.1523 42.6156 68.0039 42.6484 67.8789 42.7141C67.757 42.7766 67.6633 42.8687 67.5977 42.9906C67.5352 43.1125 67.5039 43.2625 67.5039 43.4406V49ZM68.5492 43.9281V44.7531H65.5961V43.9281H68.5492ZM70.5839 44.8937V49H69.4542V43.9281H70.5323L70.5839 44.8937ZM72.1355 43.8953L72.1261 44.9453C72.0573 44.9328 71.9823 44.9234 71.9011 44.9172C71.823 44.9109 71.7448 44.9078 71.6667 44.9078C71.473 44.9078 71.3027 44.9359 71.1558 44.9922C71.0089 45.0453 70.8855 45.1234 70.7855 45.2266C70.6886 45.3266 70.6136 45.4484 70.5605 45.5922C70.5073 45.7359 70.4761 45.8969 70.4667 46.075L70.2089 46.0937C70.2089 45.775 70.2402 45.4797 70.3027 45.2078C70.3652 44.9359 70.4589 44.6969 70.5839 44.4906C70.712 44.2844 70.8714 44.1234 71.062 44.0078C71.2558 43.8922 71.4792 43.8344 71.7323 43.8344C71.8011 43.8344 71.8745 43.8406 71.9527 43.8531C72.0339 43.8656 72.0948 43.8797 72.1355 43.8953ZM72.5858 46.5203V46.4125C72.5858 46.0469 72.6389 45.7078 72.7452 45.3953C72.8514 45.0797 73.0045 44.8062 73.2045 44.575C73.4077 44.3406 73.6545 44.1594 73.9452 44.0312C74.2389 43.9 74.5702 43.8344 74.9389 43.8344C75.3108 43.8344 75.642 43.9 75.9327 44.0312C76.2264 44.1594 76.4748 44.3406 76.678 44.575C76.8811 44.8062 77.0358 45.0797 77.142 45.3953C77.2483 45.7078 77.3014 46.0469 77.3014 46.4125V46.5203C77.3014 46.8859 77.2483 47.225 77.142 47.5375C77.0358 47.85 76.8811 48.1234 76.678 48.3578C76.4748 48.5891 76.228 48.7703 75.9373 48.9016C75.6467 49.0297 75.317 49.0938 74.9483 49.0938C74.5764 49.0938 74.2436 49.0297 73.9498 48.9016C73.6592 48.7703 73.4123 48.5891 73.2092 48.3578C73.0061 48.1234 72.8514 47.85 72.7452 47.5375C72.6389 47.225 72.5858 46.8859 72.5858 46.5203ZM73.7155 46.4125V46.5203C73.7155 46.7484 73.7389 46.9641 73.7858 47.1672C73.8327 47.3703 73.9061 47.5484 74.0061 47.7016C74.1061 47.8547 74.2342 47.975 74.3905 48.0625C74.5467 48.15 74.7327 48.1937 74.9483 48.1937C75.1577 48.1937 75.3389 48.15 75.492 48.0625C75.6483 47.975 75.7764 47.8547 75.8764 47.7016C75.9764 47.5484 76.0498 47.3703 76.0967 47.1672C76.1467 46.9641 76.1717 46.7484 76.1717 46.5203V46.4125C76.1717 46.1875 76.1467 45.975 76.0967 45.775C76.0498 45.5719 75.9748 45.3922 75.8717 45.2359C75.7717 45.0797 75.6436 44.9578 75.4873 44.8703C75.3342 44.7797 75.1514 44.7344 74.9389 44.7344C74.7264 44.7344 74.542 44.7797 74.3858 44.8703C74.2327 44.9578 74.1061 45.0797 74.0061 45.2359C73.9061 45.3922 73.8327 45.5719 73.7858 45.775C73.7389 45.975 73.7155 46.1875 73.7155 46.4125ZM79.458 44.9594V49H78.3283V43.9281H79.3923L79.458 44.9594ZM79.2752 46.2766L78.8908 46.2719C78.8908 45.9219 78.9345 45.5984 79.022 45.3016C79.1095 45.0047 79.2377 44.7469 79.4064 44.5281C79.5752 44.3062 79.7845 44.1359 80.0345 44.0172C80.2877 43.8953 80.5798 43.8344 80.9111 43.8344C81.1423 43.8344 81.3533 43.8687 81.5439 43.9375C81.7377 44.0031 81.9048 44.1078 82.0455 44.2516C82.1892 44.3953 82.2986 44.5797 82.3736 44.8047C82.4517 45.0297 82.4908 45.3016 82.4908 45.6203V49H81.3611V45.7187C81.3611 45.4719 81.3236 45.2781 81.2486 45.1375C81.1767 44.9969 81.072 44.8969 80.9345 44.8375C80.8002 44.775 80.6392 44.7437 80.4517 44.7437C80.2392 44.7437 80.058 44.7844 79.908 44.8656C79.7611 44.9469 79.6408 45.0578 79.547 45.1984C79.4533 45.3391 79.3845 45.5016 79.3408 45.6859C79.297 45.8703 79.2752 46.0672 79.2752 46.2766ZM82.4205 45.9766L81.8908 46.0937C81.8908 45.7875 81.933 45.4984 82.0173 45.2266C82.1048 44.9516 82.2314 44.7109 82.397 44.5047C82.5658 44.2953 82.7736 44.1312 83.0205 44.0125C83.2673 43.8937 83.5502 43.8344 83.8689 43.8344C84.1283 43.8344 84.3595 43.8703 84.5627 43.9422C84.7689 44.0109 84.9439 44.1203 85.0877 44.2703C85.2314 44.4203 85.3408 44.6156 85.4158 44.8562C85.4908 45.0937 85.5283 45.3812 85.5283 45.7187V49H84.3939V45.7141C84.3939 45.4578 84.3564 45.2594 84.2814 45.1187C84.2095 44.9781 84.1064 44.8812 83.972 44.8281C83.8377 44.7719 83.6767 44.7437 83.4892 44.7437C83.3142 44.7437 83.1595 44.7766 83.0252 44.8422C82.8939 44.9047 82.783 44.9937 82.6923 45.1094C82.6017 45.2219 82.533 45.3516 82.4861 45.4984C82.4423 45.6453 82.4205 45.8047 82.4205 45.9766ZM94.5945 45.5125V48.1187C94.4977 48.2469 94.3461 48.3875 94.1398 48.5406C93.9367 48.6906 93.6664 48.8203 93.3289 48.9297C92.9914 49.0391 92.5711 49.0938 92.068 49.0938C91.6398 49.0938 91.2477 49.0219 90.8914 48.8781C90.5352 48.7312 90.2273 48.5172 89.968 48.2359C89.7117 47.9547 89.5133 47.6125 89.3727 47.2094C89.232 46.8031 89.1617 46.3406 89.1617 45.8219V45.3484C89.1617 44.8328 89.2258 44.3734 89.3539 43.9703C89.4852 43.5641 89.6727 43.2203 89.9164 42.9391C90.1602 42.6578 90.4539 42.4453 90.7977 42.3016C91.1445 42.1547 91.5367 42.0812 91.9742 42.0812C92.5336 42.0812 92.9961 42.175 93.3617 42.3625C93.7305 42.5469 94.0148 42.8031 94.2148 43.1312C94.4148 43.4594 94.5414 43.8344 94.5945 44.2562H93.4414C93.4039 44.0187 93.3305 43.8062 93.2211 43.6187C93.1148 43.4312 92.9617 43.2844 92.7617 43.1781C92.5648 43.0687 92.3086 43.0141 91.993 43.0141C91.7211 43.0141 91.482 43.0656 91.2758 43.1687C91.0695 43.2719 90.8977 43.4234 90.7602 43.6234C90.6258 43.8234 90.5242 44.0672 90.4555 44.3547C90.3867 44.6422 90.3523 44.9703 90.3523 45.3391V45.8219C90.3523 46.1969 90.3914 46.5297 90.4695 46.8203C90.5508 47.1109 90.6664 47.3562 90.8164 47.5562C90.9695 47.7562 91.1555 47.9078 91.3742 48.0109C91.593 48.1109 91.8398 48.1609 92.1148 48.1609C92.3836 48.1609 92.6039 48.1391 92.7758 48.0953C92.9477 48.0484 93.0836 47.9937 93.1836 47.9312C93.2867 47.8656 93.3664 47.8031 93.4227 47.7437V46.3891H92.0023V45.5125H94.5945ZM95.6495 46.5203V46.4125C95.6495 46.0469 95.7027 45.7078 95.8089 45.3953C95.9152 45.0797 96.0683 44.8062 96.2683 44.575C96.4714 44.3406 96.7183 44.1594 97.0089 44.0312C97.3027 43.9 97.6339 43.8344 98.0027 43.8344C98.3745 43.8344 98.7058 43.9 98.9964 44.0312C99.2902 44.1594 99.5386 44.3406 99.7417 44.575C99.9448 44.8062 100.1 45.0797 100.206 45.3953C100.312 45.7078 100.365 46.0469 100.365 46.4125V46.5203C100.365 46.8859 100.312 47.225 100.206 47.5375C100.1 47.85 99.9448 48.1234 99.7417 48.3578C99.5386 48.5891 99.2917 48.7703 99.0011 48.9016C98.7105 49.0297 98.3808 49.0938 98.012 49.0938C97.6402 49.0938 97.3073 49.0297 97.0136 48.9016C96.723 48.7703 96.4761 48.5891 96.273 48.3578C96.0698 48.1234 95.9152 47.85 95.8089 47.5375C95.7027 47.225 95.6495 46.8859 95.6495 46.5203ZM96.7792 46.4125V46.5203C96.7792 46.7484 96.8027 46.9641 96.8495 47.1672C96.8964 47.3703 96.9698 47.5484 97.0698 47.7016C97.1698 47.8547 97.298 47.975 97.4542 48.0625C97.6105 48.15 97.7964 48.1937 98.012 48.1937C98.2214 48.1937 98.4027 48.15 98.5558 48.0625C98.712 47.975 98.8402 47.8547 98.9402 47.7016C99.0402 47.5484 99.1136 47.3703 99.1605 47.1672C99.2105 46.9641 99.2355 46.7484 99.2355 46.5203V46.4125C99.2355 46.1875 99.2105 45.975 99.1605 45.775C99.1136 45.5719 99.0386 45.3922 98.9355 45.2359C98.8355 45.0797 98.7073 44.9578 98.5511 44.8703C98.398 44.7797 98.2152 44.7344 98.0027 44.7344C97.7902 44.7344 97.6058 44.7797 97.4495 44.8703C97.2964 44.9578 97.1698 45.0797 97.0698 45.2359C96.9698 45.3922 96.8964 45.5719 96.8495 45.775C96.8027 45.975 96.7792 46.1875 96.7792 46.4125ZM104.486 47.95V41.8H105.62V49H104.594L104.486 47.95ZM101.186 46.5203V46.4219C101.186 46.0375 101.231 45.6875 101.322 45.3719C101.412 45.0531 101.544 44.7797 101.715 44.5516C101.887 44.3203 102.097 44.1437 102.344 44.0219C102.59 43.8969 102.869 43.8344 103.178 43.8344C103.484 43.8344 103.753 43.8937 103.984 44.0125C104.215 44.1312 104.412 44.3016 104.575 44.5234C104.737 44.7422 104.867 45.0047 104.964 45.3109C105.061 45.6141 105.13 45.9516 105.17 46.3234V46.6375C105.13 47 105.061 47.3312 104.964 47.6312C104.867 47.9312 104.737 48.1906 104.575 48.4094C104.412 48.6281 104.214 48.7969 103.98 48.9156C103.748 49.0344 103.478 49.0938 103.169 49.0938C102.862 49.0938 102.586 49.0297 102.339 48.9016C102.095 48.7734 101.887 48.5937 101.715 48.3625C101.544 48.1312 101.412 47.8594 101.322 47.5469C101.231 47.2312 101.186 46.8891 101.186 46.5203ZM102.315 46.4219V46.5203C102.315 46.7516 102.336 46.9672 102.376 47.1672C102.42 47.3672 102.487 47.5437 102.578 47.6969C102.669 47.8469 102.786 47.9656 102.93 48.0531C103.076 48.1375 103.251 48.1797 103.455 48.1797C103.711 48.1797 103.922 48.1234 104.087 48.0109C104.253 47.8984 104.383 47.7469 104.476 47.5562C104.573 47.3625 104.639 47.1469 104.673 46.9094V46.0609C104.655 45.8766 104.615 45.7047 104.556 45.5453C104.5 45.3859 104.423 45.2469 104.326 45.1281C104.23 45.0062 104.109 44.9125 103.965 44.8469C103.825 44.7781 103.658 44.7437 103.464 44.7437C103.258 44.7437 103.083 44.7875 102.939 44.875C102.795 44.9625 102.676 45.0828 102.583 45.2359C102.492 45.3891 102.425 45.5672 102.381 45.7703C102.337 45.9734 102.315 46.1906 102.315 46.4219ZM106.928 48.4375C106.928 48.2625 106.988 48.1156 107.106 47.9969C107.225 47.875 107.386 47.8141 107.589 47.8141C107.795 47.8141 107.956 47.875 108.072 47.9969C108.191 48.1156 108.25 48.2625 108.25 48.4375C108.25 48.6125 108.191 48.7594 108.072 48.8781C107.956 48.9969 107.795 49.0563 107.589 49.0563C107.386 49.0563 107.225 48.9969 107.106 48.8781C106.988 48.7594 106.928 48.6125 106.928 48.4375Z" fill="#1F1F1F"/>
<defs>
<clipPath id="clip0_1539_1107">
<rect width="109" height="13" fill="white" transform="translate(49.8008 11)"/>
</clipPath>
</defs>
</svg>
